<?xml version="1.0" encoding="UTF-8" standalone="no"?>
<!DOCTYPE svg PUBLIC "-//W3C//DTD SVG 1.1//EN"
 "http://www.w3.org/Graphics/SVG/1.1/DTD/svg11.dtd">
<!-- Generated by graphviz version 14.1.2 (20260124.0452)
 -->
<!-- Title: MVPVulkan/GEBalljoint.h Pages: 1 -->
<svg width="1562pt" height="420pt"
 viewBox="0.00 0.00 1562.00 420.00" xmlns="http://www.w3.org/2000/svg" xmlns:xlink="http://www.w3.org/1999/xlink">
<g id="graph0" class="graph" transform="scale(1 1) rotate(0) translate(4 416)">
<title>MVPVulkan/GEBalljoint.h</title>
<!-- Node1 -->
<g id="Node000001" class="node">
<title>Node1</title>
<g id="a_Node000001"><a xlink:title="Declaración de la clase GEBalljoint para articulaciones jerárquicas.">
<polygon fill="#999999" stroke="#666666" points="1375.38,-412 1248.38,-412 1248.38,-392 1375.38,-392 1375.38,-412"/>
<text xml:space="preserve" text-anchor="middle" x="1311.88" y="-398.5" font-family="Helvetica,sans-Serif" font-size="10.00">MVPVulkan/GEBalljoint.h</text>
</a>
</g>
</g>
<!-- Node2 -->
<g id="Node000002" class="node">
<title>Node2</title>
<g id="a_Node000002"><a xlink:href="_g_e_graphics_context_8h.html" target="_top" xlink:title="Declaración de la clase GEGraphicsContext que almacena el contexto gráfico de Vulkan.">
<polygon fill="white" stroke="#666666" points="314.88,-76 202.88,-76 202.88,-56 314.88,-56 314.88,-76"/>
<text xml:space="preserve" text-anchor="middle" x="258.88" y="-62.5" font-family="Helvetica,sans-Serif" font-size="10.00">GEGraphicsContext.h</text>
</a>
</g>
</g>
<!-- Node1&#45;&gt;Node2 -->
<g id="edge1_Node000001_Node000002" class="edge">
<title>Node1&#45;&gt;Node2</title>
<g id="a_edge1_Node000001_Node000002"><a xlink:title=" ">
<path fill="none" stroke="#63b8ff" d="M1248.05,-398.58C998.28,-388.7 100.88,-349.15 100.88,-291 100.88,-291 100.88,-291 100.88,-233 100.88,-159.73 182.64,-105.97 228.53,-81.57"/>
<polygon fill="#63b8ff" stroke="#63b8ff" points="229.91,-84.8 237.2,-77.1 226.71,-78.57 229.91,-84.8"/>
</a>
</g>
</g>
<!-- Node5 -->
<g id="Node000005" class="node">
<title>Node5</title>
<g id="a_Node000005"><a xlink:href="_g_e_rendering_context_8h.html" target="_top" xlink:title="Declaración de la clase GERenderingContext que describe un contexto de renderizado.">
<polygon fill="white" stroke="#666666" points="718.5,-188 601.25,-188 601.25,-168 718.5,-168 718.5,-188"/>
<text xml:space="preserve" text-anchor="middle" x="659.88" y="-174.5" font-family="Helvetica,sans-Serif" font-size="10.00">GERenderingContext.h</text>
</a>
</g>
</g>
<!-- Node1&#45;&gt;Node5 -->
<g id="edge4_Node000001_Node000005" class="edge">
<title>Node1&#45;&gt;Node5</title>
<g id="a_edge4_Node000001_Node000005"><a xlink:title=" ">
<path fill="none" stroke="#63b8ff" d="M1248.16,-396.79C1183.25,-391.38 1080.17,-379.72 993.88,-356 869.4,-321.79 833.37,-315.48 725.88,-244 705.88,-230.71 686.76,-210.81 674.29,-196.53"/>
<polygon fill="#63b8ff" stroke="#63b8ff" points="677.24,-194.6 668.1,-189.24 671.91,-199.13 677.24,-194.6"/>
</a>
</g>
</g>
<!-- Node8 -->
<g id="Node000008" class="node">
<title>Node8</title>
<g id="a_Node000008"><a xlink:title=" ">
<polygon fill="#e0e0e0" stroke="#999999" points="980.38,-76 937.38,-76 937.38,-56 980.38,-56 980.38,-76"/>
<text xml:space="preserve" text-anchor="middle" x="958.88" y="-62.5" font-family="Helvetica,sans-Serif" font-size="10.00">vector</text>
</a>
</g>
</g>
<!-- Node1&#45;&gt;Node8 -->
<g id="edge54_Node000001_Node000008" class="edge">
<title>Node1&#45;&gt;Node8</title>
<g id="a_edge54_Node000001_Node000008"><a xlink:title=" ">
<path fill="none" stroke="#63b8ff" d="M1329.04,-391.66C1356.65,-375.25 1407.88,-338.4 1407.88,-291 1407.88,-291 1407.88,-291 1407.88,-177 1407.88,-91.4 1096.15,-72.08 992.18,-68.02"/>
<polygon fill="#63b8ff" stroke="#63b8ff" points="992.47,-64.52 982.35,-67.66 992.21,-71.52 992.47,-64.52"/>
</a>
</g>
</g>
<!-- Node12 -->
<g id="Node000012" class="node">
<title>Node12</title>
<g id="a_Node000012"><a xlink:href="_g_e_sphere_8h.html" target="_top" xlink:title="Declaración de la clase GESphere que describe una esfera.">
<polygon fill="white" stroke="#666666" points="1243.5,-356 1174.25,-356 1174.25,-336 1243.5,-336 1243.5,-356"/>
<text xml:space="preserve" text-anchor="middle" x="1208.88" y="-342.5" font-family="Helvetica,sans-Serif" font-size="10.00">GESphere.h</text>
</a>
</g>
</g>
<!-- Node1&#45;&gt;Node12 -->
<g id="edge19_Node000001_Node000012" class="edge">
<title>Node1&#45;&gt;Node12</title>
<g id="a_edge19_Node000001_Node000012"><a xlink:title=" ">
<path fill="none" stroke="#63b8ff" d="M1293.93,-391.59C1278.23,-383.36 1255.14,-371.26 1236.99,-361.74"/>
<polygon fill="#63b8ff" stroke="#63b8ff" points="1238.78,-358.73 1228.3,-357.18 1235.53,-364.93 1238.78,-358.73"/>
</a>
</g>
</g>
<!-- Node17 -->
<g id="Node000017" class="node">
<title>Node17</title>
<g id="a_Node000017"><a xlink:title=" ">
<polygon fill="#e0e0e0" stroke="#999999" points="1288.5,-188 1219.25,-188 1219.25,-168 1288.5,-168 1288.5,-188"/>
<text xml:space="preserve" text-anchor="middle" x="1253.88" y="-174.5" font-family="Helvetica,sans-Serif" font-size="10.00">glm/glm.hpp</text>
</a>
</g>
</g>
<!-- Node1&#45;&gt;Node17 -->
<g id="edge52_Node000001_Node000017" class="edge">
<title>Node1&#45;&gt;Node17</title>
<g id="a_edge52_Node000001_Node000017"><a xlink:title=" ">
<path fill="none" stroke="#63b8ff" d="M1318.38,-391.7C1336.94,-363.92 1386.6,-279.96 1350.88,-224 1339.46,-206.13 1318.93,-195.25 1299.68,-188.67"/>
<polygon fill="#63b8ff" stroke="#63b8ff" points="1300.91,-185.39 1290.33,-185.81 1298.86,-192.08 1300.91,-185.39"/>
</a>
</g>
</g>
<!-- Node19 -->
<g id="Node000019" class="node">
<title>Node19</title>
<g id="a_Node000019"><a xlink:href="_g_e_light_8h.html" target="_top" xlink:title="Declaración de la estructura GELight para iluminación.">
<polygon fill="white" stroke="#666666" points="1341.62,-244 1282.12,-244 1282.12,-224 1341.62,-224 1341.62,-244"/>
<text xml:space="preserve" text-anchor="middle" x="1311.88" y="-230.5" font-family="Helvetica,sans-Serif" font-size="10.00">GELight.h</text>
</a>
</g>
</g>
<!-- Node1&#45;&gt;Node19 -->
<g id="edge51_Node000001_Node000019" class="edge">
<title>Node1&#45;&gt;Node19</title>
<g id="a_edge51_Node000001_Node000019"><a xlink:title=" ">
<path fill="none" stroke="#63b8ff" d="M1311.88,-391.6C1311.88,-365.46 1311.88,-291.48 1311.88,-255.36"/>
<polygon fill="#63b8ff" stroke="#63b8ff" points="1315.38,-255.81 1311.88,-245.81 1308.38,-255.81 1315.38,-255.81"/>
</a>
</g>
</g>
<!-- Node24 -->
<g id="Node000024" class="node">
<title>Node24</title>
<g id="a_Node000024"><a xlink:href="_g_e_cylinder_8h.html" target="_top" xlink:title="Declaración de la clase GECylinder.">
<polygon fill="white" stroke="#666666" points="1077.12,-356 1002.62,-356 1002.62,-336 1077.12,-336 1077.12,-356"/>
<text xml:space="preserve" text-anchor="middle" x="1039.88" y="-342.5" font-family="Helvetica,sans-Serif" font-size="10.00">GECylinder.h</text>
</a>
</g>
</g>
<!-- Node1&#45;&gt;Node24 -->
<g id="edge49_Node000001_Node000024" class="edge">
<title>Node1&#45;&gt;Node24</title>
<g id="a_edge49_Node000001_Node000024"><a xlink:title=" ">
<path fill="none" stroke="#63b8ff" d="M1264.18,-391.53C1214.85,-381.74 1138.21,-366.52 1088.53,-356.66"/>
<polygon fill="#63b8ff" stroke="#63b8ff" points="1089.41,-353.27 1078.92,-354.75 1088.05,-360.13 1089.41,-353.27"/>
</a>
</g>
</g>
<!-- Node25 -->
<g id="Node000025" class="node">
<title>Node25</title>
<g id="a_Node000025"><a xlink:title=" ">
<polygon fill="#e0e0e0" stroke="#999999" points="1475.88,-356 1435.88,-356 1435.88,-336 1475.88,-336 1475.88,-356"/>
<text xml:space="preserve" text-anchor="middle" x="1455.88" y="-342.5" font-family="Helvetica,sans-Serif" font-size="10.00">string</text>
</a>
</g>
</g>
<!-- Node1&#45;&gt;Node25 -->
<g id="edge53_Node000001_Node000025" class="edge">
<title>Node1&#45;&gt;Node25</title>
<g id="a_edge53_Node000001_Node000025"><a xlink:title=" ">
<path fill="none" stroke="#63b8ff" d="M1336.96,-391.59C1361.49,-382.39 1398.91,-368.36 1425.2,-358.5"/>
<polygon fill="#63b8ff" stroke="#63b8ff" points="1426.17,-361.88 1434.3,-355.09 1423.71,-355.32 1426.17,-361.88"/>
</a>
</g>
</g>
<!-- Node26 -->
<g id="Node000026" class="node">
<title>Node26</title>
<g id="a_Node000026"><a xlink:href="_d_e_b_u_g_8h.html" target="_top" xlink:title="Macros de depuración para desarrollo.">
<polygon fill="white" stroke="#666666" points="1554,-356 1493.75,-356 1493.75,-336 1554,-336 1554,-356"/>
<text xml:space="preserve" text-anchor="middle" x="1523.88" y="-342.5" font-family="Helvetica,sans-Serif" font-size="10.00">DEBUG.h</text>
</a>
</g>
</g>
<!-- Node1&#45;&gt;Node26 -->
<g id="edge55_Node000001_Node000026" class="edge">
<title>Node1&#45;&gt;Node26</title>
<g id="a_edge55_Node000001_Node000026"><a xlink:title=" ">
<path fill="none" stroke="#63b8ff" d="M1348.8,-391.59C1386.16,-382.08 1443.79,-367.4 1482.63,-357.51"/>
<polygon fill="#63b8ff" stroke="#63b8ff" points="1483.25,-360.96 1492.08,-355.1 1481.52,-354.18 1483.25,-360.96"/>
</a>
</g>
</g>
<!-- Node3 -->
<g id="Node000003" class="node">
<title>Node3</title>
<g id="a_Node000003"><a xlink:title=" ">
<polygon fill="#e0e0e0" stroke="#999999" points="298.38,-20 219.38,-20 219.38,0 298.38,0 298.38,-20"/>
<text xml:space="preserve" text-anchor="middle" x="258.88" y="-6.5" font-family="Helvetica,sans-Serif" font-size="10.00">GLFW/glfw3.h</text>
</a>
</g>
</g>
<!-- Node2&#45;&gt;Node3 -->
<g id="edge2_Node000002_Node000003" class="edge">
<title>Node2&#45;&gt;Node3</title>
<g id="a_edge2_Node000002_Node000003"><a xlink:title=" ">
<path fill="none" stroke="#63b8ff" d="M258.88,-55.59C258.88,-49.01 258.88,-39.96 258.88,-31.73"/>
<polygon fill="#63b8ff" stroke="#63b8ff" points="262.38,-31.81 258.88,-21.81 255.38,-31.81 262.38,-31.81"/>
</a>
</g>
</g>
<!-- Node4 -->
<g id="Node000004" class="node">
<title>Node4</title>
<g id="a_Node000004"><a xlink:title=" ">
<polygon fill="#e0e0e0" stroke="#999999" points="557,-20 472.75,-20 472.75,0 557,0 557,-20"/>
<text xml:space="preserve" text-anchor="middle" x="514.88" y="-6.5" font-family="Helvetica,sans-Serif" font-size="10.00">vulkan/vulkan.h</text>
</a>
</g>
</g>
<!-- Node2&#45;&gt;Node4 -->
<g id="edge3_Node000002_Node000004" class="edge">
<title>Node2&#45;&gt;Node4</title>
<g id="a_edge3_Node000002_Node000004"><a xlink:title=" ">
<path fill="none" stroke="#63b8ff" d="M303.76,-55.53C347.74,-46.25 414.79,-32.11 461.48,-22.26"/>
<polygon fill="#63b8ff" stroke="#63b8ff" points="462.05,-25.72 471.11,-20.23 460.61,-18.87 462.05,-25.72"/>
</a>
</g>
</g>
<!-- Node5&#45;&gt;Node2 -->
<g id="edge7_Node000005_Node000002" class="edge">
<title>Node5&#45;&gt;Node2</title>
<g id="a_edge7_Node000005_Node000002"><a xlink:title=" ">
<path fill="none" stroke="#63b8ff" d="M600.93,-173.94C498.35,-168.08 295.6,-153.85 271.88,-132 259.83,-120.9 257.16,-102.06 257.16,-87.51"/>
<polygon fill="#63b8ff" stroke="#63b8ff" points="260.65,-87.79 257.62,-77.64 253.66,-87.47 260.65,-87.79"/>
</a>
</g>
</g>
<!-- Node5&#45;&gt;Node4 -->
<g id="edge5_Node000005_Node000004" class="edge">
<title>Node5&#45;&gt;Node4</title>
<g id="a_edge5_Node000005_Node000004"><a xlink:title=" ">
<path fill="none" stroke="#63b8ff" d="M600.83,-174.53C536.29,-170.43 438.96,-159.73 415.88,-132 384.31,-94.08 447.47,-49.01 486.76,-26.06"/>
<polygon fill="#63b8ff" stroke="#63b8ff" points="488.35,-29.18 495.32,-21.21 484.9,-23.09 488.35,-29.18"/>
</a>
</g>
</g>
<!-- Node6 -->
<g id="Node000006" class="node">
<title>Node6</title>
<g id="a_Node000006"><a xlink:title=" ">
<polygon fill="#e0e0e0" stroke="#999999" points="478.62,-132 425.12,-132 425.12,-112 478.62,-112 478.62,-132"/>
<text xml:space="preserve" text-anchor="middle" x="451.88" y="-118.5" font-family="Helvetica,sans-Serif" font-size="10.00">iostream</text>
</a>
</g>
</g>
<!-- Node5&#45;&gt;Node6 -->
<g id="edge6_Node000005_Node000006" class="edge">
<title>Node5&#45;&gt;Node6</title>
<g id="a_edge6_Node000005_Node000006"><a xlink:title=" ">
<path fill="none" stroke="#63b8ff" d="M623.64,-167.59C586.3,-157.9 528.32,-142.85 490.22,-132.96"/>
<polygon fill="#63b8ff" stroke="#63b8ff" points="491.1,-129.57 480.55,-130.44 489.35,-136.34 491.1,-129.57"/>
</a>
</g>
</g>
<!-- Node7 -->
<g id="Node000007" class="node">
<title>Node7</title>
<g id="a_Node000007"><a xlink:href="_g_e_drawing_context_8h.html" target="_top" xlink:title="Declaración de la clase GEDrawingContext para gestionar swapchain y present.">
<polygon fill="white" stroke="#666666" points="714.38,-132 605.38,-132 605.38,-112 714.38,-112 714.38,-132"/>
<text xml:space="preserve" text-anchor="middle" x="659.88" y="-118.5" font-family="Helvetica,sans-Serif" font-size="10.00">GEDrawingContext.h</text>
</a>
</g>
</g>
<!-- Node5&#45;&gt;Node7 -->
<g id="edge8_Node000005_Node000007" class="edge">
<title>Node5&#45;&gt;Node7</title>
<g id="a_edge8_Node000005_Node000007"><a xlink:title=" ">
<path fill="none" stroke="#63b8ff" d="M659.88,-167.59C659.88,-161.01 659.88,-151.96 659.88,-143.73"/>
<polygon fill="#63b8ff" stroke="#63b8ff" points="663.38,-143.81 659.88,-133.81 656.38,-143.81 663.38,-143.81"/>
</a>
</g>
</g>
<!-- Node10 -->
<g id="Node000010" class="node">
<title>Node10</title>
<g id="a_Node000010"><a xlink:href="_g_e_pipeline_config_8h.html" target="_top" xlink:title="Declaración de la clase GEPipelineConfig que almacena la configuración de un pipeline de renderizado.">
<polygon fill="white" stroke="#666666" points="833.62,-132 732.12,-132 732.12,-112 833.62,-112 833.62,-132"/>
<text xml:space="preserve" text-anchor="middle" x="782.88" y="-118.5" font-family="Helvetica,sans-Serif" font-size="10.00">GEPipelineConfig.h</text>
</a>
</g>
</g>
<!-- Node5&#45;&gt;Node10 -->
<g id="edge13_Node000005_Node000010" class="edge">
<title>Node5&#45;&gt;Node10</title>
<g id="a_edge13_Node000005_Node000010"><a xlink:title=" ">
<path fill="none" stroke="#63b8ff" d="M681.3,-167.59C700.5,-159.17 728.92,-146.69 750.82,-137.07"/>
<polygon fill="#63b8ff" stroke="#63b8ff" points="752.15,-140.31 759.9,-133.09 749.33,-133.9 752.15,-140.31"/>
</a>
</g>
</g>
<!-- Node11 -->
<g id="Node000011" class="node">
<title>Node11</title>
<g id="a_Node000011"><a xlink:href="_g_e_depth_buffer_8h.html" target="_top" xlink:title="Declaración de la clase GEDepthBuffer que gestiona el recurso de profundidad.">
<polygon fill="white" stroke="#666666" points="587,-132 496.75,-132 496.75,-112 587,-112 587,-132"/>
<text xml:space="preserve" text-anchor="middle" x="541.88" y="-118.5" font-family="Helvetica,sans-Serif" font-size="10.00">GEDepthBuffer.h</text>
</a>
</g>
</g>
<!-- Node5&#45;&gt;Node11 -->
<g id="edge16_Node000005_Node000011" class="edge">
<title>Node5&#45;&gt;Node11</title>
<g id="a_edge16_Node000005_Node000011"><a xlink:title=" ">
<path fill="none" stroke="#63b8ff" d="M639.32,-167.59C620.99,-159.21 593.89,-146.8 572.92,-137.21"/>
<polygon fill="#63b8ff" stroke="#63b8ff" points="574.52,-134.09 563.97,-133.11 571.6,-140.45 574.52,-134.09"/>
</a>
</g>
</g>
<!-- Node7&#45;&gt;Node2 -->
<g id="edge11_Node000007_Node000002" class="edge">
<title>Node7&#45;&gt;Node2</title>
<g id="a_edge11_Node000007_Node000002"><a xlink:title=" ">
<path fill="none" stroke="#63b8ff" d="M605.07,-113.27C601.96,-112.84 598.88,-112.41 595.88,-112 502.59,-99.21 394.71,-84.89 326.64,-75.91"/>
<polygon fill="#63b8ff" stroke="#63b8ff" points="327.11,-72.44 316.74,-74.6 326.2,-79.38 327.11,-72.44"/>
</a>
</g>
</g>
<!-- Node7&#45;&gt;Node4 -->
<g id="edge9_Node000007_Node000004" class="edge">
<title>Node7&#45;&gt;Node4</title>
<g id="a_edge9_Node000007_Node000004"><a xlink:title=" ">
<path fill="none" stroke="#63b8ff" d="M663.49,-111.54C668.06,-97.84 673.96,-72.34 661.88,-56 640.58,-27.21 601.22,-16.24 568.59,-12.31"/>
<polygon fill="#63b8ff" stroke="#63b8ff" points="569.17,-8.85 558.87,-11.35 568.48,-15.82 569.17,-8.85"/>
</a>
</g>
</g>
<!-- Node7&#45;&gt;Node8 -->
<g id="edge10_Node000007_Node000008" class="edge">
<title>Node7&#45;&gt;Node8</title>
<g id="a_edge10_Node000007_Node000008"><a xlink:title=" ">
<path fill="none" stroke="#63b8ff" d="M712.3,-111.53C773.99,-100.39 874.52,-82.23 926.09,-72.92"/>
<polygon fill="#63b8ff" stroke="#63b8ff" points="926.5,-76.4 935.72,-71.18 925.26,-69.52 926.5,-76.4"/>
</a>
</g>
</g>
<!-- Node9 -->
<g id="Node000009" class="node">
<title>Node9</title>
<g id="a_Node000009"><a xlink:href="_g_e_window_position_8h.html" target="_top" xlink:title="Declaración de la estructura GEWindowPosition para ventanas.">
<polygon fill="white" stroke="#666666" points="652.38,-76 543.38,-76 543.38,-56 652.38,-56 652.38,-76"/>
<text xml:space="preserve" text-anchor="middle" x="597.88" y="-62.5" font-family="Helvetica,sans-Serif" font-size="10.00">GEWindowPosition.h</text>
</a>
</g>
</g>
<!-- Node7&#45;&gt;Node9 -->
<g id="edge12_Node000007_Node000009" class="edge">
<title>Node7&#45;&gt;Node9</title>
<g id="a_edge12_Node000007_Node000009"><a xlink:title=" ">
<path fill="none" stroke="#63b8ff" d="M649.08,-111.59C640.27,-103.93 627.62,-92.91 617.1,-83.75"/>
<polygon fill="#63b8ff" stroke="#63b8ff" points="619.53,-81.22 609.69,-77.29 614.93,-86.5 619.53,-81.22"/>
</a>
</g>
</g>
<!-- Node10&#45;&gt;Node4 -->
<g id="edge14_Node000010_Node000004" class="edge">
<title>Node10&#45;&gt;Node4</title>
<g id="a_edge14_Node000010_Node000004"><a xlink:title=" ">
<path fill="none" stroke="#63b8ff" d="M770.41,-111.52C751.54,-97.56 714.17,-71.47 678.88,-56 643.44,-40.46 601.31,-29.04 568.62,-21.59"/>
<polygon fill="#63b8ff" stroke="#63b8ff" points="569.48,-18.2 558.96,-19.45 567.96,-25.03 569.48,-18.2"/>
</a>
</g>
</g>
<!-- Node10&#45;&gt;Node8 -->
<g id="edge15_Node000010_Node000008" class="edge">
<title>Node10&#45;&gt;Node8</title>
<g id="a_edge15_Node000010_Node000008"><a xlink:title=" ">
<path fill="none" stroke="#63b8ff" d="M813.53,-111.59C845.07,-101.92 894.02,-86.9 926.26,-77.01"/>
<polygon fill="#63b8ff" stroke="#63b8ff" points="926.93,-80.46 935.46,-74.18 924.87,-73.77 926.93,-80.46"/>
</a>
</g>
</g>
<!-- Node11&#45;&gt;Node2 -->
<g id="edge18_Node000011_Node000002" class="edge">
<title>Node11&#45;&gt;Node2</title>
<g id="a_edge18_Node000011_Node000002"><a xlink:title=" ">
<path fill="none" stroke="#63b8ff" d="M496.41,-112.32C448.52,-103.19 372.84,-88.75 319.8,-78.63"/>
<polygon fill="#63b8ff" stroke="#63b8ff" points="320.48,-75.19 310,-76.76 319.17,-82.07 320.48,-75.19"/>
</a>
</g>
</g>
<!-- Node11&#45;&gt;Node4 -->
<g id="edge17_Node000011_Node000004" class="edge">
<title>Node11&#45;&gt;Node4</title>
<g id="a_edge17_Node000011_Node000004"><a xlink:title=" ">
<path fill="none" stroke="#63b8ff" d="M539.57,-111.62C535.23,-93.92 525.73,-55.24 519.86,-31.32"/>
<polygon fill="#63b8ff" stroke="#63b8ff" points="523.31,-30.7 517.53,-21.82 516.52,-32.37 523.31,-30.7"/>
</a>
</g>
</g>
<!-- Node13 -->
<g id="Node000013" class="node">
<title>Node13</title>
<g id="a_Node000013"><a xlink:href="_g_e_figure_8h.html" target="_top" xlink:title="Declaración de la clase GEFigure para figuras de malla.">
<polygon fill="white" stroke="#666666" points="1002.62,-300 937.12,-300 937.12,-280 1002.62,-280 1002.62,-300"/>
<text xml:space="preserve" text-anchor="middle" x="969.88" y="-286.5" font-family="Helvetica,sans-Serif" font-size="10.00">GEFigure.h</text>
</a>
</g>
</g>
<!-- Node12&#45;&gt;Node13 -->
<g id="edge20_Node000012_Node000013" class="edge">
<title>Node12&#45;&gt;Node13</title>
<g id="a_edge20_Node000012_Node000013"><a xlink:title=" ">
<path fill="none" stroke="#63b8ff" d="M1173.87,-337.09C1131.55,-327.53 1060.31,-311.43 1014.2,-301.01"/>
<polygon fill="#63b8ff" stroke="#63b8ff" points="1015.05,-297.62 1004.53,-298.83 1013.51,-304.45 1015.05,-297.62"/>
</a>
</g>
</g>
<!-- Node13&#45;&gt;Node2 -->
<g id="edge21_Node000013_Node000002" class="edge">
<title>Node13&#45;&gt;Node2</title>
<g id="a_edge21_Node000013_Node000002"><a xlink:title=" ">
<path fill="none" stroke="#63b8ff" d="M936.78,-286.26C819.96,-276.22 427.87,-239.35 313.88,-188 277.86,-171.78 261.86,-167.66 244.88,-132 237.97,-117.51 242.7,-99.58 248.46,-86.23"/>
<polygon fill="#63b8ff" stroke="#63b8ff" points="251.42,-88.14 252.65,-77.62 245.12,-85.08 251.42,-88.14"/>
</a>
</g>
</g>
<!-- Node13&#45;&gt;Node5 -->
<g id="edge22_Node000013_Node000005" class="edge">
<title>Node13&#45;&gt;Node5</title>
<g id="a_edge22_Node000013_Node000005"><a xlink:title=" ">
<path fill="none" stroke="#63b8ff" d="M936.91,-284.72C896.67,-278.78 827.05,-266.18 770.88,-244 738.24,-231.11 703.85,-209.56 682.16,-194.83"/>
<polygon fill="#63b8ff" stroke="#63b8ff" points="684.32,-192.08 674.11,-189.27 680.34,-197.84 684.32,-192.08"/>
</a>
</g>
</g>
<!-- Node13&#45;&gt;Node8 -->
<g id="edge48_Node000013_Node000008" class="edge">
<title>Node13&#45;&gt;Node8</title>
<g id="a_edge48_Node000013_Node000008"><a xlink:title=" ">
<path fill="none" stroke="#63b8ff" d="M966.68,-279.83C963.72,-270.84 959.53,-256.67 957.88,-244 950.19,-185.35 984.93,-170.29 974.88,-112 973.41,-103.54 970.52,-94.55 967.58,-86.86"/>
<polygon fill="#63b8ff" stroke="#63b8ff" points="970.9,-85.72 963.86,-77.8 964.42,-88.38 970.9,-85.72"/>
</a>
</g>
</g>
<!-- Node14 -->
<g id="Node000014" class="node">
<title>Node14</title>
<g id="a_Node000014"><a xlink:href="_g_e_vertex_8h.html" target="_top" xlink:title="Declaración de la estructura GEVertex para vértices.">
<polygon fill="white" stroke="#666666" points="1033,-244 966.75,-244 966.75,-224 1033,-224 1033,-244"/>
<text xml:space="preserve" text-anchor="middle" x="999.88" y="-230.5" font-family="Helvetica,sans-Serif" font-size="10.00">GEVertex.h</text>
</a>
</g>
</g>
<!-- Node13&#45;&gt;Node14 -->
<g id="edge23_Node000013_Node000014" class="edge">
<title>Node13&#45;&gt;Node14</title>
<g id="a_edge23_Node000013_Node000014"><a xlink:title=" ">
<path fill="none" stroke="#63b8ff" d="M975.1,-279.59C978.97,-272.63 984.38,-262.89 989.16,-254.29"/>
<polygon fill="#63b8ff" stroke="#63b8ff" points="992.18,-256.06 993.97,-245.62 986.06,-252.66 992.18,-256.06"/>
</a>
</g>
</g>
<!-- Node16 -->
<g id="Node000016" class="node">
<title>Node16</title>
<g id="a_Node000016"><a xlink:href="_g_e_transform_8h.html" target="_top" xlink:title="Estructura para transformaciones usadas por las figuras.">
<polygon fill="white" stroke="#666666" points="1134.25,-244 1051.5,-244 1051.5,-224 1134.25,-224 1134.25,-244"/>
<text xml:space="preserve" text-anchor="middle" x="1092.88" y="-230.5" font-family="Helvetica,sans-Serif" font-size="10.00">GETransform.h</text>
</a>
</g>
</g>
<!-- Node13&#45;&gt;Node16 -->
<g id="edge25_Node000013_Node000016" class="edge">
<title>Node13&#45;&gt;Node16</title>
<g id="a_edge25_Node000013_Node000016"><a xlink:title=" ">
<path fill="none" stroke="#63b8ff" d="M991.3,-279.59C1010.5,-271.17 1038.92,-258.69 1060.82,-249.07"/>
<polygon fill="#63b8ff" stroke="#63b8ff" points="1062.15,-252.31 1069.9,-245.09 1059.33,-245.9 1062.15,-252.31"/>
</a>
</g>
</g>
<!-- Node13&#45;&gt;Node17 -->
<g id="edge47_Node000013_Node000017" class="edge">
<title>Node13&#45;&gt;Node17</title>
<g id="a_edge47_Node000013_Node000017"><a xlink:title=" ">
<path fill="none" stroke="#63b8ff" d="M1003.03,-287.66C1066.31,-284.42 1201.06,-274.1 1234.88,-244 1247.37,-232.88 1251.85,-214.03 1253.36,-199.49"/>
<polygon fill="#63b8ff" stroke="#63b8ff" points="1256.84,-199.82 1253.95,-189.63 1249.86,-199.4 1256.84,-199.82"/>
</a>
</g>
</g>
<!-- Node18 -->
<g id="Node000018" class="node">
<title>Node18</title>
<g id="a_Node000018"><a xlink:href="_g_e_material_8h.html" target="_top" xlink:title="Declaración de la estructura GEMaterial para materiales.">
<polygon fill="white" stroke="#666666" points="1225.38,-244 1152.38,-244 1152.38,-224 1225.38,-224 1225.38,-244"/>
<text xml:space="preserve" text-anchor="middle" x="1188.88" y="-230.5" font-family="Helvetica,sans-Serif" font-size="10.00">GEMaterial.h</text>
</a>
</g>
</g>
<!-- Node13&#45;&gt;Node18 -->
<g id="edge27_Node000013_Node000018" class="edge">
<title>Node13&#45;&gt;Node18</title>
<g id="a_edge27_Node000013_Node000018"><a xlink:title=" ">
<path fill="none" stroke="#63b8ff" d="M1002.66,-280.92C1039.39,-271.86 1099.25,-257.1 1141.16,-246.77"/>
<polygon fill="#63b8ff" stroke="#63b8ff" points="1141.86,-250.2 1150.73,-244.4 1140.19,-243.4 1141.86,-250.2"/>
</a>
</g>
</g>
<!-- Node13&#45;&gt;Node19 -->
<g id="edge29_Node000013_Node000019" class="edge">
<title>Node13&#45;&gt;Node19</title>
<g id="a_edge29_Node000013_Node000019"><a xlink:title=" ">
<path fill="none" stroke="#63b8ff" d="M1003.04,-284.56C1058.16,-277.06 1172.06,-261.02 1267.88,-244 1268.88,-243.82 1269.9,-243.64 1270.93,-243.45"/>
<polygon fill="#63b8ff" stroke="#63b8ff" points="1271.44,-246.91 1280.61,-241.59 1270.13,-240.04 1271.44,-246.91"/>
</a>
</g>
</g>
<!-- Node20 -->
<g id="Node000020" class="node">
<title>Node20</title>
<g id="a_Node000020"><a xlink:href="_g_e_vertex_buffer_8h.html" target="_top" xlink:title=" ">
<polygon fill="white" stroke="#666666" points="91.75,-132 0,-132 0,-112 91.75,-112 91.75,-132"/>
<text xml:space="preserve" text-anchor="middle" x="45.88" y="-118.5" font-family="Helvetica,sans-Serif" font-size="10.00">GEVertexBuffer.h</text>
</a>
</g>
</g>
<!-- Node13&#45;&gt;Node20 -->
<g id="edge31_Node000013_Node000020" class="edge">
<title>Node13&#45;&gt;Node20</title>
<g id="a_edge31_Node000013_Node000020"><a xlink:title=" ">
<path fill="none" stroke="#63b8ff" d="M936.65,-288.57C793.57,-286.53 234.02,-276.54 162.88,-244 114.33,-221.8 75.5,-169.68 57.23,-141.63"/>
<polygon fill="#63b8ff" stroke="#63b8ff" points="60.36,-140.04 52.06,-133.46 54.45,-143.78 60.36,-140.04"/>
</a>
</g>
</g>
<!-- Node21 -->
<g id="Node000021" class="node">
<title>Node21</title>
<g id="a_Node000021"><a xlink:href="_g_e_index_buffer_8h.html" target="_top" xlink:title="Declaración de la clase GEIndexBuffer para buffers de índices.">
<polygon fill="white" stroke="#666666" points="368.88,-132 280.88,-132 280.88,-112 368.88,-112 368.88,-132"/>
<text xml:space="preserve" text-anchor="middle" x="324.88" y="-118.5" font-family="Helvetica,sans-Serif" font-size="10.00">GEIndexBuffer.h</text>
</a>
</g>
</g>
<!-- Node13&#45;&gt;Node21 -->
<g id="edge34_Node000013_Node000021" class="edge">
<title>Node13&#45;&gt;Node21</title>
<g id="a_edge34_Node000013_Node000021"><a xlink:title=" ">
<path fill="none" stroke="#63b8ff" d="M936.87,-284.1C889.75,-276.84 800.6,-262.11 725.88,-244 590.7,-211.25 433.67,-159.89 362.9,-136.01"/>
<polygon fill="#63b8ff" stroke="#63b8ff" points="364.32,-132.8 353.73,-132.91 362.08,-139.43 364.32,-132.8"/>
</a>
</g>
</g>
<!-- Node22 -->
<g id="Node000022" class="node">
<title>Node22</title>
<g id="a_Node000022"><a xlink:href="_g_e_uniform_buffer_8h.html" target="_top" xlink:title=" ">
<polygon fill="white" stroke="#666666" points="950.12,-132 851.62,-132 851.62,-112 950.12,-112 950.12,-132"/>
<text xml:space="preserve" text-anchor="middle" x="900.88" y="-118.5" font-family="Helvetica,sans-Serif" font-size="10.00">GEUniformBuffer.h</text>
</a>
</g>
</g>
<!-- Node13&#45;&gt;Node22 -->
<g id="edge37_Node000013_Node000022" class="edge">
<title>Node13&#45;&gt;Node22</title>
<g id="a_edge37_Node000013_Node000022"><a xlink:title=" ">
<path fill="none" stroke="#63b8ff" d="M936.79,-284.78C893.14,-278.47 819.93,-264.99 803.88,-244 774.22,-205.23 835.22,-160.69 873.34,-137.99"/>
<polygon fill="#63b8ff" stroke="#63b8ff" points="874.71,-141.24 881.62,-133.21 871.21,-135.18 874.71,-141.24"/>
</a>
</g>
</g>
<!-- Node23 -->
<g id="Node000023" class="node">
<title>Node23</title>
<g id="a_Node000023"><a xlink:href="_g_e_descriptor_set_8h.html" target="_top" xlink:title="Declaración de la clase GEDescriptorSet para gestionar conjuntos de descriptores.">
<polygon fill="white" stroke="#666666" points="911.12,-244 812.62,-244 812.62,-224 911.12,-224 911.12,-244"/>
<text xml:space="preserve" text-anchor="middle" x="861.88" y="-230.5" font-family="Helvetica,sans-Serif" font-size="10.00">GEDescriptorSet.h</text>
</a>
</g>
</g>
<!-- Node13&#45;&gt;Node23 -->
<g id="edge41_Node000013_Node000023" class="edge">
<title>Node13&#45;&gt;Node23</title>
<g id="a_edge41_Node000013_Node000023"><a xlink:title=" ">
<path fill="none" stroke="#63b8ff" d="M951.06,-279.59C934.52,-271.32 910.16,-259.14 891.08,-249.6"/>
<polygon fill="#63b8ff" stroke="#63b8ff" points="892.7,-246.5 882.19,-245.16 889.57,-252.76 892.7,-246.5"/>
</a>
</g>
</g>
<!-- Node15 -->
<g id="Node000015" class="node">
<title>Node15</title>
<g id="a_Node000015"><a xlink:title=" ">
<polygon fill="#e0e0e0" stroke="#999999" points="1151.5,-188 1082.25,-188 1082.25,-168 1151.5,-168 1151.5,-188"/>
<text xml:space="preserve" text-anchor="middle" x="1116.88" y="-174.5" font-family="Helvetica,sans-Serif" font-size="10.00">glm\glm.hpp</text>
</a>
</g>
</g>
<!-- Node14&#45;&gt;Node15 -->
<g id="edge24_Node000014_Node000015" class="edge">
<title>Node14&#45;&gt;Node15</title>
<g id="a_edge24_Node000014_Node000015"><a xlink:title=" ">
<path fill="none" stroke="#63b8ff" d="M1020.25,-223.59C1038.43,-215.21 1065.3,-202.8 1086.09,-193.21"/>
<polygon fill="#63b8ff" stroke="#63b8ff" points="1087.35,-196.48 1094.96,-189.11 1084.42,-190.13 1087.35,-196.48"/>
</a>
</g>
</g>
<!-- Node16&#45;&gt;Node17 -->
<g id="edge26_Node000016_Node000017" class="edge">
<title>Node16&#45;&gt;Node17</title>
<g id="a_edge26_Node000016_Node000017"><a xlink:title=" ">
<path fill="none" stroke="#63b8ff" d="M1120.92,-223.59C1146.96,-214.86 1185.98,-201.77 1215.02,-192.03"/>
<polygon fill="#63b8ff" stroke="#63b8ff" points="1215.81,-195.46 1224.18,-188.96 1213.58,-188.82 1215.81,-195.46"/>
</a>
</g>
</g>
<!-- Node18&#45;&gt;Node17 -->
<g id="edge28_Node000018_Node000017" class="edge">
<title>Node18&#45;&gt;Node17</title>
<g id="a_edge28_Node000018_Node000017"><a xlink:title=" ">
<path fill="none" stroke="#63b8ff" d="M1200.2,-223.59C1209.52,-215.85 1222.95,-204.69 1234.05,-195.47"/>
<polygon fill="#63b8ff" stroke="#63b8ff" points="1236.06,-198.35 1241.52,-189.27 1231.59,-192.96 1236.06,-198.35"/>
</a>
</g>
</g>
<!-- Node19&#45;&gt;Node17 -->
<g id="edge30_Node000019_Node000017" class="edge">
<title>Node19&#45;&gt;Node17</title>
<g id="a_edge30_Node000019_Node000017"><a xlink:title=" ">
<path fill="none" stroke="#63b8ff" d="M1301.77,-223.59C1293.62,-216.01 1281.94,-205.13 1272.16,-196.02"/>
<polygon fill="#63b8ff" stroke="#63b8ff" points="1274.67,-193.58 1264.97,-189.33 1269.9,-198.71 1274.67,-193.58"/>
</a>
</g>
</g>
<!-- Node20&#45;&gt;Node2 -->
<g id="edge33_Node000020_Node000002" class="edge">
<title>Node20&#45;&gt;Node2</title>
<g id="a_edge33_Node000020_Node000002"><a xlink:title=" ">
<path fill="none" stroke="#63b8ff" d="M82.98,-111.59C118.34,-102.63 171.79,-89.08 210.49,-79.27"/>
<polygon fill="#63b8ff" stroke="#63b8ff" points="211.18,-82.7 220.02,-76.85 209.46,-75.92 211.18,-82.7"/>
</a>
</g>
</g>
<!-- Node20&#45;&gt;Node4 -->
<g id="edge32_Node000020_Node000004" class="edge">
<title>Node20&#45;&gt;Node4</title>
<g id="a_edge32_Node000020_Node000004"><a xlink:title=" ">
<path fill="none" stroke="#63b8ff" d="M63.06,-111.58C90.07,-97.21 144.47,-70.02 193.88,-56 285.67,-29.95 396.7,-18.66 461.2,-14.02"/>
<polygon fill="#63b8ff" stroke="#63b8ff" points="461.06,-17.53 470.79,-13.35 460.58,-10.55 461.06,-17.53"/>
</a>
</g>
</g>
<!-- Node21&#45;&gt;Node2 -->
<g id="edge36_Node000021_Node000002" class="edge">
<title>Node21&#45;&gt;Node2</title>
<g id="a_edge36_Node000021_Node000002"><a xlink:title=" ">
<path fill="none" stroke="#63b8ff" d="M313.38,-111.59C303.91,-103.85 290.27,-92.69 279,-83.47"/>
<polygon fill="#63b8ff" stroke="#63b8ff" points="281.37,-80.88 271.41,-77.26 276.93,-86.3 281.37,-80.88"/>
</a>
</g>
</g>
<!-- Node21&#45;&gt;Node4 -->
<g id="edge35_Node000021_Node000004" class="edge">
<title>Node21&#45;&gt;Node4</title>
<g id="a_edge35_Node000021_Node000004"><a xlink:title=" ">
<path fill="none" stroke="#63b8ff" d="M330.86,-111.66C340.3,-97.65 359.93,-71.21 382.88,-56 406.61,-40.27 436.39,-29.49 461.66,-22.44"/>
<polygon fill="#63b8ff" stroke="#63b8ff" points="462.31,-25.89 471.08,-19.94 460.52,-19.12 462.31,-25.89"/>
</a>
</g>
</g>
<!-- Node22&#45;&gt;Node2 -->
<g id="edge38_Node000022_Node000002" class="edge">
<title>Node22&#45;&gt;Node2</title>
<g id="a_edge38_Node000022_Node000002"><a xlink:title=" ">
<path fill="none" stroke="#63b8ff" d="M851.24,-113.04C848.41,-112.67 845.61,-112.32 842.88,-112 656.48,-90.39 435.37,-76.55 326.43,-70.51"/>
<polygon fill="#63b8ff" stroke="#63b8ff" points="326.67,-67.02 316.49,-69.96 326.28,-74.01 326.67,-67.02"/>
</a>
</g>
</g>
<!-- Node22&#45;&gt;Node4 -->
<g id="edge39_Node000022_Node000004" class="edge">
<title>Node22&#45;&gt;Node4</title>
<g id="a_edge39_Node000022_Node000004"><a xlink:title=" ">
<path fill="none" stroke="#63b8ff" d="M875.94,-111.54C839.87,-98.07 770.89,-73.11 710.88,-56 663.2,-42.41 608.12,-30.05 568.51,-21.74"/>
<polygon fill="#63b8ff" stroke="#63b8ff" points="569.24,-18.32 558.74,-19.71 567.81,-25.17 569.24,-18.32"/>
</a>
</g>
</g>
<!-- Node22&#45;&gt;Node8 -->
<g id="edge40_Node000022_Node000008" class="edge">
<title>Node22&#45;&gt;Node8</title>
<g id="a_edge40_Node000022_Node000008"><a xlink:title=" ">
<path fill="none" stroke="#63b8ff" d="M910.98,-111.59C919.13,-104.01 930.81,-93.13 940.59,-84.02"/>
<polygon fill="#63b8ff" stroke="#63b8ff" points="942.85,-86.71 947.78,-77.33 938.08,-81.58 942.85,-86.71"/>
</a>
</g>
</g>
<!-- Node23&#45;&gt;Node2 -->
<g id="edge44_Node000023_Node000002" class="edge">
<title>Node23&#45;&gt;Node2</title>
<g id="a_edge44_Node000023_Node000002"><a xlink:title=" ">
<path fill="none" stroke="#63b8ff" d="M812.17,-232.57C680.55,-230.27 328.18,-216.22 256.88,-132 246.5,-119.75 248.27,-101.05 251.89,-86.85"/>
<polygon fill="#63b8ff" stroke="#63b8ff" points="255.12,-88.26 254.7,-77.67 248.43,-86.21 255.12,-88.26"/>
</a>
</g>
</g>
<!-- Node23&#45;&gt;Node4 -->
<g id="edge42_Node000023_Node000004" class="edge">
<title>Node23&#45;&gt;Node4</title>
<g id="a_edge42_Node000023_Node000004"><a xlink:title=" ">
<path fill="none" stroke="#63b8ff" d="M886.46,-223.57C903.81,-215.97 926.74,-203.94 942.88,-188 987.17,-144.23 1031.78,-102.06 989.88,-56 961.96,-25.31 686.86,-15.1 568.53,-12.11"/>
<polygon fill="#63b8ff" stroke="#63b8ff" points="568.85,-8.61 558.76,-11.87 568.67,-15.61 568.85,-8.61"/>
</a>
</g>
</g>
<!-- Node23&#45;&gt;Node5 -->
<g id="edge45_Node000023_Node000005" class="edge">
<title>Node23&#45;&gt;Node5</title>
<g id="a_edge45_Node000023_Node000005"><a xlink:title=" ">
<path fill="none" stroke="#63b8ff" d="M826.69,-223.59C793.29,-214.67 742.9,-201.19 706.24,-191.39"/>
<polygon fill="#63b8ff" stroke="#63b8ff" points="707.36,-188.07 696.8,-188.87 705.55,-194.83 707.36,-188.07"/>
</a>
</g>
</g>
<!-- Node23&#45;&gt;Node8 -->
<g id="edge43_Node000023_Node000008" class="edge">
<title>Node23&#45;&gt;Node8</title>
<g id="a_edge43_Node000023_Node000008"><a xlink:title=" ">
<path fill="none" stroke="#63b8ff" d="M876.25,-223.63C898.9,-207.89 942.08,-173.72 958.88,-132 964.56,-117.88 964.25,-100.59 962.69,-87.4"/>
<polygon fill="#63b8ff" stroke="#63b8ff" points="966.18,-87.08 961.19,-77.73 959.27,-88.15 966.18,-87.08"/>
</a>
</g>
</g>
<!-- Node23&#45;&gt;Node22 -->
<g id="edge46_Node000023_Node000022" class="edge">
<title>Node23&#45;&gt;Node22</title>
<g id="a_edge46_Node000023_Node000022"><a xlink:title=" ">
<path fill="none" stroke="#63b8ff" d="M865.2,-223.62C871.5,-205.84 885.32,-166.88 893.79,-143"/>
<polygon fill="#63b8ff" stroke="#63b8ff" points="897.01,-144.38 897.05,-133.78 890.41,-142.04 897.01,-144.38"/>
</a>
</g>
</g>
<!-- Node24&#45;&gt;Node13 -->
<g id="edge50_Node000024_Node000013" class="edge">
<title>Node24&#45;&gt;Node13</title>
<g id="a_edge50_Node000024_Node000013"><a xlink:title=" ">
<path fill="none" stroke="#63b8ff" d="M1027.68,-335.59C1017.54,-327.77 1002.88,-316.46 990.86,-307.19"/>
<polygon fill="#63b8ff" stroke="#63b8ff" points="993.18,-304.56 983.13,-301.22 988.91,-310.1 993.18,-304.56"/>
</a>
</g>
</g>
</g>
</svg>
