<?xml version="1.0" encoding="UTF-8" standalone="no"?>
<!DOCTYPE svg PUBLIC "-//W3C//DTD SVG 1.1//EN"
 "http://www.w3.org/Graphics/SVG/1.1/DTD/svg11.dtd">
<!-- Generated by graphviz version 14.1.2 (20260124.0452)
 -->
<!-- Title: MVPVulkan/GEDepthBuffer.h Pages: 1 -->
<svg width="190pt" height="140pt"
 viewBox="0.00 0.00 190.00 140.00" xmlns="http://www.w3.org/2000/svg" xmlns:xlink="http://www.w3.org/1999/xlink">

<svg id="main" version="1.1" xmlns="http://www.w3.org/2000/svg" xmlns:xlink="http://www.w3.org/1999/xlink" xml:space="preserve">

<style type="text/css"><![CDATA[
.node, .edge {opacity: 0.7;}
.node.selected, .edge.selected {opacity: 1;}
.edge:hover path { stroke: red; }
.edge:hover polygon { stroke: red; fill: red; }
]]></style>
<script type="application/ecmascript" xlink:href="svg.min.js"/>
<svg id="graph" class="graph">
<g id="graph0" class="graph" transform="scale(1 1) rotate(0) translate(4 136)">
<title>MVPVulkan/GEDepthBuffer.h</title>
<!-- Node1 -->
<g id="Node000001" class="node">
<title>Node1</title>
<g id="a_Node000001"><a xlink:title="Declaración de la clase GEDepthBuffer que gestiona el recurso de profundidad.">
<polygon fill="#999999" stroke="#666666" points="156.25,-132 12,-132 12,-112 156.25,-112 156.25,-132"/>
<text xml:space="preserve" text-anchor="middle" x="84.12" y="-118.5" font-family="Helvetica,sans-Serif" font-size="10.00">MVPVulkan/GEDepthBuffer.h</text>
</a>
</g>
</g>
<!-- Node2 -->
<g id="Node000002" class="node">
<title>Node2</title>
<g id="a_Node000002"><a xlink:title=" ">
<polygon fill="#e0e0e0" stroke="#999999" points="84.25,-20 0,-20 0,0 84.25,0 84.25,-20"/>
<text xml:space="preserve" text-anchor="middle" x="42.12" y="-6.5" font-family="Helvetica,sans-Serif" font-size="10.00">vulkan/vulkan.h</text>
</a>
</g>
</g>
<!-- Node1&#45;&gt;Node2 -->
<g id="edge1_Node000001_Node000002" class="edge">
<title>Node1&#45;&gt;Node2</title>
<g id="a_edge1_Node000001_Node000002"><a xlink:title=" ">
<path fill="none" stroke="#63b8ff" d="M78.65,-111.59C73.62,-102.65 66.18,-88.72 61.12,-76 55.33,-61.43 50.42,-44.4 47.04,-31.42"/>
<polygon fill="#63b8ff" stroke="#63b8ff" points="50.48,-30.76 44.66,-21.91 43.69,-32.46 50.48,-30.76"/>
</a>
</g>
</g>
<!-- Node3 -->
<g id="Node000003" class="node">
<title>Node3</title>
<g id="a_Node000003"><a xlink:href="_g_e_graphics_context_8h.html" target="_top" xlink:title="Declaración de la clase GEGraphicsContext que almacena el contexto gráfico de Vulkan.">
<polygon fill="white" stroke="#666666" points="182.12,-76 70.12,-76 70.12,-56 182.12,-56 182.12,-76"/>
<text xml:space="preserve" text-anchor="middle" x="126.12" y="-62.5" font-family="Helvetica,sans-Serif" font-size="10.00">GEGraphicsContext.h</text>
</a>
</g>
</g>
<!-- Node1&#45;&gt;Node3 -->
<g id="edge2_Node000001_Node000003" class="edge">
<title>Node1&#45;&gt;Node3</title>
<g id="a_edge2_Node000001_Node000003"><a xlink:title=" ">
<path fill="none" stroke="#63b8ff" d="M91.44,-111.59C97.1,-104.32 105.11,-94.02 112.01,-85.15"/>
<polygon fill="#63b8ff" stroke="#63b8ff" points="114.59,-87.54 117.96,-77.49 109.06,-83.24 114.59,-87.54"/>
</a>
</g>
</g>
<!-- Node3&#45;&gt;Node2 -->
<g id="edge4_Node000003_Node000002" class="edge">
<title>Node3&#45;&gt;Node2</title>
<g id="a_edge4_Node000003_Node000002"><a xlink:title=" ">
<path fill="none" stroke="#63b8ff" d="M111.49,-55.59C99.04,-47.59 80.91,-35.93 66.3,-26.54"/>
<polygon fill="#63b8ff" stroke="#63b8ff" points="68.45,-23.76 58.14,-21.3 64.66,-29.65 68.45,-23.76"/>
</a>
</g>
</g>
<!-- Node4 -->
<g id="Node000004" class="node">
<title>Node4</title>
<g id="a_Node000004"><a xlink:title=" ">
<polygon fill="#e0e0e0" stroke="#999999" points="181.62,-20 102.62,-20 102.62,0 181.62,0 181.62,-20"/>
<text xml:space="preserve" text-anchor="middle" x="142.12" y="-6.5" font-family="Helvetica,sans-Serif" font-size="10.00">GLFW/glfw3.h</text>
</a>
</g>
</g>
<!-- Node3&#45;&gt;Node4 -->
<g id="edge3_Node000003_Node000004" class="edge">
<title>Node3&#45;&gt;Node4</title>
<g id="a_edge3_Node000003_Node000004"><a xlink:title=" ">
<path fill="none" stroke="#63b8ff" d="M128.91,-55.59C130.91,-48.86 133.67,-39.53 136.15,-31.15"/>
<polygon fill="#63b8ff" stroke="#63b8ff" points="139.45,-32.33 138.94,-21.75 132.74,-30.34 139.45,-32.33"/>
</a>
</g>
</g>
</g>
</svg>
</svg>

<style type='text/css'>
<![CDATA[
[data-mouse-over-selected='false'] { opacity: 0.7; }
[data-mouse-over-selected='true']  { opacity: 1.0; }
]]>
</style>
<script type="application/ecmascript"><![CDATA[
document.addEventListener('DOMContentLoaded', (event) => {
  highlightEdges();
  highlightAdjacentNodes();
});
]]></script>
</svg>
