<?xml version="1.0" encoding="UTF-8" standalone="no"?>
<!DOCTYPE svg PUBLIC "-//W3C//DTD SVG 1.1//EN"
 "http://www.w3.org/Graphics/SVG/1.1/DTD/svg11.dtd">
<!-- Generated by graphviz version 14.1.2 (20260124.0452)
 -->
<!-- Title: MVPVulkan/GEGraphicsContext.h Pages: 1 -->
<svg width="190pt" height="84pt"
 viewBox="0.00 0.00 190.00 84.00" xmlns="http://www.w3.org/2000/svg" xmlns:xlink="http://www.w3.org/1999/xlink">
<g id="graph0" class="graph" transform="scale(1 1) rotate(0) translate(4 80)">
<title>MVPVulkan/GEGraphicsContext.h</title>
<!-- Node1 -->
<g id="Node000001" class="node">
<title>Node1</title>
<g id="a_Node000001"><a xlink:title="Declaración de la clase GEGraphicsContext que almacena el contexto gráfico de Vulkan.">
<polygon fill="#999999" stroke="#666666" points="172.5,-76 6.5,-76 6.5,-56 172.5,-56 172.5,-76"/>
<text xml:space="preserve" text-anchor="middle" x="89.5" y="-62.5" font-family="Helvetica,sans-Serif" font-size="10.00">MVPVulkan/GEGraphicsContext.h</text>
</a>
</g>
</g>
<!-- Node2 -->
<g id="Node000002" class="node">
<title>Node2</title>
<g id="a_Node000002"><a xlink:title=" ">
<polygon fill="#e0e0e0" stroke="#999999" points="79,-20 0,-20 0,0 79,0 79,-20"/>
<text xml:space="preserve" text-anchor="middle" x="39.5" y="-6.5" font-family="Helvetica,sans-Serif" font-size="10.00">GLFW/glfw3.h</text>
</a>
</g>
</g>
<!-- Node1&#45;&gt;Node2 -->
<g id="edge1_Node000001_Node000002" class="edge">
<title>Node1&#45;&gt;Node2</title>
<g id="a_edge1_Node000001_Node000002"><a xlink:title=" ">
<path fill="none" stroke="#63b8ff" d="M80.79,-55.59C73.91,-48.16 64.11,-37.58 55.78,-28.58"/>
<polygon fill="#63b8ff" stroke="#63b8ff" points="58.5,-26.37 49.14,-21.41 53.36,-31.12 58.5,-26.37"/>
</a>
</g>
</g>
<!-- Node3 -->
<g id="Node000003" class="node">
<title>Node3</title>
<g id="a_Node000003"><a xlink:title=" ">
<polygon fill="#e0e0e0" stroke="#999999" points="181.62,-20 97.38,-20 97.38,0 181.62,0 181.62,-20"/>
<text xml:space="preserve" text-anchor="middle" x="139.5" y="-6.5" font-family="Helvetica,sans-Serif" font-size="10.00">vulkan/vulkan.h</text>
</a>
</g>
</g>
<!-- Node1&#45;&gt;Node3 -->
<g id="edge2_Node000001_Node000003" class="edge">
<title>Node1&#45;&gt;Node3</title>
<g id="a_edge2_Node000001_Node000003"><a xlink:title=" ">
<path fill="none" stroke="#63b8ff" d="M98.21,-55.59C105.09,-48.16 114.89,-37.58 123.22,-28.58"/>
<polygon fill="#63b8ff" stroke="#63b8ff" points="125.64,-31.12 129.86,-21.41 120.5,-26.37 125.64,-31.12"/>
</a>
</g>
</g>
</g>
</svg>
