<?xml version="1.0" encoding="UTF-8" standalone="no"?>
<!DOCTYPE svg PUBLIC "-//W3C//DTD SVG 1.1//EN"
 "http://www.w3.org/Graphics/SVG/1.1/DTD/svg11.dtd">
<!-- Generated by graphviz version 14.1.2 (20260124.0452)
 -->
<!-- Title: MVPVulkan/GECommandContext.cpp Pages: 1 -->
<svg width="229pt" height="196pt"
 viewBox="0.00 0.00 229.00 196.00" xmlns="http://www.w3.org/2000/svg" xmlns:xlink="http://www.w3.org/1999/xlink">

<svg id="main" version="1.1" xmlns="http://www.w3.org/2000/svg" xmlns:xlink="http://www.w3.org/1999/xlink" xml:space="preserve">

<style type="text/css"><![CDATA[
.node, .edge {opacity: 0.7;}
.node.selected, .edge.selected {opacity: 1;}
.edge:hover path { stroke: red; }
.edge:hover polygon { stroke: red; fill: red; }
]]></style>
<script type="application/ecmascript" xlink:href="svg.min.js"/>
<svg id="graph" class="graph">
<g id="graph0" class="graph" transform="scale(1 1) rotate(0) translate(4 192)">
<title>MVPVulkan/GECommandContext.cpp</title>
<!-- Node1 -->
<g id="Node000001" class="node">
<title>Node1</title>
<g id="a_Node000001"><a xlink:title="Implementaci칩n de la clase GECommandContext.">
<polygon fill="#999999" stroke="#666666" points="212.38,-188 29.88,-188 29.88,-168 212.38,-168 212.38,-188"/>
<text xml:space="preserve" text-anchor="middle" x="121.12" y="-174.5" font-family="Helvetica,sans-Serif" font-size="10.00">MVPVulkan/GECommandContext.cpp</text>
</a>
</g>
</g>
<!-- Node2 -->
<g id="Node000002" class="node">
<title>Node2</title>
<g id="a_Node000002"><a xlink:href="_g_e_command_context_8h.html" target="_top" xlink:title="Declaraci칩n de la clase GECommandContext que gestiona buffers de comandos.">
<polygon fill="white" stroke="#666666" points="128.12,-132 10.12,-132 10.12,-112 128.12,-112 128.12,-132"/>
<text xml:space="preserve" text-anchor="middle" x="69.12" y="-118.5" font-family="Helvetica,sans-Serif" font-size="10.00">GECommandContext.h</text>
</a>
</g>
</g>
<!-- Node1&#45;&gt;Node2 -->
<g id="edge1_Node000001_Node000002" class="edge">
<title>Node1&#45;&gt;Node2</title>
<g id="a_edge1_Node000001_Node000002"><a xlink:title=" ">
<path fill="none" stroke="#63b8ff" d="M112.07,-167.59C104.91,-160.16 94.72,-149.58 86.06,-140.58"/>
<polygon fill="#63b8ff" stroke="#63b8ff" points="88.59,-138.16 79.13,-133.39 83.54,-143.02 88.59,-138.16"/>
</a>
</g>
</g>
<!-- Node7 -->
<g id="Node000007" class="node">
<title>Node7</title>
<g id="a_Node000007"><a xlink:title=" ">
<polygon fill="#e0e0e0" stroke="#999999" points="199.88,-132 146.38,-132 146.38,-112 199.88,-112 199.88,-132"/>
<text xml:space="preserve" text-anchor="middle" x="173.12" y="-118.5" font-family="Helvetica,sans-Serif" font-size="10.00">iostream</text>
</a>
</g>
</g>
<!-- Node1&#45;&gt;Node7 -->
<g id="edge7_Node000001_Node000007" class="edge">
<title>Node1&#45;&gt;Node7</title>
<g id="a_edge7_Node000001_Node000007"><a xlink:title=" ">
<path fill="none" stroke="#63b8ff" d="M130.18,-167.59C137.34,-160.16 147.53,-149.58 156.19,-140.58"/>
<polygon fill="#63b8ff" stroke="#63b8ff" points="158.71,-143.02 163.12,-133.39 153.66,-138.16 158.71,-143.02"/>
</a>
</g>
</g>
<!-- Node3 -->
<g id="Node000003" class="node">
<title>Node3</title>
<g id="a_Node000003"><a xlink:title=" ">
<polygon fill="#e0e0e0" stroke="#999999" points="84.25,-20 0,-20 0,0 84.25,0 84.25,-20"/>
<text xml:space="preserve" text-anchor="middle" x="42.12" y="-6.5" font-family="Helvetica,sans-Serif" font-size="10.00">vulkan/vulkan.h</text>
</a>
</g>
</g>
<!-- Node2&#45;&gt;Node3 -->
<g id="edge2_Node000002_Node000003" class="edge">
<title>Node2&#45;&gt;Node3</title>
<g id="a_edge2_Node000002_Node000003"><a xlink:title=" ">
<path fill="none" stroke="#63b8ff" d="M60.05,-111.57C52.53,-103.05 42.41,-89.77 38.12,-76 33.59,-61.44 34.95,-44.17 37.24,-31.1"/>
<polygon fill="#63b8ff" stroke="#63b8ff" points="40.62,-32.06 39.26,-21.55 33.77,-30.62 40.62,-32.06"/>
</a>
</g>
</g>
<!-- Node4 -->
<g id="Node000004" class="node">
<title>Node4</title>
<g id="a_Node000004"><a xlink:title=" ">
<polygon fill="#e0e0e0" stroke="#999999" points="90.62,-76 47.62,-76 47.62,-56 90.62,-56 90.62,-76"/>
<text xml:space="preserve" text-anchor="middle" x="69.12" y="-62.5" font-family="Helvetica,sans-Serif" font-size="10.00">vector</text>
</a>
</g>
</g>
<!-- Node2&#45;&gt;Node4 -->
<g id="edge3_Node000002_Node000004" class="edge">
<title>Node2&#45;&gt;Node4</title>
<g id="a_edge3_Node000002_Node000004"><a xlink:title=" ">
<path fill="none" stroke="#63b8ff" d="M69.12,-111.59C69.12,-105.01 69.12,-95.96 69.12,-87.73"/>
<polygon fill="#63b8ff" stroke="#63b8ff" points="72.63,-87.81 69.13,-77.81 65.63,-87.81 72.63,-87.81"/>
</a>
</g>
</g>
<!-- Node5 -->
<g id="Node000005" class="node">
<title>Node5</title>
<g id="a_Node000005"><a xlink:href="_g_e_graphics_context_8h.html" target="_top" xlink:title="Declaraci칩n de la clase GEGraphicsContext que almacena el contexto gr치fico de Vulkan.">
<polygon fill="white" stroke="#666666" points="221.12,-76 109.12,-76 109.12,-56 221.12,-56 221.12,-76"/>
<text xml:space="preserve" text-anchor="middle" x="165.12" y="-62.5" font-family="Helvetica,sans-Serif" font-size="10.00">GEGraphicsContext.h</text>
</a>
</g>
</g>
<!-- Node2&#45;&gt;Node5 -->
<g id="edge4_Node000002_Node000005" class="edge">
<title>Node2&#45;&gt;Node5</title>
<g id="a_edge4_Node000002_Node000005"><a xlink:title=" ">
<path fill="none" stroke="#63b8ff" d="M85.85,-111.59C100.35,-103.44 121.6,-91.48 138.45,-82"/>
<polygon fill="#63b8ff" stroke="#63b8ff" points="139.95,-85.17 146.95,-77.22 136.52,-79.07 139.95,-85.17"/>
</a>
</g>
</g>
<!-- Node5&#45;&gt;Node3 -->
<g id="edge6_Node000005_Node000003" class="edge">
<title>Node5&#45;&gt;Node3</title>
<g id="a_edge6_Node000005_Node000003"><a xlink:title=" ">
<path fill="none" stroke="#63b8ff" d="M143.7,-55.59C124.5,-47.17 96.08,-34.69 74.18,-25.07"/>
<polygon fill="#63b8ff" stroke="#63b8ff" points="75.67,-21.9 65.1,-21.09 72.85,-28.31 75.67,-21.9"/>
</a>
</g>
</g>
<!-- Node6 -->
<g id="Node000006" class="node">
<title>Node6</title>
<g id="a_Node000006"><a xlink:title=" ">
<polygon fill="#e0e0e0" stroke="#999999" points="204.62,-20 125.62,-20 125.62,0 204.62,0 204.62,-20"/>
<text xml:space="preserve" text-anchor="middle" x="165.12" y="-6.5" font-family="Helvetica,sans-Serif" font-size="10.00">GLFW/glfw3.h</text>
</a>
</g>
</g>
<!-- Node5&#45;&gt;Node6 -->
<g id="edge5_Node000005_Node000006" class="edge">
<title>Node5&#45;&gt;Node6</title>
<g id="a_edge5_Node000005_Node000006"><a xlink:title=" ">
<path fill="none" stroke="#63b8ff" d="M165.12,-55.59C165.12,-49.01 165.12,-39.96 165.12,-31.73"/>
<polygon fill="#63b8ff" stroke="#63b8ff" points="168.63,-31.81 165.13,-21.81 161.63,-31.81 168.63,-31.81"/>
</a>
</g>
</g>
</g>
</svg>
</svg>

<style type='text/css'>
<![CDATA[
[data-mouse-over-selected='false'] { opacity: 0.7; }
[data-mouse-over-selected='true']  { opacity: 1.0; }
]]>
</style>
<script type="application/ecmascript"><![CDATA[
document.addEventListener('DOMContentLoaded', (event) => {
  highlightEdges();
  highlightAdjacentNodes();
});
]]></script>
</svg>
