<?xml version="1.0" encoding="UTF-8" standalone="no"?>
<!DOCTYPE svg PUBLIC "-//W3C//DTD SVG 1.1//EN"
 "http://www.w3.org/Graphics/SVG/1.1/DTD/svg11.dtd">
<!-- Generated by graphviz version 14.1.2 (20260124.0452)
 -->
<!-- Title: MVPVulkan/GESphere.h Pages: 1 -->
<svg width="642pt" height="308pt"
 viewBox="0.00 0.00 642.00 308.00" xmlns="http://www.w3.org/2000/svg" xmlns:xlink="http://www.w3.org/1999/xlink">
<g id="graph0" class="graph" transform="scale(1 1) rotate(0) translate(4 304)">
<title>MVPVulkan/GESphere.h</title>
<!-- Node1 -->
<g id="Node000001" class="node">
<title>Node1</title>
<g id="a_Node000001"><a xlink:title="Declaración de la clase GESphere que describe una esfera.">
<polygon fill="#999999" stroke="#666666" points="533.88,-300 410.62,-300 410.62,-280 533.88,-280 533.88,-300"/>
<text xml:space="preserve" text-anchor="middle" x="472.25" y="-286.5" font-family="Helvetica,sans-Serif" font-size="10.00">MVPVulkan/GESphere.h</text>
</a>
</g>
</g>
<!-- Node2 -->
<g id="Node000002" class="node">
<title>Node2</title>
<g id="a_Node000002"><a xlink:href="_g_e_balljoint_8h.html" target="_top" xlink:title="Declaración de la clase GEBalljoint para articulaciones jerárquicas.">
<polygon fill="white" stroke="#666666" points="309.75,-244 182.75,-244 182.75,-224 309.75,-224 309.75,-244"/>
<text xml:space="preserve" text-anchor="middle" x="246.25" y="-230.5" font-family="Helvetica,sans-Serif" font-size="10.00">MVPVulkan/GEBalljoint.h</text>
</a>
</g>
</g>
<!-- Node1&#45;&gt;Node2 -->
<g id="edge1_Node000001_Node000002" class="edge">
<title>Node1&#45;&gt;Node2</title>
<g id="a_edge1_Node000001_Node000002"><a xlink:title=" ">
<path fill="none" stroke="#63b8ff" d="M421.5,-276.88C380.48,-267.07 323.54,-253.47 285.83,-244.46"/>
<polygon fill="#63b8ff" stroke="#63b8ff" points="420.61,-280.26 431.15,-279.18 422.24,-273.45 420.61,-280.26"/>
</a>
</g>
</g>
<!-- Node10 -->
<g id="Node000010" class="node">
<title>Node10</title>
<g id="a_Node000010"><a xlink:href="_g_e_scene_8cpp.html" target="_top" xlink:title="Escena con animación de tiro libre de baloncesto.">
<polygon fill="white" stroke="#666666" points="490.62,-76 359.88,-76 359.88,-56 490.62,-56 490.62,-76"/>
<text xml:space="preserve" text-anchor="middle" x="425.25" y="-62.5" font-family="Helvetica,sans-Serif" font-size="10.00">MVPVulkan/GEScene.cpp</text>
</a>
</g>
</g>
<!-- Node1&#45;&gt;Node10 -->
<g id="edge12_Node000001_Node000010" class="edge">
<title>Node1&#45;&gt;Node10</title>
<g id="a_edge12_Node000001_Node000010"><a xlink:title=" ">
<path fill="none" stroke="#63b8ff" d="M472.97,-268.4C473.51,-234.71 471.91,-166.17 453.25,-112 448.63,-98.6 439.44,-85.04 432.84,-76.36"/>
<polygon fill="#63b8ff" stroke="#63b8ff" points="469.47,-268.25 472.72,-278.34 476.47,-268.43 469.47,-268.25"/>
</a>
</g>
</g>
<!-- Node12 -->
<g id="Node000012" class="node">
<title>Node12</title>
<g id="a_Node000012"><a xlink:href="_g_e_sphere_8cpp.html" target="_top" xlink:title="Implementación de la clase GESphere.">
<polygon fill="white" stroke="#666666" points="634.12,-244 500.38,-244 500.38,-224 634.12,-224 634.12,-244"/>
<text xml:space="preserve" text-anchor="middle" x="567.25" y="-230.5" font-family="Helvetica,sans-Serif" font-size="10.00">MVPVulkan/GESphere.cpp</text>
</a>
</g>
</g>
<!-- Node1&#45;&gt;Node12 -->
<g id="edge13_Node000001_Node000012" class="edge">
<title>Node1&#45;&gt;Node12</title>
<g id="a_edge13_Node000001_Node000012"><a xlink:title=" ">
<path fill="none" stroke="#63b8ff" d="M498.5,-274.08C515.15,-264.62 536.18,-252.66 550.57,-244.48"/>
<polygon fill="#63b8ff" stroke="#63b8ff" points="497.08,-270.86 490.11,-278.85 500.54,-276.95 497.08,-270.86"/>
</a>
</g>
</g>
<!-- Node3 -->
<g id="Node000003" class="node">
<title>Node3</title>
<g id="a_Node000003"><a xlink:href="_g_e_animation_8cpp.html" target="_top" xlink:title="Implementación del sistema de animación por keyframes.">
<polygon fill="white" stroke="#666666" points="146.5,-132 0,-132 0,-112 146.5,-112 146.5,-132"/>
<text xml:space="preserve" text-anchor="middle" x="73.25" y="-118.5" font-family="Helvetica,sans-Serif" font-size="10.00">MVPVulkan/GEAnimation.cpp</text>
</a>
</g>
</g>
<!-- Node2&#45;&gt;Node3 -->
<g id="edge2_Node000002_Node000003" class="edge">
<title>Node2&#45;&gt;Node3</title>
<g id="a_edge2_Node000002_Node000003"><a xlink:title=" ">
<path fill="none" stroke="#63b8ff" d="M171.4,-226.32C143.33,-220.26 113.2,-208.95 92.25,-188 77.12,-172.87 73.9,-146.4 73.3,-132.36"/>
<polygon fill="#63b8ff" stroke="#63b8ff" points="170.47,-229.71 180.95,-228.18 171.8,-222.84 170.47,-229.71"/>
</a>
</g>
</g>
<!-- Node4 -->
<g id="Node000004" class="node">
<title>Node4</title>
<g id="a_Node000004"><a xlink:href="_g_e_balljoint_8cpp.html" target="_top" xlink:title="Implementación de la clase GEBalljoint con soporte jerárquico.">
<polygon fill="white" stroke="#666666" points="239,-188 101.5,-188 101.5,-168 239,-168 239,-188"/>
<text xml:space="preserve" text-anchor="middle" x="170.25" y="-174.5" font-family="Helvetica,sans-Serif" font-size="10.00">MVPVulkan/GEBalljoint.cpp</text>
</a>
</g>
</g>
<!-- Node2&#45;&gt;Node4 -->
<g id="edge3_Node000002_Node000004" class="edge">
<title>Node2&#45;&gt;Node4</title>
<g id="a_edge3_Node000002_Node000004"><a xlink:title=" ">
<path fill="none" stroke="#63b8ff" d="M223.73,-217C210.67,-207.72 194.67,-196.35 183.59,-188.48"/>
<polygon fill="#63b8ff" stroke="#63b8ff" points="221.6,-219.78 231.78,-222.72 225.65,-214.07 221.6,-219.78"/>
</a>
</g>
</g>
<!-- Node5 -->
<g id="Node000005" class="node">
<title>Node5</title>
<g id="a_Node000005"><a xlink:href="_g_e_skeleton_8h.html" target="_top" xlink:title="Declaración de la clase GESkeleton que representa un esqueleto con articulaciones jerárquicas.">
<polygon fill="white" stroke="#666666" points="387.62,-188 256.88,-188 256.88,-168 387.62,-168 387.62,-188"/>
<text xml:space="preserve" text-anchor="middle" x="322.25" y="-174.5" font-family="Helvetica,sans-Serif" font-size="10.00">MVPVulkan/GESkeleton.h</text>
</a>
</g>
</g>
<!-- Node2&#45;&gt;Node5 -->
<g id="edge4_Node000002_Node000005" class="edge">
<title>Node2&#45;&gt;Node5</title>
<g id="a_edge4_Node000002_Node000005"><a xlink:title=" ">
<path fill="none" stroke="#63b8ff" d="M268.77,-217C281.83,-207.72 297.83,-196.35 308.91,-188.48"/>
<polygon fill="#63b8ff" stroke="#63b8ff" points="266.85,-214.07 260.72,-222.72 270.9,-219.78 266.85,-214.07"/>
</a>
</g>
</g>
<!-- Node5&#45;&gt;Node3 -->
<g id="edge5_Node000005_Node000003" class="edge">
<title>Node5&#45;&gt;Node3</title>
<g id="a_edge5_Node000005_Node000003"><a xlink:title=" ">
<path fill="none" stroke="#63b8ff" d="M267.5,-165.13C222.21,-155.31 158.76,-141.54 116.86,-132.46"/>
<polygon fill="#63b8ff" stroke="#63b8ff" points="266.6,-168.51 277.11,-167.21 268.08,-161.67 266.6,-168.51"/>
</a>
</g>
</g>
<!-- Node6 -->
<g id="Node000006" class="node">
<title>Node6</title>
<g id="a_Node000006"><a xlink:href="_g_e_scene_8h.html" target="_top" xlink:title="Declaración de la clase GEScene que contiene la escena con esqueleto animado.">
<polygon fill="white" stroke="#666666" points="284.38,-132 164.12,-132 164.12,-112 284.38,-112 284.38,-132"/>
<text xml:space="preserve" text-anchor="middle" x="224.25" y="-118.5" font-family="Helvetica,sans-Serif" font-size="10.00">MVPVulkan/GEScene.h</text>
</a>
</g>
</g>
<!-- Node5&#45;&gt;Node6 -->
<g id="edge6_Node000005_Node000006" class="edge">
<title>Node5&#45;&gt;Node6</title>
<g id="a_edge6_Node000005_Node000006"><a xlink:title=" ">
<path fill="none" stroke="#63b8ff" d="M295.17,-162.08C278,-152.62 256.3,-140.66 241.45,-132.48"/>
<polygon fill="#63b8ff" stroke="#63b8ff" points="293.41,-165.1 303.85,-166.86 296.78,-158.97 293.41,-165.1"/>
</a>
</g>
</g>
<!-- Node11 -->
<g id="Node000011" class="node">
<title>Node11</title>
<g id="a_Node000011"><a xlink:href="_g_e_skeleton_8cpp.html" target="_top" xlink:title="Implementación de GESkeleton con carga desde archivo .skel.">
<polygon fill="white" stroke="#666666" points="443.88,-132 302.62,-132 302.62,-112 443.88,-112 443.88,-132"/>
<text xml:space="preserve" text-anchor="middle" x="373.25" y="-118.5" font-family="Helvetica,sans-Serif" font-size="10.00">MVPVulkan/GESkeleton.cpp</text>
</a>
</g>
</g>
<!-- Node5&#45;&gt;Node11 -->
<g id="edge11_Node000005_Node000011" class="edge">
<title>Node5&#45;&gt;Node11</title>
<g id="a_edge11_Node000005_Node000011"><a xlink:title=" ">
<path fill="none" stroke="#63b8ff" d="M338.98,-159.29C347.49,-150.28 357.48,-139.7 364.47,-132.3"/>
<polygon fill="#63b8ff" stroke="#63b8ff" points="336.49,-156.82 332.17,-166.49 341.58,-161.63 336.49,-156.82"/>
</a>
</g>
</g>
<!-- Node7 -->
<g id="Node000007" class="node">
<title>Node7</title>
<g id="a_Node000007"><a xlink:href="_g_e_application_8h.html" target="_top" xlink:title="Declaración de la clase GEApplication que crea y lanza la aplicación gráfica.">
<polygon fill="white" stroke="#666666" points="294.5,-76 154,-76 154,-56 294.5,-56 294.5,-76"/>
<text xml:space="preserve" text-anchor="middle" x="224.25" y="-62.5" font-family="Helvetica,sans-Serif" font-size="10.00">MVPVulkan/GEApplication.h</text>
</a>
</g>
</g>
<!-- Node6&#45;&gt;Node7 -->
<g id="edge7_Node000006_Node000007" class="edge">
<title>Node6&#45;&gt;Node7</title>
<g id="a_edge7_Node000006_Node000007"><a xlink:title=" ">
<path fill="none" stroke="#63b8ff" d="M224.25,-100.13C224.25,-91.9 224.25,-82.85 224.25,-76.3"/>
<polygon fill="#63b8ff" stroke="#63b8ff" points="220.75,-100.08 224.25,-110.08 227.75,-100.08 220.75,-100.08"/>
</a>
</g>
</g>
<!-- Node6&#45;&gt;Node10 -->
<g id="edge10_Node000006_Node000010" class="edge">
<title>Node6&#45;&gt;Node10</title>
<g id="a_edge10_Node000006_Node000010"><a xlink:title=" ">
<path fill="none" stroke="#63b8ff" d="M270.08,-108.69C306.49,-98.91 356.64,-85.43 389.97,-76.48"/>
<polygon fill="#63b8ff" stroke="#63b8ff" points="269.47,-105.23 260.72,-111.2 271.29,-111.99 269.47,-105.23"/>
</a>
</g>
</g>
<!-- Node8 -->
<g id="Node000008" class="node">
<title>Node8</title>
<g id="a_Node000008"><a xlink:href="_g_e_application_8cpp.html" target="_top" xlink:title="Implementación de la clase GEApplication.">
<polygon fill="white" stroke="#666666" points="225.75,-20 74.75,-20 74.75,0 225.75,0 225.75,-20"/>
<text xml:space="preserve" text-anchor="middle" x="150.25" y="-6.5" font-family="Helvetica,sans-Serif" font-size="10.00">MVPVulkan/GEApplication.cpp</text>
</a>
</g>
</g>
<!-- Node7&#45;&gt;Node8 -->
<g id="edge8_Node000007_Node000008" class="edge">
<title>Node7&#45;&gt;Node8</title>
<g id="a_edge8_Node000007_Node000008"><a xlink:title=" ">
<path fill="none" stroke="#63b8ff" d="M202.26,-48.95C189.46,-39.61 173.77,-28.16 162.99,-20.3"/>
<polygon fill="#63b8ff" stroke="#63b8ff" points="200,-51.63 210.14,-54.7 204.12,-45.98 200,-51.63"/>
</a>
</g>
</g>
<!-- Node9 -->
<g id="Node000009" class="node">
<title>Node9</title>
<g id="a_Node000009"><a xlink:href="main_8cpp.html" target="_top" xlink:title="Punto de entrada principal de la aplicación MVPVulkan.">
<polygon fill="white" stroke="#666666" points="353.12,-20 243.38,-20 243.38,0 353.12,0 353.12,-20"/>
<text xml:space="preserve" text-anchor="middle" x="298.25" y="-6.5" font-family="Helvetica,sans-Serif" font-size="10.00">MVPVulkan/main.cpp</text>
</a>
</g>
</g>
<!-- Node7&#45;&gt;Node9 -->
<g id="edge9_Node000007_Node000009" class="edge">
<title>Node7&#45;&gt;Node9</title>
<g id="a_edge9_Node000007_Node000009"><a xlink:title=" ">
<path fill="none" stroke="#63b8ff" d="M246.24,-48.95C259.04,-39.61 274.73,-28.16 285.51,-20.3"/>
<polygon fill="#63b8ff" stroke="#63b8ff" points="244.38,-45.98 238.36,-54.7 248.5,-51.63 244.38,-45.98"/>
</a>
</g>
</g>
</g>
</svg>
