<?xml version="1.0" encoding="UTF-8" standalone="no"?>
<!DOCTYPE svg PUBLIC "-//W3C//DTD SVG 1.1//EN"
 "http://www.w3.org/Graphics/SVG/1.1/DTD/svg11.dtd">
<!-- Generated by graphviz version 14.1.2 (20260124.0452)
 -->
<!-- Title: MVPVulkan/GEVertex.h Pages: 1 -->
<svg width="900pt" height="420pt"
 viewBox="0.00 0.00 900.00 420.00" xmlns="http://www.w3.org/2000/svg" xmlns:xlink="http://www.w3.org/1999/xlink">
<g id="graph0" class="graph" transform="scale(1 1) rotate(0) translate(4 416)">
<title>MVPVulkan/GEVertex.h</title>
<!-- Node1 -->
<g id="Node000001" class="node">
<title>Node1</title>
<g id="a_Node000001"><a xlink:title="Declaración de la estructura GEVertex para vértices.">
<polygon fill="#999999" stroke="#666666" points="267.12,-412 146.88,-412 146.88,-392 267.12,-392 267.12,-412"/>
<text xml:space="preserve" text-anchor="middle" x="207" y="-398.5" font-family="Helvetica,sans-Serif" font-size="10.00">MVPVulkan/GEVertex.h</text>
</a>
</g>
</g>
<!-- Node2 -->
<g id="Node000002" class="node">
<title>Node2</title>
<g id="a_Node000002"><a xlink:href="_g_e_figure_8cpp.html" target="_top" xlink:title="Implementación de la clase GEFigure.">
<polygon fill="white" stroke="#666666" points="130,-300 0,-300 0,-280 130,-280 130,-300"/>
<text xml:space="preserve" text-anchor="middle" x="65" y="-286.5" font-family="Helvetica,sans-Serif" font-size="10.00">MVPVulkan/GEFigure.cpp</text>
</a>
</g>
</g>
<!-- Node1&#45;&gt;Node2 -->
<g id="edge1_Node000001_Node000002" class="edge">
<title>Node1&#45;&gt;Node2</title>
<g id="a_edge1_Node000001_Node000002"><a xlink:title=" ">
<path fill="none" stroke="#63b8ff" d="M186.03,-384.76C155.88,-361.4 101.26,-319.09 77.08,-300.35"/>
<polygon fill="#63b8ff" stroke="#63b8ff" points="183.65,-387.34 193.7,-390.69 187.93,-381.8 183.65,-387.34"/>
</a>
</g>
</g>
<!-- Node3 -->
<g id="Node000003" class="node">
<title>Node3</title>
<g id="a_Node000003"><a xlink:href="_g_e_figure_8h.html" target="_top" xlink:title="Declaración de la clase GEFigure para figuras de malla.">
<polygon fill="white" stroke="#666666" points="312.75,-356 193.25,-356 193.25,-336 312.75,-336 312.75,-356"/>
<text xml:space="preserve" text-anchor="middle" x="253" y="-342.5" font-family="Helvetica,sans-Serif" font-size="10.00">MVPVulkan/GEFigure.h</text>
</a>
</g>
</g>
<!-- Node1&#45;&gt;Node3 -->
<g id="edge2_Node000001_Node000003" class="edge">
<title>Node1&#45;&gt;Node3</title>
<g id="a_edge2_Node000001_Node000003"><a xlink:title=" ">
<path fill="none" stroke="#63b8ff" d="M222.33,-383C229.95,-374.06 238.84,-363.62 245.08,-356.3"/>
<polygon fill="#63b8ff" stroke="#63b8ff" points="219.81,-380.56 215.99,-390.44 225.14,-385.1 219.81,-380.56"/>
</a>
</g>
</g>
<!-- Node3&#45;&gt;Node2 -->
<g id="edge17_Node000003_Node000002" class="edge">
<title>Node3&#45;&gt;Node2</title>
<g id="a_edge17_Node000003_Node000002"><a xlink:title=" ">
<path fill="none" stroke="#63b8ff" d="M209.25,-332.43C175.27,-322.67 128.9,-309.35 98,-300.48"/>
<polygon fill="#63b8ff" stroke="#63b8ff" points="208.22,-335.78 218.8,-335.18 210.15,-329.05 208.22,-335.78"/>
</a>
</g>
</g>
<!-- Node4 -->
<g id="Node000004" class="node">
<title>Node4</title>
<g id="a_Node000004"><a xlink:href="_g_e_cylinder_8h.html" target="_top" xlink:title="Declaración de la clase GECylinder.">
<polygon fill="white" stroke="#666666" points="615.25,-300 486.75,-300 486.75,-280 615.25,-280 615.25,-300"/>
<text xml:space="preserve" text-anchor="middle" x="551" y="-286.5" font-family="Helvetica,sans-Serif" font-size="10.00">MVPVulkan/GECylinder.h</text>
</a>
</g>
</g>
<!-- Node3&#45;&gt;Node4 -->
<g id="edge3_Node000003_Node000004" class="edge">
<title>Node3&#45;&gt;Node4</title>
<g id="a_edge3_Node000003_Node000004"><a xlink:title=" ">
<path fill="none" stroke="#63b8ff" d="M316.47,-333.5C370.79,-323.66 448.03,-309.66 498.81,-300.46"/>
<polygon fill="#63b8ff" stroke="#63b8ff" points="315.95,-330.04 306.74,-335.26 317.2,-336.92 315.95,-330.04"/>
</a>
</g>
</g>
<!-- Node9 -->
<g id="Node000009" class="node">
<title>Node9</title>
<g id="a_Node000009"><a xlink:href="_g_e_scene_8h.html" target="_top" xlink:title="Declaración de la clase GEScene que contiene la escena con esqueleto animado.">
<polygon fill="white" stroke="#666666" points="310.12,-132 189.88,-132 189.88,-112 310.12,-112 310.12,-132"/>
<text xml:space="preserve" text-anchor="middle" x="250" y="-118.5" font-family="Helvetica,sans-Serif" font-size="10.00">MVPVulkan/GEScene.h</text>
</a>
</g>
</g>
<!-- Node3&#45;&gt;Node9 -->
<g id="edge21_Node000003_Node000009" class="edge">
<title>Node3&#45;&gt;Node9</title>
<g id="a_edge21_Node000003_Node000009"><a xlink:title=" ">
<path fill="none" stroke="#63b8ff" d="M234.44,-327.89C215.81,-309.32 188.29,-277.78 177,-244 161.76,-198.39 212.65,-151.69 237.34,-132.31"/>
<polygon fill="#63b8ff" stroke="#63b8ff" points="231.81,-330.21 241.44,-334.64 236.68,-325.18 231.81,-330.21"/>
</a>
</g>
</g>
<!-- Node16 -->
<g id="Node000016" class="node">
<title>Node16</title>
<g id="a_Node000016"><a xlink:href="_g_e_ground_8h.html" target="_top" xlink:title="Declaración de la clase GEGround para terreno rectangular.">
<polygon fill="white" stroke="#666666" points="875,-300 751,-300 751,-280 875,-280 875,-300"/>
<text xml:space="preserve" text-anchor="middle" x="813" y="-286.5" font-family="Helvetica,sans-Serif" font-size="10.00">MVPVulkan/GEGround.h</text>
</a>
</g>
</g>
<!-- Node3&#45;&gt;Node16 -->
<g id="edge18_Node000003_Node000016" class="edge">
<title>Node3&#45;&gt;Node16</title>
<g id="a_edge18_Node000003_Node000016"><a xlink:title=" ">
<path fill="none" stroke="#63b8ff" d="M324.55,-338.1C435.16,-327.43 645.81,-307.12 750.59,-297.02"/>
<polygon fill="#63b8ff" stroke="#63b8ff" points="324.32,-334.61 314.7,-339.05 324.99,-341.57 324.32,-334.61"/>
</a>
</g>
</g>
<!-- Node18 -->
<g id="Node000018" class="node">
<title>Node18</title>
<g id="a_Node000018"><a xlink:href="_g_e_sphere_8h.html" target="_top" xlink:title="Declaración de la clase GESphere que describe una esfera.">
<polygon fill="white" stroke="#666666" points="362.62,-300 239.38,-300 239.38,-280 362.62,-280 362.62,-300"/>
<text xml:space="preserve" text-anchor="middle" x="301" y="-286.5" font-family="Helvetica,sans-Serif" font-size="10.00">MVPVulkan/GESphere.h</text>
</a>
</g>
</g>
<!-- Node3&#45;&gt;Node18 -->
<g id="edge22_Node000003_Node000018" class="edge">
<title>Node3&#45;&gt;Node18</title>
<g id="a_edge22_Node000003_Node000018"><a xlink:title=" ">
<path fill="none" stroke="#63b8ff" d="M269,-327C276.95,-318.06 286.22,-307.62 292.73,-300.3"/>
<polygon fill="#63b8ff" stroke="#63b8ff" points="266.39,-324.66 262.37,-334.46 271.63,-329.31 266.39,-324.66"/>
</a>
</g>
</g>
<!-- Node5 -->
<g id="Node000005" class="node">
<title>Node5</title>
<g id="a_Node000005"><a xlink:href="_g_e_balljoint_8h.html" target="_top" xlink:title="Declaración de la clase GEBalljoint para articulaciones jerárquicas.">
<polygon fill="white" stroke="#666666" points="522.5,-244 395.5,-244 395.5,-224 522.5,-224 522.5,-244"/>
<text xml:space="preserve" text-anchor="middle" x="459" y="-230.5" font-family="Helvetica,sans-Serif" font-size="10.00">MVPVulkan/GEBalljoint.h</text>
</a>
</g>
</g>
<!-- Node4&#45;&gt;Node5 -->
<g id="edge4_Node000004_Node000005" class="edge">
<title>Node4&#45;&gt;Node5</title>
<g id="a_edge4_Node000004_Node000005"><a xlink:title=" ">
<path fill="none" stroke="#63b8ff" d="M525.12,-273.81C509.07,-264.39 488.96,-252.58 475.15,-244.48"/>
<polygon fill="#63b8ff" stroke="#63b8ff" points="523.27,-276.78 533.67,-278.83 526.82,-270.75 523.27,-276.78"/>
</a>
</g>
</g>
<!-- Node13 -->
<g id="Node000013" class="node">
<title>Node13</title>
<g id="a_Node000013"><a xlink:href="_g_e_scene_8cpp.html" target="_top" xlink:title="Escena con animación de tiro libre de baloncesto.">
<polygon fill="white" stroke="#666666" points="626.38,-76 495.62,-76 495.62,-56 626.38,-56 626.38,-76"/>
<text xml:space="preserve" text-anchor="middle" x="561" y="-62.5" font-family="Helvetica,sans-Serif" font-size="10.00">MVPVulkan/GEScene.cpp</text>
</a>
</g>
</g>
<!-- Node4&#45;&gt;Node13 -->
<g id="edge16_Node000004_Node000013" class="edge">
<title>Node4&#45;&gt;Node13</title>
<g id="a_edge16_Node000004_Node000013"><a xlink:title=" ">
<path fill="none" stroke="#63b8ff" d="M626.56,-280.73C650.01,-274.34 673.69,-263.23 689,-244 720.12,-204.9 696.78,-181.93 699,-132 699.4,-123.12 704.22,-119.19 699,-112 682.35,-89.06 653.68,-77.59 626.78,-71.94"/>
<polygon fill="#63b8ff" stroke="#63b8ff" points="625.84,-277.3 616.94,-283.06 627.49,-284.1 625.84,-277.3"/>
</a>
</g>
</g>
<!-- Node15 -->
<g id="Node000015" class="node">
<title>Node15</title>
<g id="a_Node000015"><a xlink:href="_g_e_cylinder_8cpp.html" target="_top" xlink:title="Implementación de la clase GECylinder.">
<polygon fill="white" stroke="#666666" points="679.5,-244 540.5,-244 540.5,-224 679.5,-224 679.5,-244"/>
<text xml:space="preserve" text-anchor="middle" x="610" y="-230.5" font-family="Helvetica,sans-Serif" font-size="10.00">MVPVulkan/GECylinder.cpp</text>
</a>
</g>
</g>
<!-- Node4&#45;&gt;Node15 -->
<g id="edge15_Node000004_Node000015" class="edge">
<title>Node4&#45;&gt;Node15</title>
<g id="a_edge15_Node000004_Node000015"><a xlink:title=" ">
<path fill="none" stroke="#63b8ff" d="M569.74,-271.85C579.71,-262.72 591.58,-251.86 599.84,-244.3"/>
<polygon fill="#63b8ff" stroke="#63b8ff" points="567.41,-269.24 562.39,-278.57 572.13,-274.4 567.41,-269.24"/>
</a>
</g>
</g>
<!-- Node6 -->
<g id="Node000006" class="node">
<title>Node6</title>
<g id="a_Node000006"><a xlink:href="_g_e_animation_8cpp.html" target="_top" xlink:title="Implementación del sistema de animación por keyframes.">
<polygon fill="white" stroke="#666666" points="690.25,-132 543.75,-132 543.75,-112 690.25,-112 690.25,-132"/>
<text xml:space="preserve" text-anchor="middle" x="617" y="-118.5" font-family="Helvetica,sans-Serif" font-size="10.00">MVPVulkan/GEAnimation.cpp</text>
</a>
</g>
</g>
<!-- Node5&#45;&gt;Node6 -->
<g id="edge5_Node000005_Node000006" class="edge">
<title>Node5&#45;&gt;Node6</title>
<g id="a_edge5_Node000005_Node000006"><a xlink:title=" ">
<path fill="none" stroke="#63b8ff" d="M529.97,-221.64C584.74,-212.14 652.58,-198.51 661,-188 676.09,-169.18 649.28,-145.31 631.29,-132.37"/>
<polygon fill="#63b8ff" stroke="#63b8ff" points="529.62,-218.14 520.35,-223.28 530.8,-225.04 529.62,-218.14"/>
</a>
</g>
</g>
<!-- Node7 -->
<g id="Node000007" class="node">
<title>Node7</title>
<g id="a_Node000007"><a xlink:href="_g_e_balljoint_8cpp.html" target="_top" xlink:title="Implementación de la clase GEBalljoint con soporte jerárquico.">
<polygon fill="white" stroke="#666666" points="503.75,-188 366.25,-188 366.25,-168 503.75,-168 503.75,-188"/>
<text xml:space="preserve" text-anchor="middle" x="435" y="-174.5" font-family="Helvetica,sans-Serif" font-size="10.00">MVPVulkan/GEBalljoint.cpp</text>
</a>
</g>
</g>
<!-- Node5&#45;&gt;Node7 -->
<g id="edge6_Node000005_Node000007" class="edge">
<title>Node5&#45;&gt;Node7</title>
<g id="a_edge6_Node000005_Node000007"><a xlink:title=" ">
<path fill="none" stroke="#63b8ff" d="M450.24,-213.29C446.45,-204.75 442.18,-195.16 439.13,-188.3"/>
<polygon fill="#63b8ff" stroke="#63b8ff" points="446.95,-214.49 454.2,-222.21 453.34,-211.65 446.95,-214.49"/>
</a>
</g>
</g>
<!-- Node8 -->
<g id="Node000008" class="node">
<title>Node8</title>
<g id="a_Node000008"><a xlink:href="_g_e_skeleton_8h.html" target="_top" xlink:title="Declaración de la clase GESkeleton que representa un esqueleto con articulaciones jerárquicas.">
<polygon fill="white" stroke="#666666" points="652.38,-188 521.62,-188 521.62,-168 652.38,-168 652.38,-188"/>
<text xml:space="preserve" text-anchor="middle" x="587" y="-174.5" font-family="Helvetica,sans-Serif" font-size="10.00">MVPVulkan/GESkeleton.h</text>
</a>
</g>
</g>
<!-- Node5&#45;&gt;Node8 -->
<g id="edge7_Node000005_Node000008" class="edge">
<title>Node5&#45;&gt;Node8</title>
<g id="a_edge7_Node000005_Node000008"><a xlink:title=" ">
<path fill="none" stroke="#63b8ff" d="M491.85,-219.14C514.64,-209.52 544.41,-196.97 564.53,-188.48"/>
<polygon fill="#63b8ff" stroke="#63b8ff" points="490.54,-215.89 482.69,-223.01 493.26,-222.34 490.54,-215.89"/>
</a>
</g>
</g>
<!-- Node8&#45;&gt;Node6 -->
<g id="edge8_Node000008_Node000006" class="edge">
<title>Node8&#45;&gt;Node6</title>
<g id="a_edge8_Node000008_Node000006"><a xlink:title=" ">
<path fill="none" stroke="#63b8ff" d="M597.79,-157.58C602.57,-148.97 607.98,-139.24 611.83,-132.3"/>
<polygon fill="#63b8ff" stroke="#63b8ff" points="594.76,-155.83 592.96,-166.27 600.88,-159.23 594.76,-155.83"/>
</a>
</g>
</g>
<!-- Node8&#45;&gt;Node9 -->
<g id="edge9_Node000008_Node000009" class="edge">
<title>Node8&#45;&gt;Node9</title>
<g id="a_edge9_Node000008_Node000009"><a xlink:title=" ">
<path fill="none" stroke="#63b8ff" d="M516.76,-165.74C455.26,-155.89 366.93,-141.74 309.02,-132.46"/>
<polygon fill="#63b8ff" stroke="#63b8ff" points="515.99,-169.17 526.42,-167.29 517.1,-162.25 515.99,-169.17"/>
</a>
</g>
</g>
<!-- Node14 -->
<g id="Node000014" class="node">
<title>Node14</title>
<g id="a_Node000014"><a xlink:href="_g_e_skeleton_8cpp.html" target="_top" xlink:title="Implementación de GESkeleton con carga desde archivo .skel.">
<polygon fill="white" stroke="#666666" points="525.62,-132 384.38,-132 384.38,-112 525.62,-112 525.62,-132"/>
<text xml:space="preserve" text-anchor="middle" x="455" y="-118.5" font-family="Helvetica,sans-Serif" font-size="10.00">MVPVulkan/GESkeleton.cpp</text>
</a>
</g>
</g>
<!-- Node8&#45;&gt;Node14 -->
<g id="edge14_Node000008_Node000014" class="edge">
<title>Node8&#45;&gt;Node14</title>
<g id="a_edge14_Node000008_Node000014"><a xlink:title=" ">
<path fill="none" stroke="#63b8ff" d="M553.44,-163.27C529.9,-153.64 499.02,-141.01 478.17,-132.48"/>
<polygon fill="#63b8ff" stroke="#63b8ff" points="552.03,-166.47 562.61,-167.02 554.68,-160 552.03,-166.47"/>
</a>
</g>
</g>
<!-- Node10 -->
<g id="Node000010" class="node">
<title>Node10</title>
<g id="a_Node000010"><a xlink:href="_g_e_application_8h.html" target="_top" xlink:title="Declaración de la clase GEApplication que crea y lanza la aplicación gráfica.">
<polygon fill="white" stroke="#666666" points="320.25,-76 179.75,-76 179.75,-56 320.25,-56 320.25,-76"/>
<text xml:space="preserve" text-anchor="middle" x="250" y="-62.5" font-family="Helvetica,sans-Serif" font-size="10.00">MVPVulkan/GEApplication.h</text>
</a>
</g>
</g>
<!-- Node9&#45;&gt;Node10 -->
<g id="edge10_Node000009_Node000010" class="edge">
<title>Node9&#45;&gt;Node10</title>
<g id="a_edge10_Node000009_Node000010"><a xlink:title=" ">
<path fill="none" stroke="#63b8ff" d="M250,-100.13C250,-91.9 250,-82.85 250,-76.3"/>
<polygon fill="#63b8ff" stroke="#63b8ff" points="246.5,-100.08 250,-110.08 253.5,-100.08 246.5,-100.08"/>
</a>
</g>
</g>
<!-- Node9&#45;&gt;Node13 -->
<g id="edge13_Node000009_Node000013" class="edge">
<title>Node9&#45;&gt;Node13</title>
<g id="a_edge13_Node000009_Node000013"><a xlink:title=" ">
<path fill="none" stroke="#63b8ff" d="M315.53,-109.62C372.25,-99.77 453.31,-85.7 506.53,-76.46"/>
<polygon fill="#63b8ff" stroke="#63b8ff" points="315.27,-106.11 306.02,-111.27 316.47,-113.01 315.27,-106.11"/>
</a>
</g>
</g>
<!-- Node11 -->
<g id="Node000011" class="node">
<title>Node11</title>
<g id="a_Node000011"><a xlink:href="_g_e_application_8cpp.html" target="_top" xlink:title="Implementación de la clase GEApplication.">
<polygon fill="white" stroke="#666666" points="251.5,-20 100.5,-20 100.5,0 251.5,0 251.5,-20"/>
<text xml:space="preserve" text-anchor="middle" x="176" y="-6.5" font-family="Helvetica,sans-Serif" font-size="10.00">MVPVulkan/GEApplication.cpp</text>
</a>
</g>
</g>
<!-- Node10&#45;&gt;Node11 -->
<g id="edge11_Node000010_Node000011" class="edge">
<title>Node10&#45;&gt;Node11</title>
<g id="a_edge11_Node000010_Node000011"><a xlink:title=" ">
<path fill="none" stroke="#63b8ff" d="M228.01,-48.95C215.21,-39.61 199.52,-28.16 188.74,-20.3"/>
<polygon fill="#63b8ff" stroke="#63b8ff" points="225.75,-51.63 235.89,-54.7 229.87,-45.98 225.75,-51.63"/>
</a>
</g>
</g>
<!-- Node12 -->
<g id="Node000012" class="node">
<title>Node12</title>
<g id="a_Node000012"><a xlink:href="main_8cpp.html" target="_top" xlink:title="Punto de entrada principal de la aplicación MVPVulkan.">
<polygon fill="white" stroke="#666666" points="378.88,-20 269.12,-20 269.12,0 378.88,0 378.88,-20"/>
<text xml:space="preserve" text-anchor="middle" x="324" y="-6.5" font-family="Helvetica,sans-Serif" font-size="10.00">MVPVulkan/main.cpp</text>
</a>
</g>
</g>
<!-- Node10&#45;&gt;Node12 -->
<g id="edge12_Node000010_Node000012" class="edge">
<title>Node10&#45;&gt;Node12</title>
<g id="a_edge12_Node000010_Node000012"><a xlink:title=" ">
<path fill="none" stroke="#63b8ff" d="M271.99,-48.95C284.79,-39.61 300.48,-28.16 311.26,-20.3"/>
<polygon fill="#63b8ff" stroke="#63b8ff" points="270.13,-45.98 264.11,-54.7 274.25,-51.63 270.13,-45.98"/>
</a>
</g>
</g>
<!-- Node16&#45;&gt;Node13 -->
<g id="edge20_Node000016_Node000013" class="edge">
<title>Node16&#45;&gt;Node13</title>
<g id="a_edge20_Node000016_Node000013"><a xlink:title=" ">
<path fill="none" stroke="#63b8ff" d="M851.06,-275.04C875.63,-263.63 900.96,-245.86 889,-224 836.79,-128.61 706.35,-90.51 626.58,-75.79"/>
<polygon fill="#63b8ff" stroke="#63b8ff" points="849.86,-271.74 842.08,-278.93 852.64,-278.17 849.86,-271.74"/>
</a>
</g>
</g>
<!-- Node17 -->
<g id="Node000017" class="node">
<title>Node17</title>
<g id="a_Node000017"><a xlink:href="_g_e_ground_8cpp.html" target="_top" xlink:title="Implementación de la clase GEGround.">
<polygon fill="white" stroke="#666666" points="880.25,-244 745.75,-244 745.75,-224 880.25,-224 880.25,-244"/>
<text xml:space="preserve" text-anchor="middle" x="813" y="-230.5" font-family="Helvetica,sans-Serif" font-size="10.00">MVPVulkan/GEGround.cpp</text>
</a>
</g>
</g>
<!-- Node16&#45;&gt;Node17 -->
<g id="edge19_Node000016_Node000017" class="edge">
<title>Node16&#45;&gt;Node17</title>
<g id="a_edge19_Node000016_Node000017"><a xlink:title=" ">
<path fill="none" stroke="#63b8ff" d="M813,-268.13C813,-259.9 813,-250.85 813,-244.3"/>
<polygon fill="#63b8ff" stroke="#63b8ff" points="809.5,-268.08 813,-278.08 816.5,-268.08 809.5,-268.08"/>
</a>
</g>
</g>
<!-- Node18&#45;&gt;Node5 -->
<g id="edge23_Node000018_Node000005" class="edge">
<title>Node18&#45;&gt;Node5</title>
<g id="a_edge23_Node000018_Node000005"><a xlink:title=" ">
<path fill="none" stroke="#63b8ff" d="M339.27,-275.92C367.67,-266.21 405.75,-253.2 431.26,-244.48"/>
<polygon fill="#63b8ff" stroke="#63b8ff" points="338.28,-272.56 329.95,-279.1 340.55,-279.18 338.28,-272.56"/>
</a>
</g>
</g>
<!-- Node18&#45;&gt;Node13 -->
<g id="edge24_Node000018_Node000013" class="edge">
<title>Node18&#45;&gt;Node13</title>
<g id="a_edge24_Node000018_Node000013"><a xlink:title=" ">
<path fill="none" stroke="#63b8ff" d="M313.89,-270.36C319.01,-262.46 324.7,-253 329,-244 355.8,-187.95 328.97,-153.73 375,-112 392.72,-95.93 449.36,-83.7 495.52,-76.08"/>
<polygon fill="#63b8ff" stroke="#63b8ff" points="311.14,-268.18 308.49,-278.44 316.96,-272.07 311.14,-268.18"/>
</a>
</g>
</g>
<!-- Node19 -->
<g id="Node000019" class="node">
<title>Node19</title>
<g id="a_Node000019"><a xlink:href="_g_e_sphere_8cpp.html" target="_top" xlink:title="Implementación de la clase GESphere.">
<polygon fill="white" stroke="#666666" points="319.88,-244 186.12,-244 186.12,-224 319.88,-224 319.88,-244"/>
<text xml:space="preserve" text-anchor="middle" x="253" y="-230.5" font-family="Helvetica,sans-Serif" font-size="10.00">MVPVulkan/GESphere.cpp</text>
</a>
</g>
</g>
<!-- Node18&#45;&gt;Node19 -->
<g id="edge25_Node000018_Node000019" class="edge">
<title>Node18&#45;&gt;Node19</title>
<g id="a_edge25_Node000018_Node000019"><a xlink:title=" ">
<path fill="none" stroke="#63b8ff" d="M285,-271C277.05,-262.06 267.78,-251.62 261.27,-244.3"/>
<polygon fill="#63b8ff" stroke="#63b8ff" points="282.37,-273.31 291.63,-278.46 287.61,-268.66 282.37,-273.31"/>
</a>
</g>
</g>
</g>
</svg>
