<?xml version="1.0" encoding="UTF-8" standalone="no"?>
<!DOCTYPE svg PUBLIC "-//W3C//DTD SVG 1.1//EN"
 "http://www.w3.org/Graphics/SVG/1.1/DTD/svg11.dtd">
<!-- Generated by graphviz version 14.1.2 (20260124.0452)
 -->
<!-- Title: MVPVulkan/GELight.h Pages: 1 -->
<svg width="940pt" height="420pt"
 viewBox="0.00 0.00 940.00 420.00" xmlns="http://www.w3.org/2000/svg" xmlns:xlink="http://www.w3.org/1999/xlink">
<g id="graph0" class="graph" transform="scale(1 1) rotate(0) translate(4 416)">
<title>MVPVulkan/GELight.h</title>
<!-- Node1 -->
<g id="Node000001" class="node">
<title>Node1</title>
<g id="a_Node000001"><a xlink:title="Declaración de la estructura GELight para iluminación.">
<polygon fill="#999999" stroke="#666666" points="296.25,-412 182.75,-412 182.75,-392 296.25,-392 296.25,-412"/>
<text xml:space="preserve" text-anchor="middle" x="239.5" y="-398.5" font-family="Helvetica,sans-Serif" font-size="10.00">MVPVulkan/GELight.h</text>
</a>
</g>
</g>
<!-- Node2 -->
<g id="Node000002" class="node">
<title>Node2</title>
<g id="a_Node000002"><a xlink:href="_g_e_balljoint_8h.html" target="_top" xlink:title="Declaración de la clase GEBalljoint para articulaciones jerárquicas.">
<polygon fill="white" stroke="#666666" points="382,-244 255,-244 255,-224 382,-224 382,-244"/>
<text xml:space="preserve" text-anchor="middle" x="318.5" y="-230.5" font-family="Helvetica,sans-Serif" font-size="10.00">MVPVulkan/GEBalljoint.h</text>
</a>
</g>
</g>
<!-- Node1&#45;&gt;Node2 -->
<g id="edge1_Node000001_Node000002" class="edge">
<title>Node1&#45;&gt;Node2</title>
<g id="a_edge1_Node000001_Node000002"><a xlink:title=" ">
<path fill="none" stroke="#63b8ff" d="M238.2,-380.22C237.57,-354.76 239.74,-311.19 258.5,-280 268.03,-264.16 285.45,-252.04 299.07,-244.4"/>
<polygon fill="#63b8ff" stroke="#63b8ff" points="234.7,-380.37 238.64,-390.2 241.69,-380.06 234.7,-380.37"/>
</a>
</g>
</g>
<!-- Node5 -->
<g id="Node000005" class="node">
<title>Node5</title>
<g id="a_Node000005"><a xlink:href="_g_e_skeleton_8h.html" target="_top" xlink:title="Declaración de la clase GESkeleton que representa un esqueleto con articulaciones jerárquicas.">
<polygon fill="white" stroke="#666666" points="335.88,-188 205.12,-188 205.12,-168 335.88,-168 335.88,-188"/>
<text xml:space="preserve" text-anchor="middle" x="270.5" y="-174.5" font-family="Helvetica,sans-Serif" font-size="10.00">MVPVulkan/GESkeleton.h</text>
</a>
</g>
</g>
<!-- Node1&#45;&gt;Node5 -->
<g id="edge28_Node000001_Node000005" class="edge">
<title>Node1&#45;&gt;Node5</title>
<g id="a_edge28_Node000001_Node000005"><a xlink:title=" ">
<path fill="none" stroke="#63b8ff" d="M236.74,-380.53C235.84,-372.85 234.95,-364.04 234.5,-356 231.24,-297.18 229.18,-280.31 246.5,-224 250.56,-210.8 258.58,-196.98 264.23,-188.19"/>
<polygon fill="#63b8ff" stroke="#63b8ff" points="233.24,-380.74 237.97,-390.22 240.18,-379.85 233.24,-380.74"/>
</a>
</g>
</g>
<!-- Node10 -->
<g id="Node000010" class="node">
<title>Node10</title>
<g id="a_Node000010"><a xlink:href="_g_e_scene_8cpp.html" target="_top" xlink:title="Escena con animación de tiro libre de baloncesto.">
<polygon fill="white" stroke="#666666" points="626.88,-76 496.12,-76 496.12,-56 626.88,-56 626.88,-76"/>
<text xml:space="preserve" text-anchor="middle" x="561.5" y="-62.5" font-family="Helvetica,sans-Serif" font-size="10.00">MVPVulkan/GEScene.cpp</text>
</a>
</g>
</g>
<!-- Node1&#45;&gt;Node10 -->
<g id="edge27_Node000001_Node000010" class="edge">
<title>Node1&#45;&gt;Node10</title>
<g id="a_edge27_Node000001_Node000010"><a xlink:title=" ">
<path fill="none" stroke="#63b8ff" d="M175.56,-388.72C124.52,-374.76 61.5,-346.34 61.5,-291 61.5,-291 61.5,-291 61.5,-177 61.5,-146.9 57.28,-131.15 80.5,-112 111.88,-86.11 371.93,-73.62 496.05,-69.08"/>
<polygon fill="#63b8ff" stroke="#63b8ff" points="174.55,-392.07 185.11,-391.18 176.3,-385.29 174.55,-392.07"/>
</a>
</g>
</g>
<!-- Node12 -->
<g id="Node000012" class="node">
<title>Node12</title>
<g id="a_Node000012"><a xlink:href="_g_e_figure_8cpp.html" target="_top" xlink:title="Implementación de la clase GEFigure.">
<polygon fill="white" stroke="#666666" points="397.5,-300 267.5,-300 267.5,-280 397.5,-280 397.5,-300"/>
<text xml:space="preserve" text-anchor="middle" x="332.5" y="-286.5" font-family="Helvetica,sans-Serif" font-size="10.00">MVPVulkan/GEFigure.cpp</text>
</a>
</g>
</g>
<!-- Node1&#45;&gt;Node12 -->
<g id="edge12_Node000001_Node000012" class="edge">
<title>Node1&#45;&gt;Node12</title>
<g id="a_edge12_Node000001_Node000012"><a xlink:title=" ">
<path fill="none" stroke="#63b8ff" d="M254.8,-382.9C274.82,-359.22 309.16,-318.6 324.59,-300.35"/>
<polygon fill="#63b8ff" stroke="#63b8ff" points="252.19,-380.57 248.41,-390.47 257.54,-385.09 252.19,-380.57"/>
</a>
</g>
</g>
<!-- Node13 -->
<g id="Node000013" class="node">
<title>Node13</title>
<g id="a_Node000013"><a xlink:href="_g_e_figure_8h.html" target="_top" xlink:title="Declaración de la clase GEFigure para figuras de malla.">
<polygon fill="white" stroke="#666666" points="530.25,-356 410.75,-356 410.75,-336 530.25,-336 530.25,-356"/>
<text xml:space="preserve" text-anchor="middle" x="470.5" y="-342.5" font-family="Helvetica,sans-Serif" font-size="10.00">MVPVulkan/GEFigure.h</text>
</a>
</g>
</g>
<!-- Node1&#45;&gt;Node13 -->
<g id="edge13_Node000001_Node000013" class="edge">
<title>Node1&#45;&gt;Node13</title>
<g id="a_edge13_Node000001_Node000013"><a xlink:title=" ">
<path fill="none" stroke="#63b8ff" d="M291.1,-388.94C333.05,-379.13 391.42,-365.49 430.05,-356.46"/>
<polygon fill="#63b8ff" stroke="#63b8ff" points="290.42,-385.5 281.48,-391.19 292.01,-392.32 290.42,-385.5"/>
</a>
</g>
</g>
<!-- Node3 -->
<g id="Node000003" class="node">
<title>Node3</title>
<g id="a_Node000003"><a xlink:href="_g_e_animation_8cpp.html" target="_top" xlink:title="Implementación del sistema de animación por keyframes.">
<polygon fill="white" stroke="#666666" points="533.75,-132 387.25,-132 387.25,-112 533.75,-112 533.75,-132"/>
<text xml:space="preserve" text-anchor="middle" x="460.5" y="-118.5" font-family="Helvetica,sans-Serif" font-size="10.00">MVPVulkan/GEAnimation.cpp</text>
</a>
</g>
</g>
<!-- Node2&#45;&gt;Node3 -->
<g id="edge2_Node000002_Node000003" class="edge">
<title>Node2&#45;&gt;Node3</title>
<g id="a_edge2_Node000002_Node000003"><a xlink:title=" ">
<path fill="none" stroke="#63b8ff" d="M333.6,-215.22C345.9,-201.36 364.18,-182.17 382.5,-168 401.05,-153.66 424.64,-140.67 441,-132.38"/>
<polygon fill="#63b8ff" stroke="#63b8ff" points="331.03,-212.84 327.1,-222.68 336.31,-217.44 331.03,-212.84"/>
</a>
</g>
</g>
<!-- Node4 -->
<g id="Node000004" class="node">
<title>Node4</title>
<g id="a_Node000004"><a xlink:href="_g_e_balljoint_8cpp.html" target="_top" xlink:title="Implementación de la clase GEBalljoint con soporte jerárquico.">
<polygon fill="white" stroke="#666666" points="529.25,-188 391.75,-188 391.75,-168 529.25,-168 529.25,-188"/>
<text xml:space="preserve" text-anchor="middle" x="460.5" y="-174.5" font-family="Helvetica,sans-Serif" font-size="10.00">MVPVulkan/GEBalljoint.cpp</text>
</a>
</g>
</g>
<!-- Node2&#45;&gt;Node4 -->
<g id="edge3_Node000002_Node000004" class="edge">
<title>Node2&#45;&gt;Node4</title>
<g id="a_edge3_Node000002_Node000004"><a xlink:title=" ">
<path fill="none" stroke="#63b8ff" d="M353.92,-219.53C379.33,-209.87 412.94,-197.08 435.57,-188.48"/>
<polygon fill="#63b8ff" stroke="#63b8ff" points="352.75,-216.23 344.65,-223.06 355.24,-222.77 352.75,-216.23"/>
</a>
</g>
</g>
<!-- Node2&#45;&gt;Node5 -->
<g id="edge4_Node000002_Node000005" class="edge">
<title>Node2&#45;&gt;Node5</title>
<g id="a_edge4_Node000002_Node000005"><a xlink:title=" ">
<path fill="none" stroke="#63b8ff" d="M302.5,-215C294.55,-206.06 285.28,-195.62 278.77,-188.3"/>
<polygon fill="#63b8ff" stroke="#63b8ff" points="299.87,-217.31 309.13,-222.46 305.11,-212.66 299.87,-217.31"/>
</a>
</g>
</g>
<!-- Node5&#45;&gt;Node3 -->
<g id="edge5_Node000005_Node000003" class="edge">
<title>Node5&#45;&gt;Node3</title>
<g id="a_edge5_Node000005_Node000003"><a xlink:title=" ">
<path fill="none" stroke="#63b8ff" d="M314.27,-164.56C348.64,-154.79 395.78,-141.39 427.15,-132.48"/>
<polygon fill="#63b8ff" stroke="#63b8ff" points="313.71,-161.08 305.05,-167.18 315.63,-167.81 313.71,-161.08"/>
</a>
</g>
</g>
<!-- Node6 -->
<g id="Node000006" class="node">
<title>Node6</title>
<g id="a_Node000006"><a xlink:href="_g_e_scene_8h.html" target="_top" xlink:title="Declaración de la clase GEScene que contiene la escena con esqueleto animado.">
<polygon fill="white" stroke="#666666" points="209.62,-132 89.38,-132 89.38,-112 209.62,-112 209.62,-132"/>
<text xml:space="preserve" text-anchor="middle" x="149.5" y="-118.5" font-family="Helvetica,sans-Serif" font-size="10.00">MVPVulkan/GEScene.h</text>
</a>
</g>
</g>
<!-- Node5&#45;&gt;Node6 -->
<g id="edge6_Node000005_Node000006" class="edge">
<title>Node5&#45;&gt;Node6</title>
<g id="a_edge6_Node000005_Node000006"><a xlink:title=" ">
<path fill="none" stroke="#63b8ff" d="M239.15,-163.01C217.64,-153.41 189.68,-140.93 170.74,-132.48"/>
<polygon fill="#63b8ff" stroke="#63b8ff" points="237.48,-166.1 248.04,-166.98 240.34,-159.71 237.48,-166.1"/>
</a>
</g>
</g>
<!-- Node11 -->
<g id="Node000011" class="node">
<title>Node11</title>
<g id="a_Node000011"><a xlink:href="_g_e_skeleton_8cpp.html" target="_top" xlink:title="Implementación de GESkeleton con carga desde archivo .skel.">
<polygon fill="white" stroke="#666666" points="369.12,-132 227.88,-132 227.88,-112 369.12,-112 369.12,-132"/>
<text xml:space="preserve" text-anchor="middle" x="298.5" y="-118.5" font-family="Helvetica,sans-Serif" font-size="10.00">MVPVulkan/GESkeleton.cpp</text>
</a>
</g>
</g>
<!-- Node5&#45;&gt;Node11 -->
<g id="edge11_Node000005_Node000011" class="edge">
<title>Node5&#45;&gt;Node11</title>
<g id="a_edge11_Node000005_Node000011"><a xlink:title=" ">
<path fill="none" stroke="#63b8ff" d="M280.57,-157.58C285.03,-148.97 290.08,-139.24 293.68,-132.3"/>
<polygon fill="#63b8ff" stroke="#63b8ff" points="277.57,-155.76 276.07,-166.25 283.78,-158.98 277.57,-155.76"/>
</a>
</g>
</g>
<!-- Node7 -->
<g id="Node000007" class="node">
<title>Node7</title>
<g id="a_Node000007"><a xlink:href="_g_e_application_8h.html" target="_top" xlink:title="Declaración de la clase GEApplication que crea y lanza la aplicación gráfica.">
<polygon fill="white" stroke="#666666" points="219.75,-76 79.25,-76 79.25,-56 219.75,-56 219.75,-76"/>
<text xml:space="preserve" text-anchor="middle" x="149.5" y="-62.5" font-family="Helvetica,sans-Serif" font-size="10.00">MVPVulkan/GEApplication.h</text>
</a>
</g>
</g>
<!-- Node6&#45;&gt;Node7 -->
<g id="edge7_Node000006_Node000007" class="edge">
<title>Node6&#45;&gt;Node7</title>
<g id="a_edge7_Node000006_Node000007"><a xlink:title=" ">
<path fill="none" stroke="#63b8ff" d="M149.5,-100.13C149.5,-91.9 149.5,-82.85 149.5,-76.3"/>
<polygon fill="#63b8ff" stroke="#63b8ff" points="146,-100.08 149.5,-110.08 153,-100.08 146,-100.08"/>
</a>
</g>
</g>
<!-- Node6&#45;&gt;Node10 -->
<g id="edge10_Node000006_Node000010" class="edge">
<title>Node6&#45;&gt;Node10</title>
<g id="a_edge10_Node000006_Node000010"><a xlink:title=" ">
<path fill="none" stroke="#63b8ff" d="M220.93,-111.64C298.34,-101.49 420.82,-85.44 495.88,-75.6"/>
<polygon fill="#63b8ff" stroke="#63b8ff" points="220.81,-108.12 211.35,-112.89 221.72,-115.06 220.81,-108.12"/>
</a>
</g>
</g>
<!-- Node8 -->
<g id="Node000008" class="node">
<title>Node8</title>
<g id="a_Node000008"><a xlink:href="_g_e_application_8cpp.html" target="_top" xlink:title="Implementación de la clase GEApplication.">
<polygon fill="white" stroke="#666666" points="151,-20 0,-20 0,0 151,0 151,-20"/>
<text xml:space="preserve" text-anchor="middle" x="75.5" y="-6.5" font-family="Helvetica,sans-Serif" font-size="10.00">MVPVulkan/GEApplication.cpp</text>
</a>
</g>
</g>
<!-- Node7&#45;&gt;Node8 -->
<g id="edge8_Node000007_Node000008" class="edge">
<title>Node7&#45;&gt;Node8</title>
<g id="a_edge8_Node000007_Node000008"><a xlink:title=" ">
<path fill="none" stroke="#63b8ff" d="M127.51,-48.95C114.71,-39.61 99.02,-28.16 88.24,-20.3"/>
<polygon fill="#63b8ff" stroke="#63b8ff" points="125.25,-51.63 135.39,-54.7 129.37,-45.98 125.25,-51.63"/>
</a>
</g>
</g>
<!-- Node9 -->
<g id="Node000009" class="node">
<title>Node9</title>
<g id="a_Node000009"><a xlink:href="main_8cpp.html" target="_top" xlink:title="Punto de entrada principal de la aplicación MVPVulkan.">
<polygon fill="white" stroke="#666666" points="278.38,-20 168.62,-20 168.62,0 278.38,0 278.38,-20"/>
<text xml:space="preserve" text-anchor="middle" x="223.5" y="-6.5" font-family="Helvetica,sans-Serif" font-size="10.00">MVPVulkan/main.cpp</text>
</a>
</g>
</g>
<!-- Node7&#45;&gt;Node9 -->
<g id="edge9_Node000007_Node000009" class="edge">
<title>Node7&#45;&gt;Node9</title>
<g id="a_edge9_Node000007_Node000009"><a xlink:title=" ">
<path fill="none" stroke="#63b8ff" d="M171.49,-48.95C184.29,-39.61 199.98,-28.16 210.76,-20.3"/>
<polygon fill="#63b8ff" stroke="#63b8ff" points="169.63,-45.98 163.61,-54.7 173.75,-51.63 169.63,-45.98"/>
</a>
</g>
</g>
<!-- Node13&#45;&gt;Node6 -->
<g id="edge22_Node000013_Node000006" class="edge">
<title>Node13&#45;&gt;Node6</title>
<g id="a_edge22_Node000013_Node000006"><a xlink:title=" ">
<path fill="none" stroke="#63b8ff" d="M457.57,-327.01C445.9,-312.13 427.39,-291.61 406.5,-280 342.79,-244.59 309.33,-280.95 246.5,-244 198.92,-216.02 165.34,-155.26 153.85,-132.16"/>
<polygon fill="#63b8ff" stroke="#63b8ff" points="454.48,-328.73 463.29,-334.62 460.08,-324.52 454.48,-328.73"/>
</a>
</g>
</g>
<!-- Node13&#45;&gt;Node12 -->
<g id="edge18_Node000013_Node000012" class="edge">
<title>Node13&#45;&gt;Node12</title>
<g id="a_edge18_Node000013_Node000012"><a xlink:title=" ">
<path fill="none" stroke="#63b8ff" d="M435.75,-331.4C411.09,-321.75 378.62,-309.05 356.73,-300.48"/>
<polygon fill="#63b8ff" stroke="#63b8ff" points="434.46,-334.66 445.05,-335.04 437.02,-328.14 434.46,-334.66"/>
</a>
</g>
</g>
<!-- Node14 -->
<g id="Node000014" class="node">
<title>Node14</title>
<g id="a_Node000014"><a xlink:href="_g_e_cylinder_8h.html" target="_top" xlink:title="Declaración de la clase GECylinder.">
<polygon fill="white" stroke="#666666" points="723.75,-300 595.25,-300 595.25,-280 723.75,-280 723.75,-300"/>
<text xml:space="preserve" text-anchor="middle" x="659.5" y="-286.5" font-family="Helvetica,sans-Serif" font-size="10.00">MVPVulkan/GECylinder.h</text>
</a>
</g>
</g>
<!-- Node13&#45;&gt;Node14 -->
<g id="edge14_Node000013_Node000014" class="edge">
<title>Node13&#45;&gt;Node14</title>
<g id="a_edge14_Node000013_Node000014"><a xlink:title=" ">
<path fill="none" stroke="#63b8ff" d="M514.49,-332.43C548.64,-322.67 595.26,-309.35 626.32,-300.48"/>
<polygon fill="#63b8ff" stroke="#63b8ff" points="513.53,-329.07 504.88,-335.18 515.45,-335.8 513.53,-329.07"/>
</a>
</g>
</g>
<!-- Node16 -->
<g id="Node000016" class="node">
<title>Node16</title>
<g id="a_Node000016"><a xlink:href="_g_e_ground_8h.html" target="_top" xlink:title="Declaración de la clase GEGround para terreno rectangular.">
<polygon fill="white" stroke="#666666" points="914.5,-300 790.5,-300 790.5,-280 914.5,-280 914.5,-300"/>
<text xml:space="preserve" text-anchor="middle" x="852.5" y="-286.5" font-family="Helvetica,sans-Serif" font-size="10.00">MVPVulkan/GEGround.h</text>
</a>
</g>
</g>
<!-- Node13&#45;&gt;Node16 -->
<g id="edge19_Node000013_Node000016" class="edge">
<title>Node13&#45;&gt;Node16</title>
<g id="a_edge19_Node000013_Node000016"><a xlink:title=" ">
<path fill="none" stroke="#63b8ff" d="M541.74,-334.93C613.19,-324.83 722.11,-309.43 790.21,-299.81"/>
<polygon fill="#63b8ff" stroke="#63b8ff" points="541.52,-331.43 532.11,-336.29 542.5,-338.36 541.52,-331.43"/>
</a>
</g>
</g>
<!-- Node18 -->
<g id="Node000018" class="node">
<title>Node18</title>
<g id="a_Node000018"><a xlink:href="_g_e_sphere_8h.html" target="_top" xlink:title="Declaración de la clase GESphere que describe una esfera.">
<polygon fill="white" stroke="#666666" points="577.12,-300 453.88,-300 453.88,-280 577.12,-280 577.12,-300"/>
<text xml:space="preserve" text-anchor="middle" x="515.5" y="-286.5" font-family="Helvetica,sans-Serif" font-size="10.00">MVPVulkan/GESphere.h</text>
</a>
</g>
</g>
<!-- Node13&#45;&gt;Node18 -->
<g id="edge23_Node000013_Node000018" class="edge">
<title>Node13&#45;&gt;Node18</title>
<g id="a_edge23_Node000013_Node000018"><a xlink:title=" ">
<path fill="none" stroke="#63b8ff" d="M485.5,-327C492.95,-318.06 501.65,-307.62 507.75,-300.3"/>
<polygon fill="#63b8ff" stroke="#63b8ff" points="483.02,-324.51 479.31,-334.43 488.4,-328.99 483.02,-324.51"/>
</a>
</g>
</g>
<!-- Node14&#45;&gt;Node2 -->
<g id="edge15_Node000014_Node000002" class="edge">
<title>Node14&#45;&gt;Node2</title>
<g id="a_edge15_Node000014_Node000002"><a xlink:title=" ">
<path fill="none" stroke="#63b8ff" d="M588.42,-277.74C526.2,-267.89 436.82,-253.74 378.22,-244.46"/>
<polygon fill="#63b8ff" stroke="#63b8ff" points="587.79,-281.19 598.22,-279.3 588.89,-274.27 587.79,-281.19"/>
</a>
</g>
</g>
<!-- Node14&#45;&gt;Node10 -->
<g id="edge17_Node000014_Node000010" class="edge">
<title>Node14&#45;&gt;Node10</title>
<g id="a_edge17_Node000014_Node000010"><a xlink:title=" ">
<path fill="none" stroke="#63b8ff" d="M699.29,-275.23C723.81,-264.21 748.76,-246.82 738.5,-224 705.31,-150.2 618.39,-97.01 580.08,-76.41"/>
<polygon fill="#63b8ff" stroke="#63b8ff" points="698.18,-271.9 690.3,-278.98 700.88,-278.36 698.18,-271.9"/>
</a>
</g>
</g>
<!-- Node15 -->
<g id="Node000015" class="node">
<title>Node15</title>
<g id="a_Node000015"><a xlink:href="_g_e_cylinder_8cpp.html" target="_top" xlink:title="Implementación de la clase GECylinder.">
<polygon fill="white" stroke="#666666" points="729,-244 590,-244 590,-224 729,-224 729,-244"/>
<text xml:space="preserve" text-anchor="middle" x="659.5" y="-230.5" font-family="Helvetica,sans-Serif" font-size="10.00">MVPVulkan/GECylinder.cpp</text>
</a>
</g>
</g>
<!-- Node14&#45;&gt;Node15 -->
<g id="edge16_Node000014_Node000015" class="edge">
<title>Node14&#45;&gt;Node15</title>
<g id="a_edge16_Node000014_Node000015"><a xlink:title=" ">
<path fill="none" stroke="#63b8ff" d="M659.5,-268.13C659.5,-259.9 659.5,-250.85 659.5,-244.3"/>
<polygon fill="#63b8ff" stroke="#63b8ff" points="656,-268.08 659.5,-278.08 663,-268.08 656,-268.08"/>
</a>
</g>
</g>
<!-- Node16&#45;&gt;Node10 -->
<g id="edge21_Node000016_Node000010" class="edge">
<title>Node16&#45;&gt;Node10</title>
<g id="a_edge21_Node000016_Node000010"><a xlink:title=" ">
<path fill="none" stroke="#63b8ff" d="M890.09,-275.11C915.65,-263.41 942.49,-245.21 928.5,-224 861.42,-122.34 713.47,-86.27 627.31,-73.64"/>
<polygon fill="#63b8ff" stroke="#63b8ff" points="888.91,-271.81 881.1,-278.97 891.67,-278.24 888.91,-271.81"/>
</a>
</g>
</g>
<!-- Node17 -->
<g id="Node000017" class="node">
<title>Node17</title>
<g id="a_Node000017"><a xlink:href="_g_e_ground_8cpp.html" target="_top" xlink:title="Implementación de la clase GEGround.">
<polygon fill="white" stroke="#666666" points="919.75,-244 785.25,-244 785.25,-224 919.75,-224 919.75,-244"/>
<text xml:space="preserve" text-anchor="middle" x="852.5" y="-230.5" font-family="Helvetica,sans-Serif" font-size="10.00">MVPVulkan/GEGround.cpp</text>
</a>
</g>
</g>
<!-- Node16&#45;&gt;Node17 -->
<g id="edge20_Node000016_Node000017" class="edge">
<title>Node16&#45;&gt;Node17</title>
<g id="a_edge20_Node000016_Node000017"><a xlink:title=" ">
<path fill="none" stroke="#63b8ff" d="M852.5,-268.13C852.5,-259.9 852.5,-250.85 852.5,-244.3"/>
<polygon fill="#63b8ff" stroke="#63b8ff" points="849,-268.08 852.5,-278.08 856,-268.08 849,-268.08"/>
</a>
</g>
</g>
<!-- Node18&#45;&gt;Node2 -->
<g id="edge24_Node000018_Node000002" class="edge">
<title>Node18&#45;&gt;Node2</title>
<g id="a_edge24_Node000018_Node000002"><a xlink:title=" ">
<path fill="none" stroke="#63b8ff" d="M470.12,-276.56C434.48,-266.79 385.6,-253.39 353.08,-244.48"/>
<polygon fill="#63b8ff" stroke="#63b8ff" points="469.16,-279.93 479.73,-279.19 471.01,-273.17 469.16,-279.93"/>
</a>
</g>
</g>
<!-- Node18&#45;&gt;Node10 -->
<g id="edge25_Node000018_Node000010" class="edge">
<title>Node18&#45;&gt;Node10</title>
<g id="a_edge25_Node000018_Node000010"><a xlink:title=" ">
<path fill="none" stroke="#63b8ff" d="M529.3,-270.16C534.28,-262.42 539.43,-253.15 542.5,-244 563.14,-182.47 562.7,-102.78 561.88,-76.13"/>
<polygon fill="#63b8ff" stroke="#63b8ff" points="526.45,-268.12 523.67,-278.35 532.22,-272.09 526.45,-268.12"/>
</a>
</g>
</g>
<!-- Node19 -->
<g id="Node000019" class="node">
<title>Node19</title>
<g id="a_Node000019"><a xlink:href="_g_e_sphere_8cpp.html" target="_top" xlink:title="Implementación de la clase GESphere.">
<polygon fill="white" stroke="#666666" points="533.38,-244 399.62,-244 399.62,-224 533.38,-224 533.38,-244"/>
<text xml:space="preserve" text-anchor="middle" x="466.5" y="-230.5" font-family="Helvetica,sans-Serif" font-size="10.00">MVPVulkan/GESphere.cpp</text>
</a>
</g>
</g>
<!-- Node18&#45;&gt;Node19 -->
<g id="edge26_Node000018_Node000019" class="edge">
<title>Node18&#45;&gt;Node19</title>
<g id="a_edge26_Node000018_Node000019"><a xlink:title=" ">
<path fill="none" stroke="#63b8ff" d="M499.43,-271.29C491.25,-262.28 481.65,-251.7 474.94,-244.3"/>
<polygon fill="#63b8ff" stroke="#63b8ff" points="496.64,-273.42 505.95,-278.47 501.82,-268.72 496.64,-273.42"/>
</a>
</g>
</g>
</g>
</svg>
