<?xml version="1.0" encoding="UTF-8" standalone="no"?>
<!DOCTYPE svg PUBLIC "-//W3C//DTD SVG 1.1//EN"
 "http://www.w3.org/Graphics/SVG/1.1/DTD/svg11.dtd">
<!-- Generated by graphviz version 14.1.2 (20260124.0452)
 -->
<!-- Title: MVPVulkan/GEDrawingContext.h Pages: 1 -->
<!--zoomable 532 -->

<svg id="main" version="1.1" xmlns="http://www.w3.org/2000/svg" xmlns:xlink="http://www.w3.org/1999/xlink" xml:space="preserve" onload="init(evt)">

<style type="text/css"><![CDATA[
.node, .edge {opacity: 0.7;}
.node.selected, .edge.selected {opacity: 1;}
.edge:hover path { stroke: red; }
.edge:hover polygon { stroke: red; fill: red; }
]]></style>

<defs>
  <circle id="rim" cx="0" cy="0" r="7"/>
  <circle id="rim2" cx="0" cy="0" r="3.5"/>
  <g id="zoomPlus">
    <use xlink:href="#rim" fill="#404040"><set attributeName="fill" to="#808080" begin="zoomplus.mouseover" end="zoomplus.mouseout"/></use>
    <path d="M-4,0h8M0,-4v8" fill="none" stroke="white" stroke-width="1.5" pointer-events="none"/>
  </g>
  <g id="zoomMin">
    <use xlink:href="#rim" fill="#404040"><set attributeName="fill" to="#808080" begin="zoomminus.mouseover" end="zoomminus.mouseout"/></use>
    <path d="M-4,0h8" fill="none" stroke="white" stroke-width="1.5" pointer-events="none"/>
  </g>
  <g id="arrowUp" transform="translate(30 24)">
    <use xlink:href="#rim"/>
    <path pointer-events="none" fill="none" stroke="white" stroke-width="1.5" d="M0,-3.0v7 M-2.5,-0.5L0,-3.0L2.5,-0.5"/>
  </g>
  <g id="arrowRight" transform="rotate(90) translate(36 -43)">
    <use xlink:href="#rim"/>
    <path pointer-events="none" fill="none" stroke="white" stroke-width="1.5" d="M0,-3.0v7 M-2.5,-0.5L0,-3.0L2.5,-0.5"/>
  </g>
  <g id="arrowDown" transform="rotate(180) translate(-30 -48)">
    <use xlink:href="#rim"/>
    <path pointer-events="none" fill="none" stroke="white" stroke-width="1.5" d="M0,-3.0v7 M-2.5,-0.5L0,-3.0L2.5,-0.5"/>
  </g>
  <g id="arrowLeft" transform="rotate(270) translate(-36 17)">
    <use xlink:href="#rim"/>
    <path pointer-events="none" fill="none" stroke="white" stroke-width="1.5" d="M0,-3.0v7 M-2.5,-0.5L0,-3.0L2.5,-0.5"/>
  </g>
  <g id="resetDef">
    <use xlink:href="#rim2" fill="#404040"><set attributeName="fill" to="#808080" begin="reset.mouseover" end="reset.mouseout"/></use>
  </g>
</defs>
<script type="application/ecmascript">
var viewWidth = 1123;
var viewHeight = 532;
var sectionId = 'dynsection-1';
</script>
<script type="application/ecmascript" xlink:href="svg.min.js"/>
<svg id="graph" class="graph">
<g id="viewport">
<title>MVPVulkan/GEDrawingContext.h</title>
<!-- Node1 -->
<g id="Node000001" class="node">
<title>Node1</title>
<g id="a_Node000001"><a xlink:title="Declaración de la clase GEDrawingContext para gestionar swapchain y present.">
<polygon fill="#999999" stroke="#666666" points="303,-524 140,-524 140,-504 303,-504 303,-524"/>
<text xml:space="preserve" text-anchor="middle" x="221.5" y="-510.5" font-family="Helvetica,sans-Serif" font-size="10.00">MVPVulkan/GEDrawingContext.h</text>
</a>
</g>
</g>
<!-- Node2 -->
<g id="Node000002" class="node">
<title>Node2</title>
<g id="a_Node000002"><a xlink:href="_g_e_application_8h.html" target="_top" xlink:title="Declaración de la clase GEApplication que crea y lanza la aplicación gráfica.">
<polygon fill="white" stroke="#666666" points="219.75,-76 79.25,-76 79.25,-56 219.75,-56 219.75,-76"/>
<text xml:space="preserve" text-anchor="middle" x="149.5" y="-62.5" font-family="Helvetica,sans-Serif" font-size="10.00">MVPVulkan/GEApplication.h</text>
</a>
</g>
</g>
<!-- Node1&#45;&gt;Node2 -->
<g id="edge1_Node000001_Node000002" class="edge">
<title>Node1&#45;&gt;Node2</title>
<g id="a_edge1_Node000001_Node000002"><a xlink:title=" ">
<path fill="none" stroke="#63b8ff" d="M188.19,-498.67C153.92,-481.41 105.5,-448.9 105.5,-403 105.5,-403 105.5,-403 105.5,-177 105.5,-137.3 130.51,-94.94 142.82,-76.49"/>
<polygon fill="#63b8ff" stroke="#63b8ff" points="186.41,-501.69 196.94,-502.87 189.45,-495.38 186.41,-501.69"/>
</a>
</g>
</g>
<!-- Node5 -->
<g id="Node000005" class="node">
<title>Node5</title>
<g id="a_Node000005"><a xlink:href="_g_e_drawing_context_8cpp.html" target="_top" xlink:title="Implementación de GEDrawingContext y gestión de swapchain.">
<polygon fill="white" stroke="#666666" points="636.25,-468 462.75,-468 462.75,-448 636.25,-448 636.25,-468"/>
<text xml:space="preserve" text-anchor="middle" x="549.5" y="-454.5" font-family="Helvetica,sans-Serif" font-size="10.00">MVPVulkan/GEDrawingContext.cpp</text>
</a>
</g>
</g>
<!-- Node1&#45;&gt;Node5 -->
<g id="edge4_Node000001_Node000005" class="edge">
<title>Node1&#45;&gt;Node5</title>
<g id="a_edge4_Node000001_Node000005"><a xlink:title=" ">
<path fill="none" stroke="#63b8ff" d="M290.24,-501.68C350.08,-491.83 435.81,-477.72 492.06,-468.46"/>
<polygon fill="#63b8ff" stroke="#63b8ff" points="289.8,-498.21 280.5,-503.29 290.94,-505.12 289.8,-498.21"/>
</a>
</g>
</g>
<!-- Node6 -->
<g id="Node000006" class="node">
<title>Node6</title>
<g id="a_Node000006"><a xlink:href="_g_e_rendering_context_8h.html" target="_top" xlink:title="Declaración de la clase GERenderingContext que describe un contexto de renderizado.">
<polygon fill="white" stroke="#666666" points="445.12,-468 273.88,-468 273.88,-448 445.12,-448 445.12,-468"/>
<text xml:space="preserve" text-anchor="middle" x="359.5" y="-454.5" font-family="Helvetica,sans-Serif" font-size="10.00">MVPVulkan/GERenderingContext.h</text>
</a>
</g>
</g>
<!-- Node1&#45;&gt;Node6 -->
<g id="edge5_Node000001_Node000006" class="edge">
<title>Node1&#45;&gt;Node6</title>
<g id="a_edge5_Node000001_Node000006"><a xlink:title=" ">
<path fill="none" stroke="#63b8ff" d="M256.25,-499.4C280.91,-489.75 313.38,-477.05 335.27,-468.48"/>
<polygon fill="#63b8ff" stroke="#63b8ff" points="254.98,-496.14 246.95,-503.04 257.54,-502.66 254.98,-496.14"/>
</a>
</g>
</g>
<!-- Node11 -->
<g id="Node000011" class="node">
<title>Node11</title>
<g id="a_Node000011"><a xlink:href="_g_e_scene_8h.html" target="_top" xlink:title="Declaración de la clase GEScene que contiene la escena con esqueleto animado.">
<polygon fill="white" stroke="#666666" points="253.62,-132 133.38,-132 133.38,-112 253.62,-112 253.62,-132"/>
<text xml:space="preserve" text-anchor="middle" x="193.5" y="-118.5" font-family="Helvetica,sans-Serif" font-size="10.00">MVPVulkan/GEScene.h</text>
</a>
</g>
</g>
<!-- Node1&#45;&gt;Node11 -->
<g id="edge35_Node000001_Node000011" class="edge">
<title>Node1&#45;&gt;Node11</title>
<g id="a_edge35_Node000001_Node000011"><a xlink:title=" ">
<path fill="none" stroke="#63b8ff" d="M199.77,-496.53C176.69,-476.99 143.5,-442.09 143.5,-403 143.5,-403 143.5,-403 143.5,-233 143.5,-192.51 171.92,-150.55 185.91,-132.35"/>
<polygon fill="#63b8ff" stroke="#63b8ff" points="197.47,-499.18 207.44,-502.75 201.88,-493.74 197.47,-499.18"/>
</a>
</g>
</g>
<!-- Node3 -->
<g id="Node000003" class="node">
<title>Node3</title>
<g id="a_Node000003"><a xlink:href="_g_e_application_8cpp.html" target="_top" xlink:title="Implementación de la clase GEApplication.">
<polygon fill="white" stroke="#666666" points="151,-20 0,-20 0,0 151,0 151,-20"/>
<text xml:space="preserve" text-anchor="middle" x="75.5" y="-6.5" font-family="Helvetica,sans-Serif" font-size="10.00">MVPVulkan/GEApplication.cpp</text>
</a>
</g>
</g>
<!-- Node2&#45;&gt;Node3 -->
<g id="edge2_Node000002_Node000003" class="edge">
<title>Node2&#45;&gt;Node3</title>
<g id="a_edge2_Node000002_Node000003"><a xlink:title=" ">
<path fill="none" stroke="#63b8ff" d="M127.51,-48.95C114.71,-39.61 99.02,-28.16 88.24,-20.3"/>
<polygon fill="#63b8ff" stroke="#63b8ff" points="125.25,-51.63 135.39,-54.7 129.37,-45.98 125.25,-51.63"/>
</a>
</g>
</g>
<!-- Node4 -->
<g id="Node000004" class="node">
<title>Node4</title>
<g id="a_Node000004"><a xlink:href="main_8cpp.html" target="_top" xlink:title="Punto de entrada principal de la aplicación MVPVulkan.">
<polygon fill="white" stroke="#666666" points="278.38,-20 168.62,-20 168.62,0 278.38,0 278.38,-20"/>
<text xml:space="preserve" text-anchor="middle" x="223.5" y="-6.5" font-family="Helvetica,sans-Serif" font-size="10.00">MVPVulkan/main.cpp</text>
</a>
</g>
</g>
<!-- Node2&#45;&gt;Node4 -->
<g id="edge3_Node000002_Node000004" class="edge">
<title>Node2&#45;&gt;Node4</title>
<g id="a_edge3_Node000002_Node000004"><a xlink:title=" ">
<path fill="none" stroke="#63b8ff" d="M171.49,-48.95C184.29,-39.61 199.98,-28.16 210.76,-20.3"/>
<polygon fill="#63b8ff" stroke="#63b8ff" points="169.63,-45.98 163.61,-54.7 173.75,-51.63 169.63,-45.98"/>
</a>
</g>
</g>
<!-- Node7 -->
<g id="Node000007" class="node">
<title>Node7</title>
<g id="a_Node000007"><a xlink:href="_g_e_balljoint_8h.html" target="_top" xlink:title="Declaración de la clase GEBalljoint para articulaciones jerárquicas.">
<polygon fill="white" stroke="#666666" points="761,-244 634,-244 634,-224 761,-224 761,-244"/>
<text xml:space="preserve" text-anchor="middle" x="697.5" y="-230.5" font-family="Helvetica,sans-Serif" font-size="10.00">MVPVulkan/GEBalljoint.h</text>
</a>
</g>
</g>
<!-- Node6&#45;&gt;Node7 -->
<g id="edge6_Node000006_Node000007" class="edge">
<title>Node6&#45;&gt;Node7</title>
<g id="a_edge6_Node000006_Node000007"><a xlink:title=" ">
<path fill="none" stroke="#63b8ff" d="M451.2,-446.09C516.97,-437.46 599.39,-424.78 631.5,-412 672.85,-395.55 690.88,-393.71 714.5,-356 732.53,-327.22 731.02,-312.88 722.5,-280 719.05,-266.68 710.7,-253.1 704.6,-244.39"/>
<polygon fill="#63b8ff" stroke="#63b8ff" points="450.94,-442.59 441.47,-447.35 451.84,-449.53 450.94,-442.59"/>
</a>
</g>
</g>
<!-- Node10 -->
<g id="Node000010" class="node">
<title>Node10</title>
<g id="a_Node000010"><a xlink:href="_g_e_skeleton_8h.html" target="_top" xlink:title="Declaración de la clase GESkeleton que representa un esqueleto con articulaciones jerárquicas.">
<polygon fill="white" stroke="#666666" points="567.88,-188 437.12,-188 437.12,-168 567.88,-168 567.88,-188"/>
<text xml:space="preserve" text-anchor="middle" x="502.5" y="-174.5" font-family="Helvetica,sans-Serif" font-size="10.00">MVPVulkan/GESkeleton.h</text>
</a>
</g>
</g>
<!-- Node6&#45;&gt;Node10 -->
<g id="edge34_Node000006_Node000010" class="edge">
<title>Node6&#45;&gt;Node10</title>
<g id="a_edge34_Node000006_Node000010"><a xlink:title=" ">
<path fill="none" stroke="#63b8ff" d="M380.73,-439.84C388.51,-432.23 396.4,-422.6 400.5,-412 404.1,-402.7 396.71,-359.77 396.5,-356 393.16,-295.62 392.78,-272.05 429.5,-224 441.97,-207.67 462.21,-195.87 478.22,-188.46"/>
<polygon fill="#63b8ff" stroke="#63b8ff" points="378.43,-437.21 373.34,-446.51 383.11,-442.41 378.43,-437.21"/>
</a>
</g>
</g>
<!-- Node6&#45;&gt;Node11 -->
<g id="edge33_Node000006_Node000011" class="edge">
<title>Node6&#45;&gt;Node11</title>
<g id="a_edge33_Node000006_Node000011"><a xlink:title=" ">
<path fill="none" stroke="#63b8ff" d="M262.87,-446.06C240,-439.36 217.38,-428.74 200.5,-412 179.13,-390.81 181.5,-377.1 181.5,-347 181.5,-347 181.5,-347 181.5,-233 181.5,-195.54 188.46,-151.32 191.78,-132.38"/>
<polygon fill="#63b8ff" stroke="#63b8ff" points="261.7,-449.37 272.27,-448.57 263.51,-442.61 261.7,-449.37"/>
</a>
</g>
</g>
<!-- Node14 -->
<g id="Node000014" class="node">
<title>Node14</title>
<g id="a_Node000014"><a xlink:href="_g_e_descriptor_set_8h.html" target="_top" xlink:title="Declaración de la clase GEDescriptorSet para gestionar conjuntos de descriptores.">
<polygon fill="white" stroke="#666666" points="599.75,-412 447.25,-412 447.25,-392 599.75,-392 599.75,-412"/>
<text xml:space="preserve" text-anchor="middle" x="523.5" y="-398.5" font-family="Helvetica,sans-Serif" font-size="10.00">MVPVulkan/GEDescriptorSet.h</text>
</a>
</g>
</g>
<!-- Node6&#45;&gt;Node14 -->
<g id="edge15_Node000006_Node000014" class="edge">
<title>Node6&#45;&gt;Node14</title>
<g id="a_edge15_Node000006_Node000014"><a xlink:title=" ">
<path fill="none" stroke="#63b8ff" d="M398.83,-444.05C428.36,-434.33 468.11,-421.24 494.71,-412.48"/>
<polygon fill="#63b8ff" stroke="#63b8ff" points="397.91,-440.67 389.5,-447.12 400.1,-447.32 397.91,-440.67"/>
</a>
</g>
</g>
<!-- Node16 -->
<g id="Node000016" class="node">
<title>Node16</title>
<g id="a_Node000016"><a xlink:href="_g_e_figure_8h.html" target="_top" xlink:title="Declaración de la clase GEFigure para figuras de malla.">
<polygon fill="white" stroke="#666666" points="705.25,-356 585.75,-356 585.75,-336 705.25,-336 705.25,-356"/>
<text xml:space="preserve" text-anchor="middle" x="645.5" y="-342.5" font-family="Helvetica,sans-Serif" font-size="10.00">MVPVulkan/GEFigure.h</text>
</a>
</g>
</g>
<!-- Node6&#45;&gt;Node16 -->
<g id="edge31_Node000006_Node000016" class="edge">
<title>Node6&#45;&gt;Node16</title>
<g id="a_edge31_Node000006_Node000016"><a xlink:title=" ">
<path fill="none" stroke="#63b8ff" d="M440.11,-445.9C507.47,-436.06 594.7,-421.77 608.5,-412 628,-398.19 638.58,-370.66 642.99,-356.26"/>
<polygon fill="#63b8ff" stroke="#63b8ff" points="439.95,-442.39 430.55,-447.29 440.95,-449.32 439.95,-442.39"/>
</a>
</g>
</g>
<!-- Node24 -->
<g id="Node000024" class="node">
<title>Node24</title>
<g id="a_Node000024"><a xlink:href="_g_e_rendering_context_8cpp.html" target="_top" xlink:title="Implementación de la clase GERenderingContext.">
<polygon fill="white" stroke="#666666" points="391.38,-412 209.62,-412 209.62,-392 391.38,-392 391.38,-412"/>
<text xml:space="preserve" text-anchor="middle" x="300.5" y="-398.5" font-family="Helvetica,sans-Serif" font-size="10.00">MVPVulkan/GERenderingContext.cpp</text>
</a>
</g>
</g>
<!-- Node6&#45;&gt;Node24 -->
<g id="edge32_Node000006_Node000024" class="edge">
<title>Node6&#45;&gt;Node24</title>
<g id="a_edge32_Node000006_Node000024"><a xlink:title=" ">
<path fill="none" stroke="#63b8ff" d="M340.76,-439.85C330.79,-430.72 318.92,-419.86 310.66,-412.3"/>
<polygon fill="#63b8ff" stroke="#63b8ff" points="338.37,-442.4 348.11,-446.57 343.09,-437.24 338.37,-442.4"/>
</a>
</g>
</g>
<!-- Node8 -->
<g id="Node000008" class="node">
<title>Node8</title>
<g id="a_Node000008"><a xlink:href="_g_e_animation_8cpp.html" target="_top" xlink:title="Implementación del sistema de animación por keyframes.">
<polygon fill="white" stroke="#666666" points="577.75,-132 431.25,-132 431.25,-112 577.75,-112 577.75,-132"/>
<text xml:space="preserve" text-anchor="middle" x="504.5" y="-118.5" font-family="Helvetica,sans-Serif" font-size="10.00">MVPVulkan/GEAnimation.cpp</text>
</a>
</g>
</g>
<!-- Node7&#45;&gt;Node8 -->
<g id="edge7_Node000007_Node000008" class="edge">
<title>Node7&#45;&gt;Node8</title>
<g id="a_edge7_Node000007_Node000008"><a xlink:title=" ">
<path fill="none" stroke="#63b8ff" d="M737.77,-219.47C766.89,-207.54 798.24,-188.86 780.5,-168 754.99,-137.99 650.95,-127.95 578.17,-124.61"/>
<polygon fill="#63b8ff" stroke="#63b8ff" points="736.71,-216.12 728.65,-223 739.24,-222.65 736.71,-216.12"/>
</a>
</g>
</g>
<!-- Node9 -->
<g id="Node000009" class="node">
<title>Node9</title>
<g id="a_Node000009"><a xlink:href="_g_e_balljoint_8cpp.html" target="_top" xlink:title="Implementación de la clase GEBalljoint con soporte jerárquico.">
<polygon fill="white" stroke="#666666" points="771.25,-188 633.75,-188 633.75,-168 771.25,-168 771.25,-188"/>
<text xml:space="preserve" text-anchor="middle" x="702.5" y="-174.5" font-family="Helvetica,sans-Serif" font-size="10.00">MVPVulkan/GEBalljoint.cpp</text>
</a>
</g>
</g>
<!-- Node7&#45;&gt;Node9 -->
<g id="edge8_Node000007_Node000009" class="edge">
<title>Node7&#45;&gt;Node9</title>
<g id="a_edge8_Node000007_Node000009"><a xlink:title=" ">
<path fill="none" stroke="#63b8ff" d="M699.43,-212.13C700.19,-203.9 701.03,-194.85 701.64,-188.3"/>
<polygon fill="#63b8ff" stroke="#63b8ff" points="695.95,-211.81 698.51,-222.09 702.92,-212.45 695.95,-211.81"/>
</a>
</g>
</g>
<!-- Node7&#45;&gt;Node10 -->
<g id="edge9_Node000007_Node000010" class="edge">
<title>Node7&#45;&gt;Node10</title>
<g id="a_edge9_Node000007_Node000010"><a xlink:title=" ">
<path fill="none" stroke="#63b8ff" d="M652.58,-220.56C617.3,-210.79 568.92,-197.39 536.73,-188.48"/>
<polygon fill="#63b8ff" stroke="#63b8ff" points="651.5,-223.89 662.07,-223.19 653.37,-217.15 651.5,-223.89"/>
</a>
</g>
</g>
<!-- Node10&#45;&gt;Node8 -->
<g id="edge10_Node000010_Node000008" class="edge">
<title>Node10&#45;&gt;Node8</title>
<g id="a_edge10_Node000010_Node000008"><a xlink:title=" ">
<path fill="none" stroke="#63b8ff" d="M503.27,-156.13C503.58,-147.9 503.91,-138.85 504.16,-132.3"/>
<polygon fill="#63b8ff" stroke="#63b8ff" points="499.78,-155.96 502.9,-166.08 506.77,-156.22 499.78,-155.96"/>
</a>
</g>
</g>
<!-- Node10&#45;&gt;Node11 -->
<g id="edge11_Node000010_Node000011" class="edge">
<title>Node10&#45;&gt;Node11</title>
<g id="a_edge11_Node000010_Node000011"><a xlink:title=" ">
<path fill="none" stroke="#63b8ff" d="M437.04,-165.56C380.7,-155.71 300.38,-141.68 247.62,-132.46"/>
<polygon fill="#63b8ff" stroke="#63b8ff" points="436.38,-169 446.83,-167.27 437.58,-162.1 436.38,-169"/>
</a>
</g>
</g>
<!-- Node13 -->
<g id="Node000013" class="node">
<title>Node13</title>
<g id="a_Node000013"><a xlink:href="_g_e_skeleton_8cpp.html" target="_top" xlink:title="Implementación de GESkeleton con carga desde archivo .skel.">
<polygon fill="white" stroke="#666666" points="413.12,-132 271.88,-132 271.88,-112 413.12,-112 413.12,-132"/>
<text xml:space="preserve" text-anchor="middle" x="342.5" y="-118.5" font-family="Helvetica,sans-Serif" font-size="10.00">MVPVulkan/GESkeleton.cpp</text>
</a>
</g>
</g>
<!-- Node10&#45;&gt;Node13 -->
<g id="edge14_Node000010_Node000013" class="edge">
<title>Node10&#45;&gt;Node13</title>
<g id="a_edge14_Node000010_Node000013"><a xlink:title=" ">
<path fill="none" stroke="#63b8ff" d="M463.75,-163.92C434.98,-154.21 396.43,-141.2 370.59,-132.48"/>
<polygon fill="#63b8ff" stroke="#63b8ff" points="462.6,-167.23 473.2,-167.11 464.84,-160.6 462.6,-167.23"/>
</a>
</g>
</g>
<!-- Node11&#45;&gt;Node2 -->
<g id="edge12_Node000011_Node000002" class="edge">
<title>Node11&#45;&gt;Node2</title>
<g id="a_edge12_Node000011_Node000002"><a xlink:title=" ">
<path fill="none" stroke="#63b8ff" d="M178.61,-102.72C171.37,-93.84 162.98,-83.55 157.08,-76.3"/>
<polygon fill="#63b8ff" stroke="#63b8ff" points="175.85,-104.88 184.88,-110.42 181.28,-100.46 175.85,-104.88"/>
</a>
</g>
</g>
<!-- Node12 -->
<g id="Node000012" class="node">
<title>Node12</title>
<g id="a_Node000012"><a xlink:href="_g_e_scene_8cpp.html" target="_top" xlink:title="Escena con animación de tiro libre de baloncesto.">
<polygon fill="white" stroke="#666666" points="837.88,-76 707.12,-76 707.12,-56 837.88,-56 837.88,-76"/>
<text xml:space="preserve" text-anchor="middle" x="772.5" y="-62.5" font-family="Helvetica,sans-Serif" font-size="10.00">MVPVulkan/GEScene.cpp</text>
</a>
</g>
</g>
<!-- Node11&#45;&gt;Node12 -->
<g id="edge13_Node000011_Node000012" class="edge">
<title>Node11&#45;&gt;Node12</title>
<g id="a_edge13_Node000011_Node000012"><a xlink:title=" ">
<path fill="none" stroke="#63b8ff" d="M265.39,-111.72C430.16,-93.91 611.77,-79.22 706.8,-71.92"/>
<polygon fill="#63b8ff" stroke="#63b8ff" points="265.13,-108.23 255.57,-112.79 265.89,-115.19 265.13,-108.23"/>
</a>
</g>
</g>
<!-- Node15 -->
<g id="Node000015" class="node">
<title>Node15</title>
<g id="a_Node000015"><a xlink:href="_g_e_descriptor_set_8cpp.html" target="_top" xlink:title="Implementación de la clase GEDescriptorSet.">
<polygon fill="white" stroke="#666666" points="568,-356 405,-356 405,-336 568,-336 568,-356"/>
<text xml:space="preserve" text-anchor="middle" x="486.5" y="-342.5" font-family="Helvetica,sans-Serif" font-size="10.00">MVPVulkan/GEDescriptorSet.cpp</text>
</a>
</g>
</g>
<!-- Node14&#45;&gt;Node15 -->
<g id="edge16_Node000014_Node000015" class="edge">
<title>Node14&#45;&gt;Node15</title>
<g id="a_edge16_Node000014_Node000015"><a xlink:title=" ">
<path fill="none" stroke="#63b8ff" d="M510.59,-382.15C504.59,-373.4 497.73,-363.39 492.87,-356.3"/>
<polygon fill="#63b8ff" stroke="#63b8ff" points="507.66,-384.07 516.2,-390.35 513.43,-380.12 507.66,-384.07"/>
</a>
</g>
</g>
<!-- Node14&#45;&gt;Node16 -->
<g id="edge17_Node000014_Node000016" class="edge">
<title>Node14&#45;&gt;Node16</title>
<g id="a_edge17_Node000014_Node000016"><a xlink:title=" ">
<path fill="none" stroke="#63b8ff" d="M555.11,-387.01C576.79,-377.41 604.99,-364.93 624.08,-356.48"/>
<polygon fill="#63b8ff" stroke="#63b8ff" points="553.86,-383.73 546.13,-390.98 556.7,-390.13 553.86,-383.73"/>
</a>
</g>
</g>
<!-- Node16&#45;&gt;Node11 -->
<g id="edge26_Node000016_Node000011" class="edge">
<title>Node16&#45;&gt;Node11</title>
<g id="a_edge26_Node000016_Node000011"><a xlink:title=" ">
<path fill="none" stroke="#63b8ff" d="M574.28,-333.69C521.38,-324.65 454.15,-311.61 428.5,-300 328.92,-254.93 231.61,-161.53 202.36,-132.09"/>
<polygon fill="#63b8ff" stroke="#63b8ff" points="573.39,-337.09 583.84,-335.31 574.56,-330.19 573.39,-337.09"/>
</a>
</g>
</g>
<!-- Node17 -->
<g id="Node000017" class="node">
<title>Node17</title>
<g id="a_Node000017"><a xlink:href="_g_e_cylinder_8h.html" target="_top" xlink:title="Declaración de la clase GECylinder.">
<polygon fill="white" stroke="#666666" points="713.75,-300 585.25,-300 585.25,-280 713.75,-280 713.75,-300"/>
<text xml:space="preserve" text-anchor="middle" x="649.5" y="-286.5" font-family="Helvetica,sans-Serif" font-size="10.00">MVPVulkan/GECylinder.h</text>
</a>
</g>
</g>
<!-- Node16&#45;&gt;Node17 -->
<g id="edge18_Node000016_Node000017" class="edge">
<title>Node16&#45;&gt;Node17</title>
<g id="a_edge18_Node000016_Node000017"><a xlink:title=" ">
<path fill="none" stroke="#63b8ff" d="M647.05,-324.13C647.66,-315.9 648.33,-306.85 648.81,-300.3"/>
<polygon fill="#63b8ff" stroke="#63b8ff" points="643.56,-323.85 646.31,-334.08 650.54,-324.37 643.56,-323.85"/>
</a>
</g>
</g>
<!-- Node19 -->
<g id="Node000019" class="node">
<title>Node19</title>
<g id="a_Node000019"><a xlink:href="_g_e_figure_8cpp.html" target="_top" xlink:title="Implementación de la clase GEFigure.">
<polygon fill="white" stroke="#666666" points="567.5,-300 437.5,-300 437.5,-280 567.5,-280 567.5,-300"/>
<text xml:space="preserve" text-anchor="middle" x="502.5" y="-286.5" font-family="Helvetica,sans-Serif" font-size="10.00">MVPVulkan/GEFigure.cpp</text>
</a>
</g>
</g>
<!-- Node16&#45;&gt;Node19 -->
<g id="edge22_Node000016_Node000019" class="edge">
<title>Node16&#45;&gt;Node19</title>
<g id="a_edge22_Node000016_Node000019"><a xlink:title=" ">
<path fill="none" stroke="#63b8ff" d="M609.84,-331.53C584.24,-321.87 550.39,-309.08 527.6,-300.48"/>
<polygon fill="#63b8ff" stroke="#63b8ff" points="608.58,-334.8 619.18,-335.06 611.06,-328.25 608.58,-334.8"/>
</a>
</g>
</g>
<!-- Node20 -->
<g id="Node000020" class="node">
<title>Node20</title>
<g id="a_Node000020"><a xlink:href="_g_e_ground_8h.html" target="_top" xlink:title="Declaración de la clase GEGround para terreno rectangular.">
<polygon fill="white" stroke="#666666" points="1097.5,-300 973.5,-300 973.5,-280 1097.5,-280 1097.5,-300"/>
<text xml:space="preserve" text-anchor="middle" x="1035.5" y="-286.5" font-family="Helvetica,sans-Serif" font-size="10.00">MVPVulkan/GEGround.h</text>
</a>
</g>
</g>
<!-- Node16&#45;&gt;Node20 -->
<g id="edge23_Node000016_Node000020" class="edge">
<title>Node16&#45;&gt;Node20</title>
<g id="a_edge23_Node000016_Node000020"><a xlink:title=" ">
<path fill="none" stroke="#63b8ff" d="M716.55,-335.16C789.86,-325.01 903.11,-309.33 973.09,-299.64"/>
<polygon fill="#63b8ff" stroke="#63b8ff" points="716.51,-331.63 707.08,-336.47 717.47,-338.57 716.51,-331.63"/>
</a>
</g>
</g>
<!-- Node22 -->
<g id="Node000022" class="node">
<title>Node22</title>
<g id="a_Node000022"><a xlink:href="_g_e_sphere_8h.html" target="_top" xlink:title="Declaración de la clase GESphere que describe una esfera.">
<polygon fill="white" stroke="#666666" points="900.12,-300 776.88,-300 776.88,-280 900.12,-280 900.12,-300"/>
<text xml:space="preserve" text-anchor="middle" x="838.5" y="-286.5" font-family="Helvetica,sans-Serif" font-size="10.00">MVPVulkan/GESphere.h</text>
</a>
</g>
</g>
<!-- Node16&#45;&gt;Node22 -->
<g id="edge27_Node000016_Node000022" class="edge">
<title>Node16&#45;&gt;Node22</title>
<g id="a_edge27_Node000016_Node000022"><a xlink:title=" ">
<path fill="none" stroke="#63b8ff" d="M689.96,-332.56C724.88,-322.79 772.76,-309.39 804.62,-300.48"/>
<polygon fill="#63b8ff" stroke="#63b8ff" points="689.26,-329.12 680.58,-335.19 691.15,-335.86 689.26,-329.12"/>
</a>
</g>
</g>
<!-- Node17&#45;&gt;Node7 -->
<g id="edge19_Node000017_Node000007" class="edge">
<title>Node17&#45;&gt;Node7</title>
<g id="a_edge19_Node000017_Node000007"><a xlink:title=" ">
<path fill="none" stroke="#63b8ff" d="M665.5,-271C673.45,-262.06 682.72,-251.62 689.23,-244.3"/>
<polygon fill="#63b8ff" stroke="#63b8ff" points="662.89,-268.66 658.87,-278.46 668.13,-273.31 662.89,-268.66"/>
</a>
</g>
</g>
<!-- Node17&#45;&gt;Node12 -->
<g id="edge21_Node000017_Node000012" class="edge">
<title>Node17&#45;&gt;Node12</title>
<g id="a_edge21_Node000017_Node000012"><a xlink:title=" ">
<path fill="none" stroke="#63b8ff" d="M636.7,-269.82C632.26,-262.13 627.83,-252.97 625.5,-244 617.01,-211.3 608.72,-197.87 624.5,-168 649.93,-119.86 709.75,-90.34 745.06,-76.48"/>
<polygon fill="#63b8ff" stroke="#63b8ff" points="633.69,-271.61 641.94,-278.26 639.64,-267.92 633.69,-271.61"/>
</a>
</g>
</g>
<!-- Node18 -->
<g id="Node000018" class="node">
<title>Node18</title>
<g id="a_Node000018"><a xlink:href="_g_e_cylinder_8cpp.html" target="_top" xlink:title="Implementación de la clase GECylinder.">
<polygon fill="white" stroke="#666666" points="577,-244 438,-244 438,-224 577,-224 577,-244"/>
<text xml:space="preserve" text-anchor="middle" x="507.5" y="-230.5" font-family="Helvetica,sans-Serif" font-size="10.00">MVPVulkan/GECylinder.cpp</text>
</a>
</g>
</g>
<!-- Node17&#45;&gt;Node18 -->
<g id="edge20_Node000017_Node000018" class="edge">
<title>Node17&#45;&gt;Node18</title>
<g id="a_edge20_Node000017_Node000018"><a xlink:title=" ">
<path fill="none" stroke="#63b8ff" d="M614.08,-275.53C588.67,-265.87 555.06,-253.08 532.43,-244.48"/>
<polygon fill="#63b8ff" stroke="#63b8ff" points="612.76,-278.77 623.35,-279.06 615.25,-272.23 612.76,-278.77"/>
</a>
</g>
</g>
<!-- Node20&#45;&gt;Node12 -->
<g id="edge25_Node000020_Node000012" class="edge">
<title>Node20&#45;&gt;Node12</title>
<g id="a_edge25_Node000020_Node000012"><a xlink:title=" ">
<path fill="none" stroke="#63b8ff" d="M1073.15,-275.12C1098.55,-263.47 1125.14,-245.35 1111.5,-224 1051.35,-129.85 918.67,-91.32 838.29,-76.19"/>
<polygon fill="#63b8ff" stroke="#63b8ff" points="1072.03,-271.79 1064.22,-278.96 1074.79,-278.22 1072.03,-271.79"/>
</a>
</g>
</g>
<!-- Node21 -->
<g id="Node000021" class="node">
<title>Node21</title>
<g id="a_Node000021"><a xlink:href="_g_e_ground_8cpp.html" target="_top" xlink:title="Implementación de la clase GEGround.">
<polygon fill="white" stroke="#666666" points="1102.75,-244 968.25,-244 968.25,-224 1102.75,-224 1102.75,-244"/>
<text xml:space="preserve" text-anchor="middle" x="1035.5" y="-230.5" font-family="Helvetica,sans-Serif" font-size="10.00">MVPVulkan/GEGround.cpp</text>
</a>
</g>
</g>
<!-- Node20&#45;&gt;Node21 -->
<g id="edge24_Node000020_Node000021" class="edge">
<title>Node20&#45;&gt;Node21</title>
<g id="a_edge24_Node000020_Node000021"><a xlink:title=" ">
<path fill="none" stroke="#63b8ff" d="M1035.5,-268.13C1035.5,-259.9 1035.5,-250.85 1035.5,-244.3"/>
<polygon fill="#63b8ff" stroke="#63b8ff" points="1032,-268.08 1035.5,-278.08 1039,-268.08 1032,-268.08"/>
</a>
</g>
</g>
<!-- Node22&#45;&gt;Node7 -->
<g id="edge28_Node000022_Node000007" class="edge">
<title>Node22&#45;&gt;Node7</title>
<g id="a_edge28_Node000022_Node000007"><a xlink:title=" ">
<path fill="none" stroke="#63b8ff" d="M803.33,-275.53C778.1,-265.87 744.72,-253.08 722.25,-244.48"/>
<polygon fill="#63b8ff" stroke="#63b8ff" points="801.94,-278.74 812.53,-279.05 804.44,-272.21 801.94,-278.74"/>
</a>
</g>
</g>
<!-- Node22&#45;&gt;Node12 -->
<g id="edge29_Node000022_Node000012" class="edge">
<title>Node22&#45;&gt;Node12</title>
<g id="a_edge29_Node000022_Node000012"><a xlink:title=" ">
<path fill="none" stroke="#63b8ff" d="M883.8,-275.05C898.45,-268.15 913.07,-258.17 921.5,-244 926.05,-236.36 924.79,-232.26 921.5,-224 893.65,-154.2 818.37,-97.64 786.77,-76.23"/>
<polygon fill="#63b8ff" stroke="#63b8ff" points="882.45,-271.82 874.62,-278.95 885.19,-278.26 882.45,-271.82"/>
</a>
</g>
</g>
<!-- Node23 -->
<g id="Node000023" class="node">
<title>Node23</title>
<g id="a_Node000023"><a xlink:href="_g_e_sphere_8cpp.html" target="_top" xlink:title="Implementación de la clase GESphere.">
<polygon fill="white" stroke="#666666" points="912.38,-244 778.62,-244 778.62,-224 912.38,-224 912.38,-244"/>
<text xml:space="preserve" text-anchor="middle" x="845.5" y="-230.5" font-family="Helvetica,sans-Serif" font-size="10.00">MVPVulkan/GESphere.cpp</text>
</a>
</g>
</g>
<!-- Node22&#45;&gt;Node23 -->
<g id="edge30_Node000022_Node000023" class="edge">
<title>Node22&#45;&gt;Node23</title>
<g id="a_edge30_Node000022_Node000023"><a xlink:title=" ">
<path fill="none" stroke="#63b8ff" d="M841.17,-268.43C842.25,-260.11 843.43,-250.93 844.29,-244.3"/>
<polygon fill="#63b8ff" stroke="#63b8ff" points="837.73,-267.73 839.91,-278.09 844.67,-268.63 837.73,-267.73"/>
</a>
</g>
</g>
</g>
</svg>

<g id="navigator" transform="translate(0 0)" fill="#404254">
  <rect fill="#f2f5e9" fill-opacity="0.5" stroke="#606060" stroke-width=".5" x="0" y="0" width="60" height="60"/>
  <use id="zoomplus" xlink:href="#zoomPlus" x="17" y="9" onmousedown="handleZoom(evt,'in')"/>
  <use id="zoomminus" xlink:href="#zoomMin" x="42" y="9" onmousedown="handleZoom(evt,'out')"/>
  <use id="reset" xlink:href="#resetDef" x="30" y="36" onmousedown="handleReset()"/>
   <use id="arrowup" xlink:href="#arrowUp" x="0" y="0" onmousedown="handlePan(0,-1)"/>
  <use id="arrowright" xlink:href="#arrowRight" x="0" y="0" onmousedown="handlePan(1,0)"/>
  <use id="arrowdown" xlink:href="#arrowDown" x="0" y="0" onmousedown="handlePan(0,1)"/>
  <use id="arrowleft" xlink:href="#arrowLeft" x="0" y="0" onmousedown="handlePan(-1,0)"/>
</g>
<svg viewBox="0 0 15 15" width="100%" height="30px" preserveAspectRatio="xMaxYMin meet">
 <g id="arrow_out" transform="scale(0.3 0.3)">
  <a xlink:href="_g_e_drawing_context_8h__dep__incl_org.svg" target="_base">
   <rect id="button" ry="5" rx="5" y="6" x="6" height="38" width="38"
        fill="#f2f5e9" fill-opacity="0.5" stroke="#606060" stroke-width="1.0"/>
   <path id="arrow"
     d="M 11.500037,31.436501 C 11.940474,20.09759 22.043105,11.32322 32.158766,21.979434 L 37.068811,17.246167 C 37.068811,17.246167 37.088388,32 37.088388,32 L 22.160133,31.978069 C 22.160133,31.978069 26.997745,27.140456 26.997745,27.140456 C 18.528582,18.264221 13.291696,25.230495 11.500037,31.436501 z"
     style="fill:#404040;"/>
  </a>
 </g>
</svg>

<style type='text/css'>
<![CDATA[
[data-mouse-over-selected='false'] { opacity: 0.7; }
[data-mouse-over-selected='true']  { opacity: 1.0; }
]]>
</style>
<script type="application/ecmascript"><![CDATA[
document.addEventListener('DOMContentLoaded', (event) => {
  highlightEdges();
  highlightAdjacentNodes();
});
]]></script>
</svg>
