<?xml version="1.0" encoding="UTF-8" standalone="no"?>
<!DOCTYPE svg PUBLIC "-//W3C//DTD SVG 1.1//EN"
 "http://www.w3.org/Graphics/SVG/1.1/DTD/svg11.dtd">
<!-- Generated by graphviz version 14.1.2 (20260124.0452)
 -->
<!-- Title: MVPVulkan/GEXMLParser.h Pages: 1 -->
<svg width="417pt" height="140pt"
 viewBox="0.00 0.00 417.00 140.00" xmlns="http://www.w3.org/2000/svg" xmlns:xlink="http://www.w3.org/1999/xlink">

<svg id="main" version="1.1" xmlns="http://www.w3.org/2000/svg" xmlns:xlink="http://www.w3.org/1999/xlink" xml:space="preserve">

<style type="text/css"><![CDATA[
.node, .edge {opacity: 0.7;}
.node.selected, .edge.selected {opacity: 1;}
.edge:hover path { stroke: red; }
.edge:hover polygon { stroke: red; fill: red; }
]]></style>
<script type="application/ecmascript" xlink:href="svg.min.js"/>
<svg id="graph" class="graph">
<g id="graph0" class="graph" transform="scale(1 1) rotate(0) translate(4 136)">
<title>MVPVulkan/GEXMLParser.h</title>
<!-- Node1 -->
<g id="Node000001" class="node">
<title>Node1</title>
<g id="a_Node000001"><a xlink:title="Parser para archivos .skel (XML) usando pugixml.">
<polygon fill="#999999" stroke="#666666" points="177.62,-132 36.38,-132 36.38,-112 177.62,-112 177.62,-132"/>
<text xml:space="preserve" text-anchor="middle" x="107" y="-118.5" font-family="Helvetica,sans-Serif" font-size="10.00">MVPVulkan/GEXMLParser.h</text>
</a>
</g>
</g>
<!-- Node2 -->
<g id="Node000002" class="node">
<title>Node2</title>
<g id="a_Node000002"><a xlink:title=" ">
<polygon fill="#e0e0e0" stroke="#999999" points="40,-20 0,-20 0,0 40,0 40,-20"/>
<text xml:space="preserve" text-anchor="middle" x="20" y="-6.5" font-family="Helvetica,sans-Serif" font-size="10.00">string</text>
</a>
</g>
</g>
<!-- Node1&#45;&gt;Node2 -->
<g id="edge1_Node000001_Node000002" class="edge">
<title>Node1&#45;&gt;Node2</title>
<g id="a_edge1_Node000001_Node000002"><a xlink:title=" ">
<path fill="none" stroke="#63b8ff" d="M85.72,-111.52C70.91,-103.9 51.78,-91.86 40,-76 30.3,-62.94 25.24,-45.1 22.65,-31.42"/>
<polygon fill="#63b8ff" stroke="#63b8ff" points="26.14,-31.1 21.13,-21.77 19.23,-32.19 26.14,-31.1"/>
</a>
</g>
</g>
<!-- Node3 -->
<g id="Node000003" class="node">
<title>Node3</title>
<g id="a_Node000003"><a xlink:title=" ">
<polygon fill="#e0e0e0" stroke="#999999" points="91.5,-76 48.5,-76 48.5,-56 91.5,-56 91.5,-76"/>
<text xml:space="preserve" text-anchor="middle" x="70" y="-62.5" font-family="Helvetica,sans-Serif" font-size="10.00">vector</text>
</a>
</g>
</g>
<!-- Node1&#45;&gt;Node3 -->
<g id="edge2_Node000001_Node000003" class="edge">
<title>Node1&#45;&gt;Node3</title>
<g id="a_edge2_Node000001_Node000003"><a xlink:title=" ">
<path fill="none" stroke="#63b8ff" d="M100.56,-111.59C95.67,-104.47 88.81,-94.45 82.82,-85.72"/>
<polygon fill="#63b8ff" stroke="#63b8ff" points="85.77,-83.82 77.23,-77.55 79.99,-87.77 85.77,-83.82"/>
</a>
</g>
</g>
<!-- Node4 -->
<g id="Node000004" class="node">
<title>Node4</title>
<g id="a_Node000004"><a xlink:title=" ">
<polygon fill="#e0e0e0" stroke="#999999" points="178.62,-76 109.38,-76 109.38,-56 178.62,-56 178.62,-76"/>
<text xml:space="preserve" text-anchor="middle" x="144" y="-62.5" font-family="Helvetica,sans-Serif" font-size="10.00">glm/glm.hpp</text>
</a>
</g>
</g>
<!-- Node1&#45;&gt;Node4 -->
<g id="edge3_Node000001_Node000004" class="edge">
<title>Node1&#45;&gt;Node4</title>
<g id="a_edge3_Node000001_Node000004"><a xlink:title=" ">
<path fill="none" stroke="#63b8ff" d="M113.44,-111.59C118.33,-104.47 125.19,-94.45 131.18,-85.72"/>
<polygon fill="#63b8ff" stroke="#63b8ff" points="134.01,-87.77 136.77,-77.55 128.23,-83.82 134.01,-87.77"/>
</a>
</g>
</g>
<!-- Node5 -->
<g id="Node000005" class="node">
<title>Node5</title>
<g id="a_Node000005"><a xlink:href="pugixml_8hpp.html" target="_top" xlink:title=" ">
<polygon fill="white" stroke="#666666" points="301.62,-76 196.38,-76 196.38,-56 301.62,-56 301.62,-76"/>
<text xml:space="preserve" text-anchor="middle" x="249" y="-62.5" font-family="Helvetica,sans-Serif" font-size="10.00">pugixml/pugixml.hpp</text>
</a>
</g>
</g>
<!-- Node1&#45;&gt;Node5 -->
<g id="edge4_Node000001_Node000005" class="edge">
<title>Node1&#45;&gt;Node5</title>
<g id="a_edge4_Node000001_Node000005"><a xlink:title=" ">
<path fill="none" stroke="#63b8ff" d="M131.73,-111.59C154.3,-103.01 187.91,-90.23 213.37,-80.55"/>
<polygon fill="#63b8ff" stroke="#63b8ff" points="214.55,-83.84 222.66,-77.02 212.07,-77.3 214.55,-83.84"/>
</a>
</g>
</g>
<!-- Node5&#45;&gt;Node2 -->
<g id="edge10_Node000005_Node000002" class="edge">
<title>Node5&#45;&gt;Node2</title>
<g id="a_edge10_Node000005_Node000002"><a xlink:title=" ">
<path fill="none" stroke="#63b8ff" d="M202.94,-55.53C164.84,-47.48 109.08,-35.22 51.12,-20.14"/>
<polygon fill="#63b8ff" stroke="#63b8ff" points="52.3,-16.83 41.74,-17.68 50.53,-23.6 52.3,-16.83"/>
</a>
</g>
</g>
<!-- Node6 -->
<g id="Node000006" class="node">
<title>Node6</title>
<g id="a_Node000006"><a xlink:href="pugiconfig_8hpp.html" target="_top" xlink:title=" ">
<polygon fill="white" stroke="#666666" points="137.5,-20 58.5,-20 58.5,0 137.5,0 137.5,-20"/>
<text xml:space="preserve" text-anchor="middle" x="98" y="-6.5" font-family="Helvetica,sans-Serif" font-size="10.00">pugiconfig.hpp</text>
</a>
</g>
</g>
<!-- Node5&#45;&gt;Node6 -->
<g id="edge5_Node000005_Node000006" class="edge">
<title>Node5&#45;&gt;Node6</title>
<g id="a_edge5_Node000005_Node000006"><a xlink:title=" ">
<path fill="none" stroke="#63b8ff" d="M222.7,-55.59C198.49,-46.94 162.32,-34 135.16,-24.29"/>
<polygon fill="#63b8ff" stroke="#63b8ff" points="136.53,-21.06 125.93,-20.99 134.17,-27.65 136.53,-21.06"/>
</a>
</g>
</g>
<!-- Node7 -->
<g id="Node000007" class="node">
<title>Node7</title>
<g id="a_Node000007"><a xlink:title=" ">
<polygon fill="#e0e0e0" stroke="#999999" points="206.62,-20 155.38,-20 155.38,0 206.62,0 206.62,-20"/>
<text xml:space="preserve" text-anchor="middle" x="181" y="-6.5" font-family="Helvetica,sans-Serif" font-size="10.00">stddef.h</text>
</a>
</g>
</g>
<!-- Node5&#45;&gt;Node7 -->
<g id="edge6_Node000005_Node000007" class="edge">
<title>Node5&#45;&gt;Node7</title>
<g id="a_edge6_Node000005_Node000007"><a xlink:title=" ">
<path fill="none" stroke="#63b8ff" d="M237.16,-55.59C227.31,-47.77 213.07,-36.46 201.39,-27.19"/>
<polygon fill="#63b8ff" stroke="#63b8ff" points="203.9,-24.72 193.89,-21.24 199.55,-30.2 203.9,-24.72"/>
</a>
</g>
</g>
<!-- Node8 -->
<g id="Node000008" class="node">
<title>Node8</title>
<g id="a_Node000008"><a xlink:title=" ">
<polygon fill="#e0e0e0" stroke="#999999" points="283,-20 225,-20 225,0 283,0 283,-20"/>
<text xml:space="preserve" text-anchor="middle" x="254" y="-6.5" font-family="Helvetica,sans-Serif" font-size="10.00">exception</text>
</a>
</g>
</g>
<!-- Node5&#45;&gt;Node8 -->
<g id="edge7_Node000005_Node000008" class="edge">
<title>Node5&#45;&gt;Node8</title>
<g id="a_edge7_Node000005_Node000008"><a xlink:title=" ">
<path fill="none" stroke="#63b8ff" d="M249.87,-55.59C250.48,-49.01 251.32,-39.96 252.08,-31.73"/>
<polygon fill="#63b8ff" stroke="#63b8ff" points="255.56,-32.09 253,-21.81 248.59,-31.44 255.56,-32.09"/>
</a>
</g>
</g>
<!-- Node9 -->
<g id="Node000009" class="node">
<title>Node9</title>
<g id="a_Node000009"><a xlink:title=" ">
<polygon fill="#e0e0e0" stroke="#999999" points="347,-20 301,-20 301,0 347,0 347,-20"/>
<text xml:space="preserve" text-anchor="middle" x="324" y="-6.5" font-family="Helvetica,sans-Serif" font-size="10.00">iterator</text>
</a>
</g>
</g>
<!-- Node5&#45;&gt;Node9 -->
<g id="edge8_Node000005_Node000009" class="edge">
<title>Node5&#45;&gt;Node9</title>
<g id="a_edge8_Node000005_Node000009"><a xlink:title=" ">
<path fill="none" stroke="#63b8ff" d="M262.06,-55.59C272.97,-47.74 288.75,-36.38 301.66,-27.09"/>
<polygon fill="#63b8ff" stroke="#63b8ff" points="303.54,-30.05 309.61,-21.36 299.45,-24.37 303.54,-30.05"/>
</a>
</g>
</g>
<!-- Node10 -->
<g id="Node000010" class="node">
<title>Node10</title>
<g id="a_Node000010"><a xlink:title=" ">
<polygon fill="#e0e0e0" stroke="#999999" points="409.25,-20 364.75,-20 364.75,0 409.25,0 409.25,-20"/>
<text xml:space="preserve" text-anchor="middle" x="387" y="-6.5" font-family="Helvetica,sans-Serif" font-size="10.00">iosfwd</text>
</a>
</g>
</g>
<!-- Node5&#45;&gt;Node10 -->
<g id="edge9_Node000005_Node000010" class="edge">
<title>Node5&#45;&gt;Node10</title>
<g id="a_edge9_Node000005_Node000010"><a xlink:title=" ">
<path fill="none" stroke="#63b8ff" d="M273.04,-55.59C295.51,-46.8 329.24,-33.6 354.18,-23.84"/>
<polygon fill="#63b8ff" stroke="#63b8ff" points="355.16,-27.22 363.2,-20.31 352.61,-20.7 355.16,-27.22"/>
</a>
</g>
</g>
</g>
</svg>
</svg>

<style type='text/css'>
<![CDATA[
[data-mouse-over-selected='false'] { opacity: 0.7; }
[data-mouse-over-selected='true']  { opacity: 1.0; }
]]>
</style>
<script type="application/ecmascript"><![CDATA[
document.addEventListener('DOMContentLoaded', (event) => {
  highlightEdges();
  highlightAdjacentNodes();
});
]]></script>
</svg>
