<?xml version="1.0" encoding="UTF-8" standalone="no"?>
<!DOCTYPE svg PUBLIC "-//W3C//DTD SVG 1.1//EN"
 "http://www.w3.org/Graphics/SVG/1.1/DTD/svg11.dtd">
<!-- Generated by graphviz version 14.1.2 (20260124.0452)
 -->
<!-- Title: MVPVulkan/GERenderingContext.h Pages: 1 -->
<!--zoomable 196 -->

<svg id="main" version="1.1" xmlns="http://www.w3.org/2000/svg" xmlns:xlink="http://www.w3.org/1999/xlink" xml:space="preserve" onload="init(evt)">

<style type="text/css"><![CDATA[
.node, .edge {opacity: 0.7;}
.node.selected, .edge.selected {opacity: 1;}
.edge:hover path { stroke: red; }
.edge:hover polygon { stroke: red; fill: red; }
]]></style>

<defs>
  <circle id="rim" cx="0" cy="0" r="7"/>
  <circle id="rim2" cx="0" cy="0" r="3.5"/>
  <g id="zoomPlus">
    <use xlink:href="#rim" fill="#404040"><set attributeName="fill" to="#808080" begin="zoomplus.mouseover" end="zoomplus.mouseout"/></use>
    <path d="M-4,0h8M0,-4v8" fill="none" stroke="white" stroke-width="1.5" pointer-events="none"/>
  </g>
  <g id="zoomMin">
    <use xlink:href="#rim" fill="#404040"><set attributeName="fill" to="#808080" begin="zoomminus.mouseover" end="zoomminus.mouseout"/></use>
    <path d="M-4,0h8" fill="none" stroke="white" stroke-width="1.5" pointer-events="none"/>
  </g>
  <g id="arrowUp" transform="translate(30 24)">
    <use xlink:href="#rim"/>
    <path pointer-events="none" fill="none" stroke="white" stroke-width="1.5" d="M0,-3.0v7 M-2.5,-0.5L0,-3.0L2.5,-0.5"/>
  </g>
  <g id="arrowRight" transform="rotate(90) translate(36 -43)">
    <use xlink:href="#rim"/>
    <path pointer-events="none" fill="none" stroke="white" stroke-width="1.5" d="M0,-3.0v7 M-2.5,-0.5L0,-3.0L2.5,-0.5"/>
  </g>
  <g id="arrowDown" transform="rotate(180) translate(-30 -48)">
    <use xlink:href="#rim"/>
    <path pointer-events="none" fill="none" stroke="white" stroke-width="1.5" d="M0,-3.0v7 M-2.5,-0.5L0,-3.0L2.5,-0.5"/>
  </g>
  <g id="arrowLeft" transform="rotate(270) translate(-36 17)">
    <use xlink:href="#rim"/>
    <path pointer-events="none" fill="none" stroke="white" stroke-width="1.5" d="M0,-3.0v7 M-2.5,-0.5L0,-3.0L2.5,-0.5"/>
  </g>
  <g id="resetDef">
    <use xlink:href="#rim2" fill="#404040"><set attributeName="fill" to="#808080" begin="reset.mouseover" end="reset.mouseout"/></use>
  </g>
</defs>
<script type="application/ecmascript">
var viewWidth = 510;
var viewHeight = 196;
var sectionId = 'dynsection-0';
</script>
<script type="application/ecmascript" xlink:href="svg.min.js"/>
<svg id="graph" class="graph">
<g id="viewport">
<title>MVPVulkan/GERenderingContext.h</title>
<!-- Node1 -->
<g id="Node000001" class="node">
<title>Node1</title>
<g id="a_Node000001"><a xlink:title="Declaración de la clase GERenderingContext que describe un contexto de renderizado.">
<polygon fill="#999999" stroke="#666666" points="364.49,-188 193.24,-188 193.24,-168 364.49,-168 364.49,-188"/>
<text xml:space="preserve" text-anchor="middle" x="278.87" y="-174.5" font-family="Helvetica,sans-Serif" font-size="10.00">MVPVulkan/GERenderingContext.h</text>
</a>
</g>
</g>
<!-- Node2 -->
<g id="Node000002" class="node">
<title>Node2</title>
<g id="a_Node000002"><a xlink:title=" ">
<polygon fill="#e0e0e0" stroke="#999999" points="323.99,-20 239.74,-20 239.74,0 323.99,0 323.99,-20"/>
<text xml:space="preserve" text-anchor="middle" x="281.87" y="-6.5" font-family="Helvetica,sans-Serif" font-size="10.00">vulkan/vulkan.h</text>
</a>
</g>
</g>
<!-- Node1&#45;&gt;Node2 -->
<g id="edge1_Node000001_Node000002" class="edge">
<title>Node1&#45;&gt;Node2</title>
<g id="a_edge1_Node000001_Node000002"><a xlink:title=" ">
<path fill="none" stroke="#63b8ff" d="M346.15,-167.57C367.16,-161.11 388.15,-150.24 400.87,-132 415.83,-110.54 391.28,-69.18 378.87,-56 365.27,-41.56 346.13,-31.34 328.44,-24.32"/>
<polygon fill="#63b8ff" stroke="#63b8ff" points="329.69,-21.06 319.1,-20.89 327.28,-27.62 329.69,-21.06"/>
</a>
</g>
</g>
<!-- Node3 -->
<g id="Node000003" class="node">
<title>Node3</title>
<g id="a_Node000003"><a xlink:title=" ">
<polygon fill="#e0e0e0" stroke="#999999" points="501.62,-132 448.12,-132 448.12,-112 501.62,-112 501.62,-132"/>
<text xml:space="preserve" text-anchor="middle" x="474.87" y="-118.5" font-family="Helvetica,sans-Serif" font-size="10.00">iostream</text>
</a>
</g>
</g>
<!-- Node1&#45;&gt;Node3 -->
<g id="edge2_Node000001_Node000003" class="edge">
<title>Node1&#45;&gt;Node3</title>
<g id="a_edge2_Node000001_Node000003"><a xlink:title=" ">
<path fill="none" stroke="#63b8ff" d="M313.01,-167.59C347.55,-158.08 400.83,-143.4 436.74,-133.51"/>
<polygon fill="#63b8ff" stroke="#63b8ff" points="437.57,-136.91 446.28,-130.88 435.71,-130.16 437.57,-136.91"/>
</a>
</g>
</g>
<!-- Node4 -->
<g id="Node000004" class="node">
<title>Node4</title>
<g id="a_Node000004"><a xlink:href="_g_e_graphics_context_8h.html" target="_top" xlink:title="Declaración de la clase GEGraphicsContext que almacena el contexto gráfico de Vulkan.">
<polygon fill="white" stroke="#666666" points="125.87,-76 13.87,-76 13.87,-56 125.87,-56 125.87,-76"/>
<text xml:space="preserve" text-anchor="middle" x="69.87" y="-62.5" font-family="Helvetica,sans-Serif" font-size="10.00">GEGraphicsContext.h</text>
</a>
</g>
</g>
<!-- Node1&#45;&gt;Node4 -->
<g id="edge3_Node000001_Node000004" class="edge">
<title>Node1&#45;&gt;Node4</title>
<g id="a_edge3_Node000001_Node000004"><a xlink:title=" ">
<path fill="none" stroke="#63b8ff" d="M244.24,-167.54C218.68,-159.83 183.5,-147.66 154.87,-132 129.98,-118.39 104.54,-97.88 88.06,-83.56"/>
<polygon fill="#63b8ff" stroke="#63b8ff" points="90.82,-81.33 81.02,-77.32 86.18,-86.57 90.82,-81.33"/>
</a>
</g>
</g>
<!-- Node6 -->
<g id="Node000006" class="node">
<title>Node6</title>
<g id="a_Node000006"><a xlink:href="_g_e_drawing_context_8h.html" target="_top" xlink:title="Declaración de la clase GEDrawingContext para gestionar swapchain y present.">
<polygon fill="white" stroke="#666666" points="272.37,-132 163.37,-132 163.37,-112 272.37,-112 272.37,-132"/>
<text xml:space="preserve" text-anchor="middle" x="217.87" y="-118.5" font-family="Helvetica,sans-Serif" font-size="10.00">GEDrawingContext.h</text>
</a>
</g>
</g>
<!-- Node1&#45;&gt;Node6 -->
<g id="edge6_Node000001_Node000006" class="edge">
<title>Node1&#45;&gt;Node6</title>
<g id="a_edge6_Node000001_Node000006"><a xlink:title=" ">
<path fill="none" stroke="#63b8ff" d="M268.24,-167.59C259.58,-159.93 247.14,-148.91 236.79,-139.75"/>
<polygon fill="#63b8ff" stroke="#63b8ff" points="239.31,-137.31 229.51,-133.3 234.67,-142.55 239.31,-137.31"/>
</a>
</g>
</g>
<!-- Node9 -->
<g id="Node000009" class="node">
<title>Node9</title>
<g id="a_Node000009"><a xlink:href="_g_e_pipeline_config_8h.html" target="_top" xlink:title="Declaración de la clase GEPipelineConfig que almacena la configuración de un pipeline de renderizado.">
<polygon fill="white" stroke="#666666" points="391.62,-132 290.12,-132 290.12,-112 391.62,-112 391.62,-132"/>
<text xml:space="preserve" text-anchor="middle" x="340.87" y="-118.5" font-family="Helvetica,sans-Serif" font-size="10.00">GEPipelineConfig.h</text>
</a>
</g>
</g>
<!-- Node1&#45;&gt;Node9 -->
<g id="edge11_Node000001_Node000009" class="edge">
<title>Node1&#45;&gt;Node9</title>
<g id="a_edge11_Node000001_Node000009"><a xlink:title=" ">
<path fill="none" stroke="#63b8ff" d="M289.67,-167.59C298.47,-159.93 311.12,-148.91 321.64,-139.75"/>
<polygon fill="#63b8ff" stroke="#63b8ff" points="323.81,-142.5 329.05,-133.29 319.21,-137.22 323.81,-142.5"/>
</a>
</g>
</g>
<!-- Node10 -->
<g id="Node000010" class="node">
<title>Node10</title>
<g id="a_Node000010"><a xlink:href="_g_e_depth_buffer_8h.html" target="_top" xlink:title="Declaración de la clase GEDepthBuffer que gestiona el recurso de profundidad.">
<polygon fill="white" stroke="#666666" points="106.99,-132 16.74,-132 16.74,-112 106.99,-112 106.99,-132"/>
<text xml:space="preserve" text-anchor="middle" x="61.87" y="-118.5" font-family="Helvetica,sans-Serif" font-size="10.00">GEDepthBuffer.h</text>
</a>
</g>
</g>
<!-- Node1&#45;&gt;Node10 -->
<g id="edge14_Node000001_Node000010" class="edge">
<title>Node1&#45;&gt;Node10</title>
<g id="a_edge14_Node000001_Node000010"><a xlink:title=" ">
<path fill="none" stroke="#63b8ff" d="M241.07,-167.59C204.96,-158.61 150.36,-145.02 110.91,-135.2"/>
<polygon fill="#63b8ff" stroke="#63b8ff" points="111.98,-131.86 101.43,-132.84 110.29,-138.66 111.98,-131.86"/>
</a>
</g>
</g>
<!-- Node4&#45;&gt;Node2 -->
<g id="edge5_Node000004_Node000002" class="edge">
<title>Node4&#45;&gt;Node2</title>
<g id="a_edge5_Node000004_Node000002"><a xlink:title=" ">
<path fill="none" stroke="#63b8ff" d="M106.8,-55.59C142,-46.63 195.19,-33.08 233.71,-23.27"/>
<polygon fill="#63b8ff" stroke="#63b8ff" points="234.36,-26.71 243.19,-20.85 232.63,-19.93 234.36,-26.71"/>
</a>
</g>
</g>
<!-- Node5 -->
<g id="Node000005" class="node">
<title>Node5</title>
<g id="a_Node000005"><a xlink:title=" ">
<polygon fill="#e0e0e0" stroke="#999999" points="109.37,-20 30.37,-20 30.37,0 109.37,0 109.37,-20"/>
<text xml:space="preserve" text-anchor="middle" x="69.87" y="-6.5" font-family="Helvetica,sans-Serif" font-size="10.00">GLFW/glfw3.h</text>
</a>
</g>
</g>
<!-- Node4&#45;&gt;Node5 -->
<g id="edge4_Node000004_Node000005" class="edge">
<title>Node4&#45;&gt;Node5</title>
<g id="a_edge4_Node000004_Node000005"><a xlink:title=" ">
<path fill="none" stroke="#63b8ff" d="M69.87,-55.59C69.87,-49.01 69.87,-39.96 69.87,-31.73"/>
<polygon fill="#63b8ff" stroke="#63b8ff" points="73.37,-31.81 69.87,-21.81 66.37,-31.81 73.37,-31.81"/>
</a>
</g>
</g>
<!-- Node6&#45;&gt;Node2 -->
<g id="edge7_Node000006_Node000002" class="edge">
<title>Node6&#45;&gt;Node2</title>
<g id="a_edge7_Node000006_Node000002"><a xlink:title=" ">
<path fill="none" stroke="#63b8ff" d="M230.28,-111.58C240.42,-103.26 254.42,-90.26 262.87,-76 270.95,-62.36 275.79,-45.04 278.56,-31.72"/>
<polygon fill="#63b8ff" stroke="#63b8ff" points="282,-32.37 280.35,-21.9 275.12,-31.11 282,-32.37"/>
</a>
</g>
</g>
<!-- Node6&#45;&gt;Node4 -->
<g id="edge9_Node000006_Node000004" class="edge">
<title>Node6&#45;&gt;Node4</title>
<g id="a_edge9_Node000006_Node000004"><a xlink:title=" ">
<path fill="none" stroke="#63b8ff" d="M192.09,-111.59C168.47,-102.97 133.23,-90.12 106.65,-80.42"/>
<polygon fill="#63b8ff" stroke="#63b8ff" points="107.87,-77.14 97.27,-77 105.47,-83.71 107.87,-77.14"/>
</a>
</g>
</g>
<!-- Node7 -->
<g id="Node000007" class="node">
<title>Node7</title>
<g id="a_Node000007"><a xlink:title=" ">
<polygon fill="#e0e0e0" stroke="#999999" points="353.37,-76 310.37,-76 310.37,-56 353.37,-56 353.37,-76"/>
<text xml:space="preserve" text-anchor="middle" x="331.87" y="-62.5" font-family="Helvetica,sans-Serif" font-size="10.00">vector</text>
</a>
</g>
</g>
<!-- Node6&#45;&gt;Node7 -->
<g id="edge8_Node000006_Node000007" class="edge">
<title>Node6&#45;&gt;Node7</title>
<g id="a_edge8_Node000006_Node000007"><a xlink:title=" ">
<path fill="none" stroke="#63b8ff" d="M237.73,-111.59C255.36,-103.24 281.38,-90.92 301.6,-81.34"/>
<polygon fill="#63b8ff" stroke="#63b8ff" points="302.95,-84.57 310.49,-77.13 299.95,-78.25 302.95,-84.57"/>
</a>
</g>
</g>
<!-- Node8 -->
<g id="Node000008" class="node">
<title>Node8</title>
<g id="a_Node000008"><a xlink:href="_g_e_window_position_8h.html" target="_top" xlink:title="Declaración de la estructura GEWindowPosition para ventanas.">
<polygon fill="white" stroke="#666666" points="253.37,-76 144.37,-76 144.37,-56 253.37,-56 253.37,-76"/>
<text xml:space="preserve" text-anchor="middle" x="198.87" y="-62.5" font-family="Helvetica,sans-Serif" font-size="10.00">GEWindowPosition.h</text>
</a>
</g>
</g>
<!-- Node6&#45;&gt;Node8 -->
<g id="edge10_Node000006_Node000008" class="edge">
<title>Node6&#45;&gt;Node8</title>
<g id="a_edge10_Node000006_Node000008"><a xlink:title=" ">
<path fill="none" stroke="#63b8ff" d="M214.56,-111.59C212.19,-104.86 208.91,-95.53 205.96,-87.15"/>
<polygon fill="#63b8ff" stroke="#63b8ff" points="209.26,-86 202.64,-77.73 202.66,-88.32 209.26,-86"/>
</a>
</g>
</g>
<!-- Node9&#45;&gt;Node2 -->
<g id="edge12_Node000009_Node000002" class="edge">
<title>Node9&#45;&gt;Node2</title>
<g id="a_edge12_Node000009_Node000002"><a xlink:title=" ">
<path fill="none" stroke="#63b8ff" d="M348.75,-111.66C358.79,-98.56 373.62,-74.28 362.87,-56 354.53,-41.83 339.94,-31.8 325.42,-24.87"/>
<polygon fill="#63b8ff" stroke="#63b8ff" points="326.91,-21.7 316.34,-20.95 324.14,-28.13 326.91,-21.7"/>
</a>
</g>
</g>
<!-- Node9&#45;&gt;Node7 -->
<g id="edge13_Node000009_Node000007" class="edge">
<title>Node9&#45;&gt;Node7</title>
<g id="a_edge13_Node000009_Node000007"><a xlink:title=" ">
<path fill="none" stroke="#63b8ff" d="M339.3,-111.59C338.19,-104.93 336.66,-95.75 335.28,-87.44"/>
<polygon fill="#63b8ff" stroke="#63b8ff" points="338.76,-87.08 333.67,-77.79 331.86,-88.23 338.76,-87.08"/>
</a>
</g>
</g>
<!-- Node10&#45;&gt;Node2 -->
<g id="edge15_Node000010_Node000002" class="edge">
<title>Node10&#45;&gt;Node2</title>
<g id="a_edge15_Node000010_Node000002"><a xlink:title=" ">
<path fill="none" stroke="#63b8ff" d="M43.25,-111.6C20.74,-99.03 -12.15,-76.01 4.87,-56 19.15,-39.21 151.65,-23.67 228.1,-16.01"/>
<polygon fill="#63b8ff" stroke="#63b8ff" points="228.3,-19.5 237.9,-15.04 227.61,-12.54 228.3,-19.5"/>
</a>
</g>
</g>
<!-- Node10&#45;&gt;Node4 -->
<g id="edge16_Node000010_Node000004" class="edge">
<title>Node10&#45;&gt;Node4</title>
<g id="a_edge16_Node000010_Node000004"><a xlink:title=" ">
<path fill="none" stroke="#63b8ff" d="M63.26,-111.59C64.25,-104.93 65.61,-95.75 66.84,-87.44"/>
<polygon fill="#63b8ff" stroke="#63b8ff" points="70.27,-88.2 68.27,-77.8 63.34,-87.17 70.27,-88.2"/>
</a>
</g>
</g>
</g>
</svg>

<g id="navigator" transform="translate(0 0)" fill="#404254">
  <rect fill="#f2f5e9" fill-opacity="0.5" stroke="#606060" stroke-width=".5" x="0" y="0" width="60" height="60"/>
  <use id="zoomplus" xlink:href="#zoomPlus" x="17" y="9" onmousedown="handleZoom(evt,'in')"/>
  <use id="zoomminus" xlink:href="#zoomMin" x="42" y="9" onmousedown="handleZoom(evt,'out')"/>
  <use id="reset" xlink:href="#resetDef" x="30" y="36" onmousedown="handleReset()"/>
   <use id="arrowup" xlink:href="#arrowUp" x="0" y="0" onmousedown="handlePan(0,-1)"/>
  <use id="arrowright" xlink:href="#arrowRight" x="0" y="0" onmousedown="handlePan(1,0)"/>
  <use id="arrowdown" xlink:href="#arrowDown" x="0" y="0" onmousedown="handlePan(0,1)"/>
  <use id="arrowleft" xlink:href="#arrowLeft" x="0" y="0" onmousedown="handlePan(-1,0)"/>
</g>
<svg viewBox="0 0 15 15" width="100%" height="30px" preserveAspectRatio="xMaxYMin meet">
 <g id="arrow_out" transform="scale(0.3 0.3)">
  <a xlink:href="_g_e_rendering_context_8h__incl_org.svg" target="_base">
   <rect id="button" ry="5" rx="5" y="6" x="6" height="38" width="38"
        fill="#f2f5e9" fill-opacity="0.5" stroke="#606060" stroke-width="1.0"/>
   <path id="arrow"
     d="M 11.500037,31.436501 C 11.940474,20.09759 22.043105,11.32322 32.158766,21.979434 L 37.068811,17.246167 C 37.068811,17.246167 37.088388,32 37.088388,32 L 22.160133,31.978069 C 22.160133,31.978069 26.997745,27.140456 26.997745,27.140456 C 18.528582,18.264221 13.291696,25.230495 11.500037,31.436501 z"
     style="fill:#404040;"/>
  </a>
 </g>
</svg>

<style type='text/css'>
<![CDATA[
[data-mouse-over-selected='false'] { opacity: 0.7; }
[data-mouse-over-selected='true']  { opacity: 1.0; }
]]>
</style>
<script type="application/ecmascript"><![CDATA[
document.addEventListener('DOMContentLoaded', (event) => {
  highlightEdges();
  highlightAdjacentNodes();
});
]]></script>
</svg>
