<?xml version="1.0" encoding="UTF-8" standalone="no"?>
<!DOCTYPE svg PUBLIC "-//W3C//DTD SVG 1.1//EN"
 "http://www.w3.org/Graphics/SVG/1.1/DTD/svg11.dtd">
<!-- Generated by graphviz version 14.1.2 (20260124.0452)
 -->
<!-- Title: MVPVulkan/GETransform.h Pages: 1 -->
<!--zoomable 420 -->

<svg id="main" version="1.1" xmlns="http://www.w3.org/2000/svg" xmlns:xlink="http://www.w3.org/1999/xlink" xml:space="preserve" onload="init(evt)">

<style type="text/css"><![CDATA[
.node, .edge {opacity: 0.7;}
.node.selected, .edge.selected {opacity: 1;}
.edge:hover path { stroke: red; }
.edge:hover polygon { stroke: red; fill: red; }
]]></style>

<defs>
  <circle id="rim" cx="0" cy="0" r="7"/>
  <circle id="rim2" cx="0" cy="0" r="3.5"/>
  <g id="zoomPlus">
    <use xlink:href="#rim" fill="#404040"><set attributeName="fill" to="#808080" begin="zoomplus.mouseover" end="zoomplus.mouseout"/></use>
    <path d="M-4,0h8M0,-4v8" fill="none" stroke="white" stroke-width="1.5" pointer-events="none"/>
  </g>
  <g id="zoomMin">
    <use xlink:href="#rim" fill="#404040"><set attributeName="fill" to="#808080" begin="zoomminus.mouseover" end="zoomminus.mouseout"/></use>
    <path d="M-4,0h8" fill="none" stroke="white" stroke-width="1.5" pointer-events="none"/>
  </g>
  <g id="arrowUp" transform="translate(30 24)">
    <use xlink:href="#rim"/>
    <path pointer-events="none" fill="none" stroke="white" stroke-width="1.5" d="M0,-3.0v7 M-2.5,-0.5L0,-3.0L2.5,-0.5"/>
  </g>
  <g id="arrowRight" transform="rotate(90) translate(36 -43)">
    <use xlink:href="#rim"/>
    <path pointer-events="none" fill="none" stroke="white" stroke-width="1.5" d="M0,-3.0v7 M-2.5,-0.5L0,-3.0L2.5,-0.5"/>
  </g>
  <g id="arrowDown" transform="rotate(180) translate(-30 -48)">
    <use xlink:href="#rim"/>
    <path pointer-events="none" fill="none" stroke="white" stroke-width="1.5" d="M0,-3.0v7 M-2.5,-0.5L0,-3.0L2.5,-0.5"/>
  </g>
  <g id="arrowLeft" transform="rotate(270) translate(-36 17)">
    <use xlink:href="#rim"/>
    <path pointer-events="none" fill="none" stroke="white" stroke-width="1.5" d="M0,-3.0v7 M-2.5,-0.5L0,-3.0L2.5,-0.5"/>
  </g>
  <g id="resetDef">
    <use xlink:href="#rim2" fill="#404040"><set attributeName="fill" to="#808080" begin="reset.mouseover" end="reset.mouseout"/></use>
  </g>
</defs>
<script type="application/ecmascript">
var viewWidth = 925;
var viewHeight = 420;
var sectionId = 'dynsection-1';
</script>
<script type="application/ecmascript" xlink:href="svg.min.js"/>
<svg id="graph" class="graph">
<g id="viewport">
<title>MVPVulkan/GETransform.h</title>
<!-- Node1 -->
<g id="Node000001" class="node">
<title>Node1</title>
<g id="a_Node000001"><a xlink:title="Estructura para transformaciones usadas por las figuras.">
<polygon fill="#999999" stroke="#666666" points="416.38,-412 279.62,-412 279.62,-392 416.38,-392 416.38,-412"/>
<text xml:space="preserve" text-anchor="middle" x="348" y="-398.5" font-family="Helvetica,sans-Serif" font-size="10.00">MVPVulkan/GETransform.h</text>
</a>
</g>
</g>
<!-- Node2 -->
<g id="Node000002" class="node">
<title>Node2</title>
<g id="a_Node000002"><a xlink:href="_g_e_figure_8cpp.html" target="_top" xlink:title="Implementación de la clase GEFigure.">
<polygon fill="white" stroke="#666666" points="130,-300 0,-300 0,-280 130,-280 130,-300"/>
<text xml:space="preserve" text-anchor="middle" x="65" y="-286.5" font-family="Helvetica,sans-Serif" font-size="10.00">MVPVulkan/GEFigure.cpp</text>
</a>
</g>
</g>
<!-- Node1&#45;&gt;Node2 -->
<g id="edge1_Node000001_Node000002" class="edge">
<title>Node1&#45;&gt;Node2</title>
<g id="a_edge1_Node000001_Node000002"><a xlink:title=" ">
<path fill="none" stroke="#63b8ff" d="M313.37,-387.54C255.19,-364.92 139.24,-319.86 89.07,-300.35"/>
<polygon fill="#63b8ff" stroke="#63b8ff" points="311.87,-390.71 322.46,-391.07 314.41,-384.19 311.87,-390.71"/>
</a>
</g>
</g>
<!-- Node3 -->
<g id="Node000003" class="node">
<title>Node3</title>
<g id="a_Node000003"><a xlink:href="_g_e_figure_8h.html" target="_top" xlink:title="Declaración de la clase GEFigure para figuras de malla.">
<polygon fill="white" stroke="#666666" points="407.75,-356 288.25,-356 288.25,-336 407.75,-336 407.75,-356"/>
<text xml:space="preserve" text-anchor="middle" x="348" y="-342.5" font-family="Helvetica,sans-Serif" font-size="10.00">MVPVulkan/GEFigure.h</text>
</a>
</g>
</g>
<!-- Node1&#45;&gt;Node3 -->
<g id="edge2_Node000001_Node000003" class="edge">
<title>Node1&#45;&gt;Node3</title>
<g id="a_edge2_Node000001_Node000003"><a xlink:title=" ">
<path fill="none" stroke="#63b8ff" d="M348,-380.13C348,-371.9 348,-362.85 348,-356.3"/>
<polygon fill="#63b8ff" stroke="#63b8ff" points="344.5,-380.08 348,-390.08 351.5,-380.08 344.5,-380.08"/>
</a>
</g>
</g>
<!-- Node13 -->
<g id="Node000013" class="node">
<title>Node13</title>
<g id="a_Node000013"><a xlink:href="_g_e_scene_8cpp.html" target="_top" xlink:title="Escena con animación de tiro libre de baloncesto.">
<polygon fill="white" stroke="#666666" points="773.38,-76 642.62,-76 642.62,-56 773.38,-56 773.38,-76"/>
<text xml:space="preserve" text-anchor="middle" x="708" y="-62.5" font-family="Helvetica,sans-Serif" font-size="10.00">MVPVulkan/GEScene.cpp</text>
</a>
</g>
</g>
<!-- Node1&#45;&gt;Node13 -->
<g id="edge26_Node000001_Node000013" class="edge">
<title>Node1&#45;&gt;Node13</title>
<g id="a_edge26_Node000001_Node000013"><a xlink:title=" ">
<path fill="none" stroke="#63b8ff" d="M428.06,-401.95C584.81,-401.65 917,-389.4 917,-291 917,-291 917,-291 917,-177 917,-111.29 835.1,-84.74 773.84,-74.08"/>
<polygon fill="#63b8ff" stroke="#63b8ff" points="428.15,-398.45 418.15,-401.95 428.15,-405.45 428.15,-398.45"/>
</a>
</g>
</g>
<!-- Node3&#45;&gt;Node2 -->
<g id="edge17_Node000003_Node000002" class="edge">
<title>Node3&#45;&gt;Node2</title>
<g id="a_edge17_Node000003_Node000002"><a xlink:title=" ">
<path fill="none" stroke="#63b8ff" d="M287.07,-333.37C235.53,-323.54 162.59,-309.62 114.56,-300.46"/>
<polygon fill="#63b8ff" stroke="#63b8ff" points="286.42,-336.81 296.89,-335.25 287.73,-329.94 286.42,-336.81"/>
</a>
</g>
</g>
<!-- Node4 -->
<g id="Node000004" class="node">
<title>Node4</title>
<g id="a_Node000004"><a xlink:href="_g_e_cylinder_8h.html" target="_top" xlink:title="Declaración de la clase GECylinder.">
<polygon fill="white" stroke="#666666" points="606.25,-300 477.75,-300 477.75,-280 606.25,-280 606.25,-300"/>
<text xml:space="preserve" text-anchor="middle" x="542" y="-286.5" font-family="Helvetica,sans-Serif" font-size="10.00">MVPVulkan/GECylinder.h</text>
</a>
</g>
</g>
<!-- Node3&#45;&gt;Node4 -->
<g id="edge3_Node000003_Node000004" class="edge">
<title>Node3&#45;&gt;Node4</title>
<g id="a_edge3_Node000003_Node000004"><a xlink:title=" ">
<path fill="none" stroke="#63b8ff" d="M392.69,-332.56C427.79,-322.79 475.92,-309.39 507.94,-300.48"/>
<polygon fill="#63b8ff" stroke="#63b8ff" points="391.95,-329.13 383.25,-335.19 393.82,-335.88 391.95,-329.13"/>
</a>
</g>
</g>
<!-- Node9 -->
<g id="Node000009" class="node">
<title>Node9</title>
<g id="a_Node000009"><a xlink:href="_g_e_scene_8h.html" target="_top" xlink:title="Declaración de la clase GEScene que contiene la escena con esqueleto animado.">
<polygon fill="white" stroke="#666666" points="300.12,-132 179.88,-132 179.88,-112 300.12,-112 300.12,-132"/>
<text xml:space="preserve" text-anchor="middle" x="240" y="-118.5" font-family="Helvetica,sans-Serif" font-size="10.00">MVPVulkan/GEScene.h</text>
</a>
</g>
</g>
<!-- Node3&#45;&gt;Node9 -->
<g id="edge21_Node000003_Node000009" class="edge">
<title>Node3&#45;&gt;Node9</title>
<g id="a_edge21_Node000003_Node000009"><a xlink:title=" ">
<path fill="none" stroke="#63b8ff" d="M301.73,-331.99C260.79,-317.74 203.54,-290.49 177,-244 153.64,-203.07 204.66,-152.66 228.55,-132.24"/>
<polygon fill="#63b8ff" stroke="#63b8ff" points="300.52,-335.27 311.11,-335.11 302.73,-328.63 300.52,-335.27"/>
</a>
</g>
</g>
<!-- Node16 -->
<g id="Node000016" class="node">
<title>Node16</title>
<g id="a_Node000016"><a xlink:href="_g_e_ground_8h.html" target="_top" xlink:title="Declaración de la clase GEGround para terreno rectangular.">
<polygon fill="white" stroke="#666666" points="846,-300 722,-300 722,-280 846,-280 846,-300"/>
<text xml:space="preserve" text-anchor="middle" x="784" y="-286.5" font-family="Helvetica,sans-Serif" font-size="10.00">MVPVulkan/GEGround.h</text>
</a>
</g>
</g>
<!-- Node3&#45;&gt;Node16 -->
<g id="edge18_Node000003_Node000016" class="edge">
<title>Node3&#45;&gt;Node16</title>
<g id="a_edge18_Node000003_Node000016"><a xlink:title=" ">
<path fill="none" stroke="#63b8ff" d="M419.4,-336.16C503.46,-325.75 641.71,-308.62 721.63,-298.72"/>
<polygon fill="#63b8ff" stroke="#63b8ff" points="419.16,-332.66 409.67,-337.36 420.02,-339.61 419.16,-332.66"/>
</a>
</g>
</g>
<!-- Node18 -->
<g id="Node000018" class="node">
<title>Node18</title>
<g id="a_Node000018"><a xlink:href="_g_e_sphere_8h.html" target="_top" xlink:title="Declaración de la clase GESphere que describe una esfera.">
<polygon fill="white" stroke="#666666" points="409.62,-300 286.38,-300 286.38,-280 409.62,-280 409.62,-300"/>
<text xml:space="preserve" text-anchor="middle" x="348" y="-286.5" font-family="Helvetica,sans-Serif" font-size="10.00">MVPVulkan/GESphere.h</text>
</a>
</g>
</g>
<!-- Node3&#45;&gt;Node18 -->
<g id="edge22_Node000003_Node000018" class="edge">
<title>Node3&#45;&gt;Node18</title>
<g id="a_edge22_Node000003_Node000018"><a xlink:title=" ">
<path fill="none" stroke="#63b8ff" d="M348,-324.13C348,-315.9 348,-306.85 348,-300.3"/>
<polygon fill="#63b8ff" stroke="#63b8ff" points="344.5,-324.08 348,-334.08 351.5,-324.08 344.5,-324.08"/>
</a>
</g>
</g>
<!-- Node5 -->
<g id="Node000005" class="node">
<title>Node5</title>
<g id="a_Node000005"><a xlink:href="_g_e_balljoint_8h.html" target="_top" xlink:title="Declaración de la clase GEBalljoint para articulaciones jerárquicas.">
<polygon fill="white" stroke="#666666" points="503.5,-244 376.5,-244 376.5,-224 503.5,-224 503.5,-244"/>
<text xml:space="preserve" text-anchor="middle" x="440" y="-230.5" font-family="Helvetica,sans-Serif" font-size="10.00">MVPVulkan/GEBalljoint.h</text>
</a>
</g>
</g>
<!-- Node4&#45;&gt;Node5 -->
<g id="edge4_Node000004_Node000005" class="edge">
<title>Node4&#45;&gt;Node5</title>
<g id="a_edge4_Node000004_Node000005"><a xlink:title=" ">
<path fill="none" stroke="#63b8ff" d="M514.07,-274.21C496.16,-264.73 473.43,-252.7 457.91,-244.48"/>
<polygon fill="#63b8ff" stroke="#63b8ff" points="512.42,-277.3 522.9,-278.89 515.7,-271.11 512.42,-277.3"/>
</a>
</g>
</g>
<!-- Node4&#45;&gt;Node13 -->
<g id="edge16_Node000004_Node000013" class="edge">
<title>Node4&#45;&gt;Node13</title>
<g id="a_edge16_Node000004_Node000013"><a xlink:title=" ">
<path fill="none" stroke="#63b8ff" d="M613.26,-276.31C633.76,-269.64 654.7,-259.47 670,-244 717.08,-196.4 712.12,-105.48 709.13,-76.28"/>
<polygon fill="#63b8ff" stroke="#63b8ff" points="612.32,-272.94 603.74,-279.15 614.32,-279.65 612.32,-272.94"/>
</a>
</g>
</g>
<!-- Node15 -->
<g id="Node000015" class="node">
<title>Node15</title>
<g id="a_Node000015"><a xlink:href="_g_e_cylinder_8cpp.html" target="_top" xlink:title="Implementación de la clase GECylinder.">
<polygon fill="white" stroke="#666666" points="660.5,-244 521.5,-244 521.5,-224 660.5,-224 660.5,-244"/>
<text xml:space="preserve" text-anchor="middle" x="591" y="-230.5" font-family="Helvetica,sans-Serif" font-size="10.00">MVPVulkan/GECylinder.cpp</text>
</a>
</g>
</g>
<!-- Node4&#45;&gt;Node15 -->
<g id="edge15_Node000004_Node000015" class="edge">
<title>Node4&#45;&gt;Node15</title>
<g id="a_edge15_Node000004_Node000015"><a xlink:title=" ">
<path fill="none" stroke="#63b8ff" d="M558.07,-271.29C566.25,-262.28 575.85,-251.7 582.56,-244.3"/>
<polygon fill="#63b8ff" stroke="#63b8ff" points="555.68,-268.72 551.55,-278.47 560.86,-273.42 555.68,-268.72"/>
</a>
</g>
</g>
<!-- Node6 -->
<g id="Node000006" class="node">
<title>Node6</title>
<g id="a_Node000006"><a xlink:href="_g_e_animation_8cpp.html" target="_top" xlink:title="Implementación del sistema de animación por keyframes.">
<polygon fill="white" stroke="#666666" points="662.25,-132 515.75,-132 515.75,-112 662.25,-112 662.25,-132"/>
<text xml:space="preserve" text-anchor="middle" x="589" y="-118.5" font-family="Helvetica,sans-Serif" font-size="10.00">MVPVulkan/GEAnimation.cpp</text>
</a>
</g>
</g>
<!-- Node5&#45;&gt;Node6 -->
<g id="edge5_Node000005_Node000006" class="edge">
<title>Node5&#45;&gt;Node6</title>
<g id="a_edge5_Node000005_Node000006"><a xlink:title=" ">
<path fill="none" stroke="#63b8ff" d="M461.59,-217.06C493.14,-193.77 550.84,-151.17 576.33,-132.35"/>
<polygon fill="#63b8ff" stroke="#63b8ff" points="459.89,-213.97 453.92,-222.72 464.05,-219.6 459.89,-213.97"/>
</a>
</g>
</g>
<!-- Node7 -->
<g id="Node000007" class="node">
<title>Node7</title>
<g id="a_Node000007"><a xlink:href="_g_e_balljoint_8cpp.html" target="_top" xlink:title="Implementación de la clase GEBalljoint con soporte jerárquico.">
<polygon fill="white" stroke="#666666" points="679.75,-188 542.25,-188 542.25,-168 679.75,-168 679.75,-188"/>
<text xml:space="preserve" text-anchor="middle" x="611" y="-174.5" font-family="Helvetica,sans-Serif" font-size="10.00">MVPVulkan/GEBalljoint.cpp</text>
</a>
</g>
</g>
<!-- Node5&#45;&gt;Node7 -->
<g id="edge6_Node000005_Node000007" class="edge">
<title>Node5&#45;&gt;Node7</title>
<g id="a_edge6_Node000005_Node000007"><a xlink:title=" ">
<path fill="none" stroke="#63b8ff" d="M480.6,-220.18C511.43,-210.44 553.12,-197.28 580.98,-188.48"/>
<polygon fill="#63b8ff" stroke="#63b8ff" points="479.71,-216.79 471.23,-223.14 481.82,-223.46 479.71,-216.79"/>
</a>
</g>
</g>
<!-- Node8 -->
<g id="Node000008" class="node">
<title>Node8</title>
<g id="a_Node000008"><a xlink:href="_g_e_skeleton_8h.html" target="_top" xlink:title="Declaración de la clase GESkeleton que representa un esqueleto con articulaciones jerárquicas.">
<polygon fill="white" stroke="#666666" points="486.38,-188 355.62,-188 355.62,-168 486.38,-168 486.38,-188"/>
<text xml:space="preserve" text-anchor="middle" x="421" y="-174.5" font-family="Helvetica,sans-Serif" font-size="10.00">MVPVulkan/GESkeleton.h</text>
</a>
</g>
</g>
<!-- Node5&#45;&gt;Node8 -->
<g id="edge7_Node000005_Node000008" class="edge">
<title>Node5&#45;&gt;Node8</title>
<g id="a_edge7_Node000005_Node000008"><a xlink:title=" ">
<path fill="none" stroke="#63b8ff" d="M432.96,-213C429.99,-204.54 426.66,-195.08 424.27,-188.3"/>
<polygon fill="#63b8ff" stroke="#63b8ff" points="429.57,-213.89 436.19,-222.17 436.17,-211.57 429.57,-213.89"/>
</a>
</g>
</g>
<!-- Node8&#45;&gt;Node6 -->
<g id="edge8_Node000008_Node000006" class="edge">
<title>Node8&#45;&gt;Node6</title>
<g id="a_edge8_Node000008_Node000006"><a xlink:title=" ">
<path fill="none" stroke="#63b8ff" d="M460.89,-164.18C491.18,-154.44 532.14,-141.28 559.51,-132.48"/>
<polygon fill="#63b8ff" stroke="#63b8ff" points="460.15,-160.74 451.7,-167.13 462.3,-167.4 460.15,-160.74"/>
</a>
</g>
</g>
<!-- Node8&#45;&gt;Node9 -->
<g id="edge9_Node000008_Node000009" class="edge">
<title>Node8&#45;&gt;Node9</title>
<g id="a_edge9_Node000008_Node000009"><a xlink:title=" ">
<path fill="none" stroke="#63b8ff" d="M378.45,-164.31C345.78,-154.56 301.39,-141.32 271.77,-132.48"/>
<polygon fill="#63b8ff" stroke="#63b8ff" points="377.44,-167.66 388.02,-167.16 379.44,-160.95 377.44,-167.66"/>
</a>
</g>
</g>
<!-- Node14 -->
<g id="Node000014" class="node">
<title>Node14</title>
<g id="a_Node000014"><a xlink:href="_g_e_skeleton_8cpp.html" target="_top" xlink:title="Implementación de GESkeleton con carga desde archivo .skel.">
<polygon fill="white" stroke="#666666" points="497.62,-132 356.38,-132 356.38,-112 497.62,-112 497.62,-132"/>
<text xml:space="preserve" text-anchor="middle" x="427" y="-118.5" font-family="Helvetica,sans-Serif" font-size="10.00">MVPVulkan/GESkeleton.cpp</text>
</a>
</g>
</g>
<!-- Node8&#45;&gt;Node14 -->
<g id="edge14_Node000008_Node000014" class="edge">
<title>Node8&#45;&gt;Node14</title>
<g id="a_edge14_Node000008_Node000014"><a xlink:title=" ">
<path fill="none" stroke="#63b8ff" d="M423.29,-156.43C424.21,-148.11 425.23,-138.93 425.97,-132.3"/>
<polygon fill="#63b8ff" stroke="#63b8ff" points="419.84,-155.76 422.21,-166.09 426.8,-156.54 419.84,-155.76"/>
</a>
</g>
</g>
<!-- Node10 -->
<g id="Node000010" class="node">
<title>Node10</title>
<g id="a_Node000010"><a xlink:href="_g_e_application_8h.html" target="_top" xlink:title="Declaración de la clase GEApplication que crea y lanza la aplicación gráfica.">
<polygon fill="white" stroke="#666666" points="310.25,-76 169.75,-76 169.75,-56 310.25,-56 310.25,-76"/>
<text xml:space="preserve" text-anchor="middle" x="240" y="-62.5" font-family="Helvetica,sans-Serif" font-size="10.00">MVPVulkan/GEApplication.h</text>
</a>
</g>
</g>
<!-- Node9&#45;&gt;Node10 -->
<g id="edge10_Node000009_Node000010" class="edge">
<title>Node9&#45;&gt;Node10</title>
<g id="a_edge10_Node000009_Node000010"><a xlink:title=" ">
<path fill="none" stroke="#63b8ff" d="M240,-100.13C240,-91.9 240,-82.85 240,-76.3"/>
<polygon fill="#63b8ff" stroke="#63b8ff" points="236.5,-100.08 240,-110.08 243.5,-100.08 236.5,-100.08"/>
</a>
</g>
</g>
<!-- Node9&#45;&gt;Node13 -->
<g id="edge13_Node000009_Node000013" class="edge">
<title>Node9&#45;&gt;Node13</title>
<g id="a_edge13_Node000009_Node000013"><a xlink:title=" ">
<path fill="none" stroke="#63b8ff" d="M311.94,-112.24C312.63,-112.16 313.32,-112.08 314,-112 429.55,-98.37 564.25,-83.13 642.45,-74.34"/>
<polygon fill="#63b8ff" stroke="#63b8ff" points="311.59,-108.76 302.07,-113.42 312.42,-115.71 311.59,-108.76"/>
</a>
</g>
</g>
<!-- Node11 -->
<g id="Node000011" class="node">
<title>Node11</title>
<g id="a_Node000011"><a xlink:href="_g_e_application_8cpp.html" target="_top" xlink:title="Implementación de la clase GEApplication.">
<polygon fill="white" stroke="#666666" points="241.5,-20 90.5,-20 90.5,0 241.5,0 241.5,-20"/>
<text xml:space="preserve" text-anchor="middle" x="166" y="-6.5" font-family="Helvetica,sans-Serif" font-size="10.00">MVPVulkan/GEApplication.cpp</text>
</a>
</g>
</g>
<!-- Node10&#45;&gt;Node11 -->
<g id="edge11_Node000010_Node000011" class="edge">
<title>Node10&#45;&gt;Node11</title>
<g id="a_edge11_Node000010_Node000011"><a xlink:title=" ">
<path fill="none" stroke="#63b8ff" d="M218.01,-48.95C205.21,-39.61 189.52,-28.16 178.74,-20.3"/>
<polygon fill="#63b8ff" stroke="#63b8ff" points="215.75,-51.63 225.89,-54.7 219.87,-45.98 215.75,-51.63"/>
</a>
</g>
</g>
<!-- Node12 -->
<g id="Node000012" class="node">
<title>Node12</title>
<g id="a_Node000012"><a xlink:href="main_8cpp.html" target="_top" xlink:title="Punto de entrada principal de la aplicación MVPVulkan.">
<polygon fill="white" stroke="#666666" points="368.88,-20 259.12,-20 259.12,0 368.88,0 368.88,-20"/>
<text xml:space="preserve" text-anchor="middle" x="314" y="-6.5" font-family="Helvetica,sans-Serif" font-size="10.00">MVPVulkan/main.cpp</text>
</a>
</g>
</g>
<!-- Node10&#45;&gt;Node12 -->
<g id="edge12_Node000010_Node000012" class="edge">
<title>Node10&#45;&gt;Node12</title>
<g id="a_edge12_Node000010_Node000012"><a xlink:title=" ">
<path fill="none" stroke="#63b8ff" d="M261.99,-48.95C274.79,-39.61 290.48,-28.16 301.26,-20.3"/>
<polygon fill="#63b8ff" stroke="#63b8ff" points="260.13,-45.98 254.11,-54.7 264.25,-51.63 260.13,-45.98"/>
</a>
</g>
</g>
<!-- Node16&#45;&gt;Node13 -->
<g id="edge20_Node000016_Node000013" class="edge">
<title>Node16&#45;&gt;Node13</title>
<g id="a_edge20_Node000016_Node000013"><a xlink:title=" ">
<path fill="none" stroke="#63b8ff" d="M824.37,-274.82C838.19,-267.8 852.13,-257.8 860,-244 864.4,-236.28 863.34,-232.24 860,-224 831.67,-154.02 755.54,-97.97 723.04,-76.48"/>
<polygon fill="#63b8ff" stroke="#63b8ff" points="822.94,-271.62 815.31,-278.98 825.86,-277.99 822.94,-271.62"/>
</a>
</g>
</g>
<!-- Node17 -->
<g id="Node000017" class="node">
<title>Node17</title>
<g id="a_Node000017"><a xlink:href="_g_e_ground_8cpp.html" target="_top" xlink:title="Implementación de la clase GEGround.">
<polygon fill="white" stroke="#666666" points="851.25,-244 716.75,-244 716.75,-224 851.25,-224 851.25,-244"/>
<text xml:space="preserve" text-anchor="middle" x="784" y="-230.5" font-family="Helvetica,sans-Serif" font-size="10.00">MVPVulkan/GEGround.cpp</text>
</a>
</g>
</g>
<!-- Node16&#45;&gt;Node17 -->
<g id="edge19_Node000016_Node000017" class="edge">
<title>Node16&#45;&gt;Node17</title>
<g id="a_edge19_Node000016_Node000017"><a xlink:title=" ">
<path fill="none" stroke="#63b8ff" d="M784,-268.13C784,-259.9 784,-250.85 784,-244.3"/>
<polygon fill="#63b8ff" stroke="#63b8ff" points="780.5,-268.08 784,-278.08 787.5,-268.08 780.5,-268.08"/>
</a>
</g>
</g>
<!-- Node18&#45;&gt;Node5 -->
<g id="edge23_Node000018_Node000005" class="edge">
<title>Node18&#45;&gt;Node5</title>
<g id="a_edge23_Node000018_Node000005"><a xlink:title=" ">
<path fill="none" stroke="#63b8ff" d="M373.88,-273.81C389.93,-264.39 410.04,-252.58 423.85,-244.48"/>
<polygon fill="#63b8ff" stroke="#63b8ff" points="372.18,-270.75 365.33,-278.83 375.73,-276.78 372.18,-270.75"/>
</a>
</g>
</g>
<!-- Node18&#45;&gt;Node13 -->
<g id="edge24_Node000018_Node000013" class="edge">
<title>Node18&#45;&gt;Node13</title>
<g id="a_edge24_Node000018_Node000013"><a xlink:title=" ">
<path fill="none" stroke="#63b8ff" d="M344.64,-268.53C338.32,-226.95 327,-134.65 347,-112 366.18,-90.28 543.34,-76.58 642.15,-70.56"/>
<polygon fill="#63b8ff" stroke="#63b8ff" points="341.15,-268.84 346.16,-278.17 348.06,-267.75 341.15,-268.84"/>
</a>
</g>
</g>
<!-- Node19 -->
<g id="Node000019" class="node">
<title>Node19</title>
<g id="a_Node000019"><a xlink:href="_g_e_sphere_8cpp.html" target="_top" xlink:title="Implementación de la clase GESphere.">
<polygon fill="white" stroke="#666666" points="319.88,-244 186.12,-244 186.12,-224 319.88,-224 319.88,-244"/>
<text xml:space="preserve" text-anchor="middle" x="253" y="-230.5" font-family="Helvetica,sans-Serif" font-size="10.00">MVPVulkan/GESphere.cpp</text>
</a>
</g>
</g>
<!-- Node18&#45;&gt;Node19 -->
<g id="edge25_Node000018_Node000019" class="edge">
<title>Node18&#45;&gt;Node19</title>
<g id="a_edge25_Node000018_Node000019"><a xlink:title=" ">
<path fill="none" stroke="#63b8ff" d="M321.75,-274.08C305.1,-264.62 284.07,-252.66 269.68,-244.48"/>
<polygon fill="#63b8ff" stroke="#63b8ff" points="319.71,-276.95 330.14,-278.85 323.17,-270.86 319.71,-276.95"/>
</a>
</g>
</g>
</g>
</svg>

<g id="navigator" transform="translate(0 0)" fill="#404254">
  <rect fill="#f2f5e9" fill-opacity="0.5" stroke="#606060" stroke-width=".5" x="0" y="0" width="60" height="60"/>
  <use id="zoomplus" xlink:href="#zoomPlus" x="17" y="9" onmousedown="handleZoom(evt,'in')"/>
  <use id="zoomminus" xlink:href="#zoomMin" x="42" y="9" onmousedown="handleZoom(evt,'out')"/>
  <use id="reset" xlink:href="#resetDef" x="30" y="36" onmousedown="handleReset()"/>
   <use id="arrowup" xlink:href="#arrowUp" x="0" y="0" onmousedown="handlePan(0,-1)"/>
  <use id="arrowright" xlink:href="#arrowRight" x="0" y="0" onmousedown="handlePan(1,0)"/>
  <use id="arrowdown" xlink:href="#arrowDown" x="0" y="0" onmousedown="handlePan(0,1)"/>
  <use id="arrowleft" xlink:href="#arrowLeft" x="0" y="0" onmousedown="handlePan(-1,0)"/>
</g>
<svg viewBox="0 0 15 15" width="100%" height="30px" preserveAspectRatio="xMaxYMin meet">
 <g id="arrow_out" transform="scale(0.3 0.3)">
  <a xlink:href="_g_e_transform_8h__dep__incl_org.svg" target="_base">
   <rect id="button" ry="5" rx="5" y="6" x="6" height="38" width="38"
        fill="#f2f5e9" fill-opacity="0.5" stroke="#606060" stroke-width="1.0"/>
   <path id="arrow"
     d="M 11.500037,31.436501 C 11.940474,20.09759 22.043105,11.32322 32.158766,21.979434 L 37.068811,17.246167 C 37.068811,17.246167 37.088388,32 37.088388,32 L 22.160133,31.978069 C 22.160133,31.978069 26.997745,27.140456 26.997745,27.140456 C 18.528582,18.264221 13.291696,25.230495 11.500037,31.436501 z"
     style="fill:#404040;"/>
  </a>
 </g>
</svg>

<style type='text/css'>
<![CDATA[
[data-mouse-over-selected='false'] { opacity: 0.7; }
[data-mouse-over-selected='true']  { opacity: 1.0; }
]]>
</style>
<script type="application/ecmascript"><![CDATA[
document.addEventListener('DOMContentLoaded', (event) => {
  highlightEdges();
  highlightAdjacentNodes();
});
]]></script>
</svg>
