<?xml version="1.0" encoding="UTF-8" standalone="no"?>
<!DOCTYPE svg PUBLIC "-//W3C//DTD SVG 1.1//EN"
 "http://www.w3.org/Graphics/SVG/1.1/DTD/svg11.dtd">
<!-- Generated by graphviz version 14.1.2 (20260124.0452)
 -->
<!-- Title: MVPVulkan/GEFigure.cpp Pages: 1 -->
<svg width="1463pt" height="364pt"
 viewBox="0.00 0.00 1463.00 364.00" xmlns="http://www.w3.org/2000/svg" xmlns:xlink="http://www.w3.org/1999/xlink">
<g id="graph0" class="graph" transform="scale(1 1) rotate(0) translate(4 360)">
<title>MVPVulkan/GEFigure.cpp</title>
<!-- Node1 -->
<g id="Node000001" class="node">
<title>Node1</title>
<g id="a_Node000001"><a xlink:title="Implementación de la clase GEFigure.">
<polygon fill="#999999" stroke="#666666" points="1170.62,-356 1040.62,-356 1040.62,-336 1170.62,-336 1170.62,-356"/>
<text xml:space="preserve" text-anchor="middle" x="1105.62" y="-342.5" font-family="Helvetica,sans-Serif" font-size="10.00">MVPVulkan/GEFigure.cpp</text>
</a>
</g>
</g>
<!-- Node2 -->
<g id="Node000002" class="node">
<title>Node2</title>
<g id="a_Node000002"><a xlink:href="_g_e_figure_8h.html" target="_top" xlink:title="Declaración de la clase GEFigure para figuras de malla.">
<polygon fill="white" stroke="#666666" points="872.38,-300 806.88,-300 806.88,-280 872.38,-280 872.38,-300"/>
<text xml:space="preserve" text-anchor="middle" x="839.62" y="-286.5" font-family="Helvetica,sans-Serif" font-size="10.00">GEFigure.h</text>
</a>
</g>
</g>
<!-- Node1&#45;&gt;Node2 -->
<g id="edge1_Node000001_Node000002" class="edge">
<title>Node1&#45;&gt;Node2</title>
<g id="a_edge1_Node000001_Node000002"><a xlink:title=" ">
<path fill="none" stroke="#63b8ff" d="M1058.99,-335.53C1009.6,-325.51 932.24,-309.8 883.81,-299.97"/>
<polygon fill="#63b8ff" stroke="#63b8ff" points="884.73,-296.58 874.23,-298.02 883.33,-303.44 884.73,-296.58"/>
</a>
</g>
</g>
<!-- Node7 -->
<g id="Node000007" class="node">
<title>Node7</title>
<g id="a_Node000007"><a xlink:title=" ">
<polygon fill="#e0e0e0" stroke="#999999" points="984.38,-132 930.88,-132 930.88,-112 984.38,-112 984.38,-132"/>
<text xml:space="preserve" text-anchor="middle" x="957.62" y="-118.5" font-family="Helvetica,sans-Serif" font-size="10.00">iostream</text>
</a>
</g>
</g>
<!-- Node1&#45;&gt;Node7 -->
<g id="edge52_Node000001_Node000007" class="edge">
<title>Node1&#45;&gt;Node7</title>
<g id="a_edge52_Node000001_Node000007"><a xlink:title=" ">
<path fill="none" stroke="#63b8ff" d="M1091.25,-335.6C1067.84,-319.57 1021.49,-284.7 995.62,-244 975.32,-212.05 965.15,-168.43 960.66,-143.23"/>
<polygon fill="#63b8ff" stroke="#63b8ff" points="964.16,-142.98 959.09,-133.68 957.25,-144.11 964.16,-142.98"/>
</a>
</g>
</g>
<!-- Node13 -->
<g id="Node000013" class="node">
<title>Node13</title>
<g id="a_Node000013"><a xlink:href="_g_e_vertex_8h.html" target="_top" xlink:title="Declaración de la estructura GEVertex para vértices.">
<polygon fill="white" stroke="#666666" points="69.75,-244 3.5,-244 3.5,-224 69.75,-224 69.75,-244"/>
<text xml:space="preserve" text-anchor="middle" x="36.62" y="-230.5" font-family="Helvetica,sans-Serif" font-size="10.00">GEVertex.h</text>
</a>
</g>
</g>
<!-- Node1&#45;&gt;Node13 -->
<g id="edge46_Node000001_Node000013" class="edge">
<title>Node1&#45;&gt;Node13</title>
<g id="a_edge46_Node000001_Node000013"><a xlink:title=" ">
<path fill="none" stroke="#63b8ff" d="M1040.21,-340.6C877.77,-329.24 443.15,-296.08 83.62,-244 82.81,-243.88 81.98,-243.76 81.15,-243.63"/>
<polygon fill="#63b8ff" stroke="#63b8ff" points="82.13,-240.25 71.69,-242.06 80.98,-247.15 82.13,-240.25"/>
</a>
</g>
</g>
<!-- Node15 -->
<g id="Node000015" class="node">
<title>Node15</title>
<g id="a_Node000015"><a xlink:href="_g_e_transform_8h.html" target="_top" xlink:title="Estructura para transformaciones usadas por las figuras.">
<polygon fill="white" stroke="#666666" points="1087,-244 1004.25,-244 1004.25,-224 1087,-224 1087,-244"/>
<text xml:space="preserve" text-anchor="middle" x="1045.62" y="-230.5" font-family="Helvetica,sans-Serif" font-size="10.00">GETransform.h</text>
</a>
</g>
</g>
<!-- Node1&#45;&gt;Node15 -->
<g id="edge47_Node000001_Node000015" class="edge">
<title>Node1&#45;&gt;Node15</title>
<g id="a_edge47_Node000001_Node000015"><a xlink:title=" ">
<path fill="none" stroke="#63b8ff" d="M1100.51,-335.62C1090.72,-317.68 1069.17,-278.17 1056.18,-254.35"/>
<polygon fill="#63b8ff" stroke="#63b8ff" points="1059.31,-252.79 1051.45,-245.68 1053.17,-256.14 1059.31,-252.79"/>
</a>
</g>
</g>
<!-- Node16 -->
<g id="Node000016" class="node">
<title>Node16</title>
<g id="a_Node000016"><a xlink:title=" ">
<polygon fill="#e0e0e0" stroke="#999999" points="1176.25,-188 1107,-188 1107,-168 1176.25,-168 1176.25,-188"/>
<text xml:space="preserve" text-anchor="middle" x="1141.62" y="-174.5" font-family="Helvetica,sans-Serif" font-size="10.00">glm/glm.hpp</text>
</a>
</g>
</g>
<!-- Node1&#45;&gt;Node16 -->
<g id="edge50_Node000001_Node000016" class="edge">
<title>Node1&#45;&gt;Node16</title>
<g id="a_edge50_Node000001_Node000016"><a xlink:title=" ">
<path fill="none" stroke="#63b8ff" d="M1137.13,-335.51C1175.34,-322.09 1237.95,-293.52 1264.62,-244 1283.04,-209.82 1229.82,-192.93 1187.68,-185.1"/>
<polygon fill="#63b8ff" stroke="#63b8ff" points="1188.37,-181.67 1177.92,-183.43 1187.18,-188.57 1188.37,-181.67"/>
</a>
</g>
</g>
<!-- Node17 -->
<g id="Node000017" class="node">
<title>Node17</title>
<g id="a_Node000017"><a xlink:href="_g_e_material_8h.html" target="_top" xlink:title="Declaración de la estructura GEMaterial para materiales.">
<polygon fill="white" stroke="#666666" points="1178.12,-244 1105.12,-244 1105.12,-224 1178.12,-224 1178.12,-244"/>
<text xml:space="preserve" text-anchor="middle" x="1141.62" y="-230.5" font-family="Helvetica,sans-Serif" font-size="10.00">GEMaterial.h</text>
</a>
</g>
</g>
<!-- Node1&#45;&gt;Node17 -->
<g id="edge48_Node000001_Node000017" class="edge">
<title>Node1&#45;&gt;Node17</title>
<g id="a_edge48_Node000001_Node000017"><a xlink:title=" ">
<path fill="none" stroke="#63b8ff" d="M1108.69,-335.62C1114.51,-317.84 1127.26,-278.88 1135.08,-255"/>
<polygon fill="#63b8ff" stroke="#63b8ff" points="1138.31,-256.39 1138.09,-245.79 1131.66,-254.21 1138.31,-256.39"/>
</a>
</g>
</g>
<!-- Node18 -->
<g id="Node000018" class="node">
<title>Node18</title>
<g id="a_Node000018"><a xlink:href="_g_e_light_8h.html" target="_top" xlink:title="Declaración de la estructura GELight para iluminación.">
<polygon fill="white" stroke="#666666" points="1255.38,-244 1195.88,-244 1195.88,-224 1255.38,-224 1255.38,-244"/>
<text xml:space="preserve" text-anchor="middle" x="1225.62" y="-230.5" font-family="Helvetica,sans-Serif" font-size="10.00">GELight.h</text>
</a>
</g>
</g>
<!-- Node1&#45;&gt;Node18 -->
<g id="edge49_Node000001_Node000018" class="edge">
<title>Node1&#45;&gt;Node18</title>
<g id="a_edge49_Node000001_Node000018"><a xlink:title=" ">
<path fill="none" stroke="#63b8ff" d="M1115.86,-335.62C1136.05,-317.11 1181.28,-275.65 1206.94,-252.13"/>
<polygon fill="#63b8ff" stroke="#63b8ff" points="1209.3,-254.71 1214.3,-245.38 1204.57,-249.55 1209.3,-254.71"/>
</a>
</g>
</g>
<!-- Node23 -->
<g id="Node000023" class="node">
<title>Node23</title>
<g id="a_Node000023"><a xlink:title=" ">
<polygon fill="#e0e0e0" stroke="#999999" points="1455.38,-300 1311.88,-300 1311.88,-280 1455.38,-280 1455.38,-300"/>
<text xml:space="preserve" text-anchor="middle" x="1383.62" y="-286.5" font-family="Helvetica,sans-Serif" font-size="10.00">glm/gtc/matrix_transform.hpp</text>
</a>
</g>
</g>
<!-- Node1&#45;&gt;Node23 -->
<g id="edge51_Node000001_Node000023" class="edge">
<title>Node1&#45;&gt;Node23</title>
<g id="a_edge51_Node000001_Node000023"><a xlink:title=" ">
<path fill="none" stroke="#63b8ff" d="M1154.37,-335.53C1201.56,-326.36 1273.22,-312.45 1323.83,-302.61"/>
<polygon fill="#63b8ff" stroke="#63b8ff" points="1324.3,-306.09 1333.45,-300.75 1322.97,-299.22 1324.3,-306.09"/>
</a>
</g>
</g>
<!-- Node3 -->
<g id="Node000003" class="node">
<title>Node3</title>
<g id="a_Node000003"><a xlink:href="_g_e_graphics_context_8h.html" target="_top" xlink:title="Declaración de la clase GEGraphicsContext que almacena el contexto gráfico de Vulkan.">
<polygon fill="white" stroke="#666666" points="401.62,-76 289.62,-76 289.62,-56 401.62,-56 401.62,-76"/>
<text xml:space="preserve" text-anchor="middle" x="345.62" y="-62.5" font-family="Helvetica,sans-Serif" font-size="10.00">GEGraphicsContext.h</text>
</a>
</g>
</g>
<!-- Node2&#45;&gt;Node3 -->
<g id="edge2_Node000002_Node000003" class="edge">
<title>Node2&#45;&gt;Node3</title>
<g id="a_edge2_Node000002_Node000003"><a xlink:title=" ">
<path fill="none" stroke="#63b8ff" d="M806.4,-288.63C728.44,-286.31 530.03,-271.95 393.62,-188 364.7,-170.2 354.04,-163.61 341.62,-132 336.05,-117.8 337.46,-100.52 340.04,-87.35"/>
<polygon fill="#63b8ff" stroke="#63b8ff" points="343.43,-88.22 342.34,-77.68 336.62,-86.6 343.43,-88.22"/>
</a>
</g>
</g>
<!-- Node6 -->
<g id="Node000006" class="node">
<title>Node6</title>
<g id="a_Node000006"><a xlink:href="_g_e_rendering_context_8h.html" target="_top" xlink:title="Declaración de la clase GERenderingContext que describe un contexto de renderizado.">
<polygon fill="white" stroke="#666666" points="684.25,-188 567,-188 567,-168 684.25,-168 684.25,-188"/>
<text xml:space="preserve" text-anchor="middle" x="625.62" y="-174.5" font-family="Helvetica,sans-Serif" font-size="10.00">GERenderingContext.h</text>
</a>
</g>
</g>
<!-- Node2&#45;&gt;Node6 -->
<g id="edge5_Node000002_Node000006" class="edge">
<title>Node2&#45;&gt;Node6</title>
<g id="a_edge5_Node000002_Node000006"><a xlink:title=" ">
<path fill="none" stroke="#63b8ff" d="M821.38,-279.62C784.03,-260.42 698.62,-216.52 653.98,-193.58"/>
<polygon fill="#63b8ff" stroke="#63b8ff" points="655.66,-190.51 645.17,-189.05 652.46,-196.73 655.66,-190.51"/>
</a>
</g>
</g>
<!-- Node9 -->
<g id="Node000009" class="node">
<title>Node9</title>
<g id="a_Node000009"><a xlink:title=" ">
<polygon fill="#e0e0e0" stroke="#999999" points="808.12,-76 765.12,-76 765.12,-56 808.12,-56 808.12,-76"/>
<text xml:space="preserve" text-anchor="middle" x="786.62" y="-62.5" font-family="Helvetica,sans-Serif" font-size="10.00">vector</text>
</a>
</g>
</g>
<!-- Node2&#45;&gt;Node9 -->
<g id="edge45_Node000002_Node000009" class="edge">
<title>Node2&#45;&gt;Node9</title>
<g id="a_edge45_Node000002_Node000009"><a xlink:title=" ">
<path fill="none" stroke="#63b8ff" d="M859.44,-279.62C911.9,-253.58 1046.79,-177.96 993.62,-112 972.16,-85.37 872.6,-73.68 819.77,-69.28"/>
<polygon fill="#63b8ff" stroke="#63b8ff" points="820.08,-65.79 809.84,-68.5 819.54,-72.77 820.08,-65.79"/>
</a>
</g>
</g>
<!-- Node2&#45;&gt;Node13 -->
<g id="edge20_Node000002_Node000013" class="edge">
<title>Node2&#45;&gt;Node13</title>
<g id="a_edge20_Node000002_Node000013"><a xlink:title=" ">
<path fill="none" stroke="#63b8ff" d="M806.7,-288.56C701.14,-286.84 361.85,-278.77 83.62,-244 82.81,-243.9 81.98,-243.79 81.15,-243.68"/>
<polygon fill="#63b8ff" stroke="#63b8ff" points="82.09,-240.28 71.67,-242.2 81.01,-247.2 82.09,-240.28"/>
</a>
</g>
</g>
<!-- Node2&#45;&gt;Node15 -->
<g id="edge22_Node000002_Node000015" class="edge">
<title>Node2&#45;&gt;Node15</title>
<g id="a_edge22_Node000002_Node000015"><a xlink:title=" ">
<path fill="none" stroke="#63b8ff" d="M872.72,-280.32C906.78,-271.4 960.14,-257.41 998.58,-247.33"/>
<polygon fill="#63b8ff" stroke="#63b8ff" points="999.24,-250.78 1008.03,-244.86 997.47,-244.01 999.24,-250.78"/>
</a>
</g>
</g>
<!-- Node2&#45;&gt;Node16 -->
<g id="edge44_Node000002_Node000016" class="edge">
<title>Node2&#45;&gt;Node16</title>
<g id="a_edge44_Node000002_Node000016"><a xlink:title=" ">
<path fill="none" stroke="#63b8ff" d="M864.48,-279.57C887.49,-270.72 922.57,-256.96 952.62,-244 971.98,-235.65 975.95,-231.57 995.62,-224 1028.52,-211.35 1066.59,-199.71 1095.61,-191.44"/>
<polygon fill="#63b8ff" stroke="#63b8ff" points="1096.52,-194.82 1105.2,-188.74 1094.63,-188.08 1096.52,-194.82"/>
</a>
</g>
</g>
<!-- Node2&#45;&gt;Node17 -->
<g id="edge24_Node000002_Node000017" class="edge">
<title>Node2&#45;&gt;Node17</title>
<g id="a_edge24_Node000002_Node000017"><a xlink:title=" ">
<path fill="none" stroke="#63b8ff" d="M872.8,-283.38C919.59,-275.4 1007.94,-260.18 1093.72,-244.32"/>
<polygon fill="#63b8ff" stroke="#63b8ff" points="1094.3,-247.78 1103.49,-242.51 1093.02,-240.89 1094.3,-247.78"/>
</a>
</g>
</g>
<!-- Node2&#45;&gt;Node18 -->
<g id="edge26_Node000002_Node000018" class="edge">
<title>Node2&#45;&gt;Node18</title>
<g id="a_edge26_Node000002_Node000018"><a xlink:title=" ">
<path fill="none" stroke="#63b8ff" d="M872.43,-285.91C932.47,-280 1064.26,-265.9 1184.21,-244.48"/>
<polygon fill="#63b8ff" stroke="#63b8ff" points="1184.7,-247.95 1193.91,-242.73 1183.45,-241.06 1184.7,-247.95"/>
</a>
</g>
</g>
<!-- Node19 -->
<g id="Node000019" class="node">
<title>Node19</title>
<g id="a_Node000019"><a xlink:href="_g_e_vertex_buffer_8h.html" target="_top" xlink:title=" ">
<polygon fill="white" stroke="#666666" points="107.5,-132 15.75,-132 15.75,-112 107.5,-112 107.5,-132"/>
<text xml:space="preserve" text-anchor="middle" x="61.62" y="-118.5" font-family="Helvetica,sans-Serif" font-size="10.00">GEVertexBuffer.h</text>
</a>
</g>
</g>
<!-- Node2&#45;&gt;Node19 -->
<g id="edge28_Node000002_Node000019" class="edge">
<title>Node2&#45;&gt;Node19</title>
<g id="a_edge28_Node000002_Node000019"><a xlink:title=" ">
<path fill="none" stroke="#63b8ff" d="M806.39,-287.67C700.17,-283.22 369.77,-267.79 265.62,-244 198.68,-228.71 178.37,-226.67 121.62,-188 102.86,-175.21 85.75,-155.51 74.65,-141.15"/>
<polygon fill="#63b8ff" stroke="#63b8ff" points="77.67,-139.34 68.88,-133.42 72.06,-143.53 77.67,-139.34"/>
</a>
</g>
</g>
<!-- Node20 -->
<g id="Node000020" class="node">
<title>Node20</title>
<g id="a_Node000020"><a xlink:href="_g_e_index_buffer_8h.html" target="_top" xlink:title="Declaración de la clase GEIndexBuffer para buffers de índices.">
<polygon fill="white" stroke="#666666" points="251.62,-132 163.62,-132 163.62,-112 251.62,-112 251.62,-132"/>
<text xml:space="preserve" text-anchor="middle" x="207.62" y="-118.5" font-family="Helvetica,sans-Serif" font-size="10.00">GEIndexBuffer.h</text>
</a>
</g>
</g>
<!-- Node2&#45;&gt;Node20 -->
<g id="edge31_Node000002_Node000020" class="edge">
<title>Node2&#45;&gt;Node20</title>
<g id="a_edge31_Node000002_Node000020"><a xlink:title=" ">
<path fill="none" stroke="#63b8ff" d="M806.38,-284.19C757.95,-276.94 665.32,-262.1 587.62,-244 500.22,-223.64 479.13,-215.26 393.62,-188 341.12,-171.26 281.04,-149.85 243.71,-136.27"/>
<polygon fill="#63b8ff" stroke="#63b8ff" points="245.37,-133.15 234.77,-133.01 242.97,-139.73 245.37,-133.15"/>
</a>
</g>
</g>
<!-- Node21 -->
<g id="Node000021" class="node">
<title>Node21</title>
<g id="a_Node000021"><a xlink:href="_g_e_uniform_buffer_8h.html" target="_top" xlink:title=" ">
<polygon fill="white" stroke="#666666" points="912.88,-132 814.38,-132 814.38,-112 912.88,-112 912.88,-132"/>
<text xml:space="preserve" text-anchor="middle" x="863.62" y="-118.5" font-family="Helvetica,sans-Serif" font-size="10.00">GEUniformBuffer.h</text>
</a>
</g>
</g>
<!-- Node2&#45;&gt;Node21 -->
<g id="edge34_Node000002_Node000021" class="edge">
<title>Node2&#45;&gt;Node21</title>
<g id="a_edge34_Node000002_Node000021"><a xlink:title=" ">
<path fill="none" stroke="#63b8ff" d="M840.98,-279.6C844.76,-253.46 855.46,-179.48 860.68,-143.36"/>
<polygon fill="#63b8ff" stroke="#63b8ff" points="864.1,-144.19 862.06,-133.8 857.17,-143.19 864.1,-144.19"/>
</a>
</g>
</g>
<!-- Node22 -->
<g id="Node000022" class="node">
<title>Node22</title>
<g id="a_Node000022"><a xlink:href="_g_e_descriptor_set_8h.html" target="_top" xlink:title="Declaración de la clase GEDescriptorSet para gestionar conjuntos de descriptores.">
<polygon fill="white" stroke="#666666" points="694.88,-244 596.38,-244 596.38,-224 694.88,-224 694.88,-244"/>
<text xml:space="preserve" text-anchor="middle" x="645.62" y="-230.5" font-family="Helvetica,sans-Serif" font-size="10.00">GEDescriptorSet.h</text>
</a>
</g>
</g>
<!-- Node2&#45;&gt;Node22 -->
<g id="edge38_Node000002_Node000022" class="edge">
<title>Node2&#45;&gt;Node22</title>
<g id="a_edge38_Node000002_Node000022"><a xlink:title=" ">
<path fill="none" stroke="#63b8ff" d="M806.72,-279.84C774.82,-270.96 726.18,-257.42 690.7,-247.55"/>
<polygon fill="#63b8ff" stroke="#63b8ff" points="691.71,-244.19 681.13,-244.88 689.83,-250.94 691.71,-244.19"/>
</a>
</g>
</g>
<!-- Node4 -->
<g id="Node000004" class="node">
<title>Node4</title>
<g id="a_Node000004"><a xlink:title=" ">
<polygon fill="#e0e0e0" stroke="#999999" points="381.12,-20 302.12,-20 302.12,0 381.12,0 381.12,-20"/>
<text xml:space="preserve" text-anchor="middle" x="341.62" y="-6.5" font-family="Helvetica,sans-Serif" font-size="10.00">GLFW/glfw3.h</text>
</a>
</g>
</g>
<!-- Node3&#45;&gt;Node4 -->
<g id="edge3_Node000003_Node000004" class="edge">
<title>Node3&#45;&gt;Node4</title>
<g id="a_edge3_Node000003_Node000004"><a xlink:title=" ">
<path fill="none" stroke="#63b8ff" d="M344.93,-55.59C344.44,-49.01 343.77,-39.96 343.16,-31.73"/>
<polygon fill="#63b8ff" stroke="#63b8ff" points="346.65,-31.52 342.43,-21.81 339.67,-32.04 346.65,-31.52"/>
</a>
</g>
</g>
<!-- Node5 -->
<g id="Node000005" class="node">
<title>Node5</title>
<g id="a_Node000005"><a xlink:title=" ">
<polygon fill="#e0e0e0" stroke="#999999" points="483.75,-20 399.5,-20 399.5,0 483.75,0 483.75,-20"/>
<text xml:space="preserve" text-anchor="middle" x="441.62" y="-6.5" font-family="Helvetica,sans-Serif" font-size="10.00">vulkan/vulkan.h</text>
</a>
</g>
</g>
<!-- Node3&#45;&gt;Node5 -->
<g id="edge4_Node000003_Node000005" class="edge">
<title>Node3&#45;&gt;Node5</title>
<g id="a_edge4_Node000003_Node000005"><a xlink:title=" ">
<path fill="none" stroke="#63b8ff" d="M362.35,-55.59C376.85,-47.44 398.1,-35.48 414.95,-26"/>
<polygon fill="#63b8ff" stroke="#63b8ff" points="416.45,-29.17 423.45,-21.22 413.02,-23.07 416.45,-29.17"/>
</a>
</g>
</g>
<!-- Node6&#45;&gt;Node3 -->
<g id="edge8_Node000006_Node000003" class="edge">
<title>Node6&#45;&gt;Node3</title>
<g id="a_edge8_Node000006_Node000003"><a xlink:title=" ">
<path fill="none" stroke="#63b8ff" d="M566.55,-172.75C501.97,-167.03 403.77,-154.82 374.62,-132 360.64,-121.05 353.22,-101.9 349.4,-87.22"/>
<polygon fill="#63b8ff" stroke="#63b8ff" points="352.86,-86.7 347.29,-77.68 346.03,-88.2 352.86,-86.7"/>
</a>
</g>
</g>
<!-- Node6&#45;&gt;Node5 -->
<g id="edge6_Node000006_Node000005" class="edge">
<title>Node6&#45;&gt;Node5</title>
<g id="a_edge6_Node000006_Node000005"><a xlink:title=" ">
<path fill="none" stroke="#63b8ff" d="M590.19,-167.57C568.37,-160.45 540.82,-148.97 520.62,-132 486.66,-103.47 461.92,-56.62 449.87,-30.37"/>
<polygon fill="#63b8ff" stroke="#63b8ff" points="453.23,-29.31 445.98,-21.58 446.83,-32.14 453.23,-29.31"/>
</a>
</g>
</g>
<!-- Node6&#45;&gt;Node7 -->
<g id="edge7_Node000006_Node000007" class="edge">
<title>Node6&#45;&gt;Node7</title>
<g id="a_edge7_Node000006_Node000007"><a xlink:title=" ">
<path fill="none" stroke="#63b8ff" d="M684.6,-169.7C742.09,-162.21 832.19,-149.48 919.39,-132.29"/>
<polygon fill="#63b8ff" stroke="#63b8ff" points="919.95,-135.74 929.08,-130.35 918.58,-128.88 919.95,-135.74"/>
</a>
</g>
</g>
<!-- Node8 -->
<g id="Node000008" class="node">
<title>Node8</title>
<g id="a_Node000008"><a xlink:href="_g_e_drawing_context_8h.html" target="_top" xlink:title="Declaración de la clase GEDrawingContext para gestionar swapchain y present.">
<polygon fill="white" stroke="#666666" points="639.12,-132 530.12,-132 530.12,-112 639.12,-112 639.12,-132"/>
<text xml:space="preserve" text-anchor="middle" x="584.62" y="-118.5" font-family="Helvetica,sans-Serif" font-size="10.00">GEDrawingContext.h</text>
</a>
</g>
</g>
<!-- Node6&#45;&gt;Node8 -->
<g id="edge9_Node000006_Node000008" class="edge">
<title>Node6&#45;&gt;Node8</title>
<g id="a_edge9_Node000006_Node000008"><a xlink:title=" ">
<path fill="none" stroke="#63b8ff" d="M618.48,-167.59C613.02,-160.39 605.3,-150.23 598.62,-141.43"/>
<polygon fill="#63b8ff" stroke="#63b8ff" points="601.43,-139.35 592.6,-133.5 595.86,-143.58 601.43,-139.35"/>
</a>
</g>
</g>
<!-- Node11 -->
<g id="Node000011" class="node">
<title>Node11</title>
<g id="a_Node000011"><a xlink:href="_g_e_pipeline_config_8h.html" target="_top" xlink:title="Declaración de la clase GEPipelineConfig que almacena la configuración de un pipeline de renderizado.">
<polygon fill="white" stroke="#666666" points="758.38,-132 656.88,-132 656.88,-112 758.38,-112 758.38,-132"/>
<text xml:space="preserve" text-anchor="middle" x="707.62" y="-118.5" font-family="Helvetica,sans-Serif" font-size="10.00">GEPipelineConfig.h</text>
</a>
</g>
</g>
<!-- Node6&#45;&gt;Node11 -->
<g id="edge14_Node000006_Node000011" class="edge">
<title>Node6&#45;&gt;Node11</title>
<g id="a_edge14_Node000006_Node000011"><a xlink:title=" ">
<path fill="none" stroke="#63b8ff" d="M639.91,-167.59C652.06,-159.59 669.76,-147.93 684.02,-138.54"/>
<polygon fill="#63b8ff" stroke="#63b8ff" points="685.54,-141.73 691.97,-133.31 681.69,-135.89 685.54,-141.73"/>
</a>
</g>
</g>
<!-- Node12 -->
<g id="Node000012" class="node">
<title>Node12</title>
<g id="a_Node000012"><a xlink:href="_g_e_depth_buffer_8h.html" target="_top" xlink:title="Declaración de la clase GEDepthBuffer que gestiona el recurso de profundidad.">
<polygon fill="white" stroke="#666666" points="473.75,-132 383.5,-132 383.5,-112 473.75,-112 473.75,-132"/>
<text xml:space="preserve" text-anchor="middle" x="428.62" y="-118.5" font-family="Helvetica,sans-Serif" font-size="10.00">GEDepthBuffer.h</text>
</a>
</g>
</g>
<!-- Node6&#45;&gt;Node12 -->
<g id="edge17_Node000006_Node000012" class="edge">
<title>Node6&#45;&gt;Node12</title>
<g id="a_edge17_Node000006_Node000012"><a xlink:title=" ">
<path fill="none" stroke="#63b8ff" d="M591.31,-167.59C558.88,-158.71 510.01,-145.31 474.3,-135.52"/>
<polygon fill="#63b8ff" stroke="#63b8ff" points="475.24,-132.15 464.67,-132.88 473.39,-138.9 475.24,-132.15"/>
</a>
</g>
</g>
<!-- Node8&#45;&gt;Node3 -->
<g id="edge12_Node000008_Node000003" class="edge">
<title>Node8&#45;&gt;Node3</title>
<g id="a_edge12_Node000008_Node000003"><a xlink:title=" ">
<path fill="none" stroke="#63b8ff" d="M542.72,-111.53C502.66,-102.48 442.09,-88.8 398.68,-78.99"/>
<polygon fill="#63b8ff" stroke="#63b8ff" points="399.48,-75.58 388.96,-76.79 397.94,-82.41 399.48,-75.58"/>
</a>
</g>
</g>
<!-- Node8&#45;&gt;Node5 -->
<g id="edge10_Node000008_Node000005" class="edge">
<title>Node8&#45;&gt;Node5</title>
<g id="a_edge10_Node000008_Node000005"><a xlink:title=" ">
<path fill="none" stroke="#63b8ff" d="M575.8,-111.52C563.18,-98.24 538.93,-73.75 515.62,-56 500.99,-44.86 483.45,-34.09 469.12,-25.88"/>
<polygon fill="#63b8ff" stroke="#63b8ff" points="471.09,-22.97 460.66,-21.13 467.66,-29.08 471.09,-22.97"/>
</a>
</g>
</g>
<!-- Node8&#45;&gt;Node9 -->
<g id="edge11_Node000008_Node000009" class="edge">
<title>Node8&#45;&gt;Node9</title>
<g id="a_edge11_Node000008_Node000009"><a xlink:title=" ">
<path fill="none" stroke="#63b8ff" d="M619.81,-111.59C657.55,-101.51 717,-85.61 753.8,-75.77"/>
<polygon fill="#63b8ff" stroke="#63b8ff" points="754.68,-79.16 763.44,-73.2 752.87,-72.4 754.68,-79.16"/>
</a>
</g>
</g>
<!-- Node10 -->
<g id="Node000010" class="node">
<title>Node10</title>
<g id="a_Node000010"><a xlink:href="_g_e_window_position_8h.html" target="_top" xlink:title="Declaración de la estructura GEWindowPosition para ventanas.">
<polygon fill="white" stroke="#666666" points="677.12,-76 568.12,-76 568.12,-56 677.12,-56 677.12,-76"/>
<text xml:space="preserve" text-anchor="middle" x="622.62" y="-62.5" font-family="Helvetica,sans-Serif" font-size="10.00">GEWindowPosition.h</text>
</a>
</g>
</g>
<!-- Node8&#45;&gt;Node10 -->
<g id="edge13_Node000008_Node000010" class="edge">
<title>Node8&#45;&gt;Node10</title>
<g id="a_edge13_Node000008_Node000010"><a xlink:title=" ">
<path fill="none" stroke="#63b8ff" d="M591.24,-111.59C596.31,-104.39 603.46,-94.23 609.65,-85.43"/>
<polygon fill="#63b8ff" stroke="#63b8ff" points="612.32,-87.73 615.21,-77.54 606.59,-83.7 612.32,-87.73"/>
</a>
</g>
</g>
<!-- Node11&#45;&gt;Node5 -->
<g id="edge15_Node000011_Node000005" class="edge">
<title>Node11&#45;&gt;Node5</title>
<g id="a_edge15_Node000011_Node000005"><a xlink:title=" ">
<path fill="none" stroke="#63b8ff" d="M707.32,-111.87C706.31,-97.65 702.2,-70.35 685.62,-56 657.8,-31.92 558.42,-19.94 495.4,-14.63"/>
<polygon fill="#63b8ff" stroke="#63b8ff" points="495.84,-11.15 485.59,-13.84 495.28,-18.13 495.84,-11.15"/>
</a>
</g>
</g>
<!-- Node11&#45;&gt;Node9 -->
<g id="edge16_Node000011_Node000009" class="edge">
<title>Node11&#45;&gt;Node9</title>
<g id="a_edge16_Node000011_Node000009"><a xlink:title=" ">
<path fill="none" stroke="#63b8ff" d="M721.39,-111.59C732.98,-103.67 749.82,-92.16 763.49,-82.82"/>
<polygon fill="#63b8ff" stroke="#63b8ff" points="765.23,-85.87 771.51,-77.33 761.28,-80.09 765.23,-85.87"/>
</a>
</g>
</g>
<!-- Node12&#45;&gt;Node3 -->
<g id="edge19_Node000012_Node000003" class="edge">
<title>Node12&#45;&gt;Node3</title>
<g id="a_edge19_Node000012_Node000003"><a xlink:title=" ">
<path fill="none" stroke="#63b8ff" d="M414.17,-111.59C401.87,-103.59 383.95,-91.93 369.52,-82.54"/>
<polygon fill="#63b8ff" stroke="#63b8ff" points="371.75,-79.82 361.46,-77.3 367.94,-85.69 371.75,-79.82"/>
</a>
</g>
</g>
<!-- Node12&#45;&gt;Node5 -->
<g id="edge18_Node000012_Node000005" class="edge">
<title>Node12&#45;&gt;Node5</title>
<g id="a_edge18_Node000012_Node000005"><a xlink:title=" ">
<path fill="none" stroke="#63b8ff" d="M429.73,-111.62C431.82,-94.01 436.35,-55.59 439.18,-31.65"/>
<polygon fill="#63b8ff" stroke="#63b8ff" points="442.64,-32.2 440.34,-21.86 435.69,-31.38 442.64,-32.2"/>
</a>
</g>
</g>
<!-- Node14 -->
<g id="Node000014" class="node">
<title>Node14</title>
<g id="a_Node000014"><a xlink:title=" ">
<polygon fill="#e0e0e0" stroke="#999999" points="69.25,-188 0,-188 0,-168 69.25,-168 69.25,-188"/>
<text xml:space="preserve" text-anchor="middle" x="34.62" y="-174.5" font-family="Helvetica,sans-Serif" font-size="10.00">glm\glm.hpp</text>
</a>
</g>
</g>
<!-- Node13&#45;&gt;Node14 -->
<g id="edge21_Node000013_Node000014" class="edge">
<title>Node13&#45;&gt;Node14</title>
<g id="a_edge21_Node000013_Node000014"><a xlink:title=" ">
<path fill="none" stroke="#63b8ff" d="M36.28,-223.59C36.03,-217.01 35.7,-207.96 35.39,-199.73"/>
<polygon fill="#63b8ff" stroke="#63b8ff" points="38.89,-199.67 35.03,-189.81 31.9,-199.93 38.89,-199.67"/>
</a>
</g>
</g>
<!-- Node15&#45;&gt;Node16 -->
<g id="edge23_Node000015_Node000016" class="edge">
<title>Node15&#45;&gt;Node16</title>
<g id="a_edge23_Node000015_Node000016"><a xlink:title=" ">
<path fill="none" stroke="#63b8ff" d="M1062.35,-223.59C1076.85,-215.44 1098.1,-203.48 1114.95,-194"/>
<polygon fill="#63b8ff" stroke="#63b8ff" points="1116.45,-197.17 1123.45,-189.22 1113.02,-191.07 1116.45,-197.17"/>
</a>
</g>
</g>
<!-- Node17&#45;&gt;Node16 -->
<g id="edge25_Node000017_Node000016" class="edge">
<title>Node17&#45;&gt;Node16</title>
<g id="a_edge25_Node000017_Node000016"><a xlink:title=" ">
<path fill="none" stroke="#63b8ff" d="M1141.62,-223.59C1141.62,-217.01 1141.62,-207.96 1141.62,-199.73"/>
<polygon fill="#63b8ff" stroke="#63b8ff" points="1145.13,-199.81 1141.63,-189.81 1138.13,-199.81 1145.13,-199.81"/>
</a>
</g>
</g>
<!-- Node18&#45;&gt;Node16 -->
<g id="edge27_Node000018_Node000016" class="edge">
<title>Node18&#45;&gt;Node16</title>
<g id="a_edge27_Node000018_Node000016"><a xlink:title=" ">
<path fill="none" stroke="#63b8ff" d="M1210.99,-223.59C1198.54,-215.59 1180.41,-203.93 1165.8,-194.54"/>
<polygon fill="#63b8ff" stroke="#63b8ff" points="1167.95,-191.76 1157.64,-189.3 1164.16,-197.65 1167.95,-191.76"/>
</a>
</g>
</g>
<!-- Node19&#45;&gt;Node3 -->
<g id="edge30_Node000019_Node000003" class="edge">
<title>Node19&#45;&gt;Node3</title>
<g id="a_edge30_Node000019_Node000003"><a xlink:title=" ">
<path fill="none" stroke="#63b8ff" d="M107.89,-112.2C156.06,-103.04 231.76,-88.65 284.76,-78.57"/>
<polygon fill="#63b8ff" stroke="#63b8ff" points="285.38,-82.02 294.55,-76.71 284.08,-75.14 285.38,-82.02"/>
</a>
</g>
</g>
<!-- Node19&#45;&gt;Node5 -->
<g id="edge29_Node000019_Node000005" class="edge">
<title>Node19&#45;&gt;Node5</title>
<g id="a_edge29_Node000019_Node000005"><a xlink:title=" ">
<path fill="none" stroke="#63b8ff" d="M67.24,-111.56C76.53,-96.91 96.55,-69.04 121.62,-56 225.13,-2.19 268.29,-36.12 388.02,-20.09"/>
<polygon fill="#63b8ff" stroke="#63b8ff" points="388.18,-23.6 397.58,-18.71 387.18,-16.68 388.18,-23.6"/>
</a>
</g>
</g>
<!-- Node20&#45;&gt;Node3 -->
<g id="edge33_Node000020_Node000003" class="edge">
<title>Node20&#45;&gt;Node3</title>
<g id="a_edge33_Node000020_Node000003"><a xlink:title=" ">
<path fill="none" stroke="#63b8ff" d="M231.66,-111.59C253.59,-103.01 286.25,-90.23 311,-80.55"/>
<polygon fill="#63b8ff" stroke="#63b8ff" points="311.95,-83.93 319.99,-77.03 309.4,-77.42 311.95,-83.93"/>
</a>
</g>
</g>
<!-- Node20&#45;&gt;Node5 -->
<g id="edge32_Node000020_Node000005" class="edge">
<title>Node20&#45;&gt;Node5</title>
<g id="a_edge32_Node000020_Node000005"><a xlink:title=" ">
<path fill="none" stroke="#63b8ff" d="M215.6,-111.56C228.06,-97.41 253.52,-70.81 280.62,-56 299.27,-45.81 349.24,-32.56 388.61,-23.08"/>
<polygon fill="#63b8ff" stroke="#63b8ff" points="389.27,-26.52 398.19,-20.8 387.65,-19.71 389.27,-26.52"/>
</a>
</g>
</g>
<!-- Node21&#45;&gt;Node3 -->
<g id="edge35_Node000021_Node000003" class="edge">
<title>Node21&#45;&gt;Node3</title>
<g id="a_edge35_Node000021_Node000003"><a xlink:title=" ">
<path fill="none" stroke="#63b8ff" d="M813.96,-115.82C720.5,-106.08 518.45,-85.02 412.9,-74.01"/>
<polygon fill="#63b8ff" stroke="#63b8ff" points="413.58,-70.56 403.27,-73.01 412.85,-77.53 413.58,-70.56"/>
</a>
</g>
</g>
<!-- Node21&#45;&gt;Node5 -->
<g id="edge36_Node000021_Node000005" class="edge">
<title>Node21&#45;&gt;Node5</title>
<g id="a_edge36_Node000021_Node000005"><a xlink:title=" ">
<path fill="none" stroke="#63b8ff" d="M859.8,-111.55C853.33,-96.89 838.71,-69 816.62,-56 763.44,-24.69 585.7,-15.09 495.34,-12.21"/>
<polygon fill="#63b8ff" stroke="#63b8ff" points="495.6,-8.71 485.5,-11.91 495.39,-15.71 495.6,-8.71"/>
</a>
</g>
</g>
<!-- Node21&#45;&gt;Node9 -->
<g id="edge37_Node000021_Node000009" class="edge">
<title>Node21&#45;&gt;Node9</title>
<g id="a_edge37_Node000021_Node000009"><a xlink:title=" ">
<path fill="none" stroke="#63b8ff" d="M850.21,-111.59C839.02,-103.74 822.81,-92.38 809.57,-83.09"/>
<polygon fill="#63b8ff" stroke="#63b8ff" points="811.58,-80.22 801.38,-77.35 807.56,-85.96 811.58,-80.22"/>
</a>
</g>
</g>
<!-- Node22&#45;&gt;Node3 -->
<g id="edge41_Node000022_Node000003" class="edge">
<title>Node22&#45;&gt;Node3</title>
<g id="a_edge41_Node000022_Node000003"><a xlink:title=" ">
<path fill="none" stroke="#63b8ff" d="M595.91,-230.92C529.81,-225.27 414.41,-204.86 354.62,-132 344.56,-119.73 342.78,-101.56 343.26,-87.55"/>
<polygon fill="#63b8ff" stroke="#63b8ff" points="346.74,-87.89 344.03,-77.64 339.76,-87.34 346.74,-87.89"/>
</a>
</g>
</g>
<!-- Node22&#45;&gt;Node5 -->
<g id="edge39_Node000022_Node000005" class="edge">
<title>Node22&#45;&gt;Node5</title>
<g id="a_edge39_Node000022_Node000005"><a xlink:title=" ">
<path fill="none" stroke="#63b8ff" d="M596.17,-230.58C482.69,-223.89 209.16,-200.79 154.62,-132 112.54,-78.91 150.8,-95.23 247.62,-56 272.69,-45.84 339.58,-31.29 387.81,-21.51"/>
<polygon fill="#63b8ff" stroke="#63b8ff" points="388.42,-24.96 397.53,-19.56 387.04,-18.1 388.42,-24.96"/>
</a>
</g>
</g>
<!-- Node22&#45;&gt;Node6 -->
<g id="edge42_Node000022_Node000006" class="edge">
<title>Node22&#45;&gt;Node6</title>
<g id="a_edge42_Node000022_Node000006"><a xlink:title=" ">
<path fill="none" stroke="#63b8ff" d="M642.14,-223.59C639.62,-216.78 636.11,-207.32 632.98,-198.86"/>
<polygon fill="#63b8ff" stroke="#63b8ff" points="636.35,-197.88 629.59,-189.72 629.79,-200.31 636.35,-197.88"/>
</a>
</g>
</g>
<!-- Node22&#45;&gt;Node9 -->
<g id="edge40_Node000022_Node000009" class="edge">
<title>Node22&#45;&gt;Node9</title>
<g id="a_edge40_Node000022_Node000009"><a xlink:title=" ">
<path fill="none" stroke="#63b8ff" d="M662.55,-223.56C688.96,-207.95 739.82,-174.27 767.62,-132 776.53,-118.46 781.35,-100.66 783.91,-87.11"/>
<polygon fill="#63b8ff" stroke="#63b8ff" points="787.31,-88.03 785.43,-77.6 780.39,-86.93 787.31,-88.03"/>
</a>
</g>
</g>
<!-- Node22&#45;&gt;Node21 -->
<g id="edge43_Node000022_Node000021" class="edge">
<title>Node22&#45;&gt;Node21</title>
<g id="a_edge43_Node000022_Node000021"><a xlink:title=" ">
<path fill="none" stroke="#63b8ff" d="M695.05,-225.42C726.88,-218.95 768.21,-207.51 800.62,-188 820.54,-176.02 838.47,-156.19 850.06,-141.58"/>
<polygon fill="#63b8ff" stroke="#63b8ff" points="852.82,-143.73 856.1,-133.66 847.25,-139.49 852.82,-143.73"/>
</a>
</g>
</g>
</g>
</svg>
