<?xml version="1.0" encoding="UTF-8" standalone="no"?>
<!DOCTYPE svg PUBLIC "-//W3C//DTD SVG 1.1//EN"
 "http://www.w3.org/Graphics/SVG/1.1/DTD/svg11.dtd">
<!-- Generated by graphviz version 14.1.2 (20260124.0452)
 -->
<!-- Title: MVPVulkan/GEPipelineConfig.cpp Pages: 1 -->
<svg width="174pt" height="140pt"
 viewBox="0.00 0.00 174.00 140.00" xmlns="http://www.w3.org/2000/svg" xmlns:xlink="http://www.w3.org/1999/xlink">
<g id="graph0" class="graph" transform="scale(1 1) rotate(0) translate(4 136)">
<title>MVPVulkan/GEPipelineConfig.cpp</title>
<!-- Node1 -->
<g id="Node000001" class="node">
<title>Node1</title>
<g id="a_Node000001"><a xlink:title="Implementación de la clase GEPipelineConfig.">
<polygon fill="#999999" stroke="#666666" points="166.12,-132 0.12,-132 0.12,-112 166.12,-112 166.12,-132"/>
<text xml:space="preserve" text-anchor="middle" x="83.12" y="-118.5" font-family="Helvetica,sans-Serif" font-size="10.00">MVPVulkan/GEPipelineConfig.cpp</text>
</a>
</g>
</g>
<!-- Node2 -->
<g id="Node000002" class="node">
<title>Node2</title>
<g id="a_Node000002"><a xlink:href="_g_e_pipeline_config_8h.html" target="_top" xlink:title="Declaración de la clase GEPipelineConfig que almacena la configuración de un pipeline de renderizado.">
<polygon fill="white" stroke="#666666" points="133.88,-76 32.38,-76 32.38,-56 133.88,-56 133.88,-76"/>
<text xml:space="preserve" text-anchor="middle" x="83.12" y="-62.5" font-family="Helvetica,sans-Serif" font-size="10.00">GEPipelineConfig.h</text>
</a>
</g>
</g>
<!-- Node1&#45;&gt;Node2 -->
<g id="edge1_Node000001_Node000002" class="edge">
<title>Node1&#45;&gt;Node2</title>
<g id="a_edge1_Node000001_Node000002"><a xlink:title=" ">
<path fill="none" stroke="#63b8ff" d="M83.12,-111.59C83.12,-105.01 83.12,-95.96 83.12,-87.73"/>
<polygon fill="#63b8ff" stroke="#63b8ff" points="86.63,-87.81 83.13,-77.81 79.63,-87.81 86.63,-87.81"/>
</a>
</g>
</g>
<!-- Node3 -->
<g id="Node000003" class="node">
<title>Node3</title>
<g id="a_Node000003"><a xlink:title=" ">
<polygon fill="#e0e0e0" stroke="#999999" points="84.25,-20 0,-20 0,0 84.25,0 84.25,-20"/>
<text xml:space="preserve" text-anchor="middle" x="42.12" y="-6.5" font-family="Helvetica,sans-Serif" font-size="10.00">vulkan/vulkan.h</text>
</a>
</g>
</g>
<!-- Node2&#45;&gt;Node3 -->
<g id="edge2_Node000002_Node000003" class="edge">
<title>Node2&#45;&gt;Node3</title>
<g id="a_edge2_Node000002_Node000003"><a xlink:title=" ">
<path fill="none" stroke="#63b8ff" d="M75.98,-55.59C70.52,-48.39 62.8,-38.23 56.12,-29.43"/>
<polygon fill="#63b8ff" stroke="#63b8ff" points="58.93,-27.35 50.1,-21.5 53.36,-31.58 58.93,-27.35"/>
</a>
</g>
</g>
<!-- Node4 -->
<g id="Node000004" class="node">
<title>Node4</title>
<g id="a_Node000004"><a xlink:title=" ">
<polygon fill="#e0e0e0" stroke="#999999" points="145.62,-20 102.62,-20 102.62,0 145.62,0 145.62,-20"/>
<text xml:space="preserve" text-anchor="middle" x="124.12" y="-6.5" font-family="Helvetica,sans-Serif" font-size="10.00">vector</text>
</a>
</g>
</g>
<!-- Node2&#45;&gt;Node4 -->
<g id="edge3_Node000002_Node000004" class="edge">
<title>Node2&#45;&gt;Node4</title>
<g id="a_edge3_Node000002_Node000004"><a xlink:title=" ">
<path fill="none" stroke="#63b8ff" d="M90.27,-55.59C95.73,-48.39 103.45,-38.23 110.13,-29.43"/>
<polygon fill="#63b8ff" stroke="#63b8ff" points="112.89,-31.58 116.15,-21.5 107.32,-27.35 112.89,-31.58"/>
</a>
</g>
</g>
</g>
</svg>
