<?xml version="1.0" encoding="UTF-8" standalone="no"?>
<!DOCTYPE svg PUBLIC "-//W3C//DTD SVG 1.1//EN"
 "http://www.w3.org/Graphics/SVG/1.1/DTD/svg11.dtd">
<!-- Generated by graphviz version 14.1.2 (20260124.0452)
 -->
<!-- Title: MVPVulkan/GECommandContext.h Pages: 1 -->
<svg width="246pt" height="140pt"
 viewBox="0.00 0.00 246.00 140.00" xmlns="http://www.w3.org/2000/svg" xmlns:xlink="http://www.w3.org/1999/xlink">
<g id="graph0" class="graph" transform="scale(1 1) rotate(0) translate(4 136)">
<title>MVPVulkan/GECommandContext.h</title>
<!-- Node1 -->
<g id="Node000001" class="node">
<title>Node1</title>
<g id="a_Node000001"><a xlink:title="Declaración de la clase GECommandContext que gestiona buffers de comandos.">
<polygon fill="#999999" stroke="#666666" points="172,-132 0,-132 0,-112 172,-112 172,-132"/>
<text xml:space="preserve" text-anchor="middle" x="86" y="-118.5" font-family="Helvetica,sans-Serif" font-size="10.00">MVPVulkan/GECommandContext.h</text>
</a>
</g>
</g>
<!-- Node2 -->
<g id="Node000002" class="node">
<title>Node2</title>
<g id="a_Node000002"><a xlink:title=" ">
<polygon fill="#e0e0e0" stroke="#999999" points="101.12,-20 16.88,-20 16.88,0 101.12,0 101.12,-20"/>
<text xml:space="preserve" text-anchor="middle" x="59" y="-6.5" font-family="Helvetica,sans-Serif" font-size="10.00">vulkan/vulkan.h</text>
</a>
</g>
</g>
<!-- Node1&#45;&gt;Node2 -->
<g id="edge1_Node000001_Node000002" class="edge">
<title>Node1&#45;&gt;Node2</title>
<g id="a_edge1_Node000001_Node000002"><a xlink:title=" ">
<path fill="none" stroke="#63b8ff" d="M76.93,-111.57C69.41,-103.05 59.28,-89.77 55,-76 50.47,-61.44 51.82,-44.17 54.12,-31.1"/>
<polygon fill="#63b8ff" stroke="#63b8ff" points="57.49,-32.06 56.13,-21.55 50.64,-30.62 57.49,-32.06"/>
</a>
</g>
</g>
<!-- Node3 -->
<g id="Node000003" class="node">
<title>Node3</title>
<g id="a_Node000003"><a xlink:title=" ">
<polygon fill="#e0e0e0" stroke="#999999" points="107.5,-76 64.5,-76 64.5,-56 107.5,-56 107.5,-76"/>
<text xml:space="preserve" text-anchor="middle" x="86" y="-62.5" font-family="Helvetica,sans-Serif" font-size="10.00">vector</text>
</a>
</g>
</g>
<!-- Node1&#45;&gt;Node3 -->
<g id="edge2_Node000001_Node000003" class="edge">
<title>Node1&#45;&gt;Node3</title>
<g id="a_edge2_Node000001_Node000003"><a xlink:title=" ">
<path fill="none" stroke="#63b8ff" d="M86,-111.59C86,-105.01 86,-95.96 86,-87.73"/>
<polygon fill="#63b8ff" stroke="#63b8ff" points="89.5,-87.81 86,-77.81 82.5,-87.81 89.5,-87.81"/>
</a>
</g>
</g>
<!-- Node4 -->
<g id="Node000004" class="node">
<title>Node4</title>
<g id="a_Node000004"><a xlink:href="_g_e_graphics_context_8h.html" target="_top" xlink:title="Declaración de la clase GEGraphicsContext que almacena el contexto gráfico de Vulkan.">
<polygon fill="white" stroke="#666666" points="238,-76 126,-76 126,-56 238,-56 238,-76"/>
<text xml:space="preserve" text-anchor="middle" x="182" y="-62.5" font-family="Helvetica,sans-Serif" font-size="10.00">GEGraphicsContext.h</text>
</a>
</g>
</g>
<!-- Node1&#45;&gt;Node4 -->
<g id="edge3_Node000001_Node000004" class="edge">
<title>Node1&#45;&gt;Node4</title>
<g id="a_edge3_Node000001_Node000004"><a xlink:title=" ">
<path fill="none" stroke="#63b8ff" d="M102.72,-111.59C117.22,-103.44 138.47,-91.48 155.32,-82"/>
<polygon fill="#63b8ff" stroke="#63b8ff" points="156.83,-85.17 163.83,-77.22 153.4,-79.07 156.83,-85.17"/>
</a>
</g>
</g>
<!-- Node4&#45;&gt;Node2 -->
<g id="edge5_Node000004_Node000002" class="edge">
<title>Node4&#45;&gt;Node2</title>
<g id="a_edge5_Node000004_Node000002"><a xlink:title=" ">
<path fill="none" stroke="#63b8ff" d="M160.58,-55.59C141.38,-47.17 112.96,-34.69 91.06,-25.07"/>
<polygon fill="#63b8ff" stroke="#63b8ff" points="92.54,-21.9 81.98,-21.09 89.73,-28.31 92.54,-21.9"/>
</a>
</g>
</g>
<!-- Node5 -->
<g id="Node000005" class="node">
<title>Node5</title>
<g id="a_Node000005"><a xlink:title=" ">
<polygon fill="#e0e0e0" stroke="#999999" points="221.5,-20 142.5,-20 142.5,0 221.5,0 221.5,-20"/>
<text xml:space="preserve" text-anchor="middle" x="182" y="-6.5" font-family="Helvetica,sans-Serif" font-size="10.00">GLFW/glfw3.h</text>
</a>
</g>
</g>
<!-- Node4&#45;&gt;Node5 -->
<g id="edge4_Node000004_Node000005" class="edge">
<title>Node4&#45;&gt;Node5</title>
<g id="a_edge4_Node000004_Node000005"><a xlink:title=" ">
<path fill="none" stroke="#63b8ff" d="M182,-55.59C182,-49.01 182,-39.96 182,-31.73"/>
<polygon fill="#63b8ff" stroke="#63b8ff" points="185.5,-31.81 182,-21.81 178.5,-31.81 185.5,-31.81"/>
</a>
</g>
</g>
</g>
</svg>
