<?xml version="1.0" encoding="UTF-8" standalone="no"?>
<!DOCTYPE svg PUBLIC "-//W3C//DTD SVG 1.1//EN"
 "http://www.w3.org/Graphics/SVG/1.1/DTD/svg11.dtd">
<!-- Generated by graphviz version 14.1.2 (20260124.0452)
 -->
<!-- Title: GEScene::recreate Pages: 1 -->
<svg width="297pt" height="104pt"
 viewBox="0.00 0.00 297.00 104.00" xmlns="http://www.w3.org/2000/svg" xmlns:xlink="http://www.w3.org/1999/xlink">
<g id="graph0" class="graph" transform="scale(1 1) rotate(0) translate(4 100)">
<title>GEScene::recreate</title>
<!-- Node1 -->
<g id="Node000001" class="node">
<title>Node1</title>
<g id="a_Node000001"><a xlink:title="Reconstruye los componentes gráficos de la escena.">
<polygon fill="#999999" stroke="#666666" points="99.25,-58 0,-58 0,-38 99.25,-38 99.25,-58"/>
<text xml:space="preserve" text-anchor="middle" x="49.62" y="-44.5" font-family="Helvetica,sans-Serif" font-size="10.00">GEScene::recreate</text>
</a>
</g>
</g>
<!-- Node2 -->
<g id="Node000002" class="node">
<title>Node2</title>
<g id="a_Node000002"><a xlink:href="class_g_e_scene.html#a233af529c8992d40f8b3a3eb134cf90a" target="_top" xlink:title="Obtiene la configuración del pipeline para un extent dado.">
<polygon fill="white" stroke="#666666" points="289.25,-96 135.25,-96 135.25,-76 289.25,-76 289.25,-96"/>
<text xml:space="preserve" text-anchor="middle" x="212.25" y="-82.5" font-family="Helvetica,sans-Serif" font-size="10.00">GEScene::createPipelineConfig</text>
</a>
</g>
</g>
<!-- Node1&#45;&gt;Node2 -->
<g id="edge1_Node000001_Node000002" class="edge">
<title>Node1&#45;&gt;Node2</title>
<g id="a_edge1_Node000001_Node000002"><a xlink:title=" ">
<path fill="none" stroke="#63b8ff" d="M94.94,-58.48C113.81,-62.95 136.03,-68.21 155.96,-72.92"/>
<polygon fill="#63b8ff" stroke="#63b8ff" points="155.07,-76.31 165.61,-75.2 156.68,-69.49 155.07,-76.31"/>
</a>
</g>
</g>
<!-- Node3 -->
<g id="Node000003" class="node">
<title>Node3</title>
<g id="a_Node000003"><a xlink:href="class_g_e_scene.html#ad78bdafb113e91237b67ad7119ed4252" target="_top" xlink:title="Rellena los buffers de comandos para el renderizado.">
<polygon fill="white" stroke="#666666" points="287,-58 137.5,-58 137.5,-38 287,-38 287,-58"/>
<text xml:space="preserve" text-anchor="middle" x="212.25" y="-44.5" font-family="Helvetica,sans-Serif" font-size="10.00">GEScene::fillCommandBuffers</text>
</a>
</g>
</g>
<!-- Node1&#45;&gt;Node3 -->
<g id="edge2_Node000001_Node000003" class="edge">
<title>Node1&#45;&gt;Node3</title>
<g id="a_edge2_Node000001_Node000003"><a xlink:title=" ">
<path fill="none" stroke="#63b8ff" d="M99.69,-48C107.99,-48 116.83,-48 125.74,-48"/>
<polygon fill="#63b8ff" stroke="#63b8ff" points="125.54,-51.5 135.54,-48 125.54,-44.5 125.54,-51.5"/>
</a>
</g>
</g>
<!-- Node4 -->
<g id="Node000004" class="node">
<title>Node4</title>
<g id="a_Node000004"><a xlink:href="class_g_e_drawing_context.html#aadd6a6e9fe0b128b7559c1066a94f153" target="_top" xlink:title="Obtiene la extensión de la imagen.">
<polygon fill="white" stroke="#666666" points="286.62,-20 137.88,-20 137.88,0 286.62,0 286.62,-20"/>
<text xml:space="preserve" text-anchor="middle" x="212.25" y="-6.5" font-family="Helvetica,sans-Serif" font-size="10.00">GEDrawingContext::getExtent</text>
</a>
</g>
</g>
<!-- Node1&#45;&gt;Node4 -->
<g id="edge3_Node000001_Node000004" class="edge">
<title>Node1&#45;&gt;Node4</title>
<g id="a_edge3_Node000001_Node000004"><a xlink:title=" ">
<path fill="none" stroke="#63b8ff" d="M94.94,-37.52C113.81,-33.05 136.03,-27.79 155.96,-23.08"/>
<polygon fill="#63b8ff" stroke="#63b8ff" points="156.68,-26.51 165.61,-20.8 155.07,-19.69 156.68,-26.51"/>
</a>
</g>
</g>
</g>
</svg>
