<?xml version="1.0" encoding="UTF-8" standalone="no"?>
<!DOCTYPE svg PUBLIC "-//W3C//DTD SVG 1.1//EN"
 "http://www.w3.org/Graphics/SVG/1.1/DTD/svg11.dtd">
<!-- Generated by graphviz version 14.1.2 (20260124.0452)
 -->
<!-- Title: GEApplication::initWindow Pages: 1 -->
<!--zoomable 178 -->

<svg id="main" version="1.1" xmlns="http://www.w3.org/2000/svg" xmlns:xlink="http://www.w3.org/1999/xlink" xml:space="preserve" onload="init(evt)">

<style type="text/css"><![CDATA[
.node, .edge {opacity: 0.7;}
.node.selected, .edge.selected {opacity: 1;}
.edge:hover path { stroke: red; }
.edge:hover polygon { stroke: red; fill: red; }
]]></style>

<defs>
  <circle id="rim" cx="0" cy="0" r="7"/>
  <circle id="rim2" cx="0" cy="0" r="3.5"/>
  <g id="zoomPlus">
    <use xlink:href="#rim" fill="#404040"><set attributeName="fill" to="#808080" begin="zoomplus.mouseover" end="zoomplus.mouseout"/></use>
    <path d="M-4,0h8M0,-4v8" fill="none" stroke="white" stroke-width="1.5" pointer-events="none"/>
  </g>
  <g id="zoomMin">
    <use xlink:href="#rim" fill="#404040"><set attributeName="fill" to="#808080" begin="zoomminus.mouseover" end="zoomminus.mouseout"/></use>
    <path d="M-4,0h8" fill="none" stroke="white" stroke-width="1.5" pointer-events="none"/>
  </g>
  <g id="arrowUp" transform="translate(30 24)">
    <use xlink:href="#rim"/>
    <path pointer-events="none" fill="none" stroke="white" stroke-width="1.5" d="M0,-3.0v7 M-2.5,-0.5L0,-3.0L2.5,-0.5"/>
  </g>
  <g id="arrowRight" transform="rotate(90) translate(36 -43)">
    <use xlink:href="#rim"/>
    <path pointer-events="none" fill="none" stroke="white" stroke-width="1.5" d="M0,-3.0v7 M-2.5,-0.5L0,-3.0L2.5,-0.5"/>
  </g>
  <g id="arrowDown" transform="rotate(180) translate(-30 -48)">
    <use xlink:href="#rim"/>
    <path pointer-events="none" fill="none" stroke="white" stroke-width="1.5" d="M0,-3.0v7 M-2.5,-0.5L0,-3.0L2.5,-0.5"/>
  </g>
  <g id="arrowLeft" transform="rotate(270) translate(-36 17)">
    <use xlink:href="#rim"/>
    <path pointer-events="none" fill="none" stroke="white" stroke-width="1.5" d="M0,-3.0v7 M-2.5,-0.5L0,-3.0L2.5,-0.5"/>
  </g>
  <g id="resetDef">
    <use xlink:href="#rim2" fill="#404040"><set attributeName="fill" to="#808080" begin="reset.mouseover" end="reset.mouseout"/></use>
  </g>
</defs>
<script type="application/ecmascript">
var viewWidth = 513;
var viewHeight = 178;
var sectionId = 'dynsection-6';
</script>
<script type="application/ecmascript" xlink:href="svg.min.js"/>
<svg id="graph" class="graph">
<g id="viewport">
<title>GEApplication::initWindow</title>
<!-- Node1 -->
<g id="Node000001" class="node">
<title>Node1</title>
<g id="a_Node000001"><a xlink:title="Inicializa la ventana GLFW.">
<polygon fill="#999999" stroke="#666666" points="132.25,-92 0,-92 0,-72 132.25,-72 132.25,-92"/>
<text xml:space="preserve" text-anchor="middle" x="66.12" y="-78.5" font-family="Helvetica,sans-Serif" font-size="10.00">GEApplication::initWindow</text>
</a>
</g>
</g>
<!-- Node2 -->
<g id="Node000002" class="node">
<title>Node2</title>
<g id="a_Node000002"><a xlink:href="class_g_e_application.html#a028396b9bae6c5697fc358e8260b3312" target="_top" xlink:title="Respuesta a un evento de movimiento del cursor.">
<polygon fill="white" stroke="#666666" points="314.75,-170 168.25,-170 168.25,-138 314.75,-138 314.75,-170"/>
<text xml:space="preserve" text-anchor="start" x="176.25" y="-156.5" font-family="Helvetica,sans-Serif" font-size="10.00">GEApplication::cursorPosition</text>
<text xml:space="preserve" text-anchor="middle" x="241.5" y="-144.5" font-family="Helvetica,sans-Serif" font-size="10.00">Callback</text>
</a>
</g>
</g>
<!-- Node1&#45;&gt;Node2 -->
<g id="edge1_Node000001_Node000002" class="edge">
<title>Node1&#45;&gt;Node2</title>
<g id="a_edge1_Node000001_Node000002"><a xlink:title=" ">
<path fill="none" stroke="#63b8ff" d="M87.77,-92.35C108.02,-102.32 139.89,-117.54 168.25,-129 172.11,-130.56 176.1,-132.11 180.15,-133.63"/>
<polygon fill="#63b8ff" stroke="#63b8ff" points="178.88,-136.9 189.47,-137.06 181.29,-130.33 178.88,-136.9"/>
</a>
</g>
</g>
<!-- Node3 -->
<g id="Node000003" class="node">
<title>Node3</title>
<g id="a_Node000003"><a xlink:href="class_g_e_application.html#ae38335734c12fd0bac757536085068fa" target="_top" xlink:title="Respuesta a un evento de redimensionamiento de la ventana.">
<polygon fill="white" stroke="#666666" points="308,-120 175,-120 175,-88 308,-88 308,-120"/>
<text xml:space="preserve" text-anchor="start" x="183" y="-106.5" font-family="Helvetica,sans-Serif" font-size="10.00">GEApplication::framebuffer</text>
<text xml:space="preserve" text-anchor="middle" x="241.5" y="-94.5" font-family="Helvetica,sans-Serif" font-size="10.00">ResizeCallback</text>
</a>
</g>
</g>
<!-- Node1&#45;&gt;Node3 -->
<g id="edge2_Node000001_Node000003" class="edge">
<title>Node1&#45;&gt;Node3</title>
<g id="a_edge2_Node000001_Node000003"><a xlink:title=" ">
<path fill="none" stroke="#63b8ff" d="M132.67,-90.32C142.63,-91.58 152.99,-92.9 163.18,-94.19"/>
<polygon fill="#63b8ff" stroke="#63b8ff" points="162.71,-97.66 173.07,-95.44 163.59,-90.71 162.71,-97.66"/>
</a>
</g>
</g>
<!-- Node5 -->
<g id="Node000005" class="node">
<title>Node5</title>
<g id="a_Node000005"><a xlink:href="class_g_e_application.html#aff889e80a2c5e7e0bf9b530b7ae3cc16" target="_top" xlink:title="Respuesta a un evento de teclado.">
<polygon fill="white" stroke="#666666" points="310.62,-70 172.38,-70 172.38,-50 310.62,-50 310.62,-70"/>
<text xml:space="preserve" text-anchor="middle" x="241.5" y="-56.5" font-family="Helvetica,sans-Serif" font-size="10.00">GEApplication::keyCallback</text>
</a>
</g>
</g>
<!-- Node1&#45;&gt;Node5 -->
<g id="edge4_Node000001_Node000005" class="edge">
<title>Node1&#45;&gt;Node5</title>
<g id="a_edge4_Node000001_Node000005"><a xlink:title=" ">
<path fill="none" stroke="#63b8ff" d="M132.67,-73.68C141.81,-72.52 151.27,-71.32 160.64,-70.13"/>
<polygon fill="#63b8ff" stroke="#63b8ff" points="160.99,-73.62 170.47,-68.89 160.11,-66.67 160.99,-73.62"/>
</a>
</g>
</g>
<!-- Node8 -->
<g id="Node000008" class="node">
<title>Node8</title>
<g id="a_Node000008"><a xlink:href="class_g_e_application.html#a41dd9caf88a4ca14c2c177076ce4ecfd" target="_top" xlink:title="Respuesta a un evento de botón de ratón.">
<polygon fill="white" stroke="#666666" points="312.5,-32 170.5,-32 170.5,0 312.5,0 312.5,-32"/>
<text xml:space="preserve" text-anchor="start" x="178.5" y="-18.5" font-family="Helvetica,sans-Serif" font-size="10.00">GEApplication::mouseButton</text>
<text xml:space="preserve" text-anchor="middle" x="241.5" y="-6.5" font-family="Helvetica,sans-Serif" font-size="10.00">Callback</text>
</a>
</g>
</g>
<!-- Node1&#45;&gt;Node8 -->
<g id="edge7_Node000001_Node000008" class="edge">
<title>Node1&#45;&gt;Node8</title>
<g id="a_edge7_Node000001_Node000008"><a xlink:title=" ">
<path fill="none" stroke="#63b8ff" d="M91.92,-71.53C112.3,-63.02 142,-50.85 168.25,-41 172.4,-39.44 176.69,-37.87 181.02,-36.31"/>
<polygon fill="#63b8ff" stroke="#63b8ff" points="182.13,-39.63 190.37,-32.97 179.78,-33.03 182.13,-39.63"/>
</a>
</g>
</g>
<!-- Node4 -->
<g id="Node000004" class="node">
<title>Node4</title>
<g id="a_Node000004"><a xlink:href="class_g_e_application.html#aba108b6e4e758a6ffa21bf644bce3ab8" target="_top" xlink:title="Reconstruye los objetos con el nuevo tamaño de ventana.">
<polygon fill="white" stroke="#666666" points="483,-114 372.5,-114 372.5,-94 483,-94 483,-114"/>
<text xml:space="preserve" text-anchor="middle" x="427.75" y="-100.5" font-family="Helvetica,sans-Serif" font-size="10.00">GEApplication::resize</text>
</a>
</g>
</g>
<!-- Node3&#45;&gt;Node4 -->
<g id="edge3_Node000003_Node000004" class="edge">
<title>Node3&#45;&gt;Node4</title>
<g id="a_edge3_Node000003_Node000004"><a xlink:title=" ">
<path fill="none" stroke="#63b8ff" d="M308.5,-104C325.45,-104 343.68,-104 360.63,-104"/>
<polygon fill="#63b8ff" stroke="#63b8ff" points="360.62,-107.5 370.62,-104 360.62,-100.5 360.62,-107.5"/>
</a>
</g>
</g>
<!-- Node6 -->
<g id="Node000006" class="node">
<title>Node6</title>
<g id="a_Node000006"><a xlink:href="class_g_e_scene.html#a971e9b981ad219b661db89f03f6d3179" target="_top" xlink:title="Maneja acciones de teclado.">
<polygon fill="white" stroke="#666666" points="483.38,-73 372.12,-73 372.12,-53 483.38,-53 483.38,-73"/>
<text xml:space="preserve" text-anchor="middle" x="427.75" y="-59.5" font-family="Helvetica,sans-Serif" font-size="10.00">GEScene::key_action</text>
</a>
</g>
</g>
<!-- Node5&#45;&gt;Node6 -->
<g id="edge5_Node000005_Node000006" class="edge">
<title>Node5&#45;&gt;Node6</title>
<g id="a_edge5_Node000005_Node000006"><a xlink:title=" ">
<path fill="none" stroke="#63b8ff" d="M311.11,-61.12C327.24,-61.38 344.41,-61.66 360.45,-61.92"/>
<polygon fill="#63b8ff" stroke="#63b8ff" points="360.32,-65.42 370.38,-62.08 360.43,-58.42 360.32,-65.42"/>
</a>
</g>
</g>
<!-- Node7 -->
<g id="Node000007" class="node">
<title>Node7</title>
<g id="a_Node000007"><a xlink:href="class_g_e_application.html#ae1a2c4de09efffbc0a40eb0f1505cf96" target="_top" xlink:title="Cambia entre pantalla completa y modo ventana.">
<polygon fill="white" stroke="#666666" points="504.75,-35 350.75,-35 350.75,-15 504.75,-15 504.75,-35"/>
<text xml:space="preserve" text-anchor="middle" x="427.75" y="-21.5" font-family="Helvetica,sans-Serif" font-size="10.00">GEApplication::swapFullScreen</text>
</a>
</g>
</g>
<!-- Node5&#45;&gt;Node7 -->
<g id="edge6_Node000005_Node000007" class="edge">
<title>Node5&#45;&gt;Node7</title>
<g id="a_edge6_Node000005_Node000007"><a xlink:title=" ">
<path fill="none" stroke="#63b8ff" d="M297.28,-49.59C317.06,-45.84 339.61,-41.55 360.28,-37.63"/>
<polygon fill="#63b8ff" stroke="#63b8ff" points="360.88,-41.07 370.06,-35.77 359.58,-34.2 360.88,-41.07"/>
</a>
</g>
</g>
</g>
</svg>

<g id="navigator" transform="translate(0 0)" fill="#404254">
  <rect fill="#f2f5e9" fill-opacity="0.5" stroke="#606060" stroke-width=".5" x="0" y="0" width="60" height="60"/>
  <use id="zoomplus" xlink:href="#zoomPlus" x="17" y="9" onmousedown="handleZoom(evt,'in')"/>
  <use id="zoomminus" xlink:href="#zoomMin" x="42" y="9" onmousedown="handleZoom(evt,'out')"/>
  <use id="reset" xlink:href="#resetDef" x="30" y="36" onmousedown="handleReset()"/>
   <use id="arrowup" xlink:href="#arrowUp" x="0" y="0" onmousedown="handlePan(0,-1)"/>
  <use id="arrowright" xlink:href="#arrowRight" x="0" y="0" onmousedown="handlePan(1,0)"/>
  <use id="arrowdown" xlink:href="#arrowDown" x="0" y="0" onmousedown="handlePan(0,1)"/>
  <use id="arrowleft" xlink:href="#arrowLeft" x="0" y="0" onmousedown="handlePan(-1,0)"/>
</g>
<svg viewBox="0 0 15 15" width="100%" height="30px" preserveAspectRatio="xMaxYMin meet">
 <g id="arrow_out" transform="scale(0.3 0.3)">
  <a xlink:href="class_g_e_application_ae473a6cb8cc8aa8a76a19a8df91d6e49_cgraph_org.svg" target="_base">
   <rect id="button" ry="5" rx="5" y="6" x="6" height="38" width="38"
        fill="#f2f5e9" fill-opacity="0.5" stroke="#606060" stroke-width="1.0"/>
   <path id="arrow"
     d="M 11.500037,31.436501 C 11.940474,20.09759 22.043105,11.32322 32.158766,21.979434 L 37.068811,17.246167 C 37.068811,17.246167 37.088388,32 37.088388,32 L 22.160133,31.978069 C 22.160133,31.978069 26.997745,27.140456 26.997745,27.140456 C 18.528582,18.264221 13.291696,25.230495 11.500037,31.436501 z"
     style="fill:#404040;"/>
  </a>
 </g>
</svg>

<style type='text/css'>
<![CDATA[
[data-mouse-over-selected='false'] { opacity: 0.7; }
[data-mouse-over-selected='true']  { opacity: 1.0; }
]]>
</style>
<script type="application/ecmascript"><![CDATA[
document.addEventListener('DOMContentLoaded', (event) => {
  highlightEdges();
  highlightAdjacentNodes();
});
]]></script>
</svg>
