<?xml version="1.0" encoding="UTF-8" standalone="no"?>
<!DOCTYPE svg PUBLIC "-//W3C//DTD SVG 1.1//EN"
 "http://www.w3.org/Graphics/SVG/1.1/DTD/svg11.dtd">
<!-- Generated by graphviz version 14.1.2 (20260124.0452)
 -->
<!-- Title: xpath_ast_node::xpath_ast_node Pages: 1 -->
<svg width="1591pt" height="826pt"
 viewBox="0.00 0.00 1591.00 826.00" xmlns="http://www.w3.org/2000/svg" xmlns:xlink="http://www.w3.org/1999/xlink">
<g id="graph0" class="graph" transform="scale(1 1) rotate(0) translate(4 822)">
<title>xpath_ast_node::xpath_ast_node</title>
<!-- Node1 -->
<g id="Node000001" class="node">
<title>Node1</title>
<g id="a_Node000001"><a xlink:title=" ">
<polygon fill="#999999" stroke="#666666" points="1582.75,-424 1467.75,-424 1467.75,-392 1582.75,-392 1582.75,-424"/>
<text xml:space="preserve" text-anchor="start" x="1475.75" y="-410.5" font-family="Helvetica,sans-Serif" font-size="10.00">xpath_ast_node::xpath</text>
<text xml:space="preserve" text-anchor="middle" x="1525.25" y="-398.5" font-family="Helvetica,sans-Serif" font-size="10.00">_ast_node</text>
</a>
</g>
</g>
<!-- Node1&#45;&gt;Node1 -->
<g id="edge63_Node000001_Node000001" class="edge">
<title>Node1&#45;&gt;Node1</title>
<g id="a_edge63_Node000001_Node000001"><a xlink:title=" ">
<path fill="none" stroke="#63b8ff" d="M1551.85,-435.71C1547.42,-439.48 1538.55,-442 1525.25,-442 1500.93,-442 1491.43,-433.58 1496.75,-424.44"/>
<polygon fill="#63b8ff" stroke="#63b8ff" points="1555.29,-436.38 1553.5,-425.94 1548.38,-435.22 1555.29,-436.38"/>
</a>
</g>
</g>
<!-- Node2 -->
<g id="Node000002" class="node">
<title>Node2</title>
<g id="a_Node000002"><a xlink:href="classxpath__ast__node.html#ab4e5bbd3f2e83c86a43349374b4bfc22" target="_top" xlink:title=" ">
<polygon fill="white" stroke="#666666" points="1422.75,-638 1308.5,-638 1308.5,-606 1422.75,-606 1422.75,-638"/>
<text xml:space="preserve" text-anchor="start" x="1316.5" y="-624.5" font-family="Helvetica,sans-Serif" font-size="10.00">xpath_ast_node::apply</text>
<text xml:space="preserve" text-anchor="middle" x="1365.62" y="-612.5" font-family="Helvetica,sans-Serif" font-size="10.00">_predicate_boolean</text>
</a>
</g>
</g>
<!-- Node1&#45;&gt;Node2 -->
<g id="edge1_Node000001_Node000002" class="edge">
<title>Node1&#45;&gt;Node2</title>
<g id="a_edge1_Node000001_Node000002"><a xlink:title=" ">
<path fill="none" stroke="#63b8ff" d="M1517.75,-435.28C1506.74,-475.88 1480.69,-552.22 1431.75,-597 1428.18,-600.27 1424.13,-603.13 1419.84,-605.63"/>
<polygon fill="#63b8ff" stroke="#63b8ff" points="1521.08,-436.39 1520.2,-425.83 1514.3,-434.63 1521.08,-436.39"/>
</a>
</g>
</g>
<!-- Node5 -->
<g id="Node000005" class="node">
<title>Node5</title>
<g id="a_Node000005"><a xlink:href="classxpath__ast__node.html#a98dd7f6e67fe2c56c63056eed835d6a4" target="_top" xlink:title=" ">
<polygon fill="white" stroke="#666666" points="915,-588 770.75,-588 770.75,-568 915,-568 915,-588"/>
<text xml:space="preserve" text-anchor="middle" x="842.88" y="-574.5" font-family="Helvetica,sans-Serif" font-size="10.00">xpath_ast_node::compare_eq</text>
</a>
</g>
</g>
<!-- Node1&#45;&gt;Node5 -->
<g id="edge30_Node000001_Node000005" class="edge">
<title>Node1&#45;&gt;Node5</title>
<g id="a_edge30_Node000001_Node000005"><a xlink:title=" ">
<path fill="none" stroke="#63b8ff" d="M1507.41,-433.51C1490.99,-456.1 1463.83,-487.92 1431.75,-504 1342.66,-548.65 1051.69,-568.1 915.45,-574.92"/>
<polygon fill="#63b8ff" stroke="#63b8ff" points="1510.22,-435.6 1513.11,-425.4 1504.49,-431.57 1510.22,-435.6"/>
</a>
</g>
</g>
<!-- Node8 -->
<g id="Node000008" class="node">
<title>Node8</title>
<g id="a_Node000008"><a xlink:href="classxpath__ast__node.html#abf2d4b745493f63aebc1c89d9fde8eed" target="_top" xlink:title=" ">
<polygon fill="white" stroke="#666666" points="267.5,-796 153.25,-796 153.25,-764 267.5,-764 267.5,-796"/>
<text xml:space="preserve" text-anchor="start" x="161.25" y="-782.5" font-family="Helvetica,sans-Serif" font-size="10.00">xpath_ast_node::apply</text>
<text xml:space="preserve" text-anchor="middle" x="210.38" y="-770.5" font-family="Helvetica,sans-Serif" font-size="10.00">_predicate_number</text>
</a>
</g>
</g>
<!-- Node1&#45;&gt;Node8 -->
<g id="edge25_Node000001_Node000008" class="edge">
<title>Node1&#45;&gt;Node8</title>
<g id="a_edge25_Node000001_Node000008"><a xlink:title=" ">
<path fill="none" stroke="#63b8ff" d="M1522.66,-435.61C1518.04,-492.03 1500.16,-621.86 1431.75,-701 1353.72,-791.26 1309.44,-818 1190.12,-818 1190.12,-818 1190.12,-818 534.25,-818 440.27,-818 331.96,-801.93 267.71,-790.69"/>
<polygon fill="#63b8ff" stroke="#63b8ff" points="1526.13,-436.16 1523.37,-425.94 1519.15,-435.65 1526.13,-436.16"/>
</a>
</g>
</g>
<!-- Node9 -->
<g id="Node000009" class="node">
<title>Node9</title>
<g id="a_Node000009"><a xlink:href="classxpath__ast__node.html#a8cedd7e15623b9fa431788b8843f1463" target="_top" xlink:title=" ">
<polygon fill="white" stroke="#666666" points="274.25,-591 146.5,-591 146.5,-559 274.25,-559 274.25,-591"/>
<text xml:space="preserve" text-anchor="start" x="154.5" y="-577.5" font-family="Helvetica,sans-Serif" font-size="10.00">xpath_ast_node::apply</text>
<text xml:space="preserve" text-anchor="middle" x="210.38" y="-565.5" font-family="Helvetica,sans-Serif" font-size="10.00">_predicate_number_const</text>
</a>
</g>
</g>
<!-- Node1&#45;&gt;Node9 -->
<g id="edge26_Node000001_Node000009" class="edge">
<title>Node1&#45;&gt;Node9</title>
<g id="a_edge26_Node000001_Node000009"><a xlink:title=" ">
<path fill="none" stroke="#63b8ff" d="M1482.15,-429.31C1466.63,-436.46 1448.7,-443.89 1431.75,-449 1327.46,-480.42 1299.05,-490 1190.12,-490 1190.12,-490 1190.12,-490 534.25,-490 427.6,-490 307.46,-533.91 248.32,-558.61"/>
<polygon fill="#63b8ff" stroke="#63b8ff" points="1483.55,-432.53 1491.1,-425.09 1480.56,-426.19 1483.55,-432.53"/>
</a>
</g>
</g>
<!-- Node10 -->
<g id="Node000010" class="node">
<title>Node10</title>
<g id="a_Node000010"><a xlink:href="classxpath__ast__node.html#abb6e4c529276eaf882233dbb6e04e111" target="_top" xlink:title=" ">
<polygon fill="white" stroke="#666666" points="282.5,-443 138.25,-443 138.25,-423 282.5,-423 282.5,-443"/>
<text xml:space="preserve" text-anchor="middle" x="210.38" y="-429.5" font-family="Helvetica,sans-Serif" font-size="10.00">xpath_ast_node::compare_rel</text>
</a>
</g>
</g>
<!-- Node1&#45;&gt;Node10 -->
<g id="edge31_Node000001_Node000010" class="edge">
<title>Node1&#45;&gt;Node10</title>
<g id="a_edge31_Node000001_Node000010"><a xlink:title=" ">
<path fill="none" stroke="#63b8ff" d="M1461.8,-427.26C1451.84,-429.64 1441.57,-431.7 1431.75,-433 1373.48,-440.74 1358.22,-435.7 1299.5,-433 1023.85,-420.32 957.19,-376 681.25,-376 681.25,-376 681.25,-376 534.25,-376 428.38,-376 305.91,-406.09 246.85,-422.55"/>
<polygon fill="#63b8ff" stroke="#63b8ff" points="1462.58,-430.68 1471.42,-424.83 1460.86,-423.89 1462.58,-430.68"/>
</a>
</g>
</g>
<!-- Node12 -->
<g id="Node000012" class="node">
<title>Node12</title>
<g id="a_Node000012"><a xlink:href="classxpath__ast__node.html#af025a480dab7dd0bab21157fb9dd3e73" target="_top" xlink:title=" ">
<polygon fill="white" stroke="#666666" points="1422.75,-588 1308.5,-588 1308.5,-556 1422.75,-556 1422.75,-588"/>
<text xml:space="preserve" text-anchor="start" x="1316.5" y="-574.5" font-family="Helvetica,sans-Serif" font-size="10.00">xpath_ast_node::apply</text>
<text xml:space="preserve" text-anchor="middle" x="1365.62" y="-562.5" font-family="Helvetica,sans-Serif" font-size="10.00">_predicates</text>
</a>
</g>
</g>
<!-- Node1&#45;&gt;Node12 -->
<g id="edge27_Node000001_Node000012" class="edge">
<title>Node1&#45;&gt;Node12</title>
<g id="a_edge27_Node000001_Node000012"><a xlink:title=" ">
<path fill="none" stroke="#63b8ff" d="M1511.71,-434.08C1496.39,-463.6 1467.98,-511.54 1431.75,-542 1425.56,-547.21 1418.31,-551.7 1410.94,-555.52"/>
<polygon fill="#63b8ff" stroke="#63b8ff" points="1514.68,-435.96 1516.07,-425.45 1508.43,-432.8 1514.68,-435.96"/>
</a>
</g>
</g>
<!-- Node14 -->
<g id="Node000014" class="node">
<title>Node14</title>
<g id="a_Node000014"><a xlink:href="classxpath__ast__node.html#aaf931a091af0fb91c25e90b205363b4e" target="_top" xlink:title=" ">
<polygon fill="white" stroke="#666666" points="734.75,-714 625.75,-714 625.75,-682 734.75,-682 734.75,-714"/>
<text xml:space="preserve" text-anchor="start" x="633.75" y="-700.5" font-family="Helvetica,sans-Serif" font-size="10.00">xpath_ast_node::eval</text>
<text xml:space="preserve" text-anchor="middle" x="680.25" y="-688.5" font-family="Helvetica,sans-Serif" font-size="10.00">_string_concat</text>
</a>
</g>
</g>
<!-- Node1&#45;&gt;Node14 -->
<g id="edge32_Node000001_Node000014" class="edge">
<title>Node1&#45;&gt;Node14</title>
<g id="a_edge32_Node000001_Node000014"><a xlink:title=" ">
<path fill="none" stroke="#63b8ff" d="M1521.19,-435.52C1514.26,-484.79 1492.9,-588.4 1431.75,-647 1237.74,-832.91 870.8,-752.93 734.22,-714.37"/>
<polygon fill="#63b8ff" stroke="#63b8ff" points="1524.64,-436.09 1522.46,-425.72 1517.7,-435.19 1524.64,-436.09"/>
</a>
</g>
</g>
<!-- Node15 -->
<g id="Node000015" class="node">
<title>Node15</title>
<g id="a_Node000015"><a xlink:href="classxpath__ast__node.html#a4a5fe9e58381f9a303db4baedda59b67" target="_top" xlink:title=" ">
<polygon fill="white" stroke="#666666" points="1414.88,-424 1316.38,-424 1316.38,-392 1414.88,-392 1414.88,-424"/>
<text xml:space="preserve" text-anchor="start" x="1324.38" y="-410.5" font-family="Helvetica,sans-Serif" font-size="10.00">xpath_ast_node::is</text>
<text xml:space="preserve" text-anchor="middle" x="1365.62" y="-398.5" font-family="Helvetica,sans-Serif" font-size="10.00">_posinv_expr</text>
</a>
</g>
</g>
<!-- Node1&#45;&gt;Node15 -->
<g id="edge34_Node000001_Node000015" class="edge">
<title>Node1&#45;&gt;Node15</title>
<g id="a_edge34_Node000001_Node000015"><a xlink:title=" ">
<path fill="none" stroke="#63b8ff" d="M1455.94,-408C1442.2,-408 1428.02,-408 1415.12,-408"/>
<polygon fill="#63b8ff" stroke="#63b8ff" points="1455.83,-411.5 1465.83,-408 1455.83,-404.5 1455.83,-411.5"/>
</a>
</g>
</g>
<!-- Node16 -->
<g id="Node000016" class="node">
<title>Node16</title>
<g id="a_Node000016"><a xlink:href="classxpath__ast__node.html#aac1162512c42ef38e35a9ba7ce994b91" target="_top" xlink:title=" ">
<polygon fill="white" stroke="#666666" points="1414.88,-374 1316.38,-374 1316.38,-342 1414.88,-342 1414.88,-374"/>
<text xml:space="preserve" text-anchor="start" x="1324.38" y="-360.5" font-family="Helvetica,sans-Serif" font-size="10.00">xpath_ast_node::is</text>
<text xml:space="preserve" text-anchor="middle" x="1365.62" y="-348.5" font-family="Helvetica,sans-Serif" font-size="10.00">_posinv_step</text>
</a>
</g>
</g>
<!-- Node1&#45;&gt;Node16 -->
<g id="edge35_Node000001_Node000016" class="edge">
<title>Node1&#45;&gt;Node16</title>
<g id="a_edge35_Node000001_Node000016"><a xlink:title=" ">
<path fill="none" stroke="#63b8ff" d="M1462.03,-388.26C1446.44,-383.32 1429.95,-378.09 1415.14,-373.39"/>
<polygon fill="#63b8ff" stroke="#63b8ff" points="1460.6,-391.48 1471.19,-391.17 1462.72,-384.81 1460.6,-391.48"/>
</a>
</g>
</g>
<!-- Node19 -->
<g id="Node000019" class="node">
<title>Node19</title>
<g id="a_Node000019"><a xlink:href="classxpath__ast__node.html#ac9d33c06470bf77afa756e16aab91ced" target="_top" xlink:title=" ">
<polygon fill="white" stroke="#666666" points="1431.75,-324 1299.5,-324 1299.5,-304 1431.75,-304 1431.75,-324"/>
<text xml:space="preserve" text-anchor="middle" x="1365.62" y="-310.5" font-family="Helvetica,sans-Serif" font-size="10.00">xpath_ast_node::operator=</text>
</a>
</g>
</g>
<!-- Node1&#45;&gt;Node19 -->
<g id="edge38_Node000001_Node000019" class="edge">
<title>Node1&#45;&gt;Node19</title>
<g id="a_edge38_Node000001_Node000019"><a xlink:title=" ">
<path fill="none" stroke="#63b8ff" d="M1500.31,-384.06C1482.68,-367.63 1457.4,-346.44 1431.75,-333 1425.39,-329.67 1418.36,-326.84 1411.34,-324.47"/>
<polygon fill="#63b8ff" stroke="#63b8ff" points="1497.57,-386.28 1507.22,-390.65 1502.39,-381.21 1497.57,-386.28"/>
</a>
</g>
</g>
<!-- Node20 -->
<g id="Node000020" class="node">
<title>Node20</title>
<g id="a_Node000020"><a xlink:href="classxpath__ast__node.html#a2764184d076834284eb3ff3182b845cc" target="_top" xlink:title=" ">
<polygon fill="white" stroke="#666666" points="1429.88,-248 1301.38,-248 1301.38,-228 1429.88,-228 1429.88,-248"/>
<text xml:space="preserve" text-anchor="middle" x="1365.62" y="-234.5" font-family="Helvetica,sans-Serif" font-size="10.00">xpath_ast_node::set_next</text>
</a>
</g>
</g>
<!-- Node1&#45;&gt;Node20 -->
<g id="edge39_Node000001_Node000020" class="edge">
<title>Node1&#45;&gt;Node20</title>
<g id="a_edge39_Node000001_Node000020"><a xlink:title=" ">
<path fill="none" stroke="#63b8ff" d="M1513.59,-380.98C1499.48,-348.46 1471.63,-294.22 1431.75,-262 1424.63,-256.24 1415.99,-251.79 1407.37,-248.37"/>
<polygon fill="#63b8ff" stroke="#63b8ff" points="1510.33,-382.25 1517.42,-390.11 1516.78,-379.54 1510.33,-382.25"/>
</a>
</g>
</g>
<!-- Node31 -->
<g id="Node000031" class="node">
<title>Node31</title>
<g id="a_Node000031"><a xlink:href="classxpath__ast__node.html#afe044146db852b7d4dbf188fd2ff6c75" target="_top" xlink:title=" ">
<polygon fill="white" stroke="#666666" points="895.12,-298 790.62,-298 790.62,-266 895.12,-266 895.12,-298"/>
<text xml:space="preserve" text-anchor="start" x="798.62" y="-284.5" font-family="Helvetica,sans-Serif" font-size="10.00">xpath_ast_node::set</text>
<text xml:space="preserve" text-anchor="middle" x="842.88" y="-272.5" font-family="Helvetica,sans-Serif" font-size="10.00">_right</text>
</a>
</g>
</g>
<!-- Node1&#45;&gt;Node31 -->
<g id="edge58_Node000001_Node000031" class="edge">
<title>Node1&#45;&gt;Node31</title>
<g id="a_edge58_Node000001_Node000031"><a xlink:title=" ">
<path fill="none" stroke="#63b8ff" d="M1511.53,-381.87C1496.64,-354.57 1469.17,-313.24 1431.75,-295 1338.15,-249.38 1020.42,-268.21 895.2,-277.74"/>
<polygon fill="#63b8ff" stroke="#63b8ff" points="1508.35,-383.33 1516.09,-390.57 1514.55,-380.08 1508.35,-383.33"/>
</a>
</g>
</g>
<!-- Node32 -->
<g id="Node000032" class="node">
<title>Node32</title>
<g id="a_Node000032"><a xlink:href="classxpath__ast__node.html#a7cf74b277deba86a6575796c727fe458" target="_top" xlink:title=" ">
<polygon fill="white" stroke="#666666" points="1423.12,-210 1308.12,-210 1308.12,-178 1423.12,-178 1423.12,-210"/>
<text xml:space="preserve" text-anchor="start" x="1316.12" y="-196.5" font-family="Helvetica,sans-Serif" font-size="10.00">xpath_ast_node::xpath</text>
<text xml:space="preserve" text-anchor="middle" x="1365.62" y="-184.5" font-family="Helvetica,sans-Serif" font-size="10.00">_ast_node</text>
</a>
</g>
</g>
<!-- Node1&#45;&gt;Node32 -->
<g id="edge60_Node000001_Node000032" class="edge">
<title>Node1&#45;&gt;Node32</title>
<g id="a_edge60_Node000001_Node000032"><a xlink:title=" ">
<path fill="none" stroke="#63b8ff" d="M1517.75,-380.72C1506.74,-340.12 1480.69,-263.78 1431.75,-219 1428.18,-215.73 1424.13,-212.87 1419.84,-210.37"/>
<polygon fill="#63b8ff" stroke="#63b8ff" points="1514.3,-381.37 1520.2,-390.17 1521.08,-379.61 1514.3,-381.37"/>
</a>
</g>
</g>
<!-- Node33 -->
<g id="Node000033" class="node">
<title>Node33</title>
<g id="a_Node000033"><a xlink:href="classxpath__ast__node.html#aef76c6d41da27404909e62437fc9f02c" target="_top" xlink:title=" ">
<polygon fill="white" stroke="#666666" points="1423.12,-160 1308.12,-160 1308.12,-128 1423.12,-128 1423.12,-160"/>
<text xml:space="preserve" text-anchor="start" x="1316.12" y="-146.5" font-family="Helvetica,sans-Serif" font-size="10.00">xpath_ast_node::xpath</text>
<text xml:space="preserve" text-anchor="middle" x="1365.62" y="-134.5" font-family="Helvetica,sans-Serif" font-size="10.00">_ast_node</text>
</a>
</g>
</g>
<!-- Node1&#45;&gt;Node33 -->
<g id="edge61_Node000001_Node000033" class="edge">
<title>Node1&#45;&gt;Node33</title>
<g id="a_edge61_Node000001_Node000033"><a xlink:title=" ">
<path fill="none" stroke="#63b8ff" d="M1520.9,-380.36C1513.55,-331.33 1491.58,-228.66 1431.75,-169 1428.49,-165.75 1424.77,-162.91 1420.78,-160.44"/>
<polygon fill="#63b8ff" stroke="#63b8ff" points="1517.41,-380.7 1522.26,-390.12 1524.35,-379.73 1517.41,-380.7"/>
</a>
</g>
</g>
<!-- Node34 -->
<g id="Node000034" class="node">
<title>Node34</title>
<g id="a_Node000034"><a xlink:href="classxpath__ast__node.html#add446c54b5ed7bd368fd6a5e63a48a8c" target="_top" xlink:title=" ">
<polygon fill="white" stroke="#666666" points="1423.12,-110 1308.12,-110 1308.12,-78 1423.12,-78 1423.12,-110"/>
<text xml:space="preserve" text-anchor="start" x="1316.12" y="-96.5" font-family="Helvetica,sans-Serif" font-size="10.00">xpath_ast_node::xpath</text>
<text xml:space="preserve" text-anchor="middle" x="1365.62" y="-84.5" font-family="Helvetica,sans-Serif" font-size="10.00">_ast_node</text>
</a>
</g>
</g>
<!-- Node1&#45;&gt;Node34 -->
<g id="edge62_Node000001_Node000034" class="edge">
<title>Node1&#45;&gt;Node34</title>
<g id="a_edge62_Node000001_Node000034"><a xlink:title=" ">
<path fill="none" stroke="#63b8ff" d="M1523.11,-380.68C1519.31,-324.35 1502.87,-194.28 1431.75,-119 1428.67,-115.74 1425.12,-112.9 1421.31,-110.43"/>
<polygon fill="#63b8ff" stroke="#63b8ff" points="1519.59,-380.55 1523.67,-390.33 1526.58,-380.14 1519.59,-380.55"/>
</a>
</g>
</g>
<!-- Node3 -->
<g id="Node000003" class="node">
<title>Node3</title>
<g id="a_Node000003"><a xlink:href="classxpath__ast__node.html#a7e35f265c9e0712a16e1d8a9db4c7672" target="_top" xlink:title=" ">
<polygon fill="white" stroke="#666666" points="1246.25,-695 1132,-695 1132,-663 1246.25,-663 1246.25,-695"/>
<text xml:space="preserve" text-anchor="start" x="1140" y="-681.5" font-family="Helvetica,sans-Serif" font-size="10.00">xpath_ast_node::apply</text>
<text xml:space="preserve" text-anchor="middle" x="1189.12" y="-669.5" font-family="Helvetica,sans-Serif" font-size="10.00">_predicate</text>
</a>
</g>
</g>
<!-- Node2&#45;&gt;Node3 -->
<g id="edge2_Node000002_Node000003" class="edge">
<title>Node2&#45;&gt;Node3</title>
<g id="a_edge2_Node000002_Node000003"><a xlink:title=" ">
<path fill="none" stroke="#63b8ff" d="M1303.31,-642.03C1282.76,-648.74 1260.1,-656.14 1240.48,-662.55"/>
<polygon fill="#63b8ff" stroke="#63b8ff" points="1304.29,-645.39 1312.71,-638.96 1302.12,-638.73 1304.29,-645.39"/>
</a>
</g>
</g>
<!-- Node4 -->
<g id="Node000004" class="node">
<title>Node4</title>
<g id="a_Node000004"><a xlink:href="classxpath__ast__node.html#a68cace396dd4eeae67ecfcd34a3a8285" target="_top" xlink:title=" ">
<polygon fill="white" stroke="#666666" points="1069.38,-629 960.38,-629 960.38,-597 1069.38,-597 1069.38,-629"/>
<text xml:space="preserve" text-anchor="start" x="968.38" y="-615.5" font-family="Helvetica,sans-Serif" font-size="10.00">xpath_ast_node::eval</text>
<text xml:space="preserve" text-anchor="middle" x="1014.88" y="-603.5" font-family="Helvetica,sans-Serif" font-size="10.00">_node_set</text>
</a>
</g>
</g>
<!-- Node3&#45;&gt;Node4 -->
<g id="edge3_Node000003_Node000004" class="edge">
<title>Node3&#45;&gt;Node4</title>
<g id="a_edge3_Node000003_Node000004"><a xlink:title=" ">
<path fill="none" stroke="#63b8ff" d="M1134.56,-658.48C1110.13,-649.12 1081.61,-638.19 1058.65,-629.39"/>
<polygon fill="#63b8ff" stroke="#63b8ff" points="1133.1,-661.66 1143.69,-661.97 1135.6,-655.13 1133.1,-661.66"/>
</a>
</g>
</g>
<!-- Node4&#45;&gt;Node5 -->
<g id="edge4_Node000004_Node000005" class="edge">
<title>Node4&#45;&gt;Node5</title>
<g id="a_edge4_Node000004_Node000005"><a xlink:title=" ">
<path fill="none" stroke="#63b8ff" d="M948.82,-599.61C930.89,-595.91 911.71,-591.97 894.71,-588.47"/>
<polygon fill="#63b8ff" stroke="#63b8ff" points="948.1,-603.03 958.6,-601.62 949.51,-596.18 948.1,-603.03"/>
</a>
</g>
</g>
<!-- Node6 -->
<g id="Node000006" class="node">
<title>Node6</title>
<g id="a_Node000006"><a xlink:href="classxpath__ast__node.html#ab7f965a92023bc2704b8e6fd9f3d7c14" target="_top" xlink:title=" ">
<polygon fill="white" stroke="#666666" points="734.75,-588 625.75,-588 625.75,-556 734.75,-556 734.75,-588"/>
<text xml:space="preserve" text-anchor="start" x="633.75" y="-574.5" font-family="Helvetica,sans-Serif" font-size="10.00">xpath_ast_node::eval</text>
<text xml:space="preserve" text-anchor="middle" x="680.25" y="-562.5" font-family="Helvetica,sans-Serif" font-size="10.00">_boolean</text>
</a>
</g>
</g>
<!-- Node4&#45;&gt;Node6 -->
<g id="edge23_Node000004_Node000006" class="edge">
<title>Node4&#45;&gt;Node6</title>
<g id="a_edge23_Node000004_Node000006"><a xlink:title=" ">
<path fill="none" stroke="#63b8ff" d="M948.47,-612.35C899.28,-610.98 830.39,-607.18 770.75,-597 758.35,-594.88 745.19,-591.73 732.9,-588.38"/>
<polygon fill="#63b8ff" stroke="#63b8ff" points="948.31,-615.85 958.39,-612.6 948.48,-608.85 948.31,-615.85"/>
</a>
</g>
</g>
<!-- Node4&#45;&gt;Node10 -->
<g id="edge22_Node000004_Node000010" class="edge">
<title>Node4&#45;&gt;Node10</title>
<g id="a_edge22_Node000004_Node000010"><a xlink:title=" ">
<path fill="none" stroke="#63b8ff" d="M992.32,-588.5C942.99,-535.31 815.75,-414 681.25,-414 681.25,-414 681.25,-414 534.25,-414 447.64,-414 348.18,-420.9 282.8,-426.38"/>
<polygon fill="#63b8ff" stroke="#63b8ff" points="989.47,-590.57 998.8,-595.6 994.64,-585.85 989.47,-590.57"/>
</a>
</g>
</g>
<!-- Node11 -->
<g id="Node000011" class="node">
<title>Node11</title>
<g id="a_Node000011"><a xlink:href="classxpath__ast__node.html#a6b675237a590548b68d0e0b97518b6df" target="_top" xlink:title=" ">
<polygon fill="white" stroke="#666666" points="589.75,-644 480.75,-644 480.75,-612 589.75,-612 589.75,-644"/>
<text xml:space="preserve" text-anchor="start" x="488.75" y="-630.5" font-family="Helvetica,sans-Serif" font-size="10.00">xpath_ast_node::eval</text>
<text xml:space="preserve" text-anchor="middle" x="535.25" y="-618.5" font-family="Helvetica,sans-Serif" font-size="10.00">_string</text>
</a>
</g>
</g>
<!-- Node4&#45;&gt;Node11 -->
<g id="edge24_Node000004_Node000011" class="edge">
<title>Node4&#45;&gt;Node11</title>
<g id="a_edge24_Node000004_Node000011"><a xlink:title=" ">
<path fill="none" stroke="#63b8ff" d="M948.51,-616.53C937.33,-617.07 925.84,-617.58 915,-618 799.32,-622.45 663.68,-625.51 590.2,-626.98"/>
<polygon fill="#63b8ff" stroke="#63b8ff" points="948.68,-620.02 958.49,-616.04 948.33,-613.03 948.68,-620.02"/>
</a>
</g>
</g>
<!-- Node5&#45;&gt;Node6 -->
<g id="edge5_Node000005_Node000006" class="edge">
<title>Node5&#45;&gt;Node6</title>
<g id="a_edge5_Node000005_Node000006"><a xlink:title=" ">
<path fill="none" stroke="#63b8ff" d="M759.01,-568.16C750.88,-567.87 742.79,-567.68 735.06,-567.6"/>
<polygon fill="#63b8ff" stroke="#63b8ff" points="758.84,-571.65 768.97,-568.56 759.12,-564.66 758.84,-571.65"/>
</a>
</g>
</g>
<!-- Node6&#45;&gt;Node2 -->
<g id="edge6_Node000006_Node000002" class="edge">
<title>Node6&#45;&gt;Node2</title>
<g id="a_edge6_Node000006_Node000002"><a xlink:title=" ">
<path fill="none" stroke="#63b8ff" d="M746.21,-561.44C754.45,-560.44 762.78,-559.58 770.75,-559 989.56,-543.19 1048.66,-543.62 1263.5,-588 1283.63,-592.16 1305.32,-599.1 1323.43,-605.64"/>
<polygon fill="#63b8ff" stroke="#63b8ff" points="746.03,-557.94 736.57,-562.7 746.94,-564.88 746.03,-557.94"/>
</a>
</g>
</g>
<!-- Node6&#45;&gt;Node5 -->
<g id="edge7_Node000006_Node000005" class="edge">
<title>Node6&#45;&gt;Node5</title>
<g id="a_edge7_Node000006_Node000005"><a xlink:title=" ">
<path fill="none" stroke="#63b8ff" d="M746.47,-581.08C754.38,-581.49 762.49,-581.81 770.49,-582.05"/>
<polygon fill="#63b8ff" stroke="#63b8ff" points="746.76,-577.59 736.57,-580.51 746.36,-584.58 746.76,-577.59"/>
</a>
</g>
</g>
<!-- Node7 -->
<g id="Node000007" class="node">
<title>Node7</title>
<g id="a_Node000007"><a xlink:href="classxpath__ast__node.html#a92dd7048e28d486bc7f382d1fc6f1de6" target="_top" xlink:title=" ">
<polygon fill="white" stroke="#666666" points="436.12,-591 327.12,-591 327.12,-559 436.12,-559 436.12,-591"/>
<text xml:space="preserve" text-anchor="start" x="335.12" y="-577.5" font-family="Helvetica,sans-Serif" font-size="10.00">xpath_ast_node::eval</text>
<text xml:space="preserve" text-anchor="middle" x="381.62" y="-565.5" font-family="Helvetica,sans-Serif" font-size="10.00">_number</text>
</a>
</g>
</g>
<!-- Node6&#45;&gt;Node7 -->
<g id="edge8_Node000006_Node000007" class="edge">
<title>Node6&#45;&gt;Node7</title>
<g id="a_edge8_Node000006_Node000007"><a xlink:title=" ">
<path fill="none" stroke="#63b8ff" d="M614.16,-566.96C560.88,-565.99 486.4,-566.86 436.44,-569.11"/>
<polygon fill="#63b8ff" stroke="#63b8ff" points="613.95,-570.46 624.02,-567.17 614.1,-563.46 613.95,-570.46"/>
</a>
</g>
</g>
<!-- Node6&#45;&gt;Node11 -->
<g id="edge21_Node000006_Node000011" class="edge">
<title>Node6&#45;&gt;Node11</title>
<g id="a_edge21_Node000006_Node000011"><a xlink:title=" ">
<path fill="none" stroke="#63b8ff" d="M614.9,-590.48C597.07,-597.31 578.64,-604.94 564.1,-611.62"/>
<polygon fill="#63b8ff" stroke="#63b8ff" points="616.05,-593.79 624.18,-586.99 613.59,-587.23 616.05,-593.79"/>
</a>
</g>
</g>
<!-- Node7&#45;&gt;Node5 -->
<g id="edge13_Node000007_Node000005" class="edge">
<title>Node7&#45;&gt;Node5</title>
<g id="a_edge13_Node000007_Node000005"><a xlink:title=" ">
<path fill="none" stroke="#63b8ff" d="M447.51,-561.33C518.36,-548.38 635.04,-532.86 734.75,-547 762.35,-550.91 792.8,-560.23 814.15,-567.64"/>
<polygon fill="#63b8ff" stroke="#63b8ff" points="447.22,-557.83 438.03,-563.1 448.5,-564.71 447.22,-557.83"/>
</a>
</g>
</g>
<!-- Node7&#45;&gt;Node6 -->
<g id="edge16_Node000007_Node000006" class="edge">
<title>Node7&#45;&gt;Node6</title>
<g id="a_edge16_Node000007_Node000006"><a xlink:title=" ">
<path fill="none" stroke="#63b8ff" d="M447.82,-580.04C501.13,-581.01 575.61,-580.14 625.53,-577.88"/>
<polygon fill="#63b8ff" stroke="#63b8ff" points="448.03,-576.55 437.96,-579.83 447.88,-583.54 448.03,-576.55"/>
</a>
</g>
</g>
<!-- Node7&#45;&gt;Node8 -->
<g id="edge9_Node000007_Node000008" class="edge">
<title>Node7&#45;&gt;Node8</title>
<g id="a_edge9_Node000007_Node000008"><a xlink:title=" ">
<path fill="none" stroke="#63b8ff" d="M359.91,-600.08C324.72,-642.71 254.21,-728.12 224.77,-763.78"/>
<polygon fill="#63b8ff" stroke="#63b8ff" points="362.43,-602.54 366.1,-592.6 357.03,-598.08 362.43,-602.54"/>
</a>
</g>
</g>
<!-- Node7&#45;&gt;Node9 -->
<g id="edge11_Node000007_Node000009" class="edge">
<title>Node7&#45;&gt;Node9</title>
<g id="a_edge11_Node000007_Node000009"><a xlink:title=" ">
<path fill="none" stroke="#63b8ff" d="M315.91,-575C302.37,-575 288.12,-575 274.64,-575"/>
<polygon fill="#63b8ff" stroke="#63b8ff" points="315.56,-578.5 325.56,-575 315.56,-571.5 315.56,-578.5"/>
</a>
</g>
</g>
<!-- Node7&#45;&gt;Node10 -->
<g id="edge14_Node000007_Node000010" class="edge">
<title>Node7&#45;&gt;Node10</title>
<g id="a_edge14_Node000007_Node000010"><a xlink:title=" ">
<path fill="none" stroke="#63b8ff" d="M352.81,-551.66C315.53,-520.39 250.95,-466.2 223.88,-443.49"/>
<polygon fill="#63b8ff" stroke="#63b8ff" points="350.14,-553.99 360.05,-557.74 354.64,-548.63 350.14,-553.99"/>
</a>
</g>
</g>
<!-- Node7&#45;&gt;Node11 -->
<g id="edge17_Node000007_Node000011" class="edge">
<title>Node7&#45;&gt;Node11</title>
<g id="a_edge17_Node000007_Node000011"><a xlink:title=" ">
<path fill="none" stroke="#63b8ff" d="M424.19,-595.62C441.53,-602.4 461.9,-609.65 480.37,-615.66"/>
<polygon fill="#63b8ff" stroke="#63b8ff" points="425.82,-592.51 415.23,-592.05 423.22,-599.01 425.82,-592.51"/>
</a>
</g>
</g>
<!-- Node8&#45;&gt;Node3 -->
<g id="edge10_Node000008_Node000003" class="edge">
<title>Node8&#45;&gt;Node3</title>
<g id="a_edge10_Node000008_Node000003"><a xlink:title=" ">
<path fill="none" stroke="#63b8ff" d="M279.32,-780C344.66,-780 446.21,-780 534.25,-780 681.25,-780 681.25,-780 681.25,-780 860.05,-780 905.45,-762 1078.75,-718 1102,-712.1 1127.27,-703.25 1147.66,-695.48"/>
<polygon fill="#63b8ff" stroke="#63b8ff" points="279.46,-776.5 269.46,-780 279.46,-783.5 279.46,-776.5"/>
</a>
</g>
</g>
<!-- Node9&#45;&gt;Node3 -->
<g id="edge12_Node000009_Node000003" class="edge">
<title>Node9&#45;&gt;Node3</title>
<g id="a_edge12_Node000009_Node000003"><a xlink:title=" ">
<path fill="none" stroke="#63b8ff" d="M255.29,-596.38C329.48,-631.19 485.32,-698.67 625.75,-723 721.88,-739.65 1009.05,-703.73 1131.64,-686.98"/>
<polygon fill="#63b8ff" stroke="#63b8ff" points="256.85,-593.25 246.31,-592.14 253.86,-599.58 256.85,-593.25"/>
</a>
</g>
</g>
<!-- Node10&#45;&gt;Node6 -->
<g id="edge15_Node000010_Node000006" class="edge">
<title>Node10&#45;&gt;Node6</title>
<g id="a_edge15_Node000010_Node000006"><a xlink:title=" ">
<path fill="none" stroke="#63b8ff" d="M257.4,-446.67C344.48,-472.54 532.91,-528.52 625.58,-556.05"/>
<polygon fill="#63b8ff" stroke="#63b8ff" points="258.58,-443.37 248,-443.88 256.59,-450.08 258.58,-443.37"/>
</a>
</g>
</g>
<!-- Node11&#45;&gt;Node5 -->
<g id="edge18_Node000011_Node000005" class="edge">
<title>Node11&#45;&gt;Node5</title>
<g id="a_edge18_Node000011_Node000005"><a xlink:title=" ">
<path fill="none" stroke="#63b8ff" d="M601.35,-618.18C640.12,-612.24 690.28,-604.41 734.75,-597 750.77,-594.33 768.12,-591.31 784.09,-588.47"/>
<polygon fill="#63b8ff" stroke="#63b8ff" points="601.07,-614.68 591.71,-619.65 602.13,-621.6 601.07,-614.68"/>
</a>
</g>
</g>
<!-- Node11&#45;&gt;Node6 -->
<g id="edge19_Node000011_Node000006" class="edge">
<title>Node11&#45;&gt;Node6</title>
<g id="a_edge19_Node000011_Node000006"><a xlink:title=" ">
<path fill="none" stroke="#63b8ff" d="M600.54,-609.54C618.37,-602.71 636.8,-595.08 651.34,-588.41"/>
<polygon fill="#63b8ff" stroke="#63b8ff" points="599.69,-606.12 591.57,-612.92 602.16,-612.67 599.69,-606.12"/>
</a>
</g>
</g>
<!-- Node11&#45;&gt;Node7 -->
<g id="edge20_Node000011_Node000007" class="edge">
<title>Node11&#45;&gt;Node7</title>
<g id="a_edge20_Node000011_Node000007"><a xlink:title=" ">
<path fill="none" stroke="#63b8ff" d="M492.8,-607.42C475.38,-600.61 454.89,-593.32 436.34,-587.29"/>
<polygon fill="#63b8ff" stroke="#63b8ff" points="491.21,-610.55 501.8,-611.01 493.81,-604.05 491.21,-610.55"/>
</a>
</g>
</g>
<!-- Node13 -->
<g id="Node000013" class="node">
<title>Node13</title>
<g id="a_Node000013"><a xlink:href="classxpath__ast__node.html#a3258c05ab9aaa78e154d2ff63fe56906" target="_top" xlink:title=" ">
<polygon fill="white" stroke="#666666" points="1251.88,-617 1126.38,-617 1126.38,-597 1251.88,-597 1251.88,-617"/>
<text xml:space="preserve" text-anchor="middle" x="1189.12" y="-603.5" font-family="Helvetica,sans-Serif" font-size="10.00">xpath_ast_node::step_do</text>
</a>
</g>
</g>
<!-- Node12&#45;&gt;Node13 -->
<g id="edge28_Node000012_Node000013" class="edge">
<title>Node12&#45;&gt;Node13</title>
<g id="a_edge28_Node000012_Node000013"><a xlink:title=" ">
<path fill="none" stroke="#63b8ff" d="M1297.29,-585.51C1279.06,-589.16 1259.6,-593.06 1242.34,-596.53"/>
<polygon fill="#63b8ff" stroke="#63b8ff" points="1297.85,-588.96 1306.97,-583.56 1296.47,-582.1 1297.85,-588.96"/>
</a>
</g>
</g>
<!-- Node13&#45;&gt;Node4 -->
<g id="edge29_Node000013_Node000004" class="edge">
<title>Node13&#45;&gt;Node4</title>
<g id="a_edge29_Node000013_Node000004"><a xlink:title=" ">
<path fill="none" stroke="#63b8ff" d="M1114.56,-609.56C1099.5,-610.09 1083.92,-610.63 1069.71,-611.12"/>
<polygon fill="#63b8ff" stroke="#63b8ff" points="1114.55,-613.06 1124.43,-609.22 1114.31,-606.07 1114.55,-613.06"/>
</a>
</g>
</g>
<!-- Node14&#45;&gt;Node11 -->
<g id="edge33_Node000014_Node000011" class="edge">
<title>Node14&#45;&gt;Node11</title>
<g id="a_edge33_Node000014_Node000011"><a xlink:title=" ">
<path fill="none" stroke="#63b8ff" d="M635.65,-676.66C614.4,-666.25 589.25,-653.94 569.57,-644.31"/>
<polygon fill="#63b8ff" stroke="#63b8ff" points="633.84,-679.67 644.36,-680.92 636.92,-673.38 633.84,-679.67"/>
</a>
</g>
</g>
<!-- Node17 -->
<g id="Node000017" class="node">
<title>Node17</title>
<g id="a_Node000017"><a xlink:href="classxpath__ast__node.html#a3eb089927cabd867a3a9d1b723aece0d" target="_top" xlink:title=" ">
<polygon fill="white" stroke="#666666" points="1263.5,-368 1114.75,-368 1114.75,-348 1263.5,-348 1263.5,-368"/>
<text xml:space="preserve" text-anchor="middle" x="1189.12" y="-354.5" font-family="Helvetica,sans-Serif" font-size="10.00">xpath_ast_node::optimize_self</text>
</a>
</g>
</g>
<!-- Node16&#45;&gt;Node17 -->
<g id="edge36_Node000016_Node000017" class="edge">
<title>Node16&#45;&gt;Node17</title>
<g id="a_edge36_Node000016_Node000017"><a xlink:title=" ">
<path fill="none" stroke="#63b8ff" d="M1304.74,-358C1291.61,-358 1277.55,-358 1263.94,-358"/>
<polygon fill="#63b8ff" stroke="#63b8ff" points="1304.5,-361.5 1314.5,-358 1304.5,-354.5 1304.5,-361.5"/>
</a>
</g>
</g>
<!-- Node18 -->
<g id="Node000018" class="node">
<title>Node18</title>
<g id="a_Node000018"><a xlink:href="classxpath__ast__node.html#a950534fc7de08fe40d897ebea84c1d6d" target="_top" xlink:title=" ">
<polygon fill="white" stroke="#666666" points="1078.75,-368 951,-368 951,-348 1078.75,-348 1078.75,-368"/>
<text xml:space="preserve" text-anchor="middle" x="1014.88" y="-354.5" font-family="Helvetica,sans-Serif" font-size="10.00">xpath_ast_node::optimize</text>
</a>
</g>
</g>
<!-- Node17&#45;&gt;Node18 -->
<g id="edge37_Node000017_Node000018" class="edge">
<title>Node17&#45;&gt;Node18</title>
<g id="a_edge37_Node000017_Node000018"><a xlink:title=" ">
<path fill="none" stroke="#63b8ff" d="M1103.17,-358C1095.08,-358 1086.97,-358 1079.13,-358"/>
<polygon fill="#63b8ff" stroke="#63b8ff" points="1103.06,-361.5 1113.06,-358 1103.06,-354.5 1103.06,-361.5"/>
</a>
</g>
</g>
<!-- Node21 -->
<g id="Node000021" class="node">
<title>Node21</title>
<g id="a_Node000021"><a xlink:href="structxpath__parser.html#a49cbc6141508ace22ab4b8bd8ddf965a" target="_top" xlink:title=" ">
<polygon fill="white" stroke="#666666" points="1242.12,-163 1136.12,-163 1136.12,-131 1242.12,-131 1242.12,-163"/>
<text xml:space="preserve" text-anchor="start" x="1144.12" y="-149.5" font-family="Helvetica,sans-Serif" font-size="10.00">xpath_parser::parse</text>
<text xml:space="preserve" text-anchor="middle" x="1189.12" y="-137.5" font-family="Helvetica,sans-Serif" font-size="10.00">_primary_expression</text>
</a>
</g>
</g>
<!-- Node20&#45;&gt;Node21 -->
<g id="edge40_Node000020_Node000021" class="edge">
<title>Node20&#45;&gt;Node21</title>
<g id="a_edge40_Node000020_Node000021"><a xlink:title=" ">
<path fill="none" stroke="#63b8ff" d="M1311.21,-223.84C1307.19,-222.35 1303.25,-220.73 1299.5,-219 1266.48,-203.74 1232.01,-179.43 1210.8,-163.34"/>
<polygon fill="#63b8ff" stroke="#63b8ff" points="1309.89,-227.09 1320.48,-227.04 1312.17,-220.47 1309.89,-227.09"/>
</a>
</g>
</g>
<!-- Node27 -->
<g id="Node000027" class="node">
<title>Node27</title>
<g id="a_Node000027"><a xlink:href="structxpath__parser.html#a0b226e2905970c868ab6a80d76da3a95" target="_top" xlink:title=" ">
<polygon fill="white" stroke="#666666" points="444.75,-229 318.5,-229 318.5,-209 444.75,-209 444.75,-229"/>
<text xml:space="preserve" text-anchor="middle" x="381.62" y="-215.5" font-family="Helvetica,sans-Serif" font-size="10.00">xpath_parser::parse_step</text>
</a>
</g>
</g>
<!-- Node20&#45;&gt;Node27 -->
<g id="edge57_Node000020_Node000027" class="edge">
<title>Node20&#45;&gt;Node27</title>
<g id="a_edge57_Node000020_Node000027"><a xlink:title=" ">
<path fill="none" stroke="#63b8ff" d="M1289.55,-238C1218.93,-238 1110.22,-238 1015.88,-238 1015.88,-238 1015.88,-238 679.25,-238 598.23,-238 505.02,-230.85 445.05,-225.33"/>
<polygon fill="#63b8ff" stroke="#63b8ff" points="1289.47,-241.5 1299.47,-238 1289.47,-234.5 1289.47,-241.5"/>
</a>
</g>
</g>
<!-- Node22 -->
<g id="Node000022" class="node">
<title>Node22</title>
<g id="a_Node000022"><a xlink:href="structxpath__parser.html#a61a425d990a56d5db8cd14405835a5b6" target="_top" xlink:title=" ">
<polygon fill="white" stroke="#666666" points="1066,-163 963.75,-163 963.75,-131 1066,-131 1066,-163"/>
<text xml:space="preserve" text-anchor="start" x="971.75" y="-149.5" font-family="Helvetica,sans-Serif" font-size="10.00">xpath_parser::parse</text>
<text xml:space="preserve" text-anchor="middle" x="1014.88" y="-137.5" font-family="Helvetica,sans-Serif" font-size="10.00">_filter_expression</text>
</a>
</g>
</g>
<!-- Node21&#45;&gt;Node22 -->
<g id="edge41_Node000021_Node000022" class="edge">
<title>Node21&#45;&gt;Node22</title>
<g id="a_edge41_Node000021_Node000022"><a xlink:title=" ">
<path fill="none" stroke="#63b8ff" d="M1124.58,-147C1105.39,-147 1084.59,-147 1066.37,-147"/>
<polygon fill="#63b8ff" stroke="#63b8ff" points="1124.46,-150.5 1134.46,-147 1124.46,-143.5 1124.46,-150.5"/>
</a>
</g>
</g>
<!-- Node23 -->
<g id="Node000023" class="node">
<title>Node23</title>
<g id="a_Node000023"><a xlink:href="structxpath__parser.html#ab5275305ebaac95fd68a3186b737aaa7" target="_top" xlink:title=" ">
<polygon fill="white" stroke="#666666" points="910.5,-90 775.25,-90 775.25,-58 910.5,-58 910.5,-90"/>
<text xml:space="preserve" text-anchor="start" x="783.25" y="-76.5" font-family="Helvetica,sans-Serif" font-size="10.00">xpath_parser::parse</text>
<text xml:space="preserve" text-anchor="middle" x="842.88" y="-64.5" font-family="Helvetica,sans-Serif" font-size="10.00">_path_or_unary_expression</text>
</a>
</g>
</g>
<!-- Node22&#45;&gt;Node23 -->
<g id="edge42_Node000022_Node000023" class="edge">
<title>Node22&#45;&gt;Node23</title>
<g id="a_edge42_Node000022_Node000023"><a xlink:title=" ">
<path fill="none" stroke="#63b8ff" d="M965.19,-126.1C938.84,-114.78 906.75,-101 882.19,-90.45"/>
<polygon fill="#63b8ff" stroke="#63b8ff" points="963.76,-129.29 974.33,-130.02 966.53,-122.86 963.76,-129.29"/>
</a>
</g>
</g>
<!-- Node24 -->
<g id="Node000024" class="node">
<title>Node24</title>
<g id="a_Node000024"><a xlink:href="structxpath__parser.html#a7738e256011ca842dc2a0beba78562ed" target="_top" xlink:title=" ">
<polygon fill="white" stroke="#666666" points="586.38,-90 484.12,-90 484.12,-58 586.38,-58 586.38,-90"/>
<text xml:space="preserve" text-anchor="start" x="492.12" y="-76.5" font-family="Helvetica,sans-Serif" font-size="10.00">xpath_parser::parse</text>
<text xml:space="preserve" text-anchor="middle" x="535.25" y="-64.5" font-family="Helvetica,sans-Serif" font-size="10.00">_expression</text>
</a>
</g>
</g>
<!-- Node23&#45;&gt;Node24 -->
<g id="edge43_Node000023_Node000024" class="edge">
<title>Node23&#45;&gt;Node24</title>
<g id="a_edge43_Node000023_Node000024"><a xlink:title=" ">
<path fill="none" stroke="#63b8ff" d="M763.55,-68.02C707.84,-66.77 634.65,-67.04 586.57,-68.84"/>
<polygon fill="#63b8ff" stroke="#63b8ff" points="763.21,-71.51 773.29,-68.26 763.38,-64.51 763.21,-71.51"/>
</a>
</g>
</g>
<!-- Node30 -->
<g id="Node000030" class="node">
<title>Node30</title>
<g id="a_Node000030"><a xlink:href="structxpath__parser.html#adcd54e9b508acfe1f040ee7a54b88f2a" target="_top" xlink:title=" ">
<polygon fill="white" stroke="#666666" points="731.38,-116 629.12,-116 629.12,-84 731.38,-84 731.38,-116"/>
<text xml:space="preserve" text-anchor="start" x="637.12" y="-102.5" font-family="Helvetica,sans-Serif" font-size="10.00">xpath_parser::parse</text>
<text xml:space="preserve" text-anchor="middle" x="680.25" y="-90.5" font-family="Helvetica,sans-Serif" font-size="10.00">_expression_rec</text>
</a>
</g>
</g>
<!-- Node23&#45;&gt;Node30 -->
<g id="edge54_Node000023_Node000030" class="edge">
<title>Node23&#45;&gt;Node30</title>
<g id="a_edge54_Node000023_Node000030"><a xlink:title=" ">
<path fill="none" stroke="#63b8ff" d="M763.86,-86.63C752.98,-88.39 742.04,-90.16 731.85,-91.81"/>
<polygon fill="#63b8ff" stroke="#63b8ff" points="764.34,-90.1 773.66,-85.04 763.23,-83.19 764.34,-90.1"/>
</a>
</g>
</g>
<!-- Node24&#45;&gt;Node21 -->
<g id="edge48_Node000024_Node000021" class="edge">
<title>Node24&#45;&gt;Node21</title>
<g id="a_edge48_Node000024_Node000021"><a xlink:title=" ">
<path fill="none" stroke="#63b8ff" d="M597.73,-61.05C673.06,-47.23 804.31,-29.74 915,-49 1004.59,-64.59 1103.62,-106.91 1154.25,-130.52"/>
<polygon fill="#63b8ff" stroke="#63b8ff" points="597.26,-57.58 588.07,-62.87 598.55,-64.46 597.26,-57.58"/>
</a>
</g>
</g>
<!-- Node24&#45;&gt;Node22 -->
<g id="edge46_Node000024_Node000022" class="edge">
<title>Node24&#45;&gt;Node22</title>
<g id="a_edge46_Node000024_Node000022"><a xlink:title=" ">
<path fill="none" stroke="#63b8ff" d="M558.86,-98.24C575.58,-114.31 599.86,-134.03 625.75,-143 741.16,-182.99 887.7,-168.36 963.44,-156.4"/>
<polygon fill="#63b8ff" stroke="#63b8ff" points="561.47,-95.9 551.91,-91.32 556.52,-100.85 561.47,-95.9"/>
</a>
</g>
</g>
<!-- Node24&#45;&gt;Node23 -->
<g id="edge47_Node000024_Node000023" class="edge">
<title>Node24&#45;&gt;Node23</title>
<g id="a_edge47_Node000024_Node000023"><a xlink:title=" ">
<path fill="none" stroke="#63b8ff" d="M597.82,-79.54C649.11,-81.1 722.04,-81.15 774.8,-79.7"/>
<polygon fill="#63b8ff" stroke="#63b8ff" points="598.19,-76.05 588.08,-79.21 597.96,-83.05 598.19,-76.05"/>
</a>
</g>
</g>
<!-- Node25 -->
<g id="Node000025" class="node">
<title>Node25</title>
<g id="a_Node000025"><a xlink:href="structxpath__parser.html#aa3fe0e7d23131b3943d8248646ecd362" target="_top" xlink:title=" ">
<polygon fill="white" stroke="#666666" points="432.75,-84 330.5,-84 330.5,-64 432.75,-64 432.75,-84"/>
<text xml:space="preserve" text-anchor="middle" x="381.62" y="-70.5" font-family="Helvetica,sans-Serif" font-size="10.00">xpath_parser::parse</text>
</a>
</g>
</g>
<!-- Node24&#45;&gt;Node25 -->
<g id="edge44_Node000024_Node000025" class="edge">
<title>Node24&#45;&gt;Node25</title>
<g id="a_edge44_Node000024_Node000025"><a xlink:title=" ">
<path fill="none" stroke="#63b8ff" d="M472.46,-74C459.39,-74 445.75,-74 433.15,-74"/>
<polygon fill="#63b8ff" stroke="#63b8ff" points="472.25,-77.5 482.25,-74 472.25,-70.5 472.25,-77.5"/>
</a>
</g>
</g>
<!-- Node24&#45;&gt;Node27 -->
<g id="edge49_Node000024_Node000027" class="edge">
<title>Node24&#45;&gt;Node27</title>
<g id="a_edge49_Node000024_Node000027"><a xlink:title=" ">
<path fill="none" stroke="#63b8ff" d="M509.18,-97.97C475.61,-130.07 417.51,-185.64 393.49,-208.61"/>
<polygon fill="#63b8ff" stroke="#63b8ff" points="511.25,-100.84 516.06,-91.4 506.41,-95.78 511.25,-100.84"/>
</a>
</g>
</g>
<!-- Node26 -->
<g id="Node000026" class="node">
<title>Node26</title>
<g id="a_Node000026"><a xlink:href="structxpath__parser.html#aad773be8b591966eb535018fcc2b6a66" target="_top" xlink:title=" ">
<polygon fill="white" stroke="#666666" points="261.5,-84 159.25,-84 159.25,-64 261.5,-64 261.5,-84"/>
<text xml:space="preserve" text-anchor="middle" x="210.38" y="-70.5" font-family="Helvetica,sans-Serif" font-size="10.00">xpath_parser::parse</text>
</a>
</g>
</g>
<!-- Node25&#45;&gt;Node26 -->
<g id="edge45_Node000025_Node000026" class="edge">
<title>Node25&#45;&gt;Node26</title>
<g id="a_edge45_Node000025_Node000026"><a xlink:title=" ">
<path fill="none" stroke="#63b8ff" d="M318.87,-74C300.1,-74 279.72,-74 261.8,-74"/>
<polygon fill="#63b8ff" stroke="#63b8ff" points="318.79,-77.5 328.79,-74 318.79,-70.5 318.79,-77.5"/>
</a>
</g>
</g>
<!-- Node28 -->
<g id="Node000028" class="node">
<title>Node28</title>
<g id="a_Node000028"><a xlink:href="structxpath__parser.html#aebea559423376001c89b19216dfc3012" target="_top" xlink:title=" ">
<polygon fill="white" stroke="#666666" points="268.25,-178 152.5,-178 152.5,-146 268.25,-146 268.25,-178"/>
<text xml:space="preserve" text-anchor="start" x="160.5" y="-164.5" font-family="Helvetica,sans-Serif" font-size="10.00">xpath_parser::parse</text>
<text xml:space="preserve" text-anchor="middle" x="210.38" y="-152.5" font-family="Helvetica,sans-Serif" font-size="10.00">_relative_location_path</text>
</a>
</g>
</g>
<!-- Node27&#45;&gt;Node28 -->
<g id="edge50_Node000027_Node000028" class="edge">
<title>Node27&#45;&gt;Node28</title>
<g id="a_edge50_Node000027_Node000028"><a xlink:title=" ">
<path fill="none" stroke="#63b8ff" d="M338.78,-204.91C314.97,-196.89 285.04,-186.81 260.17,-178.43"/>
<polygon fill="#63b8ff" stroke="#63b8ff" points="337.55,-208.19 348.15,-208.06 339.79,-201.55 337.55,-208.19"/>
</a>
</g>
</g>
<!-- Node28&#45;&gt;Node23 -->
<g id="edge53_Node000028_Node000023" class="edge">
<title>Node28&#45;&gt;Node23</title>
<g id="a_edge53_Node000028_Node000023"><a xlink:title=" ">
<path fill="none" stroke="#63b8ff" d="M279.76,-170.8C381.59,-181.41 577.93,-192.24 734.75,-143 769.15,-132.2 803.18,-107.18 823.35,-90.43"/>
<polygon fill="#63b8ff" stroke="#63b8ff" points="280.23,-167.33 269.92,-169.74 279.48,-174.29 280.23,-167.33"/>
</a>
</g>
</g>
<!-- Node29 -->
<g id="Node000029" class="node">
<title>Node29</title>
<g id="a_Node000029"><a xlink:href="structxpath__parser.html#af14e396ddb7817998ec221eec6b781ab" target="_top" xlink:title=" ">
<polygon fill="white" stroke="#666666" points="102.25,-97 0,-97 0,-65 102.25,-65 102.25,-97"/>
<text xml:space="preserve" text-anchor="start" x="8" y="-83.5" font-family="Helvetica,sans-Serif" font-size="10.00">xpath_parser::parse</text>
<text xml:space="preserve" text-anchor="middle" x="51.12" y="-71.5" font-family="Helvetica,sans-Serif" font-size="10.00">_location_path</text>
</a>
</g>
</g>
<!-- Node28&#45;&gt;Node29 -->
<g id="edge51_Node000028_Node000029" class="edge">
<title>Node28&#45;&gt;Node29</title>
<g id="a_edge51_Node000028_Node000029"><a xlink:title=" ">
<path fill="none" stroke="#63b8ff" d="M167.51,-140.44C141.27,-126.92 107.97,-109.77 83.9,-97.37"/>
<polygon fill="#63b8ff" stroke="#63b8ff" points="165.71,-143.45 176.21,-144.92 168.92,-137.22 165.71,-143.45"/>
</a>
</g>
</g>
<!-- Node29&#45;&gt;Node23 -->
<g id="edge52_Node000029_Node000023" class="edge">
<title>Node29&#45;&gt;Node23</title>
<g id="a_edge52_Node000029_Node000023"><a xlink:title=" ">
<path fill="none" stroke="#63b8ff" d="M102.6,-60.48C166.28,-36.48 279.7,0 380.62,0 536.25,0 536.25,0 536.25,0 633.43,0 743.22,-35.78 801.11,-57.58"/>
<polygon fill="#63b8ff" stroke="#63b8ff" points="101.56,-57.13 93.47,-63.97 104.06,-63.67 101.56,-57.13"/>
</a>
</g>
</g>
<!-- Node30&#45;&gt;Node24 -->
<g id="edge55_Node000030_Node000024" class="edge">
<title>Node30&#45;&gt;Node24</title>
<g id="a_edge55_Node000030_Node000024"><a xlink:title=" ">
<path fill="none" stroke="#63b8ff" d="M617.74,-88.82C607.38,-86.93 596.73,-85 586.69,-83.17"/>
<polygon fill="#63b8ff" stroke="#63b8ff" points="616.88,-92.22 627.34,-90.56 618.13,-85.33 616.88,-92.22"/>
</a>
</g>
</g>
<!-- Node30&#45;&gt;Node30 -->
<g id="edge56_Node000030_Node000030" class="edge">
<title>Node30&#45;&gt;Node30</title>
<g id="a_edge56_Node000030_Node000030"><a xlink:title=" ">
<path fill="none" stroke="#63b8ff" d="M704.41,-127.71C700.38,-131.48 692.33,-134 680.25,-134 658.16,-134 649.53,-125.58 654.36,-116.44"/>
<polygon fill="#63b8ff" stroke="#63b8ff" points="707.86,-128.35 705.91,-117.94 700.94,-127.29 707.86,-128.35"/>
</a>
</g>
</g>
<!-- Node31&#45;&gt;Node27 -->
<g id="edge59_Node000031_Node000027" class="edge">
<title>Node31&#45;&gt;Node27</title>
<g id="a_edge59_Node000031_Node000027"><a xlink:title=" ">
<path fill="none" stroke="#63b8ff" d="M778.98,-281.36C706.41,-279.56 583.83,-273.29 480.75,-252 455.4,-246.77 427.52,-236.98 407.98,-229.42"/>
<polygon fill="#63b8ff" stroke="#63b8ff" points="778.6,-284.85 788.67,-281.57 778.75,-277.85 778.6,-284.85"/>
</a>
</g>
</g>
</g>
</svg>
