<?xml version="1.0" encoding="UTF-8" standalone="no"?>
<!DOCTYPE svg PUBLIC "-//W3C//DTD SVG 1.1//EN"
 "http://www.w3.org/Graphics/SVG/1.1/DTD/svg11.dtd">
<!-- Generated by graphviz version 14.1.2 (20260124.0452)
 -->
<!-- Title: xml_buffered_writer::write_buffer Pages: 1 -->
<svg width="671pt" height="134pt"
 viewBox="0.00 0.00 671.00 134.00" xmlns="http://www.w3.org/2000/svg" xmlns:xlink="http://www.w3.org/1999/xlink">
<g id="graph0" class="graph" transform="scale(1 1) rotate(0) translate(4 130)">
<title>xml_buffered_writer::write_buffer</title>
<!-- Node1 -->
<g id="Node000001" class="node">
<title>Node1</title>
<g id="a_Node000001"><a xlink:title=" ">
<polygon fill="#999999" stroke="#666666" points="100.75,-64 0,-64 0,-32 100.75,-32 100.75,-64"/>
<text xml:space="preserve" text-anchor="start" x="8" y="-50.5" font-family="Helvetica,sans-Serif" font-size="10.00">xml_buffered_writer</text>
<text xml:space="preserve" text-anchor="middle" x="50.38" y="-38.5" font-family="Helvetica,sans-Serif" font-size="10.00">::write_buffer</text>
</a>
</g>
</g>
<!-- Node2 -->
<g id="Node000002" class="node">
<title>Node2</title>
<g id="a_Node000002"><a xlink:href="classxml__buffered__writer.html#a119f9db2f60e578e69ac81177e932fb3" target="_top" xlink:title=" ">
<polygon fill="white" stroke="#666666" points="237.5,-64 136.75,-64 136.75,-32 237.5,-32 237.5,-64"/>
<text xml:space="preserve" text-anchor="start" x="144.75" y="-50.5" font-family="Helvetica,sans-Serif" font-size="10.00">xml_buffered_writer</text>
<text xml:space="preserve" text-anchor="middle" x="187.12" y="-38.5" font-family="Helvetica,sans-Serif" font-size="10.00">::write_direct</text>
</a>
</g>
</g>
<!-- Node1&#45;&gt;Node2 -->
<g id="edge1_Node000001_Node000002" class="edge">
<title>Node1&#45;&gt;Node2</title>
<g id="a_edge1_Node000001_Node000002"><a xlink:title=" ">
<path fill="none" stroke="#63b8ff" d="M101.17,-48C109.02,-48 117.2,-48 125.27,-48"/>
<polygon fill="#63b8ff" stroke="#63b8ff" points="125.02,-51.5 135.02,-48 125.02,-44.5 125.02,-51.5"/>
</a>
</g>
</g>
<!-- Node3 -->
<g id="Node000003" class="node">
<title>Node3</title>
<g id="a_Node000003"><a xlink:href="classxml__buffered__writer.html#a4789b8661f9ff4e5e4bb4226f7d45997" target="_top" xlink:title=" ">
<polygon fill="white" stroke="#666666" points="389.62,-108 288.88,-108 288.88,-76 389.62,-76 389.62,-108"/>
<text xml:space="preserve" text-anchor="start" x="296.88" y="-94.5" font-family="Helvetica,sans-Serif" font-size="10.00">xml_buffered_writer</text>
<text xml:space="preserve" text-anchor="middle" x="339.25" y="-82.5" font-family="Helvetica,sans-Serif" font-size="10.00">::flush</text>
</a>
</g>
</g>
<!-- Node2&#45;&gt;Node3 -->
<g id="edge2_Node000002_Node000003" class="edge">
<title>Node2&#45;&gt;Node3</title>
<g id="a_edge2_Node000002_Node000003"><a xlink:title=" ">
<path fill="none" stroke="#63b8ff" d="M237.7,-62.53C250.44,-66.26 264.3,-70.33 277.54,-74.21"/>
<polygon fill="#63b8ff" stroke="#63b8ff" points="276.44,-77.53 287.02,-76.99 278.41,-70.81 276.44,-77.53"/>
</a>
</g>
</g>
<!-- Node4 -->
<g id="Node000004" class="node">
<title>Node4</title>
<g id="a_Node000004"><a xlink:href="pugixml_8cpp.html#a52cd33a8dc5b0412c3e817512ec98ef9" target="_top" xlink:title=" ">
<polygon fill="white" stroke="#666666" points="382.5,-58 296,-58 296,-38 382.5,-38 382.5,-58"/>
<text xml:space="preserve" text-anchor="middle" x="339.25" y="-44.5" font-family="Helvetica,sans-Serif" font-size="10.00">get_valid_length</text>
</a>
</g>
</g>
<!-- Node2&#45;&gt;Node4 -->
<g id="edge4_Node000002_Node000004" class="edge">
<title>Node2&#45;&gt;Node4</title>
<g id="a_edge4_Node000002_Node000004"><a xlink:title=" ">
<path fill="none" stroke="#63b8ff" d="M237.7,-48C252.67,-48 269.18,-48 284.42,-48"/>
<polygon fill="#63b8ff" stroke="#63b8ff" points="284.26,-51.5 294.26,-48 284.26,-44.5 284.26,-51.5"/>
</a>
</g>
</g>
<!-- Node5 -->
<g id="Node000005" class="node">
<title>Node5</title>
<g id="a_Node000005"><a xlink:href="pugixml_8cpp.html#a9ffc09483eb40cb8f51996b8d25cd099" target="_top" xlink:title=" ">
<polygon fill="white" stroke="#666666" points="405,-20 273.5,-20 273.5,0 405,0 405,-20"/>
<text xml:space="preserve" text-anchor="middle" x="339.25" y="-6.5" font-family="Helvetica,sans-Serif" font-size="10.00">get_write_native_encoding</text>
</a>
</g>
</g>
<!-- Node2&#45;&gt;Node5 -->
<g id="edge5_Node000002_Node000005" class="edge">
<title>Node2&#45;&gt;Node5</title>
<g id="a_edge5_Node000002_Node000005"><a xlink:title=" ">
<path fill="none" stroke="#63b8ff" d="M237.7,-35.45C253.23,-31.52 270.41,-27.17 286.12,-23.2"/>
<polygon fill="#63b8ff" stroke="#63b8ff" points="286.94,-26.6 295.78,-20.75 285.22,-19.81 286.94,-26.6"/>
</a>
</g>
</g>
<!-- Node3&#45;&gt;Node3 -->
<g id="edge3_Node000003_Node000003" class="edge">
<title>Node3&#45;&gt;Node3</title>
<g id="a_edge3_Node000003_Node000003"><a xlink:title=" ">
<path fill="none" stroke="#63b8ff" d="M312.09,-108.44C307.02,-117.58 316.07,-126 339.25,-126 351.92,-126 360.37,-123.48 364.6,-119.71"/>
<polygon fill="#63b8ff" stroke="#63b8ff" points="368.04,-120.37 366.17,-109.94 361.13,-119.26 368.04,-120.37"/>
</a>
</g>
</g>
<!-- Node6 -->
<g id="Node000006" class="node">
<title>Node6</title>
<g id="a_Node000006"><a xlink:href="pugixml_8cpp.html#ac65295a489782c48a97a97e972ed61b0" target="_top" xlink:title=" ">
<polygon fill="white" stroke="#666666" points="546.25,-20 441,-20 441,0 546.25,0 546.25,-20"/>
<text xml:space="preserve" text-anchor="middle" x="493.62" y="-6.5" font-family="Helvetica,sans-Serif" font-size="10.00">get_wchar_encoding</text>
</a>
</g>
</g>
<!-- Node5&#45;&gt;Node6 -->
<g id="edge6_Node000005_Node000006" class="edge">
<title>Node5&#45;&gt;Node6</title>
<g id="a_edge6_Node000005_Node000006"><a xlink:title=" ">
<path fill="none" stroke="#63b8ff" d="M405.31,-10C413.25,-10 421.35,-10 429.26,-10"/>
<polygon fill="#63b8ff" stroke="#63b8ff" points="429.15,-13.5 439.15,-10 429.15,-6.5 429.15,-13.5"/>
</a>
</g>
</g>
<!-- Node7 -->
<g id="Node000007" class="node">
<title>Node7</title>
<g id="a_Node000007"><a xlink:href="pugixml_8cpp.html#aaf0cb0440cad4fe27233f6482e324e15" target="_top" xlink:title=" ">
<polygon fill="white" stroke="#666666" points="662.75,-20 582.25,-20 582.25,0 662.75,0 662.75,-20"/>
<text xml:space="preserve" text-anchor="middle" x="622.5" y="-6.5" font-family="Helvetica,sans-Serif" font-size="10.00">is_little_endian</text>
</a>
</g>
</g>
<!-- Node6&#45;&gt;Node7 -->
<g id="edge7_Node000006_Node000007" class="edge">
<title>Node6&#45;&gt;Node7</title>
<g id="a_edge7_Node000006_Node000007"><a xlink:title=" ">
<path fill="none" stroke="#63b8ff" d="M546.6,-10C554.5,-10 562.66,-10 570.55,-10"/>
<polygon fill="#63b8ff" stroke="#63b8ff" points="570.33,-13.5 580.33,-10 570.33,-6.5 570.33,-13.5"/>
</a>
</g>
</g>
</g>
</svg>
