<?xml version="1.0" encoding="UTF-8" standalone="no"?>
<!DOCTYPE svg PUBLIC "-//W3C//DTD SVG 1.1//EN"
 "http://www.w3.org/Graphics/SVG/1.1/DTD/svg11.dtd">
<!-- Generated by graphviz version 14.1.2 (20260124.0452)
 -->
<!-- Title: pugi::xml_writer Pages: 1 -->
<svg width="250pt" height="84pt"
 viewBox="0.00 0.00 250.00 84.00" xmlns="http://www.w3.org/2000/svg" xmlns:xlink="http://www.w3.org/1999/xlink">
<g id="graph0" class="graph" transform="scale(1 1) rotate(0) translate(4 80)">
<title>pugi::xml_writer</title>
<!-- Node1 -->
<g id="Node000001" class="node">
<title>Node1</title>
<g id="a_Node000001"><a xlink:title=" ">
<polygon fill="#999999" stroke="#666666" points="159,-76 74,-76 74,-56 159,-56 159,-76"/>
<text xml:space="preserve" text-anchor="middle" x="116.5" y="-62.5" font-family="Helvetica,sans-Serif" font-size="10.00">pugi::xml_writer</text>
</a>
</g>
</g>
<!-- Node2 -->
<g id="Node000002" class="node">
<title>Node2</title>
<g id="a_Node000002"><a xlink:href="classpugi_1_1xml__writer__file.html" target="_top" xlink:title=" ">
<polygon fill="white" stroke="#666666" points="103,-20 0,-20 0,0 103,0 103,-20"/>
<text xml:space="preserve" text-anchor="middle" x="51.5" y="-6.5" font-family="Helvetica,sans-Serif" font-size="10.00">pugi::xml_writer_file</text>
</a>
</g>
</g>
<!-- Node1&#45;&gt;Node2 -->
<g id="edge1_Node000001_Node000002" class="edge">
<title>Node1&#45;&gt;Node2</title>
<g id="a_edge1_Node000001_Node000002"><a xlink:title=" ">
<path fill="none" stroke="#63b8ff" d="M96.52,-48.4C85.4,-39.17 71.97,-28.01 62.69,-20.3"/>
<polygon fill="#63b8ff" stroke="#63b8ff" points="94.09,-50.93 104.01,-54.63 98.56,-45.54 94.09,-50.93"/>
</a>
</g>
</g>
<!-- Node3 -->
<g id="Node000003" class="node">
<title>Node3</title>
<g id="a_Node000003"><a xlink:href="classpugi_1_1xml__writer__stream.html" target="_top" xlink:title=" ">
<polygon fill="white" stroke="#666666" points="241.62,-20 121.38,-20 121.38,0 241.62,0 241.62,-20"/>
<text xml:space="preserve" text-anchor="middle" x="181.5" y="-6.5" font-family="Helvetica,sans-Serif" font-size="10.00">pugi::xml_writer_stream</text>
</a>
</g>
</g>
<!-- Node1&#45;&gt;Node3 -->
<g id="edge2_Node000001_Node000003" class="edge">
<title>Node1&#45;&gt;Node3</title>
<g id="a_edge2_Node000001_Node000003"><a xlink:title=" ">
<path fill="none" stroke="#63b8ff" d="M136.48,-48.4C147.6,-39.17 161.03,-28.01 170.31,-20.3"/>
<polygon fill="#63b8ff" stroke="#63b8ff" points="134.44,-45.54 128.99,-54.63 138.91,-50.93 134.44,-45.54"/>
</a>
</g>
</g>
</g>
</svg>
