<?xml version="1.0" encoding="UTF-8" standalone="no"?>
<!DOCTYPE svg PUBLIC "-//W3C//DTD SVG 1.1//EN"
 "http://www.w3.org/Graphics/SVG/1.1/DTD/svg11.dtd">
<!-- Generated by graphviz version 14.1.2 (20260124.0452)
 -->
<!-- Title: GEDrawingContext::recreate Pages: 1 -->
<svg width="494pt" height="115pt"
 viewBox="0.00 0.00 494.00 115.00" xmlns="http://www.w3.org/2000/svg" xmlns:xlink="http://www.w3.org/1999/xlink">
<g id="graph0" class="graph" transform="scale(1 1) rotate(0) translate(4 111)">
<title>GEDrawingContext::recreate</title>
<!-- Node1 -->
<g id="Node000001" class="node">
<title>Node1</title>
<g id="a_Node000001"><a xlink:title="Reconstruye el contexto de dibujo tras un cambio de tamaño.">
<polygon fill="#999999" stroke="#666666" points="142,-76 0,-76 0,-56 142,-56 142,-76"/>
<text xml:space="preserve" text-anchor="middle" x="71" y="-62.5" font-family="Helvetica,sans-Serif" font-size="10.00">GEDrawingContext::recreate</text>
</a>
</g>
</g>
<!-- Node2 -->
<g id="Node000002" class="node">
<title>Node2</title>
<g id="a_Node000002"><a xlink:href="class_g_e_drawing_context.html#af0d8bbc2b1fe8119e6d1aa65d497b3b0" target="_top" xlink:title="Crea una vista para cada imagen del swapchain.">
<polygon fill="white" stroke="#666666" points="311.75,-107 178,-107 178,-75 311.75,-75 311.75,-107"/>
<text xml:space="preserve" text-anchor="start" x="186" y="-93.5" font-family="Helvetica,sans-Serif" font-size="10.00">GEDrawingContext::create</text>
<text xml:space="preserve" text-anchor="middle" x="244.88" y="-81.5" font-family="Helvetica,sans-Serif" font-size="10.00">ImageViews</text>
</a>
</g>
</g>
<!-- Node1&#45;&gt;Node2 -->
<g id="edge1_Node000001_Node000002" class="edge">
<title>Node1&#45;&gt;Node2</title>
<g id="a_edge1_Node000001_Node000002"><a xlink:title=" ">
<path fill="none" stroke="#63b8ff" d="M142.4,-76.24C150.34,-77.4 158.47,-78.58 166.49,-79.74"/>
<polygon fill="#63b8ff" stroke="#63b8ff" points="165.84,-83.19 176.24,-81.16 166.84,-76.26 165.84,-83.19"/>
</a>
</g>
</g>
<!-- Node3 -->
<g id="Node000003" class="node">
<title>Node3</title>
<g id="a_Node000003"><a xlink:href="class_g_e_drawing_context.html#addf8c95330fdbf47864e9244ccc417db" target="_top" xlink:title="Crea el swapchain y obtiene las imágenes y formatos adecuados.">
<polygon fill="white" stroke="#666666" points="311.75,-57 178,-57 178,-25 311.75,-25 311.75,-57"/>
<text xml:space="preserve" text-anchor="start" x="186" y="-43.5" font-family="Helvetica,sans-Serif" font-size="10.00">GEDrawingContext::create</text>
<text xml:space="preserve" text-anchor="middle" x="244.88" y="-31.5" font-family="Helvetica,sans-Serif" font-size="10.00">SwapChain</text>
</a>
</g>
</g>
<!-- Node1&#45;&gt;Node3 -->
<g id="edge2_Node000001_Node000003" class="edge">
<title>Node1&#45;&gt;Node3</title>
<g id="a_edge2_Node000001_Node000003"><a xlink:title=" ">
<path fill="none" stroke="#63b8ff" d="M142.4,-55.76C150.34,-54.6 158.47,-53.42 166.49,-52.26"/>
<polygon fill="#63b8ff" stroke="#63b8ff" points="166.84,-55.74 176.24,-50.84 165.84,-48.81 166.84,-55.74"/>
</a>
</g>
</g>
<!-- Node4 -->
<g id="Node000004" class="node">
<title>Node4</title>
<g id="a_Node000004"><a xlink:href="class_g_e_drawing_context.html#acdb6b25fca397b27f3563080db3c130b" target="_top" xlink:title="Selecciona la extensión (tamaño) adecuada para las imágenes del swapchain.">
<polygon fill="white" stroke="#666666" points="486,-82 347.75,-82 347.75,-50 486,-50 486,-82"/>
<text xml:space="preserve" text-anchor="start" x="355.75" y="-68.5" font-family="Helvetica,sans-Serif" font-size="10.00">GEDrawingContext::choose</text>
<text xml:space="preserve" text-anchor="middle" x="416.88" y="-56.5" font-family="Helvetica,sans-Serif" font-size="10.00">SwapExtent</text>
</a>
</g>
</g>
<!-- Node3&#45;&gt;Node4 -->
<g id="edge3_Node000003_Node000004" class="edge">
<title>Node3&#45;&gt;Node4</title>
<g id="a_edge3_Node000003_Node000004"><a xlink:title=" ">
<path fill="none" stroke="#63b8ff" d="M312.09,-50.74C319.95,-51.89 328.03,-53.08 336.05,-54.26"/>
<polygon fill="#63b8ff" stroke="#63b8ff" points="335.42,-57.71 345.82,-55.7 336.44,-50.78 335.42,-57.71"/>
</a>
</g>
</g>
<!-- Node5 -->
<g id="Node000005" class="node">
<title>Node5</title>
<g id="a_Node000005"><a xlink:href="class_g_e_drawing_context.html#a3b9ad39a37755665d94e149b73d99a43" target="_top" xlink:title="Escoge el formato de imagen entre los soportados por la superficie.">
<polygon fill="white" stroke="#666666" points="486,-32 347.75,-32 347.75,0 486,0 486,-32"/>
<text xml:space="preserve" text-anchor="start" x="355.75" y="-18.5" font-family="Helvetica,sans-Serif" font-size="10.00">GEDrawingContext::choose</text>
<text xml:space="preserve" text-anchor="middle" x="416.88" y="-6.5" font-family="Helvetica,sans-Serif" font-size="10.00">SwapSurfaceFormat</text>
</a>
</g>
</g>
<!-- Node3&#45;&gt;Node5 -->
<g id="edge4_Node000003_Node000005" class="edge">
<title>Node3&#45;&gt;Node5</title>
<g id="a_edge4_Node000003_Node000005"><a xlink:title=" ">
<path fill="none" stroke="#63b8ff" d="M312.09,-31.26C319.95,-30.11 328.03,-28.92 336.05,-27.74"/>
<polygon fill="#63b8ff" stroke="#63b8ff" points="336.44,-31.22 345.82,-26.3 335.42,-24.29 336.44,-31.22"/>
</a>
</g>
</g>
</g>
</svg>
