<?xml version="1.0" encoding="UTF-8" standalone="no"?>
<!DOCTYPE svg PUBLIC "-//W3C//DTD SVG 1.1//EN"
 "http://www.w3.org/Graphics/SVG/1.1/DTD/svg11.dtd">
<!-- Generated by graphviz version 14.1.2 (20260124.0452)
 -->
<!-- Title: xpath_ast_node::set_next Pages: 1 -->
<svg width="1317pt" height="274pt"
 viewBox="0.00 0.00 1317.00 274.00" xmlns="http://www.w3.org/2000/svg" xmlns:xlink="http://www.w3.org/1999/xlink">
<g id="graph0" class="graph" transform="scale(1 1) rotate(0) translate(4 269.68)">
<title>xpath_ast_node::set_next</title>
<!-- Node1 -->
<g id="Node000001" class="node">
<title>Node1</title>
<g id="a_Node000001"><a xlink:title=" ">
<polygon fill="#999999" stroke="#666666" points="1308.75,-145 1180.25,-145 1180.25,-125 1308.75,-125 1308.75,-145"/>
<text xml:space="preserve" text-anchor="middle" x="1244.5" y="-131.5" font-family="Helvetica,sans-Serif" font-size="10.00">xpath_ast_node::set_next</text>
</a>
</g>
</g>
<!-- Node2 -->
<g id="Node000002" class="node">
<title>Node2</title>
<g id="a_Node000002"><a xlink:href="structxpath__parser.html#a49cbc6141508ace22ab4b8bd8ddf965a" target="_top" xlink:title=" ">
<polygon fill="white" stroke="#666666" points="1144.25,-248 1038.25,-248 1038.25,-216 1144.25,-216 1144.25,-248"/>
<text xml:space="preserve" text-anchor="start" x="1046.25" y="-234.5" font-family="Helvetica,sans-Serif" font-size="10.00">xpath_parser::parse</text>
<text xml:space="preserve" text-anchor="middle" x="1091.25" y="-222.5" font-family="Helvetica,sans-Serif" font-size="10.00">_primary_expression</text>
</a>
</g>
</g>
<!-- Node1&#45;&gt;Node2 -->
<g id="edge1_Node000001_Node000002" class="edge">
<title>Node1&#45;&gt;Node2</title>
<g id="a_edge1_Node000001_Node000002"><a xlink:title=" ">
<path fill="none" stroke="#63b8ff" d="M1217.85,-151.45C1189.98,-169.32 1145.72,-197.71 1117.86,-215.57"/>
<polygon fill="#63b8ff" stroke="#63b8ff" points="1219.51,-154.54 1226.04,-146.2 1215.73,-148.65 1219.51,-154.54"/>
</a>
</g>
</g>
<!-- Node8 -->
<g id="Node000008" class="node">
<title>Node8</title>
<g id="a_Node000008"><a xlink:href="structxpath__parser.html#a0b226e2905970c868ab6a80d76da3a95" target="_top" xlink:title=" ">
<polygon fill="white" stroke="#666666" points="416.25,-86 290,-86 290,-66 416.25,-66 416.25,-86"/>
<text xml:space="preserve" text-anchor="middle" x="353.12" y="-72.5" font-family="Helvetica,sans-Serif" font-size="10.00">xpath_parser::parse_step</text>
</a>
</g>
</g>
<!-- Node1&#45;&gt;Node8 -->
<g id="edge18_Node000001_Node000008" class="edge">
<title>Node1&#45;&gt;Node8</title>
<g id="a_edge18_Node000001_Node000008"><a xlink:title=" ">
<path fill="none" stroke="#63b8ff" d="M1222.68,-117.57C1176.89,-81.08 1062.73,0 952.12,0 952.12,0 952.12,0 640.62,0 539.51,0 424.82,-44.78 376.97,-65.59"/>
<polygon fill="#63b8ff" stroke="#63b8ff" points="1220.24,-120.09 1230.21,-123.68 1224.65,-114.66 1220.24,-120.09"/>
</a>
</g>
</g>
<!-- Node3 -->
<g id="Node000003" class="node">
<title>Node3</title>
<g id="a_Node000003"><a xlink:href="structxpath__parser.html#a61a425d990a56d5db8cd14405835a5b6" target="_top" xlink:title=" ">
<polygon fill="white" stroke="#666666" points="1002.25,-248 900,-248 900,-216 1002.25,-216 1002.25,-248"/>
<text xml:space="preserve" text-anchor="start" x="908" y="-234.5" font-family="Helvetica,sans-Serif" font-size="10.00">xpath_parser::parse</text>
<text xml:space="preserve" text-anchor="middle" x="951.12" y="-222.5" font-family="Helvetica,sans-Serif" font-size="10.00">_filter_expression</text>
</a>
</g>
</g>
<!-- Node2&#45;&gt;Node3 -->
<g id="edge2_Node000002_Node000003" class="edge">
<title>Node2&#45;&gt;Node3</title>
<g id="a_edge2_Node000002_Node000003"><a xlink:title=" ">
<path fill="none" stroke="#63b8ff" d="M1026.71,-232C1018.62,-232 1010.43,-232 1002.59,-232"/>
<polygon fill="#63b8ff" stroke="#63b8ff" points="1026.52,-235.5 1036.52,-232 1026.52,-228.5 1026.52,-235.5"/>
</a>
</g>
</g>
<!-- Node4 -->
<g id="Node000004" class="node">
<title>Node4</title>
<g id="a_Node000004"><a xlink:href="structxpath__parser.html#ab5275305ebaac95fd68a3186b737aaa7" target="_top" xlink:title=" ">
<polygon fill="white" stroke="#666666" points="864,-210 728.75,-210 728.75,-178 864,-178 864,-210"/>
<text xml:space="preserve" text-anchor="start" x="736.75" y="-196.5" font-family="Helvetica,sans-Serif" font-size="10.00">xpath_parser::parse</text>
<text xml:space="preserve" text-anchor="middle" x="796.38" y="-184.5" font-family="Helvetica,sans-Serif" font-size="10.00">_path_or_unary_expression</text>
</a>
</g>
</g>
<!-- Node3&#45;&gt;Node4 -->
<g id="edge3_Node000003_Node000004" class="edge">
<title>Node3&#45;&gt;Node4</title>
<g id="a_edge3_Node000003_Node000004"><a xlink:title=" ">
<path fill="none" stroke="#63b8ff" d="M888.62,-216.7C880.38,-214.65 871.89,-212.54 863.56,-210.47"/>
<polygon fill="#63b8ff" stroke="#63b8ff" points="887.67,-220.07 898.22,-219.09 889.36,-213.28 887.67,-220.07"/>
</a>
</g>
</g>
<!-- Node5 -->
<g id="Node000005" class="node">
<title>Node5</title>
<g id="a_Node000005"><a xlink:href="structxpath__parser.html#a7738e256011ca842dc2a0beba78562ed" target="_top" xlink:title=" ">
<polygon fill="white" stroke="#666666" points="554.5,-245 452.25,-245 452.25,-213 554.5,-213 554.5,-245"/>
<text xml:space="preserve" text-anchor="start" x="460.25" y="-231.5" font-family="Helvetica,sans-Serif" font-size="10.00">xpath_parser::parse</text>
<text xml:space="preserve" text-anchor="middle" x="503.38" y="-219.5" font-family="Helvetica,sans-Serif" font-size="10.00">_expression</text>
</a>
</g>
</g>
<!-- Node4&#45;&gt;Node5 -->
<g id="edge4_Node000004_Node000005" class="edge">
<title>Node4&#45;&gt;Node5</title>
<g id="a_edge4_Node000004_Node000005"><a xlink:title=" ">
<path fill="none" stroke="#63b8ff" d="M717.19,-197.34C665.66,-202.41 599.68,-210.61 554.95,-217.66"/>
<polygon fill="#63b8ff" stroke="#63b8ff" points="717.49,-200.83 727.11,-196.39 716.82,-193.86 717.49,-200.83"/>
</a>
</g>
</g>
<!-- Node11 -->
<g id="Node000011" class="node">
<title>Node11</title>
<g id="a_Node000011"><a xlink:href="structxpath__parser.html#adcd54e9b508acfe1f040ee7a54b88f2a" target="_top" xlink:title=" ">
<polygon fill="white" stroke="#666666" points="692.75,-174 590.5,-174 590.5,-142 692.75,-142 692.75,-174"/>
<text xml:space="preserve" text-anchor="start" x="598.5" y="-160.5" font-family="Helvetica,sans-Serif" font-size="10.00">xpath_parser::parse</text>
<text xml:space="preserve" text-anchor="middle" x="641.62" y="-148.5" font-family="Helvetica,sans-Serif" font-size="10.00">_expression_rec</text>
</a>
</g>
</g>
<!-- Node4&#45;&gt;Node11 -->
<g id="edge15_Node000004_Node000011" class="edge">
<title>Node4&#45;&gt;Node11</title>
<g id="a_edge15_Node000004_Node000011"><a xlink:title=" ">
<path fill="none" stroke="#63b8ff" d="M717.2,-175.58C708.99,-173.64 700.81,-171.71 693.03,-169.88"/>
<polygon fill="#63b8ff" stroke="#63b8ff" points="716.37,-178.98 726.9,-177.86 717.97,-172.16 716.37,-178.98"/>
</a>
</g>
</g>
<!-- Node5&#45;&gt;Node2 -->
<g id="edge9_Node000005_Node000002" class="edge">
<title>Node5&#45;&gt;Node2</title>
<g id="a_edge9_Node000005_Node000002"><a xlink:title=" ">
<path fill="none" stroke="#63b8ff" d="M566.02,-246.57C574.19,-248.36 582.51,-249.92 590.5,-251 746.29,-272.12 931.11,-266.91 1002.25,-257 1015.15,-255.2 1028.81,-251.99 1041.43,-248.46"/>
<polygon fill="#63b8ff" stroke="#63b8ff" points="567,-243.2 556.47,-244.34 565.42,-250.02 567,-243.2"/>
</a>
</g>
</g>
<!-- Node5&#45;&gt;Node3 -->
<g id="edge7_Node000005_Node000003" class="edge">
<title>Node5&#45;&gt;Node3</title>
<g id="a_edge7_Node000005_Node000003"><a xlink:title=" ">
<path fill="none" stroke="#63b8ff" d="M566.28,-234.64C574.42,-235.2 582.66,-235.68 590.5,-236 700.77,-240.47 830.2,-236.86 899.77,-234.2"/>
<polygon fill="#63b8ff" stroke="#63b8ff" points="566.62,-231.15 556.39,-233.91 566.11,-238.13 566.62,-231.15"/>
</a>
</g>
</g>
<!-- Node5&#45;&gt;Node4 -->
<g id="edge8_Node000005_Node000004" class="edge">
<title>Node5&#45;&gt;Node4</title>
<g id="a_edge8_Node000005_Node000004"><a xlink:title=" ">
<path fill="none" stroke="#63b8ff" d="M566.35,-227.19C614.02,-222.88 679.78,-215.02 728.61,-207.81"/>
<polygon fill="#63b8ff" stroke="#63b8ff" points="566.11,-223.7 556.45,-228.05 566.72,-230.67 566.11,-223.7"/>
</a>
</g>
</g>
<!-- Node6 -->
<g id="Node000006" class="node">
<title>Node6</title>
<g id="a_Node000006"><a xlink:href="structxpath__parser.html#aa3fe0e7d23131b3943d8248646ecd362" target="_top" xlink:title=" ">
<polygon fill="white" stroke="#666666" points="404.25,-239 302,-239 302,-219 404.25,-219 404.25,-239"/>
<text xml:space="preserve" text-anchor="middle" x="353.12" y="-225.5" font-family="Helvetica,sans-Serif" font-size="10.00">xpath_parser::parse</text>
</a>
</g>
</g>
<!-- Node5&#45;&gt;Node6 -->
<g id="edge5_Node000005_Node000006" class="edge">
<title>Node5&#45;&gt;Node6</title>
<g id="a_edge5_Node000005_Node000006"><a xlink:title=" ">
<path fill="none" stroke="#63b8ff" d="M440.46,-229C428.48,-229 416.06,-229 404.5,-229"/>
<polygon fill="#63b8ff" stroke="#63b8ff" points="440.26,-232.5 450.26,-229 440.26,-225.5 440.26,-232.5"/>
</a>
</g>
</g>
<!-- Node5&#45;&gt;Node8 -->
<g id="edge10_Node000005_Node000008" class="edge">
<title>Node5&#45;&gt;Node8</title>
<g id="a_edge10_Node000005_Node000008"><a xlink:title=" ">
<path fill="none" stroke="#63b8ff" d="M478.71,-204.58C445.75,-170.56 387.44,-110.38 364.15,-86.34"/>
<polygon fill="#63b8ff" stroke="#63b8ff" points="475.98,-206.79 485.46,-211.54 481.01,-201.92 475.98,-206.79"/>
</a>
</g>
</g>
<!-- Node7 -->
<g id="Node000007" class="node">
<title>Node7</title>
<g id="a_Node000007"><a xlink:href="structxpath__parser.html#aad773be8b591966eb535018fcc2b6a66" target="_top" xlink:title=" ">
<polygon fill="white" stroke="#666666" points="247.25,-239 145,-239 145,-219 247.25,-219 247.25,-239"/>
<text xml:space="preserve" text-anchor="middle" x="196.12" y="-225.5" font-family="Helvetica,sans-Serif" font-size="10.00">xpath_parser::parse</text>
</a>
</g>
</g>
<!-- Node6&#45;&gt;Node7 -->
<g id="edge6_Node000006_Node000007" class="edge">
<title>Node6&#45;&gt;Node7</title>
<g id="a_edge6_Node000006_Node000007"><a xlink:title=" ">
<path fill="none" stroke="#63b8ff" d="M290.6,-229C276.38,-229 261.42,-229 247.73,-229"/>
<polygon fill="#63b8ff" stroke="#63b8ff" points="290.29,-232.5 300.29,-229 290.29,-225.5 290.29,-232.5"/>
</a>
</g>
</g>
<!-- Node9 -->
<g id="Node000009" class="node">
<title>Node9</title>
<g id="a_Node000009"><a xlink:href="structxpath__parser.html#aebea559423376001c89b19216dfc3012" target="_top" xlink:title=" ">
<polygon fill="white" stroke="#666666" points="254,-86 138.25,-86 138.25,-54 254,-54 254,-86"/>
<text xml:space="preserve" text-anchor="start" x="146.25" y="-72.5" font-family="Helvetica,sans-Serif" font-size="10.00">xpath_parser::parse</text>
<text xml:space="preserve" text-anchor="middle" x="196.12" y="-60.5" font-family="Helvetica,sans-Serif" font-size="10.00">_relative_location_path</text>
</a>
</g>
</g>
<!-- Node8&#45;&gt;Node9 -->
<g id="edge11_Node000008_Node000009" class="edge">
<title>Node8&#45;&gt;Node9</title>
<g id="a_edge11_Node000008_Node000009"><a xlink:title=" ">
<path fill="none" stroke="#63b8ff" d="M278.28,-73.14C270.27,-72.83 262.21,-72.52 254.45,-72.22"/>
<polygon fill="#63b8ff" stroke="#63b8ff" points="277.89,-76.63 288.01,-73.52 278.16,-69.63 277.89,-76.63"/>
</a>
</g>
</g>
<!-- Node9&#45;&gt;Node4 -->
<g id="edge14_Node000009_Node000004" class="edge">
<title>Node9&#45;&gt;Node4</title>
<g id="a_edge14_Node000009_Node000004"><a xlink:title=" ">
<path fill="none" stroke="#63b8ff" d="M265.55,-58.55C365.06,-45.24 553.03,-32.87 692.75,-100 731.08,-118.42 765.21,-155.94 782.8,-177.59"/>
<polygon fill="#63b8ff" stroke="#63b8ff" points="265.38,-55.05 255.95,-59.88 266.34,-61.98 265.38,-55.05"/>
</a>
</g>
</g>
<!-- Node10 -->
<g id="Node000010" class="node">
<title>Node10</title>
<g id="a_Node000010"><a xlink:href="structxpath__parser.html#af14e396ddb7817998ec221eec6b781ab" target="_top" xlink:title=" ">
<polygon fill="white" stroke="#666666" points="102.25,-108 0,-108 0,-76 102.25,-76 102.25,-108"/>
<text xml:space="preserve" text-anchor="start" x="8" y="-94.5" font-family="Helvetica,sans-Serif" font-size="10.00">xpath_parser::parse</text>
<text xml:space="preserve" text-anchor="middle" x="51.12" y="-82.5" font-family="Helvetica,sans-Serif" font-size="10.00">_location_path</text>
</a>
</g>
</g>
<!-- Node9&#45;&gt;Node10 -->
<g id="edge12_Node000009_Node000010" class="edge">
<title>Node9&#45;&gt;Node10</title>
<g id="a_edge12_Node000009_Node000010"><a xlink:title=" ">
<path fill="none" stroke="#63b8ff" d="M126.47,-80.56C118.41,-81.8 110.3,-83.05 102.56,-84.24"/>
<polygon fill="#63b8ff" stroke="#63b8ff" points="126.94,-84.03 136.29,-79.05 125.87,-77.11 126.94,-84.03"/>
</a>
</g>
</g>
<!-- Node10&#45;&gt;Node4 -->
<g id="edge13_Node000010_Node000004" class="edge">
<title>Node10&#45;&gt;Node4</title>
<g id="a_edge13_Node000010_Node000004"><a xlink:title=" ">
<path fill="none" stroke="#63b8ff" d="M114.01,-99.2C174.6,-105.61 269.58,-114 352.12,-114 504.38,-114 504.38,-114 504.38,-114 588.52,-114 612.83,-106.66 692.75,-133 723.26,-143.06 754.45,-163.3 774.31,-177.7"/>
<polygon fill="#63b8ff" stroke="#63b8ff" points="114.56,-95.73 104.24,-98.14 113.81,-102.69 114.56,-95.73"/>
</a>
</g>
</g>
<!-- Node11&#45;&gt;Node5 -->
<g id="edge16_Node000011_Node000005" class="edge">
<title>Node11&#45;&gt;Node5</title>
<g id="a_edge16_Node000011_Node000005"><a xlink:title=" ">
<path fill="none" stroke="#63b8ff" d="M599.07,-179.65C578.71,-190.26 554.6,-202.83 535.8,-212.62"/>
<polygon fill="#63b8ff" stroke="#63b8ff" points="600.43,-182.89 607.68,-175.17 597.2,-176.68 600.43,-182.89"/>
</a>
</g>
</g>
<!-- Node11&#45;&gt;Node11 -->
<g id="edge17_Node000011_Node000011" class="edge">
<title>Node11&#45;&gt;Node11</title>
<g id="a_edge17_Node000011_Node000011"><a xlink:title=" ">
<path fill="none" stroke="#63b8ff" d="M664.66,-185.71C660.82,-189.48 653.14,-192 641.62,-192 620.56,-192 612.34,-183.58 616.94,-174.44"/>
<polygon fill="#63b8ff" stroke="#63b8ff" points="668.11,-186.34 666.09,-175.94 661.18,-185.33 668.11,-186.34"/>
</a>
</g>
</g>
</g>
</svg>
