<?xml version="1.0" encoding="UTF-8" standalone="no"?>
<!DOCTYPE svg PUBLIC "-//W3C//DTD SVG 1.1//EN"
 "http://www.w3.org/Graphics/SVG/1.1/DTD/svg11.dtd">
<!-- Generated by graphviz version 14.1.2 (20260124.0452)
 -->
<!-- Title: pugi::xml_text::xml_text Pages: 1 -->
<svg width="290pt" height="294pt"
 viewBox="0.00 0.00 290.00 294.00" xmlns="http://www.w3.org/2000/svg" xmlns:xlink="http://www.w3.org/1999/xlink">
<g id="graph0" class="graph" transform="scale(1 1) rotate(0) translate(4 290)">
<title>pugi::xml_text::xml_text</title>
<!-- Node1 -->
<g id="Node000001" class="node">
<title>Node1</title>
<g id="a_Node000001"><a xlink:title=" ">
<polygon fill="#999999" stroke="#666666" points="281.75,-153 160.75,-153 160.75,-133 281.75,-133 281.75,-153"/>
<text xml:space="preserve" text-anchor="middle" x="221.25" y="-139.5" font-family="Helvetica,sans-Serif" font-size="10.00">pugi::xml_text::xml_text</text>
</a>
</g>
</g>
<!-- Node2 -->
<g id="Node000002" class="node">
<title>Node2</title>
<g id="a_Node000002"><a xlink:href="classpugi_1_1xml__text.html#a81b4238dae036fe8a81bbd3b3125d70b" target="_top" xlink:title=" ">
<polygon fill="white" stroke="#666666" points="124.75,-286 0,-286 0,-266 124.75,-266 124.75,-286"/>
<text xml:space="preserve" text-anchor="middle" x="62.38" y="-272.5" font-family="Helvetica,sans-Serif" font-size="10.00">pugi::xml_text::operator=</text>
</a>
</g>
</g>
<!-- Node1&#45;&gt;Node2 -->
<g id="edge1_Node000001_Node000002" class="edge">
<title>Node1&#45;&gt;Node2</title>
<g id="a_edge1_Node000001_Node000002"><a xlink:title=" ">
<path fill="none" stroke="#63b8ff" d="M208.68,-162.88C192.88,-188.34 162.19,-232.11 124.75,-257 119.64,-260.4 113.9,-263.21 108.02,-265.54"/>
<polygon fill="#63b8ff" stroke="#63b8ff" points="211.57,-164.87 213.74,-154.5 205.57,-161.26 211.57,-164.87"/>
</a>
</g>
</g>
<!-- Node3 -->
<g id="Node000003" class="node">
<title>Node3</title>
<g id="a_Node000003"><a xlink:href="classpugi_1_1xml__text.html#a1a08c9c8b703e929d4b3bf2e6f61149d" target="_top" xlink:title=" ">
<polygon fill="white" stroke="#666666" points="124.75,-248 0,-248 0,-228 124.75,-228 124.75,-248"/>
<text xml:space="preserve" text-anchor="middle" x="62.38" y="-234.5" font-family="Helvetica,sans-Serif" font-size="10.00">pugi::xml_text::operator=</text>
</a>
</g>
</g>
<!-- Node1&#45;&gt;Node3 -->
<g id="edge2_Node000001_Node000003" class="edge">
<title>Node1&#45;&gt;Node3</title>
<g id="a_edge2_Node000001_Node000003"><a xlink:title=" ">
<path fill="none" stroke="#63b8ff" d="M202.04,-160.97C183.84,-178.03 154.37,-203.34 124.75,-219 118.44,-222.34 111.45,-225.19 104.51,-227.6"/>
<polygon fill="#63b8ff" stroke="#63b8ff" points="204.12,-163.82 208.92,-154.38 199.28,-158.76 204.12,-163.82"/>
</a>
</g>
</g>
<!-- Node4 -->
<g id="Node000004" class="node">
<title>Node4</title>
<g id="a_Node000004"><a xlink:href="classpugi_1_1xml__text.html#ab78070dd0b8ea25e4351d9ca28bf7923" target="_top" xlink:title=" ">
<polygon fill="white" stroke="#666666" points="124.75,-210 0,-210 0,-190 124.75,-190 124.75,-210"/>
<text xml:space="preserve" text-anchor="middle" x="62.38" y="-196.5" font-family="Helvetica,sans-Serif" font-size="10.00">pugi::xml_text::operator=</text>
</a>
</g>
</g>
<!-- Node1&#45;&gt;Node4 -->
<g id="edge3_Node000001_Node000004" class="edge">
<title>Node1&#45;&gt;Node4</title>
<g id="a_edge3_Node000001_Node000004"><a xlink:title=" ">
<path fill="none" stroke="#63b8ff" d="M185.16,-157.73C167.22,-165.06 144.95,-173.87 124.75,-181 116.44,-183.93 107.42,-186.87 98.91,-189.52"/>
<polygon fill="#63b8ff" stroke="#63b8ff" points="186.41,-161 194.32,-153.95 183.74,-154.53 186.41,-161"/>
</a>
</g>
</g>
<!-- Node5 -->
<g id="Node000005" class="node">
<title>Node5</title>
<g id="a_Node000005"><a xlink:href="classpugi_1_1xml__text.html#a599caf816bcffda85ca04be72b153937" target="_top" xlink:title=" ">
<polygon fill="white" stroke="#666666" points="124.75,-172 0,-172 0,-152 124.75,-152 124.75,-172"/>
<text xml:space="preserve" text-anchor="middle" x="62.38" y="-158.5" font-family="Helvetica,sans-Serif" font-size="10.00">pugi::xml_text::operator=</text>
</a>
</g>
</g>
<!-- Node1&#45;&gt;Node5 -->
<g id="edge4_Node000001_Node000005" class="edge">
<title>Node1&#45;&gt;Node5</title>
<g id="a_edge4_Node000001_Node000005"><a xlink:title=" ">
<path fill="none" stroke="#63b8ff" d="M149.2,-151.6C141.14,-152.58 132.97,-153.57 125.05,-154.53"/>
<polygon fill="#63b8ff" stroke="#63b8ff" points="149.49,-155.1 158.99,-150.42 148.64,-148.15 149.49,-155.1"/>
</a>
</g>
</g>
<!-- Node6 -->
<g id="Node000006" class="node">
<title>Node6</title>
<g id="a_Node000006"><a xlink:href="classpugi_1_1xml__text.html#ad98117a3a16fe2ebd80e33a3468421f4" target="_top" xlink:title=" ">
<polygon fill="white" stroke="#666666" points="124.75,-134 0,-134 0,-114 124.75,-114 124.75,-134"/>
<text xml:space="preserve" text-anchor="middle" x="62.38" y="-120.5" font-family="Helvetica,sans-Serif" font-size="10.00">pugi::xml_text::operator=</text>
</a>
</g>
</g>
<!-- Node1&#45;&gt;Node6 -->
<g id="edge5_Node000001_Node000006" class="edge">
<title>Node1&#45;&gt;Node6</title>
<g id="a_edge5_Node000001_Node000006"><a xlink:title=" ">
<path fill="none" stroke="#63b8ff" d="M149.2,-134.4C141.14,-133.42 132.97,-132.43 125.05,-131.47"/>
<polygon fill="#63b8ff" stroke="#63b8ff" points="148.64,-137.85 158.99,-135.58 149.49,-130.9 148.64,-137.85"/>
</a>
</g>
</g>
<!-- Node7 -->
<g id="Node000007" class="node">
<title>Node7</title>
<g id="a_Node000007"><a xlink:href="classpugi_1_1xml__text.html#a29a0ab34bacdc90797f6db9878dcf1ef" target="_top" xlink:title=" ">
<polygon fill="white" stroke="#666666" points="124.75,-96 0,-96 0,-76 124.75,-76 124.75,-96"/>
<text xml:space="preserve" text-anchor="middle" x="62.38" y="-82.5" font-family="Helvetica,sans-Serif" font-size="10.00">pugi::xml_text::operator=</text>
</a>
</g>
</g>
<!-- Node1&#45;&gt;Node7 -->
<g id="edge6_Node000001_Node000007" class="edge">
<title>Node1&#45;&gt;Node7</title>
<g id="a_edge6_Node000001_Node000007"><a xlink:title=" ">
<path fill="none" stroke="#63b8ff" d="M185.16,-128.27C167.22,-120.94 144.95,-112.13 124.75,-105 116.44,-102.07 107.42,-99.13 98.91,-96.48"/>
<polygon fill="#63b8ff" stroke="#63b8ff" points="183.74,-131.47 194.32,-132.05 186.41,-125 183.74,-131.47"/>
</a>
</g>
</g>
<!-- Node8 -->
<g id="Node000008" class="node">
<title>Node8</title>
<g id="a_Node000008"><a xlink:href="classpugi_1_1xml__text.html#a48fb4cbc530a6ef28c408d81487f0e40" target="_top" xlink:title=" ">
<polygon fill="white" stroke="#666666" points="124.75,-58 0,-58 0,-38 124.75,-38 124.75,-58"/>
<text xml:space="preserve" text-anchor="middle" x="62.38" y="-44.5" font-family="Helvetica,sans-Serif" font-size="10.00">pugi::xml_text::operator=</text>
</a>
</g>
</g>
<!-- Node1&#45;&gt;Node8 -->
<g id="edge7_Node000001_Node000008" class="edge">
<title>Node1&#45;&gt;Node8</title>
<g id="a_edge7_Node000001_Node000008"><a xlink:title=" ">
<path fill="none" stroke="#63b8ff" d="M202.04,-125.03C183.84,-107.97 154.37,-82.66 124.75,-67 118.44,-63.66 111.45,-60.81 104.51,-58.4"/>
<polygon fill="#63b8ff" stroke="#63b8ff" points="199.28,-127.24 208.92,-131.62 204.12,-122.18 199.28,-127.24"/>
</a>
</g>
</g>
<!-- Node9 -->
<g id="Node000009" class="node">
<title>Node9</title>
<g id="a_Node000009"><a xlink:href="classpugi_1_1xml__text.html#a6d7074af69fe080f02154bceb4d1d61a" target="_top" xlink:title=" ">
<polygon fill="white" stroke="#666666" points="124.75,-20 0,-20 0,0 124.75,0 124.75,-20"/>
<text xml:space="preserve" text-anchor="middle" x="62.38" y="-6.5" font-family="Helvetica,sans-Serif" font-size="10.00">pugi::xml_text::operator=</text>
</a>
</g>
</g>
<!-- Node1&#45;&gt;Node9 -->
<g id="edge8_Node000001_Node000009" class="edge">
<title>Node1&#45;&gt;Node9</title>
<g id="a_edge8_Node000001_Node000009"><a xlink:title=" ">
<path fill="none" stroke="#63b8ff" d="M208.68,-123.12C192.88,-97.66 162.19,-53.89 124.75,-29 119.64,-25.6 113.9,-22.79 108.02,-20.46"/>
<polygon fill="#63b8ff" stroke="#63b8ff" points="205.57,-124.74 213.74,-131.5 211.57,-121.13 205.57,-124.74"/>
</a>
</g>
</g>
</g>
</svg>
