<?xml version="1.0" encoding="UTF-8" standalone="no"?>
<!DOCTYPE svg PUBLIC "-//W3C//DTD SVG 1.1//EN"
 "http://www.w3.org/Graphics/SVG/1.1/DTD/svg11.dtd">
<!-- Generated by graphviz version 14.1.2 (20260124.0452)
 -->
<!-- Title: pugi::xml_text::_data_new Pages: 1 -->
<svg width="300pt" height="84pt"
 viewBox="0.00 0.00 300.00 84.00" xmlns="http://www.w3.org/2000/svg" xmlns:xlink="http://www.w3.org/1999/xlink">
<g id="graph0" class="graph" transform="scale(1 1) rotate(0) translate(4 80)">
<title>pugi::xml_text::_data_new</title>
<!-- Node1 -->
<g id="Node000001" class="node">
<title>Node1</title>
<g id="a_Node000001"><a xlink:title=" ">
<polygon fill="#999999" stroke="#666666" points="130.75,-48 0,-48 0,-28 130.75,-28 130.75,-48"/>
<text xml:space="preserve" text-anchor="middle" x="65.38" y="-34.5" font-family="Helvetica,sans-Serif" font-size="10.00">pugi::xml_text::_data_new</text>
</a>
</g>
</g>
<!-- Node2 -->
<g id="Node000002" class="node">
<title>Node2</title>
<g id="a_Node000002"><a xlink:href="classpugi_1_1xml__text.html#a481e1b21c74e7a556383e7e060f25ff3" target="_top" xlink:title=" ">
<polygon fill="white" stroke="#666666" points="283.25,-76 175.75,-76 175.75,-56 283.25,-56 283.25,-76"/>
<text xml:space="preserve" text-anchor="middle" x="229.5" y="-62.5" font-family="Helvetica,sans-Serif" font-size="10.00">pugi::xml_text::_data</text>
</a>
</g>
</g>
<!-- Node1&#45;&gt;Node2 -->
<g id="edge1_Node000001_Node000002" class="edge">
<title>Node1&#45;&gt;Node2</title>
<g id="a_edge1_Node000001_Node000002"><a xlink:title=" ">
<path fill="none" stroke="#63b8ff" d="M126.74,-48.43C138.94,-50.53 151.82,-52.76 164.15,-54.89"/>
<polygon fill="#63b8ff" stroke="#63b8ff" points="163.34,-58.3 173.79,-56.55 164.53,-51.4 163.34,-58.3"/>
</a>
</g>
</g>
<!-- Node3 -->
<g id="Node000003" class="node">
<title>Node3</title>
<g id="a_Node000003"><a xlink:href="classpugi_1_1xml__text.html#a156d917a92815c7b593bd5ef19f6d5fb" target="_top" xlink:title=" ">
<polygon fill="white" stroke="#666666" points="292.25,-20 166.75,-20 166.75,0 292.25,0 292.25,-20"/>
<text xml:space="preserve" text-anchor="middle" x="229.5" y="-6.5" font-family="Helvetica,sans-Serif" font-size="10.00">pugi::xml_text::xml_node</text>
</a>
</g>
</g>
<!-- Node1&#45;&gt;Node3 -->
<g id="edge2_Node000001_Node000003" class="edge">
<title>Node1&#45;&gt;Node3</title>
<g id="a_edge2_Node000001_Node000003"><a xlink:title=" ">
<path fill="none" stroke="#63b8ff" d="M126.74,-27.57C136.49,-25.89 146.66,-24.13 156.65,-22.41"/>
<polygon fill="#63b8ff" stroke="#63b8ff" points="157.06,-25.89 166.32,-20.74 155.87,-18.99 157.06,-25.89"/>
</a>
</g>
</g>
<!-- Node3&#45;&gt;Node3 -->
<g id="edge3_Node000003_Node000003" class="edge">
<title>Node3&#45;&gt;Node3</title>
<g id="a_edge3_Node000003_Node000003"><a xlink:title=" ">
<path fill="none" stroke="#63b8ff" d="M203.42,-20.34C192.28,-28.98 200.97,-38 229.5,-38 245.1,-38 254.77,-35.3 258.51,-31.44"/>
<polygon fill="#63b8ff" stroke="#63b8ff" points="261.9,-30.58 255.96,-21.8 255.13,-32.36 261.9,-30.58"/>
</a>
</g>
</g>
</g>
</svg>
