<?xml version="1.0" encoding="UTF-8" standalone="no"?>
<!DOCTYPE svg PUBLIC "-//W3C//DTD SVG 1.1//EN"
 "http://www.w3.org/Graphics/SVG/1.1/DTD/svg11.dtd">
<!-- Generated by graphviz version 14.1.2 (20260124.0452)
 -->
<!-- Title: GEBalljoint::setLightRecursive Pages: 1 -->
<svg width="313pt" height="66pt"
 viewBox="0.00 0.00 313.00 66.00" xmlns="http://www.w3.org/2000/svg" xmlns:xlink="http://www.w3.org/1999/xlink">
<g id="graph0" class="graph" transform="scale(1 1) rotate(0) translate(4 62)">
<title>GEBalljoint::setLightRecursive</title>
<!-- Node1 -->
<g id="Node000001" class="node">
<title>Node1</title>
<g id="a_Node000001"><a xlink:title="Asigna la luz recursivamente.">
<polygon fill="#999999" stroke="#666666" points="149.5,-39 0,-39 0,-19 149.5,-19 149.5,-39"/>
<text xml:space="preserve" text-anchor="middle" x="74.75" y="-25.5" font-family="Helvetica,sans-Serif" font-size="10.00">GEBalljoint::setLightRecursive</text>
</a>
</g>
</g>
<!-- Node2 -->
<g id="Node000002" class="node">
<title>Node2</title>
<g id="a_Node000002"><a xlink:href="class_g_e_balljoint.html#a0f468b4618ae46410622a32a83569714" target="_top" xlink:title="Construye una articulación.">
<polygon fill="white" stroke="#666666" points="305,-58 185.5,-58 185.5,-38 305,-38 305,-58"/>
<text xml:space="preserve" text-anchor="middle" x="245.25" y="-44.5" font-family="Helvetica,sans-Serif" font-size="10.00">GEBalljoint::GEBalljoint</text>
</a>
</g>
</g>
<!-- Node1&#45;&gt;Node2 -->
<g id="edge1_Node000001_Node000002" class="edge">
<title>Node1&#45;&gt;Node2</title>
<g id="a_edge1_Node000001_Node000002"><a xlink:title=" ">
<path fill="none" stroke="#63b8ff" d="M149.66,-37.33C157.71,-38.24 165.89,-39.16 173.9,-40.07"/>
<polygon fill="#63b8ff" stroke="#63b8ff" points="173.25,-43.52 183.57,-41.16 174.03,-36.56 173.25,-43.52"/>
</a>
</g>
</g>
<!-- Node3 -->
<g id="Node000003" class="node">
<title>Node3</title>
<g id="a_Node000003"><a xlink:href="class_g_e_balljoint.html#a3e104492efc39779daca6bfdaaa5c472" target="_top" xlink:title="Asigna las propiedades de la luz.">
<polygon fill="white" stroke="#666666" points="297.88,-20 192.62,-20 192.62,0 297.88,0 297.88,-20"/>
<text xml:space="preserve" text-anchor="middle" x="245.25" y="-6.5" font-family="Helvetica,sans-Serif" font-size="10.00">GEBalljoint::setLight</text>
</a>
</g>
</g>
<!-- Node1&#45;&gt;Node3 -->
<g id="edge2_Node000001_Node000003" class="edge">
<title>Node1&#45;&gt;Node3</title>
<g id="a_edge2_Node000001_Node000003"><a xlink:title=" ">
<path fill="none" stroke="#63b8ff" d="M149.66,-20.67C160.06,-19.49 170.69,-18.3 180.87,-17.15"/>
<polygon fill="#63b8ff" stroke="#63b8ff" points="181.11,-20.64 190.65,-16.04 180.32,-13.69 181.11,-20.64"/>
</a>
</g>
</g>
</g>
</svg>
