<?xml version="1.0" encoding="UTF-8" standalone="no"?>
<!DOCTYPE svg PUBLIC "-//W3C//DTD SVG 1.1//EN"
 "http://www.w3.org/Graphics/SVG/1.1/DTD/svg11.dtd">
<!-- Generated by graphviz version 14.1.2 (20260124.0452)
 -->
<!-- Title: pugi::xml_node::prepend_child Pages: 1 -->
<svg width="297pt" height="104pt"
 viewBox="0.00 0.00 297.00 104.00" xmlns="http://www.w3.org/2000/svg" xmlns:xlink="http://www.w3.org/1999/xlink">
<g id="graph0" class="graph" transform="scale(1 1) rotate(0) translate(4 100)">
<title>pugi::xml_node::prepend_child</title>
<!-- Node1 -->
<g id="Node000001" class="node">
<title>Node1</title>
<g id="a_Node000001"><a xlink:title=" ">
<polygon fill="#999999" stroke="#666666" points="122.5,-64 0,-64 0,-32 122.5,-32 122.5,-64"/>
<text xml:space="preserve" text-anchor="start" x="8" y="-50.5" font-family="Helvetica,sans-Serif" font-size="10.00">pugi::xml_node::prepend</text>
<text xml:space="preserve" text-anchor="middle" x="61.25" y="-38.5" font-family="Helvetica,sans-Serif" font-size="10.00">_child</text>
</a>
</g>
</g>
<!-- Node2 -->
<g id="Node000002" class="node">
<title>Node2</title>
<g id="a_Node000002"><a xlink:href="classpugi_1_1xml__node.html#a461ee70affaf5ad3d4bdd089889f6a1a" target="_top" xlink:title=" ">
<polygon fill="white" stroke="#666666" points="289.25,-96 158.5,-96 158.5,-76 289.25,-76 289.25,-96"/>
<text xml:space="preserve" text-anchor="middle" x="223.88" y="-82.5" font-family="Helvetica,sans-Serif" font-size="10.00">pugi::xml_node::set_name</text>
</a>
</g>
</g>
<!-- Node1&#45;&gt;Node2 -->
<g id="edge1_Node000001_Node000002" class="edge">
<title>Node1&#45;&gt;Node2</title>
<g id="a_edge1_Node000001_Node000002"><a xlink:title=" ">
<path fill="none" stroke="#63b8ff" d="M122.98,-62.37C137.56,-65.82 153.05,-69.48 167.38,-72.87"/>
<polygon fill="#63b8ff" stroke="#63b8ff" points="166.57,-76.28 177.11,-75.17 168.19,-69.47 166.57,-76.28"/>
</a>
</g>
</g>
<!-- Node3 -->
<g id="Node000003" class="node">
<title>Node3</title>
<g id="a_Node000003"><a xlink:href="classpugi_1_1xml__node.html#aa018a135915ec8b2e3388feab2a78cfe" target="_top" xlink:title=" ">
<polygon fill="white" stroke="#666666" points="277.25,-58 170.5,-58 170.5,-38 277.25,-38 277.25,-58"/>
<text xml:space="preserve" text-anchor="middle" x="223.88" y="-44.5" font-family="Helvetica,sans-Serif" font-size="10.00">pugi::xml_node::type</text>
</a>
</g>
</g>
<!-- Node1&#45;&gt;Node3 -->
<g id="edge2_Node000001_Node000003" class="edge">
<title>Node1&#45;&gt;Node3</title>
<g id="a_edge2_Node000001_Node000003"><a xlink:title=" ">
<path fill="none" stroke="#63b8ff" d="M122.98,-48C134.76,-48 147.14,-48 159.02,-48"/>
<polygon fill="#63b8ff" stroke="#63b8ff" points="158.7,-51.5 168.7,-48 158.7,-44.5 158.7,-51.5"/>
</a>
</g>
</g>
<!-- Node4 -->
<g id="Node000004" class="node">
<title>Node4</title>
<g id="a_Node000004"><a xlink:href="classpugi_1_1xml__node.html#a4641476ddd4869da18f0738186b17368" target="_top" xlink:title=" ">
<polygon fill="white" stroke="#666666" points="288.88,-20 158.88,-20 158.88,0 288.88,0 288.88,-20"/>
<text xml:space="preserve" text-anchor="middle" x="223.88" y="-6.5" font-family="Helvetica,sans-Serif" font-size="10.00">pugi::xml_node::xml_node</text>
</a>
</g>
</g>
<!-- Node1&#45;&gt;Node4 -->
<g id="edge3_Node000001_Node000004" class="edge">
<title>Node1&#45;&gt;Node4</title>
<g id="a_edge3_Node000001_Node000004"><a xlink:title=" ">
<path fill="none" stroke="#63b8ff" d="M122.98,-33.63C137.56,-30.18 153.05,-26.52 167.38,-23.13"/>
<polygon fill="#63b8ff" stroke="#63b8ff" points="168.19,-26.53 177.11,-20.83 166.57,-19.72 168.19,-26.53"/>
</a>
</g>
</g>
</g>
</svg>
