<?xml version="1.0" encoding="UTF-8" standalone="no"?>
<!DOCTYPE svg PUBLIC "-//W3C//DTD SVG 1.1//EN"
 "http://www.w3.org/Graphics/SVG/1.1/DTD/svg11.dtd">
<!-- Generated by graphviz version 14.1.2 (20260124.0452)
 -->
<!-- Title: xpath_ast_node::apply_predicate_boolean Pages: 1 -->
<svg width="1213pt" height="289pt"
 viewBox="0.00 0.00 1213.00 289.00" xmlns="http://www.w3.org/2000/svg" xmlns:xlink="http://www.w3.org/1999/xlink">
<g id="graph0" class="graph" transform="scale(1 1) rotate(0) translate(4 285)">
<title>xpath_ast_node::apply_predicate_boolean</title>
<!-- Node1 -->
<g id="Node000001" class="node">
<title>Node1</title>
<g id="a_Node000001"><a xlink:title=" ">
<polygon fill="#999999" stroke="#666666" points="1205,-232 1090.75,-232 1090.75,-200 1205,-200 1205,-232"/>
<text xml:space="preserve" text-anchor="start" x="1098.75" y="-218.5" font-family="Helvetica,sans-Serif" font-size="10.00">xpath_ast_node::apply</text>
<text xml:space="preserve" text-anchor="middle" x="1147.88" y="-206.5" font-family="Helvetica,sans-Serif" font-size="10.00">_predicate_boolean</text>
</a>
</g>
</g>
<!-- Node2 -->
<g id="Node000002" class="node">
<title>Node2</title>
<g id="a_Node000002"><a xlink:href="classxpath__ast__node.html#a7e35f265c9e0712a16e1d8a9db4c7672" target="_top" xlink:title=" ">
<polygon fill="white" stroke="#666666" points="1054.75,-190 940.5,-190 940.5,-158 1054.75,-158 1054.75,-190"/>
<text xml:space="preserve" text-anchor="start" x="948.5" y="-176.5" font-family="Helvetica,sans-Serif" font-size="10.00">xpath_ast_node::apply</text>
<text xml:space="preserve" text-anchor="middle" x="997.62" y="-164.5" font-family="Helvetica,sans-Serif" font-size="10.00">_predicate</text>
</a>
</g>
</g>
<!-- Node1&#45;&gt;Node2 -->
<g id="edge1_Node000001_Node000002" class="edge">
<title>Node1&#45;&gt;Node2</title>
<g id="a_edge1_Node000001_Node000002"><a xlink:title=" ">
<path fill="none" stroke="#63b8ff" d="M1079.37,-196.88C1071.2,-194.56 1062.92,-192.22 1054.94,-189.95"/>
<polygon fill="#63b8ff" stroke="#63b8ff" points="1078.37,-200.23 1088.95,-199.59 1080.28,-193.5 1078.37,-200.23"/>
</a>
</g>
</g>
<!-- Node3 -->
<g id="Node000003" class="node">
<title>Node3</title>
<g id="a_Node000003"><a xlink:href="classxpath__ast__node.html#a68cace396dd4eeae67ecfcd34a3a8285" target="_top" xlink:title=" ">
<polygon fill="white" stroke="#666666" points="904.5,-170 795.5,-170 795.5,-138 904.5,-138 904.5,-170"/>
<text xml:space="preserve" text-anchor="start" x="803.5" y="-156.5" font-family="Helvetica,sans-Serif" font-size="10.00">xpath_ast_node::eval</text>
<text xml:space="preserve" text-anchor="middle" x="850" y="-144.5" font-family="Helvetica,sans-Serif" font-size="10.00">_node_set</text>
</a>
</g>
</g>
<!-- Node2&#45;&gt;Node3 -->
<g id="edge2_Node000002_Node000003" class="edge">
<title>Node2&#45;&gt;Node3</title>
<g id="a_edge2_Node000002_Node000003"><a xlink:title=" ">
<path fill="none" stroke="#63b8ff" d="M928.95,-164.71C920.84,-163.59 912.64,-162.47 904.76,-161.38"/>
<polygon fill="#63b8ff" stroke="#63b8ff" points="928.44,-168.17 938.82,-166.06 929.39,-161.23 928.44,-168.17"/>
</a>
</g>
</g>
<!-- Node4 -->
<g id="Node000004" class="node">
<title>Node4</title>
<g id="a_Node000004"><a xlink:href="classxpath__ast__node.html#a98dd7f6e67fe2c56c63056eed835d6a4" target="_top" xlink:title=" ">
<polygon fill="white" stroke="#666666" points="759.5,-164 615.25,-164 615.25,-144 759.5,-144 759.5,-164"/>
<text xml:space="preserve" text-anchor="middle" x="687.38" y="-150.5" font-family="Helvetica,sans-Serif" font-size="10.00">xpath_ast_node::compare_eq</text>
</a>
</g>
</g>
<!-- Node3&#45;&gt;Node4 -->
<g id="edge3_Node000003_Node000004" class="edge">
<title>Node3&#45;&gt;Node4</title>
<g id="a_edge3_Node000003_Node000004"><a xlink:title=" ">
<path fill="none" stroke="#63b8ff" d="M783.73,-154C775.86,-154 767.8,-154 759.85,-154"/>
<polygon fill="#63b8ff" stroke="#63b8ff" points="783.55,-157.5 793.55,-154 783.55,-150.5 783.55,-157.5"/>
</a>
</g>
</g>
<!-- Node5 -->
<g id="Node000005" class="node">
<title>Node5</title>
<g id="a_Node000005"><a xlink:href="classxpath__ast__node.html#ab7f965a92023bc2704b8e6fd9f3d7c14" target="_top" xlink:title=" ">
<polygon fill="white" stroke="#666666" points="579.25,-212 470.25,-212 470.25,-180 579.25,-180 579.25,-212"/>
<text xml:space="preserve" text-anchor="start" x="478.25" y="-198.5" font-family="Helvetica,sans-Serif" font-size="10.00">xpath_ast_node::eval</text>
<text xml:space="preserve" text-anchor="middle" x="524.75" y="-186.5" font-family="Helvetica,sans-Serif" font-size="10.00">_boolean</text>
</a>
</g>
</g>
<!-- Node3&#45;&gt;Node5 -->
<g id="edge22_Node000003_Node000005" class="edge">
<title>Node3&#45;&gt;Node5</title>
<g id="a_edge22_Node000003_Node000005"><a xlink:title=" ">
<path fill="none" stroke="#63b8ff" d="M784.08,-168.67C775.83,-170.27 767.49,-171.76 759.5,-173 698.05,-182.52 626.86,-188.86 579.34,-192.43"/>
<polygon fill="#63b8ff" stroke="#63b8ff" points="784.63,-172.13 793.74,-166.73 783.25,-165.26 784.63,-172.13"/>
</a>
</g>
</g>
<!-- Node9 -->
<g id="Node000009" class="node">
<title>Node9</title>
<g id="a_Node000009"><a xlink:href="classxpath__ast__node.html#abb6e4c529276eaf882233dbb6e04e111" target="_top" xlink:title=" ">
<polygon fill="white" stroke="#666666" points="144.25,-153 0,-153 0,-133 144.25,-133 144.25,-153"/>
<text xml:space="preserve" text-anchor="middle" x="72.12" y="-139.5" font-family="Helvetica,sans-Serif" font-size="10.00">xpath_ast_node::compare_rel</text>
</a>
</g>
</g>
<!-- Node3&#45;&gt;Node9 -->
<g id="edge21_Node000003_Node000009" class="edge">
<title>Node3&#45;&gt;Node9</title>
<g id="a_edge21_Node000003_Node000009"><a xlink:title=" ">
<path fill="none" stroke="#63b8ff" d="M813.11,-131.87C755,-98.2 635.71,-38 525.75,-38 525.75,-38 525.75,-38 378.75,-38 263.18,-38 135.7,-105.99 90.32,-132.55"/>
<polygon fill="#63b8ff" stroke="#63b8ff" points="811.2,-134.81 821.6,-136.86 814.75,-128.77 811.2,-134.81"/>
</a>
</g>
</g>
<!-- Node10 -->
<g id="Node000010" class="node">
<title>Node10</title>
<g id="a_Node000010"><a xlink:href="classxpath__ast__node.html#a6b675237a590548b68d0e0b97518b6df" target="_top" xlink:title=" ">
<polygon fill="white" stroke="#666666" points="434.25,-159 325.25,-159 325.25,-127 434.25,-127 434.25,-159"/>
<text xml:space="preserve" text-anchor="start" x="333.25" y="-145.5" font-family="Helvetica,sans-Serif" font-size="10.00">xpath_ast_node::eval</text>
<text xml:space="preserve" text-anchor="middle" x="379.75" y="-133.5" font-family="Helvetica,sans-Serif" font-size="10.00">_string</text>
</a>
</g>
</g>
<!-- Node3&#45;&gt;Node10 -->
<g id="edge23_Node000003_Node000010" class="edge">
<title>Node3&#45;&gt;Node10</title>
<g id="a_edge23_Node000003_Node000010"><a xlink:title=" ">
<path fill="none" stroke="#63b8ff" d="M784.18,-138.58C775.91,-137.1 767.54,-135.84 759.5,-135 644.21,-122.9 508.14,-131.25 434.55,-137.63"/>
<polygon fill="#63b8ff" stroke="#63b8ff" points="783.37,-141.99 793.85,-140.42 784.68,-135.11 783.37,-141.99"/>
</a>
</g>
</g>
<!-- Node4&#45;&gt;Node5 -->
<g id="edge4_Node000004_Node000005" class="edge">
<title>Node4&#45;&gt;Node5</title>
<g id="a_edge4_Node000004_Node000005"><a xlink:title=" ">
<path fill="none" stroke="#63b8ff" d="M609.95,-167.24C594.63,-171.19 579.12,-175.52 565.66,-179.64"/>
<polygon fill="#63b8ff" stroke="#63b8ff" points="610.74,-170.65 619.58,-164.81 609.02,-163.86 610.74,-170.65"/>
</a>
</g>
</g>
<!-- Node5&#45;&gt;Node1 -->
<g id="edge5_Node000005_Node000001" class="edge">
<title>Node5&#45;&gt;Node1</title>
<g id="a_edge5_Node000005_Node000001"><a xlink:title=" ">
<path fill="none" stroke="#63b8ff" d="M590.95,-198.1C713.24,-202.04 975.08,-210.47 1090.38,-214.18"/>
<polygon fill="#63b8ff" stroke="#63b8ff" points="591.18,-194.61 581.07,-197.78 590.95,-201.6 591.18,-194.61"/>
</a>
</g>
</g>
<!-- Node5&#45;&gt;Node4 -->
<g id="edge6_Node000005_Node000004" class="edge">
<title>Node5&#45;&gt;Node4</title>
<g id="a_edge6_Node000005_Node000004"><a xlink:title=" ">
<path fill="none" stroke="#63b8ff" d="M590.61,-185.68C616.99,-179.17 645.68,-171.05 664.71,-164.45"/>
<polygon fill="#63b8ff" stroke="#63b8ff" points="589.85,-182.26 580.95,-188.01 591.49,-189.07 589.85,-182.26"/>
</a>
</g>
</g>
<!-- Node6 -->
<g id="Node000006" class="node">
<title>Node6</title>
<g id="a_Node000006"><a xlink:href="classxpath__ast__node.html#a92dd7048e28d486bc7f382d1fc6f1de6" target="_top" xlink:title=" ">
<polygon fill="white" stroke="#666666" points="289.25,-159 180.25,-159 180.25,-127 289.25,-127 289.25,-159"/>
<text xml:space="preserve" text-anchor="start" x="188.25" y="-145.5" font-family="Helvetica,sans-Serif" font-size="10.00">xpath_ast_node::eval</text>
<text xml:space="preserve" text-anchor="middle" x="234.75" y="-133.5" font-family="Helvetica,sans-Serif" font-size="10.00">_number</text>
</a>
</g>
</g>
<!-- Node5&#45;&gt;Node6 -->
<g id="edge7_Node000005_Node000006" class="edge">
<title>Node5&#45;&gt;Node6</title>
<g id="a_edge7_Node000005_Node000006"><a xlink:title=" ">
<path fill="none" stroke="#63b8ff" d="M458.74,-181.2C419.8,-175.31 369.43,-168.24 325.25,-159 313.56,-156.56 301.16,-153.43 289.42,-150.45"/>
<polygon fill="#63b8ff" stroke="#63b8ff" points="458.01,-184.63 468.42,-182.68 459.07,-177.71 458.01,-184.63"/>
</a>
</g>
</g>
<!-- Node5&#45;&gt;Node10 -->
<g id="edge20_Node000005_Node000010" class="edge">
<title>Node5&#45;&gt;Node10</title>
<g id="a_edge20_Node000005_Node000010"><a xlink:title=" ">
<path fill="none" stroke="#63b8ff" d="M484.28,-175.26C468.92,-168.91 451.07,-162.15 434.57,-156.38"/>
<polygon fill="#63b8ff" stroke="#63b8ff" points="482.5,-178.31 493.07,-178.99 485.23,-171.86 482.5,-178.31"/>
</a>
</g>
</g>
<!-- Node6&#45;&gt;Node4 -->
<g id="edge12_Node000006_Node000004" class="edge">
<title>Node6&#45;&gt;Node4</title>
<g id="a_edge12_Node000006_Node000004"><a xlink:title=" ">
<path fill="none" stroke="#63b8ff" d="M296.46,-123.66C306,-121.31 315.83,-119.29 325.25,-118 440.58,-102.2 577.53,-127.95 644.83,-143.51"/>
<polygon fill="#63b8ff" stroke="#63b8ff" points="295.68,-120.25 286.88,-126.16 297.44,-127.02 295.68,-120.25"/>
</a>
</g>
</g>
<!-- Node6&#45;&gt;Node5 -->
<g id="edge15_Node000006_Node000005" class="edge">
<title>Node6&#45;&gt;Node5</title>
<g id="a_edge15_Node000006_Node000005"><a xlink:title=" ">
<path fill="none" stroke="#63b8ff" d="M273.78,-163.14C289.58,-168.42 308.19,-173.43 325.25,-177 373.79,-187.16 429.8,-194.68 469.92,-197.81"/>
<polygon fill="#63b8ff" stroke="#63b8ff" points="275.36,-159.99 264.76,-159.97 273.03,-166.59 275.36,-159.99"/>
</a>
</g>
</g>
<!-- Node7 -->
<g id="Node000007" class="node">
<title>Node7</title>
<g id="a_Node000007"><a xlink:href="classxpath__ast__node.html#abf2d4b745493f63aebc1c89d9fde8eed" target="_top" xlink:title=" ">
<polygon fill="white" stroke="#666666" points="129.25,-66 15,-66 15,-34 129.25,-34 129.25,-66"/>
<text xml:space="preserve" text-anchor="start" x="23" y="-52.5" font-family="Helvetica,sans-Serif" font-size="10.00">xpath_ast_node::apply</text>
<text xml:space="preserve" text-anchor="middle" x="72.12" y="-40.5" font-family="Helvetica,sans-Serif" font-size="10.00">_predicate_number</text>
</a>
</g>
</g>
<!-- Node6&#45;&gt;Node7 -->
<g id="edge8_Node000006_Node000007" class="edge">
<title>Node6&#45;&gt;Node7</title>
<g id="a_edge8_Node000006_Node000007"><a xlink:title=" ">
<path fill="none" stroke="#63b8ff" d="M195.64,-120.94C166.73,-104.2 127.64,-81.56 101.46,-66.4"/>
<polygon fill="#63b8ff" stroke="#63b8ff" points="193.69,-123.85 204.09,-125.83 197.19,-117.79 193.69,-123.85"/>
</a>
</g>
</g>
<!-- Node8 -->
<g id="Node000008" class="node">
<title>Node8</title>
<g id="a_Node000008"><a xlink:href="classxpath__ast__node.html#a8cedd7e15623b9fa431788b8843f1463" target="_top" xlink:title=" ">
<polygon fill="white" stroke="#666666" points="136,-250 8.25,-250 8.25,-218 136,-218 136,-250"/>
<text xml:space="preserve" text-anchor="start" x="16.25" y="-236.5" font-family="Helvetica,sans-Serif" font-size="10.00">xpath_ast_node::apply</text>
<text xml:space="preserve" text-anchor="middle" x="72.12" y="-224.5" font-family="Helvetica,sans-Serif" font-size="10.00">_predicate_number_const</text>
</a>
</g>
</g>
<!-- Node6&#45;&gt;Node8 -->
<g id="edge10_Node000006_Node000008" class="edge">
<title>Node6&#45;&gt;Node8</title>
<g id="a_edge10_Node000006_Node000008"><a xlink:title=" ">
<path fill="none" stroke="#63b8ff" d="M194.97,-164.97C166.33,-181.19 127.97,-202.93 102,-217.64"/>
<polygon fill="#63b8ff" stroke="#63b8ff" points="196.37,-168.2 203.35,-160.23 192.92,-162.11 196.37,-168.2"/>
</a>
</g>
</g>
<!-- Node6&#45;&gt;Node9 -->
<g id="edge13_Node000006_Node000009" class="edge">
<title>Node6&#45;&gt;Node9</title>
<g id="a_edge13_Node000006_Node000009"><a xlink:title=" ">
<path fill="none" stroke="#63b8ff" d="M168.48,-143C160.61,-143 152.55,-143 144.6,-143"/>
<polygon fill="#63b8ff" stroke="#63b8ff" points="168.3,-146.5 178.3,-143 168.3,-139.5 168.3,-146.5"/>
</a>
</g>
</g>
<!-- Node6&#45;&gt;Node10 -->
<g id="edge16_Node000006_Node000010" class="edge">
<title>Node6&#45;&gt;Node10</title>
<g id="a_edge16_Node000006_Node000010"><a xlink:title=" ">
<path fill="none" stroke="#63b8ff" d="M300.99,-149.73C309.06,-149.79 317.23,-149.73 325.1,-149.56"/>
<polygon fill="#63b8ff" stroke="#63b8ff" points="301.27,-146.23 291.22,-149.59 301.17,-153.23 301.27,-146.23"/>
</a>
</g>
</g>
<!-- Node7&#45;&gt;Node2 -->
<g id="edge9_Node000007_Node000002" class="edge">
<title>Node7&#45;&gt;Node2</title>
<g id="a_edge9_Node000007_Node000002"><a xlink:title=" ">
<path fill="none" stroke="#63b8ff" d="M140.68,-32.49C202.27,-18.08 295.99,0 378.75,0 688.38,0 688.38,0 688.38,0 815.89,0 939.21,-114.32 981.36,-157.63"/>
<polygon fill="#63b8ff" stroke="#63b8ff" points="139.96,-29.06 131.04,-34.78 141.58,-35.87 139.96,-29.06"/>
</a>
</g>
</g>
<!-- Node8&#45;&gt;Node2 -->
<g id="edge11_Node000008_Node000002" class="edge">
<title>Node8&#45;&gt;Node2</title>
<g id="a_edge11_Node000008_Node000002"><a xlink:title=" ">
<path fill="none" stroke="#63b8ff" d="M147.65,-251.96C209.23,-265.23 299.15,-281 378.75,-281 525.75,-281 525.75,-281 525.75,-281 687.13,-281 872.06,-220.5 953.87,-190.48"/>
<polygon fill="#63b8ff" stroke="#63b8ff" points="148.49,-248.56 137.97,-249.84 146.99,-255.4 148.49,-248.56"/>
</a>
</g>
</g>
<!-- Node9&#45;&gt;Node5 -->
<g id="edge14_Node000009_Node000005" class="edge">
<title>Node9&#45;&gt;Node5</title>
<g id="a_edge14_Node000009_Node000005"><a xlink:title=" ">
<path fill="none" stroke="#63b8ff" d="M128.59,-156.08C145.2,-159.96 163.45,-164.19 180.25,-168 244.61,-182.61 259.64,-192.85 325.25,-200 373.41,-205.25 385.82,-201.08 434.25,-200 445.76,-199.74 458.09,-199.3 469.81,-198.8"/>
<polygon fill="#63b8ff" stroke="#63b8ff" points="129.41,-152.68 118.87,-153.8 127.81,-159.49 129.41,-152.68"/>
</a>
</g>
</g>
<!-- Node10&#45;&gt;Node4 -->
<g id="edge17_Node000010_Node000004" class="edge">
<title>Node10&#45;&gt;Node4</title>
<g id="a_edge17_Node000010_Node000004"><a xlink:title=" ">
<path fill="none" stroke="#63b8ff" d="M445.67,-145.34C495.38,-147.13 563.89,-149.59 615.11,-151.43"/>
<polygon fill="#63b8ff" stroke="#63b8ff" points="446.05,-141.85 435.93,-144.99 445.8,-148.84 446.05,-141.85"/>
</a>
</g>
</g>
<!-- Node10&#45;&gt;Node5 -->
<g id="edge18_Node000010_Node000005" class="edge">
<title>Node10&#45;&gt;Node5</title>
<g id="a_edge18_Node000010_Node000005"><a xlink:title=" ">
<path fill="none" stroke="#63b8ff" d="M420.41,-163.81C435.77,-170.16 453.61,-176.92 470.1,-182.67"/>
<polygon fill="#63b8ff" stroke="#63b8ff" points="422.17,-160.76 411.6,-160.09 419.45,-167.21 422.17,-160.76"/>
</a>
</g>
</g>
<!-- Node10&#45;&gt;Node6 -->
<g id="edge19_Node000010_Node000006" class="edge">
<title>Node10&#45;&gt;Node6</title>
<g id="a_edge19_Node000010_Node000006"><a xlink:title=" ">
<path fill="none" stroke="#63b8ff" d="M313.81,-136.28C305.75,-136.21 297.58,-136.27 289.71,-136.43"/>
<polygon fill="#63b8ff" stroke="#63b8ff" points="313.53,-139.77 323.58,-136.42 313.63,-132.77 313.53,-139.77"/>
</a>
</g>
</g>
</g>
</svg>
