<?xml version="1.0" encoding="UTF-8" standalone="no"?>
<!DOCTYPE svg PUBLIC "-//W3C//DTD SVG 1.1//EN"
 "http://www.w3.org/Graphics/SVG/1.1/DTD/svg11.dtd">
<!-- Generated by graphviz version 14.1.2 (20260124.0452)
 -->
<!-- Title: GEBalljoint::addCommandsRecursive Pages: 1 -->
<svg width="318pt" height="66pt"
 viewBox="0.00 0.00 318.00 66.00" xmlns="http://www.w3.org/2000/svg" xmlns:xlink="http://www.w3.org/1999/xlink">
<g id="graph0" class="graph" transform="scale(1 1) rotate(0) translate(4 62)">
<title>GEBalljoint::addCommandsRecursive</title>
<!-- Node1 -->
<g id="Node000001" class="node">
<title>Node1</title>
<g id="a_Node000001"><a xlink:title="Añade comandos recursivamente.">
<polygon fill="#999999" stroke="#666666" points="136.75,-45 0,-45 0,-13 136.75,-13 136.75,-45"/>
<text xml:space="preserve" text-anchor="start" x="8" y="-31.5" font-family="Helvetica,sans-Serif" font-size="10.00">GEBalljoint::addCommands</text>
<text xml:space="preserve" text-anchor="middle" x="68.38" y="-19.5" font-family="Helvetica,sans-Serif" font-size="10.00">Recursive</text>
</a>
</g>
</g>
<!-- Node2 -->
<g id="Node000002" class="node">
<title>Node2</title>
<g id="a_Node000002"><a xlink:href="class_g_e_balljoint.html#ace7cdc556f1583ec09405db12e8b002e" target="_top" xlink:title="Añade los comandos de dibujo.">
<polygon fill="white" stroke="#666666" points="309.5,-58 172.75,-58 172.75,-38 309.5,-38 309.5,-58"/>
<text xml:space="preserve" text-anchor="middle" x="241.12" y="-44.5" font-family="Helvetica,sans-Serif" font-size="10.00">GEBalljoint::addCommands</text>
</a>
</g>
</g>
<!-- Node1&#45;&gt;Node2 -->
<g id="edge1_Node000001_Node000002" class="edge">
<title>Node1&#45;&gt;Node2</title>
<g id="a_edge1_Node000001_Node000002"><a xlink:title=" ">
<path fill="none" stroke="#63b8ff" d="M136.86,-36.51C144.78,-37.39 152.91,-38.3 160.98,-39.19"/>
<polygon fill="#63b8ff" stroke="#63b8ff" points="160.46,-42.66 170.79,-40.28 161.24,-35.7 160.46,-42.66"/>
</a>
</g>
</g>
<!-- Node3 -->
<g id="Node000003" class="node">
<title>Node3</title>
<g id="a_Node000003"><a xlink:href="class_g_e_balljoint.html#a0f468b4618ae46410622a32a83569714" target="_top" xlink:title="Construye una articulación.">
<polygon fill="white" stroke="#666666" points="300.88,-20 181.38,-20 181.38,0 300.88,0 300.88,-20"/>
<text xml:space="preserve" text-anchor="middle" x="241.12" y="-6.5" font-family="Helvetica,sans-Serif" font-size="10.00">GEBalljoint::GEBalljoint</text>
</a>
</g>
</g>
<!-- Node1&#45;&gt;Node3 -->
<g id="edge2_Node000001_Node000003" class="edge">
<title>Node1&#45;&gt;Node3</title>
<g id="a_edge2_Node000001_Node000003"><a xlink:title=" ">
<path fill="none" stroke="#63b8ff" d="M136.86,-21.49C147.72,-20.28 158.99,-19.03 169.91,-17.81"/>
<polygon fill="#63b8ff" stroke="#63b8ff" points="170.09,-21.32 179.64,-16.73 169.31,-14.36 170.09,-21.32"/>
</a>
</g>
</g>
</g>
</svg>
