<?xml version="1.0" encoding="UTF-8" standalone="no"?>
<!DOCTYPE svg PUBLIC "-//W3C//DTD SVG 1.1//EN"
 "http://www.w3.org/Graphics/SVG/1.1/DTD/svg11.dtd">
<!-- Generated by graphviz version 14.1.2 (20260124.0452)
 -->
<!-- Title: GECamera::update Pages: 1 -->
<svg width="264pt" height="408pt"
 viewBox="0.00 0.00 264.00 408.00" xmlns="http://www.w3.org/2000/svg" xmlns:xlink="http://www.w3.org/1999/xlink">
<g id="graph0" class="graph" transform="scale(1 1) rotate(0) translate(4 404)">
<title>GECamera::update</title>
<!-- Node1 -->
<g id="Node000001" class="node">
<title>Node1</title>
<g id="a_Node000001"><a xlink:title="Actualiza la posición y orientación según entradas.">
<polygon fill="#999999" stroke="#666666" points="100,-210 0,-210 0,-190 100,-190 100,-210"/>
<text xml:space="preserve" text-anchor="middle" x="50" y="-196.5" font-family="Helvetica,sans-Serif" font-size="10.00">GECamera::update</text>
</a>
</g>
</g>
<!-- Node2 -->
<g id="Node000002" class="node">
<title>Node2</title>
<g id="a_Node000002"><a xlink:href="class_g_e_camera.html#aa920ec52e1d44bbc8cc89aece25421ce" target="_top" xlink:title="Mueve el observador un paso hacia abajo.">
<polygon fill="white" stroke="#666666" points="256.25,-400 136,-400 136,-380 256.25,-380 256.25,-400"/>
<text xml:space="preserve" text-anchor="middle" x="196.12" y="-386.5" font-family="Helvetica,sans-Serif" font-size="10.00">GECamera::moveDown</text>
</a>
</g>
</g>
<!-- Node1&#45;&gt;Node2 -->
<g id="edge1_Node000001_Node000002" class="edge">
<title>Node1&#45;&gt;Node2</title>
<g id="a_edge1_Node000001_Node000002"><a xlink:title=" ">
<path fill="none" stroke="#63b8ff" d="M53.13,-210.18C59.83,-239.62 83.21,-325.61 136,-371 137.25,-372.08 138.57,-373.09 139.93,-374.05"/>
<polygon fill="#63b8ff" stroke="#63b8ff" points="137.8,-376.86 148.21,-378.82 141.3,-370.8 137.8,-376.86"/>
</a>
</g>
</g>
<!-- Node3 -->
<g id="Node000003" class="node">
<title>Node3</title>
<g id="a_Node000003"><a xlink:href="class_g_e_camera.html#a777f0cd36c79b1e8e24f09249862e544" target="_top" xlink:title="Mueve el observador un paso hacia adelante (dirección &#45;Dir).">
<polygon fill="white" stroke="#666666" points="254.75,-362 137.5,-362 137.5,-342 254.75,-342 254.75,-362"/>
<text xml:space="preserve" text-anchor="middle" x="196.12" y="-348.5" font-family="Helvetica,sans-Serif" font-size="10.00">GECamera::moveFront</text>
</a>
</g>
</g>
<!-- Node1&#45;&gt;Node3 -->
<g id="edge2_Node000001_Node000003" class="edge">
<title>Node1&#45;&gt;Node3</title>
<g id="a_edge2_Node000001_Node000003"><a xlink:title=" ">
<path fill="none" stroke="#63b8ff" d="M54.76,-210.38C64.31,-235.31 91.94,-299.05 136,-333 137.53,-334.18 139.13,-335.28 140.79,-336.32"/>
<polygon fill="#63b8ff" stroke="#63b8ff" points="138.96,-339.31 149.45,-340.85 142.21,-333.11 138.96,-339.31"/>
</a>
</g>
</g>
<!-- Node4 -->
<g id="Node000004" class="node">
<title>Node4</title>
<g id="a_Node000004"><a xlink:href="class_g_e_camera.html#a1ba0d6addb4272f2ac627cf8beb0c264" target="_top" xlink:title="Mueve el observador un paso hacia la izquierda.">
<polygon fill="white" stroke="#666666" points="251.75,-324 140.5,-324 140.5,-304 251.75,-304 251.75,-324"/>
<text xml:space="preserve" text-anchor="middle" x="196.12" y="-310.5" font-family="Helvetica,sans-Serif" font-size="10.00">GECamera::moveLeft</text>
</a>
</g>
</g>
<!-- Node1&#45;&gt;Node4 -->
<g id="edge3_Node000001_Node000004" class="edge">
<title>Node1&#45;&gt;Node4</title>
<g id="a_edge3_Node000001_Node000004"><a xlink:title=" ">
<path fill="none" stroke="#63b8ff" d="M57.4,-210.2C70.06,-229.56 100.18,-271.74 136,-295 138.13,-296.38 140.37,-297.67 142.68,-298.87"/>
<polygon fill="#63b8ff" stroke="#63b8ff" points="141.21,-302.05 151.76,-302.97 144.09,-295.67 141.21,-302.05"/>
</a>
</g>
</g>
<!-- Node5 -->
<g id="Node000005" class="node">
<title>Node5</title>
<g id="a_Node000005"><a xlink:href="class_g_e_camera.html#a641f83f1c26619950565d60efc21e3cf" target="_top" xlink:title="Mueve el observador un paso hacia la derecha.">
<polygon fill="white" stroke="#666666" points="255.12,-286 137.12,-286 137.12,-266 255.12,-266 255.12,-286"/>
<text xml:space="preserve" text-anchor="middle" x="196.12" y="-272.5" font-family="Helvetica,sans-Serif" font-size="10.00">GECamera::moveRight</text>
</a>
</g>
</g>
<!-- Node1&#45;&gt;Node5 -->
<g id="edge4_Node000001_Node000005" class="edge">
<title>Node1&#45;&gt;Node5</title>
<g id="a_edge4_Node000001_Node000005"><a xlink:title=" ">
<path fill="none" stroke="#63b8ff" d="M63.84,-210.3C79.91,-222.78 108.65,-243.76 136,-257 139.45,-258.67 143.09,-260.25 146.79,-261.72"/>
<polygon fill="#63b8ff" stroke="#63b8ff" points="145.28,-264.89 155.87,-265.06 147.7,-258.32 145.28,-264.89"/>
</a>
</g>
</g>
<!-- Node6 -->
<g id="Node000006" class="node">
<title>Node6</title>
<g id="a_Node000006"><a xlink:href="class_g_e_camera.html#a79904b61df7fbfd2a66299cfbe6a69e6" target="_top" xlink:title="Mueve el observador un paso hacia arriba.">
<polygon fill="white" stroke="#666666" points="249.88,-248 142.38,-248 142.38,-228 249.88,-228 249.88,-248"/>
<text xml:space="preserve" text-anchor="middle" x="196.12" y="-234.5" font-family="Helvetica,sans-Serif" font-size="10.00">GECamera::moveUp</text>
</a>
</g>
</g>
<!-- Node1&#45;&gt;Node6 -->
<g id="edge5_Node000001_Node000006" class="edge">
<title>Node1&#45;&gt;Node6</title>
<g id="a_edge5_Node000001_Node000006"><a xlink:title=" ">
<path fill="none" stroke="#63b8ff" d="M90.76,-210.48C107.38,-214.87 126.89,-220.01 144.52,-224.66"/>
<polygon fill="#63b8ff" stroke="#63b8ff" points="143.47,-228 154.03,-227.16 145.25,-221.23 143.47,-228"/>
</a>
</g>
</g>
<!-- Node7 -->
<g id="Node000007" class="node">
<title>Node7</title>
<g id="a_Node000007"><a xlink:href="class_g_e_camera.html#aaed635fd6f4b799143bcce2a5646553d" target="_top" xlink:title="Rota el observador un paso en sentido antihorario.">
<polygon fill="white" stroke="#666666" points="252.12,-210 140.12,-210 140.12,-190 252.12,-190 252.12,-210"/>
<text xml:space="preserve" text-anchor="middle" x="196.12" y="-196.5" font-family="Helvetica,sans-Serif" font-size="10.00">GECamera::turnCCW</text>
</a>
</g>
</g>
<!-- Node1&#45;&gt;Node7 -->
<g id="edge6_Node000001_Node000007" class="edge">
<title>Node1&#45;&gt;Node7</title>
<g id="a_edge6_Node000001_Node000007"><a xlink:title=" ">
<path fill="none" stroke="#63b8ff" d="M100.2,-200C109.24,-200 118.82,-200 128.28,-200"/>
<polygon fill="#63b8ff" stroke="#63b8ff" points="128.2,-203.5 138.2,-200 128.2,-196.5 128.2,-203.5"/>
</a>
</g>
</g>
<!-- Node8 -->
<g id="Node000008" class="node">
<title>Node8</title>
<g id="a_Node000008"><a xlink:href="class_g_e_camera.html#a73173ea24e7abd46e6eef216bf1de839" target="_top" xlink:title="Rota el observador un paso en sentido horario.">
<polygon fill="white" stroke="#666666" points="248.38,-172 143.88,-172 143.88,-152 248.38,-152 248.38,-172"/>
<text xml:space="preserve" text-anchor="middle" x="196.12" y="-158.5" font-family="Helvetica,sans-Serif" font-size="10.00">GECamera::turnCW</text>
</a>
</g>
</g>
<!-- Node1&#45;&gt;Node8 -->
<g id="edge7_Node000001_Node000008" class="edge">
<title>Node1&#45;&gt;Node8</title>
<g id="a_edge7_Node000001_Node000008"><a xlink:title=" ">
<path fill="none" stroke="#63b8ff" d="M90.76,-189.52C107.38,-185.13 126.89,-179.99 144.52,-175.34"/>
<polygon fill="#63b8ff" stroke="#63b8ff" points="145.25,-178.77 154.03,-172.84 143.47,-172 145.25,-178.77"/>
</a>
</g>
</g>
<!-- Node9 -->
<g id="Node000009" class="node">
<title>Node9</title>
<g id="a_Node000009"><a xlink:href="class_g_e_camera.html#ab19eedafa22b07fb557d0359890ab15e" target="_top" xlink:title="Rota el observador un paso hacia abajo.">
<polygon fill="white" stroke="#666666" points="252.5,-134 139.75,-134 139.75,-114 252.5,-114 252.5,-134"/>
<text xml:space="preserve" text-anchor="middle" x="196.12" y="-120.5" font-family="Helvetica,sans-Serif" font-size="10.00">GECamera::turnDown</text>
</a>
</g>
</g>
<!-- Node1&#45;&gt;Node9 -->
<g id="edge8_Node000001_Node000009" class="edge">
<title>Node1&#45;&gt;Node9</title>
<g id="a_edge8_Node000001_Node000009"><a xlink:title=" ">
<path fill="none" stroke="#63b8ff" d="M63.84,-189.7C79.91,-177.22 108.65,-156.24 136,-143 139.45,-141.33 143.09,-139.75 146.79,-138.28"/>
<polygon fill="#63b8ff" stroke="#63b8ff" points="147.7,-141.68 155.87,-134.94 145.28,-135.11 147.7,-141.68"/>
</a>
</g>
</g>
<!-- Node10 -->
<g id="Node000010" class="node">
<title>Node10</title>
<g id="a_Node000010"><a xlink:href="class_g_e_camera.html#afd8491948b0482d6b542983b3052915f" target="_top" xlink:title="Rota el observador un paso hacia su izquierda.">
<polygon fill="white" stroke="#666666" points="248,-96 144.25,-96 144.25,-76 248,-76 248,-96"/>
<text xml:space="preserve" text-anchor="middle" x="196.12" y="-82.5" font-family="Helvetica,sans-Serif" font-size="10.00">GECamera::turnLeft</text>
</a>
</g>
</g>
<!-- Node1&#45;&gt;Node10 -->
<g id="edge9_Node000001_Node000010" class="edge">
<title>Node1&#45;&gt;Node10</title>
<g id="a_edge9_Node000001_Node000010"><a xlink:title=" ">
<path fill="none" stroke="#63b8ff" d="M57.4,-189.8C70.06,-170.44 100.18,-128.26 136,-105 138.13,-103.62 140.37,-102.33 142.68,-101.13"/>
<polygon fill="#63b8ff" stroke="#63b8ff" points="144.09,-104.33 151.76,-97.03 141.21,-97.95 144.09,-104.33"/>
</a>
</g>
</g>
<!-- Node11 -->
<g id="Node000011" class="node">
<title>Node11</title>
<g id="a_Node000011"><a xlink:href="class_g_e_camera.html#a9ab05a0f84590249c876a64b128b565e" target="_top" xlink:title="Rota el observador un paso hacia su derecha.">
<polygon fill="white" stroke="#666666" points="251.38,-58 140.88,-58 140.88,-38 251.38,-38 251.38,-58"/>
<text xml:space="preserve" text-anchor="middle" x="196.12" y="-44.5" font-family="Helvetica,sans-Serif" font-size="10.00">GECamera::turnRight</text>
</a>
</g>
</g>
<!-- Node1&#45;&gt;Node11 -->
<g id="edge10_Node000001_Node000011" class="edge">
<title>Node1&#45;&gt;Node11</title>
<g id="a_edge10_Node000001_Node000011"><a xlink:title=" ">
<path fill="none" stroke="#63b8ff" d="M54.76,-189.62C64.31,-164.69 91.94,-100.95 136,-67 137.53,-65.82 139.13,-64.72 140.79,-63.68"/>
<polygon fill="#63b8ff" stroke="#63b8ff" points="142.21,-66.89 149.45,-59.15 138.96,-60.69 142.21,-66.89"/>
</a>
</g>
</g>
<!-- Node12 -->
<g id="Node000012" class="node">
<title>Node12</title>
<g id="a_Node000012"><a xlink:href="class_g_e_camera.html#adea234ba1f06e6408ac1937d53acbb7b" target="_top" xlink:title="Rota el observador un paso hacia arriba.">
<polygon fill="white" stroke="#666666" points="246.12,-20 146.12,-20 146.12,0 246.12,0 246.12,-20"/>
<text xml:space="preserve" text-anchor="middle" x="196.12" y="-6.5" font-family="Helvetica,sans-Serif" font-size="10.00">GECamera::turnUp</text>
</a>
</g>
</g>
<!-- Node1&#45;&gt;Node12 -->
<g id="edge11_Node000001_Node000012" class="edge">
<title>Node1&#45;&gt;Node12</title>
<g id="a_edge11_Node000001_Node000012"><a xlink:title=" ">
<path fill="none" stroke="#63b8ff" d="M53.13,-189.82C59.83,-160.38 83.21,-74.39 136,-29 137.25,-27.92 138.57,-26.91 139.93,-25.95"/>
<polygon fill="#63b8ff" stroke="#63b8ff" points="141.3,-29.2 148.21,-21.18 137.8,-23.14 141.3,-29.2"/>
</a>
</g>
</g>
</g>
</svg>
