<?xml version="1.0" encoding="UTF-8" standalone="no"?>
<!DOCTYPE svg PUBLIC "-//W3C//DTD SVG 1.1//EN"
 "http://www.w3.org/Graphics/SVG/1.1/DTD/svg11.dtd">
<!-- Generated by graphviz version 14.1.2 (20260124.0452)
 -->
<!-- Title: GEScene Pages: 1 -->
<svg width="558pt" height="208pt"
 viewBox="0.00 0.00 558.00 208.00" xmlns="http://www.w3.org/2000/svg" xmlns:xlink="http://www.w3.org/1999/xlink">
<g id="graph0" class="graph" transform="scale(1 1) rotate(0) translate(4 204)">
<title>GEScene</title>
<!-- Node1 -->
<g id="Node000001" class="node">
<title>Node1</title>
<g id="a_Node000001"><a xlink:title="Escena con esqueleto animado realizando tiro libre.">
<polygon fill="#999999" stroke="#666666" points="353.38,-20 295.38,-20 295.38,0 353.38,0 353.38,-20"/>
<text xml:space="preserve" text-anchor="middle" x="324.38" y="-6.5" font-family="Helvetica,sans-Serif" font-size="10.00">GEScene</text>
</a>
</g>
</g>
<!-- Node2 -->
<g id="Node000002" class="node">
<title>Node2</title>
<g id="a_Node000002"><a xlink:href="class_g_e_rendering_context.html" target="_top" xlink:title="Clase que describe un contexto de renderizado.">
<polygon fill="white" stroke="#666666" points="196.88,-94 87.88,-94 87.88,-74 196.88,-74 196.88,-94"/>
<text xml:space="preserve" text-anchor="middle" x="142.38" y="-80.5" font-family="Helvetica,sans-Serif" font-size="10.00">GERenderingContext</text>
</a>
</g>
</g>
<!-- Node2&#45;&gt;Node1 -->
<g id="edge1_Node000001_Node000002" class="edge">
<title>Node2&#45;&gt;Node1</title>
<g id="a_edge1_Node000001_Node000002"><a xlink:title=" ">
<path fill="none" stroke="#9a32cd" stroke-dasharray="5,2" d="M174.23,-69.03C195.36,-59.91 223.75,-47.89 249.12,-38 264.9,-31.85 282.73,-25.43 297.07,-20.39"/>
<polygon fill="#9a32cd" stroke="#9a32cd" points="173.07,-65.72 165.29,-72.91 175.86,-72.14 173.07,-65.72"/>
</a>
</g>
<text xml:space="preserve" text-anchor="start" x="252.12" y="-43.5" font-family="Helvetica,sans-Serif" font-size="10.00" fill="grey">rc</text>
</g>
<!-- Node3 -->
<g id="Node000003" class="node">
<title>Node3</title>
<g id="a_Node000003"><a xlink:href="class_g_e_figure.html" target="_top" xlink:title="Clase que describe una figura formada por una malla de vértices.">
<polygon fill="white" stroke="#666666" points="272,-94 214.75,-94 214.75,-74 272,-74 272,-94"/>
<text xml:space="preserve" text-anchor="middle" x="243.38" y="-80.5" font-family="Helvetica,sans-Serif" font-size="10.00">GEFigure</text>
</a>
</g>
</g>
<!-- Node3&#45;&gt;Node1 -->
<g id="edge2_Node000001_Node000003" class="edge">
<title>Node3&#45;&gt;Node1</title>
<g id="a_edge2_Node000001_Node000003"><a xlink:title=" ">
<path fill="none" stroke="#9a32cd" stroke-dasharray="5,2" d="M258.21,-65.25C265.84,-56.59 275.53,-46.29 285.12,-38 292.63,-31.51 301.73,-25.17 309.27,-20.27"/>
<polygon fill="#9a32cd" stroke="#9a32cd" points="255.69,-62.81 251.83,-72.67 261,-67.37 255.69,-62.81"/>
</a>
</g>
<text xml:space="preserve" text-anchor="start" x="288.12" y="-43.5" font-family="Helvetica,sans-Serif" font-size="10.00" fill="grey">ground</text>
</g>
<!-- Node4 -->
<g id="Node000004" class="node">
<title>Node4</title>
<g id="a_Node000004"><a xlink:href="struct_g_e_material.html" target="_top" xlink:title="Estructura que describe las propiedades de un material.">
<polygon fill="white" stroke="#666666" points="64.75,-200 0,-200 0,-180 64.75,-180 64.75,-200"/>
<text xml:space="preserve" text-anchor="middle" x="32.38" y="-186.5" font-family="Helvetica,sans-Serif" font-size="10.00">GEMaterial</text>
</a>
</g>
</g>
<!-- Node4&#45;&gt;Node3 -->
<g id="edge3_Node000003_Node000004" class="edge">
<title>Node4&#45;&gt;Node3</title>
<g id="a_edge3_Node000003_Node000004"><a xlink:title=" ">
<path fill="none" stroke="#9a32cd" stroke-dasharray="5,2" d="M40.38,-169.02C48.7,-151.03 63.51,-125.4 84.88,-112 130.74,-83.22 152.2,-104.25 205.38,-94 208.3,-93.44 211.35,-92.8 214.38,-92.13"/>
<polygon fill="#9a32cd" stroke="#9a32cd" points="37.19,-167.58 36.45,-178.15 43.62,-170.35 37.19,-167.58"/>
</a>
</g>
<text xml:space="preserve" text-anchor="start" x="87.88" y="-133.5" font-family="Helvetica,sans-Serif" font-size="10.00" fill="grey">material</text>
</g>
<!-- Node5 -->
<g id="Node000005" class="node">
<title>Node5</title>
<g id="a_Node000005"><a xlink:href="struct_g_e_light.html" target="_top" xlink:title="Estructura que describe una fuente de luz direccional.">
<polygon fill="white" stroke="#666666" points="134,-200 82.75,-200 82.75,-180 134,-180 134,-200"/>
<text xml:space="preserve" text-anchor="middle" x="108.38" y="-186.5" font-family="Helvetica,sans-Serif" font-size="10.00">GELight</text>
</a>
</g>
</g>
<!-- Node5&#45;&gt;Node3 -->
<g id="edge4_Node000003_Node000005" class="edge">
<title>Node5&#45;&gt;Node3</title>
<g id="a_edge4_Node000003_Node000005"><a xlink:title=" ">
<path fill="none" stroke="#9a32cd" stroke-dasharray="5,2" d="M121.24,-170.74C134.07,-153.64 155.16,-128.34 178.38,-112 189.27,-104.33 202.67,-98.3 214.47,-93.9"/>
<polygon fill="#9a32cd" stroke="#9a32cd" points="118.64,-168.36 115.58,-178.5 124.3,-172.48 118.64,-168.36"/>
</a>
</g>
<text xml:space="preserve" text-anchor="start" x="181.38" y="-133.5" font-family="Helvetica,sans-Serif" font-size="10.00" fill="grey">light</text>
</g>
<!-- Node6 -->
<g id="Node000006" class="node">
<title>Node6</title>
<g id="a_Node000006"><a xlink:href="class_g_e_vertex_buffer.html" target="_top" xlink:title="Clase que describe un buffer de vértices.">
<polygon fill="white" stroke="#666666" points="235.12,-200 151.62,-200 151.62,-180 235.12,-180 235.12,-200"/>
<text xml:space="preserve" text-anchor="middle" x="193.38" y="-186.5" font-family="Helvetica,sans-Serif" font-size="10.00">GEVertexBuffer</text>
</a>
</g>
</g>
<!-- Node6&#45;&gt;Node3 -->
<g id="edge5_Node000003_Node000006" class="edge">
<title>Node6&#45;&gt;Node3</title>
<g id="a_edge5_Node000003_Node000006"><a xlink:title=" ">
<path fill="none" stroke="#9a32cd" stroke-dasharray="5,2" d="M202.78,-169.44C213.55,-147.03 230.77,-111.22 238.88,-94.36"/>
<polygon fill="#9a32cd" stroke="#9a32cd" points="199.65,-167.88 198.47,-178.41 205.96,-170.91 199.65,-167.88"/>
</a>
</g>
<text xml:space="preserve" text-anchor="start" x="232.97" y="-133.5" font-family="Helvetica,sans-Serif" font-size="10.00" fill="grey">vbo</text>
</g>
<!-- Node7 -->
<g id="Node000007" class="node">
<title>Node7</title>
<g id="a_Node000007"><a xlink:href="class_g_e_index_buffer.html" target="_top" xlink:title="Clase que describe un buffer de índices.">
<polygon fill="white" stroke="#666666" points="333.25,-200 253.5,-200 253.5,-180 333.25,-180 333.25,-200"/>
<text xml:space="preserve" text-anchor="middle" x="293.38" y="-186.5" font-family="Helvetica,sans-Serif" font-size="10.00">GEIndexBuffer</text>
</a>
</g>
</g>
<!-- Node7&#45;&gt;Node3 -->
<g id="edge6_Node000003_Node000007" class="edge">
<title>Node7&#45;&gt;Node3</title>
<g id="a_edge6_Node000003_Node000007"><a xlink:title=" ">
<path fill="none" stroke="#9a32cd" stroke-dasharray="5,2" d="M283.97,-169.44C273.2,-147.03 255.98,-111.22 247.87,-94.36"/>
<polygon fill="#9a32cd" stroke="#9a32cd" points="280.79,-170.91 288.28,-178.41 287.1,-167.88 280.79,-170.91"/>
</a>
</g>
<text xml:space="preserve" text-anchor="start" x="282.97" y="-133.5" font-family="Helvetica,sans-Serif" font-size="10.00" fill="grey">ibo</text>
</g>
<!-- Node8 -->
<g id="Node000008" class="node">
<title>Node8</title>
<g id="a_Node000008"><a xlink:href="class_g_e_uniform_buffer.html" target="_top" xlink:title="Clase que describe un conjunto de buffers para almacenar variables uniformes.">
<polygon fill="white" stroke="#666666" points="441.5,-200 351.25,-200 351.25,-180 441.5,-180 441.5,-200"/>
<text xml:space="preserve" text-anchor="middle" x="396.38" y="-186.5" font-family="Helvetica,sans-Serif" font-size="10.00">GEUniformBuffer</text>
</a>
</g>
</g>
<!-- Node8&#45;&gt;Node3 -->
<g id="edge7_Node000003_Node000008" class="edge">
<title>Node8&#45;&gt;Node3</title>
<g id="a_edge7_Node000003_Node000008"><a xlink:title=" ">
<path fill="none" stroke="#9a32cd" stroke-dasharray="5,2" d="M378.66,-172.12C360.51,-155.43 330.98,-129.85 302.38,-112 291.48,-105.2 278.59,-99.11 267.64,-94.43"/>
<polygon fill="#9a32cd" stroke="#9a32cd" points="375.8,-174.24 385.49,-178.5 380.57,-169.12 375.8,-174.24"/>
</a>
</g>
<text xml:space="preserve" text-anchor="start" x="369.56" y="-149.5" font-family="Helvetica,sans-Serif" font-size="10.00" fill="grey">lightBuffer</text>
<text xml:space="preserve" text-anchor="start" x="369.56" y="-133.5" font-family="Helvetica,sans-Serif" font-size="10.00" fill="grey">materialBuffer</text>
<text xml:space="preserve" text-anchor="start" x="369.56" y="-117.5" font-family="Helvetica,sans-Serif" font-size="10.00" fill="grey">transformBuffer</text>
</g>
<!-- Node9 -->
<g id="Node000009" class="node">
<title>Node9</title>
<g id="a_Node000009"><a xlink:href="class_g_e_descriptor_set.html" target="_top" xlink:title="Clase que describe un conjunto de descriptores.">
<polygon fill="white" stroke="#666666" points="549.5,-200 459.25,-200 459.25,-180 549.5,-180 549.5,-200"/>
<text xml:space="preserve" text-anchor="middle" x="504.38" y="-186.5" font-family="Helvetica,sans-Serif" font-size="10.00">GEDescriptorSet</text>
</a>
</g>
</g>
<!-- Node9&#45;&gt;Node3 -->
<g id="edge8_Node000003_Node000009" class="edge">
<title>Node9&#45;&gt;Node3</title>
<g id="a_edge8_Node000003_Node000009"><a xlink:title=" ">
<path fill="none" stroke="#9a32cd" stroke-dasharray="5,2" d="M494.8,-169.59C484.7,-151.38 466.97,-125.07 443.38,-112 380,-76.9 352.75,-106.37 281.38,-94 278.44,-93.49 275.38,-92.89 272.35,-92.25"/>
<polygon fill="#9a32cd" stroke="#9a32cd" points="491.64,-171.11 499.38,-178.34 497.84,-167.86 491.64,-171.11"/>
</a>
</g>
<text xml:space="preserve" text-anchor="start" x="492.43" y="-133.5" font-family="Helvetica,sans-Serif" font-size="10.00" fill="grey">dset</text>
</g>
<!-- Node10 -->
<g id="Node000010" class="node">
<title>Node10</title>
<g id="a_Node000010"><a xlink:href="class_g_e_skeleton.html" target="_top" xlink:title="Representa un esqueleto completo con articulaciones jerárquicas.">
<polygon fill="white" stroke="#666666" points="358.62,-94 290.12,-94 290.12,-74 358.62,-74 358.62,-94"/>
<text xml:space="preserve" text-anchor="middle" x="324.38" y="-80.5" font-family="Helvetica,sans-Serif" font-size="10.00">GESkeleton</text>
</a>
</g>
</g>
<!-- Node10&#45;&gt;Node1 -->
<g id="edge9_Node000001_Node000010" class="edge">
<title>Node10&#45;&gt;Node1</title>
<g id="a_edge9_Node000001_Node000010"><a xlink:title=" ">
<path fill="none" stroke="#9a32cd" stroke-dasharray="5,2" d="M324.38,-62.18C324.38,-48.29 324.38,-30.71 324.38,-20.19"/>
<polygon fill="#9a32cd" stroke="#9a32cd" points="320.88,-62.07 324.38,-72.07 327.88,-62.07 320.88,-62.07"/>
</a>
</g>
<text xml:space="preserve" text-anchor="start" x="327.38" y="-43.5" font-family="Helvetica,sans-Serif" font-size="10.00" fill="grey">skeleton</text>
</g>
<!-- Node11 -->
<g id="Node000011" class="node">
<title>Node11</title>
<g id="a_Node000011"><a xlink:href="class_g_e_animation.html" target="_top" xlink:title="Sistema de animación por keyframes con interpolación lineal.">
<polygon fill="white" stroke="#666666" points="450.25,-94 376.5,-94 376.5,-74 450.25,-74 450.25,-94"/>
<text xml:space="preserve" text-anchor="middle" x="413.38" y="-80.5" font-family="Helvetica,sans-Serif" font-size="10.00">GEAnimation</text>
</a>
</g>
</g>
<!-- Node11&#45;&gt;Node1 -->
<g id="edge10_Node000001_Node000011" class="edge">
<title>Node11&#45;&gt;Node1</title>
<g id="a_edge10_Node000001_Node000011"><a xlink:title=" ">
<path fill="none" stroke="#9a32cd" stroke-dasharray="5,2" d="M398.72,-64.91C391.11,-56.18 381.34,-45.9 371.38,-38 362.82,-31.22 352.37,-25.04 343.5,-20.31"/>
<polygon fill="#9a32cd" stroke="#9a32cd" points="395.94,-67.05 405.06,-72.45 401.3,-62.54 395.94,-67.05"/>
</a>
</g>
<text xml:space="preserve" text-anchor="start" x="392.9" y="-43.5" font-family="Helvetica,sans-Serif" font-size="10.00" fill="grey">animation</text>
</g>
<!-- Node12 -->
<g id="Node000012" class="node">
<title>Node12</title>
<g id="a_Node000012"><a xlink:href="class_g_e_camera.html" target="_top" xlink:title="Clase que representa una cámara en el espacio 3D.">
<polygon fill="white" stroke="#666666" points="532.75,-94 468,-94 468,-74 532.75,-74 532.75,-94"/>
<text xml:space="preserve" text-anchor="middle" x="500.38" y="-80.5" font-family="Helvetica,sans-Serif" font-size="10.00">GECamera</text>
</a>
</g>
</g>
<!-- Node12&#45;&gt;Node1 -->
<g id="edge11_Node000001_Node000012" class="edge">
<title>Node12&#45;&gt;Node1</title>
<g id="a_edge11_Node000001_Node000012"><a xlink:title=" ">
<path fill="none" stroke="#9a32cd" stroke-dasharray="5,2" d="M482.53,-65.82C471.71,-56.3 457.16,-45.01 442.38,-38 413.89,-24.5 378.27,-17.55 353.66,-14.11"/>
<polygon fill="#9a32cd" stroke="#9a32cd" points="480.15,-68.39 489.88,-72.56 484.87,-63.22 480.15,-68.39"/>
</a>
</g>
<text xml:space="preserve" text-anchor="start" x="472.48" y="-43.5" font-family="Helvetica,sans-Serif" font-size="10.00" fill="grey">camera</text>
</g>
</g>
</svg>
