<?xml version="1.0" encoding="UTF-8" standalone="no"?>
<!DOCTYPE svg PUBLIC "-//W3C//DTD SVG 1.1//EN"
 "http://www.w3.org/Graphics/SVG/1.1/DTD/svg11.dtd">
<!-- Generated by graphviz version 14.1.2 (20260124.0452)
 -->
<!-- Title: pugi::xml_node::append_child Pages: 1 -->
<svg width="450pt" height="110pt"
 viewBox="0.00 0.00 450.00 110.00" xmlns="http://www.w3.org/2000/svg" xmlns:xlink="http://www.w3.org/1999/xlink">
<g id="graph0" class="graph" transform="scale(1 1) rotate(0) translate(4 106)">
<title>pugi::xml_node::append_child</title>
<!-- Node1 -->
<g id="Node000001" class="node">
<title>Node1</title>
<g id="a_Node000001"><a xlink:title=" ">
<polygon fill="#999999" stroke="#666666" points="119.5,-67 0,-67 0,-35 119.5,-35 119.5,-67"/>
<text xml:space="preserve" text-anchor="start" x="8" y="-53.5" font-family="Helvetica,sans-Serif" font-size="10.00">pugi::xml_node::append</text>
<text xml:space="preserve" text-anchor="middle" x="59.75" y="-41.5" font-family="Helvetica,sans-Serif" font-size="10.00">_child</text>
</a>
</g>
</g>
<!-- Node2 -->
<g id="Node000002" class="node">
<title>Node2</title>
<g id="a_Node000002"><a xlink:href="classpugi_1_1xml__node.html#afe1332e147508ef480aa395f9cc42e53" target="_top" xlink:title=" ">
<polygon fill="white" stroke="#666666" points="275,-67 155.5,-67 155.5,-35 275,-35 275,-67"/>
<text xml:space="preserve" text-anchor="start" x="163.5" y="-53.5" font-family="Helvetica,sans-Serif" font-size="10.00">pugi::xml_node::append</text>
<text xml:space="preserve" text-anchor="middle" x="215.25" y="-41.5" font-family="Helvetica,sans-Serif" font-size="10.00">_child</text>
</a>
</g>
</g>
<!-- Node1&#45;&gt;Node2 -->
<g id="edge1_Node000001_Node000002" class="edge">
<title>Node1&#45;&gt;Node2</title>
<g id="a_edge1_Node000001_Node000002"><a xlink:title=" ">
<path fill="none" stroke="#63b8ff" d="M119.66,-51C127.59,-51 135.79,-51 143.89,-51"/>
<polygon fill="#63b8ff" stroke="#63b8ff" points="143.73,-54.5 153.73,-51 143.73,-47.5 143.73,-54.5"/>
</a>
</g>
</g>
<!-- Node3 -->
<g id="Node000003" class="node">
<title>Node3</title>
<g id="a_Node000003"><a xlink:href="classpugi_1_1xml__node.html#a461ee70affaf5ad3d4bdd089889f6a1a" target="_top" xlink:title=" ">
<polygon fill="white" stroke="#666666" points="441.75,-102 311,-102 311,-82 441.75,-82 441.75,-102"/>
<text xml:space="preserve" text-anchor="middle" x="376.38" y="-88.5" font-family="Helvetica,sans-Serif" font-size="10.00">pugi::xml_node::set_name</text>
</a>
</g>
</g>
<!-- Node1&#45;&gt;Node3 -->
<g id="edge5_Node000001_Node000003" class="edge">
<title>Node1&#45;&gt;Node3</title>
<g id="a_edge5_Node000001_Node000003"><a xlink:title=" ">
<path fill="none" stroke="#63b8ff" d="M116.24,-67.48C129.04,-70.76 142.66,-73.86 155.5,-76 202.88,-83.9 256.64,-87.9 299.15,-89.93"/>
<polygon fill="#63b8ff" stroke="#63b8ff" points="298.88,-93.42 309.03,-90.37 299.19,-86.43 298.88,-93.42"/>
</a>
</g>
</g>
<!-- Node5 -->
<g id="Node000005" class="node">
<title>Node5</title>
<g id="a_Node000005"><a xlink:href="classpugi_1_1xml__node.html#a4641476ddd4869da18f0738186b17368" target="_top" xlink:title=" ">
<polygon fill="white" stroke="#666666" points="441.38,-20 311.38,-20 311.38,0 441.38,0 441.38,-20"/>
<text xml:space="preserve" text-anchor="middle" x="376.38" y="-6.5" font-family="Helvetica,sans-Serif" font-size="10.00">pugi::xml_node::xml_node</text>
</a>
</g>
</g>
<!-- Node1&#45;&gt;Node5 -->
<g id="edge6_Node000001_Node000005" class="edge">
<title>Node1&#45;&gt;Node5</title>
<g id="a_edge6_Node000001_Node000005"><a xlink:title=" ">
<path fill="none" stroke="#63b8ff" d="M116.24,-34.52C129.04,-31.24 142.66,-28.14 155.5,-26 203.05,-18.07 257.03,-14.07 299.61,-12.05"/>
<polygon fill="#63b8ff" stroke="#63b8ff" points="299.67,-15.55 309.51,-11.61 299.36,-8.56 299.67,-15.55"/>
</a>
</g>
</g>
<!-- Node2&#45;&gt;Node3 -->
<g id="edge2_Node000002_Node000003" class="edge">
<title>Node2&#45;&gt;Node3</title>
<g id="a_edge2_Node000002_Node000003"><a xlink:title=" ">
<path fill="none" stroke="#63b8ff" d="M275.05,-66.15C291.01,-70.26 308.16,-74.68 323.7,-78.68"/>
<polygon fill="#63b8ff" stroke="#63b8ff" points="322.66,-82.03 333.21,-81.14 324.4,-75.25 322.66,-82.03"/>
</a>
</g>
</g>
<!-- Node4 -->
<g id="Node000004" class="node">
<title>Node4</title>
<g id="a_Node000004"><a xlink:href="classpugi_1_1xml__node.html#aa018a135915ec8b2e3388feab2a78cfe" target="_top" xlink:title=" ">
<polygon fill="white" stroke="#666666" points="429.75,-61 323,-61 323,-41 429.75,-41 429.75,-61"/>
<text xml:space="preserve" text-anchor="middle" x="376.38" y="-47.5" font-family="Helvetica,sans-Serif" font-size="10.00">pugi::xml_node::type</text>
</a>
</g>
</g>
<!-- Node2&#45;&gt;Node4 -->
<g id="edge3_Node000002_Node000004" class="edge">
<title>Node2&#45;&gt;Node4</title>
<g id="a_edge3_Node000002_Node000004"><a xlink:title=" ">
<path fill="none" stroke="#63b8ff" d="M275.05,-51C286.86,-51 299.32,-51 311.3,-51"/>
<polygon fill="#63b8ff" stroke="#63b8ff" points="311.08,-54.5 321.08,-51 311.08,-47.5 311.08,-54.5"/>
</a>
</g>
</g>
<!-- Node2&#45;&gt;Node5 -->
<g id="edge4_Node000002_Node000005" class="edge">
<title>Node2&#45;&gt;Node5</title>
<g id="a_edge4_Node000002_Node000005"><a xlink:title=" ">
<path fill="none" stroke="#63b8ff" d="M275.05,-35.85C291.01,-31.74 308.16,-27.32 323.7,-23.32"/>
<polygon fill="#63b8ff" stroke="#63b8ff" points="324.4,-26.75 333.21,-20.86 322.66,-19.97 324.4,-26.75"/>
</a>
</g>
</g>
</g>
</svg>
