<?xml version="1.0" encoding="UTF-8" standalone="no"?>
<!DOCTYPE svg PUBLIC "-//W3C//DTD SVG 1.1//EN"
 "http://www.w3.org/Graphics/SVG/1.1/DTD/svg11.dtd">
<!-- Generated by graphviz version 14.1.2 (20260124.0452)
 -->
<!-- Title: pugi::xpath_variable_set::operator= Pages: 1 -->
<svg width="548pt" height="168pt"
 viewBox="0.00 0.00 548.00 168.00" xmlns="http://www.w3.org/2000/svg" xmlns:xlink="http://www.w3.org/1999/xlink">
<g id="graph0" class="graph" transform="scale(1 1) rotate(0) translate(4 164)">
<title>pugi::xpath_variable_set::operator=</title>
<!-- Node1 -->
<g id="Node000001" class="node">
<title>Node1</title>
<g id="a_Node000001"><a xlink:title=" ">
<polygon fill="#999999" stroke="#666666" points="103,-32 0,-32 0,0 103,0 103,-32"/>
<text xml:space="preserve" text-anchor="start" x="8" y="-18.5" font-family="Helvetica,sans-Serif" font-size="10.00">pugi::xpath_variable</text>
<text xml:space="preserve" text-anchor="middle" x="51.5" y="-6.5" font-family="Helvetica,sans-Serif" font-size="10.00">_set::operator=</text>
</a>
</g>
</g>
<!-- Node2 -->
<g id="Node000002" class="node">
<title>Node2</title>
<g id="a_Node000002"><a xlink:href="classpugi_1_1xpath__variable__set.html#ab3e49071473758d442d5198cf31a5960" target="_top" xlink:title=" ">
<polygon fill="white" stroke="#666666" points="242,-73 139,-73 139,-41 242,-41 242,-73"/>
<text xml:space="preserve" text-anchor="start" x="147" y="-59.5" font-family="Helvetica,sans-Serif" font-size="10.00">pugi::xpath_variable</text>
<text xml:space="preserve" text-anchor="middle" x="190.5" y="-47.5" font-family="Helvetica,sans-Serif" font-size="10.00">_set::_assign</text>
</a>
</g>
</g>
<!-- Node1&#45;&gt;Node2 -->
<g id="edge1_Node000001_Node000002" class="edge">
<title>Node1&#45;&gt;Node2</title>
<g id="a_edge1_Node000001_Node000002"><a xlink:title=" ">
<path fill="none" stroke="#63b8ff" d="M103.12,-31.15C111.18,-33.56 119.59,-36.08 127.87,-38.55"/>
<polygon fill="#63b8ff" stroke="#63b8ff" points="126.59,-41.83 137.18,-41.34 128.6,-35.12 126.59,-41.83"/>
</a>
</g>
</g>
<!-- Node6 -->
<g id="Node000006" class="node">
<title>Node6</title>
<g id="a_Node000006"><a xlink:href="classpugi_1_1xpath__variable__set.html#a0a5b49c6ea48ddda64b805e54bad9f11" target="_top" xlink:title=" ">
<polygon fill="white" stroke="#666666" points="539.5,-48 417,-48 417,-16 539.5,-16 539.5,-48"/>
<text xml:space="preserve" text-anchor="start" x="425" y="-34.5" font-family="Helvetica,sans-Serif" font-size="10.00">pugi::xpath_variable</text>
<text xml:space="preserve" text-anchor="middle" x="478.25" y="-22.5" font-family="Helvetica,sans-Serif" font-size="10.00">_set::xpath_variable_set</text>
</a>
</g>
</g>
<!-- Node1&#45;&gt;Node6 -->
<g id="edge8_Node000001_Node000006" class="edge">
<title>Node1&#45;&gt;Node6</title>
<g id="a_edge8_Node000001_Node000006"><a xlink:title=" ">
<path fill="none" stroke="#63b8ff" d="M103.31,-17.91C178.47,-20.75 319.6,-26.06 405.34,-29.29"/>
<polygon fill="#63b8ff" stroke="#63b8ff" points="405.16,-32.79 415.29,-29.67 405.43,-25.79 405.16,-32.79"/>
</a>
</g>
</g>
<!-- Node3 -->
<g id="Node000003" class="node">
<title>Node3</title>
<g id="a_Node000003"><a xlink:href="classpugi_1_1xpath__variable__set.html#a000081f39c2d0d2f2ac6954affadb42d" target="_top" xlink:title=" ">
<polygon fill="white" stroke="#666666" points="381,-142 278,-142 278,-110 381,-110 381,-142"/>
<text xml:space="preserve" text-anchor="start" x="286" y="-128.5" font-family="Helvetica,sans-Serif" font-size="10.00">pugi::xpath_variable</text>
<text xml:space="preserve" text-anchor="middle" x="329.5" y="-116.5" font-family="Helvetica,sans-Serif" font-size="10.00">_set::_clone</text>
</a>
</g>
</g>
<!-- Node2&#45;&gt;Node3 -->
<g id="edge2_Node000002_Node000003" class="edge">
<title>Node2&#45;&gt;Node3</title>
<g id="a_edge2_Node000002_Node000003"><a xlink:title=" ">
<path fill="none" stroke="#63b8ff" d="M223.5,-73.38C239.79,-81.7 259.93,-91.93 278,-101 280.24,-102.12 282.53,-103.27 284.85,-104.43"/>
<polygon fill="#63b8ff" stroke="#63b8ff" points="283.2,-107.51 293.71,-108.84 286.31,-101.25 283.2,-107.51"/>
</a>
</g>
</g>
<!-- Node5 -->
<g id="Node000005" class="node">
<title>Node5</title>
<g id="a_Node000005"><a xlink:href="classpugi_1_1xpath__variable__set.html#a8e2710e1a74355d52da847428da8278d" target="_top" xlink:title=" ">
<polygon fill="white" stroke="#666666" points="381,-92 278,-92 278,-60 381,-60 381,-92"/>
<text xml:space="preserve" text-anchor="start" x="286" y="-78.5" font-family="Helvetica,sans-Serif" font-size="10.00">pugi::xpath_variable</text>
<text xml:space="preserve" text-anchor="middle" x="329.5" y="-66.5" font-family="Helvetica,sans-Serif" font-size="10.00">_set::_swap</text>
</a>
</g>
</g>
<!-- Node2&#45;&gt;Node5 -->
<g id="edge5_Node000002_Node000005" class="edge">
<title>Node2&#45;&gt;Node5</title>
<g id="a_edge5_Node000002_Node000005"><a xlink:title=" ">
<path fill="none" stroke="#63b8ff" d="M242.12,-64.02C250,-65.11 258.21,-66.25 266.31,-67.37"/>
<polygon fill="#63b8ff" stroke="#63b8ff" points="265.74,-70.83 276.13,-68.74 266.7,-63.9 265.74,-70.83"/>
</a>
</g>
</g>
<!-- Node2&#45;&gt;Node6 -->
<g id="edge7_Node000002_Node000006" class="edge">
<title>Node2&#45;&gt;Node6</title>
<g id="a_edge7_Node000002_Node000006"><a xlink:title=" ">
<path fill="none" stroke="#63b8ff" d="M242.26,-52.56C287.58,-48.59 354.47,-42.74 405.31,-38.29"/>
<polygon fill="#63b8ff" stroke="#63b8ff" points="405.39,-41.8 415.04,-37.44 404.78,-34.83 405.39,-41.8"/>
</a>
</g>
</g>
<!-- Node4 -->
<g id="Node000004" class="node">
<title>Node4</title>
<g id="a_Node000004"><a xlink:href="classpugi_1_1xpath__variable.html#ac25b014df004e0c6eb1149e1d54a1605" target="_top" xlink:title=" ">
<polygon fill="white" stroke="#666666" points="529.75,-142 426.75,-142 426.75,-110 529.75,-110 529.75,-142"/>
<text xml:space="preserve" text-anchor="start" x="434.75" y="-128.5" font-family="Helvetica,sans-Serif" font-size="10.00">pugi::xpath_variable</text>
<text xml:space="preserve" text-anchor="middle" x="478.25" y="-116.5" font-family="Helvetica,sans-Serif" font-size="10.00">::name</text>
</a>
</g>
</g>
<!-- Node3&#45;&gt;Node4 -->
<g id="edge3_Node000003_Node000004" class="edge">
<title>Node3&#45;&gt;Node4</title>
<g id="a_edge3_Node000003_Node000004"><a xlink:title=" ">
<path fill="none" stroke="#63b8ff" d="M381.41,-126C392.23,-126 403.76,-126 414.94,-126"/>
<polygon fill="#63b8ff" stroke="#63b8ff" points="414.91,-129.5 424.91,-126 414.91,-122.5 414.91,-129.5"/>
</a>
</g>
</g>
<!-- Node4&#45;&gt;Node4 -->
<g id="edge4_Node000004_Node000004" class="edge">
<title>Node4&#45;&gt;Node4</title>
<g id="a_edge4_Node000004_Node000004"><a xlink:title=" ">
<path fill="none" stroke="#63b8ff" d="M451.69,-142.44C446.74,-151.58 455.59,-160 478.25,-160 490.64,-160 498.91,-157.48 503.04,-153.71"/>
<polygon fill="#63b8ff" stroke="#63b8ff" points="506.48,-154.36 504.57,-143.94 499.56,-153.27 506.48,-154.36"/>
</a>
</g>
</g>
<!-- Node5&#45;&gt;Node6 -->
<g id="edge6_Node000005_Node000006" class="edge">
<title>Node5&#45;&gt;Node6</title>
<g id="a_edge6_Node000005_Node000006"><a xlink:title=" ">
<path fill="none" stroke="#63b8ff" d="M381.41,-60.73C391.14,-57.82 401.45,-54.73 411.56,-51.69"/>
<polygon fill="#63b8ff" stroke="#63b8ff" points="412.4,-55.1 420.97,-48.87 410.39,-48.39 412.4,-55.1"/>
</a>
</g>
</g>
</g>
</svg>
