<?xml version="1.0" encoding="UTF-8" standalone="no"?>
<!DOCTYPE svg PUBLIC "-//W3C//DTD SVG 1.1//EN"
 "http://www.w3.org/Graphics/SVG/1.1/DTD/svg11.dtd">
<!-- Generated by graphviz version 14.1.2 (20260124.0452)
 -->
<!-- Title: pugi::xpath_variable_set::xpath_variable_set Pages: 1 -->
<!--zoomable 125 -->

<svg id="main" version="1.1" xmlns="http://www.w3.org/2000/svg" xmlns:xlink="http://www.w3.org/1999/xlink" xml:space="preserve" onload="init(evt)">

<style type="text/css"><![CDATA[
.node, .edge {opacity: 0.7;}
.node.selected, .edge.selected {opacity: 1;}
.edge:hover path { stroke: red; }
.edge:hover polygon { stroke: red; fill: red; }
]]></style>

<defs>
  <circle id="rim" cx="0" cy="0" r="7"/>
  <circle id="rim2" cx="0" cy="0" r="3.5"/>
  <g id="zoomPlus">
    <use xlink:href="#rim" fill="#404040"><set attributeName="fill" to="#808080" begin="zoomplus.mouseover" end="zoomplus.mouseout"/></use>
    <path d="M-4,0h8M0,-4v8" fill="none" stroke="white" stroke-width="1.5" pointer-events="none"/>
  </g>
  <g id="zoomMin">
    <use xlink:href="#rim" fill="#404040"><set attributeName="fill" to="#808080" begin="zoomminus.mouseover" end="zoomminus.mouseout"/></use>
    <path d="M-4,0h8" fill="none" stroke="white" stroke-width="1.5" pointer-events="none"/>
  </g>
  <g id="arrowUp" transform="translate(30 24)">
    <use xlink:href="#rim"/>
    <path pointer-events="none" fill="none" stroke="white" stroke-width="1.5" d="M0,-3.0v7 M-2.5,-0.5L0,-3.0L2.5,-0.5"/>
  </g>
  <g id="arrowRight" transform="rotate(90) translate(36 -43)">
    <use xlink:href="#rim"/>
    <path pointer-events="none" fill="none" stroke="white" stroke-width="1.5" d="M0,-3.0v7 M-2.5,-0.5L0,-3.0L2.5,-0.5"/>
  </g>
  <g id="arrowDown" transform="rotate(180) translate(-30 -48)">
    <use xlink:href="#rim"/>
    <path pointer-events="none" fill="none" stroke="white" stroke-width="1.5" d="M0,-3.0v7 M-2.5,-0.5L0,-3.0L2.5,-0.5"/>
  </g>
  <g id="arrowLeft" transform="rotate(270) translate(-36 17)">
    <use xlink:href="#rim"/>
    <path pointer-events="none" fill="none" stroke="white" stroke-width="1.5" d="M0,-3.0v7 M-2.5,-0.5L0,-3.0L2.5,-0.5"/>
  </g>
  <g id="resetDef">
    <use xlink:href="#rim2" fill="#404040"><set attributeName="fill" to="#808080" begin="reset.mouseover" end="reset.mouseout"/></use>
  </g>
</defs>
<script type="application/ecmascript">
var viewWidth = 567;
var viewHeight = 125;
var sectionId = 'dynsection-1';
</script>
<script type="application/ecmascript" xlink:href="svg.min.js"/>
<svg id="graph" class="graph">
<g id="viewport">
<title>pugi::xpath_variable_set::xpath_variable_set</title>
<!-- Node1 -->
<g id="Node000001" class="node">
<title>Node1</title>
<g id="a_Node000001"><a xlink:title=" ">
<polygon fill="#999999" stroke="#666666" points="559,-74 436.5,-74 436.5,-42 559,-42 559,-74"/>
<text xml:space="preserve" text-anchor="start" x="444.5" y="-60.5" font-family="Helvetica,sans-Serif" font-size="10.00">pugi::xpath_variable</text>
<text xml:space="preserve" text-anchor="middle" x="497.75" y="-48.5" font-family="Helvetica,sans-Serif" font-size="10.00">_set::xpath_variable_set</text>
</a>
</g>
</g>
<!-- Node2 -->
<g id="Node000002" class="node">
<title>Node2</title>
<g id="a_Node000002"><a xlink:href="classpugi_1_1xpath__variable__set.html#ab3e49071473758d442d5198cf31a5960" target="_top" xlink:title=" ">
<polygon fill="white" stroke="#666666" points="261.5,-77 158.5,-77 158.5,-45 261.5,-45 261.5,-77"/>
<text xml:space="preserve" text-anchor="start" x="166.5" y="-63.5" font-family="Helvetica,sans-Serif" font-size="10.00">pugi::xpath_variable</text>
<text xml:space="preserve" text-anchor="middle" x="210" y="-51.5" font-family="Helvetica,sans-Serif" font-size="10.00">_set::_assign</text>
</a>
</g>
</g>
<!-- Node1&#45;&gt;Node2 -->
<g id="edge1_Node000001_Node000002" class="edge">
<title>Node1&#45;&gt;Node2</title>
<g id="a_edge1_Node000001_Node000002"><a xlink:title=" ">
<path fill="none" stroke="#63b8ff" d="M424.7,-55.19C386.83,-54.15 339.64,-53.54 297.5,-55 285.92,-55.4 273.47,-56.1 261.74,-56.89"/>
<polygon fill="#63b8ff" stroke="#63b8ff" points="424.52,-58.69 434.62,-55.48 424.73,-51.69 424.52,-58.69"/>
</a>
</g>
</g>
<!-- Node3 -->
<g id="Node000003" class="node">
<title>Node3</title>
<g id="a_Node000003"><a xlink:href="classpugi_1_1xpath__variable__set.html#a01b2824caad84258c8931217081b8971" target="_top" xlink:title=" ">
<polygon fill="white" stroke="#666666" points="112.75,-99 9.75,-99 9.75,-67 112.75,-67 112.75,-99"/>
<text xml:space="preserve" text-anchor="start" x="17.75" y="-85.5" font-family="Helvetica,sans-Serif" font-size="10.00">pugi::xpath_variable</text>
<text xml:space="preserve" text-anchor="middle" x="61.25" y="-73.5" font-family="Helvetica,sans-Serif" font-size="10.00">_set::operator=</text>
</a>
</g>
</g>
<!-- Node1&#45;&gt;Node3 -->
<g id="edge6_Node000001_Node000003" class="edge">
<title>Node1&#45;&gt;Node3</title>
<g id="a_edge6_Node000001_Node000003"><a xlink:title=" ">
<path fill="none" stroke="#63b8ff" d="M461.58,-79.97C443.95,-89.71 421.86,-100.06 400.5,-105 300.59,-128.09 179.98,-109.55 113.13,-95.36"/>
<polygon fill="#63b8ff" stroke="#63b8ff" points="463.14,-83.11 470.08,-75.11 459.66,-77.03 463.14,-83.11"/>
</a>
</g>
</g>
<!-- Node4 -->
<g id="Node000004" class="node">
<title>Node4</title>
<g id="a_Node000004"><a xlink:href="classpugi_1_1xpath__variable__set.html#a8885d983bc387f9faf1d34c3892de9c7" target="_top" xlink:title=" ">
<polygon fill="white" stroke="#666666" points="122.5,-32 0,-32 0,0 122.5,0 122.5,-32"/>
<text xml:space="preserve" text-anchor="start" x="8" y="-18.5" font-family="Helvetica,sans-Serif" font-size="10.00">pugi::xpath_variable</text>
<text xml:space="preserve" text-anchor="middle" x="61.25" y="-6.5" font-family="Helvetica,sans-Serif" font-size="10.00">_set::xpath_variable_set</text>
</a>
</g>
</g>
<!-- Node1&#45;&gt;Node4 -->
<g id="edge7_Node000001_Node000004" class="edge">
<title>Node1&#45;&gt;Node4</title>
<g id="a_edge7_Node000001_Node000004"><a xlink:title=" ">
<path fill="none" stroke="#63b8ff" d="M425.06,-51.07C340.69,-42.91 202.09,-29.52 122.85,-21.86"/>
<polygon fill="#63b8ff" stroke="#63b8ff" points="424.54,-54.54 434.83,-52.01 425.21,-47.57 424.54,-54.54"/>
</a>
</g>
</g>
<!-- Node5 -->
<g id="Node000005" class="node">
<title>Node5</title>
<g id="a_Node000005"><a xlink:href="classpugi_1_1xpath__variable__set.html#a8e2710e1a74355d52da847428da8278d" target="_top" xlink:title=" ">
<polygon fill="white" stroke="#666666" points="400.5,-96 297.5,-96 297.5,-64 400.5,-64 400.5,-96"/>
<text xml:space="preserve" text-anchor="start" x="305.5" y="-82.5" font-family="Helvetica,sans-Serif" font-size="10.00">pugi::xpath_variable</text>
<text xml:space="preserve" text-anchor="middle" x="349" y="-70.5" font-family="Helvetica,sans-Serif" font-size="10.00">_set::_swap</text>
</a>
</g>
</g>
<!-- Node1&#45;&gt;Node5 -->
<g id="edge4_Node000001_Node000005" class="edge">
<title>Node1&#45;&gt;Node5</title>
<g id="a_edge4_Node000001_Node000005"><a xlink:title=" ">
<path fill="none" stroke="#63b8ff" d="M425.02,-68.75C416.76,-69.99 408.48,-71.23 400.59,-72.42"/>
<polygon fill="#63b8ff" stroke="#63b8ff" points="425.35,-72.24 434.72,-67.3 424.31,-65.32 425.35,-72.24"/>
</a>
</g>
</g>
<!-- Node2&#45;&gt;Node3 -->
<g id="edge2_Node000002_Node000003" class="edge">
<title>Node2&#45;&gt;Node3</title>
<g id="a_edge2_Node000002_Node000003"><a xlink:title=" ">
<path fill="none" stroke="#63b8ff" d="M146.95,-70.3C135.66,-71.99 124,-73.74 113.07,-75.38"/>
<polygon fill="#63b8ff" stroke="#63b8ff" points="147.22,-73.8 156.59,-68.86 146.18,-66.88 147.22,-73.8"/>
</a>
</g>
</g>
<!-- Node2&#45;&gt;Node4 -->
<g id="edge3_Node000002_Node000004" class="edge">
<title>Node2&#45;&gt;Node4</title>
<g id="a_edge3_Node000002_Node000004"><a xlink:title=" ">
<path fill="none" stroke="#63b8ff" d="M147.33,-42.09C136.86,-38.88 126.06,-35.57 115.82,-32.43"/>
<polygon fill="#63b8ff" stroke="#63b8ff" points="146.05,-45.36 156.64,-44.94 148.1,-38.67 146.05,-45.36"/>
</a>
</g>
</g>
<!-- Node5&#45;&gt;Node2 -->
<g id="edge5_Node000005_Node000002" class="edge">
<title>Node5&#45;&gt;Node2</title>
<g id="a_edge5_Node000005_Node000002"><a xlink:title=" ">
<path fill="none" stroke="#63b8ff" d="M286.06,-71.41C277.97,-70.29 269.76,-69.15 261.87,-68.06"/>
<polygon fill="#63b8ff" stroke="#63b8ff" points="285.49,-74.86 295.88,-72.77 286.45,-67.93 285.49,-74.86"/>
</a>
</g>
</g>
</g>
</svg>

<g id="navigator" transform="translate(0 0)" fill="#404254">
  <rect fill="#f2f5e9" fill-opacity="0.5" stroke="#606060" stroke-width=".5" x="0" y="0" width="60" height="60"/>
  <use id="zoomplus" xlink:href="#zoomPlus" x="17" y="9" onmousedown="handleZoom(evt,'in')"/>
  <use id="zoomminus" xlink:href="#zoomMin" x="42" y="9" onmousedown="handleZoom(evt,'out')"/>
  <use id="reset" xlink:href="#resetDef" x="30" y="36" onmousedown="handleReset()"/>
   <use id="arrowup" xlink:href="#arrowUp" x="0" y="0" onmousedown="handlePan(0,-1)"/>
  <use id="arrowright" xlink:href="#arrowRight" x="0" y="0" onmousedown="handlePan(1,0)"/>
  <use id="arrowdown" xlink:href="#arrowDown" x="0" y="0" onmousedown="handlePan(0,1)"/>
  <use id="arrowleft" xlink:href="#arrowLeft" x="0" y="0" onmousedown="handlePan(-1,0)"/>
</g>
<svg viewBox="0 0 15 15" width="100%" height="30px" preserveAspectRatio="xMaxYMin meet">
 <g id="arrow_out" transform="scale(0.3 0.3)">
  <a xlink:href="classpugi_1_1xpath__variable__set_a0a5b49c6ea48ddda64b805e54bad9f11_icgraph_org.svg" target="_base">
   <rect id="button" ry="5" rx="5" y="6" x="6" height="38" width="38"
        fill="#f2f5e9" fill-opacity="0.5" stroke="#606060" stroke-width="1.0"/>
   <path id="arrow"
     d="M 11.500037,31.436501 C 11.940474,20.09759 22.043105,11.32322 32.158766,21.979434 L 37.068811,17.246167 C 37.068811,17.246167 37.088388,32 37.088388,32 L 22.160133,31.978069 C 22.160133,31.978069 26.997745,27.140456 26.997745,27.140456 C 18.528582,18.264221 13.291696,25.230495 11.500037,31.436501 z"
     style="fill:#404040;"/>
  </a>
 </g>
</svg>

<style type='text/css'>
<![CDATA[
[data-mouse-over-selected='false'] { opacity: 0.7; }
[data-mouse-over-selected='true']  { opacity: 1.0; }
]]>
</style>
<script type="application/ecmascript"><![CDATA[
document.addEventListener('DOMContentLoaded', (event) => {
  highlightEdges();
  highlightAdjacentNodes();
});
]]></script>
</svg>
