<?xml version="1.0" encoding="UTF-8" standalone="no"?>
<!DOCTYPE svg PUBLIC "-//W3C//DTD SVG 1.1//EN"
 "http://www.w3.org/Graphics/SVG/1.1/DTD/svg11.dtd">
<!-- Generated by graphviz version 14.1.2 (20260124.0452)
 -->
<!-- Title: pugi::xml_attribute::as_float Pages: 1 -->
<!--zoomable 84 -->

<svg id="main" version="1.1" xmlns="http://www.w3.org/2000/svg" xmlns:xlink="http://www.w3.org/1999/xlink" xml:space="preserve" onload="init(evt)">

<style type="text/css"><![CDATA[
.node, .edge {opacity: 0.7;}
.node.selected, .edge.selected {opacity: 1;}
.edge:hover path { stroke: red; }
.edge:hover polygon { stroke: red; fill: red; }
]]></style>

<defs>
  <circle id="rim" cx="0" cy="0" r="7"/>
  <circle id="rim2" cx="0" cy="0" r="3.5"/>
  <g id="zoomPlus">
    <use xlink:href="#rim" fill="#404040"><set attributeName="fill" to="#808080" begin="zoomplus.mouseover" end="zoomplus.mouseout"/></use>
    <path d="M-4,0h8M0,-4v8" fill="none" stroke="white" stroke-width="1.5" pointer-events="none"/>
  </g>
  <g id="zoomMin">
    <use xlink:href="#rim" fill="#404040"><set attributeName="fill" to="#808080" begin="zoomminus.mouseover" end="zoomminus.mouseout"/></use>
    <path d="M-4,0h8" fill="none" stroke="white" stroke-width="1.5" pointer-events="none"/>
  </g>
  <g id="arrowUp" transform="translate(30 24)">
    <use xlink:href="#rim"/>
    <path pointer-events="none" fill="none" stroke="white" stroke-width="1.5" d="M0,-3.0v7 M-2.5,-0.5L0,-3.0L2.5,-0.5"/>
  </g>
  <g id="arrowRight" transform="rotate(90) translate(36 -43)">
    <use xlink:href="#rim"/>
    <path pointer-events="none" fill="none" stroke="white" stroke-width="1.5" d="M0,-3.0v7 M-2.5,-0.5L0,-3.0L2.5,-0.5"/>
  </g>
  <g id="arrowDown" transform="rotate(180) translate(-30 -48)">
    <use xlink:href="#rim"/>
    <path pointer-events="none" fill="none" stroke="white" stroke-width="1.5" d="M0,-3.0v7 M-2.5,-0.5L0,-3.0L2.5,-0.5"/>
  </g>
  <g id="arrowLeft" transform="rotate(270) translate(-36 17)">
    <use xlink:href="#rim"/>
    <path pointer-events="none" fill="none" stroke="white" stroke-width="1.5" d="M0,-3.0v7 M-2.5,-0.5L0,-3.0L2.5,-0.5"/>
  </g>
  <g id="resetDef">
    <use xlink:href="#rim2" fill="#404040"><set attributeName="fill" to="#808080" begin="reset.mouseover" end="reset.mouseout"/></use>
  </g>
</defs>
<script type="application/ecmascript">
var viewWidth = 982;
var viewHeight = 84;
var sectionId = 'dynsection-5';
</script>
<script type="application/ecmascript" xlink:href="svg.min.js"/>
<svg id="graph" class="graph">
<g id="viewport">
<title>pugi::xml_attribute::as_float</title>
<!-- Node1 -->
<g id="Node000001" class="node">
<title>Node1</title>
<g id="a_Node000001"><a xlink:title=" ">
<polygon fill="#999999" stroke="#666666" points="973.5,-45 877.25,-45 877.25,-13 973.5,-13 973.5,-45"/>
<text xml:space="preserve" text-anchor="start" x="885.25" y="-31.5" font-family="Helvetica,sans-Serif" font-size="10.00">pugi::xml_attribute</text>
<text xml:space="preserve" text-anchor="middle" x="925.38" y="-19.5" font-family="Helvetica,sans-Serif" font-size="10.00">::as_float</text>
</a>
</g>
</g>
<!-- Node2 -->
<g id="Node000002" class="node">
<title>Node2</title>
<g id="a_Node000002"><a xlink:href="class_g_e_x_m_l_parser.html#af7e66e11e1a8973779770daa1ad6f653" target="_top" xlink:title="Parsea una articulación y sus hijas recursivamente.">
<polygon fill="white" stroke="#666666" points="674.5,-58 531,-58 531,-38 674.5,-38 674.5,-58"/>
<text xml:space="preserve" text-anchor="middle" x="602.75" y="-44.5" font-family="Helvetica,sans-Serif" font-size="10.00">GEXMLParser::parseBalljoint</text>
</a>
</g>
</g>
<!-- Node1&#45;&gt;Node2 -->
<g id="edge1_Node000001_Node000002" class="edge">
<title>Node1&#45;&gt;Node2</title>
<g id="a_edge1_Node000001_Node000002"><a xlink:title=" ">
<path fill="none" stroke="#63b8ff" d="M865.68,-32.48C811.96,-35.66 732.34,-40.38 674.99,-43.78"/>
<polygon fill="#63b8ff" stroke="#63b8ff" points="865.78,-35.98 875.55,-31.89 865.37,-28.99 865.78,-35.98"/>
</a>
</g>
</g>
<!-- Node6 -->
<g id="Node000006" class="node">
<title>Node6</title>
<g id="a_Node000006"><a xlink:href="class_g_e_x_m_l_parser.html#aa8e732df591d508941d3c717188b7266" target="_top" xlink:title="Parsea un nodo vec3 (offset, zaxis, yaxis).">
<polygon fill="white" stroke="#666666" points="841.25,-20 710.5,-20 710.5,0 841.25,0 841.25,-20"/>
<text xml:space="preserve" text-anchor="middle" x="775.88" y="-6.5" font-family="Helvetica,sans-Serif" font-size="10.00">GEXMLParser::parseVec3</text>
</a>
</g>
</g>
<!-- Node1&#45;&gt;Node6 -->
<g id="edge6_Node000001_Node000006" class="edge">
<title>Node1&#45;&gt;Node6</title>
<g id="a_edge6_Node000001_Node000006"><a xlink:title=" ">
<path fill="none" stroke="#63b8ff" d="M865.61,-21.43C857.76,-20.42 849.68,-19.38 841.74,-18.36"/>
<polygon fill="#63b8ff" stroke="#63b8ff" points="865.03,-24.88 875.39,-22.69 865.92,-17.94 865.03,-24.88"/>
</a>
</g>
</g>
<!-- Node2&#45;&gt;Node2 -->
<g id="edge2_Node000002_Node000002" class="edge">
<title>Node2&#45;&gt;Node2</title>
<g id="a_edge2_Node000002_Node000002"><a xlink:title=" ">
<path fill="none" stroke="#63b8ff" d="M633.67,-69.11C629.99,-73.14 619.68,-76 602.75,-76 572.66,-76 563.49,-66.98 575.24,-58.34"/>
<polygon fill="#63b8ff" stroke="#63b8ff" points="637.07,-68.26 630.72,-59.78 630.4,-70.37 637.07,-68.26"/>
</a>
</g>
</g>
<!-- Node3 -->
<g id="Node000003" class="node">
<title>Node3</title>
<g id="a_Node000003"><a xlink:href="class_g_e_x_m_l_parser.html#acd9fc587fbd992edbb51df00549c1bda" target="_top" xlink:title="Parsea un archivo .skel y devuelve los datos del esqueleto.">
<polygon fill="white" stroke="#666666" points="495,-39 332,-39 332,-19 495,-19 495,-39"/>
<text xml:space="preserve" text-anchor="middle" x="413.5" y="-25.5" font-family="Helvetica,sans-Serif" font-size="10.00">GEXMLParser::parseSkeletonFile</text>
</a>
</g>
</g>
<!-- Node2&#45;&gt;Node3 -->
<g id="edge3_Node000002_Node000003" class="edge">
<title>Node2&#45;&gt;Node3</title>
<g id="a_edge3_Node000002_Node000003"><a xlink:title=" ">
<path fill="none" stroke="#63b8ff" d="M519.43,-39.65C511.4,-38.83 503.25,-38.01 495.23,-37.19"/>
<polygon fill="#63b8ff" stroke="#63b8ff" points="518.88,-43.11 529.19,-40.64 519.59,-36.15 518.88,-43.11"/>
</a>
</g>
</g>
<!-- Node4 -->
<g id="Node000004" class="node">
<title>Node4</title>
<g id="a_Node000004"><a xlink:href="class_g_e_skeleton.html#ade3f0504c12faea2597ee2c23abf22bd" target="_top" xlink:title="Construye la jerarquía de articulaciones desde body.skel.">
<polygon fill="white" stroke="#666666" points="296,-39 163,-39 163,-19 296,-19 296,-39"/>
<text xml:space="preserve" text-anchor="middle" x="229.5" y="-25.5" font-family="Helvetica,sans-Serif" font-size="10.00">GESkeleton::buildSkeleton</text>
</a>
</g>
</g>
<!-- Node3&#45;&gt;Node4 -->
<g id="edge4_Node000003_Node000004" class="edge">
<title>Node3&#45;&gt;Node4</title>
<g id="a_edge4_Node000003_Node000004"><a xlink:title=" ">
<path fill="none" stroke="#63b8ff" d="M320.26,-29C312.21,-29 304.18,-29 296.41,-29"/>
<polygon fill="#63b8ff" stroke="#63b8ff" points="320.1,-32.5 330.1,-29 320.1,-25.5 320.1,-32.5"/>
</a>
</g>
</g>
<!-- Node5 -->
<g id="Node000005" class="node">
<title>Node5</title>
<g id="a_Node000005"><a xlink:href="class_g_e_skeleton.html#ad854854fdf1e4d090553d4d6edbfe095" target="_top" xlink:title="Constructor del esqueleto.">
<polygon fill="white" stroke="#666666" points="127,-39 0,-39 0,-19 127,-19 127,-39"/>
<text xml:space="preserve" text-anchor="middle" x="63.5" y="-25.5" font-family="Helvetica,sans-Serif" font-size="10.00">GESkeleton::GESkeleton</text>
</a>
</g>
</g>
<!-- Node4&#45;&gt;Node5 -->
<g id="edge5_Node000004_Node000005" class="edge">
<title>Node4&#45;&gt;Node5</title>
<g id="a_edge5_Node000004_Node000005"><a xlink:title=" ">
<path fill="none" stroke="#63b8ff" d="M151.41,-29C143.35,-29 135.22,-29 127.34,-29"/>
<polygon fill="#63b8ff" stroke="#63b8ff" points="151.23,-32.5 161.23,-29 151.23,-25.5 151.23,-32.5"/>
</a>
</g>
</g>
<!-- Node6&#45;&gt;Node2 -->
<g id="edge7_Node000006_Node000002" class="edge">
<title>Node6&#45;&gt;Node2</title>
<g id="a_edge7_Node000006_Node000002"><a xlink:title=" ">
<path fill="none" stroke="#63b8ff" d="M716.7,-22.92C695.23,-27.69 671.18,-33.03 650.81,-37.55"/>
<polygon fill="#63b8ff" stroke="#63b8ff" points="717.18,-26.4 726.18,-20.81 715.66,-19.56 717.18,-26.4"/>
</a>
</g>
</g>
<!-- Node6&#45;&gt;Node3 -->
<g id="edge8_Node000006_Node000003" class="edge">
<title>Node6&#45;&gt;Node3</title>
<g id="a_edge8_Node000006_Node000003"><a xlink:title=" ">
<path fill="none" stroke="#63b8ff" d="M698.79,-14.01C639.06,-17.16 556.12,-21.53 495.23,-24.74"/>
<polygon fill="#63b8ff" stroke="#63b8ff" points="698.72,-17.52 708.52,-13.5 698.35,-10.53 698.72,-17.52"/>
</a>
</g>
</g>
</g>
</svg>

<g id="navigator" transform="translate(0 0)" fill="#404254">
  <rect fill="#f2f5e9" fill-opacity="0.5" stroke="#606060" stroke-width=".5" x="0" y="0" width="60" height="60"/>
  <use id="zoomplus" xlink:href="#zoomPlus" x="17" y="9" onmousedown="handleZoom(evt,'in')"/>
  <use id="zoomminus" xlink:href="#zoomMin" x="42" y="9" onmousedown="handleZoom(evt,'out')"/>
  <use id="reset" xlink:href="#resetDef" x="30" y="36" onmousedown="handleReset()"/>
   <use id="arrowup" xlink:href="#arrowUp" x="0" y="0" onmousedown="handlePan(0,-1)"/>
  <use id="arrowright" xlink:href="#arrowRight" x="0" y="0" onmousedown="handlePan(1,0)"/>
  <use id="arrowdown" xlink:href="#arrowDown" x="0" y="0" onmousedown="handlePan(0,1)"/>
  <use id="arrowleft" xlink:href="#arrowLeft" x="0" y="0" onmousedown="handlePan(-1,0)"/>
</g>
<svg viewBox="0 0 15 15" width="100%" height="30px" preserveAspectRatio="xMaxYMin meet">
 <g id="arrow_out" transform="scale(0.3 0.3)">
  <a xlink:href="classpugi_1_1xml__attribute_af245d352a69150cb6b556d1400f24f8b_icgraph_org.svg" target="_base">
   <rect id="button" ry="5" rx="5" y="6" x="6" height="38" width="38"
        fill="#f2f5e9" fill-opacity="0.5" stroke="#606060" stroke-width="1.0"/>
   <path id="arrow"
     d="M 11.500037,31.436501 C 11.940474,20.09759 22.043105,11.32322 32.158766,21.979434 L 37.068811,17.246167 C 37.068811,17.246167 37.088388,32 37.088388,32 L 22.160133,31.978069 C 22.160133,31.978069 26.997745,27.140456 26.997745,27.140456 C 18.528582,18.264221 13.291696,25.230495 11.500037,31.436501 z"
     style="fill:#404040;"/>
  </a>
 </g>
</svg>

<style type='text/css'>
<![CDATA[
[data-mouse-over-selected='false'] { opacity: 0.7; }
[data-mouse-over-selected='true']  { opacity: 1.0; }
]]>
</style>
<script type="application/ecmascript"><![CDATA[
document.addEventListener('DOMContentLoaded', (event) => {
  highlightEdges();
  highlightAdjacentNodes();
});
]]></script>
</svg>
