<?xml version="1.0" encoding="UTF-8" standalone="no"?>
<!DOCTYPE svg PUBLIC "-//W3C//DTD SVG 1.1//EN"
 "http://www.w3.org/Graphics/SVG/1.1/DTD/svg11.dtd">
<!-- Generated by graphviz version 14.1.2 (20260124.0452)
 -->
<!-- Title: pugi::xml_named_node_iterator Pages: 1 -->
<svg width="209pt" height="338pt"
 viewBox="0.00 0.00 209.00 338.00" xmlns="http://www.w3.org/2000/svg" xmlns:xlink="http://www.w3.org/1999/xlink">
<g id="graph0" class="graph" transform="scale(1 1) rotate(0) translate(4 334)">
<title>pugi::xml_named_node_iterator</title>
<!-- Node1 -->
<g id="Node000001" class="node">
<title>Node1</title>
<g id="a_Node000001"><a xlink:title=" ">
<polygon fill="#999999" stroke="#666666" points="116.5,-32 0,-32 0,0 116.5,0 116.5,-32"/>
<text xml:space="preserve" text-anchor="start" x="8" y="-18.5" font-family="Helvetica,sans-Serif" font-size="10.00">pugi::xml_named_node</text>
<text xml:space="preserve" text-anchor="middle" x="58.25" y="-6.5" font-family="Helvetica,sans-Serif" font-size="10.00">_iterator</text>
</a>
</g>
</g>
<!-- Node2 -->
<g id="Node000002" class="node">
<title>Node2</title>
<g id="a_Node000002"><a xlink:href="classpugi_1_1xml__node.html" target="_top" xlink:title=" ">
<polygon fill="white" stroke="#666666" points="99.25,-122 17.25,-122 17.25,-102 99.25,-102 99.25,-122"/>
<text xml:space="preserve" text-anchor="middle" x="58.25" y="-108.5" font-family="Helvetica,sans-Serif" font-size="10.00">pugi::xml_node</text>
</a>
</g>
</g>
<!-- Node2&#45;&gt;Node1 -->
<g id="edge1_Node000001_Node000002" class="edge">
<title>Node2&#45;&gt;Node1</title>
<g id="a_edge1_Node000001_Node000002"><a xlink:title=" ">
<path fill="none" stroke="#9a32cd" stroke-dasharray="5,2" d="M58.25,-90.37C58.25,-72.8 58.25,-47.97 58.25,-32.18"/>
<polygon fill="#9a32cd" stroke="#9a32cd" points="54.75,-90.13 58.25,-100.13 61.75,-90.13 54.75,-90.13"/>
</a>
</g>
<text xml:space="preserve" text-anchor="start" x="61.25" y="-71.5" font-family="Helvetica,sans-Serif" font-size="10.00" fill="grey">_parent</text>
<text xml:space="preserve" text-anchor="start" x="61.25" y="-55.5" font-family="Helvetica,sans-Serif" font-size="10.00" fill="grey">_wrap</text>
</g>
<!-- Node3 -->
<g id="Node000003" class="node">
<title>Node3</title>
<g id="a_Node000003"><a xlink:href="structpugi_1_1xml__node__struct.html" target="_top" xlink:title=" ">
<polygon fill="white" stroke="#666666" points="114.25,-219 2.25,-219 2.25,-199 114.25,-199 114.25,-219"/>
<text xml:space="preserve" text-anchor="middle" x="58.25" y="-205.5" font-family="Helvetica,sans-Serif" font-size="10.00">pugi::xml_node_struct</text>
</a>
</g>
</g>
<!-- Node3&#45;&gt;Node2 -->
<g id="edge2_Node000002_Node000003" class="edge">
<title>Node3&#45;&gt;Node2</title>
<g id="a_edge2_Node000002_Node000003"><a xlink:title=" ">
<path fill="none" stroke="#9a32cd" stroke-dasharray="5,2" d="M58.25,-187.18C58.25,-167.03 58.25,-137.4 58.25,-122.42"/>
<polygon fill="#9a32cd" stroke="#9a32cd" points="54.75,-187.03 58.25,-197.03 61.75,-187.03 54.75,-187.03"/>
</a>
</g>
<text xml:space="preserve" text-anchor="start" x="61.25" y="-145.5" font-family="Helvetica,sans-Serif" font-size="10.00" fill="grey">_root</text>
</g>
<!-- Node3&#45;&gt;Node3 -->
<g id="edge3_Node000003_Node000003" class="edge">
<title>Node3&#45;&gt;Node3</title>
<g id="a_edge3_Node000003_Node000003"><a xlink:title=" ">
<path fill="none" stroke="#9a32cd" stroke-dasharray="5,2" d="M103.18,-220.24C119.21,-220.46 132.25,-216.71 132.25,-209 132.25,-199.51 112.49,-196.02 91.74,-198.54"/>
<polygon fill="#9a32cd" stroke="#9a32cd" points="103.46,-216.75 93.25,-219.56 102.98,-223.74 103.46,-216.75"/>
</a>
</g>
<text xml:space="preserve" text-anchor="start" x="135.25" y="-229.5" font-family="Helvetica,sans-Serif" font-size="10.00" fill="grey">first_child</text>
<text xml:space="preserve" text-anchor="start" x="135.25" y="-213.5" font-family="Helvetica,sans-Serif" font-size="10.00" fill="grey">next_sibling</text>
<text xml:space="preserve" text-anchor="start" x="135.25" y="-197.5" font-family="Helvetica,sans-Serif" font-size="10.00" fill="grey">parent</text>
<text xml:space="preserve" text-anchor="start" x="135.25" y="-181.5" font-family="Helvetica,sans-Serif" font-size="10.00" fill="grey">prev_sibling_c</text>
</g>
<!-- Node4 -->
<g id="Node000004" class="node">
<title>Node4</title>
<g id="a_Node000004"><a xlink:href="structpugi_1_1xml__attribute__struct.html" target="_top" xlink:title=" ">
<polygon fill="white" stroke="#666666" points="106.38,-329 10.12,-329 10.12,-297 106.38,-297 106.38,-329"/>
<text xml:space="preserve" text-anchor="start" x="18.12" y="-315.5" font-family="Helvetica,sans-Serif" font-size="10.00">pugi::xml_attribute</text>
<text xml:space="preserve" text-anchor="middle" x="58.25" y="-303.5" font-family="Helvetica,sans-Serif" font-size="10.00">_struct</text>
</a>
</g>
</g>
<!-- Node4&#45;&gt;Node3 -->
<g id="edge4_Node000003_Node000004" class="edge">
<title>Node4&#45;&gt;Node3</title>
<g id="a_edge4_Node000003_Node000004"><a xlink:title=" ">
<path fill="none" stroke="#9a32cd" stroke-dasharray="5,2" d="M58.25,-285.04C58.25,-263.28 58.25,-233.95 58.25,-219.23"/>
<polygon fill="#9a32cd" stroke="#9a32cd" points="54.75,-284.99 58.25,-294.99 61.75,-284.99 54.75,-284.99"/>
</a>
</g>
<text xml:space="preserve" text-anchor="start" x="61.25" y="-265.5" font-family="Helvetica,sans-Serif" font-size="10.00" fill="grey">first_attribute</text>
</g>
<!-- Node4&#45;&gt;Node4 -->
<g id="edge5_Node000004_Node000004" class="edge">
<title>Node4&#45;&gt;Node4</title>
<g id="a_edge5_Node000004_Node000004"><a xlink:title=" ">
<path fill="none" stroke="#9a32cd" stroke-dasharray="5,2" d="M117.82,-318.97C121.9,-317.6 124.38,-315.61 124.38,-313 124.38,-308.49 116.96,-305.83 106.69,-305.02"/>
<polygon fill="#9a32cd" stroke="#9a32cd" points="117.4,-315.49 108.18,-320.71 118.64,-322.38 117.4,-315.49"/>
</a>
</g>
<text xml:space="preserve" text-anchor="start" x="127.38" y="-317.5" font-family="Helvetica,sans-Serif" font-size="10.00" fill="grey">next_attribute</text>
<text xml:space="preserve" text-anchor="start" x="127.38" y="-301.5" font-family="Helvetica,sans-Serif" font-size="10.00" fill="grey">prev_attribute_c</text>
</g>
</g>
</svg>
