<?xml version="1.0" encoding="UTF-8" standalone="no"?>
<!DOCTYPE svg PUBLIC "-//W3C//DTD SVG 1.1//EN"
 "http://www.w3.org/Graphics/SVG/1.1/DTD/svg11.dtd">
<!-- Generated by graphviz version 14.1.2 (20260124.0452)
 -->
<!-- Title: GERenderingContext::createVertexShaderStageCreateInfo Pages: 1 -->
<svg width="496pt" height="40pt"
 viewBox="0.00 0.00 496.00 40.00" xmlns="http://www.w3.org/2000/svg" xmlns:xlink="http://www.w3.org/1999/xlink">
<g id="graph0" class="graph" transform="scale(1 1) rotate(0) translate(4 36)">
<title>GERenderingContext::createVertexShaderStageCreateInfo</title>
<!-- Node1 -->
<g id="Node000001" class="node">
<title>Node1</title>
<g id="a_Node000001"><a xlink:title="Crea la información sobre el Vertex Shader.">
<polygon fill="#999999" stroke="#666666" points="488.25,-32 309.5,-32 309.5,0 488.25,0 488.25,-32"/>
<text xml:space="preserve" text-anchor="start" x="317.5" y="-18.5" font-family="Helvetica,sans-Serif" font-size="10.00">GERenderingContext</text>
<text xml:space="preserve" text-anchor="middle" x="398.88" y="-6.5" font-family="Helvetica,sans-Serif" font-size="10.00">::createVertexShaderStageCreateInfo</text>
</a>
</g>
</g>
<!-- Node2 -->
<g id="Node000002" class="node">
<title>Node2</title>
<g id="a_Node000002"><a xlink:href="class_g_e_rendering_context.html#aba96e7a9f6699afaa6b695cb3e7373e2" target="_top" xlink:title="Crea el Pipeline de renderizado.">
<polygon fill="white" stroke="#666666" points="273.5,-32 151,-32 151,0 273.5,0 273.5,-32"/>
<text xml:space="preserve" text-anchor="start" x="159" y="-18.5" font-family="Helvetica,sans-Serif" font-size="10.00">GERenderingContext</text>
<text xml:space="preserve" text-anchor="middle" x="212.25" y="-6.5" font-family="Helvetica,sans-Serif" font-size="10.00">::createGraphicsPipeline</text>
</a>
</g>
</g>
<!-- Node1&#45;&gt;Node2 -->
<g id="edge1_Node000001_Node000002" class="edge">
<title>Node1&#45;&gt;Node2</title>
<g id="a_edge1_Node000001_Node000002"><a xlink:title=" ">
<path fill="none" stroke="#63b8ff" d="M297.63,-16C289.55,-16 281.55,-16 273.89,-16"/>
<polygon fill="#63b8ff" stroke="#63b8ff" points="297.56,-19.5 307.56,-16 297.56,-12.5 297.56,-19.5"/>
</a>
</g>
</g>
<!-- Node3 -->
<g id="Node000003" class="node">
<title>Node3</title>
<g id="a_Node000003"><a xlink:href="class_g_e_rendering_context.html#a6cd622aab40a887d134dd524bac920b8" target="_top" xlink:title="Construye el contexto de renderizado (render pass, pipeline y framebuffers).">
<polygon fill="white" stroke="#666666" points="115,-32 0,-32 0,0 115,0 115,-32"/>
<text xml:space="preserve" text-anchor="start" x="8" y="-18.5" font-family="Helvetica,sans-Serif" font-size="10.00">GERenderingContext</text>
<text xml:space="preserve" text-anchor="middle" x="57.5" y="-6.5" font-family="Helvetica,sans-Serif" font-size="10.00">::GERenderingContext</text>
</a>
</g>
</g>
<!-- Node2&#45;&gt;Node3 -->
<g id="edge2_Node000002_Node000003" class="edge">
<title>Node2&#45;&gt;Node3</title>
<g id="a_edge2_Node000002_Node000003"><a xlink:title=" ">
<path fill="none" stroke="#63b8ff" d="M139.54,-16C131.46,-16 123.3,-16 115.45,-16"/>
<polygon fill="#63b8ff" stroke="#63b8ff" points="139.37,-19.5 149.37,-16 139.37,-12.5 139.37,-19.5"/>
</a>
</g>
</g>
</g>
</svg>
