<?xml version="1.0" encoding="UTF-8" standalone="no"?>
<!DOCTYPE svg PUBLIC "-//W3C//DTD SVG 1.1//EN"
 "http://www.w3.org/Graphics/SVG/1.1/DTD/svg11.dtd">
<!-- Generated by graphviz version 14.1.2 (20260124.0452)
 -->
<!-- Title: pugi::xml_text::set Pages: 1 -->
<svg width="266pt" height="294pt"
 viewBox="0.00 0.00 266.00 294.00" xmlns="http://www.w3.org/2000/svg" xmlns:xlink="http://www.w3.org/1999/xlink">

<svg id="main" version="1.1" xmlns="http://www.w3.org/2000/svg" xmlns:xlink="http://www.w3.org/1999/xlink" xml:space="preserve">

<style type="text/css"><![CDATA[
.node, .edge {opacity: 0.7;}
.node.selected, .edge.selected {opacity: 1;}
.edge:hover path { stroke: red; }
.edge:hover polygon { stroke: red; fill: red; }
]]></style>
<script type="application/ecmascript" xlink:href="svg.min.js"/>
<svg id="graph" class="graph">
<g id="graph0" class="graph" transform="scale(1 1) rotate(0) translate(4 290)">
<title>pugi::xml_text::set</title>
<!-- Node1 -->
<g id="Node000001" class="node">
<title>Node1</title>
<g id="a_Node000001"><a xlink:title=" ">
<polygon fill="#999999" stroke="#666666" points="257.75,-153 160.75,-153 160.75,-133 257.75,-133 257.75,-153"/>
<text xml:space="preserve" text-anchor="middle" x="209.25" y="-139.5" font-family="Helvetica,sans-Serif" font-size="10.00">pugi::xml_text::set</text>
</a>
</g>
</g>
<!-- Node2 -->
<g id="Node000002" class="node">
<title>Node2</title>
<g id="a_Node000002"><a xlink:href="classpugi_1_1xml__text.html#a81b4238dae036fe8a81bbd3b3125d70b" target="_top" xlink:title=" ">
<polygon fill="white" stroke="#666666" points="124.75,-286 0,-286 0,-266 124.75,-266 124.75,-286"/>
<text xml:space="preserve" text-anchor="middle" x="62.38" y="-272.5" font-family="Helvetica,sans-Serif" font-size="10.00">pugi::xml_text::operator=</text>
</a>
</g>
</g>
<!-- Node1&#45;&gt;Node2 -->
<g id="edge1_Node000001_Node000002" class="edge">
<title>Node1&#45;&gt;Node2</title>
<g id="a_edge1_Node000001_Node000002"><a xlink:title=" ">
<path fill="none" stroke="#63b8ff" d="M198.59,-163.26C185.4,-188.79 159.38,-232.31 124.75,-257 119.94,-260.43 114.49,-263.26 108.87,-265.58"/>
<polygon fill="#63b8ff" stroke="#63b8ff" points="201.58,-165.09 202.91,-154.58 195.32,-161.97 201.58,-165.09"/>
</a>
</g>
</g>
<!-- Node3 -->
<g id="Node000003" class="node">
<title>Node3</title>
<g id="a_Node000003"><a xlink:href="classpugi_1_1xml__text.html#a1a08c9c8b703e929d4b3bf2e6f61149d" target="_top" xlink:title=" ">
<polygon fill="white" stroke="#666666" points="124.75,-248 0,-248 0,-228 124.75,-228 124.75,-248"/>
<text xml:space="preserve" text-anchor="middle" x="62.38" y="-234.5" font-family="Helvetica,sans-Serif" font-size="10.00">pugi::xml_text::operator=</text>
</a>
</g>
</g>
<!-- Node1&#45;&gt;Node3 -->
<g id="edge2_Node000001_Node000003" class="edge">
<title>Node1&#45;&gt;Node3</title>
<g id="a_edge2_Node000001_Node000003"><a xlink:title=" ">
<path fill="none" stroke="#63b8ff" d="M192.34,-161.56C176.72,-178.7 151.41,-203.76 124.75,-219 118.84,-222.38 112.27,-225.22 105.67,-227.6"/>
<polygon fill="#63b8ff" stroke="#63b8ff" points="194.55,-164.34 198.58,-154.54 189.32,-159.69 194.55,-164.34"/>
</a>
</g>
</g>
<!-- Node4 -->
<g id="Node000004" class="node">
<title>Node4</title>
<g id="a_Node000004"><a xlink:href="classpugi_1_1xml__text.html#ab78070dd0b8ea25e4351d9ca28bf7923" target="_top" xlink:title=" ">
<polygon fill="white" stroke="#666666" points="124.75,-210 0,-210 0,-190 124.75,-190 124.75,-210"/>
<text xml:space="preserve" text-anchor="middle" x="62.38" y="-196.5" font-family="Helvetica,sans-Serif" font-size="10.00">pugi::xml_text::operator=</text>
</a>
</g>
</g>
<!-- Node1&#45;&gt;Node4 -->
<g id="edge3_Node000001_Node000004" class="edge">
<title>Node1&#45;&gt;Node4</title>
<g id="a_edge3_Node000001_Node000004"><a xlink:title=" ">
<path fill="none" stroke="#63b8ff" d="M177.18,-158.28C161.63,-165.63 142.41,-174.28 124.75,-181 116.83,-184.02 108.2,-186.91 99.98,-189.5"/>
<polygon fill="#63b8ff" stroke="#63b8ff" points="178.41,-161.57 185.92,-154.09 175.39,-155.25 178.41,-161.57"/>
</a>
</g>
</g>
<!-- Node5 -->
<g id="Node000005" class="node">
<title>Node5</title>
<g id="a_Node000005"><a xlink:href="classpugi_1_1xml__text.html#a599caf816bcffda85ca04be72b153937" target="_top" xlink:title=" ">
<polygon fill="white" stroke="#666666" points="124.75,-172 0,-172 0,-152 124.75,-152 124.75,-172"/>
<text xml:space="preserve" text-anchor="middle" x="62.38" y="-158.5" font-family="Helvetica,sans-Serif" font-size="10.00">pugi::xml_text::operator=</text>
</a>
</g>
</g>
<!-- Node1&#45;&gt;Node5 -->
<g id="edge4_Node000001_Node000005" class="edge">
<title>Node1&#45;&gt;Node5</title>
<g id="a_edge4_Node000001_Node000005"><a xlink:title=" ">
<path fill="none" stroke="#63b8ff" d="M149.05,-150.76C141.16,-151.8 133.05,-152.86 125.11,-153.9"/>
<polygon fill="#63b8ff" stroke="#63b8ff" points="149.45,-154.24 158.91,-149.47 148.54,-147.3 149.45,-154.24"/>
</a>
</g>
</g>
<!-- Node6 -->
<g id="Node000006" class="node">
<title>Node6</title>
<g id="a_Node000006"><a xlink:href="classpugi_1_1xml__text.html#ad98117a3a16fe2ebd80e33a3468421f4" target="_top" xlink:title=" ">
<polygon fill="white" stroke="#666666" points="124.75,-134 0,-134 0,-114 124.75,-114 124.75,-134"/>
<text xml:space="preserve" text-anchor="middle" x="62.38" y="-120.5" font-family="Helvetica,sans-Serif" font-size="10.00">pugi::xml_text::operator=</text>
</a>
</g>
</g>
<!-- Node1&#45;&gt;Node6 -->
<g id="edge5_Node000001_Node000006" class="edge">
<title>Node1&#45;&gt;Node6</title>
<g id="a_edge5_Node000001_Node000006"><a xlink:title=" ">
<path fill="none" stroke="#63b8ff" d="M149.05,-135.24C141.16,-134.2 133.05,-133.14 125.11,-132.1"/>
<polygon fill="#63b8ff" stroke="#63b8ff" points="148.54,-138.7 158.91,-136.53 149.45,-131.76 148.54,-138.7"/>
</a>
</g>
</g>
<!-- Node7 -->
<g id="Node000007" class="node">
<title>Node7</title>
<g id="a_Node000007"><a xlink:href="classpugi_1_1xml__text.html#a29a0ab34bacdc90797f6db9878dcf1ef" target="_top" xlink:title=" ">
<polygon fill="white" stroke="#666666" points="124.75,-96 0,-96 0,-76 124.75,-76 124.75,-96"/>
<text xml:space="preserve" text-anchor="middle" x="62.38" y="-82.5" font-family="Helvetica,sans-Serif" font-size="10.00">pugi::xml_text::operator=</text>
</a>
</g>
</g>
<!-- Node1&#45;&gt;Node7 -->
<g id="edge6_Node000001_Node000007" class="edge">
<title>Node1&#45;&gt;Node7</title>
<g id="a_edge6_Node000001_Node000007"><a xlink:title=" ">
<path fill="none" stroke="#63b8ff" d="M177.18,-127.72C161.63,-120.37 142.41,-111.72 124.75,-105 116.83,-101.98 108.2,-99.09 99.98,-96.5"/>
<polygon fill="#63b8ff" stroke="#63b8ff" points="175.39,-130.75 185.92,-131.91 178.41,-124.43 175.39,-130.75"/>
</a>
</g>
</g>
<!-- Node8 -->
<g id="Node000008" class="node">
<title>Node8</title>
<g id="a_Node000008"><a xlink:href="classpugi_1_1xml__text.html#a48fb4cbc530a6ef28c408d81487f0e40" target="_top" xlink:title=" ">
<polygon fill="white" stroke="#666666" points="124.75,-58 0,-58 0,-38 124.75,-38 124.75,-58"/>
<text xml:space="preserve" text-anchor="middle" x="62.38" y="-44.5" font-family="Helvetica,sans-Serif" font-size="10.00">pugi::xml_text::operator=</text>
</a>
</g>
</g>
<!-- Node1&#45;&gt;Node8 -->
<g id="edge7_Node000001_Node000008" class="edge">
<title>Node1&#45;&gt;Node8</title>
<g id="a_edge7_Node000001_Node000008"><a xlink:title=" ">
<path fill="none" stroke="#63b8ff" d="M192.34,-124.44C176.72,-107.3 151.41,-82.24 124.75,-67 118.84,-63.62 112.27,-60.78 105.67,-58.4"/>
<polygon fill="#63b8ff" stroke="#63b8ff" points="189.32,-126.31 198.58,-131.46 194.55,-121.66 189.32,-126.31"/>
</a>
</g>
</g>
<!-- Node9 -->
<g id="Node000009" class="node">
<title>Node9</title>
<g id="a_Node000009"><a xlink:href="classpugi_1_1xml__text.html#a6d7074af69fe080f02154bceb4d1d61a" target="_top" xlink:title=" ">
<polygon fill="white" stroke="#666666" points="124.75,-20 0,-20 0,0 124.75,0 124.75,-20"/>
<text xml:space="preserve" text-anchor="middle" x="62.38" y="-6.5" font-family="Helvetica,sans-Serif" font-size="10.00">pugi::xml_text::operator=</text>
</a>
</g>
</g>
<!-- Node1&#45;&gt;Node9 -->
<g id="edge8_Node000001_Node000009" class="edge">
<title>Node1&#45;&gt;Node9</title>
<g id="a_edge8_Node000001_Node000009"><a xlink:title=" ">
<path fill="none" stroke="#63b8ff" d="M198.59,-122.74C185.4,-97.21 159.38,-53.69 124.75,-29 119.94,-25.57 114.49,-22.74 108.87,-20.42"/>
<polygon fill="#63b8ff" stroke="#63b8ff" points="195.32,-124.03 202.91,-131.42 201.58,-120.91 195.32,-124.03"/>
</a>
</g>
</g>
</g>
</svg>
</svg>

<style type='text/css'>
<![CDATA[
[data-mouse-over-selected='false'] { opacity: 0.7; }
[data-mouse-over-selected='true']  { opacity: 1.0; }
]]>
</style>
<script type="application/ecmascript"><![CDATA[
document.addEventListener('DOMContentLoaded', (event) => {
  highlightEdges();
  highlightAdjacentNodes();
});
]]></script>
</svg>
