<?xml version="1.0" encoding="UTF-8" standalone="no"?>
<!DOCTYPE svg PUBLIC "-//W3C//DTD SVG 1.1//EN"
 "http://www.w3.org/Graphics/SVG/1.1/DTD/svg11.dtd">
<!-- Generated by graphviz version 14.1.2 (20260124.0452)
 -->
<!-- Title: xpath_node_set_raw::empty Pages: 1 -->
<svg width="1175pt" height="305pt"
 viewBox="0.00 0.00 1175.00 305.00" xmlns="http://www.w3.org/2000/svg" xmlns:xlink="http://www.w3.org/1999/xlink">
<g id="graph0" class="graph" transform="scale(1 1) rotate(0) translate(4 301)">
<title>xpath_node_set_raw::empty</title>
<!-- Node1 -->
<g id="Node000001" class="node">
<title>Node1</title>
<g id="a_Node000001"><a xlink:title=" ">
<polygon fill="#999999" stroke="#666666" points="1166.75,-32 1060.75,-32 1060.75,0 1166.75,0 1166.75,-32"/>
<text xml:space="preserve" text-anchor="start" x="1068.75" y="-18.5" font-family="Helvetica,sans-Serif" font-size="10.00">xpath_node_set_raw</text>
<text xml:space="preserve" text-anchor="middle" x="1113.75" y="-6.5" font-family="Helvetica,sans-Serif" font-size="10.00">::empty</text>
</a>
</g>
</g>
<!-- Node2 -->
<g id="Node000002" class="node">
<title>Node2</title>
<g id="a_Node000002"><a xlink:href="classxpath__ast__node.html#ab7f965a92023bc2704b8e6fd9f3d7c14" target="_top" xlink:title=" ">
<polygon fill="white" stroke="#666666" points="1024.75,-110 915.75,-110 915.75,-78 1024.75,-78 1024.75,-110"/>
<text xml:space="preserve" text-anchor="start" x="923.75" y="-96.5" font-family="Helvetica,sans-Serif" font-size="10.00">xpath_ast_node::eval</text>
<text xml:space="preserve" text-anchor="middle" x="970.25" y="-84.5" font-family="Helvetica,sans-Serif" font-size="10.00">_boolean</text>
</a>
</g>
</g>
<!-- Node1&#45;&gt;Node2 -->
<g id="edge1_Node000001_Node000002" class="edge">
<title>Node1&#45;&gt;Node2</title>
<g id="a_edge1_Node000001_Node000002"><a xlink:title=" ">
<path fill="none" stroke="#63b8ff" d="M1073.3,-37.74C1050.35,-50.4 1021.9,-66.08 1000.87,-77.67"/>
<polygon fill="#63b8ff" stroke="#63b8ff" points="1074.69,-40.97 1081.76,-33.08 1071.31,-34.84 1074.69,-40.97"/>
</a>
</g>
</g>
<!-- Node8 -->
<g id="Node000008" class="node">
<title>Node8</title>
<g id="a_Node000008"><a xlink:href="classxpath__ast__node.html#a6b675237a590548b68d0e0b97518b6df" target="_top" xlink:title=" ">
<polygon fill="white" stroke="#666666" points="434.25,-60 325.25,-60 325.25,-28 434.25,-28 434.25,-60"/>
<text xml:space="preserve" text-anchor="start" x="333.25" y="-46.5" font-family="Helvetica,sans-Serif" font-size="10.00">xpath_ast_node::eval</text>
<text xml:space="preserve" text-anchor="middle" x="379.75" y="-34.5" font-family="Helvetica,sans-Serif" font-size="10.00">_string</text>
</a>
</g>
</g>
<!-- Node1&#45;&gt;Node8 -->
<g id="edge25_Node000001_Node000008" class="edge">
<title>Node1&#45;&gt;Node8</title>
<g id="a_edge25_Node000001_Node000008"><a xlink:title=" ">
<path fill="none" stroke="#63b8ff" d="M1049.32,-18.43C907.46,-23.85 566.67,-36.89 434.45,-41.95"/>
<polygon fill="#63b8ff" stroke="#63b8ff" points="1049.03,-21.94 1058.89,-18.06 1048.76,-14.95 1049.03,-21.94"/>
</a>
</g>
</g>
<!-- Node3 -->
<g id="Node000003" class="node">
<title>Node3</title>
<g id="a_Node000003"><a xlink:href="classxpath__ast__node.html#ab4e5bbd3f2e83c86a43349374b4bfc22" target="_top" xlink:title=" ">
<polygon fill="white" stroke="#666666" points="879.75,-180 765.5,-180 765.5,-148 879.75,-148 879.75,-180"/>
<text xml:space="preserve" text-anchor="start" x="773.5" y="-166.5" font-family="Helvetica,sans-Serif" font-size="10.00">xpath_ast_node::apply</text>
<text xml:space="preserve" text-anchor="middle" x="822.62" y="-154.5" font-family="Helvetica,sans-Serif" font-size="10.00">_predicate_boolean</text>
</a>
</g>
</g>
<!-- Node2&#45;&gt;Node3 -->
<g id="edge2_Node000002_Node000003" class="edge">
<title>Node2&#45;&gt;Node3</title>
<g id="a_edge2_Node000002_Node000003"><a xlink:title=" ">
<path fill="none" stroke="#63b8ff" d="M924.88,-115.33C903.33,-125.69 877.82,-137.95 857.81,-147.57"/>
<polygon fill="#63b8ff" stroke="#63b8ff" points="926.25,-118.55 933.74,-111.07 923.21,-112.25 926.25,-118.55"/>
</a>
</g>
</g>
<!-- Node6 -->
<g id="Node000006" class="node">
<title>Node6</title>
<g id="a_Node000006"><a xlink:href="classxpath__ast__node.html#a98dd7f6e67fe2c56c63056eed835d6a4" target="_top" xlink:title=" ">
<polygon fill="white" stroke="#666666" points="144.25,-51 0,-51 0,-31 144.25,-31 144.25,-51"/>
<text xml:space="preserve" text-anchor="middle" x="72.12" y="-37.5" font-family="Helvetica,sans-Serif" font-size="10.00">xpath_ast_node::compare_eq</text>
</a>
</g>
</g>
<!-- Node2&#45;&gt;Node6 -->
<g id="edge22_Node000002_Node000006" class="edge">
<title>Node2&#45;&gt;Node6</title>
<g id="a_edge22_Node000002_Node000006"><a xlink:title=" ">
<path fill="none" stroke="#63b8ff" d="M926.3,-74.41C911.61,-70.39 895.03,-66.71 879.75,-64 635.95,-20.76 572.63,0.77 325.25,-10 248.87,-13.33 159.84,-22.29 110.65,-30.52"/>
<polygon fill="#63b8ff" stroke="#63b8ff" points="925.08,-77.7 935.66,-77.11 927.03,-70.97 925.08,-77.7"/>
</a>
</g>
</g>
<!-- Node2&#45;&gt;Node8 -->
<g id="edge24_Node000002_Node000008" class="edge">
<title>Node2&#45;&gt;Node8</title>
<g id="a_edge24_Node000002_Node000008"><a xlink:title=" ">
<path fill="none" stroke="#63b8ff" d="M904.2,-84.05C787.12,-70.9 543.03,-50.27 434.62,-44.48"/>
<polygon fill="#63b8ff" stroke="#63b8ff" points="903.63,-87.5 913.96,-85.16 904.42,-80.55 903.63,-87.5"/>
</a>
</g>
</g>
<!-- Node9 -->
<g id="Node000009" class="node">
<title>Node9</title>
<g id="a_Node000009"><a xlink:href="classxpath__ast__node.html#a92dd7048e28d486bc7f382d1fc6f1de6" target="_top" xlink:title=" ">
<polygon fill="white" stroke="#666666" points="289.25,-177 180.25,-177 180.25,-145 289.25,-145 289.25,-177"/>
<text xml:space="preserve" text-anchor="start" x="188.25" y="-163.5" font-family="Helvetica,sans-Serif" font-size="10.00">xpath_ast_node::eval</text>
<text xml:space="preserve" text-anchor="middle" x="234.75" y="-151.5" font-family="Helvetica,sans-Serif" font-size="10.00">_number</text>
</a>
</g>
</g>
<!-- Node2&#45;&gt;Node9 -->
<g id="edge23_Node000002_Node000009" class="edge">
<title>Node2&#45;&gt;Node9</title>
<g id="a_edge23_Node000002_Node000009"><a xlink:title=" ">
<path fill="none" stroke="#63b8ff" d="M945.83,-118.96C929.46,-138.23 905.91,-163.91 879.75,-180 798.28,-230.1 769.02,-241 673.38,-241 673.38,-241 673.38,-241 523.75,-241 434,-241 335.25,-201.06 279.83,-177.39"/>
<polygon fill="#63b8ff" stroke="#63b8ff" points="948.33,-121.42 952.07,-111.51 942.97,-116.92 948.33,-121.42"/>
</a>
</g>
</g>
<!-- Node4 -->
<g id="Node000004" class="node">
<title>Node4</title>
<g id="a_Node000004"><a xlink:href="classxpath__ast__node.html#a7e35f265c9e0712a16e1d8a9db4c7672" target="_top" xlink:title=" ">
<polygon fill="white" stroke="#666666" points="729.5,-180 615.25,-180 615.25,-148 729.5,-148 729.5,-180"/>
<text xml:space="preserve" text-anchor="start" x="623.25" y="-166.5" font-family="Helvetica,sans-Serif" font-size="10.00">xpath_ast_node::apply</text>
<text xml:space="preserve" text-anchor="middle" x="672.38" y="-154.5" font-family="Helvetica,sans-Serif" font-size="10.00">_predicate</text>
</a>
</g>
</g>
<!-- Node3&#45;&gt;Node4 -->
<g id="edge3_Node000003_Node000004" class="edge">
<title>Node3&#45;&gt;Node4</title>
<g id="a_edge3_Node000003_Node000004"><a xlink:title=" ">
<path fill="none" stroke="#63b8ff" d="M753.84,-164C745.76,-164 737.58,-164 729.69,-164"/>
<polygon fill="#63b8ff" stroke="#63b8ff" points="753.64,-167.5 763.64,-164 753.64,-160.5 753.64,-167.5"/>
</a>
</g>
</g>
<!-- Node5 -->
<g id="Node000005" class="node">
<title>Node5</title>
<g id="a_Node000005"><a xlink:href="classxpath__ast__node.html#a68cace396dd4eeae67ecfcd34a3a8285" target="_top" xlink:title=" ">
<polygon fill="white" stroke="#666666" points="579.25,-137 470.25,-137 470.25,-105 579.25,-105 579.25,-137"/>
<text xml:space="preserve" text-anchor="start" x="478.25" y="-123.5" font-family="Helvetica,sans-Serif" font-size="10.00">xpath_ast_node::eval</text>
<text xml:space="preserve" text-anchor="middle" x="524.75" y="-111.5" font-family="Helvetica,sans-Serif" font-size="10.00">_node_set</text>
</a>
</g>
</g>
<!-- Node4&#45;&gt;Node5 -->
<g id="edge4_Node000004_Node000005" class="edge">
<title>Node4&#45;&gt;Node5</title>
<g id="a_edge4_Node000004_Node000005"><a xlink:title=" ">
<path fill="none" stroke="#63b8ff" d="M604.89,-144.37C596.43,-141.87 587.85,-139.34 579.62,-136.91"/>
<polygon fill="#63b8ff" stroke="#63b8ff" points="603.87,-147.72 614.45,-147.19 605.85,-141 603.87,-147.72"/>
</a>
</g>
</g>
<!-- Node5&#45;&gt;Node2 -->
<g id="edge9_Node000005_Node000002" class="edge">
<title>Node5&#45;&gt;Node2</title>
<g id="a_edge9_Node000005_Node000002"><a xlink:title=" ">
<path fill="none" stroke="#63b8ff" d="M591.08,-117.02C678.98,-111.67 833.68,-102.25 915.31,-97.28"/>
<polygon fill="#63b8ff" stroke="#63b8ff" points="590.94,-113.52 581.17,-117.63 591.36,-120.51 590.94,-113.52"/>
</a>
</g>
</g>
<!-- Node5&#45;&gt;Node6 -->
<g id="edge5_Node000005_Node000006" class="edge">
<title>Node5&#45;&gt;Node6</title>
<g id="a_edge5_Node000005_Node000006"><a xlink:title=" ">
<path fill="none" stroke="#63b8ff" d="M458.72,-109.46C371.11,-93.9 216.47,-66.45 132.09,-51.47"/>
<polygon fill="#63b8ff" stroke="#63b8ff" points="457.89,-112.86 468.35,-111.17 459.12,-105.97 457.89,-112.86"/>
</a>
</g>
</g>
<!-- Node7 -->
<g id="Node000007" class="node">
<title>Node7</title>
<g id="a_Node000007"><a xlink:href="classxpath__ast__node.html#abb6e4c529276eaf882233dbb6e04e111" target="_top" xlink:title=" ">
<polygon fill="white" stroke="#666666" points="144.25,-253 0,-253 0,-233 144.25,-233 144.25,-253"/>
<text xml:space="preserve" text-anchor="middle" x="72.12" y="-239.5" font-family="Helvetica,sans-Serif" font-size="10.00">xpath_ast_node::compare_rel</text>
</a>
</g>
</g>
<!-- Node5&#45;&gt;Node7 -->
<g id="edge7_Node000005_Node000007" class="edge">
<title>Node5&#45;&gt;Node7</title>
<g id="a_edge7_Node000005_Node000007"><a xlink:title=" ">
<path fill="none" stroke="#63b8ff" d="M458.83,-139.23C411.79,-152.38 346.64,-170.48 289.25,-186 228,-202.56 156.83,-221.22 113.4,-232.54"/>
<polygon fill="#63b8ff" stroke="#63b8ff" points="459.64,-142.64 468.32,-136.57 457.75,-135.9 459.64,-142.64"/>
</a>
</g>
</g>
<!-- Node5&#45;&gt;Node8 -->
<g id="edge10_Node000005_Node000008" class="edge">
<title>Node5&#45;&gt;Node8</title>
<g id="a_edge10_Node000005_Node000008"><a xlink:title=" ">
<path fill="none" stroke="#63b8ff" d="M483.29,-99.21C460.33,-86.85 432.07,-71.63 411.03,-60.31"/>
<polygon fill="#63b8ff" stroke="#63b8ff" points="481.63,-102.29 492.09,-103.95 484.95,-96.13 481.63,-102.29"/>
</a>
</g>
</g>
<!-- Node6&#45;&gt;Node2 -->
<g id="edge6_Node000006_Node000002" class="edge">
<title>Node6&#45;&gt;Node2</title>
<g id="a_edge6_Node000006_Node000002"><a xlink:title=" ">
<path fill="none" stroke="#63b8ff" d="M155.95,-39.79C205.09,-36.03 268.64,-30.47 325.25,-28 572.63,-17.23 635.95,-38.76 879.75,-82 891.38,-84.06 903.76,-86.69 915.49,-89.16"/>
<polygon fill="#63b8ff" stroke="#63b8ff" points="155.96,-36.28 146.25,-40.53 156.49,-43.26 155.96,-36.28"/>
</a>
</g>
</g>
<!-- Node7&#45;&gt;Node2 -->
<g id="edge8_Node000007_Node000002" class="edge">
<title>Node7&#45;&gt;Node2</title>
<g id="a_edge8_Node000007_Node000002"><a xlink:title=" ">
<path fill="none" stroke="#63b8ff" d="M119.42,-256.39C178.91,-272.38 285.61,-297 378.75,-297 673.38,-297 673.38,-297 673.38,-297 768.65,-297 803.67,-296.35 879.75,-239 925.11,-204.81 952.77,-140.34 963.77,-110.25"/>
<polygon fill="#63b8ff" stroke="#63b8ff" points="120.55,-253.07 109.99,-253.81 118.71,-259.82 120.55,-253.07"/>
</a>
</g>
</g>
<!-- Node8&#45;&gt;Node2 -->
<g id="edge12_Node000008_Node000002" class="edge">
<title>Node8&#45;&gt;Node2</title>
<g id="a_edge12_Node000008_Node000002"><a xlink:title=" ">
<path fill="none" stroke="#63b8ff" d="M445.89,-53.97C563.04,-67.12 807.13,-87.75 915.46,-93.53"/>
<polygon fill="#63b8ff" stroke="#63b8ff" points="446.46,-50.51 436.13,-52.85 445.66,-57.46 446.46,-50.51"/>
</a>
</g>
</g>
<!-- Node8&#45;&gt;Node6 -->
<g id="edge11_Node000008_Node000006" class="edge">
<title>Node8&#45;&gt;Node6</title>
<g id="a_edge11_Node000008_Node000006"><a xlink:title=" ">
<path fill="none" stroke="#63b8ff" d="M313.57,-43.36C263.95,-42.87 195.71,-42.2 144.6,-41.7"/>
<polygon fill="#63b8ff" stroke="#63b8ff" points="313.27,-46.86 323.3,-43.46 313.34,-39.86 313.27,-46.86"/>
</a>
</g>
</g>
<!-- Node8&#45;&gt;Node9 -->
<g id="edge13_Node000008_Node000009" class="edge">
<title>Node8&#45;&gt;Node9</title>
<g id="a_edge13_Node000008_Node000009"><a xlink:title=" ">
<path fill="none" stroke="#63b8ff" d="M343.3,-67.08C313.38,-90.06 272.05,-124.42 250.37,-144.75"/>
<polygon fill="#63b8ff" stroke="#63b8ff" points="345.13,-70.09 350.98,-61.26 340.9,-64.51 345.13,-70.09"/>
</a>
</g>
</g>
<!-- Node9&#45;&gt;Node2 -->
<g id="edge20_Node000009_Node000002" class="edge">
<title>Node9&#45;&gt;Node2</title>
<g id="a_edge20_Node000009_Node000002"><a xlink:title=" ">
<path fill="none" stroke="#63b8ff" d="M267.38,-183.23C319.37,-212.4 426.81,-259 523.75,-259 673.38,-259 673.38,-259 673.38,-259 769.02,-259 798.28,-248.1 879.75,-198 916.62,-175.33 948.29,-133.61 962,-110.14"/>
<polygon fill="#63b8ff" stroke="#63b8ff" points="269.16,-180.22 258.75,-178.23 265.65,-186.27 269.16,-180.22"/>
</a>
</g>
</g>
<!-- Node9&#45;&gt;Node6 -->
<g id="edge18_Node000009_Node000006" class="edge">
<title>Node9&#45;&gt;Node6</title>
<g id="a_edge18_Node000009_Node000006"><a xlink:title=" ">
<path fill="none" stroke="#63b8ff" d="M202.9,-137.95C167.91,-111.82 112.42,-70.36 86.85,-51.25"/>
<polygon fill="#63b8ff" stroke="#63b8ff" points="200.43,-140.48 210.54,-143.66 204.62,-134.87 200.43,-140.48"/>
</a>
</g>
</g>
<!-- Node9&#45;&gt;Node7 -->
<g id="edge19_Node000009_Node000007" class="edge">
<title>Node9&#45;&gt;Node7</title>
<g id="a_edge19_Node000009_Node000007"><a xlink:title=" ">
<path fill="none" stroke="#63b8ff" d="M200.55,-183.48C184.04,-194.11 163.54,-206.52 144.25,-216 131.57,-222.24 117.06,-227.97 104.47,-232.54"/>
<polygon fill="#63b8ff" stroke="#63b8ff" points="202.04,-186.68 208.5,-178.28 198.21,-180.82 202.04,-186.68"/>
</a>
</g>
</g>
<!-- Node9&#45;&gt;Node8 -->
<g id="edge21_Node000009_Node000008" class="edge">
<title>Node9&#45;&gt;Node8</title>
<g id="a_edge21_Node000009_Node000008"><a xlink:title=" ">
<path fill="none" stroke="#63b8ff" d="M271.16,-137.95C301.02,-115.02 342.26,-80.74 363.99,-60.39"/>
<polygon fill="#63b8ff" stroke="#63b8ff" points="269.35,-134.93 263.5,-143.76 273.58,-140.5 269.35,-134.93"/>
</a>
</g>
</g>
<!-- Node10 -->
<g id="Node000010" class="node">
<title>Node10</title>
<g id="a_Node000010"><a xlink:href="classxpath__ast__node.html#abf2d4b745493f63aebc1c89d9fde8eed" target="_top" xlink:title=" ">
<polygon fill="white" stroke="#666666" points="129.25,-141 15,-141 15,-109 129.25,-109 129.25,-141"/>
<text xml:space="preserve" text-anchor="start" x="23" y="-127.5" font-family="Helvetica,sans-Serif" font-size="10.00">xpath_ast_node::apply</text>
<text xml:space="preserve" text-anchor="middle" x="72.12" y="-115.5" font-family="Helvetica,sans-Serif" font-size="10.00">_predicate_number</text>
</a>
</g>
</g>
<!-- Node9&#45;&gt;Node10 -->
<g id="edge14_Node000009_Node000010" class="edge">
<title>Node9&#45;&gt;Node10</title>
<g id="a_edge14_Node000009_Node000010"><a xlink:title=" ">
<path fill="none" stroke="#63b8ff" d="M168.64,-146.41C155.73,-143.51 142.27,-140.5 129.66,-137.67"/>
<polygon fill="#63b8ff" stroke="#63b8ff" points="167.82,-149.81 178.34,-148.58 169.35,-142.98 167.82,-149.81"/>
</a>
</g>
</g>
<!-- Node11 -->
<g id="Node000011" class="node">
<title>Node11</title>
<g id="a_Node000011"><a xlink:href="classxpath__ast__node.html#a8cedd7e15623b9fa431788b8843f1463" target="_top" xlink:title=" ">
<polygon fill="white" stroke="#666666" points="136,-207 8.25,-207 8.25,-175 136,-175 136,-207"/>
<text xml:space="preserve" text-anchor="start" x="16.25" y="-193.5" font-family="Helvetica,sans-Serif" font-size="10.00">xpath_ast_node::apply</text>
<text xml:space="preserve" text-anchor="middle" x="72.12" y="-181.5" font-family="Helvetica,sans-Serif" font-size="10.00">_predicate_number_const</text>
</a>
</g>
</g>
<!-- Node9&#45;&gt;Node11 -->
<g id="edge16_Node000009_Node000011" class="edge">
<title>Node9&#45;&gt;Node11</title>
<g id="a_edge16_Node000009_Node000011"><a xlink:title=" ">
<path fill="none" stroke="#63b8ff" d="M168.83,-173.13C158.12,-175.13 147.03,-177.2 136.36,-179.19"/>
<polygon fill="#63b8ff" stroke="#63b8ff" points="169.14,-176.63 178.33,-171.35 167.86,-169.75 169.14,-176.63"/>
</a>
</g>
</g>
<!-- Node10&#45;&gt;Node4 -->
<g id="edge15_Node000010_Node000004" class="edge">
<title>Node10&#45;&gt;Node4</title>
<g id="a_edge15_Node000010_Node000004"><a xlink:title=" ">
<path fill="none" stroke="#63b8ff" d="M140.93,-128.06C183.53,-130.08 239.62,-132.92 289.25,-136 404.94,-143.18 540.18,-153.56 614.75,-159.45"/>
<polygon fill="#63b8ff" stroke="#63b8ff" points="141.24,-124.57 131.08,-127.6 140.91,-131.57 141.24,-124.57"/>
</a>
</g>
</g>
<!-- Node11&#45;&gt;Node4 -->
<g id="edge17_Node000011_Node000004" class="edge">
<title>Node11&#45;&gt;Node4</title>
<g id="a_edge17_Node000011_Node000004"><a xlink:title=" ">
<path fill="none" stroke="#63b8ff" d="M147.77,-192.44C246.67,-193.62 426.46,-193.22 579.25,-179 590.87,-177.92 603.24,-176.26 615.02,-174.43"/>
<polygon fill="#63b8ff" stroke="#63b8ff" points="147.97,-188.95 137.92,-192.32 147.88,-195.95 147.97,-188.95"/>
</a>
</g>
</g>
</g>
</svg>
