<?xml version="1.0" encoding="UTF-8" standalone="no"?>
<!DOCTYPE svg PUBLIC "-//W3C//DTD SVG 1.1//EN"
 "http://www.w3.org/Graphics/SVG/1.1/DTD/svg11.dtd">
<!-- Generated by graphviz version 14.1.2 (20260124.0452)
 -->
<!-- Title: GEFigure Pages: 1 -->
<!--zoomable 134 -->

<svg id="main" version="1.1" xmlns="http://www.w3.org/2000/svg" xmlns:xlink="http://www.w3.org/1999/xlink" xml:space="preserve" onload="init(evt)">

<style type="text/css"><![CDATA[
.node, .edge {opacity: 0.7;}
.node.selected, .edge.selected {opacity: 1;}
.edge:hover path { stroke: red; }
.edge:hover polygon { stroke: red; fill: red; }
]]></style>

<defs>
  <circle id="rim" cx="0" cy="0" r="7"/>
  <circle id="rim2" cx="0" cy="0" r="3.5"/>
  <g id="zoomPlus">
    <use xlink:href="#rim" fill="#404040"><set attributeName="fill" to="#808080" begin="zoomplus.mouseover" end="zoomplus.mouseout"/></use>
    <path d="M-4,0h8M0,-4v8" fill="none" stroke="white" stroke-width="1.5" pointer-events="none"/>
  </g>
  <g id="zoomMin">
    <use xlink:href="#rim" fill="#404040"><set attributeName="fill" to="#808080" begin="zoomminus.mouseover" end="zoomminus.mouseout"/></use>
    <path d="M-4,0h8" fill="none" stroke="white" stroke-width="1.5" pointer-events="none"/>
  </g>
  <g id="arrowUp" transform="translate(30 24)">
    <use xlink:href="#rim"/>
    <path pointer-events="none" fill="none" stroke="white" stroke-width="1.5" d="M0,-3.0v7 M-2.5,-0.5L0,-3.0L2.5,-0.5"/>
  </g>
  <g id="arrowRight" transform="rotate(90) translate(36 -43)">
    <use xlink:href="#rim"/>
    <path pointer-events="none" fill="none" stroke="white" stroke-width="1.5" d="M0,-3.0v7 M-2.5,-0.5L0,-3.0L2.5,-0.5"/>
  </g>
  <g id="arrowDown" transform="rotate(180) translate(-30 -48)">
    <use xlink:href="#rim"/>
    <path pointer-events="none" fill="none" stroke="white" stroke-width="1.5" d="M0,-3.0v7 M-2.5,-0.5L0,-3.0L2.5,-0.5"/>
  </g>
  <g id="arrowLeft" transform="rotate(270) translate(-36 17)">
    <use xlink:href="#rim"/>
    <path pointer-events="none" fill="none" stroke="white" stroke-width="1.5" d="M0,-3.0v7 M-2.5,-0.5L0,-3.0L2.5,-0.5"/>
  </g>
  <g id="resetDef">
    <use xlink:href="#rim2" fill="#404040"><set attributeName="fill" to="#808080" begin="reset.mouseover" end="reset.mouseout"/></use>
  </g>
</defs>
<script type="application/ecmascript">
var viewWidth = 558;
var viewHeight = 134;
var sectionId = 'dynsection-1';
</script>
<script type="application/ecmascript" xlink:href="svg.min.js"/>
<svg id="graph" class="graph">
<g id="viewport">
<title>GEFigure</title>
<!-- Node1 -->
<g id="Node000001" class="node">
<title>Node1</title>
<g id="a_Node000001"><a xlink:title="Clase que describe una figura formada por una malla de vértices.">
<polygon fill="#999999" stroke="#666666" points="272,-20 214.75,-20 214.75,0 272,0 272,-20"/>
<text xml:space="preserve" text-anchor="middle" x="243.38" y="-6.5" font-family="Helvetica,sans-Serif" font-size="10.00">GEFigure</text>
</a>
</g>
</g>
<!-- Node2 -->
<g id="Node000002" class="node">
<title>Node2</title>
<g id="a_Node000002"><a xlink:href="struct_g_e_material.html" target="_top" xlink:title="Estructura que describe las propiedades de un material.">
<polygon fill="white" stroke="#666666" points="64.75,-126 0,-126 0,-106 64.75,-106 64.75,-126"/>
<text xml:space="preserve" text-anchor="middle" x="32.38" y="-112.5" font-family="Helvetica,sans-Serif" font-size="10.00">GEMaterial</text>
</a>
</g>
</g>
<!-- Node2&#45;&gt;Node1 -->
<g id="edge1_Node000001_Node000002" class="edge">
<title>Node2&#45;&gt;Node1</title>
<g id="a_edge1_Node000001_Node000002"><a xlink:title=" ">
<path fill="none" stroke="#9a32cd" stroke-dasharray="5,2" d="M40.45,-95.12C48.81,-77.2 63.65,-51.62 84.88,-38 105.84,-24.54 174.63,-16.73 214.36,-13.23"/>
<polygon fill="#9a32cd" stroke="#9a32cd" points="37.28,-93.64 36.49,-104.21 43.69,-96.44 37.28,-93.64"/>
</a>
</g>
<text xml:space="preserve" text-anchor="start" x="87.88" y="-59.5" font-family="Helvetica,sans-Serif" font-size="10.00" fill="grey">material</text>
</g>
<!-- Node3 -->
<g id="Node000003" class="node">
<title>Node3</title>
<g id="a_Node000003"><a xlink:href="struct_g_e_light.html" target="_top" xlink:title="Estructura que describe una fuente de luz direccional.">
<polygon fill="white" stroke="#666666" points="134,-126 82.75,-126 82.75,-106 134,-106 134,-126"/>
<text xml:space="preserve" text-anchor="middle" x="108.38" y="-112.5" font-family="Helvetica,sans-Serif" font-size="10.00">GELight</text>
</a>
</g>
</g>
<!-- Node3&#45;&gt;Node1 -->
<g id="edge2_Node000001_Node000003" class="edge">
<title>Node3&#45;&gt;Node1</title>
<g id="a_edge2_Node000001_Node000003"><a xlink:title=" ">
<path fill="none" stroke="#9a32cd" stroke-dasharray="5,2" d="M121.24,-96.74C134.07,-79.64 155.16,-54.34 178.38,-38 189.27,-30.33 202.67,-24.3 214.47,-19.9"/>
<polygon fill="#9a32cd" stroke="#9a32cd" points="118.64,-94.36 115.58,-104.5 124.3,-98.48 118.64,-94.36"/>
</a>
</g>
<text xml:space="preserve" text-anchor="start" x="181.38" y="-59.5" font-family="Helvetica,sans-Serif" font-size="10.00" fill="grey">light</text>
</g>
<!-- Node4 -->
<g id="Node000004" class="node">
<title>Node4</title>
<g id="a_Node000004"><a xlink:href="class_g_e_vertex_buffer.html" target="_top" xlink:title="Clase que describe un buffer de vértices.">
<polygon fill="white" stroke="#666666" points="235.12,-126 151.62,-126 151.62,-106 235.12,-106 235.12,-126"/>
<text xml:space="preserve" text-anchor="middle" x="193.38" y="-112.5" font-family="Helvetica,sans-Serif" font-size="10.00">GEVertexBuffer</text>
</a>
</g>
</g>
<!-- Node4&#45;&gt;Node1 -->
<g id="edge3_Node000001_Node000004" class="edge">
<title>Node4&#45;&gt;Node1</title>
<g id="a_edge3_Node000001_Node000004"><a xlink:title=" ">
<path fill="none" stroke="#9a32cd" stroke-dasharray="5,2" d="M202.78,-95.44C213.55,-73.03 230.77,-37.22 238.88,-20.36"/>
<polygon fill="#9a32cd" stroke="#9a32cd" points="199.65,-93.88 198.47,-104.41 205.96,-96.91 199.65,-93.88"/>
</a>
</g>
<text xml:space="preserve" text-anchor="start" x="232.97" y="-59.5" font-family="Helvetica,sans-Serif" font-size="10.00" fill="grey">vbo</text>
</g>
<!-- Node5 -->
<g id="Node000005" class="node">
<title>Node5</title>
<g id="a_Node000005"><a xlink:href="class_g_e_index_buffer.html" target="_top" xlink:title="Clase que describe un buffer de índices.">
<polygon fill="white" stroke="#666666" points="333.25,-126 253.5,-126 253.5,-106 333.25,-106 333.25,-126"/>
<text xml:space="preserve" text-anchor="middle" x="293.38" y="-112.5" font-family="Helvetica,sans-Serif" font-size="10.00">GEIndexBuffer</text>
</a>
</g>
</g>
<!-- Node5&#45;&gt;Node1 -->
<g id="edge4_Node000001_Node000005" class="edge">
<title>Node5&#45;&gt;Node1</title>
<g id="a_edge4_Node000001_Node000005"><a xlink:title=" ">
<path fill="none" stroke="#9a32cd" stroke-dasharray="5,2" d="M283.97,-95.44C273.2,-73.03 255.98,-37.22 247.87,-20.36"/>
<polygon fill="#9a32cd" stroke="#9a32cd" points="280.79,-96.91 288.28,-104.41 287.1,-93.88 280.79,-96.91"/>
</a>
</g>
<text xml:space="preserve" text-anchor="start" x="282.97" y="-59.5" font-family="Helvetica,sans-Serif" font-size="10.00" fill="grey">ibo</text>
</g>
<!-- Node6 -->
<g id="Node000006" class="node">
<title>Node6</title>
<g id="a_Node000006"><a xlink:href="class_g_e_uniform_buffer.html" target="_top" xlink:title="Clase que describe un conjunto de buffers para almacenar variables uniformes.">
<polygon fill="white" stroke="#666666" points="441.5,-126 351.25,-126 351.25,-106 441.5,-106 441.5,-126"/>
<text xml:space="preserve" text-anchor="middle" x="396.38" y="-112.5" font-family="Helvetica,sans-Serif" font-size="10.00">GEUniformBuffer</text>
</a>
</g>
</g>
<!-- Node6&#45;&gt;Node1 -->
<g id="edge5_Node000001_Node000006" class="edge">
<title>Node6&#45;&gt;Node1</title>
<g id="a_edge5_Node000001_Node000006"><a xlink:title=" ">
<path fill="none" stroke="#9a32cd" stroke-dasharray="5,2" d="M378.66,-98.12C360.51,-81.43 330.98,-55.85 302.38,-38 291.48,-31.2 278.59,-25.11 267.64,-20.43"/>
<polygon fill="#9a32cd" stroke="#9a32cd" points="375.8,-100.24 385.49,-104.5 380.57,-95.12 375.8,-100.24"/>
</a>
</g>
<text xml:space="preserve" text-anchor="start" x="369.56" y="-75.5" font-family="Helvetica,sans-Serif" font-size="10.00" fill="grey">lightBuffer</text>
<text xml:space="preserve" text-anchor="start" x="369.56" y="-59.5" font-family="Helvetica,sans-Serif" font-size="10.00" fill="grey">materialBuffer</text>
<text xml:space="preserve" text-anchor="start" x="369.56" y="-43.5" font-family="Helvetica,sans-Serif" font-size="10.00" fill="grey">transformBuffer</text>
</g>
<!-- Node7 -->
<g id="Node000007" class="node">
<title>Node7</title>
<g id="a_Node000007"><a xlink:href="class_g_e_descriptor_set.html" target="_top" xlink:title="Clase que describe un conjunto de descriptores.">
<polygon fill="white" stroke="#666666" points="549.5,-126 459.25,-126 459.25,-106 549.5,-106 549.5,-126"/>
<text xml:space="preserve" text-anchor="middle" x="504.38" y="-112.5" font-family="Helvetica,sans-Serif" font-size="10.00">GEDescriptorSet</text>
</a>
</g>
</g>
<!-- Node7&#45;&gt;Node1 -->
<g id="edge6_Node000001_Node000007" class="edge">
<title>Node7&#45;&gt;Node1</title>
<g id="a_edge6_Node000001_Node000007"><a xlink:title=" ">
<path fill="none" stroke="#9a32cd" stroke-dasharray="5,2" d="M494.73,-95.71C484.58,-77.59 466.82,-51.35 443.38,-38 414.75,-21.71 320.31,-14.78 272.15,-12.25"/>
<polygon fill="#9a32cd" stroke="#9a32cd" points="491.57,-97.21 499.34,-104.41 497.75,-93.93 491.57,-97.21"/>
</a>
</g>
<text xml:space="preserve" text-anchor="start" x="492.34" y="-59.5" font-family="Helvetica,sans-Serif" font-size="10.00" fill="grey">dset</text>
</g>
</g>
</svg>

<g id="navigator" transform="translate(0 0)" fill="#404254">
  <rect fill="#f2f5e9" fill-opacity="0.5" stroke="#606060" stroke-width=".5" x="0" y="0" width="60" height="60"/>
  <use id="zoomplus" xlink:href="#zoomPlus" x="17" y="9" onmousedown="handleZoom(evt,'in')"/>
  <use id="zoomminus" xlink:href="#zoomMin" x="42" y="9" onmousedown="handleZoom(evt,'out')"/>
  <use id="reset" xlink:href="#resetDef" x="30" y="36" onmousedown="handleReset()"/>
   <use id="arrowup" xlink:href="#arrowUp" x="0" y="0" onmousedown="handlePan(0,-1)"/>
  <use id="arrowright" xlink:href="#arrowRight" x="0" y="0" onmousedown="handlePan(1,0)"/>
  <use id="arrowdown" xlink:href="#arrowDown" x="0" y="0" onmousedown="handlePan(0,1)"/>
  <use id="arrowleft" xlink:href="#arrowLeft" x="0" y="0" onmousedown="handlePan(-1,0)"/>
</g>
<svg viewBox="0 0 15 15" width="100%" height="30px" preserveAspectRatio="xMaxYMin meet">
 <g id="arrow_out" transform="scale(0.3 0.3)">
  <a xlink:href="class_g_e_figure__coll__graph_org.svg" target="_base">
   <rect id="button" ry="5" rx="5" y="6" x="6" height="38" width="38"
        fill="#f2f5e9" fill-opacity="0.5" stroke="#606060" stroke-width="1.0"/>
   <path id="arrow"
     d="M 11.500037,31.436501 C 11.940474,20.09759 22.043105,11.32322 32.158766,21.979434 L 37.068811,17.246167 C 37.068811,17.246167 37.088388,32 37.088388,32 L 22.160133,31.978069 C 22.160133,31.978069 26.997745,27.140456 26.997745,27.140456 C 18.528582,18.264221 13.291696,25.230495 11.500037,31.436501 z"
     style="fill:#404040;"/>
  </a>
 </g>
</svg>

<style type='text/css'>
<![CDATA[
[data-mouse-over-selected='false'] { opacity: 0.7; }
[data-mouse-over-selected='true']  { opacity: 1.0; }
]]>
</style>
<script type="application/ecmascript"><![CDATA[
document.addEventListener('DOMContentLoaded', (event) => {
  highlightEdges();
  highlightAdjacentNodes();
});
]]></script>
</svg>
