<?xml version="1.0" encoding="UTF-8" standalone="no"?>
<!DOCTYPE svg PUBLIC "-//W3C//DTD SVG 1.1//EN"
 "http://www.w3.org/Graphics/SVG/1.1/DTD/svg11.dtd">
<!-- Generated by graphviz version 14.1.2 (20260124.0452)
 -->
<!-- Title: pugi::xpath_query::operator= Pages: 1 -->
<svg width="243pt" height="458pt"
 viewBox="0.00 0.00 243.00 458.00" xmlns="http://www.w3.org/2000/svg" xmlns:xlink="http://www.w3.org/1999/xlink">
<g id="graph0" class="graph" transform="scale(1 1) rotate(0) translate(4 454)">
<title>pugi::xpath_query::operator=</title>
<!-- Node1 -->
<g id="Node000001" class="node">
<title>Node1</title>
<g id="a_Node000001"><a xlink:title=" ">
<polygon fill="#999999" stroke="#666666" points="99.25,-250 0,-250 0,-218 99.25,-218 99.25,-250"/>
<text xml:space="preserve" text-anchor="start" x="8" y="-236.5" font-family="Helvetica,sans-Serif" font-size="10.00">pugi::xpath_query::</text>
<text xml:space="preserve" text-anchor="middle" x="49.62" y="-224.5" font-family="Helvetica,sans-Serif" font-size="10.00">operator=</text>
</a>
</g>
</g>
<!-- Node1&#45;&gt;Node1 -->
<g id="edge7_Node000001_Node000001" class="edge">
<title>Node1&#45;&gt;Node1</title>
<g id="a_edge7_Node000001_Node000001"><a xlink:title=" ">
<path fill="none" stroke="#63b8ff" d="M25.48,-250.44C20.97,-259.58 29.02,-268 49.62,-268 60.89,-268 68.41,-265.48 72.16,-261.71"/>
<polygon fill="#63b8ff" stroke="#63b8ff" points="75.61,-262.34 73.56,-251.94 68.68,-261.35 75.61,-262.34"/>
</a>
</g>
</g>
<!-- Node2 -->
<g id="Node000002" class="node">
<title>Node2</title>
<g id="a_Node000002"><a xlink:href="classpugi_1_1xpath__query.html#a37a4e364ecf350d767c0a3b157afb5b1" target="_top" xlink:title=" ">
<polygon fill="white" stroke="#666666" points="234.5,-450 135.25,-450 135.25,-418 234.5,-418 234.5,-450"/>
<text xml:space="preserve" text-anchor="start" x="143.25" y="-436.5" font-family="Helvetica,sans-Serif" font-size="10.00">pugi::xpath_query::</text>
<text xml:space="preserve" text-anchor="middle" x="184.88" y="-424.5" font-family="Helvetica,sans-Serif" font-size="10.00">evaluate_boolean</text>
</a>
</g>
</g>
<!-- Node1&#45;&gt;Node2 -->
<g id="edge1_Node000001_Node000002" class="edge">
<title>Node1&#45;&gt;Node2</title>
<g id="a_edge1_Node000001_Node000002"><a xlink:title=" ">
<path fill="none" stroke="#63b8ff" d="M54.71,-250.27C63.86,-283.83 88.94,-361.54 135.25,-409 135.85,-409.61 136.46,-410.21 137.09,-410.8"/>
<polygon fill="#63b8ff" stroke="#63b8ff" points="134.8,-413.45 144.85,-416.84 139.11,-407.93 134.8,-413.45"/>
</a>
</g>
</g>
<!-- Node3 -->
<g id="Node000003" class="node">
<title>Node3</title>
<g id="a_Node000003"><a xlink:href="classpugi_1_1xpath__query.html#a2808124d59c31fc41d5650956d85d139" target="_top" xlink:title=" ">
<polygon fill="white" stroke="#666666" points="234.5,-400 135.25,-400 135.25,-368 234.5,-368 234.5,-400"/>
<text xml:space="preserve" text-anchor="start" x="143.25" y="-386.5" font-family="Helvetica,sans-Serif" font-size="10.00">pugi::xpath_query::</text>
<text xml:space="preserve" text-anchor="middle" x="184.88" y="-374.5" font-family="Helvetica,sans-Serif" font-size="10.00">evaluate_node</text>
</a>
</g>
</g>
<!-- Node1&#45;&gt;Node3 -->
<g id="edge2_Node000001_Node000003" class="edge">
<title>Node1&#45;&gt;Node3</title>
<g id="a_edge2_Node000001_Node000003"><a xlink:title=" ">
<path fill="none" stroke="#63b8ff" d="M58.17,-250.09C70.93,-275.88 98.97,-326.84 135.25,-359 136.03,-359.69 136.83,-360.36 137.64,-361.03"/>
<polygon fill="#63b8ff" stroke="#63b8ff" points="135.56,-363.84 145.75,-366.73 139.59,-358.11 135.56,-363.84"/>
</a>
</g>
</g>
<!-- Node4 -->
<g id="Node000004" class="node">
<title>Node4</title>
<g id="a_Node000004"><a xlink:href="classpugi_1_1xpath__query.html#a5043f9148553f25c017bfd815a509bd8" target="_top" xlink:title=" ">
<polygon fill="white" stroke="#666666" points="234.5,-350 135.25,-350 135.25,-318 234.5,-318 234.5,-350"/>
<text xml:space="preserve" text-anchor="start" x="143.25" y="-336.5" font-family="Helvetica,sans-Serif" font-size="10.00">pugi::xpath_query::</text>
<text xml:space="preserve" text-anchor="middle" x="184.88" y="-324.5" font-family="Helvetica,sans-Serif" font-size="10.00">evaluate_node_set</text>
</a>
</g>
</g>
<!-- Node1&#45;&gt;Node4 -->
<g id="edge3_Node000001_Node000004" class="edge">
<title>Node1&#45;&gt;Node4</title>
<g id="a_edge3_Node000001_Node000004"><a xlink:title=" ">
<path fill="none" stroke="#63b8ff" d="M66.46,-250.25C82.75,-266.4 109.33,-291.26 135.25,-309 136.62,-309.94 138.03,-310.86 139.47,-311.78"/>
<polygon fill="#63b8ff" stroke="#63b8ff" points="137.55,-314.71 147.94,-316.79 141.12,-308.69 137.55,-314.71"/>
</a>
</g>
</g>
<!-- Node5 -->
<g id="Node000005" class="node">
<title>Node5</title>
<g id="a_Node000005"><a xlink:href="classpugi_1_1xpath__query.html#ab644fecda1ceac6591bea63468c5ef4a" target="_top" xlink:title=" ">
<polygon fill="white" stroke="#666666" points="234.5,-300 135.25,-300 135.25,-268 234.5,-268 234.5,-300"/>
<text xml:space="preserve" text-anchor="start" x="143.25" y="-286.5" font-family="Helvetica,sans-Serif" font-size="10.00">pugi::xpath_query::</text>
<text xml:space="preserve" text-anchor="middle" x="184.88" y="-274.5" font-family="Helvetica,sans-Serif" font-size="10.00">evaluate_number</text>
</a>
</g>
</g>
<!-- Node1&#45;&gt;Node5 -->
<g id="edge4_Node000001_Node000005" class="edge">
<title>Node1&#45;&gt;Node5</title>
<g id="a_edge4_Node000001_Node000005"><a xlink:title=" ">
<path fill="none" stroke="#63b8ff" d="M94.26,-250.37C105.53,-254.6 117.8,-259.21 129.55,-263.62"/>
<polygon fill="#63b8ff" stroke="#63b8ff" points="128.14,-266.82 138.73,-267.06 130.6,-260.27 128.14,-266.82"/>
</a>
</g>
</g>
<!-- Node6 -->
<g id="Node000006" class="node">
<title>Node6</title>
<g id="a_Node000006"><a xlink:href="classpugi_1_1xpath__query.html#affdae688f5475eebe37023adf10a9f2c" target="_top" xlink:title=" ">
<polygon fill="white" stroke="#666666" points="234.5,-250 135.25,-250 135.25,-218 234.5,-218 234.5,-250"/>
<text xml:space="preserve" text-anchor="start" x="143.25" y="-236.5" font-family="Helvetica,sans-Serif" font-size="10.00">pugi::xpath_query::</text>
<text xml:space="preserve" text-anchor="middle" x="184.88" y="-224.5" font-family="Helvetica,sans-Serif" font-size="10.00">evaluate_string</text>
</a>
</g>
</g>
<!-- Node1&#45;&gt;Node6 -->
<g id="edge5_Node000001_Node000006" class="edge">
<title>Node1&#45;&gt;Node6</title>
<g id="a_edge5_Node000001_Node000006"><a xlink:title=" ">
<path fill="none" stroke="#63b8ff" d="M99.49,-234C107.36,-234 115.59,-234 123.7,-234"/>
<polygon fill="#63b8ff" stroke="#63b8ff" points="123.51,-237.5 133.51,-234 123.51,-230.5 123.51,-237.5"/>
</a>
</g>
</g>
<!-- Node7 -->
<g id="Node000007" class="node">
<title>Node7</title>
<g id="a_Node000007"><a xlink:href="classpugi_1_1xpath__query.html#a1467068f24ec6dedb0147e509a2c25c4" target="_top" xlink:title=" ">
<polygon fill="white" stroke="#666666" points="234.5,-200 135.25,-200 135.25,-168 234.5,-168 234.5,-200"/>
<text xml:space="preserve" text-anchor="start" x="143.25" y="-186.5" font-family="Helvetica,sans-Serif" font-size="10.00">pugi::xpath_query::</text>
<text xml:space="preserve" text-anchor="middle" x="184.88" y="-174.5" font-family="Helvetica,sans-Serif" font-size="10.00">operator!</text>
</a>
</g>
</g>
<!-- Node1&#45;&gt;Node7 -->
<g id="edge6_Node000001_Node000007" class="edge">
<title>Node1&#45;&gt;Node7</title>
<g id="a_edge6_Node000001_Node000007"><a xlink:title=" ">
<path fill="none" stroke="#63b8ff" d="M94.26,-217.63C105.53,-213.4 117.8,-208.79 129.55,-204.38"/>
<polygon fill="#63b8ff" stroke="#63b8ff" points="130.6,-207.73 138.73,-200.94 128.14,-201.18 130.6,-207.73"/>
</a>
</g>
</g>
<!-- Node8 -->
<g id="Node000008" class="node">
<title>Node8</title>
<g id="a_Node000008"><a xlink:href="classpugi_1_1xpath__query.html#ac3186c9619a5ffba8c4e4adc240c2899" target="_top" xlink:title=" ">
<polygon fill="white" stroke="#666666" points="234.5,-150 135.25,-150 135.25,-118 234.5,-118 234.5,-150"/>
<text xml:space="preserve" text-anchor="start" x="143.25" y="-136.5" font-family="Helvetica,sans-Serif" font-size="10.00">pugi::xpath_query::</text>
<text xml:space="preserve" text-anchor="middle" x="184.88" y="-124.5" font-family="Helvetica,sans-Serif" font-size="10.00">result</text>
</a>
</g>
</g>
<!-- Node1&#45;&gt;Node8 -->
<g id="edge8_Node000001_Node000008" class="edge">
<title>Node1&#45;&gt;Node8</title>
<g id="a_edge8_Node000001_Node000008"><a xlink:title=" ">
<path fill="none" stroke="#63b8ff" d="M66.46,-217.75C82.75,-201.6 109.33,-176.74 135.25,-159 136.62,-158.06 138.03,-157.14 139.47,-156.22"/>
<polygon fill="#63b8ff" stroke="#63b8ff" points="141.12,-159.31 147.94,-151.21 137.55,-153.29 141.12,-159.31"/>
</a>
</g>
</g>
<!-- Node9 -->
<g id="Node000009" class="node">
<title>Node9</title>
<g id="a_Node000009"><a xlink:href="classpugi_1_1xpath__query.html#a49b400c2adedd8f4d698c621667cd0d8" target="_top" xlink:title=" ">
<polygon fill="white" stroke="#666666" points="234.5,-100 135.25,-100 135.25,-68 234.5,-68 234.5,-100"/>
<text xml:space="preserve" text-anchor="start" x="143.25" y="-86.5" font-family="Helvetica,sans-Serif" font-size="10.00">pugi::xpath_query::</text>
<text xml:space="preserve" text-anchor="middle" x="184.88" y="-74.5" font-family="Helvetica,sans-Serif" font-size="10.00">return_type</text>
</a>
</g>
</g>
<!-- Node1&#45;&gt;Node9 -->
<g id="edge9_Node000001_Node000009" class="edge">
<title>Node1&#45;&gt;Node9</title>
<g id="a_edge9_Node000001_Node000009"><a xlink:title=" ">
<path fill="none" stroke="#63b8ff" d="M58.17,-217.91C70.93,-192.12 98.97,-141.16 135.25,-109 136.03,-108.31 136.83,-107.64 137.64,-106.97"/>
<polygon fill="#63b8ff" stroke="#63b8ff" points="139.59,-109.89 145.75,-101.27 135.56,-104.16 139.59,-109.89"/>
</a>
</g>
</g>
<!-- Node10 -->
<g id="Node000010" class="node">
<title>Node10</title>
<g id="a_Node000010"><a xlink:href="classpugi_1_1xpath__query.html#ac380b5908733799ae2688672c1b88fd7" target="_top" xlink:title=" ">
<polygon fill="white" stroke="#666666" points="234.5,-32 135.25,-32 135.25,0 234.5,0 234.5,-32"/>
<text xml:space="preserve" text-anchor="start" x="143.25" y="-18.5" font-family="Helvetica,sans-Serif" font-size="10.00">pugi::xpath_query::</text>
<text xml:space="preserve" text-anchor="middle" x="184.88" y="-6.5" font-family="Helvetica,sans-Serif" font-size="10.00">xpath_query</text>
</a>
</g>
</g>
<!-- Node1&#45;&gt;Node10 -->
<g id="edge10_Node000001_Node000010" class="edge">
<title>Node1&#45;&gt;Node10</title>
<g id="a_edge10_Node000001_Node000010"><a xlink:title=" ">
<path fill="none" stroke="#63b8ff" d="M56.07,-217.61C67.35,-185.15 95.6,-111.31 135.25,-59 140.4,-52.21 146.75,-45.68 153.14,-39.84"/>
<polygon fill="#63b8ff" stroke="#63b8ff" points="155.36,-42.55 160.63,-33.36 150.78,-37.26 155.36,-42.55"/>
</a>
</g>
</g>
<!-- Node10&#45;&gt;Node10 -->
<g id="edge11_Node000010_Node000010" class="edge">
<title>Node10&#45;&gt;Node10</title>
<g id="a_edge11_Node000010_Node000010"><a xlink:title=" ">
<path fill="none" stroke="#63b8ff" d="M160.73,-32.44C156.22,-41.58 164.27,-50 184.88,-50 196.14,-50 203.66,-47.48 207.41,-43.71"/>
<polygon fill="#63b8ff" stroke="#63b8ff" points="210.86,-44.34 208.81,-33.94 203.93,-43.35 210.86,-44.34"/>
</a>
</g>
</g>
</g>
</svg>
