<?xml version="1.0" encoding="UTF-8" standalone="no"?>
<!DOCTYPE svg PUBLIC "-//W3C//DTD SVG 1.1//EN"
 "http://www.w3.org/Graphics/SVG/1.1/DTD/svg11.dtd">
<!-- Generated by graphviz version 14.1.2 (20260124.0452)
 -->
<!-- Title: xml_buffered_writer::flush Pages: 1 -->
<svg width="539pt" height="116pt"
 viewBox="0.00 0.00 539.00 116.00" xmlns="http://www.w3.org/2000/svg" xmlns:xlink="http://www.w3.org/1999/xlink">
<g id="graph0" class="graph" transform="scale(1 1) rotate(0) translate(4 112)">
<title>xml_buffered_writer::flush</title>
<!-- Node1 -->
<g id="Node000001" class="node">
<title>Node1</title>
<g id="a_Node000001"><a xlink:title=" ">
<polygon fill="#999999" stroke="#666666" points="100.75,-45 0,-45 0,-13 100.75,-13 100.75,-45"/>
<text xml:space="preserve" text-anchor="start" x="8" y="-31.5" font-family="Helvetica,sans-Serif" font-size="10.00">xml_buffered_writer</text>
<text xml:space="preserve" text-anchor="middle" x="50.38" y="-19.5" font-family="Helvetica,sans-Serif" font-size="10.00">::flush</text>
</a>
</g>
</g>
<!-- Node2 -->
<g id="Node000002" class="node">
<title>Node2</title>
<g id="a_Node000002"><a xlink:href="pugixml_8cpp.html#a1c1e23f1d5e2345198b3a7cb72b9c76b" target="_top" xlink:title=" ">
<polygon fill="white" stroke="#666666" points="257.38,-58 147.62,-58 147.62,-38 257.38,-38 257.38,-58"/>
<text xml:space="preserve" text-anchor="middle" x="202.5" y="-44.5" font-family="Helvetica,sans-Serif" font-size="10.00">convert_buffer_output</text>
</a>
</g>
</g>
<!-- Node1&#45;&gt;Node2 -->
<g id="edge1_Node000001_Node000002" class="edge">
<title>Node1&#45;&gt;Node2</title>
<g id="a_edge1_Node000001_Node000002"><a xlink:title=" ">
<path fill="none" stroke="#63b8ff" d="M100.95,-35.27C112.21,-36.7 124.34,-38.23 136.14,-39.73"/>
<polygon fill="#63b8ff" stroke="#63b8ff" points="135.46,-43.17 145.82,-40.95 136.34,-36.23 135.46,-43.17"/>
</a>
</g>
</g>
<!-- Node5 -->
<g id="Node000005" class="node">
<title>Node5</title>
<g id="a_Node000005"><a xlink:href="pugixml_8cpp.html#a9ffc09483eb40cb8f51996b8d25cd099" target="_top" xlink:title=" ">
<polygon fill="white" stroke="#666666" points="268.25,-20 136.75,-20 136.75,0 268.25,0 268.25,-20"/>
<text xml:space="preserve" text-anchor="middle" x="202.5" y="-6.5" font-family="Helvetica,sans-Serif" font-size="10.00">get_write_native_encoding</text>
</a>
</g>
</g>
<!-- Node1&#45;&gt;Node5 -->
<g id="edge4_Node000001_Node000005" class="edge">
<title>Node1&#45;&gt;Node5</title>
<g id="a_edge4_Node000001_Node000005"><a xlink:title=" ">
<path fill="none" stroke="#63b8ff" d="M100.95,-22.73C108.76,-21.74 116.98,-20.7 125.23,-19.65"/>
<polygon fill="#63b8ff" stroke="#63b8ff" points="125.47,-23.15 134.95,-18.42 124.59,-16.21 125.47,-23.15"/>
</a>
</g>
</g>
<!-- Node3 -->
<g id="Node000003" class="node">
<title>Node3</title>
<g id="a_Node000003"><a xlink:href="pugixml_8cpp.html#a81839da37a7d3dda082dd86acd0e5b5b" target="_top" xlink:title=" ">
<polygon fill="white" stroke="#666666" points="414,-108 304.25,-108 304.25,-76 414,-76 414,-108"/>
<text xml:space="preserve" text-anchor="start" x="312.25" y="-94.5" font-family="Helvetica,sans-Serif" font-size="10.00">convert_buffer_output</text>
<text xml:space="preserve" text-anchor="middle" x="359.12" y="-82.5" font-family="Helvetica,sans-Serif" font-size="10.00">_generic</text>
</a>
</g>
</g>
<!-- Node2&#45;&gt;Node3 -->
<g id="edge2_Node000002_Node000003" class="edge">
<title>Node2&#45;&gt;Node3</title>
<g id="a_edge2_Node000002_Node000003"><a xlink:title=" ">
<path fill="none" stroke="#63b8ff" d="M240.14,-58.43C255.9,-62.91 274.8,-68.29 292.81,-73.41"/>
<polygon fill="#63b8ff" stroke="#63b8ff" points="291.84,-76.78 302.42,-76.15 293.76,-70.04 291.84,-76.78"/>
</a>
</g>
</g>
<!-- Node4 -->
<g id="Node000004" class="node">
<title>Node4</title>
<g id="a_Node000004"><a xlink:href="pugixml_8cpp.html#aaf0cb0440cad4fe27233f6482e324e15" target="_top" xlink:title=" ">
<polygon fill="white" stroke="#666666" points="530.5,-39 450,-39 450,-19 530.5,-19 530.5,-39"/>
<text xml:space="preserve" text-anchor="middle" x="490.25" y="-25.5" font-family="Helvetica,sans-Serif" font-size="10.00">is_little_endian</text>
</a>
</g>
</g>
<!-- Node2&#45;&gt;Node4 -->
<g id="edge3_Node000002_Node000004" class="edge">
<title>Node2&#45;&gt;Node4</title>
<g id="a_edge3_Node000002_Node000004"><a xlink:title=" ">
<path fill="none" stroke="#63b8ff" d="M257.58,-44.4C309.52,-40.95 387.39,-35.77 438.27,-32.39"/>
<polygon fill="#63b8ff" stroke="#63b8ff" points="438.38,-35.89 448.13,-31.73 437.92,-28.91 438.38,-35.89"/>
</a>
</g>
</g>
<!-- Node6 -->
<g id="Node000006" class="node">
<title>Node6</title>
<g id="a_Node000006"><a xlink:href="pugixml_8cpp.html#ac65295a489782c48a97a97e972ed61b0" target="_top" xlink:title=" ">
<polygon fill="white" stroke="#666666" points="411.75,-20 306.5,-20 306.5,0 411.75,0 411.75,-20"/>
<text xml:space="preserve" text-anchor="middle" x="359.12" y="-6.5" font-family="Helvetica,sans-Serif" font-size="10.00">get_wchar_encoding</text>
</a>
</g>
</g>
<!-- Node5&#45;&gt;Node6 -->
<g id="edge5_Node000005_Node000006" class="edge">
<title>Node5&#45;&gt;Node6</title>
<g id="a_edge5_Node000005_Node000006"><a xlink:title=" ">
<path fill="none" stroke="#63b8ff" d="M268.63,-10C277.35,-10 286.28,-10 294.97,-10"/>
<polygon fill="#63b8ff" stroke="#63b8ff" points="294.7,-13.5 304.7,-10 294.7,-6.5 294.7,-13.5"/>
</a>
</g>
</g>
<!-- Node6&#45;&gt;Node4 -->
<g id="edge6_Node000006_Node000004" class="edge">
<title>Node6&#45;&gt;Node4</title>
<g id="a_edge6_Node000006_Node000004"><a xlink:title=" ">
<path fill="none" stroke="#63b8ff" d="M411.9,-17.62C420.68,-18.91 429.79,-20.25 438.55,-21.54"/>
<polygon fill="#63b8ff" stroke="#63b8ff" points="437.89,-24.98 448.29,-22.97 438.91,-18.05 437.89,-24.98"/>
</a>
</g>
</g>
</g>
</svg>
