<?xml version="1.0" encoding="UTF-8" standalone="no"?>
<!DOCTYPE svg PUBLIC "-//W3C//DTD SVG 1.1//EN"
 "http://www.w3.org/Graphics/SVG/1.1/DTD/svg11.dtd">
<!-- Generated by graphviz version 14.1.2 (20260124.0452)
 -->
<!-- Title: pugi::xml_node::children Pages: 1 -->
<svg width="444pt" height="96pt"
 viewBox="0.00 0.00 444.00 96.00" xmlns="http://www.w3.org/2000/svg" xmlns:xlink="http://www.w3.org/1999/xlink">
<g id="graph0" class="graph" transform="scale(1 1) rotate(0) translate(4 92)">
<title>pugi::xml_node::children</title>
<!-- Node1 -->
<g id="Node000001" class="node">
<title>Node1</title>
<g id="a_Node000001"><a xlink:title=" ">
<polygon fill="#999999" stroke="#666666" points="121.75,-57 0,-57 0,-37 121.75,-37 121.75,-57"/>
<text xml:space="preserve" text-anchor="middle" x="60.88" y="-43.5" font-family="Helvetica,sans-Serif" font-size="10.00">pugi::xml_node::children</text>
</a>
</g>
</g>
<!-- Node2 -->
<g id="Node000002" class="node">
<title>Node2</title>
<g id="a_Node000002"><a xlink:href="classpugi_1_1xml__node.html#a4154ffb6451d4203b74bb56d3f3ecf50" target="_top" xlink:title=" ">
<polygon fill="white" stroke="#666666" points="267.88,-88 159.62,-88 159.62,-68 267.88,-68 267.88,-88"/>
<text xml:space="preserve" text-anchor="middle" x="213.75" y="-74.5" font-family="Helvetica,sans-Serif" font-size="10.00">pugi::xml_node::child</text>
</a>
</g>
</g>
<!-- Node1&#45;&gt;Node2 -->
<g id="edge1_Node000001_Node000002" class="edge">
<title>Node1&#45;&gt;Node2</title>
<g id="a_edge1_Node000001_Node000002"><a xlink:title=" ">
<path fill="none" stroke="#63b8ff" d="M112.95,-57.5C125.12,-59.99 138.23,-62.69 150.83,-65.28"/>
<polygon fill="#63b8ff" stroke="#63b8ff" points="149.74,-68.63 160.24,-67.21 151.15,-61.77 149.74,-68.63"/>
</a>
</g>
</g>
<!-- Node4 -->
<g id="Node000004" class="node">
<title>Node4</title>
<g id="a_Node000004"><a xlink:href="classpugi_1_1xml__node.html#a1e60ab2fa6d6adb56f4b833761fc0b66" target="_top" xlink:title=" ">
<polygon fill="white" stroke="#666666" points="269.75,-32 157.75,-32 157.75,0 269.75,0 269.75,-32"/>
<text xml:space="preserve" text-anchor="start" x="165.75" y="-18.5" font-family="Helvetica,sans-Serif" font-size="10.00">pugi::xml_node::xml</text>
<text xml:space="preserve" text-anchor="middle" x="213.75" y="-6.5" font-family="Helvetica,sans-Serif" font-size="10.00">_named_node_iterator</text>
</a>
</g>
</g>
<!-- Node1&#45;&gt;Node4 -->
<g id="edge3_Node000001_Node000004" class="edge">
<title>Node1&#45;&gt;Node4</title>
<g id="a_edge3_Node000001_Node000004"><a xlink:title=" ">
<path fill="none" stroke="#63b8ff" d="M112.95,-36.5C123.66,-34.3 135.1,-31.95 146.28,-29.66"/>
<polygon fill="#63b8ff" stroke="#63b8ff" points="146.75,-33.13 155.84,-27.69 145.34,-26.28 146.75,-33.13"/>
</a>
</g>
</g>
<!-- Node3 -->
<g id="Node000003" class="node">
<title>Node3</title>
<g id="a_Node000003"><a xlink:href="classpugi_1_1xml__node.html#a4641476ddd4869da18f0738186b17368" target="_top" xlink:title=" ">
<polygon fill="white" stroke="#666666" points="435.75,-88 305.75,-88 305.75,-68 435.75,-68 435.75,-88"/>
<text xml:space="preserve" text-anchor="middle" x="370.75" y="-74.5" font-family="Helvetica,sans-Serif" font-size="10.00">pugi::xml_node::xml_node</text>
</a>
</g>
</g>
<!-- Node2&#45;&gt;Node3 -->
<g id="edge2_Node000002_Node000003" class="edge">
<title>Node2&#45;&gt;Node3</title>
<g id="a_edge2_Node000002_Node000003"><a xlink:title=" ">
<path fill="none" stroke="#63b8ff" d="M268.09,-78C276.43,-78 285.19,-78 293.92,-78"/>
<polygon fill="#63b8ff" stroke="#63b8ff" points="293.83,-81.5 303.83,-78 293.83,-74.5 293.83,-81.5"/>
</a>
</g>
</g>
<!-- Node4&#45;&gt;Node4 -->
<g id="edge4_Node000004_Node000004" class="edge">
<title>Node4&#45;&gt;Node4</title>
<g id="a_edge4_Node000004_Node000004"><a xlink:title=" ">
<path fill="none" stroke="#63b8ff" d="M186.46,-32.44C181.36,-41.58 190.46,-50 213.75,-50 226.49,-50 234.98,-47.48 239.23,-43.71"/>
<polygon fill="#63b8ff" stroke="#63b8ff" points="242.66,-44.37 240.8,-33.94 235.75,-43.25 242.66,-44.37"/>
</a>
</g>
</g>
</g>
</svg>
