<?xml version="1.0" encoding="UTF-8" standalone="no"?>
<!DOCTYPE svg PUBLIC "-//W3C//DTD SVG 1.1//EN"
 "http://www.w3.org/Graphics/SVG/1.1/DTD/svg11.dtd">
<!-- Generated by graphviz version 14.1.2 (20260124.0452)
 -->
<!-- Title: xpath_node_set_raw::size Pages: 1 -->
<svg width="1372pt" height="440pt"
 viewBox="0.00 0.00 1372.00 440.00" xmlns="http://www.w3.org/2000/svg" xmlns:xlink="http://www.w3.org/1999/xlink">
<g id="graph0" class="graph" transform="scale(1 1) rotate(0) translate(4 436)">
<title>xpath_node_set_raw::size</title>
<!-- Node1 -->
<g id="Node000001" class="node">
<title>Node1</title>
<g id="a_Node000001"><a xlink:title=" ">
<polygon fill="#999999" stroke="#666666" points="1363.5,-149 1257.5,-149 1257.5,-117 1363.5,-117 1363.5,-149"/>
<text xml:space="preserve" text-anchor="start" x="1265.5" y="-135.5" font-family="Helvetica,sans-Serif" font-size="10.00">xpath_node_set_raw</text>
<text xml:space="preserve" text-anchor="middle" x="1310.5" y="-123.5" font-family="Helvetica,sans-Serif" font-size="10.00">::size</text>
</a>
</g>
</g>
<!-- Node2 -->
<g id="Node000002" class="node">
<title>Node2</title>
<g id="a_Node000002"><a xlink:href="classxpath__ast__node.html#a7e35f265c9e0712a16e1d8a9db4c7672" target="_top" xlink:title=" ">
<polygon fill="white" stroke="#666666" points="1065.62,-130 951.38,-130 951.38,-98 1065.62,-98 1065.62,-130"/>
<text xml:space="preserve" text-anchor="start" x="959.38" y="-116.5" font-family="Helvetica,sans-Serif" font-size="10.00">xpath_ast_node::apply</text>
<text xml:space="preserve" text-anchor="middle" x="1008.5" y="-104.5" font-family="Helvetica,sans-Serif" font-size="10.00">_predicate</text>
</a>
</g>
</g>
<!-- Node1&#45;&gt;Node2 -->
<g id="edge1_Node000001_Node000002" class="edge">
<title>Node1&#45;&gt;Node2</title>
<g id="a_edge1_Node000001_Node000002"><a xlink:title=" ">
<path fill="none" stroke="#63b8ff" d="M1245.89,-128.97C1192.58,-125.6 1117.2,-120.82 1066,-117.58"/>
<polygon fill="#63b8ff" stroke="#63b8ff" points="1245.53,-132.46 1255.73,-129.59 1245.97,-125.47 1245.53,-132.46"/>
</a>
</g>
</g>
<!-- Node6 -->
<g id="Node000006" class="node">
<title>Node6</title>
<g id="a_Node000006"><a xlink:href="classxpath__ast__node.html#ab4e5bbd3f2e83c86a43349374b4bfc22" target="_top" xlink:title=" ">
<polygon fill="white" stroke="#666666" points="439.5,-124 325.25,-124 325.25,-92 439.5,-92 439.5,-124"/>
<text xml:space="preserve" text-anchor="start" x="333.25" y="-110.5" font-family="Helvetica,sans-Serif" font-size="10.00">xpath_ast_node::apply</text>
<text xml:space="preserve" text-anchor="middle" x="382.38" y="-98.5" font-family="Helvetica,sans-Serif" font-size="10.00">_predicate_boolean</text>
</a>
</g>
</g>
<!-- Node1&#45;&gt;Node6 -->
<g id="edge25_Node000001_Node000006" class="edge">
<title>Node1&#45;&gt;Node6</title>
<g id="a_edge25_Node000001_Node000006"><a xlink:title=" ">
<path fill="none" stroke="#63b8ff" d="M1269.13,-111.48C1212.7,-83.46 1106.25,-38 1009.5,-38 1009.5,-38 1009.5,-38 691.62,-38 595.31,-38 486.18,-70.9 427.08,-91.59"/>
<polygon fill="#63b8ff" stroke="#63b8ff" points="1267.55,-114.61 1278.06,-115.99 1270.71,-108.36 1267.55,-114.61"/>
</a>
</g>
</g>
<!-- Node8 -->
<g id="Node000008" class="node">
<title>Node8</title>
<g id="a_Node000008"><a xlink:href="classxpath__ast__node.html#abf2d4b745493f63aebc1c89d9fde8eed" target="_top" xlink:title=" ">
<polygon fill="white" stroke="#666666" points="129.25,-80 15,-80 15,-48 129.25,-48 129.25,-80"/>
<text xml:space="preserve" text-anchor="start" x="23" y="-66.5" font-family="Helvetica,sans-Serif" font-size="10.00">xpath_ast_node::apply</text>
<text xml:space="preserve" text-anchor="middle" x="72.12" y="-54.5" font-family="Helvetica,sans-Serif" font-size="10.00">_predicate_number</text>
</a>
</g>
</g>
<!-- Node1&#45;&gt;Node8 -->
<g id="edge26_Node000001_Node000008" class="edge">
<title>Node1&#45;&gt;Node8</title>
<g id="a_edge26_Node000001_Node000008"><a xlink:title=" ">
<path fill="none" stroke="#63b8ff" d="M1290.15,-107.95C1273.89,-88.65 1248.96,-62.84 1221.5,-48 1136.51,-2.08 1106.11,0 1009.5,0 1009.5,0 1009.5,0 381.38,0 287.91,0 181.77,-28.56 121.6,-47.52"/>
<polygon fill="#63b8ff" stroke="#63b8ff" points="1287.41,-110.12 1296.45,-115.65 1292.83,-105.69 1287.41,-110.12"/>
</a>
</g>
</g>
<!-- Node9 -->
<g id="Node000009" class="node">
<title>Node9</title>
<g id="a_Node000009"><a xlink:href="classxpath__ast__node.html#a8cedd7e15623b9fa431788b8843f1463" target="_top" xlink:title=" ">
<polygon fill="white" stroke="#666666" points="136,-410 8.25,-410 8.25,-378 136,-378 136,-410"/>
<text xml:space="preserve" text-anchor="start" x="16.25" y="-396.5" font-family="Helvetica,sans-Serif" font-size="10.00">xpath_ast_node::apply</text>
<text xml:space="preserve" text-anchor="middle" x="72.12" y="-384.5" font-family="Helvetica,sans-Serif" font-size="10.00">_predicate_number_const</text>
</a>
</g>
</g>
<!-- Node1&#45;&gt;Node9 -->
<g id="edge27_Node000001_Node000009" class="edge">
<title>Node1&#45;&gt;Node9</title>
<g id="a_edge27_Node000001_Node000009"><a xlink:title=" ">
<path fill="none" stroke="#63b8ff" d="M1298.54,-159.26C1266.14,-232.22 1163.38,-432 1009.5,-432 1009.5,-432 1009.5,-432 381.38,-432 296.05,-432 198.42,-417.48 136.31,-406.39"/>
<polygon fill="#63b8ff" stroke="#63b8ff" points="1301.59,-161.03 1302.36,-150.46 1295.17,-158.24 1301.59,-161.03"/>
</a>
</g>
</g>
<!-- Node12 -->
<g id="Node000012" class="node">
<title>Node12</title>
<g id="a_Node000012"><a xlink:href="classxpath__ast__node.html#af025a480dab7dd0bab21157fb9dd3e73" target="_top" xlink:title=" ">
<polygon fill="white" stroke="#666666" points="1221.5,-212 1107.25,-212 1107.25,-180 1221.5,-180 1221.5,-212"/>
<text xml:space="preserve" text-anchor="start" x="1115.25" y="-198.5" font-family="Helvetica,sans-Serif" font-size="10.00">xpath_ast_node::apply</text>
<text xml:space="preserve" text-anchor="middle" x="1164.38" y="-186.5" font-family="Helvetica,sans-Serif" font-size="10.00">_predicates</text>
</a>
</g>
</g>
<!-- Node1&#45;&gt;Node12 -->
<g id="edge28_Node000001_Node000012" class="edge">
<title>Node1&#45;&gt;Node12</title>
<g id="a_edge28_Node000001_Node000012"><a xlink:title=" ">
<path fill="none" stroke="#63b8ff" d="M1261.69,-153.9C1242.58,-162.25 1220.88,-171.74 1202.93,-179.58"/>
<polygon fill="#63b8ff" stroke="#63b8ff" points="1262.86,-157.21 1270.62,-149.99 1260.06,-150.79 1262.86,-157.21"/>
</a>
</g>
</g>
<!-- Node13 -->
<g id="Node000013" class="node">
<title>Node13</title>
<g id="a_Node000013"><a xlink:href="classxpath__ast__node.html#a3258c05ab9aaa78e154d2ff63fe56906" target="_top" xlink:title=" ">
<polygon fill="white" stroke="#666666" points="1071.25,-206 945.75,-206 945.75,-186 1071.25,-186 1071.25,-206"/>
<text xml:space="preserve" text-anchor="middle" x="1008.5" y="-192.5" font-family="Helvetica,sans-Serif" font-size="10.00">xpath_ast_node::step_do</text>
</a>
</g>
</g>
<!-- Node1&#45;&gt;Node13 -->
<g id="edge31_Node000001_Node000013" class="edge">
<title>Node1&#45;&gt;Node13</title>
<g id="a_edge31_Node000001_Node000013"><a xlink:title=" ">
<path fill="none" stroke="#63b8ff" d="M1246.17,-143.81C1206.19,-150.91 1153.54,-160.74 1107.25,-171 1087.58,-175.36 1065.86,-180.85 1047.9,-185.57"/>
<polygon fill="#63b8ff" stroke="#63b8ff" points="1246.62,-147.29 1255.86,-142.11 1245.41,-140.39 1246.62,-147.29"/>
</a>
</g>
</g>
<!-- Node3 -->
<g id="Node000003" class="node">
<title>Node3</title>
<g id="a_Node000003"><a xlink:href="classxpath__ast__node.html#a68cace396dd4eeae67ecfcd34a3a8285" target="_top" xlink:title=" ">
<polygon fill="white" stroke="#666666" points="909.75,-213 800.75,-213 800.75,-181 909.75,-181 909.75,-213"/>
<text xml:space="preserve" text-anchor="start" x="808.75" y="-199.5" font-family="Helvetica,sans-Serif" font-size="10.00">xpath_ast_node::eval</text>
<text xml:space="preserve" text-anchor="middle" x="855.25" y="-187.5" font-family="Helvetica,sans-Serif" font-size="10.00">_node_set</text>
</a>
</g>
</g>
<!-- Node2&#45;&gt;Node3 -->
<g id="edge2_Node000002_Node000003" class="edge">
<title>Node2&#45;&gt;Node3</title>
<g id="a_edge2_Node000002_Node000003"><a xlink:title=" ">
<path fill="none" stroke="#63b8ff" d="M967.84,-135.76C942.24,-149.81 909.46,-167.8 886.07,-180.64"/>
<polygon fill="#63b8ff" stroke="#63b8ff" points="969.21,-139.01 976.29,-131.13 965.84,-132.87 969.21,-139.01"/>
</a>
</g>
</g>
<!-- Node4 -->
<g id="Node000004" class="node">
<title>Node4</title>
<g id="a_Node000004"><a xlink:href="classxpath__ast__node.html#a98dd7f6e67fe2c56c63056eed835d6a4" target="_top" xlink:title=" ">
<polygon fill="white" stroke="#666666" points="764.75,-246 620.5,-246 620.5,-226 764.75,-226 764.75,-246"/>
<text xml:space="preserve" text-anchor="middle" x="692.62" y="-232.5" font-family="Helvetica,sans-Serif" font-size="10.00">xpath_ast_node::compare_eq</text>
</a>
</g>
</g>
<!-- Node3&#45;&gt;Node4 -->
<g id="edge3_Node000003_Node000004" class="edge">
<title>Node3&#45;&gt;Node4</title>
<g id="a_edge3_Node000003_Node000004"><a xlink:title=" ">
<path fill="none" stroke="#63b8ff" d="M789.2,-212.79C771.55,-217.08 752.88,-221.61 736.77,-225.53"/>
<polygon fill="#63b8ff" stroke="#63b8ff" points="789.95,-216.21 798.85,-210.45 788.3,-209.41 789.95,-216.21"/>
</a>
</g>
</g>
<!-- Node5 -->
<g id="Node000005" class="node">
<title>Node5</title>
<g id="a_Node000005"><a xlink:href="classxpath__ast__node.html#ab7f965a92023bc2704b8e6fd9f3d7c14" target="_top" xlink:title=" ">
<polygon fill="white" stroke="#666666" points="584.5,-252 475.5,-252 475.5,-220 584.5,-220 584.5,-252"/>
<text xml:space="preserve" text-anchor="start" x="483.5" y="-238.5" font-family="Helvetica,sans-Serif" font-size="10.00">xpath_ast_node::eval</text>
<text xml:space="preserve" text-anchor="middle" x="530" y="-226.5" font-family="Helvetica,sans-Serif" font-size="10.00">_boolean</text>
</a>
</g>
</g>
<!-- Node3&#45;&gt;Node5 -->
<g id="edge23_Node000003_Node000005" class="edge">
<title>Node3&#45;&gt;Node5</title>
<g id="a_edge23_Node000003_Node000005"><a xlink:title=" ">
<path fill="none" stroke="#63b8ff" d="M789.39,-200.39C742.34,-203.37 677.26,-208.58 620.5,-217 608.87,-218.72 596.49,-221.04 584.76,-223.46"/>
<polygon fill="#63b8ff" stroke="#63b8ff" points="789.37,-203.9 799.14,-199.79 788.94,-196.91 789.37,-203.9"/>
</a>
</g>
</g>
<!-- Node10 -->
<g id="Node000010" class="node">
<title>Node10</title>
<g id="a_Node000010"><a xlink:href="classxpath__ast__node.html#abb6e4c529276eaf882233dbb6e04e111" target="_top" xlink:title=" ">
<polygon fill="white" stroke="#666666" points="144.25,-200 0,-200 0,-180 144.25,-180 144.25,-200"/>
<text xml:space="preserve" text-anchor="middle" x="72.12" y="-186.5" font-family="Helvetica,sans-Serif" font-size="10.00">xpath_ast_node::compare_rel</text>
</a>
</g>
</g>
<!-- Node3&#45;&gt;Node10 -->
<g id="edge22_Node000003_Node000010" class="edge">
<title>Node3&#45;&gt;Node10</title>
<g id="a_edge22_Node000003_Node000010"><a xlink:title=" ">
<path fill="none" stroke="#63b8ff" d="M789.63,-182.64C724.64,-169.47 621.39,-152 531,-152 531,-152 531,-152 381.38,-152 291.06,-152 186.97,-168.27 125.79,-179.52"/>
<polygon fill="#63b8ff" stroke="#63b8ff" points="788.54,-185.99 799.04,-184.58 789.95,-179.13 788.54,-185.99"/>
</a>
</g>
</g>
<!-- Node11 -->
<g id="Node000011" class="node">
<title>Node11</title>
<g id="a_Node000011"><a xlink:href="classxpath__ast__node.html#a6b675237a590548b68d0e0b97518b6df" target="_top" xlink:title=" ">
<polygon fill="white" stroke="#666666" points="436.88,-306 327.88,-306 327.88,-274 436.88,-274 436.88,-306"/>
<text xml:space="preserve" text-anchor="start" x="335.88" y="-292.5" font-family="Helvetica,sans-Serif" font-size="10.00">xpath_ast_node::eval</text>
<text xml:space="preserve" text-anchor="middle" x="382.38" y="-280.5" font-family="Helvetica,sans-Serif" font-size="10.00">_string</text>
</a>
</g>
</g>
<!-- Node3&#45;&gt;Node11 -->
<g id="edge24_Node000003_Node000011" class="edge">
<title>Node3&#45;&gt;Node11</title>
<g id="a_edge24_Node000003_Node000011"><a xlink:title=" ">
<path fill="none" stroke="#63b8ff" d="M825.87,-219.84C809.06,-232.18 786.79,-246.59 764.75,-255 654.18,-297.2 512.99,-297.63 437.22,-293.98"/>
<polygon fill="#63b8ff" stroke="#63b8ff" points="827.53,-222.97 833.41,-214.15 823.32,-217.38 827.53,-222.97"/>
</a>
</g>
</g>
<!-- Node4&#45;&gt;Node5 -->
<g id="edge4_Node000004_Node000005" class="edge">
<title>Node4&#45;&gt;Node5</title>
<g id="a_edge4_Node000004_Node000005"><a xlink:title=" ">
<path fill="none" stroke="#63b8ff" d="M608.76,-229.25C600.63,-229.27 592.54,-229.38 584.81,-229.59"/>
<polygon fill="#63b8ff" stroke="#63b8ff" points="608.71,-232.75 618.72,-229.28 608.73,-225.75 608.71,-232.75"/>
</a>
</g>
</g>
<!-- Node5&#45;&gt;Node4 -->
<g id="edge7_Node000005_Node000004" class="edge">
<title>Node5&#45;&gt;Node4</title>
<g id="a_edge7_Node000005_Node000004"><a xlink:title=" ">
<path fill="none" stroke="#63b8ff" d="M596.22,-242.64C604.13,-242.76 612.24,-242.78 620.24,-242.71"/>
<polygon fill="#63b8ff" stroke="#63b8ff" points="596.39,-239.15 586.33,-242.44 596.25,-246.14 596.39,-239.15"/>
</a>
</g>
</g>
<!-- Node5&#45;&gt;Node6 -->
<g id="edge5_Node000005_Node000006" class="edge">
<title>Node5&#45;&gt;Node6</title>
<g id="a_edge5_Node000005_Node000006"><a xlink:title=" ">
<path fill="none" stroke="#63b8ff" d="M501.79,-212.09C472.7,-186.51 427.35,-146.65 402.04,-124.41"/>
<polygon fill="#63b8ff" stroke="#63b8ff" points="499.3,-214.56 509.12,-218.53 503.92,-209.3 499.3,-214.56"/>
</a>
</g>
</g>
<!-- Node7 -->
<g id="Node000007" class="node">
<title>Node7</title>
<g id="a_Node000007"><a xlink:href="classxpath__ast__node.html#a92dd7048e28d486bc7f382d1fc6f1de6" target="_top" xlink:title=" ">
<polygon fill="white" stroke="#666666" points="289.25,-279 180.25,-279 180.25,-247 289.25,-247 289.25,-279"/>
<text xml:space="preserve" text-anchor="start" x="188.25" y="-265.5" font-family="Helvetica,sans-Serif" font-size="10.00">xpath_ast_node::eval</text>
<text xml:space="preserve" text-anchor="middle" x="234.75" y="-253.5" font-family="Helvetica,sans-Serif" font-size="10.00">_number</text>
</a>
</g>
</g>
<!-- Node5&#45;&gt;Node7 -->
<g id="edge8_Node000005_Node000007" class="edge">
<title>Node5&#45;&gt;Node7</title>
<g id="a_edge8_Node000005_Node000007"><a xlink:title=" ">
<path fill="none" stroke="#63b8ff" d="M464.03,-236.26C411.66,-239.6 338.88,-246.42 289.69,-252.66"/>
<polygon fill="#63b8ff" stroke="#63b8ff" points="463.93,-239.78 473.7,-235.68 463.51,-232.79 463.93,-239.78"/>
</a>
</g>
</g>
<!-- Node5&#45;&gt;Node11 -->
<g id="edge21_Node000005_Node000011" class="edge">
<title>Node5&#45;&gt;Node11</title>
<g id="a_edge21_Node000005_Node000011"><a xlink:title=" ">
<path fill="none" stroke="#63b8ff" d="M464.42,-253.24C446.43,-259.74 427.77,-267.04 412.9,-273.5"/>
<polygon fill="#63b8ff" stroke="#63b8ff" points="465.51,-256.56 473.76,-249.92 463.17,-249.97 465.51,-256.56"/>
</a>
</g>
</g>
<!-- Node6&#45;&gt;Node2 -->
<g id="edge6_Node000006_Node000002" class="edge">
<title>Node6&#45;&gt;Node2</title>
<g id="a_edge6_Node000006_Node000002"><a xlink:title=" ">
<path fill="none" stroke="#63b8ff" d="M450.92,-108.65C574.75,-109.84 835.93,-112.35 951.01,-113.46"/>
<polygon fill="#63b8ff" stroke="#63b8ff" points="451.28,-105.15 441.25,-108.56 451.21,-112.15 451.28,-105.15"/>
</a>
</g>
</g>
<!-- Node7&#45;&gt;Node4 -->
<g id="edge13_Node000007_Node000004" class="edge">
<title>Node7&#45;&gt;Node4</title>
<g id="a_edge13_Node000007_Node000004"><a xlink:title=" ">
<path fill="none" stroke="#63b8ff" d="M265.55,-285.67C282.16,-296.88 303.78,-309.22 325.25,-315 456.88,-350.46 618.43,-274.98 672.78,-246.38"/>
<polygon fill="#63b8ff" stroke="#63b8ff" points="267.83,-282.99 257.63,-280.13 263.81,-288.73 267.83,-282.99"/>
</a>
</g>
</g>
<!-- Node7&#45;&gt;Node5 -->
<g id="edge16_Node000007_Node000005" class="edge">
<title>Node7&#45;&gt;Node5</title>
<g id="a_edge16_Node000007_Node000005"><a xlink:title=" ">
<path fill="none" stroke="#63b8ff" d="M300.88,-262.72C353.3,-259.38 426.07,-252.56 475.21,-246.32"/>
<polygon fill="#63b8ff" stroke="#63b8ff" points="300.97,-259.21 291.2,-263.31 301.4,-266.2 300.97,-259.21"/>
</a>
</g>
</g>
<!-- Node7&#45;&gt;Node8 -->
<g id="edge9_Node000007_Node000008" class="edge">
<title>Node7&#45;&gt;Node8</title>
<g id="a_edge9_Node000007_Node000008"><a xlink:title=" ">
<path fill="none" stroke="#63b8ff" d="M213.41,-237.79C179.94,-196.33 114.2,-114.89 86.23,-80.23"/>
<polygon fill="#63b8ff" stroke="#63b8ff" points="210.65,-239.95 219.65,-245.54 216.1,-235.56 210.65,-239.95"/>
</a>
</g>
</g>
<!-- Node7&#45;&gt;Node9 -->
<g id="edge11_Node000007_Node000009" class="edge">
<title>Node7&#45;&gt;Node9</title>
<g id="a_edge11_Node000007_Node000009"><a xlink:title=" ">
<path fill="none" stroke="#63b8ff" d="M205.19,-286.29C172.96,-312.58 121.35,-354.67 93.14,-377.67"/>
<polygon fill="#63b8ff" stroke="#63b8ff" points="207.02,-289.32 212.56,-280.28 202.6,-283.89 207.02,-289.32"/>
</a>
</g>
</g>
<!-- Node7&#45;&gt;Node10 -->
<g id="edge14_Node000007_Node000010" class="edge">
<title>Node7&#45;&gt;Node10</title>
<g id="a_edge14_Node000007_Node000010"><a xlink:title=" ">
<path fill="none" stroke="#63b8ff" d="M187.48,-241.97C157.55,-228.37 119.89,-211.25 96.15,-200.46"/>
<polygon fill="#63b8ff" stroke="#63b8ff" points="185.77,-245.04 196.32,-245.99 188.67,-238.67 185.77,-245.04"/>
</a>
</g>
</g>
<!-- Node7&#45;&gt;Node11 -->
<g id="edge17_Node000007_Node000011" class="edge">
<title>Node7&#45;&gt;Node11</title>
<g id="a_edge17_Node000007_Node000011"><a xlink:title=" ">
<path fill="none" stroke="#63b8ff" d="M300.62,-281.74C309.62,-283.49 318.79,-285.13 327.56,-286.56"/>
<polygon fill="#63b8ff" stroke="#63b8ff" points="301.32,-278.31 290.82,-279.77 299.94,-285.17 301.32,-278.31"/>
</a>
</g>
</g>
<!-- Node8&#45;&gt;Node2 -->
<g id="edge10_Node000008_Node000002" class="edge">
<title>Node8&#45;&gt;Node2</title>
<g id="a_edge10_Node000008_Node000002"><a xlink:title=" ">
<path fill="none" stroke="#63b8ff" d="M140.55,-67.33C282.75,-74.41 623.81,-91.62 909.75,-108 923.08,-108.76 937.42,-109.62 950.9,-110.45"/>
<polygon fill="#63b8ff" stroke="#63b8ff" points="141.11,-63.86 130.95,-66.86 140.77,-70.85 141.11,-63.86"/>
</a>
</g>
</g>
<!-- Node9&#45;&gt;Node2 -->
<g id="edge12_Node000009_Node000002" class="edge">
<title>Node9&#45;&gt;Node2</title>
<g id="a_edge12_Node000009_Node000002"><a xlink:title=" ">
<path fill="none" stroke="#63b8ff" d="M147.6,-394C210.03,-394 301.52,-394 381.38,-394 693.62,-394 693.62,-394 693.62,-394 841.47,-394 847.7,-287.66 945.75,-177 960.27,-160.61 977.84,-142.87 990.52,-130.41"/>
<polygon fill="#63b8ff" stroke="#63b8ff" points="147.81,-390.5 137.81,-394 147.81,-397.5 147.81,-390.5"/>
</a>
</g>
</g>
<!-- Node10&#45;&gt;Node5 -->
<g id="edge15_Node000010_Node000005" class="edge">
<title>Node10&#45;&gt;Node5</title>
<g id="a_edge15_Node000010_Node000005"><a xlink:title=" ">
<path fill="none" stroke="#63b8ff" d="M155.81,-198.34C248.63,-207.71 396.51,-222.63 475.36,-230.59"/>
<polygon fill="#63b8ff" stroke="#63b8ff" points="156.3,-194.88 146,-197.35 155.6,-201.84 156.3,-194.88"/>
</a>
</g>
</g>
<!-- Node11&#45;&gt;Node4 -->
<g id="edge18_Node000011_Node000004" class="edge">
<title>Node11&#45;&gt;Node4</title>
<g id="a_edge18_Node000011_Node000004"><a xlink:title=" ">
<path fill="none" stroke="#63b8ff" d="M448.69,-282.03C488.15,-276.85 539.38,-269.5 584.5,-261 606.46,-256.86 630.72,-251.29 650.6,-246.45"/>
<polygon fill="#63b8ff" stroke="#63b8ff" points="448.33,-278.55 438.86,-283.3 449.23,-285.49 448.33,-278.55"/>
</a>
</g>
</g>
<!-- Node11&#45;&gt;Node5 -->
<g id="edge19_Node000011_Node000005" class="edge">
<title>Node11&#45;&gt;Node5</title>
<g id="a_edge19_Node000011_Node000005"><a xlink:title=" ">
<path fill="none" stroke="#63b8ff" d="M448.02,-272.74C466.01,-266.24 484.66,-258.93 499.53,-252.48"/>
<polygon fill="#63b8ff" stroke="#63b8ff" points="446.93,-269.41 438.67,-276.06 449.27,-276.01 446.93,-269.41"/>
</a>
</g>
</g>
<!-- Node11&#45;&gt;Node7 -->
<g id="edge20_Node000011_Node000007" class="edge">
<title>Node11&#45;&gt;Node7</title>
<g id="a_edge20_Node000011_Node000007"><a xlink:title=" ">
<path fill="none" stroke="#63b8ff" d="M316.97,-271.35C307.84,-269.57 298.53,-267.9 289.63,-266.45"/>
<polygon fill="#63b8ff" stroke="#63b8ff" points="316,-274.72 326.49,-273.27 317.38,-267.86 316,-274.72"/>
</a>
</g>
</g>
<!-- Node12&#45;&gt;Node13 -->
<g id="edge29_Node000012_Node000013" class="edge">
<title>Node12&#45;&gt;Node13</title>
<g id="a_edge29_Node000012_Node000013"><a xlink:title=" ">
<path fill="none" stroke="#63b8ff" d="M1095.46,-196C1087.53,-196 1079.47,-196 1071.63,-196"/>
<polygon fill="#63b8ff" stroke="#63b8ff" points="1095.44,-199.5 1105.44,-196 1095.44,-192.5 1095.44,-199.5"/>
</a>
</g>
</g>
<!-- Node13&#45;&gt;Node3 -->
<g id="edge30_Node000013_Node000003" class="edge">
<title>Node13&#45;&gt;Node3</title>
<g id="a_edge30_Node000013_Node000003"><a xlink:title=" ">
<path fill="none" stroke="#63b8ff" d="M934.15,-196.48C926.05,-196.54 917.92,-196.59 910.12,-196.64"/>
<polygon fill="#63b8ff" stroke="#63b8ff" points="934.05,-199.99 944.03,-196.42 934.01,-192.99 934.05,-199.99"/>
</a>
</g>
</g>
</g>
</svg>
