<?xml version="1.0" encoding="UTF-8" standalone="no"?>
<!DOCTYPE svg PUBLIC "-//W3C//DTD SVG 1.1//EN"
 "http://www.w3.org/Graphics/SVG/1.1/DTD/svg11.dtd">
<!-- Generated by graphviz version 14.1.2 (20260124.0452)
 -->
<!-- Title: xpath_lexer::contents Pages: 1 -->
<svg width="1158pt" height="292pt"
 viewBox="0.00 0.00 1158.00 292.00" xmlns="http://www.w3.org/2000/svg" xmlns:xlink="http://www.w3.org/1999/xlink">
<g id="graph0" class="graph" transform="scale(1 1) rotate(0) translate(4 288.01)">
<title>xpath_lexer::contents</title>
<!-- Node1 -->
<g id="Node000001" class="node">
<title>Node1</title>
<g id="a_Node000001"><a xlink:title=" ">
<polygon fill="#999999" stroke="#666666" points="1150.25,-81.01 1040.5,-81.01 1040.5,-61.01 1150.25,-61.01 1150.25,-81.01"/>
<text xml:space="preserve" text-anchor="middle" x="1095.38" y="-67.51" font-family="Helvetica,sans-Serif" font-size="10.00">xpath_lexer::contents</text>
</a>
</g>
</g>
<!-- Node2 -->
<g id="Node000002" class="node">
<title>Node2</title>
<g id="a_Node000002"><a xlink:href="structxpath__parser_1_1binary__op__t.html#a723f5f2b66df47b4ac74455cb39b9544" target="_top" xlink:title=" ">
<polygon fill="white" stroke="#666666" points="1004.5,-87.01 900,-87.01 900,-55.01 1004.5,-55.01 1004.5,-87.01"/>
<text xml:space="preserve" text-anchor="start" x="908" y="-73.51" font-family="Helvetica,sans-Serif" font-size="10.00">xpath_parser::binary</text>
<text xml:space="preserve" text-anchor="middle" x="952.25" y="-61.51" font-family="Helvetica,sans-Serif" font-size="10.00">_op_t::parse</text>
</a>
</g>
</g>
<!-- Node1&#45;&gt;Node2 -->
<g id="edge1_Node000001_Node000002" class="edge">
<title>Node1&#45;&gt;Node2</title>
<g id="a_edge1_Node000001_Node000002"><a xlink:title=" ">
<path fill="none" stroke="#63b8ff" d="M1028.86,-71.01C1020.76,-71.01 1012.56,-71.01 1004.71,-71.01"/>
<polygon fill="#63b8ff" stroke="#63b8ff" points="1028.7,-74.51 1038.7,-71.01 1028.7,-67.51 1028.7,-74.51"/>
</a>
</g>
</g>
<!-- Node3 -->
<g id="Node000003" class="node">
<title>Node3</title>
<g id="a_Node000003"><a xlink:href="structxpath__parser.html#adcd54e9b508acfe1f040ee7a54b88f2a" target="_top" xlink:title=" ">
<polygon fill="white" stroke="#666666" points="864,-87.01 761.75,-87.01 761.75,-55.01 864,-55.01 864,-87.01"/>
<text xml:space="preserve" text-anchor="start" x="769.75" y="-73.51" font-family="Helvetica,sans-Serif" font-size="10.00">xpath_parser::parse</text>
<text xml:space="preserve" text-anchor="middle" x="812.88" y="-61.51" font-family="Helvetica,sans-Serif" font-size="10.00">_expression_rec</text>
</a>
</g>
</g>
<!-- Node2&#45;&gt;Node3 -->
<g id="edge2_Node000002_Node000003" class="edge">
<title>Node2&#45;&gt;Node3</title>
<g id="a_edge2_Node000002_Node000003"><a xlink:title=" ">
<path fill="none" stroke="#63b8ff" d="M888.42,-71.01C880.35,-71.01 872.17,-71.01 864.34,-71.01"/>
<polygon fill="#63b8ff" stroke="#63b8ff" points="888.19,-74.51 898.19,-71.01 888.19,-67.51 888.19,-74.51"/>
</a>
</g>
</g>
<!-- Node3&#45;&gt;Node3 -->
<g id="edge18_Node000003_Node000003" class="edge">
<title>Node3&#45;&gt;Node3</title>
<g id="a_edge18_Node000003_Node000003"><a xlink:title=" ">
<path fill="none" stroke="#63b8ff" d="M835.91,-98.72C832.07,-102.49 824.39,-105.01 812.88,-105.01 791.81,-105.01 783.59,-96.6 788.19,-87.45"/>
<polygon fill="#63b8ff" stroke="#63b8ff" points="839.36,-99.35 837.34,-88.95 832.43,-98.34 839.36,-99.35"/>
</a>
</g>
</g>
<!-- Node4 -->
<g id="Node000004" class="node">
<title>Node4</title>
<g id="a_Node000004"><a xlink:href="structxpath__parser.html#a7738e256011ca842dc2a0beba78562ed" target="_top" xlink:title=" ">
<polygon fill="white" stroke="#666666" points="725.75,-155.01 623.5,-155.01 623.5,-123.01 725.75,-123.01 725.75,-155.01"/>
<text xml:space="preserve" text-anchor="start" x="631.5" y="-141.51" font-family="Helvetica,sans-Serif" font-size="10.00">xpath_parser::parse</text>
<text xml:space="preserve" text-anchor="middle" x="674.62" y="-129.51" font-family="Helvetica,sans-Serif" font-size="10.00">_expression</text>
</a>
</g>
</g>
<!-- Node3&#45;&gt;Node4 -->
<g id="edge3_Node000003_Node000004" class="edge">
<title>Node3&#45;&gt;Node4</title>
<g id="a_edge3_Node000003_Node000004"><a xlink:title=" ">
<path fill="none" stroke="#63b8ff" d="M768.7,-92.56C749.15,-102.32 726.41,-113.67 708.3,-122.7"/>
<polygon fill="#63b8ff" stroke="#63b8ff" points="770.15,-95.75 777.54,-88.15 767.03,-89.48 770.15,-95.75"/>
</a>
</g>
</g>
<!-- Node5 -->
<g id="Node000005" class="node">
<title>Node5</title>
<g id="a_Node000005"><a xlink:href="structxpath__parser.html#aa3fe0e7d23131b3943d8248646ecd362" target="_top" xlink:title=" ">
<polygon fill="white" stroke="#666666" points="575.5,-284.01 473.25,-284.01 473.25,-264.01 575.5,-264.01 575.5,-284.01"/>
<text xml:space="preserve" text-anchor="middle" x="524.38" y="-270.51" font-family="Helvetica,sans-Serif" font-size="10.00">xpath_parser::parse</text>
</a>
</g>
</g>
<!-- Node4&#45;&gt;Node5 -->
<g id="edge4_Node000004_Node000005" class="edge">
<title>Node4&#45;&gt;Node5</title>
<g id="a_edge4_Node000004_Node000005"><a xlink:title=" ">
<path fill="none" stroke="#63b8ff" d="M659.12,-165.07C644.1,-189.94 618.49,-226.95 587.5,-250.01 579.99,-255.6 571.01,-260.06 562.24,-263.54"/>
<polygon fill="#63b8ff" stroke="#63b8ff" points="662.09,-166.93 664.13,-156.53 656.05,-163.38 662.09,-166.93"/>
</a>
</g>
</g>
<!-- Node7 -->
<g id="Node000007" class="node">
<title>Node7</title>
<g id="a_Node000007"><a xlink:href="structxpath__parser.html#a61a425d990a56d5db8cd14405835a5b6" target="_top" xlink:title=" ">
<polygon fill="white" stroke="#666666" points="418.5,-208.01 316.25,-208.01 316.25,-176.01 418.5,-176.01 418.5,-208.01"/>
<text xml:space="preserve" text-anchor="start" x="324.25" y="-194.51" font-family="Helvetica,sans-Serif" font-size="10.00">xpath_parser::parse</text>
<text xml:space="preserve" text-anchor="middle" x="367.38" y="-182.51" font-family="Helvetica,sans-Serif" font-size="10.00">_filter_expression</text>
</a>
</g>
</g>
<!-- Node4&#45;&gt;Node7 -->
<g id="edge6_Node000004_Node000007" class="edge">
<title>Node4&#45;&gt;Node7</title>
<g id="a_edge6_Node000004_Node000007"><a xlink:title=" ">
<path fill="none" stroke="#63b8ff" d="M654.62,-164.19C638.94,-182.72 614.87,-206.46 587.5,-217.01 529.27,-239.46 456.35,-223.19 411.06,-208.4"/>
<polygon fill="#63b8ff" stroke="#63b8ff" points="657.28,-166.47 660.88,-156.5 651.85,-162.05 657.28,-166.47"/>
</a>
</g>
</g>
<!-- Node8 -->
<g id="Node000008" class="node">
<title>Node8</title>
<g id="a_Node000008"><a xlink:href="structxpath__parser.html#ab5275305ebaac95fd68a3186b737aaa7" target="_top" xlink:title=" ">
<polygon fill="white" stroke="#666666" points="135.25,-131.01 0,-131.01 0,-99.01 135.25,-99.01 135.25,-131.01"/>
<text xml:space="preserve" text-anchor="start" x="8" y="-117.51" font-family="Helvetica,sans-Serif" font-size="10.00">xpath_parser::parse</text>
<text xml:space="preserve" text-anchor="middle" x="67.62" y="-105.51" font-family="Helvetica,sans-Serif" font-size="10.00">_path_or_unary_expression</text>
</a>
</g>
</g>
<!-- Node4&#45;&gt;Node8 -->
<g id="edge10_Node000004_Node000008" class="edge">
<title>Node4&#45;&gt;Node8</title>
<g id="a_edge10_Node000004_Node000008"><a xlink:title=" ">
<path fill="none" stroke="#63b8ff" d="M611.76,-132.27C497.27,-124.49 253.29,-114.77 135.29,-113.23"/>
<polygon fill="#63b8ff" stroke="#63b8ff" points="611.35,-135.75 621.57,-132.96 611.84,-128.76 611.35,-135.75"/>
</a>
</g>
</g>
<!-- Node9 -->
<g id="Node000009" class="node">
<title>Node9</title>
<g id="a_Node000009"><a xlink:href="structxpath__parser.html#a49cbc6141508ace22ab4b8bd8ddf965a" target="_top" xlink:title=" ">
<polygon fill="white" stroke="#666666" points="577.38,-208.01 471.38,-208.01 471.38,-176.01 577.38,-176.01 577.38,-208.01"/>
<text xml:space="preserve" text-anchor="start" x="479.38" y="-194.51" font-family="Helvetica,sans-Serif" font-size="10.00">xpath_parser::parse</text>
<text xml:space="preserve" text-anchor="middle" x="524.38" y="-182.51" font-family="Helvetica,sans-Serif" font-size="10.00">_primary_expression</text>
</a>
</g>
</g>
<!-- Node4&#45;&gt;Node9 -->
<g id="edge11_Node000004_Node000009" class="edge">
<title>Node4&#45;&gt;Node9</title>
<g id="a_edge11_Node000004_Node000009"><a xlink:title=" ">
<path fill="none" stroke="#63b8ff" d="M616.82,-159.32C601.81,-164.69 585.8,-170.41 571.44,-175.54"/>
<polygon fill="#63b8ff" stroke="#63b8ff" points="617.87,-162.66 626.11,-156 615.51,-156.07 617.87,-162.66"/>
</a>
</g>
</g>
<!-- Node10 -->
<g id="Node000010" class="node">
<title>Node10</title>
<g id="a_Node000010"><a xlink:href="structxpath__parser.html#a0b226e2905970c868ab6a80d76da3a95" target="_top" xlink:title=" ">
<polygon fill="white" stroke="#666666" points="587.5,-99.01 461.25,-99.01 461.25,-79.01 587.5,-79.01 587.5,-99.01"/>
<text xml:space="preserve" text-anchor="middle" x="524.38" y="-85.51" font-family="Helvetica,sans-Serif" font-size="10.00">xpath_parser::parse_step</text>
</a>
</g>
</g>
<!-- Node4&#45;&gt;Node10 -->
<g id="edge13_Node000004_Node000010" class="edge">
<title>Node4&#45;&gt;Node10</title>
<g id="a_edge13_Node000004_Node000010"><a xlink:title=" ">
<path fill="none" stroke="#63b8ff" d="M614.25,-118.99C594.4,-112.29 573.09,-105.1 556.31,-99.44"/>
<polygon fill="#63b8ff" stroke="#63b8ff" points="613.05,-122.28 623.65,-122.16 615.29,-115.64 613.05,-122.28"/>
</a>
</g>
</g>
<!-- Node6 -->
<g id="Node000006" class="node">
<title>Node6</title>
<g id="a_Node000006"><a xlink:href="structxpath__parser.html#aad773be8b591966eb535018fcc2b6a66" target="_top" xlink:title=" ">
<polygon fill="white" stroke="#666666" points="418.5,-284.01 316.25,-284.01 316.25,-264.01 418.5,-264.01 418.5,-284.01"/>
<text xml:space="preserve" text-anchor="middle" x="367.38" y="-270.51" font-family="Helvetica,sans-Serif" font-size="10.00">xpath_parser::parse</text>
</a>
</g>
</g>
<!-- Node5&#45;&gt;Node6 -->
<g id="edge5_Node000005_Node000006" class="edge">
<title>Node5&#45;&gt;Node6</title>
<g id="a_edge5_Node000005_Node000006"><a xlink:title=" ">
<path fill="none" stroke="#63b8ff" d="M461.85,-274.01C447.63,-274.01 432.67,-274.01 418.98,-274.01"/>
<polygon fill="#63b8ff" stroke="#63b8ff" points="461.54,-277.51 471.54,-274.01 461.54,-270.51 461.54,-277.51"/>
</a>
</g>
</g>
<!-- Node7&#45;&gt;Node8 -->
<g id="edge7_Node000007_Node000008" class="edge">
<title>Node7&#45;&gt;Node8</title>
<g id="a_edge7_Node000007_Node000008"><a xlink:title=" ">
<path fill="none" stroke="#63b8ff" d="M304.67,-186.94C265.79,-182.66 214.88,-175.08 171.25,-162.01 145.91,-154.42 118.75,-141.77 98.75,-131.5"/>
<polygon fill="#63b8ff" stroke="#63b8ff" points="303.99,-190.39 314.3,-187.95 304.72,-183.42 303.99,-190.39"/>
</a>
</g>
</g>
<!-- Node8&#45;&gt;Node3 -->
<g id="edge9_Node000008_Node000003" class="edge">
<title>Node8&#45;&gt;Node3</title>
<g id="a_edge9_Node000008_Node000003"><a xlink:title=" ">
<path fill="none" stroke="#63b8ff" d="M88.45,-89.89C107.23,-68.12 137.51,-37.83 171.25,-23.01 251.02,12.04 279.24,-4.01 366.38,-4.01 525.38,-4.01 525.38,-4.01 525.38,-4.01 614,-4.01 714.09,-34.79 769.4,-54.62"/>
<polygon fill="#63b8ff" stroke="#63b8ff" points="85.84,-87.56 82.1,-97.48 91.21,-92.06 85.84,-87.56"/>
</a>
</g>
</g>
<!-- Node8&#45;&gt;Node4 -->
<g id="edge8_Node000008_Node000004" class="edge">
<title>Node8&#45;&gt;Node4</title>
<g id="a_edge8_Node000008_Node000004"><a xlink:title=" ">
<path fill="none" stroke="#63b8ff" d="M146.74,-122.82C272.76,-130.77 517.47,-140.23 623.08,-140.95"/>
<polygon fill="#63b8ff" stroke="#63b8ff" points="147,-119.33 136.8,-122.18 146.55,-126.31 147,-119.33"/>
</a>
</g>
</g>
<!-- Node9&#45;&gt;Node7 -->
<g id="edge12_Node000009_Node000007" class="edge">
<title>Node9&#45;&gt;Node7</title>
<g id="a_edge12_Node000009_Node000007"><a xlink:title=" ">
<path fill="none" stroke="#63b8ff" d="M459.68,-192.01C446.11,-192.01 431.96,-192.01 418.96,-192.01"/>
<polygon fill="#63b8ff" stroke="#63b8ff" points="459.39,-195.51 469.39,-192.01 459.39,-188.51 459.39,-195.51"/>
</a>
</g>
</g>
<!-- Node11 -->
<g id="Node000011" class="node">
<title>Node11</title>
<g id="a_Node000011"><a xlink:href="structxpath__parser.html#aebea559423376001c89b19216dfc3012" target="_top" xlink:title=" ">
<polygon fill="white" stroke="#666666" points="425.25,-102.01 309.5,-102.01 309.5,-70.01 425.25,-70.01 425.25,-102.01"/>
<text xml:space="preserve" text-anchor="start" x="317.5" y="-88.51" font-family="Helvetica,sans-Serif" font-size="10.00">xpath_parser::parse</text>
<text xml:space="preserve" text-anchor="middle" x="367.38" y="-76.51" font-family="Helvetica,sans-Serif" font-size="10.00">_relative_location_path</text>
</a>
</g>
</g>
<!-- Node10&#45;&gt;Node11 -->
<g id="edge14_Node000010_Node000011" class="edge">
<title>Node10&#45;&gt;Node11</title>
<g id="a_edge14_Node000010_Node000011"><a xlink:title=" ">
<path fill="none" stroke="#63b8ff" d="M449.53,-87.58C441.52,-87.43 433.46,-87.27 425.7,-87.12"/>
<polygon fill="#63b8ff" stroke="#63b8ff" points="449.2,-91.08 459.26,-87.77 449.33,-84.08 449.2,-91.08"/>
</a>
</g>
</g>
<!-- Node11&#45;&gt;Node8 -->
<g id="edge17_Node000011_Node000008" class="edge">
<title>Node11&#45;&gt;Node8</title>
<g id="a_edge17_Node000011_Node000008"><a xlink:title=" ">
<path fill="none" stroke="#63b8ff" d="M297.93,-92.68C249.2,-97.42 184.04,-103.77 135.64,-108.49"/>
<polygon fill="#63b8ff" stroke="#63b8ff" points="298.2,-96.17 307.81,-91.72 297.52,-89.2 298.2,-96.17"/>
</a>
</g>
</g>
<!-- Node12 -->
<g id="Node000012" class="node">
<title>Node12</title>
<g id="a_Node000012"><a xlink:href="structxpath__parser.html#af14e396ddb7817998ec221eec6b781ab" target="_top" xlink:title=" ">
<polygon fill="white" stroke="#666666" points="273.5,-64.01 171.25,-64.01 171.25,-32.01 273.5,-32.01 273.5,-64.01"/>
<text xml:space="preserve" text-anchor="start" x="179.25" y="-50.51" font-family="Helvetica,sans-Serif" font-size="10.00">xpath_parser::parse</text>
<text xml:space="preserve" text-anchor="middle" x="222.38" y="-38.51" font-family="Helvetica,sans-Serif" font-size="10.00">_location_path</text>
</a>
</g>
</g>
<!-- Node11&#45;&gt;Node12 -->
<g id="edge15_Node000011_Node000012" class="edge">
<title>Node11&#45;&gt;Node12</title>
<g id="a_edge15_Node000011_Node000012"><a xlink:title=" ">
<path fill="none" stroke="#63b8ff" d="M298,-67.84C289.85,-65.68 281.64,-63.5 273.81,-61.41"/>
<polygon fill="#63b8ff" stroke="#63b8ff" points="297.01,-71.2 307.57,-70.39 298.81,-64.44 297.01,-71.2"/>
</a>
</g>
</g>
<!-- Node12&#45;&gt;Node8 -->
<g id="edge16_Node000012_Node000008" class="edge">
<title>Node12&#45;&gt;Node8</title>
<g id="a_edge16_Node000012_Node000008"><a xlink:title=" ">
<path fill="none" stroke="#63b8ff" d="M173.65,-68.94C151.89,-78.49 126.5,-89.63 106.14,-98.56"/>
<polygon fill="#63b8ff" stroke="#63b8ff" points="174.87,-72.23 182.62,-65.01 172.06,-65.82 174.87,-72.23"/>
</a>
</g>
</g>
</g>
</svg>
