<?xml version="1.0" encoding="UTF-8" standalone="no"?>
<!DOCTYPE svg PUBLIC "-//W3C//DTD SVG 1.1//EN"
 "http://www.w3.org/Graphics/SVG/1.1/DTD/svg11.dtd">
<!-- Generated by graphviz version 14.1.2 (20260124.0452)
 -->
<!-- Title: pugi::xml_node::insert_attribute_before Pages: 1 -->
<svg width="263pt" height="78pt"
 viewBox="0.00 0.00 263.00 78.00" xmlns="http://www.w3.org/2000/svg" xmlns:xlink="http://www.w3.org/1999/xlink">
<g id="graph0" class="graph" transform="scale(1 1) rotate(0) translate(4 74)">
<title>pugi::xml_node::insert_attribute_before</title>
<!-- Node1 -->
<g id="Node000001" class="node">
<title>Node1</title>
<g id="a_Node000001"><a xlink:title=" ">
<polygon fill="#999999" stroke="#666666" points="112,-48 0,-48 0,-16 112,-16 112,-48"/>
<text xml:space="preserve" text-anchor="start" x="8" y="-34.5" font-family="Helvetica,sans-Serif" font-size="10.00">pugi::xml_node::insert</text>
<text xml:space="preserve" text-anchor="middle" x="56" y="-22.5" font-family="Helvetica,sans-Serif" font-size="10.00">_attribute_before</text>
</a>
</g>
</g>
<!-- Node2 -->
<g id="Node000002" class="node">
<title>Node2</title>
<g id="a_Node000002"><a xlink:href="classpugi_1_1xml__attribute.html#a52ce5d48bd079978da1f98857674002e" target="_top" xlink:title=" ">
<polygon fill="white" stroke="#666666" points="249.5,-70 153.25,-70 153.25,-38 249.5,-38 249.5,-70"/>
<text xml:space="preserve" text-anchor="start" x="161.25" y="-56.5" font-family="Helvetica,sans-Serif" font-size="10.00">pugi::xml_attribute</text>
<text xml:space="preserve" text-anchor="middle" x="201.38" y="-44.5" font-family="Helvetica,sans-Serif" font-size="10.00">::set_name</text>
</a>
</g>
</g>
<!-- Node1&#45;&gt;Node2 -->
<g id="edge1_Node000001_Node000002" class="edge">
<title>Node1&#45;&gt;Node2</title>
<g id="a_edge1_Node000001_Node000002"><a xlink:title=" ">
<path fill="none" stroke="#63b8ff" d="M112.43,-40.51C122.06,-41.98 132.1,-43.52 141.81,-45.01"/>
<polygon fill="#63b8ff" stroke="#63b8ff" points="141.1,-48.45 151.52,-46.5 142.16,-41.53 141.1,-48.45"/>
</a>
</g>
</g>
<!-- Node3 -->
<g id="Node000003" class="node">
<title>Node3</title>
<g id="a_Node000003"><a xlink:href="classpugi_1_1xml__node.html#aa018a135915ec8b2e3388feab2a78cfe" target="_top" xlink:title=" ">
<polygon fill="white" stroke="#666666" points="254.75,-20 148,-20 148,0 254.75,0 254.75,-20"/>
<text xml:space="preserve" text-anchor="middle" x="201.38" y="-6.5" font-family="Helvetica,sans-Serif" font-size="10.00">pugi::xml_node::type</text>
</a>
</g>
</g>
<!-- Node1&#45;&gt;Node3 -->
<g id="edge2_Node000001_Node000003" class="edge">
<title>Node1&#45;&gt;Node3</title>
<g id="a_edge2_Node000001_Node000003"><a xlink:title=" ">
<path fill="none" stroke="#63b8ff" d="M112.43,-23.49C120.36,-22.28 128.57,-21.02 136.64,-19.78"/>
<polygon fill="#63b8ff" stroke="#63b8ff" points="137.06,-23.26 146.42,-18.28 136,-16.34 137.06,-23.26"/>
</a>
</g>
</g>
</g>
</svg>
