<?xml version="1.0" encoding="UTF-8" standalone="no"?>
<!DOCTYPE svg PUBLIC "-//W3C//DTD SVG 1.1//EN"
 "http://www.w3.org/Graphics/SVG/1.1/DTD/svg11.dtd">
<!-- Generated by graphviz version 14.1.2 (20260124.0452)
 -->
<!-- Title: pugi::xpath_variable_set::_assign Pages: 1 -->
<svg width="409pt" height="130pt"
 viewBox="0.00 0.00 409.00 130.00" xmlns="http://www.w3.org/2000/svg" xmlns:xlink="http://www.w3.org/1999/xlink">

<svg id="main" version="1.1" xmlns="http://www.w3.org/2000/svg" xmlns:xlink="http://www.w3.org/1999/xlink" xml:space="preserve">

<style type="text/css"><![CDATA[
.node, .edge {opacity: 0.7;}
.node.selected, .edge.selected {opacity: 1;}
.edge:hover path { stroke: red; }
.edge:hover polygon { stroke: red; fill: red; }
]]></style>
<script type="application/ecmascript" xlink:href="svg.min.js"/>
<svg id="graph" class="graph">
<g id="graph0" class="graph" transform="scale(1 1) rotate(0) translate(4 126)">
<title>pugi::xpath_variable_set::_assign</title>
<!-- Node1 -->
<g id="Node000001" class="node">
<title>Node1</title>
<g id="a_Node000001"><a xlink:title=" ">
<polygon fill="#999999" stroke="#666666" points="103,-54 0,-54 0,-22 103,-22 103,-54"/>
<text xml:space="preserve" text-anchor="start" x="8" y="-40.5" font-family="Helvetica,sans-Serif" font-size="10.00">pugi::xpath_variable</text>
<text xml:space="preserve" text-anchor="middle" x="51.5" y="-28.5" font-family="Helvetica,sans-Serif" font-size="10.00">_set::_assign</text>
</a>
</g>
</g>
<!-- Node2 -->
<g id="Node000002" class="node">
<title>Node2</title>
<g id="a_Node000002"><a xlink:href="classpugi_1_1xpath__variable__set.html#a000081f39c2d0d2f2ac6954affadb42d" target="_top" xlink:title=" ">
<polygon fill="white" stroke="#666666" points="242,-104 139,-104 139,-72 242,-72 242,-104"/>
<text xml:space="preserve" text-anchor="start" x="147" y="-90.5" font-family="Helvetica,sans-Serif" font-size="10.00">pugi::xpath_variable</text>
<text xml:space="preserve" text-anchor="middle" x="190.5" y="-78.5" font-family="Helvetica,sans-Serif" font-size="10.00">_set::_clone</text>
</a>
</g>
</g>
<!-- Node1&#45;&gt;Node2 -->
<g id="edge1_Node000001_Node000002" class="edge">
<title>Node1&#45;&gt;Node2</title>
<g id="a_edge1_Node000001_Node000002"><a xlink:title=" ">
<path fill="none" stroke="#63b8ff" d="M97.36,-54.37C109.07,-58.65 121.83,-63.3 134.02,-67.75"/>
<polygon fill="#63b8ff" stroke="#63b8ff" points="132.52,-70.93 143.12,-71.07 134.92,-64.36 132.52,-70.93"/>
</a>
</g>
</g>
<!-- Node4 -->
<g id="Node000004" class="node">
<title>Node4</title>
<g id="a_Node000004"><a xlink:href="classpugi_1_1xpath__variable__set.html#a8e2710e1a74355d52da847428da8278d" target="_top" xlink:title=" ">
<polygon fill="white" stroke="#666666" points="242,-54 139,-54 139,-22 242,-22 242,-54"/>
<text xml:space="preserve" text-anchor="start" x="147" y="-40.5" font-family="Helvetica,sans-Serif" font-size="10.00">pugi::xpath_variable</text>
<text xml:space="preserve" text-anchor="middle" x="190.5" y="-28.5" font-family="Helvetica,sans-Serif" font-size="10.00">_set::_swap</text>
</a>
</g>
</g>
<!-- Node1&#45;&gt;Node4 -->
<g id="edge4_Node000001_Node000004" class="edge">
<title>Node1&#45;&gt;Node4</title>
<g id="a_edge4_Node000001_Node000004"><a xlink:title=" ">
<path fill="none" stroke="#63b8ff" d="M103.12,-38C111,-38 119.21,-38 127.31,-38"/>
<polygon fill="#63b8ff" stroke="#63b8ff" points="127.11,-41.5 137.11,-38 127.11,-34.5 127.11,-41.5"/>
</a>
</g>
</g>
<!-- Node5 -->
<g id="Node000005" class="node">
<title>Node5</title>
<g id="a_Node000005"><a xlink:href="classpugi_1_1xpath__variable__set.html#a0a5b49c6ea48ddda64b805e54bad9f11" target="_top" xlink:title=" ">
<polygon fill="white" stroke="#666666" points="400.5,-32 278,-32 278,0 400.5,0 400.5,-32"/>
<text xml:space="preserve" text-anchor="start" x="286" y="-18.5" font-family="Helvetica,sans-Serif" font-size="10.00">pugi::xpath_variable</text>
<text xml:space="preserve" text-anchor="middle" x="339.25" y="-6.5" font-family="Helvetica,sans-Serif" font-size="10.00">_set::xpath_variable_set</text>
</a>
</g>
</g>
<!-- Node1&#45;&gt;Node5 -->
<g id="edge6_Node000001_Node000005" class="edge">
<title>Node1&#45;&gt;Node5</title>
<g id="a_edge6_Node000001_Node000005"><a xlink:title=" ">
<path fill="none" stroke="#63b8ff" d="M100.47,-21.54C112.87,-18.01 126.31,-14.8 139,-13 180.91,-7.07 228.27,-7.49 266.3,-9.55"/>
<polygon fill="#63b8ff" stroke="#63b8ff" points="266.08,-13.04 276.27,-10.14 266.5,-6.05 266.08,-13.04"/>
</a>
</g>
</g>
<!-- Node3 -->
<g id="Node000003" class="node">
<title>Node3</title>
<g id="a_Node000003"><a xlink:href="classpugi_1_1xpath__variable.html#ac25b014df004e0c6eb1149e1d54a1605" target="_top" xlink:title=" ">
<polygon fill="white" stroke="#666666" points="390.75,-104 287.75,-104 287.75,-72 390.75,-72 390.75,-104"/>
<text xml:space="preserve" text-anchor="start" x="295.75" y="-90.5" font-family="Helvetica,sans-Serif" font-size="10.00">pugi::xpath_variable</text>
<text xml:space="preserve" text-anchor="middle" x="339.25" y="-78.5" font-family="Helvetica,sans-Serif" font-size="10.00">::name</text>
</a>
</g>
</g>
<!-- Node2&#45;&gt;Node3 -->
<g id="edge2_Node000002_Node000003" class="edge">
<title>Node2&#45;&gt;Node3</title>
<g id="a_edge2_Node000002_Node000003"><a xlink:title=" ">
<path fill="none" stroke="#63b8ff" d="M242.41,-88C253.23,-88 264.76,-88 275.94,-88"/>
<polygon fill="#63b8ff" stroke="#63b8ff" points="275.91,-91.5 285.91,-88 275.91,-84.5 275.91,-91.5"/>
</a>
</g>
</g>
<!-- Node3&#45;&gt;Node3 -->
<g id="edge3_Node000003_Node000003" class="edge">
<title>Node3&#45;&gt;Node3</title>
<g id="a_edge3_Node000003_Node000003"><a xlink:title=" ">
<path fill="none" stroke="#63b8ff" d="M312.69,-104.44C307.74,-113.58 316.59,-122 339.25,-122 351.64,-122 359.91,-119.48 364.04,-115.71"/>
<polygon fill="#63b8ff" stroke="#63b8ff" points="367.48,-116.36 365.57,-105.94 360.56,-115.27 367.48,-116.36"/>
</a>
</g>
</g>
<!-- Node4&#45;&gt;Node5 -->
<g id="edge5_Node000004_Node000005" class="edge">
<title>Node4&#45;&gt;Node5</title>
<g id="a_edge5_Node000004_Node000005"><a xlink:title=" ">
<path fill="none" stroke="#63b8ff" d="M242.41,-30.37C250.12,-29.21 258.2,-28 266.25,-26.79"/>
<polygon fill="#63b8ff" stroke="#63b8ff" points="266.71,-30.26 276.08,-25.32 265.67,-23.34 266.71,-30.26"/>
</a>
</g>
</g>
</g>
</svg>
</svg>

<style type='text/css'>
<![CDATA[
[data-mouse-over-selected='false'] { opacity: 0.7; }
[data-mouse-over-selected='true']  { opacity: 1.0; }
]]>
</style>
<script type="application/ecmascript"><![CDATA[
document.addEventListener('DOMContentLoaded', (event) => {
  highlightEdges();
  highlightAdjacentNodes();
});
]]></script>
</svg>
