<?xml version="1.0" encoding="UTF-8" standalone="no"?>
<!DOCTYPE svg PUBLIC "-//W3C//DTD SVG 1.1//EN"
 "http://www.w3.org/Graphics/SVG/1.1/DTD/svg11.dtd">
<!-- Generated by graphviz version 14.1.2 (20260124.0452)
 -->
<!-- Title: xpath_ast_node::eval_once Pages: 1 -->
<!--zoomable 268 -->

<svg id="main" version="1.1" xmlns="http://www.w3.org/2000/svg" xmlns:xlink="http://www.w3.org/1999/xlink" xml:space="preserve" onload="init(evt)">

<style type="text/css"><![CDATA[
.node, .edge {opacity: 0.7;}
.node.selected, .edge.selected {opacity: 1;}
.edge:hover path { stroke: red; }
.edge:hover polygon { stroke: red; fill: red; }
]]></style>

<defs>
  <circle id="rim" cx="0" cy="0" r="7"/>
  <circle id="rim2" cx="0" cy="0" r="3.5"/>
  <g id="zoomPlus">
    <use xlink:href="#rim" fill="#404040"><set attributeName="fill" to="#808080" begin="zoomplus.mouseover" end="zoomplus.mouseout"/></use>
    <path d="M-4,0h8M0,-4v8" fill="none" stroke="white" stroke-width="1.5" pointer-events="none"/>
  </g>
  <g id="zoomMin">
    <use xlink:href="#rim" fill="#404040"><set attributeName="fill" to="#808080" begin="zoomminus.mouseover" end="zoomminus.mouseout"/></use>
    <path d="M-4,0h8" fill="none" stroke="white" stroke-width="1.5" pointer-events="none"/>
  </g>
  <g id="arrowUp" transform="translate(30 24)">
    <use xlink:href="#rim"/>
    <path pointer-events="none" fill="none" stroke="white" stroke-width="1.5" d="M0,-3.0v7 M-2.5,-0.5L0,-3.0L2.5,-0.5"/>
  </g>
  <g id="arrowRight" transform="rotate(90) translate(36 -43)">
    <use xlink:href="#rim"/>
    <path pointer-events="none" fill="none" stroke="white" stroke-width="1.5" d="M0,-3.0v7 M-2.5,-0.5L0,-3.0L2.5,-0.5"/>
  </g>
  <g id="arrowDown" transform="rotate(180) translate(-30 -48)">
    <use xlink:href="#rim"/>
    <path pointer-events="none" fill="none" stroke="white" stroke-width="1.5" d="M0,-3.0v7 M-2.5,-0.5L0,-3.0L2.5,-0.5"/>
  </g>
  <g id="arrowLeft" transform="rotate(270) translate(-36 17)">
    <use xlink:href="#rim"/>
    <path pointer-events="none" fill="none" stroke="white" stroke-width="1.5" d="M0,-3.0v7 M-2.5,-0.5L0,-3.0L2.5,-0.5"/>
  </g>
  <g id="resetDef">
    <use xlink:href="#rim2" fill="#404040"><set attributeName="fill" to="#808080" begin="reset.mouseover" end="reset.mouseout"/></use>
  </g>
</defs>
<script type="application/ecmascript">
var viewWidth = 1551;
var viewHeight = 268;
var sectionId = 'dynsection-26';
</script>
<script type="application/ecmascript" xlink:href="svg.min.js"/>
<svg id="graph" class="graph">
<g id="viewport">
<title>xpath_ast_node::eval_once</title>
<!-- Node1 -->
<g id="Node000001" class="node">
<title>Node1</title>
<g id="a_Node000001"><a xlink:title=" ">
<polygon fill="#999999" stroke="#666666" points="1543,-137.41 1407.75,-137.41 1407.75,-117.41 1543,-117.41 1543,-137.41"/>
<text xml:space="preserve" text-anchor="middle" x="1475.38" y="-123.91" font-family="Helvetica,sans-Serif" font-size="10.00">xpath_ast_node::eval_once</text>
</a>
</g>
</g>
<!-- Node2 -->
<g id="Node000002" class="node">
<title>Node2</title>
<g id="a_Node000002"><a xlink:href="classxpath__ast__node.html#af025a480dab7dd0bab21157fb9dd3e73" target="_top" xlink:title=" ">
<polygon fill="white" stroke="#666666" points="1371.75,-187.41 1257.5,-187.41 1257.5,-155.41 1371.75,-155.41 1371.75,-187.41"/>
<text xml:space="preserve" text-anchor="start" x="1265.5" y="-173.91" font-family="Helvetica,sans-Serif" font-size="10.00">xpath_ast_node::apply</text>
<text xml:space="preserve" text-anchor="middle" x="1314.62" y="-161.91" font-family="Helvetica,sans-Serif" font-size="10.00">_predicates</text>
</a>
</g>
</g>
<!-- Node1&#45;&gt;Node2 -->
<g id="edge1_Node000001_Node000002" class="edge">
<title>Node1&#45;&gt;Node2</title>
<g id="a_edge1_Node000001_Node000002"><a xlink:title=" ">
<path fill="none" stroke="#63b8ff" d="M1425.97,-140.83C1409.01,-145.53 1389.81,-150.85 1372.24,-155.72"/>
<polygon fill="#63b8ff" stroke="#63b8ff" points="1426.59,-144.29 1435.29,-138.24 1424.72,-137.54 1426.59,-144.29"/>
</a>
</g>
</g>
<!-- Node3 -->
<g id="Node000003" class="node">
<title>Node3</title>
<g id="a_Node000003"><a xlink:href="classxpath__ast__node.html#a3258c05ab9aaa78e154d2ff63fe56906" target="_top" xlink:title=" ">
<polygon fill="white" stroke="#666666" points="1221.5,-137.41 1096,-137.41 1096,-117.41 1221.5,-117.41 1221.5,-137.41"/>
<text xml:space="preserve" text-anchor="middle" x="1158.75" y="-123.91" font-family="Helvetica,sans-Serif" font-size="10.00">xpath_ast_node::step_do</text>
</a>
</g>
</g>
<!-- Node1&#45;&gt;Node3 -->
<g id="edge28_Node000001_Node000003" class="edge">
<title>Node1&#45;&gt;Node3</title>
<g id="a_edge28_Node000001_Node000003"><a xlink:title=" ">
<path fill="none" stroke="#63b8ff" d="M1396.06,-127.41C1342.28,-127.41 1271.88,-127.41 1221.95,-127.41"/>
<polygon fill="#63b8ff" stroke="#63b8ff" points="1395.75,-130.91 1405.75,-127.41 1395.75,-123.91 1395.75,-130.91"/>
</a>
</g>
</g>
<!-- Node4 -->
<g id="Node000004" class="node">
<title>Node4</title>
<g id="a_Node000004"><a xlink:href="classxpath__ast__node.html#a68cace396dd4eeae67ecfcd34a3a8285" target="_top" xlink:title=" ">
<polygon fill="white" stroke="#666666" points="1060,-124.41 951,-124.41 951,-92.41 1060,-92.41 1060,-124.41"/>
<text xml:space="preserve" text-anchor="start" x="959" y="-110.91" font-family="Helvetica,sans-Serif" font-size="10.00">xpath_ast_node::eval</text>
<text xml:space="preserve" text-anchor="middle" x="1005.5" y="-98.91" font-family="Helvetica,sans-Serif" font-size="10.00">_node_set</text>
</a>
</g>
</g>
<!-- Node1&#45;&gt;Node4 -->
<g id="edge27_Node000001_Node000004" class="edge">
<title>Node1&#45;&gt;Node4</title>
<g id="a_edge27_Node000001_Node000004"><a xlink:title=" ">
<path fill="none" stroke="#63b8ff" d="M1396.01,-120C1346.11,-115.66 1280.07,-110.61 1221.5,-108.41 1166.67,-106.35 1103.92,-106.66 1060.42,-107.29"/>
<polygon fill="#63b8ff" stroke="#63b8ff" points="1395.59,-123.48 1405.86,-120.87 1396.21,-116.5 1395.59,-123.48"/>
</a>
</g>
</g>
<!-- Node2&#45;&gt;Node3 -->
<g id="edge2_Node000002_Node000003" class="edge">
<title>Node2&#45;&gt;Node3</title>
<g id="a_edge2_Node000002_Node000003"><a xlink:title=" ">
<path fill="none" stroke="#63b8ff" d="M1246.52,-152.22C1229.18,-147.26 1211.16,-142.11 1196.07,-137.8"/>
<polygon fill="#63b8ff" stroke="#63b8ff" points="1245.17,-155.48 1255.75,-154.86 1247.09,-148.75 1245.17,-155.48"/>
</a>
</g>
</g>
<!-- Node3&#45;&gt;Node4 -->
<g id="edge3_Node000003_Node000004" class="edge">
<title>Node3&#45;&gt;Node4</title>
<g id="a_edge3_Node000003_Node000004"><a xlink:title=" ">
<path fill="none" stroke="#63b8ff" d="M1084.4,-118.2C1076.3,-117.18 1068.17,-116.16 1060.37,-115.18"/>
<polygon fill="#63b8ff" stroke="#63b8ff" points="1083.93,-121.67 1094.29,-119.44 1084.81,-114.72 1083.93,-121.67"/>
</a>
</g>
</g>
<!-- Node5 -->
<g id="Node000005" class="node">
<title>Node5</title>
<g id="a_Node000005"><a xlink:href="classxpath__ast__node.html#a98dd7f6e67fe2c56c63056eed835d6a4" target="_top" xlink:title=" ">
<polygon fill="white" stroke="#666666" points="915,-80.41 770.75,-80.41 770.75,-60.41 915,-60.41 915,-80.41"/>
<text xml:space="preserve" text-anchor="middle" x="842.88" y="-66.91" font-family="Helvetica,sans-Serif" font-size="10.00">xpath_ast_node::compare_eq</text>
</a>
</g>
</g>
<!-- Node4&#45;&gt;Node5 -->
<g id="edge4_Node000004_Node000005" class="edge">
<title>Node4&#45;&gt;Node5</title>
<g id="a_edge4_Node000004_Node000005"><a xlink:title=" ">
<path fill="none" stroke="#63b8ff" d="M939.4,-93.01C922.14,-88.93 903.91,-84.61 888.05,-80.86"/>
<polygon fill="#63b8ff" stroke="#63b8ff" points="938.56,-96.41 949.09,-95.3 940.17,-89.59 938.56,-96.41"/>
</a>
</g>
</g>
<!-- Node6 -->
<g id="Node000006" class="node">
<title>Node6</title>
<g id="a_Node000006"><a xlink:href="classxpath__ast__node.html#ab7f965a92023bc2704b8e6fd9f3d7c14" target="_top" xlink:title=" ">
<polygon fill="white" stroke="#666666" points="734.75,-105.41 625.75,-105.41 625.75,-73.41 734.75,-73.41 734.75,-105.41"/>
<text xml:space="preserve" text-anchor="start" x="633.75" y="-91.91" font-family="Helvetica,sans-Serif" font-size="10.00">xpath_ast_node::eval</text>
<text xml:space="preserve" text-anchor="middle" x="680.25" y="-79.91" font-family="Helvetica,sans-Serif" font-size="10.00">_boolean</text>
</a>
</g>
</g>
<!-- Node4&#45;&gt;Node6 -->
<g id="edge25_Node000004_Node000006" class="edge">
<title>Node4&#45;&gt;Node6</title>
<g id="a_edge25_Node000004_Node000006"><a xlink:title=" ">
<path fill="none" stroke="#63b8ff" d="M939.52,-104.59C879.48,-101.06 791.33,-95.88 735.12,-92.58"/>
<polygon fill="#63b8ff" stroke="#63b8ff" points="939.06,-108.07 949.25,-105.16 939.47,-101.08 939.06,-108.07"/>
</a>
</g>
</g>
<!-- Node12 -->
<g id="Node000012" class="node">
<title>Node12</title>
<g id="a_Node000012"><a xlink:href="classxpath__ast__node.html#abb6e4c529276eaf882233dbb6e04e111" target="_top" xlink:title=" ">
<polygon fill="white" stroke="#666666" points="294.5,-150.41 150.25,-150.41 150.25,-130.41 294.5,-130.41 294.5,-150.41"/>
<text xml:space="preserve" text-anchor="middle" x="222.38" y="-136.91" font-family="Helvetica,sans-Serif" font-size="10.00">xpath_ast_node::compare_rel</text>
</a>
</g>
</g>
<!-- Node4&#45;&gt;Node12 -->
<g id="edge24_Node000004_Node000012" class="edge">
<title>Node4&#45;&gt;Node12</title>
<g id="a_edge24_Node000004_Node000012"><a xlink:title=" ">
<path fill="none" stroke="#63b8ff" d="M968.11,-130.42C909.77,-163.55 790.72,-222.41 681.25,-222.41 681.25,-222.41 681.25,-222.41 534.25,-222.41 443.3,-222.41 417.05,-231.35 330.5,-203.41 293.75,-191.54 256.02,-165.47 236.64,-150.86"/>
<polygon fill="#63b8ff" stroke="#63b8ff" points="969.73,-133.53 976.64,-125.5 966.23,-127.46 969.73,-133.53"/>
</a>
</g>
</g>
<!-- Node13 -->
<g id="Node000013" class="node">
<title>Node13</title>
<g id="a_Node000013"><a xlink:href="classxpath__ast__node.html#a6b675237a590548b68d0e0b97518b6df" target="_top" xlink:title=" ">
<polygon fill="white" stroke="#666666" points="589.75,-52.41 480.75,-52.41 480.75,-20.41 589.75,-20.41 589.75,-52.41"/>
<text xml:space="preserve" text-anchor="start" x="488.75" y="-38.91" font-family="Helvetica,sans-Serif" font-size="10.00">xpath_ast_node::eval</text>
<text xml:space="preserve" text-anchor="middle" x="535.25" y="-26.91" font-family="Helvetica,sans-Serif" font-size="10.00">_string</text>
</a>
</g>
</g>
<!-- Node4&#45;&gt;Node13 -->
<g id="edge26_Node000004_Node000013" class="edge">
<title>Node4&#45;&gt;Node13</title>
<g id="a_edge26_Node000004_Node000013"><a xlink:title=" ">
<path fill="none" stroke="#63b8ff" d="M976.7,-85.35C959.93,-72.88 937.51,-58.58 915,-51.41 803.86,-16 665.05,-22.43 590.17,-29.74"/>
<polygon fill="#63b8ff" stroke="#63b8ff" points="974.14,-87.8 984.2,-91.12 978.4,-82.25 974.14,-87.8"/>
</a>
</g>
</g>
<!-- Node5&#45;&gt;Node6 -->
<g id="edge5_Node000005_Node000006" class="edge">
<title>Node5&#45;&gt;Node6</title>
<g id="a_edge5_Node000005_Node000006"><a xlink:title=" ">
<path fill="none" stroke="#63b8ff" d="M759.29,-73.43C751.07,-74.42 742.88,-75.5 735.06,-76.63"/>
<polygon fill="#63b8ff" stroke="#63b8ff" points="759.45,-76.94 768.98,-72.32 758.65,-69.98 759.45,-76.94"/>
</a>
</g>
</g>
<!-- Node6&#45;&gt;Node5 -->
<g id="edge9_Node000006_Node000005" class="edge">
<title>Node6&#45;&gt;Node5</title>
<g id="a_edge9_Node000006_Node000005"><a xlink:title=" ">
<path fill="none" stroke="#63b8ff" d="M746.65,-88.32C765.78,-86.33 786.07,-83.67 802.99,-80.89"/>
<polygon fill="#63b8ff" stroke="#63b8ff" points="746.37,-84.83 736.76,-89.29 747.05,-91.8 746.37,-84.83"/>
</a>
</g>
</g>
<!-- Node7 -->
<g id="Node000007" class="node">
<title>Node7</title>
<g id="a_Node000007"><a xlink:href="classxpath__ast__node.html#ab4e5bbd3f2e83c86a43349374b4bfc22" target="_top" xlink:title=" ">
<polygon fill="white" stroke="#666666" points="444.75,-194.41 330.5,-194.41 330.5,-162.41 444.75,-162.41 444.75,-194.41"/>
<text xml:space="preserve" text-anchor="start" x="338.5" y="-180.91" font-family="Helvetica,sans-Serif" font-size="10.00">xpath_ast_node::apply</text>
<text xml:space="preserve" text-anchor="middle" x="387.62" y="-168.91" font-family="Helvetica,sans-Serif" font-size="10.00">_predicate_boolean</text>
</a>
</g>
</g>
<!-- Node6&#45;&gt;Node7 -->
<g id="edge6_Node000006_Node000007" class="edge">
<title>Node6&#45;&gt;Node7</title>
<g id="a_edge6_Node000006_Node000007"><a xlink:title=" ">
<path fill="none" stroke="#63b8ff" d="M652.1,-112.82C635.26,-126.03 612.55,-141.61 589.75,-150.41 543.05,-168.43 486.27,-175.08 444.97,-177.42"/>
<polygon fill="#63b8ff" stroke="#63b8ff" points="654.06,-115.74 659.64,-106.73 649.66,-110.29 654.06,-115.74"/>
</a>
</g>
</g>
<!-- Node9 -->
<g id="Node000009" class="node">
<title>Node9</title>
<g id="a_Node000009"><a xlink:href="classxpath__ast__node.html#a92dd7048e28d486bc7f382d1fc6f1de6" target="_top" xlink:title=" ">
<polygon fill="white" stroke="#666666" points="442.12,-84.41 333.12,-84.41 333.12,-52.41 442.12,-52.41 442.12,-84.41"/>
<text xml:space="preserve" text-anchor="start" x="341.12" y="-70.91" font-family="Helvetica,sans-Serif" font-size="10.00">xpath_ast_node::eval</text>
<text xml:space="preserve" text-anchor="middle" x="387.62" y="-58.91" font-family="Helvetica,sans-Serif" font-size="10.00">_number</text>
</a>
</g>
</g>
<!-- Node6&#45;&gt;Node9 -->
<g id="edge10_Node000006_Node000009" class="edge">
<title>Node6&#45;&gt;Node9</title>
<g id="a_edge10_Node000006_Node000009"><a xlink:title=" ">
<path fill="none" stroke="#63b8ff" d="M613.88,-78.94C562.14,-73.75 490.76,-68.71 442.32,-66.91"/>
<polygon fill="#63b8ff" stroke="#63b8ff" points="613.45,-82.42 623.76,-79.97 614.18,-75.45 613.45,-82.42"/>
</a>
</g>
</g>
<!-- Node6&#45;&gt;Node13 -->
<g id="edge23_Node000006_Node000013" class="edge">
<title>Node6&#45;&gt;Node13</title>
<g id="a_edge23_Node000006_Node000013"><a xlink:title=" ">
<path fill="none" stroke="#63b8ff" d="M639.78,-68.67C624.42,-62.32 606.57,-55.56 590.07,-49.79"/>
<polygon fill="#63b8ff" stroke="#63b8ff" points="638,-71.72 648.57,-72.4 640.73,-65.27 638,-71.72"/>
</a>
</g>
</g>
<!-- Node8 -->
<g id="Node000008" class="node">
<title>Node8</title>
<g id="a_Node000008"><a xlink:href="classxpath__ast__node.html#a7e35f265c9e0712a16e1d8a9db4c7672" target="_top" xlink:title=" ">
<polygon fill="white" stroke="#666666" points="114.25,-153.41 0,-153.41 0,-121.41 114.25,-121.41 114.25,-153.41"/>
<text xml:space="preserve" text-anchor="start" x="8" y="-139.91" font-family="Helvetica,sans-Serif" font-size="10.00">xpath_ast_node::apply</text>
<text xml:space="preserve" text-anchor="middle" x="57.12" y="-127.91" font-family="Helvetica,sans-Serif" font-size="10.00">_predicate</text>
</a>
</g>
</g>
<!-- Node7&#45;&gt;Node8 -->
<g id="edge7_Node000007_Node000008" class="edge">
<title>Node7&#45;&gt;Node8</title>
<g id="a_edge7_Node000007_Node000008"><a xlink:title=" ">
<path fill="none" stroke="#63b8ff" d="M319.09,-175.75C271.63,-173.21 206.78,-168.38 150.25,-159.41 138.56,-157.56 126.15,-155 114.37,-152.29"/>
<polygon fill="#63b8ff" stroke="#63b8ff" points="318.78,-179.24 328.95,-176.26 319.14,-172.25 318.78,-179.24"/>
</a>
</g>
</g>
<!-- Node8&#45;&gt;Node4 -->
<g id="edge8_Node000008_Node000004" class="edge">
<title>Node8&#45;&gt;Node4</title>
<g id="a_edge8_Node000008_Node000004"><a xlink:title=" ">
<path fill="none" stroke="#63b8ff" d="M92.68,-159.79C150.86,-195.26 273.16,-260.41 386.62,-260.41 681.25,-260.41 681.25,-260.41 681.25,-260.41 788.73,-260.41 821.93,-252.16 915,-198.41 948.01,-179.35 977.28,-144.95 992.79,-124.65"/>
<polygon fill="#63b8ff" stroke="#63b8ff" points="94.54,-156.83 84.19,-154.54 90.85,-162.78 94.54,-156.83"/>
</a>
</g>
</g>
<!-- Node9&#45;&gt;Node5 -->
<g id="edge15_Node000009_Node000005" class="edge">
<title>Node9&#45;&gt;Node5</title>
<g id="a_edge15_Node000009_Node000005"><a xlink:title=" ">
<path fill="none" stroke="#63b8ff" d="M416.88,-45.17C434.17,-32.49 457.4,-18.05 480.75,-11.41 606.01,24.21 762.23,-35.05 819.5,-60.08"/>
<polygon fill="#63b8ff" stroke="#63b8ff" points="414.97,-42.22 409.13,-51.06 419.21,-47.8 414.97,-42.22"/>
</a>
</g>
</g>
<!-- Node9&#45;&gt;Node6 -->
<g id="edge18_Node000009_Node000006" class="edge">
<title>Node9&#45;&gt;Node6</title>
<g id="a_edge18_Node000009_Node000006"><a xlink:title=" ">
<path fill="none" stroke="#63b8ff" d="M453.68,-78.85C505.35,-84.04 576.74,-89.08 625.27,-90.9"/>
<polygon fill="#63b8ff" stroke="#63b8ff" points="454.13,-75.38 443.82,-77.82 453.41,-82.34 454.13,-75.38"/>
</a>
</g>
</g>
<!-- Node10 -->
<g id="Node000010" class="node">
<title>Node10</title>
<g id="a_Node000010"><a xlink:href="classxpath__ast__node.html#abf2d4b745493f63aebc1c89d9fde8eed" target="_top" xlink:title=" ">
<polygon fill="white" stroke="#666666" points="279.5,-62.41 165.25,-62.41 165.25,-30.41 279.5,-30.41 279.5,-62.41"/>
<text xml:space="preserve" text-anchor="start" x="173.25" y="-48.91" font-family="Helvetica,sans-Serif" font-size="10.00">xpath_ast_node::apply</text>
<text xml:space="preserve" text-anchor="middle" x="222.38" y="-36.91" font-family="Helvetica,sans-Serif" font-size="10.00">_predicate_number</text>
</a>
</g>
</g>
<!-- Node9&#45;&gt;Node10 -->
<g id="edge11_Node000009_Node000010" class="edge">
<title>Node9&#45;&gt;Node10</title>
<g id="a_edge11_Node000009_Node000010"><a xlink:title=" ">
<path fill="none" stroke="#63b8ff" d="M321.34,-59.61C307.57,-57.76 293.15,-55.81 279.74,-54.01"/>
<polygon fill="#63b8ff" stroke="#63b8ff" points="320.84,-63.08 331.22,-60.94 321.78,-56.14 320.84,-63.08"/>
</a>
</g>
</g>
<!-- Node11 -->
<g id="Node000011" class="node">
<title>Node11</title>
<g id="a_Node000011"><a xlink:href="classxpath__ast__node.html#a8cedd7e15623b9fa431788b8843f1463" target="_top" xlink:title=" ">
<polygon fill="white" stroke="#666666" points="286.25,-112.41 158.5,-112.41 158.5,-80.41 286.25,-80.41 286.25,-112.41"/>
<text xml:space="preserve" text-anchor="start" x="166.5" y="-98.91" font-family="Helvetica,sans-Serif" font-size="10.00">xpath_ast_node::apply</text>
<text xml:space="preserve" text-anchor="middle" x="222.38" y="-86.91" font-family="Helvetica,sans-Serif" font-size="10.00">_predicate_number_const</text>
</a>
</g>
</g>
<!-- Node9&#45;&gt;Node11 -->
<g id="edge13_Node000009_Node000011" class="edge">
<title>Node9&#45;&gt;Node11</title>
<g id="a_edge13_Node000009_Node000011"><a xlink:title=" ">
<path fill="none" stroke="#63b8ff" d="M321.42,-79.59C309.94,-81.56 298,-83.61 286.57,-85.57"/>
<polygon fill="#63b8ff" stroke="#63b8ff" points="321.96,-83.05 331.23,-77.91 320.78,-76.15 321.96,-83.05"/>
</a>
</g>
</g>
<!-- Node9&#45;&gt;Node12 -->
<g id="edge16_Node000009_Node000012" class="edge">
<title>Node9&#45;&gt;Node12</title>
<g id="a_edge16_Node000009_Node000012"><a xlink:title=" ">
<path fill="none" stroke="#63b8ff" d="M352.66,-90.8C335.72,-101.22 314.6,-113.11 294.5,-121.41 286.58,-124.68 277.94,-127.54 269.49,-129.98"/>
<polygon fill="#63b8ff" stroke="#63b8ff" points="354.22,-93.96 360.83,-85.68 350.5,-88.03 354.22,-93.96"/>
</a>
</g>
</g>
<!-- Node9&#45;&gt;Node13 -->
<g id="edge19_Node000009_Node000013" class="edge">
<title>Node9&#45;&gt;Node13</title>
<g id="a_edge19_Node000009_Node000013"><a xlink:title=" ">
<path fill="none" stroke="#63b8ff" d="M453.6,-60.85C465.26,-58.39 477.19,-55.64 488.17,-52.86"/>
<polygon fill="#63b8ff" stroke="#63b8ff" points="453.12,-57.37 444.02,-62.8 454.52,-64.23 453.12,-57.37"/>
</a>
</g>
</g>
<!-- Node10&#45;&gt;Node8 -->
<g id="edge12_Node000010_Node000008" class="edge">
<title>Node10&#45;&gt;Node8</title>
<g id="a_edge12_Node000010_Node000008"><a xlink:title=" ">
<path fill="none" stroke="#63b8ff" d="M158.55,-67.37C155.71,-68.67 152.93,-70.01 150.25,-71.41 123.37,-85.4 95.49,-106.44 77.55,-120.99"/>
<polygon fill="#63b8ff" stroke="#63b8ff" points="159.78,-70.65 167.59,-63.5 157.02,-64.21 159.78,-70.65"/>
</a>
</g>
</g>
<!-- Node11&#45;&gt;Node8 -->
<g id="edge14_Node000011_Node000008" class="edge">
<title>Node11&#45;&gt;Node8</title>
<g id="a_edge14_Node000011_Node000008"><a xlink:title=" ">
<path fill="none" stroke="#63b8ff" d="M147.37,-115C136.39,-117.75 125.22,-120.56 114.68,-123.21"/>
<polygon fill="#63b8ff" stroke="#63b8ff" points="147.94,-118.46 156.79,-112.63 146.24,-111.67 147.94,-118.46"/>
</a>
</g>
</g>
<!-- Node12&#45;&gt;Node6 -->
<g id="edge17_Node000012_Node000006" class="edge">
<title>Node12&#45;&gt;Node6</title>
<g id="a_edge17_Node000012_Node000006"><a xlink:title=" ">
<path fill="none" stroke="#63b8ff" d="M305.88,-132.83C380.2,-125.76 492.42,-114.52 589.75,-102.41 601.28,-100.98 613.62,-99.28 625.34,-97.6"/>
<polygon fill="#63b8ff" stroke="#63b8ff" points="305.87,-129.31 296.24,-133.74 306.53,-136.28 305.87,-129.31"/>
</a>
</g>
</g>
<!-- Node13&#45;&gt;Node5 -->
<g id="edge20_Node000013_Node000005" class="edge">
<title>Node13&#45;&gt;Node5</title>
<g id="a_edge20_Node000013_Node000005"><a xlink:title=" ">
<path fill="none" stroke="#63b8ff" d="M601.17,-43.63C650.88,-49.16 719.39,-56.78 770.61,-62.48"/>
<polygon fill="#63b8ff" stroke="#63b8ff" points="601.75,-40.18 591.42,-42.55 600.97,-47.13 601.75,-40.18"/>
</a>
</g>
</g>
<!-- Node13&#45;&gt;Node6 -->
<g id="edge21_Node000013_Node000006" class="edge">
<title>Node13&#45;&gt;Node6</title>
<g id="a_edge21_Node000013_Node000006"><a xlink:title=" ">
<path fill="none" stroke="#63b8ff" d="M575.91,-57.22C591.27,-63.57 609.11,-70.33 625.6,-76.08"/>
<polygon fill="#63b8ff" stroke="#63b8ff" points="577.67,-54.17 567.1,-53.5 574.95,-60.62 577.67,-54.17"/>
</a>
</g>
</g>
<!-- Node13&#45;&gt;Node9 -->
<g id="edge22_Node000013_Node000009" class="edge">
<title>Node13&#45;&gt;Node9</title>
<g id="a_edge22_Node000013_Node000009"><a xlink:title=" ">
<path fill="none" stroke="#63b8ff" d="M469.32,-43.96C457.6,-46.43 445.6,-49.2 434.56,-51.99"/>
<polygon fill="#63b8ff" stroke="#63b8ff" points="469.86,-47.43 478.96,-42 468.46,-40.57 469.86,-47.43"/>
</a>
</g>
</g>
</g>
</svg>

<g id="navigator" transform="translate(0 0)" fill="#404254">
  <rect fill="#f2f5e9" fill-opacity="0.5" stroke="#606060" stroke-width=".5" x="0" y="0" width="60" height="60"/>
  <use id="zoomplus" xlink:href="#zoomPlus" x="17" y="9" onmousedown="handleZoom(evt,'in')"/>
  <use id="zoomminus" xlink:href="#zoomMin" x="42" y="9" onmousedown="handleZoom(evt,'out')"/>
  <use id="reset" xlink:href="#resetDef" x="30" y="36" onmousedown="handleReset()"/>
   <use id="arrowup" xlink:href="#arrowUp" x="0" y="0" onmousedown="handlePan(0,-1)"/>
  <use id="arrowright" xlink:href="#arrowRight" x="0" y="0" onmousedown="handlePan(1,0)"/>
  <use id="arrowdown" xlink:href="#arrowDown" x="0" y="0" onmousedown="handlePan(0,1)"/>
  <use id="arrowleft" xlink:href="#arrowLeft" x="0" y="0" onmousedown="handlePan(-1,0)"/>
</g>
<svg viewBox="0 0 15 15" width="100%" height="30px" preserveAspectRatio="xMaxYMin meet">
 <g id="arrow_out" transform="scale(0.3 0.3)">
  <a xlink:href="classxpath__ast__node_a35ad012fc33cf3dc51468a67c04aac54_icgraph_org.svg" target="_base">
   <rect id="button" ry="5" rx="5" y="6" x="6" height="38" width="38"
        fill="#f2f5e9" fill-opacity="0.5" stroke="#606060" stroke-width="1.0"/>
   <path id="arrow"
     d="M 11.500037,31.436501 C 11.940474,20.09759 22.043105,11.32322 32.158766,21.979434 L 37.068811,17.246167 C 37.068811,17.246167 37.088388,32 37.088388,32 L 22.160133,31.978069 C 22.160133,31.978069 26.997745,27.140456 26.997745,27.140456 C 18.528582,18.264221 13.291696,25.230495 11.500037,31.436501 z"
     style="fill:#404040;"/>
  </a>
 </g>
</svg>

<style type='text/css'>
<![CDATA[
[data-mouse-over-selected='false'] { opacity: 0.7; }
[data-mouse-over-selected='true']  { opacity: 1.0; }
]]>
</style>
<script type="application/ecmascript"><![CDATA[
document.addEventListener('DOMContentLoaded', (event) => {
  highlightEdges();
  highlightAdjacentNodes();
});
]]></script>
</svg>
