<?xml version="1.0" encoding="UTF-8" standalone="no"?>
<!DOCTYPE svg PUBLIC "-//W3C//DTD SVG 1.1//EN"
 "http://www.w3.org/Graphics/SVG/1.1/DTD/svg11.dtd">
<!-- Generated by graphviz version 14.1.2 (20260124.0452)
 -->
<!-- Title: pugi::xpath_variable_set::xpath_variable_set Pages: 1 -->
<svg width="567pt" height="125pt"
 viewBox="0.00 0.00 567.00 125.00" xmlns="http://www.w3.org/2000/svg" xmlns:xlink="http://www.w3.org/1999/xlink">
<g id="graph0" class="graph" transform="scale(1 1) rotate(0) translate(4 120.52)">
<title>pugi::xpath_variable_set::xpath_variable_set</title>
<!-- Node1 -->
<g id="Node000001" class="node">
<title>Node1</title>
<g id="a_Node000001"><a xlink:title=" ">
<polygon fill="#999999" stroke="#666666" points="559,-74 436.5,-74 436.5,-42 559,-42 559,-74"/>
<text xml:space="preserve" text-anchor="start" x="444.5" y="-60.5" font-family="Helvetica,sans-Serif" font-size="10.00">pugi::xpath_variable</text>
<text xml:space="preserve" text-anchor="middle" x="497.75" y="-48.5" font-family="Helvetica,sans-Serif" font-size="10.00">_set::xpath_variable_set</text>
</a>
</g>
</g>
<!-- Node2 -->
<g id="Node000002" class="node">
<title>Node2</title>
<g id="a_Node000002"><a xlink:href="classpugi_1_1xpath__variable__set.html#ab3e49071473758d442d5198cf31a5960" target="_top" xlink:title=" ">
<polygon fill="white" stroke="#666666" points="261.5,-77 158.5,-77 158.5,-45 261.5,-45 261.5,-77"/>
<text xml:space="preserve" text-anchor="start" x="166.5" y="-63.5" font-family="Helvetica,sans-Serif" font-size="10.00">pugi::xpath_variable</text>
<text xml:space="preserve" text-anchor="middle" x="210" y="-51.5" font-family="Helvetica,sans-Serif" font-size="10.00">_set::_assign</text>
</a>
</g>
</g>
<!-- Node1&#45;&gt;Node2 -->
<g id="edge1_Node000001_Node000002" class="edge">
<title>Node1&#45;&gt;Node2</title>
<g id="a_edge1_Node000001_Node000002"><a xlink:title=" ">
<path fill="none" stroke="#63b8ff" d="M424.7,-55.19C386.83,-54.15 339.64,-53.54 297.5,-55 285.92,-55.4 273.47,-56.1 261.74,-56.89"/>
<polygon fill="#63b8ff" stroke="#63b8ff" points="424.52,-58.69 434.62,-55.48 424.73,-51.69 424.52,-58.69"/>
</a>
</g>
</g>
<!-- Node3 -->
<g id="Node000003" class="node">
<title>Node3</title>
<g id="a_Node000003"><a xlink:href="classpugi_1_1xpath__variable__set.html#a01b2824caad84258c8931217081b8971" target="_top" xlink:title=" ">
<polygon fill="white" stroke="#666666" points="112.75,-99 9.75,-99 9.75,-67 112.75,-67 112.75,-99"/>
<text xml:space="preserve" text-anchor="start" x="17.75" y="-85.5" font-family="Helvetica,sans-Serif" font-size="10.00">pugi::xpath_variable</text>
<text xml:space="preserve" text-anchor="middle" x="61.25" y="-73.5" font-family="Helvetica,sans-Serif" font-size="10.00">_set::operator=</text>
</a>
</g>
</g>
<!-- Node1&#45;&gt;Node3 -->
<g id="edge6_Node000001_Node000003" class="edge">
<title>Node1&#45;&gt;Node3</title>
<g id="a_edge6_Node000001_Node000003"><a xlink:title=" ">
<path fill="none" stroke="#63b8ff" d="M461.58,-79.97C443.95,-89.71 421.86,-100.06 400.5,-105 300.59,-128.09 179.98,-109.55 113.13,-95.36"/>
<polygon fill="#63b8ff" stroke="#63b8ff" points="463.14,-83.11 470.08,-75.11 459.66,-77.03 463.14,-83.11"/>
</a>
</g>
</g>
<!-- Node4 -->
<g id="Node000004" class="node">
<title>Node4</title>
<g id="a_Node000004"><a xlink:href="classpugi_1_1xpath__variable__set.html#a8885d983bc387f9faf1d34c3892de9c7" target="_top" xlink:title=" ">
<polygon fill="white" stroke="#666666" points="122.5,-32 0,-32 0,0 122.5,0 122.5,-32"/>
<text xml:space="preserve" text-anchor="start" x="8" y="-18.5" font-family="Helvetica,sans-Serif" font-size="10.00">pugi::xpath_variable</text>
<text xml:space="preserve" text-anchor="middle" x="61.25" y="-6.5" font-family="Helvetica,sans-Serif" font-size="10.00">_set::xpath_variable_set</text>
</a>
</g>
</g>
<!-- Node1&#45;&gt;Node4 -->
<g id="edge7_Node000001_Node000004" class="edge">
<title>Node1&#45;&gt;Node4</title>
<g id="a_edge7_Node000001_Node000004"><a xlink:title=" ">
<path fill="none" stroke="#63b8ff" d="M425.06,-51.07C340.69,-42.91 202.09,-29.52 122.85,-21.86"/>
<polygon fill="#63b8ff" stroke="#63b8ff" points="424.54,-54.54 434.83,-52.01 425.21,-47.57 424.54,-54.54"/>
</a>
</g>
</g>
<!-- Node5 -->
<g id="Node000005" class="node">
<title>Node5</title>
<g id="a_Node000005"><a xlink:href="classpugi_1_1xpath__variable__set.html#a8e2710e1a74355d52da847428da8278d" target="_top" xlink:title=" ">
<polygon fill="white" stroke="#666666" points="400.5,-96 297.5,-96 297.5,-64 400.5,-64 400.5,-96"/>
<text xml:space="preserve" text-anchor="start" x="305.5" y="-82.5" font-family="Helvetica,sans-Serif" font-size="10.00">pugi::xpath_variable</text>
<text xml:space="preserve" text-anchor="middle" x="349" y="-70.5" font-family="Helvetica,sans-Serif" font-size="10.00">_set::_swap</text>
</a>
</g>
</g>
<!-- Node1&#45;&gt;Node5 -->
<g id="edge4_Node000001_Node000005" class="edge">
<title>Node1&#45;&gt;Node5</title>
<g id="a_edge4_Node000001_Node000005"><a xlink:title=" ">
<path fill="none" stroke="#63b8ff" d="M425.02,-68.75C416.76,-69.99 408.48,-71.23 400.59,-72.42"/>
<polygon fill="#63b8ff" stroke="#63b8ff" points="425.35,-72.24 434.72,-67.3 424.31,-65.32 425.35,-72.24"/>
</a>
</g>
</g>
<!-- Node2&#45;&gt;Node3 -->
<g id="edge2_Node000002_Node000003" class="edge">
<title>Node2&#45;&gt;Node3</title>
<g id="a_edge2_Node000002_Node000003"><a xlink:title=" ">
<path fill="none" stroke="#63b8ff" d="M146.95,-70.3C135.66,-71.99 124,-73.74 113.07,-75.38"/>
<polygon fill="#63b8ff" stroke="#63b8ff" points="147.22,-73.8 156.59,-68.86 146.18,-66.88 147.22,-73.8"/>
</a>
</g>
</g>
<!-- Node2&#45;&gt;Node4 -->
<g id="edge3_Node000002_Node000004" class="edge">
<title>Node2&#45;&gt;Node4</title>
<g id="a_edge3_Node000002_Node000004"><a xlink:title=" ">
<path fill="none" stroke="#63b8ff" d="M147.33,-42.09C136.86,-38.88 126.06,-35.57 115.82,-32.43"/>
<polygon fill="#63b8ff" stroke="#63b8ff" points="146.05,-45.36 156.64,-44.94 148.1,-38.67 146.05,-45.36"/>
</a>
</g>
</g>
<!-- Node5&#45;&gt;Node2 -->
<g id="edge5_Node000005_Node000002" class="edge">
<title>Node5&#45;&gt;Node2</title>
<g id="a_edge5_Node000005_Node000002"><a xlink:title=" ">
<path fill="none" stroke="#63b8ff" d="M286.06,-71.41C277.97,-70.29 269.76,-69.15 261.87,-68.06"/>
<polygon fill="#63b8ff" stroke="#63b8ff" points="285.49,-74.86 295.88,-72.77 286.45,-67.93 285.49,-74.86"/>
</a>
</g>
</g>
</g>
</svg>
