<?xml version="1.0" encoding="UTF-8" standalone="no"?>
<!DOCTYPE svg PUBLIC "-//W3C//DTD SVG 1.1//EN"
 "http://www.w3.org/Graphics/SVG/1.1/DTD/svg11.dtd">
<!-- Generated by graphviz version 14.1.2 (20260124.0452)
 -->
<!-- Title: xpath_ast_node::is_posinv_step Pages: 1 -->
<svg width="455pt" height="40pt"
 viewBox="0.00 0.00 455.00 40.00" xmlns="http://www.w3.org/2000/svg" xmlns:xlink="http://www.w3.org/1999/xlink">
<g id="graph0" class="graph" transform="scale(1 1) rotate(0) translate(4 36)">
<title>xpath_ast_node::is_posinv_step</title>
<!-- Node1 -->
<g id="Node000001" class="node">
<title>Node1</title>
<g id="a_Node000001"><a xlink:title=" ">
<polygon fill="#999999" stroke="#666666" points="447,-32 348.5,-32 348.5,0 447,0 447,-32"/>
<text xml:space="preserve" text-anchor="start" x="356.5" y="-18.5" font-family="Helvetica,sans-Serif" font-size="10.00">xpath_ast_node::is</text>
<text xml:space="preserve" text-anchor="middle" x="397.75" y="-6.5" font-family="Helvetica,sans-Serif" font-size="10.00">_posinv_step</text>
</a>
</g>
</g>
<!-- Node2 -->
<g id="Node000002" class="node">
<title>Node2</title>
<g id="a_Node000002"><a xlink:href="classxpath__ast__node.html#a3eb089927cabd867a3a9d1b723aece0d" target="_top" xlink:title=" ">
<polygon fill="white" stroke="#666666" points="312.5,-26 163.75,-26 163.75,-6 312.5,-6 312.5,-26"/>
<text xml:space="preserve" text-anchor="middle" x="238.12" y="-12.5" font-family="Helvetica,sans-Serif" font-size="10.00">xpath_ast_node::optimize_self</text>
</a>
</g>
</g>
<!-- Node1&#45;&gt;Node2 -->
<g id="edge1_Node000001_Node000002" class="edge">
<title>Node1&#45;&gt;Node2</title>
<g id="a_edge1_Node000001_Node000002"><a xlink:title=" ">
<path fill="none" stroke="#63b8ff" d="M336.86,-16C328.98,-16 320.83,-16 312.76,-16"/>
<polygon fill="#63b8ff" stroke="#63b8ff" points="336.66,-19.5 346.66,-16 336.66,-12.5 336.66,-19.5"/>
</a>
</g>
</g>
<!-- Node3 -->
<g id="Node000003" class="node">
<title>Node3</title>
<g id="a_Node000003"><a xlink:href="classxpath__ast__node.html#a950534fc7de08fe40d897ebea84c1d6d" target="_top" xlink:title=" ">
<polygon fill="white" stroke="#666666" points="127.75,-26 0,-26 0,-6 127.75,-6 127.75,-26"/>
<text xml:space="preserve" text-anchor="middle" x="63.88" y="-12.5" font-family="Helvetica,sans-Serif" font-size="10.00">xpath_ast_node::optimize</text>
</a>
</g>
</g>
<!-- Node2&#45;&gt;Node3 -->
<g id="edge2_Node000002_Node000003" class="edge">
<title>Node2&#45;&gt;Node3</title>
<g id="a_edge2_Node000002_Node000003"><a xlink:title=" ">
<path fill="none" stroke="#63b8ff" d="M152.17,-16C144.08,-16 135.97,-16 128.13,-16"/>
<polygon fill="#63b8ff" stroke="#63b8ff" points="152.06,-19.5 162.06,-16 152.06,-12.5 152.06,-19.5"/>
</a>
</g>
</g>
</g>
</svg>
