<?xml version="1.0" encoding="UTF-8" standalone="no"?>
<!DOCTYPE svg PUBLIC "-//W3C//DTD SVG 1.1//EN"
 "http://www.w3.org/Graphics/SVG/1.1/DTD/svg11.dtd">
<!-- Generated by graphviz version 14.1.2 (20260124.0452)
 -->
<!-- Title: GEScene::fillCommandBuffers Pages: 1 -->
<svg width="300pt" height="66pt"
 viewBox="0.00 0.00 300.00 66.00" xmlns="http://www.w3.org/2000/svg" xmlns:xlink="http://www.w3.org/1999/xlink">
<g id="graph0" class="graph" transform="scale(1 1) rotate(0) translate(4 62)">
<title>GEScene::fillCommandBuffers</title>
<!-- Node1 -->
<g id="Node000001" class="node">
<title>Node1</title>
<g id="a_Node000001"><a xlink:title="Rellena los buffers de comandos para el renderizado.">
<polygon fill="#999999" stroke="#666666" points="291.5,-39 142,-39 142,-19 291.5,-19 291.5,-39"/>
<text xml:space="preserve" text-anchor="middle" x="216.75" y="-25.5" font-family="Helvetica,sans-Serif" font-size="10.00">GEScene::fillCommandBuffers</text>
</a>
</g>
</g>
<!-- Node2 -->
<g id="Node000002" class="node">
<title>Node2</title>
<g id="a_Node000002"><a xlink:href="class_g_e_scene.html#acd8ea9948176d36d93ce1f86a4f3d186" target="_top" xlink:title="Construye la escena y crea los objetos gráficos.">
<polygon fill="white" stroke="#666666" points="106,-58 0,-58 0,-38 106,-38 106,-58"/>
<text xml:space="preserve" text-anchor="middle" x="53" y="-44.5" font-family="Helvetica,sans-Serif" font-size="10.00">GEScene::GEScene</text>
</a>
</g>
</g>
<!-- Node1&#45;&gt;Node2 -->
<g id="edge1_Node000001_Node000002" class="edge">
<title>Node1&#45;&gt;Node2</title>
<g id="a_edge1_Node000001_Node000002"><a xlink:title=" ">
<path fill="none" stroke="#63b8ff" d="M130.27,-39.04C122.03,-40.01 113.86,-40.97 106.1,-41.88"/>
<polygon fill="#63b8ff" stroke="#63b8ff" points="130.48,-42.54 140,-37.9 129.66,-35.59 130.48,-42.54"/>
</a>
</g>
</g>
<!-- Node3 -->
<g id="Node000003" class="node">
<title>Node3</title>
<g id="a_Node000003"><a xlink:href="class_g_e_scene.html#ad8eff3027dcba4c3a0133e2295c81885" target="_top" xlink:title="Reconstruye los componentes gráficos de la escena.">
<polygon fill="white" stroke="#666666" points="102.62,-20 3.38,-20 3.38,0 102.62,0 102.62,-20"/>
<text xml:space="preserve" text-anchor="middle" x="53" y="-6.5" font-family="Helvetica,sans-Serif" font-size="10.00">GEScene::recreate</text>
</a>
</g>
</g>
<!-- Node1&#45;&gt;Node3 -->
<g id="edge2_Node000001_Node000003" class="edge">
<title>Node1&#45;&gt;Node3</title>
<g id="a_edge2_Node000001_Node000003"><a xlink:title=" ">
<path fill="none" stroke="#63b8ff" d="M130.1,-18.94C120.76,-17.84 111.5,-16.75 102.83,-15.74"/>
<polygon fill="#63b8ff" stroke="#63b8ff" points="129.66,-22.41 140,-20.1 130.48,-15.46 129.66,-22.41"/>
</a>
</g>
</g>
</g>
</svg>
