<?xml version="1.0" encoding="UTF-8" standalone="no"?>
<!DOCTYPE svg PUBLIC "-//W3C//DTD SVG 1.1//EN"
 "http://www.w3.org/Graphics/SVG/1.1/DTD/svg11.dtd">
<!-- Generated by graphviz version 14.1.2 (20260124.0452)
 -->
<!-- Title: pugi::xml_document::load_buffer Pages: 1 -->
<svg width="391pt" height="90pt"
 viewBox="0.00 0.00 391.00 90.00" xmlns="http://www.w3.org/2000/svg" xmlns:xlink="http://www.w3.org/1999/xlink">
<g id="graph0" class="graph" transform="scale(1 1) rotate(0) translate(4 86)">
<title>pugi::xml_document::load_buffer</title>
<!-- Node1 -->
<g id="Node000001" class="node">
<title>Node1</title>
<g id="a_Node000001"><a xlink:title=" ">
<polygon fill="#999999" stroke="#666666" points="383.25,-60 279.5,-60 279.5,-28 383.25,-28 383.25,-60"/>
<text xml:space="preserve" text-anchor="start" x="287.5" y="-46.5" font-family="Helvetica,sans-Serif" font-size="10.00">pugi::xml_document</text>
<text xml:space="preserve" text-anchor="middle" x="331.38" y="-34.5" font-family="Helvetica,sans-Serif" font-size="10.00">::load_buffer</text>
</a>
</g>
</g>
<!-- Node2 -->
<g id="Node000002" class="node">
<title>Node2</title>
<g id="a_Node000002"><a xlink:href="classpugi_1_1xml__document.html#af2465eda9e5f0551c2a40fd53d96c63d" target="_top" xlink:title=" ">
<polygon fill="white" stroke="#666666" points="103.75,-82 0,-82 0,-50 103.75,-50 103.75,-82"/>
<text xml:space="preserve" text-anchor="start" x="8" y="-68.5" font-family="Helvetica,sans-Serif" font-size="10.00">pugi::xml_document</text>
<text xml:space="preserve" text-anchor="middle" x="51.88" y="-56.5" font-family="Helvetica,sans-Serif" font-size="10.00">::_move</text>
</a>
</g>
</g>
<!-- Node1&#45;&gt;Node2 -->
<g id="edge1_Node000001_Node000002" class="edge">
<title>Node1&#45;&gt;Node2</title>
<g id="a_edge1_Node000001_Node000002"><a xlink:title=" ">
<path fill="none" stroke="#63b8ff" d="M267.94,-48.95C218.41,-52.88 150.05,-58.3 103.8,-61.96"/>
<polygon fill="#63b8ff" stroke="#63b8ff" points="267.95,-52.46 277.65,-48.18 267.4,-45.48 267.95,-52.46"/>
</a>
</g>
</g>
<!-- Node3 -->
<g id="Node000003" class="node">
<title>Node3</title>
<g id="a_Node000003"><a xlink:href="classpugi_1_1xml__document.html#ab35d1e571a3c2f7b15a1d14cc53603ae" target="_top" xlink:title=" ">
<polygon fill="white" stroke="#666666" points="243.5,-38 139.75,-38 139.75,-6 243.5,-6 243.5,-38"/>
<text xml:space="preserve" text-anchor="start" x="147.75" y="-24.5" font-family="Helvetica,sans-Serif" font-size="10.00">pugi::xml_document</text>
<text xml:space="preserve" text-anchor="middle" x="191.62" y="-12.5" font-family="Helvetica,sans-Serif" font-size="10.00">::load_string</text>
</a>
</g>
</g>
<!-- Node1&#45;&gt;Node3 -->
<g id="edge2_Node000001_Node000003" class="edge">
<title>Node1&#45;&gt;Node3</title>
<g id="a_edge2_Node000001_Node000003"><a xlink:title=" ">
<path fill="none" stroke="#63b8ff" d="M267.89,-34.02C259.88,-32.74 251.76,-31.44 243.96,-30.2"/>
<polygon fill="#63b8ff" stroke="#63b8ff" points="267.16,-37.45 277.59,-35.57 268.26,-30.54 267.16,-37.45"/>
</a>
</g>
</g>
<!-- Node3&#45;&gt;Node2 -->
<g id="edge3_Node000003_Node000002" class="edge">
<title>Node3&#45;&gt;Node2</title>
<g id="a_edge3_Node000003_Node000002"><a xlink:title=" ">
<path fill="none" stroke="#63b8ff" d="M128.41,-41.87C120.32,-44.46 112.1,-47.08 104.21,-49.6"/>
<polygon fill="#63b8ff" stroke="#63b8ff" points="129.43,-45.22 137.89,-38.84 127.3,-38.55 129.43,-45.22"/>
</a>
</g>
</g>
<!-- Node4 -->
<g id="Node000004" class="node">
<title>Node4</title>
<g id="a_Node000004"><a xlink:href="classpugi_1_1xml__document.html#a579a0a64579d568ad9e3b682f5641de7" target="_top" xlink:title=" ">
<polygon fill="white" stroke="#666666" points="103.75,-32 0,-32 0,0 103.75,0 103.75,-32"/>
<text xml:space="preserve" text-anchor="start" x="8" y="-18.5" font-family="Helvetica,sans-Serif" font-size="10.00">pugi::xml_document</text>
<text xml:space="preserve" text-anchor="middle" x="51.88" y="-6.5" font-family="Helvetica,sans-Serif" font-size="10.00">::load</text>
</a>
</g>
</g>
<!-- Node3&#45;&gt;Node4 -->
<g id="edge4_Node000003_Node000004" class="edge">
<title>Node3&#45;&gt;Node4</title>
<g id="a_edge4_Node000003_Node000004"><a xlink:title=" ">
<path fill="none" stroke="#63b8ff" d="M127.86,-19.27C119.95,-18.92 111.92,-18.57 104.21,-18.24"/>
<polygon fill="#63b8ff" stroke="#63b8ff" points="127.68,-22.76 137.82,-19.7 127.98,-15.77 127.68,-22.76"/>
</a>
</g>
</g>
</g>
</svg>
