<?xml version="1.0" encoding="UTF-8" standalone="no"?>
<!DOCTYPE svg PUBLIC "-//W3C//DTD SVG 1.1//EN"
 "http://www.w3.org/Graphics/SVG/1.1/DTD/svg11.dtd">
<!-- Generated by graphviz version 14.1.2 (20260124.0452)
 -->
<!-- Title: pugi::xpath_node Pages: 1 -->
<svg width="291pt" height="312pt"
 viewBox="0.00 0.00 291.00 312.00" xmlns="http://www.w3.org/2000/svg" xmlns:xlink="http://www.w3.org/1999/xlink">
<g id="graph0" class="graph" transform="scale(1 1) rotate(0) translate(4 308)">
<title>pugi::xpath_node</title>
<!-- Node1 -->
<g id="Node000001" class="node">
<title>Node1</title>
<g id="a_Node000001"><a xlink:title=" ">
<polygon fill="#999999" stroke="#666666" points="191.12,-20 100.88,-20 100.88,0 191.12,0 191.12,-20"/>
<text xml:space="preserve" text-anchor="middle" x="146" y="-6.5" font-family="Helvetica,sans-Serif" font-size="10.00">pugi::xpath_node</text>
</a>
</g>
</g>
<!-- Node2 -->
<g id="Node000002" class="node">
<title>Node2</title>
<g id="a_Node000002"><a xlink:href="classpugi_1_1xml__node.html" target="_top" xlink:title=" ">
<polygon fill="white" stroke="#666666" points="143,-94 61,-94 61,-74 143,-74 143,-94"/>
<text xml:space="preserve" text-anchor="middle" x="102" y="-80.5" font-family="Helvetica,sans-Serif" font-size="10.00">pugi::xml_node</text>
</a>
</g>
</g>
<!-- Node2&#45;&gt;Node1 -->
<g id="edge1_Node000001_Node000002" class="edge">
<title>Node2&#45;&gt;Node1</title>
<g id="a_edge1_Node000001_Node000002"><a xlink:title=" ">
<path fill="none" stroke="#9a32cd" stroke-dasharray="5,2" d="M113.7,-63.86C122.33,-49.74 133.69,-31.14 140.39,-20.19"/>
<polygon fill="#9a32cd" stroke="#9a32cd" points="110.77,-61.94 108.54,-72.3 116.74,-65.59 110.77,-61.94"/>
</a>
</g>
<text xml:space="preserve" text-anchor="start" x="132.23" y="-43.5" font-family="Helvetica,sans-Serif" font-size="10.00" fill="grey">_node</text>
</g>
<!-- Node3 -->
<g id="Node000003" class="node">
<title>Node3</title>
<g id="a_Node000003"><a xlink:href="structpugi_1_1xml__node__struct.html" target="_top" xlink:title=" ">
<polygon fill="white" stroke="#666666" points="112,-193 0,-193 0,-173 112,-173 112,-193"/>
<text xml:space="preserve" text-anchor="middle" x="56" y="-179.5" font-family="Helvetica,sans-Serif" font-size="10.00">pugi::xml_node_struct</text>
</a>
</g>
</g>
<!-- Node3&#45;&gt;Node2 -->
<g id="edge2_Node000002_Node000003" class="edge">
<title>Node3&#45;&gt;Node2</title>
<g id="a_edge2_Node000002_Node000003"><a xlink:title=" ">
<path fill="none" stroke="#9a32cd" stroke-dasharray="5,2" d="M65.23,-162.54C75.03,-141.88 90.1,-110.1 97.54,-94.42"/>
<polygon fill="#9a32cd" stroke="#9a32cd" points="62.18,-160.8 61.06,-171.33 68.51,-163.8 62.18,-160.8"/>
</a>
</g>
<text xml:space="preserve" text-anchor="start" x="91.41" y="-118.5" font-family="Helvetica,sans-Serif" font-size="10.00" fill="grey">_root</text>
</g>
<!-- Node3&#45;&gt;Node3 -->
<g id="edge3_Node000003_Node000003" class="edge">
<title>Node3&#45;&gt;Node3</title>
<g id="a_edge3_Node000003_Node000003"><a xlink:title=" ">
<path fill="none" stroke="#9a32cd" stroke-dasharray="5,2" d="M100.93,-194.24C116.96,-194.46 130,-190.71 130,-183 130,-173.51 110.24,-170.02 89.49,-172.54"/>
<polygon fill="#9a32cd" stroke="#9a32cd" points="101.21,-190.75 91,-193.56 100.73,-197.74 101.21,-190.75"/>
</a>
</g>
<text xml:space="preserve" text-anchor="start" x="133" y="-203.5" font-family="Helvetica,sans-Serif" font-size="10.00" fill="grey">first_child</text>
<text xml:space="preserve" text-anchor="start" x="133" y="-187.5" font-family="Helvetica,sans-Serif" font-size="10.00" fill="grey">next_sibling</text>
<text xml:space="preserve" text-anchor="start" x="133" y="-171.5" font-family="Helvetica,sans-Serif" font-size="10.00" fill="grey">parent</text>
<text xml:space="preserve" text-anchor="start" x="133" y="-155.5" font-family="Helvetica,sans-Serif" font-size="10.00" fill="grey">prev_sibling_c</text>
</g>
<!-- Node4 -->
<g id="Node000004" class="node">
<title>Node4</title>
<g id="a_Node000004"><a xlink:href="structpugi_1_1xml__attribute__struct.html" target="_top" xlink:title=" ">
<polygon fill="white" stroke="#666666" points="189.12,-303 92.88,-303 92.88,-271 189.12,-271 189.12,-303"/>
<text xml:space="preserve" text-anchor="start" x="100.88" y="-289.5" font-family="Helvetica,sans-Serif" font-size="10.00">pugi::xml_attribute</text>
<text xml:space="preserve" text-anchor="middle" x="141" y="-277.5" font-family="Helvetica,sans-Serif" font-size="10.00">_struct</text>
</a>
</g>
</g>
<!-- Node4&#45;&gt;Node3 -->
<g id="edge4_Node000003_Node000004" class="edge">
<title>Node4&#45;&gt;Node3</title>
<g id="a_edge4_Node000003_Node000004"><a xlink:title=" ">
<path fill="none" stroke="#9a32cd" stroke-dasharray="5,2" d="M120.78,-261.73C102.47,-239.76 76.47,-208.56 63.69,-193.23"/>
<polygon fill="#9a32cd" stroke="#9a32cd" points="118.03,-263.9 127.12,-269.35 123.41,-259.42 118.03,-263.9"/>
</a>
</g>
<text xml:space="preserve" text-anchor="start" x="114.08" y="-239.5" font-family="Helvetica,sans-Serif" font-size="10.00" fill="grey">first_attribute</text>
</g>
<!-- Node4&#45;&gt;Node4 -->
<g id="edge5_Node000004_Node000004" class="edge">
<title>Node4&#45;&gt;Node4</title>
<g id="a_edge5_Node000004_Node000004"><a xlink:title=" ">
<path fill="none" stroke="#9a32cd" stroke-dasharray="5,2" d="M200.57,-292.97C204.65,-291.6 207.12,-289.61 207.12,-287 207.12,-282.49 199.71,-279.83 189.44,-279.02"/>
<polygon fill="#9a32cd" stroke="#9a32cd" points="200.15,-289.49 190.93,-294.71 201.39,-296.38 200.15,-289.49"/>
</a>
</g>
<text xml:space="preserve" text-anchor="start" x="210.12" y="-291.5" font-family="Helvetica,sans-Serif" font-size="10.00" fill="grey">next_attribute</text>
<text xml:space="preserve" text-anchor="start" x="210.12" y="-275.5" font-family="Helvetica,sans-Serif" font-size="10.00" fill="grey">prev_attribute_c</text>
</g>
<!-- Node5 -->
<g id="Node000005" class="node">
<title>Node5</title>
<g id="a_Node000005"><a xlink:href="classpugi_1_1xml__attribute.html" target="_top" xlink:title=" ">
<polygon fill="white" stroke="#666666" points="251.12,-132 154.88,-132 154.88,-112 251.12,-112 251.12,-132"/>
<text xml:space="preserve" text-anchor="middle" x="203" y="-118.5" font-family="Helvetica,sans-Serif" font-size="10.00">pugi::xml_attribute</text>
</a>
</g>
</g>
<!-- Node4&#45;&gt;Node5 -->
<g id="edge7_Node000005_Node000004" class="edge">
<title>Node4&#45;&gt;Node5</title>
<g id="a_edge7_Node000005_Node000004"><a xlink:title=" ">
<path fill="none" stroke="#9a32cd" stroke-dasharray="5,2" d="M171.71,-263.5C185.6,-251.26 200.38,-234.78 207,-216 217.27,-186.89 209.99,-149.45 205.63,-132.31"/>
<polygon fill="#9a32cd" stroke="#9a32cd" points="169.85,-260.49 164.41,-269.58 174.33,-265.86 169.85,-260.49"/>
</a>
</g>
<text xml:space="preserve" text-anchor="start" x="200.86" y="-239.5" font-family="Helvetica,sans-Serif" font-size="10.00" fill="grey">_attr</text>
</g>
<!-- Node5&#45;&gt;Node1 -->
<g id="edge6_Node000001_Node000005" class="edge">
<title>Node5&#45;&gt;Node1</title>
<g id="a_edge6_Node000001_Node000005"><a xlink:title=" ">
<path fill="none" stroke="#9a32cd" stroke-dasharray="5,2" d="M195.1,-101.08C188.01,-83.94 176.93,-58.77 165,-38 161.46,-31.84 156.89,-25.31 153.12,-20.22"/>
<polygon fill="#9a32cd" stroke="#9a32cd" points="191.76,-102.15 198.75,-110.11 198.24,-99.52 191.76,-102.15"/>
</a>
</g>
<text xml:space="preserve" text-anchor="start" x="194.58" y="-80.5" font-family="Helvetica,sans-Serif" font-size="10.00" fill="grey">_attribute</text>
</g>
</g>
</svg>
