<?xml version="1.0" encoding="UTF-8" standalone="no"?>
<!DOCTYPE svg PUBLIC "-//W3C//DTD SVG 1.1//EN"
 "http://www.w3.org/Graphics/SVG/1.1/DTD/svg11.dtd">
<!-- Generated by graphviz version 14.1.2 (20260124.0452)
 -->
<!-- Title: GEBalljoint::GEBalljoint Pages: 1 -->
<!--zoomable 286 -->

<svg id="main" version="1.1" xmlns="http://www.w3.org/2000/svg" xmlns:xlink="http://www.w3.org/1999/xlink" xml:space="preserve" onload="init(evt)">

<style type="text/css"><![CDATA[
.node, .edge {opacity: 0.7;}
.node.selected, .edge.selected {opacity: 1;}
.edge:hover path { stroke: red; }
.edge:hover polygon { stroke: red; fill: red; }
]]></style>

<defs>
  <circle id="rim" cx="0" cy="0" r="7"/>
  <circle id="rim2" cx="0" cy="0" r="3.5"/>
  <g id="zoomPlus">
    <use xlink:href="#rim" fill="#404040"><set attributeName="fill" to="#808080" begin="zoomplus.mouseover" end="zoomplus.mouseout"/></use>
    <path d="M-4,0h8M0,-4v8" fill="none" stroke="white" stroke-width="1.5" pointer-events="none"/>
  </g>
  <g id="zoomMin">
    <use xlink:href="#rim" fill="#404040"><set attributeName="fill" to="#808080" begin="zoomminus.mouseover" end="zoomminus.mouseout"/></use>
    <path d="M-4,0h8" fill="none" stroke="white" stroke-width="1.5" pointer-events="none"/>
  </g>
  <g id="arrowUp" transform="translate(30 24)">
    <use xlink:href="#rim"/>
    <path pointer-events="none" fill="none" stroke="white" stroke-width="1.5" d="M0,-3.0v7 M-2.5,-0.5L0,-3.0L2.5,-0.5"/>
  </g>
  <g id="arrowRight" transform="rotate(90) translate(36 -43)">
    <use xlink:href="#rim"/>
    <path pointer-events="none" fill="none" stroke="white" stroke-width="1.5" d="M0,-3.0v7 M-2.5,-0.5L0,-3.0L2.5,-0.5"/>
  </g>
  <g id="arrowDown" transform="rotate(180) translate(-30 -48)">
    <use xlink:href="#rim"/>
    <path pointer-events="none" fill="none" stroke="white" stroke-width="1.5" d="M0,-3.0v7 M-2.5,-0.5L0,-3.0L2.5,-0.5"/>
  </g>
  <g id="arrowLeft" transform="rotate(270) translate(-36 17)">
    <use xlink:href="#rim"/>
    <path pointer-events="none" fill="none" stroke="white" stroke-width="1.5" d="M0,-3.0v7 M-2.5,-0.5L0,-3.0L2.5,-0.5"/>
  </g>
  <g id="resetDef">
    <use xlink:href="#rim2" fill="#404040"><set attributeName="fill" to="#808080" begin="reset.mouseover" end="reset.mouseout"/></use>
  </g>
</defs>
<script type="application/ecmascript">
var viewWidth = 867;
var viewHeight = 286;
var sectionId = 'dynsection-1';
</script>
<script type="application/ecmascript" xlink:href="svg.min.js"/>
<svg id="graph" class="graph">
<g id="viewport">
<title>GEBalljoint::GEBalljoint</title>
<!-- Node1 -->
<g id="Node000001" class="node">
<title>Node1</title>
<g id="a_Node000001"><a xlink:title="Construye una articulación.">
<polygon fill="#999999" stroke="#666666" points="858.5,-134 739,-134 739,-114 858.5,-114 858.5,-134"/>
<text xml:space="preserve" text-anchor="middle" x="798.75" y="-120.5" font-family="Helvetica,sans-Serif" font-size="10.00">GEBalljoint::GEBalljoint</text>
</a>
</g>
</g>
<!-- Node2 -->
<g id="Node000002" class="node">
<title>Node2</title>
<g id="a_Node000002"><a xlink:href="class_g_e_balljoint.html#a2a6fc6d00a3ea4c9ca016f1afe358fd9" target="_top" xlink:title="Añade una articulación hija.">
<polygon fill="white" stroke="#666666" points="682.38,-260 573.38,-260 573.38,-240 682.38,-240 682.38,-260"/>
<text xml:space="preserve" text-anchor="middle" x="627.88" y="-246.5" font-family="Helvetica,sans-Serif" font-size="10.00">GEBalljoint::addChild</text>
</a>
</g>
</g>
<!-- Node1&#45;&gt;Node2 -->
<g id="edge1_Node000001_Node000002" class="edge">
<title>Node1&#45;&gt;Node2</title>
<g id="a_edge1_Node000001_Node000002"><a xlink:title=" ">
<path fill="none" stroke="#63b8ff" d="M785.49,-143.98C769.53,-168.28 739.33,-208.8 703,-231 696.77,-234.81 689.79,-237.86 682.67,-240.3"/>
<polygon fill="#63b8ff" stroke="#63b8ff" points="788.38,-145.96 790.8,-135.65 782.48,-142.2 788.38,-145.96"/>
</a>
</g>
</g>
<!-- Node6 -->
<g id="Node000006" class="node">
<title>Node6</title>
<g id="a_Node000006"><a xlink:href="class_g_e_balljoint.html#a6a9ddcc116846ced45b1f238e1d2daf0" target="_top" xlink:title="Añade comandos recursivamente.">
<polygon fill="white" stroke="#666666" points="696.25,-222 559.5,-222 559.5,-190 696.25,-190 696.25,-222"/>
<text xml:space="preserve" text-anchor="start" x="567.5" y="-208.5" font-family="Helvetica,sans-Serif" font-size="10.00">GEBalljoint::addCommands</text>
<text xml:space="preserve" text-anchor="middle" x="627.88" y="-196.5" font-family="Helvetica,sans-Serif" font-size="10.00">Recursive</text>
</a>
</g>
</g>
<!-- Node1&#45;&gt;Node6 -->
<g id="edge6_Node000001_Node000006" class="edge">
<title>Node1&#45;&gt;Node6</title>
<g id="a_edge6_Node000001_Node000006"><a xlink:title=" ">
<path fill="none" stroke="#63b8ff" d="M773.4,-140.66C754.72,-152.94 727.99,-169.44 703,-181 696.34,-184.08 689.2,-186.97 682.07,-189.62"/>
<polygon fill="#63b8ff" stroke="#63b8ff" points="775.25,-143.64 781.62,-135.18 771.36,-137.81 775.25,-143.64"/>
</a>
</g>
</g>
<!-- Node7 -->
<g id="Node000007" class="node">
<title>Node7</title>
<g id="a_Node000007"><a xlink:href="class_g_e_balljoint.html#ae0edee978f755049ef8a01876f7b488b" target="_top" xlink:title="Destruye recursivamente esta articulación y sus hijas.">
<polygon fill="white" stroke="#666666" points="701.5,-172 554.25,-172 554.25,-152 701.5,-152 701.5,-172"/>
<text xml:space="preserve" text-anchor="middle" x="627.88" y="-158.5" font-family="Helvetica,sans-Serif" font-size="10.00">GEBalljoint::destroyRecursive</text>
</a>
</g>
</g>
<!-- Node1&#45;&gt;Node7 -->
<g id="edge7_Node000001_Node000007" class="edge">
<title>Node1&#45;&gt;Node7</title>
<g id="a_edge7_Node000001_Node000007"><a xlink:title=" ">
<path fill="none" stroke="#63b8ff" d="M740.05,-136.98C718.93,-141.74 695.32,-147.05 675.32,-151.55"/>
<polygon fill="#63b8ff" stroke="#63b8ff" points="740.69,-140.43 749.68,-134.82 739.16,-133.6 740.69,-140.43"/>
</a>
</g>
</g>
<!-- Node8 -->
<g id="Node000008" class="node">
<title>Node8</title>
<g id="a_Node000008"><a xlink:href="class_g_e_balljoint.html#a13e4735bffa31009035f084f415a5955" target="_top" xlink:title="Busca una articulación hija por nombre.">
<polygon fill="white" stroke="#666666" points="682.38,-134 573.38,-134 573.38,-114 682.38,-114 682.38,-134"/>
<text xml:space="preserve" text-anchor="middle" x="627.88" y="-120.5" font-family="Helvetica,sans-Serif" font-size="10.00">GEBalljoint::findChild</text>
</a>
</g>
</g>
<!-- Node1&#45;&gt;Node8 -->
<g id="edge8_Node000001_Node000008" class="edge">
<title>Node1&#45;&gt;Node8</title>
<g id="a_edge8_Node000001_Node000008"><a xlink:title=" ">
<path fill="none" stroke="#63b8ff" d="M727.43,-124C712.52,-124 697.01,-124 682.82,-124"/>
<polygon fill="#63b8ff" stroke="#63b8ff" points="727.17,-127.5 737.17,-124 727.17,-120.5 727.17,-127.5"/>
</a>
</g>
</g>
<!-- Node11 -->
<g id="Node000011" class="node">
<title>Node11</title>
<g id="a_Node000011"><a xlink:href="class_g_e_balljoint.html#a2f2063c302507432f32a5f07333f934a" target="_top" xlink:title="Inicializa recursivamente esta articulación y sus hijas.">
<polygon fill="white" stroke="#666666" points="703,-96 552.75,-96 552.75,-76 703,-76 703,-96"/>
<text xml:space="preserve" text-anchor="middle" x="627.88" y="-82.5" font-family="Helvetica,sans-Serif" font-size="10.00">GEBalljoint::initializeRecursive</text>
</a>
</g>
</g>
<!-- Node1&#45;&gt;Node11 -->
<g id="edge11_Node000001_Node000011" class="edge">
<title>Node1&#45;&gt;Node11</title>
<g id="a_edge11_Node000001_Node000011"><a xlink:title=" ">
<path fill="none" stroke="#63b8ff" d="M740.05,-111.02C718.93,-106.26 695.32,-100.95 675.32,-96.45"/>
<polygon fill="#63b8ff" stroke="#63b8ff" points="739.16,-114.4 749.68,-113.18 740.69,-107.57 739.16,-114.4"/>
</a>
</g>
</g>
<!-- Node12 -->
<g id="Node000012" class="node">
<title>Node12</title>
<g id="a_Node000012"><a xlink:href="class_g_e_balljoint.html#aa6a8ef8eb7ca1008f034718ed3113c9a" target="_top" xlink:title="Asigna la luz recursivamente.">
<polygon fill="white" stroke="#666666" points="702.62,-58 553.12,-58 553.12,-38 702.62,-38 702.62,-58"/>
<text xml:space="preserve" text-anchor="middle" x="627.88" y="-44.5" font-family="Helvetica,sans-Serif" font-size="10.00">GEBalljoint::setLightRecursive</text>
</a>
</g>
</g>
<!-- Node1&#45;&gt;Node12 -->
<g id="edge12_Node000001_Node000012" class="edge">
<title>Node1&#45;&gt;Node12</title>
<g id="a_edge12_Node000001_Node000012"><a xlink:title=" ">
<path fill="none" stroke="#63b8ff" d="M773.96,-107.02C755.4,-94.44 728.55,-77.69 703,-67 695.16,-63.72 686.6,-60.89 678.18,-58.49"/>
<polygon fill="#63b8ff" stroke="#63b8ff" points="771.9,-109.85 782.12,-112.65 775.88,-104.09 771.9,-109.85"/>
</a>
</g>
</g>
<!-- Node13 -->
<g id="Node000013" class="node">
<title>Node13</title>
<g id="a_Node000013"><a xlink:href="class_g_e_balljoint.html#a3c4302bc1926bf8e54cab4b7c3b2ef4a" target="_top" xlink:title="Actualiza recursivamente con matriz del padre.">
<polygon fill="white" stroke="#666666" points="700,-20 555.75,-20 555.75,0 700,0 700,-20"/>
<text xml:space="preserve" text-anchor="middle" x="627.88" y="-6.5" font-family="Helvetica,sans-Serif" font-size="10.00">GEBalljoint::updateRecursive</text>
</a>
</g>
</g>
<!-- Node1&#45;&gt;Node13 -->
<g id="edge13_Node000001_Node000013" class="edge">
<title>Node1&#45;&gt;Node13</title>
<g id="a_edge13_Node000001_Node000013"><a xlink:title=" ">
<path fill="none" stroke="#63b8ff" d="M783.72,-104.67C766.94,-82.99 736.86,-48.33 703,-29 697,-25.57 690.38,-22.76 683.64,-20.44"/>
<polygon fill="#63b8ff" stroke="#63b8ff" points="780.73,-106.53 789.54,-112.41 786.32,-102.32 780.73,-106.53"/>
</a>
</g>
</g>
<!-- Node3 -->
<g id="Node000003" class="node">
<title>Node3</title>
<g id="a_Node000003"><a xlink:href="class_g_e_skeleton.html#a24b0dd5ddd9c940fb8e95eaceb720ea0" target="_top" xlink:title="Crea recursivamente las articulaciones desde los datos parseados.">
<polygon fill="white" stroke="#666666" points="516.75,-260 350.75,-260 350.75,-240 516.75,-240 516.75,-260"/>
<text xml:space="preserve" text-anchor="middle" x="433.75" y="-246.5" font-family="Helvetica,sans-Serif" font-size="10.00">GESkeleton::createJointFromData</text>
</a>
</g>
</g>
<!-- Node2&#45;&gt;Node3 -->
<g id="edge2_Node000002_Node000003" class="edge">
<title>Node2&#45;&gt;Node3</title>
<g id="a_edge2_Node000002_Node000003"><a xlink:title=" ">
<path fill="none" stroke="#63b8ff" d="M561.79,-250C547.37,-250 531.91,-250 516.92,-250"/>
<polygon fill="#63b8ff" stroke="#63b8ff" points="561.59,-253.5 571.59,-250 561.59,-246.5 561.59,-253.5"/>
</a>
</g>
</g>
<!-- Node3&#45;&gt;Node3 -->
<g id="edge5_Node000003_Node000003" class="edge">
<title>Node3&#45;&gt;Node3</title>
<g id="a_edge5_Node000003_Node000003"><a xlink:title=" ">
<path fill="none" stroke="#63b8ff" d="M468.42,-271.11C464.29,-275.14 452.73,-278 433.75,-278 400.01,-278 389.72,-268.98 402.91,-260.34"/>
<polygon fill="#63b8ff" stroke="#63b8ff" points="471.75,-270.02 465.1,-261.76 465.15,-272.36 471.75,-270.02"/>
</a>
</g>
</g>
<!-- Node4 -->
<g id="Node000004" class="node">
<title>Node4</title>
<g id="a_Node000004"><a xlink:href="class_g_e_skeleton.html#ade3f0504c12faea2597ee2c23abf22bd" target="_top" xlink:title="Construye la jerarquía de articulaciones desde body.skel.">
<polygon fill="white" stroke="#666666" points="305.38,-260 172.38,-260 172.38,-240 305.38,-240 305.38,-260"/>
<text xml:space="preserve" text-anchor="middle" x="238.88" y="-246.5" font-family="Helvetica,sans-Serif" font-size="10.00">GESkeleton::buildSkeleton</text>
</a>
</g>
</g>
<!-- Node3&#45;&gt;Node4 -->
<g id="edge3_Node000003_Node000004" class="edge">
<title>Node3&#45;&gt;Node4</title>
<g id="a_edge3_Node000003_Node000004"><a xlink:title=" ">
<path fill="none" stroke="#63b8ff" d="M339.12,-250C327.8,-250 316.44,-250 305.64,-250"/>
<polygon fill="#63b8ff" stroke="#63b8ff" points="338.88,-253.5 348.88,-250 338.88,-246.5 338.88,-253.5"/>
</a>
</g>
</g>
<!-- Node5 -->
<g id="Node000005" class="node">
<title>Node5</title>
<g id="a_Node000005"><a xlink:href="class_g_e_skeleton.html#ad854854fdf1e4d090553d4d6edbfe095" target="_top" xlink:title="Constructor del esqueleto.">
<polygon fill="white" stroke="#666666" points="127,-260 0,-260 0,-240 127,-240 127,-260"/>
<text xml:space="preserve" text-anchor="middle" x="63.5" y="-246.5" font-family="Helvetica,sans-Serif" font-size="10.00">GESkeleton::GESkeleton</text>
</a>
</g>
</g>
<!-- Node4&#45;&gt;Node5 -->
<g id="edge4_Node000004_Node000005" class="edge">
<title>Node4&#45;&gt;Node5</title>
<g id="a_edge4_Node000004_Node000005"><a xlink:title=" ">
<path fill="none" stroke="#63b8ff" d="M161.12,-250C149.8,-250 138.26,-250 127.27,-250"/>
<polygon fill="#63b8ff" stroke="#63b8ff" points="160.82,-253.5 170.82,-250 160.82,-246.5 160.82,-253.5"/>
</a>
</g>
</g>
<!-- Node9 -->
<g id="Node000009" class="node">
<title>Node9</title>
<g id="a_Node000009"><a xlink:href="class_g_e_skeleton.html#ac2e620f6a7ba3d371b5e5dbeb6bbec85" target="_top" xlink:title="Busca una articulación por nombre.">
<polygon fill="white" stroke="#666666" points="489.38,-134 378.12,-134 378.12,-114 489.38,-114 489.38,-134"/>
<text xml:space="preserve" text-anchor="middle" x="433.75" y="-120.5" font-family="Helvetica,sans-Serif" font-size="10.00">GESkeleton::findJoint</text>
</a>
</g>
</g>
<!-- Node8&#45;&gt;Node9 -->
<g id="edge9_Node000008_Node000009" class="edge">
<title>Node8&#45;&gt;Node9</title>
<g id="a_edge9_Node000008_Node000009"><a xlink:title=" ">
<path fill="none" stroke="#63b8ff" d="M561.87,-124C538.47,-124 512.32,-124 489.85,-124"/>
<polygon fill="#63b8ff" stroke="#63b8ff" points="561.59,-127.5 571.59,-124 561.59,-120.5 561.59,-127.5"/>
</a>
</g>
</g>
<!-- Node10 -->
<g id="Node000010" class="node">
<title>Node10</title>
<g id="a_Node000010"><a xlink:href="class_g_e_animation.html#a0c0c9b1891d41bae1e7cf2ae6bde46cc" target="_top" xlink:title="Aplica la animación actual al esqueleto.">
<polygon fill="white" stroke="#666666" points="314.75,-134 163,-134 163,-114 314.75,-114 314.75,-134"/>
<text xml:space="preserve" text-anchor="middle" x="238.88" y="-120.5" font-family="Helvetica,sans-Serif" font-size="10.00">GEAnimation::applyToSkeleton</text>
</a>
</g>
</g>
<!-- Node9&#45;&gt;Node10 -->
<g id="edge10_Node000009_Node000010" class="edge">
<title>Node9&#45;&gt;Node10</title>
<g id="a_edge10_Node000009_Node000010"><a xlink:title=" ">
<path fill="none" stroke="#63b8ff" d="M366.51,-124C349.95,-124 332.07,-124 315.11,-124"/>
<polygon fill="#63b8ff" stroke="#63b8ff" points="366.22,-127.5 376.22,-124 366.22,-120.5 366.22,-127.5"/>
</a>
</g>
</g>
</g>
</svg>

<g id="navigator" transform="translate(0 0)" fill="#404254">
  <rect fill="#f2f5e9" fill-opacity="0.5" stroke="#606060" stroke-width=".5" x="0" y="0" width="60" height="60"/>
  <use id="zoomplus" xlink:href="#zoomPlus" x="17" y="9" onmousedown="handleZoom(evt,'in')"/>
  <use id="zoomminus" xlink:href="#zoomMin" x="42" y="9" onmousedown="handleZoom(evt,'out')"/>
  <use id="reset" xlink:href="#resetDef" x="30" y="36" onmousedown="handleReset()"/>
   <use id="arrowup" xlink:href="#arrowUp" x="0" y="0" onmousedown="handlePan(0,-1)"/>
  <use id="arrowright" xlink:href="#arrowRight" x="0" y="0" onmousedown="handlePan(1,0)"/>
  <use id="arrowdown" xlink:href="#arrowDown" x="0" y="0" onmousedown="handlePan(0,1)"/>
  <use id="arrowleft" xlink:href="#arrowLeft" x="0" y="0" onmousedown="handlePan(-1,0)"/>
</g>
<svg viewBox="0 0 15 15" width="100%" height="30px" preserveAspectRatio="xMaxYMin meet">
 <g id="arrow_out" transform="scale(0.3 0.3)">
  <a xlink:href="class_g_e_balljoint_a0f468b4618ae46410622a32a83569714_icgraph_org.svg" target="_base">
   <rect id="button" ry="5" rx="5" y="6" x="6" height="38" width="38"
        fill="#f2f5e9" fill-opacity="0.5" stroke="#606060" stroke-width="1.0"/>
   <path id="arrow"
     d="M 11.500037,31.436501 C 11.940474,20.09759 22.043105,11.32322 32.158766,21.979434 L 37.068811,17.246167 C 37.068811,17.246167 37.088388,32 37.088388,32 L 22.160133,31.978069 C 22.160133,31.978069 26.997745,27.140456 26.997745,27.140456 C 18.528582,18.264221 13.291696,25.230495 11.500037,31.436501 z"
     style="fill:#404040;"/>
  </a>
 </g>
</svg>

<style type='text/css'>
<![CDATA[
[data-mouse-over-selected='false'] { opacity: 0.7; }
[data-mouse-over-selected='true']  { opacity: 1.0; }
]]>
</style>
<script type="application/ecmascript"><![CDATA[
document.addEventListener('DOMContentLoaded', (event) => {
  highlightEdges();
  highlightAdjacentNodes();
});
]]></script>
</svg>
