<?xml version="1.0" encoding="UTF-8" standalone="no"?>
<!DOCTYPE svg PUBLIC "-//W3C//DTD SVG 1.1//EN"
 "http://www.w3.org/Graphics/SVG/1.1/DTD/svg11.dtd">
<!-- Generated by graphviz version 14.1.2 (20260124.0452)
 -->
<!-- Title: xpath_string::xpath_string Pages: 1 -->
<svg width="1689pt" height="356pt"
 viewBox="0.00 0.00 1689.00 356.00" xmlns="http://www.w3.org/2000/svg" xmlns:xlink="http://www.w3.org/1999/xlink">
<g id="graph0" class="graph" transform="scale(1 1) rotate(0) translate(4 352)">
<title>xpath_string::xpath_string</title>
<!-- Node1 -->
<g id="Node000001" class="node">
<title>Node1</title>
<g id="a_Node000001"><a xlink:title=" ">
<polygon fill="#999999" stroke="#666666" points="1680.5,-177 1581.25,-177 1581.25,-145 1680.5,-145 1680.5,-177"/>
<text xml:space="preserve" text-anchor="start" x="1589.25" y="-163.5" font-family="Helvetica,sans-Serif" font-size="10.00">xpath_string::xpath</text>
<text xml:space="preserve" text-anchor="middle" x="1630.88" y="-151.5" font-family="Helvetica,sans-Serif" font-size="10.00">_string</text>
</a>
</g>
</g>
<!-- Node2 -->
<g id="Node000002" class="node">
<title>Node2</title>
<g id="a_Node000002"><a xlink:href="classxpath__string.html#a6dce01c6b3a949c3c4c886e6be44931e" target="_top" xlink:title=" ">
<polygon fill="white" stroke="#666666" points="1532.12,-111 1437.38,-111 1437.38,-79 1532.12,-79 1532.12,-111"/>
<text xml:space="preserve" text-anchor="start" x="1445.38" y="-97.5" font-family="Helvetica,sans-Serif" font-size="10.00">xpath_string::from</text>
<text xml:space="preserve" text-anchor="middle" x="1484.75" y="-85.5" font-family="Helvetica,sans-Serif" font-size="10.00">_const</text>
</a>
</g>
</g>
<!-- Node1&#45;&gt;Node2 -->
<g id="edge1_Node000001_Node000002" class="edge">
<title>Node1&#45;&gt;Node2</title>
<g id="a_edge1_Node000001_Node000002"><a xlink:title=" ">
<path fill="none" stroke="#63b8ff" d="M1583.64,-139.83C1563.43,-130.57 1540.1,-119.89 1521.29,-111.27"/>
<polygon fill="#63b8ff" stroke="#63b8ff" points="1581.95,-142.9 1592.5,-143.89 1584.87,-136.54 1581.95,-142.9"/>
</a>
</g>
</g>
<!-- Node15 -->
<g id="Node000015" class="node">
<title>Node15</title>
<g id="a_Node000015"><a xlink:href="classxpath__string.html#aaf1229b7a7ae918b41bf995df16c8896" target="_top" xlink:title=" ">
<polygon fill="white" stroke="#666666" points="1545.25,-234 1424.25,-234 1424.25,-214 1545.25,-214 1545.25,-234"/>
<text xml:space="preserve" text-anchor="middle" x="1484.75" y="-220.5" font-family="Helvetica,sans-Serif" font-size="10.00">xpath_string::from_heap</text>
</a>
</g>
</g>
<!-- Node1&#45;&gt;Node15 -->
<g id="edge33_Node000001_Node000015" class="edge">
<title>Node1&#45;&gt;Node15</title>
<g id="a_edge33_Node000001_Node000015"><a xlink:title=" ">
<path fill="none" stroke="#63b8ff" d="M1581.9,-181.97C1557.58,-192.6 1529.12,-205.04 1509.51,-213.62"/>
<polygon fill="#63b8ff" stroke="#63b8ff" points="1583.24,-185.21 1591,-177.99 1580.43,-178.79 1583.24,-185.21"/>
</a>
</g>
</g>
<!-- Node16 -->
<g id="Node000016" class="node">
<title>Node16</title>
<g id="a_Node000016"><a xlink:href="classxpath__string.html#a37e13c2dc384cac842cee3870e9e9e23" target="_top" xlink:title=" ">
<polygon fill="white" stroke="#666666" points="1534.75,-177 1434.75,-177 1434.75,-145 1534.75,-145 1534.75,-177"/>
<text xml:space="preserve" text-anchor="start" x="1442.75" y="-163.5" font-family="Helvetica,sans-Serif" font-size="10.00">xpath_string::from</text>
<text xml:space="preserve" text-anchor="middle" x="1484.75" y="-151.5" font-family="Helvetica,sans-Serif" font-size="10.00">_heap_preallocated</text>
</a>
</g>
</g>
<!-- Node1&#45;&gt;Node16 -->
<g id="edge35_Node000001_Node000016" class="edge">
<title>Node1&#45;&gt;Node16</title>
<g id="a_edge35_Node000001_Node000016"><a xlink:title=" ">
<path fill="none" stroke="#63b8ff" d="M1569.7,-161C1558.14,-161 1546.15,-161 1534.98,-161"/>
<polygon fill="#63b8ff" stroke="#63b8ff" points="1569.57,-164.5 1579.57,-161 1569.57,-157.5 1569.57,-164.5"/>
</a>
</g>
</g>
<!-- Node3 -->
<g id="Node000003" class="node">
<title>Node3</title>
<g id="a_Node000003"><a xlink:href="pugixml_8cpp.html#a70fefd711768a3ae223cf73fdb088f40" target="_top" xlink:title=" ">
<polygon fill="white" stroke="#666666" points="1388.25,-127 1259.75,-127 1259.75,-107 1388.25,-107 1388.25,-127"/>
<text xml:space="preserve" text-anchor="middle" x="1324" y="-113.5" font-family="Helvetica,sans-Serif" font-size="10.00">convert_number_to_string</text>
</a>
</g>
</g>
<!-- Node2&#45;&gt;Node3 -->
<g id="edge2_Node000002_Node000003" class="edge">
<title>Node2&#45;&gt;Node3</title>
<g id="a_edge2_Node000002_Node000003"><a xlink:title=" ">
<path fill="none" stroke="#63b8ff" d="M1425.65,-103.05C1413.56,-104.73 1400.77,-106.5 1388.5,-108.2"/>
<polygon fill="#63b8ff" stroke="#63b8ff" points="1426.05,-106.53 1435.48,-101.69 1425.09,-99.6 1426.05,-106.53"/>
</a>
</g>
</g>
<!-- Node4 -->
<g id="Node000004" class="node">
<title>Node4</title>
<g id="a_Node000004"><a xlink:href="classxpath__ast__node.html#a6b675237a590548b68d0e0b97518b6df" target="_top" xlink:title=" ">
<polygon fill="white" stroke="#666666" points="1223.75,-177 1114.75,-177 1114.75,-145 1223.75,-145 1223.75,-177"/>
<text xml:space="preserve" text-anchor="start" x="1122.75" y="-163.5" font-family="Helvetica,sans-Serif" font-size="10.00">xpath_ast_node::eval</text>
<text xml:space="preserve" text-anchor="middle" x="1169.25" y="-151.5" font-family="Helvetica,sans-Serif" font-size="10.00">_string</text>
</a>
</g>
</g>
<!-- Node2&#45;&gt;Node4 -->
<g id="edge27_Node000002_Node000004" class="edge">
<title>Node2&#45;&gt;Node4</title>
<g id="a_edge27_Node000002_Node000004"><a xlink:title=" ">
<path fill="none" stroke="#63b8ff" d="M1425.69,-86.54C1379.55,-81.99 1313.98,-80.43 1259.75,-98 1231.01,-107.31 1203.44,-129.36 1186.68,-144.73"/>
<polygon fill="#63b8ff" stroke="#63b8ff" points="1425.16,-90.01 1435.47,-87.59 1425.9,-83.05 1425.16,-90.01"/>
</a>
</g>
</g>
<!-- Node14 -->
<g id="Node000014" class="node">
<title>Node14</title>
<g id="a_Node000014"><a xlink:href="pugixml_8cpp.html#ad34afe159db16c5eff7771f4f4935e4e" target="_top" xlink:title=" ">
<polygon fill="white" stroke="#666666" points="1358.25,-51 1289.75,-51 1289.75,-31 1358.25,-31 1358.25,-51"/>
<text xml:space="preserve" text-anchor="middle" x="1324" y="-37.5" font-family="Helvetica,sans-Serif" font-size="10.00">string_value</text>
</a>
</g>
</g>
<!-- Node2&#45;&gt;Node14 -->
<g id="edge28_Node000002_Node000014" class="edge">
<title>Node2&#45;&gt;Node14</title>
<g id="a_edge28_Node000002_Node000014"><a xlink:title=" ">
<path fill="none" stroke="#63b8ff" d="M1426.21,-75.43C1402.26,-67.28 1375.43,-58.16 1355.42,-51.35"/>
<polygon fill="#63b8ff" stroke="#63b8ff" points="1424.95,-78.7 1435.55,-78.6 1427.21,-72.07 1424.95,-78.7"/>
</a>
</g>
</g>
<!-- Node3&#45;&gt;Node4 -->
<g id="edge3_Node000003_Node000004" class="edge">
<title>Node3&#45;&gt;Node4</title>
<g id="a_edge3_Node000003_Node000004"><a xlink:title=" ">
<path fill="none" stroke="#63b8ff" d="M1275.85,-130.58C1259.48,-135.3 1241.01,-140.62 1224.14,-145.48"/>
<polygon fill="#63b8ff" stroke="#63b8ff" points="1276.71,-133.98 1285.35,-127.85 1274.77,-127.25 1276.71,-133.98"/>
</a>
</g>
</g>
<!-- Node5 -->
<g id="Node000005" class="node">
<title>Node5</title>
<g id="a_Node000005"><a xlink:href="classxpath__ast__node.html#a98dd7f6e67fe2c56c63056eed835d6a4" target="_top" xlink:title=" ">
<polygon fill="white" stroke="#666666" points="1078.75,-124 934.5,-124 934.5,-104 1078.75,-104 1078.75,-124"/>
<text xml:space="preserve" text-anchor="middle" x="1006.62" y="-110.5" font-family="Helvetica,sans-Serif" font-size="10.00">xpath_ast_node::compare_eq</text>
</a>
</g>
</g>
<!-- Node4&#45;&gt;Node5 -->
<g id="edge4_Node000004_Node000005" class="edge">
<title>Node4&#45;&gt;Node5</title>
<g id="a_edge4_Node000004_Node000005"><a xlink:title=" ">
<path fill="none" stroke="#63b8ff" d="M1103.45,-142.04C1082.99,-136.05 1061.14,-129.66 1043.47,-124.49"/>
<polygon fill="#63b8ff" stroke="#63b8ff" points="1102.28,-145.34 1112.86,-144.79 1104.25,-138.63 1102.28,-145.34"/>
</a>
</g>
</g>
<!-- Node6 -->
<g id="Node000006" class="node">
<title>Node6</title>
<g id="a_Node000006"><a xlink:href="classxpath__ast__node.html#ab7f965a92023bc2704b8e6fd9f3d7c14" target="_top" xlink:title=" ">
<polygon fill="white" stroke="#666666" points="898.5,-233 789.5,-233 789.5,-201 898.5,-201 898.5,-233"/>
<text xml:space="preserve" text-anchor="start" x="797.5" y="-219.5" font-family="Helvetica,sans-Serif" font-size="10.00">xpath_ast_node::eval</text>
<text xml:space="preserve" text-anchor="middle" x="844" y="-207.5" font-family="Helvetica,sans-Serif" font-size="10.00">_boolean</text>
</a>
</g>
</g>
<!-- Node4&#45;&gt;Node6 -->
<g id="edge25_Node000004_Node000006" class="edge">
<title>Node4&#45;&gt;Node6</title>
<g id="a_edge25_Node000004_Node000006"><a xlink:title=" ">
<path fill="none" stroke="#63b8ff" d="M1103.37,-169.65C1095.11,-171.55 1086.76,-173.41 1078.75,-175 1017.44,-187.17 946.23,-196.55 898.67,-204.05"/>
<polygon fill="#63b8ff" stroke="#63b8ff" points="1104.09,-173.07 1113.04,-167.4 1102.51,-166.25 1104.09,-173.07"/>
</a>
</g>
</g>
<!-- Node11 -->
<g id="Node000011" class="node">
<title>Node11</title>
<g id="a_Node000011"><a xlink:href="classxpath__ast__node.html#a92dd7048e28d486bc7f382d1fc6f1de6" target="_top" xlink:title=" ">
<polygon fill="white" stroke="#666666" points="750.88,-177 641.88,-177 641.88,-145 750.88,-145 750.88,-177"/>
<text xml:space="preserve" text-anchor="start" x="649.88" y="-163.5" font-family="Helvetica,sans-Serif" font-size="10.00">xpath_ast_node::eval</text>
<text xml:space="preserve" text-anchor="middle" x="696.38" y="-151.5" font-family="Helvetica,sans-Serif" font-size="10.00">_number</text>
</a>
</g>
</g>
<!-- Node4&#45;&gt;Node11 -->
<g id="edge26_Node000004_Node000011" class="edge">
<title>Node4&#45;&gt;Node11</title>
<g id="a_edge26_Node000004_Node000011"><a xlink:title=" ">
<path fill="none" stroke="#63b8ff" d="M1103.39,-156.17C1009.74,-153.5 838.33,-153.61 751.24,-156.51"/>
<polygon fill="#63b8ff" stroke="#63b8ff" points="1103.08,-159.66 1113.18,-156.47 1103.29,-152.67 1103.08,-159.66"/>
</a>
</g>
</g>
<!-- Node5&#45;&gt;Node6 -->
<g id="edge5_Node000005_Node000006" class="edge">
<title>Node5&#45;&gt;Node6</title>
<g id="a_edge5_Node000005_Node000006"><a xlink:title=" ">
<path fill="none" stroke="#63b8ff" d="M971.87,-130.03C938.77,-149.43 889.57,-181.36 863.22,-200.84"/>
<polygon fill="#63b8ff" stroke="#63b8ff" points="973.35,-133.22 980.27,-125.19 969.85,-127.15 973.35,-133.22"/>
</a>
</g>
</g>
<!-- Node6&#45;&gt;Node4 -->
<g id="edge24_Node000006_Node000004" class="edge">
<title>Node6&#45;&gt;Node4</title>
<g id="a_edge24_Node000006_Node000004"><a xlink:title=" ">
<path fill="none" stroke="#63b8ff" d="M909.93,-217.3C957.02,-213.1 1022.11,-204.24 1078.75,-193 1098.89,-189 1121.27,-183.25 1138.61,-177.38"/>
<polygon fill="#63b8ff" stroke="#63b8ff" points="909.85,-213.8 900.18,-218.12 910.43,-220.77 909.85,-213.8"/>
</a>
</g>
</g>
<!-- Node6&#45;&gt;Node5 -->
<g id="edge14_Node000006_Node000005" class="edge">
<title>Node6&#45;&gt;Node5</title>
<g id="a_edge14_Node000006_Node000005"><a xlink:title=" ">
<path fill="none" stroke="#63b8ff" d="M889.2,-194.76C925.4,-172.94 973.97,-140.94 995.09,-124.32"/>
<polygon fill="#63b8ff" stroke="#63b8ff" points="887.45,-191.73 880.65,-199.85 891.03,-197.74 887.45,-191.73"/>
</a>
</g>
</g>
<!-- Node7 -->
<g id="Node000007" class="node">
<title>Node7</title>
<g id="a_Node000007"><a xlink:href="classxpath__ast__node.html#ab4e5bbd3f2e83c86a43349374b4bfc22" target="_top" xlink:title=" ">
<polygon fill="white" stroke="#666666" points="753.5,-240 639.25,-240 639.25,-208 753.5,-208 753.5,-240"/>
<text xml:space="preserve" text-anchor="start" x="647.25" y="-226.5" font-family="Helvetica,sans-Serif" font-size="10.00">xpath_ast_node::apply</text>
<text xml:space="preserve" text-anchor="middle" x="696.38" y="-214.5" font-family="Helvetica,sans-Serif" font-size="10.00">_predicate_boolean</text>
</a>
</g>
</g>
<!-- Node6&#45;&gt;Node7 -->
<g id="edge6_Node000006_Node000007" class="edge">
<title>Node6&#45;&gt;Node7</title>
<g id="a_edge6_Node000006_Node000007"><a xlink:title=" ">
<path fill="none" stroke="#63b8ff" d="M777.96,-220.13C769.94,-220.51 761.78,-220.9 753.89,-221.28"/>
<polygon fill="#63b8ff" stroke="#63b8ff" points="777.86,-223.64 787.68,-219.66 777.52,-216.64 777.86,-223.64"/>
</a>
</g>
</g>
<!-- Node6&#45;&gt;Node11 -->
<g id="edge15_Node000006_Node000011" class="edge">
<title>Node6&#45;&gt;Node11</title>
<g id="a_edge15_Node000006_Node000011"><a xlink:title=" ">
<path fill="none" stroke="#63b8ff" d="M804.38,-196.11C788.14,-189.14 768.97,-181.6 751.37,-175.22"/>
<polygon fill="#63b8ff" stroke="#63b8ff" points="802.63,-199.16 813.19,-199.98 805.44,-192.75 802.63,-199.16"/>
</a>
</g>
</g>
<!-- Node8 -->
<g id="Node000008" class="node">
<title>Node8</title>
<g id="a_Node000008"><a xlink:href="classxpath__ast__node.html#a7e35f265c9e0712a16e1d8a9db4c7672" target="_top" xlink:title=" ">
<polygon fill="white" stroke="#666666" points="439.5,-206 325.25,-206 325.25,-174 439.5,-174 439.5,-206"/>
<text xml:space="preserve" text-anchor="start" x="333.25" y="-192.5" font-family="Helvetica,sans-Serif" font-size="10.00">xpath_ast_node::apply</text>
<text xml:space="preserve" text-anchor="middle" x="382.38" y="-180.5" font-family="Helvetica,sans-Serif" font-size="10.00">_predicate</text>
</a>
</g>
</g>
<!-- Node7&#45;&gt;Node8 -->
<g id="edge7_Node000007_Node000008" class="edge">
<title>Node7&#45;&gt;Node8</title>
<g id="a_edge7_Node000007_Node000008"><a xlink:title=" ">
<path fill="none" stroke="#63b8ff" d="M627.66,-225.13C583.99,-224.9 526.11,-222.8 475.5,-215 462.56,-213.01 448.83,-209.86 436.04,-206.47"/>
<polygon fill="#63b8ff" stroke="#63b8ff" points="627.49,-228.63 637.5,-225.15 627.5,-221.63 627.49,-228.63"/>
</a>
</g>
</g>
<!-- Node9 -->
<g id="Node000009" class="node">
<title>Node9</title>
<g id="a_Node000009"><a xlink:href="classxpath__ast__node.html#a68cace396dd4eeae67ecfcd34a3a8285" target="_top" xlink:title=" ">
<polygon fill="white" stroke="#666666" points="289.25,-206 180.25,-206 180.25,-174 289.25,-174 289.25,-206"/>
<text xml:space="preserve" text-anchor="start" x="188.25" y="-192.5" font-family="Helvetica,sans-Serif" font-size="10.00">xpath_ast_node::eval</text>
<text xml:space="preserve" text-anchor="middle" x="234.75" y="-180.5" font-family="Helvetica,sans-Serif" font-size="10.00">_node_set</text>
</a>
</g>
</g>
<!-- Node8&#45;&gt;Node9 -->
<g id="edge8_Node000008_Node000009" class="edge">
<title>Node8&#45;&gt;Node9</title>
<g id="a_edge8_Node000008_Node000009"><a xlink:title=" ">
<path fill="none" stroke="#63b8ff" d="M313.7,-190C305.59,-190 297.39,-190 289.51,-190"/>
<polygon fill="#63b8ff" stroke="#63b8ff" points="313.56,-193.5 323.56,-190 313.56,-186.5 313.56,-193.5"/>
</a>
</g>
</g>
<!-- Node9&#45;&gt;Node4 -->
<g id="edge13_Node000009_Node000004" class="edge">
<title>Node9&#45;&gt;Node4</title>
<g id="a_edge13_Node000009_Node000004"><a xlink:title=" ">
<path fill="none" stroke="#63b8ff" d="M260.94,-214C310.08,-258.21 423.99,-348 538.38,-348 845,-348 845,-348 845,-348 980.83,-348 1110.83,-222.76 1153.57,-177.27"/>
<polygon fill="#63b8ff" stroke="#63b8ff" points="263.39,-211.5 253.65,-207.34 258.66,-216.67 263.39,-211.5"/>
</a>
</g>
</g>
<!-- Node9&#45;&gt;Node5 -->
<g id="edge9_Node000009_Node000005" class="edge">
<title>Node9&#45;&gt;Node5</title>
<g id="a_edge9_Node000009_Node000005"><a xlink:title=" ">
<path fill="none" stroke="#63b8ff" d="M285.84,-169.45C333.63,-151.03 408.12,-125.36 475.5,-115 638.1,-90 832.09,-99.43 934.36,-107.39"/>
<polygon fill="#63b8ff" stroke="#63b8ff" points="284.63,-166.17 276.58,-173.07 287.17,-172.69 284.63,-166.17"/>
</a>
</g>
</g>
<!-- Node9&#45;&gt;Node6 -->
<g id="edge12_Node000009_Node000006" class="edge">
<title>Node9&#45;&gt;Node6</title>
<g id="a_edge12_Node000009_Node000006"><a xlink:title=" ">
<path fill="none" stroke="#63b8ff" d="M300.66,-209.21C399.07,-235.67 591.71,-277.05 753.5,-249 771.22,-245.93 790.08,-239.67 805.89,-233.5"/>
<polygon fill="#63b8ff" stroke="#63b8ff" points="301.74,-205.87 291.17,-206.62 299.9,-212.63 301.74,-205.87"/>
</a>
</g>
</g>
<!-- Node10 -->
<g id="Node000010" class="node">
<title>Node10</title>
<g id="a_Node000010"><a xlink:href="classxpath__ast__node.html#abb6e4c529276eaf882233dbb6e04e111" target="_top" xlink:title=" ">
<polygon fill="white" stroke="#666666" points="144.25,-153 0,-153 0,-133 144.25,-133 144.25,-153"/>
<text xml:space="preserve" text-anchor="middle" x="72.12" y="-139.5" font-family="Helvetica,sans-Serif" font-size="10.00">xpath_ast_node::compare_rel</text>
</a>
</g>
</g>
<!-- Node9&#45;&gt;Node10 -->
<g id="edge10_Node000009_Node000010" class="edge">
<title>Node9&#45;&gt;Node10</title>
<g id="a_edge10_Node000009_Node000010"><a xlink:title=" ">
<path fill="none" stroke="#63b8ff" d="M168.95,-171.04C148.49,-165.05 126.64,-158.66 108.97,-153.49"/>
<polygon fill="#63b8ff" stroke="#63b8ff" points="167.78,-174.34 178.36,-173.79 169.75,-167.63 167.78,-174.34"/>
</a>
</g>
</g>
<!-- Node10&#45;&gt;Node6 -->
<g id="edge11_Node000010_Node000006" class="edge">
<title>Node10&#45;&gt;Node6</title>
<g id="a_edge11_Node000010_Node000006"><a xlink:title=" ">
<path fill="none" stroke="#63b8ff" d="M91.39,-161.5C136.37,-204.98 257.81,-310 381.38,-310 540.38,-310 540.38,-310 540.38,-310 636.92,-310 663.02,-301.67 753.5,-268 777.13,-259.21 801.88,-244.63 819.35,-233.3"/>
<polygon fill="#63b8ff" stroke="#63b8ff" points="93.87,-159.03 84.29,-154.51 88.96,-164.02 93.87,-159.03"/>
</a>
</g>
</g>
<!-- Node11&#45;&gt;Node4 -->
<g id="edge23_Node000011_Node000004" class="edge">
<title>Node11&#45;&gt;Node4</title>
<g id="a_edge23_Node000011_Node000004"><a xlink:title=" ">
<path fill="none" stroke="#63b8ff" d="M762.57,-165.84C856.41,-168.5 1027.8,-168.38 1114.69,-165.48"/>
<polygon fill="#63b8ff" stroke="#63b8ff" points="762.86,-162.34 752.76,-165.54 762.64,-169.34 762.86,-162.34"/>
</a>
</g>
</g>
<!-- Node11&#45;&gt;Node5 -->
<g id="edge20_Node000011_Node000005" class="edge">
<title>Node11&#45;&gt;Node5</title>
<g id="a_edge20_Node000011_Node000005"><a xlink:title=" ">
<path fill="none" stroke="#63b8ff" d="M762.2,-143.66C771.32,-141.56 780.62,-139.59 789.5,-138 837.43,-129.39 891.94,-123.37 934.22,-119.51"/>
<polygon fill="#63b8ff" stroke="#63b8ff" points="761.58,-140.21 752.66,-145.93 763.2,-147.02 761.58,-140.21"/>
</a>
</g>
</g>
<!-- Node11&#45;&gt;Node6 -->
<g id="edge22_Node000011_Node000006" class="edge">
<title>Node11&#45;&gt;Node6</title>
<g id="a_edge22_Node000011_Node000006"><a xlink:title=" ">
<path fill="none" stroke="#63b8ff" d="M735.91,-181.85C752.22,-188.86 771.51,-196.45 789.19,-202.85"/>
<polygon fill="#63b8ff" stroke="#63b8ff" points="737.62,-178.78 727.05,-177.96 734.8,-185.19 737.62,-178.78"/>
</a>
</g>
</g>
<!-- Node11&#45;&gt;Node10 -->
<g id="edge21_Node000011_Node000010" class="edge">
<title>Node11&#45;&gt;Node10</title>
<g id="a_edge21_Node000011_Node000010"><a xlink:title=" ">
<path fill="none" stroke="#63b8ff" d="M660.58,-138.83C643.92,-129.5 623.28,-119.72 603.25,-115 426.76,-73.39 208.42,-112.28 116.81,-132.51"/>
<polygon fill="#63b8ff" stroke="#63b8ff" points="658.68,-141.77 669.08,-143.77 662.19,-135.72 658.68,-141.77"/>
</a>
</g>
</g>
<!-- Node12 -->
<g id="Node000012" class="node">
<title>Node12</title>
<g id="a_Node000012"><a xlink:href="classxpath__ast__node.html#abf2d4b745493f63aebc1c89d9fde8eed" target="_top" xlink:title=" ">
<polygon fill="white" stroke="#666666" points="596.5,-156 482.25,-156 482.25,-124 596.5,-124 596.5,-156"/>
<text xml:space="preserve" text-anchor="start" x="490.25" y="-142.5" font-family="Helvetica,sans-Serif" font-size="10.00">xpath_ast_node::apply</text>
<text xml:space="preserve" text-anchor="middle" x="539.38" y="-130.5" font-family="Helvetica,sans-Serif" font-size="10.00">_predicate_number</text>
</a>
</g>
</g>
<!-- Node11&#45;&gt;Node12 -->
<g id="edge16_Node000011_Node000012" class="edge">
<title>Node11&#45;&gt;Node12</title>
<g id="a_edge16_Node000011_Node000012"><a xlink:title=" ">
<path fill="none" stroke="#63b8ff" d="M630.24,-152.17C619.18,-150.68 607.77,-149.13 596.96,-147.67"/>
<polygon fill="#63b8ff" stroke="#63b8ff" points="629.72,-155.64 640.1,-153.51 630.66,-148.7 629.72,-155.64"/>
</a>
</g>
</g>
<!-- Node13 -->
<g id="Node000013" class="node">
<title>Node13</title>
<g id="a_Node000013"><a xlink:href="classxpath__ast__node.html#a8cedd7e15623b9fa431788b8843f1463" target="_top" xlink:title=" ">
<polygon fill="white" stroke="#666666" points="603.25,-206 475.5,-206 475.5,-174 603.25,-174 603.25,-206"/>
<text xml:space="preserve" text-anchor="start" x="483.5" y="-192.5" font-family="Helvetica,sans-Serif" font-size="10.00">xpath_ast_node::apply</text>
<text xml:space="preserve" text-anchor="middle" x="539.38" y="-180.5" font-family="Helvetica,sans-Serif" font-size="10.00">_predicate_number_const</text>
</a>
</g>
</g>
<!-- Node11&#45;&gt;Node13 -->
<g id="edge18_Node000011_Node000013" class="edge">
<title>Node11&#45;&gt;Node13</title>
<g id="a_edge18_Node000011_Node000013"><a xlink:title=" ">
<path fill="none" stroke="#63b8ff" d="M630.5,-173.14C621.62,-174.8 612.5,-176.51 603.65,-178.16"/>
<polygon fill="#63b8ff" stroke="#63b8ff" points="630.93,-176.62 640.11,-171.34 629.64,-169.74 630.93,-176.62"/>
</a>
</g>
</g>
<!-- Node12&#45;&gt;Node8 -->
<g id="edge17_Node000012_Node000008" class="edge">
<title>Node12&#45;&gt;Node8</title>
<g id="a_edge17_Node000012_Node000008"><a xlink:title=" ">
<path fill="none" stroke="#63b8ff" d="M477.03,-159.79C462.94,-164.33 448.11,-169.12 434.51,-173.51"/>
<polygon fill="#63b8ff" stroke="#63b8ff" points="477.74,-163.24 486.18,-156.84 475.59,-156.58 477.74,-163.24"/>
</a>
</g>
</g>
<!-- Node13&#45;&gt;Node8 -->
<g id="edge19_Node000013_Node000008" class="edge">
<title>Node13&#45;&gt;Node8</title>
<g id="a_edge19_Node000013_Node000008"><a xlink:title=" ">
<path fill="none" stroke="#63b8ff" d="M463.95,-190C455.85,-190 447.71,-190 439.88,-190"/>
<polygon fill="#63b8ff" stroke="#63b8ff" points="463.82,-193.5 473.82,-190 463.82,-186.5 463.82,-193.5"/>
</a>
</g>
</g>
<!-- Node14&#45;&gt;Node4 -->
<g id="edge32_Node000014_Node000004" class="edge">
<title>Node14&#45;&gt;Node4</title>
<g id="a_edge32_Node000014_Node000004"><a xlink:title=" ">
<path fill="none" stroke="#63b8ff" d="M1278.94,-54.27C1272.21,-57.26 1265.57,-60.81 1259.75,-65 1239.24,-79.76 1240.84,-90.39 1223.75,-109 1212.36,-121.4 1198.74,-134.62 1188.1,-144.62"/>
<polygon fill="#63b8ff" stroke="#63b8ff" points="1280.12,-57.57 1288.1,-50.6 1277.52,-51.07 1280.12,-57.57"/>
</a>
</g>
</g>
<!-- Node14&#45;&gt;Node5 -->
<g id="edge29_Node000014_Node000005" class="edge">
<title>Node14&#45;&gt;Node5</title>
<g id="a_edge29_Node000014_Node000005"><a xlink:title=" ">
<path fill="none" stroke="#63b8ff" d="M1278.59,-51.28C1218.81,-65.12 1113.05,-89.6 1052.86,-103.53"/>
<polygon fill="#63b8ff" stroke="#63b8ff" points="1279.12,-54.75 1288.07,-49.08 1277.54,-47.93 1279.12,-54.75"/>
</a>
</g>
</g>
<!-- Node14&#45;&gt;Node10 -->
<g id="edge30_Node000014_Node000010" class="edge">
<title>Node14&#45;&gt;Node10</title>
<g id="a_edge30_Node000014_Node000010"><a xlink:title=" ">
<path fill="none" stroke="#63b8ff" d="M1278.48,-31.52C1217.61,-19.41 1104.88,0 1007.62,0 1007.62,0 1007.62,0 381.38,0 255.13,0 124.55,-99.93 85.1,-132.72"/>
<polygon fill="#63b8ff" stroke="#63b8ff" points="1277.6,-34.91 1288.1,-33.46 1278.99,-28.05 1277.6,-34.91"/>
</a>
</g>
</g>
<!-- Node14&#45;&gt;Node11 -->
<g id="edge31_Node000014_Node000011" class="edge">
<title>Node14&#45;&gt;Node11</title>
<g id="a_edge31_Node000014_Node000011"><a xlink:title=" ">
<path fill="none" stroke="#63b8ff" d="M1278.19,-42.82C1185.12,-47.63 964.97,-64.31 789.5,-119 768.36,-125.59 745.71,-135.87 728.16,-144.61"/>
<polygon fill="#63b8ff" stroke="#63b8ff" points="1278.09,-46.33 1287.9,-42.34 1277.74,-39.34 1278.09,-46.33"/>
</a>
</g>
</g>
<!-- Node15&#45;&gt;Node4 -->
<g id="edge34_Node000015_Node000004" class="edge">
<title>Node15&#45;&gt;Node4</title>
<g id="a_edge34_Node000015_Node000004"><a xlink:title=" ">
<path fill="none" stroke="#63b8ff" d="M1412.48,-223.56C1367.91,-221.76 1309.67,-216.61 1259.75,-203 1238.39,-197.18 1215.83,-186.56 1198.7,-177.45"/>
<polygon fill="#63b8ff" stroke="#63b8ff" points="1412.17,-227.05 1422.29,-223.9 1412.42,-220.05 1412.17,-227.05"/>
</a>
</g>
</g>
<!-- Node16&#45;&gt;Node3 -->
<g id="edge36_Node000016_Node000003" class="edge">
<title>Node16&#45;&gt;Node3</title>
<g id="a_edge36_Node000016_Node000003"><a xlink:title=" ">
<path fill="none" stroke="#63b8ff" d="M1423.3,-144.25C1402.94,-138.6 1380.82,-132.47 1362.73,-127.46"/>
<polygon fill="#63b8ff" stroke="#63b8ff" points="1422.36,-147.62 1432.93,-146.92 1424.23,-140.87 1422.36,-147.62"/>
</a>
</g>
</g>
<!-- Node16&#45;&gt;Node4 -->
<g id="edge37_Node000016_Node000004" class="edge">
<title>Node16&#45;&gt;Node4</title>
<g id="a_edge37_Node000016_Node000004"><a xlink:title=" ">
<path fill="none" stroke="#63b8ff" d="M1423.69,-179.21C1412.04,-182.04 1399.84,-184.51 1388.25,-186 1331.61,-193.29 1316.33,-193.75 1259.75,-186 1246.64,-184.2 1232.75,-180.99 1219.92,-177.46"/>
<polygon fill="#63b8ff" stroke="#63b8ff" points="1424.37,-182.65 1433.19,-176.79 1422.64,-175.87 1424.37,-182.65"/>
</a>
</g>
</g>
<!-- Node17 -->
<g id="Node000017" class="node">
<title>Node17</title>
<g id="a_Node000017"><a xlink:href="classxpath__ast__node.html#aaf931a091af0fb91c25e90b205363b4e" target="_top" xlink:title=" ">
<polygon fill="white" stroke="#666666" points="1378.5,-177 1269.5,-177 1269.5,-145 1378.5,-145 1378.5,-177"/>
<text xml:space="preserve" text-anchor="start" x="1277.5" y="-163.5" font-family="Helvetica,sans-Serif" font-size="10.00">xpath_ast_node::eval</text>
<text xml:space="preserve" text-anchor="middle" x="1324" y="-151.5" font-family="Helvetica,sans-Serif" font-size="10.00">_string_concat</text>
</a>
</g>
</g>
<!-- Node16&#45;&gt;Node17 -->
<g id="edge38_Node000016_Node000017" class="edge">
<title>Node16&#45;&gt;Node17</title>
<g id="a_edge38_Node000016_Node000017"><a xlink:title=" ">
<path fill="none" stroke="#63b8ff" d="M1422.95,-161C1408.39,-161 1392.95,-161 1378.74,-161"/>
<polygon fill="#63b8ff" stroke="#63b8ff" points="1422.88,-164.5 1432.88,-161 1422.88,-157.5 1422.88,-164.5"/>
</a>
</g>
</g>
<!-- Node17&#45;&gt;Node4 -->
<g id="edge39_Node000017_Node000004" class="edge">
<title>Node17&#45;&gt;Node4</title>
<g id="a_edge39_Node000017_Node000004"><a xlink:title=" ">
<path fill="none" stroke="#63b8ff" d="M1257.65,-161C1246.47,-161 1234.97,-161 1224.13,-161"/>
<polygon fill="#63b8ff" stroke="#63b8ff" points="1257.63,-164.5 1267.63,-161 1257.63,-157.5 1257.63,-164.5"/>
</a>
</g>
</g>
</g>
</svg>
