<?xml version="1.0" encoding="UTF-8" standalone="no"?>
<!DOCTYPE svg PUBLIC "-//W3C//DTD SVG 1.1//EN"
 "http://www.w3.org/Graphics/SVG/1.1/DTD/svg11.dtd">
<!-- Generated by graphviz version 14.1.2 (20260124.0452)
 -->
<!-- Title: GESkeleton::createJointFromData Pages: 1 -->
<svg width="476pt" height="66pt"
 viewBox="0.00 0.00 476.00 66.00" xmlns="http://www.w3.org/2000/svg" xmlns:xlink="http://www.w3.org/1999/xlink">
<g id="graph0" class="graph" transform="scale(1 1) rotate(0) translate(4 62)">
<title>GESkeleton::createJointFromData</title>
<!-- Node1 -->
<g id="Node000001" class="node">
<title>Node1</title>
<g id="a_Node000001"><a xlink:title="Crea recursivamente las articulaciones desde los datos parseados.">
<polygon fill="#999999" stroke="#666666" points="166,-39 0,-39 0,-19 166,-19 166,-39"/>
<text xml:space="preserve" text-anchor="middle" x="83" y="-25.5" font-family="Helvetica,sans-Serif" font-size="10.00">GESkeleton::createJointFromData</text>
</a>
</g>
</g>
<!-- Node1&#45;&gt;Node1 -->
<g id="edge3_Node000001_Node000001" class="edge">
<title>Node1&#45;&gt;Node1</title>
<g id="a_edge3_Node000001_Node000001"><a xlink:title=" ">
<path fill="none" stroke="#63b8ff" d="M55.31,-39.34C43.48,-47.98 52.71,-57 83,-57 100.04,-57 110.41,-54.14 114.12,-50.11"/>
<polygon fill="#63b8ff" stroke="#63b8ff" points="117.52,-49.24 111.15,-40.78 110.85,-51.37 117.52,-49.24"/>
</a>
</g>
</g>
<!-- Node2 -->
<g id="Node000002" class="node">
<title>Node2</title>
<g id="a_Node000002"><a xlink:href="class_g_e_balljoint.html#a2a6fc6d00a3ea4c9ca016f1afe358fd9" target="_top" xlink:title="Añade una articulación hija.">
<polygon fill="white" stroke="#666666" points="311.75,-58 202.75,-58 202.75,-38 311.75,-38 311.75,-58"/>
<text xml:space="preserve" text-anchor="middle" x="257.25" y="-44.5" font-family="Helvetica,sans-Serif" font-size="10.00">GEBalljoint::addChild</text>
</a>
</g>
</g>
<!-- Node1&#45;&gt;Node2 -->
<g id="edge1_Node000001_Node000002" class="edge">
<title>Node1&#45;&gt;Node2</title>
<g id="a_edge1_Node000001_Node000002"><a xlink:title=" ">
<path fill="none" stroke="#63b8ff" d="M166.34,-38.08C174.69,-39 183.09,-39.93 191.21,-40.83"/>
<polygon fill="#63b8ff" stroke="#63b8ff" points="190.67,-44.29 200.99,-41.9 191.43,-37.33 190.67,-44.29"/>
</a>
</g>
</g>
<!-- Node4 -->
<g id="Node000004" class="node">
<title>Node4</title>
<g id="a_Node000004"><a xlink:href="class_g_e_balljoint.html#a57203edfebb0ba0bf9979e34fe472274" target="_top" xlink:title="Asigna los límites de rotación.">
<polygon fill="white" stroke="#666666" points="312.5,-20 202,-20 202,0 312.5,0 312.5,-20"/>
<text xml:space="preserve" text-anchor="middle" x="257.25" y="-6.5" font-family="Helvetica,sans-Serif" font-size="10.00">GEBalljoint::setLimits</text>
</a>
</g>
</g>
<!-- Node1&#45;&gt;Node4 -->
<g id="edge4_Node000001_Node000004" class="edge">
<title>Node1&#45;&gt;Node4</title>
<g id="a_edge4_Node000001_Node000004"><a xlink:title=" ">
<path fill="none" stroke="#63b8ff" d="M166.34,-19.92C174.36,-19.03 182.42,-18.14 190.25,-17.28"/>
<polygon fill="#63b8ff" stroke="#63b8ff" points="190.46,-20.78 200.02,-16.2 189.69,-13.82 190.46,-20.78"/>
</a>
</g>
</g>
<!-- Node3 -->
<g id="Node000003" class="node">
<title>Node3</title>
<g id="a_Node000003"><a xlink:href="class_g_e_balljoint.html#a0f468b4618ae46410622a32a83569714" target="_top" xlink:title="Construye una articulación.">
<polygon fill="white" stroke="#666666" points="468,-58 348.5,-58 348.5,-38 468,-38 468,-58"/>
<text xml:space="preserve" text-anchor="middle" x="408.25" y="-44.5" font-family="Helvetica,sans-Serif" font-size="10.00">GEBalljoint::GEBalljoint</text>
</a>
</g>
</g>
<!-- Node2&#45;&gt;Node3 -->
<g id="edge2_Node000002_Node000003" class="edge">
<title>Node2&#45;&gt;Node3</title>
<g id="a_edge2_Node000002_Node000003"><a xlink:title=" ">
<path fill="none" stroke="#63b8ff" d="M312.04,-48C320.12,-48 328.56,-48 336.92,-48"/>
<polygon fill="#63b8ff" stroke="#63b8ff" points="336.73,-51.5 346.73,-48 336.73,-44.5 336.73,-51.5"/>
</a>
</g>
</g>
</g>
</svg>
