<?xml version="1.0" encoding="UTF-8" standalone="no"?>
<!DOCTYPE svg PUBLIC "-//W3C//DTD SVG 1.1//EN"
 "http://www.w3.org/Graphics/SVG/1.1/DTD/svg11.dtd">
<!-- Generated by graphviz version 14.1.2 (20260124.0452)
 -->
<!-- Title: xpath_ast_node::step_fill Pages: 1 -->
<svg width="916pt" height="154pt"
 viewBox="0.00 0.00 916.00 154.00" xmlns="http://www.w3.org/2000/svg" xmlns:xlink="http://www.w3.org/1999/xlink">
<g id="graph0" class="graph" transform="scale(1 1) rotate(0) translate(4 150)">
<title>xpath_ast_node::step_fill</title>
<!-- Node1 -->
<g id="Node000001" class="node">
<title>Node1</title>
<g id="a_Node000001"><a xlink:title=" ">
<polygon fill="#999999" stroke="#666666" points="124.75,-105 0,-105 0,-85 124.75,-85 124.75,-105"/>
<text xml:space="preserve" text-anchor="middle" x="62.38" y="-91.5" font-family="Helvetica,sans-Serif" font-size="10.00">xpath_ast_node::step_fill</text>
</a>
</g>
</g>
<!-- Node2 -->
<g id="Node000002" class="node">
<title>Node2</title>
<g id="a_Node000002"><a xlink:href="classxpath__ast__node.html#acbc4f5ec0e4d48444564d5101890416e" target="_top" xlink:title=" ">
<polygon fill="white" stroke="#666666" points="285.5,-105 160.75,-105 160.75,-85 285.5,-85 285.5,-105"/>
<text xml:space="preserve" text-anchor="middle" x="223.12" y="-91.5" font-family="Helvetica,sans-Serif" font-size="10.00">xpath_ast_node::step_fill</text>
</a>
</g>
</g>
<!-- Node1&#45;&gt;Node2 -->
<g id="edge1_Node000001_Node000002" class="edge">
<title>Node1&#45;&gt;Node2</title>
<g id="a_edge1_Node000001_Node000002"><a xlink:title=" ">
<path fill="none" stroke="#63b8ff" d="M125.21,-95C133.08,-95 141.19,-95 149.21,-95"/>
<polygon fill="#63b8ff" stroke="#63b8ff" points="148.95,-98.5 158.95,-95 148.95,-91.5 148.95,-98.5"/>
</a>
</g>
</g>
<!-- Node3 -->
<g id="Node000003" class="node">
<title>Node3</title>
<g id="a_Node000003"><a xlink:href="pugixml_8cpp.html#a8ab686db9f80e7ac953ba69ccace1f6a" target="_top" xlink:title=" ">
<polygon fill="white" stroke="#666666" points="435.75,-124 343.25,-124 343.25,-104 435.75,-104 435.75,-124"/>
<text xml:space="preserve" text-anchor="middle" x="389.5" y="-110.5" font-family="Helvetica,sans-Serif" font-size="10.00">node_is_ancestor</text>
</a>
</g>
</g>
<!-- Node2&#45;&gt;Node3 -->
<g id="edge2_Node000002_Node000003" class="edge">
<title>Node2&#45;&gt;Node3</title>
<g id="a_edge2_Node000002_Node000003"><a xlink:title=" ">
<path fill="none" stroke="#63b8ff" d="M285.8,-102.13C300.9,-103.87 316.99,-105.73 331.84,-107.45"/>
<polygon fill="#63b8ff" stroke="#63b8ff" points="331.08,-110.89 341.41,-108.56 331.88,-103.93 331.08,-110.89"/>
</a>
</g>
</g>
<!-- Node4 -->
<g id="Node000004" class="node">
<title>Node4</title>
<g id="a_Node000004"><a xlink:href="classxpath__ast__node.html#a4f7aaa038105a1d98a7505606ca2b5a2" target="_top" xlink:title=" ">
<polygon fill="white" stroke="#666666" points="457.5,-86 321.5,-86 321.5,-66 457.5,-66 457.5,-86"/>
<text xml:space="preserve" text-anchor="middle" x="389.5" y="-72.5" font-family="Helvetica,sans-Serif" font-size="10.00">xpath_ast_node::step_push</text>
</a>
</g>
</g>
<!-- Node2&#45;&gt;Node4 -->
<g id="edge3_Node000002_Node000004" class="edge">
<title>Node2&#45;&gt;Node4</title>
<g id="a_edge3_Node000002_Node000004"><a xlink:title=" ">
<path fill="none" stroke="#63b8ff" d="M285.8,-87.87C293.66,-86.96 301.79,-86.02 309.88,-85.09"/>
<polygon fill="#63b8ff" stroke="#63b8ff" points="310.21,-88.57 319.74,-83.95 309.41,-81.62 310.21,-88.57"/>
</a>
</g>
</g>
<!-- Node5 -->
<g id="Node000005" class="node">
<title>Node5</title>
<g id="a_Node000005"><a xlink:href="pugixml_8cpp.html#a63041941bf2b704523fead76b505d418" target="_top" xlink:title=" ">
<polygon fill="white" stroke="#666666" points="593.12,-146 499.88,-146 499.88,-126 593.12,-126 593.12,-146"/>
<text xml:space="preserve" text-anchor="middle" x="546.5" y="-132.5" font-family="Helvetica,sans-Serif" font-size="10.00">is_xpath_attribute</text>
</a>
</g>
</g>
<!-- Node4&#45;&gt;Node5 -->
<g id="edge4_Node000004_Node000005" class="edge">
<title>Node4&#45;&gt;Node5</title>
<g id="a_edge4_Node000004_Node000005"><a xlink:title=" ">
<path fill="none" stroke="#63b8ff" d="M431.59,-86.5C440.24,-89.02 449.24,-91.9 457.5,-95 474.07,-101.21 477.47,-104.51 493.5,-112 499.62,-114.86 506.15,-117.89 512.44,-120.8"/>
<polygon fill="#63b8ff" stroke="#63b8ff" points="510.78,-123.88 521.32,-124.89 513.71,-117.53 510.78,-123.88"/>
</a>
</g>
</g>
<!-- Node6 -->
<g id="Node000006" class="node">
<title>Node6</title>
<g id="a_Node000006"><a xlink:href="pugixml_8cpp.html#ae495a9f52adc166d7cd2f30a87e1d315" target="_top" xlink:title=" ">
<polygon fill="white" stroke="#666666" points="720.5,-127 656.5,-127 656.5,-107 720.5,-107 720.5,-127"/>
<text xml:space="preserve" text-anchor="middle" x="688.5" y="-113.5" font-family="Helvetica,sans-Serif" font-size="10.00">starts_with</text>
</a>
</g>
</g>
<!-- Node4&#45;&gt;Node6 -->
<g id="edge9_Node000004_Node000006" class="edge">
<title>Node4&#45;&gt;Node6</title>
<g id="a_edge9_Node000004_Node000006"><a xlink:title=" ">
<path fill="none" stroke="#63b8ff" d="M457.89,-85.3C515.41,-93.24 596.34,-104.42 645.17,-111.16"/>
<polygon fill="#63b8ff" stroke="#63b8ff" points="644.38,-114.58 654.77,-112.48 645.34,-107.65 644.38,-114.58"/>
</a>
</g>
</g>
<!-- Node7 -->
<g id="Node000007" class="node">
<title>Node7</title>
<g id="a_Node000007"><a xlink:href="classxpath__node__set__raw.html#a676ec123e5be874869c78ff5c43ae9c2" target="_top" xlink:title=" ">
<polygon fill="white" stroke="#666666" points="599.5,-70 493.5,-70 493.5,-38 599.5,-38 599.5,-70"/>
<text xml:space="preserve" text-anchor="start" x="501.5" y="-56.5" font-family="Helvetica,sans-Serif" font-size="10.00">xpath_node_set_raw</text>
<text xml:space="preserve" text-anchor="middle" x="546.5" y="-44.5" font-family="Helvetica,sans-Serif" font-size="10.00">::push_back</text>
</a>
</g>
</g>
<!-- Node4&#45;&gt;Node7 -->
<g id="edge6_Node000004_Node000007" class="edge">
<title>Node4&#45;&gt;Node7</title>
<g id="a_edge6_Node000004_Node000007"><a xlink:title=" ">
<path fill="none" stroke="#63b8ff" d="M457.58,-66.48C465.7,-65.33 473.98,-64.15 482.04,-63.01"/>
<polygon fill="#63b8ff" stroke="#63b8ff" points="482.36,-66.5 491.77,-61.63 481.37,-59.57 482.36,-66.5"/>
</a>
</g>
</g>
<!-- Node10 -->
<g id="Node000010" class="node">
<title>Node10</title>
<g id="a_Node000010"><a xlink:href="pugixml_8cpp.html#a18ca4720d82fac6db58f522a2c6a682e" target="_top" xlink:title=" ">
<polygon fill="white" stroke="#666666" points="571.75,-20 521.25,-20 521.25,0 571.75,0 571.75,-20"/>
<text xml:space="preserve" text-anchor="middle" x="546.5" y="-6.5" font-family="Helvetica,sans-Serif" font-size="10.00">strequal</text>
</a>
</g>
</g>
<!-- Node4&#45;&gt;Node10 -->
<g id="edge10_Node000004_Node000010" class="edge">
<title>Node4&#45;&gt;Node10</title>
<g id="a_edge10_Node000004_Node000010"><a xlink:title=" ">
<path fill="none" stroke="#63b8ff" d="M411.99,-65.6C432.68,-55.73 464.95,-40.71 493.5,-29 498.92,-26.78 504.7,-24.54 510.38,-22.41"/>
<polygon fill="#63b8ff" stroke="#63b8ff" points="511.41,-25.76 519.59,-19.03 509,-19.19 511.41,-25.76"/>
</a>
</g>
</g>
<!-- Node5&#45;&gt;Node6 -->
<g id="edge5_Node000005_Node000006" class="edge">
<title>Node5&#45;&gt;Node6</title>
<g id="a_edge5_Node000005_Node000006"><a xlink:title=" ">
<path fill="none" stroke="#63b8ff" d="M593.34,-129.78C609.9,-127.53 628.51,-125.01 644.79,-122.8"/>
<polygon fill="#63b8ff" stroke="#63b8ff" points="645.22,-126.27 654.66,-121.46 644.28,-119.33 645.22,-126.27"/>
</a>
</g>
</g>
<!-- Node8 -->
<g id="Node000008" class="node">
<title>Node8</title>
<g id="a_Node000008"><a xlink:href="classxpath__node__set__raw.html#a0b2d66a98ec56ed0c5b5a9fce222ddc4" target="_top" xlink:title=" ">
<polygon fill="white" stroke="#666666" points="741.5,-70 635.5,-70 635.5,-38 741.5,-38 741.5,-70"/>
<text xml:space="preserve" text-anchor="start" x="643.5" y="-56.5" font-family="Helvetica,sans-Serif" font-size="10.00">xpath_node_set_raw</text>
<text xml:space="preserve" text-anchor="middle" x="688.5" y="-44.5" font-family="Helvetica,sans-Serif" font-size="10.00">::push_back_grow</text>
</a>
</g>
</g>
<!-- Node7&#45;&gt;Node8 -->
<g id="edge7_Node000007_Node000008" class="edge">
<title>Node7&#45;&gt;Node8</title>
<g id="a_edge7_Node000007_Node000008"><a xlink:title=" ">
<path fill="none" stroke="#63b8ff" d="M599.63,-54C607.56,-54 615.81,-54 623.95,-54"/>
<polygon fill="#63b8ff" stroke="#63b8ff" points="623.81,-57.5 633.81,-54 623.81,-50.5 623.81,-57.5"/>
</a>
</g>
</g>
<!-- Node9 -->
<g id="Node000009" class="node">
<title>Node9</title>
<g id="a_Node000009"><a xlink:href="structxpath__allocator.html#a5d3ba1b01ba87b2002b348674e9d50b6" target="_top" xlink:title=" ">
<polygon fill="white" stroke="#666666" points="907.5,-64 777.5,-64 777.5,-44 907.5,-44 907.5,-64"/>
<text xml:space="preserve" text-anchor="middle" x="842.5" y="-50.5" font-family="Helvetica,sans-Serif" font-size="10.00">xpath_allocator::reallocate</text>
</a>
</g>
</g>
<!-- Node8&#45;&gt;Node9 -->
<g id="edge8_Node000008_Node000009" class="edge">
<title>Node8&#45;&gt;Node9</title>
<g id="a_edge8_Node000008_Node000009"><a xlink:title=" ">
<path fill="none" stroke="#63b8ff" d="M741.81,-54C749.51,-54 757.58,-54 765.64,-54"/>
<polygon fill="#63b8ff" stroke="#63b8ff" points="765.49,-57.5 775.49,-54 765.49,-50.5 765.49,-57.5"/>
</a>
</g>
</g>
</g>
</svg>
