<?xml version="1.0" encoding="UTF-8" standalone="no"?>
<!DOCTYPE svg PUBLIC "-//W3C//DTD SVG 1.1//EN"
 "http://www.w3.org/Graphics/SVG/1.1/DTD/svg11.dtd">
<!-- Generated by graphviz version 14.1.2 (20260124.0452)
 -->
<!-- Title: xpath_ast_node::apply_predicate_number Pages: 1 -->
<!--zoomable 339 -->

<svg id="main" version="1.1" xmlns="http://www.w3.org/2000/svg" xmlns:xlink="http://www.w3.org/1999/xlink" xml:space="preserve" onload="init(evt)">

<style type="text/css"><![CDATA[
.node, .edge {opacity: 0.7;}
.node.selected, .edge.selected {opacity: 1;}
.edge:hover path { stroke: red; }
.edge:hover polygon { stroke: red; fill: red; }
]]></style>

<defs>
  <circle id="rim" cx="0" cy="0" r="7"/>
  <circle id="rim2" cx="0" cy="0" r="3.5"/>
  <g id="zoomPlus">
    <use xlink:href="#rim" fill="#404040"><set attributeName="fill" to="#808080" begin="zoomplus.mouseover" end="zoomplus.mouseout"/></use>
    <path d="M-4,0h8M0,-4v8" fill="none" stroke="white" stroke-width="1.5" pointer-events="none"/>
  </g>
  <g id="zoomMin">
    <use xlink:href="#rim" fill="#404040"><set attributeName="fill" to="#808080" begin="zoomminus.mouseover" end="zoomminus.mouseout"/></use>
    <path d="M-4,0h8" fill="none" stroke="white" stroke-width="1.5" pointer-events="none"/>
  </g>
  <g id="arrowUp" transform="translate(30 24)">
    <use xlink:href="#rim"/>
    <path pointer-events="none" fill="none" stroke="white" stroke-width="1.5" d="M0,-3.0v7 M-2.5,-0.5L0,-3.0L2.5,-0.5"/>
  </g>
  <g id="arrowRight" transform="rotate(90) translate(36 -43)">
    <use xlink:href="#rim"/>
    <path pointer-events="none" fill="none" stroke="white" stroke-width="1.5" d="M0,-3.0v7 M-2.5,-0.5L0,-3.0L2.5,-0.5"/>
  </g>
  <g id="arrowDown" transform="rotate(180) translate(-30 -48)">
    <use xlink:href="#rim"/>
    <path pointer-events="none" fill="none" stroke="white" stroke-width="1.5" d="M0,-3.0v7 M-2.5,-0.5L0,-3.0L2.5,-0.5"/>
  </g>
  <g id="arrowLeft" transform="rotate(270) translate(-36 17)">
    <use xlink:href="#rim"/>
    <path pointer-events="none" fill="none" stroke="white" stroke-width="1.5" d="M0,-3.0v7 M-2.5,-0.5L0,-3.0L2.5,-0.5"/>
  </g>
  <g id="resetDef">
    <use xlink:href="#rim2" fill="#404040"><set attributeName="fill" to="#808080" begin="reset.mouseover" end="reset.mouseout"/></use>
  </g>
</defs>
<script type="application/ecmascript">
var viewWidth = 1218;
var viewHeight = 339;
var sectionId = 'dynsection-11';
</script>
<script type="application/ecmascript" xlink:href="svg.min.js"/>
<svg id="graph" class="graph">
<g id="viewport">
<title>xpath_ast_node::apply_predicate_number</title>
<!-- Node1 -->
<g id="Node000001" class="node">
<title>Node1</title>
<g id="a_Node000001"><a xlink:title=" ">
<polygon fill="#999999" stroke="#666666" points="1210.25,-112 1096,-112 1096,-80 1210.25,-80 1210.25,-112"/>
<text xml:space="preserve" text-anchor="start" x="1104" y="-98.5" font-family="Helvetica,sans-Serif" font-size="10.00">xpath_ast_node::apply</text>
<text xml:space="preserve" text-anchor="middle" x="1153.12" y="-86.5" font-family="Helvetica,sans-Serif" font-size="10.00">_predicate_number</text>
</a>
</g>
</g>
<!-- Node2 -->
<g id="Node000002" class="node">
<title>Node2</title>
<g id="a_Node000002"><a xlink:href="classxpath__ast__node.html#a7e35f265c9e0712a16e1d8a9db4c7672" target="_top" xlink:title=" ">
<polygon fill="white" stroke="#666666" points="1060,-225 945.75,-225 945.75,-193 1060,-193 1060,-225"/>
<text xml:space="preserve" text-anchor="start" x="953.75" y="-211.5" font-family="Helvetica,sans-Serif" font-size="10.00">xpath_ast_node::apply</text>
<text xml:space="preserve" text-anchor="middle" x="1002.88" y="-199.5" font-family="Helvetica,sans-Serif" font-size="10.00">_predicate</text>
</a>
</g>
</g>
<!-- Node1&#45;&gt;Node2 -->
<g id="edge1_Node000001_Node000002" class="edge">
<title>Node1&#45;&gt;Node2</title>
<g id="a_edge1_Node000001_Node000002"><a xlink:title=" ">
<path fill="none" stroke="#63b8ff" d="M1121.78,-119.13C1093.11,-140.98 1050.83,-173.21 1025.46,-192.55"/>
<polygon fill="#63b8ff" stroke="#63b8ff" points="1123.53,-122.19 1129.36,-113.35 1119.29,-116.63 1123.53,-122.19"/>
</a>
</g>
</g>
<!-- Node3 -->
<g id="Node000003" class="node">
<title>Node3</title>
<g id="a_Node000003"><a xlink:href="classxpath__ast__node.html#a68cace396dd4eeae67ecfcd34a3a8285" target="_top" xlink:title=" ">
<polygon fill="white" stroke="#666666" points="909.75,-170 800.75,-170 800.75,-138 909.75,-138 909.75,-170"/>
<text xml:space="preserve" text-anchor="start" x="808.75" y="-156.5" font-family="Helvetica,sans-Serif" font-size="10.00">xpath_ast_node::eval</text>
<text xml:space="preserve" text-anchor="middle" x="855.25" y="-144.5" font-family="Helvetica,sans-Serif" font-size="10.00">_node_set</text>
</a>
</g>
</g>
<!-- Node2&#45;&gt;Node3 -->
<g id="edge2_Node000002_Node000003" class="edge">
<title>Node2&#45;&gt;Node3</title>
<g id="a_edge2_Node000002_Node000003"><a xlink:title=" ">
<path fill="none" stroke="#63b8ff" d="M947.87,-188.6C932.06,-182.63 914.97,-176.18 899.88,-170.48"/>
<polygon fill="#63b8ff" stroke="#63b8ff" points="946.57,-191.85 957.16,-192.11 949.04,-185.3 946.57,-191.85"/>
</a>
</g>
</g>
<!-- Node4 -->
<g id="Node000004" class="node">
<title>Node4</title>
<g id="a_Node000004"><a xlink:href="classxpath__ast__node.html#a98dd7f6e67fe2c56c63056eed835d6a4" target="_top" xlink:title=" ">
<polygon fill="white" stroke="#666666" points="764.75,-164 620.5,-164 620.5,-144 764.75,-144 764.75,-164"/>
<text xml:space="preserve" text-anchor="middle" x="692.62" y="-150.5" font-family="Helvetica,sans-Serif" font-size="10.00">xpath_ast_node::compare_eq</text>
</a>
</g>
</g>
<!-- Node3&#45;&gt;Node4 -->
<g id="edge3_Node000003_Node000004" class="edge">
<title>Node3&#45;&gt;Node4</title>
<g id="a_edge3_Node000003_Node000004"><a xlink:title=" ">
<path fill="none" stroke="#63b8ff" d="M788.98,-154C781.11,-154 773.05,-154 765.1,-154"/>
<polygon fill="#63b8ff" stroke="#63b8ff" points="788.8,-157.5 798.8,-154 788.8,-150.5 788.8,-157.5"/>
</a>
</g>
</g>
<!-- Node5 -->
<g id="Node000005" class="node">
<title>Node5</title>
<g id="a_Node000005"><a xlink:href="classxpath__ast__node.html#ab7f965a92023bc2704b8e6fd9f3d7c14" target="_top" xlink:title=" ">
<polygon fill="white" stroke="#666666" points="584.5,-212 475.5,-212 475.5,-180 584.5,-180 584.5,-212"/>
<text xml:space="preserve" text-anchor="start" x="483.5" y="-198.5" font-family="Helvetica,sans-Serif" font-size="10.00">xpath_ast_node::eval</text>
<text xml:space="preserve" text-anchor="middle" x="530" y="-186.5" font-family="Helvetica,sans-Serif" font-size="10.00">_boolean</text>
</a>
</g>
</g>
<!-- Node3&#45;&gt;Node5 -->
<g id="edge22_Node000003_Node000005" class="edge">
<title>Node3&#45;&gt;Node5</title>
<g id="a_edge22_Node000003_Node000005"><a xlink:title=" ">
<path fill="none" stroke="#63b8ff" d="M789.33,-168.67C781.08,-170.27 772.74,-171.76 764.75,-173 703.3,-182.52 632.11,-188.86 584.59,-192.43"/>
<polygon fill="#63b8ff" stroke="#63b8ff" points="789.88,-172.13 798.99,-166.73 788.5,-165.26 789.88,-172.13"/>
</a>
</g>
</g>
<!-- Node9 -->
<g id="Node000009" class="node">
<title>Node9</title>
<g id="a_Node000009"><a xlink:href="classxpath__ast__node.html#abb6e4c529276eaf882233dbb6e04e111" target="_top" xlink:title=" ">
<polygon fill="white" stroke="#666666" points="144.25,-153 0,-153 0,-133 144.25,-133 144.25,-153"/>
<text xml:space="preserve" text-anchor="middle" x="72.12" y="-139.5" font-family="Helvetica,sans-Serif" font-size="10.00">xpath_ast_node::compare_rel</text>
</a>
</g>
</g>
<!-- Node3&#45;&gt;Node9 -->
<g id="edge21_Node000003_Node000009" class="edge">
<title>Node3&#45;&gt;Node9</title>
<g id="a_edge21_Node000003_Node000009"><a xlink:title=" ">
<path fill="none" stroke="#63b8ff" d="M826.49,-130.24C773.07,-87.03 650.63,0 531,0 531,0 531,0 381.38,0 255.13,0 124.55,-99.93 85.1,-132.72"/>
<polygon fill="#63b8ff" stroke="#63b8ff" points="824.24,-132.91 834.18,-136.56 828.68,-127.51 824.24,-132.91"/>
</a>
</g>
</g>
<!-- Node10 -->
<g id="Node000010" class="node">
<title>Node10</title>
<g id="a_Node000010"><a xlink:href="classxpath__ast__node.html#a6b675237a590548b68d0e0b97518b6df" target="_top" xlink:title=" ">
<polygon fill="white" stroke="#666666" points="436.88,-159 327.88,-159 327.88,-127 436.88,-127 436.88,-159"/>
<text xml:space="preserve" text-anchor="start" x="335.88" y="-145.5" font-family="Helvetica,sans-Serif" font-size="10.00">xpath_ast_node::eval</text>
<text xml:space="preserve" text-anchor="middle" x="382.38" y="-133.5" font-family="Helvetica,sans-Serif" font-size="10.00">_string</text>
</a>
</g>
</g>
<!-- Node3&#45;&gt;Node10 -->
<g id="edge23_Node000003_Node000010" class="edge">
<title>Node3&#45;&gt;Node10</title>
<g id="a_edge23_Node000003_Node000010"><a xlink:title=" ">
<path fill="none" stroke="#63b8ff" d="M789.43,-138.58C781.16,-137.1 772.79,-135.84 764.75,-135 648.5,-122.8 511.26,-131.22 437.24,-137.63"/>
<polygon fill="#63b8ff" stroke="#63b8ff" points="788.62,-141.99 799.1,-140.42 789.93,-135.11 788.62,-141.99"/>
</a>
</g>
</g>
<!-- Node4&#45;&gt;Node5 -->
<g id="edge4_Node000004_Node000005" class="edge">
<title>Node4&#45;&gt;Node5</title>
<g id="a_edge4_Node000004_Node000005"><a xlink:title=" ">
<path fill="none" stroke="#63b8ff" d="M615.2,-167.24C599.88,-171.19 584.37,-175.52 570.91,-179.64"/>
<polygon fill="#63b8ff" stroke="#63b8ff" points="615.99,-170.65 624.83,-164.81 614.27,-163.86 615.99,-170.65"/>
</a>
</g>
</g>
<!-- Node5&#45;&gt;Node4 -->
<g id="edge7_Node000005_Node000004" class="edge">
<title>Node5&#45;&gt;Node4</title>
<g id="a_edge7_Node000005_Node000004"><a xlink:title=" ">
<path fill="none" stroke="#63b8ff" d="M595.86,-185.68C622.24,-179.17 650.93,-171.05 669.96,-164.45"/>
<polygon fill="#63b8ff" stroke="#63b8ff" points="595.1,-182.26 586.2,-188.01 596.74,-189.07 595.1,-182.26"/>
</a>
</g>
</g>
<!-- Node6 -->
<g id="Node000006" class="node">
<title>Node6</title>
<g id="a_Node000006"><a xlink:href="classxpath__ast__node.html#ab4e5bbd3f2e83c86a43349374b4bfc22" target="_top" xlink:title=" ">
<polygon fill="white" stroke="#666666" points="439.5,-303 325.25,-303 325.25,-271 439.5,-271 439.5,-303"/>
<text xml:space="preserve" text-anchor="start" x="333.25" y="-289.5" font-family="Helvetica,sans-Serif" font-size="10.00">xpath_ast_node::apply</text>
<text xml:space="preserve" text-anchor="middle" x="382.38" y="-277.5" font-family="Helvetica,sans-Serif" font-size="10.00">_predicate_boolean</text>
</a>
</g>
</g>
<!-- Node5&#45;&gt;Node6 -->
<g id="edge5_Node000005_Node000006" class="edge">
<title>Node5&#45;&gt;Node6</title>
<g id="a_edge5_Node000005_Node000006"><a xlink:title=" ">
<path fill="none" stroke="#63b8ff" d="M496.91,-219.1C480.09,-230.89 459,-245.19 439.5,-257 431.85,-261.64 423.42,-266.34 415.47,-270.61"/>
<polygon fill="#63b8ff" stroke="#63b8ff" points="498.88,-221.99 505.03,-213.37 494.84,-216.28 498.88,-221.99"/>
</a>
</g>
</g>
<!-- Node7 -->
<g id="Node000007" class="node">
<title>Node7</title>
<g id="a_Node000007"><a xlink:href="classxpath__ast__node.html#a92dd7048e28d486bc7f382d1fc6f1de6" target="_top" xlink:title=" ">
<polygon fill="white" stroke="#666666" points="289.25,-159 180.25,-159 180.25,-127 289.25,-127 289.25,-159"/>
<text xml:space="preserve" text-anchor="start" x="188.25" y="-145.5" font-family="Helvetica,sans-Serif" font-size="10.00">xpath_ast_node::eval</text>
<text xml:space="preserve" text-anchor="middle" x="234.75" y="-133.5" font-family="Helvetica,sans-Serif" font-size="10.00">_number</text>
</a>
</g>
</g>
<!-- Node5&#45;&gt;Node7 -->
<g id="edge8_Node000005_Node000007" class="edge">
<title>Node5&#45;&gt;Node7</title>
<g id="a_edge8_Node000005_Node000007"><a xlink:title=" ">
<path fill="none" stroke="#63b8ff" d="M463.78,-181.54C423.6,-175.64 371.17,-168.52 325.25,-159 313.56,-156.58 301.15,-153.46 289.41,-150.48"/>
<polygon fill="#63b8ff" stroke="#63b8ff" points="463.13,-184.98 473.54,-182.99 464.16,-178.06 463.13,-184.98"/>
</a>
</g>
</g>
<!-- Node5&#45;&gt;Node10 -->
<g id="edge20_Node000005_Node000010" class="edge">
<title>Node5&#45;&gt;Node10</title>
<g id="a_edge20_Node000005_Node000010"><a xlink:title=" ">
<path fill="none" stroke="#63b8ff" d="M488.65,-175.2C472.77,-168.76 454.3,-161.89 437.3,-156.08"/>
<polygon fill="#63b8ff" stroke="#63b8ff" points="487.2,-178.39 497.78,-179 489.89,-171.93 487.2,-178.39"/>
</a>
</g>
</g>
<!-- Node6&#45;&gt;Node2 -->
<g id="edge6_Node000006_Node000002" class="edge">
<title>Node6&#45;&gt;Node2</title>
<g id="a_edge6_Node000006_Node000002"><a xlink:title=" ">
<path fill="none" stroke="#63b8ff" d="M451.1,-278.46C573.92,-262.97 831.26,-230.52 945.35,-216.13"/>
<polygon fill="#63b8ff" stroke="#63b8ff" points="450.98,-274.95 441.5,-279.67 451.86,-281.89 450.98,-274.95"/>
</a>
</g>
</g>
<!-- Node7&#45;&gt;Node1 -->
<g id="edge9_Node000007_Node000001" class="edge">
<title>Node7&#45;&gt;Node1</title>
<g id="a_edge9_Node000007_Node000001"><a xlink:title=" ">
<path fill="none" stroke="#63b8ff" d="M271.87,-120.92C325.79,-90.13 431.46,-38 529,-38 856.25,-38 856.25,-38 856.25,-38 943.14,-38 1041.75,-62.39 1100.35,-79.53"/>
<polygon fill="#63b8ff" stroke="#63b8ff" points="270.3,-117.79 263.41,-125.83 273.82,-123.84 270.3,-117.79"/>
</a>
</g>
</g>
<!-- Node7&#45;&gt;Node4 -->
<g id="edge12_Node000007_Node000004" class="edge">
<title>Node7&#45;&gt;Node4</title>
<g id="a_edge12_Node000007_Node000004"><a xlink:title=" ">
<path fill="none" stroke="#63b8ff" d="M296.46,-123.66C306,-121.31 315.83,-119.29 325.25,-118 442.39,-101.95 581.56,-127.9 649.74,-143.52"/>
<polygon fill="#63b8ff" stroke="#63b8ff" points="295.68,-120.25 286.88,-126.16 297.44,-127.02 295.68,-120.25"/>
</a>
</g>
</g>
<!-- Node7&#45;&gt;Node5 -->
<g id="edge15_Node000007_Node000005" class="edge">
<title>Node7&#45;&gt;Node5</title>
<g id="a_edge15_Node000007_Node000005"><a xlink:title=" ">
<path fill="none" stroke="#63b8ff" d="M273.77,-163.17C289.57,-168.45 308.18,-173.46 325.25,-177 375.6,-187.44 433.77,-194.99 475.04,-198"/>
<polygon fill="#63b8ff" stroke="#63b8ff" points="275.35,-160.02 264.76,-159.99 273.02,-166.62 275.35,-160.02"/>
</a>
</g>
</g>
<!-- Node8 -->
<g id="Node000008" class="node">
<title>Node8</title>
<g id="a_Node000008"><a xlink:href="classxpath__ast__node.html#a8cedd7e15623b9fa431788b8843f1463" target="_top" xlink:title=" ">
<polygon fill="white" stroke="#666666" points="136,-275 8.25,-275 8.25,-243 136,-243 136,-275"/>
<text xml:space="preserve" text-anchor="start" x="16.25" y="-261.5" font-family="Helvetica,sans-Serif" font-size="10.00">xpath_ast_node::apply</text>
<text xml:space="preserve" text-anchor="middle" x="72.12" y="-249.5" font-family="Helvetica,sans-Serif" font-size="10.00">_predicate_number_const</text>
</a>
</g>
</g>
<!-- Node7&#45;&gt;Node8 -->
<g id="edge10_Node000007_Node000008" class="edge">
<title>Node7&#45;&gt;Node8</title>
<g id="a_edge10_Node000007_Node000008"><a xlink:title=" ">
<path fill="none" stroke="#63b8ff" d="M201.91,-165.99C170.63,-188.58 123.67,-222.49 95.94,-242.52"/>
<polygon fill="#63b8ff" stroke="#63b8ff" points="203.79,-168.95 209.85,-160.26 199.69,-163.28 203.79,-168.95"/>
</a>
</g>
</g>
<!-- Node7&#45;&gt;Node9 -->
<g id="edge13_Node000007_Node000009" class="edge">
<title>Node7&#45;&gt;Node9</title>
<g id="a_edge13_Node000007_Node000009"><a xlink:title=" ">
<path fill="none" stroke="#63b8ff" d="M168.48,-143C160.61,-143 152.55,-143 144.6,-143"/>
<polygon fill="#63b8ff" stroke="#63b8ff" points="168.3,-146.5 178.3,-143 168.3,-139.5 168.3,-146.5"/>
</a>
</g>
</g>
<!-- Node7&#45;&gt;Node10 -->
<g id="edge16_Node000007_Node000010" class="edge">
<title>Node7&#45;&gt;Node10</title>
<g id="a_edge16_Node000007_Node000010"><a xlink:title=" ">
<path fill="none" stroke="#63b8ff" d="M300.62,-149.71C309.62,-149.8 318.79,-149.74 327.56,-149.54"/>
<polygon fill="#63b8ff" stroke="#63b8ff" points="300.91,-146.22 290.85,-149.56 300.8,-153.22 300.91,-146.22"/>
</a>
</g>
</g>
<!-- Node8&#45;&gt;Node2 -->
<g id="edge11_Node000008_Node000002" class="edge">
<title>Node8&#45;&gt;Node2</title>
<g id="a_edge11_Node000008_Node000002"><a xlink:title=" ">
<path fill="none" stroke="#63b8ff" d="M126.12,-279.2C186.84,-300.5 289.8,-331 381.38,-331 693.62,-331 693.62,-331 693.62,-331 807.01,-331 928.43,-258.75 978.37,-225.45"/>
<polygon fill="#63b8ff" stroke="#63b8ff" points="127.3,-275.9 116.71,-275.85 124.95,-282.5 127.3,-275.9"/>
</a>
</g>
</g>
<!-- Node9&#45;&gt;Node5 -->
<g id="edge14_Node000009_Node000005" class="edge">
<title>Node9&#45;&gt;Node5</title>
<g id="a_edge14_Node000009_Node000005"><a xlink:title=" ">
<path fill="none" stroke="#63b8ff" d="M128.59,-156.08C145.2,-159.96 163.45,-164.19 180.25,-168 244.61,-182.61 259.64,-192.85 325.25,-200 375.73,-205.5 388.73,-201.13 439.5,-200 451.01,-199.74 463.34,-199.3 475.06,-198.8"/>
<polygon fill="#63b8ff" stroke="#63b8ff" points="129.41,-152.68 118.87,-153.8 127.81,-159.49 129.41,-152.68"/>
</a>
</g>
</g>
<!-- Node10&#45;&gt;Node4 -->
<g id="edge17_Node000010_Node000004" class="edge">
<title>Node10&#45;&gt;Node4</title>
<g id="a_edge17_Node000010_Node000004"><a xlink:title=" ">
<path fill="none" stroke="#63b8ff" d="M448.54,-145.33C498.83,-147.12 568.32,-149.6 620.13,-151.45"/>
<polygon fill="#63b8ff" stroke="#63b8ff" points="448.79,-141.83 438.67,-144.97 448.54,-148.83 448.79,-141.83"/>
</a>
</g>
</g>
<!-- Node10&#45;&gt;Node5 -->
<g id="edge18_Node000010_Node000005" class="edge">
<title>Node10&#45;&gt;Node5</title>
<g id="a_edge18_Node000010_Node000005"><a xlink:title=" ">
<path fill="none" stroke="#63b8ff" d="M423.85,-163.85C439.74,-170.29 458.2,-177.16 475.19,-182.96"/>
<polygon fill="#63b8ff" stroke="#63b8ff" points="425.29,-160.66 414.71,-160.05 422.6,-167.12 425.29,-160.66"/>
</a>
</g>
</g>
<!-- Node10&#45;&gt;Node7 -->
<g id="edge19_Node000010_Node000007" class="edge">
<title>Node10&#45;&gt;Node7</title>
<g id="a_edge19_Node000010_Node000007"><a xlink:title=" ">
<path fill="none" stroke="#63b8ff" d="M316.28,-136.28C307.27,-136.2 298.11,-136.26 289.34,-136.46"/>
<polygon fill="#63b8ff" stroke="#63b8ff" points="316,-139.78 326.05,-136.44 316.11,-132.78 316,-139.78"/>
</a>
</g>
</g>
</g>
</svg>

<g id="navigator" transform="translate(0 0)" fill="#404254">
  <rect fill="#f2f5e9" fill-opacity="0.5" stroke="#606060" stroke-width=".5" x="0" y="0" width="60" height="60"/>
  <use id="zoomplus" xlink:href="#zoomPlus" x="17" y="9" onmousedown="handleZoom(evt,'in')"/>
  <use id="zoomminus" xlink:href="#zoomMin" x="42" y="9" onmousedown="handleZoom(evt,'out')"/>
  <use id="reset" xlink:href="#resetDef" x="30" y="36" onmousedown="handleReset()"/>
   <use id="arrowup" xlink:href="#arrowUp" x="0" y="0" onmousedown="handlePan(0,-1)"/>
  <use id="arrowright" xlink:href="#arrowRight" x="0" y="0" onmousedown="handlePan(1,0)"/>
  <use id="arrowdown" xlink:href="#arrowDown" x="0" y="0" onmousedown="handlePan(0,1)"/>
  <use id="arrowleft" xlink:href="#arrowLeft" x="0" y="0" onmousedown="handlePan(-1,0)"/>
</g>
<svg viewBox="0 0 15 15" width="100%" height="30px" preserveAspectRatio="xMaxYMin meet">
 <g id="arrow_out" transform="scale(0.3 0.3)">
  <a xlink:href="classxpath__ast__node_abf2d4b745493f63aebc1c89d9fde8eed_icgraph_org.svg" target="_base">
   <rect id="button" ry="5" rx="5" y="6" x="6" height="38" width="38"
        fill="#f2f5e9" fill-opacity="0.5" stroke="#606060" stroke-width="1.0"/>
   <path id="arrow"
     d="M 11.500037,31.436501 C 11.940474,20.09759 22.043105,11.32322 32.158766,21.979434 L 37.068811,17.246167 C 37.068811,17.246167 37.088388,32 37.088388,32 L 22.160133,31.978069 C 22.160133,31.978069 26.997745,27.140456 26.997745,27.140456 C 18.528582,18.264221 13.291696,25.230495 11.500037,31.436501 z"
     style="fill:#404040;"/>
  </a>
 </g>
</svg>

<style type='text/css'>
<![CDATA[
[data-mouse-over-selected='false'] { opacity: 0.7; }
[data-mouse-over-selected='true']  { opacity: 1.0; }
]]>
</style>
<script type="application/ecmascript"><![CDATA[
document.addEventListener('DOMContentLoaded', (event) => {
  highlightEdges();
  highlightAdjacentNodes();
});
]]></script>
</svg>
