<?xml version="1.0" encoding="UTF-8" standalone="no"?>
<!DOCTYPE svg PUBLIC "-//W3C//DTD SVG 1.1//EN"
 "http://www.w3.org/Graphics/SVG/1.1/DTD/svg11.dtd">
<!-- Generated by graphviz version 14.1.2 (20260124.0452)
 -->
<!-- Title: pugi::xpath_variable::operator= Pages: 1 -->
<svg width="270pt" height="396pt"
 viewBox="0.00 0.00 270.00 396.00" xmlns="http://www.w3.org/2000/svg" xmlns:xlink="http://www.w3.org/1999/xlink">

<svg id="main" version="1.1" xmlns="http://www.w3.org/2000/svg" xmlns:xlink="http://www.w3.org/1999/xlink" xml:space="preserve">

<style type="text/css"><![CDATA[
.node, .edge {opacity: 0.7;}
.node.selected, .edge.selected {opacity: 1;}
.edge:hover path { stroke: red; }
.edge:hover polygon { stroke: red; fill: red; }
]]></style>
<script type="application/ecmascript" xlink:href="svg.min.js"/>
<svg id="graph" class="graph">
<g id="graph0" class="graph" transform="scale(1 1) rotate(0) translate(4 392)">
<title>pugi::xpath_variable::operator=</title>
<!-- Node1 -->
<g id="Node000001" class="node">
<title>Node1</title>
<g id="a_Node000001"><a xlink:title=" ">
<polygon fill="#999999" stroke="#666666" points="103,-204 0,-204 0,-172 103,-172 103,-204"/>
<text xml:space="preserve" text-anchor="start" x="8" y="-190.5" font-family="Helvetica,sans-Serif" font-size="10.00">pugi::xpath_variable</text>
<text xml:space="preserve" text-anchor="middle" x="51.5" y="-178.5" font-family="Helvetica,sans-Serif" font-size="10.00">::operator=</text>
</a>
</g>
</g>
<!-- Node2 -->
<g id="Node000002" class="node">
<title>Node2</title>
<g id="a_Node000002"><a xlink:href="classpugi_1_1xpath__variable.html#a62c2c8eec1012d23535161b208099928" target="_top" xlink:title=" ">
<polygon fill="white" stroke="#666666" points="251.75,-388 148.75,-388 148.75,-356 251.75,-356 251.75,-388"/>
<text xml:space="preserve" text-anchor="start" x="156.75" y="-374.5" font-family="Helvetica,sans-Serif" font-size="10.00">pugi::xpath_variable</text>
<text xml:space="preserve" text-anchor="middle" x="200.25" y="-362.5" font-family="Helvetica,sans-Serif" font-size="10.00">::get_boolean</text>
</a>
</g>
</g>
<!-- Node1&#45;&gt;Node2 -->
<g id="edge1_Node000001_Node000002" class="edge">
<title>Node1&#45;&gt;Node2</title>
<g id="a_edge1_Node000001_Node000002"><a xlink:title=" ">
<path fill="none" stroke="#63b8ff" d="M57.29,-204.28C67.38,-235.93 93.69,-306.21 139,-347 139.9,-347.81 140.84,-348.6 141.8,-349.37"/>
<polygon fill="#63b8ff" stroke="#63b8ff" points="139.55,-352.08 149.79,-354.8 143.48,-346.28 139.55,-352.08"/>
</a>
</g>
</g>
<!-- Node3 -->
<g id="Node000003" class="node">
<title>Node3</title>
<g id="a_Node000003"><a xlink:href="classpugi_1_1xpath__variable.html#ac69ad4a8a505b248aa6663eee6747f0e" target="_top" xlink:title=" ">
<polygon fill="white" stroke="#666666" points="251.75,-338 148.75,-338 148.75,-306 251.75,-306 251.75,-338"/>
<text xml:space="preserve" text-anchor="start" x="156.75" y="-324.5" font-family="Helvetica,sans-Serif" font-size="10.00">pugi::xpath_variable</text>
<text xml:space="preserve" text-anchor="middle" x="200.25" y="-312.5" font-family="Helvetica,sans-Serif" font-size="10.00">::get_node_set</text>
</a>
</g>
</g>
<!-- Node1&#45;&gt;Node3 -->
<g id="edge2_Node000001_Node000003" class="edge">
<title>Node1&#45;&gt;Node3</title>
<g id="a_edge2_Node000001_Node000003"><a xlink:title=" ">
<path fill="none" stroke="#63b8ff" d="M61.67,-204.19C75.63,-227.56 104.29,-270.8 139,-297 140.33,-298 141.7,-298.97 143.11,-299.91"/>
<polygon fill="#63b8ff" stroke="#63b8ff" points="141.14,-302.81 151.54,-304.86 144.69,-296.78 141.14,-302.81"/>
</a>
</g>
</g>
<!-- Node4 -->
<g id="Node000004" class="node">
<title>Node4</title>
<g id="a_Node000004"><a xlink:href="classpugi_1_1xpath__variable.html#a21689f424f0d4b13fb31eb5ced3bb67e" target="_top" xlink:title=" ">
<polygon fill="white" stroke="#666666" points="251.75,-288 148.75,-288 148.75,-256 251.75,-256 251.75,-288"/>
<text xml:space="preserve" text-anchor="start" x="156.75" y="-274.5" font-family="Helvetica,sans-Serif" font-size="10.00">pugi::xpath_variable</text>
<text xml:space="preserve" text-anchor="middle" x="200.25" y="-262.5" font-family="Helvetica,sans-Serif" font-size="10.00">::get_number</text>
</a>
</g>
</g>
<!-- Node1&#45;&gt;Node4 -->
<g id="edge3_Node000001_Node000004" class="edge">
<title>Node1&#45;&gt;Node4</title>
<g id="a_edge3_Node000001_Node000004"><a xlink:title=" ">
<path fill="none" stroke="#63b8ff" d="M73.76,-204.32C90.81,-216.96 115.66,-234.37 139,-247 141.35,-248.27 143.79,-249.52 146.26,-250.75"/>
<polygon fill="#63b8ff" stroke="#63b8ff" points="144.69,-253.88 155.23,-254.95 147.66,-247.54 144.69,-253.88"/>
</a>
</g>
</g>
<!-- Node5 -->
<g id="Node000005" class="node">
<title>Node5</title>
<g id="a_Node000005"><a xlink:href="classpugi_1_1xpath__variable.html#a5cb09d49c79d9159cb91bec71955176f" target="_top" xlink:title=" ">
<polygon fill="white" stroke="#666666" points="251.75,-238 148.75,-238 148.75,-206 251.75,-206 251.75,-238"/>
<text xml:space="preserve" text-anchor="start" x="156.75" y="-224.5" font-family="Helvetica,sans-Serif" font-size="10.00">pugi::xpath_variable</text>
<text xml:space="preserve" text-anchor="middle" x="200.25" y="-212.5" font-family="Helvetica,sans-Serif" font-size="10.00">::get_string</text>
</a>
</g>
</g>
<!-- Node1&#45;&gt;Node5 -->
<g id="edge4_Node000001_Node000005" class="edge">
<title>Node1&#45;&gt;Node5</title>
<g id="a_edge4_Node000001_Node000005"><a xlink:title=" ">
<path fill="none" stroke="#63b8ff" d="M103.41,-199.8C114.34,-202.33 126,-205.03 137.3,-207.65"/>
<polygon fill="#63b8ff" stroke="#63b8ff" points="136.42,-211.04 146.95,-209.88 138,-204.22 136.42,-211.04"/>
</a>
</g>
</g>
<!-- Node6 -->
<g id="Node000006" class="node">
<title>Node6</title>
<g id="a_Node000006"><a xlink:href="classpugi_1_1xpath__variable.html#ac25b014df004e0c6eb1149e1d54a1605" target="_top" xlink:title=" ">
<polygon fill="white" stroke="#666666" points="251.75,-170 148.75,-170 148.75,-138 251.75,-138 251.75,-170"/>
<text xml:space="preserve" text-anchor="start" x="156.75" y="-156.5" font-family="Helvetica,sans-Serif" font-size="10.00">pugi::xpath_variable</text>
<text xml:space="preserve" text-anchor="middle" x="200.25" y="-144.5" font-family="Helvetica,sans-Serif" font-size="10.00">::name</text>
</a>
</g>
</g>
<!-- Node1&#45;&gt;Node6 -->
<g id="edge5_Node000001_Node000006" class="edge">
<title>Node1&#45;&gt;Node6</title>
<g id="a_edge5_Node000001_Node000006"><a xlink:title=" ">
<path fill="none" stroke="#63b8ff" d="M103.41,-176.2C114.34,-173.67 126,-170.97 137.3,-168.35"/>
<polygon fill="#63b8ff" stroke="#63b8ff" points="138,-171.78 146.95,-166.12 136.42,-164.96 138,-171.78"/>
</a>
</g>
</g>
<!-- Node7 -->
<g id="Node000007" class="node">
<title>Node7</title>
<g id="a_Node000007"><a xlink:href="classpugi_1_1xpath__variable.html#ac3c873d817f7e2624013298fae542bad" target="_top" xlink:title=" ">
<polygon fill="white" stroke="#666666" points="261.5,-120 139,-120 139,-100 261.5,-100 261.5,-120"/>
<text xml:space="preserve" text-anchor="middle" x="200.25" y="-106.5" font-family="Helvetica,sans-Serif" font-size="10.00">pugi::xpath_variable::set</text>
</a>
</g>
</g>
<!-- Node1&#45;&gt;Node7 -->
<g id="edge7_Node000001_Node000007" class="edge">
<title>Node1&#45;&gt;Node7</title>
<g id="a_edge7_Node000001_Node000007"><a xlink:title=" ">
<path fill="none" stroke="#63b8ff" d="M72.77,-171.63C89.67,-158.63 114.8,-140.75 139,-129 142.46,-127.32 146.1,-125.74 149.81,-124.27"/>
<polygon fill="#63b8ff" stroke="#63b8ff" points="150.74,-127.66 158.93,-120.94 148.33,-121.09 150.74,-127.66"/>
</a>
</g>
</g>
<!-- Node8 -->
<g id="Node000008" class="node">
<title>Node8</title>
<g id="a_Node000008"><a xlink:href="classpugi_1_1xpath__variable.html#a18d0d793f370616e54e238e1e17b8c91" target="_top" xlink:title=" ">
<polygon fill="white" stroke="#666666" points="251.75,-82 148.75,-82 148.75,-50 251.75,-50 251.75,-82"/>
<text xml:space="preserve" text-anchor="start" x="156.75" y="-68.5" font-family="Helvetica,sans-Serif" font-size="10.00">pugi::xpath_variable</text>
<text xml:space="preserve" text-anchor="middle" x="200.25" y="-56.5" font-family="Helvetica,sans-Serif" font-size="10.00">::type</text>
</a>
</g>
</g>
<!-- Node1&#45;&gt;Node8 -->
<g id="edge8_Node000001_Node000008" class="edge">
<title>Node1&#45;&gt;Node8</title>
<g id="a_edge8_Node000001_Node000008"><a xlink:title=" ">
<path fill="none" stroke="#63b8ff" d="M63.59,-171.52C78.54,-150.38 107,-113.75 139,-91 140.52,-89.92 142.1,-88.87 143.72,-87.86"/>
<polygon fill="#63b8ff" stroke="#63b8ff" points="145.01,-91.15 152.02,-83.2 141.58,-85.04 145.01,-91.15"/>
</a>
</g>
</g>
<!-- Node9 -->
<g id="Node000009" class="node">
<title>Node9</title>
<g id="a_Node000009"><a xlink:href="classpugi_1_1xpath__variable.html#ab1e289912bfc11f79bd5d1cc7f8bfede" target="_top" xlink:title=" ">
<polygon fill="white" stroke="#666666" points="251.75,-32 148.75,-32 148.75,0 251.75,0 251.75,-32"/>
<text xml:space="preserve" text-anchor="start" x="156.75" y="-18.5" font-family="Helvetica,sans-Serif" font-size="10.00">pugi::xpath_variable</text>
<text xml:space="preserve" text-anchor="middle" x="200.25" y="-6.5" font-family="Helvetica,sans-Serif" font-size="10.00">::xpath_variable</text>
</a>
</g>
</g>
<!-- Node1&#45;&gt;Node9 -->
<g id="edge9_Node000001_Node000009" class="edge">
<title>Node1&#45;&gt;Node9</title>
<g id="a_edge9_Node000001_Node000009"><a xlink:title=" ">
<path fill="none" stroke="#63b8ff" d="M58.15,-171.56C69.18,-141.68 96.34,-78.13 139,-41 139.92,-40.2 140.87,-39.42 141.84,-38.67"/>
<polygon fill="#63b8ff" stroke="#63b8ff" points="143.5,-41.77 149.9,-33.32 139.63,-35.94 143.5,-41.77"/>
</a>
</g>
</g>
<!-- Node6&#45;&gt;Node6 -->
<g id="edge6_Node000006_Node000006" class="edge">
<title>Node6&#45;&gt;Node6</title>
<g id="a_edge6_Node000006_Node000006"><a xlink:title=" ">
<path fill="none" stroke="#63b8ff" d="M173.69,-170.44C168.74,-179.58 177.59,-188 200.25,-188 212.64,-188 220.91,-185.48 225.04,-181.71"/>
<polygon fill="#63b8ff" stroke="#63b8ff" points="228.48,-182.36 226.57,-171.94 221.56,-181.27 228.48,-182.36"/>
</a>
</g>
</g>
</g>
</svg>
</svg>

<style type='text/css'>
<![CDATA[
[data-mouse-over-selected='false'] { opacity: 0.7; }
[data-mouse-over-selected='true']  { opacity: 1.0; }
]]>
</style>
<script type="application/ecmascript"><![CDATA[
document.addEventListener('DOMContentLoaded', (event) => {
  highlightEdges();
  highlightAdjacentNodes();
});
]]></script>
</svg>
