<?xml version="1.0" encoding="UTF-8" standalone="no"?>
<!DOCTYPE svg PUBLIC "-//W3C//DTD SVG 1.1//EN"
 "http://www.w3.org/Graphics/SVG/1.1/DTD/svg11.dtd">
<!-- Generated by graphviz version 14.1.2 (20260124.0452)
 -->
<!-- Title: xpath_ast_node::compare_eq Pages: 1 -->
<svg width="1087pt" height="410pt"
 viewBox="0.00 0.00 1087.00 410.00" xmlns="http://www.w3.org/2000/svg" xmlns:xlink="http://www.w3.org/1999/xlink">
<g id="graph0" class="graph" transform="scale(1 1) rotate(0) translate(4 406)">
<title>xpath_ast_node::compare_eq</title>
<!-- Node1 -->
<g id="Node000001" class="node">
<title>Node1</title>
<g id="a_Node000001"><a xlink:title=" ">
<polygon fill="#999999" stroke="#666666" points="1078.75,-273 934.5,-273 934.5,-253 1078.75,-253 1078.75,-273"/>
<text xml:space="preserve" text-anchor="middle" x="1006.62" y="-259.5" font-family="Helvetica,sans-Serif" font-size="10.00">xpath_ast_node::compare_eq</text>
</a>
</g>
</g>
<!-- Node2 -->
<g id="Node000002" class="node">
<title>Node2</title>
<g id="a_Node000002"><a xlink:href="classxpath__ast__node.html#ab7f965a92023bc2704b8e6fd9f3d7c14" target="_top" xlink:title=" ">
<polygon fill="white" stroke="#666666" points="898.5,-279 789.5,-279 789.5,-247 898.5,-247 898.5,-279"/>
<text xml:space="preserve" text-anchor="start" x="797.5" y="-265.5" font-family="Helvetica,sans-Serif" font-size="10.00">xpath_ast_node::eval</text>
<text xml:space="preserve" text-anchor="middle" x="844" y="-253.5" font-family="Helvetica,sans-Serif" font-size="10.00">_boolean</text>
</a>
</g>
</g>
<!-- Node1&#45;&gt;Node2 -->
<g id="edge1_Node000001_Node000002" class="edge">
<title>Node1&#45;&gt;Node2</title>
<g id="a_edge1_Node000001_Node000002"><a xlink:title=" ">
<path fill="none" stroke="#63b8ff" d="M922.76,-256.25C914.63,-256.27 906.54,-256.38 898.81,-256.59"/>
<polygon fill="#63b8ff" stroke="#63b8ff" points="922.71,-259.75 932.72,-256.28 922.73,-252.75 922.71,-259.75"/>
</a>
</g>
</g>
<!-- Node2&#45;&gt;Node1 -->
<g id="edge21_Node000002_Node000001" class="edge">
<title>Node2&#45;&gt;Node1</title>
<g id="a_edge21_Node000002_Node000001"><a xlink:title=" ">
<path fill="none" stroke="#63b8ff" d="M910.22,-269.64C918.13,-269.76 926.24,-269.78 934.24,-269.71"/>
<polygon fill="#63b8ff" stroke="#63b8ff" points="910.39,-266.15 900.33,-269.44 910.25,-273.14 910.39,-266.15"/>
</a>
</g>
</g>
<!-- Node3 -->
<g id="Node000003" class="node">
<title>Node3</title>
<g id="a_Node000003"><a xlink:href="classxpath__ast__node.html#ab4e5bbd3f2e83c86a43349374b4bfc22" target="_top" xlink:title=" ">
<polygon fill="white" stroke="#666666" points="753.5,-280 639.25,-280 639.25,-248 753.5,-248 753.5,-280"/>
<text xml:space="preserve" text-anchor="start" x="647.25" y="-266.5" font-family="Helvetica,sans-Serif" font-size="10.00">xpath_ast_node::apply</text>
<text xml:space="preserve" text-anchor="middle" x="696.38" y="-254.5" font-family="Helvetica,sans-Serif" font-size="10.00">_predicate_boolean</text>
</a>
</g>
</g>
<!-- Node2&#45;&gt;Node3 -->
<g id="edge2_Node000002_Node000003" class="edge">
<title>Node2&#45;&gt;Node3</title>
<g id="a_edge2_Node000002_Node000003"><a xlink:title=" ">
<path fill="none" stroke="#63b8ff" d="M777.69,-263.45C769.75,-263.5 761.69,-263.56 753.89,-263.61"/>
<polygon fill="#63b8ff" stroke="#63b8ff" points="777.7,-266.95 787.67,-263.38 777.65,-259.95 777.7,-266.95"/>
</a>
</g>
</g>
<!-- Node7 -->
<g id="Node000007" class="node">
<title>Node7</title>
<g id="a_Node000007"><a xlink:href="classxpath__ast__node.html#a6b675237a590548b68d0e0b97518b6df" target="_top" xlink:title=" ">
<polygon fill="white" stroke="#666666" points="126.62,-343 17.62,-343 17.62,-311 126.62,-311 126.62,-343"/>
<text xml:space="preserve" text-anchor="start" x="25.62" y="-329.5" font-family="Helvetica,sans-Serif" font-size="10.00">xpath_ast_node::eval</text>
<text xml:space="preserve" text-anchor="middle" x="72.12" y="-317.5" font-family="Helvetica,sans-Serif" font-size="10.00">_string</text>
</a>
</g>
</g>
<!-- Node2&#45;&gt;Node7 -->
<g id="edge23_Node000002_Node000007" class="edge">
<title>Node2&#45;&gt;Node7</title>
<g id="a_edge23_Node000002_Node000007"><a xlink:title=" ">
<path fill="none" stroke="#63b8ff" d="M785.66,-284C775.13,-288.66 764.12,-293.28 753.5,-297 661.77,-329.13 637.57,-346 540.38,-346 540.38,-346 540.38,-346 381.38,-346 291.9,-346 188.42,-334.16 127,-328.35"/>
<polygon fill="#63b8ff" stroke="#63b8ff" points="786.93,-287.27 794.61,-279.97 784.05,-280.88 786.93,-287.27"/>
</a>
</g>
</g>
<!-- Node8 -->
<g id="Node000008" class="node">
<title>Node8</title>
<g id="a_Node000008"><a xlink:href="classxpath__ast__node.html#a92dd7048e28d486bc7f382d1fc6f1de6" target="_top" xlink:title=" ">
<polygon fill="white" stroke="#666666" points="750.88,-230 641.88,-230 641.88,-198 750.88,-198 750.88,-230"/>
<text xml:space="preserve" text-anchor="start" x="649.88" y="-216.5" font-family="Helvetica,sans-Serif" font-size="10.00">xpath_ast_node::eval</text>
<text xml:space="preserve" text-anchor="middle" x="696.38" y="-204.5" font-family="Helvetica,sans-Serif" font-size="10.00">_number</text>
</a>
</g>
</g>
<!-- Node2&#45;&gt;Node8 -->
<g id="edge22_Node000002_Node000008" class="edge">
<title>Node2&#45;&gt;Node8</title>
<g id="a_edge22_Node000002_Node000008"><a xlink:title=" ">
<path fill="none" stroke="#63b8ff" d="M800.31,-242.43C784.97,-236.68 767.47,-230.68 751.3,-225.6"/>
<polygon fill="#63b8ff" stroke="#63b8ff" points="799.04,-245.69 809.63,-246 801.55,-239.15 799.04,-245.69"/>
</a>
</g>
</g>
<!-- Node4 -->
<g id="Node000004" class="node">
<title>Node4</title>
<g id="a_Node000004"><a xlink:href="classxpath__ast__node.html#a7e35f265c9e0712a16e1d8a9db4c7672" target="_top" xlink:title=" ">
<polygon fill="white" stroke="#666666" points="439.5,-186 325.25,-186 325.25,-154 439.5,-154 439.5,-186"/>
<text xml:space="preserve" text-anchor="start" x="333.25" y="-172.5" font-family="Helvetica,sans-Serif" font-size="10.00">xpath_ast_node::apply</text>
<text xml:space="preserve" text-anchor="middle" x="382.38" y="-160.5" font-family="Helvetica,sans-Serif" font-size="10.00">_predicate</text>
</a>
</g>
</g>
<!-- Node3&#45;&gt;Node4 -->
<g id="edge3_Node000003_Node000004" class="edge">
<title>Node3&#45;&gt;Node4</title>
<g id="a_edge3_Node000003_Node000004"><a xlink:title=" ">
<path fill="none" stroke="#63b8ff" d="M629.99,-244.3C573.07,-227.15 491.52,-202.58 438.02,-186.46"/>
<polygon fill="#63b8ff" stroke="#63b8ff" points="628.64,-247.55 639.22,-247.08 630.66,-240.85 628.64,-247.55"/>
</a>
</g>
</g>
<!-- Node5 -->
<g id="Node000005" class="node">
<title>Node5</title>
<g id="a_Node000005"><a xlink:href="classxpath__ast__node.html#a68cace396dd4eeae67ecfcd34a3a8285" target="_top" xlink:title=" ">
<polygon fill="white" stroke="#666666" points="289.25,-186 180.25,-186 180.25,-154 289.25,-154 289.25,-186"/>
<text xml:space="preserve" text-anchor="start" x="188.25" y="-172.5" font-family="Helvetica,sans-Serif" font-size="10.00">xpath_ast_node::eval</text>
<text xml:space="preserve" text-anchor="middle" x="234.75" y="-160.5" font-family="Helvetica,sans-Serif" font-size="10.00">_node_set</text>
</a>
</g>
</g>
<!-- Node4&#45;&gt;Node5 -->
<g id="edge4_Node000004_Node000005" class="edge">
<title>Node4&#45;&gt;Node5</title>
<g id="a_edge4_Node000004_Node000005"><a xlink:title=" ">
<path fill="none" stroke="#63b8ff" d="M313.7,-170C305.59,-170 297.39,-170 289.51,-170"/>
<polygon fill="#63b8ff" stroke="#63b8ff" points="313.56,-173.5 323.56,-170 313.56,-166.5 313.56,-173.5"/>
</a>
</g>
</g>
<!-- Node5&#45;&gt;Node1 -->
<g id="edge5_Node000005_Node000001" class="edge">
<title>Node5&#45;&gt;Node1</title>
<g id="a_edge5_Node000005_Node000001"><a xlink:title=" ">
<path fill="none" stroke="#63b8ff" d="M280.98,-148.99C350.3,-119.45 487.04,-71.71 603.25,-95 760.61,-126.53 933.29,-221.05 988,-252.61"/>
<polygon fill="#63b8ff" stroke="#63b8ff" points="279.61,-145.77 271.83,-152.96 282.4,-152.19 279.61,-145.77"/>
</a>
</g>
</g>
<!-- Node5&#45;&gt;Node2 -->
<g id="edge8_Node000005_Node000002" class="edge">
<title>Node5&#45;&gt;Node2</title>
<g id="a_edge8_Node000005_Node000002"><a xlink:title=" ">
<path fill="none" stroke="#63b8ff" d="M287.64,-190.55C363.45,-219.34 509.55,-270.27 639.25,-289 689.51,-296.26 703.23,-296.15 753.5,-289 767.44,-287.02 782.24,-283.38 795.71,-279.44"/>
<polygon fill="#63b8ff" stroke="#63b8ff" points="288.99,-187.31 278.4,-187.01 286.48,-193.85 288.99,-187.31"/>
</a>
</g>
</g>
<!-- Node6 -->
<g id="Node000006" class="node">
<title>Node6</title>
<g id="a_Node000006"><a xlink:href="classxpath__ast__node.html#abb6e4c529276eaf882233dbb6e04e111" target="_top" xlink:title=" ">
<polygon fill="white" stroke="#666666" points="144.25,-86 0,-86 0,-66 144.25,-66 144.25,-86"/>
<text xml:space="preserve" text-anchor="middle" x="72.12" y="-72.5" font-family="Helvetica,sans-Serif" font-size="10.00">xpath_ast_node::compare_rel</text>
</a>
</g>
</g>
<!-- Node5&#45;&gt;Node6 -->
<g id="edge6_Node000005_Node000006" class="edge">
<title>Node5&#45;&gt;Node6</title>
<g id="a_edge6_Node000005_Node000006"><a xlink:title=" ">
<path fill="none" stroke="#63b8ff" d="M195.95,-147.88C162.79,-128.47 116.03,-101.11 90.85,-86.37"/>
<polygon fill="#63b8ff" stroke="#63b8ff" points="194.07,-150.83 204.46,-152.86 197.6,-144.79 194.07,-150.83"/>
</a>
</g>
</g>
<!-- Node5&#45;&gt;Node7 -->
<g id="edge9_Node000005_Node000007" class="edge">
<title>Node5&#45;&gt;Node7</title>
<g id="a_edge9_Node000005_Node000007"><a xlink:title=" ">
<path fill="none" stroke="#63b8ff" d="M209.35,-193.85C176.34,-226.11 118.34,-282.81 89.86,-310.64"/>
<polygon fill="#63b8ff" stroke="#63b8ff" points="211.38,-196.76 216.08,-187.27 206.49,-191.76 211.38,-196.76"/>
</a>
</g>
</g>
<!-- Node6&#45;&gt;Node2 -->
<g id="edge7_Node000006_Node000002" class="edge">
<title>Node6&#45;&gt;Node2</title>
<g id="a_edge7_Node000006_Node000002"><a xlink:title=" ">
<path fill="none" stroke="#63b8ff" d="M108.29,-61.43C164.81,-39.36 279.84,0 381.38,0 540.38,0 540.38,0 540.38,0 691.42,0 803.84,-188.97 834.59,-246.55"/>
<polygon fill="#63b8ff" stroke="#63b8ff" points="107.2,-58.09 99.19,-65.03 109.78,-64.6 107.2,-58.09"/>
</a>
</g>
</g>
<!-- Node7&#45;&gt;Node1 -->
<g id="edge10_Node000007_Node000001" class="edge">
<title>Node7&#45;&gt;Node1</title>
<g id="a_edge10_Node000007_Node000001"><a xlink:title=" ">
<path fill="none" stroke="#63b8ff" d="M118.48,-347.83C137.27,-355.76 159.49,-364.26 180.25,-370 267.49,-394.12 290.86,-402 381.38,-402 697.38,-402 697.38,-402 697.38,-402 822.42,-402 952.78,-305.77 993.04,-273.45"/>
<polygon fill="#63b8ff" stroke="#63b8ff" points="120.1,-344.71 109.53,-343.97 117.33,-351.14 120.1,-344.71"/>
</a>
</g>
</g>
<!-- Node7&#45;&gt;Node2 -->
<g id="edge11_Node000007_Node000002" class="edge">
<title>Node7&#45;&gt;Node2</title>
<g id="a_edge11_Node000007_Node000002"><a xlink:title=" ">
<path fill="none" stroke="#63b8ff" d="M138.22,-343.3C200.5,-353.5 297.15,-364 381.38,-364 540.38,-364 540.38,-364 540.38,-364 637.57,-364 661.77,-347.13 753.5,-315 779.69,-305.82 808.34,-291.18 825.99,-279.34"/>
<polygon fill="#63b8ff" stroke="#63b8ff" points="138.94,-339.87 128.5,-341.65 137.77,-346.77 138.94,-339.87"/>
</a>
</g>
</g>
<!-- Node7&#45;&gt;Node8 -->
<g id="edge12_Node000007_Node000008" class="edge">
<title>Node7&#45;&gt;Node8</title>
<g id="a_edge12_Node000007_Node000008"><a xlink:title=" ">
<path fill="none" stroke="#63b8ff" d="M137.86,-319.56C261.1,-300.53 527.28,-252.08 641.51,-227.79"/>
<polygon fill="#63b8ff" stroke="#63b8ff" points="137.6,-316.06 128.24,-321.03 138.66,-322.98 137.6,-316.06"/>
</a>
</g>
</g>
<!-- Node8&#45;&gt;Node1 -->
<g id="edge17_Node000008_Node000001" class="edge">
<title>Node8&#45;&gt;Node1</title>
<g id="a_edge17_Node000008_Node000001"><a xlink:title=" ">
<path fill="none" stroke="#63b8ff" d="M762.31,-219.91C801.84,-223.96 853.27,-230.05 898.5,-238 920.79,-241.92 945.4,-247.57 965.4,-252.5"/>
<polygon fill="#63b8ff" stroke="#63b8ff" points="762.77,-216.44 752.47,-218.92 762.07,-223.4 762.77,-216.44"/>
</a>
</g>
</g>
<!-- Node8&#45;&gt;Node2 -->
<g id="edge19_Node000008_Node000002" class="edge">
<title>Node8&#45;&gt;Node2</title>
<g id="a_edge19_Node000008_Node000002"><a xlink:title=" ">
<path fill="none" stroke="#63b8ff" d="M740.15,-234.61C755.51,-240.35 773.02,-246.36 789.19,-251.43"/>
<polygon fill="#63b8ff" stroke="#63b8ff" points="741.41,-231.34 730.82,-231.02 738.9,-237.87 741.41,-231.34"/>
</a>
</g>
</g>
<!-- Node8&#45;&gt;Node6 -->
<g id="edge18_Node000008_Node000006" class="edge">
<title>Node8&#45;&gt;Node6</title>
<g id="a_edge18_Node000008_Node000006"><a xlink:title=" ">
<path fill="none" stroke="#63b8ff" d="M683.48,-187.46C669.06,-158.86 641.8,-114.77 603.25,-95 441.41,-11.99 213.76,-45.75 118.17,-65.52"/>
<polygon fill="#63b8ff" stroke="#63b8ff" points="680.22,-188.74 687.72,-196.22 686.52,-185.7 680.22,-188.74"/>
</a>
</g>
</g>
<!-- Node8&#45;&gt;Node7 -->
<g id="edge20_Node000008_Node000007" class="edge">
<title>Node8&#45;&gt;Node7</title>
<g id="a_edge20_Node000008_Node000007"><a xlink:title=" ">
<path fill="none" stroke="#63b8ff" d="M630.38,-221.48C506.95,-240.55 240.77,-289 126.75,-313.26"/>
<polygon fill="#63b8ff" stroke="#63b8ff" points="630.66,-224.97 640.02,-220 629.6,-218.05 630.66,-224.97"/>
</a>
</g>
</g>
<!-- Node9 -->
<g id="Node000009" class="node">
<title>Node9</title>
<g id="a_Node000009"><a xlink:href="classxpath__ast__node.html#abf2d4b745493f63aebc1c89d9fde8eed" target="_top" xlink:title=" ">
<polygon fill="white" stroke="#666666" points="596.5,-186 482.25,-186 482.25,-154 596.5,-154 596.5,-186"/>
<text xml:space="preserve" text-anchor="start" x="490.25" y="-172.5" font-family="Helvetica,sans-Serif" font-size="10.00">xpath_ast_node::apply</text>
<text xml:space="preserve" text-anchor="middle" x="539.38" y="-160.5" font-family="Helvetica,sans-Serif" font-size="10.00">_predicate_number</text>
</a>
</g>
</g>
<!-- Node8&#45;&gt;Node9 -->
<g id="edge13_Node000008_Node000009" class="edge">
<title>Node8&#45;&gt;Node9</title>
<g id="a_edge13_Node000008_Node000009"><a xlink:title=" ">
<path fill="none" stroke="#63b8ff" d="M630.59,-195.61C619.42,-192.44 607.89,-189.16 596.96,-186.06"/>
<polygon fill="#63b8ff" stroke="#63b8ff" points="629.57,-198.96 640.14,-198.32 631.48,-192.22 629.57,-198.96"/>
</a>
</g>
</g>
<!-- Node10 -->
<g id="Node000010" class="node">
<title>Node10</title>
<g id="a_Node000010"><a xlink:href="classxpath__ast__node.html#a8cedd7e15623b9fa431788b8843f1463" target="_top" xlink:title=" ">
<polygon fill="white" stroke="#666666" points="603.25,-136 475.5,-136 475.5,-104 603.25,-104 603.25,-136"/>
<text xml:space="preserve" text-anchor="start" x="483.5" y="-122.5" font-family="Helvetica,sans-Serif" font-size="10.00">xpath_ast_node::apply</text>
<text xml:space="preserve" text-anchor="middle" x="539.38" y="-110.5" font-family="Helvetica,sans-Serif" font-size="10.00">_predicate_number_const</text>
</a>
</g>
</g>
<!-- Node8&#45;&gt;Node10 -->
<g id="edge15_Node000008_Node000010" class="edge">
<title>Node8&#45;&gt;Node10</title>
<g id="a_edge15_Node000008_Node000010"><a xlink:title=" ">
<path fill="none" stroke="#63b8ff" d="M668.01,-190.47C650.34,-176.06 626.41,-157.97 603.25,-145 597.82,-141.96 591.94,-139.1 586.03,-136.49"/>
<polygon fill="#63b8ff" stroke="#63b8ff" points="665.54,-192.96 675.47,-196.65 670,-187.57 665.54,-192.96"/>
</a>
</g>
</g>
<!-- Node9&#45;&gt;Node4 -->
<g id="edge14_Node000009_Node000004" class="edge">
<title>Node9&#45;&gt;Node4</title>
<g id="a_edge14_Node000009_Node000004"><a xlink:title=" ">
<path fill="none" stroke="#63b8ff" d="M470.58,-170C460.37,-170 449.93,-170 439.99,-170"/>
<polygon fill="#63b8ff" stroke="#63b8ff" points="470.46,-173.5 480.46,-170 470.46,-166.5 470.46,-173.5"/>
</a>
</g>
</g>
<!-- Node10&#45;&gt;Node4 -->
<g id="edge16_Node000010_Node000004" class="edge">
<title>Node10&#45;&gt;Node4</title>
<g id="a_edge16_Node000010_Node000004"><a xlink:title=" ">
<path fill="none" stroke="#63b8ff" d="M477.03,-139.79C462.94,-144.33 448.11,-149.12 434.51,-153.51"/>
<polygon fill="#63b8ff" stroke="#63b8ff" points="477.74,-143.24 486.18,-136.84 475.59,-136.58 477.74,-143.24"/>
</a>
</g>
</g>
</g>
</svg>
