<?xml version="1.0" encoding="UTF-8" standalone="no"?>
<!DOCTYPE svg PUBLIC "-//W3C//DTD SVG 1.1//EN"
 "http://www.w3.org/Graphics/SVG/1.1/DTD/svg11.dtd">
<!-- Generated by graphviz version 14.1.2 (20260124.0452)
 -->
<!-- Title: pugi::xpath_query::xpath_query Pages: 1 -->
<svg width="243pt" height="58pt"
 viewBox="0.00 0.00 243.00 58.00" xmlns="http://www.w3.org/2000/svg" xmlns:xlink="http://www.w3.org/1999/xlink">
<g id="graph0" class="graph" transform="scale(1 1) rotate(0) translate(4 54)">
<title>pugi::xpath_query::xpath_query</title>
<!-- Node1 -->
<g id="Node000001" class="node">
<title>Node1</title>
<g id="a_Node000001"><a xlink:title=" ">
<polygon fill="#999999" stroke="#666666" points="234.5,-32 135.25,-32 135.25,0 234.5,0 234.5,-32"/>
<text xml:space="preserve" text-anchor="start" x="143.25" y="-18.5" font-family="Helvetica,sans-Serif" font-size="10.00">pugi::xpath_query::</text>
<text xml:space="preserve" text-anchor="middle" x="184.88" y="-6.5" font-family="Helvetica,sans-Serif" font-size="10.00">xpath_query</text>
</a>
</g>
</g>
<!-- Node1&#45;&gt;Node1 -->
<g id="edge3_Node000001_Node000001" class="edge">
<title>Node1&#45;&gt;Node1</title>
<g id="a_edge3_Node000001_Node000001"><a xlink:title=" ">
<path fill="none" stroke="#63b8ff" d="M207.41,-43.71C203.66,-47.48 196.14,-50 184.88,-50 164.27,-50 156.22,-41.58 160.73,-32.44"/>
<polygon fill="#63b8ff" stroke="#63b8ff" points="210.86,-44.34 208.81,-33.94 203.93,-43.35 210.86,-44.34"/>
</a>
</g>
</g>
<!-- Node2 -->
<g id="Node000002" class="node">
<title>Node2</title>
<g id="a_Node000002"><a xlink:href="classpugi_1_1xpath__query.html#aa784b675e7171c0202ee1330f04d0399" target="_top" xlink:title=" ">
<polygon fill="white" stroke="#666666" points="99.25,-32 0,-32 0,0 99.25,0 99.25,-32"/>
<text xml:space="preserve" text-anchor="start" x="8" y="-18.5" font-family="Helvetica,sans-Serif" font-size="10.00">pugi::xpath_query::</text>
<text xml:space="preserve" text-anchor="middle" x="49.62" y="-6.5" font-family="Helvetica,sans-Serif" font-size="10.00">operator=</text>
</a>
</g>
</g>
<!-- Node1&#45;&gt;Node2 -->
<g id="edge1_Node000001_Node000002" class="edge">
<title>Node1&#45;&gt;Node2</title>
<g id="a_edge1_Node000001_Node000002"><a xlink:title=" ">
<path fill="none" stroke="#63b8ff" d="M123.69,-16C115.59,-16 107.36,-16 99.48,-16"/>
<polygon fill="#63b8ff" stroke="#63b8ff" points="123.5,-19.5 133.5,-16 123.5,-12.5 123.5,-19.5"/>
</a>
</g>
</g>
<!-- Node2&#45;&gt;Node2 -->
<g id="edge2_Node000002_Node000002" class="edge">
<title>Node2&#45;&gt;Node2</title>
<g id="a_edge2_Node000002_Node000002"><a xlink:title=" ">
<path fill="none" stroke="#63b8ff" d="M72.16,-43.71C68.41,-47.48 60.89,-50 49.62,-50 29.02,-50 20.97,-41.58 25.48,-32.44"/>
<polygon fill="#63b8ff" stroke="#63b8ff" points="75.61,-44.34 73.56,-33.94 68.68,-43.35 75.61,-44.34"/>
</a>
</g>
</g>
</g>
</svg>
