<?xml version="1.0" encoding="UTF-8" standalone="no"?>
<!DOCTYPE svg PUBLIC "-//W3C//DTD SVG 1.1//EN"
 "http://www.w3.org/Graphics/SVG/1.1/DTD/svg11.dtd">
<!-- Generated by graphviz version 14.1.2 (20260124.0452)
 -->
<!-- Title: pugi::xpath_node::xpath_node Pages: 1 -->
<svg width="334pt" height="66pt"
 viewBox="0.00 0.00 334.00 66.00" xmlns="http://www.w3.org/2000/svg" xmlns:xlink="http://www.w3.org/1999/xlink">
<g id="graph0" class="graph" transform="scale(1 1) rotate(0) translate(4 62)">
<title>pugi::xpath_node::xpath_node</title>
<!-- Node1 -->
<g id="Node000001" class="node">
<title>Node1</title>
<g id="a_Node000001"><a xlink:title=" ">
<polygon fill="#999999" stroke="#666666" points="326,-39 179.5,-39 179.5,-19 326,-19 326,-39"/>
<text xml:space="preserve" text-anchor="middle" x="252.75" y="-25.5" font-family="Helvetica,sans-Serif" font-size="10.00">pugi::xpath_node::xpath_node</text>
</a>
</g>
</g>
<!-- Node2 -->
<g id="Node000002" class="node">
<title>Node2</title>
<g id="a_Node000002"><a xlink:href="classpugi_1_1xpath__node.html#a236954c08697be0c5a5263a9776cbc40" target="_top" xlink:title=" ">
<polygon fill="white" stroke="#666666" points="142,-58 1.5,-58 1.5,-38 142,-38 142,-58"/>
<text xml:space="preserve" text-anchor="middle" x="71.75" y="-44.5" font-family="Helvetica,sans-Serif" font-size="10.00">pugi::xpath_node::operator!=</text>
</a>
</g>
</g>
<!-- Node1&#45;&gt;Node2 -->
<g id="edge1_Node000001_Node000002" class="edge">
<title>Node1&#45;&gt;Node2</title>
<g id="a_edge1_Node000001_Node000002"><a xlink:title=" ">
<path fill="none" stroke="#63b8ff" d="M167.95,-37.9C159.33,-38.81 150.65,-39.73 142.21,-40.63"/>
<polygon fill="#63b8ff" stroke="#63b8ff" points="168.12,-41.4 177.7,-36.86 167.38,-34.44 168.12,-41.4"/>
</a>
</g>
</g>
<!-- Node3 -->
<g id="Node000003" class="node">
<title>Node3</title>
<g id="a_Node000003"><a xlink:href="classpugi_1_1xpath__node.html#a27ba89fe4ac4dcb6d63f0e7f3852edfa" target="_top" xlink:title=" ">
<polygon fill="white" stroke="#666666" points="143.5,-20 0,-20 0,0 143.5,0 143.5,-20"/>
<text xml:space="preserve" text-anchor="middle" x="71.75" y="-6.5" font-family="Helvetica,sans-Serif" font-size="10.00">pugi::xpath_node::operator==</text>
</a>
</g>
</g>
<!-- Node1&#45;&gt;Node3 -->
<g id="edge2_Node000001_Node000003" class="edge">
<title>Node1&#45;&gt;Node3</title>
<g id="a_edge2_Node000001_Node000003"><a xlink:title=" ">
<path fill="none" stroke="#63b8ff" d="M167.93,-20.1C159.91,-19.25 151.83,-18.39 143.95,-17.56"/>
<polygon fill="#63b8ff" stroke="#63b8ff" points="167.38,-23.56 177.7,-21.14 168.12,-16.6 167.38,-23.56"/>
</a>
</g>
</g>
</g>
</svg>
