<?xml version="1.0" encoding="UTF-8" standalone="no"?>
<!DOCTYPE svg PUBLIC "-//W3C//DTD SVG 1.1//EN"
 "http://www.w3.org/Graphics/SVG/1.1/DTD/svg11.dtd">
<!-- Generated by graphviz version 14.1.2 (20260124.0452)
 -->
<!-- Title: xpath_string::append Pages: 1 -->
<svg width="370pt" height="116pt"
 viewBox="0.00 0.00 370.00 116.00" xmlns="http://www.w3.org/2000/svg" xmlns:xlink="http://www.w3.org/1999/xlink">
<g id="graph0" class="graph" transform="scale(1 1) rotate(0) translate(4 112)">
<title>xpath_string::append</title>
<!-- Node1 -->
<g id="Node000001" class="node">
<title>Node1</title>
<g id="a_Node000001"><a xlink:title=" ">
<polygon fill="#999999" stroke="#666666" points="106.75,-70 0,-70 0,-50 106.75,-50 106.75,-70"/>
<text xml:space="preserve" text-anchor="middle" x="53.38" y="-56.5" font-family="Helvetica,sans-Serif" font-size="10.00">xpath_string::append</text>
</a>
</g>
</g>
<!-- Node2 -->
<g id="Node000002" class="node">
<title>Node2</title>
<g id="a_Node000002"><a xlink:href="classxpath__string.html#a8469bd7512df66adabd3f5144c4b2ef7" target="_top" xlink:title=" ">
<polygon fill="white" stroke="#666666" points="258.5,-108 157,-108 157,-88 258.5,-88 258.5,-108"/>
<text xml:space="preserve" text-anchor="middle" x="207.75" y="-94.5" font-family="Helvetica,sans-Serif" font-size="10.00">xpath_string::length</text>
</a>
</g>
</g>
<!-- Node1&#45;&gt;Node2 -->
<g id="edge1_Node000001_Node000002" class="edge">
<title>Node1&#45;&gt;Node2</title>
<g id="a_edge1_Node000001_Node000002"><a xlink:title=" ">
<path fill="none" stroke="#63b8ff" d="M96.42,-70.48C114.15,-74.91 135,-80.11 153.77,-84.79"/>
<polygon fill="#63b8ff" stroke="#63b8ff" points="152.83,-88.16 163.38,-87.18 154.52,-81.37 152.83,-88.16"/>
</a>
</g>
</g>
<!-- Node4 -->
<g id="Node000004" class="node">
<title>Node4</title>
<g id="a_Node000004"><a xlink:href="structxpath__allocator.html#a5d3ba1b01ba87b2002b348674e9d50b6" target="_top" xlink:title=" ">
<polygon fill="white" stroke="#666666" points="272.75,-70 142.75,-70 142.75,-50 272.75,-50 272.75,-70"/>
<text xml:space="preserve" text-anchor="middle" x="207.75" y="-56.5" font-family="Helvetica,sans-Serif" font-size="10.00">xpath_allocator::reallocate</text>
</a>
</g>
</g>
<!-- Node1&#45;&gt;Node4 -->
<g id="edge3_Node000001_Node000004" class="edge">
<title>Node1&#45;&gt;Node4</title>
<g id="a_edge3_Node000001_Node000004"><a xlink:title=" ">
<path fill="none" stroke="#63b8ff" d="M107.24,-60C114.95,-60 123.02,-60 131.07,-60"/>
<polygon fill="#63b8ff" stroke="#63b8ff" points="130.91,-63.5 140.91,-60 130.91,-56.5 130.91,-63.5"/>
</a>
</g>
</g>
<!-- Node5 -->
<g id="Node000005" class="node">
<title>Node5</title>
<g id="a_Node000005"><a xlink:href="classxpath__string.html#a93704af22ba77956cae8ec65f84658d8" target="_top" xlink:title=" ">
<polygon fill="white" stroke="#666666" points="257.38,-32 158.12,-32 158.12,0 257.38,0 257.38,-32"/>
<text xml:space="preserve" text-anchor="start" x="166.12" y="-18.5" font-family="Helvetica,sans-Serif" font-size="10.00">xpath_string::xpath</text>
<text xml:space="preserve" text-anchor="middle" x="207.75" y="-6.5" font-family="Helvetica,sans-Serif" font-size="10.00">_string</text>
</a>
</g>
</g>
<!-- Node1&#45;&gt;Node5 -->
<g id="edge4_Node000001_Node000005" class="edge">
<title>Node1&#45;&gt;Node5</title>
<g id="a_edge4_Node000001_Node000005"><a xlink:title=" ">
<path fill="none" stroke="#63b8ff" d="M90.49,-49.57C107.26,-44.73 127.66,-38.84 146.65,-33.35"/>
<polygon fill="#63b8ff" stroke="#63b8ff" points="147.55,-36.74 156.19,-30.6 145.61,-30.01 147.55,-36.74"/>
</a>
</g>
</g>
<!-- Node3 -->
<g id="Node000003" class="node">
<title>Node3</title>
<g id="a_Node000003"><a xlink:href="pugixml_8cpp.html#a775f7b78d2f13c1b72d69b114599461d" target="_top" xlink:title=" ">
<polygon fill="white" stroke="#666666" points="362.25,-108 308.75,-108 308.75,-88 362.25,-88 362.25,-108"/>
<text xml:space="preserve" text-anchor="middle" x="335.5" y="-94.5" font-family="Helvetica,sans-Serif" font-size="10.00">strlength</text>
</a>
</g>
</g>
<!-- Node2&#45;&gt;Node3 -->
<g id="edge2_Node000002_Node000003" class="edge">
<title>Node2&#45;&gt;Node3</title>
<g id="a_edge2_Node000002_Node000003"><a xlink:title=" ">
<path fill="none" stroke="#63b8ff" d="M258.81,-98C271.55,-98 285.02,-98 297.01,-98"/>
<polygon fill="#63b8ff" stroke="#63b8ff" points="296.92,-101.5 306.92,-98 296.92,-94.5 296.92,-101.5"/>
</a>
</g>
</g>
</g>
</svg>
