<?xml version="1.0" encoding="UTF-8" standalone="no"?>
<!DOCTYPE svg PUBLIC "-//W3C//DTD SVG 1.1//EN"
 "http://www.w3.org/Graphics/SVG/1.1/DTD/svg11.dtd">
<!-- Generated by graphviz version 14.1.2 (20260124.0452)
 -->
<!-- Title: pugi::xml_node_iterator::xml_node_iterator Pages: 1 -->
<svg width="279pt" height="290pt"
 viewBox="0.00 0.00 279.00 290.00" xmlns="http://www.w3.org/2000/svg" xmlns:xlink="http://www.w3.org/1999/xlink">
<g id="graph0" class="graph" transform="scale(1 1) rotate(0) translate(4 286)">
<title>pugi::xml_node_iterator::xml_node_iterator</title>
<!-- Node1 -->
<g id="Node000001" class="node">
<title>Node1</title>
<g id="a_Node000001"><a xlink:title=" ">
<polygon fill="#999999" stroke="#666666" points="270.5,-157 153.25,-157 153.25,-125 270.5,-125 270.5,-157"/>
<text xml:space="preserve" text-anchor="start" x="161.25" y="-143.5" font-family="Helvetica,sans-Serif" font-size="10.00">pugi::xml_node_iterator</text>
<text xml:space="preserve" text-anchor="middle" x="211.88" y="-131.5" font-family="Helvetica,sans-Serif" font-size="10.00">::xml_node_iterator</text>
</a>
</g>
</g>
<!-- Node2 -->
<g id="Node000002" class="node">
<title>Node2</title>
<g id="a_Node000002"><a xlink:href="classpugi_1_1xml__node__iterator.html#a5ad434db44866a3515b73413157b10c6" target="_top" xlink:title=" ">
<polygon fill="white" stroke="#666666" points="117.25,-282 0,-282 0,-250 117.25,-250 117.25,-282"/>
<text xml:space="preserve" text-anchor="start" x="8" y="-268.5" font-family="Helvetica,sans-Serif" font-size="10.00">pugi::xml_node_iterator</text>
<text xml:space="preserve" text-anchor="middle" x="58.62" y="-256.5" font-family="Helvetica,sans-Serif" font-size="10.00">::operator!=</text>
</a>
</g>
</g>
<!-- Node1&#45;&gt;Node2 -->
<g id="edge1_Node000001_Node000002" class="edge">
<title>Node1&#45;&gt;Node2</title>
<g id="a_edge1_Node000001_Node000002"><a xlink:title=" ">
<path fill="none" stroke="#63b8ff" d="M191.86,-166.6C174.43,-188.65 146.89,-220.12 117.25,-241 112.79,-244.14 107.88,-247.01 102.86,-249.59"/>
<polygon fill="#63b8ff" stroke="#63b8ff" points="194.62,-168.74 197.98,-158.7 189.09,-164.46 194.62,-168.74"/>
</a>
</g>
</g>
<!-- Node3 -->
<g id="Node000003" class="node">
<title>Node3</title>
<g id="a_Node000003"><a xlink:href="classpugi_1_1xml__node__iterator.html#ac5a300197d8ad6358d0e14329ff09842" target="_top" xlink:title=" ">
<polygon fill="white" stroke="#666666" points="117.25,-232 0,-232 0,-200 117.25,-200 117.25,-232"/>
<text xml:space="preserve" text-anchor="start" x="8" y="-218.5" font-family="Helvetica,sans-Serif" font-size="10.00">pugi::xml_node_iterator</text>
<text xml:space="preserve" text-anchor="middle" x="58.62" y="-206.5" font-family="Helvetica,sans-Serif" font-size="10.00">::operator++</text>
</a>
</g>
</g>
<!-- Node1&#45;&gt;Node3 -->
<g id="edge2_Node000001_Node000003" class="edge">
<title>Node1&#45;&gt;Node3</title>
<g id="a_edge2_Node000001_Node000003"><a xlink:title=" ">
<path fill="none" stroke="#63b8ff" d="M171.75,-162.81C155.11,-171.84 135.39,-182.24 117.25,-191 111.26,-193.89 104.85,-196.83 98.57,-199.62"/>
<polygon fill="#63b8ff" stroke="#63b8ff" points="173.25,-165.98 180.34,-158.11 169.89,-159.83 173.25,-165.98"/>
</a>
</g>
</g>
<!-- Node4 -->
<g id="Node000004" class="node">
<title>Node4</title>
<g id="a_Node000004"><a xlink:href="classpugi_1_1xml__node__iterator.html#a7bb0bc831593f83f989e4a76c76dc825" target="_top" xlink:title=" ">
<polygon fill="white" stroke="#666666" points="117.25,-182 0,-182 0,-150 117.25,-150 117.25,-182"/>
<text xml:space="preserve" text-anchor="start" x="8" y="-168.5" font-family="Helvetica,sans-Serif" font-size="10.00">pugi::xml_node_iterator</text>
<text xml:space="preserve" text-anchor="middle" x="58.62" y="-156.5" font-family="Helvetica,sans-Serif" font-size="10.00">::operator++</text>
</a>
</g>
</g>
<!-- Node1&#45;&gt;Node4 -->
<g id="edge3_Node000001_Node000004" class="edge">
<title>Node1&#45;&gt;Node4</title>
<g id="a_edge3_Node000001_Node000004"><a xlink:title=" ">
<path fill="none" stroke="#63b8ff" d="M141.48,-152.47C133.38,-153.81 125.18,-155.16 117.26,-156.47"/>
<polygon fill="#63b8ff" stroke="#63b8ff" points="142.04,-155.92 151.34,-150.84 140.9,-149.02 142.04,-155.92"/>
</a>
</g>
</g>
<!-- Node5 -->
<g id="Node000005" class="node">
<title>Node5</title>
<g id="a_Node000005"><a xlink:href="classpugi_1_1xml__node__iterator.html#a14d69fc054cfc70613609eba46cb00ce" target="_top" xlink:title=" ">
<polygon fill="white" stroke="#666666" points="117.25,-132 0,-132 0,-100 117.25,-100 117.25,-132"/>
<text xml:space="preserve" text-anchor="start" x="8" y="-118.5" font-family="Helvetica,sans-Serif" font-size="10.00">pugi::xml_node_iterator</text>
<text xml:space="preserve" text-anchor="middle" x="58.62" y="-106.5" font-family="Helvetica,sans-Serif" font-size="10.00">::operator&#45;&#45;</text>
</a>
</g>
</g>
<!-- Node1&#45;&gt;Node5 -->
<g id="edge4_Node000001_Node000005" class="edge">
<title>Node1&#45;&gt;Node5</title>
<g id="a_edge4_Node000001_Node000005"><a xlink:title=" ">
<path fill="none" stroke="#63b8ff" d="M141.48,-129.53C133.38,-128.19 125.18,-126.84 117.26,-125.53"/>
<polygon fill="#63b8ff" stroke="#63b8ff" points="140.9,-132.98 151.34,-131.16 142.04,-126.08 140.9,-132.98"/>
</a>
</g>
</g>
<!-- Node6 -->
<g id="Node000006" class="node">
<title>Node6</title>
<g id="a_Node000006"><a xlink:href="classpugi_1_1xml__node__iterator.html#a0ba911aa06c507179570348bd0783a73" target="_top" xlink:title=" ">
<polygon fill="white" stroke="#666666" points="117.25,-82 0,-82 0,-50 117.25,-50 117.25,-82"/>
<text xml:space="preserve" text-anchor="start" x="8" y="-68.5" font-family="Helvetica,sans-Serif" font-size="10.00">pugi::xml_node_iterator</text>
<text xml:space="preserve" text-anchor="middle" x="58.62" y="-56.5" font-family="Helvetica,sans-Serif" font-size="10.00">::operator&#45;&#45;</text>
</a>
</g>
</g>
<!-- Node1&#45;&gt;Node6 -->
<g id="edge5_Node000001_Node000006" class="edge">
<title>Node1&#45;&gt;Node6</title>
<g id="a_edge5_Node000001_Node000006"><a xlink:title=" ">
<path fill="none" stroke="#63b8ff" d="M171.75,-119.19C155.11,-110.16 135.39,-99.76 117.25,-91 111.26,-88.11 104.85,-85.17 98.57,-82.38"/>
<polygon fill="#63b8ff" stroke="#63b8ff" points="169.89,-122.17 180.34,-123.89 173.25,-116.02 169.89,-122.17"/>
</a>
</g>
</g>
<!-- Node7 -->
<g id="Node000007" class="node">
<title>Node7</title>
<g id="a_Node000007"><a xlink:href="classpugi_1_1xml__node__iterator.html#a18306ae4b9d5c54d5ed249f10591a214" target="_top" xlink:title=" ">
<polygon fill="white" stroke="#666666" points="117.25,-32 0,-32 0,0 117.25,0 117.25,-32"/>
<text xml:space="preserve" text-anchor="start" x="8" y="-18.5" font-family="Helvetica,sans-Serif" font-size="10.00">pugi::xml_node_iterator</text>
<text xml:space="preserve" text-anchor="middle" x="58.62" y="-6.5" font-family="Helvetica,sans-Serif" font-size="10.00">::operator==</text>
</a>
</g>
</g>
<!-- Node1&#45;&gt;Node7 -->
<g id="edge6_Node000001_Node000007" class="edge">
<title>Node1&#45;&gt;Node7</title>
<g id="a_edge6_Node000001_Node000007"><a xlink:title=" ">
<path fill="none" stroke="#63b8ff" d="M191.86,-115.4C174.43,-93.35 146.89,-61.88 117.25,-41 112.79,-37.86 107.88,-34.99 102.86,-32.41"/>
<polygon fill="#63b8ff" stroke="#63b8ff" points="189.09,-117.54 197.98,-123.3 194.62,-113.26 189.09,-117.54"/>
</a>
</g>
</g>
</g>
</svg>
