<?xml version="1.0" encoding="UTF-8" standalone="no"?>
<!DOCTYPE svg PUBLIC "-//W3C//DTD SVG 1.1//EN"
 "http://www.w3.org/Graphics/SVG/1.1/DTD/svg11.dtd">
<!-- Generated by graphviz version 14.1.2 (20260124.0452)
 -->
<!-- Title: pugi::xml_text::_data Pages: 1 -->
<svg width="576pt" height="779pt"
 viewBox="0.00 0.00 576.00 779.00" xmlns="http://www.w3.org/2000/svg" xmlns:xlink="http://www.w3.org/1999/xlink">
<g id="graph0" class="graph" transform="scale(1 1) rotate(0) translate(4 775)">
<title>pugi::xml_text::_data</title>
<!-- Node1 -->
<g id="Node000001" class="node">
<title>Node1</title>
<g id="a_Node000001"><a xlink:title=" ">
<polygon fill="#999999" stroke="#666666" points="568,-244 460.5,-244 460.5,-224 568,-224 568,-244"/>
<text xml:space="preserve" text-anchor="middle" x="514.25" y="-230.5" font-family="Helvetica,sans-Serif" font-size="10.00">pugi::xml_text::_data</text>
</a>
</g>
</g>
<!-- Node2 -->
<g id="Node000002" class="node">
<title>Node2</title>
<g id="a_Node000002"><a xlink:href="classpugi_1_1xml__text.html#a2ad78284a3210c085baa5ca31fe57cf8" target="_top" xlink:title=" ">
<polygon fill="white" stroke="#666666" points="424.5,-486 293.75,-486 293.75,-466 424.5,-466 424.5,-486"/>
<text xml:space="preserve" text-anchor="middle" x="359.12" y="-472.5" font-family="Helvetica,sans-Serif" font-size="10.00">pugi::xml_text::_data_new</text>
</a>
</g>
</g>
<!-- Node1&#45;&gt;Node2 -->
<g id="edge1_Node000001_Node000002" class="edge">
<title>Node1&#45;&gt;Node2</title>
<g id="a_edge1_Node000001_Node000002"><a xlink:title=" ">
<path fill="none" stroke="#63b8ff" d="M510.87,-255.84C504.84,-300.34 484.88,-401.92 424.5,-457 420.71,-460.46 416.32,-463.28 411.66,-465.6"/>
<polygon fill="#63b8ff" stroke="#63b8ff" points="514.34,-256.29 512.09,-245.94 507.39,-255.43 514.34,-256.29"/>
</a>
</g>
</g>
<!-- Node22 -->
<g id="Node000022" class="node">
<title>Node22</title>
<g id="a_Node000022"><a xlink:href="classpugi_1_1xml__text.html#ae982d599f58d2f92acc44f158327f706" target="_top" xlink:title=" ">
<polygon fill="white" stroke="#666666" points="417.75,-448 300.5,-448 300.5,-428 417.75,-428 417.75,-448"/>
<text xml:space="preserve" text-anchor="middle" x="359.12" y="-434.5" font-family="Helvetica,sans-Serif" font-size="10.00">pugi::xml_text::as_bool</text>
</a>
</g>
</g>
<!-- Node1&#45;&gt;Node22 -->
<g id="edge21_Node000001_Node000022" class="edge">
<title>Node1&#45;&gt;Node22</title>
<g id="a_edge21_Node000001_Node000022"><a xlink:title=" ">
<path fill="none" stroke="#63b8ff" d="M508.99,-255.26C500.18,-293.72 476.28,-374.92 424.5,-419 420.42,-422.47 415.73,-425.31 410.77,-427.63"/>
<polygon fill="#63b8ff" stroke="#63b8ff" points="512.38,-256.17 511.06,-245.66 505.54,-254.7 512.38,-256.17"/>
</a>
</g>
</g>
<!-- Node23 -->
<g id="Node000023" class="node">
<title>Node23</title>
<g id="a_Node000023"><a xlink:href="classpugi_1_1xml__text.html#a15d401765527e718b4af9da162dd3a35" target="_top" xlink:title=" ">
<polygon fill="white" stroke="#666666" points="406.12,-410 312.12,-410 312.12,-378 406.12,-378 406.12,-410"/>
<text xml:space="preserve" text-anchor="start" x="320.12" y="-396.5" font-family="Helvetica,sans-Serif" font-size="10.00">pugi::xml_text::as</text>
<text xml:space="preserve" text-anchor="middle" x="359.12" y="-384.5" font-family="Helvetica,sans-Serif" font-size="10.00">_double</text>
</a>
</g>
</g>
<!-- Node1&#45;&gt;Node23 -->
<g id="edge22_Node000001_Node000023" class="edge">
<title>Node1&#45;&gt;Node23</title>
<g id="a_edge22_Node000001_Node000023"><a xlink:title=" ">
<path fill="none" stroke="#63b8ff" d="M504.64,-254.62C491.44,-283.88 463.59,-337.4 424.5,-369 419.09,-373.37 412.83,-377.05 406.38,-380.11"/>
<polygon fill="#63b8ff" stroke="#63b8ff" points="507.72,-256.31 508.5,-245.75 501.3,-253.52 507.72,-256.31"/>
</a>
</g>
</g>
<!-- Node24 -->
<g id="Node000024" class="node">
<title>Node24</title>
<g id="a_Node000024"><a xlink:href="classpugi_1_1xml__text.html#a43e04ec15e315f30a6942201efb00b15" target="_top" xlink:title=" ">
<polygon fill="white" stroke="#666666" points="406.12,-360 312.12,-360 312.12,-328 406.12,-328 406.12,-360"/>
<text xml:space="preserve" text-anchor="start" x="320.12" y="-346.5" font-family="Helvetica,sans-Serif" font-size="10.00">pugi::xml_text::as</text>
<text xml:space="preserve" text-anchor="middle" x="359.12" y="-334.5" font-family="Helvetica,sans-Serif" font-size="10.00">_float</text>
</a>
</g>
</g>
<!-- Node1&#45;&gt;Node24 -->
<g id="edge23_Node000001_Node000024" class="edge">
<title>Node1&#45;&gt;Node24</title>
<g id="a_edge23_Node000001_Node000024"><a xlink:title=" ">
<path fill="none" stroke="#63b8ff" d="M497.57,-252.87C481.05,-271.75 453.44,-300.57 424.5,-319 418.94,-322.54 412.79,-325.72 406.58,-328.52"/>
<polygon fill="#63b8ff" stroke="#63b8ff" points="500.12,-255.27 503.97,-245.39 494.81,-250.72 500.12,-255.27"/>
</a>
</g>
</g>
<!-- Node25 -->
<g id="Node000025" class="node">
<title>Node25</title>
<g id="a_Node000025"><a xlink:href="classpugi_1_1xml__text.html#a72a5a9a06f060629a104b820b57f637b" target="_top" xlink:title=" ">
<polygon fill="white" stroke="#666666" points="414,-310 304.25,-310 304.25,-290 414,-290 414,-310"/>
<text xml:space="preserve" text-anchor="middle" x="359.12" y="-296.5" font-family="Helvetica,sans-Serif" font-size="10.00">pugi::xml_text::as_int</text>
</a>
</g>
</g>
<!-- Node1&#45;&gt;Node25 -->
<g id="edge24_Node000001_Node000025" class="edge">
<title>Node1&#45;&gt;Node25</title>
<g id="a_edge24_Node000001_Node000025"><a xlink:title=" ">
<path fill="none" stroke="#63b8ff" d="M486.15,-250.17C468.92,-260 445.89,-272.28 424.5,-281 416.73,-284.17 408.24,-287.05 400.05,-289.57"/>
<polygon fill="#63b8ff" stroke="#63b8ff" points="487.86,-253.23 494.76,-245.19 484.35,-247.17 487.86,-253.23"/>
</a>
</g>
</g>
<!-- Node26 -->
<g id="Node000026" class="node">
<title>Node26</title>
<g id="a_Node000026"><a xlink:href="classpugi_1_1xml__text.html#a0872292a6c083b4ebc18c668177dd49f" target="_top" xlink:title=" ">
<polygon fill="white" stroke="#666666" points="406.12,-272 312.12,-272 312.12,-240 406.12,-240 406.12,-272"/>
<text xml:space="preserve" text-anchor="start" x="320.12" y="-258.5" font-family="Helvetica,sans-Serif" font-size="10.00">pugi::xml_text::as</text>
<text xml:space="preserve" text-anchor="middle" x="359.12" y="-246.5" font-family="Helvetica,sans-Serif" font-size="10.00">_string</text>
</a>
</g>
</g>
<!-- Node1&#45;&gt;Node26 -->
<g id="edge25_Node000001_Node000026" class="edge">
<title>Node1&#45;&gt;Node26</title>
<g id="a_edge25_Node000001_Node000026"><a xlink:title=" ">
<path fill="none" stroke="#63b8ff" d="M448.88,-243.25C434.66,-245.29 419.86,-247.42 406.52,-249.33"/>
<polygon fill="#63b8ff" stroke="#63b8ff" points="449.23,-246.73 458.63,-241.85 448.23,-239.81 449.23,-246.73"/>
</a>
</g>
</g>
<!-- Node27 -->
<g id="Node000027" class="node">
<title>Node27</title>
<g id="a_Node000027"><a xlink:href="classpugi_1_1xml__text.html#a3dc1cb7d4aaac22d855a5a1f66828501" target="_top" xlink:title=" ">
<polygon fill="white" stroke="#666666" points="416.62,-222 301.62,-222 301.62,-202 416.62,-202 416.62,-222"/>
<text xml:space="preserve" text-anchor="middle" x="359.12" y="-208.5" font-family="Helvetica,sans-Serif" font-size="10.00">pugi::xml_text::as_uint</text>
</a>
</g>
</g>
<!-- Node1&#45;&gt;Node27 -->
<g id="edge26_Node000001_Node000027" class="edge">
<title>Node1&#45;&gt;Node27</title>
<g id="a_edge26_Node000001_Node000027"><a xlink:title=" ">
<path fill="none" stroke="#63b8ff" d="M448.84,-224.75C438.29,-223.23 427.42,-221.67 417.07,-220.18"/>
<polygon fill="#63b8ff" stroke="#63b8ff" points="448.23,-228.19 458.63,-226.15 449.23,-221.27 448.23,-228.19"/>
</a>
</g>
</g>
<!-- Node28 -->
<g id="Node000028" class="node">
<title>Node28</title>
<g id="a_Node000028"><a xlink:href="classpugi_1_1xml__text.html#aa72eccab5664aa8b6870051dc5af9443" target="_top" xlink:title=" ">
<polygon fill="white" stroke="#666666" points="410.25,-184 308,-184 308,-164 410.25,-164 410.25,-184"/>
<text xml:space="preserve" text-anchor="middle" x="359.12" y="-170.5" font-family="Helvetica,sans-Serif" font-size="10.00">pugi::xml_text::data</text>
</a>
</g>
</g>
<!-- Node1&#45;&gt;Node28 -->
<g id="edge27_Node000001_Node000028" class="edge">
<title>Node1&#45;&gt;Node28</title>
<g id="a_edge27_Node000001_Node000028"><a xlink:title=" ">
<path fill="none" stroke="#63b8ff" d="M482.93,-218.66C466,-210.43 444.36,-200.47 424.5,-193 416.32,-189.92 407.41,-187.02 398.89,-184.45"/>
<polygon fill="#63b8ff" stroke="#63b8ff" points="480.94,-221.58 491.45,-222.85 484.03,-215.3 480.94,-221.58"/>
</a>
</g>
</g>
<!-- Node29 -->
<g id="Node000029" class="node">
<title>Node29</title>
<g id="a_Node000029"><a xlink:href="classpugi_1_1xml__text.html#a79c46cb685d1ee7e34963bc26111d75e" target="_top" xlink:title=" ">
<polygon fill="white" stroke="#666666" points="414.38,-146 303.88,-146 303.88,-126 414.38,-126 414.38,-146"/>
<text xml:space="preserve" text-anchor="middle" x="359.12" y="-132.5" font-family="Helvetica,sans-Serif" font-size="10.00">pugi::xml_text::empty</text>
</a>
</g>
</g>
<!-- Node1&#45;&gt;Node29 -->
<g id="edge28_Node000001_Node000029" class="edge">
<title>Node1&#45;&gt;Node29</title>
<g id="a_edge28_Node000001_Node000029"><a xlink:title=" ">
<path fill="none" stroke="#63b8ff" d="M496.84,-215.22C480.25,-197.34 453.06,-170.87 424.5,-155 418.39,-151.6 411.61,-148.76 404.8,-146.39"/>
<polygon fill="#63b8ff" stroke="#63b8ff" points="494.18,-217.5 503.48,-222.57 499.37,-212.8 494.18,-217.5"/>
</a>
</g>
</g>
<!-- Node30 -->
<g id="Node000030" class="node">
<title>Node30</title>
<g id="a_Node000030"><a xlink:href="classpugi_1_1xml__text.html#a16b9d74fdf0b553b04f2676e60e737db" target="_top" xlink:title=" ">
<polygon fill="white" stroke="#666666" points="407.62,-108 310.62,-108 310.62,-88 407.62,-88 407.62,-108"/>
<text xml:space="preserve" text-anchor="middle" x="359.12" y="-94.5" font-family="Helvetica,sans-Serif" font-size="10.00">pugi::xml_text::get</text>
</a>
</g>
</g>
<!-- Node1&#45;&gt;Node30 -->
<g id="edge29_Node000001_Node000030" class="edge">
<title>Node1&#45;&gt;Node30</title>
<g id="a_edge29_Node000001_Node000030"><a xlink:title=" ">
<path fill="none" stroke="#63b8ff" d="M503.24,-213.89C489.2,-187.72 461.21,-142.36 424.5,-117 419.51,-113.56 413.9,-110.73 408.11,-108.41"/>
<polygon fill="#63b8ff" stroke="#63b8ff" points="499.98,-215.2 507.69,-222.47 506.2,-211.98 499.98,-215.2"/>
</a>
</g>
</g>
<!-- Node31 -->
<g id="Node000031" class="node">
<title>Node31</title>
<g id="a_Node000031"><a xlink:href="classpugi_1_1xml__text.html#a4bddc8c2fa9ddc1d202ba9f5af8e4844" target="_top" xlink:title=" ">
<polygon fill="white" stroke="#666666" points="418.5,-70 299.75,-70 299.75,-38 418.5,-38 418.5,-70"/>
<text xml:space="preserve" text-anchor="start" x="307.75" y="-56.5" font-family="Helvetica,sans-Serif" font-size="10.00">pugi::xml_text::operator</text>
<text xml:space="preserve" text-anchor="middle" x="359.12" y="-44.5" font-family="Helvetica,sans-Serif" font-size="10.00"> unspecified_bool_type</text>
</a>
</g>
</g>
<!-- Node1&#45;&gt;Node31 -->
<g id="edge30_Node000001_Node000031" class="edge">
<title>Node1&#45;&gt;Node31</title>
<g id="a_edge30_Node000001_Node000031"><a xlink:title=" ">
<path fill="none" stroke="#63b8ff" d="M506.47,-213.14C494.78,-180.26 467.83,-116.29 424.5,-79 420.77,-75.79 416.59,-72.97 412.19,-70.5"/>
<polygon fill="#63b8ff" stroke="#63b8ff" points="503.06,-213.97 509.6,-222.31 509.68,-211.71 503.06,-213.97"/>
</a>
</g>
</g>
<!-- Node32 -->
<g id="Node000032" class="node">
<title>Node32</title>
<g id="a_Node000032"><a xlink:href="classpugi_1_1xml__text.html#a26ed22884f9d0f5f20c10c2375033ac6" target="_top" xlink:title=" ">
<polygon fill="white" stroke="#666666" points="420,-20 298.25,-20 298.25,0 420,0 420,-20"/>
<text xml:space="preserve" text-anchor="middle" x="359.12" y="-6.5" font-family="Helvetica,sans-Serif" font-size="10.00">pugi::xml_text::operator!</text>
</a>
</g>
</g>
<!-- Node1&#45;&gt;Node32 -->
<g id="edge31_Node000001_Node000032" class="edge">
<title>Node1&#45;&gt;Node32</title>
<g id="a_edge31_Node000001_Node000032"><a xlink:title=" ">
<path fill="none" stroke="#63b8ff" d="M510.06,-212.49C502.74,-170.82 480.82,-78.86 424.5,-29 420.57,-25.52 416.04,-22.68 411.23,-20.36"/>
<polygon fill="#63b8ff" stroke="#63b8ff" points="506.58,-212.9 511.64,-222.21 513.49,-211.77 506.58,-212.9"/>
</a>
</g>
</g>
<!-- Node3 -->
<g id="Node000003" class="node">
<title>Node3</title>
<g id="a_Node000003"><a xlink:href="classpugi_1_1xml__text.html#ad6d90753ebbb8259f9647ce6e6522c7a" target="_top" xlink:title=" ">
<polygon fill="white" stroke="#666666" points="257.75,-676 160.75,-676 160.75,-656 257.75,-656 257.75,-676"/>
<text xml:space="preserve" text-anchor="middle" x="209.25" y="-662.5" font-family="Helvetica,sans-Serif" font-size="10.00">pugi::xml_text::set</text>
</a>
</g>
</g>
<!-- Node2&#45;&gt;Node3 -->
<g id="edge2_Node000002_Node000003" class="edge">
<title>Node2&#45;&gt;Node3</title>
<g id="a_edge2_Node000002_Node000003"><a xlink:title=" ">
<path fill="none" stroke="#63b8ff" d="M350.98,-496.98C337.88,-532.54 306.76,-604.85 257.75,-647 253.84,-650.36 249.27,-653.17 244.53,-655.51"/>
<polygon fill="#63b8ff" stroke="#63b8ff" points="354.17,-498.45 354.23,-487.86 347.58,-496.11 354.17,-498.45"/>
</a>
</g>
</g>
<!-- Node4 -->
<g id="Node000004" class="node">
<title>Node4</title>
<g id="a_Node000004"><a xlink:href="classpugi_1_1xml__text.html#a902acc65b6ed883af8540293ea2a5b36" target="_top" xlink:title=" ">
<polygon fill="white" stroke="#666666" points="257.75,-638 160.75,-638 160.75,-618 257.75,-618 257.75,-638"/>
<text xml:space="preserve" text-anchor="middle" x="209.25" y="-624.5" font-family="Helvetica,sans-Serif" font-size="10.00">pugi::xml_text::set</text>
</a>
</g>
</g>
<!-- Node2&#45;&gt;Node4 -->
<g id="edge3_Node000002_Node000004" class="edge">
<title>Node2&#45;&gt;Node4</title>
<g id="a_edge3_Node000002_Node000004"><a xlink:title=" ">
<path fill="none" stroke="#63b8ff" d="M347.57,-496.23C331.65,-524.94 298.95,-577.53 257.75,-609 253.37,-612.34 248.33,-615.18 243.2,-617.56"/>
<polygon fill="#63b8ff" stroke="#63b8ff" points="350.61,-497.95 352.28,-487.49 344.45,-494.63 350.61,-497.95"/>
</a>
</g>
</g>
<!-- Node13 -->
<g id="Node000013" class="node">
<title>Node13</title>
<g id="a_Node000013"><a xlink:href="classpugi_1_1xml__text.html#a83d31892282b29568d806c5b94de7000" target="_top" xlink:title=" ">
<polygon fill="white" stroke="#666666" points="257.75,-600 160.75,-600 160.75,-580 257.75,-580 257.75,-600"/>
<text xml:space="preserve" text-anchor="middle" x="209.25" y="-586.5" font-family="Helvetica,sans-Serif" font-size="10.00">pugi::xml_text::set</text>
</a>
</g>
</g>
<!-- Node2&#45;&gt;Node13 -->
<g id="edge12_Node000002_Node000013" class="edge">
<title>Node2&#45;&gt;Node13</title>
<g id="a_edge12_Node000002_Node000013"><a xlink:title=" ">
<path fill="none" stroke="#63b8ff" d="M341.95,-495.15C323.4,-516.11 291.23,-549.58 257.75,-571 252.66,-574.26 246.93,-577.12 241.25,-579.58"/>
<polygon fill="#63b8ff" stroke="#63b8ff" points="344.56,-497.48 348.47,-487.63 339.27,-492.89 344.56,-497.48"/>
</a>
</g>
</g>
<!-- Node14 -->
<g id="Node000014" class="node">
<title>Node14</title>
<g id="a_Node000014"><a xlink:href="classpugi_1_1xml__text.html#abc7376eb7631b28da7d26633ed5481f6" target="_top" xlink:title=" ">
<polygon fill="white" stroke="#666666" points="257.75,-562 160.75,-562 160.75,-542 257.75,-542 257.75,-562"/>
<text xml:space="preserve" text-anchor="middle" x="209.25" y="-548.5" font-family="Helvetica,sans-Serif" font-size="10.00">pugi::xml_text::set</text>
</a>
</g>
</g>
<!-- Node2&#45;&gt;Node14 -->
<g id="edge13_Node000002_Node000014" class="edge">
<title>Node2&#45;&gt;Node14</title>
<g id="a_edge13_Node000002_Node000014"><a xlink:title=" ">
<path fill="none" stroke="#63b8ff" d="M331.84,-492.23C311.89,-504.23 283.58,-520.57 257.75,-533 251.51,-536 244.66,-538.94 238.15,-541.57"/>
<polygon fill="#63b8ff" stroke="#63b8ff" points="333.42,-495.37 340.16,-487.19 329.79,-489.38 333.42,-495.37"/>
</a>
</g>
</g>
<!-- Node15 -->
<g id="Node000015" class="node">
<title>Node15</title>
<g id="a_Node000015"><a xlink:href="classpugi_1_1xml__text.html#a72e139a753c73ce98043a0a2656651fd" target="_top" xlink:title=" ">
<polygon fill="white" stroke="#666666" points="257.75,-524 160.75,-524 160.75,-504 257.75,-504 257.75,-524"/>
<text xml:space="preserve" text-anchor="middle" x="209.25" y="-510.5" font-family="Helvetica,sans-Serif" font-size="10.00">pugi::xml_text::set</text>
</a>
</g>
</g>
<!-- Node2&#45;&gt;Node15 -->
<g id="edge14_Node000002_Node000015" class="edge">
<title>Node2&#45;&gt;Node15</title>
<g id="a_edge14_Node000002_Node000015"><a xlink:title=" ">
<path fill="none" stroke="#63b8ff" d="M306.32,-489.31C288.16,-493.98 268.03,-499.15 250.92,-503.55"/>
<polygon fill="#63b8ff" stroke="#63b8ff" points="307.05,-492.74 315.86,-486.86 305.3,-485.96 307.05,-492.74"/>
</a>
</g>
</g>
<!-- Node16 -->
<g id="Node000016" class="node">
<title>Node16</title>
<g id="a_Node000016"><a xlink:href="classpugi_1_1xml__text.html#a8495d80a69cb6828590d6eda97efa0c4" target="_top" xlink:title=" ">
<polygon fill="white" stroke="#666666" points="257.75,-486 160.75,-486 160.75,-466 257.75,-466 257.75,-486"/>
<text xml:space="preserve" text-anchor="middle" x="209.25" y="-472.5" font-family="Helvetica,sans-Serif" font-size="10.00">pugi::xml_text::set</text>
</a>
</g>
</g>
<!-- Node2&#45;&gt;Node16 -->
<g id="edge15_Node000002_Node000016" class="edge">
<title>Node2&#45;&gt;Node16</title>
<g id="a_edge15_Node000002_Node000016"><a xlink:title=" ">
<path fill="none" stroke="#63b8ff" d="M281.87,-476C273.81,-476 265.77,-476 258.17,-476"/>
<polygon fill="#63b8ff" stroke="#63b8ff" points="281.75,-479.5 291.75,-476 281.75,-472.5 281.75,-479.5"/>
</a>
</g>
</g>
<!-- Node17 -->
<g id="Node000017" class="node">
<title>Node17</title>
<g id="a_Node000017"><a xlink:href="classpugi_1_1xml__text.html#a184b58bdb90707ac216b7d3799417137" target="_top" xlink:title=" ">
<polygon fill="white" stroke="#666666" points="257.75,-448 160.75,-448 160.75,-428 257.75,-428 257.75,-448"/>
<text xml:space="preserve" text-anchor="middle" x="209.25" y="-434.5" font-family="Helvetica,sans-Serif" font-size="10.00">pugi::xml_text::set</text>
</a>
</g>
</g>
<!-- Node2&#45;&gt;Node17 -->
<g id="edge16_Node000002_Node000017" class="edge">
<title>Node2&#45;&gt;Node17</title>
<g id="a_edge16_Node000002_Node000017"><a xlink:title=" ">
<path fill="none" stroke="#63b8ff" d="M306.32,-462.69C288.16,-458.02 268.03,-452.85 250.92,-448.45"/>
<polygon fill="#63b8ff" stroke="#63b8ff" points="305.3,-466.04 315.86,-465.14 307.05,-459.26 305.3,-466.04"/>
</a>
</g>
</g>
<!-- Node18 -->
<g id="Node000018" class="node">
<title>Node18</title>
<g id="a_Node000018"><a xlink:href="classpugi_1_1xml__text.html#af5f503a48b696f52fe3f337ee147161d" target="_top" xlink:title=" ">
<polygon fill="white" stroke="#666666" points="257.75,-410 160.75,-410 160.75,-390 257.75,-390 257.75,-410"/>
<text xml:space="preserve" text-anchor="middle" x="209.25" y="-396.5" font-family="Helvetica,sans-Serif" font-size="10.00">pugi::xml_text::set</text>
</a>
</g>
</g>
<!-- Node2&#45;&gt;Node18 -->
<g id="edge17_Node000002_Node000018" class="edge">
<title>Node2&#45;&gt;Node18</title>
<g id="a_edge17_Node000002_Node000018"><a xlink:title=" ">
<path fill="none" stroke="#63b8ff" d="M301.38,-461.15C298.74,-459.87 296.18,-458.49 293.75,-457 273.91,-444.85 277,-432.07 257.75,-419 252.9,-415.71 247.39,-412.85 241.89,-410.42"/>
<polygon fill="#63b8ff" stroke="#63b8ff" points="299.86,-464.31 310.44,-464.98 302.59,-457.86 299.86,-464.31"/>
</a>
</g>
</g>
<!-- Node19 -->
<g id="Node000019" class="node">
<title>Node19</title>
<g id="a_Node000019"><a xlink:href="classpugi_1_1xml__text.html#a8f05560dc59a07411b2fa64736b0ea2b" target="_top" xlink:title=" ">
<polygon fill="white" stroke="#666666" points="257.75,-372 160.75,-372 160.75,-352 257.75,-352 257.75,-372"/>
<text xml:space="preserve" text-anchor="middle" x="209.25" y="-358.5" font-family="Helvetica,sans-Serif" font-size="10.00">pugi::xml_text::set</text>
</a>
</g>
</g>
<!-- Node2&#45;&gt;Node19 -->
<g id="edge18_Node000002_Node000019" class="edge">
<title>Node2&#45;&gt;Node19</title>
<g id="a_edge18_Node000002_Node000019"><a xlink:title=" ">
<path fill="none" stroke="#63b8ff" d="M297.24,-459.73C296.04,-458.87 294.87,-457.96 293.75,-457 265.35,-432.7 284.98,-406.6 257.75,-381 254.13,-377.59 249.81,-374.77 245.29,-372.43"/>
<polygon fill="#63b8ff" stroke="#63b8ff" points="295.43,-462.73 305.83,-464.74 298.95,-456.68 295.43,-462.73"/>
</a>
</g>
</g>
<!-- Node20 -->
<g id="Node000020" class="node">
<title>Node20</title>
<g id="a_Node000020"><a xlink:href="classpugi_1_1xml__text.html#a58dded2d86a058a5e7f0fcbe5bdec156" target="_top" xlink:title=" ">
<polygon fill="white" stroke="#666666" points="257.75,-334 160.75,-334 160.75,-314 257.75,-314 257.75,-334"/>
<text xml:space="preserve" text-anchor="middle" x="209.25" y="-320.5" font-family="Helvetica,sans-Serif" font-size="10.00">pugi::xml_text::set</text>
</a>
</g>
</g>
<!-- Node2&#45;&gt;Node20 -->
<g id="edge19_Node000002_Node000020" class="edge">
<title>Node2&#45;&gt;Node20</title>
<g id="a_edge19_Node000002_Node000020"><a xlink:title=" ">
<path fill="none" stroke="#63b8ff" d="M296.48,-459.46C295.53,-458.68 294.62,-457.86 293.75,-457 255.83,-419.79 293.89,-381.95 257.75,-343 254.49,-339.48 250.49,-336.61 246.21,-334.25"/>
<polygon fill="#63b8ff" stroke="#63b8ff" points="294.17,-462.13 304.44,-464.72 298.02,-456.29 294.17,-462.13"/>
</a>
</g>
</g>
<!-- Node21 -->
<g id="Node000021" class="node">
<title>Node21</title>
<g id="a_Node000021"><a xlink:href="classpugi_1_1xml__text.html#a3f8620dc6f882a5885d459da72ccc590" target="_top" xlink:title=" ">
<polygon fill="white" stroke="#666666" points="257.75,-296 160.75,-296 160.75,-276 257.75,-276 257.75,-296"/>
<text xml:space="preserve" text-anchor="middle" x="209.25" y="-282.5" font-family="Helvetica,sans-Serif" font-size="10.00">pugi::xml_text::set</text>
</a>
</g>
</g>
<!-- Node2&#45;&gt;Node21 -->
<g id="edge20_Node000002_Node000021" class="edge">
<title>Node2&#45;&gt;Node21</title>
<g id="a_edge20_Node000002_Node000021"><a xlink:title=" ">
<path fill="none" stroke="#63b8ff" d="M295.99,-459.19C295.22,-458.49 294.47,-457.76 293.75,-457 246.01,-406.59 303.08,-357.58 257.75,-305 254.73,-301.5 250.98,-298.64 246.92,-296.3"/>
<polygon fill="#63b8ff" stroke="#63b8ff" points="293.7,-461.86 303.89,-464.77 297.74,-456.14 293.7,-461.86"/>
</a>
</g>
</g>
<!-- Node5 -->
<g id="Node000005" class="node">
<title>Node5</title>
<g id="a_Node000005"><a xlink:href="classpugi_1_1xml__text.html#a81b4238dae036fe8a81bbd3b3125d70b" target="_top" xlink:title=" ">
<polygon fill="white" stroke="#666666" points="124.75,-771 0,-771 0,-751 124.75,-751 124.75,-771"/>
<text xml:space="preserve" text-anchor="middle" x="62.38" y="-757.5" font-family="Helvetica,sans-Serif" font-size="10.00">pugi::xml_text::operator=</text>
</a>
</g>
</g>
<!-- Node4&#45;&gt;Node5 -->
<g id="edge4_Node000004_Node000005" class="edge">
<title>Node4&#45;&gt;Node5</title>
<g id="a_edge4_Node000004_Node000005"><a xlink:title=" ">
<path fill="none" stroke="#63b8ff" d="M163.05,-644.84C162.25,-645.53 161.49,-646.25 160.75,-647 129.12,-679.22 157.65,-711.08 124.75,-742 121.09,-745.44 116.82,-748.25 112.27,-750.56"/>
<polygon fill="#63b8ff" stroke="#63b8ff" points="164.92,-647.8 171.22,-639.28 160.99,-642.01 164.92,-647.8"/>
</a>
</g>
</g>
<!-- Node6 -->
<g id="Node000006" class="node">
<title>Node6</title>
<g id="a_Node000006"><a xlink:href="classpugi_1_1xml__text.html#a1a08c9c8b703e929d4b3bf2e6f61149d" target="_top" xlink:title=" ">
<polygon fill="white" stroke="#666666" points="124.75,-733 0,-733 0,-713 124.75,-713 124.75,-733"/>
<text xml:space="preserve" text-anchor="middle" x="62.38" y="-719.5" font-family="Helvetica,sans-Serif" font-size="10.00">pugi::xml_text::operator=</text>
</a>
</g>
</g>
<!-- Node4&#45;&gt;Node6 -->
<g id="edge5_Node000004_Node000006" class="edge">
<title>Node4&#45;&gt;Node6</title>
<g id="a_edge5_Node000004_Node000006"><a xlink:title=" ">
<path fill="none" stroke="#63b8ff" d="M164.78,-643.96C163.38,-644.92 162.03,-645.93 160.75,-647 137.72,-666.16 148.53,-685.78 124.75,-704 120.23,-707.46 115.08,-710.3 109.73,-712.62"/>
<polygon fill="#63b8ff" stroke="#63b8ff" points="166.31,-647.12 173.24,-639.12 162.83,-641.05 166.31,-647.12"/>
</a>
</g>
</g>
<!-- Node7 -->
<g id="Node000007" class="node">
<title>Node7</title>
<g id="a_Node000007"><a xlink:href="classpugi_1_1xml__text.html#ab78070dd0b8ea25e4351d9ca28bf7923" target="_top" xlink:title=" ">
<polygon fill="white" stroke="#666666" points="124.75,-695 0,-695 0,-675 124.75,-675 124.75,-695"/>
<text xml:space="preserve" text-anchor="middle" x="62.38" y="-681.5" font-family="Helvetica,sans-Serif" font-size="10.00">pugi::xml_text::operator=</text>
</a>
</g>
</g>
<!-- Node4&#45;&gt;Node7 -->
<g id="edge6_Node000004_Node000007" class="edge">
<title>Node4&#45;&gt;Node7</title>
<g id="a_edge6_Node000004_Node000007"><a xlink:title=" ">
<path fill="none" stroke="#63b8ff" d="M170.31,-642.76C167.06,-644.15 163.83,-645.57 160.75,-647 144.33,-654.59 141.46,-659.07 124.75,-666 117.23,-669.12 109.01,-672 101.09,-674.53"/>
<polygon fill="#63b8ff" stroke="#63b8ff" points="171.37,-646.11 179.26,-639.05 168.69,-639.64 171.37,-646.11"/>
</a>
</g>
</g>
<!-- Node8 -->
<g id="Node000008" class="node">
<title>Node8</title>
<g id="a_Node000008"><a xlink:href="classpugi_1_1xml__text.html#a599caf816bcffda85ca04be72b153937" target="_top" xlink:title=" ">
<polygon fill="white" stroke="#666666" points="124.75,-657 0,-657 0,-637 124.75,-637 124.75,-657"/>
<text xml:space="preserve" text-anchor="middle" x="62.38" y="-643.5" font-family="Helvetica,sans-Serif" font-size="10.00">pugi::xml_text::operator=</text>
</a>
</g>
</g>
<!-- Node4&#45;&gt;Node8 -->
<g id="edge7_Node000004_Node000008" class="edge">
<title>Node4&#45;&gt;Node8</title>
<g id="a_edge7_Node000004_Node000008"><a xlink:title=" ">
<path fill="none" stroke="#63b8ff" d="M149.05,-635.76C141.16,-636.8 133.05,-637.86 125.11,-638.9"/>
<polygon fill="#63b8ff" stroke="#63b8ff" points="149.45,-639.24 158.91,-634.47 148.54,-632.3 149.45,-639.24"/>
</a>
</g>
</g>
<!-- Node9 -->
<g id="Node000009" class="node">
<title>Node9</title>
<g id="a_Node000009"><a xlink:href="classpugi_1_1xml__text.html#ad98117a3a16fe2ebd80e33a3468421f4" target="_top" xlink:title=" ">
<polygon fill="white" stroke="#666666" points="124.75,-619 0,-619 0,-599 124.75,-599 124.75,-619"/>
<text xml:space="preserve" text-anchor="middle" x="62.38" y="-605.5" font-family="Helvetica,sans-Serif" font-size="10.00">pugi::xml_text::operator=</text>
</a>
</g>
</g>
<!-- Node4&#45;&gt;Node9 -->
<g id="edge8_Node000004_Node000009" class="edge">
<title>Node4&#45;&gt;Node9</title>
<g id="a_edge8_Node000004_Node000009"><a xlink:title=" ">
<path fill="none" stroke="#63b8ff" d="M149.05,-620.24C141.16,-619.2 133.05,-618.14 125.11,-617.1"/>
<polygon fill="#63b8ff" stroke="#63b8ff" points="148.54,-623.7 158.91,-621.53 149.45,-616.76 148.54,-623.7"/>
</a>
</g>
</g>
<!-- Node10 -->
<g id="Node000010" class="node">
<title>Node10</title>
<g id="a_Node000010"><a xlink:href="classpugi_1_1xml__text.html#a29a0ab34bacdc90797f6db9878dcf1ef" target="_top" xlink:title=" ">
<polygon fill="white" stroke="#666666" points="124.75,-581 0,-581 0,-561 124.75,-561 124.75,-581"/>
<text xml:space="preserve" text-anchor="middle" x="62.38" y="-567.5" font-family="Helvetica,sans-Serif" font-size="10.00">pugi::xml_text::operator=</text>
</a>
</g>
</g>
<!-- Node4&#45;&gt;Node10 -->
<g id="edge9_Node000004_Node000010" class="edge">
<title>Node4&#45;&gt;Node10</title>
<g id="a_edge9_Node000004_Node000010"><a xlink:title=" ">
<path fill="none" stroke="#63b8ff" d="M170.31,-613.24C167.06,-611.85 163.83,-610.43 160.75,-609 144.33,-601.41 141.46,-596.93 124.75,-590 117.23,-586.88 109.01,-584 101.09,-581.47"/>
<polygon fill="#63b8ff" stroke="#63b8ff" points="168.69,-616.36 179.26,-616.95 171.37,-609.89 168.69,-616.36"/>
</a>
</g>
</g>
<!-- Node11 -->
<g id="Node000011" class="node">
<title>Node11</title>
<g id="a_Node000011"><a xlink:href="classpugi_1_1xml__text.html#a48fb4cbc530a6ef28c408d81487f0e40" target="_top" xlink:title=" ">
<polygon fill="white" stroke="#666666" points="124.75,-543 0,-543 0,-523 124.75,-523 124.75,-543"/>
<text xml:space="preserve" text-anchor="middle" x="62.38" y="-529.5" font-family="Helvetica,sans-Serif" font-size="10.00">pugi::xml_text::operator=</text>
</a>
</g>
</g>
<!-- Node4&#45;&gt;Node11 -->
<g id="edge10_Node000004_Node000011" class="edge">
<title>Node4&#45;&gt;Node11</title>
<g id="a_edge10_Node000004_Node000011"><a xlink:title=" ">
<path fill="none" stroke="#63b8ff" d="M164.78,-612.04C163.38,-611.08 162.03,-610.07 160.75,-609 137.72,-589.84 148.53,-570.22 124.75,-552 120.23,-548.54 115.08,-545.7 109.73,-543.38"/>
<polygon fill="#63b8ff" stroke="#63b8ff" points="162.83,-614.95 173.24,-616.88 166.31,-608.88 162.83,-614.95"/>
</a>
</g>
</g>
<!-- Node12 -->
<g id="Node000012" class="node">
<title>Node12</title>
<g id="a_Node000012"><a xlink:href="classpugi_1_1xml__text.html#a6d7074af69fe080f02154bceb4d1d61a" target="_top" xlink:title=" ">
<polygon fill="white" stroke="#666666" points="124.75,-505 0,-505 0,-485 124.75,-485 124.75,-505"/>
<text xml:space="preserve" text-anchor="middle" x="62.38" y="-491.5" font-family="Helvetica,sans-Serif" font-size="10.00">pugi::xml_text::operator=</text>
</a>
</g>
</g>
<!-- Node4&#45;&gt;Node12 -->
<g id="edge11_Node000004_Node000012" class="edge">
<title>Node4&#45;&gt;Node12</title>
<g id="a_edge11_Node000004_Node000012"><a xlink:title=" ">
<path fill="none" stroke="#63b8ff" d="M163.05,-611.16C162.25,-610.47 161.49,-609.75 160.75,-609 129.12,-576.78 157.65,-544.92 124.75,-514 121.09,-510.56 116.82,-507.75 112.27,-505.44"/>
<polygon fill="#63b8ff" stroke="#63b8ff" points="160.99,-613.99 171.22,-616.72 164.92,-608.2 160.99,-613.99"/>
</a>
</g>
</g>
</g>
</svg>
