<?xml version="1.0" encoding="UTF-8" standalone="no"?>
<!DOCTYPE svg PUBLIC "-//W3C//DTD SVG 1.1//EN"
 "http://www.w3.org/Graphics/SVG/1.1/DTD/svg11.dtd">
<!-- Generated by graphviz version 14.1.2 (20260124.0452)
 -->
<!-- Title: pugi::xml_node::append_attribute Pages: 1 -->
<svg width="270pt" height="78pt"
 viewBox="0.00 0.00 270.00 78.00" xmlns="http://www.w3.org/2000/svg" xmlns:xlink="http://www.w3.org/1999/xlink">
<g id="graph0" class="graph" transform="scale(1 1) rotate(0) translate(4 74)">
<title>pugi::xml_node::append_attribute</title>
<!-- Node1 -->
<g id="Node000001" class="node">
<title>Node1</title>
<g id="a_Node000001"><a xlink:title=" ">
<polygon fill="#999999" stroke="#666666" points="119.5,-48 0,-48 0,-16 119.5,-16 119.5,-48"/>
<text xml:space="preserve" text-anchor="start" x="8" y="-34.5" font-family="Helvetica,sans-Serif" font-size="10.00">pugi::xml_node::append</text>
<text xml:space="preserve" text-anchor="middle" x="59.75" y="-22.5" font-family="Helvetica,sans-Serif" font-size="10.00">_attribute</text>
</a>
</g>
</g>
<!-- Node2 -->
<g id="Node000002" class="node">
<title>Node2</title>
<g id="a_Node000002"><a xlink:href="classpugi_1_1xml__attribute.html#a52ce5d48bd079978da1f98857674002e" target="_top" xlink:title=" ">
<polygon fill="white" stroke="#666666" points="257,-70 160.75,-70 160.75,-38 257,-38 257,-70"/>
<text xml:space="preserve" text-anchor="start" x="168.75" y="-56.5" font-family="Helvetica,sans-Serif" font-size="10.00">pugi::xml_attribute</text>
<text xml:space="preserve" text-anchor="middle" x="208.88" y="-44.5" font-family="Helvetica,sans-Serif" font-size="10.00">::set_name</text>
</a>
</g>
</g>
<!-- Node1&#45;&gt;Node2 -->
<g id="edge1_Node000001_Node000002" class="edge">
<title>Node1&#45;&gt;Node2</title>
<g id="a_edge1_Node000001_Node000002"><a xlink:title=" ">
<path fill="none" stroke="#63b8ff" d="M119.74,-40.82C129.51,-42.28 139.64,-43.8 149.39,-45.25"/>
<polygon fill="#63b8ff" stroke="#63b8ff" points="148.73,-48.69 159.13,-46.71 149.76,-41.77 148.73,-48.69"/>
</a>
</g>
</g>
<!-- Node3 -->
<g id="Node000003" class="node">
<title>Node3</title>
<g id="a_Node000003"><a xlink:href="classpugi_1_1xml__node.html#aa018a135915ec8b2e3388feab2a78cfe" target="_top" xlink:title=" ">
<polygon fill="white" stroke="#666666" points="262.25,-20 155.5,-20 155.5,0 262.25,0 262.25,-20"/>
<text xml:space="preserve" text-anchor="middle" x="208.88" y="-6.5" font-family="Helvetica,sans-Serif" font-size="10.00">pugi::xml_node::type</text>
</a>
</g>
</g>
<!-- Node1&#45;&gt;Node3 -->
<g id="edge2_Node000001_Node000003" class="edge">
<title>Node1&#45;&gt;Node3</title>
<g id="a_edge2_Node000001_Node000003"><a xlink:title=" ">
<path fill="none" stroke="#63b8ff" d="M119.74,-23.18C127.68,-21.99 135.85,-20.77 143.86,-19.57"/>
<polygon fill="#63b8ff" stroke="#63b8ff" points="144.18,-23.06 153.55,-18.12 143.14,-16.14 144.18,-23.06"/>
</a>
</g>
</g>
</g>
</svg>
