<?xml version="1.0" encoding="UTF-8" standalone="no"?>
<!DOCTYPE svg PUBLIC "-//W3C//DTD SVG 1.1//EN"
 "http://www.w3.org/Graphics/SVG/1.1/DTD/svg11.dtd">
<!-- Generated by graphviz version 14.1.2 (20260124.0452)
 -->
<!-- Title: pugi::xml_document::reset Pages: 1 -->
<svg width="391pt" height="133pt"
 viewBox="0.00 0.00 391.00 133.00" xmlns="http://www.w3.org/2000/svg" xmlns:xlink="http://www.w3.org/1999/xlink">
<g id="graph0" class="graph" transform="scale(1 1) rotate(0) translate(4 129)">
<title>pugi::xml_document::reset</title>
<!-- Node1 -->
<g id="Node000001" class="node">
<title>Node1</title>
<g id="a_Node000001"><a xlink:title=" ">
<polygon fill="#999999" stroke="#666666" points="103.75,-66 0,-66 0,-34 103.75,-34 103.75,-66"/>
<text xml:space="preserve" text-anchor="start" x="8" y="-52.5" font-family="Helvetica,sans-Serif" font-size="10.00">pugi::xml_document</text>
<text xml:space="preserve" text-anchor="middle" x="51.88" y="-40.5" font-family="Helvetica,sans-Serif" font-size="10.00">::reset</text>
</a>
</g>
</g>
<!-- Node2 -->
<g id="Node000002" class="node">
<title>Node2</title>
<g id="a_Node000002"><a xlink:href="classpugi_1_1xml__document.html#a56e84f1a61d9798b8095f633d2174ab5" target="_top" xlink:title=" ">
<polygon fill="white" stroke="#666666" points="243.5,-100 139.75,-100 139.75,-68 243.5,-68 243.5,-100"/>
<text xml:space="preserve" text-anchor="start" x="147.75" y="-86.5" font-family="Helvetica,sans-Serif" font-size="10.00">pugi::xml_document</text>
<text xml:space="preserve" text-anchor="middle" x="191.62" y="-74.5" font-family="Helvetica,sans-Serif" font-size="10.00">::reset</text>
</a>
</g>
</g>
<!-- Node1&#45;&gt;Node2 -->
<g id="edge1_Node000001_Node000002" class="edge">
<title>Node1&#45;&gt;Node2</title>
<g id="a_edge1_Node000001_Node000002"><a xlink:title=" ">
<path fill="none" stroke="#63b8ff" d="M104.17,-62.66C112.06,-64.61 120.27,-66.64 128.37,-68.63"/>
<polygon fill="#63b8ff" stroke="#63b8ff" points="127.27,-71.97 137.82,-70.97 128.95,-65.17 127.27,-71.97"/>
</a>
</g>
</g>
<!-- Node5 -->
<g id="Node000005" class="node">
<title>Node5</title>
<g id="a_Node000005"><a xlink:href="classpugi_1_1xml__document.html#a518e0f2e1919b6cb1003b7dec1012ed9" target="_top" xlink:title=" ">
<polygon fill="white" stroke="#666666" points="243.5,-32 139.75,-32 139.75,0 243.5,0 243.5,-32"/>
<text xml:space="preserve" text-anchor="start" x="147.75" y="-18.5" font-family="Helvetica,sans-Serif" font-size="10.00">pugi::xml_document</text>
<text xml:space="preserve" text-anchor="middle" x="191.62" y="-6.5" font-family="Helvetica,sans-Serif" font-size="10.00">::xml_document</text>
</a>
</g>
</g>
<!-- Node1&#45;&gt;Node5 -->
<g id="edge4_Node000001_Node000005" class="edge">
<title>Node1&#45;&gt;Node5</title>
<g id="a_edge4_Node000001_Node000005"><a xlink:title=" ">
<path fill="none" stroke="#63b8ff" d="M104.17,-37.34C112.06,-35.39 120.27,-33.36 128.37,-31.37"/>
<polygon fill="#63b8ff" stroke="#63b8ff" points="128.95,-34.83 137.82,-29.03 127.27,-28.03 128.95,-34.83"/>
</a>
</g>
</g>
<!-- Node3 -->
<g id="Node000003" class="node">
<title>Node3</title>
<g id="a_Node000003"><a xlink:href="classpugi_1_1xml__document.html#abe0c208ff54097055a572f0a7fe40a94" target="_top" xlink:title=" ">
<polygon fill="white" stroke="#666666" points="383.25,-125 279.5,-125 279.5,-93 383.25,-93 383.25,-125"/>
<text xml:space="preserve" text-anchor="start" x="287.5" y="-111.5" font-family="Helvetica,sans-Serif" font-size="10.00">pugi::xml_document</text>
<text xml:space="preserve" text-anchor="middle" x="331.38" y="-99.5" font-family="Helvetica,sans-Serif" font-size="10.00">::_create</text>
</a>
</g>
</g>
<!-- Node2&#45;&gt;Node3 -->
<g id="edge2_Node000002_Node000003" class="edge">
<title>Node2&#45;&gt;Node3</title>
<g id="a_edge2_Node000002_Node000003"><a xlink:title=" ">
<path fill="none" stroke="#63b8ff" d="M243.92,-93.31C251.72,-94.72 259.84,-96.2 267.84,-97.65"/>
<polygon fill="#63b8ff" stroke="#63b8ff" points="267.09,-101.07 277.55,-99.41 268.34,-94.18 267.09,-101.07"/>
</a>
</g>
</g>
<!-- Node4 -->
<g id="Node000004" class="node">
<title>Node4</title>
<g id="a_Node000004"><a xlink:href="classpugi_1_1xml__document.html#ae622fdaff0407d22288f36194f9b0cbe" target="_top" xlink:title=" ">
<polygon fill="white" stroke="#666666" points="383.25,-75 279.5,-75 279.5,-43 383.25,-43 383.25,-75"/>
<text xml:space="preserve" text-anchor="start" x="287.5" y="-61.5" font-family="Helvetica,sans-Serif" font-size="10.00">pugi::xml_document</text>
<text xml:space="preserve" text-anchor="middle" x="331.38" y="-49.5" font-family="Helvetica,sans-Serif" font-size="10.00">::_destroy</text>
</a>
</g>
</g>
<!-- Node2&#45;&gt;Node4 -->
<g id="edge3_Node000002_Node000004" class="edge">
<title>Node2&#45;&gt;Node4</title>
<g id="a_edge3_Node000002_Node000004"><a xlink:title=" ">
<path fill="none" stroke="#63b8ff" d="M243.92,-74.69C251.72,-73.28 259.84,-71.8 267.84,-70.35"/>
<polygon fill="#63b8ff" stroke="#63b8ff" points="268.34,-73.82 277.55,-68.59 267.09,-66.93 268.34,-73.82"/>
</a>
</g>
</g>
<!-- Node5&#45;&gt;Node5 -->
<g id="edge5_Node000005_Node000005" class="edge">
<title>Node5&#45;&gt;Node5</title>
<g id="a_edge5_Node000005_Node000005"><a xlink:title=" ">
<path fill="none" stroke="#63b8ff" d="M166.68,-32.44C162.02,-41.58 170.33,-50 191.62,-50 203.27,-50 211.03,-47.48 214.91,-43.71"/>
<polygon fill="#63b8ff" stroke="#63b8ff" points="218.36,-44.34 216.35,-33.94 211.43,-43.32 218.36,-44.34"/>
</a>
</g>
</g>
</g>
</svg>
