<?xml version="1.0" encoding="UTF-8" standalone="no"?>
<!DOCTYPE svg PUBLIC "-//W3C//DTD SVG 1.1//EN"
 "http://www.w3.org/Graphics/SVG/1.1/DTD/svg11.dtd">
<!-- Generated by graphviz version 14.1.2 (20260124.0452)
 -->
<!-- Title: pugi::xml_tree_walker::end Pages: 1 -->
<svg width="448pt" height="56pt"
 viewBox="0.00 0.00 448.00 56.00" xmlns="http://www.w3.org/2000/svg" xmlns:xlink="http://www.w3.org/1999/xlink">
<g id="graph0" class="graph" transform="scale(1 1) rotate(0) translate(4 52)">
<title>pugi::xml_tree_walker::end</title>
<!-- Node1 -->
<g id="Node000001" class="node">
<title>Node1</title>
<g id="a_Node000001"><a xlink:title=" ">
<polygon fill="#999999" stroke="#666666" points="439.5,-20 306.5,-20 306.5,0 439.5,0 439.5,-20"/>
<text xml:space="preserve" text-anchor="middle" x="373" y="-6.5" font-family="Helvetica,sans-Serif" font-size="10.00">pugi::xml_tree_walker::end</text>
</a>
</g>
</g>
<!-- Node2 -->
<g id="Node000002" class="node">
<title>Node2</title>
<g id="a_Node000002"><a xlink:href="classpugi_1_1xml__tree__walker.html#a309363c9d17ef3fc8cacc6f71fcbea88" target="_top" xlink:title=" ">
<polygon fill="white" stroke="#666666" points="270.5,-48 159.25,-48 159.25,-16 270.5,-16 270.5,-48"/>
<text xml:space="preserve" text-anchor="start" x="167.25" y="-34.5" font-family="Helvetica,sans-Serif" font-size="10.00">pugi::xml_tree_walker</text>
<text xml:space="preserve" text-anchor="middle" x="214.88" y="-22.5" font-family="Helvetica,sans-Serif" font-size="10.00">::for_each</text>
</a>
</g>
</g>
<!-- Node1&#45;&gt;Node2 -->
<g id="edge1_Node000001_Node000002" class="edge">
<title>Node1&#45;&gt;Node2</title>
<g id="a_edge1_Node000001_Node000002"><a xlink:title=" ">
<path fill="none" stroke="#63b8ff" d="M295.07,-20.84C286.84,-22 278.6,-23.16 270.7,-24.27"/>
<polygon fill="#63b8ff" stroke="#63b8ff" points="295.33,-24.34 304.74,-19.48 294.35,-17.41 295.33,-24.34"/>
</a>
</g>
</g>
<!-- Node3 -->
<g id="Node000003" class="node">
<title>Node3</title>
<g id="a_Node000003"><a xlink:href="classpugi_1_1xml__node.html#a651059099765f6c35833b4e237a895de" target="_top" xlink:title=" ">
<polygon fill="white" stroke="#666666" points="123.25,-20 0,-20 0,0 123.25,0 123.25,-20"/>
<text xml:space="preserve" text-anchor="middle" x="61.62" y="-6.5" font-family="Helvetica,sans-Serif" font-size="10.00">pugi::xml_node::traverse</text>
</a>
</g>
</g>
<!-- Node1&#45;&gt;Node3 -->
<g id="edge3_Node000001_Node000003" class="edge">
<title>Node1&#45;&gt;Node3</title>
<g id="a_edge3_Node000001_Node000003"><a xlink:title=" ">
<path fill="none" stroke="#63b8ff" d="M294.71,-7.48C286.54,-7.28 278.35,-7.12 270.5,-7 221.06,-6.27 208.69,-6.23 159.25,-7 147.75,-7.18 135.49,-7.48 123.7,-7.82"/>
<polygon fill="#63b8ff" stroke="#63b8ff" points="294.61,-10.98 304.7,-7.73 294.79,-3.98 294.61,-10.98"/>
</a>
</g>
</g>
<!-- Node2&#45;&gt;Node3 -->
<g id="edge2_Node000002_Node000003" class="edge">
<title>Node2&#45;&gt;Node3</title>
<g id="a_edge2_Node000002_Node000003"><a xlink:title=" ">
<path fill="none" stroke="#63b8ff" d="M147.63,-22.36C139.61,-21.2 131.44,-20.01 123.5,-18.85"/>
<polygon fill="#63b8ff" stroke="#63b8ff" points="146.94,-25.8 157.34,-23.78 147.95,-18.87 146.94,-25.8"/>
</a>
</g>
</g>
</g>
</svg>
