<?xml version="1.0" encoding="UTF-8" standalone="no"?>
<!DOCTYPE svg PUBLIC "-//W3C//DTD SVG 1.1//EN"
 "http://www.w3.org/Graphics/SVG/1.1/DTD/svg11.dtd">
<!-- Generated by graphviz version 14.1.2 (20260124.0452)
 -->
<!-- Title: GECommandContext::GECommandContext Pages: 1 -->
<svg width="362pt" height="90pt"
 viewBox="0.00 0.00 362.00 90.00" xmlns="http://www.w3.org/2000/svg" xmlns:xlink="http://www.w3.org/1999/xlink">
<g id="graph0" class="graph" transform="scale(1 1) rotate(0) translate(4 86)">
<title>GECommandContext::GECommandContext</title>
<!-- Node1 -->
<g id="Node000001" class="node">
<title>Node1</title>
<g id="a_Node000001"><a xlink:title="Construye los buffers de comandos.">
<polygon fill="#999999" stroke="#666666" points="175,-57 0,-57 0,-25 175,-25 175,-57"/>
<text xml:space="preserve" text-anchor="start" x="8" y="-43.5" font-family="Helvetica,sans-Serif" font-size="10.00">GECommandContext::GECommand</text>
<text xml:space="preserve" text-anchor="middle" x="87.5" y="-31.5" font-family="Helvetica,sans-Serif" font-size="10.00">Context</text>
</a>
</g>
</g>
<!-- Node2 -->
<g id="Node000002" class="node">
<title>Node2</title>
<g id="a_Node000002"><a xlink:href="class_g_e_command_context.html#aa470192248eb31f617e4a364caed065b" target="_top" xlink:title="Crea los buffers de comandos que se enviarán a la cola gráfica.">
<polygon fill="white" stroke="#666666" points="353.75,-82 211,-82 211,-50 353.75,-50 353.75,-82"/>
<text xml:space="preserve" text-anchor="start" x="219" y="-68.5" font-family="Helvetica,sans-Serif" font-size="10.00">GECommandContext::create</text>
<text xml:space="preserve" text-anchor="middle" x="282.38" y="-56.5" font-family="Helvetica,sans-Serif" font-size="10.00">CommandBuffers</text>
</a>
</g>
</g>
<!-- Node1&#45;&gt;Node2 -->
<g id="edge1_Node000001_Node000002" class="edge">
<title>Node1&#45;&gt;Node2</title>
<g id="a_edge1_Node000001_Node000002"><a xlink:title=" ">
<path fill="none" stroke="#63b8ff" d="M175.35,-52.26C183.36,-53.3 191.47,-54.35 199.45,-55.38"/>
<polygon fill="#63b8ff" stroke="#63b8ff" points="198.74,-58.82 209.1,-56.63 199.64,-51.88 198.74,-58.82"/>
</a>
</g>
</g>
<!-- Node3 -->
<g id="Node000003" class="node">
<title>Node3</title>
<g id="a_Node000003"><a xlink:href="class_g_e_command_context.html#af81206d0958cc4e98efe3df5d9bcf6d4" target="_top" xlink:title="Crea el command pool vinculado a la familia de colas para gráficos.">
<polygon fill="white" stroke="#666666" points="353.75,-32 211,-32 211,0 353.75,0 353.75,-32"/>
<text xml:space="preserve" text-anchor="start" x="219" y="-18.5" font-family="Helvetica,sans-Serif" font-size="10.00">GECommandContext::create</text>
<text xml:space="preserve" text-anchor="middle" x="282.38" y="-6.5" font-family="Helvetica,sans-Serif" font-size="10.00">CommandPool</text>
</a>
</g>
</g>
<!-- Node1&#45;&gt;Node3 -->
<g id="edge2_Node000001_Node000003" class="edge">
<title>Node1&#45;&gt;Node3</title>
<g id="a_edge2_Node000001_Node000003"><a xlink:title=" ">
<path fill="none" stroke="#63b8ff" d="M175.35,-29.74C183.36,-28.7 191.47,-27.65 199.45,-26.62"/>
<polygon fill="#63b8ff" stroke="#63b8ff" points="199.64,-30.12 209.1,-25.37 198.74,-23.18 199.64,-30.12"/>
</a>
</g>
</g>
</g>
</svg>
