<?xml version="1.0" encoding="UTF-8" standalone="no"?>
<!DOCTYPE svg PUBLIC "-//W3C//DTD SVG 1.1//EN"
 "http://www.w3.org/Graphics/SVG/1.1/DTD/svg11.dtd">
<!-- Generated by graphviz version 14.1.2 (20260124.0452)
 -->
<!-- Title: pugi::xml_node::append_copy Pages: 1 -->
<svg width="320pt" height="66pt"
 viewBox="0.00 0.00 320.00 66.00" xmlns="http://www.w3.org/2000/svg" xmlns:xlink="http://www.w3.org/1999/xlink">
<g id="graph0" class="graph" transform="scale(1 1) rotate(0) translate(4 62)">
<title>pugi::xml_node::append_copy</title>
<!-- Node1 -->
<g id="Node000001" class="node">
<title>Node1</title>
<g id="a_Node000001"><a xlink:title=" ">
<polygon fill="#999999" stroke="#666666" points="145.75,-39 0,-39 0,-19 145.75,-19 145.75,-39"/>
<text xml:space="preserve" text-anchor="middle" x="72.88" y="-25.5" font-family="Helvetica,sans-Serif" font-size="10.00">pugi::xml_node::append_copy</text>
</a>
</g>
</g>
<!-- Node2 -->
<g id="Node000002" class="node">
<title>Node2</title>
<g id="a_Node000002"><a xlink:href="classpugi_1_1xml__node.html#aa018a135915ec8b2e3388feab2a78cfe" target="_top" xlink:title=" ">
<polygon fill="white" stroke="#666666" points="300.12,-58 193.38,-58 193.38,-38 300.12,-38 300.12,-58"/>
<text xml:space="preserve" text-anchor="middle" x="246.75" y="-44.5" font-family="Helvetica,sans-Serif" font-size="10.00">pugi::xml_node::type</text>
</a>
</g>
</g>
<!-- Node1&#45;&gt;Node2 -->
<g id="edge1_Node000001_Node000002" class="edge">
<title>Node1&#45;&gt;Node2</title>
<g id="a_edge1_Node000001_Node000002"><a xlink:title=" ">
<path fill="none" stroke="#63b8ff" d="M145.77,-36.95C157.64,-38.26 169.87,-39.61 181.53,-40.9"/>
<polygon fill="#63b8ff" stroke="#63b8ff" points="181.14,-44.38 191.47,-42 181.91,-37.42 181.14,-44.38"/>
</a>
</g>
</g>
<!-- Node3 -->
<g id="Node000003" class="node">
<title>Node3</title>
<g id="a_Node000003"><a xlink:href="classpugi_1_1xml__node.html#a4641476ddd4869da18f0738186b17368" target="_top" xlink:title=" ">
<polygon fill="white" stroke="#666666" points="311.75,-20 181.75,-20 181.75,0 311.75,0 311.75,-20"/>
<text xml:space="preserve" text-anchor="middle" x="246.75" y="-6.5" font-family="Helvetica,sans-Serif" font-size="10.00">pugi::xml_node::xml_node</text>
</a>
</g>
</g>
<!-- Node1&#45;&gt;Node3 -->
<g id="edge2_Node000001_Node000003" class="edge">
<title>Node1&#45;&gt;Node3</title>
<g id="a_edge2_Node000001_Node000003"><a xlink:title=" ">
<path fill="none" stroke="#63b8ff" d="M145.77,-21.05C153.77,-20.17 161.94,-19.26 169.99,-18.37"/>
<polygon fill="#63b8ff" stroke="#63b8ff" points="170.2,-21.87 179.76,-17.3 169.43,-14.92 170.2,-21.87"/>
</a>
</g>
</g>
</g>
</svg>
