<?xml version="1.0" encoding="UTF-8" standalone="no"?>
<!DOCTYPE svg PUBLIC "-//W3C//DTD SVG 1.1//EN"
 "http://www.w3.org/Graphics/SVG/1.1/DTD/svg11.dtd">
<!-- Generated by graphviz version 14.1.2 (20260124.0452)
 -->
<!-- Title: GEScene::GEScene Pages: 1 -->
<svg width="478pt" height="192pt"
 viewBox="0.00 0.00 478.00 192.00" xmlns="http://www.w3.org/2000/svg" xmlns:xlink="http://www.w3.org/1999/xlink">

<svg id="main" version="1.1" xmlns="http://www.w3.org/2000/svg" xmlns:xlink="http://www.w3.org/1999/xlink" xml:space="preserve">

<style type="text/css"><![CDATA[
.node, .edge {opacity: 0.7;}
.node.selected, .edge.selected {opacity: 1;}
.edge:hover path { stroke: red; }
.edge:hover polygon { stroke: red; fill: red; }
]]></style>
<script type="application/ecmascript" xlink:href="svg.min.js"/>
<svg id="graph" class="graph">
<g id="graph0" class="graph" transform="scale(1 1) rotate(0) translate(4 188)">
<title>GEScene::GEScene</title>
<!-- Node1 -->
<g id="Node000001" class="node">
<title>Node1</title>
<g id="a_Node000001"><a xlink:title="Construye la escena y crea los objetos gráficos.">
<polygon fill="#999999" stroke="#666666" points="106,-96 0,-96 0,-76 106,-76 106,-96"/>
<text xml:space="preserve" text-anchor="middle" x="53" y="-82.5" font-family="Helvetica,sans-Serif" font-size="10.00">GEScene::GEScene</text>
</a>
</g>
</g>
<!-- Node2 -->
<g id="Node000002" class="node">
<title>Node2</title>
<g id="a_Node000002"><a xlink:href="class_g_e_scene.html#a7abdf2f4f0f03b4c093e0d4183753c76" target="_top" xlink:title="Ajusta la relación de aspecto y la matriz de proyección.">
<polygon fill="white" stroke="#666666" points="277.62,-184 160.38,-184 160.38,-164 277.62,-164 277.62,-184"/>
<text xml:space="preserve" text-anchor="middle" x="219" y="-170.5" font-family="Helvetica,sans-Serif" font-size="10.00">GEScene::aspect_ratio</text>
</a>
</g>
</g>
<!-- Node1&#45;&gt;Node2 -->
<g id="edge1_Node000001_Node000002" class="edge">
<title>Node1&#45;&gt;Node2</title>
<g id="a_edge1_Node000001_Node000002"><a xlink:title=" ">
<path fill="none" stroke="#63b8ff" d="M64.11,-96.32C79.51,-111.46 110.43,-139.56 142,-155 145.7,-156.81 149.59,-158.46 153.57,-159.96"/>
<polygon fill="#63b8ff" stroke="#63b8ff" points="152.22,-163.2 162.82,-163.1 154.47,-156.57 152.22,-163.2"/>
</a>
</g>
</g>
<!-- Node3 -->
<g id="Node000003" class="node">
<title>Node3</title>
<g id="a_Node000003"><a xlink:href="class_g_e_scene.html#aebca9f0f770129e8aa2df69a4fa80e63" target="_top" xlink:title="Crea la animación de tiro libre.">
<polygon fill="white" stroke="#666666" points="287.38,-146 150.62,-146 150.62,-114 287.38,-114 287.38,-146"/>
<text xml:space="preserve" text-anchor="start" x="158.62" y="-132.5" font-family="Helvetica,sans-Serif" font-size="10.00">GEScene::createBasketball</text>
<text xml:space="preserve" text-anchor="middle" x="219" y="-120.5" font-family="Helvetica,sans-Serif" font-size="10.00">ThrowAnimation</text>
</a>
</g>
</g>
<!-- Node1&#45;&gt;Node3 -->
<g id="edge2_Node000001_Node000003" class="edge">
<title>Node1&#45;&gt;Node3</title>
<g id="a_edge2_Node000001_Node000003"><a xlink:title=" ">
<path fill="none" stroke="#63b8ff" d="M92.87,-96.43C108.71,-100.68 127.55,-105.73 145.74,-110.61"/>
<polygon fill="#63b8ff" stroke="#63b8ff" points="144.63,-113.94 155.19,-113.15 146.44,-107.18 144.63,-113.94"/>
</a>
</g>
</g>
<!-- Node5 -->
<g id="Node000005" class="node">
<title>Node5</title>
<g id="a_Node000005"><a xlink:href="class_g_e_scene.html#a233af529c8992d40f8b3a3eb134cf90a" target="_top" xlink:title="Obtiene la configuración del pipeline para un extent dado.">
<polygon fill="white" stroke="#666666" points="296,-96 142,-96 142,-76 296,-76 296,-96"/>
<text xml:space="preserve" text-anchor="middle" x="219" y="-82.5" font-family="Helvetica,sans-Serif" font-size="10.00">GEScene::createPipelineConfig</text>
</a>
</g>
</g>
<!-- Node1&#45;&gt;Node5 -->
<g id="edge4_Node000001_Node000005" class="edge">
<title>Node1&#45;&gt;Node5</title>
<g id="a_edge4_Node000001_Node000005"><a xlink:title=" ">
<path fill="none" stroke="#63b8ff" d="M106.34,-86C113.99,-86 122.03,-86 130.15,-86"/>
<polygon fill="#63b8ff" stroke="#63b8ff" points="130.14,-89.5 140.14,-86 130.14,-82.5 130.14,-89.5"/>
</a>
</g>
</g>
<!-- Node6 -->
<g id="Node000006" class="node">
<title>Node6</title>
<g id="a_Node000006"><a xlink:href="class_g_e_scene.html#ad78bdafb113e91237b67ad7119ed4252" target="_top" xlink:title="Rellena los buffers de comandos para el renderizado.">
<polygon fill="white" stroke="#666666" points="293.75,-58 144.25,-58 144.25,-38 293.75,-38 293.75,-58"/>
<text xml:space="preserve" text-anchor="middle" x="219" y="-44.5" font-family="Helvetica,sans-Serif" font-size="10.00">GEScene::fillCommandBuffers</text>
</a>
</g>
</g>
<!-- Node1&#45;&gt;Node6 -->
<g id="edge5_Node000001_Node000006" class="edge">
<title>Node1&#45;&gt;Node6</title>
<g id="a_edge5_Node000001_Node000006"><a xlink:title=" ">
<path fill="none" stroke="#63b8ff" d="M99.25,-75.52C118.61,-71.03 141.41,-65.75 161.84,-61.01"/>
<polygon fill="#63b8ff" stroke="#63b8ff" points="162.47,-64.46 171.43,-58.79 160.89,-57.64 162.47,-64.46"/>
</a>
</g>
</g>
<!-- Node7 -->
<g id="Node000007" class="node">
<title>Node7</title>
<g id="a_Node000007"><a xlink:href="class_g_e_drawing_context.html#aadd6a6e9fe0b128b7559c1066a94f153" target="_top" xlink:title="Obtiene la extensión de la imagen.">
<polygon fill="white" stroke="#666666" points="293.38,-20 144.62,-20 144.62,0 293.38,0 293.38,-20"/>
<text xml:space="preserve" text-anchor="middle" x="219" y="-6.5" font-family="Helvetica,sans-Serif" font-size="10.00">GEDrawingContext::getExtent</text>
</a>
</g>
</g>
<!-- Node1&#45;&gt;Node7 -->
<g id="edge6_Node000001_Node000007" class="edge">
<title>Node1&#45;&gt;Node7</title>
<g id="a_edge6_Node000001_Node000007"><a xlink:title=" ">
<path fill="none" stroke="#63b8ff" d="M66.93,-75.65C83.43,-62.92 113.28,-41.48 142,-29 146.35,-27.11 150.93,-25.38 155.58,-23.81"/>
<polygon fill="#63b8ff" stroke="#63b8ff" points="156.58,-27.16 165.09,-20.86 154.5,-20.48 156.58,-27.16"/>
</a>
</g>
</g>
<!-- Node4 -->
<g id="Node000004" class="node">
<title>Node4</title>
<g id="a_Node000004"><a xlink:href="class_g_e_animation.html#aeec10aedbf6934c9609ad80bd5fca009" target="_top" xlink:title="Añade un keyframe a la animación.">
<polygon fill="white" stroke="#666666" points="469.5,-140 332,-140 332,-120 469.5,-120 469.5,-140"/>
<text xml:space="preserve" text-anchor="middle" x="400.75" y="-126.5" font-family="Helvetica,sans-Serif" font-size="10.00">GEAnimation::addKeyframe</text>
</a>
</g>
</g>
<!-- Node3&#45;&gt;Node4 -->
<g id="edge3_Node000003_Node000004" class="edge">
<title>Node3&#45;&gt;Node4</title>
<g id="a_edge3_Node000003_Node000004"><a xlink:title=" ">
<path fill="none" stroke="#63b8ff" d="M287.7,-130C298.34,-130 309.41,-130 320.29,-130"/>
<polygon fill="#63b8ff" stroke="#63b8ff" points="320,-133.5 330,-130 320,-126.5 320,-133.5"/>
</a>
</g>
</g>
</g>
</svg>
</svg>

<style type='text/css'>
<![CDATA[
[data-mouse-over-selected='false'] { opacity: 0.7; }
[data-mouse-over-selected='true']  { opacity: 1.0; }
]]>
</style>
<script type="application/ecmascript"><![CDATA[
document.addEventListener('DOMContentLoaded', (event) => {
  highlightEdges();
  highlightAdjacentNodes();
});
]]></script>
</svg>
