<?xml version="1.0" encoding="UTF-8" standalone="no"?>
<!DOCTYPE svg PUBLIC "-//W3C//DTD SVG 1.1//EN"
 "http://www.w3.org/Graphics/SVG/1.1/DTD/svg11.dtd">
<!-- Generated by graphviz version 14.1.2 (20260124.0452)
 -->
<!-- Title: pugi::xml_text::operator= Pages: 1 -->
<svg width="618pt" height="94pt"
 viewBox="0.00 0.00 618.00 94.00" xmlns="http://www.w3.org/2000/svg" xmlns:xlink="http://www.w3.org/1999/xlink">
<g id="graph0" class="graph" transform="scale(1 1) rotate(0) translate(4 90)">
<title>pugi::xml_text::operator=</title>
<!-- Node1 -->
<g id="Node000001" class="node">
<title>Node1</title>
<g id="a_Node000001"><a xlink:title=" ">
<polygon fill="#999999" stroke="#666666" points="124.75,-39 0,-39 0,-19 124.75,-19 124.75,-39"/>
<text xml:space="preserve" text-anchor="middle" x="62.38" y="-25.5" font-family="Helvetica,sans-Serif" font-size="10.00">pugi::xml_text::operator=</text>
</a>
</g>
</g>
<!-- Node2 -->
<g id="Node000002" class="node">
<title>Node2</title>
<g id="a_Node000002"><a xlink:href="classpugi_1_1xml__text.html#a902acc65b6ed883af8540293ea2a5b36" target="_top" xlink:title=" ">
<polygon fill="white" stroke="#666666" points="269.75,-58 172.75,-58 172.75,-38 269.75,-38 269.75,-58"/>
<text xml:space="preserve" text-anchor="middle" x="221.25" y="-44.5" font-family="Helvetica,sans-Serif" font-size="10.00">pugi::xml_text::set</text>
</a>
</g>
</g>
<!-- Node1&#45;&gt;Node2 -->
<g id="edge1_Node000001_Node000002" class="edge">
<title>Node1&#45;&gt;Node2</title>
<g id="a_edge1_Node000001_Node000002"><a xlink:title=" ">
<path fill="none" stroke="#63b8ff" d="M124.93,-36.45C136.9,-37.9 149.41,-39.42 161.3,-40.86"/>
<polygon fill="#63b8ff" stroke="#63b8ff" points="160.61,-44.3 170.95,-42.03 161.45,-37.35 160.61,-44.3"/>
</a>
</g>
</g>
<!-- Node6 -->
<g id="Node000006" class="node">
<title>Node6</title>
<g id="a_Node000006"><a xlink:href="classpugi_1_1xml__text.html#ab91edc3ec8e293e138ed62aa4a04f779" target="_top" xlink:title=" ">
<polygon fill="white" stroke="#666666" points="281.75,-20 160.75,-20 160.75,0 281.75,0 281.75,-20"/>
<text xml:space="preserve" text-anchor="middle" x="221.25" y="-6.5" font-family="Helvetica,sans-Serif" font-size="10.00">pugi::xml_text::xml_text</text>
</a>
</g>
</g>
<!-- Node1&#45;&gt;Node6 -->
<g id="edge6_Node000001_Node000006" class="edge">
<title>Node1&#45;&gt;Node6</title>
<g id="a_edge6_Node000001_Node000006"><a xlink:title=" ">
<path fill="none" stroke="#63b8ff" d="M124.93,-21.55C132.86,-20.58 141.04,-19.59 149.11,-18.62"/>
<polygon fill="#63b8ff" stroke="#63b8ff" points="149.41,-22.11 158.92,-17.43 148.57,-15.16 149.41,-22.11"/>
</a>
</g>
</g>
<!-- Node3 -->
<g id="Node000003" class="node">
<title>Node3</title>
<g id="a_Node000003"><a xlink:href="classpugi_1_1xml__text.html#a2ad78284a3210c085baa5ca31fe57cf8" target="_top" xlink:title=" ">
<polygon fill="white" stroke="#666666" points="448.5,-58 317.75,-58 317.75,-38 448.5,-38 448.5,-58"/>
<text xml:space="preserve" text-anchor="middle" x="383.12" y="-44.5" font-family="Helvetica,sans-Serif" font-size="10.00">pugi::xml_text::_data_new</text>
</a>
</g>
</g>
<!-- Node2&#45;&gt;Node3 -->
<g id="edge2_Node000002_Node000003" class="edge">
<title>Node2&#45;&gt;Node3</title>
<g id="a_edge2_Node000002_Node000003"><a xlink:title=" ">
<path fill="none" stroke="#63b8ff" d="M270.22,-48C281.56,-48 293.92,-48 306.16,-48"/>
<polygon fill="#63b8ff" stroke="#63b8ff" points="305.82,-51.5 315.82,-48 305.82,-44.5 305.82,-51.5"/>
</a>
</g>
</g>
<!-- Node4 -->
<g id="Node000004" class="node">
<title>Node4</title>
<g id="a_Node000004"><a xlink:href="classpugi_1_1xml__text.html#a481e1b21c74e7a556383e7e060f25ff3" target="_top" xlink:title=" ">
<polygon fill="white" stroke="#666666" points="601,-86 493.5,-86 493.5,-66 601,-66 601,-86"/>
<text xml:space="preserve" text-anchor="middle" x="547.25" y="-72.5" font-family="Helvetica,sans-Serif" font-size="10.00">pugi::xml_text::_data</text>
</a>
</g>
</g>
<!-- Node3&#45;&gt;Node4 -->
<g id="edge3_Node000003_Node000004" class="edge">
<title>Node3&#45;&gt;Node4</title>
<g id="a_edge3_Node000003_Node000004"><a xlink:title=" ">
<path fill="none" stroke="#63b8ff" d="M444.49,-58.43C456.69,-60.53 469.57,-62.76 481.9,-64.89"/>
<polygon fill="#63b8ff" stroke="#63b8ff" points="481.09,-68.3 491.54,-66.55 482.28,-61.4 481.09,-68.3"/>
</a>
</g>
</g>
<!-- Node5 -->
<g id="Node000005" class="node">
<title>Node5</title>
<g id="a_Node000005"><a xlink:href="classpugi_1_1xml__text.html#a156d917a92815c7b593bd5ef19f6d5fb" target="_top" xlink:title=" ">
<polygon fill="white" stroke="#666666" points="610,-30 484.5,-30 484.5,-10 610,-10 610,-30"/>
<text xml:space="preserve" text-anchor="middle" x="547.25" y="-16.5" font-family="Helvetica,sans-Serif" font-size="10.00">pugi::xml_text::xml_node</text>
</a>
</g>
</g>
<!-- Node3&#45;&gt;Node5 -->
<g id="edge4_Node000003_Node000005" class="edge">
<title>Node3&#45;&gt;Node5</title>
<g id="a_edge4_Node000003_Node000005"><a xlink:title=" ">
<path fill="none" stroke="#63b8ff" d="M444.49,-37.57C454.24,-35.89 464.41,-34.13 474.4,-32.41"/>
<polygon fill="#63b8ff" stroke="#63b8ff" points="474.81,-35.89 484.07,-30.74 473.62,-28.99 474.81,-35.89"/>
</a>
</g>
</g>
<!-- Node5&#45;&gt;Node5 -->
<g id="edge5_Node000005_Node000005" class="edge">
<title>Node5&#45;&gt;Node5</title>
<g id="a_edge5_Node000005_Node000005"><a xlink:title=" ">
<path fill="none" stroke="#63b8ff" d="M521.17,-30.34C510.03,-38.98 518.72,-48 547.25,-48 562.85,-48 572.52,-45.3 576.26,-41.44"/>
<polygon fill="#63b8ff" stroke="#63b8ff" points="579.65,-40.58 573.71,-31.8 572.88,-42.36 579.65,-40.58"/>
</a>
</g>
</g>
</g>
</svg>
