<?xml version="1.0" encoding="UTF-8" standalone="no"?>
<!DOCTYPE svg PUBLIC "-//W3C//DTD SVG 1.1//EN"
 "http://www.w3.org/Graphics/SVG/1.1/DTD/svg11.dtd">
<!-- Generated by graphviz version 14.1.2 (20260124.0452)
 -->
<!-- Title: xpath_string::data Pages: 1 -->
<svg width="500pt" height="85pt"
 viewBox="0.00 0.00 500.00 85.00" xmlns="http://www.w3.org/2000/svg" xmlns:xlink="http://www.w3.org/1999/xlink">

<svg id="main" version="1.1" xmlns="http://www.w3.org/2000/svg" xmlns:xlink="http://www.w3.org/1999/xlink" xml:space="preserve">

<style type="text/css"><![CDATA[
.node, .edge {opacity: 0.7;}
.node.selected, .edge.selected {opacity: 1;}
.edge:hover path { stroke: red; }
.edge:hover polygon { stroke: red; fill: red; }
]]></style>
<script type="application/ecmascript" xlink:href="svg.min.js"/>
<svg id="graph" class="graph">
<g id="graph0" class="graph" transform="scale(1 1) rotate(0) translate(4 81)">
<title>xpath_string::data</title>
<!-- Node1 -->
<g id="Node000001" class="node">
<title>Node1</title>
<g id="a_Node000001"><a xlink:title=" ">
<polygon fill="#999999" stroke="#666666" points="94,-23 0,-23 0,-3 94,-3 94,-23"/>
<text xml:space="preserve" text-anchor="middle" x="47" y="-9.5" font-family="Helvetica,sans-Serif" font-size="10.00">xpath_string::data</text>
</a>
</g>
</g>
<!-- Node2 -->
<g id="Node000002" class="node">
<title>Node2</title>
<g id="a_Node000002"><a xlink:href="classxpath__string.html#af3866c73a21542e26032d5d052327cc1" target="_top" xlink:title=" ">
<polygon fill="white" stroke="#666666" points="244.25,-51 130,-51 130,-19 244.25,-19 244.25,-51"/>
<text xml:space="preserve" text-anchor="start" x="138" y="-37.5" font-family="Helvetica,sans-Serif" font-size="10.00">xpath_string::duplicate</text>
<text xml:space="preserve" text-anchor="middle" x="187.12" y="-25.5" font-family="Helvetica,sans-Serif" font-size="10.00">_string</text>
</a>
</g>
</g>
<!-- Node1&#45;&gt;Node2 -->
<g id="edge1_Node000001_Node000002" class="edge">
<title>Node1&#45;&gt;Node2</title>
<g id="a_edge1_Node000001_Node000002"><a xlink:title=" ">
<path fill="none" stroke="#63b8ff" d="M94.38,-20.39C102.05,-21.61 110.14,-22.9 118.21,-24.18"/>
<polygon fill="#63b8ff" stroke="#63b8ff" points="117.64,-27.64 128.06,-25.75 118.74,-20.72 117.64,-27.64"/>
</a>
</g>
</g>
<!-- Node5 -->
<g id="Node000005" class="node">
<title>Node5</title>
<g id="a_Node000005"><a xlink:href="pugixml_8cpp.html#a775f7b78d2f13c1b72d69b114599461d" target="_top" xlink:title=" ">
<polygon fill="white" stroke="#666666" points="491.5,-20 438,-20 438,0 491.5,0 491.5,-20"/>
<text xml:space="preserve" text-anchor="middle" x="464.75" y="-6.5" font-family="Helvetica,sans-Serif" font-size="10.00">strlength</text>
</a>
</g>
</g>
<!-- Node1&#45;&gt;Node5 -->
<g id="edge5_Node000001_Node000005" class="edge">
<title>Node1&#45;&gt;Node5</title>
<g id="a_edge5_Node000001_Node000005"><a xlink:title=" ">
<path fill="none" stroke="#63b8ff" d="M94.39,-11.01C106.02,-10.59 118.46,-10.21 130,-10 237.54,-8.03 364.6,-8.92 426.33,-9.55"/>
<polygon fill="#63b8ff" stroke="#63b8ff" points="426.23,-13.05 436.27,-9.66 426.31,-6.05 426.23,-13.05"/>
</a>
</g>
</g>
<!-- Node3 -->
<g id="Node000003" class="node">
<title>Node3</title>
<g id="a_Node000003"><a xlink:href="structxpath__allocator.html#a6c13fefbd7038d78b336987f396c8415" target="_top" xlink:title=" ">
<polygon fill="white" stroke="#666666" points="402,-77 280.25,-77 280.25,-57 402,-57 402,-77"/>
<text xml:space="preserve" text-anchor="middle" x="341.12" y="-63.5" font-family="Helvetica,sans-Serif" font-size="10.00">xpath_allocator::allocate</text>
</a>
</g>
</g>
<!-- Node2&#45;&gt;Node3 -->
<g id="edge2_Node000002_Node000003" class="edge">
<title>Node2&#45;&gt;Node3</title>
<g id="a_edge2_Node000002_Node000003"><a xlink:title=" ">
<path fill="none" stroke="#63b8ff" d="M244.72,-46.92C255.99,-49.29 267.87,-51.79 279.27,-54.19"/>
<polygon fill="#63b8ff" stroke="#63b8ff" points="278.49,-57.6 289,-56.24 279.93,-50.75 278.49,-57.6"/>
</a>
</g>
</g>
<!-- Node4 -->
<g id="Node000004" class="node">
<title>Node4</title>
<g id="a_Node000004"><a xlink:href="classxpath__string.html#a8469bd7512df66adabd3f5144c4b2ef7" target="_top" xlink:title=" ">
<polygon fill="white" stroke="#666666" points="391.88,-39 290.38,-39 290.38,-19 391.88,-19 391.88,-39"/>
<text xml:space="preserve" text-anchor="middle" x="341.12" y="-25.5" font-family="Helvetica,sans-Serif" font-size="10.00">xpath_string::length</text>
</a>
</g>
</g>
<!-- Node2&#45;&gt;Node4 -->
<g id="edge3_Node000002_Node000004" class="edge">
<title>Node2&#45;&gt;Node4</title>
<g id="a_edge3_Node000002_Node000004"><a xlink:title=" ">
<path fill="none" stroke="#63b8ff" d="M244.72,-32.77C255.75,-32.33 267.36,-31.87 278.54,-31.43"/>
<polygon fill="#63b8ff" stroke="#63b8ff" points="278.62,-34.93 288.47,-31.04 278.34,-27.94 278.62,-34.93"/>
</a>
</g>
</g>
<!-- Node4&#45;&gt;Node5 -->
<g id="edge4_Node000004_Node000005" class="edge">
<title>Node4&#45;&gt;Node5</title>
<g id="a_edge4_Node000004_Node000005"><a xlink:title=" ">
<path fill="none" stroke="#63b8ff" d="M392.3,-21.16C403.73,-19.38 415.69,-17.51 426.48,-15.82"/>
<polygon fill="#63b8ff" stroke="#63b8ff" points="426.81,-19.31 436.15,-14.31 425.73,-12.4 426.81,-19.31"/>
</a>
</g>
</g>
</g>
</svg>
</svg>

<style type='text/css'>
<![CDATA[
[data-mouse-over-selected='false'] { opacity: 0.7; }
[data-mouse-over-selected='true']  { opacity: 1.0; }
]]>
</style>
<script type="application/ecmascript"><![CDATA[
document.addEventListener('DOMContentLoaded', (event) => {
  highlightEdges();
  highlightAdjacentNodes();
});
]]></script>
</svg>
