<?xml version="1.0" encoding="UTF-8" standalone="no"?>
<!DOCTYPE svg PUBLIC "-//W3C//DTD SVG 1.1//EN"
 "http://www.w3.org/Graphics/SVG/1.1/DTD/svg11.dtd">
<!-- Generated by graphviz version 14.1.2 (20260124.0452)
 -->
<!-- Title: GESphere Pages: 1 -->
<!--zoomable 191 -->

<svg id="main" version="1.1" xmlns="http://www.w3.org/2000/svg" xmlns:xlink="http://www.w3.org/1999/xlink" xml:space="preserve" onload="init(evt)">

<style type="text/css"><![CDATA[
.node, .edge {opacity: 0.7;}
.node.selected, .edge.selected {opacity: 1;}
.edge:hover path { stroke: red; }
.edge:hover polygon { stroke: red; fill: red; }
]]></style>

<defs>
  <circle id="rim" cx="0" cy="0" r="7"/>
  <circle id="rim2" cx="0" cy="0" r="3.5"/>
  <g id="zoomPlus">
    <use xlink:href="#rim" fill="#404040"><set attributeName="fill" to="#808080" begin="zoomplus.mouseover" end="zoomplus.mouseout"/></use>
    <path d="M-4,0h8M0,-4v8" fill="none" stroke="white" stroke-width="1.5" pointer-events="none"/>
  </g>
  <g id="zoomMin">
    <use xlink:href="#rim" fill="#404040"><set attributeName="fill" to="#808080" begin="zoomminus.mouseover" end="zoomminus.mouseout"/></use>
    <path d="M-4,0h8" fill="none" stroke="white" stroke-width="1.5" pointer-events="none"/>
  </g>
  <g id="arrowUp" transform="translate(30 24)">
    <use xlink:href="#rim"/>
    <path pointer-events="none" fill="none" stroke="white" stroke-width="1.5" d="M0,-3.0v7 M-2.5,-0.5L0,-3.0L2.5,-0.5"/>
  </g>
  <g id="arrowRight" transform="rotate(90) translate(36 -43)">
    <use xlink:href="#rim"/>
    <path pointer-events="none" fill="none" stroke="white" stroke-width="1.5" d="M0,-3.0v7 M-2.5,-0.5L0,-3.0L2.5,-0.5"/>
  </g>
  <g id="arrowDown" transform="rotate(180) translate(-30 -48)">
    <use xlink:href="#rim"/>
    <path pointer-events="none" fill="none" stroke="white" stroke-width="1.5" d="M0,-3.0v7 M-2.5,-0.5L0,-3.0L2.5,-0.5"/>
  </g>
  <g id="arrowLeft" transform="rotate(270) translate(-36 17)">
    <use xlink:href="#rim"/>
    <path pointer-events="none" fill="none" stroke="white" stroke-width="1.5" d="M0,-3.0v7 M-2.5,-0.5L0,-3.0L2.5,-0.5"/>
  </g>
  <g id="resetDef">
    <use xlink:href="#rim2" fill="#404040"><set attributeName="fill" to="#808080" begin="reset.mouseover" end="reset.mouseout"/></use>
  </g>
</defs>
<script type="application/ecmascript">
var viewWidth = 558;
var viewHeight = 191;
var sectionId = 'dynsection-1';
</script>
<script type="application/ecmascript" xlink:href="svg.min.js"/>
<svg id="graph" class="graph">
<g id="viewport">
<title>GESphere</title>
<!-- Node1 -->
<g id="Node000001" class="node">
<title>Node1</title>
<g id="a_Node000001"><a xlink:title="Clase que describe una esfera.">
<polygon fill="#999999" stroke="#666666" points="273.88,-20 212.88,-20 212.88,0 273.88,0 273.88,-20"/>
<text xml:space="preserve" text-anchor="middle" x="243.38" y="-6.5" font-family="Helvetica,sans-Serif" font-size="10.00">GESphere</text>
</a>
</g>
</g>
<!-- Node2 -->
<g id="Node000002" class="node">
<title>Node2</title>
<g id="a_Node000002"><a xlink:href="class_g_e_figure.html" target="_top" xlink:title="Clase que describe una figura formada por una malla de vértices.">
<polygon fill="white" stroke="#666666" points="272,-77 214.75,-77 214.75,-57 272,-57 272,-77"/>
<text xml:space="preserve" text-anchor="middle" x="243.38" y="-63.5" font-family="Helvetica,sans-Serif" font-size="10.00">GEFigure</text>
</a>
</g>
</g>
<!-- Node2&#45;&gt;Node1 -->
<g id="edge1_Node000001_Node000002" class="edge">
<title>Node2&#45;&gt;Node1</title>
<g id="a_edge1_Node000001_Node000002"><a xlink:title=" ">
<path fill="none" stroke="#63b8ff" d="M243.38,-45.69C243.38,-36.97 243.38,-27.22 243.38,-20.28"/>
<polygon fill="#63b8ff" stroke="#63b8ff" points="239.88,-45.4 243.38,-55.4 246.88,-45.4 239.88,-45.4"/>
</a>
</g>
</g>
<!-- Node3 -->
<g id="Node000003" class="node">
<title>Node3</title>
<g id="a_Node000003"><a xlink:href="struct_g_e_material.html" target="_top" xlink:title="Estructura que describe las propiedades de un material.">
<polygon fill="white" stroke="#666666" points="64.75,-183 0,-183 0,-163 64.75,-163 64.75,-183"/>
<text xml:space="preserve" text-anchor="middle" x="32.38" y="-169.5" font-family="Helvetica,sans-Serif" font-size="10.00">GEMaterial</text>
</a>
</g>
</g>
<!-- Node3&#45;&gt;Node2 -->
<g id="edge2_Node000002_Node000003" class="edge">
<title>Node3&#45;&gt;Node2</title>
<g id="a_edge2_Node000002_Node000003"><a xlink:title=" ">
<path fill="none" stroke="#9a32cd" stroke-dasharray="5,2" d="M40.45,-152.12C48.81,-134.2 63.65,-108.62 84.88,-95 105.84,-81.54 174.63,-73.73 214.36,-70.23"/>
<polygon fill="#9a32cd" stroke="#9a32cd" points="37.28,-150.64 36.49,-161.21 43.69,-153.44 37.28,-150.64"/>
</a>
</g>
<text xml:space="preserve" text-anchor="start" x="87.88" y="-116.5" font-family="Helvetica,sans-Serif" font-size="10.00" fill="grey">material</text>
</g>
<!-- Node4 -->
<g id="Node000004" class="node">
<title>Node4</title>
<g id="a_Node000004"><a xlink:href="struct_g_e_light.html" target="_top" xlink:title="Estructura que describe una fuente de luz direccional.">
<polygon fill="white" stroke="#666666" points="134,-183 82.75,-183 82.75,-163 134,-163 134,-183"/>
<text xml:space="preserve" text-anchor="middle" x="108.38" y="-169.5" font-family="Helvetica,sans-Serif" font-size="10.00">GELight</text>
</a>
</g>
</g>
<!-- Node4&#45;&gt;Node2 -->
<g id="edge3_Node000002_Node000004" class="edge">
<title>Node4&#45;&gt;Node2</title>
<g id="a_edge3_Node000002_Node000004"><a xlink:title=" ">
<path fill="none" stroke="#9a32cd" stroke-dasharray="5,2" d="M121.24,-153.74C134.07,-136.64 155.16,-111.34 178.38,-95 189.27,-87.33 202.67,-81.3 214.47,-76.9"/>
<polygon fill="#9a32cd" stroke="#9a32cd" points="118.64,-151.36 115.58,-161.5 124.3,-155.48 118.64,-151.36"/>
</a>
</g>
<text xml:space="preserve" text-anchor="start" x="181.38" y="-116.5" font-family="Helvetica,sans-Serif" font-size="10.00" fill="grey">light</text>
</g>
<!-- Node5 -->
<g id="Node000005" class="node">
<title>Node5</title>
<g id="a_Node000005"><a xlink:href="class_g_e_vertex_buffer.html" target="_top" xlink:title="Clase que describe un buffer de vértices.">
<polygon fill="white" stroke="#666666" points="235.12,-183 151.62,-183 151.62,-163 235.12,-163 235.12,-183"/>
<text xml:space="preserve" text-anchor="middle" x="193.38" y="-169.5" font-family="Helvetica,sans-Serif" font-size="10.00">GEVertexBuffer</text>
</a>
</g>
</g>
<!-- Node5&#45;&gt;Node2 -->
<g id="edge4_Node000002_Node000005" class="edge">
<title>Node5&#45;&gt;Node2</title>
<g id="a_edge4_Node000002_Node000005"><a xlink:title=" ">
<path fill="none" stroke="#9a32cd" stroke-dasharray="5,2" d="M202.78,-152.44C213.55,-130.03 230.77,-94.22 238.88,-77.36"/>
<polygon fill="#9a32cd" stroke="#9a32cd" points="199.65,-150.88 198.47,-161.41 205.96,-153.91 199.65,-150.88"/>
</a>
</g>
<text xml:space="preserve" text-anchor="start" x="232.97" y="-116.5" font-family="Helvetica,sans-Serif" font-size="10.00" fill="grey">vbo</text>
</g>
<!-- Node6 -->
<g id="Node000006" class="node">
<title>Node6</title>
<g id="a_Node000006"><a xlink:href="class_g_e_index_buffer.html" target="_top" xlink:title="Clase que describe un buffer de índices.">
<polygon fill="white" stroke="#666666" points="333.25,-183 253.5,-183 253.5,-163 333.25,-163 333.25,-183"/>
<text xml:space="preserve" text-anchor="middle" x="293.38" y="-169.5" font-family="Helvetica,sans-Serif" font-size="10.00">GEIndexBuffer</text>
</a>
</g>
</g>
<!-- Node6&#45;&gt;Node2 -->
<g id="edge5_Node000002_Node000006" class="edge">
<title>Node6&#45;&gt;Node2</title>
<g id="a_edge5_Node000002_Node000006"><a xlink:title=" ">
<path fill="none" stroke="#9a32cd" stroke-dasharray="5,2" d="M283.97,-152.44C273.2,-130.03 255.98,-94.22 247.87,-77.36"/>
<polygon fill="#9a32cd" stroke="#9a32cd" points="280.79,-153.91 288.28,-161.41 287.1,-150.88 280.79,-153.91"/>
</a>
</g>
<text xml:space="preserve" text-anchor="start" x="282.97" y="-116.5" font-family="Helvetica,sans-Serif" font-size="10.00" fill="grey">ibo</text>
</g>
<!-- Node7 -->
<g id="Node000007" class="node">
<title>Node7</title>
<g id="a_Node000007"><a xlink:href="class_g_e_uniform_buffer.html" target="_top" xlink:title="Clase que describe un conjunto de buffers para almacenar variables uniformes.">
<polygon fill="white" stroke="#666666" points="441.5,-183 351.25,-183 351.25,-163 441.5,-163 441.5,-183"/>
<text xml:space="preserve" text-anchor="middle" x="396.38" y="-169.5" font-family="Helvetica,sans-Serif" font-size="10.00">GEUniformBuffer</text>
</a>
</g>
</g>
<!-- Node7&#45;&gt;Node2 -->
<g id="edge6_Node000002_Node000007" class="edge">
<title>Node7&#45;&gt;Node2</title>
<g id="a_edge6_Node000002_Node000007"><a xlink:title=" ">
<path fill="none" stroke="#9a32cd" stroke-dasharray="5,2" d="M378.66,-155.12C360.51,-138.43 330.98,-112.85 302.38,-95 291.48,-88.2 278.59,-82.11 267.64,-77.43"/>
<polygon fill="#9a32cd" stroke="#9a32cd" points="375.8,-157.24 385.49,-161.5 380.57,-152.12 375.8,-157.24"/>
</a>
</g>
<text xml:space="preserve" text-anchor="start" x="369.56" y="-132.5" font-family="Helvetica,sans-Serif" font-size="10.00" fill="grey">lightBuffer</text>
<text xml:space="preserve" text-anchor="start" x="369.56" y="-116.5" font-family="Helvetica,sans-Serif" font-size="10.00" fill="grey">materialBuffer</text>
<text xml:space="preserve" text-anchor="start" x="369.56" y="-100.5" font-family="Helvetica,sans-Serif" font-size="10.00" fill="grey">transformBuffer</text>
</g>
<!-- Node8 -->
<g id="Node000008" class="node">
<title>Node8</title>
<g id="a_Node000008"><a xlink:href="class_g_e_descriptor_set.html" target="_top" xlink:title="Clase que describe un conjunto de descriptores.">
<polygon fill="white" stroke="#666666" points="549.5,-183 459.25,-183 459.25,-163 549.5,-163 549.5,-183"/>
<text xml:space="preserve" text-anchor="middle" x="504.38" y="-169.5" font-family="Helvetica,sans-Serif" font-size="10.00">GEDescriptorSet</text>
</a>
</g>
</g>
<!-- Node8&#45;&gt;Node2 -->
<g id="edge7_Node000002_Node000008" class="edge">
<title>Node8&#45;&gt;Node2</title>
<g id="a_edge7_Node000002_Node000008"><a xlink:title=" ">
<path fill="none" stroke="#9a32cd" stroke-dasharray="5,2" d="M494.73,-152.71C484.58,-134.59 466.82,-108.35 443.38,-95 414.75,-78.71 320.31,-71.78 272.15,-69.25"/>
<polygon fill="#9a32cd" stroke="#9a32cd" points="491.57,-154.21 499.34,-161.41 497.75,-150.93 491.57,-154.21"/>
</a>
</g>
<text xml:space="preserve" text-anchor="start" x="492.34" y="-116.5" font-family="Helvetica,sans-Serif" font-size="10.00" fill="grey">dset</text>
</g>
</g>
</svg>

<g id="navigator" transform="translate(0 0)" fill="#404254">
  <rect fill="#f2f5e9" fill-opacity="0.5" stroke="#606060" stroke-width=".5" x="0" y="0" width="60" height="60"/>
  <use id="zoomplus" xlink:href="#zoomPlus" x="17" y="9" onmousedown="handleZoom(evt,'in')"/>
  <use id="zoomminus" xlink:href="#zoomMin" x="42" y="9" onmousedown="handleZoom(evt,'out')"/>
  <use id="reset" xlink:href="#resetDef" x="30" y="36" onmousedown="handleReset()"/>
   <use id="arrowup" xlink:href="#arrowUp" x="0" y="0" onmousedown="handlePan(0,-1)"/>
  <use id="arrowright" xlink:href="#arrowRight" x="0" y="0" onmousedown="handlePan(1,0)"/>
  <use id="arrowdown" xlink:href="#arrowDown" x="0" y="0" onmousedown="handlePan(0,1)"/>
  <use id="arrowleft" xlink:href="#arrowLeft" x="0" y="0" onmousedown="handlePan(-1,0)"/>
</g>
<svg viewBox="0 0 15 15" width="100%" height="30px" preserveAspectRatio="xMaxYMin meet">
 <g id="arrow_out" transform="scale(0.3 0.3)">
  <a xlink:href="class_g_e_sphere__coll__graph_org.svg" target="_base">
   <rect id="button" ry="5" rx="5" y="6" x="6" height="38" width="38"
        fill="#f2f5e9" fill-opacity="0.5" stroke="#606060" stroke-width="1.0"/>
   <path id="arrow"
     d="M 11.500037,31.436501 C 11.940474,20.09759 22.043105,11.32322 32.158766,21.979434 L 37.068811,17.246167 C 37.068811,17.246167 37.088388,32 37.088388,32 L 22.160133,31.978069 C 22.160133,31.978069 26.997745,27.140456 26.997745,27.140456 C 18.528582,18.264221 13.291696,25.230495 11.500037,31.436501 z"
     style="fill:#404040;"/>
  </a>
 </g>
</svg>

<style type='text/css'>
<![CDATA[
[data-mouse-over-selected='false'] { opacity: 0.7; }
[data-mouse-over-selected='true']  { opacity: 1.0; }
]]>
</style>
<script type="application/ecmascript"><![CDATA[
document.addEventListener('DOMContentLoaded', (event) => {
  highlightEdges();
  highlightAdjacentNodes();
});
]]></script>
</svg>
