<?xml version="1.0" encoding="UTF-8" standalone="no"?>
<!DOCTYPE svg PUBLIC "-//W3C//DTD SVG 1.1//EN"
 "http://www.w3.org/Graphics/SVG/1.1/DTD/svg11.dtd">
<!-- Generated by graphviz version 14.1.2 (20260124.0452)
 -->
<!-- Title: pugi::xml_node::children Pages: 1 -->
<svg width="277pt" height="66pt"
 viewBox="0.00 0.00 277.00 66.00" xmlns="http://www.w3.org/2000/svg" xmlns:xlink="http://www.w3.org/1999/xlink">
<g id="graph0" class="graph" transform="scale(1 1) rotate(0) translate(4 62)">
<title>pugi::xml_node::children</title>
<!-- Node1 -->
<g id="Node000001" class="node">
<title>Node1</title>
<g id="a_Node000001"><a xlink:title=" ">
<polygon fill="#999999" stroke="#666666" points="121.75,-39 0,-39 0,-19 121.75,-19 121.75,-39"/>
<text xml:space="preserve" text-anchor="middle" x="60.88" y="-25.5" font-family="Helvetica,sans-Serif" font-size="10.00">pugi::xml_node::children</text>
</a>
</g>
</g>
<!-- Node2 -->
<g id="Node000002" class="node">
<title>Node2</title>
<g id="a_Node000002"><a xlink:href="classpugi_1_1xml__node.html#aeff3362bf030a0df28ec2db9b84498f1" target="_top" xlink:title=" ">
<polygon fill="white" stroke="#666666" points="269,-58 157.75,-58 157.75,-38 269,-38 269,-58"/>
<text xml:space="preserve" text-anchor="middle" x="213.38" y="-44.5" font-family="Helvetica,sans-Serif" font-size="10.00">pugi::xml_node::begin</text>
</a>
</g>
</g>
<!-- Node1&#45;&gt;Node2 -->
<g id="edge1_Node000001_Node000002" class="edge">
<title>Node1&#45;&gt;Node2</title>
<g id="a_edge1_Node000001_Node000002"><a xlink:title=" ">
<path fill="none" stroke="#63b8ff" d="M122.22,-36.62C130.11,-37.61 138.24,-38.64 146.22,-39.65"/>
<polygon fill="#63b8ff" stroke="#63b8ff" points="145.51,-43.09 155.87,-40.87 146.39,-36.14 145.51,-43.09"/>
</a>
</g>
</g>
<!-- Node3 -->
<g id="Node000003" class="node">
<title>Node3</title>
<g id="a_Node000003"><a xlink:href="classpugi_1_1xml__node.html#aafa1deeb5fe928d07cd7caebbf975527" target="_top" xlink:title=" ">
<polygon fill="white" stroke="#666666" points="265.25,-20 161.5,-20 161.5,0 265.25,0 265.25,-20"/>
<text xml:space="preserve" text-anchor="middle" x="213.38" y="-6.5" font-family="Helvetica,sans-Serif" font-size="10.00">pugi::xml_node::end</text>
</a>
</g>
</g>
<!-- Node1&#45;&gt;Node3 -->
<g id="edge2_Node000001_Node000003" class="edge">
<title>Node1&#45;&gt;Node3</title>
<g id="a_edge2_Node000001_Node000003"><a xlink:title=" ">
<path fill="none" stroke="#63b8ff" d="M122.22,-21.38C131.31,-20.23 140.69,-19.05 149.82,-17.9"/>
<polygon fill="#63b8ff" stroke="#63b8ff" points="150.22,-21.37 159.71,-16.65 149.35,-14.43 150.22,-21.37"/>
</a>
</g>
</g>
</g>
</svg>
