<?xml version="1.0" encoding="UTF-8" standalone="no"?>
<!DOCTYPE svg PUBLIC "-//W3C//DTD SVG 1.1//EN"
 "http://www.w3.org/Graphics/SVG/1.1/DTD/svg11.dtd">
<!-- Generated by graphviz version 14.1.2 (20260124.0452)
 -->
<!-- Title: GEDrawingContext::GEDrawingContext Pages: 1 -->
<svg width="509pt" height="190pt"
 viewBox="0.00 0.00 509.00 190.00" xmlns="http://www.w3.org/2000/svg" xmlns:xlink="http://www.w3.org/1999/xlink">
<g id="graph0" class="graph" transform="scale(1 1) rotate(0) translate(4 186)">
<title>GEDrawingContext::GEDrawingContext</title>
<!-- Node1 -->
<g id="Node000001" class="node">
<title>Node1</title>
<g id="a_Node000001"><a xlink:title="Crea el contexto de dibujo (swapchain, vistas y sincronización).">
<polygon fill="#999999" stroke="#666666" points="157,-107 0,-107 0,-75 157,-75 157,-107"/>
<text xml:space="preserve" text-anchor="start" x="8" y="-93.5" font-family="Helvetica,sans-Serif" font-size="10.00">GEDrawingContext::GEDrawing</text>
<text xml:space="preserve" text-anchor="middle" x="78.5" y="-81.5" font-family="Helvetica,sans-Serif" font-size="10.00">Context</text>
</a>
</g>
</g>
<!-- Node2 -->
<g id="Node000002" class="node">
<title>Node2</title>
<g id="a_Node000002"><a xlink:href="class_g_e_drawing_context.html#af0d8bbc2b1fe8119e6d1aa65d497b3b0" target="_top" xlink:title="Crea una vista para cada imagen del swapchain.">
<polygon fill="white" stroke="#666666" points="326.75,-182 193,-182 193,-150 326.75,-150 326.75,-182"/>
<text xml:space="preserve" text-anchor="start" x="201" y="-168.5" font-family="Helvetica,sans-Serif" font-size="10.00">GEDrawingContext::create</text>
<text xml:space="preserve" text-anchor="middle" x="259.88" y="-156.5" font-family="Helvetica,sans-Serif" font-size="10.00">ImageViews</text>
</a>
</g>
</g>
<!-- Node1&#45;&gt;Node2 -->
<g id="edge1_Node000001_Node000002" class="edge">
<title>Node1&#45;&gt;Node2</title>
<g id="a_edge1_Node000001_Node000002"><a xlink:title=" ">
<path fill="none" stroke="#63b8ff" d="M115.59,-107.47C137.79,-117.46 166.9,-130.31 193,-141 196.56,-142.46 200.24,-143.94 203.96,-145.41"/>
<polygon fill="#63b8ff" stroke="#63b8ff" points="202.46,-148.58 213.05,-148.96 205.01,-142.06 202.46,-148.58"/>
</a>
</g>
</g>
<!-- Node3 -->
<g id="Node000003" class="node">
<title>Node3</title>
<g id="a_Node000003"><a xlink:href="class_g_e_drawing_context.html#a6ec9944df81a299e39fab513d9e4211f" target="_top" xlink:title="Obtiene las colas gráficas y de presentación del dispositivo.">
<polygon fill="white" stroke="#666666" points="326.75,-132 193,-132 193,-100 326.75,-100 326.75,-132"/>
<text xml:space="preserve" text-anchor="start" x="201" y="-118.5" font-family="Helvetica,sans-Serif" font-size="10.00">GEDrawingContext::create</text>
<text xml:space="preserve" text-anchor="middle" x="259.88" y="-106.5" font-family="Helvetica,sans-Serif" font-size="10.00">Queues</text>
</a>
</g>
</g>
<!-- Node1&#45;&gt;Node3 -->
<g id="edge2_Node000001_Node000003" class="edge">
<title>Node1&#45;&gt;Node3</title>
<g id="a_edge2_Node000001_Node000003"><a xlink:title=" ">
<path fill="none" stroke="#63b8ff" d="M157.39,-101.86C165.36,-102.97 173.46,-104.1 181.42,-105.21"/>
<polygon fill="#63b8ff" stroke="#63b8ff" points="180.68,-108.64 191.07,-106.55 181.65,-101.7 180.68,-108.64"/>
</a>
</g>
</g>
<!-- Node4 -->
<g id="Node000004" class="node">
<title>Node4</title>
<g id="a_Node000004"><a xlink:href="class_g_e_drawing_context.html#addf8c95330fdbf47864e9244ccc417db" target="_top" xlink:title="Crea el swapchain y obtiene las imágenes y formatos adecuados.">
<polygon fill="white" stroke="#666666" points="326.75,-82 193,-82 193,-50 326.75,-50 326.75,-82"/>
<text xml:space="preserve" text-anchor="start" x="201" y="-68.5" font-family="Helvetica,sans-Serif" font-size="10.00">GEDrawingContext::create</text>
<text xml:space="preserve" text-anchor="middle" x="259.88" y="-56.5" font-family="Helvetica,sans-Serif" font-size="10.00">SwapChain</text>
</a>
</g>
</g>
<!-- Node1&#45;&gt;Node4 -->
<g id="edge3_Node000001_Node000004" class="edge">
<title>Node1&#45;&gt;Node4</title>
<g id="a_edge3_Node000001_Node000004"><a xlink:title=" ">
<path fill="none" stroke="#63b8ff" d="M157.39,-80.14C165.36,-79.03 173.46,-77.9 181.42,-76.79"/>
<polygon fill="#63b8ff" stroke="#63b8ff" points="181.65,-80.3 191.07,-75.45 180.68,-73.36 181.65,-80.3"/>
</a>
</g>
</g>
<!-- Node7 -->
<g id="Node000007" class="node">
<title>Node7</title>
<g id="a_Node000007"><a xlink:href="class_g_e_drawing_context.html#abc7ed5e420a7ba2f4718baa43f897475" target="_top" xlink:title="Crea semáforos y fences para sincronización entre frames.">
<polygon fill="white" stroke="#666666" points="326.75,-32 193,-32 193,0 326.75,0 326.75,-32"/>
<text xml:space="preserve" text-anchor="start" x="201" y="-18.5" font-family="Helvetica,sans-Serif" font-size="10.00">GEDrawingContext::create</text>
<text xml:space="preserve" text-anchor="middle" x="259.88" y="-6.5" font-family="Helvetica,sans-Serif" font-size="10.00">SyncObjects</text>
</a>
</g>
</g>
<!-- Node1&#45;&gt;Node7 -->
<g id="edge6_Node000001_Node000007" class="edge">
<title>Node1&#45;&gt;Node7</title>
<g id="a_edge6_Node000001_Node000007"><a xlink:title=" ">
<path fill="none" stroke="#63b8ff" d="M115.59,-74.53C137.79,-64.54 166.9,-51.69 193,-41 196.56,-39.54 200.24,-38.06 203.96,-36.59"/>
<polygon fill="#63b8ff" stroke="#63b8ff" points="205.01,-39.94 213.05,-33.04 202.46,-33.42 205.01,-39.94"/>
</a>
</g>
</g>
<!-- Node5 -->
<g id="Node000005" class="node">
<title>Node5</title>
<g id="a_Node000005"><a xlink:href="class_g_e_drawing_context.html#acdb6b25fca397b27f3563080db3c130b" target="_top" xlink:title="Selecciona la extensión (tamaño) adecuada para las imágenes del swapchain.">
<polygon fill="white" stroke="#666666" points="501,-107 362.75,-107 362.75,-75 501,-75 501,-107"/>
<text xml:space="preserve" text-anchor="start" x="370.75" y="-93.5" font-family="Helvetica,sans-Serif" font-size="10.00">GEDrawingContext::choose</text>
<text xml:space="preserve" text-anchor="middle" x="431.88" y="-81.5" font-family="Helvetica,sans-Serif" font-size="10.00">SwapExtent</text>
</a>
</g>
</g>
<!-- Node4&#45;&gt;Node5 -->
<g id="edge4_Node000004_Node000005" class="edge">
<title>Node4&#45;&gt;Node5</title>
<g id="a_edge4_Node000004_Node000005"><a xlink:title=" ">
<path fill="none" stroke="#63b8ff" d="M327.09,-75.74C334.95,-76.89 343.03,-78.08 351.05,-79.26"/>
<polygon fill="#63b8ff" stroke="#63b8ff" points="350.42,-82.71 360.82,-80.7 351.44,-75.78 350.42,-82.71"/>
</a>
</g>
</g>
<!-- Node6 -->
<g id="Node000006" class="node">
<title>Node6</title>
<g id="a_Node000006"><a xlink:href="class_g_e_drawing_context.html#a3b9ad39a37755665d94e149b73d99a43" target="_top" xlink:title="Escoge el formato de imagen entre los soportados por la superficie.">
<polygon fill="white" stroke="#666666" points="501,-57 362.75,-57 362.75,-25 501,-25 501,-57"/>
<text xml:space="preserve" text-anchor="start" x="370.75" y="-43.5" font-family="Helvetica,sans-Serif" font-size="10.00">GEDrawingContext::choose</text>
<text xml:space="preserve" text-anchor="middle" x="431.88" y="-31.5" font-family="Helvetica,sans-Serif" font-size="10.00">SwapSurfaceFormat</text>
</a>
</g>
</g>
<!-- Node4&#45;&gt;Node6 -->
<g id="edge5_Node000004_Node000006" class="edge">
<title>Node4&#45;&gt;Node6</title>
<g id="a_edge5_Node000004_Node000006"><a xlink:title=" ">
<path fill="none" stroke="#63b8ff" d="M327.09,-56.26C334.95,-55.11 343.03,-53.92 351.05,-52.74"/>
<polygon fill="#63b8ff" stroke="#63b8ff" points="351.44,-56.22 360.82,-51.3 350.42,-49.29 351.44,-56.22"/>
</a>
</g>
</g>
</g>
</svg>
