<?xml version="1.0" encoding="UTF-8" standalone="no"?>
<!DOCTYPE svg PUBLIC "-//W3C//DTD SVG 1.1//EN"
 "http://www.w3.org/Graphics/SVG/1.1/DTD/svg11.dtd">
<!-- Generated by graphviz version 14.1.2 (20260124.0452)
 -->
<!-- Title: xpath_ast_node::optimize_self Pages: 1 -->
<svg width="473pt" height="96pt"
 viewBox="0.00 0.00 473.00 96.00" xmlns="http://www.w3.org/2000/svg" xmlns:xlink="http://www.w3.org/1999/xlink">
<g id="graph0" class="graph" transform="scale(1 1) rotate(0) translate(4 92)">
<title>xpath_ast_node::optimize_self</title>
<!-- Node1 -->
<g id="Node000001" class="node">
<title>Node1</title>
<g id="a_Node000001"><a xlink:title=" ">
<polygon fill="#999999" stroke="#666666" points="148.75,-42 0,-42 0,-22 148.75,-22 148.75,-42"/>
<text xml:space="preserve" text-anchor="middle" x="74.38" y="-28.5" font-family="Helvetica,sans-Serif" font-size="10.00">xpath_ast_node::optimize_self</text>
</a>
</g>
</g>
<!-- Node2 -->
<g id="Node000002" class="node">
<title>Node2</title>
<g id="a_Node000002"><a xlink:href="classxpath__ast__node.html#aac1162512c42ef38e35a9ba7ce994b91" target="_top" xlink:title=" ">
<polygon fill="white" stroke="#666666" points="295.25,-70 196.75,-70 196.75,-38 295.25,-38 295.25,-70"/>
<text xml:space="preserve" text-anchor="start" x="204.75" y="-56.5" font-family="Helvetica,sans-Serif" font-size="10.00">xpath_ast_node::is</text>
<text xml:space="preserve" text-anchor="middle" x="246" y="-44.5" font-family="Helvetica,sans-Serif" font-size="10.00">_posinv_step</text>
</a>
</g>
</g>
<!-- Node1&#45;&gt;Node2 -->
<g id="edge1_Node000001_Node000002" class="edge">
<title>Node1&#45;&gt;Node2</title>
<g id="a_edge1_Node000001_Node000002"><a xlink:title=" ">
<path fill="none" stroke="#63b8ff" d="M148.79,-41.52C161,-43.11 173.54,-44.73 185.35,-46.26"/>
<polygon fill="#63b8ff" stroke="#63b8ff" points="184.56,-49.69 194.93,-47.51 185.46,-42.75 184.56,-49.69"/>
</a>
</g>
</g>
<!-- Node4 -->
<g id="Node000004" class="node">
<title>Node4</title>
<g id="a_Node000004"><a xlink:href="pugixml_8cpp.html#a4a113e060713f00a1b6f835001c99efe" target="_top" xlink:title=" ">
<polygon fill="white" stroke="#666666" points="307.25,-20 184.75,-20 184.75,0 307.25,0 307.25,-20"/>
<text xml:space="preserve" text-anchor="middle" x="246" y="-6.5" font-family="Helvetica,sans-Serif" font-size="10.00">translate_table_generate</text>
</a>
</g>
</g>
<!-- Node1&#45;&gt;Node4 -->
<g id="edge4_Node000001_Node000004" class="edge">
<title>Node1&#45;&gt;Node4</title>
<g id="a_edge4_Node000001_Node000004"><a xlink:title=" ">
<path fill="none" stroke="#63b8ff" d="M148.79,-22.48C156.88,-21.43 165.12,-20.36 173.19,-19.31"/>
<polygon fill="#63b8ff" stroke="#63b8ff" points="173.5,-22.8 182.97,-18.05 172.6,-15.86 173.5,-22.8"/>
</a>
</g>
</g>
<!-- Node3 -->
<g id="Node000003" class="node">
<title>Node3</title>
<g id="a_Node000003"><a xlink:href="classxpath__ast__node.html#ae5a059e41b41505bef1f7dbebda8070b" target="_top" xlink:title=" ">
<polygon fill="white" stroke="#666666" points="461.62,-70 346.62,-70 346.62,-38 461.62,-38 461.62,-70"/>
<text xml:space="preserve" text-anchor="start" x="354.62" y="-56.5" font-family="Helvetica,sans-Serif" font-size="10.00">xpath_ast_node::xpath</text>
<text xml:space="preserve" text-anchor="middle" x="404.12" y="-44.5" font-family="Helvetica,sans-Serif" font-size="10.00">_ast_node</text>
</a>
</g>
</g>
<!-- Node2&#45;&gt;Node3 -->
<g id="edge2_Node000002_Node000003" class="edge">
<title>Node2&#45;&gt;Node3</title>
<g id="a_edge2_Node000002_Node000003"><a xlink:title=" ">
<path fill="none" stroke="#63b8ff" d="M295.54,-54C307.94,-54 321.49,-54 334.68,-54"/>
<polygon fill="#63b8ff" stroke="#63b8ff" points="334.62,-57.5 344.62,-54 334.62,-50.5 334.62,-57.5"/>
</a>
</g>
</g>
<!-- Node3&#45;&gt;Node3 -->
<g id="edge3_Node000003_Node000003" class="edge">
<title>Node3&#45;&gt;Node3</title>
<g id="a_edge3_Node000003_Node000003"><a xlink:title=" ">
<path fill="none" stroke="#63b8ff" d="M375.9,-70.44C370.63,-79.58 380.04,-88 404.12,-88 417.3,-88 426.08,-85.48 430.48,-81.71"/>
<polygon fill="#63b8ff" stroke="#63b8ff" points="433.91,-82.38 432.11,-71.94 427.01,-81.22 433.91,-82.38"/>
</a>
</g>
</g>
<!-- Node5 -->
<g id="Node000005" class="node">
<title>Node5</title>
<g id="a_Node000005"><a xlink:href="structxpath__allocator.html#a6c13fefbd7038d78b336987f396c8415" target="_top" xlink:title=" ">
<polygon fill="white" stroke="#666666" points="465,-20 343.25,-20 343.25,0 465,0 465,-20"/>
<text xml:space="preserve" text-anchor="middle" x="404.12" y="-6.5" font-family="Helvetica,sans-Serif" font-size="10.00">xpath_allocator::allocate</text>
</a>
</g>
</g>
<!-- Node4&#45;&gt;Node5 -->
<g id="edge5_Node000004_Node000005" class="edge">
<title>Node4&#45;&gt;Node5</title>
<g id="a_edge5_Node000004_Node000005"><a xlink:title=" ">
<path fill="none" stroke="#63b8ff" d="M307.36,-10C315.29,-10 323.48,-10 331.58,-10"/>
<polygon fill="#63b8ff" stroke="#63b8ff" points="331.41,-13.5 341.41,-10 331.41,-6.5 331.41,-13.5"/>
</a>
</g>
</g>
</g>
</svg>
