<?xml version="1.0" encoding="UTF-8" standalone="no"?>
<!DOCTYPE svg PUBLIC "-//W3C//DTD SVG 1.1//EN"
 "http://www.w3.org/Graphics/SVG/1.1/DTD/svg11.dtd">
<!-- Generated by graphviz version 14.1.2 (20260124.0452)
 -->
<!-- Title: GEXMLParser::parseSkeletonFile Pages: 1 -->
<svg width="816pt" height="366pt"
 viewBox="0.00 0.00 816.00 366.00" xmlns="http://www.w3.org/2000/svg" xmlns:xlink="http://www.w3.org/1999/xlink">
<g id="graph0" class="graph" transform="scale(1 1) rotate(0) translate(4 362)">
<title>GEXMLParser::parseSkeletonFile</title>
<!-- Node1 -->
<g id="Node000001" class="node">
<title>Node1</title>
<g id="a_Node000001"><a xlink:title="Parsea un archivo .skel y devuelve los datos del esqueleto.">
<polygon fill="#999999" stroke="#666666" points="163,-199 0,-199 0,-179 163,-179 163,-199"/>
<text xml:space="preserve" text-anchor="middle" x="81.5" y="-185.5" font-family="Helvetica,sans-Serif" font-size="10.00">GEXMLParser::parseSkeletonFile</text>
</a>
</g>
</g>
<!-- Node2 -->
<g id="Node000002" class="node">
<title>Node2</title>
<g id="a_Node000002"><a xlink:href="classpugi_1_1xml__attribute.html#ae5f55e07fdbe1b862af67cf9eb5678a3" target="_top" xlink:title=" ">
<polygon fill="white" stroke="#666666" points="492,-358 395.75,-358 395.75,-326 492,-326 492,-358"/>
<text xml:space="preserve" text-anchor="start" x="403.75" y="-344.5" font-family="Helvetica,sans-Serif" font-size="10.00">pugi::xml_attribute</text>
<text xml:space="preserve" text-anchor="middle" x="443.88" y="-332.5" font-family="Helvetica,sans-Serif" font-size="10.00">::as_string</text>
</a>
</g>
</g>
<!-- Node1&#45;&gt;Node2 -->
<g id="edge1_Node000001_Node000002" class="edge">
<title>Node1&#45;&gt;Node2</title>
<g id="a_edge1_Node000001_Node000002"><a xlink:title=" ">
<path fill="none" stroke="#63b8ff" d="M90.21,-199.35C107.19,-221.3 150.19,-272.51 199,-297 257.67,-326.44 332.96,-336.77 384.27,-340.32"/>
<polygon fill="#63b8ff" stroke="#63b8ff" points="383.77,-343.79 393.97,-340.92 384.2,-336.81 383.77,-343.79"/>
</a>
</g>
</g>
<!-- Node4 -->
<g id="Node000004" class="node">
<title>Node4</title>
<g id="a_Node000004"><a xlink:href="classpugi_1_1xml__node.html#a2d27d392a789976eb1aef9d49f72393e" target="_top" xlink:title=" ">
<polygon fill="white" stroke="#666666" points="671.88,-145 548.62,-145 548.62,-125 671.88,-125 671.88,-145"/>
<text xml:space="preserve" text-anchor="middle" x="610.25" y="-131.5" font-family="Helvetica,sans-Serif" font-size="10.00">pugi::xml_node::attribute</text>
</a>
</g>
</g>
<!-- Node1&#45;&gt;Node4 -->
<g id="edge4_Node000001_Node000004" class="edge">
<title>Node1&#45;&gt;Node4</title>
<g id="a_edge4_Node000001_Node000004"><a xlink:title=" ">
<path fill="none" stroke="#63b8ff" d="M96.68,-178.62C117.76,-163.84 159.17,-137.27 199,-126 331.75,-88.45 371.9,-103.07 509.25,-116 523.55,-117.35 538.85,-119.75 553.07,-122.41"/>
<polygon fill="#63b8ff" stroke="#63b8ff" points="552.24,-125.81 562.72,-124.29 553.58,-118.94 552.24,-125.81"/>
</a>
</g>
</g>
<!-- Node5 -->
<g id="Node000005" class="node">
<title>Node5</title>
<g id="a_Node000005"><a xlink:href="classpugi_1_1xml__node.html#a4154ffb6451d4203b74bb56d3f3ecf50" target="_top" xlink:title=" ">
<polygon fill="white" stroke="#666666" points="498,-308 389.75,-308 389.75,-288 498,-288 498,-308"/>
<text xml:space="preserve" text-anchor="middle" x="443.88" y="-294.5" font-family="Helvetica,sans-Serif" font-size="10.00">pugi::xml_node::child</text>
</a>
</g>
</g>
<!-- Node1&#45;&gt;Node5 -->
<g id="edge5_Node000001_Node000005" class="edge">
<title>Node1&#45;&gt;Node5</title>
<g id="a_edge5_Node000001_Node000005"><a xlink:title=" ">
<path fill="none" stroke="#63b8ff" d="M93.66,-199.5C113.24,-217.22 155.83,-252.75 199,-269 256.94,-290.81 327.6,-297.21 377.92,-298.66"/>
<polygon fill="#63b8ff" stroke="#63b8ff" points="377.7,-302.16 387.78,-298.88 377.86,-295.16 377.7,-302.16"/>
</a>
</g>
</g>
<!-- Node7 -->
<g id="Node000007" class="node">
<title>Node7</title>
<g id="a_Node000007"><a xlink:href="classpugi_1_1xml__node.html#a4f72c001fed61753fa76fd32d4e978af" target="_top" xlink:title=" ">
<polygon fill="white" stroke="#666666" points="504.75,-267 383,-267 383,-247 504.75,-247 504.75,-267"/>
<text xml:space="preserve" text-anchor="middle" x="443.88" y="-253.5" font-family="Helvetica,sans-Serif" font-size="10.00">pugi::xml_node::children</text>
</a>
</g>
</g>
<!-- Node1&#45;&gt;Node7 -->
<g id="edge7_Node000001_Node000007" class="edge">
<title>Node1&#45;&gt;Node7</title>
<g id="a_edge7_Node000001_Node000007"><a xlink:title=" ">
<path fill="none" stroke="#63b8ff" d="M97.47,-199.28C118.87,-213.32 159.93,-237.91 199,-248 255.59,-262.62 322,-264.1 371.22,-262.35"/>
<polygon fill="#63b8ff" stroke="#63b8ff" points="371.35,-265.85 381.2,-261.94 371.06,-258.85 371.35,-265.85"/>
</a>
</g>
</g>
<!-- Node10 -->
<g id="Node000010" class="node">
<title>Node10</title>
<g id="a_Node000010"><a xlink:href="structpugi_1_1xml__parse__result.html#a5229a07ba72d6ff72d7a0775c6d67fdc" target="_top" xlink:title=" ">
<polygon fill="white" stroke="#666666" points="327.88,-183 213.62,-183 213.62,-151 327.88,-151 327.88,-183"/>
<text xml:space="preserve" text-anchor="start" x="221.62" y="-169.5" font-family="Helvetica,sans-Serif" font-size="10.00">pugi::xml_parse_result</text>
<text xml:space="preserve" text-anchor="middle" x="270.75" y="-157.5" font-family="Helvetica,sans-Serif" font-size="10.00">::description</text>
</a>
</g>
</g>
<!-- Node1&#45;&gt;Node10 -->
<g id="edge10_Node000001_Node000010" class="edge">
<title>Node1&#45;&gt;Node10</title>
<g id="a_edge10_Node000001_Node000010"><a xlink:title=" ">
<path fill="none" stroke="#63b8ff" d="M163.27,-179.51C176.15,-178 189.37,-176.44 201.91,-174.97"/>
<polygon fill="#63b8ff" stroke="#63b8ff" points="202.19,-178.46 211.71,-173.82 201.37,-171.51 202.19,-178.46"/>
</a>
</g>
</g>
<!-- Node11 -->
<g id="Node000011" class="node">
<title>Node11</title>
<g id="a_Node000011"><a xlink:href="classpugi_1_1xml__document.html#aefb4c986984462e3972cf332156dbf00" target="_top" xlink:title=" ">
<polygon fill="white" stroke="#666666" points="322.62,-57 218.88,-57 218.88,-25 322.62,-25 322.62,-57"/>
<text xml:space="preserve" text-anchor="start" x="226.88" y="-43.5" font-family="Helvetica,sans-Serif" font-size="10.00">pugi::xml_document</text>
<text xml:space="preserve" text-anchor="middle" x="270.75" y="-31.5" font-family="Helvetica,sans-Serif" font-size="10.00">::load_file</text>
</a>
</g>
</g>
<!-- Node1&#45;&gt;Node11 -->
<g id="edge11_Node000001_Node000011" class="edge">
<title>Node1&#45;&gt;Node11</title>
<g id="a_edge11_Node000001_Node000011"><a xlink:title=" ">
<path fill="none" stroke="#63b8ff" d="M90.47,-178.5C107.94,-156.1 151.84,-103.02 199,-71 203.64,-67.85 208.67,-64.92 213.82,-62.24"/>
<polygon fill="#63b8ff" stroke="#63b8ff" points="215.02,-65.55 222.48,-58.02 211.96,-59.25 215.02,-65.55"/>
</a>
</g>
</g>
<!-- Node15 -->
<g id="Node000015" class="node">
<title>Node15</title>
<g id="a_Node000015"><a xlink:href="class_g_e_x_m_l_parser.html#af7e66e11e1a8973779770daa1ad6f653" target="_top" xlink:title="Parsea una articulación y sus hijas recursivamente.">
<polygon fill="white" stroke="#666666" points="342.5,-221 199,-221 199,-201 342.5,-201 342.5,-221"/>
<text xml:space="preserve" text-anchor="middle" x="270.75" y="-207.5" font-family="Helvetica,sans-Serif" font-size="10.00">GEXMLParser::parseBalljoint</text>
</a>
</g>
</g>
<!-- Node1&#45;&gt;Node15 -->
<g id="edge15_Node000001_Node000015" class="edge">
<title>Node1&#45;&gt;Node15</title>
<g id="a_edge15_Node000001_Node000015"><a xlink:title=" ">
<path fill="none" stroke="#63b8ff" d="M163.27,-198.49C171.28,-199.43 179.41,-200.39 187.43,-201.33"/>
<polygon fill="#63b8ff" stroke="#63b8ff" points="186.83,-204.78 197.17,-202.47 187.65,-197.83 186.83,-204.78"/>
</a>
</g>
</g>
<!-- Node17 -->
<g id="Node000017" class="node">
<title>Node17</title>
<g id="a_Node000017"><a xlink:href="class_g_e_x_m_l_parser.html#aa8e732df591d508941d3c717188b7266" target="_top" xlink:title="Parsea un nodo vec3 (offset, zaxis, yaxis).">
<polygon fill="white" stroke="#666666" points="509.25,-145 378.5,-145 378.5,-125 509.25,-125 509.25,-145"/>
<text xml:space="preserve" text-anchor="middle" x="443.88" y="-131.5" font-family="Helvetica,sans-Serif" font-size="10.00">GEXMLParser::parseVec3</text>
</a>
</g>
</g>
<!-- Node1&#45;&gt;Node17 -->
<g id="edge26_Node000001_Node000017" class="edge">
<title>Node1&#45;&gt;Node17</title>
<g id="a_edge26_Node000001_Node000017"><a xlink:title=" ">
<path fill="none" stroke="#63b8ff" d="M102.02,-178.61C124.63,-167.18 163.35,-149.45 199,-142 254.37,-130.43 318.33,-129.02 366.86,-130.33"/>
<polygon fill="#63b8ff" stroke="#63b8ff" points="366.6,-133.82 376.71,-130.64 366.83,-126.82 366.6,-133.82"/>
</a>
</g>
</g>
<!-- Node3 -->
<g id="Node000003" class="node">
<title>Node3</title>
<g id="a_Node000003"><a xlink:href="classpugi_1_1xml__attribute.html#ac18639df6493d250601566d1156c38d9" target="_top" xlink:title=" ">
<polygon fill="white" stroke="#666666" points="807.5,-275 711.25,-275 711.25,-243 807.5,-243 807.5,-275"/>
<text xml:space="preserve" text-anchor="start" x="719.25" y="-261.5" font-family="Helvetica,sans-Serif" font-size="10.00">pugi::xml_attribute</text>
<text xml:space="preserve" text-anchor="middle" x="759.38" y="-249.5" font-family="Helvetica,sans-Serif" font-size="10.00">::value</text>
</a>
</g>
</g>
<!-- Node2&#45;&gt;Node3 -->
<g id="edge2_Node000002_Node000003" class="edge">
<title>Node2&#45;&gt;Node3</title>
<g id="a_edge2_Node000002_Node000003"><a xlink:title=" ">
<path fill="none" stroke="#63b8ff" d="M492.4,-344.34C540.16,-345.08 615.11,-341.8 675.25,-319 696.67,-310.88 717.57,-295.75 733.05,-282.72"/>
<polygon fill="#63b8ff" stroke="#63b8ff" points="735.12,-285.56 740.37,-276.35 730.53,-280.28 735.12,-285.56"/>
</a>
</g>
</g>
<!-- Node3&#45;&gt;Node3 -->
<g id="edge3_Node000003_Node000003" class="edge">
<title>Node3&#45;&gt;Node3</title>
<g id="a_edge3_Node000003_Node000003"><a xlink:title=" ">
<path fill="none" stroke="#63b8ff" d="M732.75,-275.44C727.78,-284.58 736.66,-293 759.38,-293 771.8,-293 780.08,-290.48 784.23,-286.71"/>
<polygon fill="#63b8ff" stroke="#63b8ff" points="787.67,-287.36 785.76,-276.94 780.75,-286.27 787.67,-287.36"/>
</a>
</g>
</g>
<!-- Node6 -->
<g id="Node000006" class="node">
<title>Node6</title>
<g id="a_Node000006"><a xlink:href="classpugi_1_1xml__node.html#a4641476ddd4869da18f0738186b17368" target="_top" xlink:title=" ">
<polygon fill="white" stroke="#666666" points="675.25,-310 545.25,-310 545.25,-290 675.25,-290 675.25,-310"/>
<text xml:space="preserve" text-anchor="middle" x="610.25" y="-296.5" font-family="Helvetica,sans-Serif" font-size="10.00">pugi::xml_node::xml_node</text>
</a>
</g>
</g>
<!-- Node5&#45;&gt;Node6 -->
<g id="edge6_Node000005_Node000006" class="edge">
<title>Node5&#45;&gt;Node6</title>
<g id="a_edge6_Node000005_Node000006"><a xlink:title=" ">
<path fill="none" stroke="#63b8ff" d="M498.24,-298.65C509.54,-298.79 521.66,-298.93 533.61,-299.08"/>
<polygon fill="#63b8ff" stroke="#63b8ff" points="533.41,-302.58 543.45,-299.2 533.5,-295.58 533.41,-302.58"/>
</a>
</g>
</g>
<!-- Node8 -->
<g id="Node000008" class="node">
<title>Node8</title>
<g id="a_Node000008"><a xlink:href="classpugi_1_1xml__node.html#aeff3362bf030a0df28ec2db9b84498f1" target="_top" xlink:title=" ">
<polygon fill="white" stroke="#666666" points="665.88,-272 554.62,-272 554.62,-252 665.88,-252 665.88,-272"/>
<text xml:space="preserve" text-anchor="middle" x="610.25" y="-258.5" font-family="Helvetica,sans-Serif" font-size="10.00">pugi::xml_node::begin</text>
</a>
</g>
</g>
<!-- Node7&#45;&gt;Node8 -->
<g id="edge8_Node000007_Node000008" class="edge">
<title>Node7&#45;&gt;Node8</title>
<g id="a_edge8_Node000007_Node000008"><a xlink:title=" ">
<path fill="none" stroke="#63b8ff" d="M505.15,-258.83C517.43,-259.21 530.41,-259.6 542.88,-259.98"/>
<polygon fill="#63b8ff" stroke="#63b8ff" points="542.55,-263.47 552.65,-260.28 542.76,-256.48 542.55,-263.47"/>
</a>
</g>
</g>
<!-- Node9 -->
<g id="Node000009" class="node">
<title>Node9</title>
<g id="a_Node000009"><a xlink:href="classpugi_1_1xml__node.html#aafa1deeb5fe928d07cd7caebbf975527" target="_top" xlink:title=" ">
<polygon fill="white" stroke="#666666" points="662.12,-234 558.38,-234 558.38,-214 662.12,-214 662.12,-234"/>
<text xml:space="preserve" text-anchor="middle" x="610.25" y="-220.5" font-family="Helvetica,sans-Serif" font-size="10.00">pugi::xml_node::end</text>
</a>
</g>
</g>
<!-- Node7&#45;&gt;Node9 -->
<g id="edge9_Node000007_Node000009" class="edge">
<title>Node7&#45;&gt;Node9</title>
<g id="a_edge9_Node000007_Node000009"><a xlink:title=" ">
<path fill="none" stroke="#63b8ff" d="M496.88,-246.56C512.78,-243.37 530.42,-239.83 546.93,-236.51"/>
<polygon fill="#63b8ff" stroke="#63b8ff" points="547.54,-239.96 556.66,-234.56 546.16,-233.1 547.54,-239.96"/>
</a>
</g>
</g>
<!-- Node12 -->
<g id="Node000012" class="node">
<title>Node12</title>
<g id="a_Node000012"><a xlink:href="classpugi_1_1xml__document.html#a56e84f1a61d9798b8095f633d2174ab5" target="_top" xlink:title=" ">
<polygon fill="white" stroke="#666666" points="495.75,-57 392,-57 392,-25 495.75,-25 495.75,-57"/>
<text xml:space="preserve" text-anchor="start" x="400" y="-43.5" font-family="Helvetica,sans-Serif" font-size="10.00">pugi::xml_document</text>
<text xml:space="preserve" text-anchor="middle" x="443.88" y="-31.5" font-family="Helvetica,sans-Serif" font-size="10.00">::reset</text>
</a>
</g>
</g>
<!-- Node11&#45;&gt;Node12 -->
<g id="edge12_Node000011_Node000012" class="edge">
<title>Node11&#45;&gt;Node12</title>
<g id="a_edge12_Node000011_Node000012"><a xlink:title=" ">
<path fill="none" stroke="#63b8ff" d="M323.09,-41C341.03,-41 361.37,-41 380.13,-41"/>
<polygon fill="#63b8ff" stroke="#63b8ff" points="380.05,-44.5 390.05,-41 380.05,-37.5 380.05,-44.5"/>
</a>
</g>
</g>
<!-- Node13 -->
<g id="Node000013" class="node">
<title>Node13</title>
<g id="a_Node000013"><a xlink:href="classpugi_1_1xml__document.html#abe0c208ff54097055a572f0a7fe40a94" target="_top" xlink:title=" ">
<polygon fill="white" stroke="#666666" points="662.12,-32 558.38,-32 558.38,0 662.12,0 662.12,-32"/>
<text xml:space="preserve" text-anchor="start" x="566.38" y="-18.5" font-family="Helvetica,sans-Serif" font-size="10.00">pugi::xml_document</text>
<text xml:space="preserve" text-anchor="middle" x="610.25" y="-6.5" font-family="Helvetica,sans-Serif" font-size="10.00">::_create</text>
</a>
</g>
</g>
<!-- Node12&#45;&gt;Node13 -->
<g id="edge13_Node000012_Node000013" class="edge">
<title>Node12&#45;&gt;Node13</title>
<g id="a_edge13_Node000012_Node000013"><a xlink:title=" ">
<path fill="none" stroke="#63b8ff" d="M495.98,-33.23C511.99,-30.79 529.83,-28.08 546.54,-25.54"/>
<polygon fill="#63b8ff" stroke="#63b8ff" points="547.03,-29 556.39,-24.04 545.98,-22.08 547.03,-29"/>
</a>
</g>
</g>
<!-- Node14 -->
<g id="Node000014" class="node">
<title>Node14</title>
<g id="a_Node000014"><a xlink:href="classpugi_1_1xml__document.html#ae622fdaff0407d22288f36194f9b0cbe" target="_top" xlink:title=" ">
<polygon fill="white" stroke="#666666" points="662.12,-82 558.38,-82 558.38,-50 662.12,-50 662.12,-82"/>
<text xml:space="preserve" text-anchor="start" x="566.38" y="-68.5" font-family="Helvetica,sans-Serif" font-size="10.00">pugi::xml_document</text>
<text xml:space="preserve" text-anchor="middle" x="610.25" y="-56.5" font-family="Helvetica,sans-Serif" font-size="10.00">::_destroy</text>
</a>
</g>
</g>
<!-- Node12&#45;&gt;Node14 -->
<g id="edge14_Node000012_Node000014" class="edge">
<title>Node12&#45;&gt;Node14</title>
<g id="a_edge14_Node000012_Node000014"><a xlink:title=" ">
<path fill="none" stroke="#63b8ff" d="M495.98,-48.77C511.99,-51.21 529.83,-53.92 546.54,-56.46"/>
<polygon fill="#63b8ff" stroke="#63b8ff" points="545.98,-59.92 556.39,-57.96 547.03,-53 545.98,-59.92"/>
</a>
</g>
</g>
<!-- Node15&#45;&gt;Node2 -->
<g id="edge18_Node000015_Node000002" class="edge">
<title>Node15&#45;&gt;Node2</title>
<g id="a_edge18_Node000015_Node000002"><a xlink:title=" ">
<path fill="none" stroke="#63b8ff" d="M279.77,-221.46C296.21,-242.27 335.79,-289.25 378.5,-317 380.62,-318.38 382.84,-319.7 385.11,-320.97"/>
<polygon fill="#63b8ff" stroke="#63b8ff" points="383.49,-324.07 394,-325.46 386.65,-317.83 383.49,-324.07"/>
</a>
</g>
</g>
<!-- Node15&#45;&gt;Node4 -->
<g id="edge19_Node000015_Node000004" class="edge">
<title>Node15&#45;&gt;Node4</title>
<g id="a_edge19_Node000015_Node000004"><a xlink:title=" ">
<path fill="none" stroke="#63b8ff" d="M318.32,-200.51C379.26,-186.79 486.02,-162.75 551.88,-147.92"/>
<polygon fill="#63b8ff" stroke="#63b8ff" points="552.42,-151.38 561.41,-145.77 550.88,-144.56 552.42,-151.38"/>
</a>
</g>
</g>
<!-- Node15&#45;&gt;Node5 -->
<g id="edge20_Node000015_Node000005" class="edge">
<title>Node15&#45;&gt;Node5</title>
<g id="a_edge20_Node000015_Node000005"><a xlink:title=" ">
<path fill="none" stroke="#63b8ff" d="M286.38,-221.33C306.43,-235.15 343.92,-259.8 378.5,-276 384.46,-278.79 390.88,-281.41 397.27,-283.8"/>
<polygon fill="#63b8ff" stroke="#63b8ff" points="395.9,-287.03 406.49,-287.09 398.25,-280.43 395.9,-287.03"/>
</a>
</g>
</g>
<!-- Node15&#45;&gt;Node7 -->
<g id="edge21_Node000015_Node000007" class="edge">
<title>Node15&#45;&gt;Node7</title>
<g id="a_edge21_Node000015_Node000007"><a xlink:title=" ">
<path fill="none" stroke="#63b8ff" d="M310.58,-221.44C335,-228 366.74,-236.54 393.01,-243.6"/>
<polygon fill="#63b8ff" stroke="#63b8ff" points="391.87,-246.91 402.44,-246.13 393.69,-240.15 391.87,-246.91"/>
</a>
</g>
</g>
<!-- Node15&#45;&gt;Node15 -->
<g id="edge22_Node000015_Node000015" class="edge">
<title>Node15&#45;&gt;Node15</title>
<g id="a_edge22_Node000015_Node000015"><a xlink:title=" ">
<path fill="none" stroke="#63b8ff" d="M243.24,-221.34C231.49,-229.98 240.66,-239 270.75,-239 287.68,-239 297.99,-236.14 301.67,-232.11"/>
<polygon fill="#63b8ff" stroke="#63b8ff" points="305.07,-231.26 298.72,-222.78 298.4,-233.37 305.07,-231.26"/>
</a>
</g>
</g>
<!-- Node16 -->
<g id="Node000016" class="node">
<title>Node16</title>
<g id="a_Node000016"><a xlink:href="classpugi_1_1xml__attribute.html#af245d352a69150cb6b556d1400f24f8b" target="_top" xlink:title=" ">
<polygon fill="white" stroke="#666666" points="658.38,-196 562.12,-196 562.12,-164 658.38,-164 658.38,-196"/>
<text xml:space="preserve" text-anchor="start" x="570.12" y="-182.5" font-family="Helvetica,sans-Serif" font-size="10.00">pugi::xml_attribute</text>
<text xml:space="preserve" text-anchor="middle" x="610.25" y="-170.5" font-family="Helvetica,sans-Serif" font-size="10.00">::as_float</text>
</a>
</g>
</g>
<!-- Node15&#45;&gt;Node16 -->
<g id="edge16_Node000015_Node000016" class="edge">
<title>Node15&#45;&gt;Node16</title>
<g id="a_edge16_Node000015_Node000016"><a xlink:title=" ">
<path fill="none" stroke="#63b8ff" d="M342.91,-204.46C404.74,-198.78 493.19,-190.66 550.92,-185.36"/>
<polygon fill="#63b8ff" stroke="#63b8ff" points="550.89,-188.88 560.53,-184.48 550.25,-181.9 550.89,-188.88"/>
</a>
</g>
</g>
<!-- Node15&#45;&gt;Node17 -->
<g id="edge23_Node000015_Node000017" class="edge">
<title>Node15&#45;&gt;Node17</title>
<g id="a_edge23_Node000015_Node000017"><a xlink:title=" ">
<path fill="none" stroke="#63b8ff" d="M322.39,-200.61C329.36,-198.27 336.26,-195.43 342.5,-192 361.53,-181.55 359.99,-170.33 378.5,-159 384.17,-155.53 390.42,-152.43 396.73,-149.71"/>
<polygon fill="#63b8ff" stroke="#63b8ff" points="397.93,-153 405.92,-146.05 395.33,-146.5 397.93,-153"/>
</a>
</g>
</g>
<!-- Node16&#45;&gt;Node3 -->
<g id="edge17_Node000016_Node000003" class="edge">
<title>Node16&#45;&gt;Node3</title>
<g id="a_edge17_Node000016_Node000003"><a xlink:title=" ">
<path fill="none" stroke="#63b8ff" d="M656.86,-196.49C663.13,-199.14 669.41,-202 675.25,-205 692.83,-214.03 711.37,-225.82 726.46,-236.08"/>
<polygon fill="#63b8ff" stroke="#63b8ff" points="724.38,-238.9 734.6,-241.7 728.36,-233.14 724.38,-238.9"/>
</a>
</g>
</g>
<!-- Node17&#45;&gt;Node4 -->
<g id="edge25_Node000017_Node000004" class="edge">
<title>Node17&#45;&gt;Node4</title>
<g id="a_edge25_Node000017_Node000004"><a xlink:title=" ">
<path fill="none" stroke="#63b8ff" d="M509.37,-135C518.35,-135 527.62,-135 536.74,-135"/>
<polygon fill="#63b8ff" stroke="#63b8ff" points="536.65,-138.5 546.65,-135 536.65,-131.5 536.65,-138.5"/>
</a>
</g>
</g>
<!-- Node17&#45;&gt;Node16 -->
<g id="edge24_Node000017_Node000016" class="edge">
<title>Node17&#45;&gt;Node16</title>
<g id="a_edge24_Node000017_Node000016"><a xlink:title=" ">
<path fill="none" stroke="#63b8ff" d="M483,-145.44C503.21,-150.97 528.47,-157.89 551.08,-164.07"/>
<polygon fill="#63b8ff" stroke="#63b8ff" points="549.9,-167.38 560.47,-166.64 551.75,-160.63 549.9,-167.38"/>
</a>
</g>
</g>
</g>
</svg>
