<?xml version="1.0" encoding="UTF-8" standalone="no"?>
<!DOCTYPE svg PUBLIC "-//W3C//DTD SVG 1.1//EN"
 "http://www.w3.org/Graphics/SVG/1.1/DTD/svg11.dtd">
<!-- Generated by graphviz version 14.1.2 (20260124.0452)
 -->
<!-- Title: GEBalljoint::ComputeMatrix Pages: 1 -->
<svg width="512pt" height="142pt"
 viewBox="0.00 0.00 512.00 142.00" xmlns="http://www.w3.org/2000/svg" xmlns:xlink="http://www.w3.org/1999/xlink">
<g id="graph0" class="graph" transform="scale(1 1) rotate(0) translate(4 138)">
<title>GEBalljoint::ComputeMatrix</title>
<!-- Node1 -->
<g id="Node000001" class="node">
<title>Node1</title>
<g id="a_Node000001"><a xlink:title="Calcula la matriz de transformación local.">
<polygon fill="#999999" stroke="#666666" points="504,-77 366.5,-77 366.5,-57 504,-57 504,-77"/>
<text xml:space="preserve" text-anchor="middle" x="435.25" y="-63.5" font-family="Helvetica,sans-Serif" font-size="10.00">GEBalljoint::ComputeMatrix</text>
</a>
</g>
</g>
<!-- Node2 -->
<g id="Node000002" class="node">
<title>Node2</title>
<g id="a_Node000002"><a xlink:href="class_g_e_balljoint.html#a24be8e14789a18a48061b2beb7b27cac" target="_top" xlink:title="Inicializa las piezas de la articulación.">
<polygon fill="white" stroke="#666666" points="311.38,-134 205.38,-134 205.38,-114 311.38,-114 311.38,-134"/>
<text xml:space="preserve" text-anchor="middle" x="258.38" y="-120.5" font-family="Helvetica,sans-Serif" font-size="10.00">GEBalljoint::initialize</text>
</a>
</g>
</g>
<!-- Node1&#45;&gt;Node2 -->
<g id="edge1_Node000001_Node000002" class="edge">
<title>Node1&#45;&gt;Node2</title>
<g id="a_edge1_Node000001_Node000002"><a xlink:title=" ">
<path fill="none" stroke="#63b8ff" d="M397.37,-81.43C377.67,-88.9 352.93,-97.91 330.5,-105 320.99,-108 310.68,-110.94 300.93,-113.57"/>
<polygon fill="#63b8ff" stroke="#63b8ff" points="398.53,-84.73 406.62,-77.89 396.03,-78.19 398.53,-84.73"/>
</a>
</g>
</g>
<!-- Node4 -->
<g id="Node000004" class="node">
<title>Node4</title>
<g id="a_Node000004"><a xlink:href="class_g_e_balljoint.html#abfdd7d5e7ed563d568b6f5d0cef41527" target="_top" xlink:title="Asigna la posición de la articulación.">
<polygon fill="white" stroke="#666666" points="318.88,-96 197.88,-96 197.88,-76 318.88,-76 318.88,-96"/>
<text xml:space="preserve" text-anchor="middle" x="258.38" y="-82.5" font-family="Helvetica,sans-Serif" font-size="10.00">GEBalljoint::setLocation</text>
</a>
</g>
</g>
<!-- Node1&#45;&gt;Node4 -->
<g id="edge3_Node000001_Node000004" class="edge">
<title>Node1&#45;&gt;Node4</title>
<g id="a_edge3_Node000001_Node000004"><a xlink:title=" ">
<path fill="none" stroke="#63b8ff" d="M354.8,-75.63C342.88,-76.93 330.76,-78.24 319.34,-79.49"/>
<polygon fill="#63b8ff" stroke="#63b8ff" points="355.07,-79.12 364.63,-74.56 354.31,-72.16 355.07,-79.12"/>
</a>
</g>
</g>
<!-- Node5 -->
<g id="Node000005" class="node">
<title>Node5</title>
<g id="a_Node000005"><a xlink:href="class_g_e_balljoint.html#abbaee46230674d60e6b22e9fb386fc0d" target="_top" xlink:title="Asigna la orientación de la articulación.">
<polygon fill="white" stroke="#666666" points="324.12,-58 192.62,-58 192.62,-38 324.12,-38 324.12,-58"/>
<text xml:space="preserve" text-anchor="middle" x="258.38" y="-44.5" font-family="Helvetica,sans-Serif" font-size="10.00">GEBalljoint::setOrientation</text>
</a>
</g>
</g>
<!-- Node1&#45;&gt;Node5 -->
<g id="edge4_Node000001_Node000005" class="edge">
<title>Node1&#45;&gt;Node5</title>
<g id="a_edge4_Node000001_Node000005"><a xlink:title=" ">
<path fill="none" stroke="#63b8ff" d="M354.77,-58.36C344.62,-57.26 334.32,-56.14 324.44,-55.07"/>
<polygon fill="#63b8ff" stroke="#63b8ff" points="354.31,-61.84 364.63,-59.44 355.07,-54.88 354.31,-61.84"/>
</a>
</g>
</g>
<!-- Node6 -->
<g id="Node000006" class="node">
<title>Node6</title>
<g id="a_Node000006"><a xlink:href="class_g_e_balljoint.html#a3c4302bc1926bf8e54cab4b7c3b2ef4a" target="_top" xlink:title="Actualiza recursivamente con matriz del padre.">
<polygon fill="white" stroke="#666666" points="330.5,-20 186.25,-20 186.25,0 330.5,0 330.5,-20"/>
<text xml:space="preserve" text-anchor="middle" x="258.38" y="-6.5" font-family="Helvetica,sans-Serif" font-size="10.00">GEBalljoint::updateRecursive</text>
</a>
</g>
</g>
<!-- Node1&#45;&gt;Node6 -->
<g id="edge5_Node000001_Node000006" class="edge">
<title>Node1&#45;&gt;Node6</title>
<g id="a_edge5_Node000001_Node000006"><a xlink:title=" ">
<path fill="none" stroke="#63b8ff" d="M397.37,-52.57C377.67,-45.1 352.93,-36.09 330.5,-29 320.99,-26 310.68,-23.06 300.93,-20.43"/>
<polygon fill="#63b8ff" stroke="#63b8ff" points="396.03,-55.81 406.62,-56.11 398.53,-49.27 396.03,-55.81"/>
</a>
</g>
</g>
<!-- Node3 -->
<g id="Node000003" class="node">
<title>Node3</title>
<g id="a_Node000003"><a xlink:href="class_g_e_balljoint.html#a2f2063c302507432f32a5f07333f934a" target="_top" xlink:title="Inicializa recursivamente esta articulación y sus hijas.">
<polygon fill="white" stroke="#666666" points="150.25,-134 0,-134 0,-114 150.25,-114 150.25,-134"/>
<text xml:space="preserve" text-anchor="middle" x="75.12" y="-120.5" font-family="Helvetica,sans-Serif" font-size="10.00">GEBalljoint::initializeRecursive</text>
</a>
</g>
</g>
<!-- Node2&#45;&gt;Node3 -->
<g id="edge2_Node000002_Node000003" class="edge">
<title>Node2&#45;&gt;Node3</title>
<g id="a_edge2_Node000002_Node000003"><a xlink:title=" ">
<path fill="none" stroke="#63b8ff" d="M193.55,-124C179.69,-124 164.91,-124 150.68,-124"/>
<polygon fill="#63b8ff" stroke="#63b8ff" points="193.44,-127.5 203.44,-124 193.44,-120.5 193.44,-127.5"/>
</a>
</g>
</g>
</g>
</svg>
