<?xml version="1.0" encoding="UTF-8" standalone="no"?>
<!DOCTYPE svg PUBLIC "-//W3C//DTD SVG 1.1//EN"
 "http://www.w3.org/Graphics/SVG/1.1/DTD/svg11.dtd">
<!-- Generated by graphviz version 14.1.2 (20260124.0452)
 -->
<!-- Title: xpath_string::from_heap Pages: 1 -->
<svg width="662pt" height="204pt"
 viewBox="0.00 0.00 662.00 204.00" xmlns="http://www.w3.org/2000/svg" xmlns:xlink="http://www.w3.org/1999/xlink">
<g id="graph0" class="graph" transform="scale(1 1) rotate(0) translate(4 200)">
<title>xpath_string::from_heap</title>
<!-- Node1 -->
<g id="Node000001" class="node">
<title>Node1</title>
<g id="a_Node000001"><a xlink:title=" ">
<polygon fill="#999999" stroke="#666666" points="121,-120 0,-120 0,-100 121,-100 121,-120"/>
<text xml:space="preserve" text-anchor="middle" x="60.5" y="-106.5" font-family="Helvetica,sans-Serif" font-size="10.00">xpath_string::from_heap</text>
</a>
</g>
</g>
<!-- Node2 -->
<g id="Node000002" class="node">
<title>Node2</title>
<g id="a_Node000002"><a xlink:href="classxpath__string.html#abe89ae1270e25022aa8ccc332f5afbb3" target="_top" xlink:title=" ">
<polygon fill="white" stroke="#666666" points="253.62,-196 159.62,-196 159.62,-176 253.62,-176 253.62,-196"/>
<text xml:space="preserve" text-anchor="middle" x="206.62" y="-182.5" font-family="Helvetica,sans-Serif" font-size="10.00">xpath_string::data</text>
</a>
</g>
</g>
<!-- Node1&#45;&gt;Node2 -->
<g id="edge1_Node000001_Node000002" class="edge">
<title>Node1&#45;&gt;Node2</title>
<g id="a_edge1_Node000001_Node000002"><a xlink:title=" ">
<path fill="none" stroke="#63b8ff" d="M80.05,-120.39C99.2,-131.04 130.02,-148 157,-162 162.54,-164.87 168.46,-167.86 174.21,-170.72"/>
<polygon fill="#63b8ff" stroke="#63b8ff" points="172.36,-173.71 182.87,-175 175.45,-167.44 172.36,-173.71"/>
</a>
</g>
</g>
<!-- Node3 -->
<g id="Node000003" class="node">
<title>Node3</title>
<g id="a_Node000003"><a xlink:href="classxpath__string.html#af3866c73a21542e26032d5d052327cc1" target="_top" xlink:title=" ">
<polygon fill="white" stroke="#666666" points="406.5,-170 292.25,-170 292.25,-138 406.5,-138 406.5,-170"/>
<text xml:space="preserve" text-anchor="start" x="300.25" y="-156.5" font-family="Helvetica,sans-Serif" font-size="10.00">xpath_string::duplicate</text>
<text xml:space="preserve" text-anchor="middle" x="349.38" y="-144.5" font-family="Helvetica,sans-Serif" font-size="10.00">_string</text>
</a>
</g>
</g>
<!-- Node1&#45;&gt;Node3 -->
<g id="edge7_Node000001_Node000003" class="edge">
<title>Node1&#45;&gt;Node3</title>
<g id="a_edge7_Node000001_Node000003"><a xlink:title=" ">
<path fill="none" stroke="#63b8ff" d="M121.29,-119.17C167.81,-126.31 232.37,-136.21 280.77,-143.63"/>
<polygon fill="#63b8ff" stroke="#63b8ff" points="280.16,-147.08 290.58,-145.14 281.23,-140.16 280.16,-147.08"/>
</a>
</g>
</g>
<!-- Node5 -->
<g id="Node000005" class="node">
<title>Node5</title>
<g id="a_Node000005"><a xlink:href="classxpath__string.html#a8469bd7512df66adabd3f5144c4b2ef7" target="_top" xlink:title=" ">
<polygon fill="white" stroke="#666666" points="554.12,-129 452.62,-129 452.62,-109 554.12,-109 554.12,-129"/>
<text xml:space="preserve" text-anchor="middle" x="503.38" y="-115.5" font-family="Helvetica,sans-Serif" font-size="10.00">xpath_string::length</text>
</a>
</g>
</g>
<!-- Node1&#45;&gt;Node5 -->
<g id="edge8_Node000001_Node000005" class="edge">
<title>Node1&#45;&gt;Node5</title>
<g id="a_edge8_Node000001_Node000005"><a xlink:title=" ">
<path fill="none" stroke="#63b8ff" d="M121.42,-111.22C205.07,-112.93 356.07,-116.01 440.66,-117.74"/>
<polygon fill="#63b8ff" stroke="#63b8ff" points="440.56,-121.24 450.63,-117.94 440.71,-114.24 440.56,-121.24"/>
</a>
</g>
</g>
<!-- Node7 -->
<g id="Node000007" class="node">
<title>Node7</title>
<g id="a_Node000007"><a xlink:href="classxpath__string.html#a6c415f55011c6b816446d7454d1e9d2c" target="_top" xlink:title=" ">
<polygon fill="white" stroke="#666666" points="256.25,-82 157,-82 157,-50 256.25,-50 256.25,-82"/>
<text xml:space="preserve" text-anchor="start" x="165" y="-68.5" font-family="Helvetica,sans-Serif" font-size="10.00">xpath_string::xpath</text>
<text xml:space="preserve" text-anchor="middle" x="206.62" y="-56.5" font-family="Helvetica,sans-Serif" font-size="10.00">_string</text>
</a>
</g>
</g>
<!-- Node1&#45;&gt;Node7 -->
<g id="edge9_Node000001_Node000007" class="edge">
<title>Node1&#45;&gt;Node7</title>
<g id="a_edge9_Node000001_Node000007"><a xlink:title=" ">
<path fill="none" stroke="#63b8ff" d="M95.66,-99.57C110.75,-94.96 128.95,-89.41 146.16,-84.15"/>
<polygon fill="#63b8ff" stroke="#63b8ff" points="146.72,-87.64 155.27,-81.37 144.68,-80.95 146.72,-87.64"/>
</a>
</g>
</g>
<!-- Node8 -->
<g id="Node000008" class="node">
<title>Node8</title>
<g id="a_Node000008"><a xlink:href="classxpath__string.html#a93704af22ba77956cae8ec65f84658d8" target="_top" xlink:title=" ">
<polygon fill="white" stroke="#666666" points="256.25,-32 157,-32 157,0 256.25,0 256.25,-32"/>
<text xml:space="preserve" text-anchor="start" x="165" y="-18.5" font-family="Helvetica,sans-Serif" font-size="10.00">xpath_string::xpath</text>
<text xml:space="preserve" text-anchor="middle" x="206.62" y="-6.5" font-family="Helvetica,sans-Serif" font-size="10.00">_string</text>
</a>
</g>
</g>
<!-- Node1&#45;&gt;Node8 -->
<g id="edge10_Node000001_Node000008" class="edge">
<title>Node1&#45;&gt;Node8</title>
<g id="a_edge10_Node000001_Node000008"><a xlink:title=" ">
<path fill="none" stroke="#63b8ff" d="M74.66,-99.51C92.68,-85.38 126.31,-59.83 157,-41 158.64,-39.99 160.33,-38.99 162.04,-37.99"/>
<polygon fill="#63b8ff" stroke="#63b8ff" points="163.68,-41.09 170.72,-33.16 160.28,-34.97 163.68,-41.09"/>
</a>
</g>
</g>
<!-- Node2&#45;&gt;Node3 -->
<g id="edge2_Node000002_Node000003" class="edge">
<title>Node2&#45;&gt;Node3</title>
<g id="a_edge2_Node000002_Node000003"><a xlink:title=" ">
<path fill="none" stroke="#63b8ff" d="M253.71,-175.52C262.38,-173.55 271.6,-171.46 280.76,-169.37"/>
<polygon fill="#63b8ff" stroke="#63b8ff" points="281.41,-172.81 290.39,-167.18 279.86,-165.99 281.41,-172.81"/>
</a>
</g>
</g>
<!-- Node6 -->
<g id="Node000006" class="node">
<title>Node6</title>
<g id="a_Node000006"><a xlink:href="pugixml_8cpp.html#a775f7b78d2f13c1b72d69b114599461d" target="_top" xlink:title=" ">
<polygon fill="white" stroke="#666666" points="653.75,-167 600.25,-167 600.25,-147 653.75,-147 653.75,-167"/>
<text xml:space="preserve" text-anchor="middle" x="627" y="-153.5" font-family="Helvetica,sans-Serif" font-size="10.00">strlength</text>
</a>
</g>
</g>
<!-- Node2&#45;&gt;Node6 -->
<g id="edge6_Node000002_Node000006" class="edge">
<title>Node2&#45;&gt;Node6</title>
<g id="a_edge6_Node000002_Node000006"><a xlink:title=" ">
<path fill="none" stroke="#63b8ff" d="M253.88,-188.66C322.26,-191.7 454.09,-194.15 564.25,-176 572.37,-174.66 580.92,-172.53 588.97,-170.17"/>
<polygon fill="#63b8ff" stroke="#63b8ff" points="589.99,-173.51 598.49,-167.19 587.9,-166.83 589.99,-173.51"/>
</a>
</g>
</g>
<!-- Node4 -->
<g id="Node000004" class="node">
<title>Node4</title>
<g id="a_Node000004"><a xlink:href="structxpath__allocator.html#a6c13fefbd7038d78b336987f396c8415" target="_top" xlink:title=" ">
<polygon fill="white" stroke="#666666" points="564.25,-167 442.5,-167 442.5,-147 564.25,-147 564.25,-167"/>
<text xml:space="preserve" text-anchor="middle" x="503.38" y="-153.5" font-family="Helvetica,sans-Serif" font-size="10.00">xpath_allocator::allocate</text>
</a>
</g>
</g>
<!-- Node3&#45;&gt;Node4 -->
<g id="edge3_Node000003_Node000004" class="edge">
<title>Node3&#45;&gt;Node4</title>
<g id="a_edge3_Node000003_Node000004"><a xlink:title=" ">
<path fill="none" stroke="#63b8ff" d="M406.97,-155.12C414.78,-155.27 422.87,-155.43 430.9,-155.59"/>
<polygon fill="#63b8ff" stroke="#63b8ff" points="430.58,-159.08 440.65,-155.78 430.72,-152.09 430.58,-159.08"/>
</a>
</g>
</g>
<!-- Node3&#45;&gt;Node5 -->
<g id="edge4_Node000003_Node000005" class="edge">
<title>Node3&#45;&gt;Node5</title>
<g id="a_edge4_Node000003_Node000005"><a xlink:title=" ">
<path fill="none" stroke="#63b8ff" d="M406.97,-140.97C419.77,-138.02 433.35,-134.89 446.13,-131.95"/>
<polygon fill="#63b8ff" stroke="#63b8ff" points="446.68,-135.42 455.64,-129.76 445.11,-128.59 446.68,-135.42"/>
</a>
</g>
</g>
<!-- Node5&#45;&gt;Node6 -->
<g id="edge5_Node000005_Node000006" class="edge">
<title>Node5&#45;&gt;Node6</title>
<g id="a_edge5_Node000005_Node000006"><a xlink:title=" ">
<path fill="none" stroke="#63b8ff" d="M537.93,-129.48C553.81,-134.45 572.82,-140.39 589.11,-145.47"/>
<polygon fill="#63b8ff" stroke="#63b8ff" points="587.84,-148.75 598.43,-148.39 589.93,-142.06 587.84,-148.75"/>
</a>
</g>
</g>
</g>
</svg>
