<?xml version="1.0" encoding="UTF-8" standalone="no"?>
<!DOCTYPE svg PUBLIC "-//W3C//DTD SVG 1.1//EN"
 "http://www.w3.org/Graphics/SVG/1.1/DTD/svg11.dtd">
<!-- Generated by graphviz version 14.1.2 (20260124.0452)
 -->
<!-- Title: pugi::xml_attribute::value Pages: 1 -->
<svg width="1114pt" height="278pt"
 viewBox="0.00 0.00 1114.00 278.00" xmlns="http://www.w3.org/2000/svg" xmlns:xlink="http://www.w3.org/1999/xlink">
<g id="graph0" class="graph" transform="scale(1 1) rotate(0) translate(4 274)">
<title>pugi::xml_attribute::value</title>
<!-- Node1 -->
<g id="Node000001" class="node">
<title>Node1</title>
<g id="a_Node000001"><a xlink:title=" ">
<polygon fill="#999999" stroke="#666666" points="1105.75,-145 1009.5,-145 1009.5,-113 1105.75,-113 1105.75,-145"/>
<text xml:space="preserve" text-anchor="start" x="1017.5" y="-131.5" font-family="Helvetica,sans-Serif" font-size="10.00">pugi::xml_attribute</text>
<text xml:space="preserve" text-anchor="middle" x="1057.62" y="-119.5" font-family="Helvetica,sans-Serif" font-size="10.00">::value</text>
</a>
</g>
</g>
<!-- Node1&#45;&gt;Node1 -->
<g id="edge17_Node000001_Node000001" class="edge">
<title>Node1&#45;&gt;Node1</title>
<g id="a_edge17_Node000001_Node000001"><a xlink:title=" ">
<path fill="none" stroke="#63b8ff" d="M1079.66,-156.71C1075.99,-160.48 1068.64,-163 1057.62,-163 1037.48,-163 1029.61,-154.58 1034.01,-145.44"/>
<polygon fill="#63b8ff" stroke="#63b8ff" points="1083.11,-157.33 1081.03,-146.94 1076.18,-156.36 1083.11,-157.33"/>
</a>
</g>
</g>
<!-- Node2 -->
<g id="Node000002" class="node">
<title>Node2</title>
<g id="a_Node000002"><a xlink:href="classpugi_1_1xml__attribute.html#af645abaa2c3f6f9c63eb56a1f45b8f3f" target="_top" xlink:title=" ">
<polygon fill="white" stroke="#666666" points="973.5,-270 877.25,-270 877.25,-238 973.5,-238 973.5,-270"/>
<text xml:space="preserve" text-anchor="start" x="885.25" y="-256.5" font-family="Helvetica,sans-Serif" font-size="10.00">pugi::xml_attribute</text>
<text xml:space="preserve" text-anchor="middle" x="925.38" y="-244.5" font-family="Helvetica,sans-Serif" font-size="10.00">::as_bool</text>
</a>
</g>
</g>
<!-- Node1&#45;&gt;Node2 -->
<g id="edge1_Node000001_Node000002" class="edge">
<title>Node1&#45;&gt;Node2</title>
<g id="a_edge1_Node000001_Node000002"><a xlink:title=" ">
<path fill="none" stroke="#63b8ff" d="M1039.73,-154.49C1024.36,-176.26 1000.09,-207.39 973.5,-229 969.62,-232.15 965.28,-235.09 960.85,-237.76"/>
<polygon fill="#63b8ff" stroke="#63b8ff" points="1042.47,-156.68 1045.27,-146.46 1036.71,-152.7 1042.47,-156.68"/>
</a>
</g>
</g>
<!-- Node3 -->
<g id="Node000003" class="node">
<title>Node3</title>
<g id="a_Node000003"><a xlink:href="classpugi_1_1xml__attribute.html#a49afd0613a9206637e40e50157438bba" target="_top" xlink:title=" ">
<polygon fill="white" stroke="#666666" points="973.5,-220 877.25,-220 877.25,-188 973.5,-188 973.5,-220"/>
<text xml:space="preserve" text-anchor="start" x="885.25" y="-206.5" font-family="Helvetica,sans-Serif" font-size="10.00">pugi::xml_attribute</text>
<text xml:space="preserve" text-anchor="middle" x="925.38" y="-194.5" font-family="Helvetica,sans-Serif" font-size="10.00">::as_double</text>
</a>
</g>
</g>
<!-- Node1&#45;&gt;Node3 -->
<g id="edge2_Node000001_Node000003" class="edge">
<title>Node1&#45;&gt;Node3</title>
<g id="a_edge2_Node000001_Node000003"><a xlink:title=" ">
<path fill="none" stroke="#63b8ff" d="M1020.64,-151.22C1006.1,-160.05 989.1,-170.18 973.5,-179 968.5,-181.83 963.16,-184.75 957.94,-187.56"/>
<polygon fill="#63b8ff" stroke="#63b8ff" points="1022.25,-154.34 1028.97,-146.14 1018.61,-148.36 1022.25,-154.34"/>
</a>
</g>
</g>
<!-- Node4 -->
<g id="Node000004" class="node">
<title>Node4</title>
<g id="a_Node000004"><a xlink:href="classpugi_1_1xml__attribute.html#af245d352a69150cb6b556d1400f24f8b" target="_top" xlink:title=" ">
<polygon fill="white" stroke="#666666" points="973.5,-170 877.25,-170 877.25,-138 973.5,-138 973.5,-170"/>
<text xml:space="preserve" text-anchor="start" x="885.25" y="-156.5" font-family="Helvetica,sans-Serif" font-size="10.00">pugi::xml_attribute</text>
<text xml:space="preserve" text-anchor="middle" x="925.38" y="-144.5" font-family="Helvetica,sans-Serif" font-size="10.00">::as_float</text>
</a>
</g>
</g>
<!-- Node1&#45;&gt;Node4 -->
<g id="edge3_Node000001_Node000004" class="edge">
<title>Node1&#45;&gt;Node4</title>
<g id="a_edge3_Node000001_Node000004"><a xlink:title=" ">
<path fill="none" stroke="#63b8ff" d="M998,-140.25C989.95,-141.8 981.77,-143.37 973.95,-144.87"/>
<polygon fill="#63b8ff" stroke="#63b8ff" points="998.59,-143.7 1007.75,-138.38 997.27,-136.83 998.59,-143.7"/>
</a>
</g>
</g>
<!-- Node10 -->
<g id="Node000010" class="node">
<title>Node10</title>
<g id="a_Node000010"><a xlink:href="classpugi_1_1xml__attribute.html#af4cccce101e1dfda71c508184b691d07" target="_top" xlink:title=" ">
<polygon fill="white" stroke="#666666" points="973.5,-120 877.25,-120 877.25,-88 973.5,-88 973.5,-120"/>
<text xml:space="preserve" text-anchor="start" x="885.25" y="-106.5" font-family="Helvetica,sans-Serif" font-size="10.00">pugi::xml_attribute</text>
<text xml:space="preserve" text-anchor="middle" x="925.38" y="-94.5" font-family="Helvetica,sans-Serif" font-size="10.00">::as_int</text>
</a>
</g>
</g>
<!-- Node1&#45;&gt;Node10 -->
<g id="edge12_Node000001_Node000010" class="edge">
<title>Node1&#45;&gt;Node10</title>
<g id="a_edge12_Node000001_Node000010"><a xlink:title=" ">
<path fill="none" stroke="#63b8ff" d="M998,-117.75C989.95,-116.2 981.77,-114.63 973.95,-113.13"/>
<polygon fill="#63b8ff" stroke="#63b8ff" points="997.27,-121.17 1007.75,-119.62 998.59,-114.3 997.27,-121.17"/>
</a>
</g>
</g>
<!-- Node11 -->
<g id="Node000011" class="node">
<title>Node11</title>
<g id="a_Node000011"><a xlink:href="classpugi_1_1xml__attribute.html#ae5f55e07fdbe1b862af67cf9eb5678a3" target="_top" xlink:title=" ">
<polygon fill="white" stroke="#666666" points="824,-79 727.75,-79 727.75,-47 824,-47 824,-79"/>
<text xml:space="preserve" text-anchor="start" x="735.75" y="-65.5" font-family="Helvetica,sans-Serif" font-size="10.00">pugi::xml_attribute</text>
<text xml:space="preserve" text-anchor="middle" x="775.88" y="-53.5" font-family="Helvetica,sans-Serif" font-size="10.00">::as_string</text>
</a>
</g>
</g>
<!-- Node1&#45;&gt;Node11 -->
<g id="edge13_Node000001_Node000011" class="edge">
<title>Node1&#45;&gt;Node11</title>
<g id="a_edge13_Node000001_Node000011"><a xlink:title=" ">
<path fill="none" stroke="#63b8ff" d="M1026.42,-106.2C1011.33,-96.06 992.31,-85.05 973.5,-79 924.27,-63.16 864.71,-60.44 824.13,-60.87"/>
<polygon fill="#63b8ff" stroke="#63b8ff" points="1024.29,-108.98 1034.49,-111.82 1028.29,-103.23 1024.29,-108.98"/>
</a>
</g>
</g>
<!-- Node12 -->
<g id="Node000012" class="node">
<title>Node12</title>
<g id="a_Node000012"><a xlink:href="classpugi_1_1xml__attribute.html#ad64ee84a6fc04154e7567ca2f4d76056" target="_top" xlink:title=" ">
<polygon fill="white" stroke="#666666" points="973.5,-32 877.25,-32 877.25,0 973.5,0 973.5,-32"/>
<text xml:space="preserve" text-anchor="start" x="885.25" y="-18.5" font-family="Helvetica,sans-Serif" font-size="10.00">pugi::xml_attribute</text>
<text xml:space="preserve" text-anchor="middle" x="925.38" y="-6.5" font-family="Helvetica,sans-Serif" font-size="10.00">::as_uint</text>
</a>
</g>
</g>
<!-- Node1&#45;&gt;Node12 -->
<g id="edge16_Node000001_Node000012" class="edge">
<title>Node1&#45;&gt;Node12</title>
<g id="a_edge16_Node000001_Node000012"><a xlink:title=" ">
<path fill="none" stroke="#63b8ff" d="M1034.49,-104.19C1018.44,-86.89 995.72,-63.82 973.5,-46 967.6,-41.27 960.92,-36.63 954.48,-32.48"/>
<polygon fill="#63b8ff" stroke="#63b8ff" points="1031.89,-106.53 1041.22,-111.54 1037.05,-101.8 1031.89,-106.53"/>
</a>
</g>
</g>
<!-- Node5 -->
<g id="Node000005" class="node">
<title>Node5</title>
<g id="a_Node000005"><a xlink:href="class_g_e_x_m_l_parser.html#af7e66e11e1a8973779770daa1ad6f653" target="_top" xlink:title="Parsea una articulación y sus hijas recursivamente.">
<polygon fill="white" stroke="#666666" points="674.5,-111 531,-111 531,-91 674.5,-91 674.5,-111"/>
<text xml:space="preserve" text-anchor="middle" x="602.75" y="-97.5" font-family="Helvetica,sans-Serif" font-size="10.00">GEXMLParser::parseBalljoint</text>
</a>
</g>
</g>
<!-- Node4&#45;&gt;Node5 -->
<g id="edge4_Node000004_Node000005" class="edge">
<title>Node4&#45;&gt;Node5</title>
<g id="a_edge4_Node000004_Node000005"><a xlink:title=" ">
<path fill="none" stroke="#63b8ff" d="M865.92,-140C857.66,-138.21 849.26,-136.49 841.25,-135 785.65,-124.69 722.24,-115.75 674.93,-109.63"/>
<polygon fill="#63b8ff" stroke="#63b8ff" points="865.04,-143.39 875.56,-142.14 866.56,-136.56 865.04,-143.39"/>
</a>
</g>
</g>
<!-- Node9 -->
<g id="Node000009" class="node">
<title>Node9</title>
<g id="a_Node000009"><a xlink:href="class_g_e_x_m_l_parser.html#aa8e732df591d508941d3c717188b7266" target="_top" xlink:title="Parsea un nodo vec3 (offset, zaxis, yaxis).">
<polygon fill="white" stroke="#666666" points="841.25,-164 710.5,-164 710.5,-144 841.25,-144 841.25,-164"/>
<text xml:space="preserve" text-anchor="middle" x="775.88" y="-150.5" font-family="Helvetica,sans-Serif" font-size="10.00">GEXMLParser::parseVec3</text>
</a>
</g>
</g>
<!-- Node4&#45;&gt;Node9 -->
<g id="edge9_Node000004_Node000009" class="edge">
<title>Node4&#45;&gt;Node9</title>
<g id="a_edge9_Node000004_Node000009"><a xlink:title=" ">
<path fill="none" stroke="#63b8ff" d="M865.61,-154C857.76,-154 849.68,-154 841.74,-154"/>
<polygon fill="#63b8ff" stroke="#63b8ff" points="865.38,-157.5 875.38,-154 865.38,-150.5 865.38,-157.5"/>
</a>
</g>
</g>
<!-- Node5&#45;&gt;Node5 -->
<g id="edge5_Node000005_Node000005" class="edge">
<title>Node5&#45;&gt;Node5</title>
<g id="a_edge5_Node000005_Node000005"><a xlink:title=" ">
<path fill="none" stroke="#63b8ff" d="M633.67,-122.11C629.99,-126.14 619.68,-129 602.75,-129 572.66,-129 563.49,-119.98 575.24,-111.34"/>
<polygon fill="#63b8ff" stroke="#63b8ff" points="637.07,-121.26 630.72,-112.78 630.4,-123.37 637.07,-121.26"/>
</a>
</g>
</g>
<!-- Node6 -->
<g id="Node000006" class="node">
<title>Node6</title>
<g id="a_Node000006"><a xlink:href="class_g_e_x_m_l_parser.html#acd9fc587fbd992edbb51df00549c1bda" target="_top" xlink:title="Parsea un archivo .skel y devuelve los datos del esqueleto.">
<polygon fill="white" stroke="#666666" points="495,-111 332,-111 332,-91 495,-91 495,-111"/>
<text xml:space="preserve" text-anchor="middle" x="413.5" y="-97.5" font-family="Helvetica,sans-Serif" font-size="10.00">GEXMLParser::parseSkeletonFile</text>
</a>
</g>
</g>
<!-- Node5&#45;&gt;Node6 -->
<g id="edge6_Node000005_Node000006" class="edge">
<title>Node5&#45;&gt;Node6</title>
<g id="a_edge6_Node000005_Node000006"><a xlink:title=" ">
<path fill="none" stroke="#63b8ff" d="M519.43,-101C511.4,-101 503.25,-101 495.23,-101"/>
<polygon fill="#63b8ff" stroke="#63b8ff" points="519.18,-104.5 529.18,-101 519.18,-97.5 519.18,-104.5"/>
</a>
</g>
</g>
<!-- Node7 -->
<g id="Node000007" class="node">
<title>Node7</title>
<g id="a_Node000007"><a xlink:href="class_g_e_skeleton.html#ade3f0504c12faea2597ee2c23abf22bd" target="_top" xlink:title="Construye la jerarquía de articulaciones desde body.skel.">
<polygon fill="white" stroke="#666666" points="296,-111 163,-111 163,-91 296,-91 296,-111"/>
<text xml:space="preserve" text-anchor="middle" x="229.5" y="-97.5" font-family="Helvetica,sans-Serif" font-size="10.00">GESkeleton::buildSkeleton</text>
</a>
</g>
</g>
<!-- Node6&#45;&gt;Node7 -->
<g id="edge7_Node000006_Node000007" class="edge">
<title>Node6&#45;&gt;Node7</title>
<g id="a_edge7_Node000006_Node000007"><a xlink:title=" ">
<path fill="none" stroke="#63b8ff" d="M320.26,-101C312.21,-101 304.18,-101 296.41,-101"/>
<polygon fill="#63b8ff" stroke="#63b8ff" points="320.1,-104.5 330.1,-101 320.1,-97.5 320.1,-104.5"/>
</a>
</g>
</g>
<!-- Node8 -->
<g id="Node000008" class="node">
<title>Node8</title>
<g id="a_Node000008"><a xlink:href="class_g_e_skeleton.html#ad854854fdf1e4d090553d4d6edbfe095" target="_top" xlink:title="Constructor del esqueleto.">
<polygon fill="white" stroke="#666666" points="127,-111 0,-111 0,-91 127,-91 127,-111"/>
<text xml:space="preserve" text-anchor="middle" x="63.5" y="-97.5" font-family="Helvetica,sans-Serif" font-size="10.00">GESkeleton::GESkeleton</text>
</a>
</g>
</g>
<!-- Node7&#45;&gt;Node8 -->
<g id="edge8_Node000007_Node000008" class="edge">
<title>Node7&#45;&gt;Node8</title>
<g id="a_edge8_Node000007_Node000008"><a xlink:title=" ">
<path fill="none" stroke="#63b8ff" d="M151.41,-101C143.35,-101 135.22,-101 127.34,-101"/>
<polygon fill="#63b8ff" stroke="#63b8ff" points="151.23,-104.5 161.23,-101 151.23,-97.5 151.23,-104.5"/>
</a>
</g>
</g>
<!-- Node9&#45;&gt;Node5 -->
<g id="edge10_Node000009_Node000005" class="edge">
<title>Node9&#45;&gt;Node5</title>
<g id="a_edge10_Node000009_Node000005"><a xlink:title=" ">
<path fill="none" stroke="#63b8ff" d="M730.39,-140.22C701.36,-131.23 664.07,-119.68 637.49,-111.45"/>
<polygon fill="#63b8ff" stroke="#63b8ff" points="729.03,-143.47 739.62,-143.08 731.1,-136.78 729.03,-143.47"/>
</a>
</g>
</g>
<!-- Node9&#45;&gt;Node6 -->
<g id="edge11_Node000009_Node000006" class="edge">
<title>Node9&#45;&gt;Node6</title>
<g id="a_edge11_Node000009_Node000006"><a xlink:title=" ">
<path fill="none" stroke="#63b8ff" d="M698.82,-153.73C650.41,-152.39 586.58,-148.49 531,-138 499.3,-132.02 464.18,-120.1 440.87,-111.4"/>
<polygon fill="#63b8ff" stroke="#63b8ff" points="698.56,-157.22 708.64,-153.96 698.73,-150.22 698.56,-157.22"/>
</a>
</g>
</g>
<!-- Node11&#45;&gt;Node5 -->
<g id="edge14_Node000011_Node000005" class="edge">
<title>Node11&#45;&gt;Node5</title>
<g id="a_edge14_Node000011_Node000005"><a xlink:title=" ">
<path fill="none" stroke="#63b8ff" d="M716.7,-75.92C695.23,-80.69 671.18,-86.03 650.81,-90.55"/>
<polygon fill="#63b8ff" stroke="#63b8ff" points="717.18,-79.4 726.18,-73.81 715.66,-72.56 717.18,-79.4"/>
</a>
</g>
</g>
<!-- Node11&#45;&gt;Node6 -->
<g id="edge15_Node000011_Node000006" class="edge">
<title>Node11&#45;&gt;Node6</title>
<g id="a_edge15_Node000011_Node000006"><a xlink:title=" ">
<path fill="none" stroke="#63b8ff" d="M716.11,-66.19C666.63,-69.21 594.04,-74.42 531,-82 511.98,-84.29 491.31,-87.44 472.73,-90.52"/>
<polygon fill="#63b8ff" stroke="#63b8ff" points="716.27,-69.69 726.04,-65.6 715.85,-62.7 716.27,-69.69"/>
</a>
</g>
</g>
</g>
</svg>
