<?xml version="1.0" encoding="UTF-8" standalone="no"?>
<!DOCTYPE svg PUBLIC "-//W3C//DTD SVG 1.1//EN"
 "http://www.w3.org/Graphics/SVG/1.1/DTD/svg11.dtd">
<!-- Generated by graphviz version 14.1.2 (20260124.0452)
 -->
<!-- Title: GERenderingContext::createGraphicsPipeline Pages: 1 -->
<svg width="497pt" height="586pt"
 viewBox="0.00 0.00 497.00 586.00" xmlns="http://www.w3.org/2000/svg" xmlns:xlink="http://www.w3.org/1999/xlink">
<g id="graph0" class="graph" transform="scale(1 1) rotate(0) translate(4 582)">
<title>GERenderingContext::createGraphicsPipeline</title>
<!-- Node1 -->
<g id="Node000001" class="node">
<title>Node1</title>
<g id="a_Node000001"><a xlink:title="Crea el Pipeline de renderizado.">
<polygon fill="#999999" stroke="#666666" points="122.5,-308 0,-308 0,-276 122.5,-276 122.5,-308"/>
<text xml:space="preserve" text-anchor="start" x="8" y="-294.5" font-family="Helvetica,sans-Serif" font-size="10.00">GERenderingContext</text>
<text xml:space="preserve" text-anchor="middle" x="61.25" y="-282.5" font-family="Helvetica,sans-Serif" font-size="10.00">::createGraphicsPipeline</text>
</a>
</g>
</g>
<!-- Node2 -->
<g id="Node000002" class="node">
<title>Node2</title>
<g id="a_Node000002"><a xlink:href="class_g_e_rendering_context.html#a30b91a68b3ab264ec7943ba1ffa14f96" target="_top" xlink:title="Crea la información sobre el Fragment Shader.">
<polygon fill="white" stroke="#666666" points="321.12,-578 174.62,-578 174.62,-534 321.12,-534 321.12,-578"/>
<text xml:space="preserve" text-anchor="start" x="182.62" y="-564.5" font-family="Helvetica,sans-Serif" font-size="10.00">GERenderingContext</text>
<text xml:space="preserve" text-anchor="start" x="182.62" y="-552.5" font-family="Helvetica,sans-Serif" font-size="10.00">::createFragmentShaderStage</text>
<text xml:space="preserve" text-anchor="middle" x="247.88" y="-540.5" font-family="Helvetica,sans-Serif" font-size="10.00">CreateInfo</text>
</a>
</g>
</g>
<!-- Node1&#45;&gt;Node2 -->
<g id="edge1_Node000001_Node000002" class="edge">
<title>Node1&#45;&gt;Node2</title>
<g id="a_edge1_Node000001_Node000002"><a xlink:title=" ">
<path fill="none" stroke="#63b8ff" d="M64.39,-308.4C70.71,-350.46 93.2,-463.15 158.5,-525 160.57,-526.96 162.76,-528.79 165.06,-530.51"/>
<polygon fill="#63b8ff" stroke="#63b8ff" points="162.83,-533.23 173.12,-535.76 166.65,-527.37 162.83,-533.23"/>
</a>
</g>
</g>
<!-- Node5 -->
<g id="Node000005" class="node">
<title>Node5</title>
<g id="a_Node000005"><a xlink:href="class_g_e_rendering_context.html#af69fff24d2239c503976bfd98496eb54" target="_top" xlink:title="Crea la información sobre la etapa de mezcla de colores.">
<polygon fill="white" stroke="#666666" points="313.62,-466 182.12,-466 182.12,-422 313.62,-422 313.62,-466"/>
<text xml:space="preserve" text-anchor="start" x="190.12" y="-452.5" font-family="Helvetica,sans-Serif" font-size="10.00">GERenderingContext</text>
<text xml:space="preserve" text-anchor="start" x="190.12" y="-440.5" font-family="Helvetica,sans-Serif" font-size="10.00">::createPipelineColorBlend</text>
<text xml:space="preserve" text-anchor="middle" x="247.88" y="-428.5" font-family="Helvetica,sans-Serif" font-size="10.00">StateCreateInfo</text>
</a>
</g>
</g>
<!-- Node1&#45;&gt;Node5 -->
<g id="edge4_Node000001_Node000005" class="edge">
<title>Node1&#45;&gt;Node5</title>
<g id="a_edge4_Node000001_Node000005"><a xlink:title=" ">
<path fill="none" stroke="#63b8ff" d="M71.01,-308.12C85.79,-333.85 118.03,-384.22 158.5,-413 162.64,-415.94 167.08,-418.63 171.69,-421.07"/>
<polygon fill="#63b8ff" stroke="#63b8ff" points="170.11,-424.2 180.64,-425.4 173.16,-417.9 170.11,-424.2"/>
</a>
</g>
</g>
<!-- Node6 -->
<g id="Node000006" class="node">
<title>Node6</title>
<g id="a_Node000006"><a xlink:href="class_g_e_rendering_context.html#a1ed7be455efa66dc53a325d0ef41cd31" target="_top" xlink:title="Crea la información sobre los tests de profundidad y de plantilla.">
<polygon fill="white" stroke="#666666" points="317.75,-404 178,-404 178,-360 317.75,-360 317.75,-404"/>
<text xml:space="preserve" text-anchor="start" x="186" y="-390.5" font-family="Helvetica,sans-Serif" font-size="10.00">GERenderingContext</text>
<text xml:space="preserve" text-anchor="start" x="186" y="-378.5" font-family="Helvetica,sans-Serif" font-size="10.00">::createPipelineDepthStencil</text>
<text xml:space="preserve" text-anchor="middle" x="247.88" y="-366.5" font-family="Helvetica,sans-Serif" font-size="10.00">StateCreateInfo</text>
</a>
</g>
</g>
<!-- Node1&#45;&gt;Node6 -->
<g id="edge5_Node000001_Node000006" class="edge">
<title>Node1&#45;&gt;Node6</title>
<g id="a_edge5_Node000001_Node000006"><a xlink:title=" ">
<path fill="none" stroke="#63b8ff" d="M85.59,-308.25C104.6,-321.02 132.48,-338.63 158.5,-351 161.56,-352.45 164.7,-353.88 167.9,-355.26"/>
<polygon fill="#63b8ff" stroke="#63b8ff" points="166.28,-358.38 176.86,-358.98 168.97,-351.91 166.28,-358.38"/>
</a>
</g>
</g>
<!-- Node7 -->
<g id="Node000007" class="node">
<title>Node7</title>
<g id="a_Node000007"><a xlink:href="class_g_e_rendering_context.html#a60ecf0b35e0a983cf9deb3c3d10cb2cc" target="_top" xlink:title="Crea la información para el ensamblado de primitivas.">
<polygon fill="white" stroke="#666666" points="322.25,-342 173.5,-342 173.5,-298 322.25,-298 322.25,-342"/>
<text xml:space="preserve" text-anchor="start" x="181.5" y="-328.5" font-family="Helvetica,sans-Serif" font-size="10.00">GERenderingContext</text>
<text xml:space="preserve" text-anchor="start" x="181.5" y="-316.5" font-family="Helvetica,sans-Serif" font-size="10.00">::createPipelineInputAssembly</text>
<text xml:space="preserve" text-anchor="middle" x="247.88" y="-304.5" font-family="Helvetica,sans-Serif" font-size="10.00">StateCreateInfo</text>
</a>
</g>
</g>
<!-- Node1&#45;&gt;Node7 -->
<g id="edge6_Node000001_Node000007" class="edge">
<title>Node1&#45;&gt;Node7</title>
<g id="a_edge6_Node000001_Node000007"><a xlink:title=" ">
<path fill="none" stroke="#63b8ff" d="M122.96,-301.21C135.52,-303.11 148.97,-305.15 162.21,-307.16"/>
<polygon fill="#63b8ff" stroke="#63b8ff" points="161.35,-310.57 171.76,-308.61 162.4,-303.65 161.35,-310.57"/>
</a>
</g>
</g>
<!-- Node8 -->
<g id="Node000008" class="node">
<title>Node8</title>
<g id="a_Node000008"><a xlink:href="class_g_e_rendering_context.html#afbcc3fb57b630a02a26505ebaab9613b" target="_top" xlink:title="Crea el esquema de los conjuntos de descriptores.">
<polygon fill="white" stroke="#666666" points="304.25,-280 191.5,-280 191.5,-248 304.25,-248 304.25,-280"/>
<text xml:space="preserve" text-anchor="start" x="199.5" y="-266.5" font-family="Helvetica,sans-Serif" font-size="10.00">GERenderingContext</text>
<text xml:space="preserve" text-anchor="middle" x="247.88" y="-254.5" font-family="Helvetica,sans-Serif" font-size="10.00">::createPipelineLayout</text>
</a>
</g>
</g>
<!-- Node1&#45;&gt;Node8 -->
<g id="edge7_Node000001_Node000008" class="edge">
<title>Node1&#45;&gt;Node8</title>
<g id="a_edge7_Node000001_Node000008"><a xlink:title=" ">
<path fill="none" stroke="#63b8ff" d="M122.96,-282.79C141.15,-280.03 161.2,-276.99 179.78,-274.18"/>
<polygon fill="#63b8ff" stroke="#63b8ff" points="180.27,-277.64 189.63,-272.68 179.22,-270.72 180.27,-277.64"/>
</a>
</g>
</g>
<!-- Node9 -->
<g id="Node000009" class="node">
<title>Node9</title>
<g id="a_Node000009"><a xlink:href="class_g_e_rendering_context.html#a49a8f3e1323aa8bca61eff8d9a563956" target="_top" xlink:title="Crea la información de la etapa de muestreo.">
<polygon fill="white" stroke="#666666" points="315.88,-230 179.88,-230 179.88,-186 315.88,-186 315.88,-230"/>
<text xml:space="preserve" text-anchor="start" x="187.88" y="-216.5" font-family="Helvetica,sans-Serif" font-size="10.00">GERenderingContext</text>
<text xml:space="preserve" text-anchor="start" x="187.88" y="-204.5" font-family="Helvetica,sans-Serif" font-size="10.00">::createPipelineMultisample</text>
<text xml:space="preserve" text-anchor="middle" x="247.88" y="-192.5" font-family="Helvetica,sans-Serif" font-size="10.00">StateCreateInfo</text>
</a>
</g>
</g>
<!-- Node1&#45;&gt;Node9 -->
<g id="edge8_Node000001_Node000009" class="edge">
<title>Node1&#45;&gt;Node9</title>
<g id="a_edge8_Node000001_Node000009"><a xlink:title=" ">
<path fill="none" stroke="#63b8ff" d="M89.02,-275.69C108,-264.52 134.29,-249.82 158.5,-239 162.02,-237.43 165.65,-235.88 169.33,-234.36"/>
<polygon fill="#63b8ff" stroke="#63b8ff" points="170.41,-237.7 178.41,-230.75 167.83,-231.2 170.41,-237.7"/>
</a>
</g>
</g>
<!-- Node10 -->
<g id="Node000010" class="node">
<title>Node10</title>
<g id="a_Node000010"><a xlink:href="class_g_e_rendering_context.html#a0a4e5219ca485904f858c7eb1de15520" target="_top" xlink:title="Crea la información de la etapa de rasterización.">
<polygon fill="white" stroke="#666666" points="318.5,-168 177.25,-168 177.25,-124 318.5,-124 318.5,-168"/>
<text xml:space="preserve" text-anchor="start" x="185.25" y="-154.5" font-family="Helvetica,sans-Serif" font-size="10.00">GERenderingContext</text>
<text xml:space="preserve" text-anchor="start" x="185.25" y="-142.5" font-family="Helvetica,sans-Serif" font-size="10.00">::createPipelineRasterization</text>
<text xml:space="preserve" text-anchor="middle" x="247.88" y="-130.5" font-family="Helvetica,sans-Serif" font-size="10.00">StateCreateInfo</text>
</a>
</g>
</g>
<!-- Node1&#45;&gt;Node10 -->
<g id="edge9_Node000001_Node000010" class="edge">
<title>Node1&#45;&gt;Node10</title>
<g id="a_edge9_Node000001_Node000010"><a xlink:title=" ">
<path fill="none" stroke="#63b8ff" d="M71.71,-275.9C86.98,-251.23 119.33,-204.12 158.5,-177 161.19,-175.13 164.01,-173.37 166.92,-171.7"/>
<polygon fill="#63b8ff" stroke="#63b8ff" points="168.49,-174.83 175.74,-167.1 165.25,-168.62 168.49,-174.83"/>
</a>
</g>
</g>
<!-- Node11 -->
<g id="Node000011" class="node">
<title>Node11</title>
<g id="a_Node000011"><a xlink:href="class_g_e_rendering_context.html#a0bdaf567aa35edb4521a03818a7abab0" target="_top" xlink:title="Crea la descripción de los atributos de los vértices.">
<polygon fill="white" stroke="#666666" points="314.38,-106 181.38,-106 181.38,-62 314.38,-62 314.38,-106"/>
<text xml:space="preserve" text-anchor="start" x="189.38" y="-92.5" font-family="Helvetica,sans-Serif" font-size="10.00">GERenderingContext</text>
<text xml:space="preserve" text-anchor="start" x="189.38" y="-80.5" font-family="Helvetica,sans-Serif" font-size="10.00">::createPipelineVertexInput</text>
<text xml:space="preserve" text-anchor="middle" x="247.88" y="-68.5" font-family="Helvetica,sans-Serif" font-size="10.00">StateCreateInfo</text>
</a>
</g>
</g>
<!-- Node1&#45;&gt;Node11 -->
<g id="edge10_Node000001_Node000011" class="edge">
<title>Node1&#45;&gt;Node11</title>
<g id="a_edge10_Node000001_Node000011"><a xlink:title=" ">
<path fill="none" stroke="#63b8ff" d="M66.79,-275.51C77.17,-240.81 105.89,-159.77 158.5,-115 162.37,-111.71 166.6,-108.76 171.06,-106.12"/>
<polygon fill="#63b8ff" stroke="#63b8ff" points="172.57,-109.28 179.79,-101.52 169.31,-103.09 172.57,-109.28"/>
</a>
</g>
</g>
<!-- Node12 -->
<g id="Node000012" class="node">
<title>Node12</title>
<g id="a_Node000012"><a xlink:href="class_g_e_rendering_context.html#a131bc8d204c9ae3faf715f36bfdba8f2" target="_top" xlink:title="Crea la información del viewport.">
<polygon fill="white" stroke="#666666" points="320.38,-44 175.38,-44 175.38,0 320.38,0 320.38,-44"/>
<text xml:space="preserve" text-anchor="start" x="183.38" y="-30.5" font-family="Helvetica,sans-Serif" font-size="10.00">GERenderingContext</text>
<text xml:space="preserve" text-anchor="start" x="183.38" y="-18.5" font-family="Helvetica,sans-Serif" font-size="10.00">::createPipelineViewportState</text>
<text xml:space="preserve" text-anchor="middle" x="247.88" y="-6.5" font-family="Helvetica,sans-Serif" font-size="10.00">CreateInfo</text>
</a>
</g>
</g>
<!-- Node1&#45;&gt;Node12 -->
<g id="edge11_Node000001_Node000012" class="edge">
<title>Node1&#45;&gt;Node12</title>
<g id="a_edge11_Node000001_Node000012"><a xlink:title=" ">
<path fill="none" stroke="#63b8ff" d="M64.16,-275.81C70.05,-233.19 91.72,-116.81 158.5,-53 160.74,-50.86 163.13,-48.87 165.64,-47.02"/>
<polygon fill="#63b8ff" stroke="#63b8ff" points="167.41,-50.04 173.93,-41.7 163.63,-44.15 167.41,-50.04"/>
</a>
</g>
</g>
<!-- Node13 -->
<g id="Node000013" class="node">
<title>Node13</title>
<g id="a_Node000013"><a xlink:href="class_g_e_rendering_context.html#aa10b997efa5b9408fefb7bbefff219cf" target="_top" xlink:title="Crea la información sobre el Vertex Shader.">
<polygon fill="white" stroke="#666666" points="337.25,-516 158.5,-516 158.5,-484 337.25,-484 337.25,-516"/>
<text xml:space="preserve" text-anchor="start" x="166.5" y="-502.5" font-family="Helvetica,sans-Serif" font-size="10.00">GERenderingContext</text>
<text xml:space="preserve" text-anchor="middle" x="247.88" y="-490.5" font-family="Helvetica,sans-Serif" font-size="10.00">::createVertexShaderStageCreateInfo</text>
</a>
</g>
</g>
<!-- Node1&#45;&gt;Node13 -->
<g id="edge12_Node000001_Node000013" class="edge">
<title>Node1&#45;&gt;Node13</title>
<g id="a_edge12_Node000001_Node000013"><a xlink:title=" ">
<path fill="none" stroke="#63b8ff" d="M66.19,-308.49C75.63,-344.39 103,-430.02 158.5,-475 159.65,-475.93 160.83,-476.83 162.04,-477.69"/>
<polygon fill="#63b8ff" stroke="#63b8ff" points="160.18,-480.66 170.54,-482.89 163.84,-474.69 160.18,-480.66"/>
</a>
</g>
</g>
<!-- Node3 -->
<g id="Node000003" class="node">
<title>Node3</title>
<g id="a_Node000003"><a xlink:href="class_g_e_rendering_context.html#a0915e69629916660bd8b22fedf4b2e1c" target="_top" xlink:title="Crea un shader a partir de su código en SPIR&#45;V.">
<polygon fill="white" stroke="#666666" points="486.75,-570 375.5,-570 375.5,-538 486.75,-538 486.75,-570"/>
<text xml:space="preserve" text-anchor="start" x="383.5" y="-556.5" font-family="Helvetica,sans-Serif" font-size="10.00">GERenderingContext</text>
<text xml:space="preserve" text-anchor="middle" x="431.12" y="-544.5" font-family="Helvetica,sans-Serif" font-size="10.00">::createShaderModule</text>
</a>
</g>
</g>
<!-- Node2&#45;&gt;Node3 -->
<g id="edge2_Node000002_Node000003" class="edge">
<title>Node2&#45;&gt;Node3</title>
<g id="a_edge2_Node000002_Node000003"><a xlink:title=" ">
<path fill="none" stroke="#63b8ff" d="M321.55,-555.2C335.48,-555.04 349.99,-554.88 363.71,-554.73"/>
<polygon fill="#63b8ff" stroke="#63b8ff" points="363.54,-558.24 373.5,-554.62 363.46,-551.24 363.54,-558.24"/>
</a>
</g>
</g>
<!-- Node4 -->
<g id="Node000004" class="node">
<title>Node4</title>
<g id="a_Node000004"><a xlink:href="class_g_e_rendering_context.html#a50bcdd8c7da9656f5c93d7385a5eb714" target="_top" xlink:title="Extrae el contenido de un fichero incluido como recurso de la aplicación.">
<polygon fill="white" stroke="#666666" points="489,-519 373.25,-519 373.25,-487 489,-487 489,-519"/>
<text xml:space="preserve" text-anchor="start" x="381.25" y="-505.5" font-family="Helvetica,sans-Serif" font-size="10.00">GERenderingContext</text>
<text xml:space="preserve" text-anchor="middle" x="431.12" y="-493.5" font-family="Helvetica,sans-Serif" font-size="10.00">::getFileFromResource</text>
</a>
</g>
</g>
<!-- Node2&#45;&gt;Node4 -->
<g id="edge3_Node000002_Node000004" class="edge">
<title>Node2&#45;&gt;Node4</title>
<g id="a_edge3_Node000002_Node000004"><a xlink:title=" ">
<path fill="none" stroke="#63b8ff" d="M321.55,-534.75C335.31,-530.73 349.64,-526.54 363.2,-522.57"/>
<polygon fill="#63b8ff" stroke="#63b8ff" points="363.83,-526.03 372.44,-519.87 361.86,-519.31 363.83,-526.03"/>
</a>
</g>
</g>
<!-- Node13&#45;&gt;Node3 -->
<g id="edge13_Node000013_Node000003" class="edge">
<title>Node13&#45;&gt;Node3</title>
<g id="a_edge13_Node000013_Node000003"><a xlink:title=" ">
<path fill="none" stroke="#63b8ff" d="M307.89,-516.45C317.71,-519.26 327.77,-522.18 337.25,-525 347.12,-527.94 357.55,-531.12 367.72,-534.26"/>
<polygon fill="#63b8ff" stroke="#63b8ff" points="366.59,-537.57 377.17,-537.2 368.66,-530.89 366.59,-537.57"/>
</a>
</g>
</g>
<!-- Node13&#45;&gt;Node4 -->
<g id="edge14_Node000013_Node000004" class="edge">
<title>Node13&#45;&gt;Node4</title>
<g id="a_edge14_Node000013_Node000004"><a xlink:title=" ">
<path fill="none" stroke="#63b8ff" d="M337.64,-501.47C345.72,-501.6 353.81,-501.74 361.67,-501.87"/>
<polygon fill="#63b8ff" stroke="#63b8ff" points="361.41,-505.36 371.47,-502.03 361.53,-498.36 361.41,-505.36"/>
</a>
</g>
</g>
</g>
</svg>
