<?xml version="1.0" encoding="UTF-8" standalone="no"?>
<!DOCTYPE svg PUBLIC "-//W3C//DTD SVG 1.1//EN"
 "http://www.w3.org/Graphics/SVG/1.1/DTD/svg11.dtd">
<!-- Generated by graphviz version 14.1.2 (20260124.0452)
 -->
<!-- Title: pugi::xml_document::_move Pages: 1 -->
<svg width="700pt" height="588pt"
 viewBox="0.00 0.00 700.00 588.00" xmlns="http://www.w3.org/2000/svg" xmlns:xlink="http://www.w3.org/1999/xlink">
<g id="graph0" class="graph" transform="scale(1 1) rotate(0) translate(4 584.02)">
<title>pugi::xml_document::_move</title>
<!-- Node1 -->
<g id="Node000001" class="node">
<title>Node1</title>
<g id="a_Node000001"><a xlink:title=" ">
<polygon fill="#999999" stroke="#666666" points="103.75,-321 0,-321 0,-289 103.75,-289 103.75,-321"/>
<text xml:space="preserve" text-anchor="start" x="8" y="-307.5" font-family="Helvetica,sans-Serif" font-size="10.00">pugi::xml_document</text>
<text xml:space="preserve" text-anchor="middle" x="51.88" y="-295.5" font-family="Helvetica,sans-Serif" font-size="10.00">::_move</text>
</a>
</g>
</g>
<!-- Node2 -->
<g id="Node000002" class="node">
<title>Node2</title>
<g id="a_Node000002"><a xlink:href="classpugi_1_1xml__document.html#a7105d65166bacb036f40b03933357394" target="_top" xlink:title=" ">
<polygon fill="white" stroke="#666666" points="245.38,-548 140.88,-548 140.88,-516 245.38,-516 245.38,-548"/>
<text xml:space="preserve" text-anchor="start" x="148.88" y="-534.5" font-family="Helvetica,sans-Serif" font-size="10.00">pugi::xml_document</text>
<text xml:space="preserve" text-anchor="middle" x="193.12" y="-522.5" font-family="Helvetica,sans-Serif" font-size="10.00">::document_element</text>
</a>
</g>
</g>
<!-- Node1&#45;&gt;Node2 -->
<g id="edge1_Node000001_Node000002" class="edge">
<title>Node1&#45;&gt;Node2</title>
<g id="a_edge1_Node000001_Node000002"><a xlink:title=" ">
<path fill="none" stroke="#63b8ff" d="M56.41,-321.45C64.97,-357.9 89.85,-446.58 139.75,-502 141.95,-504.45 144.4,-506.74 147.01,-508.89"/>
<polygon fill="#63b8ff" stroke="#63b8ff" points="144.93,-511.71 155.09,-514.73 149.04,-506.04 144.93,-511.71"/>
</a>
</g>
</g>
<!-- Node3 -->
<g id="Node000003" class="node">
<title>Node3</title>
<g id="a_Node000003"><a xlink:href="classpugi_1_1xml__node.html#a4641476ddd4869da18f0738186b17368" target="_top" xlink:title=" ">
<polygon fill="white" stroke="#666666" points="412.5,-564 282.5,-564 282.5,-544 412.5,-544 412.5,-564"/>
<text xml:space="preserve" text-anchor="middle" x="347.5" y="-550.5" font-family="Helvetica,sans-Serif" font-size="10.00">pugi::xml_node::xml_node</text>
</a>
</g>
</g>
<!-- Node1&#45;&gt;Node3 -->
<g id="edge28_Node000001_Node000003" class="edge">
<title>Node1&#45;&gt;Node3</title>
<g id="a_edge28_Node000001_Node000003"><a xlink:title=" ">
<path fill="none" stroke="#63b8ff" d="M52.62,-321.35C52.89,-367.79 60.81,-500.72 139.75,-557 188.39,-591.68 261.15,-580.01 306.12,-567.59"/>
<polygon fill="#63b8ff" stroke="#63b8ff" points="306.85,-571.02 315.47,-564.87 304.89,-564.3 306.85,-571.02"/>
</a>
</g>
</g>
<!-- Node4 -->
<g id="Node000004" class="node">
<title>Node4</title>
<g id="a_Node000004"><a xlink:href="classpugi_1_1xml__document.html#ae66d084759441a5cf508b8ec85eee852" target="_top" xlink:title=" ">
<polygon fill="white" stroke="#666666" points="399.38,-460 295.62,-460 295.62,-428 399.38,-428 399.38,-460"/>
<text xml:space="preserve" text-anchor="start" x="303.62" y="-446.5" font-family="Helvetica,sans-Serif" font-size="10.00">pugi::xml_document</text>
<text xml:space="preserve" text-anchor="middle" x="347.5" y="-434.5" font-family="Helvetica,sans-Serif" font-size="10.00">::load</text>
</a>
</g>
</g>
<!-- Node1&#45;&gt;Node4 -->
<g id="edge3_Node000001_Node000004" class="edge">
<title>Node1&#45;&gt;Node4</title>
<g id="a_edge3_Node000001_Node000004"><a xlink:title=" ">
<path fill="none" stroke="#63b8ff" d="M60.62,-321.33C73.33,-346.15 101.12,-392.84 139.75,-415 183.52,-440.11 240.84,-446.49 284.02,-447.08"/>
<polygon fill="#63b8ff" stroke="#63b8ff" points="284,-450.58 294.01,-447.1 284.01,-443.58 284,-450.58"/>
</a>
</g>
</g>
<!-- Node5 -->
<g id="Node000005" class="node">
<title>Node5</title>
<g id="a_Node000005"><a xlink:href="classpugi_1_1xml__document.html#a56e84f1a61d9798b8095f633d2174ab5" target="_top" xlink:title=" ">
<polygon fill="white" stroke="#666666" points="552.25,-335 448.5,-335 448.5,-303 552.25,-303 552.25,-335"/>
<text xml:space="preserve" text-anchor="start" x="456.5" y="-321.5" font-family="Helvetica,sans-Serif" font-size="10.00">pugi::xml_document</text>
<text xml:space="preserve" text-anchor="middle" x="500.38" y="-309.5" font-family="Helvetica,sans-Serif" font-size="10.00">::reset</text>
</a>
</g>
</g>
<!-- Node1&#45;&gt;Node5 -->
<g id="edge23_Node000001_Node000005" class="edge">
<title>Node1&#45;&gt;Node5</title>
<g id="a_edge23_Node000001_Node000005"><a xlink:title=" ">
<path fill="none" stroke="#63b8ff" d="M58.11,-321.46C68.5,-351.2 94.67,-413.63 139.75,-444 193.17,-479.98 218.33,-463.42 282.5,-469 340.06,-474 362.44,-497.85 412.5,-469 458.18,-442.67 482.02,-382.13 492.53,-346.53"/>
<polygon fill="#63b8ff" stroke="#63b8ff" points="495.88,-347.53 495.18,-336.96 489.14,-345.66 495.88,-347.53"/>
</a>
</g>
</g>
<!-- Node8 -->
<g id="Node000008" class="node">
<title>Node8</title>
<g id="a_Node000008"><a xlink:href="classpugi_1_1xml__document.html#a6caaa62694a6d0d1a5bece7fb56a2954" target="_top" xlink:title=" ">
<polygon fill="white" stroke="#666666" points="399.38,-410 295.62,-410 295.62,-378 399.38,-378 399.38,-410"/>
<text xml:space="preserve" text-anchor="start" x="303.62" y="-396.5" font-family="Helvetica,sans-Serif" font-size="10.00">pugi::xml_document</text>
<text xml:space="preserve" text-anchor="middle" x="347.5" y="-384.5" font-family="Helvetica,sans-Serif" font-size="10.00">::load_buffer</text>
</a>
</g>
</g>
<!-- Node1&#45;&gt;Node8 -->
<g id="edge7_Node000001_Node000008" class="edge">
<title>Node1&#45;&gt;Node8</title>
<g id="a_edge7_Node000001_Node000008"><a xlink:title=" ">
<path fill="none" stroke="#63b8ff" d="M63.06,-321.48C77.24,-342.66 105.12,-378.43 139.75,-393 185.36,-412.19 241.8,-411.01 284.19,-405.82"/>
<polygon fill="#63b8ff" stroke="#63b8ff" points="284.52,-409.31 293.97,-404.51 283.59,-402.37 284.52,-409.31"/>
</a>
</g>
</g>
<!-- Node9 -->
<g id="Node000009" class="node">
<title>Node9</title>
<g id="a_Node000009"><a xlink:href="classpugi_1_1xml__document.html#a0f3c5474fee2548e646b54bdd042472f" target="_top" xlink:title=" ">
<polygon fill="white" stroke="#666666" points="400.12,-360 294.88,-360 294.88,-328 400.12,-328 400.12,-360"/>
<text xml:space="preserve" text-anchor="start" x="302.88" y="-346.5" font-family="Helvetica,sans-Serif" font-size="10.00">pugi::xml_document</text>
<text xml:space="preserve" text-anchor="middle" x="347.5" y="-334.5" font-family="Helvetica,sans-Serif" font-size="10.00">::load_buffer_inplace</text>
</a>
</g>
</g>
<!-- Node1&#45;&gt;Node9 -->
<g id="edge9_Node000001_Node000009" class="edge">
<title>Node1&#45;&gt;Node9</title>
<g id="a_edge9_Node000001_Node000009"><a xlink:title=" ">
<path fill="none" stroke="#63b8ff" d="M104.02,-311.79C153.87,-318.41 229.8,-328.5 283.38,-335.62"/>
<polygon fill="#63b8ff" stroke="#63b8ff" points="282.59,-339.04 292.96,-336.89 283.51,-332.1 282.59,-339.04"/>
</a>
</g>
</g>
<!-- Node10 -->
<g id="Node000010" class="node">
<title>Node10</title>
<g id="a_Node000010"><a xlink:href="classpugi_1_1xml__document.html#a0127a62dfe677cc0c77dfb9ec534a618" target="_top" xlink:title=" ">
<polygon fill="white" stroke="#666666" points="411.75,-310 283.25,-310 283.25,-278 411.75,-278 411.75,-310"/>
<text xml:space="preserve" text-anchor="start" x="291.25" y="-296.5" font-family="Helvetica,sans-Serif" font-size="10.00">pugi::xml_document</text>
<text xml:space="preserve" text-anchor="middle" x="347.5" y="-284.5" font-family="Helvetica,sans-Serif" font-size="10.00">::load_buffer_inplace_own</text>
</a>
</g>
</g>
<!-- Node1&#45;&gt;Node10 -->
<g id="edge11_Node000001_Node000010" class="edge">
<title>Node1&#45;&gt;Node10</title>
<g id="a_edge11_Node000001_Node000010"><a xlink:title=" ">
<path fill="none" stroke="#63b8ff" d="M104.02,-303.08C150.33,-301.35 219.12,-298.77 271.62,-296.81"/>
<polygon fill="#63b8ff" stroke="#63b8ff" points="271.52,-300.31 281.38,-296.44 271.26,-293.32 271.52,-300.31"/>
</a>
</g>
</g>
<!-- Node11 -->
<g id="Node000011" class="node">
<title>Node11</title>
<g id="a_Node000011"><a xlink:href="classpugi_1_1xml__document.html#aefb4c986984462e3972cf332156dbf00" target="_top" xlink:title=" ">
<polygon fill="white" stroke="#666666" points="245,-258 141.25,-258 141.25,-226 245,-226 245,-258"/>
<text xml:space="preserve" text-anchor="start" x="149.25" y="-244.5" font-family="Helvetica,sans-Serif" font-size="10.00">pugi::xml_document</text>
<text xml:space="preserve" text-anchor="middle" x="193.12" y="-232.5" font-family="Helvetica,sans-Serif" font-size="10.00">::load_file</text>
</a>
</g>
</g>
<!-- Node1&#45;&gt;Node11 -->
<g id="edge13_Node000001_Node000011" class="edge">
<title>Node1&#45;&gt;Node11</title>
<g id="a_edge13_Node000001_Node000011"><a xlink:title=" ">
<path fill="none" stroke="#63b8ff" d="M89.1,-288.61C106.42,-280.77 127.37,-271.3 145.83,-262.94"/>
<polygon fill="#63b8ff" stroke="#63b8ff" points="147.04,-266.24 154.7,-258.93 144.15,-259.86 147.04,-266.24"/>
</a>
</g>
</g>
<!-- Node12 -->
<g id="Node000012" class="node">
<title>Node12</title>
<g id="a_Node000012"><a xlink:href="classpugi_1_1xml__document.html#ab35d1e571a3c2f7b15a1d14cc53603ae" target="_top" xlink:title=" ">
<polygon fill="white" stroke="#666666" points="245,-384 141.25,-384 141.25,-352 245,-352 245,-384"/>
<text xml:space="preserve" text-anchor="start" x="149.25" y="-370.5" font-family="Helvetica,sans-Serif" font-size="10.00">pugi::xml_document</text>
<text xml:space="preserve" text-anchor="middle" x="193.12" y="-358.5" font-family="Helvetica,sans-Serif" font-size="10.00">::load_string</text>
</a>
</g>
</g>
<!-- Node1&#45;&gt;Node12 -->
<g id="edge15_Node000001_Node000012" class="edge">
<title>Node1&#45;&gt;Node12</title>
<g id="a_edge15_Node000001_Node000012"><a xlink:title=" ">
<path fill="none" stroke="#63b8ff" d="M89.1,-321.39C106.42,-329.23 127.37,-338.7 145.83,-347.06"/>
<polygon fill="#63b8ff" stroke="#63b8ff" points="144.15,-350.14 154.7,-351.07 147.04,-343.76 144.15,-350.14"/>
</a>
</g>
</g>
<!-- Node13 -->
<g id="Node000013" class="node">
<title>Node13</title>
<g id="a_Node000013"><a xlink:href="classpugi_1_1xml__document.html#ab5da9502a8ac495839ee9fe58f82070d" target="_top" xlink:title=" ">
<polygon fill="white" stroke="#666666" points="245,-208 141.25,-208 141.25,-176 245,-176 245,-208"/>
<text xml:space="preserve" text-anchor="start" x="149.25" y="-194.5" font-family="Helvetica,sans-Serif" font-size="10.00">pugi::xml_document</text>
<text xml:space="preserve" text-anchor="middle" x="193.12" y="-182.5" font-family="Helvetica,sans-Serif" font-size="10.00">::operator=</text>
</a>
</g>
</g>
<!-- Node1&#45;&gt;Node13 -->
<g id="edge17_Node000001_Node000013" class="edge">
<title>Node1&#45;&gt;Node13</title>
<g id="a_edge17_Node000001_Node000013"><a xlink:title=" ">
<path fill="none" stroke="#63b8ff" d="M65.91,-288.71C81.8,-269.65 110.19,-238.04 139.75,-217 141.11,-216.03 142.51,-215.09 143.95,-214.16"/>
<polygon fill="#63b8ff" stroke="#63b8ff" points="145.61,-217.24 152.46,-209.15 142.06,-211.21 145.61,-217.24"/>
</a>
</g>
</g>
<!-- Node14 -->
<g id="Node000014" class="node">
<title>Node14</title>
<g id="a_Node000014"><a xlink:href="classpugi_1_1xml__document.html#a518e0f2e1919b6cb1003b7dec1012ed9" target="_top" xlink:title=" ">
<polygon fill="white" stroke="#666666" points="399.38,-128 295.62,-128 295.62,-96 399.38,-96 399.38,-128"/>
<text xml:space="preserve" text-anchor="start" x="303.62" y="-114.5" font-family="Helvetica,sans-Serif" font-size="10.00">pugi::xml_document</text>
<text xml:space="preserve" text-anchor="middle" x="347.5" y="-102.5" font-family="Helvetica,sans-Serif" font-size="10.00">::xml_document</text>
</a>
</g>
</g>
<!-- Node1&#45;&gt;Node14 -->
<g id="edge27_Node000001_Node000014" class="edge">
<title>Node1&#45;&gt;Node14</title>
<g id="a_edge27_Node000001_Node000014"><a xlink:title=" ">
<path fill="none" stroke="#63b8ff" d="M58.58,-288.57C69.56,-259.46 96.43,-198.88 139.75,-167 162.67,-150.13 232.25,-133.75 284.4,-123.31"/>
<polygon fill="#63b8ff" stroke="#63b8ff" points="284.95,-126.77 294.09,-121.41 283.6,-119.9 284.95,-126.77"/>
</a>
</g>
</g>
<!-- Node15 -->
<g id="Node000015" class="node">
<title>Node15</title>
<g id="a_Node000015"><a xlink:href="classpugi_1_1xml__node.html#a9f8a701b610781faf758a65d24f69343" target="_top" xlink:title=" ">
<polygon fill="white" stroke="#666666" points="246.5,-120 139.75,-120 139.75,-100 246.5,-100 246.5,-120"/>
<text xml:space="preserve" text-anchor="middle" x="193.12" y="-106.5" font-family="Helvetica,sans-Serif" font-size="10.00">pugi::xml_node::path</text>
</a>
</g>
</g>
<!-- Node1&#45;&gt;Node15 -->
<g id="edge22_Node000001_Node000015" class="edge">
<title>Node1&#45;&gt;Node15</title>
<g id="a_edge22_Node000001_Node000015"><a xlink:title=" ">
<path fill="none" stroke="#63b8ff" d="M57.2,-288.67C66.76,-255.43 92.68,-179.21 139.75,-134 142.95,-130.93 146.6,-128.21 150.47,-125.8"/>
<polygon fill="#63b8ff" stroke="#63b8ff" points="151.89,-129 159.02,-121.17 148.56,-122.85 151.89,-129"/>
</a>
</g>
</g>
<!-- Node16 -->
<g id="Node000016" class="node">
<title>Node16</title>
<g id="a_Node000016"><a xlink:href="classpugi_1_1xml__document.html#a8f221200996094285680ee0f7f4aec98" target="_top" xlink:title=" ">
<polygon fill="white" stroke="#666666" points="245,-82 141.25,-82 141.25,-50 245,-50 245,-82"/>
<text xml:space="preserve" text-anchor="start" x="149.25" y="-68.5" font-family="Helvetica,sans-Serif" font-size="10.00">pugi::xml_document</text>
<text xml:space="preserve" text-anchor="middle" x="193.12" y="-56.5" font-family="Helvetica,sans-Serif" font-size="10.00">::save</text>
</a>
</g>
</g>
<!-- Node1&#45;&gt;Node16 -->
<g id="edge24_Node000001_Node000016" class="edge">
<title>Node1&#45;&gt;Node16</title>
<g id="a_edge24_Node000001_Node000016"><a xlink:title=" ">
<path fill="none" stroke="#63b8ff" d="M55.38,-288.61C62.12,-249.6 84.07,-150.1 139.75,-91 140.22,-90.5 140.71,-90 141.21,-89.51"/>
<polygon fill="#63b8ff" stroke="#63b8ff" points="143.3,-92.32 148.93,-83.34 138.93,-86.85 143.3,-92.32"/>
</a>
</g>
</g>
<!-- Node17 -->
<g id="Node000017" class="node">
<title>Node17</title>
<g id="a_Node000017"><a xlink:href="classpugi_1_1xml__document.html#a0ab2364806fa3578fa8d4b092edd83f8" target="_top" xlink:title=" ">
<polygon fill="white" stroke="#666666" points="245,-32 141.25,-32 141.25,0 245,0 245,-32"/>
<text xml:space="preserve" text-anchor="start" x="149.25" y="-18.5" font-family="Helvetica,sans-Serif" font-size="10.00">pugi::xml_document</text>
<text xml:space="preserve" text-anchor="middle" x="193.12" y="-6.5" font-family="Helvetica,sans-Serif" font-size="10.00">::save_file</text>
</a>
</g>
</g>
<!-- Node1&#45;&gt;Node17 -->
<g id="edge25_Node000001_Node000017" class="edge">
<title>Node1&#45;&gt;Node17</title>
<g id="a_edge25_Node000001_Node000017"><a xlink:title=" ">
<path fill="none" stroke="#63b8ff" d="M53.9,-288.58C57.53,-243.53 73.45,-116.34 139.75,-41 140.11,-40.59 140.47,-40.19 140.85,-39.8"/>
<polygon fill="#63b8ff" stroke="#63b8ff" points="143.1,-42.48 148.48,-33.34 138.58,-37.13 143.1,-42.48"/>
</a>
</g>
</g>
<!-- Node2&#45;&gt;Node3 -->
<g id="edge2_Node000002_Node000003" class="edge">
<title>Node2&#45;&gt;Node3</title>
<g id="a_edge2_Node000002_Node000003"><a xlink:title=" ">
<path fill="none" stroke="#63b8ff" d="M245.71,-539.45C253.88,-540.63 262.46,-541.87 271.04,-543.1"/>
<polygon fill="#63b8ff" stroke="#63b8ff" points="270.37,-546.54 280.77,-544.51 271.37,-539.62 270.37,-546.54"/>
</a>
</g>
</g>
<!-- Node4&#45;&gt;Node5 -->
<g id="edge4_Node000004_Node000005" class="edge">
<title>Node4&#45;&gt;Node5</title>
<g id="a_edge4_Node000004_Node000005"><a xlink:title=" ">
<path fill="none" stroke="#63b8ff" d="M397.99,-427.51C403.08,-424.99 408.01,-422.16 412.5,-419 441.32,-398.69 466.78,-366.84 482.57,-344.56"/>
<polygon fill="#63b8ff" stroke="#63b8ff" points="485.25,-346.82 488.06,-336.61 479.49,-342.84 485.25,-346.82"/>
</a>
</g>
</g>
<!-- Node6 -->
<g id="Node000006" class="node">
<title>Node6</title>
<g id="a_Node000006"><a xlink:href="classpugi_1_1xml__document.html#abe0c208ff54097055a572f0a7fe40a94" target="_top" xlink:title=" ">
<polygon fill="white" stroke="#666666" points="692,-292 588.25,-292 588.25,-260 692,-260 692,-292"/>
<text xml:space="preserve" text-anchor="start" x="596.25" y="-278.5" font-family="Helvetica,sans-Serif" font-size="10.00">pugi::xml_document</text>
<text xml:space="preserve" text-anchor="middle" x="640.12" y="-266.5" font-family="Helvetica,sans-Serif" font-size="10.00">::_create</text>
</a>
</g>
</g>
<!-- Node5&#45;&gt;Node6 -->
<g id="edge5_Node000005_Node000006" class="edge">
<title>Node5&#45;&gt;Node6</title>
<g id="a_edge5_Node000005_Node000006"><a xlink:title=" ">
<path fill="none" stroke="#63b8ff" d="M552.67,-302.99C560.56,-300.53 568.77,-297.96 576.87,-295.43"/>
<polygon fill="#63b8ff" stroke="#63b8ff" points="577.84,-298.8 586.34,-292.48 575.76,-292.11 577.84,-298.8"/>
</a>
</g>
</g>
<!-- Node7 -->
<g id="Node000007" class="node">
<title>Node7</title>
<g id="a_Node000007"><a xlink:href="classpugi_1_1xml__document.html#ae622fdaff0407d22288f36194f9b0cbe" target="_top" xlink:title=" ">
<polygon fill="white" stroke="#666666" points="692,-225 588.25,-225 588.25,-193 692,-193 692,-225"/>
<text xml:space="preserve" text-anchor="start" x="596.25" y="-211.5" font-family="Helvetica,sans-Serif" font-size="10.00">pugi::xml_document</text>
<text xml:space="preserve" text-anchor="middle" x="640.12" y="-199.5" font-family="Helvetica,sans-Serif" font-size="10.00">::_destroy</text>
</a>
</g>
</g>
<!-- Node5&#45;&gt;Node7 -->
<g id="edge6_Node000005_Node000007" class="edge">
<title>Node5&#45;&gt;Node7</title>
<g id="a_edge6_Node000005_Node000007"><a xlink:title=" ">
<path fill="none" stroke="#63b8ff" d="M522,-302.53C545.36,-283.87 583.61,-253.33 610.01,-232.25"/>
<polygon fill="#63b8ff" stroke="#63b8ff" points="612,-235.14 617.63,-226.17 607.63,-229.67 612,-235.14"/>
</a>
</g>
</g>
<!-- Node8&#45;&gt;Node5 -->
<g id="edge8_Node000008_Node000005" class="edge">
<title>Node8&#45;&gt;Node5</title>
<g id="a_edge8_Node000008_Node000005"><a xlink:title=" ">
<path fill="none" stroke="#63b8ff" d="M392.94,-377.64C399.57,-374.91 406.26,-371.99 412.5,-369 429.75,-360.73 448.2,-350.34 463.64,-341.18"/>
<polygon fill="#63b8ff" stroke="#63b8ff" points="465.25,-344.3 472.02,-336.15 461.64,-338.3 465.25,-344.3"/>
</a>
</g>
</g>
<!-- Node9&#45;&gt;Node5 -->
<g id="edge10_Node000009_Node000005" class="edge">
<title>Node9&#45;&gt;Node5</title>
<g id="a_edge10_Node000009_Node000005"><a xlink:title=" ">
<path fill="none" stroke="#63b8ff" d="M400.42,-335.4C412.23,-333.44 424.9,-331.34 437.1,-329.32"/>
<polygon fill="#63b8ff" stroke="#63b8ff" points="437.34,-332.83 446.63,-327.74 436.19,-325.92 437.34,-332.83"/>
</a>
</g>
</g>
<!-- Node10&#45;&gt;Node5 -->
<g id="edge12_Node000010_Node000005" class="edge">
<title>Node10&#45;&gt;Node5</title>
<g id="a_edge12_Node000010_Node000005"><a xlink:title=" ">
<path fill="none" stroke="#63b8ff" d="M412.05,-304.53C420.35,-305.91 428.85,-307.31 437.14,-308.69"/>
<polygon fill="#63b8ff" stroke="#63b8ff" points="436.33,-312.1 446.76,-310.28 437.47,-305.19 436.33,-312.1"/>
</a>
</g>
</g>
<!-- Node11&#45;&gt;Node5 -->
<g id="edge14_Node000011_Node000005" class="edge">
<title>Node11&#45;&gt;Node5</title>
<g id="a_edge14_Node000011_Node000005"><a xlink:title=" ">
<path fill="none" stroke="#63b8ff" d="M245.25,-242.61C290.33,-244.48 357.25,-250.53 412.5,-269 431.77,-275.44 451.54,-286.41 467.34,-296.43"/>
<polygon fill="#63b8ff" stroke="#63b8ff" points="465.07,-299.13 475.35,-301.68 468.9,-293.28 465.07,-299.13"/>
</a>
</g>
</g>
<!-- Node12&#45;&gt;Node8 -->
<g id="edge16_Node000012_Node000008" class="edge">
<title>Node12&#45;&gt;Node8</title>
<g id="a_edge16_Node000012_Node000008"><a xlink:title=" ">
<path fill="none" stroke="#63b8ff" d="M245.29,-376.73C257.73,-378.85 271.16,-381.15 284.06,-383.35"/>
<polygon fill="#63b8ff" stroke="#63b8ff" points="283.27,-386.76 293.72,-384.99 284.45,-379.86 283.27,-386.76"/>
</a>
</g>
</g>
<!-- Node13&#45;&gt;Node6 -->
<g id="edge18_Node000013_Node000006" class="edge">
<title>Node13&#45;&gt;Node6</title>
<g id="a_edge18_Node000013_Node000006"><a xlink:title=" ">
<path fill="none" stroke="#63b8ff" d="M245.17,-201.64C327.19,-217.12 488.07,-247.49 576.76,-264.23"/>
<polygon fill="#63b8ff" stroke="#63b8ff" points="576.03,-267.65 586.5,-266.07 577.33,-260.77 576.03,-267.65"/>
</a>
</g>
</g>
<!-- Node13&#45;&gt;Node7 -->
<g id="edge19_Node000013_Node000007" class="edge">
<title>Node13&#45;&gt;Node7</title>
<g id="a_edge19_Node000013_Node000007"><a xlink:title=" ">
<path fill="none" stroke="#63b8ff" d="M245.2,-191.11C314.75,-190.29 443.09,-190.2 552.25,-198 560.08,-198.56 568.29,-199.34 576.41,-200.23"/>
<polygon fill="#63b8ff" stroke="#63b8ff" points="575.93,-203.7 586.26,-201.38 576.74,-196.75 575.93,-203.7"/>
</a>
</g>
</g>
<!-- Node13&#45;&gt;Node14 -->
<g id="edge20_Node000013_Node000014" class="edge">
<title>Node13&#45;&gt;Node14</title>
<g id="a_edge20_Node000013_Node000014"><a xlink:title=" ">
<path fill="none" stroke="#63b8ff" d="M225.33,-175.62C248.36,-163.52 279.94,-146.94 305.09,-133.74"/>
<polygon fill="#63b8ff" stroke="#63b8ff" points="306.51,-136.95 313.74,-129.2 303.26,-130.75 306.51,-136.95"/>
</a>
</g>
</g>
<!-- Node14&#45;&gt;Node14 -->
<g id="edge21_Node000014_Node000014" class="edge">
<title>Node14&#45;&gt;Node14</title>
<g id="a_edge21_Node000014_Node000014"><a xlink:title=" ">
<path fill="none" stroke="#63b8ff" d="M320.21,-128.44C315.11,-137.58 324.21,-146 347.5,-146 360.24,-146 368.73,-143.48 372.98,-139.71"/>
<polygon fill="#63b8ff" stroke="#63b8ff" points="376.41,-140.37 374.55,-129.94 369.5,-139.25 376.41,-140.37"/>
</a>
</g>
</g>
<!-- Node18 -->
<g id="Node000018" class="node">
<title>Node18</title>
<g id="a_Node000018"><a xlink:href="structauto__deleter.html#a6c02cf0240e922064cbf4672bb4363ce" target="_top" xlink:title=" ">
<polygon fill="white" stroke="#666666" points="400.88,-26 294.12,-26 294.12,-6 400.88,-6 400.88,-26"/>
<text xml:space="preserve" text-anchor="middle" x="347.5" y="-12.5" font-family="Helvetica,sans-Serif" font-size="10.00">auto_deleter::release</text>
</a>
</g>
</g>
<!-- Node17&#45;&gt;Node18 -->
<g id="edge26_Node000017_Node000018" class="edge">
<title>Node17&#45;&gt;Node18</title>
<g id="a_edge26_Node000017_Node000018"><a xlink:title=" ">
<path fill="none" stroke="#63b8ff" d="M245.29,-16C257.2,-16 270.04,-16 282.43,-16"/>
<polygon fill="#63b8ff" stroke="#63b8ff" points="282.14,-19.5 292.14,-16 282.14,-12.5 282.14,-19.5"/>
</a>
</g>
</g>
</g>
</svg>
