<?xml version="1.0" encoding="UTF-8" standalone="no"?>
<!DOCTYPE svg PUBLIC "-//W3C//DTD SVG 1.1//EN"
 "http://www.w3.org/Graphics/SVG/1.1/DTD/svg11.dtd">
<!-- Generated by graphviz version 14.1.2 (20260124.0452)
 -->
<!-- Title: xpath_node_set_raw::end Pages: 1 -->
<svg width="1388pt" height="380pt"
 viewBox="0.00 0.00 1388.00 380.00" xmlns="http://www.w3.org/2000/svg" xmlns:xlink="http://www.w3.org/1999/xlink">
<g id="graph0" class="graph" transform="scale(1 1) rotate(0) translate(4 376)">
<title>xpath_node_set_raw::end</title>
<!-- Node1 -->
<g id="Node000001" class="node">
<title>Node1</title>
<g id="a_Node000001"><a xlink:title=" ">
<polygon fill="#999999" stroke="#666666" points="1380,-186 1252.25,-186 1252.25,-166 1380,-166 1380,-186"/>
<text xml:space="preserve" text-anchor="middle" x="1316.12" y="-172.5" font-family="Helvetica,sans-Serif" font-size="10.00">xpath_node_set_raw::end</text>
</a>
</g>
</g>
<!-- Node2 -->
<g id="Node000002" class="node">
<title>Node2</title>
<g id="a_Node000002"><a xlink:href="classxpath__ast__node.html#ab4e5bbd3f2e83c86a43349374b4bfc22" target="_top" xlink:title=" ">
<polygon fill="white" stroke="#666666" points="1216.25,-192 1102,-192 1102,-160 1216.25,-160 1216.25,-192"/>
<text xml:space="preserve" text-anchor="start" x="1110" y="-178.5" font-family="Helvetica,sans-Serif" font-size="10.00">xpath_ast_node::apply</text>
<text xml:space="preserve" text-anchor="middle" x="1159.12" y="-166.5" font-family="Helvetica,sans-Serif" font-size="10.00">_predicate_boolean</text>
</a>
</g>
</g>
<!-- Node1&#45;&gt;Node2 -->
<g id="edge1_Node000001_Node000002" class="edge">
<title>Node1&#45;&gt;Node2</title>
<g id="a_edge1_Node000001_Node000002"><a xlink:title=" ">
<path fill="none" stroke="#63b8ff" d="M1240.7,-176C1232.6,-176 1224.46,-176 1216.63,-176"/>
<polygon fill="#63b8ff" stroke="#63b8ff" points="1240.57,-179.5 1250.57,-176 1240.57,-172.5 1240.57,-179.5"/>
</a>
</g>
</g>
<!-- Node4 -->
<g id="Node000004" class="node">
<title>Node4</title>
<g id="a_Node000004"><a xlink:href="classxpath__ast__node.html#a68cace396dd4eeae67ecfcd34a3a8285" target="_top" xlink:title=" ">
<polygon fill="white" stroke="#666666" points="904.5,-148 795.5,-148 795.5,-116 904.5,-116 904.5,-148"/>
<text xml:space="preserve" text-anchor="start" x="803.5" y="-134.5" font-family="Helvetica,sans-Serif" font-size="10.00">xpath_ast_node::eval</text>
<text xml:space="preserve" text-anchor="middle" x="850" y="-122.5" font-family="Helvetica,sans-Serif" font-size="10.00">_node_set</text>
</a>
</g>
</g>
<!-- Node1&#45;&gt;Node4 -->
<g id="edge28_Node000001_Node000004" class="edge">
<title>Node1&#45;&gt;Node4</title>
<g id="a_edge28_Node000001_Node000004"><a xlink:title=" ">
<path fill="none" stroke="#63b8ff" d="M1284.64,-160.58C1265.47,-151.51 1239.95,-140.57 1216.25,-134 1097.8,-101.18 1062.74,-100.17 940.5,-113 928.81,-114.23 916.4,-116.33 904.66,-118.71"/>
<polygon fill="#63b8ff" stroke="#63b8ff" points="1282.97,-163.66 1293.5,-164.86 1286.02,-157.36 1282.97,-163.66"/>
</a>
</g>
</g>
<!-- Node5 -->
<g id="Node000005" class="node">
<title>Node5</title>
<g id="a_Node000005"><a xlink:href="classxpath__ast__node.html#a98dd7f6e67fe2c56c63056eed835d6a4" target="_top" xlink:title=" ">
<polygon fill="white" stroke="#666666" points="759.5,-224 615.25,-224 615.25,-204 759.5,-204 759.5,-224"/>
<text xml:space="preserve" text-anchor="middle" x="687.38" y="-210.5" font-family="Helvetica,sans-Serif" font-size="10.00">xpath_ast_node::compare_eq</text>
</a>
</g>
</g>
<!-- Node1&#45;&gt;Node5 -->
<g id="edge26_Node000001_Node000005" class="edge">
<title>Node1&#45;&gt;Node5</title>
<g id="a_edge26_Node000001_Node000005"><a xlink:title=" ">
<path fill="none" stroke="#63b8ff" d="M1270.93,-189.42C1253.99,-193.96 1234.38,-198.52 1216.25,-201 1054.13,-223.21 861.45,-220.77 759.64,-217.25"/>
<polygon fill="#63b8ff" stroke="#63b8ff" points="1271.47,-192.9 1280.17,-186.85 1269.6,-186.15 1271.47,-192.9"/>
</a>
</g>
</g>
<!-- Node7 -->
<g id="Node000007" class="node">
<title>Node7</title>
<g id="a_Node000007"><a xlink:href="classxpath__ast__node.html#a92dd7048e28d486bc7f382d1fc6f1de6" target="_top" xlink:title=" ">
<polygon fill="white" stroke="#666666" points="289.25,-192 180.25,-192 180.25,-160 289.25,-160 289.25,-192"/>
<text xml:space="preserve" text-anchor="start" x="188.25" y="-178.5" font-family="Helvetica,sans-Serif" font-size="10.00">xpath_ast_node::eval</text>
<text xml:space="preserve" text-anchor="middle" x="234.75" y="-166.5" font-family="Helvetica,sans-Serif" font-size="10.00">_number</text>
</a>
</g>
</g>
<!-- Node1&#45;&gt;Node7 -->
<g id="edge29_Node000001_Node000007" class="edge">
<title>Node1&#45;&gt;Node7</title>
<g id="a_edge29_Node000001_Node000007"><a xlink:title=" ">
<path fill="none" stroke="#63b8ff" d="M1295.84,-194.08C1249.5,-235.55 1126.59,-334 1004.25,-334 1004.25,-334 1004.25,-334 523.75,-334 406.84,-334 292.49,-232.68 251.57,-192.31"/>
<polygon fill="#63b8ff" stroke="#63b8ff" points="1298.15,-196.71 1303.19,-187.39 1293.44,-191.53 1298.15,-196.71"/>
</a>
</g>
</g>
<!-- Node8 -->
<g id="Node000008" class="node">
<title>Node8</title>
<g id="a_Node000008"><a xlink:href="classxpath__ast__node.html#abf2d4b745493f63aebc1c89d9fde8eed" target="_top" xlink:title=" ">
<polygon fill="white" stroke="#666666" points="129.25,-312 15,-312 15,-280 129.25,-280 129.25,-312"/>
<text xml:space="preserve" text-anchor="start" x="23" y="-298.5" font-family="Helvetica,sans-Serif" font-size="10.00">xpath_ast_node::apply</text>
<text xml:space="preserve" text-anchor="middle" x="72.12" y="-286.5" font-family="Helvetica,sans-Serif" font-size="10.00">_predicate_number</text>
</a>
</g>
</g>
<!-- Node1&#45;&gt;Node8 -->
<g id="edge25_Node000001_Node000008" class="edge">
<title>Node1&#45;&gt;Node8</title>
<g id="a_edge25_Node000001_Node000008"><a xlink:title=" ">
<path fill="none" stroke="#63b8ff" d="M1304.26,-196.11C1288.41,-223.62 1256.43,-272.78 1216.25,-301 1134.94,-358.12 1103.62,-372 1004.25,-372 1004.25,-372 1004.25,-372 378.75,-372 280.88,-372 170.45,-334.84 112.88,-312.49"/>
<polygon fill="#63b8ff" stroke="#63b8ff" points="1307.12,-198.16 1308.96,-187.72 1301.02,-194.74 1307.12,-198.16"/>
</a>
</g>
</g>
<!-- Node10 -->
<g id="Node000010" class="node">
<title>Node10</title>
<g id="a_Node000010"><a xlink:href="classxpath__ast__node.html#abb6e4c529276eaf882233dbb6e04e111" target="_top" xlink:title=" ">
<polygon fill="white" stroke="#666666" points="144.25,-67 0,-67 0,-47 144.25,-47 144.25,-67"/>
<text xml:space="preserve" text-anchor="middle" x="72.12" y="-53.5" font-family="Helvetica,sans-Serif" font-size="10.00">xpath_ast_node::compare_rel</text>
</a>
</g>
</g>
<!-- Node1&#45;&gt;Node10 -->
<g id="edge27_Node000001_Node000010" class="edge">
<title>Node1&#45;&gt;Node10</title>
<g id="a_edge27_Node000001_Node000010"><a xlink:title=" ">
<path fill="none" stroke="#63b8ff" d="M1297.76,-157.41C1253.51,-112.17 1131,0 1004.25,0 1004.25,0 1004.25,0 378.75,0 278.36,0 162.51,-30.09 106.66,-46.55"/>
<polygon fill="#63b8ff" stroke="#63b8ff" points="1295.05,-159.64 1304.5,-164.43 1300.09,-154.79 1295.05,-159.64"/>
</a>
</g>
</g>
<!-- Node12 -->
<g id="Node000012" class="node">
<title>Node12</title>
<g id="a_Node000012"><a xlink:href="classxpath__ast__node.html#a3258c05ab9aaa78e154d2ff63fe56906" target="_top" xlink:title=" ">
<polygon fill="white" stroke="#666666" points="1066,-142 940.5,-142 940.5,-122 1066,-122 1066,-142"/>
<text xml:space="preserve" text-anchor="middle" x="1003.25" y="-128.5" font-family="Helvetica,sans-Serif" font-size="10.00">xpath_ast_node::step_do</text>
</a>
</g>
</g>
<!-- Node1&#45;&gt;Node12 -->
<g id="edge30_Node000001_Node000012" class="edge">
<title>Node1&#45;&gt;Node12</title>
<g id="a_edge30_Node000001_Node000012"><a xlink:title=" ">
<path fill="none" stroke="#63b8ff" d="M1268.73,-162.66C1252.28,-158.36 1233.55,-153.94 1216.25,-151 1166.16,-142.48 1108.72,-137.63 1066.27,-134.97"/>
<polygon fill="#63b8ff" stroke="#63b8ff" points="1267.69,-166 1278.26,-165.21 1269.5,-159.24 1267.69,-166"/>
</a>
</g>
</g>
<!-- Node3 -->
<g id="Node000003" class="node">
<title>Node3</title>
<g id="a_Node000003"><a xlink:href="classxpath__ast__node.html#a7e35f265c9e0712a16e1d8a9db4c7672" target="_top" xlink:title=" ">
<polygon fill="white" stroke="#666666" points="1060.38,-280 946.12,-280 946.12,-248 1060.38,-248 1060.38,-280"/>
<text xml:space="preserve" text-anchor="start" x="954.12" y="-266.5" font-family="Helvetica,sans-Serif" font-size="10.00">xpath_ast_node::apply</text>
<text xml:space="preserve" text-anchor="middle" x="1003.25" y="-254.5" font-family="Helvetica,sans-Serif" font-size="10.00">_predicate</text>
</a>
</g>
</g>
<!-- Node2&#45;&gt;Node3 -->
<g id="edge2_Node000002_Node000003" class="edge">
<title>Node2&#45;&gt;Node3</title>
<g id="a_edge2_Node000002_Node000003"><a xlink:title=" ">
<path fill="none" stroke="#63b8ff" d="M1119.68,-197.98C1092.78,-213.37 1057.4,-233.6 1032.94,-247.59"/>
<polygon fill="#63b8ff" stroke="#63b8ff" points="1121.29,-201.1 1128.23,-193.1 1117.81,-195.02 1121.29,-201.1"/>
</a>
</g>
</g>
<!-- Node3&#45;&gt;Node4 -->
<g id="edge3_Node000003_Node000004" class="edge">
<title>Node3&#45;&gt;Node4</title>
<g id="a_edge3_Node000003_Node000004"><a xlink:title=" ">
<path fill="none" stroke="#63b8ff" d="M974.94,-240.17C944.47,-213.58 896,-171.28 869.61,-148.24"/>
<polygon fill="#63b8ff" stroke="#63b8ff" points="972.42,-242.62 982.26,-246.55 977.03,-237.34 972.42,-242.62"/>
</a>
</g>
</g>
<!-- Node4&#45;&gt;Node5 -->
<g id="edge4_Node000004_Node000005" class="edge">
<title>Node4&#45;&gt;Node5</title>
<g id="a_edge4_Node000004_Node000005"><a xlink:title=" ">
<path fill="none" stroke="#63b8ff" d="M807.01,-153.44C775.36,-169.6 733.34,-191.05 708.74,-203.6"/>
<polygon fill="#63b8ff" stroke="#63b8ff" points="808.22,-156.75 815.53,-149.09 805.04,-150.51 808.22,-156.75"/>
</a>
</g>
</g>
<!-- Node6 -->
<g id="Node000006" class="node">
<title>Node6</title>
<g id="a_Node000006"><a xlink:href="classxpath__ast__node.html#ab7f965a92023bc2704b8e6fd9f3d7c14" target="_top" xlink:title=" ">
<polygon fill="white" stroke="#666666" points="579.25,-116 470.25,-116 470.25,-84 579.25,-84 579.25,-116"/>
<text xml:space="preserve" text-anchor="start" x="478.25" y="-102.5" font-family="Helvetica,sans-Serif" font-size="10.00">xpath_ast_node::eval</text>
<text xml:space="preserve" text-anchor="middle" x="524.75" y="-90.5" font-family="Helvetica,sans-Serif" font-size="10.00">_boolean</text>
</a>
</g>
</g>
<!-- Node4&#45;&gt;Node6 -->
<g id="edge23_Node000004_Node000006" class="edge">
<title>Node4&#45;&gt;Node6</title>
<g id="a_edge23_Node000004_Node000006"><a xlink:title=" ">
<path fill="none" stroke="#63b8ff" d="M784.02,-125.57C723.98,-119.62 635.83,-110.9 579.62,-105.33"/>
<polygon fill="#63b8ff" stroke="#63b8ff" points="783.46,-129.03 793.75,-126.53 784.15,-122.06 783.46,-129.03"/>
</a>
</g>
</g>
<!-- Node4&#45;&gt;Node10 -->
<g id="edge22_Node000004_Node000010" class="edge">
<title>Node4&#45;&gt;Node10</title>
<g id="a_edge22_Node000004_Node000010"><a xlink:title=" ">
<path fill="none" stroke="#63b8ff" d="M805.57,-110.83C744.58,-83.11 629.4,-38 525.75,-38 525.75,-38 525.75,-38 378.75,-38 298.47,-38 206.57,-44.61 144.68,-50.03"/>
<polygon fill="#63b8ff" stroke="#63b8ff" points="804.03,-113.98 814.58,-114.99 806.96,-107.62 804.03,-113.98"/>
</a>
</g>
</g>
<!-- Node11 -->
<g id="Node000011" class="node">
<title>Node11</title>
<g id="a_Node000011"><a xlink:href="classxpath__ast__node.html#a6b675237a590548b68d0e0b97518b6df" target="_top" xlink:title=" ">
<polygon fill="white" stroke="#666666" points="434.25,-192 325.25,-192 325.25,-160 434.25,-160 434.25,-192"/>
<text xml:space="preserve" text-anchor="start" x="333.25" y="-178.5" font-family="Helvetica,sans-Serif" font-size="10.00">xpath_ast_node::eval</text>
<text xml:space="preserve" text-anchor="middle" x="379.75" y="-166.5" font-family="Helvetica,sans-Serif" font-size="10.00">_string</text>
</a>
</g>
</g>
<!-- Node4&#45;&gt;Node11 -->
<g id="edge24_Node000004_Node000011" class="edge">
<title>Node4&#45;&gt;Node11</title>
<g id="a_edge24_Node000004_Node000011"><a xlink:title=" ">
<path fill="none" stroke="#63b8ff" d="M784.04,-138.1C690.89,-146.86 521.09,-162.81 434.56,-170.94"/>
<polygon fill="#63b8ff" stroke="#63b8ff" points="784.15,-141.61 793.78,-137.19 783.5,-134.64 784.15,-141.61"/>
</a>
</g>
</g>
<!-- Node5&#45;&gt;Node6 -->
<g id="edge5_Node000005_Node000006" class="edge">
<title>Node5&#45;&gt;Node6</title>
<g id="a_edge5_Node000005_Node000006"><a xlink:title=" ">
<path fill="none" stroke="#63b8ff" d="M658.56,-199.75C644.86,-195.01 628.47,-189.23 615.25,-181 586.63,-163.18 560.25,-134.52 543.66,-116.25"/>
<polygon fill="#63b8ff" stroke="#63b8ff" points="657.3,-203.01 667.89,-203.01 659.61,-196.4 657.3,-203.01"/>
</a>
</g>
</g>
<!-- Node6&#45;&gt;Node2 -->
<g id="edge6_Node000006_Node000002" class="edge">
<title>Node6&#45;&gt;Node2</title>
<g id="a_edge6_Node000006_Node000002"><a xlink:title=" ">
<path fill="none" stroke="#63b8ff" d="M580.22,-119.94C591.68,-123.66 603.78,-127.24 615.25,-130 789.06,-171.81 1002.13,-176.96 1101.75,-176.79"/>
<polygon fill="#63b8ff" stroke="#63b8ff" points="581.49,-116.68 570.9,-116.83 579.28,-123.32 581.49,-116.68"/>
</a>
</g>
</g>
<!-- Node6&#45;&gt;Node5 -->
<g id="edge7_Node000006_Node000005" class="edge">
<title>Node6&#45;&gt;Node5</title>
<g id="a_edge7_Node000006_Node000005"><a xlink:title=" ">
<path fill="none" stroke="#63b8ff" d="M540.3,-125.85C556.55,-148.43 584.61,-179.93 615.25,-199 617.91,-200.65 620.69,-202.21 623.55,-203.66"/>
<polygon fill="#63b8ff" stroke="#63b8ff" points="543.28,-124.01 534.75,-117.73 537.5,-127.96 543.28,-124.01"/>
</a>
</g>
</g>
<!-- Node6&#45;&gt;Node7 -->
<g id="edge8_Node000006_Node000007" class="edge">
<title>Node6&#45;&gt;Node7</title>
<g id="a_edge8_Node000006_Node000007"><a xlink:title=" ">
<path fill="none" stroke="#63b8ff" d="M458.61,-108.53C419.83,-117.21 369.67,-130.09 325.25,-142 305.3,-147.35 282.93,-153.6 265.54,-159.64"/>
<polygon fill="#63b8ff" stroke="#63b8ff" points="459.25,-111.97 468.27,-106.41 457.75,-105.13 459.25,-111.97"/>
</a>
</g>
</g>
<!-- Node6&#45;&gt;Node11 -->
<g id="edge21_Node000006_Node000011" class="edge">
<title>Node6&#45;&gt;Node11</title>
<g id="a_edge21_Node000006_Node000011"><a xlink:title=" ">
<path fill="none" stroke="#63b8ff" d="M471.22,-121.38C447.35,-133.52 420.44,-148.33 402.21,-159.61"/>
<polygon fill="#63b8ff" stroke="#63b8ff" points="472.51,-124.65 479.88,-117.04 469.37,-118.4 472.51,-124.65"/>
</a>
</g>
</g>
<!-- Node7&#45;&gt;Node5 -->
<g id="edge13_Node000007_Node000005" class="edge">
<title>Node7&#45;&gt;Node5</title>
<g id="a_edge13_Node000007_Node000005"><a xlink:title=" ">
<path fill="none" stroke="#63b8ff" d="M297.5,-195.29C306.73,-197.57 316.18,-199.59 325.25,-201 424.9,-216.49 541.79,-217.65 614.98,-216.37"/>
<polygon fill="#63b8ff" stroke="#63b8ff" points="298.43,-191.91 287.87,-192.77 296.66,-198.69 298.43,-191.91"/>
</a>
</g>
</g>
<!-- Node7&#45;&gt;Node6 -->
<g id="edge16_Node000007_Node000006" class="edge">
<title>Node7&#45;&gt;Node6</title>
<g id="a_edge16_Node000007_Node000006"><a xlink:title=" ">
<path fill="none" stroke="#63b8ff" d="M300.78,-166.59C309.01,-164.39 317.32,-162.13 325.25,-160 380.58,-145.17 444.83,-128.82 484.89,-116.49"/>
<polygon fill="#63b8ff" stroke="#63b8ff" points="299.89,-163.21 291.12,-169.14 301.68,-169.98 299.89,-163.21"/>
</a>
</g>
</g>
<!-- Node7&#45;&gt;Node8 -->
<g id="edge9_Node000007_Node000008" class="edge">
<title>Node7&#45;&gt;Node8</title>
<g id="a_edge9_Node000007_Node000008"><a xlink:title=" ">
<path fill="none" stroke="#63b8ff" d="M202.92,-199.03C171.34,-222.62 123.03,-258.72 95.11,-279.57"/>
<polygon fill="#63b8ff" stroke="#63b8ff" points="204.62,-202.13 210.54,-193.34 200.43,-196.52 204.62,-202.13"/>
</a>
</g>
</g>
<!-- Node9 -->
<g id="Node000009" class="node">
<title>Node9</title>
<g id="a_Node000009"><a xlink:href="classxpath__ast__node.html#a8cedd7e15623b9fa431788b8843f1463" target="_top" xlink:title=" ">
<polygon fill="white" stroke="#666666" points="136,-227 8.25,-227 8.25,-195 136,-195 136,-227"/>
<text xml:space="preserve" text-anchor="start" x="16.25" y="-213.5" font-family="Helvetica,sans-Serif" font-size="10.00">xpath_ast_node::apply</text>
<text xml:space="preserve" text-anchor="middle" x="72.12" y="-201.5" font-family="Helvetica,sans-Serif" font-size="10.00">_predicate_number_const</text>
</a>
</g>
</g>
<!-- Node7&#45;&gt;Node9 -->
<g id="edge11_Node000007_Node000009" class="edge">
<title>Node7&#45;&gt;Node9</title>
<g id="a_edge11_Node000007_Node000009"><a xlink:title=" ">
<path fill="none" stroke="#63b8ff" d="M168.83,-190.15C158.12,-192.48 147.03,-194.9 136.36,-197.22"/>
<polygon fill="#63b8ff" stroke="#63b8ff" points="169.31,-193.62 178.34,-188.07 167.82,-186.78 169.31,-193.62"/>
</a>
</g>
</g>
<!-- Node7&#45;&gt;Node10 -->
<g id="edge14_Node000007_Node000010" class="edge">
<title>Node7&#45;&gt;Node10</title>
<g id="a_edge14_Node000007_Node000010"><a xlink:title=" ">
<path fill="none" stroke="#63b8ff" d="M202.5,-152.85C167.69,-127.06 112.94,-86.5 87.28,-67.49"/>
<polygon fill="#63b8ff" stroke="#63b8ff" points="200.42,-155.66 210.54,-158.8 204.58,-150.04 200.42,-155.66"/>
</a>
</g>
</g>
<!-- Node7&#45;&gt;Node11 -->
<g id="edge17_Node000007_Node000011" class="edge">
<title>Node7&#45;&gt;Node11</title>
<g id="a_edge17_Node000007_Node000011"><a xlink:title=" ">
<path fill="none" stroke="#63b8ff" d="M300.99,-182.73C309.06,-182.79 317.23,-182.73 325.1,-182.56"/>
<polygon fill="#63b8ff" stroke="#63b8ff" points="301.27,-179.23 291.22,-182.59 301.17,-186.23 301.27,-179.23"/>
</a>
</g>
</g>
<!-- Node8&#45;&gt;Node3 -->
<g id="edge10_Node000008_Node000003" class="edge">
<title>Node8&#45;&gt;Node3</title>
<g id="a_edge10_Node000008_Node000003"><a xlink:title=" ">
<path fill="none" stroke="#63b8ff" d="M140.91,-296C202.85,-296 296.96,-296 378.75,-296 688.38,-296 688.38,-296 688.38,-296 778.75,-296 883.02,-282.71 945.72,-273.26"/>
<polygon fill="#63b8ff" stroke="#63b8ff" points="141.25,-292.5 131.25,-296 141.25,-299.5 141.25,-292.5"/>
</a>
</g>
</g>
<!-- Node9&#45;&gt;Node3 -->
<g id="edge12_Node000009_Node000003" class="edge">
<title>Node9&#45;&gt;Node3</title>
<g id="a_edge12_Node000009_Node000003"><a xlink:title=" ">
<path fill="none" stroke="#63b8ff" d="M147.65,-228.96C209.23,-242.23 299.15,-258 378.75,-258 688.38,-258 688.38,-258 688.38,-258 778.44,-258 883.02,-260.5 945.84,-262.27"/>
<polygon fill="#63b8ff" stroke="#63b8ff" points="148.49,-225.56 137.97,-226.84 146.99,-232.4 148.49,-225.56"/>
</a>
</g>
</g>
<!-- Node10&#45;&gt;Node6 -->
<g id="edge15_Node000010_Node000006" class="edge">
<title>Node10&#45;&gt;Node6</title>
<g id="a_edge15_Node000010_Node000006"><a xlink:title=" ">
<path fill="none" stroke="#63b8ff" d="M155.96,-64.9C247.42,-73.63 391.99,-87.43 469.84,-94.86"/>
<polygon fill="#63b8ff" stroke="#63b8ff" points="156.32,-61.42 146.03,-63.96 155.65,-68.39 156.32,-61.42"/>
</a>
</g>
</g>
<!-- Node11&#45;&gt;Node5 -->
<g id="edge18_Node000011_Node000005" class="edge">
<title>Node11&#45;&gt;Node5</title>
<g id="a_edge18_Node000011_Node000005"><a xlink:title=" ">
<path fill="none" stroke="#63b8ff" d="M445.67,-184.07C495.38,-190.25 563.89,-198.77 615.11,-205.14"/>
<polygon fill="#63b8ff" stroke="#63b8ff" points="446.28,-180.62 435.92,-182.86 445.41,-187.57 446.28,-180.62"/>
</a>
</g>
</g>
<!-- Node11&#45;&gt;Node6 -->
<g id="edge19_Node000011_Node000006" class="edge">
<title>Node11&#45;&gt;Node6</title>
<g id="a_edge19_Node000011_Node000006"><a xlink:title=" ">
<path fill="none" stroke="#63b8ff" d="M433.35,-154.58C457.23,-142.44 484.14,-127.62 502.34,-116.36"/>
<polygon fill="#63b8ff" stroke="#63b8ff" points="432.06,-151.31 424.69,-158.92 435.2,-157.57 432.06,-151.31"/>
</a>
</g>
</g>
<!-- Node11&#45;&gt;Node7 -->
<g id="edge20_Node000011_Node000007" class="edge">
<title>Node11&#45;&gt;Node7</title>
<g id="a_edge20_Node000011_Node000007"><a xlink:title=" ">
<path fill="none" stroke="#63b8ff" d="M313.81,-169.28C305.75,-169.21 297.58,-169.27 289.71,-169.43"/>
<polygon fill="#63b8ff" stroke="#63b8ff" points="313.53,-172.77 323.58,-169.42 313.63,-165.77 313.53,-172.77"/>
</a>
</g>
</g>
<!-- Node12&#45;&gt;Node4 -->
<g id="edge31_Node000012_Node000004" class="edge">
<title>Node12&#45;&gt;Node4</title>
<g id="a_edge31_Node000012_Node000004"><a xlink:title=" ">
<path fill="none" stroke="#63b8ff" d="M928.9,-132C920.8,-132 912.67,-132 904.87,-132"/>
<polygon fill="#63b8ff" stroke="#63b8ff" points="928.78,-135.5 938.78,-132 928.78,-128.5 928.78,-135.5"/>
</a>
</g>
</g>
</g>
</svg>
