<?xml version="1.0" encoding="UTF-8" standalone="no"?>
<!DOCTYPE svg PUBLIC "-//W3C//DTD SVG 1.1//EN"
 "http://www.w3.org/Graphics/SVG/1.1/DTD/svg11.dtd">
<!-- Generated by graphviz version 14.1.2 (20260124.0452)
 -->
<!-- Title: xpath_string::xpath_string Pages: 1 -->
<svg width="1557pt" height="727pt"
 viewBox="0.00 0.00 1557.00 727.00" xmlns="http://www.w3.org/2000/svg" xmlns:xlink="http://www.w3.org/1999/xlink">
<g id="graph0" class="graph" transform="scale(1 1) rotate(0) translate(4 723)">
<title>xpath_string::xpath_string</title>
<!-- Node1 -->
<g id="Node000001" class="node">
<title>Node1</title>
<g id="a_Node000001"><a xlink:title=" ">
<polygon fill="#999999" stroke="#666666" points="1549,-121 1449.75,-121 1449.75,-89 1549,-89 1549,-121"/>
<text xml:space="preserve" text-anchor="start" x="1457.75" y="-107.5" font-family="Helvetica,sans-Serif" font-size="10.00">xpath_string::xpath</text>
<text xml:space="preserve" text-anchor="middle" x="1499.38" y="-95.5" font-family="Helvetica,sans-Serif" font-size="10.00">_string</text>
</a>
</g>
</g>
<!-- Node2 -->
<g id="Node000002" class="node">
<title>Node2</title>
<g id="a_Node000002"><a xlink:href="classxpath__string.html#aab0d867c56d390213cf0fbe7334e1cc0" target="_top" xlink:title=" ">
<polygon fill="white" stroke="#666666" points="1405.88,-289 1299.12,-289 1299.12,-269 1405.88,-269 1405.88,-289"/>
<text xml:space="preserve" text-anchor="middle" x="1352.5" y="-275.5" font-family="Helvetica,sans-Serif" font-size="10.00">xpath_string::append</text>
</a>
</g>
</g>
<!-- Node1&#45;&gt;Node2 -->
<g id="edge1_Node000001_Node000002" class="edge">
<title>Node1&#45;&gt;Node2</title>
<g id="a_edge1_Node000001_Node000002"><a xlink:title=" ">
<path fill="none" stroke="#63b8ff" d="M1478.71,-129.96C1461.73,-151.38 1436.43,-182.97 1413.75,-210 1395.96,-231.2 1374.52,-255.46 1362.61,-268.82"/>
<polygon fill="#63b8ff" stroke="#63b8ff" points="1481.27,-132.37 1484.73,-122.36 1475.78,-128.03 1481.27,-132.37"/>
</a>
</g>
</g>
<!-- Node14 -->
<g id="Node000014" class="node">
<title>Node14</title>
<g id="a_Node000014"><a xlink:href="classxpath__string.html#a6dce01c6b3a949c3c4c886e6be44931e" target="_top" xlink:title=" ">
<polygon fill="white" stroke="#666666" points="1399.88,-201 1305.12,-201 1305.12,-169 1399.88,-169 1399.88,-201"/>
<text xml:space="preserve" text-anchor="start" x="1313.12" y="-187.5" font-family="Helvetica,sans-Serif" font-size="10.00">xpath_string::from</text>
<text xml:space="preserve" text-anchor="middle" x="1352.5" y="-175.5" font-family="Helvetica,sans-Serif" font-size="10.00">_const</text>
</a>
</g>
</g>
<!-- Node1&#45;&gt;Node14 -->
<g id="edge30_Node000001_Node000014" class="edge">
<title>Node1&#45;&gt;Node14</title>
<g id="a_edge30_Node000001_Node000014"><a xlink:title=" ">
<path fill="none" stroke="#63b8ff" d="M1458.88,-126.81C1434.98,-140.01 1404.99,-156.57 1383.13,-168.64"/>
<polygon fill="#63b8ff" stroke="#63b8ff" points="1460.32,-130.01 1467.38,-122.11 1456.94,-123.88 1460.32,-130.01"/>
</a>
</g>
</g>
<!-- Node16 -->
<g id="Node000016" class="node">
<title>Node16</title>
<g id="a_Node000016"><a xlink:href="classxpath__string.html#aaf1229b7a7ae918b41bf995df16c8896" target="_top" xlink:title=" ">
<polygon fill="white" stroke="#666666" points="1255.25,-73 1134.25,-73 1134.25,-53 1255.25,-53 1255.25,-73"/>
<text xml:space="preserve" text-anchor="middle" x="1194.75" y="-59.5" font-family="Helvetica,sans-Serif" font-size="10.00">xpath_string::from_heap</text>
</a>
</g>
</g>
<!-- Node1&#45;&gt;Node16 -->
<g id="edge35_Node000001_Node000016" class="edge">
<title>Node1&#45;&gt;Node16</title>
<g id="a_edge35_Node000001_Node000016"><a xlink:title=" ">
<path fill="none" stroke="#63b8ff" d="M1438.15,-96.64C1385.17,-89.29 1308.44,-78.64 1255.57,-71.3"/>
<polygon fill="#63b8ff" stroke="#63b8ff" points="1437.53,-100.09 1447.92,-98 1438.49,-93.16 1437.53,-100.09"/>
</a>
</g>
</g>
<!-- Node17 -->
<g id="Node000017" class="node">
<title>Node17</title>
<g id="a_Node000017"><a xlink:href="classxpath__string.html#a37e13c2dc384cac842cee3870e9e9e23" target="_top" xlink:title=" ">
<polygon fill="white" stroke="#666666" points="451.88,-137 351.88,-137 351.88,-105 451.88,-105 451.88,-137"/>
<text xml:space="preserve" text-anchor="start" x="359.88" y="-123.5" font-family="Helvetica,sans-Serif" font-size="10.00">xpath_string::from</text>
<text xml:space="preserve" text-anchor="middle" x="401.88" y="-111.5" font-family="Helvetica,sans-Serif" font-size="10.00">_heap_preallocated</text>
</a>
</g>
</g>
<!-- Node1&#45;&gt;Node17 -->
<g id="edge37_Node000001_Node000017" class="edge">
<title>Node1&#45;&gt;Node17</title>
<g id="a_edge37_Node000001_Node000017"><a xlink:title=" ">
<path fill="none" stroke="#63b8ff" d="M1438.09,-111.02C1377.06,-116.58 1279.95,-124 1195.75,-124 1195.75,-124 1195.75,-124 714.88,-124 622.11,-124 513.84,-122.66 452.32,-121.77"/>
<polygon fill="#63b8ff" stroke="#63b8ff" points="1438.28,-114.51 1447.92,-110.11 1437.64,-107.54 1438.28,-114.51"/>
</a>
</g>
</g>
<!-- Node19 -->
<g id="Node000019" class="node">
<title>Node19</title>
<g id="a_Node000019"><a xlink:href="classxpath__string.html#a8976b1e54152b806a13996a6140499b4" target="_top" xlink:title=" ">
<polygon fill="white" stroke="#666666" points="1412.25,-58 1292.75,-58 1292.75,-38 1412.25,-38 1412.25,-58"/>
<text xml:space="preserve" text-anchor="middle" x="1352.5" y="-44.5" font-family="Helvetica,sans-Serif" font-size="10.00">xpath_string::operator!=</text>
</a>
</g>
</g>
<!-- Node1&#45;&gt;Node19 -->
<g id="edge42_Node000001_Node000019" class="edge">
<title>Node1&#45;&gt;Node19</title>
<g id="a_edge42_Node000001_Node000019"><a xlink:title=" ">
<path fill="none" stroke="#63b8ff" d="M1446.04,-84.41C1423.55,-75.56 1398.26,-65.61 1379.81,-58.35"/>
<polygon fill="#63b8ff" stroke="#63b8ff" points="1444.48,-87.55 1455.06,-87.96 1447.04,-81.04 1444.48,-87.55"/>
</a>
</g>
</g>
<!-- Node20 -->
<g id="Node000020" class="node">
<title>Node20</title>
<g id="a_Node000020"><a xlink:href="classxpath__string.html#ac42c0dd15445de88c09dfdeed93d5660" target="_top" xlink:title=" ">
<polygon fill="white" stroke="#666666" points="1413.75,-20 1291.25,-20 1291.25,0 1413.75,0 1413.75,-20"/>
<text xml:space="preserve" text-anchor="middle" x="1352.5" y="-6.5" font-family="Helvetica,sans-Serif" font-size="10.00">xpath_string::operator==</text>
</a>
</g>
</g>
<!-- Node1&#45;&gt;Node20 -->
<g id="edge43_Node000001_Node000020" class="edge">
<title>Node1&#45;&gt;Node20</title>
<g id="a_edge43_Node000001_Node000020"><a xlink:title=" ">
<path fill="none" stroke="#63b8ff" d="M1476.37,-80.34C1460.42,-63.78 1437.56,-42.59 1413.75,-29 1407.84,-25.63 1401.26,-22.78 1394.68,-20.39"/>
<polygon fill="#63b8ff" stroke="#63b8ff" points="1473.62,-82.52 1483.02,-87.41 1478.72,-77.73 1473.62,-82.52"/>
</a>
</g>
</g>
<!-- Node3 -->
<g id="Node000003" class="node">
<title>Node3</title>
<g id="a_Node000003"><a xlink:href="pugixml_8cpp.html#ad34afe159db16c5eff7771f4f4935e4e" target="_top" xlink:title=" ">
<polygon fill="white" stroke="#666666" points="1229,-339 1160.5,-339 1160.5,-319 1229,-319 1229,-339"/>
<text xml:space="preserve" text-anchor="middle" x="1194.75" y="-325.5" font-family="Helvetica,sans-Serif" font-size="10.00">string_value</text>
</a>
</g>
</g>
<!-- Node2&#45;&gt;Node3 -->
<g id="edge2_Node000002_Node000003" class="edge">
<title>Node2&#45;&gt;Node3</title>
<g id="a_edge2_Node000002_Node000003"><a xlink:title=" ">
<path fill="none" stroke="#63b8ff" d="M1308.08,-292.94C1282.82,-301.05 1251.5,-311.1 1228.36,-318.53"/>
<polygon fill="#63b8ff" stroke="#63b8ff" points="1308.96,-296.33 1317.41,-289.94 1306.82,-289.67 1308.96,-296.33"/>
</a>
</g>
</g>
<!-- Node4 -->
<g id="Node000004" class="node">
<title>Node4</title>
<g id="a_Node000004"><a xlink:href="classxpath__ast__node.html#a98dd7f6e67fe2c56c63056eed835d6a4" target="_top" xlink:title=" ">
<polygon fill="white" stroke="#666666" points="1098.25,-405 954,-405 954,-385 1098.25,-385 1098.25,-405"/>
<text xml:space="preserve" text-anchor="middle" x="1026.12" y="-391.5" font-family="Helvetica,sans-Serif" font-size="10.00">xpath_ast_node::compare_eq</text>
</a>
</g>
</g>
<!-- Node3&#45;&gt;Node4 -->
<g id="edge3_Node000003_Node000004" class="edge">
<title>Node3&#45;&gt;Node4</title>
<g id="a_edge3_Node000003_Node000004"><a xlink:title=" ">
<path fill="none" stroke="#63b8ff" d="M1156.84,-343.62C1125.49,-356.04 1081.26,-373.56 1053.4,-384.59"/>
<polygon fill="#63b8ff" stroke="#63b8ff" points="1157.93,-346.95 1165.94,-340.02 1155.35,-340.44 1157.93,-346.95"/>
</a>
</g>
</g>
<!-- Node9 -->
<g id="Node000009" class="node">
<title>Node9</title>
<g id="a_Node000009"><a xlink:href="classxpath__ast__node.html#abb6e4c529276eaf882233dbb6e04e111" target="_top" xlink:title=" ">
<polygon fill="white" stroke="#666666" points="144.25,-672 0,-672 0,-652 144.25,-652 144.25,-672"/>
<text xml:space="preserve" text-anchor="middle" x="72.12" y="-658.5" font-family="Helvetica,sans-Serif" font-size="10.00">xpath_ast_node::compare_rel</text>
</a>
</g>
</g>
<!-- Node3&#45;&gt;Node9 -->
<g id="edge27_Node000003_Node000009" class="edge">
<title>Node3&#45;&gt;Node9</title>
<g id="a_edge27_Node000003_Node000009"><a xlink:title=" ">
<path fill="none" stroke="#63b8ff" d="M1187.52,-350.28C1162.23,-431.71 1059.2,-719 864.5,-719 864.5,-719 864.5,-719 400.88,-719 293.45,-719 169.11,-688.91 109.14,-672.45"/>
<polygon fill="#63b8ff" stroke="#63b8ff" points="1190.81,-351.47 1190.36,-340.88 1184.11,-349.44 1190.81,-351.47"/>
</a>
</g>
</g>
<!-- Node10 -->
<g id="Node000010" class="node">
<title>Node10</title>
<g id="a_Node000010"><a xlink:href="classxpath__ast__node.html#a6b675237a590548b68d0e0b97518b6df" target="_top" xlink:title=" ">
<polygon fill="white" stroke="#666666" points="126.62,-276 17.62,-276 17.62,-244 126.62,-244 126.62,-276"/>
<text xml:space="preserve" text-anchor="start" x="25.62" y="-262.5" font-family="Helvetica,sans-Serif" font-size="10.00">xpath_ast_node::eval</text>
<text xml:space="preserve" text-anchor="middle" x="72.12" y="-250.5" font-family="Helvetica,sans-Serif" font-size="10.00">_string</text>
</a>
</g>
</g>
<!-- Node3&#45;&gt;Node10 -->
<g id="edge29_Node000003_Node000010" class="edge">
<title>Node3&#45;&gt;Node10</title>
<g id="a_edge29_Node000003_Node000010"><a xlink:title=" ">
<path fill="none" stroke="#63b8ff" d="M1160.72,-314C1102.27,-288.88 976.23,-241 864.5,-241 864.5,-241 864.5,-241 400.88,-241 304.27,-241 191.91,-249.33 127.01,-254.96"/>
<polygon fill="#63b8ff" stroke="#63b8ff" points="1159.2,-317.16 1169.77,-317.95 1162,-310.75 1159.2,-317.16"/>
</a>
</g>
</g>
<!-- Node11 -->
<g id="Node000011" class="node">
<title>Node11</title>
<g id="a_Node000011"><a xlink:href="classxpath__ast__node.html#a92dd7048e28d486bc7f382d1fc6f1de6" target="_top" xlink:title=" ">
<polygon fill="white" stroke="#666666" points="770.38,-521 661.38,-521 661.38,-489 770.38,-489 770.38,-521"/>
<text xml:space="preserve" text-anchor="start" x="669.38" y="-507.5" font-family="Helvetica,sans-Serif" font-size="10.00">xpath_ast_node::eval</text>
<text xml:space="preserve" text-anchor="middle" x="715.88" y="-495.5" font-family="Helvetica,sans-Serif" font-size="10.00">_number</text>
</a>
</g>
</g>
<!-- Node3&#45;&gt;Node11 -->
<g id="edge28_Node000003_Node000011" class="edge">
<title>Node3&#45;&gt;Node11</title>
<g id="a_edge28_Node000003_Node000011"><a xlink:title=" ">
<path fill="none" stroke="#63b8ff" d="M1177.02,-347.84C1159.19,-366.9 1129.29,-396.05 1098.25,-414 992.63,-475.08 847.94,-495.24 770.68,-501.84"/>
<polygon fill="#63b8ff" stroke="#63b8ff" points="1179.57,-350.24 1183.74,-340.5 1174.41,-345.51 1179.57,-350.24"/>
</a>
</g>
</g>
<!-- Node5 -->
<g id="Node000005" class="node">
<title>Node5</title>
<g id="a_Node000005"><a xlink:href="classxpath__ast__node.html#ab7f965a92023bc2704b8e6fd9f3d7c14" target="_top" xlink:title=" ">
<polygon fill="white" stroke="#666666" points="918,-433 809,-433 809,-401 918,-401 918,-433"/>
<text xml:space="preserve" text-anchor="start" x="817" y="-419.5" font-family="Helvetica,sans-Serif" font-size="10.00">xpath_ast_node::eval</text>
<text xml:space="preserve" text-anchor="middle" x="863.5" y="-407.5" font-family="Helvetica,sans-Serif" font-size="10.00">_boolean</text>
</a>
</g>
</g>
<!-- Node4&#45;&gt;Node5 -->
<g id="edge4_Node000004_Node000005" class="edge">
<title>Node4&#45;&gt;Node5</title>
<g id="a_edge4_Node000004_Node000005"><a xlink:title=" ">
<path fill="none" stroke="#63b8ff" d="M942.54,-399.56C934.32,-400.71 926.13,-401.94 918.31,-403.22"/>
<polygon fill="#63b8ff" stroke="#63b8ff" points="942.79,-403.06 952.24,-398.27 941.86,-396.12 942.79,-403.06"/>
</a>
</g>
</g>
<!-- Node5&#45;&gt;Node4 -->
<g id="edge24_Node000005_Node000004" class="edge">
<title>Node5&#45;&gt;Node4</title>
<g id="a_edge24_Node000005_Node000004"><a xlink:title=" ">
<path fill="none" stroke="#63b8ff" d="M929.6,-414.73C950.35,-412.18 972.52,-408.83 990.27,-405.45"/>
<polygon fill="#63b8ff" stroke="#63b8ff" points="929.27,-411.24 919.75,-415.87 930.09,-418.19 929.27,-411.24"/>
</a>
</g>
</g>
<!-- Node6 -->
<g id="Node000006" class="node">
<title>Node6</title>
<g id="a_Node000006"><a xlink:href="classxpath__ast__node.html#ab4e5bbd3f2e83c86a43349374b4bfc22" target="_top" xlink:title=" ">
<polygon fill="white" stroke="#666666" points="773,-471 658.75,-471 658.75,-439 773,-439 773,-471"/>
<text xml:space="preserve" text-anchor="start" x="666.75" y="-457.5" font-family="Helvetica,sans-Serif" font-size="10.00">xpath_ast_node::apply</text>
<text xml:space="preserve" text-anchor="middle" x="715.88" y="-445.5" font-family="Helvetica,sans-Serif" font-size="10.00">_predicate_boolean</text>
</a>
</g>
</g>
<!-- Node5&#45;&gt;Node6 -->
<g id="edge5_Node000005_Node000006" class="edge">
<title>Node5&#45;&gt;Node6</title>
<g id="a_edge5_Node000005_Node000006"><a xlink:title=" ">
<path fill="none" stroke="#63b8ff" d="M797.74,-433.9C789.62,-436.02 781.37,-438.17 773.39,-440.25"/>
<polygon fill="#63b8ff" stroke="#63b8ff" points="798.43,-437.34 807.22,-431.42 796.66,-430.56 798.43,-437.34"/>
</a>
</g>
</g>
<!-- Node5&#45;&gt;Node10 -->
<g id="edge26_Node000005_Node000010" class="edge">
<title>Node5&#45;&gt;Node10</title>
<g id="a_edge26_Node000005_Node000010"><a xlink:title=" ">
<path fill="none" stroke="#63b8ff" d="M830.71,-395.22C776.6,-365.53 662.44,-317 559.88,-317 559.88,-317 559.88,-317 400.88,-317 301.73,-317 276.93,-305.99 180.25,-284 162.7,-280.01 143.84,-274.59 126.92,-269.73"/>
<polygon fill="#63b8ff" stroke="#63b8ff" points="828.67,-398.08 839.09,-399.96 832.11,-391.99 828.67,-398.08"/>
</a>
</g>
</g>
<!-- Node5&#45;&gt;Node11 -->
<g id="edge25_Node000005_Node000011" class="edge">
<title>Node5&#45;&gt;Node11</title>
<g id="a_edge25_Node000005_Node000011"><a xlink:title=" ">
<path fill="none" stroke="#63b8ff" d="M809.29,-439.79C809.19,-439.86 809.1,-439.93 809,-440 791.88,-452.35 790.83,-459.7 773,-471 762.55,-477.62 750.05,-483.38 739.5,-488.53"/>
<polygon fill="#63b8ff" stroke="#63b8ff" points="811.06,-442.82 817.34,-434.29 807.11,-437.04 811.06,-442.82"/>
</a>
</g>
</g>
<!-- Node7 -->
<g id="Node000007" class="node">
<title>Node7</title>
<g id="a_Node000007"><a xlink:href="classxpath__ast__node.html#a7e35f265c9e0712a16e1d8a9db4c7672" target="_top" xlink:title=" ">
<polygon fill="white" stroke="#666666" points="459,-546 344.75,-546 344.75,-514 459,-514 459,-546"/>
<text xml:space="preserve" text-anchor="start" x="352.75" y="-532.5" font-family="Helvetica,sans-Serif" font-size="10.00">xpath_ast_node::apply</text>
<text xml:space="preserve" text-anchor="middle" x="401.88" y="-520.5" font-family="Helvetica,sans-Serif" font-size="10.00">_predicate</text>
</a>
</g>
</g>
<!-- Node6&#45;&gt;Node7 -->
<g id="edge6_Node000006_Node000007" class="edge">
<title>Node6&#45;&gt;Node7</title>
<g id="a_edge6_Node000006_Node000007"><a xlink:title=" ">
<path fill="none" stroke="#63b8ff" d="M647.47,-471.2C591.36,-484.69 512.36,-503.68 459.48,-516.39"/>
<polygon fill="#63b8ff" stroke="#63b8ff" points="648,-474.68 656.9,-468.94 646.36,-467.87 648,-474.68"/>
</a>
</g>
</g>
<!-- Node8 -->
<g id="Node000008" class="node">
<title>Node8</title>
<g id="a_Node000008"><a xlink:href="classxpath__ast__node.html#a68cace396dd4eeae67ecfcd34a3a8285" target="_top" xlink:title=" ">
<polygon fill="white" stroke="#666666" points="299,-527 190,-527 190,-495 299,-495 299,-527"/>
<text xml:space="preserve" text-anchor="start" x="198" y="-513.5" font-family="Helvetica,sans-Serif" font-size="10.00">xpath_ast_node::eval</text>
<text xml:space="preserve" text-anchor="middle" x="244.5" y="-501.5" font-family="Helvetica,sans-Serif" font-size="10.00">_node_set</text>
</a>
</g>
</g>
<!-- Node7&#45;&gt;Node8 -->
<g id="edge7_Node000007_Node000008" class="edge">
<title>Node7&#45;&gt;Node8</title>
<g id="a_edge7_Node000007_Node000008"><a xlink:title=" ">
<path fill="none" stroke="#63b8ff" d="M333.18,-521.72C321.88,-520.34 310.29,-518.92 299.4,-517.59"/>
<polygon fill="#63b8ff" stroke="#63b8ff" points="332.49,-525.16 342.84,-522.9 333.34,-518.22 332.49,-525.16"/>
</a>
</g>
</g>
<!-- Node8&#45;&gt;Node4 -->
<g id="edge8_Node000008_Node000004" class="edge">
<title>Node8&#45;&gt;Node4</title>
<g id="a_edge8_Node000008_Node000004"><a xlink:title=" ">
<path fill="none" stroke="#63b8ff" d="M275.28,-487.73C328.68,-448.4 445.69,-373 557.88,-373 716.88,-373 716.88,-373 716.88,-373 798.16,-373 891.19,-380.7 953.6,-387"/>
<polygon fill="#63b8ff" stroke="#63b8ff" points="273.18,-484.93 267.27,-493.72 277.37,-490.53 273.18,-484.93"/>
</a>
</g>
</g>
<!-- Node8&#45;&gt;Node5 -->
<g id="edge11_Node000008_Node000005" class="edge">
<title>Node8&#45;&gt;Node5</title>
<g id="a_edge11_Node000008_Node000005"><a xlink:title=" ">
<path fill="none" stroke="#63b8ff" d="M310.3,-495.59C391.3,-476.95 534.45,-446.08 658.75,-430 709.37,-423.45 767.51,-420.16 808.69,-418.53"/>
<polygon fill="#63b8ff" stroke="#63b8ff" points="309.72,-492.13 300.76,-497.79 311.29,-498.95 309.72,-492.13"/>
</a>
</g>
</g>
<!-- Node8&#45;&gt;Node9 -->
<g id="edge9_Node000008_Node000009" class="edge">
<title>Node8&#45;&gt;Node9</title>
<g id="a_edge9_Node000008_Node000009"><a xlink:title=" ">
<path fill="none" stroke="#63b8ff" d="M216.43,-534.99C178.55,-568.57 111.35,-628.12 84.59,-651.84"/>
<polygon fill="#63b8ff" stroke="#63b8ff" points="218.65,-537.7 223.81,-528.45 214,-532.46 218.65,-537.7"/>
</a>
</g>
</g>
<!-- Node8&#45;&gt;Node10 -->
<g id="edge12_Node000008_Node000010" class="edge">
<title>Node8&#45;&gt;Node10</title>
<g id="a_edge12_Node000008_Node000010"><a xlink:title=" ">
<path fill="none" stroke="#63b8ff" d="M189.3,-488.57C186.07,-486.26 183.01,-483.74 180.25,-481 118.64,-419.91 87.29,-316.29 77.02,-276.36"/>
<polygon fill="#63b8ff" stroke="#63b8ff" points="187.2,-491.38 197.52,-493.76 190.93,-485.46 187.2,-491.38"/>
</a>
</g>
</g>
<!-- Node9&#45;&gt;Node5 -->
<g id="edge10_Node000009_Node000005" class="edge">
<title>Node9&#45;&gt;Node5</title>
<g id="a_edge10_Node000009_Node000005"><a xlink:title=" ">
<path fill="none" stroke="#63b8ff" d="M155.86,-669.45C222.08,-674.78 317.36,-681 400.88,-681 559.88,-681 559.88,-681 559.88,-681 711.52,-681 823.93,-490.44 854.31,-433.12"/>
<polygon fill="#63b8ff" stroke="#63b8ff" points="156.42,-665.99 146.17,-668.66 155.85,-672.96 156.42,-665.99"/>
</a>
</g>
</g>
<!-- Node10&#45;&gt;Node4 -->
<g id="edge13_Node000010_Node000004" class="edge">
<title>Node10&#45;&gt;Node4</title>
<g id="a_edge13_Node000010_Node000004"><a xlink:title=" ">
<path fill="none" stroke="#63b8ff" d="M138.07,-265.99C204.15,-271.56 309.55,-279 400.88,-279 716.88,-279 716.88,-279 716.88,-279 836.09,-279 965.59,-355.95 1009.54,-384.5"/>
<polygon fill="#63b8ff" stroke="#63b8ff" points="138.78,-262.54 128.51,-265.17 138.18,-269.51 138.78,-262.54"/>
</a>
</g>
</g>
<!-- Node10&#45;&gt;Node5 -->
<g id="edge14_Node000010_Node000005" class="edge">
<title>Node10&#45;&gt;Node5</title>
<g id="a_edge14_Node000010_Node000005"><a xlink:title=" ">
<path fill="none" stroke="#63b8ff" d="M109.3,-280.55C129.89,-288.44 156.28,-296.55 180.25,-302 276.93,-323.99 301.73,-335 400.88,-335 559.88,-335 559.88,-335 559.88,-335 654.51,-335 759.02,-376.32 817.12,-400.52"/>
<polygon fill="#63b8ff" stroke="#63b8ff" points="110.79,-277.38 100.21,-276.9 108.18,-283.87 110.79,-277.38"/>
</a>
</g>
</g>
<!-- Node10&#45;&gt;Node11 -->
<g id="edge15_Node000010_Node000011" class="edge">
<title>Node10&#45;&gt;Node11</title>
<g id="a_edge15_Node000010_Node000011"><a xlink:title=" ">
<path fill="none" stroke="#63b8ff" d="M90.67,-285.14C110.61,-307.62 144.97,-339.25 180.25,-358 343.53,-444.79 561.23,-488.97 660.91,-502.01"/>
<polygon fill="#63b8ff" stroke="#63b8ff" points="93.4,-282.95 84.27,-277.58 88.06,-287.47 93.4,-282.95"/>
</a>
</g>
</g>
<!-- Node11&#45;&gt;Node4 -->
<g id="edge20_Node000011_Node000004" class="edge">
<title>Node11&#45;&gt;Node4</title>
<g id="a_edge20_Node000011_Node000004"><a xlink:title=" ">
<path fill="none" stroke="#63b8ff" d="M781.65,-486.68C821.37,-474.96 873.06,-458.84 918,-442 948.05,-430.74 981.81,-415.48 1003.26,-405.44"/>
<polygon fill="#63b8ff" stroke="#63b8ff" points="780.84,-483.27 772.23,-489.44 782.81,-489.99 780.84,-483.27"/>
</a>
</g>
</g>
<!-- Node11&#45;&gt;Node5 -->
<g id="edge22_Node000011_Node000005" class="edge">
<title>Node11&#45;&gt;Node5</title>
<g id="a_edge22_Node000011_Node000005"><a xlink:title=" ">
<path fill="none" stroke="#63b8ff" d="M779.97,-483.99C791.73,-474.9 794.95,-468.13 809,-458 820.94,-449.39 835.29,-440.9 846.12,-433.48"/>
<polygon fill="#63b8ff" stroke="#63b8ff" points="778.26,-480.91 772.05,-489.49 782.26,-486.66 778.26,-480.91"/>
</a>
</g>
</g>
<!-- Node11&#45;&gt;Node9 -->
<g id="edge21_Node000011_Node000009" class="edge">
<title>Node11&#45;&gt;Node9</title>
<g id="a_edge21_Node000011_Node000009"><a xlink:title=" ">
<path fill="none" stroke="#63b8ff" d="M702.86,-531.3C688.32,-559.7 660.96,-603.59 622.75,-624 541.91,-667.17 274.14,-667 144.58,-664.19"/>
<polygon fill="#63b8ff" stroke="#63b8ff" points="705.86,-533.14 707.13,-522.62 699.58,-530.05 705.86,-533.14"/>
</a>
</g>
</g>
<!-- Node11&#45;&gt;Node10 -->
<g id="edge23_Node000011_Node000010" class="edge">
<title>Node11&#45;&gt;Node10</title>
<g id="a_edge23_Node000011_Node000010"><a xlink:title=" ">
<path fill="none" stroke="#63b8ff" d="M649.65,-489.2C545.57,-467.72 337.63,-423.66 180.25,-340 147.8,-322.75 116.12,-294.61 95.73,-276.47"/>
<polygon fill="#63b8ff" stroke="#63b8ff" points="648.92,-492.62 659.43,-491.21 650.34,-485.77 648.92,-492.62"/>
</a>
</g>
</g>
<!-- Node12 -->
<g id="Node000012" class="node">
<title>Node12</title>
<g id="a_Node000012"><a xlink:href="classxpath__ast__node.html#abf2d4b745493f63aebc1c89d9fde8eed" target="_top" xlink:title=" ">
<polygon fill="white" stroke="#666666" points="616,-565 501.75,-565 501.75,-533 616,-533 616,-565"/>
<text xml:space="preserve" text-anchor="start" x="509.75" y="-551.5" font-family="Helvetica,sans-Serif" font-size="10.00">xpath_ast_node::apply</text>
<text xml:space="preserve" text-anchor="middle" x="558.88" y="-539.5" font-family="Helvetica,sans-Serif" font-size="10.00">_predicate_number</text>
</a>
</g>
</g>
<!-- Node11&#45;&gt;Node12 -->
<g id="edge16_Node000011_Node000012" class="edge">
<title>Node11&#45;&gt;Node12</title>
<g id="a_edge16_Node000011_Node000012"><a xlink:title=" ">
<path fill="none" stroke="#63b8ff" d="M650.09,-523.39C638.92,-526.56 627.39,-529.84 616.46,-532.94"/>
<polygon fill="#63b8ff" stroke="#63b8ff" points="650.98,-526.78 659.64,-520.68 649.07,-520.04 650.98,-526.78"/>
</a>
</g>
</g>
<!-- Node13 -->
<g id="Node000013" class="node">
<title>Node13</title>
<g id="a_Node000013"><a xlink:href="classxpath__ast__node.html#a8cedd7e15623b9fa431788b8843f1463" target="_top" xlink:title=" ">
<polygon fill="white" stroke="#666666" points="622.75,-615 495,-615 495,-583 622.75,-583 622.75,-615"/>
<text xml:space="preserve" text-anchor="start" x="503" y="-601.5" font-family="Helvetica,sans-Serif" font-size="10.00">xpath_ast_node::apply</text>
<text xml:space="preserve" text-anchor="middle" x="558.88" y="-589.5" font-family="Helvetica,sans-Serif" font-size="10.00">_predicate_number_const</text>
</a>
</g>
</g>
<!-- Node11&#45;&gt;Node13 -->
<g id="edge18_Node000011_Node000013" class="edge">
<title>Node11&#45;&gt;Node13</title>
<g id="a_edge18_Node000011_Node000013"><a xlink:title=" ">
<path fill="none" stroke="#63b8ff" d="M687.51,-528.53C669.84,-542.94 645.91,-561.03 622.75,-574 617.32,-577.04 611.44,-579.9 605.53,-582.51"/>
<polygon fill="#63b8ff" stroke="#63b8ff" points="689.5,-531.43 694.97,-522.35 685.04,-526.04 689.5,-531.43"/>
</a>
</g>
</g>
<!-- Node12&#45;&gt;Node7 -->
<g id="edge17_Node000012_Node000007" class="edge">
<title>Node12&#45;&gt;Node7</title>
<g id="a_edge17_Node000012_Node000007"><a xlink:title=" ">
<path fill="none" stroke="#63b8ff" d="M490.08,-540.69C479.87,-539.44 469.43,-538.16 459.49,-536.94"/>
<polygon fill="#63b8ff" stroke="#63b8ff" points="489.62,-544.16 499.98,-541.9 490.48,-537.21 489.62,-544.16"/>
</a>
</g>
</g>
<!-- Node13&#45;&gt;Node7 -->
<g id="edge19_Node000013_Node000007" class="edge">
<title>Node13&#45;&gt;Node7</title>
<g id="a_edge19_Node000013_Node000007"><a xlink:title=" ">
<path fill="none" stroke="#63b8ff" d="M505.11,-578.32C501.68,-576.88 498.28,-575.43 495,-574 475.19,-565.34 453.33,-554.94 435.89,-546.43"/>
<polygon fill="#63b8ff" stroke="#63b8ff" points="503.46,-581.43 514.04,-582 506.13,-574.95 503.46,-581.43"/>
</a>
</g>
</g>
<!-- Node14&#45;&gt;Node3 -->
<g id="edge34_Node000014_Node000003" class="edge">
<title>Node14&#45;&gt;Node3</title>
<g id="a_edge34_Node000014_Node000003"><a xlink:title=" ">
<path fill="none" stroke="#63b8ff" d="M1325.75,-208.81C1291.27,-240.69 1231.58,-295.87 1206.91,-318.68"/>
<polygon fill="#63b8ff" stroke="#63b8ff" points="1327.86,-211.62 1332.82,-202.27 1323.11,-206.48 1327.86,-211.62"/>
</a>
</g>
</g>
<!-- Node14&#45;&gt;Node10 -->
<g id="edge33_Node000014_Node000010" class="edge">
<title>Node14&#45;&gt;Node10</title>
<g id="a_edge33_Node000014_Node000010"><a xlink:title=" ">
<path fill="none" stroke="#63b8ff" d="M1293.61,-190.15C1228.77,-195.47 1120.5,-203 1027.12,-203 1027.12,-203 1027.12,-203 400.88,-203 303.12,-203 191.37,-227.91 126.85,-244.8"/>
<polygon fill="#63b8ff" stroke="#63b8ff" points="1293.63,-193.66 1303.3,-189.35 1293.05,-186.69 1293.63,-193.66"/>
</a>
</g>
</g>
<!-- Node15 -->
<g id="Node000015" class="node">
<title>Node15</title>
<g id="a_Node000015"><a xlink:href="pugixml_8cpp.html#a70fefd711768a3ae223cf73fdb088f40" target="_top" xlink:title=" ">
<polygon fill="white" stroke="#666666" points="308.75,-175 180.25,-175 180.25,-155 308.75,-155 308.75,-175"/>
<text xml:space="preserve" text-anchor="middle" x="244.5" y="-161.5" font-family="Helvetica,sans-Serif" font-size="10.00">convert_number_to_string</text>
</a>
</g>
</g>
<!-- Node14&#45;&gt;Node15 -->
<g id="edge31_Node000014_Node000015" class="edge">
<title>Node14&#45;&gt;Node15</title>
<g id="a_edge31_Node000014_Node000015"><a xlink:title=" ">
<path fill="none" stroke="#63b8ff" d="M1293.63,-179.28C1228.79,-173.36 1120.54,-165 1027.12,-165 1027.12,-165 1027.12,-165 557.88,-165 471.78,-165 372.34,-165 309.22,-165"/>
<polygon fill="#63b8ff" stroke="#63b8ff" points="1293.04,-182.74 1303.32,-180.17 1293.68,-175.77 1293.04,-182.74"/>
</a>
</g>
</g>
<!-- Node15&#45;&gt;Node10 -->
<g id="edge32_Node000015_Node000010" class="edge">
<title>Node15&#45;&gt;Node10</title>
<g id="a_edge32_Node000015_Node000010"><a xlink:title=" ">
<path fill="none" stroke="#63b8ff" d="M201.11,-179.58C194.03,-182.45 186.84,-185.62 180.25,-189 149.08,-204.99 115.85,-228.07 94.81,-243.53"/>
<polygon fill="#63b8ff" stroke="#63b8ff" points="202.22,-182.91 210.28,-176.04 199.69,-176.38 202.22,-182.91"/>
</a>
</g>
</g>
<!-- Node16&#45;&gt;Node10 -->
<g id="edge36_Node000016_Node000010" class="edge">
<title>Node16&#45;&gt;Node10</title>
<g id="a_edge36_Node000016_Node000010"><a xlink:title=" ">
<path fill="none" stroke="#63b8ff" d="M1122.57,-54.81C1055.96,-47.86 953.62,-39 864.5,-39 864.5,-39 864.5,-39 400.88,-39 301.45,-39 262.03,-19.46 180.25,-76 119.29,-118.14 88.11,-207.14 77.45,-243.75"/>
<polygon fill="#63b8ff" stroke="#63b8ff" points="1121.95,-58.26 1132.26,-55.83 1122.68,-51.3 1121.95,-58.26"/>
</a>
</g>
</g>
<!-- Node17&#45;&gt;Node10 -->
<g id="edge39_Node000017_Node000010" class="edge">
<title>Node17&#45;&gt;Node10</title>
<g id="a_edge39_Node000017_Node000010"><a xlink:title=" ">
<path fill="none" stroke="#63b8ff" d="M353.69,-100.61C306.84,-83.68 234.39,-66.7 180.25,-96 120.88,-128.13 89.17,-209.04 77.93,-243.76"/>
<polygon fill="#63b8ff" stroke="#63b8ff" points="352.43,-103.87 363.02,-104.12 354.89,-97.32 352.43,-103.87"/>
</a>
</g>
</g>
<!-- Node17&#45;&gt;Node15 -->
<g id="edge38_Node000017_Node000015" class="edge">
<title>Node17&#45;&gt;Node15</title>
<g id="a_edge38_Node000017_Node000015"><a xlink:title=" ">
<path fill="none" stroke="#63b8ff" d="M340.7,-138.04C321.09,-143.59 299.91,-149.59 282.52,-154.52"/>
<polygon fill="#63b8ff" stroke="#63b8ff" points="341.59,-141.43 350.26,-135.33 339.68,-134.69 341.59,-141.43"/>
</a>
</g>
</g>
<!-- Node18 -->
<g id="Node000018" class="node">
<title>Node18</title>
<g id="a_Node000018"><a xlink:href="classxpath__ast__node.html#aaf931a091af0fb91c25e90b205363b4e" target="_top" xlink:title=" ">
<polygon fill="white" stroke="#666666" points="299,-137 190,-137 190,-105 299,-105 299,-137"/>
<text xml:space="preserve" text-anchor="start" x="198" y="-123.5" font-family="Helvetica,sans-Serif" font-size="10.00">xpath_ast_node::eval</text>
<text xml:space="preserve" text-anchor="middle" x="244.5" y="-111.5" font-family="Helvetica,sans-Serif" font-size="10.00">_string_concat</text>
</a>
</g>
</g>
<!-- Node17&#45;&gt;Node18 -->
<g id="edge40_Node000017_Node000018" class="edge">
<title>Node17&#45;&gt;Node18</title>
<g id="a_edge40_Node000017_Node000018"><a xlink:title=" ">
<path fill="none" stroke="#63b8ff" d="M340.55,-121C327.01,-121 312.72,-121 299.46,-121"/>
<polygon fill="#63b8ff" stroke="#63b8ff" points="340.2,-124.5 350.2,-121 340.2,-117.5 340.2,-124.5"/>
</a>
</g>
</g>
<!-- Node18&#45;&gt;Node10 -->
<g id="edge41_Node000018_Node000010" class="edge">
<title>Node18&#45;&gt;Node10</title>
<g id="a_edge41_Node000018_Node000010"><a xlink:title=" ">
<path fill="none" stroke="#63b8ff" d="M185.24,-142.83C183.53,-143.85 181.86,-144.91 180.25,-146 139.36,-173.76 102.46,-219.67 84.55,-243.89"/>
<polygon fill="#63b8ff" stroke="#63b8ff" points="186.88,-145.92 194.04,-138.1 183.57,-139.75 186.88,-145.92"/>
</a>
</g>
</g>
</g>
</svg>
