<?xml version="1.0" encoding="UTF-8" standalone="no"?>
<!DOCTYPE svg PUBLIC "-//W3C//DTD SVG 1.1//EN"
 "http://www.w3.org/Graphics/SVG/1.1/DTD/svg11.dtd">
<!-- Generated by graphviz version 14.1.2 (20260124.0452)
 -->
<!-- Title: main Pages: 1 -->
<svg width="737pt" height="216pt"
 viewBox="0.00 0.00 737.00 216.00" xmlns="http://www.w3.org/2000/svg" xmlns:xlink="http://www.w3.org/1999/xlink">
<g id="graph0" class="graph" transform="scale(1 1) rotate(0) translate(4 212)">
<title>main</title>
<!-- Node1 -->
<g id="Node000001" class="node">
<title>Node1</title>
<g id="a_Node000001"><a xlink:title=" ">
<polygon fill="#999999" stroke="#666666" points="37,-108 0,-108 0,-88 37,-88 37,-108"/>
<text xml:space="preserve" text-anchor="middle" x="18.5" y="-94.5" font-family="Helvetica,sans-Serif" font-size="10.00">main</text>
</a>
</g>
</g>
<!-- Node2 -->
<g id="Node000002" class="node">
<title>Node2</title>
<g id="a_Node000002"><a xlink:href="main_8cpp.html#ac560c73351b96bd41b62c1d5596de936" target="_top" xlink:title="Imprime los controles de la aplicación en consola.">
<polygon fill="white" stroke="#666666" points="157.62,-127 86.12,-127 86.12,-107 157.62,-107 157.62,-127"/>
<text xml:space="preserve" text-anchor="middle" x="121.88" y="-113.5" font-family="Helvetica,sans-Serif" font-size="10.00">printControls</text>
</a>
</g>
</g>
<!-- Node1&#45;&gt;Node2 -->
<g id="edge1_Node000001_Node000002" class="edge">
<title>Node1&#45;&gt;Node2</title>
<g id="a_edge1_Node000001_Node000002"><a xlink:title=" ">
<path fill="none" stroke="#63b8ff" d="M37.16,-101.31C47.62,-103.27 61.4,-105.85 74.76,-108.36"/>
<polygon fill="#63b8ff" stroke="#63b8ff" points="73.83,-111.74 84.3,-110.15 75.12,-104.86 73.83,-111.74"/>
</a>
</g>
</g>
<!-- Node3 -->
<g id="Node000003" class="node">
<title>Node3</title>
<g id="a_Node000003"><a xlink:href="class_g_e_application.html#a2a7d38dd9a5bca43fc115b09704915a4" target="_top" xlink:title="Ejecuta la aplicación.">
<polygon fill="white" stroke="#666666" points="170.75,-89 73,-89 73,-69 170.75,-69 170.75,-89"/>
<text xml:space="preserve" text-anchor="middle" x="121.88" y="-75.5" font-family="Helvetica,sans-Serif" font-size="10.00">GEApplication::run</text>
</a>
</g>
</g>
<!-- Node1&#45;&gt;Node3 -->
<g id="edge2_Node000001_Node000003" class="edge">
<title>Node1&#45;&gt;Node3</title>
<g id="a_edge2_Node000001_Node000003"><a xlink:title=" ">
<path fill="none" stroke="#63b8ff" d="M37.16,-94.69C44.26,-93.36 52.88,-91.74 61.87,-90.06"/>
<polygon fill="#63b8ff" stroke="#63b8ff" points="62.26,-93.55 71.45,-88.26 60.97,-86.67 62.26,-93.55"/>
</a>
</g>
</g>
<!-- Node4 -->
<g id="Node000004" class="node">
<title>Node4</title>
<g id="a_Node000004"><a xlink:href="class_g_e_application.html#a461c4a6a6d343e4a5fdd993068fb8af1" target="_top" xlink:title="Libera los recursos y finaliza la aplicación.">
<polygon fill="white" stroke="#666666" points="340.5,-146 222.5,-146 222.5,-126 340.5,-126 340.5,-146"/>
<text xml:space="preserve" text-anchor="middle" x="281.5" y="-132.5" font-family="Helvetica,sans-Serif" font-size="10.00">GEApplication::cleanup</text>
</a>
</g>
</g>
<!-- Node3&#45;&gt;Node4 -->
<g id="edge3_Node000003_Node000004" class="edge">
<title>Node3&#45;&gt;Node4</title>
<g id="a_edge3_Node000003_Node000004"><a xlink:title=" ">
<path fill="none" stroke="#63b8ff" d="M150.68,-89.45C157.32,-92.1 164.33,-95.04 170.75,-98 187.18,-105.57 189.88,-110.48 206.75,-117 211.73,-118.92 216.97,-120.72 222.27,-122.37"/>
<polygon fill="#63b8ff" stroke="#63b8ff" points="221.13,-125.68 231.71,-125.13 223.1,-118.96 221.13,-125.68"/>
</a>
</g>
</g>
<!-- Node5 -->
<g id="Node000005" class="node">
<title>Node5</title>
<g id="a_Node000005"><a xlink:href="class_g_e_application.html#ae473a6cb8cc8aa8a76a19a8df91d6e49" target="_top" xlink:title="Inicializa la ventana GLFW.">
<polygon fill="white" stroke="#666666" points="347.62,-108 215.38,-108 215.38,-88 347.62,-88 347.62,-108"/>
<text xml:space="preserve" text-anchor="middle" x="281.5" y="-94.5" font-family="Helvetica,sans-Serif" font-size="10.00">GEApplication::initWindow</text>
</a>
</g>
</g>
<!-- Node3&#45;&gt;Node5 -->
<g id="edge4_Node000003_Node000005" class="edge">
<title>Node3&#45;&gt;Node5</title>
<g id="a_edge4_Node000003_Node000005"><a xlink:title=" ">
<path fill="none" stroke="#63b8ff" d="M171.02,-84.8C181.41,-86.06 192.64,-87.41 203.82,-88.76"/>
<polygon fill="#63b8ff" stroke="#63b8ff" points="203.09,-92.19 213.44,-89.92 203.93,-85.24 203.09,-92.19"/>
</a>
</g>
</g>
<!-- Node13 -->
<g id="Node000013" class="node">
<title>Node13</title>
<g id="a_Node000013"><a xlink:href="class_g_e_application.html#ac34507dbd747e24e4e1f443b5a756dbb" target="_top" xlink:title="Inicializa la posición de la ventana.">
<polygon fill="white" stroke="#666666" points="356.25,-70 206.75,-70 206.75,-50 356.25,-50 356.25,-70"/>
<text xml:space="preserve" text-anchor="middle" x="281.5" y="-56.5" font-family="Helvetica,sans-Serif" font-size="10.00">GEApplication::initWindowPos</text>
</a>
</g>
</g>
<!-- Node3&#45;&gt;Node13 -->
<g id="edge12_Node000003_Node000013" class="edge">
<title>Node3&#45;&gt;Node13</title>
<g id="a_edge12_Node000003_Node000013"><a xlink:title=" ">
<path fill="none" stroke="#63b8ff" d="M171.02,-73.2C178.74,-72.27 186.93,-71.28 195.2,-70.28"/>
<polygon fill="#63b8ff" stroke="#63b8ff" points="195.51,-73.77 205.02,-69.1 194.67,-66.82 195.51,-73.77"/>
</a>
</g>
</g>
<!-- Node14 -->
<g id="Node000014" class="node">
<title>Node14</title>
<g id="a_Node000014"><a xlink:href="class_g_e_application.html#adde238fa4ed636bfebd76be73af395b7" target="_top" xlink:title="Bucle principal que procesa eventos y dibuja cada frame.">
<polygon fill="white" stroke="#666666" points="344.62,-26 218.38,-26 218.38,-6 344.62,-6 344.62,-26"/>
<text xml:space="preserve" text-anchor="middle" x="281.5" y="-12.5" font-family="Helvetica,sans-Serif" font-size="10.00">GEApplication::mainLoop</text>
</a>
</g>
</g>
<!-- Node3&#45;&gt;Node14 -->
<g id="edge13_Node000003_Node000014" class="edge">
<title>Node3&#45;&gt;Node14</title>
<g id="a_edge13_Node000003_Node000014"><a xlink:title=" ">
<path fill="none" stroke="#63b8ff" d="M144.35,-68.57C161.15,-60.57 185.19,-49.51 206.75,-41 216.34,-37.21 226.77,-33.46 236.68,-30.06"/>
<polygon fill="#63b8ff" stroke="#63b8ff" points="237.78,-33.38 246.14,-26.87 235.55,-26.75 237.78,-33.38"/>
</a>
</g>
</g>
<!-- Node6 -->
<g id="Node000006" class="node">
<title>Node6</title>
<g id="a_Node000006"><a xlink:href="class_g_e_application.html#a028396b9bae6c5697fc358e8260b3312" target="_top" xlink:title="Respuesta a un evento de movimiento del cursor.">
<polygon fill="white" stroke="#666666" points="538.75,-208 392.25,-208 392.25,-176 538.75,-176 538.75,-208"/>
<text xml:space="preserve" text-anchor="start" x="400.25" y="-194.5" font-family="Helvetica,sans-Serif" font-size="10.00">GEApplication::cursorPosition</text>
<text xml:space="preserve" text-anchor="middle" x="465.5" y="-182.5" font-family="Helvetica,sans-Serif" font-size="10.00">Callback</text>
</a>
</g>
</g>
<!-- Node5&#45;&gt;Node6 -->
<g id="edge5_Node000005_Node000006" class="edge">
<title>Node5&#45;&gt;Node6</title>
<g id="a_edge5_Node000005_Node000006"><a xlink:title=" ">
<path fill="none" stroke="#63b8ff" d="M339.82,-108.45C345.63,-110.76 351.23,-113.57 356.25,-117 378.86,-132.45 370.29,-150.65 392.25,-167 393.61,-168.02 395.02,-168.99 396.47,-169.93"/>
<polygon fill="#63b8ff" stroke="#63b8ff" points="394.71,-172.96 405.14,-174.85 398.17,-166.87 394.71,-172.96"/>
</a>
</g>
</g>
<!-- Node7 -->
<g id="Node000007" class="node">
<title>Node7</title>
<g id="a_Node000007"><a xlink:href="class_g_e_application.html#ae38335734c12fd0bac757536085068fa" target="_top" xlink:title="Respuesta a un evento de redimensionamiento de la ventana.">
<polygon fill="white" stroke="#666666" points="532,-158 399,-158 399,-126 532,-126 532,-158"/>
<text xml:space="preserve" text-anchor="start" x="407" y="-144.5" font-family="Helvetica,sans-Serif" font-size="10.00">GEApplication::framebuffer</text>
<text xml:space="preserve" text-anchor="middle" x="465.5" y="-132.5" font-family="Helvetica,sans-Serif" font-size="10.00">ResizeCallback</text>
</a>
</g>
</g>
<!-- Node5&#45;&gt;Node7 -->
<g id="edge6_Node000005_Node000007" class="edge">
<title>Node5&#45;&gt;Node7</title>
<g id="a_edge6_Node000005_Node000007"><a xlink:title=" ">
<path fill="none" stroke="#63b8ff" d="M325.63,-108.43C344.16,-112.91 366.39,-118.28 387.58,-123.4"/>
<polygon fill="#63b8ff" stroke="#63b8ff" points="386.52,-126.75 397.07,-125.7 388.17,-119.95 386.52,-126.75"/>
</a>
</g>
</g>
<!-- Node9 -->
<g id="Node000009" class="node">
<title>Node9</title>
<g id="a_Node000009"><a xlink:href="class_g_e_application.html#aff889e80a2c5e7e0bf9b530b7ae3cc16" target="_top" xlink:title="Respuesta a un evento de teclado.">
<polygon fill="white" stroke="#666666" points="534.62,-108 396.38,-108 396.38,-88 534.62,-88 534.62,-108"/>
<text xml:space="preserve" text-anchor="middle" x="465.5" y="-94.5" font-family="Helvetica,sans-Serif" font-size="10.00">GEApplication::keyCallback</text>
</a>
</g>
</g>
<!-- Node5&#45;&gt;Node9 -->
<g id="edge8_Node000005_Node000009" class="edge">
<title>Node5&#45;&gt;Node9</title>
<g id="a_edge8_Node000005_Node000009"><a xlink:title=" ">
<path fill="none" stroke="#63b8ff" d="M347.95,-98C359.89,-98 372.46,-98 384.76,-98"/>
<polygon fill="#63b8ff" stroke="#63b8ff" points="384.44,-101.5 394.44,-98 384.44,-94.5 384.44,-101.5"/>
</a>
</g>
</g>
<!-- Node12 -->
<g id="Node000012" class="node">
<title>Node12</title>
<g id="a_Node000012"><a xlink:href="class_g_e_application.html#a41dd9caf88a4ca14c2c177076ce4ecfd" target="_top" xlink:title="Respuesta a un evento de botón de ratón.">
<polygon fill="white" stroke="#666666" points="536.5,-70 394.5,-70 394.5,-38 536.5,-38 536.5,-70"/>
<text xml:space="preserve" text-anchor="start" x="402.5" y="-56.5" font-family="Helvetica,sans-Serif" font-size="10.00">GEApplication::mouseButton</text>
<text xml:space="preserve" text-anchor="middle" x="465.5" y="-44.5" font-family="Helvetica,sans-Serif" font-size="10.00">Callback</text>
</a>
</g>
</g>
<!-- Node5&#45;&gt;Node12 -->
<g id="edge11_Node000005_Node000012" class="edge">
<title>Node5&#45;&gt;Node12</title>
<g id="a_edge11_Node000005_Node000012"><a xlink:title=" ">
<path fill="none" stroke="#63b8ff" d="M325.63,-87.57C343.54,-83.24 364.91,-78.08 385.45,-73.11"/>
<polygon fill="#63b8ff" stroke="#63b8ff" points="386.05,-76.57 394.95,-70.81 384.41,-69.76 386.05,-76.57"/>
</a>
</g>
</g>
<!-- Node8 -->
<g id="Node000008" class="node">
<title>Node8</title>
<g id="a_Node000008"><a xlink:href="class_g_e_application.html#aba108b6e4e758a6ffa21bf644bce3ab8" target="_top" xlink:title="Reconstruye los objetos con el nuevo tamaño de ventana.">
<polygon fill="white" stroke="#666666" points="707,-152 596.5,-152 596.5,-132 707,-132 707,-152"/>
<text xml:space="preserve" text-anchor="middle" x="651.75" y="-138.5" font-family="Helvetica,sans-Serif" font-size="10.00">GEApplication::resize</text>
</a>
</g>
</g>
<!-- Node7&#45;&gt;Node8 -->
<g id="edge7_Node000007_Node000008" class="edge">
<title>Node7&#45;&gt;Node8</title>
<g id="a_edge7_Node000007_Node000008"><a xlink:title=" ">
<path fill="none" stroke="#63b8ff" d="M532.5,-142C549.45,-142 567.68,-142 584.63,-142"/>
<polygon fill="#63b8ff" stroke="#63b8ff" points="584.62,-145.5 594.62,-142 584.62,-138.5 584.62,-145.5"/>
</a>
</g>
</g>
<!-- Node10 -->
<g id="Node000010" class="node">
<title>Node10</title>
<g id="a_Node000010"><a xlink:href="class_g_e_scene.html#a971e9b981ad219b661db89f03f6d3179" target="_top" xlink:title="Maneja acciones de teclado.">
<polygon fill="white" stroke="#666666" points="707.38,-111 596.12,-111 596.12,-91 707.38,-91 707.38,-111"/>
<text xml:space="preserve" text-anchor="middle" x="651.75" y="-97.5" font-family="Helvetica,sans-Serif" font-size="10.00">GEScene::key_action</text>
</a>
</g>
</g>
<!-- Node9&#45;&gt;Node10 -->
<g id="edge9_Node000009_Node000010" class="edge">
<title>Node9&#45;&gt;Node10</title>
<g id="a_edge9_Node000009_Node000010"><a xlink:title=" ">
<path fill="none" stroke="#63b8ff" d="M535.11,-99.12C551.24,-99.38 568.41,-99.66 584.45,-99.92"/>
<polygon fill="#63b8ff" stroke="#63b8ff" points="584.32,-103.42 594.38,-100.08 584.43,-96.42 584.32,-103.42"/>
</a>
</g>
</g>
<!-- Node11 -->
<g id="Node000011" class="node">
<title>Node11</title>
<g id="a_Node000011"><a xlink:href="class_g_e_application.html#ae1a2c4de09efffbc0a40eb0f1505cf96" target="_top" xlink:title="Cambia entre pantalla completa y modo ventana.">
<polygon fill="white" stroke="#666666" points="728.75,-73 574.75,-73 574.75,-53 728.75,-53 728.75,-73"/>
<text xml:space="preserve" text-anchor="middle" x="651.75" y="-59.5" font-family="Helvetica,sans-Serif" font-size="10.00">GEApplication::swapFullScreen</text>
</a>
</g>
</g>
<!-- Node9&#45;&gt;Node11 -->
<g id="edge10_Node000009_Node000011" class="edge">
<title>Node9&#45;&gt;Node11</title>
<g id="a_edge10_Node000009_Node000011"><a xlink:title=" ">
<path fill="none" stroke="#63b8ff" d="M521.28,-87.59C541.06,-83.84 563.61,-79.55 584.28,-75.63"/>
<polygon fill="#63b8ff" stroke="#63b8ff" points="584.88,-79.07 594.06,-73.77 583.58,-72.2 584.88,-79.07"/>
</a>
</g>
</g>
<!-- Node15 -->
<g id="Node000015" class="node">
<title>Node15</title>
<g id="a_Node000015"><a xlink:href="class_g_e_application.html#a2b00b2d665876b63d4b227c933964c37" target="_top" xlink:title="Lanza la generación del dibujo.">
<polygon fill="white" stroke="#666666" points="518.12,-20 412.88,-20 412.88,0 518.12,0 518.12,-20"/>
<text xml:space="preserve" text-anchor="middle" x="465.5" y="-6.5" font-family="Helvetica,sans-Serif" font-size="10.00">GEApplication::draw</text>
</a>
</g>
</g>
<!-- Node14&#45;&gt;Node15 -->
<g id="edge14_Node000014_Node000015" class="edge">
<title>Node14&#45;&gt;Node15</title>
<g id="a_edge14_Node000014_Node000015"><a xlink:title=" ">
<path fill="none" stroke="#63b8ff" d="M344.88,-13.94C363.03,-13.35 382.87,-12.69 401.08,-12.09"/>
<polygon fill="#63b8ff" stroke="#63b8ff" points="401.09,-15.59 410.97,-11.76 400.86,-8.6 401.09,-15.59"/>
</a>
</g>
</g>
</g>
</svg>
