<?xml version="1.0" encoding="UTF-8" standalone="no"?>
<!DOCTYPE svg PUBLIC "-//W3C//DTD SVG 1.1//EN"
 "http://www.w3.org/Graphics/SVG/1.1/DTD/svg11.dtd">
<!-- Generated by graphviz version 14.1.2 (20260124.0452)
 -->
<!-- Title: string_to_integer Pages: 1 -->
<svg width="211pt" height="66pt"
 viewBox="0.00 0.00 211.00 66.00" xmlns="http://www.w3.org/2000/svg" xmlns:xlink="http://www.w3.org/1999/xlink">
<g id="graph0" class="graph" transform="scale(1 1) rotate(0) translate(4 62)">
<title>string_to_integer</title>
<!-- Node1 -->
<g id="Node000001" class="node">
<title>Node1</title>
<g id="a_Node000001"><a xlink:title=" ">
<polygon fill="#999999" stroke="#666666" points="203,-39 115,-39 115,-19 203,-19 203,-39"/>
<text xml:space="preserve" text-anchor="middle" x="159" y="-25.5" font-family="Helvetica,sans-Serif" font-size="10.00">string_to_integer</text>
</a>
</g>
</g>
<!-- Node2 -->
<g id="Node000002" class="node">
<title>Node2</title>
<g id="a_Node000002"><a xlink:href="pugixml_8cpp.html#a849ad97aadf36fde77692f2579102341" target="_top" xlink:title=" ">
<polygon fill="white" stroke="#666666" points="76.38,-58 2.62,-58 2.62,-38 76.38,-38 76.38,-58"/>
<text xml:space="preserve" text-anchor="middle" x="39.5" y="-44.5" font-family="Helvetica,sans-Serif" font-size="10.00">get_value_int</text>
</a>
</g>
</g>
<!-- Node1&#45;&gt;Node2 -->
<g id="edge1_Node000001_Node000002" class="edge">
<title>Node1&#45;&gt;Node2</title>
<g id="a_edge1_Node000001_Node000002"><a xlink:title=" ">
<path fill="none" stroke="#63b8ff" d="M103.32,-37.84C94.33,-39.3 85.21,-40.77 76.81,-42.13"/>
<polygon fill="#63b8ff" stroke="#63b8ff" points="103.77,-41.31 113.09,-36.26 102.66,-34.4 103.77,-41.31"/>
</a>
</g>
</g>
<!-- Node3 -->
<g id="Node000003" class="node">
<title>Node3</title>
<g id="a_Node000003"><a xlink:href="pugixml_8cpp.html#a7d42b3cf4d478783be03b57b4b8dbab5" target="_top" xlink:title=" ">
<polygon fill="white" stroke="#666666" points="79,-20 0,-20 0,0 79,0 79,-20"/>
<text xml:space="preserve" text-anchor="middle" x="39.5" y="-6.5" font-family="Helvetica,sans-Serif" font-size="10.00">get_value_uint</text>
</a>
</g>
</g>
<!-- Node1&#45;&gt;Node3 -->
<g id="edge2_Node000001_Node000003" class="edge">
<title>Node1&#45;&gt;Node3</title>
<g id="a_edge2_Node000001_Node000003"><a xlink:title=" ">
<path fill="none" stroke="#63b8ff" d="M103.33,-20.16C95.28,-18.86 87.12,-17.54 79.47,-16.3"/>
<polygon fill="#63b8ff" stroke="#63b8ff" points="102.66,-23.6 113.09,-21.74 103.77,-16.69 102.66,-23.6"/>
</a>
</g>
</g>
</g>
</svg>
