<?xml version="1.0" encoding="UTF-8" standalone="no"?>
<!DOCTYPE svg PUBLIC "-//W3C//DTD SVG 1.1//EN"
 "http://www.w3.org/Graphics/SVG/1.1/DTD/svg11.dtd">
<!-- Generated by graphviz version 14.1.2 (20260124.0452)
 -->
<!-- Title: allocate_node Pages: 1 -->
<svg width="889pt" height="40pt"
 viewBox="0.00 0.00 889.00 40.00" xmlns="http://www.w3.org/2000/svg" xmlns:xlink="http://www.w3.org/1999/xlink">
<g id="graph0" class="graph" transform="scale(1 1) rotate(0) translate(4 36)">
<title>allocate_node</title>
<!-- Node1 -->
<g id="Node000001" class="node">
<title>Node1</title>
<g id="a_Node000001"><a xlink:title=" ">
<polygon fill="#999999" stroke="#666666" points="76,-26 0,-26 0,-6 76,-6 76,-26"/>
<text xml:space="preserve" text-anchor="middle" x="38" y="-12.5" font-family="Helvetica,sans-Serif" font-size="10.00">allocate_node</text>
</a>
</g>
</g>
<!-- Node2 -->
<g id="Node000002" class="node">
<title>Node2</title>
<g id="a_Node000002"><a xlink:href="structxml__allocator.html#a103dfdec5c72cb955e2a97a61fdc9af1" target="_top" xlink:title=" ">
<polygon fill="white" stroke="#666666" points="225.5,-32 112,-32 112,0 225.5,0 225.5,-32"/>
<text xml:space="preserve" text-anchor="start" x="120" y="-18.5" font-family="Helvetica,sans-Serif" font-size="10.00">xml_allocator::allocate</text>
<text xml:space="preserve" text-anchor="middle" x="168.75" y="-6.5" font-family="Helvetica,sans-Serif" font-size="10.00">_object</text>
</a>
</g>
</g>
<!-- Node1&#45;&gt;Node2 -->
<g id="edge1_Node000001_Node000002" class="edge">
<title>Node1&#45;&gt;Node2</title>
<g id="a_edge1_Node000001_Node000002"><a xlink:title=" ">
<path fill="none" stroke="#63b8ff" d="M76.24,-16C83.9,-16 92.18,-16 100.53,-16"/>
<polygon fill="#63b8ff" stroke="#63b8ff" points="100.39,-19.5 110.39,-16 100.39,-12.5 100.39,-19.5"/>
</a>
</g>
</g>
<!-- Node3 -->
<g id="Node000003" class="node">
<title>Node3</title>
<g id="a_Node000003"><a xlink:href="structxml__allocator.html#a02a8725611785568ceae7a0eea3eca76" target="_top" xlink:title=" ">
<polygon fill="white" stroke="#666666" points="375,-32 261.5,-32 261.5,0 375,0 375,-32"/>
<text xml:space="preserve" text-anchor="start" x="269.5" y="-18.5" font-family="Helvetica,sans-Serif" font-size="10.00">xml_allocator::allocate</text>
<text xml:space="preserve" text-anchor="middle" x="318.25" y="-6.5" font-family="Helvetica,sans-Serif" font-size="10.00">_memory</text>
</a>
</g>
</g>
<!-- Node2&#45;&gt;Node3 -->
<g id="edge2_Node000002_Node000003" class="edge">
<title>Node2&#45;&gt;Node3</title>
<g id="a_edge2_Node000002_Node000003"><a xlink:title=" ">
<path fill="none" stroke="#63b8ff" d="M225.93,-16C233.79,-16 241.93,-16 249.97,-16"/>
<polygon fill="#63b8ff" stroke="#63b8ff" points="249.71,-19.5 259.71,-16 249.71,-12.5 249.71,-19.5"/>
</a>
</g>
</g>
<!-- Node4 -->
<g id="Node000004" class="node">
<title>Node4</title>
<g id="a_Node000004"><a xlink:href="structxml__allocator.html#ae010e1cb3ad4e8f1235ad94ea4c542ee" target="_top" xlink:title=" ">
<polygon fill="white" stroke="#666666" points="524.5,-32 411,-32 411,0 524.5,0 524.5,-32"/>
<text xml:space="preserve" text-anchor="start" x="419" y="-18.5" font-family="Helvetica,sans-Serif" font-size="10.00">xml_allocator::allocate</text>
<text xml:space="preserve" text-anchor="middle" x="467.75" y="-6.5" font-family="Helvetica,sans-Serif" font-size="10.00">_memory_oob</text>
</a>
</g>
</g>
<!-- Node3&#45;&gt;Node4 -->
<g id="edge3_Node000003_Node000004" class="edge">
<title>Node3&#45;&gt;Node4</title>
<g id="a_edge3_Node000003_Node000004"><a xlink:title=" ">
<path fill="none" stroke="#63b8ff" d="M375.43,-16C383.29,-16 391.43,-16 399.47,-16"/>
<polygon fill="#63b8ff" stroke="#63b8ff" points="399.21,-19.5 409.21,-16 399.21,-12.5 399.21,-19.5"/>
</a>
</g>
</g>
<!-- Node5 -->
<g id="Node000005" class="node">
<title>Node5</title>
<g id="a_Node000005"><a xlink:href="structxml__allocator.html#ad07a6aa6876c8c5a5536d409c01d88e5" target="_top" xlink:title=" ">
<polygon fill="white" stroke="#666666" points="700.25,-26 560.5,-26 560.5,-6 700.25,-6 700.25,-26"/>
<text xml:space="preserve" text-anchor="middle" x="630.38" y="-12.5" font-family="Helvetica,sans-Serif" font-size="10.00">xml_allocator::allocate_page</text>
</a>
</g>
</g>
<!-- Node4&#45;&gt;Node5 -->
<g id="edge4_Node000004_Node000005" class="edge">
<title>Node4&#45;&gt;Node5</title>
<g id="a_edge4_Node000004_Node000005"><a xlink:title=" ">
<path fill="none" stroke="#63b8ff" d="M524.93,-16C532.68,-16 540.75,-16 548.84,-16"/>
<polygon fill="#63b8ff" stroke="#63b8ff" points="548.72,-19.5 558.72,-16 548.72,-12.5 548.72,-19.5"/>
</a>
</g>
</g>
<!-- Node6 -->
<g id="Node000006" class="node">
<title>Node6</title>
<g id="a_Node000006"><a xlink:href="structxml__memory__page.html#a071bb9cc9aeccef1655c1336b16472a5" target="_top" xlink:title=" ">
<polygon fill="white" stroke="#666666" points="881.25,-26 736.25,-26 736.25,-6 881.25,-6 881.25,-26"/>
<text xml:space="preserve" text-anchor="middle" x="808.75" y="-12.5" font-family="Helvetica,sans-Serif" font-size="10.00">xml_memory_page::construct</text>
</a>
</g>
</g>
<!-- Node5&#45;&gt;Node6 -->
<g id="edge5_Node000005_Node000006" class="edge">
<title>Node5&#45;&gt;Node6</title>
<g id="a_edge5_Node000005_Node000006"><a xlink:title=" ">
<path fill="none" stroke="#63b8ff" d="M700.58,-16C708.45,-16 716.53,-16 724.56,-16"/>
<polygon fill="#63b8ff" stroke="#63b8ff" points="724.33,-19.5 734.33,-16 724.33,-12.5 724.33,-19.5"/>
</a>
</g>
</g>
</g>
</svg>
