<?xml version="1.0" encoding="UTF-8" standalone="no"?>
<!DOCTYPE svg PUBLIC "-//W3C//DTD SVG 1.1//EN"
 "http://www.w3.org/Graphics/SVG/1.1/DTD/svg11.dtd">
<!-- Generated by graphviz version 14.1.2 (20260124.0452)
 -->
<!-- Title: string_value Pages: 1 -->
<!--zoomable 486 -->

<svg id="main" version="1.1" xmlns="http://www.w3.org/2000/svg" xmlns:xlink="http://www.w3.org/1999/xlink" xml:space="preserve" onload="init(evt)">

<style type="text/css"><![CDATA[
.node, .edge {opacity: 0.7;}
.node.selected, .edge.selected {opacity: 1;}
.edge:hover path { stroke: red; }
.edge:hover polygon { stroke: red; fill: red; }
]]></style>

<defs>
  <circle id="rim" cx="0" cy="0" r="7"/>
  <circle id="rim2" cx="0" cy="0" r="3.5"/>
  <g id="zoomPlus">
    <use xlink:href="#rim" fill="#404040"><set attributeName="fill" to="#808080" begin="zoomplus.mouseover" end="zoomplus.mouseout"/></use>
    <path d="M-4,0h8M0,-4v8" fill="none" stroke="white" stroke-width="1.5" pointer-events="none"/>
  </g>
  <g id="zoomMin">
    <use xlink:href="#rim" fill="#404040"><set attributeName="fill" to="#808080" begin="zoomminus.mouseover" end="zoomminus.mouseout"/></use>
    <path d="M-4,0h8" fill="none" stroke="white" stroke-width="1.5" pointer-events="none"/>
  </g>
  <g id="arrowUp" transform="translate(30 24)">
    <use xlink:href="#rim"/>
    <path pointer-events="none" fill="none" stroke="white" stroke-width="1.5" d="M0,-3.0v7 M-2.5,-0.5L0,-3.0L2.5,-0.5"/>
  </g>
  <g id="arrowRight" transform="rotate(90) translate(36 -43)">
    <use xlink:href="#rim"/>
    <path pointer-events="none" fill="none" stroke="white" stroke-width="1.5" d="M0,-3.0v7 M-2.5,-0.5L0,-3.0L2.5,-0.5"/>
  </g>
  <g id="arrowDown" transform="rotate(180) translate(-30 -48)">
    <use xlink:href="#rim"/>
    <path pointer-events="none" fill="none" stroke="white" stroke-width="1.5" d="M0,-3.0v7 M-2.5,-0.5L0,-3.0L2.5,-0.5"/>
  </g>
  <g id="arrowLeft" transform="rotate(270) translate(-36 17)">
    <use xlink:href="#rim"/>
    <path pointer-events="none" fill="none" stroke="white" stroke-width="1.5" d="M0,-3.0v7 M-2.5,-0.5L0,-3.0L2.5,-0.5"/>
  </g>
  <g id="resetDef">
    <use xlink:href="#rim2" fill="#404040"><set attributeName="fill" to="#808080" begin="reset.mouseover" end="reset.mouseout"/></use>
  </g>
</defs>
<script type="application/ecmascript">
var viewWidth = 1191;
var viewHeight = 486;
var sectionId = 'dynsection-158';
</script>
<script type="application/ecmascript" xlink:href="svg.min.js"/>
<svg id="graph" class="graph">
<g id="viewport">
<title>string_value</title>
<!-- Node1 -->
<g id="Node000001" class="node">
<title>Node1</title>
<g id="a_Node000001"><a xlink:title=" ">
<polygon fill="#999999" stroke="#666666" points="1183.25,-265 1114.75,-265 1114.75,-245 1183.25,-245 1183.25,-265"/>
<text xml:space="preserve" text-anchor="middle" x="1149" y="-251.5" font-family="Helvetica,sans-Serif" font-size="10.00">string_value</text>
</a>
</g>
</g>
<!-- Node2 -->
<g id="Node000002" class="node">
<title>Node2</title>
<g id="a_Node000002"><a xlink:href="classxpath__ast__node.html#a98dd7f6e67fe2c56c63056eed835d6a4" target="_top" xlink:title=" ">
<polygon fill="white" stroke="#666666" points="1078.75,-306 934.5,-306 934.5,-286 1078.75,-286 1078.75,-306"/>
<text xml:space="preserve" text-anchor="middle" x="1006.62" y="-292.5" font-family="Helvetica,sans-Serif" font-size="10.00">xpath_ast_node::compare_eq</text>
</a>
</g>
</g>
<!-- Node1&#45;&gt;Node2 -->
<g id="edge1_Node000001_Node000002" class="edge">
<title>Node1&#45;&gt;Node2</title>
<g id="a_edge1_Node000001_Node000002"><a xlink:title=" ">
<path fill="none" stroke="#63b8ff" d="M1103.38,-268.03C1084.03,-273.68 1061.67,-280.21 1043.43,-285.54"/>
<polygon fill="#63b8ff" stroke="#63b8ff" points="1104.31,-271.41 1112.92,-265.24 1102.34,-264.69 1104.31,-271.41"/>
</a>
</g>
</g>
<!-- Node7 -->
<g id="Node000007" class="node">
<title>Node7</title>
<g id="a_Node000007"><a xlink:href="classxpath__ast__node.html#abb6e4c529276eaf882233dbb6e04e111" target="_top" xlink:title=" ">
<polygon fill="white" stroke="#666666" points="144.25,-67 0,-67 0,-47 144.25,-47 144.25,-67"/>
<text xml:space="preserve" text-anchor="middle" x="72.12" y="-53.5" font-family="Helvetica,sans-Serif" font-size="10.00">xpath_ast_node::compare_rel</text>
</a>
</g>
</g>
<!-- Node1&#45;&gt;Node7 -->
<g id="edge25_Node000001_Node000007" class="edge">
<title>Node1&#45;&gt;Node7</title>
<g id="a_edge25_Node000001_Node000007"><a xlink:title=" ">
<path fill="none" stroke="#63b8ff" d="M1137.05,-234.83C1102.7,-174.57 990.63,0 845,0 845,0 845,0 381.38,0 280.15,0 163.29,-30.09 106.96,-46.55"/>
<polygon fill="#63b8ff" stroke="#63b8ff" points="1133.88,-236.34 1141.81,-243.37 1140,-232.93 1133.88,-236.34"/>
</a>
</g>
</g>
<!-- Node8 -->
<g id="Node000008" class="node">
<title>Node8</title>
<g id="a_Node000008"><a xlink:href="classxpath__ast__node.html#a6b675237a590548b68d0e0b97518b6df" target="_top" xlink:title=" ">
<polygon fill="white" stroke="#666666" points="126.62,-409 17.62,-409 17.62,-377 126.62,-377 126.62,-409"/>
<text xml:space="preserve" text-anchor="start" x="25.62" y="-395.5" font-family="Helvetica,sans-Serif" font-size="10.00">xpath_ast_node::eval</text>
<text xml:space="preserve" text-anchor="middle" x="72.12" y="-383.5" font-family="Helvetica,sans-Serif" font-size="10.00">_string</text>
</a>
</g>
</g>
<!-- Node1&#45;&gt;Node8 -->
<g id="edge27_Node000001_Node000008" class="edge">
<title>Node1&#45;&gt;Node8</title>
<g id="a_edge27_Node000001_Node000008"><a xlink:title=" ">
<path fill="none" stroke="#63b8ff" d="M1134.93,-274.77C1097.11,-329.33 981.53,-478 845,-478 845,-478 845,-478 381.38,-478 290.4,-478 267.15,-466.89 180.25,-440 154.25,-431.96 126.12,-419.45 105.21,-409.37"/>
<polygon fill="#63b8ff" stroke="#63b8ff" points="1137.68,-276.95 1140.41,-266.71 1131.89,-273.01 1137.68,-276.95"/>
</a>
</g>
</g>
<!-- Node9 -->
<g id="Node000009" class="node">
<title>Node9</title>
<g id="a_Node000009"><a xlink:href="classxpath__ast__node.html#a92dd7048e28d486bc7f382d1fc6f1de6" target="_top" xlink:title=" ">
<polygon fill="white" stroke="#666666" points="750.88,-230 641.88,-230 641.88,-198 750.88,-198 750.88,-230"/>
<text xml:space="preserve" text-anchor="start" x="649.88" y="-216.5" font-family="Helvetica,sans-Serif" font-size="10.00">xpath_ast_node::eval</text>
<text xml:space="preserve" text-anchor="middle" x="696.38" y="-204.5" font-family="Helvetica,sans-Serif" font-size="10.00">_number</text>
</a>
</g>
</g>
<!-- Node1&#45;&gt;Node9 -->
<g id="edge26_Node000001_Node000009" class="edge">
<title>Node1&#45;&gt;Node9</title>
<g id="a_edge26_Node000001_Node000009"><a xlink:title=" ">
<path fill="none" stroke="#63b8ff" d="M1103.14,-250.92C1019.69,-243.33 840.95,-227.06 751.17,-218.89"/>
<polygon fill="#63b8ff" stroke="#63b8ff" points="1102.71,-254.39 1112.99,-251.81 1103.35,-247.42 1102.71,-254.39"/>
</a>
</g>
</g>
<!-- Node3 -->
<g id="Node000003" class="node">
<title>Node3</title>
<g id="a_Node000003"><a xlink:href="classxpath__ast__node.html#ab7f965a92023bc2704b8e6fd9f3d7c14" target="_top" xlink:title=" ">
<polygon fill="white" stroke="#666666" points="898.5,-312 789.5,-312 789.5,-280 898.5,-280 898.5,-312"/>
<text xml:space="preserve" text-anchor="start" x="797.5" y="-298.5" font-family="Helvetica,sans-Serif" font-size="10.00">xpath_ast_node::eval</text>
<text xml:space="preserve" text-anchor="middle" x="844" y="-286.5" font-family="Helvetica,sans-Serif" font-size="10.00">_boolean</text>
</a>
</g>
</g>
<!-- Node2&#45;&gt;Node3 -->
<g id="edge2_Node000002_Node000003" class="edge">
<title>Node2&#45;&gt;Node3</title>
<g id="a_edge2_Node000002_Node000003"><a xlink:title=" ">
<path fill="none" stroke="#63b8ff" d="M922.76,-289.25C914.63,-289.27 906.54,-289.38 898.81,-289.59"/>
<polygon fill="#63b8ff" stroke="#63b8ff" points="922.71,-292.75 932.72,-289.28 922.73,-285.75 922.71,-292.75"/>
</a>
</g>
</g>
<!-- Node3&#45;&gt;Node2 -->
<g id="edge22_Node000003_Node000002" class="edge">
<title>Node3&#45;&gt;Node2</title>
<g id="a_edge22_Node000003_Node000002"><a xlink:title=" ">
<path fill="none" stroke="#63b8ff" d="M910.22,-302.64C918.13,-302.76 926.24,-302.78 934.24,-302.71"/>
<polygon fill="#63b8ff" stroke="#63b8ff" points="910.39,-299.15 900.33,-302.44 910.25,-306.14 910.39,-299.15"/>
</a>
</g>
</g>
<!-- Node4 -->
<g id="Node000004" class="node">
<title>Node4</title>
<g id="a_Node000004"><a xlink:href="classxpath__ast__node.html#ab4e5bbd3f2e83c86a43349374b4bfc22" target="_top" xlink:title=" ">
<polygon fill="white" stroke="#666666" points="753.5,-280 639.25,-280 639.25,-248 753.5,-248 753.5,-280"/>
<text xml:space="preserve" text-anchor="start" x="647.25" y="-266.5" font-family="Helvetica,sans-Serif" font-size="10.00">xpath_ast_node::apply</text>
<text xml:space="preserve" text-anchor="middle" x="696.38" y="-254.5" font-family="Helvetica,sans-Serif" font-size="10.00">_predicate_boolean</text>
</a>
</g>
</g>
<!-- Node3&#45;&gt;Node4 -->
<g id="edge3_Node000003_Node000004" class="edge">
<title>Node3&#45;&gt;Node4</title>
<g id="a_edge3_Node000003_Node000004"><a xlink:title=" ">
<path fill="none" stroke="#63b8ff" d="M777.96,-281.71C769.94,-279.94 761.78,-278.15 753.89,-276.42"/>
<polygon fill="#63b8ff" stroke="#63b8ff" points="777.19,-285.12 787.71,-283.85 778.69,-278.29 777.19,-285.12"/>
</a>
</g>
</g>
<!-- Node3&#45;&gt;Node8 -->
<g id="edge24_Node000003_Node000008" class="edge">
<title>Node3&#45;&gt;Node8</title>
<g id="a_edge24_Node000003_Node000008"><a xlink:title=" ">
<path fill="none" stroke="#63b8ff" d="M778.04,-300.79C769.8,-302.27 761.46,-303.74 753.5,-305 521.24,-341.78 241.83,-368.87 126.7,-383.45"/>
<polygon fill="#63b8ff" stroke="#63b8ff" points="778.46,-304.27 787.69,-299.06 777.23,-297.38 778.46,-304.27"/>
</a>
</g>
</g>
<!-- Node3&#45;&gt;Node9 -->
<g id="edge23_Node000003_Node000009" class="edge">
<title>Node3&#45;&gt;Node9</title>
<g id="a_edge23_Node000003_Node000009"><a xlink:title=" ">
<path fill="none" stroke="#63b8ff" d="M816.55,-273.56C807.79,-268.23 798.09,-262.6 789.5,-257 772.74,-246.09 770.74,-240.13 753.5,-230 752.76,-229.57 752.02,-229.14 751.27,-228.71"/>
<polygon fill="#63b8ff" stroke="#63b8ff" points="814.66,-276.5 824.99,-278.85 818.38,-270.57 814.66,-276.5"/>
</a>
</g>
</g>
<!-- Node5 -->
<g id="Node000005" class="node">
<title>Node5</title>
<g id="a_Node000005"><a xlink:href="classxpath__ast__node.html#a7e35f265c9e0712a16e1d8a9db4c7672" target="_top" xlink:title=" ">
<polygon fill="white" stroke="#666666" points="439.5,-205 325.25,-205 325.25,-173 439.5,-173 439.5,-205"/>
<text xml:space="preserve" text-anchor="start" x="333.25" y="-191.5" font-family="Helvetica,sans-Serif" font-size="10.00">xpath_ast_node::apply</text>
<text xml:space="preserve" text-anchor="middle" x="382.38" y="-179.5" font-family="Helvetica,sans-Serif" font-size="10.00">_predicate</text>
</a>
</g>
</g>
<!-- Node4&#45;&gt;Node5 -->
<g id="edge4_Node000004_Node000005" class="edge">
<title>Node4&#45;&gt;Node5</title>
<g id="a_edge4_Node000004_Node000005"><a xlink:title=" ">
<path fill="none" stroke="#63b8ff" d="M627.97,-247.8C571.86,-234.31 492.86,-215.32 439.98,-202.61"/>
<polygon fill="#63b8ff" stroke="#63b8ff" points="626.86,-251.13 637.4,-250.06 628.5,-244.32 626.86,-251.13"/>
</a>
</g>
</g>
<!-- Node6 -->
<g id="Node000006" class="node">
<title>Node6</title>
<g id="a_Node000006"><a xlink:href="classxpath__ast__node.html#a68cace396dd4eeae67ecfcd34a3a8285" target="_top" xlink:title=" ">
<polygon fill="white" stroke="#666666" points="289.25,-330 180.25,-330 180.25,-298 289.25,-298 289.25,-330"/>
<text xml:space="preserve" text-anchor="start" x="188.25" y="-316.5" font-family="Helvetica,sans-Serif" font-size="10.00">xpath_ast_node::eval</text>
<text xml:space="preserve" text-anchor="middle" x="234.75" y="-304.5" font-family="Helvetica,sans-Serif" font-size="10.00">_node_set</text>
</a>
</g>
</g>
<!-- Node5&#45;&gt;Node6 -->
<g id="edge5_Node000005_Node000006" class="edge">
<title>Node5&#45;&gt;Node6</title>
<g id="a_edge5_Node000005_Node000006"><a xlink:title=" ">
<path fill="none" stroke="#63b8ff" d="M353.9,-212.58C324.94,-237.44 280.09,-275.94 254.79,-297.65"/>
<polygon fill="#63b8ff" stroke="#63b8ff" points="355.88,-215.5 361.19,-206.33 351.32,-210.18 355.88,-215.5"/>
</a>
</g>
</g>
<!-- Node6&#45;&gt;Node2 -->
<g id="edge6_Node000006_Node000002" class="edge">
<title>Node6&#45;&gt;Node2</title>
<g id="a_edge6_Node000006_Node000002"><a xlink:title=" ">
<path fill="none" stroke="#63b8ff" d="M301.03,-322.15C309.18,-322.91 317.4,-323.56 325.25,-324 375.95,-326.82 388.72,-324.17 439.5,-324 643.5,-323.33 695.91,-345 898.5,-321 922.59,-318.15 949.14,-311.97 969.78,-306.47"/>
<polygon fill="#63b8ff" stroke="#63b8ff" points="301.43,-318.67 291.13,-321.15 300.73,-325.63 301.43,-318.67"/>
</a>
</g>
</g>
<!-- Node6&#45;&gt;Node3 -->
<g id="edge9_Node000006_Node000003" class="edge">
<title>Node6&#45;&gt;Node3</title>
<g id="a_edge9_Node000006_Node000003"><a xlink:title=" ">
<path fill="none" stroke="#63b8ff" d="M300.75,-312.07C421.32,-308.5 677.48,-300.91 789.11,-297.6"/>
<polygon fill="#63b8ff" stroke="#63b8ff" points="300.92,-308.57 291.03,-312.36 301.13,-315.56 300.92,-308.57"/>
</a>
</g>
</g>
<!-- Node6&#45;&gt;Node7 -->
<g id="edge7_Node000006_Node000007" class="edge">
<title>Node6&#45;&gt;Node7</title>
<g id="a_edge7_Node000006_Node000007"><a xlink:title=" ">
<path fill="none" stroke="#63b8ff" d="M217.54,-288.06C182.88,-232.6 102.82,-104.52 79.57,-67.31"/>
<polygon fill="#63b8ff" stroke="#63b8ff" points="214.39,-289.62 222.66,-296.25 220.32,-285.91 214.39,-289.62"/>
</a>
</g>
</g>
<!-- Node6&#45;&gt;Node8 -->
<g id="edge10_Node000006_Node000008" class="edge">
<title>Node6&#45;&gt;Node8</title>
<g id="a_edge10_Node000006_Node000008"><a xlink:title=" ">
<path fill="none" stroke="#63b8ff" d="M190.38,-335.33C164.05,-348.28 130.95,-364.56 106.64,-376.52"/>
<polygon fill="#63b8ff" stroke="#63b8ff" points="191.68,-338.59 199.11,-331.04 188.59,-332.31 191.68,-338.59"/>
</a>
</g>
</g>
<!-- Node7&#45;&gt;Node3 -->
<g id="edge8_Node000007_Node000003" class="edge">
<title>Node7&#45;&gt;Node3</title>
<g id="a_edge8_Node000007_Node000003"><a xlink:title=" ">
<path fill="none" stroke="#63b8ff" d="M155.96,-49.12C217.96,-43.9 304.9,-38 381.38,-38 540.38,-38 540.38,-38 540.38,-38 690.19,-38 803.47,-223.38 834.5,-279.86"/>
<polygon fill="#63b8ff" stroke="#63b8ff" points="155.85,-45.62 146.18,-49.96 156.45,-52.59 155.85,-45.62"/>
</a>
</g>
</g>
<!-- Node8&#45;&gt;Node2 -->
<g id="edge11_Node000008_Node000002" class="edge">
<title>Node8&#45;&gt;Node2</title>
<g id="a_edge11_Node000008_Node000002"><a xlink:title=" ">
<path fill="none" stroke="#63b8ff" d="M138.22,-408.78C200.31,-422.43 296.65,-440 381.38,-440 697.38,-440 697.38,-440 697.38,-440 823.78,-440 954.25,-339.37 993.66,-306.36"/>
<polygon fill="#63b8ff" stroke="#63b8ff" points="139.04,-405.37 128.51,-406.61 137.51,-412.21 139.04,-405.37"/>
</a>
</g>
</g>
<!-- Node8&#45;&gt;Node3 -->
<g id="edge12_Node000008_Node000003" class="edge">
<title>Node8&#45;&gt;Node3</title>
<g id="a_edge12_Node000008_Node000003"><a xlink:title=" ">
<path fill="none" stroke="#63b8ff" d="M137.97,-392.51C259.24,-385.17 528.5,-358.63 753.5,-323 770.88,-320.25 790.01,-316.5 806.11,-312.4"/>
<polygon fill="#63b8ff" stroke="#63b8ff" points="137.99,-389 128.21,-393.07 138.39,-395.99 137.99,-389"/>
</a>
</g>
</g>
<!-- Node8&#45;&gt;Node9 -->
<g id="edge13_Node000008_Node000009" class="edge">
<title>Node8&#45;&gt;Node9</title>
<g id="a_edge13_Node000008_Node000009"><a xlink:title=" ">
<path fill="none" stroke="#63b8ff" d="M97.05,-368.04C116.63,-345.77 146.53,-314.61 180.25,-298 334.5,-222.04 543.98,-217.56 641.41,-216.57"/>
<polygon fill="#63b8ff" stroke="#63b8ff" points="94.46,-365.68 90.56,-375.53 99.75,-370.27 94.46,-365.68"/>
</a>
</g>
</g>
<!-- Node9&#45;&gt;Node2 -->
<g id="edge18_Node000009_Node000002" class="edge">
<title>Node9&#45;&gt;Node2</title>
<g id="a_edge18_Node000009_Node000002"><a xlink:title=" ">
<path fill="none" stroke="#63b8ff" d="M762.03,-231.2C823.75,-247.62 914.75,-271.83 966.27,-285.53"/>
<polygon fill="#63b8ff" stroke="#63b8ff" points="763.27,-227.91 752.71,-228.72 761.47,-234.67 763.27,-227.91"/>
</a>
</g>
</g>
<!-- Node9&#45;&gt;Node3 -->
<g id="edge20_Node000009_Node000003" class="edge">
<title>Node9&#45;&gt;Node3</title>
<g id="a_edge20_Node000009_Node000003"><a xlink:title=" ">
<path fill="none" stroke="#63b8ff" d="M729.24,-235.4C737.34,-239.34 745.89,-243.53 753.5,-248 770.74,-258.13 772.74,-264.09 789.5,-275 791.82,-276.51 794.22,-278.02 796.66,-279.52"/>
<polygon fill="#63b8ff" stroke="#63b8ff" points="730.87,-232.3 720.35,-231.05 727.79,-238.59 730.87,-232.3"/>
</a>
</g>
</g>
<!-- Node9&#45;&gt;Node7 -->
<g id="edge19_Node000009_Node000007" class="edge">
<title>Node9&#45;&gt;Node7</title>
<g id="a_edge19_Node000009_Node000007"><a xlink:title=" ">
<path fill="none" stroke="#63b8ff" d="M683.35,-187.72C668.81,-159.34 641.44,-115.46 603.25,-95 525.78,-53.5 270.05,-52.72 144.26,-55.04"/>
<polygon fill="#63b8ff" stroke="#63b8ff" points="680.07,-188.97 687.62,-196.4 686.35,-185.88 680.07,-188.97"/>
</a>
</g>
</g>
<!-- Node9&#45;&gt;Node8 -->
<g id="edge21_Node000009_Node000008" class="edge">
<title>Node9&#45;&gt;Node8</title>
<g id="a_edge21_Node000009_Node000008"><a xlink:title=" ">
<path fill="none" stroke="#63b8ff" d="M630.11,-205.3C528.51,-199.99 328.77,-206.86 180.25,-280 134.9,-302.33 96.48,-350.98 80.75,-376.88"/>
<polygon fill="#63b8ff" stroke="#63b8ff" points="629.72,-208.78 639.9,-205.87 630.13,-201.79 629.72,-208.78"/>
</a>
</g>
</g>
<!-- Node10 -->
<g id="Node000010" class="node">
<title>Node10</title>
<g id="a_Node000010"><a xlink:href="classxpath__ast__node.html#abf2d4b745493f63aebc1c89d9fde8eed" target="_top" xlink:title=" ">
<polygon fill="white" stroke="#666666" points="596.5,-136 482.25,-136 482.25,-104 596.5,-104 596.5,-136"/>
<text xml:space="preserve" text-anchor="start" x="490.25" y="-122.5" font-family="Helvetica,sans-Serif" font-size="10.00">xpath_ast_node::apply</text>
<text xml:space="preserve" text-anchor="middle" x="539.38" y="-110.5" font-family="Helvetica,sans-Serif" font-size="10.00">_predicate_number</text>
</a>
</g>
</g>
<!-- Node9&#45;&gt;Node10 -->
<g id="edge14_Node000009_Node000010" class="edge">
<title>Node9&#45;&gt;Node10</title>
<g id="a_edge14_Node000009_Node000010"><a xlink:title=" ">
<path fill="none" stroke="#63b8ff" d="M668.01,-190.47C650.34,-176.06 626.41,-157.97 603.25,-145 597.82,-141.96 591.94,-139.1 586.03,-136.49"/>
<polygon fill="#63b8ff" stroke="#63b8ff" points="665.54,-192.96 675.47,-196.65 670,-187.57 665.54,-192.96"/>
</a>
</g>
</g>
<!-- Node11 -->
<g id="Node000011" class="node">
<title>Node11</title>
<g id="a_Node000011"><a xlink:href="classxpath__ast__node.html#a8cedd7e15623b9fa431788b8843f1463" target="_top" xlink:title=" ">
<polygon fill="white" stroke="#666666" points="603.25,-186 475.5,-186 475.5,-154 603.25,-154 603.25,-186"/>
<text xml:space="preserve" text-anchor="start" x="483.5" y="-172.5" font-family="Helvetica,sans-Serif" font-size="10.00">xpath_ast_node::apply</text>
<text xml:space="preserve" text-anchor="middle" x="539.38" y="-160.5" font-family="Helvetica,sans-Serif" font-size="10.00">_predicate_number_const</text>
</a>
</g>
</g>
<!-- Node9&#45;&gt;Node11 -->
<g id="edge16_Node000009_Node000011" class="edge">
<title>Node9&#45;&gt;Node11</title>
<g id="a_edge16_Node000009_Node000011"><a xlink:title=" ">
<path fill="none" stroke="#63b8ff" d="M630.59,-195.61C619.87,-192.57 608.82,-189.43 598.28,-186.44"/>
<polygon fill="#63b8ff" stroke="#63b8ff" points="629.57,-198.96 640.14,-198.32 631.48,-192.22 629.57,-198.96"/>
</a>
</g>
</g>
<!-- Node10&#45;&gt;Node5 -->
<g id="edge15_Node000010_Node000005" class="edge">
<title>Node10&#45;&gt;Node5</title>
<g id="a_edge15_Node000010_Node000005"><a xlink:title=" ">
<path fill="none" stroke="#63b8ff" d="M485.61,-140.68C482.18,-142.12 478.78,-143.57 475.5,-145 455.69,-153.66 433.83,-164.06 416.39,-172.57"/>
<polygon fill="#63b8ff" stroke="#63b8ff" points="486.63,-144.05 494.54,-137 483.96,-137.57 486.63,-144.05"/>
</a>
</g>
</g>
<!-- Node11&#45;&gt;Node5 -->
<g id="edge17_Node000011_Node000005" class="edge">
<title>Node11&#45;&gt;Node5</title>
<g id="a_edge17_Node000011_Node000005"><a xlink:title=" ">
<path fill="none" stroke="#63b8ff" d="M463.95,-179.12C455.85,-180.12 447.71,-181.11 439.88,-182.07"/>
<polygon fill="#63b8ff" stroke="#63b8ff" points="464.33,-182.6 473.83,-177.91 463.48,-175.65 464.33,-182.6"/>
</a>
</g>
</g>
</g>
</svg>

<g id="navigator" transform="translate(0 0)" fill="#404254">
  <rect fill="#f2f5e9" fill-opacity="0.5" stroke="#606060" stroke-width=".5" x="0" y="0" width="60" height="60"/>
  <use id="zoomplus" xlink:href="#zoomPlus" x="17" y="9" onmousedown="handleZoom(evt,'in')"/>
  <use id="zoomminus" xlink:href="#zoomMin" x="42" y="9" onmousedown="handleZoom(evt,'out')"/>
  <use id="reset" xlink:href="#resetDef" x="30" y="36" onmousedown="handleReset()"/>
   <use id="arrowup" xlink:href="#arrowUp" x="0" y="0" onmousedown="handlePan(0,-1)"/>
  <use id="arrowright" xlink:href="#arrowRight" x="0" y="0" onmousedown="handlePan(1,0)"/>
  <use id="arrowdown" xlink:href="#arrowDown" x="0" y="0" onmousedown="handlePan(0,1)"/>
  <use id="arrowleft" xlink:href="#arrowLeft" x="0" y="0" onmousedown="handlePan(-1,0)"/>
</g>
<svg viewBox="0 0 15 15" width="100%" height="30px" preserveAspectRatio="xMaxYMin meet">
 <g id="arrow_out" transform="scale(0.3 0.3)">
  <a xlink:href="pugixml_8cpp_ad34afe159db16c5eff7771f4f4935e4e_icgraph_org.svg" target="_base">
   <rect id="button" ry="5" rx="5" y="6" x="6" height="38" width="38"
        fill="#f2f5e9" fill-opacity="0.5" stroke="#606060" stroke-width="1.0"/>
   <path id="arrow"
     d="M 11.500037,31.436501 C 11.940474,20.09759 22.043105,11.32322 32.158766,21.979434 L 37.068811,17.246167 C 37.068811,17.246167 37.088388,32 37.088388,32 L 22.160133,31.978069 C 22.160133,31.978069 26.997745,27.140456 26.997745,27.140456 C 18.528582,18.264221 13.291696,25.230495 11.500037,31.436501 z"
     style="fill:#404040;"/>
  </a>
 </g>
</svg>

<style type='text/css'>
<![CDATA[
[data-mouse-over-selected='false'] { opacity: 0.7; }
[data-mouse-over-selected='true']  { opacity: 1.0; }
]]>
</style>
<script type="application/ecmascript"><![CDATA[
document.addEventListener('DOMContentLoaded', (event) => {
  highlightEdges();
  highlightAdjacentNodes();
});
]]></script>
</svg>
