<?xml version="1.0" encoding="UTF-8" standalone="no"?>
<!DOCTYPE svg PUBLIC "-//W3C//DTD SVG 1.1//EN"
 "http://www.w3.org/Graphics/SVG/1.1/DTD/svg11.dtd">
<!-- Generated by graphviz version 14.1.2 (20260124.0452)
 -->
<!-- Title: as_utf8_begin Pages: 1 -->
<svg width="336pt" height="66pt"
 viewBox="0.00 0.00 336.00 66.00" xmlns="http://www.w3.org/2000/svg" xmlns:xlink="http://www.w3.org/1999/xlink">
<g id="graph0" class="graph" transform="scale(1 1) rotate(0) translate(4 62)">
<title>as_utf8_begin</title>
<!-- Node1 -->
<g id="Node000001" class="node">
<title>Node1</title>
<g id="a_Node000001"><a xlink:title=" ">
<polygon fill="#999999" stroke="#666666" points="327.75,-39 251,-39 251,-19 327.75,-19 327.75,-39"/>
<text xml:space="preserve" text-anchor="middle" x="289.38" y="-25.5" font-family="Helvetica,sans-Serif" font-size="10.00">as_utf8_begin</text>
</a>
</g>
</g>
<!-- Node2 -->
<g id="Node000002" class="node">
<title>Node2</title>
<g id="a_Node000002"><a xlink:href="pugixml_8cpp.html#a910e733d5fe47e977a2272b0bdde2721" target="_top" xlink:title=" ">
<polygon fill="white" stroke="#666666" points="201.5,-58 130,-58 130,-38 201.5,-38 201.5,-58"/>
<text xml:space="preserve" text-anchor="middle" x="165.75" y="-44.5" font-family="Helvetica,sans-Serif" font-size="10.00">as_utf8_impl</text>
</a>
</g>
</g>
<!-- Node1&#45;&gt;Node2 -->
<g id="edge1_Node000001_Node000002" class="edge">
<title>Node1&#45;&gt;Node2</title>
<g id="a_edge1_Node000001_Node000002"><a xlink:title=" ">
<path fill="none" stroke="#63b8ff" d="M239.25,-36.67C226.65,-38.64 213.36,-40.72 201.64,-42.55"/>
<polygon fill="#63b8ff" stroke="#63b8ff" points="239.72,-40.14 249.06,-35.14 238.64,-33.23 239.72,-40.14"/>
</a>
</g>
</g>
<!-- Node3 -->
<g id="Node000003" class="node">
<title>Node3</title>
<g id="a_Node000003"><a xlink:href="pugixml_8cpp.html#a7ef56215d3592711fc4df8df27a746b4" target="_top" xlink:title=" ">
<polygon fill="white" stroke="#666666" points="215,-20 116.5,-20 116.5,0 215,0 215,-20"/>
<text xml:space="preserve" text-anchor="middle" x="165.75" y="-6.5" font-family="Helvetica,sans-Serif" font-size="10.00">convert_path_heap</text>
</a>
</g>
</g>
<!-- Node1&#45;&gt;Node3 -->
<g id="edge2_Node000001_Node000003" class="edge">
<title>Node1&#45;&gt;Node3</title>
<g id="a_edge2_Node000001_Node000003"><a xlink:title=" ">
<path fill="none" stroke="#63b8ff" d="M239.25,-21.33C231.35,-20.09 223.18,-18.82 215.3,-17.58"/>
<polygon fill="#63b8ff" stroke="#63b8ff" points="238.64,-24.77 249.06,-22.86 239.72,-17.86 238.64,-24.77"/>
</a>
</g>
</g>
<!-- Node4 -->
<g id="Node000004" class="node">
<title>Node4</title>
<g id="a_Node000004"><a xlink:href="pugixml_8cpp.html#aba24a140ea1157f4f4ad45cf7f65538c" target="_top" xlink:title=" ">
<polygon fill="white" stroke="#666666" points="80.5,-20 0,-20 0,0 80.5,0 80.5,-20"/>
<text xml:space="preserve" text-anchor="middle" x="40.25" y="-6.5" font-family="Helvetica,sans-Serif" font-size="10.00">open_file_wide</text>
</a>
</g>
</g>
<!-- Node3&#45;&gt;Node4 -->
<g id="edge3_Node000003_Node000004" class="edge">
<title>Node3&#45;&gt;Node4</title>
<g id="a_edge3_Node000003_Node000004"><a xlink:title=" ">
<path fill="none" stroke="#63b8ff" d="M104.85,-10C96.69,-10 88.49,-10 80.81,-10"/>
<polygon fill="#63b8ff" stroke="#63b8ff" points="104.78,-13.5 114.78,-10 104.78,-6.5 104.78,-13.5"/>
</a>
</g>
</g>
</g>
</svg>
