<?xml version="1.0" encoding="UTF-8" standalone="no"?>
<!DOCTYPE svg PUBLIC "-//W3C//DTD SVG 1.1//EN"
 "http://www.w3.org/Graphics/SVG/1.1/DTD/svg11.dtd">
<!-- Generated by graphviz version 14.1.2 (20260124.0452)
 -->
<!-- Title: node_copy_attribute Pages: 1 -->
<svg width="1211pt" height="185pt"
 viewBox="0.00 0.00 1211.00 185.00" xmlns="http://www.w3.org/2000/svg" xmlns:xlink="http://www.w3.org/1999/xlink">
<g id="graph0" class="graph" transform="scale(1 1) rotate(0) translate(4 181)">
<title>node_copy_attribute</title>
<!-- Node1 -->
<g id="Node000001" class="node">
<title>Node1</title>
<g id="a_Node000001"><a xlink:title=" ">
<polygon fill="#999999" stroke="#666666" points="103.75,-58 0,-58 0,-38 103.75,-38 103.75,-58"/>
<text xml:space="preserve" text-anchor="middle" x="51.88" y="-44.5" font-family="Helvetica,sans-Serif" font-size="10.00">node_copy_attribute</text>
</a>
</g>
</g>
<!-- Node2 -->
<g id="Node000002" class="node">
<title>Node2</title>
<g id="a_Node000002"><a xlink:href="pugixml_8cpp.html#a90fd4a021fa949dcd95b2128a1aa7914" target="_top" xlink:title=" ">
<polygon fill="white" stroke="#666666" points="221.75,-77 150.25,-77 150.25,-57 221.75,-57 221.75,-77"/>
<text xml:space="preserve" text-anchor="middle" x="186" y="-63.5" font-family="Helvetica,sans-Serif" font-size="10.00">get_allocator</text>
</a>
</g>
</g>
<!-- Node1&#45;&gt;Node2 -->
<g id="edge1_Node000001_Node000002" class="edge">
<title>Node1&#45;&gt;Node2</title>
<g id="a_edge1_Node000001_Node000002"><a xlink:title=" ">
<path fill="none" stroke="#63b8ff" d="M103.96,-55.35C115.38,-56.99 127.44,-58.72 138.66,-60.34"/>
<polygon fill="#63b8ff" stroke="#63b8ff" points="138.1,-63.79 148.49,-61.75 139.09,-56.86 138.1,-63.79"/>
</a>
</g>
</g>
<!-- Node3 -->
<g id="Node000003" class="node">
<title>Node3</title>
<g id="a_Node000003"><a xlink:href="pugixml_8cpp.html#aee4bcdb425d825a33564649ece0a4b31" target="_top" xlink:title=" ">
<polygon fill="white" stroke="#666666" points="232.25,-39 139.75,-39 139.75,-19 232.25,-19 232.25,-39"/>
<text xml:space="preserve" text-anchor="middle" x="186" y="-25.5" font-family="Helvetica,sans-Serif" font-size="10.00">node_copy_string</text>
</a>
</g>
</g>
<!-- Node1&#45;&gt;Node3 -->
<g id="edge2_Node000001_Node000003" class="edge">
<title>Node1&#45;&gt;Node3</title>
<g id="a_edge2_Node000001_Node000003"><a xlink:title=" ">
<path fill="none" stroke="#63b8ff" d="M103.96,-40.65C111.95,-39.5 120.26,-38.31 128.37,-37.14"/>
<polygon fill="#63b8ff" stroke="#63b8ff" points="128.76,-40.62 138.16,-35.74 127.76,-33.7 128.76,-40.62"/>
</a>
</g>
</g>
<!-- Node4 -->
<g id="Node000004" class="node">
<title>Node4</title>
<g id="a_Node000004"><a xlink:href="pugixml_8cpp.html#a6acbb945c483e413572aadd55a2c8712" target="_top" xlink:title=" ">
<polygon fill="white" stroke="#666666" points="339.75,-77 268.25,-77 268.25,-57 339.75,-57 339.75,-77"/>
<text xml:space="preserve" text-anchor="middle" x="304" y="-63.5" font-family="Helvetica,sans-Serif" font-size="10.00">strcpy_insitu</text>
</a>
</g>
</g>
<!-- Node3&#45;&gt;Node4 -->
<g id="edge3_Node000003_Node000004" class="edge">
<title>Node3&#45;&gt;Node4</title>
<g id="a_edge3_Node000003_Node000004"><a xlink:title=" ">
<path fill="none" stroke="#63b8ff" d="M219,-39.48C231.81,-43.68 246.75,-48.57 260.44,-53.06"/>
<polygon fill="#63b8ff" stroke="#63b8ff" points="259.07,-56.29 269.66,-56.08 261.25,-49.64 259.07,-56.29"/>
</a>
</g>
</g>
<!-- Node15 -->
<g id="Node000015" class="node">
<title>Node15</title>
<g id="a_Node000015"><a xlink:href="pugixml_8cpp.html#a775f7b78d2f13c1b72d69b114599461d" target="_top" xlink:title=" ">
<polygon fill="white" stroke="#666666" points="624.5,-20 571,-20 571,0 624.5,0 624.5,-20"/>
<text xml:space="preserve" text-anchor="middle" x="597.75" y="-6.5" font-family="Helvetica,sans-Serif" font-size="10.00">strlength</text>
</a>
</g>
</g>
<!-- Node3&#45;&gt;Node15 -->
<g id="edge15_Node000003_Node000015" class="edge">
<title>Node3&#45;&gt;Node15</title>
<g id="a_edge15_Node000003_Node000015"><a xlink:title=" ">
<path fill="none" stroke="#63b8ff" d="M232.67,-23.11C270.84,-18.49 326.74,-12.46 375.75,-10 440.16,-6.77 515.27,-7.78 559.25,-8.86"/>
<polygon fill="#63b8ff" stroke="#63b8ff" points="558.93,-12.35 569.02,-9.11 559.12,-5.35 558.93,-12.35"/>
</a>
</g>
</g>
<!-- Node5 -->
<g id="Node000005" class="node">
<title>Node5</title>
<g id="a_Node000005"><a xlink:href="structxml__allocator.html#a19732d75c0ba4b799d32a285fcb58027" target="_top" xlink:title=" ">
<polygon fill="white" stroke="#666666" points="494.5,-177 381,-177 381,-145 494.5,-145 494.5,-177"/>
<text xml:space="preserve" text-anchor="start" x="389" y="-163.5" font-family="Helvetica,sans-Serif" font-size="10.00">xml_allocator::allocate</text>
<text xml:space="preserve" text-anchor="middle" x="437.75" y="-151.5" font-family="Helvetica,sans-Serif" font-size="10.00">_string</text>
</a>
</g>
</g>
<!-- Node4&#45;&gt;Node5 -->
<g id="edge4_Node000004_Node000005" class="edge">
<title>Node4&#45;&gt;Node5</title>
<g id="a_edge4_Node000004_Node000005"><a xlink:title=" ">
<path fill="none" stroke="#63b8ff" d="M313.18,-77.15C325.44,-91.82 349.93,-119.05 375.75,-136 377.54,-137.18 379.4,-138.32 381.31,-139.42"/>
<polygon fill="#63b8ff" stroke="#63b8ff" points="379.3,-142.31 389.78,-143.88 382.56,-136.12 379.3,-142.31"/>
</a>
</g>
</g>
<!-- Node10 -->
<g id="Node000010" class="node">
<title>Node10</title>
<g id="a_Node000010"><a xlink:href="structxml__allocator.html#af32c538db4d562c2d0bfe15f7c0aa879" target="_top" xlink:title=" ">
<polygon fill="white" stroke="#666666" points="499.75,-127 375.75,-127 375.75,-95 499.75,-95 499.75,-127"/>
<text xml:space="preserve" text-anchor="start" x="383.75" y="-113.5" font-family="Helvetica,sans-Serif" font-size="10.00">xml_allocator::deallocate</text>
<text xml:space="preserve" text-anchor="middle" x="437.75" y="-101.5" font-family="Helvetica,sans-Serif" font-size="10.00">_string</text>
</a>
</g>
</g>
<!-- Node4&#45;&gt;Node10 -->
<g id="edge9_Node000004_Node000010" class="edge">
<title>Node4&#45;&gt;Node10</title>
<g id="a_edge9_Node000004_Node000010"><a xlink:title=" ">
<path fill="none" stroke="#63b8ff" d="M336.22,-77.43C348.41,-81.5 362.81,-86.31 376.85,-90.99"/>
<polygon fill="#63b8ff" stroke="#63b8ff" points="375.44,-94.21 386.03,-94.06 377.66,-87.57 375.44,-94.21"/>
</a>
</g>
</g>
<!-- Node13 -->
<g id="Node000013" class="node">
<title>Node13</title>
<g id="a_Node000013"><a xlink:href="structxml__allocator.html#ac831a283ec3bcbe22fd3ce3be98ec347" target="_top" xlink:title=" ">
<polygon fill="white" stroke="#666666" points="493.75,-77 381.75,-77 381.75,-57 493.75,-57 493.75,-77"/>
<text xml:space="preserve" text-anchor="middle" x="437.75" y="-63.5" font-family="Helvetica,sans-Serif" font-size="10.00">xml_allocator::reserve</text>
</a>
</g>
</g>
<!-- Node4&#45;&gt;Node13 -->
<g id="edge12_Node000004_Node000013" class="edge">
<title>Node4&#45;&gt;Node13</title>
<g id="a_edge12_Node000004_Node000013"><a xlink:title=" ">
<path fill="none" stroke="#63b8ff" d="M339.96,-67C349.31,-67 359.73,-67 370.18,-67"/>
<polygon fill="#63b8ff" stroke="#63b8ff" points="369.96,-70.5 379.96,-67 369.96,-63.5 369.96,-70.5"/>
</a>
</g>
</g>
<!-- Node14 -->
<g id="Node000014" class="node">
<title>Node14</title>
<g id="a_Node000014"><a xlink:href="pugixml_8cpp.html#afeaebb026671399f617b36e27fa92234" target="_top" xlink:title=" ">
<polygon fill="white" stroke="#666666" points="487.38,-39 388.12,-39 388.12,-19 487.38,-19 487.38,-39"/>
<text xml:space="preserve" text-anchor="middle" x="437.75" y="-25.5" font-family="Helvetica,sans-Serif" font-size="10.00">strcpy_insitu_allow</text>
</a>
</g>
</g>
<!-- Node4&#45;&gt;Node14 -->
<g id="edge13_Node000004_Node000014" class="edge">
<title>Node4&#45;&gt;Node14</title>
<g id="a_edge13_Node000004_Node000014"><a xlink:title=" ">
<path fill="none" stroke="#63b8ff" d="M339.96,-56.92C355.2,-52.52 373.29,-47.3 389.68,-42.58"/>
<polygon fill="#63b8ff" stroke="#63b8ff" points="390.61,-45.95 399.25,-39.82 388.67,-39.22 390.61,-45.95"/>
</a>
</g>
</g>
<!-- Node6 -->
<g id="Node000006" class="node">
<title>Node6</title>
<g id="a_Node000006"><a xlink:href="structxml__allocator.html#a02a8725611785568ceae7a0eea3eca76" target="_top" xlink:title=" ">
<polygon fill="white" stroke="#666666" points="654.5,-177 541,-177 541,-145 654.5,-145 654.5,-177"/>
<text xml:space="preserve" text-anchor="start" x="549" y="-163.5" font-family="Helvetica,sans-Serif" font-size="10.00">xml_allocator::allocate</text>
<text xml:space="preserve" text-anchor="middle" x="597.75" y="-151.5" font-family="Helvetica,sans-Serif" font-size="10.00">_memory</text>
</a>
</g>
</g>
<!-- Node5&#45;&gt;Node6 -->
<g id="edge5_Node000005_Node000006" class="edge">
<title>Node5&#45;&gt;Node6</title>
<g id="a_edge5_Node000005_Node000006"><a xlink:title=" ">
<path fill="none" stroke="#63b8ff" d="M494.9,-161C506.01,-161 517.78,-161 529.22,-161"/>
<polygon fill="#63b8ff" stroke="#63b8ff" points="529,-164.5 539,-161 529,-157.5 529,-164.5"/>
</a>
</g>
</g>
<!-- Node7 -->
<g id="Node000007" class="node">
<title>Node7</title>
<g id="a_Node000007"><a xlink:href="structxml__allocator.html#ae010e1cb3ad4e8f1235ad94ea4c542ee" target="_top" xlink:title=" ">
<polygon fill="white" stroke="#666666" points="827.62,-177 714.12,-177 714.12,-145 827.62,-145 827.62,-177"/>
<text xml:space="preserve" text-anchor="start" x="722.12" y="-163.5" font-family="Helvetica,sans-Serif" font-size="10.00">xml_allocator::allocate</text>
<text xml:space="preserve" text-anchor="middle" x="770.88" y="-151.5" font-family="Helvetica,sans-Serif" font-size="10.00">_memory_oob</text>
</a>
</g>
</g>
<!-- Node6&#45;&gt;Node7 -->
<g id="edge6_Node000006_Node000007" class="edge">
<title>Node6&#45;&gt;Node7</title>
<g id="a_edge6_Node000006_Node000007"><a xlink:title=" ">
<path fill="none" stroke="#63b8ff" d="M654.78,-161C670,-161 686.64,-161 702.41,-161"/>
<polygon fill="#63b8ff" stroke="#63b8ff" points="702.2,-164.5 712.2,-161 702.2,-157.5 702.2,-164.5"/>
</a>
</g>
</g>
<!-- Node8 -->
<g id="Node000008" class="node">
<title>Node8</title>
<g id="a_Node000008"><a xlink:href="structxml__allocator.html#ad07a6aa6876c8c5a5536d409c01d88e5" target="_top" xlink:title=" ">
<polygon fill="white" stroke="#666666" points="1021.75,-171 882,-171 882,-151 1021.75,-151 1021.75,-171"/>
<text xml:space="preserve" text-anchor="middle" x="951.88" y="-157.5" font-family="Helvetica,sans-Serif" font-size="10.00">xml_allocator::allocate_page</text>
</a>
</g>
</g>
<!-- Node7&#45;&gt;Node8 -->
<g id="edge7_Node000007_Node000008" class="edge">
<title>Node7&#45;&gt;Node8</title>
<g id="a_edge7_Node000007_Node000008"><a xlink:title=" ">
<path fill="none" stroke="#63b8ff" d="M828.02,-161C841.45,-161 856.05,-161 870.34,-161"/>
<polygon fill="#63b8ff" stroke="#63b8ff" points="870.19,-164.5 880.19,-161 870.19,-157.5 870.19,-164.5"/>
</a>
</g>
</g>
<!-- Node9 -->
<g id="Node000009" class="node">
<title>Node9</title>
<g id="a_Node000009"><a xlink:href="structxml__memory__page.html#a071bb9cc9aeccef1655c1336b16472a5" target="_top" xlink:title=" ">
<polygon fill="white" stroke="#666666" points="1202.75,-171 1057.75,-171 1057.75,-151 1202.75,-151 1202.75,-171"/>
<text xml:space="preserve" text-anchor="middle" x="1130.25" y="-157.5" font-family="Helvetica,sans-Serif" font-size="10.00">xml_memory_page::construct</text>
</a>
</g>
</g>
<!-- Node8&#45;&gt;Node9 -->
<g id="edge8_Node000008_Node000009" class="edge">
<title>Node8&#45;&gt;Node9</title>
<g id="a_edge8_Node000008_Node000009"><a xlink:title=" ">
<path fill="none" stroke="#63b8ff" d="M1022.08,-161C1029.95,-161 1038.03,-161 1046.06,-161"/>
<polygon fill="#63b8ff" stroke="#63b8ff" points="1045.83,-164.5 1055.83,-161 1045.83,-157.5 1045.83,-164.5"/>
</a>
</g>
</g>
<!-- Node11 -->
<g id="Node000011" class="node">
<title>Node11</title>
<g id="a_Node000011"><a xlink:href="structxml__allocator.html#a5df417155487cce4e0460b123ac33dc6" target="_top" xlink:title=" ">
<polygon fill="white" stroke="#666666" points="659.75,-127 535.75,-127 535.75,-95 659.75,-95 659.75,-127"/>
<text xml:space="preserve" text-anchor="start" x="543.75" y="-113.5" font-family="Helvetica,sans-Serif" font-size="10.00">xml_allocator::deallocate</text>
<text xml:space="preserve" text-anchor="middle" x="597.75" y="-101.5" font-family="Helvetica,sans-Serif" font-size="10.00">_memory</text>
</a>
</g>
</g>
<!-- Node10&#45;&gt;Node11 -->
<g id="edge10_Node000010_Node000011" class="edge">
<title>Node10&#45;&gt;Node11</title>
<g id="a_edge10_Node000010_Node000011"><a xlink:title=" ">
<path fill="none" stroke="#63b8ff" d="M499.84,-111C507.75,-111 515.91,-111 523.98,-111"/>
<polygon fill="#63b8ff" stroke="#63b8ff" points="523.79,-114.5 533.79,-111 523.79,-107.5 523.79,-114.5"/>
</a>
</g>
</g>
<!-- Node12 -->
<g id="Node000012" class="node">
<title>Node12</title>
<g id="a_Node000012"><a xlink:href="structxml__allocator.html#a1c6bfe15a257a094f55659f8d71c209e" target="_top" xlink:title=" ">
<polygon fill="white" stroke="#666666" points="846,-121 695.75,-121 695.75,-101 846,-101 846,-121"/>
<text xml:space="preserve" text-anchor="middle" x="770.88" y="-107.5" font-family="Helvetica,sans-Serif" font-size="10.00">xml_allocator::deallocate_page</text>
</a>
</g>
</g>
<!-- Node11&#45;&gt;Node12 -->
<g id="edge11_Node000011_Node000012" class="edge">
<title>Node11&#45;&gt;Node12</title>
<g id="a_edge11_Node000011_Node000012"><a xlink:title=" ">
<path fill="none" stroke="#63b8ff" d="M660.05,-111C667.8,-111 675.85,-111 683.9,-111"/>
<polygon fill="#63b8ff" stroke="#63b8ff" points="683.75,-114.5 693.75,-111 683.75,-107.5 683.75,-114.5"/>
</a>
</g>
</g>
<!-- Node14&#45;&gt;Node15 -->
<g id="edge14_Node000014_Node000015" class="edge">
<title>Node14&#45;&gt;Node15</title>
<g id="a_edge14_Node000014_Node000015"><a xlink:title=" ">
<path fill="none" stroke="#63b8ff" d="M487.44,-23.14C510.7,-20.35 538.09,-17.05 559.63,-14.46"/>
<polygon fill="#63b8ff" stroke="#63b8ff" points="559.92,-17.95 569.43,-13.28 559.09,-11 559.92,-17.95"/>
</a>
</g>
</g>
</g>
</svg>
