<?xml version="1.0" encoding="UTF-8" standalone="no"?>
<!DOCTYPE svg PUBLIC "-//W3C//DTD SVG 1.1//EN"
 "http://www.w3.org/Graphics/SVG/1.1/DTD/svg11.dtd">
<!-- Generated by graphviz version 14.1.2 (20260124.0452)
 -->
<!-- Title: node_output_attributes Pages: 1 -->
<svg width="398pt" height="66pt"
 viewBox="0.00 0.00 398.00 66.00" xmlns="http://www.w3.org/2000/svg" xmlns:xlink="http://www.w3.org/1999/xlink">
<g id="graph0" class="graph" transform="scale(1 1) rotate(0) translate(4 62)">
<title>node_output_attributes</title>
<!-- Node1 -->
<g id="Node000001" class="node">
<title>Node1</title>
<g id="a_Node000001"><a xlink:title=" ">
<polygon fill="#999999" stroke="#666666" points="115,-39 0,-39 0,-19 115,-19 115,-39"/>
<text xml:space="preserve" text-anchor="middle" x="57.5" y="-25.5" font-family="Helvetica,sans-Serif" font-size="10.00">node_output_attributes</text>
</a>
</g>
</g>
<!-- Node2 -->
<g id="Node000002" class="node">
<title>Node2</title>
<g id="a_Node000002"><a xlink:href="pugixml_8cpp.html#ab350d053c07c3976bb39a151581356fc" target="_top" xlink:title=" ">
<polygon fill="white" stroke="#666666" points="231.5,-58 166.75,-58 166.75,-38 231.5,-38 231.5,-58"/>
<text xml:space="preserve" text-anchor="middle" x="199.12" y="-44.5" font-family="Helvetica,sans-Serif" font-size="10.00">text_output</text>
</a>
</g>
</g>
<!-- Node1&#45;&gt;Node2 -->
<g id="edge1_Node000001_Node000002" class="edge">
<title>Node1&#45;&gt;Node2</title>
<g id="a_edge1_Node000001_Node000002"><a xlink:title=" ">
<path fill="none" stroke="#63b8ff" d="M115.29,-36.73C128.7,-38.55 142.78,-40.47 155.44,-42.19"/>
<polygon fill="#63b8ff" stroke="#63b8ff" points="154.74,-45.63 165.12,-43.51 155.68,-38.69 154.74,-45.63"/>
</a>
</g>
</g>
<!-- Node4 -->
<g id="Node000004" class="node">
<title>Node4</title>
<g id="a_Node000004"><a xlink:href="pugixml_8cpp.html#a478905783b7081440dc5076ff42cd1e2" target="_top" xlink:title=" ">
<polygon fill="white" stroke="#666666" points="247.25,-20 151,-20 151,0 247.25,0 247.25,-20"/>
<text xml:space="preserve" text-anchor="middle" x="199.12" y="-6.5" font-family="Helvetica,sans-Serif" font-size="10.00">text_output_indent</text>
</a>
</g>
</g>
<!-- Node1&#45;&gt;Node4 -->
<g id="edge3_Node000001_Node000004" class="edge">
<title>Node1&#45;&gt;Node4</title>
<g id="a_edge3_Node000001_Node000004"><a xlink:title=" ">
<path fill="none" stroke="#63b8ff" d="M115.29,-21.27C123.3,-20.18 131.54,-19.06 139.58,-17.97"/>
<polygon fill="#63b8ff" stroke="#63b8ff" points="139.82,-21.47 149.26,-16.65 138.88,-14.53 139.82,-21.47"/>
</a>
</g>
</g>
<!-- Node3 -->
<g id="Node000003" class="node">
<title>Node3</title>
<g id="a_Node000003"><a xlink:href="pugixml_8cpp.html#ab87511166fc7a13ed9e2d85dcb73670a" target="_top" xlink:title=" ">
<polygon fill="white" stroke="#666666" points="390,-58 283.25,-58 283.25,-38 390,-38 390,-58"/>
<text xml:space="preserve" text-anchor="middle" x="336.62" y="-44.5" font-family="Helvetica,sans-Serif" font-size="10.00">text_output_escaped</text>
</a>
</g>
</g>
<!-- Node2&#45;&gt;Node3 -->
<g id="edge2_Node000002_Node000003" class="edge">
<title>Node2&#45;&gt;Node3</title>
<g id="a_edge2_Node000002_Node000003"><a xlink:title=" ">
<path fill="none" stroke="#63b8ff" d="M231.89,-48C243.75,-48 257.68,-48 271.41,-48"/>
<polygon fill="#63b8ff" stroke="#63b8ff" points="271.33,-51.5 281.33,-48 271.33,-44.5 271.33,-51.5"/>
</a>
</g>
</g>
</g>
</svg>
