<?xml version="1.0" encoding="UTF-8" standalone="no"?>
<!DOCTYPE svg PUBLIC "-//W3C//DTD SVG 1.1//EN"
 "http://www.w3.org/Graphics/SVG/1.1/DTD/svg11.dtd">
<!-- Generated by graphviz version 14.1.2 (20260124.0452)
 -->
<!-- Title: set_value_ascii Pages: 1 -->
<!--zoomable 166 -->

<svg id="main" version="1.1" xmlns="http://www.w3.org/2000/svg" xmlns:xlink="http://www.w3.org/1999/xlink" xml:space="preserve" onload="init(evt)">

<style type="text/css"><![CDATA[
.node, .edge {opacity: 0.7;}
.node.selected, .edge.selected {opacity: 1;}
.edge:hover path { stroke: red; }
.edge:hover polygon { stroke: red; fill: red; }
]]></style>

<defs>
  <circle id="rim" cx="0" cy="0" r="7"/>
  <circle id="rim2" cx="0" cy="0" r="3.5"/>
  <g id="zoomPlus">
    <use xlink:href="#rim" fill="#404040"><set attributeName="fill" to="#808080" begin="zoomplus.mouseover" end="zoomplus.mouseout"/></use>
    <path d="M-4,0h8M0,-4v8" fill="none" stroke="white" stroke-width="1.5" pointer-events="none"/>
  </g>
  <g id="zoomMin">
    <use xlink:href="#rim" fill="#404040"><set attributeName="fill" to="#808080" begin="zoomminus.mouseover" end="zoomminus.mouseout"/></use>
    <path d="M-4,0h8" fill="none" stroke="white" stroke-width="1.5" pointer-events="none"/>
  </g>
  <g id="arrowUp" transform="translate(30 24)">
    <use xlink:href="#rim"/>
    <path pointer-events="none" fill="none" stroke="white" stroke-width="1.5" d="M0,-3.0v7 M-2.5,-0.5L0,-3.0L2.5,-0.5"/>
  </g>
  <g id="arrowRight" transform="rotate(90) translate(36 -43)">
    <use xlink:href="#rim"/>
    <path pointer-events="none" fill="none" stroke="white" stroke-width="1.5" d="M0,-3.0v7 M-2.5,-0.5L0,-3.0L2.5,-0.5"/>
  </g>
  <g id="arrowDown" transform="rotate(180) translate(-30 -48)">
    <use xlink:href="#rim"/>
    <path pointer-events="none" fill="none" stroke="white" stroke-width="1.5" d="M0,-3.0v7 M-2.5,-0.5L0,-3.0L2.5,-0.5"/>
  </g>
  <g id="arrowLeft" transform="rotate(270) translate(-36 17)">
    <use xlink:href="#rim"/>
    <path pointer-events="none" fill="none" stroke="white" stroke-width="1.5" d="M0,-3.0v7 M-2.5,-0.5L0,-3.0L2.5,-0.5"/>
  </g>
  <g id="resetDef">
    <use xlink:href="#rim2" fill="#404040"><set attributeName="fill" to="#808080" begin="reset.mouseover" end="reset.mouseout"/></use>
  </g>
</defs>
<script type="application/ecmascript">
var viewWidth = 1062;
var viewHeight = 166;
var sectionId = 'dynsection-135';
</script>
<script type="application/ecmascript" xlink:href="svg.min.js"/>
<svg id="graph" class="graph">
<g id="viewport">
<title>set_value_ascii</title>
<!-- Node1 -->
<g id="Node000001" class="node">
<title>Node1</title>
<g id="a_Node000001"><a xlink:title=" ">
<polygon fill="#999999" stroke="#666666" points="83.5,-80 0,-80 0,-60 83.5,-60 83.5,-80"/>
<text xml:space="preserve" text-anchor="middle" x="41.75" y="-66.5" font-family="Helvetica,sans-Serif" font-size="10.00">set_value_ascii</text>
</a>
</g>
</g>
<!-- Node2 -->
<g id="Node000002" class="node">
<title>Node2</title>
<g id="a_Node000002"><a xlink:href="pugixml_8cpp.html#a6acbb945c483e413572aadd55a2c8712" target="_top" xlink:title=" ">
<polygon fill="white" stroke="#666666" points="191,-80 119.5,-80 119.5,-60 191,-60 191,-80"/>
<text xml:space="preserve" text-anchor="middle" x="155.25" y="-66.5" font-family="Helvetica,sans-Serif" font-size="10.00">strcpy_insitu</text>
</a>
</g>
</g>
<!-- Node1&#45;&gt;Node2 -->
<g id="edge1_Node000001_Node000002" class="edge">
<title>Node1&#45;&gt;Node2</title>
<g id="a_edge1_Node000001_Node000002"><a xlink:title=" ">
<path fill="none" stroke="#63b8ff" d="M83.95,-70C91.7,-70 99.86,-70 107.76,-70"/>
<polygon fill="#63b8ff" stroke="#63b8ff" points="107.56,-73.5 117.56,-70 107.56,-66.5 107.56,-73.5"/>
</a>
</g>
</g>
<!-- Node3 -->
<g id="Node000003" class="node">
<title>Node3</title>
<g id="a_Node000003"><a xlink:href="structxml__allocator.html#a19732d75c0ba4b799d32a285fcb58027" target="_top" xlink:title=" ">
<polygon fill="white" stroke="#666666" points="345.75,-158 232.25,-158 232.25,-126 345.75,-126 345.75,-158"/>
<text xml:space="preserve" text-anchor="start" x="240.25" y="-144.5" font-family="Helvetica,sans-Serif" font-size="10.00">xml_allocator::allocate</text>
<text xml:space="preserve" text-anchor="middle" x="289" y="-132.5" font-family="Helvetica,sans-Serif" font-size="10.00">_string</text>
</a>
</g>
</g>
<!-- Node2&#45;&gt;Node3 -->
<g id="edge2_Node000002_Node000003" class="edge">
<title>Node2&#45;&gt;Node3</title>
<g id="a_edge2_Node000002_Node000003"><a xlink:title=" ">
<path fill="none" stroke="#63b8ff" d="M170.1,-80.4C184.01,-90.54 206.29,-106.01 227,-117 229.48,-118.31 232.04,-119.61 234.65,-120.87"/>
<polygon fill="#63b8ff" stroke="#63b8ff" points="232.93,-123.93 243.47,-124.93 235.85,-117.57 232.93,-123.93"/>
</a>
</g>
</g>
<!-- Node8 -->
<g id="Node000008" class="node">
<title>Node8</title>
<g id="a_Node000008"><a xlink:href="structxml__allocator.html#af32c538db4d562c2d0bfe15f7c0aa879" target="_top" xlink:title=" ">
<polygon fill="white" stroke="#666666" points="351,-108 227,-108 227,-76 351,-76 351,-108"/>
<text xml:space="preserve" text-anchor="start" x="235" y="-94.5" font-family="Helvetica,sans-Serif" font-size="10.00">xml_allocator::deallocate</text>
<text xml:space="preserve" text-anchor="middle" x="289" y="-82.5" font-family="Helvetica,sans-Serif" font-size="10.00">_string</text>
</a>
</g>
</g>
<!-- Node2&#45;&gt;Node8 -->
<g id="edge7_Node000002_Node000008" class="edge">
<title>Node2&#45;&gt;Node8</title>
<g id="a_edge7_Node000002_Node000008"><a xlink:title=" ">
<path fill="none" stroke="#63b8ff" d="M191.21,-75.84C198.79,-77.1 207.08,-78.49 215.51,-79.9"/>
<polygon fill="#63b8ff" stroke="#63b8ff" points="214.7,-83.31 225.14,-81.5 215.85,-76.4 214.7,-83.31"/>
</a>
</g>
</g>
<!-- Node11 -->
<g id="Node000011" class="node">
<title>Node11</title>
<g id="a_Node000011"><a xlink:href="structxml__allocator.html#ac831a283ec3bcbe22fd3ce3be98ec347" target="_top" xlink:title=" ">
<polygon fill="white" stroke="#666666" points="345,-58 233,-58 233,-38 345,-38 345,-58"/>
<text xml:space="preserve" text-anchor="middle" x="289" y="-44.5" font-family="Helvetica,sans-Serif" font-size="10.00">xml_allocator::reserve</text>
</a>
</g>
</g>
<!-- Node2&#45;&gt;Node11 -->
<g id="edge10_Node000002_Node000011" class="edge">
<title>Node2&#45;&gt;Node11</title>
<g id="a_edge10_Node000002_Node000011"><a xlink:title=" ">
<path fill="none" stroke="#63b8ff" d="M191.21,-64.16C200.56,-62.6 210.98,-60.86 221.43,-59.12"/>
<polygon fill="#63b8ff" stroke="#63b8ff" points="221.95,-62.58 231.23,-57.48 220.79,-55.67 221.95,-62.58"/>
</a>
</g>
</g>
<!-- Node12 -->
<g id="Node000012" class="node">
<title>Node12</title>
<g id="a_Node000012"><a xlink:href="pugixml_8cpp.html#afeaebb026671399f617b36e27fa92234" target="_top" xlink:title=" ">
<polygon fill="white" stroke="#666666" points="338.62,-20 239.38,-20 239.38,0 338.62,0 338.62,-20"/>
<text xml:space="preserve" text-anchor="middle" x="289" y="-6.5" font-family="Helvetica,sans-Serif" font-size="10.00">strcpy_insitu_allow</text>
</a>
</g>
</g>
<!-- Node2&#45;&gt;Node12 -->
<g id="edge11_Node000002_Node000012" class="edge">
<title>Node2&#45;&gt;Node12</title>
<g id="a_edge11_Node000002_Node000012"><a xlink:title=" ">
<path fill="none" stroke="#63b8ff" d="M171.73,-59.67C185.72,-50.67 207.11,-37.73 227,-29 230.83,-27.32 234.86,-25.72 238.94,-24.22"/>
<polygon fill="#63b8ff" stroke="#63b8ff" points="240.04,-27.54 248.34,-20.96 237.75,-20.93 240.04,-27.54"/>
</a>
</g>
</g>
<!-- Node4 -->
<g id="Node000004" class="node">
<title>Node4</title>
<g id="a_Node000004"><a xlink:href="structxml__allocator.html#a02a8725611785568ceae7a0eea3eca76" target="_top" xlink:title=" ">
<polygon fill="white" stroke="#666666" points="505.75,-158 392.25,-158 392.25,-126 505.75,-126 505.75,-158"/>
<text xml:space="preserve" text-anchor="start" x="400.25" y="-144.5" font-family="Helvetica,sans-Serif" font-size="10.00">xml_allocator::allocate</text>
<text xml:space="preserve" text-anchor="middle" x="449" y="-132.5" font-family="Helvetica,sans-Serif" font-size="10.00">_memory</text>
</a>
</g>
</g>
<!-- Node3&#45;&gt;Node4 -->
<g id="edge3_Node000003_Node000004" class="edge">
<title>Node3&#45;&gt;Node4</title>
<g id="a_edge3_Node000003_Node000004"><a xlink:title=" ">
<path fill="none" stroke="#63b8ff" d="M346.15,-142C357.26,-142 369.03,-142 380.47,-142"/>
<polygon fill="#63b8ff" stroke="#63b8ff" points="380.25,-145.5 390.25,-142 380.25,-138.5 380.25,-145.5"/>
</a>
</g>
</g>
<!-- Node5 -->
<g id="Node000005" class="node">
<title>Node5</title>
<g id="a_Node000005"><a xlink:href="structxml__allocator.html#ae010e1cb3ad4e8f1235ad94ea4c542ee" target="_top" xlink:title=" ">
<polygon fill="white" stroke="#666666" points="678.88,-158 565.38,-158 565.38,-126 678.88,-126 678.88,-158"/>
<text xml:space="preserve" text-anchor="start" x="573.38" y="-144.5" font-family="Helvetica,sans-Serif" font-size="10.00">xml_allocator::allocate</text>
<text xml:space="preserve" text-anchor="middle" x="622.12" y="-132.5" font-family="Helvetica,sans-Serif" font-size="10.00">_memory_oob</text>
</a>
</g>
</g>
<!-- Node4&#45;&gt;Node5 -->
<g id="edge4_Node000004_Node000005" class="edge">
<title>Node4&#45;&gt;Node5</title>
<g id="a_edge4_Node000004_Node000005"><a xlink:title=" ">
<path fill="none" stroke="#63b8ff" d="M506.03,-142C521.25,-142 537.89,-142 553.66,-142"/>
<polygon fill="#63b8ff" stroke="#63b8ff" points="553.45,-145.5 563.45,-142 553.45,-138.5 553.45,-145.5"/>
</a>
</g>
</g>
<!-- Node6 -->
<g id="Node000006" class="node">
<title>Node6</title>
<g id="a_Node000006"><a xlink:href="structxml__allocator.html#ad07a6aa6876c8c5a5536d409c01d88e5" target="_top" xlink:title=" ">
<polygon fill="white" stroke="#666666" points="873,-152 733.25,-152 733.25,-132 873,-132 873,-152"/>
<text xml:space="preserve" text-anchor="middle" x="803.12" y="-138.5" font-family="Helvetica,sans-Serif" font-size="10.00">xml_allocator::allocate_page</text>
</a>
</g>
</g>
<!-- Node5&#45;&gt;Node6 -->
<g id="edge5_Node000005_Node000006" class="edge">
<title>Node5&#45;&gt;Node6</title>
<g id="a_edge5_Node000005_Node000006"><a xlink:title=" ">
<path fill="none" stroke="#63b8ff" d="M679.27,-142C692.7,-142 707.3,-142 721.59,-142"/>
<polygon fill="#63b8ff" stroke="#63b8ff" points="721.44,-145.5 731.44,-142 721.44,-138.5 721.44,-145.5"/>
</a>
</g>
</g>
<!-- Node7 -->
<g id="Node000007" class="node">
<title>Node7</title>
<g id="a_Node000007"><a xlink:href="structxml__memory__page.html#a071bb9cc9aeccef1655c1336b16472a5" target="_top" xlink:title=" ">
<polygon fill="white" stroke="#666666" points="1054,-152 909,-152 909,-132 1054,-132 1054,-152"/>
<text xml:space="preserve" text-anchor="middle" x="981.5" y="-138.5" font-family="Helvetica,sans-Serif" font-size="10.00">xml_memory_page::construct</text>
</a>
</g>
</g>
<!-- Node6&#45;&gt;Node7 -->
<g id="edge6_Node000006_Node000007" class="edge">
<title>Node6&#45;&gt;Node7</title>
<g id="a_edge6_Node000006_Node000007"><a xlink:title=" ">
<path fill="none" stroke="#63b8ff" d="M873.33,-142C881.2,-142 889.28,-142 897.31,-142"/>
<polygon fill="#63b8ff" stroke="#63b8ff" points="897.08,-145.5 907.08,-142 897.08,-138.5 897.08,-145.5"/>
</a>
</g>
</g>
<!-- Node9 -->
<g id="Node000009" class="node">
<title>Node9</title>
<g id="a_Node000009"><a xlink:href="structxml__allocator.html#a5df417155487cce4e0460b123ac33dc6" target="_top" xlink:title=" ">
<polygon fill="white" stroke="#666666" points="511,-108 387,-108 387,-76 511,-76 511,-108"/>
<text xml:space="preserve" text-anchor="start" x="395" y="-94.5" font-family="Helvetica,sans-Serif" font-size="10.00">xml_allocator::deallocate</text>
<text xml:space="preserve" text-anchor="middle" x="449" y="-82.5" font-family="Helvetica,sans-Serif" font-size="10.00">_memory</text>
</a>
</g>
</g>
<!-- Node8&#45;&gt;Node9 -->
<g id="edge8_Node000008_Node000009" class="edge">
<title>Node8&#45;&gt;Node9</title>
<g id="a_edge8_Node000008_Node000009"><a xlink:title=" ">
<path fill="none" stroke="#63b8ff" d="M351.09,-92C359,-92 367.16,-92 375.23,-92"/>
<polygon fill="#63b8ff" stroke="#63b8ff" points="375.04,-95.5 385.04,-92 375.04,-88.5 375.04,-95.5"/>
</a>
</g>
</g>
<!-- Node10 -->
<g id="Node000010" class="node">
<title>Node10</title>
<g id="a_Node000010"><a xlink:href="structxml__allocator.html#a1c6bfe15a257a094f55659f8d71c209e" target="_top" xlink:title=" ">
<polygon fill="white" stroke="#666666" points="697.25,-102 547,-102 547,-82 697.25,-82 697.25,-102"/>
<text xml:space="preserve" text-anchor="middle" x="622.12" y="-88.5" font-family="Helvetica,sans-Serif" font-size="10.00">xml_allocator::deallocate_page</text>
</a>
</g>
</g>
<!-- Node9&#45;&gt;Node10 -->
<g id="edge9_Node000009_Node000010" class="edge">
<title>Node9&#45;&gt;Node10</title>
<g id="a_edge9_Node000009_Node000010"><a xlink:title=" ">
<path fill="none" stroke="#63b8ff" d="M511.3,-92C519.05,-92 527.1,-92 535.15,-92"/>
<polygon fill="#63b8ff" stroke="#63b8ff" points="535,-95.5 545,-92 535,-88.5 535,-95.5"/>
</a>
</g>
</g>
<!-- Node13 -->
<g id="Node000013" class="node">
<title>Node13</title>
<g id="a_Node000013"><a xlink:href="pugixml_8cpp.html#a775f7b78d2f13c1b72d69b114599461d" target="_top" xlink:title=" ">
<polygon fill="white" stroke="#666666" points="475.75,-20 422.25,-20 422.25,0 475.75,0 475.75,-20"/>
<text xml:space="preserve" text-anchor="middle" x="449" y="-6.5" font-family="Helvetica,sans-Serif" font-size="10.00">strlength</text>
</a>
</g>
</g>
<!-- Node12&#45;&gt;Node13 -->
<g id="edge12_Node000012_Node000013" class="edge">
<title>Node12&#45;&gt;Node13</title>
<g id="a_edge12_Node000012_Node000013"><a xlink:title=" ">
<path fill="none" stroke="#63b8ff" d="M338.69,-10C361.95,-10 389.34,-10 410.88,-10"/>
<polygon fill="#63b8ff" stroke="#63b8ff" points="410.67,-13.5 420.67,-10 410.67,-6.5 410.67,-13.5"/>
</a>
</g>
</g>
</g>
</svg>

<g id="navigator" transform="translate(0 0)" fill="#404254">
  <rect fill="#f2f5e9" fill-opacity="0.5" stroke="#606060" stroke-width=".5" x="0" y="0" width="60" height="60"/>
  <use id="zoomplus" xlink:href="#zoomPlus" x="17" y="9" onmousedown="handleZoom(evt,'in')"/>
  <use id="zoomminus" xlink:href="#zoomMin" x="42" y="9" onmousedown="handleZoom(evt,'out')"/>
  <use id="reset" xlink:href="#resetDef" x="30" y="36" onmousedown="handleReset()"/>
   <use id="arrowup" xlink:href="#arrowUp" x="0" y="0" onmousedown="handlePan(0,-1)"/>
  <use id="arrowright" xlink:href="#arrowRight" x="0" y="0" onmousedown="handlePan(1,0)"/>
  <use id="arrowdown" xlink:href="#arrowDown" x="0" y="0" onmousedown="handlePan(0,1)"/>
  <use id="arrowleft" xlink:href="#arrowLeft" x="0" y="0" onmousedown="handlePan(-1,0)"/>
</g>
<svg viewBox="0 0 15 15" width="100%" height="30px" preserveAspectRatio="xMaxYMin meet">
 <g id="arrow_out" transform="scale(0.3 0.3)">
  <a xlink:href="pugixml_8cpp_add59ae346f2993be95cf7b56903ec676_cgraph_org.svg" target="_base">
   <rect id="button" ry="5" rx="5" y="6" x="6" height="38" width="38"
        fill="#f2f5e9" fill-opacity="0.5" stroke="#606060" stroke-width="1.0"/>
   <path id="arrow"
     d="M 11.500037,31.436501 C 11.940474,20.09759 22.043105,11.32322 32.158766,21.979434 L 37.068811,17.246167 C 37.068811,17.246167 37.088388,32 37.088388,32 L 22.160133,31.978069 C 22.160133,31.978069 26.997745,27.140456 26.997745,27.140456 C 18.528582,18.264221 13.291696,25.230495 11.500037,31.436501 z"
     style="fill:#404040;"/>
  </a>
 </g>
</svg>

<style type='text/css'>
<![CDATA[
[data-mouse-over-selected='false'] { opacity: 0.7; }
[data-mouse-over-selected='true']  { opacity: 1.0; }
]]>
</style>
<script type="application/ecmascript"><![CDATA[
document.addEventListener('DOMContentLoaded', (event) => {
  highlightEdges();
  highlightAdjacentNodes();
});
]]></script>
</svg>
