<?xml version="1.0" encoding="UTF-8" standalone="no"?>
<!DOCTYPE svg PUBLIC "-//W3C//DTD SVG 1.1//EN"
 "http://www.w3.org/Graphics/SVG/1.1/DTD/svg11.dtd">
<!-- Generated by graphviz version 14.1.2 (20260124.0452)
 -->
<!-- Title: load_file_impl Pages: 1 -->
<svg width="554pt" height="218pt"
 viewBox="0.00 0.00 554.00 218.00" xmlns="http://www.w3.org/2000/svg" xmlns:xlink="http://www.w3.org/1999/xlink">
<g id="graph0" class="graph" transform="scale(1 1) rotate(0) translate(4 214)">
<title>load_file_impl</title>
<!-- Node1 -->
<g id="Node000001" class="node">
<title>Node1</title>
<g id="a_Node000001"><a xlink:title=" ">
<polygon fill="#999999" stroke="#666666" points="75.25,-96 0,-96 0,-76 75.25,-76 75.25,-96"/>
<text xml:space="preserve" text-anchor="middle" x="37.62" y="-82.5" font-family="Helvetica,sans-Serif" font-size="10.00">load_file_impl</text>
</a>
</g>
</g>
<!-- Node2 -->
<g id="Node000002" class="node">
<title>Node2</title>
<g id="a_Node000002"><a xlink:href="pugixml_8cpp.html#aff8218b7e2530f96bbf74558e67ebdf6" target="_top" xlink:title=" ">
<polygon fill="white" stroke="#666666" points="217.62,-153 114.62,-153 114.62,-133 217.62,-133 217.62,-153"/>
<text xml:space="preserve" text-anchor="middle" x="166.12" y="-139.5" font-family="Helvetica,sans-Serif" font-size="10.00">get_buffer_encoding</text>
</a>
</g>
</g>
<!-- Node1&#45;&gt;Node2 -->
<g id="edge1_Node000001_Node000002" class="edge">
<title>Node1&#45;&gt;Node2</title>
<g id="a_edge1_Node000001_Node000002"><a xlink:title=" ">
<path fill="none" stroke="#63b8ff" d="M61.83,-96.45C81.44,-105.29 109.79,-118.06 131.82,-127.99"/>
<polygon fill="#63b8ff" stroke="#63b8ff" points="130.14,-131.07 140.69,-131.99 133.01,-124.69 130.14,-131.07"/>
</a>
</g>
</g>
<!-- Node7 -->
<g id="Node000007" class="node">
<title>Node7</title>
<g id="a_Node000007"><a xlink:href="pugixml_8cpp.html#add59fd2b5ab80949e525ad86d37866eb" target="_top" xlink:title=" ">
<polygon fill="white" stroke="#666666" points="201.5,-96 130.75,-96 130.75,-76 201.5,-76 201.5,-96"/>
<text xml:space="preserve" text-anchor="middle" x="166.12" y="-82.5" font-family="Helvetica,sans-Serif" font-size="10.00">get_file_size</text>
</a>
</g>
</g>
<!-- Node1&#45;&gt;Node7 -->
<g id="edge7_Node000001_Node000007" class="edge">
<title>Node1&#45;&gt;Node7</title>
<g id="a_edge7_Node000001_Node000007"><a xlink:title=" ">
<path fill="none" stroke="#63b8ff" d="M75.55,-86C89.25,-86 104.95,-86 119.34,-86"/>
<polygon fill="#63b8ff" stroke="#63b8ff" points="119.02,-89.5 129.02,-86 119.02,-82.5 119.02,-89.5"/>
</a>
</g>
</g>
<!-- Node9 -->
<g id="Node000009" class="node">
<title>Node9</title>
<g id="a_Node000009"><a xlink:href="pugixml_8cpp.html#af9acc905a97f5a257bf4e9fbac044b5f" target="_top" xlink:title=" ">
<polygon fill="white" stroke="#666666" points="209.38,-58 122.88,-58 122.88,-38 209.38,-38 209.38,-58"/>
<text xml:space="preserve" text-anchor="middle" x="166.12" y="-44.5" font-family="Helvetica,sans-Serif" font-size="10.00">load_buffer_impl</text>
</a>
</g>
</g>
<!-- Node1&#45;&gt;Node9 -->
<g id="edge9_Node000001_Node000009" class="edge">
<title>Node1&#45;&gt;Node9</title>
<g id="a_edge9_Node000001_Node000009"><a xlink:title=" ">
<path fill="none" stroke="#63b8ff" d="M73.53,-75.52C87.77,-71.24 104.43,-66.23 119.6,-61.67"/>
<polygon fill="#63b8ff" stroke="#63b8ff" points="120.32,-65.11 128.89,-58.89 118.3,-58.41 120.32,-65.11"/>
</a>
</g>
</g>
<!-- Node10 -->
<g id="Node000010" class="node">
<title>Node10</title>
<g id="a_Node000010"><a xlink:href="pugixml_8cpp.html#a9081c36df7470451a2a067677ee9e423" target="_top" xlink:title=" ">
<polygon fill="white" stroke="#666666" points="364.12,-20 265.62,-20 265.62,0 364.12,0 364.12,-20"/>
<text xml:space="preserve" text-anchor="middle" x="314.88" y="-6.5" font-family="Helvetica,sans-Serif" font-size="10.00">make_parse_result</text>
</a>
</g>
</g>
<!-- Node1&#45;&gt;Node10 -->
<g id="edge12_Node000001_Node000010" class="edge">
<title>Node1&#45;&gt;Node10</title>
<g id="a_edge12_Node000001_Node000010"><a xlink:title=" ">
<path fill="none" stroke="#63b8ff" d="M47.79,-75.84C60.55,-62.47 85.05,-39.45 111.25,-29 156.85,-10.82 212.63,-6.77 254.12,-6.88"/>
<polygon fill="#63b8ff" stroke="#63b8ff" points="253.87,-10.38 263.91,-6.99 253.95,-3.38 253.87,-10.38"/>
</a>
</g>
</g>
<!-- Node12 -->
<g id="Node000012" class="node">
<title>Node12</title>
<g id="a_Node000012"><a xlink:href="pugixml_8cpp.html#af6a1ac44e5fd3b802b252f68c665c4c5" target="_top" xlink:title=" ">
<polygon fill="white" stroke="#666666" points="221,-200 111.25,-200 111.25,-180 221,-180 221,-200"/>
<text xml:space="preserve" text-anchor="middle" x="166.12" y="-186.5" font-family="Helvetica,sans-Serif" font-size="10.00">zero_terminate_buffer</text>
</a>
</g>
</g>
<!-- Node1&#45;&gt;Node12 -->
<g id="edge13_Node000001_Node000012" class="edge">
<title>Node1&#45;&gt;Node12</title>
<g id="a_edge13_Node000001_Node000012"><a xlink:title=" ">
<path fill="none" stroke="#63b8ff" d="M46.66,-96.38C59.18,-112.06 84.68,-142.07 111.25,-162 117.37,-166.59 124.35,-170.83 131.21,-174.54"/>
<polygon fill="#63b8ff" stroke="#63b8ff" points="129.21,-177.46 139.71,-178.91 132.41,-171.23 129.21,-177.46"/>
</a>
</g>
</g>
<!-- Node3 -->
<g id="Node000003" class="node">
<title>Node3</title>
<g id="a_Node000003"><a xlink:href="pugixml_8cpp.html#ac65295a489782c48a97a97e972ed61b0" target="_top" xlink:title=" ">
<polygon fill="white" stroke="#666666" points="367.5,-210 262.25,-210 262.25,-190 367.5,-190 367.5,-210"/>
<text xml:space="preserve" text-anchor="middle" x="314.88" y="-196.5" font-family="Helvetica,sans-Serif" font-size="10.00">get_wchar_encoding</text>
</a>
</g>
</g>
<!-- Node2&#45;&gt;Node3 -->
<g id="edge2_Node000002_Node000003" class="edge">
<title>Node2&#45;&gt;Node3</title>
<g id="a_edge2_Node000002_Node000003"><a xlink:title=" ">
<path fill="none" stroke="#63b8ff" d="M194.04,-153.45C217.14,-162.43 250.67,-175.45 276.39,-185.44"/>
<polygon fill="#63b8ff" stroke="#63b8ff" points="274.88,-188.61 285.47,-188.97 277.42,-182.08 274.88,-188.61"/>
</a>
</g>
</g>
<!-- Node4 -->
<g id="Node000004" class="node">
<title>Node4</title>
<g id="a_Node000004"><a xlink:href="pugixml_8cpp.html#aaf0cb0440cad4fe27233f6482e324e15" target="_top" xlink:title=" ">
<polygon fill="white" stroke="#666666" points="517.38,-191 436.88,-191 436.88,-171 517.38,-171 517.38,-191"/>
<text xml:space="preserve" text-anchor="middle" x="477.12" y="-177.5" font-family="Helvetica,sans-Serif" font-size="10.00">is_little_endian</text>
</a>
</g>
</g>
<!-- Node2&#45;&gt;Node4 -->
<g id="edge6_Node000002_Node000004" class="edge">
<title>Node2&#45;&gt;Node4</title>
<g id="a_edge6_Node000002_Node000004"><a xlink:title=" ">
<path fill="none" stroke="#63b8ff" d="M217.8,-149.23C275.15,-156.28 368.01,-167.7 425.38,-174.76"/>
<polygon fill="#63b8ff" stroke="#63b8ff" points="424.85,-178.22 435.21,-175.97 425.71,-171.27 424.85,-178.22"/>
</a>
</g>
</g>
<!-- Node5 -->
<g id="Node000005" class="node">
<title>Node5</title>
<g id="a_Node000005"><a xlink:href="pugixml_8cpp.html#a8249b94ed556c157dba0e1e6a1299650" target="_top" xlink:title=" ">
<polygon fill="white" stroke="#666666" points="372.75,-134 257,-134 257,-114 372.75,-114 372.75,-134"/>
<text xml:space="preserve" text-anchor="middle" x="314.88" y="-120.5" font-family="Helvetica,sans-Serif" font-size="10.00">guess_buffer_encoding</text>
</a>
</g>
</g>
<!-- Node2&#45;&gt;Node5 -->
<g id="edge4_Node000002_Node000005" class="edge">
<title>Node2&#45;&gt;Node5</title>
<g id="a_edge4_Node000002_Node000005"><a xlink:title=" ">
<path fill="none" stroke="#63b8ff" d="M218.04,-136.41C226.87,-135.27 236.18,-134.06 245.38,-132.87"/>
<polygon fill="#63b8ff" stroke="#63b8ff" points="245.55,-136.38 255.02,-131.62 244.65,-129.43 245.55,-136.38"/>
</a>
</g>
</g>
<!-- Node3&#45;&gt;Node4 -->
<g id="edge3_Node000003_Node000004" class="edge">
<title>Node3&#45;&gt;Node4</title>
<g id="a_edge3_Node000003_Node000004"><a xlink:title=" ">
<path fill="none" stroke="#63b8ff" d="M367.9,-193.83C386.28,-191.65 406.92,-189.21 425.21,-187.04"/>
<polygon fill="#63b8ff" stroke="#63b8ff" points="425.52,-190.52 435.04,-185.87 424.7,-183.57 425.52,-190.52"/>
</a>
</g>
</g>
<!-- Node6 -->
<g id="Node000006" class="node">
<title>Node6</title>
<g id="a_Node000006"><a xlink:href="pugixml_8cpp.html#a692fbc38a0056dd59dec71d856ba2a49" target="_top" xlink:title=" ">
<polygon fill="white" stroke="#666666" points="545.5,-134 408.75,-134 408.75,-114 545.5,-114 545.5,-134"/>
<text xml:space="preserve" text-anchor="middle" x="477.12" y="-120.5" font-family="Helvetica,sans-Serif" font-size="10.00">parse_declaration_encoding</text>
</a>
</g>
</g>
<!-- Node5&#45;&gt;Node6 -->
<g id="edge5_Node000005_Node000006" class="edge">
<title>Node5&#45;&gt;Node6</title>
<g id="a_edge5_Node000005_Node000006"><a xlink:title=" ">
<path fill="none" stroke="#63b8ff" d="M372.82,-124C380.65,-124 388.8,-124 396.94,-124"/>
<polygon fill="#63b8ff" stroke="#63b8ff" points="396.88,-127.5 406.88,-124 396.88,-120.5 396.88,-127.5"/>
</a>
</g>
</g>
<!-- Node8 -->
<g id="Node000008" class="node">
<title>Node8</title>
<g id="a_Node000008"><a xlink:href="pugixml_8cpp.html#a887ccbab915fe5ac44e0e20f89c724b6" target="_top" xlink:title=" ">
<polygon fill="white" stroke="#666666" points="359.62,-96 270.12,-96 270.12,-76 359.62,-76 359.62,-96"/>
<text xml:space="preserve" text-anchor="middle" x="314.88" y="-82.5" font-family="Helvetica,sans-Serif" font-size="10.00">convert_file_size</text>
</a>
</g>
</g>
<!-- Node7&#45;&gt;Node8 -->
<g id="edge8_Node000007_Node000008" class="edge">
<title>Node7&#45;&gt;Node8</title>
<g id="a_edge8_Node000007_Node000008"><a xlink:title=" ">
<path fill="none" stroke="#63b8ff" d="M201.9,-86C218.83,-86 239.58,-86 258.61,-86"/>
<polygon fill="#63b8ff" stroke="#63b8ff" points="258.36,-89.5 268.36,-86 258.36,-82.5 258.36,-89.5"/>
</a>
</g>
</g>
<!-- Node9&#45;&gt;Node10 -->
<g id="edge10_Node000009_Node000010" class="edge">
<title>Node9&#45;&gt;Node10</title>
<g id="a_edge10_Node000009_Node000010"><a xlink:title=" ">
<path fill="none" stroke="#63b8ff" d="M207.61,-37.52C224.62,-33.11 244.59,-27.94 262.6,-23.28"/>
<polygon fill="#63b8ff" stroke="#63b8ff" points="263.25,-26.72 272.05,-20.83 261.5,-19.95 263.25,-26.72"/>
</a>
</g>
</g>
<!-- Node11 -->
<g id="Node000011" class="node">
<title>Node11</title>
<g id="a_Node000011"><a xlink:href="structauto__deleter.html#a6c02cf0240e922064cbf4672bb4363ce" target="_top" xlink:title=" ">
<polygon fill="white" stroke="#666666" points="368.25,-58 261.5,-58 261.5,-38 368.25,-38 368.25,-58"/>
<text xml:space="preserve" text-anchor="middle" x="314.88" y="-44.5" font-family="Helvetica,sans-Serif" font-size="10.00">auto_deleter::release</text>
</a>
</g>
</g>
<!-- Node9&#45;&gt;Node11 -->
<g id="edge11_Node000009_Node000011" class="edge">
<title>Node9&#45;&gt;Node11</title>
<g id="a_edge11_Node000009_Node000011"><a xlink:title=" ">
<path fill="none" stroke="#63b8ff" d="M209.57,-48C222.14,-48 236.18,-48 249.8,-48"/>
<polygon fill="#63b8ff" stroke="#63b8ff" points="249.57,-51.5 259.57,-48 249.57,-44.5 249.57,-51.5"/>
</a>
</g>
</g>
<!-- Node12&#45;&gt;Node3 -->
<g id="edge14_Node000012_Node000003" class="edge">
<title>Node12&#45;&gt;Node3</title>
<g id="a_edge14_Node000012_Node000003"><a xlink:title=" ">
<path fill="none" stroke="#63b8ff" d="M221.35,-193.7C230.86,-194.34 240.83,-195.02 250.55,-195.69"/>
<polygon fill="#63b8ff" stroke="#63b8ff" points="250.1,-199.16 260.31,-196.35 250.57,-192.18 250.1,-199.16"/>
</a>
</g>
</g>
</g>
</svg>
