<?xml version="1.0" encoding="UTF-8" standalone="no"?>
<!DOCTYPE svg PUBLIC "-//W3C//DTD SVG 1.1//EN"
 "http://www.w3.org/Graphics/SVG/1.1/DTD/svg11.dtd">
<!-- Generated by graphviz version 14.1.2 (20260124.0452)
 -->
<!-- Title: convert_string_to_number Pages: 1 -->
<!--zoomable 694 -->

<svg id="main" version="1.1" xmlns="http://www.w3.org/2000/svg" xmlns:xlink="http://www.w3.org/1999/xlink" xml:space="preserve" onload="init(evt)">

<style type="text/css"><![CDATA[
.node, .edge {opacity: 0.7;}
.node.selected, .edge.selected {opacity: 1;}
.edge:hover path { stroke: red; }
.edge:hover polygon { stroke: red; fill: red; }
]]></style>

<defs>
  <circle id="rim" cx="0" cy="0" r="7"/>
  <circle id="rim2" cx="0" cy="0" r="3.5"/>
  <g id="zoomPlus">
    <use xlink:href="#rim" fill="#404040"><set attributeName="fill" to="#808080" begin="zoomplus.mouseover" end="zoomplus.mouseout"/></use>
    <path d="M-4,0h8M0,-4v8" fill="none" stroke="white" stroke-width="1.5" pointer-events="none"/>
  </g>
  <g id="zoomMin">
    <use xlink:href="#rim" fill="#404040"><set attributeName="fill" to="#808080" begin="zoomminus.mouseover" end="zoomminus.mouseout"/></use>
    <path d="M-4,0h8" fill="none" stroke="white" stroke-width="1.5" pointer-events="none"/>
  </g>
  <g id="arrowUp" transform="translate(30 24)">
    <use xlink:href="#rim"/>
    <path pointer-events="none" fill="none" stroke="white" stroke-width="1.5" d="M0,-3.0v7 M-2.5,-0.5L0,-3.0L2.5,-0.5"/>
  </g>
  <g id="arrowRight" transform="rotate(90) translate(36 -43)">
    <use xlink:href="#rim"/>
    <path pointer-events="none" fill="none" stroke="white" stroke-width="1.5" d="M0,-3.0v7 M-2.5,-0.5L0,-3.0L2.5,-0.5"/>
  </g>
  <g id="arrowDown" transform="rotate(180) translate(-30 -48)">
    <use xlink:href="#rim"/>
    <path pointer-events="none" fill="none" stroke="white" stroke-width="1.5" d="M0,-3.0v7 M-2.5,-0.5L0,-3.0L2.5,-0.5"/>
  </g>
  <g id="arrowLeft" transform="rotate(270) translate(-36 17)">
    <use xlink:href="#rim"/>
    <path pointer-events="none" fill="none" stroke="white" stroke-width="1.5" d="M0,-3.0v7 M-2.5,-0.5L0,-3.0L2.5,-0.5"/>
  </g>
  <g id="resetDef">
    <use xlink:href="#rim2" fill="#404040"><set attributeName="fill" to="#808080" begin="reset.mouseover" end="reset.mouseout"/></use>
  </g>
</defs>
<script type="application/ecmascript">
var viewWidth = 1549;
var viewHeight = 694;
var sectionId = 'dynsection-39';
</script>
<script type="application/ecmascript" xlink:href="svg.min.js"/>
<svg id="graph" class="graph">
<g id="viewport">
<title>convert_string_to_number</title>
<!-- Node1 -->
<g id="Node000001" class="node">
<title>Node1</title>
<g id="a_Node000001"><a xlink:title=" ">
<polygon fill="#999999" stroke="#666666" points="1540.75,-347.41 1412.25,-347.41 1412.25,-327.41 1540.75,-327.41 1540.75,-347.41"/>
<text xml:space="preserve" text-anchor="middle" x="1476.5" y="-333.91" font-family="Helvetica,sans-Serif" font-size="10.00">convert_string_to_number</text>
</a>
</g>
</g>
<!-- Node2 -->
<g id="Node000002" class="node">
<title>Node2</title>
<g id="a_Node000002"><a xlink:href="classxpath__ast__node.html#a98dd7f6e67fe2c56c63056eed835d6a4" target="_top" xlink:title=" ">
<polygon fill="white" stroke="#666666" points="1376.25,-499.41 1232,-499.41 1232,-479.41 1376.25,-479.41 1376.25,-499.41"/>
<text xml:space="preserve" text-anchor="middle" x="1304.12" y="-485.91" font-family="Helvetica,sans-Serif" font-size="10.00">xpath_ast_node::compare_eq</text>
</a>
</g>
</g>
<!-- Node1&#45;&gt;Node2 -->
<g id="edge1_Node000001_Node000002" class="edge">
<title>Node1&#45;&gt;Node2</title>
<g id="a_edge1_Node000001_Node000002"><a xlink:title=" ">
<path fill="none" stroke="#63b8ff" d="M1455.52,-355.23C1419.53,-387.34 1344.91,-453.91 1316.47,-479.29"/>
<polygon fill="#63b8ff" stroke="#63b8ff" points="1457.53,-358.13 1462.66,-348.86 1452.87,-352.91 1457.53,-358.13"/>
</a>
</g>
</g>
<!-- Node7 -->
<g id="Node000007" class="node">
<title>Node7</title>
<g id="a_Node000007"><a xlink:href="classxpath__ast__node.html#abb6e4c529276eaf882233dbb6e04e111" target="_top" xlink:title=" ">
<polygon fill="white" stroke="#666666" points="434.25,-313.41 290,-313.41 290,-293.41 434.25,-293.41 434.25,-313.41"/>
<text xml:space="preserve" text-anchor="middle" x="362.12" y="-299.91" font-family="Helvetica,sans-Serif" font-size="10.00">xpath_ast_node::compare_rel</text>
</a>
</g>
</g>
<!-- Node1&#45;&gt;Node7 -->
<g id="edge25_Node000001_Node000007" class="edge">
<title>Node1&#45;&gt;Node7</title>
<g id="a_edge25_Node000001_Node000007"><a xlink:title=" ">
<path fill="none" stroke="#63b8ff" d="M1443,-322.28C1384.33,-296.41 1256.23,-246.41 1142.5,-246.41 1142.5,-246.41 1142.5,-246.41 671.38,-246.41 570.15,-246.41 453.29,-276.5 396.96,-292.95"/>
<polygon fill="#63b8ff" stroke="#63b8ff" points="1441.52,-325.46 1452.08,-326.35 1444.38,-319.07 1441.52,-325.46"/>
</a>
</g>
</g>
<!-- Node9 -->
<g id="Node000009" class="node">
<title>Node9</title>
<g id="a_Node000009"><a xlink:href="classxpath__ast__node.html#a92dd7048e28d486bc7f382d1fc6f1de6" target="_top" xlink:title=" ">
<polygon fill="white" stroke="#666666" points="1048.38,-455.41 939.38,-455.41 939.38,-423.41 1048.38,-423.41 1048.38,-455.41"/>
<text xml:space="preserve" text-anchor="start" x="947.38" y="-441.91" font-family="Helvetica,sans-Serif" font-size="10.00">xpath_ast_node::eval</text>
<text xml:space="preserve" text-anchor="middle" x="993.88" y="-429.91" font-family="Helvetica,sans-Serif" font-size="10.00">_number</text>
</a>
</g>
</g>
<!-- Node1&#45;&gt;Node9 -->
<g id="edge44_Node000001_Node000009" class="edge">
<title>Node1&#45;&gt;Node9</title>
<g id="a_edge44_Node000001_Node000009"><a xlink:title=" ">
<path fill="none" stroke="#63b8ff" d="M1415.24,-350.19C1320.73,-370.25 1139.13,-408.79 1048.73,-427.98"/>
<polygon fill="#63b8ff" stroke="#63b8ff" points="1415.79,-353.66 1424.84,-348.16 1414.33,-346.81 1415.79,-353.66"/>
</a>
</g>
</g>
<!-- Node12 -->
<g id="Node000012" class="node">
<title>Node12</title>
<g id="a_Node000012"><a xlink:href="pugixml_8cpp.html#a1a1fca8011d76ef218f46957cf16cd1e" target="_top" xlink:title=" ">
<polygon fill="white" stroke="#666666" points="1368.38,-179.41 1239.88,-179.41 1239.88,-147.41 1368.38,-147.41 1368.38,-179.41"/>
<text xml:space="preserve" text-anchor="start" x="1247.88" y="-165.91" font-family="Helvetica,sans-Serif" font-size="10.00">convert_string_to_number</text>
<text xml:space="preserve" text-anchor="middle" x="1304.12" y="-153.91" font-family="Helvetica,sans-Serif" font-size="10.00">_scratch</text>
</a>
</g>
</g>
<!-- Node1&#45;&gt;Node12 -->
<g id="edge26_Node000001_Node000012" class="edge">
<title>Node1&#45;&gt;Node12</title>
<g id="a_edge26_Node000001_Node000012"><a xlink:title=" ">
<path fill="none" stroke="#63b8ff" d="M1458.3,-318.73C1438.7,-297.55 1405.57,-262.11 1376.25,-232.41 1358.12,-214.04 1336.82,-193.51 1322.28,-179.65"/>
<polygon fill="#63b8ff" stroke="#63b8ff" points="1455.68,-321.05 1465.04,-326.02 1460.82,-316.3 1455.68,-321.05"/>
</a>
</g>
</g>
<!-- Node3 -->
<g id="Node000003" class="node">
<title>Node3</title>
<g id="a_Node000003"><a xlink:href="classxpath__ast__node.html#ab7f965a92023bc2704b8e6fd9f3d7c14" target="_top" xlink:title=" ">
<polygon fill="white" stroke="#666666" points="1196,-505.41 1087,-505.41 1087,-473.41 1196,-473.41 1196,-505.41"/>
<text xml:space="preserve" text-anchor="start" x="1095" y="-491.91" font-family="Helvetica,sans-Serif" font-size="10.00">xpath_ast_node::eval</text>
<text xml:space="preserve" text-anchor="middle" x="1141.5" y="-479.91" font-family="Helvetica,sans-Serif" font-size="10.00">_boolean</text>
</a>
</g>
</g>
<!-- Node2&#45;&gt;Node3 -->
<g id="edge2_Node000002_Node000003" class="edge">
<title>Node2&#45;&gt;Node3</title>
<g id="a_edge2_Node000002_Node000003"><a xlink:title=" ">
<path fill="none" stroke="#63b8ff" d="M1220.26,-482.66C1212.13,-482.68 1204.04,-482.79 1196.31,-482.99"/>
<polygon fill="#63b8ff" stroke="#63b8ff" points="1220.21,-486.16 1230.22,-482.69 1220.23,-479.16 1220.21,-486.16"/>
</a>
</g>
</g>
<!-- Node3&#45;&gt;Node2 -->
<g id="edge22_Node000003_Node000002" class="edge">
<title>Node3&#45;&gt;Node2</title>
<g id="a_edge22_Node000003_Node000002"><a xlink:title=" ">
<path fill="none" stroke="#63b8ff" d="M1207.72,-496.05C1215.63,-496.16 1223.74,-496.19 1231.74,-496.12"/>
<polygon fill="#63b8ff" stroke="#63b8ff" points="1207.89,-492.55 1197.83,-495.85 1207.75,-499.55 1207.89,-492.55"/>
</a>
</g>
</g>
<!-- Node4 -->
<g id="Node000004" class="node">
<title>Node4</title>
<g id="a_Node000004"><a xlink:href="classxpath__ast__node.html#ab4e5bbd3f2e83c86a43349374b4bfc22" target="_top" xlink:title=" ">
<polygon fill="white" stroke="#666666" points="1051,-505.41 936.75,-505.41 936.75,-473.41 1051,-473.41 1051,-505.41"/>
<text xml:space="preserve" text-anchor="start" x="944.75" y="-491.91" font-family="Helvetica,sans-Serif" font-size="10.00">xpath_ast_node::apply</text>
<text xml:space="preserve" text-anchor="middle" x="993.88" y="-479.91" font-family="Helvetica,sans-Serif" font-size="10.00">_predicate_boolean</text>
</a>
</g>
</g>
<!-- Node3&#45;&gt;Node4 -->
<g id="edge3_Node000003_Node000004" class="edge">
<title>Node3&#45;&gt;Node4</title>
<g id="a_edge3_Node000003_Node000004"><a xlink:title=" ">
<path fill="none" stroke="#63b8ff" d="M1075.19,-489.41C1067.25,-489.41 1059.19,-489.41 1051.39,-489.41"/>
<polygon fill="#63b8ff" stroke="#63b8ff" points="1075.17,-492.91 1085.17,-489.41 1075.17,-485.91 1075.17,-492.91"/>
</a>
</g>
</g>
<!-- Node8 -->
<g id="Node000008" class="node">
<title>Node8</title>
<g id="a_Node000008"><a xlink:href="classxpath__ast__node.html#a6b675237a590548b68d0e0b97518b6df" target="_top" xlink:title=" ">
<polygon fill="white" stroke="#666666" points="416.62,-615.41 307.62,-615.41 307.62,-583.41 416.62,-583.41 416.62,-615.41"/>
<text xml:space="preserve" text-anchor="start" x="315.62" y="-601.91" font-family="Helvetica,sans-Serif" font-size="10.00">xpath_ast_node::eval</text>
<text xml:space="preserve" text-anchor="middle" x="362.12" y="-589.91" font-family="Helvetica,sans-Serif" font-size="10.00">_string</text>
</a>
</g>
</g>
<!-- Node3&#45;&gt;Node8 -->
<g id="edge24_Node000003_Node000008" class="edge">
<title>Node3&#45;&gt;Node8</title>
<g id="a_edge24_Node000003_Node000008"><a xlink:title=" ">
<path fill="none" stroke="#63b8ff" d="M1077.19,-508.17C1068.52,-515.54 1065.21,-522.6 1051,-528.41 999.94,-549.27 704,-566.93 579.25,-576.41 523.95,-580.6 460.63,-584.61 416.88,-588.98"/>
<polygon fill="#63b8ff" stroke="#63b8ff" points="1079.14,-511.08 1085.35,-502.5 1075.14,-505.33 1079.14,-511.08"/>
</a>
</g>
</g>
<!-- Node3&#45;&gt;Node9 -->
<g id="edge23_Node000003_Node000009" class="edge">
<title>Node3&#45;&gt;Node9</title>
<g id="a_edge23_Node000003_Node000009"><a xlink:title=" ">
<path fill="none" stroke="#63b8ff" d="M1098.87,-468.95C1083.25,-462.96 1065.28,-456.66 1048.71,-451.35"/>
<polygon fill="#63b8ff" stroke="#63b8ff" points="1097.26,-472.07 1107.85,-472.47 1099.82,-465.56 1097.26,-472.07"/>
</a>
</g>
</g>
<!-- Node5 -->
<g id="Node000005" class="node">
<title>Node5</title>
<g id="a_Node000005"><a xlink:href="classxpath__ast__node.html#a7e35f265c9e0712a16e1d8a9db4c7672" target="_top" xlink:title=" ">
<polygon fill="white" stroke="#666666" points="729.5,-451.41 615.25,-451.41 615.25,-419.41 729.5,-419.41 729.5,-451.41"/>
<text xml:space="preserve" text-anchor="start" x="623.25" y="-437.91" font-family="Helvetica,sans-Serif" font-size="10.00">xpath_ast_node::apply</text>
<text xml:space="preserve" text-anchor="middle" x="672.38" y="-425.91" font-family="Helvetica,sans-Serif" font-size="10.00">_predicate</text>
</a>
</g>
</g>
<!-- Node4&#45;&gt;Node5 -->
<g id="edge4_Node000004_Node000005" class="edge">
<title>Node4&#45;&gt;Node5</title>
<g id="a_edge4_Node000004_Node000005"><a xlink:title=" ">
<path fill="none" stroke="#63b8ff" d="M925.21,-477.97C867.1,-468.15 784.31,-454.15 729.73,-444.93"/>
<polygon fill="#63b8ff" stroke="#63b8ff" points="924.55,-481.41 935,-479.62 925.72,-474.51 924.55,-481.41"/>
</a>
</g>
</g>
<!-- Node6 -->
<g id="Node000006" class="node">
<title>Node6</title>
<g id="a_Node000006"><a xlink:href="classxpath__ast__node.html#a68cace396dd4eeae67ecfcd34a3a8285" target="_top" xlink:title=" ">
<polygon fill="white" stroke="#666666" points="579.25,-576.41 470.25,-576.41 470.25,-544.41 579.25,-544.41 579.25,-576.41"/>
<text xml:space="preserve" text-anchor="start" x="478.25" y="-562.91" font-family="Helvetica,sans-Serif" font-size="10.00">xpath_ast_node::eval</text>
<text xml:space="preserve" text-anchor="middle" x="524.75" y="-550.91" font-family="Helvetica,sans-Serif" font-size="10.00">_node_set</text>
</a>
</g>
</g>
<!-- Node5&#45;&gt;Node6 -->
<g id="edge5_Node000005_Node000006" class="edge">
<title>Node5&#45;&gt;Node6</title>
<g id="a_edge5_Node000005_Node000006"><a xlink:title=" ">
<path fill="none" stroke="#63b8ff" d="M643.9,-458.99C614.94,-483.85 570.09,-522.35 544.79,-544.06"/>
<polygon fill="#63b8ff" stroke="#63b8ff" points="645.88,-461.9 651.19,-452.73 641.32,-456.59 645.88,-461.9"/>
</a>
</g>
</g>
<!-- Node6&#45;&gt;Node2 -->
<g id="edge6_Node000006_Node000002" class="edge">
<title>Node6&#45;&gt;Node2</title>
<g id="a_edge6_Node000006_Node000002"><a xlink:title=" ">
<path fill="none" stroke="#63b8ff" d="M591.05,-567.74C599.19,-568.43 607.41,-569.01 615.25,-569.41 665.96,-571.95 678.75,-571.18 729.5,-569.41 938.14,-562.1 991.12,-554.51 1196,-514.41 1217.65,-510.17 1241.57,-504.67 1261.3,-499.9"/>
<polygon fill="#63b8ff" stroke="#63b8ff" points="591.42,-564.26 581.15,-566.84 590.79,-571.23 591.42,-564.26"/>
</a>
</g>
</g>
<!-- Node6&#45;&gt;Node3 -->
<g id="edge9_Node000006_Node000003" class="edge">
<title>Node6&#45;&gt;Node3</title>
<g id="a_edge9_Node000006_Node000003"><a xlink:title=" ">
<path fill="none" stroke="#63b8ff" d="M590.96,-558.95C690.83,-555.78 887.34,-545.75 1051,-514.41 1062.88,-512.13 1075.49,-509.04 1087.37,-505.81"/>
<polygon fill="#63b8ff" stroke="#63b8ff" points="590.96,-555.45 581.07,-559.25 591.17,-562.45 590.96,-555.45"/>
</a>
</g>
</g>
<!-- Node6&#45;&gt;Node7 -->
<g id="edge7_Node000006_Node000007" class="edge">
<title>Node6&#45;&gt;Node7</title>
<g id="a_edge7_Node000006_Node000007"><a xlink:title=" ">
<path fill="none" stroke="#63b8ff" d="M507.54,-534.47C472.88,-479.01 392.82,-350.92 369.57,-313.71"/>
<polygon fill="#63b8ff" stroke="#63b8ff" points="504.39,-536.03 512.66,-542.65 510.32,-532.32 504.39,-536.03"/>
</a>
</g>
</g>
<!-- Node6&#45;&gt;Node8 -->
<g id="edge10_Node000006_Node000008" class="edge">
<title>Node6&#45;&gt;Node8</title>
<g id="a_edge10_Node000006_Node000008"><a xlink:title=" ">
<path fill="none" stroke="#63b8ff" d="M458.83,-576.17C444.91,-579.55 430.36,-583.08 416.92,-586.35"/>
<polygon fill="#63b8ff" stroke="#63b8ff" points="459.45,-579.62 468.35,-573.86 457.8,-572.82 459.45,-579.62"/>
</a>
</g>
</g>
<!-- Node7&#45;&gt;Node3 -->
<g id="edge8_Node000007_Node000003" class="edge">
<title>Node7&#45;&gt;Node3</title>
<g id="a_edge8_Node000007_Node000003"><a xlink:title=" ">
<path fill="none" stroke="#63b8ff" d="M445.96,-295.53C507.96,-290.3 594.9,-284.41 671.38,-284.41 834.12,-284.41 834.12,-284.41 834.12,-284.41 969.48,-284.41 1090.3,-424.33 1128.22,-472.98"/>
<polygon fill="#63b8ff" stroke="#63b8ff" points="445.85,-292.02 436.18,-296.36 446.45,-299 445.85,-292.02"/>
</a>
</g>
</g>
<!-- Node8&#45;&gt;Node2 -->
<g id="edge11_Node000008_Node000002" class="edge">
<title>Node8&#45;&gt;Node2</title>
<g id="a_edge11_Node000008_Node000002"><a xlink:title=" ">
<path fill="none" stroke="#63b8ff" d="M407.8,-620.39C466.79,-646.14 574.53,-686.41 671.38,-686.41 994.88,-686.41 994.88,-686.41 994.88,-686.41 1134.92,-686.41 1262.4,-540.25 1295.07,-499.72"/>
<polygon fill="#63b8ff" stroke="#63b8ff" points="409.31,-617.24 398.75,-616.38 406.47,-623.64 409.31,-617.24"/>
</a>
</g>
</g>
<!-- Node8&#45;&gt;Node3 -->
<g id="edge12_Node000008_Node000003" class="edge">
<title>Node8&#45;&gt;Node3</title>
<g id="a_edge12_Node000008_Node000003"><a xlink:title=" ">
<path fill="none" stroke="#63b8ff" d="M428.3,-603.24C471.21,-601.94 528.59,-598.25 579.25,-594.41 704,-584.93 999.94,-567.27 1051,-546.41 1069.51,-538.84 1069.53,-529.15 1087,-519.41 1096.06,-514.35 1106.59,-509.94 1115.9,-505.87"/>
<polygon fill="#63b8ff" stroke="#63b8ff" points="428.3,-599.74 418.4,-603.49 428.48,-606.73 428.3,-599.74"/>
</a>
</g>
</g>
<!-- Node8&#45;&gt;Node9 -->
<g id="edge13_Node000008_Node000009" class="edge">
<title>Node8&#45;&gt;Node9</title>
<g id="a_edge13_Node000008_Node000009"><a xlink:title=" ">
<path fill="none" stroke="#63b8ff" d="M406.05,-577.24C424.95,-565.85 447.91,-552.82 470.25,-544.41 634.07,-482.72 842.17,-459.74 938.9,-448.31"/>
<polygon fill="#63b8ff" stroke="#63b8ff" points="404.29,-574.21 397.57,-582.4 407.93,-580.19 404.29,-574.21"/>
</a>
</g>
</g>
<!-- Node9&#45;&gt;Node2 -->
<g id="edge18_Node000009_Node000002" class="edge">
<title>Node9&#45;&gt;Node2</title>
<g id="a_edge18_Node000009_Node000002"><a xlink:title=" ">
<path fill="none" stroke="#63b8ff" d="M1059.8,-445.72C1099.33,-449.99 1150.76,-456.34 1196,-464.41 1218.28,-468.38 1242.89,-474.03 1262.89,-478.95"/>
<polygon fill="#63b8ff" stroke="#63b8ff" points="1060.28,-442.25 1049.97,-444.67 1059.54,-449.21 1060.28,-442.25"/>
</a>
</g>
</g>
<!-- Node9&#45;&gt;Node3 -->
<g id="edge20_Node000009_Node000003" class="edge">
<title>Node9&#45;&gt;Node3</title>
<g id="a_edge20_Node000009_Node000003"><a xlink:title=" ">
<path fill="none" stroke="#63b8ff" d="M1036.46,-459.85C1052.1,-465.84 1070.1,-472.15 1086.69,-477.47"/>
<polygon fill="#63b8ff" stroke="#63b8ff" points="1038.06,-456.72 1027.47,-456.32 1035.5,-463.23 1038.06,-456.72"/>
</a>
</g>
</g>
<!-- Node9&#45;&gt;Node7 -->
<g id="edge19_Node000009_Node000007" class="edge">
<title>Node9&#45;&gt;Node7</title>
<g id="a_edge19_Node000009_Node000007"><a xlink:title=" ">
<path fill="none" stroke="#63b8ff" d="M976.94,-413.66C960.88,-390.27 933.79,-357.1 900.75,-341.41 820.14,-303.12 561.17,-300.79 434.39,-302.09"/>
<polygon fill="#63b8ff" stroke="#63b8ff" points="973.86,-415.34 982.3,-421.75 979.69,-411.48 973.86,-415.34"/>
</a>
</g>
</g>
<!-- Node9&#45;&gt;Node8 -->
<g id="edge21_Node000009_Node000008" class="edge">
<title>Node9&#45;&gt;Node8</title>
<g id="a_edge21_Node000009_Node000008"><a xlink:title=" ">
<path fill="none" stroke="#63b8ff" d="M927.68,-438.17C826.78,-443.5 627.99,-467.01 470.25,-526.41 434.16,-539.99 396.47,-565.63 376.85,-583.01"/>
<polygon fill="#63b8ff" stroke="#63b8ff" points="927.57,-441.68 937.39,-437.71 927.23,-434.69 927.57,-441.68"/>
</a>
</g>
</g>
<!-- Node10 -->
<g id="Node000010" class="node">
<title>Node10</title>
<g id="a_Node000010"><a xlink:href="classxpath__ast__node.html#abf2d4b745493f63aebc1c89d9fde8eed" target="_top" xlink:title=" ">
<polygon fill="white" stroke="#666666" points="890.25,-382.41 776,-382.41 776,-350.41 890.25,-350.41 890.25,-382.41"/>
<text xml:space="preserve" text-anchor="start" x="784" y="-368.91" font-family="Helvetica,sans-Serif" font-size="10.00">xpath_ast_node::apply</text>
<text xml:space="preserve" text-anchor="middle" x="833.12" y="-356.91" font-family="Helvetica,sans-Serif" font-size="10.00">_predicate_number</text>
</a>
</g>
</g>
<!-- Node9&#45;&gt;Node10 -->
<g id="edge14_Node000009_Node000010" class="edge">
<title>Node9&#45;&gt;Node10</title>
<g id="a_edge14_Node000009_Node000010"><a xlink:title=" ">
<path fill="none" stroke="#63b8ff" d="M953.33,-417.46C937.23,-408.88 918.31,-399.24 900.75,-391.41 894.21,-388.49 887.21,-385.61 880.3,-382.9"/>
<polygon fill="#63b8ff" stroke="#63b8ff" points="951.66,-420.53 962.12,-422.19 954.98,-414.37 951.66,-420.53"/>
</a>
</g>
</g>
<!-- Node11 -->
<g id="Node000011" class="node">
<title>Node11</title>
<g id="a_Node000011"><a xlink:href="classxpath__ast__node.html#a8cedd7e15623b9fa431788b8843f1463" target="_top" xlink:title=" ">
<polygon fill="white" stroke="#666666" points="897,-432.41 769.25,-432.41 769.25,-400.41 897,-400.41 897,-432.41"/>
<text xml:space="preserve" text-anchor="start" x="777.25" y="-418.91" font-family="Helvetica,sans-Serif" font-size="10.00">xpath_ast_node::apply</text>
<text xml:space="preserve" text-anchor="middle" x="833.12" y="-406.91" font-family="Helvetica,sans-Serif" font-size="10.00">_predicate_number_const</text>
</a>
</g>
</g>
<!-- Node9&#45;&gt;Node11 -->
<g id="edge16_Node000009_Node000011" class="edge">
<title>Node9&#45;&gt;Node11</title>
<g id="a_edge16_Node000009_Node000011"><a xlink:title=" ">
<path fill="none" stroke="#63b8ff" d="M927.93,-430C917.85,-428.54 907.45,-427.03 897.42,-425.58"/>
<polygon fill="#63b8ff" stroke="#63b8ff" points="927.23,-433.43 937.63,-431.4 928.24,-426.5 927.23,-433.43"/>
</a>
</g>
</g>
<!-- Node10&#45;&gt;Node5 -->
<g id="edge15_Node000010_Node000005" class="edge">
<title>Node10&#45;&gt;Node5</title>
<g id="a_edge15_Node000010_Node000005"><a xlink:title=" ">
<path fill="none" stroke="#63b8ff" d="M776.34,-386.93C772.66,-388.41 769.02,-389.91 765.5,-391.41 745.44,-399.94 723.39,-410.43 705.89,-419.03"/>
<polygon fill="#63b8ff" stroke="#63b8ff" points="777.33,-390.3 785.35,-383.38 774.76,-383.79 777.33,-390.3"/>
</a>
</g>
</g>
<!-- Node11&#45;&gt;Node5 -->
<g id="edge17_Node000011_Node000005" class="edge">
<title>Node11&#45;&gt;Node5</title>
<g id="a_edge17_Node000011_Node000005"><a xlink:title=" ">
<path fill="none" stroke="#63b8ff" d="M757.64,-425.32C748.32,-426.44 738.91,-427.56 729.93,-428.64"/>
<polygon fill="#63b8ff" stroke="#63b8ff" points="757.91,-428.81 767.42,-424.15 757.08,-421.86 757.91,-428.81"/>
</a>
</g>
</g>
<!-- Node13 -->
<g id="Node000013" class="node">
<title>Node13</title>
<g id="a_Node000013"><a xlink:href="structxpath__parser.html#a49cbc6141508ace22ab4b8bd8ddf965a" target="_top" xlink:title=" ">
<polygon fill="white" stroke="#666666" points="1194.5,-85.41 1088.5,-85.41 1088.5,-53.41 1194.5,-53.41 1194.5,-85.41"/>
<text xml:space="preserve" text-anchor="start" x="1096.5" y="-71.91" font-family="Helvetica,sans-Serif" font-size="10.00">xpath_parser::parse</text>
<text xml:space="preserve" text-anchor="middle" x="1141.5" y="-59.91" font-family="Helvetica,sans-Serif" font-size="10.00">_primary_expression</text>
</a>
</g>
</g>
<!-- Node12&#45;&gt;Node13 -->
<g id="edge27_Node000012_Node000013" class="edge">
<title>Node12&#45;&gt;Node13</title>
<g id="a_edge27_Node000012_Node000013"><a xlink:title=" ">
<path fill="none" stroke="#63b8ff" d="M1265.33,-141.29C1236.25,-124.27 1196.7,-101.12 1170.43,-85.75"/>
<polygon fill="#63b8ff" stroke="#63b8ff" points="1263.44,-144.24 1273.84,-146.27 1266.98,-138.2 1263.44,-144.24"/>
</a>
</g>
</g>
<!-- Node14 -->
<g id="Node000014" class="node">
<title>Node14</title>
<g id="a_Node000014"><a xlink:href="structxpath__parser.html#a61a425d990a56d5db8cd14405835a5b6" target="_top" xlink:title=" ">
<polygon fill="white" stroke="#666666" points="1045,-85.41 942.75,-85.41 942.75,-53.41 1045,-53.41 1045,-85.41"/>
<text xml:space="preserve" text-anchor="start" x="950.75" y="-71.91" font-family="Helvetica,sans-Serif" font-size="10.00">xpath_parser::parse</text>
<text xml:space="preserve" text-anchor="middle" x="993.88" y="-59.91" font-family="Helvetica,sans-Serif" font-size="10.00">_filter_expression</text>
</a>
</g>
</g>
<!-- Node13&#45;&gt;Node14 -->
<g id="edge28_Node000013_Node000014" class="edge">
<title>Node13&#45;&gt;Node14</title>
<g id="a_edge28_Node000013_Node000014"><a xlink:title=" ">
<path fill="none" stroke="#63b8ff" d="M1076.96,-69.41C1066.34,-69.41 1055.44,-69.41 1045.21,-69.41"/>
<polygon fill="#63b8ff" stroke="#63b8ff" points="1076.82,-72.91 1086.82,-69.41 1076.82,-65.91 1076.82,-72.91"/>
</a>
</g>
</g>
<!-- Node15 -->
<g id="Node000015" class="node">
<title>Node15</title>
<g id="a_Node000015"><a xlink:href="structxpath__parser.html#ab5275305ebaac95fd68a3186b737aaa7" target="_top" xlink:title=" ">
<polygon fill="white" stroke="#666666" points="900.75,-139.41 765.5,-139.41 765.5,-107.41 900.75,-107.41 900.75,-139.41"/>
<text xml:space="preserve" text-anchor="start" x="773.5" y="-125.91" font-family="Helvetica,sans-Serif" font-size="10.00">xpath_parser::parse</text>
<text xml:space="preserve" text-anchor="middle" x="833.12" y="-113.91" font-family="Helvetica,sans-Serif" font-size="10.00">_path_or_unary_expression</text>
</a>
</g>
</g>
<!-- Node14&#45;&gt;Node15 -->
<g id="edge29_Node000014_Node000015" class="edge">
<title>Node14&#45;&gt;Node15</title>
<g id="a_edge29_Node000014_Node000015"><a xlink:title=" ">
<path fill="none" stroke="#63b8ff" d="M933.56,-89.58C916.76,-95.3 898.67,-101.45 882.59,-106.92"/>
<polygon fill="#63b8ff" stroke="#63b8ff" points="934.61,-92.92 942.95,-86.39 932.35,-86.29 934.61,-92.92"/>
</a>
</g>
</g>
<!-- Node16 -->
<g id="Node000016" class="node">
<title>Node16</title>
<g id="a_Node000016"><a xlink:href="structxpath__parser.html#a7738e256011ca842dc2a0beba78562ed" target="_top" xlink:title=" ">
<polygon fill="white" stroke="#666666" points="575.88,-69.41 473.62,-69.41 473.62,-37.41 575.88,-37.41 575.88,-69.41"/>
<text xml:space="preserve" text-anchor="start" x="481.62" y="-55.91" font-family="Helvetica,sans-Serif" font-size="10.00">xpath_parser::parse</text>
<text xml:space="preserve" text-anchor="middle" x="524.75" y="-43.91" font-family="Helvetica,sans-Serif" font-size="10.00">_expression</text>
</a>
</g>
</g>
<!-- Node15&#45;&gt;Node16 -->
<g id="edge30_Node000015_Node000016" class="edge">
<title>Node15&#45;&gt;Node16</title>
<g id="a_edge30_Node000015_Node000016"><a xlink:title=" ">
<path fill="none" stroke="#63b8ff" d="M753.85,-111.19C712.07,-106.47 660.16,-99.49 615.25,-86.41 600.75,-82.18 585.64,-75.9 572.06,-69.83"/>
<polygon fill="#63b8ff" stroke="#63b8ff" points="753.24,-114.64 763.56,-112.26 754.01,-107.68 753.24,-114.64"/>
</a>
</g>
</g>
<!-- Node22 -->
<g id="Node000022" class="node">
<title>Node22</title>
<g id="a_Node000022"><a xlink:href="structxpath__parser.html#adcd54e9b508acfe1f040ee7a54b88f2a" target="_top" xlink:title=" ">
<polygon fill="white" stroke="#666666" points="723.5,-68.41 621.25,-68.41 621.25,-36.41 723.5,-36.41 723.5,-68.41"/>
<text xml:space="preserve" text-anchor="start" x="629.25" y="-54.91" font-family="Helvetica,sans-Serif" font-size="10.00">xpath_parser::parse</text>
<text xml:space="preserve" text-anchor="middle" x="672.38" y="-42.91" font-family="Helvetica,sans-Serif" font-size="10.00">_expression_rec</text>
</a>
</g>
</g>
<!-- Node15&#45;&gt;Node22 -->
<g id="edge41_Node000015_Node000022" class="edge">
<title>Node15&#45;&gt;Node22</title>
<g id="a_edge41_Node000015_Node000022"><a xlink:title=" ">
<path fill="none" stroke="#63b8ff" d="M785,-102.33C761.02,-91.6 732.3,-78.76 709.99,-68.78"/>
<polygon fill="#63b8ff" stroke="#63b8ff" points="783.37,-105.43 793.92,-106.32 786.22,-99.04 783.37,-105.43"/>
</a>
</g>
</g>
<!-- Node16&#45;&gt;Node13 -->
<g id="edge35_Node000016_Node000013" class="edge">
<title>Node16&#45;&gt;Node13</title>
<g id="a_edge35_Node000016_Node000013"><a xlink:title=" ">
<path fill="none" stroke="#63b8ff" d="M569.38,-32.59C583.67,-26.81 599.83,-21.31 615.25,-18.41 805.9,17.55 861.21,-4.17 1051,-44.41 1063.15,-46.98 1076.09,-50.27 1088.24,-53.61"/>
<polygon fill="#63b8ff" stroke="#63b8ff" points="568.11,-29.33 560.26,-36.45 570.84,-35.78 568.11,-29.33"/>
</a>
</g>
</g>
<!-- Node16&#45;&gt;Node14 -->
<g id="edge33_Node000016_Node000014" class="edge">
<title>Node16&#45;&gt;Node14</title>
<g id="a_edge33_Node000016_Node000014"><a xlink:title=" ">
<path fill="none" stroke="#63b8ff" d="M584.02,-33.92C594.31,-31.21 605.02,-28.86 615.25,-27.41 731.98,-10.79 869.81,-37.86 942.36,-55.7"/>
<polygon fill="#63b8ff" stroke="#63b8ff" points="583.2,-30.51 574.5,-36.56 585.07,-37.25 583.2,-30.51"/>
</a>
</g>
</g>
<!-- Node16&#45;&gt;Node15 -->
<g id="edge34_Node000016_Node000015" class="edge">
<title>Node16&#45;&gt;Node15</title>
<g id="a_edge34_Node000016_Node000015"><a xlink:title=" ">
<path fill="none" stroke="#63b8ff" d="M551.76,-75.92C569.18,-86.53 592.93,-97.9 615.25,-104.41 664.27,-118.69 721.65,-125.7 765.07,-127.82"/>
<polygon fill="#63b8ff" stroke="#63b8ff" points="553.86,-73.11 543.56,-70.63 550.07,-78.99 553.86,-73.11"/>
</a>
</g>
</g>
<!-- Node17 -->
<g id="Node000017" class="node">
<title>Node17</title>
<g id="a_Node000017"><a xlink:href="structxpath__parser.html#aa3fe0e7d23131b3943d8248646ecd362" target="_top" xlink:title=" ">
<polygon fill="white" stroke="#666666" points="413.25,-63.41 311,-63.41 311,-43.41 413.25,-43.41 413.25,-63.41"/>
<text xml:space="preserve" text-anchor="middle" x="362.12" y="-49.91" font-family="Helvetica,sans-Serif" font-size="10.00">xpath_parser::parse</text>
</a>
</g>
</g>
<!-- Node16&#45;&gt;Node17 -->
<g id="edge31_Node000016_Node000017" class="edge">
<title>Node16&#45;&gt;Node17</title>
<g id="a_edge31_Node000016_Node000017"><a xlink:title=" ">
<path fill="none" stroke="#63b8ff" d="M461.95,-53.41C445.96,-53.41 428.94,-53.41 413.6,-53.41"/>
<polygon fill="#63b8ff" stroke="#63b8ff" points="461.85,-56.91 471.85,-53.41 461.85,-49.91 461.85,-56.91"/>
</a>
</g>
</g>
<!-- Node19 -->
<g id="Node000019" class="node">
<title>Node19</title>
<g id="a_Node000019"><a xlink:href="structxpath__parser.html#a0b226e2905970c868ab6a80d76da3a95" target="_top" xlink:title=" ">
<polygon fill="white" stroke="#666666" points="425.25,-103.41 299,-103.41 299,-83.41 425.25,-83.41 425.25,-103.41"/>
<text xml:space="preserve" text-anchor="middle" x="362.12" y="-89.91" font-family="Helvetica,sans-Serif" font-size="10.00">xpath_parser::parse_step</text>
</a>
</g>
</g>
<!-- Node16&#45;&gt;Node19 -->
<g id="edge36_Node000016_Node000019" class="edge">
<title>Node16&#45;&gt;Node19</title>
<g id="a_edge36_Node000016_Node000019"><a xlink:title=" ">
<path fill="none" stroke="#63b8ff" d="M462.35,-68.7C443.27,-73.45 422.69,-78.57 405.24,-82.92"/>
<polygon fill="#63b8ff" stroke="#63b8ff" points="463.04,-72.13 471.9,-66.32 461.35,-65.34 463.04,-72.13"/>
</a>
</g>
</g>
<!-- Node18 -->
<g id="Node000018" class="node">
<title>Node18</title>
<g id="a_Node000018"><a xlink:href="structxpath__parser.html#aad773be8b591966eb535018fcc2b6a66" target="_top" xlink:title=" ">
<polygon fill="white" stroke="#666666" points="247.25,-63.41 145,-63.41 145,-43.41 247.25,-43.41 247.25,-63.41"/>
<text xml:space="preserve" text-anchor="middle" x="196.12" y="-49.91" font-family="Helvetica,sans-Serif" font-size="10.00">xpath_parser::parse</text>
</a>
</g>
</g>
<!-- Node17&#45;&gt;Node18 -->
<g id="edge32_Node000017_Node000018" class="edge">
<title>Node17&#45;&gt;Node18</title>
<g id="a_edge32_Node000017_Node000018"><a xlink:title=" ">
<path fill="none" stroke="#63b8ff" d="M299.52,-53.41C282.36,-53.41 263.93,-53.41 247.5,-53.41"/>
<polygon fill="#63b8ff" stroke="#63b8ff" points="299.07,-56.91 309.07,-53.41 299.07,-49.91 299.07,-56.91"/>
</a>
</g>
</g>
<!-- Node20 -->
<g id="Node000020" class="node">
<title>Node20</title>
<g id="a_Node000020"><a xlink:href="structxpath__parser.html#aebea559423376001c89b19216dfc3012" target="_top" xlink:title=" ">
<polygon fill="white" stroke="#666666" points="254,-142.41 138.25,-142.41 138.25,-110.41 254,-110.41 254,-142.41"/>
<text xml:space="preserve" text-anchor="start" x="146.25" y="-128.91" font-family="Helvetica,sans-Serif" font-size="10.00">xpath_parser::parse</text>
<text xml:space="preserve" text-anchor="middle" x="196.12" y="-116.91" font-family="Helvetica,sans-Serif" font-size="10.00">_relative_location_path</text>
</a>
</g>
</g>
<!-- Node19&#45;&gt;Node20 -->
<g id="edge37_Node000019_Node000020" class="edge">
<title>Node19&#45;&gt;Node20</title>
<g id="a_edge37_Node000019_Node000020"><a xlink:title=" ">
<path fill="none" stroke="#63b8ff" d="M298.37,-106.03C283.9,-108.94 268.59,-112.03 254.37,-114.89"/>
<polygon fill="#63b8ff" stroke="#63b8ff" points="298.64,-109.55 307.75,-104.15 297.26,-102.69 298.64,-109.55"/>
</a>
</g>
</g>
<!-- Node20&#45;&gt;Node15 -->
<g id="edge40_Node000020_Node000015" class="edge">
<title>Node20&#45;&gt;Node15</title>
<g id="a_edge40_Node000020_Node000015"><a xlink:title=" ">
<path fill="none" stroke="#63b8ff" d="M265.54,-127.89C366.9,-129.81 562.9,-132.46 729.5,-128.41 741,-128.13 753.22,-127.67 765.07,-127.14"/>
<polygon fill="#63b8ff" stroke="#63b8ff" points="265.83,-124.4 255.77,-127.7 265.7,-131.39 265.83,-124.4"/>
</a>
</g>
</g>
<!-- Node21 -->
<g id="Node000021" class="node">
<title>Node21</title>
<g id="a_Node000021"><a xlink:href="structxpath__parser.html#af14e396ddb7817998ec221eec6b781ab" target="_top" xlink:title=" ">
<polygon fill="white" stroke="#666666" points="102.25,-164.41 0,-164.41 0,-132.41 102.25,-132.41 102.25,-164.41"/>
<text xml:space="preserve" text-anchor="start" x="8" y="-150.91" font-family="Helvetica,sans-Serif" font-size="10.00">xpath_parser::parse</text>
<text xml:space="preserve" text-anchor="middle" x="51.12" y="-138.91" font-family="Helvetica,sans-Serif" font-size="10.00">_location_path</text>
</a>
</g>
</g>
<!-- Node20&#45;&gt;Node21 -->
<g id="edge38_Node000020_Node000021" class="edge">
<title>Node20&#45;&gt;Node21</title>
<g id="a_edge38_Node000020_Node000021"><a xlink:title=" ">
<path fill="none" stroke="#63b8ff" d="M126.47,-136.97C118.41,-138.21 110.3,-139.46 102.56,-140.65"/>
<polygon fill="#63b8ff" stroke="#63b8ff" points="126.94,-140.44 136.29,-135.46 125.87,-133.52 126.94,-140.44"/>
</a>
</g>
</g>
<!-- Node21&#45;&gt;Node15 -->
<g id="edge39_Node000021_Node000015" class="edge">
<title>Node21&#45;&gt;Node15</title>
<g id="a_edge39_Node000021_Node000015"><a xlink:title=" ">
<path fill="none" stroke="#63b8ff" d="M113.82,-155.39C176.13,-161.83 275.18,-170.41 361.12,-170.41 525.75,-170.41 525.75,-170.41 525.75,-170.41 608.89,-170.41 703.27,-153.29 765.04,-139.71"/>
<polygon fill="#63b8ff" stroke="#63b8ff" points="114.44,-151.94 104.13,-154.37 113.71,-158.9 114.44,-151.94"/>
</a>
</g>
</g>
<!-- Node22&#45;&gt;Node16 -->
<g id="edge42_Node000022_Node000016" class="edge">
<title>Node22&#45;&gt;Node16</title>
<g id="a_edge42_Node000022_Node000016"><a xlink:title=" ">
<path fill="none" stroke="#63b8ff" d="M609.45,-52.83C598.36,-52.91 586.91,-52.99 576.18,-53.06"/>
<polygon fill="#63b8ff" stroke="#63b8ff" points="609.36,-56.33 619.34,-52.76 609.31,-49.33 609.36,-56.33"/>
</a>
</g>
</g>
<!-- Node22&#45;&gt;Node22 -->
<g id="edge43_Node000022_Node000022" class="edge">
<title>Node22&#45;&gt;Node22</title>
<g id="a_edge43_Node000022_Node000022"><a xlink:title=" ">
<path fill="none" stroke="#63b8ff" d="M696.98,-80.11C692.87,-83.89 684.67,-86.41 672.38,-86.41 649.89,-86.41 641.1,-77.99 646.02,-68.85"/>
<polygon fill="#63b8ff" stroke="#63b8ff" points="700.42,-80.76 698.5,-70.34 693.5,-79.69 700.42,-80.76"/>
</a>
</g>
</g>
</g>
</svg>

<g id="navigator" transform="translate(0 0)" fill="#404254">
  <rect fill="#f2f5e9" fill-opacity="0.5" stroke="#606060" stroke-width=".5" x="0" y="0" width="60" height="60"/>
  <use id="zoomplus" xlink:href="#zoomPlus" x="17" y="9" onmousedown="handleZoom(evt,'in')"/>
  <use id="zoomminus" xlink:href="#zoomMin" x="42" y="9" onmousedown="handleZoom(evt,'out')"/>
  <use id="reset" xlink:href="#resetDef" x="30" y="36" onmousedown="handleReset()"/>
   <use id="arrowup" xlink:href="#arrowUp" x="0" y="0" onmousedown="handlePan(0,-1)"/>
  <use id="arrowright" xlink:href="#arrowRight" x="0" y="0" onmousedown="handlePan(1,0)"/>
  <use id="arrowdown" xlink:href="#arrowDown" x="0" y="0" onmousedown="handlePan(0,1)"/>
  <use id="arrowleft" xlink:href="#arrowLeft" x="0" y="0" onmousedown="handlePan(-1,0)"/>
</g>
<svg viewBox="0 0 15 15" width="100%" height="30px" preserveAspectRatio="xMaxYMin meet">
 <g id="arrow_out" transform="scale(0.3 0.3)">
  <a xlink:href="pugixml_8cpp_ae6299198941714e42acefb1481370646_icgraph_org.svg" target="_base">
   <rect id="button" ry="5" rx="5" y="6" x="6" height="38" width="38"
        fill="#f2f5e9" fill-opacity="0.5" stroke="#606060" stroke-width="1.0"/>
   <path id="arrow"
     d="M 11.500037,31.436501 C 11.940474,20.09759 22.043105,11.32322 32.158766,21.979434 L 37.068811,17.246167 C 37.068811,17.246167 37.088388,32 37.088388,32 L 22.160133,31.978069 C 22.160133,31.978069 26.997745,27.140456 26.997745,27.140456 C 18.528582,18.264221 13.291696,25.230495 11.500037,31.436501 z"
     style="fill:#404040;"/>
  </a>
 </g>
</svg>

<style type='text/css'>
<![CDATA[
[data-mouse-over-selected='false'] { opacity: 0.7; }
[data-mouse-over-selected='true']  { opacity: 1.0; }
]]>
</style>
<script type="application/ecmascript"><![CDATA[
document.addEventListener('DOMContentLoaded', (event) => {
  highlightEdges();
  highlightAdjacentNodes();
});
]]></script>
</svg>
