<?xml version="1.0" encoding="UTF-8" standalone="no"?>
<!DOCTYPE svg PUBLIC "-//W3C//DTD SVG 1.1//EN"
 "http://www.w3.org/Graphics/SVG/1.1/DTD/svg11.dtd">
<!-- Generated by graphviz version 14.1.2 (20260124.0452)
 -->
<!-- Title: set_value_integer Pages: 1 -->
<svg width="1088pt" height="166pt"
 viewBox="0.00 0.00 1088.00 166.00" xmlns="http://www.w3.org/2000/svg" xmlns:xlink="http://www.w3.org/1999/xlink">
<g id="graph0" class="graph" transform="scale(1 1) rotate(0) translate(4 162)">
<title>set_value_integer</title>
<!-- Node1 -->
<g id="Node000001" class="node">
<title>Node1</title>
<g id="a_Node000001"><a xlink:title=" ">
<polygon fill="#999999" stroke="#666666" points="92.5,-99 0,-99 0,-79 92.5,-79 92.5,-99"/>
<text xml:space="preserve" text-anchor="middle" x="46.25" y="-85.5" font-family="Helvetica,sans-Serif" font-size="10.00">set_value_integer</text>
</a>
</g>
</g>
<!-- Node2 -->
<g id="Node000002" class="node">
<title>Node2</title>
<g id="a_Node000002"><a xlink:href="pugixml_8cpp.html#af8be6a8d52c6ab1eb57a7cb4247d1562" target="_top" xlink:title=" ">
<polygon fill="white" stroke="#666666" points="216.5,-118 128.5,-118 128.5,-98 216.5,-98 216.5,-118"/>
<text xml:space="preserve" text-anchor="middle" x="172.5" y="-104.5" font-family="Helvetica,sans-Serif" font-size="10.00">integer_to_string</text>
</a>
</g>
</g>
<!-- Node1&#45;&gt;Node2 -->
<g id="edge1_Node000001_Node000002" class="edge">
<title>Node1&#45;&gt;Node2</title>
<g id="a_edge1_Node000001_Node000002"><a xlink:title=" ">
<path fill="none" stroke="#63b8ff" d="M92.81,-95.97C100.63,-97.16 108.82,-98.41 116.84,-99.64"/>
<polygon fill="#63b8ff" stroke="#63b8ff" points="116.1,-103.07 126.52,-101.12 117.16,-96.15 116.1,-103.07"/>
</a>
</g>
</g>
<!-- Node3 -->
<g id="Node000003" class="node">
<title>Node3</title>
<g id="a_Node000003"><a xlink:href="pugixml_8cpp.html#a6acbb945c483e413572aadd55a2c8712" target="_top" xlink:title=" ">
<polygon fill="white" stroke="#666666" points="208.25,-80 136.75,-80 136.75,-60 208.25,-60 208.25,-80"/>
<text xml:space="preserve" text-anchor="middle" x="172.5" y="-66.5" font-family="Helvetica,sans-Serif" font-size="10.00">strcpy_insitu</text>
</a>
</g>
</g>
<!-- Node1&#45;&gt;Node3 -->
<g id="edge2_Node000001_Node000003" class="edge">
<title>Node1&#45;&gt;Node3</title>
<g id="a_edge2_Node000001_Node000003"><a xlink:title=" ">
<path fill="none" stroke="#63b8ff" d="M92.81,-82.03C103.39,-80.42 114.66,-78.69 125.27,-77.07"/>
<polygon fill="#63b8ff" stroke="#63b8ff" points="125.6,-80.56 134.96,-75.59 124.54,-73.64 125.6,-80.56"/>
</a>
</g>
</g>
<!-- Node4 -->
<g id="Node000004" class="node">
<title>Node4</title>
<g id="a_Node000004"><a xlink:href="structxml__allocator.html#a19732d75c0ba4b799d32a285fcb58027" target="_top" xlink:title=" ">
<polygon fill="white" stroke="#666666" points="371.25,-158 257.75,-158 257.75,-126 371.25,-126 371.25,-158"/>
<text xml:space="preserve" text-anchor="start" x="265.75" y="-144.5" font-family="Helvetica,sans-Serif" font-size="10.00">xml_allocator::allocate</text>
<text xml:space="preserve" text-anchor="middle" x="314.5" y="-132.5" font-family="Helvetica,sans-Serif" font-size="10.00">_string</text>
</a>
</g>
</g>
<!-- Node3&#45;&gt;Node4 -->
<g id="edge3_Node000003_Node000004" class="edge">
<title>Node3&#45;&gt;Node4</title>
<g id="a_edge3_Node000003_Node000004"><a xlink:title=" ">
<path fill="none" stroke="#63b8ff" d="M199.94,-80.46C205.54,-83.01 211.32,-85.9 216.5,-89 233.9,-99.4 234.96,-106.84 252.5,-117 254.55,-118.19 256.67,-119.35 258.83,-120.47"/>
<polygon fill="#63b8ff" stroke="#63b8ff" points="257.28,-123.61 267.8,-124.84 260.34,-117.32 257.28,-123.61"/>
</a>
</g>
</g>
<!-- Node9 -->
<g id="Node000009" class="node">
<title>Node9</title>
<g id="a_Node000009"><a xlink:href="structxml__allocator.html#af32c538db4d562c2d0bfe15f7c0aa879" target="_top" xlink:title=" ">
<polygon fill="white" stroke="#666666" points="376.5,-108 252.5,-108 252.5,-76 376.5,-76 376.5,-108"/>
<text xml:space="preserve" text-anchor="start" x="260.5" y="-94.5" font-family="Helvetica,sans-Serif" font-size="10.00">xml_allocator::deallocate</text>
<text xml:space="preserve" text-anchor="middle" x="314.5" y="-82.5" font-family="Helvetica,sans-Serif" font-size="10.00">_string</text>
</a>
</g>
</g>
<!-- Node3&#45;&gt;Node9 -->
<g id="edge8_Node000003_Node000009" class="edge">
<title>Node3&#45;&gt;Node9</title>
<g id="a_edge8_Node000003_Node000009"><a xlink:title=" ">
<path fill="none" stroke="#63b8ff" d="M208.47,-75.49C218.37,-77.05 229.53,-78.8 240.78,-80.57"/>
<polygon fill="#63b8ff" stroke="#63b8ff" points="240.11,-84.01 250.53,-82.1 241.2,-77.09 240.11,-84.01"/>
</a>
</g>
</g>
<!-- Node12 -->
<g id="Node000012" class="node">
<title>Node12</title>
<g id="a_Node000012"><a xlink:href="structxml__allocator.html#ac831a283ec3bcbe22fd3ce3be98ec347" target="_top" xlink:title=" ">
<polygon fill="white" stroke="#666666" points="370.5,-58 258.5,-58 258.5,-38 370.5,-38 370.5,-58"/>
<text xml:space="preserve" text-anchor="middle" x="314.5" y="-44.5" font-family="Helvetica,sans-Serif" font-size="10.00">xml_allocator::reserve</text>
</a>
</g>
</g>
<!-- Node3&#45;&gt;Node12 -->
<g id="edge11_Node000003_Node000012" class="edge">
<title>Node3&#45;&gt;Node12</title>
<g id="a_edge11_Node000003_Node000012"><a xlink:title=" ">
<path fill="none" stroke="#63b8ff" d="M208.47,-64.51C220.17,-62.67 233.64,-60.55 246.94,-58.46"/>
<polygon fill="#63b8ff" stroke="#63b8ff" points="247.2,-61.96 256.54,-56.95 246.11,-55.05 247.2,-61.96"/>
</a>
</g>
</g>
<!-- Node13 -->
<g id="Node000013" class="node">
<title>Node13</title>
<g id="a_Node000013"><a xlink:href="pugixml_8cpp.html#afeaebb026671399f617b36e27fa92234" target="_top" xlink:title=" ">
<polygon fill="white" stroke="#666666" points="364.12,-20 264.88,-20 264.88,0 364.12,0 364.12,-20"/>
<text xml:space="preserve" text-anchor="middle" x="314.5" y="-6.5" font-family="Helvetica,sans-Serif" font-size="10.00">strcpy_insitu_allow</text>
</a>
</g>
</g>
<!-- Node3&#45;&gt;Node13 -->
<g id="edge12_Node000003_Node000013" class="edge">
<title>Node3&#45;&gt;Node13</title>
<g id="a_edge12_Node000003_Node000013"><a xlink:title=" ">
<path fill="none" stroke="#63b8ff" d="M191.27,-59.62C207,-50.72 230.78,-37.94 252.5,-29 256.77,-27.24 261.26,-25.56 265.8,-23.96"/>
<polygon fill="#63b8ff" stroke="#63b8ff" points="266.55,-27.4 274.92,-20.9 264.33,-20.76 266.55,-27.4"/>
</a>
</g>
</g>
<!-- Node5 -->
<g id="Node000005" class="node">
<title>Node5</title>
<g id="a_Node000005"><a xlink:href="structxml__allocator.html#a02a8725611785568ceae7a0eea3eca76" target="_top" xlink:title=" ">
<polygon fill="white" stroke="#666666" points="531.25,-158 417.75,-158 417.75,-126 531.25,-126 531.25,-158"/>
<text xml:space="preserve" text-anchor="start" x="425.75" y="-144.5" font-family="Helvetica,sans-Serif" font-size="10.00">xml_allocator::allocate</text>
<text xml:space="preserve" text-anchor="middle" x="474.5" y="-132.5" font-family="Helvetica,sans-Serif" font-size="10.00">_memory</text>
</a>
</g>
</g>
<!-- Node4&#45;&gt;Node5 -->
<g id="edge4_Node000004_Node000005" class="edge">
<title>Node4&#45;&gt;Node5</title>
<g id="a_edge4_Node000004_Node000005"><a xlink:title=" ">
<path fill="none" stroke="#63b8ff" d="M371.65,-142C382.76,-142 394.53,-142 405.97,-142"/>
<polygon fill="#63b8ff" stroke="#63b8ff" points="405.75,-145.5 415.75,-142 405.75,-138.5 405.75,-145.5"/>
</a>
</g>
</g>
<!-- Node6 -->
<g id="Node000006" class="node">
<title>Node6</title>
<g id="a_Node000006"><a xlink:href="structxml__allocator.html#ae010e1cb3ad4e8f1235ad94ea4c542ee" target="_top" xlink:title=" ">
<polygon fill="white" stroke="#666666" points="704.38,-158 590.88,-158 590.88,-126 704.38,-126 704.38,-158"/>
<text xml:space="preserve" text-anchor="start" x="598.88" y="-144.5" font-family="Helvetica,sans-Serif" font-size="10.00">xml_allocator::allocate</text>
<text xml:space="preserve" text-anchor="middle" x="647.62" y="-132.5" font-family="Helvetica,sans-Serif" font-size="10.00">_memory_oob</text>
</a>
</g>
</g>
<!-- Node5&#45;&gt;Node6 -->
<g id="edge5_Node000005_Node000006" class="edge">
<title>Node5&#45;&gt;Node6</title>
<g id="a_edge5_Node000005_Node000006"><a xlink:title=" ">
<path fill="none" stroke="#63b8ff" d="M531.53,-142C546.75,-142 563.39,-142 579.16,-142"/>
<polygon fill="#63b8ff" stroke="#63b8ff" points="578.95,-145.5 588.95,-142 578.95,-138.5 578.95,-145.5"/>
</a>
</g>
</g>
<!-- Node7 -->
<g id="Node000007" class="node">
<title>Node7</title>
<g id="a_Node000007"><a xlink:href="structxml__allocator.html#ad07a6aa6876c8c5a5536d409c01d88e5" target="_top" xlink:title=" ">
<polygon fill="white" stroke="#666666" points="898.5,-152 758.75,-152 758.75,-132 898.5,-132 898.5,-152"/>
<text xml:space="preserve" text-anchor="middle" x="828.62" y="-138.5" font-family="Helvetica,sans-Serif" font-size="10.00">xml_allocator::allocate_page</text>
</a>
</g>
</g>
<!-- Node6&#45;&gt;Node7 -->
<g id="edge6_Node000006_Node000007" class="edge">
<title>Node6&#45;&gt;Node7</title>
<g id="a_edge6_Node000006_Node000007"><a xlink:title=" ">
<path fill="none" stroke="#63b8ff" d="M704.77,-142C718.2,-142 732.8,-142 747.09,-142"/>
<polygon fill="#63b8ff" stroke="#63b8ff" points="746.94,-145.5 756.94,-142 746.94,-138.5 746.94,-145.5"/>
</a>
</g>
</g>
<!-- Node8 -->
<g id="Node000008" class="node">
<title>Node8</title>
<g id="a_Node000008"><a xlink:href="structxml__memory__page.html#a071bb9cc9aeccef1655c1336b16472a5" target="_top" xlink:title=" ">
<polygon fill="white" stroke="#666666" points="1079.5,-152 934.5,-152 934.5,-132 1079.5,-132 1079.5,-152"/>
<text xml:space="preserve" text-anchor="middle" x="1007" y="-138.5" font-family="Helvetica,sans-Serif" font-size="10.00">xml_memory_page::construct</text>
</a>
</g>
</g>
<!-- Node7&#45;&gt;Node8 -->
<g id="edge7_Node000007_Node000008" class="edge">
<title>Node7&#45;&gt;Node8</title>
<g id="a_edge7_Node000007_Node000008"><a xlink:title=" ">
<path fill="none" stroke="#63b8ff" d="M898.83,-142C906.7,-142 914.78,-142 922.81,-142"/>
<polygon fill="#63b8ff" stroke="#63b8ff" points="922.58,-145.5 932.58,-142 922.58,-138.5 922.58,-145.5"/>
</a>
</g>
</g>
<!-- Node10 -->
<g id="Node000010" class="node">
<title>Node10</title>
<g id="a_Node000010"><a xlink:href="structxml__allocator.html#a5df417155487cce4e0460b123ac33dc6" target="_top" xlink:title=" ">
<polygon fill="white" stroke="#666666" points="536.5,-108 412.5,-108 412.5,-76 536.5,-76 536.5,-108"/>
<text xml:space="preserve" text-anchor="start" x="420.5" y="-94.5" font-family="Helvetica,sans-Serif" font-size="10.00">xml_allocator::deallocate</text>
<text xml:space="preserve" text-anchor="middle" x="474.5" y="-82.5" font-family="Helvetica,sans-Serif" font-size="10.00">_memory</text>
</a>
</g>
</g>
<!-- Node9&#45;&gt;Node10 -->
<g id="edge9_Node000009_Node000010" class="edge">
<title>Node9&#45;&gt;Node10</title>
<g id="a_edge9_Node000009_Node000010"><a xlink:title=" ">
<path fill="none" stroke="#63b8ff" d="M376.59,-92C384.5,-92 392.66,-92 400.73,-92"/>
<polygon fill="#63b8ff" stroke="#63b8ff" points="400.54,-95.5 410.54,-92 400.54,-88.5 400.54,-95.5"/>
</a>
</g>
</g>
<!-- Node11 -->
<g id="Node000011" class="node">
<title>Node11</title>
<g id="a_Node000011"><a xlink:href="structxml__allocator.html#a1c6bfe15a257a094f55659f8d71c209e" target="_top" xlink:title=" ">
<polygon fill="white" stroke="#666666" points="722.75,-102 572.5,-102 572.5,-82 722.75,-82 722.75,-102"/>
<text xml:space="preserve" text-anchor="middle" x="647.62" y="-88.5" font-family="Helvetica,sans-Serif" font-size="10.00">xml_allocator::deallocate_page</text>
</a>
</g>
</g>
<!-- Node10&#45;&gt;Node11 -->
<g id="edge10_Node000010_Node000011" class="edge">
<title>Node10&#45;&gt;Node11</title>
<g id="a_edge10_Node000010_Node000011"><a xlink:title=" ">
<path fill="none" stroke="#63b8ff" d="M536.8,-92C544.55,-92 552.6,-92 560.65,-92"/>
<polygon fill="#63b8ff" stroke="#63b8ff" points="560.5,-95.5 570.5,-92 560.5,-88.5 560.5,-95.5"/>
</a>
</g>
</g>
<!-- Node14 -->
<g id="Node000014" class="node">
<title>Node14</title>
<g id="a_Node000014"><a xlink:href="pugixml_8cpp.html#a775f7b78d2f13c1b72d69b114599461d" target="_top" xlink:title=" ">
<polygon fill="white" stroke="#666666" points="501.25,-20 447.75,-20 447.75,0 501.25,0 501.25,-20"/>
<text xml:space="preserve" text-anchor="middle" x="474.5" y="-6.5" font-family="Helvetica,sans-Serif" font-size="10.00">strlength</text>
</a>
</g>
</g>
<!-- Node13&#45;&gt;Node14 -->
<g id="edge13_Node000013_Node000014" class="edge">
<title>Node13&#45;&gt;Node14</title>
<g id="a_edge13_Node000013_Node000014"><a xlink:title=" ">
<path fill="none" stroke="#63b8ff" d="M364.19,-10C387.45,-10 414.84,-10 436.38,-10"/>
<polygon fill="#63b8ff" stroke="#63b8ff" points="436.17,-13.5 446.17,-10 436.17,-6.5 436.17,-13.5"/>
</a>
</g>
</g>
</g>
</svg>
