<?xml version="1.0" encoding="UTF-8" standalone="no"?>
<!DOCTYPE svg PUBLIC "-//W3C//DTD SVG 1.1//EN"
 "http://www.w3.org/Graphics/SVG/1.1/DTD/svg11.dtd">
<!-- Generated by graphviz version 14.1.2 (20260124.0452)
 -->
<!-- Title: swap Pages: 1 -->
<svg width="1162pt" height="526pt"
 viewBox="0.00 0.00 1162.00 526.00" xmlns="http://www.w3.org/2000/svg" xmlns:xlink="http://www.w3.org/1999/xlink">
<g id="graph0" class="graph" transform="scale(1 1) rotate(0) translate(4 522)">
<title>swap</title>
<!-- Node1 -->
<g id="Node000001" class="node">
<title>Node1</title>
<g id="a_Node000001"><a xlink:title=" ">
<polygon fill="#999999" stroke="#666666" points="1154,-77 1114.75,-77 1114.75,-57 1154,-57 1154,-77"/>
<text xml:space="preserve" text-anchor="middle" x="1134.38" y="-63.5" font-family="Helvetica,sans-Serif" font-size="10.00">swap</text>
</a>
</g>
</g>
<!-- Node2 -->
<g id="Node000002" class="node">
<title>Node2</title>
<g id="a_Node000002"><a xlink:href="classxpath__ast__node.html#a98dd7f6e67fe2c56c63056eed835d6a4" target="_top" xlink:title=" ">
<polygon fill="white" stroke="#666666" points="1078.75,-325 934.5,-325 934.5,-305 1078.75,-305 1078.75,-325"/>
<text xml:space="preserve" text-anchor="middle" x="1006.62" y="-311.5" font-family="Helvetica,sans-Serif" font-size="10.00">xpath_ast_node::compare_eq</text>
</a>
</g>
</g>
<!-- Node1&#45;&gt;Node2 -->
<g id="edge1_Node000001_Node000002" class="edge">
<title>Node1&#45;&gt;Node2</title>
<g id="a_edge1_Node000001_Node000002"><a xlink:title=" ">
<path fill="none" stroke="#63b8ff" d="M1123.06,-87.35C1097.5,-137.76 1031.94,-267.04 1012.89,-304.62"/>
<polygon fill="#63b8ff" stroke="#63b8ff" points="1126.05,-89.19 1127.45,-78.69 1119.8,-86.03 1126.05,-89.19"/>
</a>
</g>
</g>
<!-- Node12 -->
<g id="Node000012" class="node">
<title>Node12</title>
<g id="a_Node000012"><a xlink:href="pugixml_8cpp.html#a1212d7df5db87e06b12d2a2705e4b73d" target="_top" xlink:title=" ">
<polygon fill="white" stroke="#666666" points="1033,-58 980.25,-58 980.25,-38 1033,-38 1033,-58"/>
<text xml:space="preserve" text-anchor="middle" x="1006.62" y="-44.5" font-family="Helvetica,sans-Serif" font-size="10.00">median3</text>
</a>
</g>
</g>
<!-- Node1&#45;&gt;Node12 -->
<g id="edge25_Node000001_Node000012" class="edge">
<title>Node1&#45;&gt;Node12</title>
<g id="a_edge25_Node000001_Node000012"><a xlink:title=" ">
<path fill="none" stroke="#63b8ff" d="M1102.96,-62.4C1081.71,-59.19 1053.63,-54.95 1033.46,-51.9"/>
<polygon fill="#63b8ff" stroke="#63b8ff" points="1102.37,-65.85 1112.78,-63.89 1103.41,-58.93 1102.37,-65.85"/>
</a>
</g>
</g>
<!-- Node16 -->
<g id="Node000016" class="node">
<title>Node16</title>
<g id="a_Node000016"><a xlink:href="pugixml_8cpp.html#a9c094b50369e7c77c5b9ec157b2350b1" target="_top" xlink:title=" ">
<polygon fill="white" stroke="#666666" points="1034.5,-20 978.75,-20 978.75,0 1034.5,0 1034.5,-20"/>
<text xml:space="preserve" text-anchor="middle" x="1006.62" y="-6.5" font-family="Helvetica,sans-Serif" font-size="10.00">partition3</text>
</a>
</g>
</g>
<!-- Node1&#45;&gt;Node16 -->
<g id="edge31_Node000001_Node000016" class="edge">
<title>Node1&#45;&gt;Node16</title>
<g id="a_edge31_Node000001_Node000016"><a xlink:title=" ">
<path fill="none" stroke="#63b8ff" d="M1112.24,-49.72C1102.52,-42.47 1090.54,-34.47 1078.75,-29 1064.84,-22.54 1048.34,-17.97 1034.74,-14.92"/>
<polygon fill="#63b8ff" stroke="#63b8ff" points="1109.87,-52.32 1119.92,-55.67 1114.16,-46.78 1109.87,-52.32"/>
</a>
</g>
</g>
<!-- Node17 -->
<g id="Node000017" class="node">
<title>Node17</title>
<g id="a_Node000017"><a xlink:href="pugixml_8cpp.html#a181d689d647721b02f6db6c996550a3d" target="_top" xlink:title=" ">
<polygon fill="white" stroke="#666666" points="1030.75,-96 982.5,-96 982.5,-76 1030.75,-76 1030.75,-96"/>
<text xml:space="preserve" text-anchor="middle" x="1006.62" y="-82.5" font-family="Helvetica,sans-Serif" font-size="10.00">reverse</text>
</a>
</g>
</g>
<!-- Node1&#45;&gt;Node17 -->
<g id="edge33_Node000001_Node000017" class="edge">
<title>Node1&#45;&gt;Node17</title>
<g id="a_edge33_Node000001_Node000017"><a xlink:title=" ">
<path fill="none" stroke="#63b8ff" d="M1103.19,-71.56C1081.1,-74.9 1051.56,-79.36 1031.2,-82.44"/>
<polygon fill="#63b8ff" stroke="#63b8ff" points="1103.41,-75.07 1112.78,-70.11 1102.37,-68.15 1103.41,-75.07"/>
</a>
</g>
</g>
<!-- Node3 -->
<g id="Node000003" class="node">
<title>Node3</title>
<g id="a_Node000003"><a xlink:href="classxpath__ast__node.html#ab7f965a92023bc2704b8e6fd9f3d7c14" target="_top" xlink:title=" ">
<polygon fill="white" stroke="#666666" points="898.5,-331 789.5,-331 789.5,-299 898.5,-299 898.5,-331"/>
<text xml:space="preserve" text-anchor="start" x="797.5" y="-317.5" font-family="Helvetica,sans-Serif" font-size="10.00">xpath_ast_node::eval</text>
<text xml:space="preserve" text-anchor="middle" x="844" y="-305.5" font-family="Helvetica,sans-Serif" font-size="10.00">_boolean</text>
</a>
</g>
</g>
<!-- Node2&#45;&gt;Node3 -->
<g id="edge2_Node000002_Node000003" class="edge">
<title>Node2&#45;&gt;Node3</title>
<g id="a_edge2_Node000002_Node000003"><a xlink:title=" ">
<path fill="none" stroke="#63b8ff" d="M922.76,-308.25C914.63,-308.27 906.54,-308.38 898.81,-308.59"/>
<polygon fill="#63b8ff" stroke="#63b8ff" points="922.71,-311.75 932.72,-308.28 922.73,-304.75 922.71,-311.75"/>
</a>
</g>
</g>
<!-- Node3&#45;&gt;Node2 -->
<g id="edge22_Node000003_Node000002" class="edge">
<title>Node3&#45;&gt;Node2</title>
<g id="a_edge22_Node000003_Node000002"><a xlink:title=" ">
<path fill="none" stroke="#63b8ff" d="M910.22,-321.64C918.13,-321.76 926.24,-321.78 934.24,-321.71"/>
<polygon fill="#63b8ff" stroke="#63b8ff" points="910.39,-318.15 900.33,-321.44 910.25,-325.14 910.39,-318.15"/>
</a>
</g>
</g>
<!-- Node4 -->
<g id="Node000004" class="node">
<title>Node4</title>
<g id="a_Node000004"><a xlink:href="classxpath__ast__node.html#ab4e5bbd3f2e83c86a43349374b4bfc22" target="_top" xlink:title=" ">
<polygon fill="white" stroke="#666666" points="753.5,-278 639.25,-278 639.25,-246 753.5,-246 753.5,-278"/>
<text xml:space="preserve" text-anchor="start" x="647.25" y="-264.5" font-family="Helvetica,sans-Serif" font-size="10.00">xpath_ast_node::apply</text>
<text xml:space="preserve" text-anchor="middle" x="696.38" y="-252.5" font-family="Helvetica,sans-Serif" font-size="10.00">_predicate_boolean</text>
</a>
</g>
</g>
<!-- Node3&#45;&gt;Node4 -->
<g id="edge3_Node000003_Node000004" class="edge">
<title>Node3&#45;&gt;Node4</title>
<g id="a_edge3_Node000003_Node000004"><a xlink:title=" ">
<path fill="none" stroke="#63b8ff" d="M787.2,-294.69C772.46,-289.33 756.73,-283.6 742.63,-278.47"/>
<polygon fill="#63b8ff" stroke="#63b8ff" points="785.71,-297.87 796.3,-298 788.1,-291.29 785.71,-297.87"/>
</a>
</g>
</g>
<!-- Node8 -->
<g id="Node000008" class="node">
<title>Node8</title>
<g id="a_Node000008"><a xlink:href="classxpath__ast__node.html#a6b675237a590548b68d0e0b97518b6df" target="_top" xlink:title=" ">
<polygon fill="white" stroke="#666666" points="126.62,-409 17.62,-409 17.62,-377 126.62,-377 126.62,-409"/>
<text xml:space="preserve" text-anchor="start" x="25.62" y="-395.5" font-family="Helvetica,sans-Serif" font-size="10.00">xpath_ast_node::eval</text>
<text xml:space="preserve" text-anchor="middle" x="72.12" y="-383.5" font-family="Helvetica,sans-Serif" font-size="10.00">_string</text>
</a>
</g>
</g>
<!-- Node3&#45;&gt;Node8 -->
<g id="edge24_Node000003_Node000008" class="edge">
<title>Node3&#45;&gt;Node8</title>
<g id="a_edge24_Node000003_Node000008"><a xlink:title=" ">
<path fill="none" stroke="#63b8ff" d="M777.73,-308.03C716.44,-306 622.19,-306 540.38,-306 540.38,-306 540.38,-306 381.38,-306 274.01,-306 151.85,-351.03 99.36,-376.61"/>
<polygon fill="#63b8ff" stroke="#63b8ff" points="777.52,-311.52 787.64,-308.39 777.78,-304.52 777.52,-311.52"/>
</a>
</g>
</g>
<!-- Node9 -->
<g id="Node000009" class="node">
<title>Node9</title>
<g id="a_Node000009"><a xlink:href="classxpath__ast__node.html#a92dd7048e28d486bc7f382d1fc6f1de6" target="_top" xlink:title=" ">
<polygon fill="white" stroke="#666666" points="750.88,-384 641.88,-384 641.88,-352 750.88,-352 750.88,-384"/>
<text xml:space="preserve" text-anchor="start" x="649.88" y="-370.5" font-family="Helvetica,sans-Serif" font-size="10.00">xpath_ast_node::eval</text>
<text xml:space="preserve" text-anchor="middle" x="696.38" y="-358.5" font-family="Helvetica,sans-Serif" font-size="10.00">_number</text>
</a>
</g>
</g>
<!-- Node3&#45;&gt;Node9 -->
<g id="edge23_Node000003_Node000009" class="edge">
<title>Node3&#45;&gt;Node9</title>
<g id="a_edge23_Node000003_Node000009"><a xlink:title=" ">
<path fill="none" stroke="#63b8ff" d="M778.5,-331.76C760.66,-338.09 742.14,-345.21 727.31,-351.53"/>
<polygon fill="#63b8ff" stroke="#63b8ff" points="779.47,-335.13 787.76,-328.54 777.16,-328.52 779.47,-335.13"/>
</a>
</g>
</g>
<!-- Node5 -->
<g id="Node000005" class="node">
<title>Node5</title>
<g id="a_Node000005"><a xlink:href="classxpath__ast__node.html#a7e35f265c9e0712a16e1d8a9db4c7672" target="_top" xlink:title=" ">
<polygon fill="white" stroke="#666666" points="439.5,-384 325.25,-384 325.25,-352 439.5,-352 439.5,-384"/>
<text xml:space="preserve" text-anchor="start" x="333.25" y="-370.5" font-family="Helvetica,sans-Serif" font-size="10.00">xpath_ast_node::apply</text>
<text xml:space="preserve" text-anchor="middle" x="382.38" y="-358.5" font-family="Helvetica,sans-Serif" font-size="10.00">_predicate</text>
</a>
</g>
</g>
<!-- Node4&#45;&gt;Node5 -->
<g id="edge4_Node000004_Node000005" class="edge">
<title>Node4&#45;&gt;Node5</title>
<g id="a_edge4_Node000004_Node000005"><a xlink:title=" ">
<path fill="none" stroke="#63b8ff" d="M636.29,-282.07C577.09,-302.19 487.05,-332.78 431.9,-351.52"/>
<polygon fill="#63b8ff" stroke="#63b8ff" points="637.19,-285.46 645.53,-278.93 634.94,-278.84 637.19,-285.46"/>
</a>
</g>
</g>
<!-- Node6 -->
<g id="Node000006" class="node">
<title>Node6</title>
<g id="a_Node000006"><a xlink:href="classxpath__ast__node.html#a68cace396dd4eeae67ecfcd34a3a8285" target="_top" xlink:title=" ">
<polygon fill="white" stroke="#666666" points="289.25,-202 180.25,-202 180.25,-170 289.25,-170 289.25,-202"/>
<text xml:space="preserve" text-anchor="start" x="188.25" y="-188.5" font-family="Helvetica,sans-Serif" font-size="10.00">xpath_ast_node::eval</text>
<text xml:space="preserve" text-anchor="middle" x="234.75" y="-176.5" font-family="Helvetica,sans-Serif" font-size="10.00">_node_set</text>
</a>
</g>
</g>
<!-- Node5&#45;&gt;Node6 -->
<g id="edge5_Node000005_Node000006" class="edge">
<title>Node5&#45;&gt;Node6</title>
<g id="a_edge5_Node000005_Node000006"><a xlink:title=" ">
<path fill="none" stroke="#63b8ff" d="M361.07,-342.62C330.68,-304.64 274.25,-234.11 248.8,-202.3"/>
<polygon fill="#63b8ff" stroke="#63b8ff" points="358.27,-344.72 367.25,-350.35 363.73,-340.35 358.27,-344.72"/>
</a>
</g>
</g>
<!-- Node6&#45;&gt;Node2 -->
<g id="edge6_Node000006_Node000002" class="edge">
<title>Node6&#45;&gt;Node2</title>
<g id="a_edge6_Node000006_Node000002"><a xlink:title=" ">
<path fill="none" stroke="#63b8ff" d="M300.73,-174.43C308.97,-173.17 317.3,-171.98 325.25,-171 419.56,-159.36 443.35,-154 538.38,-154 697.38,-154 697.38,-154 697.38,-154 828.09,-154 958.18,-269.15 995.21,-304.68"/>
<polygon fill="#63b8ff" stroke="#63b8ff" points="300.42,-170.94 291.09,-175.96 301.51,-177.85 300.42,-170.94"/>
</a>
</g>
</g>
<!-- Node6&#45;&gt;Node3 -->
<g id="edge9_Node000006_Node000003" class="edge">
<title>Node6&#45;&gt;Node3</title>
<g id="a_edge9_Node000006_Node000003"><a xlink:title=" ">
<path fill="none" stroke="#63b8ff" d="M301.04,-179.37C402.74,-171.83 602.95,-168.35 753.5,-237 785.01,-251.37 813.7,-280.47 829.71,-298.78"/>
<polygon fill="#63b8ff" stroke="#63b8ff" points="300.93,-175.87 291.23,-180.14 301.48,-182.85 300.93,-175.87"/>
</a>
</g>
</g>
<!-- Node7 -->
<g id="Node000007" class="node">
<title>Node7</title>
<g id="a_Node000007"><a xlink:href="classxpath__ast__node.html#abb6e4c529276eaf882233dbb6e04e111" target="_top" xlink:title=" ">
<polygon fill="white" stroke="#666666" points="144.25,-196 0,-196 0,-176 144.25,-176 144.25,-196"/>
<text xml:space="preserve" text-anchor="middle" x="72.12" y="-182.5" font-family="Helvetica,sans-Serif" font-size="10.00">xpath_ast_node::compare_rel</text>
</a>
</g>
</g>
<!-- Node6&#45;&gt;Node7 -->
<g id="edge7_Node000006_Node000007" class="edge">
<title>Node6&#45;&gt;Node7</title>
<g id="a_edge7_Node000006_Node000007"><a xlink:title=" ">
<path fill="none" stroke="#63b8ff" d="M168.48,-186C160.61,-186 152.55,-186 144.6,-186"/>
<polygon fill="#63b8ff" stroke="#63b8ff" points="168.3,-189.5 178.3,-186 168.3,-182.5 168.3,-189.5"/>
</a>
</g>
</g>
<!-- Node6&#45;&gt;Node8 -->
<g id="edge10_Node000006_Node000008" class="edge">
<title>Node6&#45;&gt;Node8</title>
<g id="a_edge10_Node000006_Node000008"><a xlink:title=" ">
<path fill="none" stroke="#63b8ff" d="M214.19,-211.21C180.84,-254.18 113.89,-340.46 85.89,-376.55"/>
<polygon fill="#63b8ff" stroke="#63b8ff" points="216.85,-213.48 220.22,-203.44 211.32,-209.19 216.85,-213.48"/>
</a>
</g>
</g>
<!-- Node7&#45;&gt;Node3 -->
<g id="edge8_Node000007_Node000003" class="edge">
<title>Node7&#45;&gt;Node3</title>
<g id="a_edge8_Node000007_Node000003"><a xlink:title=" ">
<path fill="none" stroke="#63b8ff" d="M111.03,-171.63C168.57,-151.15 281.82,-116 381.38,-116 540.38,-116 540.38,-116 540.38,-116 641.55,-116 672.5,-135.37 753.5,-196 791.58,-224.5 821.16,-273.51 834.78,-298.82"/>
<polygon fill="#63b8ff" stroke="#63b8ff" points="109.92,-168.31 101.71,-175.01 112.3,-174.9 109.92,-168.31"/>
</a>
</g>
</g>
<!-- Node8&#45;&gt;Node2 -->
<g id="edge11_Node000008_Node000002" class="edge">
<title>Node8&#45;&gt;Node2</title>
<g id="a_edge11_Node000008_Node000002"><a xlink:title=" ">
<path fill="none" stroke="#63b8ff" d="M101.74,-416.12C122.47,-431.86 151.74,-452.11 180.25,-465 264.48,-503.09 288.93,-518 381.38,-518 697.38,-518 697.38,-518 697.38,-518 838.99,-518 965.82,-366.71 997.86,-325.35"/>
<polygon fill="#63b8ff" stroke="#63b8ff" points="104.1,-413.52 94.05,-410.17 99.82,-419.06 104.1,-413.52"/>
</a>
</g>
</g>
<!-- Node8&#45;&gt;Node3 -->
<g id="edge12_Node000008_Node000003" class="edge">
<title>Node8&#45;&gt;Node3</title>
<g id="a_edge12_Node000008_Node000003"><a xlink:title=" ">
<path fill="none" stroke="#63b8ff" d="M137.64,-373.7C199.19,-353.1 295.06,-324 381.38,-324 540.38,-324 540.38,-324 540.38,-324 627.46,-324 728.64,-324 789.15,-321.56"/>
<polygon fill="#63b8ff" stroke="#63b8ff" points="136.72,-370.31 128.36,-376.83 138.96,-376.95 136.72,-370.31"/>
</a>
</g>
</g>
<!-- Node8&#45;&gt;Node9 -->
<g id="edge13_Node000008_Node000009" class="edge">
<title>Node8&#45;&gt;Node9</title>
<g id="a_edge13_Node000008_Node000009"><a xlink:title=" ">
<path fill="none" stroke="#63b8ff" d="M115.6,-413.71C207.54,-449.75 430.62,-513.38 603.25,-452 639.39,-439.15 671.65,-405.38 686.59,-384.42"/>
<polygon fill="#63b8ff" stroke="#63b8ff" points="117.04,-410.52 106.46,-410.03 114.43,-417.01 117.04,-410.52"/>
</a>
</g>
</g>
<!-- Node9&#45;&gt;Node2 -->
<g id="edge18_Node000009_Node000002" class="edge">
<title>Node9&#45;&gt;Node2</title>
<g id="a_edge18_Node000009_Node000002"><a xlink:title=" ">
<path fill="none" stroke="#63b8ff" d="M762.7,-360.43C802.16,-355.48 853.39,-348.39 898.5,-340 920.47,-335.92 944.73,-330.34 964.6,-325.5"/>
<polygon fill="#63b8ff" stroke="#63b8ff" points="762.37,-356.95 752.87,-361.65 763.23,-363.89 762.37,-356.95"/>
</a>
</g>
</g>
<!-- Node9&#45;&gt;Node3 -->
<g id="edge20_Node000009_Node000003" class="edge">
<title>Node9&#45;&gt;Node3</title>
<g id="a_edge20_Node000009_Node000003"><a xlink:title=" ">
<path fill="none" stroke="#63b8ff" d="M762,-351.19C779.85,-344.86 798.36,-337.74 813.18,-331.42"/>
<polygon fill="#63b8ff" stroke="#63b8ff" points="761.02,-347.83 752.73,-354.42 763.33,-354.44 761.02,-347.83"/>
</a>
</g>
</g>
<!-- Node9&#45;&gt;Node7 -->
<g id="edge19_Node000009_Node000007" class="edge">
<title>Node9&#45;&gt;Node7</title>
<g id="a_edge19_Node000009_Node000007"><a xlink:title=" ">
<path fill="none" stroke="#63b8ff" d="M630.53,-349.03C500.15,-310.9 210.08,-226.06 108.83,-196.44"/>
<polygon fill="#63b8ff" stroke="#63b8ff" points="629.48,-352.37 640.06,-351.82 631.45,-345.65 629.48,-352.37"/>
</a>
</g>
</g>
<!-- Node9&#45;&gt;Node8 -->
<g id="edge21_Node000009_Node000008" class="edge">
<title>Node9&#45;&gt;Node8</title>
<g id="a_edge21_Node000009_Node000008"><a xlink:title=" ">
<path fill="none" stroke="#63b8ff" d="M666.85,-392.02C650.14,-407.23 627.57,-425.35 603.25,-434 437.32,-493 224.79,-436.51 126.89,-407.44"/>
<polygon fill="#63b8ff" stroke="#63b8ff" points="668.99,-394.8 673.92,-385.42 664.22,-389.68 668.99,-394.8"/>
</a>
</g>
</g>
<!-- Node10 -->
<g id="Node000010" class="node">
<title>Node10</title>
<g id="a_Node000010"><a xlink:href="classxpath__ast__node.html#abf2d4b745493f63aebc1c89d9fde8eed" target="_top" xlink:title=" ">
<polygon fill="white" stroke="#666666" points="596.5,-434 482.25,-434 482.25,-402 596.5,-402 596.5,-434"/>
<text xml:space="preserve" text-anchor="start" x="490.25" y="-420.5" font-family="Helvetica,sans-Serif" font-size="10.00">xpath_ast_node::apply</text>
<text xml:space="preserve" text-anchor="middle" x="539.38" y="-408.5" font-family="Helvetica,sans-Serif" font-size="10.00">_predicate_number</text>
</a>
</g>
</g>
<!-- Node9&#45;&gt;Node10 -->
<g id="edge14_Node000009_Node000010" class="edge">
<title>Node9&#45;&gt;Node10</title>
<g id="a_edge14_Node000009_Node000010"><a xlink:title=" ">
<path fill="none" stroke="#63b8ff" d="M634.03,-387.79C619.94,-392.33 605.11,-397.12 591.51,-401.51"/>
<polygon fill="#63b8ff" stroke="#63b8ff" points="634.74,-391.24 643.18,-384.84 632.59,-384.58 634.74,-391.24"/>
</a>
</g>
</g>
<!-- Node11 -->
<g id="Node000011" class="node">
<title>Node11</title>
<g id="a_Node000011"><a xlink:href="classxpath__ast__node.html#a8cedd7e15623b9fa431788b8843f1463" target="_top" xlink:title=" ">
<polygon fill="white" stroke="#666666" points="603.25,-384 475.5,-384 475.5,-352 603.25,-352 603.25,-384"/>
<text xml:space="preserve" text-anchor="start" x="483.5" y="-370.5" font-family="Helvetica,sans-Serif" font-size="10.00">xpath_ast_node::apply</text>
<text xml:space="preserve" text-anchor="middle" x="539.38" y="-358.5" font-family="Helvetica,sans-Serif" font-size="10.00">_predicate_number_const</text>
</a>
</g>
</g>
<!-- Node9&#45;&gt;Node11 -->
<g id="edge16_Node000009_Node000011" class="edge">
<title>Node9&#45;&gt;Node11</title>
<g id="a_edge16_Node000009_Node000011"><a xlink:title=" ">
<path fill="none" stroke="#63b8ff" d="M630.21,-368C621.41,-368 612.4,-368 603.65,-368"/>
<polygon fill="#63b8ff" stroke="#63b8ff" points="630.09,-371.5 640.08,-368 630.08,-364.5 630.09,-371.5"/>
</a>
</g>
</g>
<!-- Node10&#45;&gt;Node5 -->
<g id="edge15_Node000010_Node000005" class="edge">
<title>Node10&#45;&gt;Node5</title>
<g id="a_edge15_Node000010_Node000005"><a xlink:title=" ">
<path fill="none" stroke="#63b8ff" d="M477.03,-398.21C462.94,-393.67 448.11,-388.88 434.51,-384.49"/>
<polygon fill="#63b8ff" stroke="#63b8ff" points="475.59,-401.42 486.18,-401.16 477.74,-394.76 475.59,-401.42"/>
</a>
</g>
</g>
<!-- Node11&#45;&gt;Node5 -->
<g id="edge17_Node000011_Node000005" class="edge">
<title>Node11&#45;&gt;Node5</title>
<g id="a_edge17_Node000011_Node000005"><a xlink:title=" ">
<path fill="none" stroke="#63b8ff" d="M463.95,-368C455.85,-368 447.71,-368 439.88,-368"/>
<polygon fill="#63b8ff" stroke="#63b8ff" points="463.82,-371.5 473.82,-368 463.82,-364.5 463.82,-371.5"/>
</a>
</g>
</g>
<!-- Node13 -->
<g id="Node000013" class="node">
<title>Node13</title>
<g id="a_Node000013"><a xlink:href="pugixml_8cpp.html#a09a6af504e5bf26365ccb2d1c707ca48" target="_top" xlink:title=" ">
<polygon fill="white" stroke="#666666" points="860.25,-20 827.75,-20 827.75,0 860.25,0 860.25,-20"/>
<text xml:space="preserve" text-anchor="middle" x="844" y="-6.5" font-family="Helvetica,sans-Serif" font-size="10.00">sort</text>
</a>
</g>
</g>
<!-- Node12&#45;&gt;Node13 -->
<g id="edge26_Node000012_Node000013" class="edge">
<title>Node12&#45;&gt;Node13</title>
<g id="a_edge26_Node000012_Node000013"><a xlink:title=" ">
<path fill="none" stroke="#63b8ff" d="M968.86,-39.3C934.66,-31.21 885.37,-19.55 860.54,-13.68"/>
<polygon fill="#63b8ff" stroke="#63b8ff" points="967.81,-42.65 978.34,-41.55 969.42,-35.84 967.81,-42.65"/>
</a>
</g>
</g>
<!-- Node13&#45;&gt;Node13 -->
<g id="edge27_Node000013_Node000013" class="edge">
<title>Node13&#45;&gt;Node13</title>
<g id="a_edge27_Node000013_Node000013"><a xlink:title=" ">
<path fill="none" stroke="#63b8ff" d="M869.58,-22.48C876.07,-30.41 867.54,-38 844,-38 813.87,-38 808.34,-25.56 827.4,-15.91"/>
<polygon fill="#63b8ff" stroke="#63b8ff" points="871.95,-19.89 861.82,-16.8 867.82,-25.54 871.95,-19.89"/>
</a>
</g>
</g>
<!-- Node14 -->
<g id="Node000014" class="node">
<title>Node14</title>
<g id="a_Node000014"><a xlink:href="pugixml_8cpp.html#ad84a1c6cc9aedeb003069d58199ca5f5" target="_top" xlink:title=" ">
<polygon fill="white" stroke="#666666" points="727.25,-82 665.5,-82 665.5,-62 727.25,-62 727.25,-82"/>
<text xml:space="preserve" text-anchor="middle" x="696.38" y="-68.5" font-family="Helvetica,sans-Serif" font-size="10.00">xpath_sort</text>
</a>
</g>
</g>
<!-- Node13&#45;&gt;Node14 -->
<g id="edge28_Node000013_Node000014" class="edge">
<title>Node13&#45;&gt;Node14</title>
<g id="a_edge28_Node000013_Node000014"><a xlink:title=" ">
<path fill="none" stroke="#63b8ff" d="M816.88,-21.12C789.98,-32.57 748.39,-50.28 722.04,-61.5"/>
<polygon fill="#63b8ff" stroke="#63b8ff" points="818.19,-24.37 826.02,-17.23 815.45,-17.93 818.19,-24.37"/>
</a>
</g>
</g>
<!-- Node15 -->
<g id="Node000015" class="node">
<title>Node15</title>
<g id="a_Node000015"><a xlink:href="classxpath__node__set__raw.html#a5e46ee306afc24ea83f6c1181bba3600" target="_top" xlink:title=" ">
<polygon fill="white" stroke="#666666" points="435.38,-88 329.38,-88 329.38,-56 435.38,-56 435.38,-88"/>
<text xml:space="preserve" text-anchor="start" x="337.38" y="-74.5" font-family="Helvetica,sans-Serif" font-size="10.00">xpath_node_set_raw</text>
<text xml:space="preserve" text-anchor="middle" x="382.38" y="-62.5" font-family="Helvetica,sans-Serif" font-size="10.00">::sort_do</text>
</a>
</g>
</g>
<!-- Node14&#45;&gt;Node15 -->
<g id="edge29_Node000014_Node000015" class="edge">
<title>Node14&#45;&gt;Node15</title>
<g id="a_edge29_Node000014_Node000015"><a xlink:title=" ">
<path fill="none" stroke="#63b8ff" d="M653.87,-72C597.62,-72 497.17,-72 435.78,-72"/>
<polygon fill="#63b8ff" stroke="#63b8ff" points="653.66,-75.5 663.66,-72 653.66,-68.5 653.66,-75.5"/>
</a>
</g>
</g>
<!-- Node15&#45;&gt;Node6 -->
<g id="edge30_Node000015_Node000006" class="edge">
<title>Node15&#45;&gt;Node6</title>
<g id="a_edge30_Node000015_Node000006"><a xlink:title=" ">
<path fill="none" stroke="#63b8ff" d="M351.47,-95.41C323.17,-117.56 281.43,-150.24 256.58,-169.7"/>
<polygon fill="#63b8ff" stroke="#63b8ff" points="353.6,-98.19 359.32,-89.27 349.29,-92.67 353.6,-98.19"/>
</a>
</g>
</g>
<!-- Node16&#45;&gt;Node13 -->
<g id="edge32_Node000016_Node000013" class="edge">
<title>Node16&#45;&gt;Node13</title>
<g id="a_edge32_Node000016_Node000013"><a xlink:title=" ">
<path fill="none" stroke="#63b8ff" d="M966.97,-10C932.94,-10 885.09,-10 860.67,-10"/>
<polygon fill="#63b8ff" stroke="#63b8ff" points="966.86,-13.5 976.86,-10 966.86,-6.5 966.86,-13.5"/>
</a>
</g>
</g>
<!-- Node17&#45;&gt;Node14 -->
<g id="edge35_Node000017_Node000014" class="edge">
<title>Node17&#45;&gt;Node14</title>
<g id="a_edge35_Node000017_Node000014"><a xlink:title=" ">
<path fill="none" stroke="#63b8ff" d="M970.98,-91.65C928.16,-97.73 853.16,-105.48 789.5,-97 768.47,-94.2 745.44,-87.95 727.67,-82.4"/>
<polygon fill="#63b8ff" stroke="#63b8ff" points="971.29,-95.14 980.67,-90.21 970.26,-88.22 971.29,-95.14"/>
</a>
</g>
</g>
<!-- Node18 -->
<g id="Node000018" class="node">
<title>Node18</title>
<g id="a_Node000018"><a xlink:href="classpugi_1_1xpath__node__set.html#a05b727c41d8671bc7f64e7ca7ef21ac8" target="_top" xlink:title=" ">
<polygon fill="white" stroke="#666666" points="898.5,-88 789.5,-88 789.5,-56 898.5,-56 898.5,-88"/>
<text xml:space="preserve" text-anchor="start" x="797.5" y="-74.5" font-family="Helvetica,sans-Serif" font-size="10.00">pugi::xpath_node_set</text>
<text xml:space="preserve" text-anchor="middle" x="844" y="-62.5" font-family="Helvetica,sans-Serif" font-size="10.00">::sort</text>
</a>
</g>
</g>
<!-- Node17&#45;&gt;Node18 -->
<g id="edge34_Node000017_Node000018" class="edge">
<title>Node17&#45;&gt;Node18</title>
<g id="a_edge34_Node000017_Node000018"><a xlink:title=" ">
<path fill="none" stroke="#63b8ff" d="M971,-82.98C950,-81.15 922.74,-78.78 898.96,-76.7"/>
<polygon fill="#63b8ff" stroke="#63b8ff" points="970.49,-86.45 980.76,-83.83 971.1,-79.48 970.49,-86.45"/>
</a>
</g>
</g>
</g>
</svg>
