<?xml version="1.0" encoding="UTF-8" standalone="no"?>
<!DOCTYPE svg PUBLIC "-//W3C//DTD SVG 1.1//EN"
 "http://www.w3.org/Graphics/SVG/1.1/DTD/svg11.dtd">
<!-- Generated by graphviz version 14.1.2 (20260124.0452)
 -->
<!-- Title: load_stream_data_noseek Pages: 1 -->
<svg width="467pt" height="66pt"
 viewBox="0.00 0.00 467.00 66.00" xmlns="http://www.w3.org/2000/svg" xmlns:xlink="http://www.w3.org/1999/xlink">

<svg id="main" version="1.1" xmlns="http://www.w3.org/2000/svg" xmlns:xlink="http://www.w3.org/1999/xlink" xml:space="preserve">

<style type="text/css"><![CDATA[
.node, .edge {opacity: 0.7;}
.node.selected, .edge.selected {opacity: 1;}
.edge:hover path { stroke: red; }
.edge:hover polygon { stroke: red; fill: red; }
]]></style>
<script type="application/ecmascript" xlink:href="svg.min.js"/>
<svg id="graph" class="graph">
<g id="graph0" class="graph" transform="scale(1 1) rotate(0) translate(4 62)">
<title>load_stream_data_noseek</title>
<!-- Node1 -->
<g id="Node000001" class="node">
<title>Node1</title>
<g id="a_Node000001"><a xlink:title=" ">
<polygon fill="#999999" stroke="#666666" points="130,-39 0,-39 0,-19 130,-19 130,-39"/>
<text xml:space="preserve" text-anchor="middle" x="65" y="-25.5" font-family="Helvetica,sans-Serif" font-size="10.00">load_stream_data_noseek</text>
</a>
</g>
</g>
<!-- Node2 -->
<g id="Node000002" class="node">
<title>Node2</title>
<g id="a_Node000002"><a xlink:href="structxml__stream__chunk.html#a2c01c25f2791d25214d3c73fae63f8d9" target="_top" xlink:title=" ">
<polygon fill="white" stroke="#666666" points="300.12,-58 168.62,-58 168.62,-38 300.12,-38 300.12,-58"/>
<text xml:space="preserve" text-anchor="middle" x="234.38" y="-44.5" font-family="Helvetica,sans-Serif" font-size="10.00">xml_stream_chunk::create</text>
</a>
</g>
</g>
<!-- Node1&#45;&gt;Node2 -->
<g id="edge1_Node000001_Node000002" class="edge">
<title>Node1&#45;&gt;Node2</title>
<g id="a_edge1_Node000001_Node000002"><a xlink:title=" ">
<path fill="none" stroke="#63b8ff" d="M130.23,-36.29C138.98,-37.28 148.03,-38.31 156.97,-39.33"/>
<polygon fill="#63b8ff" stroke="#63b8ff" points="156.37,-42.78 166.7,-40.43 157.16,-35.83 156.37,-42.78"/>
</a>
</g>
</g>
<!-- Node4 -->
<g id="Node000004" class="node">
<title>Node4</title>
<g id="a_Node000004"><a xlink:href="structxml__stream__chunk.html#a3e9bf7280c96a7433d60af129873a16f" target="_top" xlink:title=" ">
<polygon fill="white" stroke="#666666" points="302.75,-20 166,-20 166,0 302.75,0 302.75,-20"/>
<text xml:space="preserve" text-anchor="middle" x="234.38" y="-6.5" font-family="Helvetica,sans-Serif" font-size="10.00">xml_stream_chunk::destroy</text>
</a>
</g>
</g>
<!-- Node1&#45;&gt;Node4 -->
<g id="edge3_Node000001_Node000004" class="edge">
<title>Node1&#45;&gt;Node4</title>
<g id="a_edge3_Node000001_Node000004"><a xlink:title=" ">
<path fill="none" stroke="#63b8ff" d="M130.23,-21.71C138.13,-20.81 146.27,-19.89 154.35,-18.97"/>
<polygon fill="#63b8ff" stroke="#63b8ff" points="154.66,-22.46 164.2,-17.85 153.87,-15.5 154.66,-22.46"/>
</a>
</g>
</g>
<!-- Node3 -->
<g id="Node000003" class="node">
<title>Node3</title>
<g id="a_Node000003"><a xlink:href="structxml__stream__chunk.html#a8b87fcb2074014dd252f752a95092337" target="_top" xlink:title=" ">
<polygon fill="white" stroke="#666666" points="459,-45 338.75,-45 338.75,-13 459,-13 459,-45"/>
<text xml:space="preserve" text-anchor="start" x="346.75" y="-31.5" font-family="Helvetica,sans-Serif" font-size="10.00">xml_stream_chunk::xml</text>
<text xml:space="preserve" text-anchor="middle" x="398.88" y="-19.5" font-family="Helvetica,sans-Serif" font-size="10.00">_stream_chunk</text>
</a>
</g>
</g>
<!-- Node2&#45;&gt;Node3 -->
<g id="edge2_Node000002_Node000003" class="edge">
<title>Node2&#45;&gt;Node3</title>
<g id="a_edge2_Node000002_Node000003"><a xlink:title=" ">
<path fill="none" stroke="#63b8ff" d="M300.53,-40.38C309.35,-39.35 318.43,-38.29 327.33,-37.25"/>
<polygon fill="#63b8ff" stroke="#63b8ff" points="327.46,-40.76 336.98,-36.12 326.64,-33.8 327.46,-40.76"/>
</a>
</g>
</g>
<!-- Node4&#45;&gt;Node3 -->
<g id="edge4_Node000004_Node000003" class="edge">
<title>Node4&#45;&gt;Node3</title>
<g id="a_edge4_Node000004_Node000003"><a xlink:title=" ">
<path fill="none" stroke="#63b8ff" d="M302.88,-17.89C310.88,-18.83 319.06,-19.79 327.11,-20.73"/>
<polygon fill="#63b8ff" stroke="#63b8ff" points="326.51,-24.18 336.85,-21.87 327.33,-17.23 326.51,-24.18"/>
</a>
</g>
</g>
</g>
</svg>
</svg>

<style type='text/css'>
<![CDATA[
[data-mouse-over-selected='false'] { opacity: 0.7; }
[data-mouse-over-selected='true']  { opacity: 1.0; }
]]>
</style>
<script type="application/ecmascript"><![CDATA[
document.addEventListener('DOMContentLoaded', (event) => {
  highlightEdges();
  highlightAdjacentNodes();
});
]]></script>
</svg>
