<?xml version="1.0" encoding="UTF-8" standalone="no"?>
<!DOCTYPE svg PUBLIC "-//W3C//DTD SVG 1.1//EN"
 "http://www.w3.org/Graphics/SVG/1.1/DTD/svg11.dtd">
<!-- Generated by graphviz version 14.1.2 (20260124.0452)
 -->
<!-- Title: load_buffer_impl Pages: 1 -->
<svg width="223pt" height="66pt"
 viewBox="0.00 0.00 223.00 66.00" xmlns="http://www.w3.org/2000/svg" xmlns:xlink="http://www.w3.org/1999/xlink">
<g id="graph0" class="graph" transform="scale(1 1) rotate(0) translate(4 62)">
<title>load_buffer_impl</title>
<!-- Node1 -->
<g id="Node000001" class="node">
<title>Node1</title>
<g id="a_Node000001"><a xlink:title=" ">
<polygon fill="#999999" stroke="#666666" points="215,-39 128.5,-39 128.5,-19 215,-19 215,-39"/>
<text xml:space="preserve" text-anchor="middle" x="171.75" y="-25.5" font-family="Helvetica,sans-Serif" font-size="10.00">load_buffer_impl</text>
</a>
</g>
</g>
<!-- Node2 -->
<g id="Node000002" class="node">
<title>Node2</title>
<g id="a_Node000002"><a xlink:href="pugixml_8cpp.html#aceaecd7da4188d11f224e33404cb23ba" target="_top" xlink:title=" ">
<polygon fill="white" stroke="#666666" points="83.88,-58 8.62,-58 8.62,-38 83.88,-38 83.88,-58"/>
<text xml:space="preserve" text-anchor="middle" x="46.25" y="-44.5" font-family="Helvetica,sans-Serif" font-size="10.00">load_file_impl</text>
</a>
</g>
</g>
<!-- Node1&#45;&gt;Node2 -->
<g id="edge1_Node000001_Node000002" class="edge">
<title>Node1&#45;&gt;Node2</title>
<g id="a_edge1_Node000001_Node000002"><a xlink:title=" ">
<path fill="none" stroke="#63b8ff" d="M116.88,-37.29C105.8,-38.99 94.37,-40.75 84.06,-42.34"/>
<polygon fill="#63b8ff" stroke="#63b8ff" points="117.4,-40.75 126.75,-35.77 116.34,-33.83 117.4,-40.75"/>
</a>
</g>
</g>
<!-- Node3 -->
<g id="Node000003" class="node">
<title>Node3</title>
<g id="a_Node000003"><a xlink:href="pugixml_8cpp.html#a826b7e183311c8aa4e5b25157a3b3d3f" target="_top" xlink:title=" ">
<polygon fill="white" stroke="#666666" points="92.5,-20 0,-20 0,0 92.5,0 92.5,-20"/>
<text xml:space="preserve" text-anchor="middle" x="46.25" y="-6.5" font-family="Helvetica,sans-Serif" font-size="10.00">load_stream_impl</text>
</a>
</g>
</g>
<!-- Node1&#45;&gt;Node3 -->
<g id="edge2_Node000001_Node000003" class="edge">
<title>Node1&#45;&gt;Node3</title>
<g id="a_edge2_Node000001_Node000003"><a xlink:title=" ">
<path fill="none" stroke="#63b8ff" d="M117.01,-20.73C108.93,-19.49 100.67,-18.22 92.78,-17"/>
<polygon fill="#63b8ff" stroke="#63b8ff" points="116.34,-24.17 126.75,-22.23 117.4,-17.25 116.34,-24.17"/>
</a>
</g>
</g>
</g>
</svg>
