<?xml version="1.0" encoding="UTF-8" standalone="no"?>
<!DOCTYPE svg PUBLIC "-//W3C//DTD SVG 1.1//EN"
 "http://www.w3.org/Graphics/SVG/1.1/DTD/svg11.dtd">
<!-- Generated by graphviz version 14.1.2 (20260124.0452)
 -->
<!-- Title: get_strconv_pcdata Pages: 1 -->
<svg width="614pt" height="123pt"
 viewBox="0.00 0.00 614.00 123.00" xmlns="http://www.w3.org/2000/svg" xmlns:xlink="http://www.w3.org/1999/xlink">
<g id="graph0" class="graph" transform="scale(1 1) rotate(0) translate(4 119)">
<title>get_strconv_pcdata</title>
<!-- Node1 -->
<g id="Node000001" class="node">
<title>Node1</title>
<g id="a_Node000001"><a xlink:title=" ">
<polygon fill="#999999" stroke="#666666" points="101.5,-77 0,-77 0,-57 101.5,-57 101.5,-77"/>
<text xml:space="preserve" text-anchor="middle" x="50.75" y="-63.5" font-family="Helvetica,sans-Serif" font-size="10.00">get_strconv_pcdata</text>
</a>
</g>
</g>
<!-- Node2 -->
<g id="Node000002" class="node">
<title>Node2</title>
<g id="a_Node000002"><a xlink:href="structstrconv__pcdata__impl.html#a7f14166de54e30596aa4e398568b4a5f" target="_top" xlink:title=" ">
<polygon fill="white" stroke="#666666" points="243.5,-83 137.5,-83 137.5,-51 243.5,-51 243.5,-83"/>
<text xml:space="preserve" text-anchor="start" x="145.5" y="-69.5" font-family="Helvetica,sans-Serif" font-size="10.00">strconv_pcdata_impl</text>
<text xml:space="preserve" text-anchor="middle" x="190.5" y="-57.5" font-family="Helvetica,sans-Serif" font-size="10.00">::parse</text>
</a>
</g>
</g>
<!-- Node1&#45;&gt;Node2 -->
<g id="edge1_Node000001_Node000002" class="edge">
<title>Node1&#45;&gt;Node2</title>
<g id="a_edge1_Node000001_Node000002"><a xlink:title=" ">
<path fill="none" stroke="#63b8ff" d="M101.87,-67C109.71,-67 117.91,-67 126,-67"/>
<polygon fill="#63b8ff" stroke="#63b8ff" points="125.82,-70.5 135.82,-67 125.82,-63.5 125.82,-70.5"/>
</a>
</g>
</g>
<!-- Node3 -->
<g id="Node000003" class="node">
<title>Node3</title>
<g id="a_Node000003"><a xlink:href="structgap.html#a7d5e84d56dbeef1310977fe1ecec5ded" target="_top" xlink:title=" ">
<polygon fill="white" stroke="#666666" points="351.38,-115 292.62,-115 292.62,-95 351.38,-95 351.38,-115"/>
<text xml:space="preserve" text-anchor="middle" x="322" y="-101.5" font-family="Helvetica,sans-Serif" font-size="10.00">gap::flush</text>
</a>
</g>
</g>
<!-- Node2&#45;&gt;Node3 -->
<g id="edge2_Node000002_Node000003" class="edge">
<title>Node2&#45;&gt;Node3</title>
<g id="a_edge2_Node000002_Node000003"><a xlink:title=" ">
<path fill="none" stroke="#63b8ff" d="M243.8,-82.35C256.35,-86.03 269.56,-89.9 281.42,-93.39"/>
<polygon fill="#63b8ff" stroke="#63b8ff" points="280.29,-96.7 290.88,-96.16 282.27,-89.99 280.29,-96.7"/>
</a>
</g>
</g>
<!-- Node4 -->
<g id="Node000004" class="node">
<title>Node4</title>
<g id="a_Node000004"><a xlink:href="structgap.html#a9c0d0b12bc778c8439c8aec7747ab2b0" target="_top" xlink:title=" ">
<polygon fill="white" stroke="#666666" points="471.62,-77 412.88,-77 412.88,-57 471.62,-57 471.62,-77"/>
<text xml:space="preserve" text-anchor="middle" x="442.25" y="-63.5" font-family="Helvetica,sans-Serif" font-size="10.00">gap::push</text>
</a>
</g>
</g>
<!-- Node2&#45;&gt;Node4 -->
<g id="edge3_Node000002_Node000004" class="edge">
<title>Node2&#45;&gt;Node4</title>
<g id="a_edge3_Node000002_Node000004"><a xlink:title=" ">
<path fill="none" stroke="#63b8ff" d="M243.86,-67C290.79,-67 358.65,-67 401.33,-67"/>
<polygon fill="#63b8ff" stroke="#63b8ff" points="401.15,-70.5 411.15,-67 401.15,-63.5 401.15,-70.5"/>
</a>
</g>
</g>
<!-- Node5 -->
<g id="Node000005" class="node">
<title>Node5</title>
<g id="a_Node000005"><a xlink:href="pugixml_8cpp.html#a27b2a01a0bee31f8526055bdf590e42c" target="_top" xlink:title=" ">
<polygon fill="white" stroke="#666666" points="364.5,-39 279.5,-39 279.5,-19 364.5,-19 364.5,-39"/>
<text xml:space="preserve" text-anchor="middle" x="322" y="-25.5" font-family="Helvetica,sans-Serif" font-size="10.00">strconv_escape</text>
</a>
</g>
</g>
<!-- Node2&#45;&gt;Node5 -->
<g id="edge4_Node000002_Node000005" class="edge">
<title>Node2&#45;&gt;Node5</title>
<g id="a_edge4_Node000002_Node000005"><a xlink:title=" ">
<path fill="none" stroke="#63b8ff" d="M243.8,-51.65C254,-48.66 264.63,-45.54 274.62,-42.61"/>
<polygon fill="#63b8ff" stroke="#63b8ff" points="275.51,-45.99 284.12,-39.82 273.54,-39.28 275.51,-45.99"/>
</a>
</g>
</g>
<!-- Node5&#45;&gt;Node4 -->
<g id="edge8_Node000005_Node000004" class="edge">
<title>Node5&#45;&gt;Node4</title>
<g id="a_edge8_Node000005_Node000004"><a xlink:title=" ">
<path fill="none" stroke="#63b8ff" d="M355.63,-39.48C370.04,-44.12 387.1,-49.6 402.18,-54.45"/>
<polygon fill="#63b8ff" stroke="#63b8ff" points="400.72,-57.65 411.31,-57.38 402.86,-50.99 400.72,-57.65"/>
</a>
</g>
</g>
<!-- Node6 -->
<g id="Node000006" class="node">
<title>Node6</title>
<g id="a_Node000006"><a xlink:href="structutf8__writer.html#a288e9c5f3720b95ae6b77330ad38dd56" target="_top" xlink:title=" ">
<polygon fill="white" stroke="#666666" points="484,-39 400.5,-39 400.5,-19 484,-19 484,-39"/>
<text xml:space="preserve" text-anchor="middle" x="442.25" y="-25.5" font-family="Helvetica,sans-Serif" font-size="10.00">utf8_writer::any</text>
</a>
</g>
</g>
<!-- Node5&#45;&gt;Node6 -->
<g id="edge5_Node000005_Node000006" class="edge">
<title>Node5&#45;&gt;Node6</title>
<g id="a_edge5_Node000005_Node000006"><a xlink:title=" ">
<path fill="none" stroke="#63b8ff" d="M364.69,-29C372.55,-29 380.87,-29 389.01,-29"/>
<polygon fill="#63b8ff" stroke="#63b8ff" points="388.82,-32.5 398.82,-29 388.82,-25.5 388.82,-32.5"/>
</a>
</g>
</g>
<!-- Node7 -->
<g id="Node000007" class="node">
<title>Node7</title>
<g id="a_Node000007"><a xlink:href="structutf8__writer.html#ac03dfaf797d599afdf0be7def86ff9b9" target="_top" xlink:title=" ">
<polygon fill="white" stroke="#666666" points="605.75,-58 520,-58 520,-38 605.75,-38 605.75,-58"/>
<text xml:space="preserve" text-anchor="middle" x="562.88" y="-44.5" font-family="Helvetica,sans-Serif" font-size="10.00">utf8_writer::high</text>
</a>
</g>
</g>
<!-- Node6&#45;&gt;Node7 -->
<g id="edge6_Node000006_Node000007" class="edge">
<title>Node6&#45;&gt;Node7</title>
<g id="a_edge6_Node000006_Node000007"><a xlink:title=" ">
<path fill="none" stroke="#63b8ff" d="M484.41,-35.59C492.14,-36.83 500.33,-38.14 508.37,-39.43"/>
<polygon fill="#63b8ff" stroke="#63b8ff" points="507.66,-42.86 518.09,-40.99 508.77,-35.95 507.66,-42.86"/>
</a>
</g>
</g>
<!-- Node8 -->
<g id="Node000008" class="node">
<title>Node8</title>
<g id="a_Node000008"><a xlink:href="structutf8__writer.html#ac4ec52da6f37225ba4fde259bff2f86c" target="_top" xlink:title=" ">
<polygon fill="white" stroke="#666666" points="604.25,-20 521.5,-20 521.5,0 604.25,0 604.25,-20"/>
<text xml:space="preserve" text-anchor="middle" x="562.88" y="-6.5" font-family="Helvetica,sans-Serif" font-size="10.00">utf8_writer::low</text>
</a>
</g>
</g>
<!-- Node6&#45;&gt;Node8 -->
<g id="edge7_Node000006_Node000008" class="edge">
<title>Node6&#45;&gt;Node8</title>
<g id="a_edge7_Node000006_Node000008"><a xlink:title=" ">
<path fill="none" stroke="#63b8ff" d="M484.41,-22.41C492.69,-21.08 501.49,-19.67 510.08,-18.3"/>
<polygon fill="#63b8ff" stroke="#63b8ff" points="510.38,-21.79 519.7,-16.76 509.27,-14.88 510.38,-21.79"/>
</a>
</g>
</g>
</g>
</svg>
