<?xml version="1.0" encoding="UTF-8" standalone="no"?>
<!DOCTYPE svg PUBLIC "-//W3C//DTD SVG 1.1//EN"
 "http://www.w3.org/Graphics/SVG/1.1/DTD/svg11.dtd">
<!-- Generated by graphviz version 14.1.2 (20260124.0452)
 -->
<!-- Title: xpath_parser::binary_op_t::parse Pages: 1 -->
<svg width="258pt" height="116pt"
 viewBox="0.00 0.00 258.00 116.00" xmlns="http://www.w3.org/2000/svg" xmlns:xlink="http://www.w3.org/1999/xlink">
<g id="graph0" class="graph" transform="scale(1 1) rotate(0) translate(4 112)">
<title>xpath_parser::binary_op_t::parse</title>
<!-- Node1 -->
<g id="Node000001" class="node">
<title>Node1</title>
<g id="a_Node000001"><a xlink:title=" ">
<polygon fill="#999999" stroke="#666666" points="104.5,-64 0,-64 0,-32 104.5,-32 104.5,-64"/>
<text xml:space="preserve" text-anchor="start" x="8" y="-50.5" font-family="Helvetica,sans-Serif" font-size="10.00">xpath_parser::binary</text>
<text xml:space="preserve" text-anchor="middle" x="52.25" y="-38.5" font-family="Helvetica,sans-Serif" font-size="10.00">_op_t::parse</text>
</a>
</g>
</g>
<!-- Node2 -->
<g id="Node000002" class="node">
<title>Node2</title>
<g id="a_Node000002"><a xlink:href="structxpath__parser_1_1binary__op__t.html#a18cac63911120c27f5ee842b1e6afe35" target="_top" xlink:title=" ">
<polygon fill="white" stroke="#666666" points="247.62,-108 143.12,-108 143.12,-76 247.62,-76 247.62,-108"/>
<text xml:space="preserve" text-anchor="start" x="151.12" y="-94.5" font-family="Helvetica,sans-Serif" font-size="10.00">xpath_parser::binary</text>
<text xml:space="preserve" text-anchor="middle" x="195.38" y="-82.5" font-family="Helvetica,sans-Serif" font-size="10.00">_op_t::binary_op_t</text>
</a>
</g>
</g>
<!-- Node1&#45;&gt;Node2 -->
<g id="edge1_Node000001_Node000002" class="edge">
<title>Node1&#45;&gt;Node2</title>
<g id="a_edge1_Node000001_Node000002"><a xlink:title=" ">
<path fill="none" stroke="#63b8ff" d="M105,-64.13C113.72,-66.85 122.86,-69.7 131.83,-72.5"/>
<polygon fill="#63b8ff" stroke="#63b8ff" points="130.6,-75.78 141.19,-75.42 132.68,-69.1 130.6,-75.78"/>
</a>
</g>
</g>
<!-- Node3 -->
<g id="Node000003" class="node">
<title>Node3</title>
<g id="a_Node000003"><a xlink:href="classxpath__lexer.html#a9a398feb578c697be7067f6f8d178fc9" target="_top" xlink:title=" ">
<polygon fill="white" stroke="#666666" points="250.25,-58 140.5,-58 140.5,-38 250.25,-38 250.25,-58"/>
<text xml:space="preserve" text-anchor="middle" x="195.38" y="-44.5" font-family="Helvetica,sans-Serif" font-size="10.00">xpath_lexer::contents</text>
</a>
</g>
</g>
<!-- Node1&#45;&gt;Node3 -->
<g id="edge2_Node000001_Node000003" class="edge">
<title>Node1&#45;&gt;Node3</title>
<g id="a_edge2_Node000001_Node000003"><a xlink:title=" ">
<path fill="none" stroke="#63b8ff" d="M105,-48C112.8,-48 120.94,-48 128.99,-48"/>
<polygon fill="#63b8ff" stroke="#63b8ff" points="128.75,-51.5 138.75,-48 128.75,-44.5 128.75,-51.5"/>
</a>
</g>
</g>
<!-- Node4 -->
<g id="Node000004" class="node">
<title>Node4</title>
<g id="a_Node000004"><a xlink:href="classxpath__lexer.html#a47425d5012741aecfd898306651439d0" target="_top" xlink:title=" ">
<polygon fill="white" stroke="#666666" points="246.5,-20 144.25,-20 144.25,0 246.5,0 246.5,-20"/>
<text xml:space="preserve" text-anchor="middle" x="195.38" y="-6.5" font-family="Helvetica,sans-Serif" font-size="10.00">xpath_lexer::current</text>
</a>
</g>
</g>
<!-- Node1&#45;&gt;Node4 -->
<g id="edge3_Node000001_Node000004" class="edge">
<title>Node1&#45;&gt;Node4</title>
<g id="a_edge3_Node000001_Node000004"><a xlink:title=" ">
<path fill="none" stroke="#63b8ff" d="M105,-34.07C117.9,-30.59 131.7,-26.88 144.51,-23.43"/>
<polygon fill="#63b8ff" stroke="#63b8ff" points="145.25,-26.85 153.99,-20.87 143.43,-20.09 145.25,-26.85"/>
</a>
</g>
</g>
</g>
</svg>
