<?xml version="1.0" encoding="UTF-8" standalone="no"?>
<!DOCTYPE svg PUBLIC "-//W3C//DTD SVG 1.1//EN"
 "http://www.w3.org/Graphics/SVG/1.1/DTD/svg11.dtd">
<!-- Generated by graphviz version 14.1.2 (20260124.0452)
 -->
<!-- Title: xml_parser::parse_exclamation Pages: 1 -->
<svg width="499pt" height="166pt"
 viewBox="0.00 0.00 499.00 166.00" xmlns="http://www.w3.org/2000/svg" xmlns:xlink="http://www.w3.org/1999/xlink">

<svg id="main" version="1.1" xmlns="http://www.w3.org/2000/svg" xmlns:xlink="http://www.w3.org/1999/xlink" xml:space="preserve">

<style type="text/css"><![CDATA[
.node, .edge {opacity: 0.7;}
.node.selected, .edge.selected {opacity: 1;}
.edge:hover path { stroke: red; }
.edge:hover polygon { stroke: red; fill: red; }
]]></style>
<script type="application/ecmascript" xlink:href="svg.min.js"/>
<svg id="graph" class="graph">
<g id="graph0" class="graph" transform="scale(1 1) rotate(0) translate(4 162)">
<title>xml_parser::parse_exclamation</title>
<!-- Node1 -->
<g id="Node000001" class="node">
<title>Node1</title>
<g id="a_Node000001"><a xlink:title=" ">
<polygon fill="#999999" stroke="#666666" points="151.75,-58 0,-58 0,-38 151.75,-38 151.75,-58"/>
<text xml:space="preserve" text-anchor="middle" x="75.88" y="-44.5" font-family="Helvetica,sans-Serif" font-size="10.00">xml_parser::parse_exclamation</text>
</a>
</g>
</g>
<!-- Node2 -->
<g id="Node000002" class="node">
<title>Node2</title>
<g id="a_Node000002"><a xlink:href="structxml__parser.html#a85625c095f072a9938d0e47cf468de6b" target="_top" xlink:title=" ">
<polygon fill="white" stroke="#666666" points="321.5,-108 187.75,-108 187.75,-76 321.5,-76 321.5,-108"/>
<text xml:space="preserve" text-anchor="start" x="195.75" y="-94.5" font-family="Helvetica,sans-Serif" font-size="10.00">xml_parser::parse_doctype</text>
<text xml:space="preserve" text-anchor="middle" x="254.62" y="-82.5" font-family="Helvetica,sans-Serif" font-size="10.00">_group</text>
</a>
</g>
</g>
<!-- Node1&#45;&gt;Node2 -->
<g id="edge1_Node000001_Node000002" class="edge">
<title>Node1&#45;&gt;Node2</title>
<g id="a_edge1_Node000001_Node000002"><a xlink:title=" ">
<path fill="none" stroke="#63b8ff" d="M118.76,-58.43C136.08,-62.74 156.72,-67.88 176.58,-72.82"/>
<polygon fill="#63b8ff" stroke="#63b8ff" points="175.49,-76.16 186.04,-75.18 177.18,-69.36 175.49,-76.16"/>
</a>
</g>
</g>
<!-- Node5 -->
<g id="Node000005" class="node">
<title>Node5</title>
<g id="a_Node000005"><a xlink:href="pugixml_8cpp.html#a17c42195ecf9b84b34bfb53b5c6480b8" target="_top" xlink:title=" ">
<polygon fill="white" stroke="#666666" points="293.38,-20 215.88,-20 215.88,0 293.38,0 293.38,-20"/>
<text xml:space="preserve" text-anchor="middle" x="254.62" y="-6.5" font-family="Helvetica,sans-Serif" font-size="10.00">strconv_cdata</text>
</a>
</g>
</g>
<!-- Node1&#45;&gt;Node5 -->
<g id="edge4_Node000001_Node000005" class="edge">
<title>Node1&#45;&gt;Node5</title>
<g id="a_edge4_Node000001_Node000005"><a xlink:title=" ">
<path fill="none" stroke="#63b8ff" d="M125.64,-37.52C150.08,-32.26 179.6,-25.91 204.14,-20.64"/>
<polygon fill="#63b8ff" stroke="#63b8ff" points="204.86,-24.06 213.9,-18.54 203.39,-17.22 204.86,-24.06"/>
</a>
</g>
</g>
<!-- Node8 -->
<g id="Node000008" class="node">
<title>Node8</title>
<g id="a_Node000008"><a xlink:href="pugixml_8cpp.html#a80f240310448aefa4adcb0a929db6462" target="_top" xlink:title=" ">
<polygon fill="white" stroke="#666666" points="301.62,-58 207.62,-58 207.62,-38 301.62,-38 301.62,-58"/>
<text xml:space="preserve" text-anchor="middle" x="254.62" y="-44.5" font-family="Helvetica,sans-Serif" font-size="10.00">strconv_comment</text>
</a>
</g>
</g>
<!-- Node1&#45;&gt;Node8 -->
<g id="edge7_Node000001_Node000008" class="edge">
<title>Node1&#45;&gt;Node8</title>
<g id="a_edge7_Node000001_Node000008"><a xlink:title=" ">
<path fill="none" stroke="#63b8ff" d="M152.09,-48C166.7,-48 181.8,-48 195.74,-48"/>
<polygon fill="#63b8ff" stroke="#63b8ff" points="195.63,-51.5 205.63,-48 195.63,-44.5 195.63,-51.5"/>
</a>
</g>
</g>
<!-- Node3 -->
<g id="Node000003" class="node">
<title>Node3</title>
<g id="a_Node000003"><a xlink:href="structxml__parser.html#a93f0e9c20ffd16c42a287e687a359a0c" target="_top" xlink:title=" ">
<polygon fill="white" stroke="#666666" points="491.25,-158 357.5,-158 357.5,-126 491.25,-126 491.25,-158"/>
<text xml:space="preserve" text-anchor="start" x="365.5" y="-144.5" font-family="Helvetica,sans-Serif" font-size="10.00">xml_parser::parse_doctype</text>
<text xml:space="preserve" text-anchor="middle" x="424.38" y="-132.5" font-family="Helvetica,sans-Serif" font-size="10.00">_ignore</text>
</a>
</g>
</g>
<!-- Node2&#45;&gt;Node3 -->
<g id="edge2_Node000002_Node000003" class="edge">
<title>Node2&#45;&gt;Node3</title>
<g id="a_edge2_Node000002_Node000003"><a xlink:title=" ">
<path fill="none" stroke="#63b8ff" d="M310.55,-108.37C325.39,-112.8 341.61,-117.63 357,-122.22"/>
<polygon fill="#63b8ff" stroke="#63b8ff" points="356,-125.57 366.59,-125.07 358,-118.86 356,-125.57"/>
</a>
</g>
</g>
<!-- Node4 -->
<g id="Node000004" class="node">
<title>Node4</title>
<g id="a_Node000004"><a xlink:href="structxml__parser.html#a09210dea8745d4d4c45ebb1e1a9211d0" target="_top" xlink:title=" ">
<polygon fill="white" stroke="#666666" points="491.25,-108 357.5,-108 357.5,-76 491.25,-76 491.25,-108"/>
<text xml:space="preserve" text-anchor="start" x="365.5" y="-94.5" font-family="Helvetica,sans-Serif" font-size="10.00">xml_parser::parse_doctype</text>
<text xml:space="preserve" text-anchor="middle" x="424.38" y="-82.5" font-family="Helvetica,sans-Serif" font-size="10.00">_primitive</text>
</a>
</g>
</g>
<!-- Node2&#45;&gt;Node4 -->
<g id="edge3_Node000002_Node000004" class="edge">
<title>Node2&#45;&gt;Node4</title>
<g id="a_edge3_Node000002_Node000004"><a xlink:title=" ">
<path fill="none" stroke="#63b8ff" d="M321.92,-92C329.68,-92 337.64,-92 345.53,-92"/>
<polygon fill="#63b8ff" stroke="#63b8ff" points="345.49,-95.5 355.49,-92 345.49,-88.5 345.49,-95.5"/>
</a>
</g>
</g>
<!-- Node6 -->
<g id="Node000006" class="node">
<title>Node6</title>
<g id="a_Node000006"><a xlink:href="structgap.html#a7d5e84d56dbeef1310977fe1ecec5ded" target="_top" xlink:title=" ">
<polygon fill="white" stroke="#666666" points="453.75,-58 395,-58 395,-38 453.75,-38 453.75,-58"/>
<text xml:space="preserve" text-anchor="middle" x="424.38" y="-44.5" font-family="Helvetica,sans-Serif" font-size="10.00">gap::flush</text>
</a>
</g>
</g>
<!-- Node5&#45;&gt;Node6 -->
<g id="edge5_Node000005_Node000006" class="edge">
<title>Node5&#45;&gt;Node6</title>
<g id="a_edge5_Node000005_Node000006"><a xlink:title=" ">
<path fill="none" stroke="#63b8ff" d="M293.69,-18.62C320.5,-24.7 356.33,-32.81 383.53,-38.97"/>
<polygon fill="#63b8ff" stroke="#63b8ff" points="382.6,-42.35 393.13,-41.15 384.15,-35.53 382.6,-42.35"/>
</a>
</g>
</g>
<!-- Node7 -->
<g id="Node000007" class="node">
<title>Node7</title>
<g id="a_Node000007"><a xlink:href="structgap.html#a9c0d0b12bc778c8439c8aec7747ab2b0" target="_top" xlink:title=" ">
<polygon fill="white" stroke="#666666" points="453.75,-20 395,-20 395,0 453.75,0 453.75,-20"/>
<text xml:space="preserve" text-anchor="middle" x="424.38" y="-6.5" font-family="Helvetica,sans-Serif" font-size="10.00">gap::push</text>
</a>
</g>
</g>
<!-- Node5&#45;&gt;Node7 -->
<g id="edge6_Node000005_Node000007" class="edge">
<title>Node5&#45;&gt;Node7</title>
<g id="a_edge6_Node000005_Node000007"><a xlink:title=" ">
<path fill="none" stroke="#63b8ff" d="M293.69,-10C320.38,-10 356.01,-10 383.16,-10"/>
<polygon fill="#63b8ff" stroke="#63b8ff" points="383.09,-13.5 393.09,-10 383.09,-6.5 383.09,-13.5"/>
</a>
</g>
</g>
<!-- Node8&#45;&gt;Node6 -->
<g id="edge8_Node000008_Node000006" class="edge">
<title>Node8&#45;&gt;Node6</title>
<g id="a_edge8_Node000008_Node000006"><a xlink:title=" ">
<path fill="none" stroke="#63b8ff" d="M301.91,-48C327.41,-48 358.76,-48 383.22,-48"/>
<polygon fill="#63b8ff" stroke="#63b8ff" points="383.11,-51.5 393.11,-48 383.11,-44.5 383.11,-51.5"/>
</a>
</g>
</g>
<!-- Node8&#45;&gt;Node7 -->
<g id="edge9_Node000008_Node000007" class="edge">
<title>Node8&#45;&gt;Node7</title>
<g id="a_edge9_Node000008_Node000007"><a xlink:title=" ">
<path fill="none" stroke="#63b8ff" d="M301.91,-37.52C327.53,-31.71 359.04,-24.57 383.55,-19.02"/>
<polygon fill="#63b8ff" stroke="#63b8ff" points="384.16,-22.47 393.14,-16.85 382.62,-15.64 384.16,-22.47"/>
</a>
</g>
</g>
</g>
</svg>
</svg>

<style type='text/css'>
<![CDATA[
[data-mouse-over-selected='false'] { opacity: 0.7; }
[data-mouse-over-selected='true']  { opacity: 1.0; }
]]>
</style>
<script type="application/ecmascript"><![CDATA[
document.addEventListener('DOMContentLoaded', (event) => {
  highlightEdges();
  highlightAdjacentNodes();
});
]]></script>
</svg>
