<?xml version="1.0" encoding="UTF-8" standalone="no"?>
<!DOCTYPE svg PUBLIC "-//W3C//DTD SVG 1.1//EN"
 "http://www.w3.org/Graphics/SVG/1.1/DTD/svg11.dtd">
<!-- Generated by graphviz version 14.1.2 (20260124.0452)
 -->
<!-- Title: xpath_parser::parse_relative_location_path Pages: 1 -->
<!--zoomable 993 -->

<svg id="main" version="1.1" xmlns="http://www.w3.org/2000/svg" xmlns:xlink="http://www.w3.org/1999/xlink" xml:space="preserve" onload="init(evt)">

<style type="text/css"><![CDATA[
.node, .edge {opacity: 0.7;}
.node.selected, .edge.selected {opacity: 1;}
.edge:hover path { stroke: red; }
.edge:hover polygon { stroke: red; fill: red; }
]]></style>

<defs>
  <circle id="rim" cx="0" cy="0" r="7"/>
  <circle id="rim2" cx="0" cy="0" r="3.5"/>
  <g id="zoomPlus">
    <use xlink:href="#rim" fill="#404040"><set attributeName="fill" to="#808080" begin="zoomplus.mouseover" end="zoomplus.mouseout"/></use>
    <path d="M-4,0h8M0,-4v8" fill="none" stroke="white" stroke-width="1.5" pointer-events="none"/>
  </g>
  <g id="zoomMin">
    <use xlink:href="#rim" fill="#404040"><set attributeName="fill" to="#808080" begin="zoomminus.mouseover" end="zoomminus.mouseout"/></use>
    <path d="M-4,0h8" fill="none" stroke="white" stroke-width="1.5" pointer-events="none"/>
  </g>
  <g id="arrowUp" transform="translate(30 24)">
    <use xlink:href="#rim"/>
    <path pointer-events="none" fill="none" stroke="white" stroke-width="1.5" d="M0,-3.0v7 M-2.5,-0.5L0,-3.0L2.5,-0.5"/>
  </g>
  <g id="arrowRight" transform="rotate(90) translate(36 -43)">
    <use xlink:href="#rim"/>
    <path pointer-events="none" fill="none" stroke="white" stroke-width="1.5" d="M0,-3.0v7 M-2.5,-0.5L0,-3.0L2.5,-0.5"/>
  </g>
  <g id="arrowDown" transform="rotate(180) translate(-30 -48)">
    <use xlink:href="#rim"/>
    <path pointer-events="none" fill="none" stroke="white" stroke-width="1.5" d="M0,-3.0v7 M-2.5,-0.5L0,-3.0L2.5,-0.5"/>
  </g>
  <g id="arrowLeft" transform="rotate(270) translate(-36 17)">
    <use xlink:href="#rim"/>
    <path pointer-events="none" fill="none" stroke="white" stroke-width="1.5" d="M0,-3.0v7 M-2.5,-0.5L0,-3.0L2.5,-0.5"/>
  </g>
  <g id="resetDef">
    <use xlink:href="#rim2" fill="#404040"><set attributeName="fill" to="#808080" begin="reset.mouseover" end="reset.mouseout"/></use>
  </g>
</defs>
<script type="application/ecmascript">
var viewWidth = 1526;
var viewHeight = 993;
var sectionId = 'dynsection-33';
</script>
<script type="application/ecmascript" xlink:href="svg.min.js"/>
<svg id="graph" class="graph">
<g id="viewport">
<title>xpath_parser::parse_relative_location_path</title>
<!-- Node1 -->
<g id="Node000001" class="node">
<title>Node1</title>
<g id="a_Node000001"><a xlink:title=" ">
<polygon fill="#999999" stroke="#666666" points="115.75,-729.93 0,-729.93 0,-697.93 115.75,-697.93 115.75,-729.93"/>
<text xml:space="preserve" text-anchor="start" x="8" y="-716.43" font-family="Helvetica,sans-Serif" font-size="10.00">xpath_parser::parse</text>
<text xml:space="preserve" text-anchor="middle" x="57.88" y="-704.43" font-family="Helvetica,sans-Serif" font-size="10.00">_relative_location_path</text>
</a>
</g>
</g>
<!-- Node2 -->
<g id="Node000002" class="node">
<title>Node2</title>
<g id="a_Node000002"><a xlink:href="structxpath__parser.html#a8a71f339a0386657a48b59acb3405acc" target="_top" xlink:title=" ">
<polygon fill="white" stroke="#666666" points="1357.88,-609.93 1233.12,-609.93 1233.12,-589.93 1357.88,-589.93 1357.88,-609.93"/>
<text xml:space="preserve" text-anchor="middle" x="1295.5" y="-596.43" font-family="Helvetica,sans-Serif" font-size="10.00">xpath_parser::alloc_node</text>
</a>
</g>
</g>
<!-- Node1&#45;&gt;Node2 -->
<g id="edge1_Node000001_Node000002" class="edge">
<title>Node1&#45;&gt;Node2</title>
<g id="a_edge1_Node000001_Node000002"><a xlink:title=" ">
<path fill="none" stroke="#63b8ff" d="M66.84,-730.07C96.91,-788.41 209.64,-984.93 364.12,-984.93 364.12,-984.93 364.12,-984.93 971.25,-984.93 1083.16,-984.93 1121.09,-953.74 1195.25,-869.93 1261.77,-794.75 1285.02,-671.17 1291.94,-621.55"/>
<polygon fill="#63b8ff" stroke="#63b8ff" points="1295.38,-622.22 1293.2,-611.85 1288.44,-621.32 1295.38,-622.22"/>
</a>
</g>
</g>
<!-- Node3 -->
<g id="Node000003" class="node">
<title>Node3</title>
<g id="a_Node000003"><a xlink:href="structxpath__parser.html#a6c99a4ff18254581f34ec6b715885d99" target="_top" xlink:title=" ">
<polygon fill="white" stroke="#666666" points="1189.25,-98.93 1072.75,-98.93 1072.75,-78.93 1189.25,-78.93 1189.25,-98.93"/>
<text xml:space="preserve" text-anchor="middle" x="1131" y="-85.43" font-family="Helvetica,sans-Serif" font-size="10.00">xpath_parser::error_rec</text>
</a>
</g>
</g>
<!-- Node1&#45;&gt;Node3 -->
<g id="edge2_Node000001_Node000003" class="edge">
<title>Node1&#45;&gt;Node3</title>
<g id="a_edge2_Node000001_Node000003"><a xlink:title=" ">
<path fill="none" stroke="#63b8ff" d="M58.33,-697.63C55.69,-592.38 55.17,-12.93 364.12,-12.93 364.12,-12.93 364.12,-12.93 661.38,-12.93 816.02,-12.93 995.71,-53.75 1080.66,-75.56"/>
<polygon fill="#63b8ff" stroke="#63b8ff" points="1079.74,-78.93 1090.3,-78.06 1081.5,-72.16 1079.74,-78.93"/>
</a>
</g>
</g>
<!-- Node5 -->
<g id="Node000005" class="node">
<title>Node5</title>
<g id="a_Node000005"><a xlink:href="structxpath__parser.html#a0b226e2905970c868ab6a80d76da3a95" target="_top" xlink:title=" ">
<polygon fill="white" stroke="#666666" points="278,-723.93 151.75,-723.93 151.75,-703.93 278,-703.93 278,-723.93"/>
<text xml:space="preserve" text-anchor="middle" x="214.88" y="-710.43" font-family="Helvetica,sans-Serif" font-size="10.00">xpath_parser::parse_step</text>
</a>
</g>
</g>
<!-- Node1&#45;&gt;Node5 -->
<g id="edge4_Node000001_Node000005" class="edge">
<title>Node1&#45;&gt;Node5</title>
<g id="a_edge4_Node000001_Node000005"><a xlink:title=" ">
<path fill="none" stroke="#63b8ff" d="M116.15,-713.93C123.95,-713.93 132.04,-713.93 140.07,-713.93"/>
<polygon fill="#63b8ff" stroke="#63b8ff" points="139.85,-717.43 149.85,-713.93 139.85,-710.43 139.85,-717.43"/>
</a>
</g>
</g>
<!-- Node4 -->
<g id="Node000004" class="node">
<title>Node4</title>
<g id="a_Node000004"><a xlink:href="structxpath__parser.html#a0a96a8f5a16b2171a83b6ae3bb2ccbba" target="_top" xlink:title=" ">
<polygon fill="white" stroke="#666666" points="1344.38,-306.93 1246.62,-306.93 1246.62,-286.93 1344.38,-286.93 1344.38,-306.93"/>
<text xml:space="preserve" text-anchor="middle" x="1295.5" y="-293.43" font-family="Helvetica,sans-Serif" font-size="10.00">xpath_parser::error</text>
</a>
</g>
</g>
<!-- Node3&#45;&gt;Node4 -->
<g id="edge3_Node000003_Node000004" class="edge">
<title>Node3&#45;&gt;Node4</title>
<g id="a_edge3_Node000003_Node000004"><a xlink:title=" ">
<path fill="none" stroke="#63b8ff" d="M1182.2,-99.4C1186.93,-101.7 1191.39,-104.51 1195.25,-107.93 1225.06,-134.3 1213.09,-154.51 1231.25,-189.93 1247.25,-221.14 1268.43,-255.85 1281.76,-277.03"/>
<polygon fill="#63b8ff" stroke="#63b8ff" points="1278.66,-278.68 1286.98,-285.25 1284.58,-274.93 1278.66,-278.68"/>
</a>
</g>
</g>
<!-- Node5&#45;&gt;Node2 -->
<g id="edge5_Node000005_Node000002" class="edge">
<title>Node5&#45;&gt;Node2</title>
<g id="a_edge5_Node000005_Node000002"><a xlink:title=" ">
<path fill="none" stroke="#63b8ff" d="M221.4,-724.13C234.28,-746.83 268.69,-801.49 314,-826.93 388.48,-868.74 418.09,-858.93 503.5,-858.93 503.5,-858.93 503.5,-858.93 971.25,-858.93 1071.16,-858.93 1114.61,-898.92 1195.25,-839.93 1268.07,-786.65 1287.69,-670.01 1292.79,-621.63"/>
<polygon fill="#63b8ff" stroke="#63b8ff" points="1296.25,-622.17 1293.69,-611.89 1289.28,-621.52 1296.25,-622.17"/>
</a>
</g>
</g>
<!-- Node5&#45;&gt;Node3 -->
<g id="edge8_Node000005_Node000003" class="edge">
<title>Node5&#45;&gt;Node3</title>
<g id="a_edge8_Node000005_Node000003"><a xlink:title=" ">
<path fill="none" stroke="#63b8ff" d="M215.71,-703.6C214.99,-622.34 221.01,-88.93 503.5,-88.93 503.5,-88.93 503.5,-88.93 819.88,-88.93 902.75,-88.93 998.08,-88.93 1060.92,-88.93"/>
<polygon fill="#63b8ff" stroke="#63b8ff" points="1060.76,-92.43 1070.76,-88.93 1060.76,-85.43 1060.76,-92.43"/>
</a>
</g>
</g>
<!-- Node5&#45;&gt;Node4 -->
<g id="edge7_Node000005_Node000004" class="edge">
<title>Node5&#45;&gt;Node4</title>
<g id="a_edge7_Node000005_Node000004"><a xlink:title=" ">
<path fill="none" stroke="#63b8ff" d="M216.11,-703.85C217.95,-632.53 232.33,-203.98 314,-109.93 371.83,-43.32 415.29,-50.93 503.5,-50.93 503.5,-50.93 503.5,-50.93 661.38,-50.93 898.8,-50.93 1007.31,75.17 1195.25,-69.93 1239.32,-103.95 1208.92,-138.92 1231.25,-189.93 1245.24,-221.89 1266.79,-256.16 1280.77,-277.07"/>
<polygon fill="#63b8ff" stroke="#63b8ff" points="1277.77,-278.89 1286.28,-285.2 1283.56,-274.96 1277.77,-278.89"/>
</a>
</g>
</g>
<!-- Node6 -->
<g id="Node000006" class="node">
<title>Node6</title>
<g id="a_Node000006"><a xlink:href="structxpath__parser.html#a876c0c06a8cdc623926c8788e8d43fc3" target="_top" xlink:title=" ">
<polygon fill="white" stroke="#666666" points="1180.25,-514.93 1081.75,-514.93 1081.75,-482.93 1180.25,-482.93 1180.25,-514.93"/>
<text xml:space="preserve" text-anchor="start" x="1089.75" y="-501.43" font-family="Helvetica,sans-Serif" font-size="10.00">xpath_parser::alloc</text>
<text xml:space="preserve" text-anchor="middle" x="1131" y="-489.43" font-family="Helvetica,sans-Serif" font-size="10.00">_string</text>
</a>
</g>
</g>
<!-- Node5&#45;&gt;Node6 -->
<g id="edge6_Node000005_Node000006" class="edge">
<title>Node5&#45;&gt;Node6</title>
<g id="a_edge6_Node000005_Node000006"><a xlink:title=" ">
<path fill="none" stroke="#63b8ff" d="M278.36,-720.44C336.57,-725.94 425.81,-732.93 503.5,-732.93 503.5,-732.93 503.5,-732.93 819.88,-732.93 956.92,-732.93 1071.79,-585.51 1113.35,-524.69"/>
<polygon fill="#63b8ff" stroke="#63b8ff" points="1116.09,-526.89 1118.76,-516.64 1110.28,-522.99 1116.09,-526.89"/>
</a>
</g>
</g>
<!-- Node7 -->
<g id="Node000007" class="node">
<title>Node7</title>
<g id="a_Node000007"><a xlink:href="structxpath__parser.html#ad67ec26e0e286ca1bb5144a79e3a3583" target="_top" xlink:title=" ">
<polygon fill="white" stroke="#666666" points="416.25,-792.93 314,-792.93 314,-760.93 416.25,-760.93 416.25,-792.93"/>
<text xml:space="preserve" text-anchor="start" x="322" y="-779.43" font-family="Helvetica,sans-Serif" font-size="10.00">xpath_parser::parse</text>
<text xml:space="preserve" text-anchor="middle" x="365.12" y="-767.43" font-family="Helvetica,sans-Serif" font-size="10.00">_axis_name</text>
</a>
</g>
</g>
<!-- Node5&#45;&gt;Node7 -->
<g id="edge9_Node000005_Node000007" class="edge">
<title>Node5&#45;&gt;Node7</title>
<g id="a_edge9_Node000005_Node000007"><a xlink:title=" ">
<path fill="none" stroke="#63b8ff" d="M240.36,-724.33C260.58,-732.92 289.92,-745.39 314.96,-756.03"/>
<polygon fill="#63b8ff" stroke="#63b8ff" points="313.42,-759.18 324,-759.87 316.16,-752.74 313.42,-759.18"/>
</a>
</g>
</g>
<!-- Node8 -->
<g id="Node000008" class="node">
<title>Node8</title>
<g id="a_Node000008"><a xlink:href="structxpath__parser.html#a7738e256011ca842dc2a0beba78562ed" target="_top" xlink:title=" ">
<polygon fill="white" stroke="#666666" points="416.25,-445.93 314,-445.93 314,-413.93 416.25,-413.93 416.25,-445.93"/>
<text xml:space="preserve" text-anchor="start" x="322" y="-432.43" font-family="Helvetica,sans-Serif" font-size="10.00">xpath_parser::parse</text>
<text xml:space="preserve" text-anchor="middle" x="365.12" y="-420.43" font-family="Helvetica,sans-Serif" font-size="10.00">_expression</text>
</a>
</g>
</g>
<!-- Node5&#45;&gt;Node8 -->
<g id="edge10_Node000005_Node000008" class="edge">
<title>Node5&#45;&gt;Node8</title>
<g id="a_edge10_Node000005_Node000008"><a xlink:title=" ">
<path fill="none" stroke="#63b8ff" d="M221.33,-703.48C242.42,-663.08 319.05,-516.28 350.5,-456.02"/>
<polygon fill="#63b8ff" stroke="#63b8ff" points="353.44,-457.97 354.96,-447.48 347.23,-454.73 353.44,-457.97"/>
</a>
</g>
</g>
<!-- Node24 -->
<g id="Node000024" class="node">
<title>Node24</title>
<g id="a_Node000024"><a xlink:href="classxpath__ast__node.html#a2764184d076834284eb3ff3182b845cc" target="_top" xlink:title=" ">
<polygon fill="white" stroke="#666666" points="1195.25,-830.93 1066.75,-830.93 1066.75,-810.93 1195.25,-810.93 1195.25,-830.93"/>
<text xml:space="preserve" text-anchor="middle" x="1131" y="-817.43" font-family="Helvetica,sans-Serif" font-size="10.00">xpath_ast_node::set_next</text>
</a>
</g>
</g>
<!-- Node5&#45;&gt;Node24 -->
<g id="edge59_Node000005_Node000024" class="edge">
<title>Node5&#45;&gt;Node24</title>
<g id="a_edge59_Node000005_Node000024"><a xlink:title=" ">
<path fill="none" stroke="#63b8ff" d="M223.67,-724.35C238.71,-743.56 273.8,-784.19 314,-801.93 391.44,-836.09 418.86,-820.93 503.5,-820.93 503.5,-820.93 503.5,-820.93 819.88,-820.93 900.21,-820.93 992.26,-820.93 1055.07,-820.93"/>
<polygon fill="#63b8ff" stroke="#63b8ff" points="1054.93,-824.43 1064.93,-820.93 1054.93,-817.43 1054.93,-824.43"/>
</a>
</g>
</g>
<!-- Node26 -->
<g id="Node000026" class="node">
<title>Node26</title>
<g id="a_Node000026"><a xlink:href="classxpath__ast__node.html#a2c12e34a46db2a3d0052f9f38bcf1bb6" target="_top" xlink:title=" ">
<polygon fill="white" stroke="#666666" points="1030.75,-502.93 909.75,-502.93 909.75,-482.93 1030.75,-482.93 1030.75,-502.93"/>
<text xml:space="preserve" text-anchor="middle" x="970.25" y="-489.43" font-family="Helvetica,sans-Serif" font-size="10.00">xpath_ast_node::rettype</text>
</a>
</g>
</g>
<!-- Node5&#45;&gt;Node26 -->
<g id="edge58_Node000005_Node000026" class="edge">
<title>Node5&#45;&gt;Node26</title>
<g id="a_edge58_Node000005_Node000026"><a xlink:title=" ">
<path fill="none" stroke="#63b8ff" d="M278.36,-707.41C336.57,-701.91 425.81,-694.93 503.5,-694.93 503.5,-694.93 503.5,-694.93 661.38,-694.93 756.14,-694.93 794.98,-728.61 873.75,-675.93 931,-637.63 956.12,-553.69 965.08,-514.22"/>
<polygon fill="#63b8ff" stroke="#63b8ff" points="968.48,-515.08 967.13,-504.57 961.63,-513.62 968.48,-515.08"/>
</a>
</g>
</g>
<!-- Node28 -->
<g id="Node000028" class="node">
<title>Node28</title>
<g id="a_Node000028"><a xlink:href="structxpath__parser.html#a7b4555d7bfdb90971333c46963d5d791" target="_top" xlink:title=" ">
<polygon fill="white" stroke="#666666" points="870,-666.93 767.75,-666.93 767.75,-634.93 870,-634.93 870,-666.93"/>
<text xml:space="preserve" text-anchor="start" x="775.75" y="-653.43" font-family="Helvetica,sans-Serif" font-size="10.00">xpath_parser::parse</text>
<text xml:space="preserve" text-anchor="middle" x="818.88" y="-641.43" font-family="Helvetica,sans-Serif" font-size="10.00">_node_test_type</text>
</a>
</g>
</g>
<!-- Node5&#45;&gt;Node28 -->
<g id="edge57_Node000005_Node000028" class="edge">
<title>Node5&#45;&gt;Node28</title>
<g id="a_edge57_Node000005_Node000028"><a xlink:title=" ">
<path fill="none" stroke="#63b8ff" d="M240.79,-703.5C260.34,-695.82 288.42,-685.9 314,-680.93 470.9,-650.43 660,-648.16 755.77,-649.38"/>
<polygon fill="#63b8ff" stroke="#63b8ff" points="755.7,-652.88 765.75,-649.52 755.8,-645.88 755.7,-652.88"/>
</a>
</g>
</g>
<!-- Node29 -->
<g id="Node000029" class="node">
<title>Node29</title>
<g id="a_Node000029"><a xlink:href="classxpath__ast__node.html#afe044146db852b7d4dbf188fd2ff6c75" target="_top" xlink:title=" ">
<polygon fill="white" stroke="#666666" points="556.75,-956.93 452.25,-956.93 452.25,-924.93 556.75,-924.93 556.75,-956.93"/>
<text xml:space="preserve" text-anchor="start" x="460.25" y="-943.43" font-family="Helvetica,sans-Serif" font-size="10.00">xpath_ast_node::set</text>
<text xml:space="preserve" text-anchor="middle" x="504.5" y="-931.43" font-family="Helvetica,sans-Serif" font-size="10.00">_right</text>
</a>
</g>
</g>
<!-- Node5&#45;&gt;Node29 -->
<g id="edge60_Node000005_Node000029" class="edge">
<title>Node5&#45;&gt;Node29</title>
<g id="a_edge60_Node000005_Node000029"><a xlink:title=" ">
<path fill="none" stroke="#63b8ff" d="M219.4,-724.12C229.57,-752.03 261.59,-830.44 314,-872.93 350.53,-902.54 401,-919.81 440.67,-929.53"/>
<polygon fill="#63b8ff" stroke="#63b8ff" points="439.81,-932.92 450.34,-931.79 441.4,-926.1 439.81,-932.92"/>
</a>
</g>
</g>
<!-- Node8&#45;&gt;Node3 -->
<g id="edge11_Node000008_Node000003" class="edge">
<title>Node8&#45;&gt;Node3</title>
<g id="a_edge11_Node000008_Node000003"><a xlink:title=" ">
<path fill="none" stroke="#63b8ff" d="M369.34,-413.57C377.3,-376.95 401.09,-287.3 452.25,-232.93 523.11,-157.61 555.96,-126.93 659.38,-126.93 659.38,-126.93 659.38,-126.93 819.88,-126.93 905.41,-126.93 1003.24,-112.51 1065.76,-101.43"/>
<polygon fill="#63b8ff" stroke="#63b8ff" points="1066.3,-104.89 1075.52,-99.68 1065.06,-98 1066.3,-104.89"/>
</a>
</g>
</g>
<!-- Node9 -->
<g id="Node000009" class="node">
<title>Node9</title>
<g id="a_Node000009"><a xlink:href="structxpath__parser.html#adcd54e9b508acfe1f040ee7a54b88f2a" target="_top" xlink:title=" ">
<polygon fill="white" stroke="#666666" points="555.62,-445.93 453.38,-445.93 453.38,-413.93 555.62,-413.93 555.62,-445.93"/>
<text xml:space="preserve" text-anchor="start" x="461.38" y="-432.43" font-family="Helvetica,sans-Serif" font-size="10.00">xpath_parser::parse</text>
<text xml:space="preserve" text-anchor="middle" x="504.5" y="-420.43" font-family="Helvetica,sans-Serif" font-size="10.00">_expression_rec</text>
</a>
</g>
</g>
<!-- Node8&#45;&gt;Node9 -->
<g id="edge12_Node000008_Node000009" class="edge">
<title>Node8&#45;&gt;Node9</title>
<g id="a_edge12_Node000008_Node000009"><a xlink:title=" ">
<path fill="none" stroke="#63b8ff" d="M416.5,-429.93C424.71,-429.93 433.3,-429.93 441.75,-429.93"/>
<polygon fill="#63b8ff" stroke="#63b8ff" points="441.62,-433.43 451.62,-429.93 441.62,-426.43 441.62,-433.43"/>
</a>
</g>
</g>
<!-- Node14 -->
<g id="Node000014" class="node">
<title>Node14</title>
<g id="a_Node000014"><a xlink:href="structxpath__parser.html#ab5275305ebaac95fd68a3186b737aaa7" target="_top" xlink:title=" ">
<polygon fill="white" stroke="#666666" points="728,-568.93 592.75,-568.93 592.75,-536.93 728,-536.93 728,-568.93"/>
<text xml:space="preserve" text-anchor="start" x="600.75" y="-555.43" font-family="Helvetica,sans-Serif" font-size="10.00">xpath_parser::parse</text>
<text xml:space="preserve" text-anchor="middle" x="660.38" y="-543.43" font-family="Helvetica,sans-Serif" font-size="10.00">_path_or_unary_expression</text>
</a>
</g>
</g>
<!-- Node8&#45;&gt;Node14 -->
<g id="edge56_Node000008_Node000014" class="edge">
<title>Node8&#45;&gt;Node14</title>
<g id="a_edge56_Node000008_Node000014"><a xlink:title=" ">
<path fill="none" stroke="#63b8ff" d="M414.48,-446.35C426.7,-452.14 439.87,-458.46 452.25,-463.93 509.51,-489.21 577.45,-514.6 619.5,-532.09"/>
<polygon fill="#63b8ff" stroke="#63b8ff" points="617.9,-535.21 628.47,-535.88 620.62,-528.77 617.9,-535.21"/>
</a>
</g>
</g>
<!-- Node9&#45;&gt;Node2 -->
<g id="edge13_Node000009_Node000002" class="edge">
<title>Node9&#45;&gt;Node2</title>
<g id="a_edge13_Node000009_Node000002"><a xlink:title=" ">
<path fill="none" stroke="#63b8ff" d="M556.01,-442.39C654.13,-466.41 877.47,-520.16 1066.75,-558.93 1118.45,-569.51 1177.07,-580.03 1221.88,-587.76"/>
<polygon fill="#63b8ff" stroke="#63b8ff" points="1221.03,-591.17 1231.47,-589.41 1222.21,-584.27 1221.03,-591.17"/>
</a>
</g>
</g>
<!-- Node9&#45;&gt;Node3 -->
<g id="edge15_Node000009_Node000003" class="edge">
<title>Node9&#45;&gt;Node3</title>
<g id="a_edge15_Node000009_Node000003"><a xlink:title=" ">
<path fill="none" stroke="#63b8ff" d="M511.48,-413.49C522.9,-384.27 550.49,-323.08 592.75,-287.93 640.7,-248.04 1014.85,-150 1030.75,-140.93 1049.6,-130.17 1047.88,-118.65 1066.75,-107.93 1069.41,-106.41 1072.21,-105 1075.09,-103.7"/>
<polygon fill="#63b8ff" stroke="#63b8ff" points="1076.35,-106.97 1084.32,-99.99 1073.74,-100.47 1076.35,-106.97"/>
</a>
</g>
</g>
<!-- Node9&#45;&gt;Node4 -->
<g id="edge14_Node000009_Node000004" class="edge">
<title>Node9&#45;&gt;Node4</title>
<g id="a_edge14_Node000009_Node000004"><a xlink:title=" ">
<path fill="none" stroke="#63b8ff" d="M556.02,-431.44C608.12,-432.93 691.73,-435.09 764,-435.93 812.77,-436.49 825.49,-443.05 873.75,-435.93 1021.4,-414.14 1054.88,-389.64 1195.25,-338.93 1217.71,-330.81 1242.45,-320.34 1261.61,-311.89"/>
<polygon fill="#63b8ff" stroke="#63b8ff" points="1262.82,-315.19 1270.53,-307.92 1259.97,-308.79 1262.82,-315.19"/>
</a>
</g>
</g>
<!-- Node9&#45;&gt;Node9 -->
<g id="edge20_Node000009_Node000009" class="edge">
<title>Node9&#45;&gt;Node9</title>
<g id="a_edge20_Node000009_Node000009"><a xlink:title=" ">
<path fill="none" stroke="#63b8ff" d="M479.62,-446.37C474.97,-455.51 483.27,-463.93 504.5,-463.93 516.11,-463.93 523.85,-461.41 527.73,-457.63"/>
<polygon fill="#63b8ff" stroke="#63b8ff" points="531.17,-458.27 529.16,-447.87 524.24,-457.25 531.17,-458.27"/>
</a>
</g>
</g>
<!-- Node10 -->
<g id="Node000010" class="node">
<title>Node10</title>
<g id="a_Node000010"><a xlink:href="structxpath__parser_1_1binary__op__t.html#a723f5f2b66df47b4ac74455cb39b9544" target="_top" xlink:title=" ">
<polygon fill="white" stroke="#666666" points="712.62,-410.93 608.12,-410.93 608.12,-378.93 712.62,-378.93 712.62,-410.93"/>
<text xml:space="preserve" text-anchor="start" x="616.12" y="-397.43" font-family="Helvetica,sans-Serif" font-size="10.00">xpath_parser::binary</text>
<text xml:space="preserve" text-anchor="middle" x="660.38" y="-385.43" font-family="Helvetica,sans-Serif" font-size="10.00">_op_t::parse</text>
</a>
</g>
</g>
<!-- Node9&#45;&gt;Node10 -->
<g id="edge16_Node000009_Node000010" class="edge">
<title>Node9&#45;&gt;Node10</title>
<g id="a_edge16_Node000009_Node000010"><a xlink:title=" ">
<path fill="none" stroke="#63b8ff" d="M555.88,-418.47C568.89,-415.51 583.06,-412.28 596.62,-409.2"/>
<polygon fill="#63b8ff" stroke="#63b8ff" points="597.37,-412.62 606.35,-406.99 595.82,-405.79 597.37,-412.62"/>
</a>
</g>
</g>
<!-- Node9&#45;&gt;Node14 -->
<g id="edge21_Node000009_Node000014" class="edge">
<title>Node9&#45;&gt;Node14</title>
<g id="a_edge21_Node000009_Node000014"><a xlink:title=" ">
<path fill="none" stroke="#63b8ff" d="M522.69,-446.19C539.92,-462.23 567.45,-487.14 592.75,-506.93 602.92,-514.88 614.38,-523.05 624.88,-530.26"/>
<polygon fill="#63b8ff" stroke="#63b8ff" points="622.7,-533.01 632.94,-535.72 626.63,-527.21 622.7,-533.01"/>
</a>
</g>
</g>
<!-- Node9&#45;&gt;Node26 -->
<g id="edge55_Node000009_Node000026" class="edge">
<title>Node9&#45;&gt;Node26</title>
<g id="a_edge55_Node000009_Node000026"><a xlink:title=" ">
<path fill="none" stroke="#63b8ff" d="M523.46,-413.66C580.25,-364.23 758.94,-224.3 873.75,-309.93 918.73,-343.47 881.53,-382.43 909.75,-430.93 919.53,-447.73 934.78,-463.5 947.39,-474.93"/>
<polygon fill="#63b8ff" stroke="#63b8ff" points="945.02,-477.5 954.85,-481.44 949.62,-472.23 945.02,-477.5"/>
</a>
</g>
</g>
<!-- Node11 -->
<g id="Node000011" class="node">
<title>Node11</title>
<g id="a_Node000011"><a xlink:href="structxpath__parser_1_1binary__op__t.html#a18cac63911120c27f5ee842b1e6afe35" target="_top" xlink:title=" ">
<polygon fill="white" stroke="#666666" points="871.12,-350.93 766.62,-350.93 766.62,-318.93 871.12,-318.93 871.12,-350.93"/>
<text xml:space="preserve" text-anchor="start" x="774.62" y="-337.43" font-family="Helvetica,sans-Serif" font-size="10.00">xpath_parser::binary</text>
<text xml:space="preserve" text-anchor="middle" x="818.88" y="-325.43" font-family="Helvetica,sans-Serif" font-size="10.00">_op_t::binary_op_t</text>
</a>
</g>
</g>
<!-- Node10&#45;&gt;Node11 -->
<g id="edge17_Node000010_Node000011" class="edge">
<title>Node10&#45;&gt;Node11</title>
<g id="a_edge17_Node000010_Node000011"><a xlink:title=" ">
<path fill="none" stroke="#63b8ff" d="M704.14,-378.53C722.69,-371.42 744.63,-363.01 764.26,-355.48"/>
<polygon fill="#63b8ff" stroke="#63b8ff" points="765.39,-358.79 773.48,-351.95 762.89,-352.26 765.39,-358.79"/>
</a>
</g>
</g>
<!-- Node12 -->
<g id="Node000012" class="node">
<title>Node12</title>
<g id="a_Node000012"><a xlink:href="classxpath__lexer.html#a9a398feb578c697be7067f6f8d178fc9" target="_top" xlink:title=" ">
<polygon fill="white" stroke="#666666" points="873.75,-426.93 764,-426.93 764,-406.93 873.75,-406.93 873.75,-426.93"/>
<text xml:space="preserve" text-anchor="middle" x="818.88" y="-413.43" font-family="Helvetica,sans-Serif" font-size="10.00">xpath_lexer::contents</text>
</a>
</g>
</g>
<!-- Node10&#45;&gt;Node12 -->
<g id="edge18_Node000010_Node000012" class="edge">
<title>Node10&#45;&gt;Node12</title>
<g id="a_edge18_Node000010_Node000012"><a xlink:title=" ">
<path fill="none" stroke="#63b8ff" d="M713.05,-402.19C725.59,-403.95 739.15,-405.86 752.23,-407.7"/>
<polygon fill="#63b8ff" stroke="#63b8ff" points="751.68,-411.15 762.07,-409.08 752.65,-404.22 751.68,-411.15"/>
</a>
</g>
</g>
<!-- Node13 -->
<g id="Node000013" class="node">
<title>Node13</title>
<g id="a_Node000013"><a xlink:href="classxpath__lexer.html#a47425d5012741aecfd898306651439d0" target="_top" xlink:title=" ">
<polygon fill="white" stroke="#666666" points="870,-388.93 767.75,-388.93 767.75,-368.93 870,-368.93 870,-388.93"/>
<text xml:space="preserve" text-anchor="middle" x="818.88" y="-375.43" font-family="Helvetica,sans-Serif" font-size="10.00">xpath_lexer::current</text>
</a>
</g>
</g>
<!-- Node10&#45;&gt;Node13 -->
<g id="edge19_Node000010_Node000013" class="edge">
<title>Node10&#45;&gt;Node13</title>
<g id="a_edge19_Node000010_Node000013"><a xlink:title=" ">
<path fill="none" stroke="#63b8ff" d="M713.05,-389.64C726.82,-388.23 741.84,-386.7 756.09,-385.24"/>
<polygon fill="#63b8ff" stroke="#63b8ff" points="756.22,-388.75 765.81,-384.25 755.51,-381.78 756.22,-388.75"/>
</a>
</g>
</g>
<!-- Node14&#45;&gt;Node1 -->
<g id="edge53_Node000014_Node000001" class="edge">
<title>Node14&#45;&gt;Node1</title>
<g id="a_edge53_Node000014_Node000001"><a xlink:title=" ">
<path fill="none" stroke="#63b8ff" d="M597.89,-569.41C484.91,-599.7 245.09,-664 127.2,-695.61"/>
<polygon fill="#63b8ff" stroke="#63b8ff" points="126.4,-692.2 117.64,-698.17 128.21,-698.96 126.4,-692.2"/>
</a>
</g>
</g>
<!-- Node14&#45;&gt;Node2 -->
<g id="edge22_Node000014_Node000002" class="edge">
<title>Node14&#45;&gt;Node2</title>
<g id="a_edge22_Node000014_Node000002"><a xlink:title=" ">
<path fill="none" stroke="#63b8ff" d="M708.59,-569.35C725.82,-574.65 745.59,-579.92 764,-582.93 925.56,-609.33 1118.37,-607.27 1221.25,-603.54"/>
<polygon fill="#63b8ff" stroke="#63b8ff" points="1221.36,-607.04 1231.22,-603.16 1221.1,-600.05 1221.36,-607.04"/>
</a>
</g>
</g>
<!-- Node14&#45;&gt;Node4 -->
<g id="edge23_Node000014_Node000004" class="edge">
<title>Node14&#45;&gt;Node4</title>
<g id="a_edge23_Node000014_Node000004"><a xlink:title=" ">
<path fill="none" stroke="#63b8ff" d="M728.26,-559.54C805.64,-564.13 934.71,-562.18 1030.75,-511.93 1051.36,-501.14 1048.77,-488.69 1066.75,-473.93 1118.93,-431.09 1142.15,-434.62 1195.25,-392.93 1226.32,-368.53 1258.51,-335.77 1277.51,-315.52"/>
<polygon fill="#63b8ff" stroke="#63b8ff" points="1279.99,-317.99 1284.23,-308.28 1274.86,-313.23 1279.99,-317.99"/>
</a>
</g>
</g>
<!-- Node14&#45;&gt;Node8 -->
<g id="edge24_Node000014_Node000008" class="edge">
<title>Node14&#45;&gt;Node8</title>
<g id="a_edge24_Node000014_Node000008"><a xlink:title=" ">
<path fill="none" stroke="#63b8ff" d="M592.49,-536.72C551.6,-522.79 498.44,-502.32 452.25,-481.93 432.37,-473.15 410.47,-462.2 393.73,-452.36"/>
<polygon fill="#63b8ff" stroke="#63b8ff" points="395.68,-449.45 385.32,-447.2 392.02,-455.42 395.68,-449.45"/>
</a>
</g>
</g>
<!-- Node15 -->
<g id="Node000015" class="node">
<title>Node15</title>
<g id="a_Node000015"><a xlink:href="structxpath__parser.html#a61a425d990a56d5db8cd14405835a5b6" target="_top" xlink:title=" ">
<polygon fill="white" stroke="#666666" points="870,-262.93 767.75,-262.93 767.75,-230.93 870,-230.93 870,-262.93"/>
<text xml:space="preserve" text-anchor="start" x="775.75" y="-249.43" font-family="Helvetica,sans-Serif" font-size="10.00">xpath_parser::parse</text>
<text xml:space="preserve" text-anchor="middle" x="818.88" y="-237.43" font-family="Helvetica,sans-Serif" font-size="10.00">_filter_expression</text>
</a>
</g>
</g>
<!-- Node14&#45;&gt;Node15 -->
<g id="edge25_Node000014_Node000015" class="edge">
<title>Node14&#45;&gt;Node15</title>
<g id="a_edge25_Node000014_Node000015"><a xlink:title=" ">
<path fill="none" stroke="#63b8ff" d="M670.6,-536.5C684.27,-511.74 710.21,-463.15 728,-419.93 747.57,-372.35 738.8,-354.77 764,-309.93 771.79,-296.07 782.89,-282.44 792.99,-271.42"/>
<polygon fill="#63b8ff" stroke="#63b8ff" points="795.41,-273.95 799.75,-264.29 790.33,-269.13 795.41,-273.95"/>
</a>
</g>
</g>
<!-- Node14&#45;&gt;Node26 -->
<g id="edge54_Node000014_Node000026" class="edge">
<title>Node14&#45;&gt;Node26</title>
<g id="a_edge54_Node000014_Node000026"><a xlink:title=" ">
<path fill="none" stroke="#63b8ff" d="M728.18,-539.91C780.41,-529.73 852.59,-515.66 904.33,-505.58"/>
<polygon fill="#63b8ff" stroke="#63b8ff" points="904.75,-509.06 913.89,-503.71 903.41,-502.19 904.75,-509.06"/>
</a>
</g>
</g>
<!-- Node27 -->
<g id="Node000027" class="node">
<title>Node27</title>
<g id="a_Node000027"><a xlink:href="structxpath__parser.html#af14e396ddb7817998ec221eec6b781ab" target="_top" xlink:title=" ">
<polygon fill="white" stroke="#666666" points="870,-792.93 767.75,-792.93 767.75,-760.93 870,-760.93 870,-792.93"/>
<text xml:space="preserve" text-anchor="start" x="775.75" y="-779.43" font-family="Helvetica,sans-Serif" font-size="10.00">xpath_parser::parse</text>
<text xml:space="preserve" text-anchor="middle" x="818.88" y="-767.43" font-family="Helvetica,sans-Serif" font-size="10.00">_location_path</text>
</a>
</g>
</g>
<!-- Node14&#45;&gt;Node27 -->
<g id="edge49_Node000014_Node000027" class="edge">
<title>Node14&#45;&gt;Node27</title>
<g id="a_edge49_Node000014_Node000027"><a xlink:title=" ">
<path fill="none" stroke="#63b8ff" d="M672.88,-569.4C699.85,-607.99 767.28,-704.5 799.79,-751.04"/>
<polygon fill="#63b8ff" stroke="#63b8ff" points="796.89,-753 805.48,-759.19 802.63,-748.99 796.89,-753"/>
</a>
</g>
</g>
<!-- Node14&#45;&gt;Node28 -->
<g id="edge52_Node000014_Node000028" class="edge">
<title>Node14&#45;&gt;Node28</title>
<g id="a_edge52_Node000014_Node000028"><a xlink:title=" ">
<path fill="none" stroke="#63b8ff" d="M685.09,-569.39C705.68,-583.51 736.43,-604.15 764,-620.93 768.34,-623.56 772.91,-626.25 777.49,-628.89"/>
<polygon fill="#63b8ff" stroke="#63b8ff" points="775.69,-631.89 786.12,-633.77 779.14,-625.79 775.69,-631.89"/>
</a>
</g>
</g>
<!-- Node15&#45;&gt;Node2 -->
<g id="edge26_Node000015_Node000002" class="edge">
<title>Node15&#45;&gt;Node2</title>
<g id="a_edge26_Node000015_Node000002"><a xlink:title=" ">
<path fill="none" stroke="#63b8ff" d="M851.93,-263.42C859.45,-267.96 867.18,-273.22 873.75,-278.93 915.78,-315.38 997.04,-429.67 1030.75,-473.93 1047.34,-495.71 1044.7,-507.7 1066.75,-523.93 1067.24,-524.28 1186.93,-564.14 1252.58,-585.98"/>
<polygon fill="#63b8ff" stroke="#63b8ff" points="1251.36,-589.26 1261.96,-589.1 1253.57,-582.62 1251.36,-589.26"/>
</a>
</g>
</g>
<!-- Node15&#45;&gt;Node3 -->
<g id="edge28_Node000015_Node000003" class="edge">
<title>Node15&#45;&gt;Node3</title>
<g id="a_edge28_Node000015_Node000003"><a xlink:title=" ">
<path fill="none" stroke="#63b8ff" d="M870.3,-232.87C928.62,-216.28 1018.26,-189.59 1030.75,-178.93 1057.66,-155.95 1039.61,-130.63 1066.75,-107.93 1068.04,-106.84 1069.39,-105.83 1070.79,-104.86"/>
<polygon fill="#63b8ff" stroke="#63b8ff" points="1072.31,-108.03 1079.31,-100.07 1068.88,-101.93 1072.31,-108.03"/>
</a>
</g>
</g>
<!-- Node15&#45;&gt;Node4 -->
<g id="edge27_Node000015_Node000004" class="edge">
<title>Node15&#45;&gt;Node4</title>
<g id="a_edge27_Node000015_Node000004"><a xlink:title=" ">
<path fill="none" stroke="#63b8ff" d="M860.52,-263.33C908.76,-281.85 992.09,-310.83 1066.75,-321.93 1123.24,-330.32 1138.57,-328.95 1195.25,-321.93 1213.77,-319.63 1233.79,-315.01 1250.97,-310.36"/>
<polygon fill="#63b8ff" stroke="#63b8ff" points="1251.66,-313.8 1260.35,-307.73 1249.77,-307.06 1251.66,-313.8"/>
</a>
</g>
</g>
<!-- Node15&#45;&gt;Node8 -->
<g id="edge29_Node000015_Node000008" class="edge">
<title>Node15&#45;&gt;Node8</title>
<g id="a_edge29_Node000015_Node000008"><a xlink:title=" ">
<path fill="none" stroke="#63b8ff" d="M767.66,-250.59C721.03,-255.26 650.35,-265.59 592.75,-287.93 515.84,-317.75 436.53,-374.57 395.2,-406.55"/>
<polygon fill="#63b8ff" stroke="#63b8ff" points="393.16,-403.7 387.44,-412.62 397.47,-409.21 393.16,-403.7"/>
</a>
</g>
</g>
<!-- Node16 -->
<g id="Node000016" class="node">
<title>Node16</title>
<g id="a_Node000016"><a xlink:href="structxpath__parser.html#a49cbc6141508ace22ab4b8bd8ddf965a" target="_top" xlink:title=" ">
<polygon fill="white" stroke="#666666" points="1023.25,-262.93 917.25,-262.93 917.25,-230.93 1023.25,-230.93 1023.25,-262.93"/>
<text xml:space="preserve" text-anchor="start" x="925.25" y="-249.43" font-family="Helvetica,sans-Serif" font-size="10.00">xpath_parser::parse</text>
<text xml:space="preserve" text-anchor="middle" x="970.25" y="-237.43" font-family="Helvetica,sans-Serif" font-size="10.00">_primary_expression</text>
</a>
</g>
</g>
<!-- Node15&#45;&gt;Node16 -->
<g id="edge30_Node000015_Node000016" class="edge">
<title>Node15&#45;&gt;Node16</title>
<g id="a_edge30_Node000015_Node000016"><a xlink:title=" ">
<path fill="none" stroke="#63b8ff" d="M870.45,-246.93C881.8,-246.93 893.98,-246.93 905.79,-246.93"/>
<polygon fill="#63b8ff" stroke="#63b8ff" points="905.43,-250.43 915.43,-246.93 905.43,-243.43 905.43,-250.43"/>
</a>
</g>
</g>
<!-- Node15&#45;&gt;Node26 -->
<g id="edge48_Node000015_Node000026" class="edge">
<title>Node15&#45;&gt;Node26</title>
<g id="a_edge48_Node000015_Node000026"><a xlink:title=" ">
<path fill="none" stroke="#63b8ff" d="M858.91,-263.37C864.53,-267.13 869.75,-271.63 873.75,-276.93 916.07,-333.04 876.22,-369.15 909.75,-430.93 919.03,-448.02 934.28,-463.78 947.03,-475.13"/>
<polygon fill="#63b8ff" stroke="#63b8ff" points="944.71,-477.76 954.59,-481.59 949.26,-472.44 944.71,-477.76"/>
</a>
</g>
</g>
<!-- Node16&#45;&gt;Node2 -->
<g id="edge31_Node000016_Node000002" class="edge">
<title>Node16&#45;&gt;Node2</title>
<g id="a_edge31_Node000016_Node000002"><a xlink:title=" ">
<path fill="none" stroke="#63b8ff" d="M988.78,-263.39C1027.43,-299.97 1122.35,-391.31 1195.25,-473.93 1227.15,-510.08 1261.3,-554.97 1280.06,-580.23"/>
<polygon fill="#63b8ff" stroke="#63b8ff" points="1277.24,-582.3 1286,-588.27 1282.87,-578.15 1277.24,-582.3"/>
</a>
</g>
</g>
<!-- Node16&#45;&gt;Node3 -->
<g id="edge39_Node000016_Node000003" class="edge">
<title>Node16&#45;&gt;Node3</title>
<g id="a_edge39_Node000016_Node000003"><a xlink:title=" ">
<path fill="none" stroke="#63b8ff" d="M1014.21,-230.53C1020.35,-226.77 1026.14,-222.27 1030.75,-216.93 1064.06,-178.28 1030.19,-143.51 1066.75,-107.93 1067.63,-107.07 1068.55,-106.24 1069.51,-105.46"/>
<polygon fill="#63b8ff" stroke="#63b8ff" points="1071.12,-108.59 1077.58,-100.18 1067.29,-102.73 1071.12,-108.59"/>
</a>
</g>
</g>
<!-- Node16&#45;&gt;Node4 -->
<g id="edge37_Node000016_Node000004" class="edge">
<title>Node16&#45;&gt;Node4</title>
<g id="a_edge37_Node000016_Node000004"><a xlink:title=" ">
<path fill="none" stroke="#63b8ff" d="M1023.51,-234.14C1069.63,-225.13 1138.2,-217.35 1195.25,-233.93 1225.6,-242.74 1255.54,-263.94 1274.47,-279.32"/>
<polygon fill="#63b8ff" stroke="#63b8ff" points="1272,-281.81 1281.91,-285.55 1276.49,-276.45 1272,-281.81"/>
</a>
</g>
</g>
<!-- Node16&#45;&gt;Node6 -->
<g id="edge32_Node000016_Node000006" class="edge">
<title>Node16&#45;&gt;Node6</title>
<g id="a_edge32_Node000016_Node000006"><a xlink:title=" ">
<path fill="none" stroke="#63b8ff" d="M977.94,-263.26C991.89,-296.43 1026.21,-373.41 1066.75,-430.93 1077.69,-446.45 1091.96,-462.09 1104.17,-474.45"/>
<polygon fill="#63b8ff" stroke="#63b8ff" points="1101.59,-476.82 1111.16,-481.37 1106.52,-471.85 1101.59,-476.82"/>
</a>
</g>
</g>
<!-- Node16&#45;&gt;Node8 -->
<g id="edge41_Node000016_Node000008" class="edge">
<title>Node16&#45;&gt;Node8</title>
<g id="a_edge41_Node000016_Node000008"><a xlink:title=" ">
<path fill="none" stroke="#63b8ff" d="M916.94,-230.66C903.04,-227.05 887.94,-223.75 873.75,-221.93 684.71,-197.59 602.95,-184.24 452.25,-300.93 416.94,-328.26 391.24,-374.31 377.51,-403.35"/>
<polygon fill="#63b8ff" stroke="#63b8ff" points="374.44,-401.65 373.47,-412.2 380.81,-404.56 374.44,-401.65"/>
</a>
</g>
</g>
<!-- Node17 -->
<g id="Node000017" class="node">
<title>Node17</title>
<g id="a_Node000017"><a xlink:href="pugixml_8cpp.html#a1a1fca8011d76ef218f46957cf16cd1e" target="_top" xlink:title=" ">
<polygon fill="white" stroke="#666666" points="1195.25,-186.93 1066.75,-186.93 1066.75,-154.93 1195.25,-154.93 1195.25,-186.93"/>
<text xml:space="preserve" text-anchor="start" x="1074.75" y="-173.43" font-family="Helvetica,sans-Serif" font-size="10.00">convert_string_to_number</text>
<text xml:space="preserve" text-anchor="middle" x="1131" y="-161.43" font-family="Helvetica,sans-Serif" font-size="10.00">_scratch</text>
</a>
</g>
</g>
<!-- Node16&#45;&gt;Node17 -->
<g id="edge33_Node000016_Node000017" class="edge">
<title>Node16&#45;&gt;Node17</title>
<g id="a_edge33_Node000016_Node000017"><a xlink:title=" ">
<path fill="none" stroke="#63b8ff" d="M1005.26,-230.48C1023.48,-221.69 1046.33,-210.69 1066.75,-200.93 1072.65,-198.1 1078.87,-195.14 1085,-192.23"/>
<polygon fill="#63b8ff" stroke="#63b8ff" points="1086.28,-195.49 1093.82,-188.04 1083.28,-189.17 1086.28,-195.49"/>
</a>
</g>
</g>
<!-- Node21 -->
<g id="Node000021" class="node">
<title>Node21</title>
<g id="a_Node000021"><a xlink:href="structxpath__parser.html#a253554c10701671465d3eab96e464c93" target="_top" xlink:title=" ">
<polygon fill="white" stroke="#666666" points="1191.88,-136.93 1070.12,-136.93 1070.12,-116.93 1191.88,-116.93 1191.88,-136.93"/>
<text xml:space="preserve" text-anchor="middle" x="1131" y="-123.43" font-family="Helvetica,sans-Serif" font-size="10.00">xpath_parser::error_oom</text>
</a>
</g>
</g>
<!-- Node16&#45;&gt;Node21 -->
<g id="edge38_Node000016_Node000021" class="edge">
<title>Node16&#45;&gt;Node21</title>
<g id="a_edge38_Node000016_Node000021"><a xlink:title=" ">
<path fill="none" stroke="#63b8ff" d="M1012.61,-230.44C1019.17,-226.64 1025.51,-222.15 1030.75,-216.93 1055.8,-191.94 1039.61,-168.63 1066.75,-145.93 1068.04,-144.84 1069.39,-143.83 1070.79,-142.86"/>
<polygon fill="#63b8ff" stroke="#63b8ff" points="1072.31,-146.03 1079.31,-138.07 1068.88,-139.93 1072.31,-146.03"/>
</a>
</g>
</g>
<!-- Node22 -->
<g id="Node000022" class="node">
<title>Node22</title>
<g id="a_Node000022"><a xlink:href="pugixml_8cpp.html#a046d19e3dedb7e154882fe5ad4647e25" target="_top" xlink:title=" ">
<polygon fill="white" stroke="#666666" points="1184,-262.93 1078,-262.93 1078,-242.93 1184,-242.93 1184,-262.93"/>
<text xml:space="preserve" text-anchor="middle" x="1131" y="-249.43" font-family="Helvetica,sans-Serif" font-size="10.00">get_variable_scratch</text>
</a>
</g>
</g>
<!-- Node16&#45;&gt;Node22 -->
<g id="edge40_Node000016_Node000022" class="edge">
<title>Node16&#45;&gt;Node22</title>
<g id="a_edge40_Node000016_Node000022"><a xlink:title=" ">
<path fill="none" stroke="#63b8ff" d="M1023.67,-248.91C1037.35,-249.42 1052.25,-249.99 1066.44,-250.52"/>
<polygon fill="#63b8ff" stroke="#63b8ff" points="1066,-254.01 1076.12,-250.89 1066.26,-247.01 1066,-254.01"/>
</a>
</g>
</g>
<!-- Node23 -->
<g id="Node000023" class="node">
<title>Node23</title>
<g id="a_Node000023"><a xlink:href="structxpath__parser.html#a9a68f1cbf9900714aefe00059a66a22d" target="_top" xlink:title=" ">
<polygon fill="white" stroke="#666666" points="1182.12,-312.93 1079.88,-312.93 1079.88,-280.93 1182.12,-280.93 1182.12,-312.93"/>
<text xml:space="preserve" text-anchor="start" x="1087.88" y="-299.43" font-family="Helvetica,sans-Serif" font-size="10.00">xpath_parser::parse</text>
<text xml:space="preserve" text-anchor="middle" x="1131" y="-287.43" font-family="Helvetica,sans-Serif" font-size="10.00">_function</text>
</a>
</g>
</g>
<!-- Node16&#45;&gt;Node23 -->
<g id="edge42_Node000016_Node000023" class="edge">
<title>Node16&#45;&gt;Node23</title>
<g id="a_edge42_Node000016_Node000023"><a xlink:title=" ">
<path fill="none" stroke="#63b8ff" d="M1023.23,-263.3C1037.78,-267.88 1053.74,-272.91 1068.77,-277.64"/>
<polygon fill="#63b8ff" stroke="#63b8ff" points="1067.49,-280.91 1078.08,-280.57 1069.59,-274.23 1067.49,-280.91"/>
</a>
</g>
</g>
<!-- Node16&#45;&gt;Node24 -->
<g id="edge45_Node000016_Node000024" class="edge">
<title>Node16&#45;&gt;Node24</title>
<g id="a_edge45_Node000016_Node000024"><a xlink:title=" ">
<path fill="none" stroke="#63b8ff" d="M975.75,-263.18C998.27,-344.64 1098.81,-708.15 1124.17,-799.86"/>
<polygon fill="#63b8ff" stroke="#63b8ff" points="1120.74,-800.57 1126.78,-809.27 1127.49,-798.7 1120.74,-800.57"/>
</a>
</g>
</g>
<!-- Node18 -->
<g id="Node000018" class="node">
<title>Node18</title>
<g id="a_Node000018"><a xlink:href="pugixml_8cpp.html#ae6299198941714e42acefb1481370646" target="_top" xlink:title=" ">
<polygon fill="white" stroke="#666666" points="1359.75,-180.93 1231.25,-180.93 1231.25,-160.93 1359.75,-160.93 1359.75,-180.93"/>
<text xml:space="preserve" text-anchor="middle" x="1295.5" y="-167.43" font-family="Helvetica,sans-Serif" font-size="10.00">convert_string_to_number</text>
</a>
</g>
</g>
<!-- Node17&#45;&gt;Node18 -->
<g id="edge34_Node000017_Node000018" class="edge">
<title>Node17&#45;&gt;Node18</title>
<g id="a_edge34_Node000017_Node000018"><a xlink:title=" ">
<path fill="none" stroke="#63b8ff" d="M1195.29,-170.93C1203.23,-170.93 1211.4,-170.93 1219.49,-170.93"/>
<polygon fill="#63b8ff" stroke="#63b8ff" points="1219.33,-174.43 1229.33,-170.93 1219.33,-167.43 1219.33,-174.43"/>
</a>
</g>
</g>
<!-- Node19 -->
<g id="Node000019" class="node">
<title>Node19</title>
<g id="a_Node000019"><a xlink:href="pugixml_8cpp.html#a0bf9a61bcf9eb4888ef36942e5cd8d05" target="_top" xlink:title=" ">
<polygon fill="white" stroke="#666666" points="1518.25,-208.93 1395.75,-208.93 1395.75,-176.93 1518.25,-176.93 1518.25,-208.93"/>
<text xml:space="preserve" text-anchor="start" x="1403.75" y="-195.43" font-family="Helvetica,sans-Serif" font-size="10.00">check_string_to_number</text>
<text xml:space="preserve" text-anchor="middle" x="1457" y="-183.43" font-family="Helvetica,sans-Serif" font-size="10.00">_format</text>
</a>
</g>
</g>
<!-- Node18&#45;&gt;Node19 -->
<g id="edge35_Node000018_Node000019" class="edge">
<title>Node18&#45;&gt;Node19</title>
<g id="a_edge35_Node000018_Node000019"><a xlink:title=" ">
<path fill="none" stroke="#63b8ff" d="M1360,-179.68C1367.91,-180.77 1376.04,-181.9 1384.07,-183"/>
<polygon fill="#63b8ff" stroke="#63b8ff" points="1383.43,-186.45 1393.82,-184.35 1384.39,-179.51 1383.43,-186.45"/>
</a>
</g>
</g>
<!-- Node20 -->
<g id="Node000020" class="node">
<title>Node20</title>
<g id="a_Node000020"><a xlink:href="pugixml_8cpp.html#a2f4c7e7ca3a98b25cbfa5d98dd21b300" target="_top" xlink:title=" ">
<polygon fill="white" stroke="#666666" points="1483.38,-158.93 1430.62,-158.93 1430.62,-138.93 1483.38,-138.93 1483.38,-158.93"/>
<text xml:space="preserve" text-anchor="middle" x="1457" y="-145.43" font-family="Helvetica,sans-Serif" font-size="10.00">gen_nan</text>
</a>
</g>
</g>
<!-- Node18&#45;&gt;Node20 -->
<g id="edge36_Node000018_Node000020" class="edge">
<title>Node18&#45;&gt;Node20</title>
<g id="a_edge36_Node000018_Node000020"><a xlink:title=" ">
<path fill="none" stroke="#63b8ff" d="M1360,-162.17C1380.14,-159.39 1401.73,-156.41 1419.32,-153.98"/>
<polygon fill="#63b8ff" stroke="#63b8ff" points="1419.59,-157.48 1429.02,-152.65 1418.64,-150.55 1419.59,-157.48"/>
</a>
</g>
</g>
<!-- Node23&#45;&gt;Node2 -->
<g id="edge43_Node000023_Node000002" class="edge">
<title>Node23&#45;&gt;Node2</title>
<g id="a_edge43_Node000023_Node000002"><a xlink:title=" ">
<path fill="none" stroke="#63b8ff" d="M1142.23,-313.24C1155.05,-333.87 1177.5,-370.62 1195.25,-402.93 1230.02,-466.23 1267.43,-543.17 1284.71,-579.31"/>
<polygon fill="#63b8ff" stroke="#63b8ff" points="1281.47,-580.65 1288.94,-588.17 1287.79,-577.64 1281.47,-580.65"/>
</a>
</g>
</g>
<!-- Node23&#45;&gt;Node4 -->
<g id="edge44_Node000023_Node000004" class="edge">
<title>Node23&#45;&gt;Node4</title>
<g id="a_edge44_Node000023_Node000004"><a xlink:title=" ">
<path fill="none" stroke="#63b8ff" d="M1182.53,-296.93C1199.19,-296.93 1217.87,-296.93 1235.13,-296.93"/>
<polygon fill="#63b8ff" stroke="#63b8ff" points="1234.72,-300.43 1244.72,-296.93 1234.72,-293.43 1234.72,-300.43"/>
</a>
</g>
</g>
<!-- Node25 -->
<g id="Node000025" class="node">
<title>Node25</title>
<g id="a_Node000025"><a xlink:href="classxpath__ast__node.html#ae5a059e41b41505bef1f7dbebda8070b" target="_top" xlink:title=" ">
<polygon fill="white" stroke="#666666" points="1353,-896.93 1238,-896.93 1238,-864.93 1353,-864.93 1353,-896.93"/>
<text xml:space="preserve" text-anchor="start" x="1246" y="-883.43" font-family="Helvetica,sans-Serif" font-size="10.00">xpath_ast_node::xpath</text>
<text xml:space="preserve" text-anchor="middle" x="1295.5" y="-871.43" font-family="Helvetica,sans-Serif" font-size="10.00">_ast_node</text>
</a>
</g>
</g>
<!-- Node24&#45;&gt;Node25 -->
<g id="edge46_Node000024_Node000025" class="edge">
<title>Node24&#45;&gt;Node25</title>
<g id="a_edge46_Node000024_Node000025"><a xlink:title=" ">
<path fill="none" stroke="#63b8ff" d="M1160.31,-831.38C1182.04,-839.4 1212.74,-850.74 1239.29,-860.54"/>
<polygon fill="#63b8ff" stroke="#63b8ff" points="1237.98,-863.79 1248.57,-863.97 1240.4,-857.22 1237.98,-863.79"/>
</a>
</g>
</g>
<!-- Node25&#45;&gt;Node25 -->
<g id="edge47_Node000025_Node000025" class="edge">
<title>Node25&#45;&gt;Node25</title>
<g id="a_edge47_Node000025_Node000025"><a xlink:title=" ">
<path fill="none" stroke="#63b8ff" d="M1266.67,-897.37C1261.29,-906.51 1270.9,-914.93 1295.5,-914.93 1308.96,-914.93 1317.93,-912.41 1322.41,-908.63"/>
<polygon fill="#63b8ff" stroke="#63b8ff" points="1325.85,-909.31 1324.08,-898.86 1318.95,-908.13 1325.85,-909.31"/>
</a>
</g>
</g>
<!-- Node27&#45;&gt;Node1 -->
<g id="edge51_Node000027_Node000001" class="edge">
<title>Node27&#45;&gt;Node1</title>
<g id="a_edge51_Node000027_Node000001"><a xlink:title=" ">
<path fill="none" stroke="#63b8ff" d="M793.6,-793.36C742.61,-826.22 619.66,-896.93 505.5,-896.93 364.12,-896.93 364.12,-896.93 364.12,-896.93 242.3,-896.93 127.07,-788.38 80.53,-738.48"/>
<polygon fill="#63b8ff" stroke="#63b8ff" points="83.27,-736.29 73.93,-731.28 78.11,-741.02 83.27,-736.29"/>
</a>
</g>
</g>
<!-- Node27&#45;&gt;Node2 -->
<g id="edge50_Node000027_Node000002" class="edge">
<title>Node27&#45;&gt;Node2</title>
<g id="a_edge50_Node000027_Node000002"><a xlink:title=" ">
<path fill="none" stroke="#63b8ff" d="M870.49,-774.92C913.97,-771.98 977.83,-764.75 1030.75,-746.93 1125.92,-714.87 1226.36,-648.47 1270.88,-617.08"/>
<polygon fill="#63b8ff" stroke="#63b8ff" points="1272.89,-619.94 1279,-611.29 1268.83,-614.24 1272.89,-619.94"/>
</a>
</g>
</g>
<!-- Node29&#45;&gt;Node25 -->
<g id="edge61_Node000029_Node000025" class="edge">
<title>Node29&#45;&gt;Node25</title>
<g id="a_edge61_Node000029_Node000025"><a xlink:title=" ">
<path fill="none" stroke="#63b8ff" d="M557.18,-940.13C619.13,-939.24 726.08,-937.93 817.88,-937.93 817.88,-937.93 817.88,-937.93 971.25,-937.93 1060.54,-937.93 1161.62,-916.57 1226.61,-900.01"/>
<polygon fill="#63b8ff" stroke="#63b8ff" points="1227.25,-903.46 1236.05,-897.56 1225.5,-896.68 1227.25,-903.46"/>
</a>
</g>
</g>
</g>
</svg>

<g id="navigator" transform="translate(0 0)" fill="#404254">
  <rect fill="#f2f5e9" fill-opacity="0.5" stroke="#606060" stroke-width=".5" x="0" y="0" width="60" height="60"/>
  <use id="zoomplus" xlink:href="#zoomPlus" x="17" y="9" onmousedown="handleZoom(evt,'in')"/>
  <use id="zoomminus" xlink:href="#zoomMin" x="42" y="9" onmousedown="handleZoom(evt,'out')"/>
  <use id="reset" xlink:href="#resetDef" x="30" y="36" onmousedown="handleReset()"/>
   <use id="arrowup" xlink:href="#arrowUp" x="0" y="0" onmousedown="handlePan(0,-1)"/>
  <use id="arrowright" xlink:href="#arrowRight" x="0" y="0" onmousedown="handlePan(1,0)"/>
  <use id="arrowdown" xlink:href="#arrowDown" x="0" y="0" onmousedown="handlePan(0,1)"/>
  <use id="arrowleft" xlink:href="#arrowLeft" x="0" y="0" onmousedown="handlePan(-1,0)"/>
</g>
<svg viewBox="0 0 15 15" width="100%" height="30px" preserveAspectRatio="xMaxYMin meet">
 <g id="arrow_out" transform="scale(0.3 0.3)">
  <a xlink:href="structxpath__parser_aebea559423376001c89b19216dfc3012_cgraph_org.svg" target="_base">
   <rect id="button" ry="5" rx="5" y="6" x="6" height="38" width="38"
        fill="#f2f5e9" fill-opacity="0.5" stroke="#606060" stroke-width="1.0"/>
   <path id="arrow"
     d="M 11.500037,31.436501 C 11.940474,20.09759 22.043105,11.32322 32.158766,21.979434 L 37.068811,17.246167 C 37.068811,17.246167 37.088388,32 37.088388,32 L 22.160133,31.978069 C 22.160133,31.978069 26.997745,27.140456 26.997745,27.140456 C 18.528582,18.264221 13.291696,25.230495 11.500037,31.436501 z"
     style="fill:#404040;"/>
  </a>
 </g>
</svg>

<style type='text/css'>
<![CDATA[
[data-mouse-over-selected='false'] { opacity: 0.7; }
[data-mouse-over-selected='true']  { opacity: 1.0; }
]]>
</style>
<script type="application/ecmascript"><![CDATA[
document.addEventListener('DOMContentLoaded', (event) => {
  highlightEdges();
  highlightAdjacentNodes();
});
]]></script>
</svg>
