<?xml version="1.0" encoding="UTF-8" standalone="no"?>
<!DOCTYPE svg PUBLIC "-//W3C//DTD SVG 1.1//EN"
 "http://www.w3.org/Graphics/SVG/1.1/DTD/svg11.dtd">
<!-- Generated by graphviz version 14.1.2 (20260124.0452)
 -->
<!-- Title: wchar_decoder::process Pages: 1 -->
<svg width="494pt" height="66pt"
 viewBox="0.00 0.00 494.00 66.00" xmlns="http://www.w3.org/2000/svg" xmlns:xlink="http://www.w3.org/1999/xlink">
<g id="graph0" class="graph" transform="scale(1 1) rotate(0) translate(4 62)">
<title>wchar_decoder::process</title>
<!-- Node1 -->
<g id="Node000001" class="node">
<title>Node1</title>
<g id="a_Node000001"><a xlink:title=" ">
<polygon fill="#999999" stroke="#666666" points="486.25,-39 363.75,-39 363.75,-19 486.25,-19 486.25,-39"/>
<text xml:space="preserve" text-anchor="middle" x="425" y="-25.5" font-family="Helvetica,sans-Serif" font-size="10.00">wchar_decoder::process</text>
</a>
</g>
</g>
<!-- Node2 -->
<g id="Node000002" class="node">
<title>Node2</title>
<g id="a_Node000002"><a xlink:href="pugixml_8cpp.html#a1f5495dbea9f9b5d93590e5896b118e0" target="_top" xlink:title=" ">
<polygon fill="white" stroke="#666666" points="327.75,-58 251,-58 251,-38 327.75,-38 327.75,-58"/>
<text xml:space="preserve" text-anchor="middle" x="289.38" y="-44.5" font-family="Helvetica,sans-Serif" font-size="10.00">as_utf8_begin</text>
</a>
</g>
</g>
<!-- Node1&#45;&gt;Node2 -->
<g id="edge1_Node000001_Node000002" class="edge">
<title>Node1&#45;&gt;Node2</title>
<g id="a_edge1_Node000001_Node000002"><a xlink:title=" ">
<path fill="none" stroke="#63b8ff" d="M352.15,-39.22C343.87,-40.39 335.71,-41.55 328.15,-42.63"/>
<polygon fill="#63b8ff" stroke="#63b8ff" points="352.54,-42.7 361.94,-37.82 351.55,-35.77 352.54,-42.7"/>
</a>
</g>
</g>
<!-- Node6 -->
<g id="Node000006" class="node">
<title>Node6</title>
<g id="a_Node000006"><a xlink:href="pugixml_8cpp.html#a7f34bdce6ab8f9a6290abae16323023d" target="_top" xlink:title=" ">
<polygon fill="white" stroke="#666666" points="324,-20 254.75,-20 254.75,0 324,0 324,-20"/>
<text xml:space="preserve" text-anchor="middle" x="289.38" y="-6.5" font-family="Helvetica,sans-Serif" font-size="10.00">as_utf8_end</text>
</a>
</g>
</g>
<!-- Node1&#45;&gt;Node6 -->
<g id="edge5_Node000001_Node000006" class="edge">
<title>Node1&#45;&gt;Node6</title>
<g id="a_edge5_Node000001_Node000006"><a xlink:title=" ">
<path fill="none" stroke="#63b8ff" d="M352.11,-18.78C342.47,-17.41 332.97,-16.06 324.42,-14.84"/>
<polygon fill="#63b8ff" stroke="#63b8ff" points="351.55,-22.23 361.94,-20.18 352.54,-15.3 351.55,-22.23"/>
</a>
</g>
</g>
<!-- Node3 -->
<g id="Node000003" class="node">
<title>Node3</title>
<g id="a_Node000003"><a xlink:href="pugixml_8cpp.html#a910e733d5fe47e977a2272b0bdde2721" target="_top" xlink:title=" ">
<polygon fill="white" stroke="#666666" points="201.5,-58 130,-58 130,-38 201.5,-38 201.5,-58"/>
<text xml:space="preserve" text-anchor="middle" x="165.75" y="-44.5" font-family="Helvetica,sans-Serif" font-size="10.00">as_utf8_impl</text>
</a>
</g>
</g>
<!-- Node2&#45;&gt;Node3 -->
<g id="edge2_Node000002_Node000003" class="edge">
<title>Node2&#45;&gt;Node3</title>
<g id="a_edge2_Node000002_Node000003"><a xlink:title=" ">
<path fill="none" stroke="#63b8ff" d="M239.25,-48C226.65,-48 213.36,-48 201.64,-48"/>
<polygon fill="#63b8ff" stroke="#63b8ff" points="239.05,-51.5 249.05,-48 239.05,-44.5 239.05,-51.5"/>
</a>
</g>
</g>
<!-- Node4 -->
<g id="Node000004" class="node">
<title>Node4</title>
<g id="a_Node000004"><a xlink:href="pugixml_8cpp.html#a7ef56215d3592711fc4df8df27a746b4" target="_top" xlink:title=" ">
<polygon fill="white" stroke="#666666" points="215,-20 116.5,-20 116.5,0 215,0 215,-20"/>
<text xml:space="preserve" text-anchor="middle" x="165.75" y="-6.5" font-family="Helvetica,sans-Serif" font-size="10.00">convert_path_heap</text>
</a>
</g>
</g>
<!-- Node2&#45;&gt;Node4 -->
<g id="edge3_Node000002_Node000004" class="edge">
<title>Node2&#45;&gt;Node4</title>
<g id="a_edge3_Node000002_Node000004"><a xlink:title=" ">
<path fill="none" stroke="#63b8ff" d="M244.07,-34.16C229.58,-29.63 213.74,-24.68 200.2,-20.45"/>
<polygon fill="#63b8ff" stroke="#63b8ff" points="242.79,-37.42 253.37,-37.06 244.87,-30.74 242.79,-37.42"/>
</a>
</g>
</g>
<!-- Node5 -->
<g id="Node000005" class="node">
<title>Node5</title>
<g id="a_Node000005"><a xlink:href="pugixml_8cpp.html#aba24a140ea1157f4f4ad45cf7f65538c" target="_top" xlink:title=" ">
<polygon fill="white" stroke="#666666" points="80.5,-20 0,-20 0,0 80.5,0 80.5,-20"/>
<text xml:space="preserve" text-anchor="middle" x="40.25" y="-6.5" font-family="Helvetica,sans-Serif" font-size="10.00">open_file_wide</text>
</a>
</g>
</g>
<!-- Node4&#45;&gt;Node5 -->
<g id="edge4_Node000004_Node000005" class="edge">
<title>Node4&#45;&gt;Node5</title>
<g id="a_edge4_Node000004_Node000005"><a xlink:title=" ">
<path fill="none" stroke="#63b8ff" d="M104.85,-10C96.69,-10 88.49,-10 80.81,-10"/>
<polygon fill="#63b8ff" stroke="#63b8ff" points="104.78,-13.5 114.78,-10 104.78,-6.5 104.78,-13.5"/>
</a>
</g>
</g>
<!-- Node6&#45;&gt;Node3 -->
<g id="edge6_Node000006_Node000003" class="edge">
<title>Node6&#45;&gt;Node3</title>
<g id="a_edge6_Node000006_Node000003"><a xlink:title=" ">
<path fill="none" stroke="#63b8ff" d="M244.07,-23.84C229.58,-28.37 213.74,-33.32 200.2,-37.55"/>
<polygon fill="#63b8ff" stroke="#63b8ff" points="244.87,-27.26 253.37,-20.94 242.79,-20.58 244.87,-27.26"/>
</a>
</g>
</g>
<!-- Node6&#45;&gt;Node4 -->
<g id="edge7_Node000006_Node000004" class="edge">
<title>Node6&#45;&gt;Node4</title>
<g id="a_edge7_Node000006_Node000004"><a xlink:title=" ">
<path fill="none" stroke="#63b8ff" d="M243.02,-10C234.03,-10 224.55,-10 215.45,-10"/>
<polygon fill="#63b8ff" stroke="#63b8ff" points="242.98,-13.5 252.98,-10 242.98,-6.5 242.98,-13.5"/>
</a>
</g>
</g>
</g>
</svg>
