<?xml version="1.0" encoding="UTF-8" standalone="no"?>
<!DOCTYPE svg PUBLIC "-//W3C//DTD SVG 1.1//EN"
 "http://www.w3.org/Graphics/SVG/1.1/DTD/svg11.dtd">
<!-- Generated by graphviz version 14.1.2 (20260124.0452)
 -->
<!-- Title: xpath_parser::parse Pages: 1 -->
<svg width="1343pt" height="1134pt"
 viewBox="0.00 0.00 1343.00 1134.00" xmlns="http://www.w3.org/2000/svg" xmlns:xlink="http://www.w3.org/1999/xlink">
<g id="graph0" class="graph" transform="scale(1 1) rotate(0) translate(4 1130)">
<title>xpath_parser::parse</title>
<!-- Node1 -->
<g id="Node000001" class="node">
<title>Node1</title>
<g id="a_Node000001"><a xlink:title=" ">
<polygon fill="#999999" stroke="#666666" points="102.25,-894 0,-894 0,-874 102.25,-874 102.25,-894"/>
<text xml:space="preserve" text-anchor="middle" x="51.12" y="-880.5" font-family="Helvetica,sans-Serif" font-size="10.00">xpath_parser::parse</text>
</a>
</g>
</g>
<!-- Node2 -->
<g id="Node000002" class="node">
<title>Node2</title>
<g id="a_Node000002"><a xlink:href="structxpath__parser.html#a0a96a8f5a16b2171a83b6ae3bb2ccbba" target="_top" xlink:title=" ">
<polygon fill="white" stroke="#666666" points="1322.62,-523 1224.88,-523 1224.88,-503 1322.62,-503 1322.62,-523"/>
<text xml:space="preserve" text-anchor="middle" x="1273.75" y="-509.5" font-family="Helvetica,sans-Serif" font-size="10.00">xpath_parser::error</text>
</a>
</g>
</g>
<!-- Node1&#45;&gt;Node2 -->
<g id="edge1_Node000001_Node000002" class="edge">
<title>Node1&#45;&gt;Node2</title>
<g id="a_edge1_Node000001_Node000002"><a xlink:title=" ">
<path fill="none" stroke="#63b8ff" d="M57.25,-894.4C80.88,-940.72 184.31,-1126 326.62,-1126 326.62,-1126 326.62,-1126 948.75,-1126 1019.99,-1126 1156.61,-1030.49 1176.5,-1002 1230.97,-923.97 1262.9,-618.99 1270.8,-534.7"/>
<polygon fill="#63b8ff" stroke="#63b8ff" points="1274.28,-535.11 1271.71,-524.83 1267.31,-534.47 1274.28,-535.11"/>
</a>
</g>
</g>
<!-- Node3 -->
<g id="Node000003" class="node">
<title>Node3</title>
<g id="a_Node000003"><a xlink:href="structxpath__parser.html#a7738e256011ca842dc2a0beba78562ed" target="_top" xlink:title=" ">
<polygon fill="white" stroke="#666666" points="240.5,-658 138.25,-658 138.25,-626 240.5,-626 240.5,-658"/>
<text xml:space="preserve" text-anchor="start" x="146.25" y="-644.5" font-family="Helvetica,sans-Serif" font-size="10.00">xpath_parser::parse</text>
<text xml:space="preserve" text-anchor="middle" x="189.38" y="-632.5" font-family="Helvetica,sans-Serif" font-size="10.00">_expression</text>
</a>
</g>
</g>
<!-- Node1&#45;&gt;Node3 -->
<g id="edge2_Node000001_Node000003" class="edge">
<title>Node1&#45;&gt;Node3</title>
<g id="a_edge2_Node000001_Node000003"><a xlink:title=" ">
<path fill="none" stroke="#63b8ff" d="M57.98,-873.6C77.95,-838.14 143.77,-721.22 173.53,-668.36"/>
<polygon fill="#63b8ff" stroke="#63b8ff" points="176.55,-670.15 178.4,-659.71 170.45,-666.71 176.55,-670.15"/>
</a>
</g>
</g>
<!-- Node4 -->
<g id="Node000004" class="node">
<title>Node4</title>
<g id="a_Node000004"><a xlink:href="structxpath__parser.html#a6c99a4ff18254581f34ec6b715885d99" target="_top" xlink:title=" ">
<polygon fill="white" stroke="#666666" points="1170.5,-668 1054,-668 1054,-648 1170.5,-648 1170.5,-668"/>
<text xml:space="preserve" text-anchor="middle" x="1112.25" y="-654.5" font-family="Helvetica,sans-Serif" font-size="10.00">xpath_parser::error_rec</text>
</a>
</g>
</g>
<!-- Node3&#45;&gt;Node4 -->
<g id="edge3_Node000003_Node000004" class="edge">
<title>Node3&#45;&gt;Node4</title>
<g id="a_edge3_Node000003_Node000004"><a xlink:title=" ">
<path fill="none" stroke="#63b8ff" d="M190.63,-658.2C192.27,-703.06 203.48,-829.65 276.5,-891 347.12,-950.33 389.15,-924 481.38,-924 481.38,-924 481.38,-924 790.62,-924 889.85,-924 940.67,-963.98 1012,-895 1082.59,-826.73 983.15,-750.74 1048,-677 1048.57,-676.35 1049.16,-675.73 1049.76,-675.13"/>
<polygon fill="#63b8ff" stroke="#63b8ff" points="1051.57,-678.15 1057.41,-669.31 1047.33,-672.58 1051.57,-678.15"/>
</a>
</g>
</g>
<!-- Node5 -->
<g id="Node000005" class="node">
<title>Node5</title>
<g id="a_Node000005"><a xlink:href="structxpath__parser.html#adcd54e9b508acfe1f040ee7a54b88f2a" target="_top" xlink:title=" ">
<polygon fill="white" stroke="#666666" points="378.75,-864 276.5,-864 276.5,-832 378.75,-832 378.75,-864"/>
<text xml:space="preserve" text-anchor="start" x="284.5" y="-850.5" font-family="Helvetica,sans-Serif" font-size="10.00">xpath_parser::parse</text>
<text xml:space="preserve" text-anchor="middle" x="327.62" y="-838.5" font-family="Helvetica,sans-Serif" font-size="10.00">_expression_rec</text>
</a>
</g>
</g>
<!-- Node3&#45;&gt;Node5 -->
<g id="edge5_Node000003_Node000005" class="edge">
<title>Node3&#45;&gt;Node5</title>
<g id="a_edge5_Node000003_Node000005"><a xlink:title=" ">
<path fill="none" stroke="#63b8ff" d="M201.07,-658.16C224.59,-693.73 280.99,-779.01 309.51,-822.12"/>
<polygon fill="#63b8ff" stroke="#63b8ff" points="306.52,-823.95 314.96,-830.36 312.36,-820.09 306.52,-823.95"/>
</a>
</g>
</g>
<!-- Node11 -->
<g id="Node000011" class="node">
<title>Node11</title>
<g id="a_Node000011"><a xlink:href="structxpath__parser.html#ab5275305ebaac95fd68a3186b737aaa7" target="_top" xlink:title=" ">
<polygon fill="white" stroke="#666666" points="550,-658 414.75,-658 414.75,-626 550,-626 550,-658"/>
<text xml:space="preserve" text-anchor="start" x="422.75" y="-644.5" font-family="Helvetica,sans-Serif" font-size="10.00">xpath_parser::parse</text>
<text xml:space="preserve" text-anchor="middle" x="482.38" y="-632.5" font-family="Helvetica,sans-Serif" font-size="10.00">_path_or_unary_expression</text>
</a>
</g>
</g>
<!-- Node3&#45;&gt;Node11 -->
<g id="edge63_Node000003_Node000011" class="edge">
<title>Node3&#45;&gt;Node11</title>
<g id="a_edge63_Node000003_Node000011"><a xlink:title=" ">
<path fill="none" stroke="#63b8ff" d="M240.73,-636.75C285.42,-635.07 351.43,-634.8 403.02,-635.93"/>
<polygon fill="#63b8ff" stroke="#63b8ff" points="402.87,-639.43 412.95,-636.18 403.04,-632.43 402.87,-639.43"/>
</a>
</g>
</g>
<!-- Node4&#45;&gt;Node2 -->
<g id="edge4_Node000004_Node000002" class="edge">
<title>Node4&#45;&gt;Node2</title>
<g id="a_edge4_Node000004_Node000002"><a xlink:title=" ">
<path fill="none" stroke="#63b8ff" d="M1158.08,-647.62C1164.57,-645.06 1170.93,-641.9 1176.5,-638 1216.15,-610.26 1246.91,-561.28 1262.17,-533.58"/>
<polygon fill="#63b8ff" stroke="#63b8ff" points="1265.24,-535.26 1266.86,-524.8 1259.07,-531.97 1265.24,-535.26"/>
</a>
</g>
</g>
<!-- Node5&#45;&gt;Node2 -->
<g id="edge7_Node000005_Node000002" class="edge">
<title>Node5&#45;&gt;Node2</title>
<g id="a_edge7_Node000005_Node000002"><a xlink:title=" ">
<path fill="none" stroke="#63b8ff" d="M332.97,-864.22C342.41,-896.42 367.81,-968.78 414.75,-1009 495.27,-1078 533.84,-1088 639.88,-1088 639.88,-1088 639.88,-1088 948.75,-1088 1207.79,-1088 1261.99,-639.59 1271.12,-534.74"/>
<polygon fill="#63b8ff" stroke="#63b8ff" points="1274.59,-535.23 1271.92,-524.98 1267.62,-534.66 1274.59,-535.23"/>
</a>
</g>
</g>
<!-- Node5&#45;&gt;Node4 -->
<g id="edge8_Node000005_Node000004" class="edge">
<title>Node5&#45;&gt;Node4</title>
<g id="a_edge8_Node000005_Node000004"><a xlink:title=" ">
<path fill="none" stroke="#63b8ff" d="M379.07,-857.98C440.44,-869.24 547.33,-886 639.88,-886 639.88,-886 639.88,-886 790.62,-886 889.59,-886 939.14,-928.97 1012,-862 1073.67,-805.31 991.79,-739.11 1048,-677 1048.58,-676.36 1049.17,-675.75 1049.79,-675.15"/>
<polygon fill="#63b8ff" stroke="#63b8ff" points="1051.58,-678.18 1057.51,-669.4 1047.4,-672.57 1051.58,-678.18"/>
</a>
</g>
</g>
<!-- Node5&#45;&gt;Node5 -->
<g id="edge13_Node000005_Node000005" class="edge">
<title>Node5&#45;&gt;Node5</title>
<g id="a_edge13_Node000005_Node000005"><a xlink:title=" ">
<path fill="none" stroke="#63b8ff" d="M302.94,-864.44C298.34,-873.58 306.56,-882 327.62,-882 339.14,-882 346.82,-879.48 350.66,-875.71"/>
<polygon fill="#63b8ff" stroke="#63b8ff" points="354.11,-876.34 352.09,-865.94 347.18,-875.33 354.11,-876.34"/>
</a>
</g>
</g>
<!-- Node6 -->
<g id="Node000006" class="node">
<title>Node6</title>
<g id="a_Node000006"><a xlink:href="structxpath__parser.html#a8a71f339a0386657a48b59acb3405acc" target="_top" xlink:title=" ">
<polygon fill="white" stroke="#666666" points="1174.62,-537 1049.88,-537 1049.88,-517 1174.62,-517 1174.62,-537"/>
<text xml:space="preserve" text-anchor="middle" x="1112.25" y="-523.5" font-family="Helvetica,sans-Serif" font-size="10.00">xpath_parser::alloc_node</text>
</a>
</g>
</g>
<!-- Node5&#45;&gt;Node6 -->
<g id="edge6_Node000005_Node000006" class="edge">
<title>Node5&#45;&gt;Node6</title>
<g id="a_edge6_Node000005_Node000006"><a xlink:title=" ">
<path fill="none" stroke="#63b8ff" d="M346.75,-831.73C392.39,-792.52 517.2,-696 639.88,-696 639.88,-696 639.88,-696 790.62,-696 901.29,-696 921.69,-645.96 1012,-582 1029.96,-569.28 1029.11,-559.29 1048,-548 1051.97,-545.63 1056.23,-543.49 1060.61,-541.56"/>
<polygon fill="#63b8ff" stroke="#63b8ff" points="1061.54,-544.96 1069.54,-538.01 1058.95,-538.45 1061.54,-544.96"/>
</a>
</g>
</g>
<!-- Node7 -->
<g id="Node000007" class="node">
<title>Node7</title>
<g id="a_Node000007"><a xlink:href="structxpath__parser_1_1binary__op__t.html#a723f5f2b66df47b4ac74455cb39b9544" target="_top" xlink:title=" ">
<polygon fill="white" stroke="#666666" points="534.62,-1000 430.12,-1000 430.12,-968 534.62,-968 534.62,-1000"/>
<text xml:space="preserve" text-anchor="start" x="438.12" y="-986.5" font-family="Helvetica,sans-Serif" font-size="10.00">xpath_parser::binary</text>
<text xml:space="preserve" text-anchor="middle" x="482.38" y="-974.5" font-family="Helvetica,sans-Serif" font-size="10.00">_op_t::parse</text>
</a>
</g>
</g>
<!-- Node5&#45;&gt;Node7 -->
<g id="edge9_Node000005_Node000007" class="edge">
<title>Node5&#45;&gt;Node7</title>
<g id="a_edge9_Node000005_Node000007"><a xlink:title=" ">
<path fill="none" stroke="#63b8ff" d="M347.05,-864.4C373.77,-888.2 423.45,-932.43 454.33,-959.92"/>
<polygon fill="#63b8ff" stroke="#63b8ff" points="451.96,-962.49 461.75,-966.53 456.61,-957.27 451.96,-962.49"/>
</a>
</g>
</g>
<!-- Node5&#45;&gt;Node11 -->
<g id="edge14_Node000005_Node000011" class="edge">
<title>Node5&#45;&gt;Node11</title>
<g id="a_edge14_Node000005_Node000011"><a xlink:title=" ">
<path fill="none" stroke="#63b8ff" d="M333.74,-831.58C344.4,-799.56 371.62,-727.9 414.75,-682 420.92,-675.43 428.41,-669.57 436.1,-664.49"/>
<polygon fill="#63b8ff" stroke="#63b8ff" points="437.9,-667.49 444.59,-659.27 434.24,-661.53 437.9,-667.49"/>
</a>
</g>
</g>
<!-- Node24 -->
<g id="Node000024" class="node">
<title>Node24</title>
<g id="a_Node000024"><a xlink:href="classxpath__ast__node.html#a2c12e34a46db2a3d0052f9f38bcf1bb6" target="_top" xlink:title=" ">
<polygon fill="white" stroke="#666666" points="1172.75,-629 1051.75,-629 1051.75,-609 1172.75,-609 1172.75,-629"/>
<text xml:space="preserve" text-anchor="middle" x="1112.25" y="-615.5" font-family="Helvetica,sans-Serif" font-size="10.00">xpath_ast_node::rettype</text>
</a>
</g>
</g>
<!-- Node5&#45;&gt;Node24 -->
<g id="edge62_Node000005_Node000024" class="edge">
<title>Node5&#45;&gt;Node24</title>
<g id="a_edge62_Node000005_Node000024"><a xlink:title=" ">
<path fill="none" stroke="#63b8ff" d="M379.03,-848C440.59,-848 547.88,-848 639.88,-848 639.88,-848 639.88,-848 790.62,-848 890.24,-848 939.92,-881.75 1012,-813 1069.14,-758.49 995.09,-697.62 1048,-639 1049,-637.89 1050.06,-636.85 1051.17,-635.86"/>
<polygon fill="#63b8ff" stroke="#63b8ff" points="1053.09,-638.79 1059.31,-630.22 1049.1,-633.04 1053.09,-638.79"/>
</a>
</g>
</g>
<!-- Node8 -->
<g id="Node000008" class="node">
<title>Node8</title>
<g id="a_Node000008"><a xlink:href="structxpath__parser_1_1binary__op__t.html#a18cac63911120c27f5ee842b1e6afe35" target="_top" xlink:title=" ">
<polygon fill="white" stroke="#666666" points="693.12,-1060 588.62,-1060 588.62,-1028 693.12,-1028 693.12,-1060"/>
<text xml:space="preserve" text-anchor="start" x="596.62" y="-1046.5" font-family="Helvetica,sans-Serif" font-size="10.00">xpath_parser::binary</text>
<text xml:space="preserve" text-anchor="middle" x="640.88" y="-1034.5" font-family="Helvetica,sans-Serif" font-size="10.00">_op_t::binary_op_t</text>
</a>
</g>
</g>
<!-- Node7&#45;&gt;Node8 -->
<g id="edge10_Node000007_Node000008" class="edge">
<title>Node7&#45;&gt;Node8</title>
<g id="a_edge10_Node000007_Node000008"><a xlink:title=" ">
<path fill="none" stroke="#63b8ff" d="M526.14,-1000.4C544.69,-1007.51 566.63,-1015.92 586.26,-1023.44"/>
<polygon fill="#63b8ff" stroke="#63b8ff" points="584.89,-1026.67 595.48,-1026.98 587.39,-1020.13 584.89,-1026.67"/>
</a>
</g>
</g>
<!-- Node9 -->
<g id="Node000009" class="node">
<title>Node9</title>
<g id="a_Node000009"><a xlink:href="classxpath__lexer.html#a9a398feb578c697be7067f6f8d178fc9" target="_top" xlink:title=" ">
<polygon fill="white" stroke="#666666" points="695.75,-1010 586,-1010 586,-990 695.75,-990 695.75,-1010"/>
<text xml:space="preserve" text-anchor="middle" x="640.88" y="-996.5" font-family="Helvetica,sans-Serif" font-size="10.00">xpath_lexer::contents</text>
</a>
</g>
</g>
<!-- Node7&#45;&gt;Node9 -->
<g id="edge11_Node000007_Node000009" class="edge">
<title>Node7&#45;&gt;Node9</title>
<g id="a_edge11_Node000007_Node000009"><a xlink:title=" ">
<path fill="none" stroke="#63b8ff" d="M535.05,-989.28C547.59,-990.56 561.15,-991.95 574.23,-993.29"/>
<polygon fill="#63b8ff" stroke="#63b8ff" points="573.76,-996.76 584.06,-994.29 574.47,-989.79 573.76,-996.76"/>
</a>
</g>
</g>
<!-- Node10 -->
<g id="Node000010" class="node">
<title>Node10</title>
<g id="a_Node000010"><a xlink:href="classxpath__lexer.html#a47425d5012741aecfd898306651439d0" target="_top" xlink:title=" ">
<polygon fill="white" stroke="#666666" points="692,-972 589.75,-972 589.75,-952 692,-952 692,-972"/>
<text xml:space="preserve" text-anchor="middle" x="640.88" y="-958.5" font-family="Helvetica,sans-Serif" font-size="10.00">xpath_lexer::current</text>
</a>
</g>
</g>
<!-- Node7&#45;&gt;Node10 -->
<g id="edge12_Node000007_Node000010" class="edge">
<title>Node7&#45;&gt;Node10</title>
<g id="a_edge12_Node000007_Node000010"><a xlink:title=" ">
<path fill="none" stroke="#63b8ff" d="M535.05,-976.74C548.82,-974.8 563.84,-972.69 578.09,-970.69"/>
<polygon fill="#63b8ff" stroke="#63b8ff" points="578.4,-974.18 587.82,-969.32 577.43,-967.24 578.4,-974.18"/>
</a>
</g>
</g>
<!-- Node11&#45;&gt;Node2 -->
<g id="edge16_Node000011_Node000002" class="edge">
<title>Node11&#45;&gt;Node2</title>
<g id="a_edge16_Node000011_Node000002"><a xlink:title=" ">
<path fill="none" stroke="#63b8ff" d="M490.66,-658.1C504.71,-687.23 538.41,-748.58 586,-780 744.48,-884.63 833.71,-878.38 1012,-813 1148.05,-763.11 1236.36,-593.2 1263.7,-533.74"/>
<polygon fill="#63b8ff" stroke="#63b8ff" points="1266.82,-535.33 1267.73,-524.78 1260.44,-532.46 1266.82,-535.33"/>
</a>
</g>
</g>
<!-- Node11&#45;&gt;Node3 -->
<g id="edge17_Node000011_Node000003" class="edge">
<title>Node11&#45;&gt;Node3</title>
<g id="a_edge17_Node000011_Node000003"><a xlink:title=" ">
<path fill="none" stroke="#63b8ff" d="M414.47,-647.78C365.57,-649.12 299.77,-649.07 252.13,-647.64"/>
<polygon fill="#63b8ff" stroke="#63b8ff" points="252.36,-644.14 242.24,-647.31 252.12,-651.14 252.36,-644.14"/>
</a>
</g>
</g>
<!-- Node11&#45;&gt;Node6 -->
<g id="edge15_Node000011_Node000006" class="edge">
<title>Node11&#45;&gt;Node6</title>
<g id="a_edge15_Node000011_Node000006"><a xlink:title=" ">
<path fill="none" stroke="#63b8ff" d="M550.23,-633.7C651.05,-620.59 847.67,-592.63 1012,-555 1030.04,-550.87 1049.69,-545.51 1066.71,-540.59"/>
<polygon fill="#63b8ff" stroke="#63b8ff" points="1067.41,-544.03 1076.02,-537.86 1065.44,-537.31 1067.41,-544.03"/>
</a>
</g>
</g>
<!-- Node12 -->
<g id="Node000012" class="node">
<title>Node12</title>
<g id="a_Node000012"><a xlink:href="structxpath__parser.html#a61a425d990a56d5db8cd14405835a5b6" target="_top" xlink:title=" ">
<polygon fill="white" stroke="#666666" points="692,-484 589.75,-484 589.75,-452 692,-452 692,-484"/>
<text xml:space="preserve" text-anchor="start" x="597.75" y="-470.5" font-family="Helvetica,sans-Serif" font-size="10.00">xpath_parser::parse</text>
<text xml:space="preserve" text-anchor="middle" x="640.88" y="-458.5" font-family="Helvetica,sans-Serif" font-size="10.00">_filter_expression</text>
</a>
</g>
</g>
<!-- Node11&#45;&gt;Node12 -->
<g id="edge18_Node000011_Node000012" class="edge">
<title>Node11&#45;&gt;Node12</title>
<g id="a_edge18_Node000011_Node000012"><a xlink:title=" ">
<path fill="none" stroke="#63b8ff" d="M498.1,-625.63C525.6,-595.06 584.91,-529.12 617.42,-492.96"/>
<polygon fill="#63b8ff" stroke="#63b8ff" points="619.98,-495.35 624.06,-485.58 614.78,-490.67 619.98,-495.35"/>
</a>
</g>
</g>
<!-- Node11&#45;&gt;Node24 -->
<g id="edge61_Node000011_Node000024" class="edge">
<title>Node11&#45;&gt;Node24</title>
<g id="a_edge61_Node000011_Node000024"><a xlink:title=" ">
<path fill="none" stroke="#63b8ff" d="M493.7,-658.2C510.05,-682.32 544.34,-727.07 586,-748 670.93,-790.67 937.23,-844.67 1012,-786 1064.92,-744.48 1002.03,-688.11 1048,-639 1049.02,-637.91 1050.1,-636.88 1051.22,-635.91"/>
<polygon fill="#63b8ff" stroke="#63b8ff" points="1053.13,-638.84 1059.45,-630.34 1049.21,-633.05 1053.13,-638.84"/>
</a>
</g>
</g>
<!-- Node25 -->
<g id="Node000025" class="node">
<title>Node25</title>
<g id="a_Node000025"><a xlink:href="structxpath__parser.html#af14e396ddb7817998ec221eec6b781ab" target="_top" xlink:title=" ">
<polygon fill="white" stroke="#666666" points="692,-571 589.75,-571 589.75,-539 692,-539 692,-571"/>
<text xml:space="preserve" text-anchor="start" x="597.75" y="-557.5" font-family="Helvetica,sans-Serif" font-size="10.00">xpath_parser::parse</text>
<text xml:space="preserve" text-anchor="middle" x="640.88" y="-545.5" font-family="Helvetica,sans-Serif" font-size="10.00">_location_path</text>
</a>
</g>
</g>
<!-- Node11&#45;&gt;Node25 -->
<g id="edge42_Node000011_Node000025" class="edge">
<title>Node11&#45;&gt;Node25</title>
<g id="a_edge42_Node000011_Node000025"><a xlink:title=" ">
<path fill="none" stroke="#63b8ff" d="M512.81,-625.64C537.54,-611.89 573.11,-592.12 600.32,-576.99"/>
<polygon fill="#63b8ff" stroke="#63b8ff" points="601.94,-580.09 608.98,-572.17 598.54,-573.97 601.94,-580.09"/>
</a>
</g>
</g>
<!-- Node26 -->
<g id="Node000026" class="node">
<title>Node26</title>
<g id="a_Node000026"><a xlink:href="structxpath__parser.html#aebea559423376001c89b19216dfc3012" target="_top" xlink:title=" ">
<polygon fill="white" stroke="#666666" points="847.5,-571 731.75,-571 731.75,-539 847.5,-539 847.5,-571"/>
<text xml:space="preserve" text-anchor="start" x="739.75" y="-557.5" font-family="Helvetica,sans-Serif" font-size="10.00">xpath_parser::parse</text>
<text xml:space="preserve" text-anchor="middle" x="789.62" y="-545.5" font-family="Helvetica,sans-Serif" font-size="10.00">_relative_location_path</text>
</a>
</g>
</g>
<!-- Node11&#45;&gt;Node26 -->
<g id="edge60_Node000011_Node000026" class="edge">
<title>Node11&#45;&gt;Node26</title>
<g id="a_edge60_Node000011_Node000026"><a xlink:title=" ">
<path fill="none" stroke="#63b8ff" d="M541.15,-625.53C592.17,-610.99 666.61,-589.78 720.51,-574.41"/>
<polygon fill="#63b8ff" stroke="#63b8ff" points="721.23,-577.85 729.89,-571.74 719.31,-571.12 721.23,-577.85"/>
</a>
</g>
</g>
<!-- Node29 -->
<g id="Node000029" class="node">
<title>Node29</title>
<g id="a_Node000029"><a xlink:href="structxpath__parser.html#a7b4555d7bfdb90971333c46963d5d791" target="_top" xlink:title=" ">
<polygon fill="white" stroke="#666666" points="1163.38,-589 1061.12,-589 1061.12,-557 1163.38,-557 1163.38,-589"/>
<text xml:space="preserve" text-anchor="start" x="1069.12" y="-575.5" font-family="Helvetica,sans-Serif" font-size="10.00">xpath_parser::parse</text>
<text xml:space="preserve" text-anchor="middle" x="1112.25" y="-563.5" font-family="Helvetica,sans-Serif" font-size="10.00">_node_test_type</text>
</a>
</g>
</g>
<!-- Node11&#45;&gt;Node29 -->
<g id="edge59_Node000011_Node000029" class="edge">
<title>Node11&#45;&gt;Node29</title>
<g id="a_edge59_Node000011_Node000029"><a xlink:title=" ">
<path fill="none" stroke="#63b8ff" d="M512.29,-658.35C597.92,-704.38 854.11,-824.46 1012,-710 1053.65,-679.81 1013.25,-637.92 1048,-600 1049.3,-598.58 1050.69,-597.23 1052.16,-595.95"/>
<polygon fill="#63b8ff" stroke="#63b8ff" points="1053.97,-598.96 1059.97,-590.23 1049.84,-593.31 1053.97,-598.96"/>
</a>
</g>
</g>
<!-- Node12&#45;&gt;Node2 -->
<g id="edge20_Node000012_Node000002" class="edge">
<title>Node12&#45;&gt;Node2</title>
<g id="a_edge20_Node000012_Node000002"><a xlink:title=" ">
<path fill="none" stroke="#63b8ff" d="M668.75,-451.64C750.34,-404.29 1000.33,-276.22 1176.5,-370 1225.44,-396.05 1253.95,-459.28 1265.97,-492.24"/>
<polygon fill="#63b8ff" stroke="#63b8ff" points="1262.59,-493.16 1269.17,-501.46 1269.2,-490.86 1262.59,-493.16"/>
</a>
</g>
</g>
<!-- Node12&#45;&gt;Node3 -->
<g id="edge22_Node000012_Node000003" class="edge">
<title>Node12&#45;&gt;Node3</title>
<g id="a_edge22_Node000012_Node000003"><a xlink:title=" ">
<path fill="none" stroke="#63b8ff" d="M597.37,-484.45C514.87,-516.39 333.26,-586.69 243.18,-621.56"/>
<polygon fill="#63b8ff" stroke="#63b8ff" points="242.14,-618.21 234.07,-625.08 244.66,-624.74 242.14,-618.21"/>
</a>
</g>
</g>
<!-- Node12&#45;&gt;Node4 -->
<g id="edge21_Node000012_Node000004" class="edge">
<title>Node12&#45;&gt;Node4</title>
<g id="a_edge21_Node000012_Node000004"><a xlink:title=" ">
<path fill="none" stroke="#63b8ff" d="M656.93,-484.49C667.98,-496.78 683.18,-514.12 695.75,-530 712.75,-551.47 709.57,-563.94 731.75,-580 824.25,-646.96 960.96,-659.41 1042.56,-660.2"/>
<polygon fill="#63b8ff" stroke="#63b8ff" points="1042.18,-663.7 1052.19,-660.24 1042.2,-656.7 1042.18,-663.7"/>
</a>
</g>
</g>
<!-- Node12&#45;&gt;Node6 -->
<g id="edge19_Node000012_Node000006" class="edge">
<title>Node12&#45;&gt;Node6</title>
<g id="a_edge19_Node000012_Node000006"><a xlink:title=" ">
<path fill="none" stroke="#63b8ff" d="M690.3,-451.51C764.48,-429.32 908.53,-398.63 1012,-454 1037.43,-467.61 1024.82,-490.84 1048,-508 1049.73,-509.28 1051.54,-510.47 1053.42,-511.59"/>
<polygon fill="#63b8ff" stroke="#63b8ff" points="1051.39,-514.48 1061.89,-515.84 1054.53,-508.23 1051.39,-514.48"/>
</a>
</g>
</g>
<!-- Node13 -->
<g id="Node000013" class="node">
<title>Node13</title>
<g id="a_Node000013"><a xlink:href="structxpath__parser.html#a49cbc6141508ace22ab4b8bd8ddf965a" target="_top" xlink:title=" ">
<polygon fill="white" stroke="#666666" points="842.62,-244 736.62,-244 736.62,-212 842.62,-212 842.62,-244"/>
<text xml:space="preserve" text-anchor="start" x="744.62" y="-230.5" font-family="Helvetica,sans-Serif" font-size="10.00">xpath_parser::parse</text>
<text xml:space="preserve" text-anchor="middle" x="789.62" y="-218.5" font-family="Helvetica,sans-Serif" font-size="10.00">_primary_expression</text>
</a>
</g>
</g>
<!-- Node12&#45;&gt;Node13 -->
<g id="edge23_Node000012_Node000013" class="edge">
<title>Node12&#45;&gt;Node13</title>
<g id="a_edge23_Node000012_Node000013"><a xlink:title=" ">
<path fill="none" stroke="#63b8ff" d="M651.96,-451.5C677.05,-410.47 742.43,-303.56 772.75,-253.96"/>
<polygon fill="#63b8ff" stroke="#63b8ff" points="775.64,-255.94 777.87,-245.59 769.67,-252.29 775.64,-255.94"/>
</a>
</g>
</g>
<!-- Node12&#45;&gt;Node24 -->
<g id="edge41_Node000012_Node000024" class="edge">
<title>Node12&#45;&gt;Node24</title>
<g id="a_edge41_Node000012_Node000024"><a xlink:title=" ">
<path fill="none" stroke="#63b8ff" d="M692.3,-482.68C734.02,-494.96 794.77,-513.11 847.5,-530 937.11,-558.7 958.79,-568.06 1048,-598 1054.77,-600.27 1061.94,-602.67 1068.94,-605"/>
<polygon fill="#63b8ff" stroke="#63b8ff" points="1067.68,-608.26 1078.27,-608.09 1069.89,-601.62 1067.68,-608.26"/>
</a>
</g>
</g>
<!-- Node13&#45;&gt;Node2 -->
<g id="edge30_Node000013_Node000002" class="edge">
<title>Node13&#45;&gt;Node2</title>
<g id="a_edge30_Node000013_Node000002"><a xlink:title=" ">
<path fill="none" stroke="#63b8ff" d="M822.68,-211.53C894.84,-177.03 1071.92,-107.05 1176.5,-192 1237.12,-241.24 1189.77,-289.28 1212.5,-364 1226.85,-411.16 1250.08,-464.19 1263.11,-492.53"/>
<polygon fill="#63b8ff" stroke="#63b8ff" points="1259.84,-493.79 1267.22,-501.38 1266.18,-490.84 1259.84,-493.79"/>
</a>
</g>
</g>
<!-- Node13&#45;&gt;Node3 -->
<g id="edge34_Node000013_Node000003" class="edge">
<title>Node13&#45;&gt;Node3</title>
<g id="a_edge34_Node000013_Node000003"><a xlink:title=" ">
<path fill="none" stroke="#63b8ff" d="M736.24,-218.46C633.92,-203.06 406.17,-185.23 276.5,-302 229.57,-344.27 202.14,-541.3 193.43,-614.51"/>
<polygon fill="#63b8ff" stroke="#63b8ff" points="190,-613.7 192.32,-624.04 196.95,-614.51 190,-613.7"/>
</a>
</g>
</g>
<!-- Node13&#45;&gt;Node4 -->
<g id="edge32_Node000013_Node000004" class="edge">
<title>Node13&#45;&gt;Node4</title>
<g id="a_edge32_Node000013_Node000004"><a xlink:title=" ">
<path fill="none" stroke="#63b8ff" d="M797.88,-244.37C812.53,-276.95 847.38,-351.86 883.5,-411 891.62,-424.29 1035.37,-628.89 1048,-638 1050.45,-639.77 1053.07,-641.39 1055.79,-642.87"/>
<polygon fill="#63b8ff" stroke="#63b8ff" points="1054.08,-645.93 1064.62,-646.99 1057.04,-639.59 1054.08,-645.93"/>
</a>
</g>
</g>
<!-- Node13&#45;&gt;Node6 -->
<g id="edge24_Node000013_Node000006" class="edge">
<title>Node13&#45;&gt;Node6</title>
<g id="a_edge24_Node000013_Node000006"><a xlink:title=" ">
<path fill="none" stroke="#63b8ff" d="M811.2,-244.26C829.73,-258.67 857.9,-279.99 883.5,-297 938.76,-333.72 971.92,-320.12 1012,-373 1049.51,-422.48 1004.78,-463.41 1048,-508 1048.73,-508.76 1049.5,-509.48 1050.28,-510.18"/>
<polygon fill="#63b8ff" stroke="#63b8ff" points="1048.12,-512.94 1058.33,-515.75 1052.1,-507.18 1048.12,-512.94"/>
</a>
</g>
</g>
<!-- Node14 -->
<g id="Node000014" class="node">
<title>Node14</title>
<g id="a_Node000014"><a xlink:href="structxpath__parser.html#a876c0c06a8cdc623926c8788e8d43fc3" target="_top" xlink:title=" ">
<polygon fill="white" stroke="#666666" points="1161.5,-233 1063,-233 1063,-201 1161.5,-201 1161.5,-233"/>
<text xml:space="preserve" text-anchor="start" x="1071" y="-219.5" font-family="Helvetica,sans-Serif" font-size="10.00">xpath_parser::alloc</text>
<text xml:space="preserve" text-anchor="middle" x="1112.25" y="-207.5" font-family="Helvetica,sans-Serif" font-size="10.00">_string</text>
</a>
</g>
</g>
<!-- Node13&#45;&gt;Node14 -->
<g id="edge25_Node000013_Node000014" class="edge">
<title>Node13&#45;&gt;Node14</title>
<g id="a_edge25_Node000013_Node000014"><a xlink:title=" ">
<path fill="none" stroke="#63b8ff" d="M842.9,-215.39C856.07,-212.74 870.24,-210.34 883.5,-209 940.29,-203.25 1005.41,-206.52 1051.43,-210.47"/>
<polygon fill="#63b8ff" stroke="#63b8ff" points="1050.92,-213.94 1061.19,-211.35 1051.54,-206.97 1050.92,-213.94"/>
</a>
</g>
</g>
<!-- Node15 -->
<g id="Node000015" class="node">
<title>Node15</title>
<g id="a_Node000015"><a xlink:href="pugixml_8cpp.html#a1a1fca8011d76ef218f46957cf16cd1e" target="_top" xlink:title=" ">
<polygon fill="white" stroke="#666666" points="1012,-48 883.5,-48 883.5,-16 1012,-16 1012,-48"/>
<text xml:space="preserve" text-anchor="start" x="891.5" y="-34.5" font-family="Helvetica,sans-Serif" font-size="10.00">convert_string_to_number</text>
<text xml:space="preserve" text-anchor="middle" x="947.75" y="-22.5" font-family="Helvetica,sans-Serif" font-size="10.00">_scratch</text>
</a>
</g>
</g>
<!-- Node13&#45;&gt;Node15 -->
<g id="edge26_Node000013_Node000015" class="edge">
<title>Node13&#45;&gt;Node15</title>
<g id="a_edge26_Node000013_Node000015"><a xlink:title=" ">
<path fill="none" stroke="#63b8ff" d="M795.29,-211.71C805.68,-178.21 833.8,-101.01 883.5,-57 884.41,-56.2 885.34,-55.42 886.3,-54.66"/>
<polygon fill="#63b8ff" stroke="#63b8ff" points="887.9,-57.81 894.26,-49.33 884,-51.99 887.9,-57.81"/>
</a>
</g>
</g>
<!-- Node19 -->
<g id="Node000019" class="node">
<title>Node19</title>
<g id="a_Node000019"><a xlink:href="structxpath__parser.html#a253554c10701671465d3eab96e464c93" target="_top" xlink:title=" ">
<polygon fill="white" stroke="#666666" points="1008.62,-238 886.88,-238 886.88,-218 1008.62,-218 1008.62,-238"/>
<text xml:space="preserve" text-anchor="middle" x="947.75" y="-224.5" font-family="Helvetica,sans-Serif" font-size="10.00">xpath_parser::error_oom</text>
</a>
</g>
</g>
<!-- Node13&#45;&gt;Node19 -->
<g id="edge31_Node000013_Node000019" class="edge">
<title>Node13&#45;&gt;Node19</title>
<g id="a_edge31_Node000013_Node000019"><a xlink:title=" ">
<path fill="none" stroke="#63b8ff" d="M843.05,-228C853.37,-228 864.36,-228 875.19,-228"/>
<polygon fill="#63b8ff" stroke="#63b8ff" points="874.86,-231.5 884.86,-228 874.86,-224.5 874.86,-231.5"/>
</a>
</g>
</g>
<!-- Node20 -->
<g id="Node000020" class="node">
<title>Node20</title>
<g id="a_Node000020"><a xlink:href="pugixml_8cpp.html#a046d19e3dedb7e154882fe5ad4647e25" target="_top" xlink:title=" ">
<polygon fill="white" stroke="#666666" points="1000.75,-86 894.75,-86 894.75,-66 1000.75,-66 1000.75,-86"/>
<text xml:space="preserve" text-anchor="middle" x="947.75" y="-72.5" font-family="Helvetica,sans-Serif" font-size="10.00">get_variable_scratch</text>
</a>
</g>
</g>
<!-- Node13&#45;&gt;Node20 -->
<g id="edge33_Node000013_Node000020" class="edge">
<title>Node13&#45;&gt;Node20</title>
<g id="a_edge33_Node000013_Node000020"><a xlink:title=" ">
<path fill="none" stroke="#63b8ff" d="M798.34,-211.91C811.96,-185.11 842.72,-131.19 883.5,-100 887.99,-96.57 893.03,-93.57 898.25,-90.98"/>
<polygon fill="#63b8ff" stroke="#63b8ff" points="899.32,-94.34 907.04,-87.08 896.48,-87.94 899.32,-94.34"/>
</a>
</g>
</g>
<!-- Node21 -->
<g id="Node000021" class="node">
<title>Node21</title>
<g id="a_Node000021"><a xlink:href="structxpath__parser.html#a9a68f1cbf9900714aefe00059a66a22d" target="_top" xlink:title=" ">
<polygon fill="white" stroke="#666666" points="998.88,-288 896.62,-288 896.62,-256 998.88,-256 998.88,-288"/>
<text xml:space="preserve" text-anchor="start" x="904.62" y="-274.5" font-family="Helvetica,sans-Serif" font-size="10.00">xpath_parser::parse</text>
<text xml:space="preserve" text-anchor="middle" x="947.75" y="-262.5" font-family="Helvetica,sans-Serif" font-size="10.00">_function</text>
</a>
</g>
</g>
<!-- Node13&#45;&gt;Node21 -->
<g id="edge35_Node000013_Node000021" class="edge">
<title>Node13&#45;&gt;Node21</title>
<g id="a_edge35_Node000013_Node000021"><a xlink:title=" ">
<path fill="none" stroke="#63b8ff" d="M843.05,-242.77C856.61,-246.6 871.33,-250.74 885.31,-254.68"/>
<polygon fill="#63b8ff" stroke="#63b8ff" points="884.29,-258.03 894.86,-257.38 886.19,-251.3 884.29,-258.03"/>
</a>
</g>
</g>
<!-- Node22 -->
<g id="Node000022" class="node">
<title>Node22</title>
<g id="a_Node000022"><a xlink:href="classxpath__ast__node.html#a2764184d076834284eb3ff3182b845cc" target="_top" xlink:title=" ">
<polygon fill="white" stroke="#666666" points="1176.5,-124 1048,-124 1048,-104 1176.5,-104 1176.5,-124"/>
<text xml:space="preserve" text-anchor="middle" x="1112.25" y="-110.5" font-family="Helvetica,sans-Serif" font-size="10.00">xpath_ast_node::set_next</text>
</a>
</g>
</g>
<!-- Node13&#45;&gt;Node22 -->
<g id="edge38_Node000013_Node000022" class="edge">
<title>Node13&#45;&gt;Node22</title>
<g id="a_edge38_Node000013_Node000022"><a xlink:title=" ">
<path fill="none" stroke="#63b8ff" d="M801.94,-211.67C817.57,-190.59 847.91,-154.64 883.5,-138 931.15,-115.72 990.37,-110.06 1036.48,-109.79"/>
<polygon fill="#63b8ff" stroke="#63b8ff" points="1036.38,-113.29 1046.39,-109.83 1036.4,-106.29 1036.38,-113.29"/>
</a>
</g>
</g>
<!-- Node16 -->
<g id="Node000016" class="node">
<title>Node16</title>
<g id="a_Node000016"><a xlink:href="pugixml_8cpp.html#ae6299198941714e42acefb1481370646" target="_top" xlink:title=" ">
<polygon fill="white" stroke="#666666" points="1176.5,-42 1048,-42 1048,-22 1176.5,-22 1176.5,-42"/>
<text xml:space="preserve" text-anchor="middle" x="1112.25" y="-28.5" font-family="Helvetica,sans-Serif" font-size="10.00">convert_string_to_number</text>
</a>
</g>
</g>
<!-- Node15&#45;&gt;Node16 -->
<g id="edge27_Node000015_Node000016" class="edge">
<title>Node15&#45;&gt;Node16</title>
<g id="a_edge27_Node000015_Node000016"><a xlink:title=" ">
<path fill="none" stroke="#63b8ff" d="M1012.04,-32C1019.98,-32 1028.15,-32 1036.24,-32"/>
<polygon fill="#63b8ff" stroke="#63b8ff" points="1036.08,-35.5 1046.08,-32 1036.08,-28.5 1036.08,-35.5"/>
</a>
</g>
</g>
<!-- Node17 -->
<g id="Node000017" class="node">
<title>Node17</title>
<g id="a_Node000017"><a xlink:href="pugixml_8cpp.html#a0bf9a61bcf9eb4888ef36942e5cd8d05" target="_top" xlink:title=" ">
<polygon fill="white" stroke="#666666" points="1335,-70 1212.5,-70 1212.5,-38 1335,-38 1335,-70"/>
<text xml:space="preserve" text-anchor="start" x="1220.5" y="-56.5" font-family="Helvetica,sans-Serif" font-size="10.00">check_string_to_number</text>
<text xml:space="preserve" text-anchor="middle" x="1273.75" y="-44.5" font-family="Helvetica,sans-Serif" font-size="10.00">_format</text>
</a>
</g>
</g>
<!-- Node16&#45;&gt;Node17 -->
<g id="edge28_Node000016_Node000017" class="edge">
<title>Node16&#45;&gt;Node17</title>
<g id="a_edge28_Node000016_Node000017"><a xlink:title=" ">
<path fill="none" stroke="#63b8ff" d="M1176.75,-40.76C1184.66,-41.85 1192.79,-42.97 1200.82,-44.08"/>
<polygon fill="#63b8ff" stroke="#63b8ff" points="1200.18,-47.52 1210.57,-45.42 1201.14,-40.59 1200.18,-47.52"/>
</a>
</g>
</g>
<!-- Node18 -->
<g id="Node000018" class="node">
<title>Node18</title>
<g id="a_Node000018"><a xlink:href="pugixml_8cpp.html#a2f4c7e7ca3a98b25cbfa5d98dd21b300" target="_top" xlink:title=" ">
<polygon fill="white" stroke="#666666" points="1300.12,-20 1247.38,-20 1247.38,0 1300.12,0 1300.12,-20"/>
<text xml:space="preserve" text-anchor="middle" x="1273.75" y="-6.5" font-family="Helvetica,sans-Serif" font-size="10.00">gen_nan</text>
</a>
</g>
</g>
<!-- Node16&#45;&gt;Node18 -->
<g id="edge29_Node000016_Node000018" class="edge">
<title>Node16&#45;&gt;Node18</title>
<g id="a_edge29_Node000016_Node000018"><a xlink:title=" ">
<path fill="none" stroke="#63b8ff" d="M1176.75,-23.24C1196.89,-20.46 1218.48,-17.49 1236.07,-15.06"/>
<polygon fill="#63b8ff" stroke="#63b8ff" points="1236.34,-18.55 1245.77,-13.72 1235.39,-11.62 1236.34,-18.55"/>
</a>
</g>
</g>
<!-- Node21&#45;&gt;Node2 -->
<g id="edge37_Node000021_Node000002" class="edge">
<title>Node21&#45;&gt;Node2</title>
<g id="a_edge37_Node000021_Node000002"><a xlink:title=" ">
<path fill="none" stroke="#63b8ff" d="M999.13,-275.24C1048.99,-280.81 1125.1,-295.93 1176.5,-337 1228.08,-378.21 1256.05,-454.9 1267.09,-491.92"/>
<polygon fill="#63b8ff" stroke="#63b8ff" points="1263.68,-492.73 1269.78,-501.39 1270.41,-490.82 1263.68,-492.73"/>
</a>
</g>
</g>
<!-- Node21&#45;&gt;Node6 -->
<g id="edge36_Node000021_Node000006" class="edge">
<title>Node21&#45;&gt;Node6</title>
<g id="a_edge36_Node000021_Node000006"><a xlink:title=" ">
<path fill="none" stroke="#63b8ff" d="M996.7,-288.4C1002.53,-292.1 1007.88,-296.58 1012,-302 1068.28,-375.96 986.3,-438.49 1048,-508 1048.57,-508.64 1049.16,-509.26 1049.77,-509.87"/>
<polygon fill="#63b8ff" stroke="#63b8ff" points="1047.36,-512.43 1057.44,-515.66 1051.57,-506.84 1047.36,-512.43"/>
</a>
</g>
</g>
<!-- Node23 -->
<g id="Node000023" class="node">
<title>Node23</title>
<g id="a_Node000023"><a xlink:href="classxpath__ast__node.html#ae5a059e41b41505bef1f7dbebda8070b" target="_top" xlink:title=" ">
<polygon fill="white" stroke="#666666" points="1331.25,-337 1216.25,-337 1216.25,-305 1331.25,-305 1331.25,-337"/>
<text xml:space="preserve" text-anchor="start" x="1224.25" y="-323.5" font-family="Helvetica,sans-Serif" font-size="10.00">xpath_ast_node::xpath</text>
<text xml:space="preserve" text-anchor="middle" x="1273.75" y="-311.5" font-family="Helvetica,sans-Serif" font-size="10.00">_ast_node</text>
</a>
</g>
</g>
<!-- Node22&#45;&gt;Node23 -->
<g id="edge39_Node000022_Node000023" class="edge">
<title>Node22&#45;&gt;Node23</title>
<g id="a_edge39_Node000022_Node000023"><a xlink:title=" ">
<path fill="none" stroke="#63b8ff" d="M1153.83,-124.41C1161.96,-127.8 1169.99,-132.24 1176.5,-138 1224.95,-180.9 1252.9,-254.13 1265.19,-293.7"/>
<polygon fill="#63b8ff" stroke="#63b8ff" points="1261.79,-294.57 1268.01,-303.15 1268.5,-292.57 1261.79,-294.57"/>
</a>
</g>
</g>
<!-- Node23&#45;&gt;Node23 -->
<g id="edge40_Node000023_Node000023" class="edge">
<title>Node23&#45;&gt;Node23</title>
<g id="a_edge40_Node000023_Node000023"><a xlink:title=" ">
<path fill="none" stroke="#63b8ff" d="M1244.92,-337.44C1239.54,-346.58 1249.15,-355 1273.75,-355 1287.21,-355 1296.18,-352.48 1300.66,-348.71"/>
<polygon fill="#63b8ff" stroke="#63b8ff" points="1304.1,-349.38 1302.33,-338.93 1297.2,-348.2 1304.1,-349.38"/>
</a>
</g>
</g>
<!-- Node25&#45;&gt;Node6 -->
<g id="edge43_Node000025_Node000006" class="edge">
<title>Node25&#45;&gt;Node6</title>
<g id="a_edge43_Node000025_Node000006"><a xlink:title=" ">
<path fill="none" stroke="#63b8ff" d="M691.77,-538.61C704.65,-535.08 718.6,-531.85 731.75,-530 837.41,-515.15 961.25,-517.89 1037.99,-521.9"/>
<polygon fill="#63b8ff" stroke="#63b8ff" points="1037.74,-525.4 1047.92,-522.45 1038.12,-518.41 1037.74,-525.4"/>
</a>
</g>
</g>
<!-- Node25&#45;&gt;Node26 -->
<g id="edge44_Node000025_Node000026" class="edge">
<title>Node25&#45;&gt;Node26</title>
<g id="a_edge44_Node000025_Node000026"><a xlink:title=" ">
<path fill="none" stroke="#63b8ff" d="M692.38,-555C701.34,-555 710.8,-555 720.16,-555"/>
<polygon fill="#63b8ff" stroke="#63b8ff" points="719.97,-558.5 729.97,-555 719.97,-551.5 719.97,-558.5"/>
</a>
</g>
</g>
<!-- Node26&#45;&gt;Node4 -->
<g id="edge46_Node000026_Node000004" class="edge">
<title>Node26&#45;&gt;Node4</title>
<g id="a_edge46_Node000026_Node000004"><a xlink:title=" ">
<path fill="none" stroke="#63b8ff" d="M824.53,-571.43C841.91,-579.48 863.57,-588.93 883.5,-596 940.41,-616.18 1007.26,-633.67 1053.75,-644.88"/>
<polygon fill="#63b8ff" stroke="#63b8ff" points="1052.81,-648.25 1063.35,-647.17 1054.44,-641.45 1052.81,-648.25"/>
</a>
</g>
</g>
<!-- Node26&#45;&gt;Node6 -->
<g id="edge45_Node000026_Node000006" class="edge">
<title>Node26&#45;&gt;Node6</title>
<g id="a_edge45_Node000026_Node000006"><a xlink:title=" ">
<path fill="none" stroke="#63b8ff" d="M847.95,-549.99C901.14,-545.35 980.57,-538.41 1038.27,-533.37"/>
<polygon fill="#63b8ff" stroke="#63b8ff" points="1038.34,-536.88 1048,-532.52 1037.73,-529.91 1038.34,-536.88"/>
</a>
</g>
</g>
<!-- Node27 -->
<g id="Node000027" class="node">
<title>Node27</title>
<g id="a_Node000027"><a xlink:href="structxpath__parser.html#a0b226e2905970c868ab6a80d76da3a95" target="_top" xlink:title=" ">
<polygon fill="white" stroke="#666666" points="1010.88,-402 884.62,-402 884.62,-382 1010.88,-382 1010.88,-402"/>
<text xml:space="preserve" text-anchor="middle" x="947.75" y="-388.5" font-family="Helvetica,sans-Serif" font-size="10.00">xpath_parser::parse_step</text>
</a>
</g>
</g>
<!-- Node26&#45;&gt;Node27 -->
<g id="edge47_Node000026_Node000027" class="edge">
<title>Node26&#45;&gt;Node27</title>
<g id="a_edge47_Node000026_Node000027"><a xlink:title=" ">
<path fill="none" stroke="#63b8ff" d="M806.17,-538.78C835.35,-508.3 898.19,-442.7 929,-410.54"/>
<polygon fill="#63b8ff" stroke="#63b8ff" points="931.34,-413.15 935.73,-403.5 926.29,-408.3 931.34,-413.15"/>
</a>
</g>
</g>
<!-- Node27&#45;&gt;Node2 -->
<g id="edge50_Node000027_Node000002" class="edge">
<title>Node27&#45;&gt;Node2</title>
<g id="a_edge50_Node000027_Node000002"><a xlink:title=" ">
<path fill="none" stroke="#63b8ff" d="M985.54,-402.42C1047.68,-420.04 1167.54,-454.21 1176.5,-458 1201.77,-468.7 1228.75,-484.55 1247.7,-496.48"/>
<polygon fill="#63b8ff" stroke="#63b8ff" points="1245.75,-499.39 1256.06,-501.84 1249.53,-493.5 1245.75,-499.39"/>
</a>
</g>
</g>
<!-- Node27&#45;&gt;Node3 -->
<g id="edge53_Node000027_Node000003" class="edge">
<title>Node27&#45;&gt;Node3</title>
<g id="a_edge53_Node000027_Node000003"><a xlink:title=" ">
<path fill="none" stroke="#63b8ff" d="M922.37,-381.59C871.33,-360.78 749.06,-316 641.88,-316 481.38,-316 481.38,-316 481.38,-316 321.21,-316 227.31,-537.71 199.3,-615.45"/>
<polygon fill="#63b8ff" stroke="#63b8ff" points="196.17,-613.81 196.15,-624.41 202.77,-616.13 196.17,-613.81"/>
</a>
</g>
</g>
<!-- Node27&#45;&gt;Node4 -->
<g id="edge51_Node000027_Node000004" class="edge">
<title>Node27&#45;&gt;Node4</title>
<g id="a_edge51_Node000027_Node000004"><a xlink:title=" ">
<path fill="none" stroke="#63b8ff" d="M952.33,-402.34C967.83,-446.84 1029.16,-620.56 1048,-638 1049.45,-639.34 1051,-640.6 1052.61,-641.77"/>
<polygon fill="#63b8ff" stroke="#63b8ff" points="1050.81,-644.77 1061.2,-646.82 1054.36,-638.74 1050.81,-644.77"/>
</a>
</g>
</g>
<!-- Node27&#45;&gt;Node6 -->
<g id="edge48_Node000027_Node000006" class="edge">
<title>Node27&#45;&gt;Node6</title>
<g id="a_edge48_Node000027_Node000006"><a xlink:title=" ">
<path fill="none" stroke="#63b8ff" d="M991.15,-402.44C998.78,-405.8 1006.16,-410.22 1012,-416 1043.21,-446.89 1015.72,-478.24 1048,-508 1048.93,-508.85 1049.89,-509.67 1050.89,-510.45"/>
<polygon fill="#63b8ff" stroke="#63b8ff" points="1048.98,-513.38 1059.31,-515.72 1052.69,-507.45 1048.98,-513.38"/>
</a>
</g>
</g>
<!-- Node27&#45;&gt;Node14 -->
<g id="edge49_Node000027_Node000014" class="edge">
<title>Node27&#45;&gt;Node14</title>
<g id="a_edge49_Node000027_Node000014"><a xlink:title=" ">
<path fill="none" stroke="#63b8ff" d="M958.43,-381.58C983.71,-354.35 1052.27,-280.52 1088.34,-241.67"/>
<polygon fill="#63b8ff" stroke="#63b8ff" points="1090.67,-244.31 1094.91,-234.6 1085.54,-239.54 1090.67,-244.31"/>
</a>
</g>
</g>
<!-- Node27&#45;&gt;Node22 -->
<g id="edge56_Node000027_Node000022" class="edge">
<title>Node27&#45;&gt;Node22</title>
<g id="a_edge56_Node000027_Node000022"><a xlink:title=" ">
<path fill="none" stroke="#63b8ff" d="M956.9,-381.72C969.96,-364.84 995.76,-329.86 1012,-297 1033.85,-252.77 1024.1,-235.16 1048,-192 1060.31,-169.77 1079.11,-147.57 1093.01,-132.57"/>
<polygon fill="#63b8ff" stroke="#63b8ff" points="1095.55,-134.99 1099.89,-125.32 1090.47,-130.17 1095.55,-134.99"/>
</a>
</g>
</g>
<!-- Node27&#45;&gt;Node24 -->
<g id="edge55_Node000027_Node000024" class="edge">
<title>Node27&#45;&gt;Node24</title>
<g id="a_edge55_Node000027_Node000024"><a xlink:title=" ">
<path fill="none" stroke="#63b8ff" d="M963.33,-402.4C977.85,-413.53 999.7,-432.52 1012,-454 1044.79,-511.24 1003.15,-549.62 1048,-598 1049.53,-599.65 1051.2,-601.18 1052.97,-602.58"/>
<polygon fill="#63b8ff" stroke="#63b8ff" points="1050.96,-605.45 1061.28,-607.84 1054.7,-599.54 1050.96,-605.45"/>
</a>
</g>
</g>
<!-- Node28 -->
<g id="Node000028" class="node">
<title>Node28</title>
<g id="a_Node000028"><a xlink:href="structxpath__parser.html#ad67ec26e0e286ca1bb5144a79e3a3583" target="_top" xlink:title=" ">
<polygon fill="white" stroke="#666666" points="1163.38,-499 1061.12,-499 1061.12,-467 1163.38,-467 1163.38,-499"/>
<text xml:space="preserve" text-anchor="start" x="1069.12" y="-485.5" font-family="Helvetica,sans-Serif" font-size="10.00">xpath_parser::parse</text>
<text xml:space="preserve" text-anchor="middle" x="1112.25" y="-473.5" font-family="Helvetica,sans-Serif" font-size="10.00">_axis_name</text>
</a>
</g>
</g>
<!-- Node27&#45;&gt;Node28 -->
<g id="edge52_Node000027_Node000028" class="edge">
<title>Node27&#45;&gt;Node28</title>
<g id="a_edge52_Node000027_Node000028"><a xlink:title=" ">
<path fill="none" stroke="#63b8ff" d="M984.54,-402.49C993.88,-406.04 1003.65,-410.52 1012,-416 1031.18,-428.59 1029.34,-439.65 1048,-453 1052.06,-455.9 1056.44,-458.65 1060.94,-461.21"/>
<polygon fill="#63b8ff" stroke="#63b8ff" points="1059.08,-464.18 1069.56,-465.8 1062.38,-458.01 1059.08,-464.18"/>
</a>
</g>
</g>
<!-- Node27&#45;&gt;Node29 -->
<g id="edge54_Node000027_Node000029" class="edge">
<title>Node27&#45;&gt;Node29</title>
<g id="a_edge54_Node000027_Node000029"><a xlink:title=" ">
<path fill="none" stroke="#63b8ff" d="M962.25,-402.32C976.31,-413.67 998.18,-433.09 1012,-454 1036.22,-490.63 1017.43,-514.48 1048,-546 1049.37,-547.41 1050.83,-548.76 1052.36,-550.04"/>
<polygon fill="#63b8ff" stroke="#63b8ff" points="1050.31,-552.87 1060.5,-555.77 1054.34,-547.15 1050.31,-552.87"/>
</a>
</g>
</g>
<!-- Node30 -->
<g id="Node000030" class="node">
<title>Node30</title>
<g id="a_Node000030"><a xlink:href="classxpath__ast__node.html#afe044146db852b7d4dbf188fd2ff6c75" target="_top" xlink:title=" ">
<polygon fill="white" stroke="#666666" points="1164.5,-411 1060,-411 1060,-379 1164.5,-379 1164.5,-411"/>
<text xml:space="preserve" text-anchor="start" x="1068" y="-397.5" font-family="Helvetica,sans-Serif" font-size="10.00">xpath_ast_node::set</text>
<text xml:space="preserve" text-anchor="middle" x="1112.25" y="-385.5" font-family="Helvetica,sans-Serif" font-size="10.00">_right</text>
</a>
</g>
</g>
<!-- Node27&#45;&gt;Node30 -->
<g id="edge57_Node000027_Node000030" class="edge">
<title>Node27&#45;&gt;Node30</title>
<g id="a_edge57_Node000027_Node000030"><a xlink:title=" ">
<path fill="none" stroke="#63b8ff" d="M1011.11,-393.15C1023.25,-393.38 1035.99,-393.61 1048.15,-393.84"/>
<polygon fill="#63b8ff" stroke="#63b8ff" points="1048.03,-397.33 1058.09,-394.02 1048.16,-390.33 1048.03,-397.33"/>
</a>
</g>
</g>
<!-- Node30&#45;&gt;Node23 -->
<g id="edge58_Node000030_Node000023" class="edge">
<title>Node30&#45;&gt;Node23</title>
<g id="a_edge58_Node000030_Node000023"><a xlink:title=" ">
<path fill="none" stroke="#63b8ff" d="M1148.65,-378.58C1171.78,-367.85 1202.2,-353.73 1227.14,-342.16"/>
<polygon fill="#63b8ff" stroke="#63b8ff" points="1228.48,-345.4 1236.08,-338.01 1225.53,-339.05 1228.48,-345.4"/>
</a>
</g>
</g>
</g>
</svg>
