<?xml version="1.0" encoding="UTF-8" standalone="no"?>
<!DOCTYPE svg PUBLIC "-//W3C//DTD SVG 1.1//EN"
 "http://www.w3.org/Graphics/SVG/1.1/DTD/svg11.dtd">
<!-- Generated by graphviz version 14.1.2 (20260124.0452)
 -->
<!-- Title: xpath_stack_data Pages: 1 -->
<svg width="214pt" height="280pt"
 viewBox="0.00 0.00 214.00 280.00" xmlns="http://www.w3.org/2000/svg" xmlns:xlink="http://www.w3.org/1999/xlink">
<g id="graph0" class="graph" transform="scale(1 1) rotate(0) translate(4 276)">
<title>xpath_stack_data</title>
<!-- Node1 -->
<g id="Node000001" class="node">
<title>Node1</title>
<g id="a_Node000001"><a xlink:title=" ">
<polygon fill="#999999" stroke="#666666" points="135.12,-20 41.88,-20 41.88,0 135.12,0 135.12,-20"/>
<text xml:space="preserve" text-anchor="middle" x="88.5" y="-6.5" font-family="Helvetica,sans-Serif" font-size="10.00">xpath_stack_data</text>
</a>
</g>
</g>
<!-- Node2 -->
<g id="Node000002" class="node">
<title>Node2</title>
<g id="a_Node000002"><a xlink:href="structxpath__memory__block.html" target="_top" xlink:title=" ">
<polygon fill="white" stroke="#666666" points="109,-272 0,-272 0,-252 109,-252 109,-272"/>
<text xml:space="preserve" text-anchor="middle" x="54.5" y="-258.5" font-family="Helvetica,sans-Serif" font-size="10.00">xpath_memory_block</text>
</a>
</g>
</g>
<!-- Node2&#45;&gt;Node1 -->
<g id="edge1_Node000001_Node000002" class="edge">
<title>Node2&#45;&gt;Node1</title>
<g id="a_edge1_Node000001_Node000002"><a xlink:title=" ">
<path fill="none" stroke="#9a32cd" stroke-dasharray="5,2" d="M55.06,-240.6C55.56,-223.79 56.4,-199.34 57.5,-178 58.7,-154.87 57.52,-148.9 61,-126 67.05,-86.22 79.96,-39.94 85.67,-20.44"/>
<polygon fill="#9a32cd" stroke="#9a32cd" points="51.57,-240.17 54.78,-250.27 58.57,-240.38 51.57,-240.17"/>
</a>
</g>
<text xml:space="preserve" text-anchor="start" x="64" y="-139.5" font-family="Helvetica,sans-Serif" font-size="10.00" fill="grey">blocks</text>
</g>
<!-- Node2&#45;&gt;Node2 -->
<g id="edge2_Node000002_Node000002" class="edge">
<title>Node2&#45;&gt;Node2</title>
<g id="a_edge2_Node000002_Node000002"><a xlink:title=" ">
<path fill="none" stroke="#9a32cd" stroke-dasharray="5,2" d="M120.44,-266.85C124.54,-265.71 127,-264.09 127,-262 127,-258.39 119.62,-256.18 109.2,-255.39"/>
<polygon fill="#9a32cd" stroke="#9a32cd" points="120.03,-263.37 110.69,-268.37 121.11,-270.29 120.03,-263.37"/>
</a>
</g>
<text xml:space="preserve" text-anchor="start" x="130" y="-258.5" font-family="Helvetica,sans-Serif" font-size="10.00" fill="grey">next</text>
</g>
<!-- Node3 -->
<g id="Node000003" class="node">
<title>Node3</title>
<g id="a_Node000003"><a xlink:href="structxpath__allocator.html" target="_top" xlink:title=" ">
<polygon fill="white" stroke="#666666" points="148.5,-198 66.5,-198 66.5,-178 148.5,-178 148.5,-198"/>
<text xml:space="preserve" text-anchor="middle" x="107.5" y="-184.5" font-family="Helvetica,sans-Serif" font-size="10.00">xpath_allocator</text>
</a>
</g>
</g>
<!-- Node2&#45;&gt;Node3 -->
<g id="edge4_Node000003_Node000002" class="edge">
<title>Node2&#45;&gt;Node3</title>
<g id="a_edge4_Node000003_Node000002"><a xlink:title=" ">
<path fill="none" stroke="#9a32cd" stroke-dasharray="5,2" d="M67.98,-242.68C78.45,-228.47 92.52,-209.36 100.74,-198.19"/>
<polygon fill="#9a32cd" stroke="#9a32cd" points="65.44,-240.24 62.33,-250.37 71.07,-244.39 65.44,-240.24"/>
</a>
</g>
<text xml:space="preserve" text-anchor="start" x="90.31" y="-221.5" font-family="Helvetica,sans-Serif" font-size="10.00" fill="grey">_root</text>
</g>
<!-- Node3&#45;&gt;Node1 -->
<g id="edge3_Node000001_Node000003" class="edge">
<title>Node3&#45;&gt;Node1</title>
<g id="a_edge3_Node000001_Node000003"><a xlink:title=" ">
<path fill="none" stroke="#9a32cd" stroke-dasharray="5,2" d="M104.73,-166.62C102.61,-150.68 99.69,-127.95 97.5,-108 93.98,-75.89 90.7,-37.7 89.27,-20.37"/>
<polygon fill="#9a32cd" stroke="#9a32cd" points="101.23,-166.82 106.03,-176.27 108.16,-165.89 101.23,-166.82"/>
</a>
</g>
<text xml:space="preserve" text-anchor="start" x="100.5" y="-95.5" font-family="Helvetica,sans-Serif" font-size="10.00" fill="grey">result</text>
<text xml:space="preserve" text-anchor="start" x="100.5" y="-79.5" font-family="Helvetica,sans-Serif" font-size="10.00" fill="grey">temp</text>
</g>
<!-- Node4 -->
<g id="Node000004" class="node">
<title>Node4</title>
<g id="a_Node000004"><a xlink:href="structxpath__stack.html" target="_top" xlink:title=" ">
<polygon fill="white" stroke="#666666" points="206.12,-101 136.88,-101 136.88,-81 206.12,-81 206.12,-101"/>
<text xml:space="preserve" text-anchor="middle" x="171.5" y="-87.5" font-family="Helvetica,sans-Serif" font-size="10.00">xpath_stack</text>
</a>
</g>
</g>
<!-- Node3&#45;&gt;Node4 -->
<g id="edge6_Node000004_Node000003" class="edge">
<title>Node3&#45;&gt;Node4</title>
<g id="a_edge6_Node000004_Node000003"><a xlink:title=" ">
<path fill="none" stroke="#9a32cd" stroke-dasharray="5,2" d="M120.2,-168.15C133.77,-148.01 154.73,-116.9 165.16,-101.42"/>
<polygon fill="#9a32cd" stroke="#9a32cd" points="117.4,-166.04 114.72,-176.29 123.21,-169.95 117.4,-166.04"/>
</a>
</g>
<text xml:space="preserve" text-anchor="start" x="150.11" y="-147.5" font-family="Helvetica,sans-Serif" font-size="10.00" fill="grey">result</text>
<text xml:space="preserve" text-anchor="start" x="150.11" y="-131.5" font-family="Helvetica,sans-Serif" font-size="10.00" fill="grey">temp</text>
</g>
<!-- Node4&#45;&gt;Node1 -->
<g id="edge5_Node000001_Node000004" class="edge">
<title>Node4&#45;&gt;Node1</title>
<g id="a_edge5_Node000001_Node000004"><a xlink:title=" ">
<path fill="none" stroke="#9a32cd" stroke-dasharray="5,2" d="M153.62,-72.98C136.7,-56.88 111.93,-33.3 98.33,-20.36"/>
<polygon fill="#9a32cd" stroke="#9a32cd" points="150.9,-75.22 160.56,-79.58 155.73,-70.15 150.9,-75.22"/>
</a>
</g>
<text xml:space="preserve" text-anchor="start" x="137.97" y="-43.5" font-family="Helvetica,sans-Serif" font-size="10.00" fill="grey">stack</text>
</g>
</g>
</svg>
