<?xml version="1.0" encoding="UTF-8" standalone="no"?>
<!DOCTYPE svg PUBLIC "-//W3C//DTD SVG 1.1//EN"
 "http://www.w3.org/Graphics/SVG/1.1/DTD/svg11.dtd">
<!-- Generated by graphviz version 14.1.2 (20260124.0452)
 -->
<!-- Title: xpath_parser::parse_step Pages: 1 -->
<svg width="1375pt" height="990pt"
 viewBox="0.00 0.00 1375.00 990.00" xmlns="http://www.w3.org/2000/svg" xmlns:xlink="http://www.w3.org/1999/xlink">
<g id="graph0" class="graph" transform="scale(1 1) rotate(0) translate(4 986)">
<title>xpath_parser::parse_step</title>
<!-- Node1 -->
<g id="Node000001" class="node">
<title>Node1</title>
<g id="a_Node000001"><a xlink:title=" ">
<polygon fill="#999999" stroke="#666666" points="126.25,-260 0,-260 0,-240 126.25,-240 126.25,-260"/>
<text xml:space="preserve" text-anchor="middle" x="63.12" y="-246.5" font-family="Helvetica,sans-Serif" font-size="10.00">xpath_parser::parse_step</text>
</a>
</g>
</g>
<!-- Node2 -->
<g id="Node000002" class="node">
<title>Node2</title>
<g id="a_Node000002"><a xlink:href="structxpath__parser.html#a8a71f339a0386657a48b59acb3405acc" target="_top" xlink:title=" ">
<polygon fill="white" stroke="#666666" points="1206.12,-802 1081.38,-802 1081.38,-782 1206.12,-782 1206.12,-802"/>
<text xml:space="preserve" text-anchor="middle" x="1143.75" y="-788.5" font-family="Helvetica,sans-Serif" font-size="10.00">xpath_parser::alloc_node</text>
</a>
</g>
</g>
<!-- Node1&#45;&gt;Node2 -->
<g id="edge1_Node000001_Node000002" class="edge">
<title>Node1&#45;&gt;Node2</title>
<g id="a_edge1_Node000001_Node000002"><a xlink:title=" ">
<path fill="none" stroke="#63b8ff" d="M64.3,-260.4C65.74,-335.96 77.98,-800.88 162.25,-907 218.58,-977.94 261.17,-982 351.75,-982 351.75,-982 351.75,-982 819.5,-982 926.96,-982 953.91,-950.34 1043.5,-891 1077.61,-868.41 1109.73,-832.79 1127.75,-811"/>
<polygon fill="#63b8ff" stroke="#63b8ff" points="1130.26,-813.47 1133.84,-803.5 1124.82,-809.06 1130.26,-813.47"/>
</a>
</g>
</g>
<!-- Node3 -->
<g id="Node000003" class="node">
<title>Node3</title>
<g id="a_Node000003"><a xlink:href="structxpath__parser.html#a876c0c06a8cdc623926c8788e8d43fc3" target="_top" xlink:title=" ">
<polygon fill="white" stroke="#666666" points="1028.5,-316 930,-316 930,-284 1028.5,-284 1028.5,-316"/>
<text xml:space="preserve" text-anchor="start" x="938" y="-302.5" font-family="Helvetica,sans-Serif" font-size="10.00">xpath_parser::alloc</text>
<text xml:space="preserve" text-anchor="middle" x="979.25" y="-290.5" font-family="Helvetica,sans-Serif" font-size="10.00">_string</text>
</a>
</g>
</g>
<!-- Node1&#45;&gt;Node3 -->
<g id="edge2_Node000001_Node000003" class="edge">
<title>Node1&#45;&gt;Node3</title>
<g id="a_edge2_Node000001_Node000003"><a xlink:title=" ">
<path fill="none" stroke="#63b8ff" d="M87.07,-239.59C135.11,-218.78 250.26,-174 351.75,-174 351.75,-174 351.75,-174 668.12,-174 776.45,-174 891.44,-240.8 945.96,-277.12"/>
<polygon fill="#63b8ff" stroke="#63b8ff" points="943.93,-279.97 954.17,-282.68 947.85,-274.18 943.93,-279.97"/>
</a>
</g>
</g>
<!-- Node4 -->
<g id="Node000004" class="node">
<title>Node4</title>
<g id="a_Node000004"><a xlink:href="structxpath__parser.html#a0a96a8f5a16b2171a83b6ae3bb2ccbba" target="_top" xlink:title=" ">
<polygon fill="white" stroke="#666666" points="1192.62,-474 1094.88,-474 1094.88,-454 1192.62,-454 1192.62,-474"/>
<text xml:space="preserve" text-anchor="middle" x="1143.75" y="-460.5" font-family="Helvetica,sans-Serif" font-size="10.00">xpath_parser::error</text>
</a>
</g>
</g>
<!-- Node1&#45;&gt;Node4 -->
<g id="edge3_Node000001_Node000004" class="edge">
<title>Node1&#45;&gt;Node4</title>
<g id="a_edge3_Node000001_Node000004"><a xlink:title=" ">
<path fill="none" stroke="#63b8ff" d="M69.95,-239.68C83.19,-217.25 117.86,-163.99 162.25,-138 236.53,-94.51 265.67,-98 351.75,-98 351.75,-98 351.75,-98 819.5,-98 869.46,-98 1004.92,-85.26 1043.5,-117 1095.32,-159.63 1129.9,-373.8 1139.82,-442.65"/>
<polygon fill="#63b8ff" stroke="#63b8ff" points="1136.31,-442.83 1141.17,-452.24 1143.24,-441.85 1136.31,-442.83"/>
</a>
</g>
</g>
<!-- Node5 -->
<g id="Node000005" class="node">
<title>Node5</title>
<g id="a_Node000005"><a xlink:href="structxpath__parser.html#a6c99a4ff18254581f34ec6b715885d99" target="_top" xlink:title=" ">
<polygon fill="white" stroke="#666666" points="1037.5,-802 921,-802 921,-782 1037.5,-782 1037.5,-802"/>
<text xml:space="preserve" text-anchor="middle" x="979.25" y="-788.5" font-family="Helvetica,sans-Serif" font-size="10.00">xpath_parser::error_rec</text>
</a>
</g>
</g>
<!-- Node1&#45;&gt;Node5 -->
<g id="edge4_Node000001_Node000005" class="edge">
<title>Node1&#45;&gt;Node5</title>
<g id="a_edge4_Node000001_Node000005"><a xlink:title=" ">
<path fill="none" stroke="#63b8ff" d="M64.53,-260.37C67.55,-331.95 88.24,-752.64 162.25,-852 218.18,-927.08 258.13,-944 351.75,-944 351.75,-944 351.75,-944 668.12,-944 788.73,-944 911.27,-850.16 958.25,-809.95"/>
<polygon fill="#63b8ff" stroke="#63b8ff" points="960.47,-812.65 965.71,-803.44 955.87,-807.37 960.47,-812.65"/>
</a>
</g>
</g>
<!-- Node6 -->
<g id="Node000006" class="node">
<title>Node6</title>
<g id="a_Node000006"><a xlink:href="structxpath__parser.html#ad67ec26e0e286ca1bb5144a79e3a3583" target="_top" xlink:title=" ">
<polygon fill="white" stroke="#666666" points="264.5,-32 162.25,-32 162.25,0 264.5,0 264.5,-32"/>
<text xml:space="preserve" text-anchor="start" x="170.25" y="-18.5" font-family="Helvetica,sans-Serif" font-size="10.00">xpath_parser::parse</text>
<text xml:space="preserve" text-anchor="middle" x="213.38" y="-6.5" font-family="Helvetica,sans-Serif" font-size="10.00">_axis_name</text>
</a>
</g>
</g>
<!-- Node1&#45;&gt;Node6 -->
<g id="edge6_Node000001_Node000006" class="edge">
<title>Node1&#45;&gt;Node6</title>
<g id="a_edge6_Node000001_Node000006"><a xlink:title=" ">
<path fill="none" stroke="#63b8ff" d="M66.72,-239.9C75.36,-207.99 105.81,-107.82 162.25,-46 164.46,-43.58 166.91,-41.29 169.51,-39.14"/>
<polygon fill="#63b8ff" stroke="#63b8ff" points="171.54,-41.99 177.54,-33.26 167.41,-36.34 171.54,-41.99"/>
</a>
</g>
</g>
<!-- Node7 -->
<g id="Node000007" class="node">
<title>Node7</title>
<g id="a_Node000007"><a xlink:href="structxpath__parser.html#a7738e256011ca842dc2a0beba78562ed" target="_top" xlink:title=" ">
<polygon fill="white" stroke="#666666" points="264.5,-676 162.25,-676 162.25,-644 264.5,-644 264.5,-676"/>
<text xml:space="preserve" text-anchor="start" x="170.25" y="-662.5" font-family="Helvetica,sans-Serif" font-size="10.00">xpath_parser::parse</text>
<text xml:space="preserve" text-anchor="middle" x="213.38" y="-650.5" font-family="Helvetica,sans-Serif" font-size="10.00">_expression</text>
</a>
</g>
</g>
<!-- Node1&#45;&gt;Node7 -->
<g id="edge7_Node000001_Node000007" class="edge">
<title>Node1&#45;&gt;Node7</title>
<g id="a_edge7_Node000001_Node000007"><a xlink:title=" ">
<path fill="none" stroke="#63b8ff" d="M67.19,-260.31C78.59,-298.46 120.13,-435.13 162.25,-545 174.04,-575.76 189.4,-610.31 199.99,-633.44"/>
<polygon fill="#63b8ff" stroke="#63b8ff" points="196.77,-634.82 204.14,-642.44 203.13,-631.89 196.77,-634.82"/>
</a>
</g>
</g>
<!-- Node23 -->
<g id="Node000023" class="node">
<title>Node23</title>
<g id="a_Node000023"><a xlink:href="classxpath__ast__node.html#a2764184d076834284eb3ff3182b845cc" target="_top" xlink:title=" ">
<polygon fill="white" stroke="#666666" points="1043.5,-146 915,-146 915,-126 1043.5,-126 1043.5,-146"/>
<text xml:space="preserve" text-anchor="middle" x="979.25" y="-132.5" font-family="Helvetica,sans-Serif" font-size="10.00">xpath_ast_node::set_next</text>
</a>
</g>
</g>
<!-- Node1&#45;&gt;Node23 -->
<g id="edge59_Node000001_Node000023" class="edge">
<title>Node1&#45;&gt;Node23</title>
<g id="a_edge59_Node000001_Node000023"><a xlink:title=" ">
<path fill="none" stroke="#63b8ff" d="M75.24,-239.59C92.5,-224 127.38,-194.77 162.25,-179 240.94,-143.41 265.39,-136 351.75,-136 351.75,-136 351.75,-136 668.12,-136 748.46,-136 840.51,-136 903.32,-136"/>
<polygon fill="#63b8ff" stroke="#63b8ff" points="903.18,-139.5 913.18,-136 903.18,-132.5 903.18,-139.5"/>
</a>
</g>
</g>
<!-- Node25 -->
<g id="Node000025" class="node">
<title>Node25</title>
<g id="a_Node000025"><a xlink:href="classxpath__ast__node.html#a2c12e34a46db2a3d0052f9f38bcf1bb6" target="_top" xlink:title=" ">
<polygon fill="white" stroke="#666666" points="879,-348 758,-348 758,-328 879,-328 879,-348"/>
<text xml:space="preserve" text-anchor="middle" x="818.5" y="-334.5" font-family="Helvetica,sans-Serif" font-size="10.00">xpath_ast_node::rettype</text>
</a>
</g>
</g>
<!-- Node1&#45;&gt;Node25 -->
<g id="edge58_Node000001_Node000025" class="edge">
<title>Node1&#45;&gt;Node25</title>
<g id="a_edge58_Node000001_Node000025"><a xlink:title=" ">
<path fill="none" stroke="#63b8ff" d="M126.68,-250C184.95,-250 274.23,-250 351.75,-250 351.75,-250 351.75,-250 509.62,-250 614.16,-250 731.24,-297.48 786.03,-322.69"/>
<polygon fill="#63b8ff" stroke="#63b8ff" points="784.53,-325.85 795.08,-326.92 787.5,-319.51 784.53,-325.85"/>
</a>
</g>
</g>
<!-- Node28 -->
<g id="Node000028" class="node">
<title>Node28</title>
<g id="a_Node000028"><a xlink:href="structxpath__parser.html#a7b4555d7bfdb90971333c46963d5d791" target="_top" xlink:title=" ">
<polygon fill="white" stroke="#666666" points="718.25,-550 616,-550 616,-518 718.25,-518 718.25,-550"/>
<text xml:space="preserve" text-anchor="start" x="624" y="-536.5" font-family="Helvetica,sans-Serif" font-size="10.00">xpath_parser::parse</text>
<text xml:space="preserve" text-anchor="middle" x="667.12" y="-524.5" font-family="Helvetica,sans-Serif" font-size="10.00">_node_test_type</text>
</a>
</g>
</g>
<!-- Node1&#45;&gt;Node28 -->
<g id="edge57_Node000001_Node000028" class="edge">
<title>Node1&#45;&gt;Node28</title>
<g id="a_edge57_Node000001_Node000028"><a xlink:title=" ">
<path fill="none" stroke="#63b8ff" d="M70.22,-260.31C93.9,-299.27 184.22,-438.14 300.5,-495 398.55,-542.94 528.72,-544.24 604.37,-539.82"/>
<polygon fill="#63b8ff" stroke="#63b8ff" points="604.31,-543.33 614.06,-539.19 603.86,-536.34 604.31,-543.33"/>
</a>
</g>
</g>
<!-- Node29 -->
<g id="Node000029" class="node">
<title>Node29</title>
<g id="a_Node000029"><a xlink:href="classxpath__ast__node.html#afe044146db852b7d4dbf188fd2ff6c75" target="_top" xlink:title=" ">
<polygon fill="white" stroke="#666666" points="405,-70 300.5,-70 300.5,-38 405,-38 405,-70"/>
<text xml:space="preserve" text-anchor="start" x="308.5" y="-56.5" font-family="Helvetica,sans-Serif" font-size="10.00">xpath_ast_node::set</text>
<text xml:space="preserve" text-anchor="middle" x="352.75" y="-44.5" font-family="Helvetica,sans-Serif" font-size="10.00">_right</text>
</a>
</g>
</g>
<!-- Node1&#45;&gt;Node29 -->
<g id="edge60_Node000001_Node000029" class="edge">
<title>Node1&#45;&gt;Node29</title>
<g id="a_edge60_Node000001_Node000029"><a xlink:title=" ">
<path fill="none" stroke="#63b8ff" d="M66.86,-239.68C75.32,-209.91 104.11,-123.52 162.25,-84 199.23,-58.86 249.54,-51.84 289.03,-50.85"/>
<polygon fill="#63b8ff" stroke="#63b8ff" points="288.91,-54.35 298.87,-50.73 288.83,-47.35 288.91,-54.35"/>
</a>
</g>
</g>
<!-- Node5&#45;&gt;Node4 -->
<g id="edge5_Node000005_Node000004" class="edge">
<title>Node5&#45;&gt;Node4</title>
<g id="a_edge5_Node000005_Node000004"><a xlink:title=" ">
<path fill="none" stroke="#63b8ff" d="M989.09,-781.66C1002.88,-764.98 1029.37,-730.61 1043.5,-697 1073.44,-625.81 1042.61,-594.85 1079.5,-527 1089.25,-509.08 1105.69,-492.93 1119.37,-481.47"/>
<polygon fill="#63b8ff" stroke="#63b8ff" points="1121.49,-484.26 1127.1,-475.27 1117.11,-478.8 1121.49,-484.26"/>
</a>
</g>
</g>
<!-- Node7&#45;&gt;Node5 -->
<g id="edge8_Node000007_Node000005" class="edge">
<title>Node7&#45;&gt;Node5</title>
<g id="a_edge8_Node000007_Node000005"><a xlink:title=" ">
<path fill="none" stroke="#63b8ff" d="M237.02,-676.43C284.6,-709.3 399.53,-780 507.62,-780 507.62,-780 507.62,-780 668.12,-780 751.06,-780 846.38,-784.34 909.2,-787.8"/>
<polygon fill="#63b8ff" stroke="#63b8ff" points="908.86,-791.28 919.04,-788.35 909.25,-784.29 908.86,-791.28"/>
</a>
</g>
</g>
<!-- Node8 -->
<g id="Node000008" class="node">
<title>Node8</title>
<g id="a_Node000008"><a xlink:href="structxpath__parser.html#adcd54e9b508acfe1f040ee7a54b88f2a" target="_top" xlink:title=" ">
<polygon fill="white" stroke="#666666" points="403.88,-468 301.62,-468 301.62,-436 403.88,-436 403.88,-468"/>
<text xml:space="preserve" text-anchor="start" x="309.62" y="-454.5" font-family="Helvetica,sans-Serif" font-size="10.00">xpath_parser::parse</text>
<text xml:space="preserve" text-anchor="middle" x="352.75" y="-442.5" font-family="Helvetica,sans-Serif" font-size="10.00">_expression_rec</text>
</a>
</g>
</g>
<!-- Node7&#45;&gt;Node8 -->
<g id="edge9_Node000007_Node000008" class="edge">
<title>Node7&#45;&gt;Node8</title>
<g id="a_edge9_Node000007_Node000008"><a xlink:title=" ">
<path fill="none" stroke="#63b8ff" d="M225.15,-643.68C248.93,-607.68 306.02,-521.24 334.7,-477.81"/>
<polygon fill="#63b8ff" stroke="#63b8ff" points="337.6,-479.78 340.19,-469.51 331.75,-475.92 337.6,-479.78"/>
</a>
</g>
</g>
<!-- Node13 -->
<g id="Node000013" class="node">
<title>Node13</title>
<g id="a_Node000013"><a xlink:href="structxpath__parser.html#ab5275305ebaac95fd68a3186b737aaa7" target="_top" xlink:title=" ">
<polygon fill="white" stroke="#666666" points="576.25,-676 441,-676 441,-644 576.25,-644 576.25,-676"/>
<text xml:space="preserve" text-anchor="start" x="449" y="-662.5" font-family="Helvetica,sans-Serif" font-size="10.00">xpath_parser::parse</text>
<text xml:space="preserve" text-anchor="middle" x="508.62" y="-650.5" font-family="Helvetica,sans-Serif" font-size="10.00">_path_or_unary_expression</text>
</a>
</g>
</g>
<!-- Node7&#45;&gt;Node13 -->
<g id="edge56_Node000007_Node000013" class="edge">
<title>Node7&#45;&gt;Node13</title>
<g id="a_edge56_Node000007_Node000013"><a xlink:title=" ">
<path fill="none" stroke="#63b8ff" d="M264.79,-654.76C310.02,-653.07 377.13,-652.8 429.35,-653.95"/>
<polygon fill="#63b8ff" stroke="#63b8ff" points="428.99,-657.44 439.07,-654.19 429.16,-650.44 428.99,-657.44"/>
</a>
</g>
</g>
<!-- Node8&#45;&gt;Node2 -->
<g id="edge10_Node000008_Node000002" class="edge">
<title>Node8&#45;&gt;Node2</title>
<g id="a_edge10_Node000008_Node000002"><a xlink:title=" ">
<path fill="none" stroke="#63b8ff" d="M404.33,-450.13C546.5,-445.9 945.73,-441.54 1043.5,-521 1083.98,-553.9 1124.27,-712.56 1137.9,-770.64"/>
<polygon fill="#63b8ff" stroke="#63b8ff" points="1134.46,-771.28 1140.12,-780.24 1141.28,-769.71 1134.46,-771.28"/>
</a>
</g>
</g>
<!-- Node8&#45;&gt;Node4 -->
<g id="edge11_Node000008_Node000004" class="edge">
<title>Node8&#45;&gt;Node4</title>
<g id="a_edge11_Node000008_Node000004"><a xlink:title=" ">
<path fill="none" stroke="#63b8ff" d="M359.61,-435.94C371.02,-406.74 398.83,-344.59 441,-308 523.16,-236.72 557.35,-212 666.12,-212 666.12,-212 666.12,-212 819.5,-212 922.92,-212 963.13,-209.91 1043.5,-275 1098.6,-319.62 1126.77,-403.09 1137.49,-442.43"/>
<polygon fill="#63b8ff" stroke="#63b8ff" points="1134.1,-443.28 1139.99,-452.09 1140.87,-441.53 1134.1,-443.28"/>
</a>
</g>
</g>
<!-- Node8&#45;&gt;Node5 -->
<g id="edge12_Node000008_Node000005" class="edge">
<title>Node8&#45;&gt;Node5</title>
<g id="a_edge12_Node000008_Node000005"><a xlink:title=" ">
<path fill="none" stroke="#63b8ff" d="M404.03,-460.13C416.13,-462.07 429.03,-464.12 441,-466 503.41,-475.78 675.08,-466.7 722,-509 769.08,-551.45 719.76,-596.45 758,-647 795.62,-696.73 827.04,-683.53 879,-718 906.55,-736.28 936.83,-759.31 956.61,-774.78"/>
<polygon fill="#63b8ff" stroke="#63b8ff" points="954.2,-777.34 964.23,-780.78 958.53,-771.84 954.2,-777.34"/>
</a>
</g>
</g>
<!-- Node8&#45;&gt;Node8 -->
<g id="edge17_Node000008_Node000008" class="edge">
<title>Node8&#45;&gt;Node8</title>
<g id="a_edge17_Node000008_Node000008"><a xlink:title=" ">
<path fill="none" stroke="#63b8ff" d="M327.87,-468.44C323.22,-477.58 331.52,-486 352.75,-486 364.36,-486 372.1,-483.48 375.98,-479.71"/>
<polygon fill="#63b8ff" stroke="#63b8ff" points="379.42,-480.34 377.41,-469.94 372.49,-479.32 379.42,-480.34"/>
</a>
</g>
</g>
<!-- Node9 -->
<g id="Node000009" class="node">
<title>Node9</title>
<g id="a_Node000009"><a xlink:href="structxpath__parser_1_1binary__op__t.html#a723f5f2b66df47b4ac74455cb39b9544" target="_top" xlink:title=" ">
<polygon fill="white" stroke="#666666" points="560.88,-402 456.38,-402 456.38,-370 560.88,-370 560.88,-402"/>
<text xml:space="preserve" text-anchor="start" x="464.38" y="-388.5" font-family="Helvetica,sans-Serif" font-size="10.00">xpath_parser::binary</text>
<text xml:space="preserve" text-anchor="middle" x="508.62" y="-376.5" font-family="Helvetica,sans-Serif" font-size="10.00">_op_t::parse</text>
</a>
</g>
</g>
<!-- Node8&#45;&gt;Node9 -->
<g id="edge13_Node000008_Node000009" class="edge">
<title>Node8&#45;&gt;Node9</title>
<g id="a_edge13_Node000008_Node000009"><a xlink:title=" ">
<path fill="none" stroke="#63b8ff" d="M392.18,-435.52C412.45,-426.82 437.53,-416.06 459.13,-406.8"/>
<polygon fill="#63b8ff" stroke="#63b8ff" points="460.21,-410.14 468.03,-402.99 457.46,-403.71 460.21,-410.14"/>
</a>
</g>
</g>
<!-- Node8&#45;&gt;Node13 -->
<g id="edge18_Node000008_Node000013" class="edge">
<title>Node8&#45;&gt;Node13</title>
<g id="a_edge18_Node000008_Node000013"><a xlink:title=" ">
<path fill="none" stroke="#63b8ff" d="M365.82,-468.32C392.57,-504.47 456.95,-591.49 488.93,-634.74"/>
<polygon fill="#63b8ff" stroke="#63b8ff" points="485.95,-636.58 494.71,-642.54 491.57,-632.42 485.95,-636.58"/>
</a>
</g>
</g>
<!-- Node8&#45;&gt;Node25 -->
<g id="edge55_Node000008_Node000025" class="edge">
<title>Node8&#45;&gt;Node25</title>
<g id="a_edge55_Node000008_Node000025"><a xlink:title=" ">
<path fill="none" stroke="#63b8ff" d="M365.17,-435.81C380.3,-415.52 408.84,-380.98 441,-361 508.79,-318.88 533.37,-319.14 612.25,-307 660.46,-299.58 673.82,-299.38 722,-307 742.43,-310.23 764.45,-317.13 782.19,-323.6"/>
<polygon fill="#63b8ff" stroke="#63b8ff" points="780.89,-326.85 791.48,-327.11 783.36,-320.3 780.89,-326.85"/>
</a>
</g>
</g>
<!-- Node10 -->
<g id="Node000010" class="node">
<title>Node10</title>
<g id="a_Node000010"><a xlink:href="structxpath__parser_1_1binary__op__t.html#a18cac63911120c27f5ee842b1e6afe35" target="_top" xlink:title=" ">
<polygon fill="white" stroke="#666666" points="719.38,-424 614.88,-424 614.88,-392 719.38,-392 719.38,-424"/>
<text xml:space="preserve" text-anchor="start" x="622.88" y="-410.5" font-family="Helvetica,sans-Serif" font-size="10.00">xpath_parser::binary</text>
<text xml:space="preserve" text-anchor="middle" x="667.12" y="-398.5" font-family="Helvetica,sans-Serif" font-size="10.00">_op_t::binary_op_t</text>
</a>
</g>
</g>
<!-- Node9&#45;&gt;Node10 -->
<g id="edge14_Node000009_Node000010" class="edge">
<title>Node9&#45;&gt;Node10</title>
<g id="a_edge14_Node000009_Node000010"><a xlink:title=" ">
<path fill="none" stroke="#63b8ff" d="M561.3,-393.26C574.79,-395.16 589.48,-397.22 603.47,-399.19"/>
<polygon fill="#63b8ff" stroke="#63b8ff" points="602.61,-402.61 613,-400.53 603.59,-395.67 602.61,-402.61"/>
</a>
</g>
</g>
<!-- Node11 -->
<g id="Node000011" class="node">
<title>Node11</title>
<g id="a_Node000011"><a xlink:href="classxpath__lexer.html#a9a398feb578c697be7067f6f8d178fc9" target="_top" xlink:title=" ">
<polygon fill="white" stroke="#666666" points="722,-374 612.25,-374 612.25,-354 722,-354 722,-374"/>
<text xml:space="preserve" text-anchor="middle" x="667.12" y="-360.5" font-family="Helvetica,sans-Serif" font-size="10.00">xpath_lexer::contents</text>
</a>
</g>
</g>
<!-- Node9&#45;&gt;Node11 -->
<g id="edge15_Node000009_Node000011" class="edge">
<title>Node9&#45;&gt;Node11</title>
<g id="a_edge15_Node000009_Node000011"><a xlink:title=" ">
<path fill="none" stroke="#63b8ff" d="M561.3,-378.74C573.84,-376.97 587.4,-375.07 600.48,-373.23"/>
<polygon fill="#63b8ff" stroke="#63b8ff" points="600.9,-376.7 610.32,-371.85 599.93,-369.77 600.9,-376.7"/>
</a>
</g>
</g>
<!-- Node12 -->
<g id="Node000012" class="node">
<title>Node12</title>
<g id="a_Node000012"><a xlink:href="classxpath__lexer.html#a47425d5012741aecfd898306651439d0" target="_top" xlink:title=" ">
<polygon fill="white" stroke="#666666" points="718.25,-336 616,-336 616,-316 718.25,-316 718.25,-336"/>
<text xml:space="preserve" text-anchor="middle" x="667.12" y="-322.5" font-family="Helvetica,sans-Serif" font-size="10.00">xpath_lexer::current</text>
</a>
</g>
</g>
<!-- Node9&#45;&gt;Node12 -->
<g id="edge16_Node000009_Node000012" class="edge">
<title>Node9&#45;&gt;Node12</title>
<g id="a_edge16_Node000009_Node000012"><a xlink:title=" ">
<path fill="none" stroke="#63b8ff" d="M549.44,-369.65C568.39,-361.98 591.42,-352.83 612.25,-345 616.41,-343.44 620.77,-341.84 625.13,-340.26"/>
<polygon fill="#63b8ff" stroke="#63b8ff" points="626.18,-343.6 634.42,-336.94 623.82,-337.01 626.18,-343.6"/>
</a>
</g>
</g>
<!-- Node13&#45;&gt;Node2 -->
<g id="edge19_Node000013_Node000002" class="edge">
<title>Node13&#45;&gt;Node2</title>
<g id="a_edge19_Node000013_Node000002"><a xlink:title=" ">
<path fill="none" stroke="#63b8ff" d="M513.16,-676.26C522.26,-713.78 550.22,-806.43 612.25,-849 770.31,-957.48 861.73,-917.9 1043.5,-857 1073.74,-846.87 1103.71,-825.21 1122.67,-809.68"/>
<polygon fill="#63b8ff" stroke="#63b8ff" points="1124.74,-812.51 1130.13,-803.39 1120.23,-807.16 1124.74,-812.51"/>
</a>
</g>
</g>
<!-- Node13&#45;&gt;Node4 -->
<g id="edge20_Node000013_Node000004" class="edge">
<title>Node13&#45;&gt;Node4</title>
<g id="a_edge20_Node000013_Node000004"><a xlink:title=" ">
<path fill="none" stroke="#63b8ff" d="M573.78,-643.5C632.2,-627.98 710.99,-605.59 722,-595 756.96,-561.39 721.96,-524.45 758,-492 811.28,-444.03 843.79,-463.28 915,-455 971.89,-448.39 1037.25,-452.13 1083.32,-456.63"/>
<polygon fill="#63b8ff" stroke="#63b8ff" points="1082.79,-460.09 1093.09,-457.63 1083.5,-453.13 1082.79,-460.09"/>
</a>
</g>
</g>
<!-- Node13&#45;&gt;Node7 -->
<g id="edge21_Node000013_Node000007" class="edge">
<title>Node13&#45;&gt;Node7</title>
<g id="a_edge21_Node000013_Node000007"><a xlink:title=" ">
<path fill="none" stroke="#63b8ff" d="M440.58,-665.77C391.07,-667.13 324.18,-667.07 276,-665.62"/>
<polygon fill="#63b8ff" stroke="#63b8ff" points="276.41,-662.13 266.3,-665.29 276.18,-669.13 276.41,-662.13"/>
</a>
</g>
</g>
<!-- Node14 -->
<g id="Node000014" class="node">
<title>Node14</title>
<g id="a_Node000014"><a xlink:href="structxpath__parser.html#a61a425d990a56d5db8cd14405835a5b6" target="_top" xlink:title=" ">
<polygon fill="white" stroke="#666666" points="718.25,-676 616,-676 616,-644 718.25,-644 718.25,-676"/>
<text xml:space="preserve" text-anchor="start" x="624" y="-662.5" font-family="Helvetica,sans-Serif" font-size="10.00">xpath_parser::parse</text>
<text xml:space="preserve" text-anchor="middle" x="667.12" y="-650.5" font-family="Helvetica,sans-Serif" font-size="10.00">_filter_expression</text>
</a>
</g>
</g>
<!-- Node13&#45;&gt;Node14 -->
<g id="edge22_Node000013_Node000014" class="edge">
<title>Node13&#45;&gt;Node14</title>
<g id="a_edge22_Node000013_Node000014"><a xlink:title=" ">
<path fill="none" stroke="#63b8ff" d="M576.45,-660C585.68,-660 595.12,-660 604.26,-660"/>
<polygon fill="#63b8ff" stroke="#63b8ff" points="604.11,-663.5 614.11,-660 604.11,-656.5 604.11,-663.5"/>
</a>
</g>
</g>
<!-- Node13&#45;&gt;Node25 -->
<g id="edge54_Node000013_Node000025" class="edge">
<title>Node13&#45;&gt;Node25</title>
<g id="a_edge54_Node000013_Node000025"><a xlink:title=" ">
<path fill="none" stroke="#63b8ff" d="M536.08,-643.68C556.49,-631.43 585.64,-614.66 612.25,-602 659.56,-579.5 685.98,-597.04 722,-559 757.08,-521.96 737.96,-496.92 758,-450 772.21,-416.74 792.68,-380.06 805.52,-358.03"/>
<polygon fill="#63b8ff" stroke="#63b8ff" points="808.48,-359.91 810.55,-349.51 802.45,-356.35 808.48,-359.91"/>
</a>
</g>
</g>
<!-- Node26 -->
<g id="Node000026" class="node">
<title>Node26</title>
<g id="a_Node000026"><a xlink:href="structxpath__parser.html#af14e396ddb7817998ec221eec6b781ab" target="_top" xlink:title=" ">
<polygon fill="white" stroke="#666666" points="718.25,-840 616,-840 616,-808 718.25,-808 718.25,-840"/>
<text xml:space="preserve" text-anchor="start" x="624" y="-826.5" font-family="Helvetica,sans-Serif" font-size="10.00">xpath_parser::parse</text>
<text xml:space="preserve" text-anchor="middle" x="667.12" y="-814.5" font-family="Helvetica,sans-Serif" font-size="10.00">_location_path</text>
</a>
</g>
</g>
<!-- Node13&#45;&gt;Node26 -->
<g id="edge46_Node000013_Node000026" class="edge">
<title>Node13&#45;&gt;Node26</title>
<g id="a_edge46_Node000013_Node000026"><a xlink:title=" ">
<path fill="none" stroke="#63b8ff" d="M525.2,-676.32C552.86,-705.3 610.65,-765.87 642.97,-799.74"/>
<polygon fill="#63b8ff" stroke="#63b8ff" points="640.13,-801.83 649.57,-806.65 645.19,-797 640.13,-801.83"/>
</a>
</g>
</g>
<!-- Node27 -->
<g id="Node000027" class="node">
<title>Node27</title>
<g id="a_Node000027"><a xlink:href="structxpath__parser.html#aebea559423376001c89b19216dfc3012" target="_top" xlink:title=" ">
<polygon fill="white" stroke="#666666" points="876.38,-840 760.62,-840 760.62,-808 876.38,-808 876.38,-840"/>
<text xml:space="preserve" text-anchor="start" x="768.62" y="-826.5" font-family="Helvetica,sans-Serif" font-size="10.00">xpath_parser::parse</text>
<text xml:space="preserve" text-anchor="middle" x="818.5" y="-814.5" font-family="Helvetica,sans-Serif" font-size="10.00">_relative_location_path</text>
</a>
</g>
</g>
<!-- Node13&#45;&gt;Node27 -->
<g id="edge53_Node000013_Node000027" class="edge">
<title>Node13&#45;&gt;Node27</title>
<g id="a_edge53_Node000013_Node000027"><a xlink:title=" ">
<path fill="none" stroke="#63b8ff" d="M540.55,-676.48C596.46,-706.25 714.28,-769.02 776.7,-802.27"/>
<polygon fill="#63b8ff" stroke="#63b8ff" points="774.78,-805.21 785.25,-806.82 778.07,-799.03 774.78,-805.21"/>
</a>
</g>
</g>
<!-- Node13&#45;&gt;Node28 -->
<g id="edge52_Node000013_Node000028" class="edge">
<title>Node13&#45;&gt;Node28</title>
<g id="a_edge52_Node000013_Node000028"><a xlink:title=" ">
<path fill="none" stroke="#63b8ff" d="M524.57,-643.76C543.67,-623.56 578.34,-588.72 612.25,-564 616,-561.27 620.02,-558.6 624.11,-556.06"/>
<polygon fill="#63b8ff" stroke="#63b8ff" points="625.59,-559.25 632.41,-551.14 622.02,-553.23 625.59,-559.25"/>
</a>
</g>
</g>
<!-- Node14&#45;&gt;Node2 -->
<g id="edge23_Node000014_Node000002" class="edge">
<title>Node14&#45;&gt;Node2</title>
<g id="a_edge23_Node000014_Node000002"><a xlink:title=" ">
<path fill="none" stroke="#63b8ff" d="M718.58,-669.44C761.96,-678.37 825.76,-693.46 879,-714 895.88,-720.51 898.13,-726.47 915,-733 967.96,-753.51 1030.57,-769.15 1076.73,-779.15"/>
<polygon fill="#63b8ff" stroke="#63b8ff" points="1075.81,-782.53 1086.32,-781.2 1077.27,-775.69 1075.81,-782.53"/>
</a>
</g>
</g>
<!-- Node14&#45;&gt;Node4 -->
<g id="edge24_Node000014_Node000004" class="edge">
<title>Node14&#45;&gt;Node4</title>
<g id="a_edge24_Node000014_Node000004"><a xlink:title=" ">
<path fill="none" stroke="#63b8ff" d="M700.5,-643.58C707.78,-639.46 715.32,-634.82 722,-630 739.6,-617.3 741.28,-610.84 758,-597 825.05,-541.53 833.41,-510.27 915,-480 969.41,-459.81 1036.09,-457.48 1083.2,-459.19"/>
<polygon fill="#63b8ff" stroke="#63b8ff" points="1082.78,-462.67 1092.93,-459.62 1083.09,-455.68 1082.78,-462.67"/>
</a>
</g>
</g>
<!-- Node14&#45;&gt;Node5 -->
<g id="edge25_Node000014_Node000005" class="edge">
<title>Node14&#45;&gt;Node5</title>
<g id="a_edge25_Node000014_Node000005"><a xlink:title=" ">
<path fill="none" stroke="#63b8ff" d="M699.66,-676.5C707.12,-680.69 714.95,-685.33 722,-690 738.9,-701.19 740.14,-708.41 758,-718 788.34,-734.29 876.18,-761.76 931.33,-778.26"/>
<polygon fill="#63b8ff" stroke="#63b8ff" points="930.2,-781.58 940.78,-781.08 932.19,-774.87 930.2,-781.58"/>
</a>
</g>
</g>
<!-- Node14&#45;&gt;Node7 -->
<g id="edge26_Node000014_Node000007" class="edge">
<title>Node14&#45;&gt;Node7</title>
<g id="a_edge26_Node000014_Node000007"><a xlink:title=" ">
<path fill="none" stroke="#63b8ff" d="M616.24,-643.54C603.36,-640.01 589.41,-636.8 576.25,-635 471.42,-620.69 348.32,-635.93 276.08,-648.1"/>
<polygon fill="#63b8ff" stroke="#63b8ff" points="275.69,-644.62 266.43,-649.76 276.88,-651.51 275.69,-644.62"/>
</a>
</g>
</g>
<!-- Node15 -->
<g id="Node000015" class="node">
<title>Node15</title>
<g id="a_Node000015"><a xlink:href="structxpath__parser.html#a49cbc6141508ace22ab4b8bd8ddf965a" target="_top" xlink:title=" ">
<polygon fill="white" stroke="#666666" points="871.5,-638 765.5,-638 765.5,-606 871.5,-606 871.5,-638"/>
<text xml:space="preserve" text-anchor="start" x="773.5" y="-624.5" font-family="Helvetica,sans-Serif" font-size="10.00">xpath_parser::parse</text>
<text xml:space="preserve" text-anchor="middle" x="818.5" y="-612.5" font-family="Helvetica,sans-Serif" font-size="10.00">_primary_expression</text>
</a>
</g>
</g>
<!-- Node14&#45;&gt;Node15 -->
<g id="edge27_Node000014_Node000015" class="edge">
<title>Node14&#45;&gt;Node15</title>
<g id="a_edge27_Node000014_Node000015"><a xlink:title=" ">
<path fill="none" stroke="#63b8ff" d="M718.7,-647.13C730.17,-644.22 742.49,-641.08 754.4,-638.05"/>
<polygon fill="#63b8ff" stroke="#63b8ff" points="754.9,-641.54 763.73,-635.68 753.18,-634.75 754.9,-641.54"/>
</a>
</g>
</g>
<!-- Node14&#45;&gt;Node25 -->
<g id="edge45_Node000014_Node000025" class="edge">
<title>Node14&#45;&gt;Node25</title>
<g id="a_edge45_Node000014_Node000025"><a xlink:title=" ">
<path fill="none" stroke="#63b8ff" d="M683.8,-643.53C695.61,-630.42 711.5,-611.15 722,-592 745.52,-549.11 740.98,-533.86 758,-488 775.22,-441.6 797.01,-387.81 808.86,-358.92"/>
<polygon fill="#63b8ff" stroke="#63b8ff" points="812.01,-360.47 812.58,-349.89 805.54,-357.8 812.01,-360.47"/>
</a>
</g>
</g>
<!-- Node15&#45;&gt;Node2 -->
<g id="edge28_Node000015_Node000002" class="edge">
<title>Node15&#45;&gt;Node2</title>
<g id="a_edge28_Node000015_Node000002"><a xlink:title=" ">
<path fill="none" stroke="#63b8ff" d="M858.13,-638.42C865.41,-642.34 872.71,-646.9 879,-652 898.89,-668.14 894,-682.34 915,-697 964.38,-731.47 988.1,-716.39 1043.5,-740 1068.38,-750.6 1095.5,-765.02 1115.1,-775.99"/>
<polygon fill="#63b8ff" stroke="#63b8ff" points="1113.14,-778.9 1123.56,-780.78 1116.58,-772.81 1113.14,-778.9"/>
</a>
</g>
</g>
<!-- Node15&#45;&gt;Node3 -->
<g id="edge29_Node000015_Node000003" class="edge">
<title>Node15&#45;&gt;Node3</title>
<g id="a_edge29_Node000015_Node000003"><a xlink:title=" ">
<path fill="none" stroke="#63b8ff" d="M827.59,-605.59C853.33,-553.37 933.51,-390.75 965.18,-326.5"/>
<polygon fill="#63b8ff" stroke="#63b8ff" points="968.22,-328.25 969.51,-317.74 961.95,-325.16 968.22,-328.25"/>
</a>
</g>
</g>
<!-- Node15&#45;&gt;Node4 -->
<g id="edge34_Node000015_Node000004" class="edge">
<title>Node15&#45;&gt;Node4</title>
<g id="a_edge34_Node000015_Node000004"><a xlink:title=" ">
<path fill="none" stroke="#63b8ff" d="M830.37,-605.63C846.24,-583.05 877.92,-542.69 915,-521 943.28,-504.45 1025.88,-486.21 1083.4,-474.92"/>
<polygon fill="#63b8ff" stroke="#63b8ff" points="1083.91,-478.39 1093.06,-473.05 1082.58,-471.52 1083.91,-478.39"/>
</a>
</g>
</g>
<!-- Node15&#45;&gt;Node5 -->
<g id="edge36_Node000015_Node000005" class="edge">
<title>Node15&#45;&gt;Node5</title>
<g id="a_edge36_Node000015_Node000005"><a xlink:title=" ">
<path fill="none" stroke="#63b8ff" d="M833.64,-638.12C858.17,-666.06 906.81,-721.38 915,-730 929.46,-745.22 946.48,-761.83 959.22,-774.03"/>
<polygon fill="#63b8ff" stroke="#63b8ff" points="956.52,-776.29 966.18,-780.65 961.35,-771.22 956.52,-776.29"/>
</a>
</g>
</g>
<!-- Node15&#45;&gt;Node7 -->
<g id="edge38_Node000015_Node000007" class="edge">
<title>Node15&#45;&gt;Node7</title>
<g id="a_edge38_Node000015_Node000007"><a xlink:title=" ">
<path fill="none" stroke="#63b8ff" d="M799.79,-638.37C781.76,-653.82 752.25,-675.92 722,-685 683.15,-696.66 374.7,-693.27 300.5,-683 292.49,-681.89 284.16,-680.28 275.98,-678.41"/>
<polygon fill="#63b8ff" stroke="#63b8ff" points="276.97,-675.05 266.43,-676.09 275.32,-681.85 276.97,-675.05"/>
</a>
</g>
</g>
<!-- Node16 -->
<g id="Node000016" class="node">
<title>Node16</title>
<g id="a_Node000016"><a xlink:href="pugixml_8cpp.html#a1a1fca8011d76ef218f46957cf16cd1e" target="_top" xlink:title=" ">
<polygon fill="white" stroke="#666666" points="1043.5,-562 915,-562 915,-530 1043.5,-530 1043.5,-562"/>
<text xml:space="preserve" text-anchor="start" x="923" y="-548.5" font-family="Helvetica,sans-Serif" font-size="10.00">convert_string_to_number</text>
<text xml:space="preserve" text-anchor="middle" x="979.25" y="-536.5" font-family="Helvetica,sans-Serif" font-size="10.00">_scratch</text>
</a>
</g>
</g>
<!-- Node15&#45;&gt;Node16 -->
<g id="edge30_Node000015_Node000016" class="edge">
<title>Node15&#45;&gt;Node16</title>
<g id="a_edge30_Node000015_Node000016"><a xlink:title=" ">
<path fill="none" stroke="#63b8ff" d="M847.9,-605.73C866.67,-595.26 891.97,-581.66 915,-571 918.06,-569.58 921.23,-568.17 924.44,-566.78"/>
<polygon fill="#63b8ff" stroke="#63b8ff" points="925.51,-570.13 933.37,-563.02 922.79,-563.68 925.51,-570.13"/>
</a>
</g>
</g>
<!-- Node20 -->
<g id="Node000020" class="node">
<title>Node20</title>
<g id="a_Node000020"><a xlink:href="structxpath__parser.html#a253554c10701671465d3eab96e464c93" target="_top" xlink:title=" ">
<polygon fill="white" stroke="#666666" points="1040.12,-688 918.38,-688 918.38,-668 1040.12,-668 1040.12,-688"/>
<text xml:space="preserve" text-anchor="middle" x="979.25" y="-674.5" font-family="Helvetica,sans-Serif" font-size="10.00">xpath_parser::error_oom</text>
</a>
</g>
</g>
<!-- Node15&#45;&gt;Node20 -->
<g id="edge35_Node000015_Node000020" class="edge">
<title>Node15&#45;&gt;Node20</title>
<g id="a_edge35_Node000015_Node000020"><a xlink:title=" ">
<path fill="none" stroke="#63b8ff" d="M859.67,-638.36C876.64,-645.06 896.67,-652.71 915,-659 920.09,-660.75 925.43,-662.49 930.77,-664.18"/>
<polygon fill="#63b8ff" stroke="#63b8ff" points="929.6,-667.48 940.19,-667.08 931.67,-660.79 929.6,-667.48"/>
</a>
</g>
</g>
<!-- Node21 -->
<g id="Node000021" class="node">
<title>Node21</title>
<g id="a_Node000021"><a xlink:href="pugixml_8cpp.html#a046d19e3dedb7e154882fe5ad4647e25" target="_top" xlink:title=" ">
<polygon fill="white" stroke="#666666" points="1032.25,-650 926.25,-650 926.25,-630 1032.25,-630 1032.25,-650"/>
<text xml:space="preserve" text-anchor="middle" x="979.25" y="-636.5" font-family="Helvetica,sans-Serif" font-size="10.00">get_variable_scratch</text>
</a>
</g>
</g>
<!-- Node15&#45;&gt;Node21 -->
<g id="edge37_Node000015_Node000021" class="edge">
<title>Node15&#45;&gt;Node21</title>
<g id="a_edge37_Node000015_Node000021"><a xlink:title=" ">
<path fill="none" stroke="#63b8ff" d="M871.92,-627.94C885.6,-629.5 900.5,-631.18 914.69,-632.79"/>
<polygon fill="#63b8ff" stroke="#63b8ff" points="914.05,-636.24 924.38,-633.89 914.84,-629.29 914.05,-636.24"/>
</a>
</g>
</g>
<!-- Node22 -->
<g id="Node000022" class="node">
<title>Node22</title>
<g id="a_Node000022"><a xlink:href="structxpath__parser.html#a9a68f1cbf9900714aefe00059a66a22d" target="_top" xlink:title=" ">
<polygon fill="white" stroke="#666666" points="1030.38,-612 928.12,-612 928.12,-580 1030.38,-580 1030.38,-612"/>
<text xml:space="preserve" text-anchor="start" x="936.12" y="-598.5" font-family="Helvetica,sans-Serif" font-size="10.00">xpath_parser::parse</text>
<text xml:space="preserve" text-anchor="middle" x="979.25" y="-586.5" font-family="Helvetica,sans-Serif" font-size="10.00">_function</text>
</a>
</g>
</g>
<!-- Node15&#45;&gt;Node22 -->
<g id="edge39_Node000015_Node000022" class="edge">
<title>Node15&#45;&gt;Node22</title>
<g id="a_edge39_Node000015_Node000022"><a xlink:title=" ">
<path fill="none" stroke="#63b8ff" d="M871.92,-613.41C886.24,-611.07 901.89,-608.51 916.67,-606.08"/>
<polygon fill="#63b8ff" stroke="#63b8ff" points="916.98,-609.58 926.28,-604.51 915.84,-602.67 916.98,-609.58"/>
</a>
</g>
</g>
<!-- Node15&#45;&gt;Node23 -->
<g id="edge42_Node000015_Node000023" class="edge">
<title>Node15&#45;&gt;Node23</title>
<g id="a_edge42_Node000015_Node000023"><a xlink:title=" ">
<path fill="none" stroke="#63b8ff" d="M822.99,-605.81C833.99,-555.78 869.85,-399.53 915,-275 930.73,-231.6 954.33,-182.93 967.81,-156.24"/>
<polygon fill="#63b8ff" stroke="#63b8ff" points="970.8,-158.07 972.23,-147.58 964.57,-154.89 970.8,-158.07"/>
</a>
</g>
</g>
<!-- Node17 -->
<g id="Node000017" class="node">
<title>Node17</title>
<g id="a_Node000017"><a xlink:href="pugixml_8cpp.html#ae6299198941714e42acefb1481370646" target="_top" xlink:title=" ">
<polygon fill="white" stroke="#666666" points="1208,-556 1079.5,-556 1079.5,-536 1208,-536 1208,-556"/>
<text xml:space="preserve" text-anchor="middle" x="1143.75" y="-542.5" font-family="Helvetica,sans-Serif" font-size="10.00">convert_string_to_number</text>
</a>
</g>
</g>
<!-- Node16&#45;&gt;Node17 -->
<g id="edge31_Node000016_Node000017" class="edge">
<title>Node16&#45;&gt;Node17</title>
<g id="a_edge31_Node000016_Node000017"><a xlink:title=" ">
<path fill="none" stroke="#63b8ff" d="M1043.54,-546C1051.48,-546 1059.65,-546 1067.74,-546"/>
<polygon fill="#63b8ff" stroke="#63b8ff" points="1067.58,-549.5 1077.58,-546 1067.58,-542.5 1067.58,-549.5"/>
</a>
</g>
</g>
<!-- Node18 -->
<g id="Node000018" class="node">
<title>Node18</title>
<g id="a_Node000018"><a xlink:href="pugixml_8cpp.html#a0bf9a61bcf9eb4888ef36942e5cd8d05" target="_top" xlink:title=" ">
<polygon fill="white" stroke="#666666" points="1366.5,-584 1244,-584 1244,-552 1366.5,-552 1366.5,-584"/>
<text xml:space="preserve" text-anchor="start" x="1252" y="-570.5" font-family="Helvetica,sans-Serif" font-size="10.00">check_string_to_number</text>
<text xml:space="preserve" text-anchor="middle" x="1305.25" y="-558.5" font-family="Helvetica,sans-Serif" font-size="10.00">_format</text>
</a>
</g>
</g>
<!-- Node17&#45;&gt;Node18 -->
<g id="edge32_Node000017_Node000018" class="edge">
<title>Node17&#45;&gt;Node18</title>
<g id="a_edge32_Node000017_Node000018"><a xlink:title=" ">
<path fill="none" stroke="#63b8ff" d="M1208.25,-554.76C1216.16,-555.85 1224.29,-556.97 1232.32,-558.08"/>
<polygon fill="#63b8ff" stroke="#63b8ff" points="1231.68,-561.52 1242.07,-559.42 1232.64,-554.59 1231.68,-561.52"/>
</a>
</g>
</g>
<!-- Node19 -->
<g id="Node000019" class="node">
<title>Node19</title>
<g id="a_Node000019"><a xlink:href="pugixml_8cpp.html#a2f4c7e7ca3a98b25cbfa5d98dd21b300" target="_top" xlink:title=" ">
<polygon fill="white" stroke="#666666" points="1331.62,-534 1278.88,-534 1278.88,-514 1331.62,-514 1331.62,-534"/>
<text xml:space="preserve" text-anchor="middle" x="1305.25" y="-520.5" font-family="Helvetica,sans-Serif" font-size="10.00">gen_nan</text>
</a>
</g>
</g>
<!-- Node17&#45;&gt;Node19 -->
<g id="edge33_Node000017_Node000019" class="edge">
<title>Node17&#45;&gt;Node19</title>
<g id="a_edge33_Node000017_Node000019"><a xlink:title=" ">
<path fill="none" stroke="#63b8ff" d="M1208.25,-537.24C1228.39,-534.46 1249.98,-531.49 1267.57,-529.06"/>
<polygon fill="#63b8ff" stroke="#63b8ff" points="1267.84,-532.55 1277.27,-527.72 1266.89,-525.62 1267.84,-532.55"/>
</a>
</g>
</g>
<!-- Node22&#45;&gt;Node2 -->
<g id="edge40_Node000022_Node000002" class="edge">
<title>Node22&#45;&gt;Node2</title>
<g id="a_edge40_Node000022_Node000002"><a xlink:title=" ">
<path fill="none" stroke="#63b8ff" d="M1030.75,-612.24C1035.31,-614.78 1039.65,-617.69 1043.5,-621 1092.35,-663.05 1122.94,-735.41 1135.77,-771"/>
<polygon fill="#63b8ff" stroke="#63b8ff" points="1132.35,-771.83 1138.94,-780.13 1138.97,-769.53 1132.35,-771.83"/>
</a>
</g>
</g>
<!-- Node22&#45;&gt;Node4 -->
<g id="edge41_Node000022_Node000004" class="edge">
<title>Node22&#45;&gt;Node4</title>
<g id="a_edge41_Node000022_Node000004"><a xlink:title=" ">
<path fill="none" stroke="#63b8ff" d="M1029.25,-579.6C1034.26,-577.06 1039.11,-574.2 1043.5,-571 1063.91,-556.1 1062.53,-545.72 1079.5,-527 1093.71,-511.33 1110.75,-494.46 1123.56,-482.12"/>
<polygon fill="#63b8ff" stroke="#63b8ff" points="1125.76,-484.86 1130.57,-475.42 1120.92,-479.8 1125.76,-484.86"/>
</a>
</g>
</g>
<!-- Node24 -->
<g id="Node000024" class="node">
<title>Node24</title>
<g id="a_Node000024"><a xlink:href="classxpath__ast__node.html#ae5a059e41b41505bef1f7dbebda8070b" target="_top" xlink:title=" ">
<polygon fill="white" stroke="#666666" points="1201.25,-114 1086.25,-114 1086.25,-82 1201.25,-82 1201.25,-114"/>
<text xml:space="preserve" text-anchor="start" x="1094.25" y="-100.5" font-family="Helvetica,sans-Serif" font-size="10.00">xpath_ast_node::xpath</text>
<text xml:space="preserve" text-anchor="middle" x="1143.75" y="-88.5" font-family="Helvetica,sans-Serif" font-size="10.00">_ast_node</text>
</a>
</g>
</g>
<!-- Node23&#45;&gt;Node24 -->
<g id="edge43_Node000023_Node000024" class="edge">
<title>Node23&#45;&gt;Node24</title>
<g id="a_edge43_Node000023_Node000024"><a xlink:title=" ">
<path fill="none" stroke="#63b8ff" d="M1025.08,-125.52C1040.5,-121.91 1058.11,-117.79 1074.94,-113.86"/>
<polygon fill="#63b8ff" stroke="#63b8ff" points="1075.44,-117.34 1084.38,-111.65 1073.84,-110.52 1075.44,-117.34"/>
</a>
</g>
</g>
<!-- Node24&#45;&gt;Node24 -->
<g id="edge44_Node000024_Node000024" class="edge">
<title>Node24&#45;&gt;Node24</title>
<g id="a_edge44_Node000024_Node000024"><a xlink:title=" ">
<path fill="none" stroke="#63b8ff" d="M1114.92,-114.44C1109.54,-123.58 1119.15,-132 1143.75,-132 1157.21,-132 1166.18,-129.48 1170.66,-125.71"/>
<polygon fill="#63b8ff" stroke="#63b8ff" points="1174.1,-126.38 1172.33,-115.93 1167.2,-125.2 1174.1,-126.38"/>
</a>
</g>
</g>
<!-- Node26&#45;&gt;Node2 -->
<g id="edge47_Node000026_Node000002" class="edge">
<title>Node26&#45;&gt;Node2</title>
<g id="a_edge47_Node000026_Node000002"><a xlink:title=" ">
<path fill="none" stroke="#63b8ff" d="M718.01,-840.46C730.89,-843.99 744.84,-847.2 758,-849 884,-866.2 919.99,-860.27 1043.5,-830 1066.27,-824.42 1090.89,-815.02 1109.91,-806.96"/>
<polygon fill="#63b8ff" stroke="#63b8ff" points="1111.23,-810.2 1119.02,-803.02 1108.45,-803.78 1111.23,-810.2"/>
</a>
</g>
</g>
<!-- Node26&#45;&gt;Node27 -->
<g id="edge48_Node000026_Node000027" class="edge">
<title>Node26&#45;&gt;Node27</title>
<g id="a_edge48_Node000026_Node000027"><a xlink:title=" ">
<path fill="none" stroke="#63b8ff" d="M718.7,-824C728.41,-824 738.74,-824 748.91,-824"/>
<polygon fill="#63b8ff" stroke="#63b8ff" points="748.78,-827.5 758.78,-824 748.78,-820.5 748.78,-827.5"/>
</a>
</g>
</g>
<!-- Node27&#45;&gt;Node1 -->
<g id="edge51_Node000027_Node000001" class="edge">
<title>Node27&#45;&gt;Node1</title>
<g id="a_edge51_Node000027_Node000001"><a xlink:title=" ">
<path fill="none" stroke="#63b8ff" d="M780.9,-840.4C724.06,-864.33 610.57,-906 509.62,-906 351.75,-906 351.75,-906 351.75,-906 67.97,-906 61.57,-384.72 63.52,-271.52"/>
<polygon fill="#63b8ff" stroke="#63b8ff" points="67.02,-271.89 63.74,-261.82 60.02,-271.74 67.02,-271.89"/>
</a>
</g>
</g>
<!-- Node27&#45;&gt;Node2 -->
<g id="edge49_Node000027_Node000002" class="edge">
<title>Node27&#45;&gt;Node2</title>
<g id="a_edge49_Node000027_Node000002"><a xlink:title=" ">
<path fill="none" stroke="#63b8ff" d="M876.77,-822.74C922.14,-821.25 987.06,-818.01 1043.5,-811 1056.69,-809.36 1070.77,-807.03 1084.06,-804.55"/>
<polygon fill="#63b8ff" stroke="#63b8ff" points="1084.35,-808.06 1093.51,-802.74 1083.03,-801.19 1084.35,-808.06"/>
</a>
</g>
</g>
<!-- Node27&#45;&gt;Node5 -->
<g id="edge50_Node000027_Node000005" class="edge">
<title>Node27&#45;&gt;Node5</title>
<g id="a_edge50_Node000027_Node000005"><a xlink:title=" ">
<path fill="none" stroke="#63b8ff" d="M876.81,-812.45C889.31,-809.93 902.61,-807.25 915.32,-804.69"/>
<polygon fill="#63b8ff" stroke="#63b8ff" points="915.7,-808.18 924.81,-802.77 914.32,-801.32 915.7,-808.18"/>
</a>
</g>
</g>
<!-- Node29&#45;&gt;Node24 -->
<g id="edge61_Node000029_Node000024" class="edge">
<title>Node29&#45;&gt;Node24</title>
<g id="a_edge61_Node000029_Node000024"><a xlink:title=" ">
<path fill="none" stroke="#63b8ff" d="M405.43,-54.8C467.38,-55.69 574.33,-57 666.12,-57 666.12,-57 666.12,-57 819.5,-57 908.27,-57 1009.67,-72.41 1074.86,-84.33"/>
<polygon fill="#63b8ff" stroke="#63b8ff" points="1073.84,-87.7 1084.32,-86.08 1075.12,-80.82 1073.84,-87.7"/>
</a>
</g>
</g>
</g>
</svg>
