<?xml version="1.0" encoding="UTF-8" standalone="no"?>
<!DOCTYPE svg PUBLIC "-//W3C//DTD SVG 1.1//EN"
 "http://www.w3.org/Graphics/SVG/1.1/DTD/svg11.dtd">
<!-- Generated by graphviz version 14.1.2 (20260124.0452)
 -->
<!-- Title: utf16_writer::any Pages: 1 -->
<svg width="224pt" height="66pt"
 viewBox="0.00 0.00 224.00 66.00" xmlns="http://www.w3.org/2000/svg" xmlns:xlink="http://www.w3.org/1999/xlink">
<g id="graph0" class="graph" transform="scale(1 1) rotate(0) translate(4 62)">
<title>utf16_writer::any</title>
<!-- Node1 -->
<g id="Node000001" class="node">
<title>Node1</title>
<g id="a_Node000001"><a xlink:title=" ">
<polygon fill="#999999" stroke="#666666" points="88.75,-39 0,-39 0,-19 88.75,-19 88.75,-39"/>
<text xml:space="preserve" text-anchor="middle" x="44.38" y="-25.5" font-family="Helvetica,sans-Serif" font-size="10.00">utf16_writer::any</text>
</a>
</g>
</g>
<!-- Node2 -->
<g id="Node000002" class="node">
<title>Node2</title>
<g id="a_Node000002"><a xlink:href="structutf16__writer.html#a01b6ce1a567dea11daead3ca83f42d5c" target="_top" xlink:title=" ">
<polygon fill="white" stroke="#666666" points="215.75,-58 124.75,-58 124.75,-38 215.75,-38 215.75,-58"/>
<text xml:space="preserve" text-anchor="middle" x="170.25" y="-44.5" font-family="Helvetica,sans-Serif" font-size="10.00">utf16_writer::high</text>
</a>
</g>
</g>
<!-- Node1&#45;&gt;Node2 -->
<g id="edge1_Node000001_Node000002" class="edge">
<title>Node1&#45;&gt;Node2</title>
<g id="a_edge1_Node000001_Node000002"><a xlink:title=" ">
<path fill="none" stroke="#63b8ff" d="M89.05,-35.7C96.81,-36.89 105,-38.15 113.05,-39.38"/>
<polygon fill="#63b8ff" stroke="#63b8ff" points="112.38,-42.82 122.8,-40.88 113.45,-35.9 112.38,-42.82"/>
</a>
</g>
</g>
<!-- Node3 -->
<g id="Node000003" class="node">
<title>Node3</title>
<g id="a_Node000003"><a xlink:href="structutf16__writer.html#ab11fef721a8b38de5e315d2e75d12956" target="_top" xlink:title=" ">
<polygon fill="white" stroke="#666666" points="214.25,-20 126.25,-20 126.25,0 214.25,0 214.25,-20"/>
<text xml:space="preserve" text-anchor="middle" x="170.25" y="-6.5" font-family="Helvetica,sans-Serif" font-size="10.00">utf16_writer::low</text>
</a>
</g>
</g>
<!-- Node1&#45;&gt;Node3 -->
<g id="edge2_Node000001_Node000003" class="edge">
<title>Node1&#45;&gt;Node3</title>
<g id="a_edge2_Node000001_Node000003"><a xlink:title=" ">
<path fill="none" stroke="#63b8ff" d="M89.05,-22.3C97.38,-21.02 106.19,-19.67 114.81,-18.35"/>
<polygon fill="#63b8ff" stroke="#63b8ff" points="115.12,-21.84 124.47,-16.87 114.06,-14.92 115.12,-21.84"/>
</a>
</g>
</g>
</g>
</svg>
