<?xml version="1.0" encoding="UTF-8" standalone="no"?>
<!DOCTYPE svg PUBLIC "-//W3C//DTD SVG 1.1//EN"
 "http://www.w3.org/Graphics/SVG/1.1/DTD/svg11.dtd">
<!-- Generated by graphviz version 14.1.2 (20260124.0452)
 -->
<!-- Title: xml_allocator::allocate_object Pages: 1 -->
<!--zoomable 104 -->

<svg id="main" version="1.1" xmlns="http://www.w3.org/2000/svg" xmlns:xlink="http://www.w3.org/1999/xlink" xml:space="preserve" onload="init(evt)">

<style type="text/css"><![CDATA[
.node, .edge {opacity: 0.7;}
.node.selected, .edge.selected {opacity: 1;}
.edge:hover path { stroke: red; }
.edge:hover polygon { stroke: red; fill: red; }
]]></style>

<defs>
  <circle id="rim" cx="0" cy="0" r="7"/>
  <circle id="rim2" cx="0" cy="0" r="3.5"/>
  <g id="zoomPlus">
    <use xlink:href="#rim" fill="#404040"><set attributeName="fill" to="#808080" begin="zoomplus.mouseover" end="zoomplus.mouseout"/></use>
    <path d="M-4,0h8M0,-4v8" fill="none" stroke="white" stroke-width="1.5" pointer-events="none"/>
  </g>
  <g id="zoomMin">
    <use xlink:href="#rim" fill="#404040"><set attributeName="fill" to="#808080" begin="zoomminus.mouseover" end="zoomminus.mouseout"/></use>
    <path d="M-4,0h8" fill="none" stroke="white" stroke-width="1.5" pointer-events="none"/>
  </g>
  <g id="arrowUp" transform="translate(30 24)">
    <use xlink:href="#rim"/>
    <path pointer-events="none" fill="none" stroke="white" stroke-width="1.5" d="M0,-3.0v7 M-2.5,-0.5L0,-3.0L2.5,-0.5"/>
  </g>
  <g id="arrowRight" transform="rotate(90) translate(36 -43)">
    <use xlink:href="#rim"/>
    <path pointer-events="none" fill="none" stroke="white" stroke-width="1.5" d="M0,-3.0v7 M-2.5,-0.5L0,-3.0L2.5,-0.5"/>
  </g>
  <g id="arrowDown" transform="rotate(180) translate(-30 -48)">
    <use xlink:href="#rim"/>
    <path pointer-events="none" fill="none" stroke="white" stroke-width="1.5" d="M0,-3.0v7 M-2.5,-0.5L0,-3.0L2.5,-0.5"/>
  </g>
  <g id="arrowLeft" transform="rotate(270) translate(-36 17)">
    <use xlink:href="#rim"/>
    <path pointer-events="none" fill="none" stroke="white" stroke-width="1.5" d="M0,-3.0v7 M-2.5,-0.5L0,-3.0L2.5,-0.5"/>
  </g>
  <g id="resetDef">
    <use xlink:href="#rim2" fill="#404040"><set attributeName="fill" to="#808080" begin="reset.mouseover" end="reset.mouseout"/></use>
  </g>
</defs>
<script type="application/ecmascript">
var viewWidth = 677;
var viewHeight = 104;
var sectionId = 'dynsection-8';
</script>
<script type="application/ecmascript" xlink:href="svg.min.js"/>
<svg id="graph" class="graph">
<g id="viewport">
<title>xml_allocator::allocate_object</title>
<!-- Node1 -->
<g id="Node000001" class="node">
<title>Node1</title>
<g id="a_Node000001"><a xlink:title=" ">
<polygon fill="#999999" stroke="#666666" points="668.75,-45 555.25,-45 555.25,-13 668.75,-13 668.75,-45"/>
<text xml:space="preserve" text-anchor="start" x="563.25" y="-31.5" font-family="Helvetica,sans-Serif" font-size="10.00">xml_allocator::allocate</text>
<text xml:space="preserve" text-anchor="middle" x="612" y="-19.5" font-family="Helvetica,sans-Serif" font-size="10.00">_object</text>
</a>
</g>
</g>
<!-- Node2 -->
<g id="Node000002" class="node">
<title>Node2</title>
<g id="a_Node000002"><a xlink:href="pugixml_8cpp.html#a26ec349a881efb75dce214a92fd56842" target="_top" xlink:title=" ">
<polygon fill="white" stroke="#666666" points="519.25,-58 429,-58 429,-38 519.25,-38 519.25,-58"/>
<text xml:space="preserve" text-anchor="middle" x="474.12" y="-44.5" font-family="Helvetica,sans-Serif" font-size="10.00">allocate_attribute</text>
</a>
</g>
</g>
<!-- Node1&#45;&gt;Node2 -->
<g id="edge1_Node000001_Node000002" class="edge">
<title>Node1&#45;&gt;Node2</title>
<g id="a_edge1_Node000001_Node000002"><a xlink:title=" ">
<path fill="none" stroke="#63b8ff" d="M543.75,-38.4C535.49,-39.56 527.22,-40.71 519.43,-41.8"/>
<polygon fill="#63b8ff" stroke="#63b8ff" points="544.03,-41.9 553.45,-37.05 543.06,-34.97 544.03,-41.9"/>
</a>
</g>
</g>
<!-- Node8 -->
<g id="Node000008" class="node">
<title>Node8</title>
<g id="a_Node000008"><a xlink:href="pugixml_8cpp.html#adb3f2586fe1e65ad9a04c54dd7192d9a" target="_top" xlink:title=" ">
<polygon fill="white" stroke="#666666" points="512.12,-20 436.12,-20 436.12,0 512.12,0 512.12,-20"/>
<text xml:space="preserve" text-anchor="middle" x="474.12" y="-6.5" font-family="Helvetica,sans-Serif" font-size="10.00">allocate_node</text>
</a>
</g>
</g>
<!-- Node1&#45;&gt;Node8 -->
<g id="edge7_Node000001_Node000008" class="edge">
<title>Node1&#45;&gt;Node8</title>
<g id="a_edge7_Node000001_Node000008"><a xlink:title=" ">
<path fill="none" stroke="#63b8ff" d="M543.77,-19.6C532.99,-18.09 522.18,-16.58 512.44,-15.22"/>
<polygon fill="#63b8ff" stroke="#63b8ff" points="543.06,-23.03 553.45,-20.95 544.03,-16.1 543.06,-23.03"/>
</a>
</g>
</g>
<!-- Node3 -->
<g id="Node000003" class="node">
<title>Node3</title>
<g id="a_Node000003"><a xlink:href="pugixml_8cpp.html#aa4d1cd18410ae2f5008f74bd5fc8a387" target="_top" xlink:title=" ">
<polygon fill="white" stroke="#666666" points="393,-58 281.75,-58 281.75,-38 393,-38 393,-58"/>
<text xml:space="preserve" text-anchor="middle" x="337.38" y="-44.5" font-family="Helvetica,sans-Serif" font-size="10.00">append_new_attribute</text>
</a>
</g>
</g>
<!-- Node2&#45;&gt;Node3 -->
<g id="edge2_Node000002_Node000003" class="edge">
<title>Node2&#45;&gt;Node3</title>
<g id="a_edge2_Node000002_Node000003"><a xlink:title=" ">
<path fill="none" stroke="#63b8ff" d="M417.2,-48C409.25,-48 401.09,-48 393.16,-48"/>
<polygon fill="#63b8ff" stroke="#63b8ff" points="417.12,-51.5 427.12,-48 417.12,-44.5 417.12,-51.5"/>
</a>
</g>
</g>
<!-- Node4 -->
<g id="Node000004" class="node">
<title>Node4</title>
<g id="a_Node000004"><a xlink:href="pugixml_8cpp.html#a04264129af89281e0d73c01e7b4716bb" target="_top" xlink:title=" ">
<polygon fill="white" stroke="#666666" points="240.88,-58 134.88,-58 134.88,-38 240.88,-38 240.88,-58"/>
<text xml:space="preserve" text-anchor="middle" x="187.88" y="-44.5" font-family="Helvetica,sans-Serif" font-size="10.00">node_copy_contents</text>
</a>
</g>
</g>
<!-- Node3&#45;&gt;Node4 -->
<g id="edge3_Node000003_Node000004" class="edge">
<title>Node3&#45;&gt;Node4</title>
<g id="a_edge3_Node000003_Node000004"><a xlink:title=" ">
<path fill="none" stroke="#63b8ff" d="M270.09,-48C260.31,-48 250.35,-48 240.91,-48"/>
<polygon fill="#63b8ff" stroke="#63b8ff" points="269.94,-51.5 279.94,-48 269.94,-44.5 269.94,-51.5"/>
</a>
</g>
</g>
<!-- Node6 -->
<g id="Node000006" class="node">
<title>Node6</title>
<g id="a_Node000006"><a xlink:href="structxml__parser.html#a35bac90f1975aa1a9d5de4b60b761f16" target="_top" xlink:title=" ">
<polygon fill="white" stroke="#666666" points="245.75,-96 130,-96 130,-76 245.75,-76 245.75,-96"/>
<text xml:space="preserve" text-anchor="middle" x="187.88" y="-82.5" font-family="Helvetica,sans-Serif" font-size="10.00">xml_parser::parse_tree</text>
</a>
</g>
</g>
<!-- Node3&#45;&gt;Node6 -->
<g id="edge5_Node000003_Node000006" class="edge">
<title>Node3&#45;&gt;Node6</title>
<g id="a_edge5_Node000003_Node000006"><a xlink:title=" ">
<path fill="none" stroke="#63b8ff" d="M284.7,-61.31C266.58,-65.98 246.51,-71.15 229.44,-75.55"/>
<polygon fill="#63b8ff" stroke="#63b8ff" points="285.4,-64.75 294.21,-58.86 283.66,-57.97 285.4,-64.75"/>
</a>
</g>
</g>
<!-- Node5 -->
<g id="Node000005" class="node">
<title>Node5</title>
<g id="a_Node000005"><a xlink:href="pugixml_8cpp.html#a14949165ebd41eaf762dce303c0118a9" target="_top" xlink:title=" ">
<polygon fill="white" stroke="#666666" points="89.5,-39 4.5,-39 4.5,-19 89.5,-19 89.5,-39"/>
<text xml:space="preserve" text-anchor="middle" x="47" y="-25.5" font-family="Helvetica,sans-Serif" font-size="10.00">node_copy_tree</text>
</a>
</g>
</g>
<!-- Node4&#45;&gt;Node5 -->
<g id="edge4_Node000004_Node000005" class="edge">
<title>Node4&#45;&gt;Node5</title>
<g id="a_edge4_Node000004_Node000005"><a xlink:title=" ">
<path fill="none" stroke="#63b8ff" d="M123.52,-39.33C112.15,-37.78 100.57,-36.19 90,-34.75"/>
<polygon fill="#63b8ff" stroke="#63b8ff" points="122.89,-42.78 133.27,-40.67 123.84,-35.84 122.89,-42.78"/>
</a>
</g>
</g>
<!-- Node7 -->
<g id="Node000007" class="node">
<title>Node7</title>
<g id="a_Node000007"><a xlink:href="structxml__parser.html#a4bf0acd166edf3fc6cc9543002ff6f5d" target="_top" xlink:title=" ">
<polygon fill="white" stroke="#666666" points="94,-96 0,-96 0,-76 94,-76 94,-96"/>
<text xml:space="preserve" text-anchor="middle" x="47" y="-82.5" font-family="Helvetica,sans-Serif" font-size="10.00">xml_parser::parse</text>
</a>
</g>
</g>
<!-- Node6&#45;&gt;Node7 -->
<g id="edge6_Node000006_Node000007" class="edge">
<title>Node6&#45;&gt;Node7</title>
<g id="a_edge6_Node000006_Node000007"><a xlink:title=" ">
<path fill="none" stroke="#63b8ff" d="M118.14,-86C110.01,-86 101.86,-86 94.14,-86"/>
<polygon fill="#63b8ff" stroke="#63b8ff" points="118.07,-89.5 128.07,-86 118.07,-82.5 118.07,-89.5"/>
</a>
</g>
</g>
<!-- Node9 -->
<g id="Node000009" class="node">
<title>Node9</title>
<g id="a_Node000009"><a xlink:href="pugixml_8cpp.html#a6762031546d0bbd558c6301061c94f7a" target="_top" xlink:title=" ">
<polygon fill="white" stroke="#666666" points="385.88,-20 288.88,-20 288.88,0 385.88,0 385.88,-20"/>
<text xml:space="preserve" text-anchor="middle" x="337.38" y="-6.5" font-family="Helvetica,sans-Serif" font-size="10.00">append_new_node</text>
</a>
</g>
</g>
<!-- Node8&#45;&gt;Node9 -->
<g id="edge8_Node000008_Node000009" class="edge">
<title>Node8&#45;&gt;Node9</title>
<g id="a_edge8_Node000008_Node000009"><a xlink:title=" ">
<path fill="none" stroke="#63b8ff" d="M424.72,-10C412.14,-10 398.6,-10 386.05,-10"/>
<polygon fill="#63b8ff" stroke="#63b8ff" points="424.43,-13.5 434.43,-10 424.43,-6.5 424.43,-13.5"/>
</a>
</g>
</g>
<!-- Node9&#45;&gt;Node5 -->
<g id="edge9_Node000009_Node000005" class="edge">
<title>Node9&#45;&gt;Node5</title>
<g id="a_edge9_Node000009_Node000005"><a xlink:title=" ">
<path fill="none" stroke="#63b8ff" d="M276.95,-13.92C221.19,-17.59 139.2,-22.99 89.96,-26.24"/>
<polygon fill="#63b8ff" stroke="#63b8ff" points="277.17,-17.41 286.92,-13.26 276.71,-10.42 277.17,-17.41"/>
</a>
</g>
</g>
</g>
</svg>

<g id="navigator" transform="translate(0 0)" fill="#404254">
  <rect fill="#f2f5e9" fill-opacity="0.5" stroke="#606060" stroke-width=".5" x="0" y="0" width="60" height="60"/>
  <use id="zoomplus" xlink:href="#zoomPlus" x="17" y="9" onmousedown="handleZoom(evt,'in')"/>
  <use id="zoomminus" xlink:href="#zoomMin" x="42" y="9" onmousedown="handleZoom(evt,'out')"/>
  <use id="reset" xlink:href="#resetDef" x="30" y="36" onmousedown="handleReset()"/>
   <use id="arrowup" xlink:href="#arrowUp" x="0" y="0" onmousedown="handlePan(0,-1)"/>
  <use id="arrowright" xlink:href="#arrowRight" x="0" y="0" onmousedown="handlePan(1,0)"/>
  <use id="arrowdown" xlink:href="#arrowDown" x="0" y="0" onmousedown="handlePan(0,1)"/>
  <use id="arrowleft" xlink:href="#arrowLeft" x="0" y="0" onmousedown="handlePan(-1,0)"/>
</g>
<svg viewBox="0 0 15 15" width="100%" height="30px" preserveAspectRatio="xMaxYMin meet">
 <g id="arrow_out" transform="scale(0.3 0.3)">
  <a xlink:href="structxml__allocator_a103dfdec5c72cb955e2a97a61fdc9af1_icgraph_org.svg" target="_base">
   <rect id="button" ry="5" rx="5" y="6" x="6" height="38" width="38"
        fill="#f2f5e9" fill-opacity="0.5" stroke="#606060" stroke-width="1.0"/>
   <path id="arrow"
     d="M 11.500037,31.436501 C 11.940474,20.09759 22.043105,11.32322 32.158766,21.979434 L 37.068811,17.246167 C 37.068811,17.246167 37.088388,32 37.088388,32 L 22.160133,31.978069 C 22.160133,31.978069 26.997745,27.140456 26.997745,27.140456 C 18.528582,18.264221 13.291696,25.230495 11.500037,31.436501 z"
     style="fill:#404040;"/>
  </a>
 </g>
</svg>

<style type='text/css'>
<![CDATA[
[data-mouse-over-selected='false'] { opacity: 0.7; }
[data-mouse-over-selected='true']  { opacity: 1.0; }
]]>
</style>
<script type="application/ecmascript"><![CDATA[
document.addEventListener('DOMContentLoaded', (event) => {
  highlightEdges();
  highlightAdjacentNodes();
});
]]></script>
</svg>
