<?xml version="1.0" encoding="UTF-8" standalone="no"?>
<!DOCTYPE svg PUBLIC "-//W3C//DTD SVG 1.1//EN"
 "http://www.w3.org/Graphics/SVG/1.1/DTD/svg11.dtd">
<!-- Generated by graphviz version 14.1.2 (20260124.0452)
 -->
<!-- Title: xml_parser Pages: 1 -->
<svg width="239pt" height="116pt"
 viewBox="0.00 0.00 239.00 116.00" xmlns="http://www.w3.org/2000/svg" xmlns:xlink="http://www.w3.org/1999/xlink">

<svg id="main" version="1.1" xmlns="http://www.w3.org/2000/svg" xmlns:xlink="http://www.w3.org/1999/xlink" xml:space="preserve">

<style type="text/css"><![CDATA[
.node, .edge {opacity: 0.7;}
.node.selected, .edge.selected {opacity: 1;}
.edge:hover path { stroke: red; }
.edge:hover polygon { stroke: red; fill: red; }
]]></style>
<script type="application/ecmascript" xlink:href="svg.min.js"/>
<svg id="graph" class="graph">
<g id="graph0" class="graph" transform="scale(1 1) rotate(0) translate(4 112)">
<title>xml_parser</title>
<!-- Node1 -->
<g id="Node000001" class="node">
<title>Node1</title>
<g id="a_Node000001"><a xlink:title=" ">
<polygon fill="#999999" stroke="#666666" points="64,-27 0,-27 0,-7 64,-7 64,-27"/>
<text xml:space="preserve" text-anchor="middle" x="32" y="-13.5" font-family="Helvetica,sans-Serif" font-size="10.00">xml_parser</text>
</a>
</g>
</g>
<!-- Node2 -->
<g id="Node000002" class="node">
<title>Node2</title>
<g id="a_Node000002"><a xlink:href="structxml__allocator.html" target="_top" xlink:title=" ">
<polygon fill="white" stroke="#666666" points="117.88,-108 44.12,-108 44.12,-88 117.88,-88 117.88,-108"/>
<text xml:space="preserve" text-anchor="middle" x="81" y="-94.5" font-family="Helvetica,sans-Serif" font-size="10.00">xml_allocator</text>
</a>
</g>
</g>
<!-- Node2&#45;&gt;Node1 -->
<g id="edge1_Node000001_Node000002" class="edge">
<title>Node2&#45;&gt;Node1</title>
<g id="a_edge1_Node000001_Node000002"><a xlink:title=" ">
<path fill="none" stroke="#9a32cd" stroke-dasharray="5,2" d="M43.32,-81.47C39.13,-78.28 35.42,-74.48 32.75,-70 24.89,-56.82 27.14,-38.21 29.54,-27.2"/>
<polygon fill="#9a32cd" stroke="#9a32cd" points="41.42,-84.42 51.76,-86.76 45.14,-78.48 41.42,-84.42"/>
</a>
</g>
<text xml:space="preserve" text-anchor="start" x="35.75" y="-57.5" font-family="Helvetica,sans-Serif" font-size="10.00" fill="grey">alloc</text>
</g>
<!-- Node3 -->
<g id="Node000003" class="node">
<title>Node3</title>
<g id="a_Node000003"><a xlink:href="structxml__memory__page.html" target="_top" xlink:title=" ">
<polygon fill="white" stroke="#666666" points="188.25,-27 89.75,-27 89.75,-7 188.25,-7 188.25,-27"/>
<text xml:space="preserve" text-anchor="middle" x="139" y="-13.5" font-family="Helvetica,sans-Serif" font-size="10.00">xml_memory_page</text>
</a>
</g>
</g>
<!-- Node2&#45;&gt;Node3 -->
<g id="edge3_Node000003_Node000002" class="edge">
<title>Node2&#45;&gt;Node3</title>
<g id="a_edge3_Node000003_Node000002"><a xlink:title=" ">
<path fill="none" stroke="#9a32cd" stroke-dasharray="5,2" d="M75,-76.49C73.8,-68.37 73.99,-59.26 78.25,-52 84.97,-40.53 97.14,-32.64 108.82,-27.37"/>
<polygon fill="#9a32cd" stroke="#9a32cd" points="71.59,-77.24 77.23,-86.2 78.41,-75.67 71.59,-77.24"/>
</a>
</g>
<text xml:space="preserve" text-anchor="start" x="81.25" y="-57.5" font-family="Helvetica,sans-Serif" font-size="10.00" fill="grey">allocator</text>
</g>
<!-- Node3&#45;&gt;Node2 -->
<g id="edge2_Node000002_Node000003" class="edge">
<title>Node3&#45;&gt;Node2</title>
<g id="a_edge2_Node000002_Node000003"><a xlink:title=" ">
<path fill="none" stroke="#9a32cd" stroke-dasharray="5,2" d="M137.07,-38.61C135.26,-48.85 131.76,-60.95 125,-70 119.42,-77.47 111.11,-83.32 103.21,-87.64"/>
<polygon fill="#9a32cd" stroke="#9a32cd" points="140.52,-39.22 138.35,-28.85 133.58,-38.31 140.52,-39.22"/>
</a>
</g>
<text xml:space="preserve" text-anchor="start" x="136.47" y="-57.5" font-family="Helvetica,sans-Serif" font-size="10.00" fill="grey">_root</text>
</g>
<!-- Node3&#45;&gt;Node3 -->
<g id="edge4_Node000003_Node000003" class="edge">
<title>Node3&#45;&gt;Node3</title>
<g id="a_edge4_Node000003_Node000003"><a xlink:title=" ">
<path fill="none" stroke="#9a32cd" stroke-dasharray="5,2" d="M199.7,-22.93C203.78,-21.56 206.25,-19.58 206.25,-17 206.25,-12.53 198.85,-9.88 188.56,-9.04"/>
<polygon fill="#9a32cd" stroke="#9a32cd" points="199.26,-19.45 190.05,-24.69 200.52,-26.34 199.26,-19.45"/>
</a>
</g>
<text xml:space="preserve" text-anchor="start" x="209.25" y="-21.5" font-family="Helvetica,sans-Serif" font-size="10.00" fill="grey">next</text>
<text xml:space="preserve" text-anchor="start" x="209.25" y="-5.5" font-family="Helvetica,sans-Serif" font-size="10.00" fill="grey">prev</text>
</g>
</g>
</svg>
</svg>

<style type='text/css'>
<![CDATA[
[data-mouse-over-selected='false'] { opacity: 0.7; }
[data-mouse-over-selected='true']  { opacity: 1.0; }
]]>
</style>
<script type="application/ecmascript"><![CDATA[
document.addEventListener('DOMContentLoaded', (event) => {
  highlightEdges();
  highlightAdjacentNodes();
});
]]></script>
</svg>
