<?xml version="1.0" encoding="UTF-8" standalone="no"?>
<!DOCTYPE svg PUBLIC "-//W3C//DTD SVG 1.1//EN"
 "http://www.w3.org/Graphics/SVG/1.1/DTD/svg11.dtd">
<!-- Generated by graphviz version 14.1.2 (20260124.0452)
 -->
<!-- Title: gap::push Pages: 1 -->
<svg width="810pt" height="286pt"
 viewBox="0.00 0.00 810.00 286.00" xmlns="http://www.w3.org/2000/svg" xmlns:xlink="http://www.w3.org/1999/xlink">
<g id="graph0" class="graph" transform="scale(1 1) rotate(0) translate(4 282)">
<title>gap::push</title>
<!-- Node1 -->
<g id="Node000001" class="node">
<title>Node1</title>
<g id="a_Node000001"><a xlink:title=" ">
<polygon fill="#999999" stroke="#666666" points="801.75,-134 743,-134 743,-114 801.75,-114 801.75,-134"/>
<text xml:space="preserve" text-anchor="middle" x="772.38" y="-120.5" font-family="Helvetica,sans-Serif" font-size="10.00">gap::push</text>
</a>
</g>
</g>
<!-- Node2 -->
<g id="Node000002" class="node">
<title>Node2</title>
<g id="a_Node000002"><a xlink:href="structstrconv__pcdata__impl.html#a7f14166de54e30596aa4e398568b4a5f" target="_top" xlink:title=" ">
<polygon fill="white" stroke="#666666" points="554.12,-278 448.12,-278 448.12,-246 554.12,-246 554.12,-278"/>
<text xml:space="preserve" text-anchor="start" x="456.12" y="-264.5" font-family="Helvetica,sans-Serif" font-size="10.00">strconv_pcdata_impl</text>
<text xml:space="preserve" text-anchor="middle" x="501.12" y="-252.5" font-family="Helvetica,sans-Serif" font-size="10.00">::parse</text>
</a>
</g>
</g>
<!-- Node1&#45;&gt;Node2 -->
<g id="edge1_Node000001_Node000002" class="edge">
<title>Node1&#45;&gt;Node2</title>
<g id="a_edge1_Node000001_Node000002"><a xlink:title=" ">
<path fill="none" stroke="#63b8ff" d="M761.07,-144.17C750.2,-163.43 731.28,-191.84 707,-208 660.92,-238.68 598.21,-251.95 554.35,-257.68"/>
<polygon fill="#63b8ff" stroke="#63b8ff" points="764.01,-146.09 765.68,-135.63 757.85,-142.77 764.01,-146.09"/>
</a>
</g>
</g>
<!-- Node6 -->
<g id="Node000006" class="node">
<title>Node6</title>
<g id="a_Node000006"><a xlink:href="structstrconv__attribute__impl.html#a078a9b175b8c7a338d58431ec959a98c" target="_top" xlink:title=" ">
<polygon fill="white" stroke="#666666" points="557.12,-228 445.12,-228 445.12,-196 557.12,-196 557.12,-228"/>
<text xml:space="preserve" text-anchor="start" x="453.12" y="-214.5" font-family="Helvetica,sans-Serif" font-size="10.00">strconv_attribute_impl</text>
<text xml:space="preserve" text-anchor="middle" x="501.12" y="-202.5" font-family="Helvetica,sans-Serif" font-size="10.00">::parse_eol</text>
</a>
</g>
</g>
<!-- Node1&#45;&gt;Node6 -->
<g id="edge5_Node000001_Node000006" class="edge">
<title>Node1&#45;&gt;Node6</title>
<g id="a_edge5_Node000001_Node000006"><a xlink:title=" ">
<path fill="none" stroke="#63b8ff" d="M755.71,-142.67C743.75,-155.61 726.12,-172.06 707,-181 659.59,-203.17 599.89,-210.16 557.18,-212.05"/>
<polygon fill="#63b8ff" stroke="#63b8ff" points="758.02,-145.35 762.03,-135.54 752.78,-140.71 758.02,-145.35"/>
</a>
</g>
</g>
<!-- Node8 -->
<g id="Node000008" class="node">
<title>Node8</title>
<g id="a_Node000008"><a xlink:href="structstrconv__attribute__impl.html#abb4e88a853d1bc28af060f38f3f0f8d3" target="_top" xlink:title=" ">
<polygon fill="white" stroke="#666666" points="557.12,-128 445.12,-128 445.12,-96 557.12,-96 557.12,-128"/>
<text xml:space="preserve" text-anchor="start" x="453.12" y="-114.5" font-family="Helvetica,sans-Serif" font-size="10.00">strconv_attribute_impl</text>
<text xml:space="preserve" text-anchor="middle" x="501.12" y="-102.5" font-family="Helvetica,sans-Serif" font-size="10.00">::parse_wconv</text>
</a>
</g>
</g>
<!-- Node1&#45;&gt;Node8 -->
<g id="edge8_Node000001_Node000008" class="edge">
<title>Node1&#45;&gt;Node8</title>
<g id="a_edge8_Node000001_Node000008"><a xlink:title=" ">
<path fill="none" stroke="#63b8ff" d="M731.24,-122.21C685.14,-120.16 609.24,-116.77 557.53,-114.47"/>
<polygon fill="#63b8ff" stroke="#63b8ff" points="730.9,-125.7 741.05,-122.65 731.21,-118.71 730.9,-125.7"/>
</a>
</g>
</g>
<!-- Node9 -->
<g id="Node000009" class="node">
<title>Node9</title>
<g id="a_Node000009"><a xlink:href="structstrconv__attribute__impl.html#a9e45f050f2526ac299cbc5adf4de442b" target="_top" xlink:title=" ">
<polygon fill="white" stroke="#666666" points="557.12,-78 445.12,-78 445.12,-46 557.12,-46 557.12,-78"/>
<text xml:space="preserve" text-anchor="start" x="453.12" y="-64.5" font-family="Helvetica,sans-Serif" font-size="10.00">strconv_attribute_impl</text>
<text xml:space="preserve" text-anchor="middle" x="501.12" y="-52.5" font-family="Helvetica,sans-Serif" font-size="10.00">::parse_wnorm</text>
</a>
</g>
</g>
<!-- Node1&#45;&gt;Node9 -->
<g id="edge10_Node000001_Node000009" class="edge">
<title>Node1&#45;&gt;Node9</title>
<g id="a_edge10_Node000001_Node000009"><a xlink:title=" ">
<path fill="none" stroke="#63b8ff" d="M731.53,-114.82C685.46,-104.22 609.35,-86.69 557.53,-74.76"/>
<polygon fill="#63b8ff" stroke="#63b8ff" points="730.56,-118.19 741.09,-117.03 732.13,-111.37 730.56,-118.19"/>
</a>
</g>
</g>
<!-- Node10 -->
<g id="Node000010" class="node">
<title>Node10</title>
<g id="a_Node000010"><a xlink:href="pugixml_8cpp.html#a17c42195ecf9b84b34bfb53b5c6480b8" target="_top" xlink:title=" ">
<polygon fill="white" stroke="#666666" points="698.75,-20 621.25,-20 621.25,0 698.75,0 698.75,-20"/>
<text xml:space="preserve" text-anchor="middle" x="660" y="-6.5" font-family="Helvetica,sans-Serif" font-size="10.00">strconv_cdata</text>
</a>
</g>
</g>
<!-- Node1&#45;&gt;Node10 -->
<g id="edge12_Node000001_Node000010" class="edge">
<title>Node1&#45;&gt;Node10</title>
<g id="a_edge12_Node000001_Node000010"><a xlink:title=" ">
<path fill="none" stroke="#63b8ff" d="M761.98,-103.52C751.33,-82.31 732.14,-49.48 707,-29 702.85,-25.62 698.01,-22.76 693.06,-20.37"/>
<polygon fill="#63b8ff" stroke="#63b8ff" points="758.73,-104.83 766.22,-112.32 765.03,-101.79 758.73,-104.83"/>
</a>
</g>
</g>
<!-- Node12 -->
<g id="Node000012" class="node">
<title>Node12</title>
<g id="a_Node000012"><a xlink:href="pugixml_8cpp.html#a80f240310448aefa4adcb0a929db6462" target="_top" xlink:title=" ">
<polygon fill="white" stroke="#666666" points="707,-58 613,-58 613,-38 707,-38 707,-58"/>
<text xml:space="preserve" text-anchor="middle" x="660" y="-44.5" font-family="Helvetica,sans-Serif" font-size="10.00">strconv_comment</text>
</a>
</g>
</g>
<!-- Node1&#45;&gt;Node12 -->
<g id="edge15_Node000001_Node000012" class="edge">
<title>Node1&#45;&gt;Node12</title>
<g id="a_edge15_Node000001_Node000012"><a xlink:title=" ">
<path fill="none" stroke="#63b8ff" d="M751.49,-106.22C739.15,-95.63 722.7,-82.29 707,-72 699.47,-67.06 690.8,-62.32 683.03,-58.37"/>
<polygon fill="#63b8ff" stroke="#63b8ff" points="749.07,-108.75 758.9,-112.69 753.67,-103.48 749.07,-108.75"/>
</a>
</g>
</g>
<!-- Node13 -->
<g id="Node000013" class="node">
<title>Node13</title>
<g id="a_Node000013"><a xlink:href="pugixml_8cpp.html#a27b2a01a0bee31f8526055bdf590e42c" target="_top" xlink:title=" ">
<polygon fill="white" stroke="#666666" points="702.5,-172 617.5,-172 617.5,-152 702.5,-152 702.5,-172"/>
<text xml:space="preserve" text-anchor="middle" x="660" y="-158.5" font-family="Helvetica,sans-Serif" font-size="10.00">strconv_escape</text>
</a>
</g>
</g>
<!-- Node1&#45;&gt;Node13 -->
<g id="edge17_Node000001_Node000013" class="edge">
<title>Node1&#45;&gt;Node13</title>
<g id="a_edge17_Node000001_Node000013"><a xlink:title=" ">
<path fill="none" stroke="#63b8ff" d="M731.8,-137.63C718.4,-142.24 703.66,-147.31 691.11,-151.63"/>
<polygon fill="#63b8ff" stroke="#63b8ff" points="732.92,-140.94 741.23,-134.38 730.64,-134.32 732.92,-140.94"/>
</a>
</g>
</g>
<!-- Node3 -->
<g id="Node000003" class="node">
<title>Node3</title>
<g id="a_Node000003"><a xlink:href="pugixml_8cpp.html#a52da3e542d6ab6e06855274825508ab1" target="_top" xlink:title=" ">
<polygon fill="white" stroke="#666666" points="386.25,-228 284.75,-228 284.75,-208 386.25,-208 386.25,-228"/>
<text xml:space="preserve" text-anchor="middle" x="335.5" y="-214.5" font-family="Helvetica,sans-Serif" font-size="10.00">get_strconv_pcdata</text>
</a>
</g>
</g>
<!-- Node2&#45;&gt;Node3 -->
<g id="edge2_Node000002_Node000003" class="edge">
<title>Node2&#45;&gt;Node3</title>
<g id="a_edge2_Node000002_Node000003"><a xlink:title=" ">
<path fill="none" stroke="#63b8ff" d="M436.95,-245.01C416.26,-239.45 393.9,-233.43 375.53,-228.5"/>
<polygon fill="#63b8ff" stroke="#63b8ff" points="435.88,-248.35 446.44,-247.56 437.69,-241.59 435.88,-248.35"/>
</a>
</g>
</g>
<!-- Node4 -->
<g id="Node000004" class="node">
<title>Node4</title>
<g id="a_Node000004"><a xlink:href="structxml__parser.html#a35bac90f1975aa1a9d5de4b60b761f16" target="_top" xlink:title=" ">
<polygon fill="white" stroke="#666666" points="245.75,-147 130,-147 130,-127 245.75,-127 245.75,-147"/>
<text xml:space="preserve" text-anchor="middle" x="187.88" y="-133.5" font-family="Helvetica,sans-Serif" font-size="10.00">xml_parser::parse_tree</text>
</a>
</g>
</g>
<!-- Node3&#45;&gt;Node4 -->
<g id="edge3_Node000003_Node000004" class="edge">
<title>Node3&#45;&gt;Node4</title>
<g id="a_edge3_Node000003_Node000004"><a xlink:title=" ">
<path fill="none" stroke="#63b8ff" d="M305.77,-202.02C276.64,-185.82 232.41,-161.21 207.54,-147.38"/>
<polygon fill="#63b8ff" stroke="#63b8ff" points="304,-205.04 314.44,-206.84 307.4,-198.92 304,-205.04"/>
</a>
</g>
</g>
<!-- Node5 -->
<g id="Node000005" class="node">
<title>Node5</title>
<g id="a_Node000005"><a xlink:href="structxml__parser.html#a4bf0acd166edf3fc6cc9543002ff6f5d" target="_top" xlink:title=" ">
<polygon fill="white" stroke="#666666" points="94,-147 0,-147 0,-127 94,-127 94,-147"/>
<text xml:space="preserve" text-anchor="middle" x="47" y="-133.5" font-family="Helvetica,sans-Serif" font-size="10.00">xml_parser::parse</text>
</a>
</g>
</g>
<!-- Node4&#45;&gt;Node5 -->
<g id="edge4_Node000004_Node000005" class="edge">
<title>Node4&#45;&gt;Node5</title>
<g id="a_edge4_Node000004_Node000005"><a xlink:title=" ">
<path fill="none" stroke="#63b8ff" d="M118.14,-137C110.01,-137 101.86,-137 94.14,-137"/>
<polygon fill="#63b8ff" stroke="#63b8ff" points="118.07,-140.5 128.07,-137 118.07,-133.5 118.07,-140.5"/>
</a>
</g>
</g>
<!-- Node7 -->
<g id="Node000007" class="node">
<title>Node7</title>
<g id="a_Node000007"><a xlink:href="pugixml_8cpp.html#ab206ad5e3a83ea8040ec039ea641c208" target="_top" xlink:title=" ">
<polygon fill="white" stroke="#666666" points="389.25,-147 281.75,-147 281.75,-127 389.25,-127 389.25,-147"/>
<text xml:space="preserve" text-anchor="middle" x="335.5" y="-133.5" font-family="Helvetica,sans-Serif" font-size="10.00">get_strconv_attribute</text>
</a>
</g>
</g>
<!-- Node6&#45;&gt;Node7 -->
<g id="edge6_Node000006_Node000007" class="edge">
<title>Node6&#45;&gt;Node7</title>
<g id="a_edge6_Node000006_Node000007"><a xlink:title=" ">
<path fill="none" stroke="#63b8ff" d="M436.23,-191.59C432.49,-190.11 428.8,-188.58 425.25,-187 398.9,-175.31 370.13,-158.23 352.7,-147.37"/>
<polygon fill="#63b8ff" stroke="#63b8ff" points="434.87,-194.82 445.46,-195.08 437.35,-188.27 434.87,-194.82"/>
</a>
</g>
</g>
<!-- Node7&#45;&gt;Node4 -->
<g id="edge7_Node000007_Node000004" class="edge">
<title>Node7&#45;&gt;Node4</title>
<g id="a_edge7_Node000007_Node000004"><a xlink:title=" ">
<path fill="none" stroke="#63b8ff" d="M270.24,-137C262.17,-137 253.95,-137 246,-137"/>
<polygon fill="#63b8ff" stroke="#63b8ff" points="270,-140.5 280,-137 270,-133.5 270,-140.5"/>
</a>
</g>
</g>
<!-- Node8&#45;&gt;Node7 -->
<g id="edge9_Node000008_Node000007" class="edge">
<title>Node8&#45;&gt;Node7</title>
<g id="a_edge9_Node000008_Node000007"><a xlink:title=" ">
<path fill="none" stroke="#63b8ff" d="M433.68,-122.15C419.02,-124.39 403.68,-126.74 389.62,-128.88"/>
<polygon fill="#63b8ff" stroke="#63b8ff" points="433.88,-125.66 443.23,-120.69 432.82,-118.74 433.88,-125.66"/>
</a>
</g>
</g>
<!-- Node9&#45;&gt;Node7 -->
<g id="edge11_Node000009_Node000007" class="edge">
<title>Node9&#45;&gt;Node7</title>
<g id="a_edge11_Node000009_Node000007"><a xlink:title=" ">
<path fill="none" stroke="#63b8ff" d="M436.23,-82.41C432.49,-83.89 428.8,-85.42 425.25,-87 398.9,-98.69 370.13,-115.77 352.7,-126.63"/>
<polygon fill="#63b8ff" stroke="#63b8ff" points="437.35,-85.73 445.46,-78.92 434.87,-79.18 437.35,-85.73"/>
</a>
</g>
</g>
<!-- Node11 -->
<g id="Node000011" class="node">
<title>Node11</title>
<g id="a_Node000011"><a xlink:href="structxml__parser.html#afc651baa774c379ad03244cac2e96015" target="_top" xlink:title=" ">
<polygon fill="white" stroke="#666666" points="577,-28 425.25,-28 425.25,-8 577,-8 577,-28"/>
<text xml:space="preserve" text-anchor="middle" x="501.12" y="-14.5" font-family="Helvetica,sans-Serif" font-size="10.00">xml_parser::parse_exclamation</text>
</a>
</g>
</g>
<!-- Node10&#45;&gt;Node11 -->
<g id="edge13_Node000010_Node000011" class="edge">
<title>Node10&#45;&gt;Node11</title>
<g id="a_edge13_Node000010_Node000011"><a xlink:title=" ">
<path fill="none" stroke="#63b8ff" d="M609.74,-12.51C599.4,-13.04 588.28,-13.61 577.24,-14.17"/>
<polygon fill="#63b8ff" stroke="#63b8ff" points="609.7,-16.02 619.51,-12.01 609.35,-9.03 609.7,-16.02"/>
</a>
</g>
</g>
<!-- Node11&#45;&gt;Node4 -->
<g id="edge14_Node000011_Node000004" class="edge">
<title>Node11&#45;&gt;Node4</title>
<g id="a_edge14_Node000011_Node000004"><a xlink:title=" ">
<path fill="none" stroke="#63b8ff" d="M443.29,-31.45C437.16,-33.19 431.05,-35.05 425.25,-37 343.95,-64.34 251.26,-107.11 210.28,-126.64"/>
<polygon fill="#63b8ff" stroke="#63b8ff" points="444.08,-34.87 452.81,-28.86 442.24,-28.11 444.08,-34.87"/>
</a>
</g>
</g>
<!-- Node12&#45;&gt;Node11 -->
<g id="edge16_Node000012_Node000011" class="edge">
<title>Node12&#45;&gt;Node11</title>
<g id="a_edge16_Node000012_Node000011"><a xlink:title=" ">
<path fill="none" stroke="#63b8ff" d="M601.81,-37.06C587.15,-34.26 571.41,-31.25 556.87,-28.47"/>
<polygon fill="#63b8ff" stroke="#63b8ff" points="600.81,-40.44 611.29,-38.88 602.13,-33.56 600.81,-40.44"/>
</a>
</g>
</g>
<!-- Node13&#45;&gt;Node2 -->
<g id="edge18_Node000013_Node000002" class="edge">
<title>Node13&#45;&gt;Node2</title>
<g id="a_edge18_Node000013_Node000002"><a xlink:title=" ">
<path fill="none" stroke="#63b8ff" d="M642.64,-180.93C627.21,-197.73 602.68,-221.9 577,-237 570.03,-241.1 562.3,-244.64 554.52,-247.65"/>
<polygon fill="#63b8ff" stroke="#63b8ff" points="645.15,-183.37 649.21,-173.58 639.94,-178.7 645.15,-183.37"/>
</a>
</g>
</g>
<!-- Node13&#45;&gt;Node6 -->
<g id="edge19_Node000013_Node000006" class="edge">
<title>Node13&#45;&gt;Node6</title>
<g id="a_edge19_Node000013_Node000006"><a xlink:title=" ">
<path fill="none" stroke="#63b8ff" d="M615.32,-175.92C596.24,-182 573.71,-189.18 553.8,-195.53"/>
<polygon fill="#63b8ff" stroke="#63b8ff" points="616.21,-179.31 624.67,-172.94 614.08,-172.64 616.21,-179.31"/>
</a>
</g>
</g>
<!-- Node13&#45;&gt;Node8 -->
<g id="edge22_Node000013_Node000008" class="edge">
<title>Node13&#45;&gt;Node8</title>
<g id="a_edge22_Node000013_Node000008"><a xlink:title=" ">
<path fill="none" stroke="#63b8ff" d="M615.32,-148.08C596.24,-142 573.71,-134.82 553.8,-128.47"/>
<polygon fill="#63b8ff" stroke="#63b8ff" points="614.08,-151.36 624.67,-151.06 616.21,-144.69 614.08,-151.36"/>
</a>
</g>
</g>
<!-- Node13&#45;&gt;Node9 -->
<g id="edge23_Node000013_Node000009" class="edge">
<title>Node13&#45;&gt;Node9</title>
<g id="a_edge23_Node000013_Node000009"><a xlink:title=" ">
<path fill="none" stroke="#63b8ff" d="M642.64,-143.07C627.21,-126.27 602.68,-102.1 577,-87 570.86,-83.39 564.12,-80.21 557.28,-77.44"/>
<polygon fill="#63b8ff" stroke="#63b8ff" points="639.94,-145.3 649.21,-150.42 645.15,-140.63 639.94,-145.3"/>
</a>
</g>
</g>
<!-- Node14 -->
<g id="Node000014" class="node">
<title>Node14</title>
<g id="a_Node000014"><a xlink:href="structstrconv__attribute__impl.html#a56ce65fa313ef3bb4a95f5b03a959f7f" target="_top" xlink:title=" ">
<polygon fill="white" stroke="#666666" points="557.12,-178 445.12,-178 445.12,-146 557.12,-146 557.12,-178"/>
<text xml:space="preserve" text-anchor="start" x="453.12" y="-164.5" font-family="Helvetica,sans-Serif" font-size="10.00">strconv_attribute_impl</text>
<text xml:space="preserve" text-anchor="middle" x="501.12" y="-152.5" font-family="Helvetica,sans-Serif" font-size="10.00">::parse_simple</text>
</a>
</g>
</g>
<!-- Node13&#45;&gt;Node14 -->
<g id="edge20_Node000013_Node000014" class="edge">
<title>Node13&#45;&gt;Node14</title>
<g id="a_edge20_Node000013_Node000014"><a xlink:title=" ">
<path fill="none" stroke="#63b8ff" d="M606.27,-162C590.6,-162 573.39,-162 557.55,-162"/>
<polygon fill="#63b8ff" stroke="#63b8ff" points="605.86,-165.5 615.86,-162 605.86,-158.5 605.86,-165.5"/>
</a>
</g>
</g>
<!-- Node14&#45;&gt;Node7 -->
<g id="edge21_Node000014_Node000007" class="edge">
<title>Node14&#45;&gt;Node7</title>
<g id="a_edge21_Node000014_Node000007"><a xlink:title=" ">
<path fill="none" stroke="#63b8ff" d="M433.68,-151.85C419.02,-149.61 403.68,-147.26 389.62,-145.12"/>
<polygon fill="#63b8ff" stroke="#63b8ff" points="432.82,-155.26 443.23,-153.31 433.88,-148.34 432.82,-155.26"/>
</a>
</g>
</g>
</g>
</svg>
