<?xml version="1.0" encoding="UTF-8" standalone="no"?>
<!DOCTYPE svg PUBLIC "-//W3C//DTD SVG 1.1//EN"
 "http://www.w3.org/Graphics/SVG/1.1/DTD/svg11.dtd">
<!-- Generated by graphviz version 14.1.2 (20260124.0452)
 -->
<!-- Title: xpath_parser::parse_location_path Pages: 1 -->
<svg width="1665pt" height="1053pt"
 viewBox="0.00 0.00 1665.00 1053.00" xmlns="http://www.w3.org/2000/svg" xmlns:xlink="http://www.w3.org/1999/xlink">
<g id="graph0" class="graph" transform="scale(1 1) rotate(0) translate(4 1048.69)">
<title>xpath_parser::parse_location_path</title>
<!-- Node1 -->
<g id="Node000001" class="node">
<title>Node1</title>
<g id="a_Node000001"><a xlink:title=" ">
<polygon fill="#999999" stroke="#666666" points="102.25,-687.1 0,-687.1 0,-655.1 102.25,-655.1 102.25,-687.1"/>
<text xml:space="preserve" text-anchor="start" x="8" y="-673.6" font-family="Helvetica,sans-Serif" font-size="10.00">xpath_parser::parse</text>
<text xml:space="preserve" text-anchor="middle" x="51.12" y="-661.6" font-family="Helvetica,sans-Serif" font-size="10.00">_location_path</text>
</a>
</g>
</g>
<!-- Node2 -->
<g id="Node000002" class="node">
<title>Node2</title>
<g id="a_Node000002"><a xlink:href="structxpath__parser.html#a8a71f339a0386657a48b59acb3405acc" target="_top" xlink:title=" ">
<polygon fill="white" stroke="#666666" points="1496.12,-825.1 1371.38,-825.1 1371.38,-805.1 1496.12,-805.1 1496.12,-825.1"/>
<text xml:space="preserve" text-anchor="middle" x="1433.75" y="-811.6" font-family="Helvetica,sans-Serif" font-size="10.00">xpath_parser::alloc_node</text>
</a>
</g>
</g>
<!-- Node1&#45;&gt;Node2 -->
<g id="edge1_Node000001_Node000002" class="edge">
<title>Node1&#45;&gt;Node2</title>
<g id="a_edge1_Node000001_Node000002"><a xlink:title=" ">
<path fill="none" stroke="#63b8ff" d="M56.85,-687.19C78.24,-756.25 172.77,-1024.1 352.12,-1024.1 352.12,-1024.1 352.12,-1024.1 1109.5,-1024.1 1210.48,-1024.1 1250.53,-1043.66 1333.5,-986.1 1386.97,-949.02 1415.67,-873.09 1426.97,-836.18"/>
<polygon fill="#63b8ff" stroke="#63b8ff" points="1430.29,-837.3 1429.72,-826.72 1423.57,-835.35 1430.29,-837.3"/>
</a>
</g>
</g>
<!-- Node3 -->
<g id="Node000003" class="node">
<title>Node3</title>
<g id="a_Node000003"><a xlink:href="structxpath__parser.html#aebea559423376001c89b19216dfc3012" target="_top" xlink:title=" ">
<polygon fill="white" stroke="#666666" points="254,-687.1 138.25,-687.1 138.25,-655.1 254,-655.1 254,-687.1"/>
<text xml:space="preserve" text-anchor="start" x="146.25" y="-673.6" font-family="Helvetica,sans-Serif" font-size="10.00">xpath_parser::parse</text>
<text xml:space="preserve" text-anchor="middle" x="196.12" y="-661.6" font-family="Helvetica,sans-Serif" font-size="10.00">_relative_location_path</text>
</a>
</g>
</g>
<!-- Node1&#45;&gt;Node3 -->
<g id="edge2_Node000001_Node000003" class="edge">
<title>Node1&#45;&gt;Node3</title>
<g id="a_edge2_Node000001_Node000003"><a xlink:title=" ">
<path fill="none" stroke="#63b8ff" d="M102.54,-671.1C110.3,-671.1 118.43,-671.1 126.5,-671.1"/>
<polygon fill="#63b8ff" stroke="#63b8ff" points="126.33,-674.6 136.33,-671.1 126.33,-667.6 126.33,-674.6"/>
</a>
</g>
</g>
<!-- Node3&#45;&gt;Node2 -->
<g id="edge3_Node000003_Node000002" class="edge">
<title>Node3&#45;&gt;Node2</title>
<g id="a_edge3_Node000003_Node000002"><a xlink:title=" ">
<path fill="none" stroke="#63b8ff" d="M203.42,-687.6C229.34,-752.41 334.46,-986.1 502.38,-986.1 502.38,-986.1 502.38,-986.1 1109.5,-986.1 1210.07,-986.1 1247.57,-1006.35 1333.5,-954.1 1379.78,-925.96 1410.55,-867.21 1424.38,-835.86"/>
<polygon fill="#63b8ff" stroke="#63b8ff" points="1427.58,-837.28 1428.25,-826.7 1421.13,-834.55 1427.58,-837.28"/>
</a>
</g>
</g>
<!-- Node4 -->
<g id="Node000004" class="node">
<title>Node4</title>
<g id="a_Node000004"><a xlink:href="structxpath__parser.html#a6c99a4ff18254581f34ec6b715885d99" target="_top" xlink:title=" ">
<polygon fill="white" stroke="#666666" points="1327.5,-339.1 1211,-339.1 1211,-319.1 1327.5,-319.1 1327.5,-339.1"/>
<text xml:space="preserve" text-anchor="middle" x="1269.25" y="-325.6" font-family="Helvetica,sans-Serif" font-size="10.00">xpath_parser::error_rec</text>
</a>
</g>
</g>
<!-- Node3&#45;&gt;Node4 -->
<g id="edge4_Node000003_Node000004" class="edge">
<title>Node3&#45;&gt;Node4</title>
<g id="a_edge4_Node000003_Node000004"><a xlink:title=" ">
<path fill="none" stroke="#63b8ff" d="M199.25,-654.96C209.91,-580.93 264.78,-271.89 452.25,-138.1 711.56,46.94 913.06,46.57 1169,-143.1 1225.52,-184.99 1253.12,-268.82 1263.36,-308.01"/>
<polygon fill="#63b8ff" stroke="#63b8ff" points="1259.93,-308.72 1265.73,-317.58 1266.72,-307.04 1259.93,-308.72"/>
</a>
</g>
</g>
<!-- Node6 -->
<g id="Node000006" class="node">
<title>Node6</title>
<g id="a_Node000006"><a xlink:href="structxpath__parser.html#a0b226e2905970c868ab6a80d76da3a95" target="_top" xlink:title=" ">
<polygon fill="white" stroke="#666666" points="416.25,-738.1 290,-738.1 290,-718.1 416.25,-718.1 416.25,-738.1"/>
<text xml:space="preserve" text-anchor="middle" x="353.12" y="-724.6" font-family="Helvetica,sans-Serif" font-size="10.00">xpath_parser::parse_step</text>
</a>
</g>
</g>
<!-- Node3&#45;&gt;Node6 -->
<g id="edge6_Node000003_Node000006" class="edge">
<title>Node3&#45;&gt;Node6</title>
<g id="a_edge6_Node000003_Node000006"><a xlink:title=" ">
<path fill="none" stroke="#63b8ff" d="M241.96,-687.59C264.49,-695.88 291.54,-705.83 313.2,-713.79"/>
<polygon fill="#63b8ff" stroke="#63b8ff" points="311.96,-717.06 322.56,-717.23 314.38,-710.49 311.96,-717.06"/>
</a>
</g>
</g>
<!-- Node5 -->
<g id="Node000005" class="node">
<title>Node5</title>
<g id="a_Node000005"><a xlink:href="structxpath__parser.html#a0a96a8f5a16b2171a83b6ae3bb2ccbba" target="_top" xlink:title=" ">
<polygon fill="white" stroke="#666666" points="1482.62,-415.1 1384.88,-415.1 1384.88,-395.1 1482.62,-395.1 1482.62,-415.1"/>
<text xml:space="preserve" text-anchor="middle" x="1433.75" y="-401.6" font-family="Helvetica,sans-Serif" font-size="10.00">xpath_parser::error</text>
</a>
</g>
</g>
<!-- Node4&#45;&gt;Node5 -->
<g id="edge5_Node000004_Node000005" class="edge">
<title>Node4&#45;&gt;Node5</title>
<g id="a_edge5_Node000004_Node000005"><a xlink:title=" ">
<path fill="none" stroke="#63b8ff" d="M1299.83,-339.49C1310.55,-343.48 1322.68,-348.24 1333.5,-353.1 1358.01,-364.13 1384.98,-378.4 1404.61,-389.2"/>
<polygon fill="#63b8ff" stroke="#63b8ff" points="1402.66,-392.12 1413.1,-393.92 1406.05,-386 1402.66,-392.12"/>
</a>
</g>
</g>
<!-- Node6&#45;&gt;Node2 -->
<g id="edge7_Node000006_Node000002" class="edge">
<title>Node6&#45;&gt;Node2</title>
<g id="a_edge7_Node000006_Node000002"><a xlink:title=" ">
<path fill="none" stroke="#63b8ff" d="M361.73,-738.42C376.71,-757.93 412.09,-800.15 452.25,-821.1 528.49,-860.87 555.76,-860.1 641.75,-860.1 641.75,-860.1 641.75,-860.1 799.62,-860.1 1036.91,-860.1 1101.09,-904.94 1333.5,-857.1 1358.43,-851.97 1384.9,-840.43 1404.22,-830.75"/>
<polygon fill="#63b8ff" stroke="#63b8ff" points="1405.82,-833.86 1413.1,-826.16 1402.61,-827.64 1405.82,-833.86"/>
</a>
</g>
</g>
<!-- Node6&#45;&gt;Node4 -->
<g id="edge10_Node000006_Node000004" class="edge">
<title>Node6&#45;&gt;Node4</title>
<g id="a_edge10_Node000006_Node000004"><a xlink:title=" ">
<path fill="none" stroke="#63b8ff" d="M355.09,-717.87C361.13,-655.33 395.4,-324.69 452.25,-243.1 508.84,-161.9 542.77,-126.1 641.75,-126.1 641.75,-126.1 641.75,-126.1 958.12,-126.1 1091.45,-126.1 1212.1,-259.07 1253.27,-309.78"/>
<polygon fill="#63b8ff" stroke="#63b8ff" points="1250.51,-311.93 1259.48,-317.57 1255.98,-307.57 1250.51,-311.93"/>
</a>
</g>
</g>
<!-- Node6&#45;&gt;Node5 -->
<g id="edge9_Node000006_Node000005" class="edge">
<title>Node6&#45;&gt;Node5</title>
<g id="a_edge9_Node000006_Node000005"><a xlink:title=" ">
<path fill="none" stroke="#63b8ff" d="M416.53,-731.4C562.35,-737.82 920.05,-745.74 1012,-675.1 1049.13,-646.58 1015.26,-609.57 1048,-576.1 1088.35,-534.87 1126.35,-567.96 1169,-529.1 1195.45,-505.01 1176.86,-479.2 1205,-457.1 1206.71,-455.76 1308.01,-432.96 1374.92,-418"/>
<polygon fill="#63b8ff" stroke="#63b8ff" points="1375.28,-421.5 1384.27,-415.91 1373.75,-414.67 1375.28,-421.5"/>
</a>
</g>
</g>
<!-- Node7 -->
<g id="Node000007" class="node">
<title>Node7</title>
<g id="a_Node000007"><a xlink:href="structxpath__parser.html#a876c0c06a8cdc623926c8788e8d43fc3" target="_top" xlink:title=" ">
<polygon fill="white" stroke="#666666" points="1318.5,-831.1 1220,-831.1 1220,-799.1 1318.5,-799.1 1318.5,-831.1"/>
<text xml:space="preserve" text-anchor="start" x="1228" y="-817.6" font-family="Helvetica,sans-Serif" font-size="10.00">xpath_parser::alloc</text>
<text xml:space="preserve" text-anchor="middle" x="1269.25" y="-805.6" font-family="Helvetica,sans-Serif" font-size="10.00">_string</text>
</a>
</g>
</g>
<!-- Node6&#45;&gt;Node7 -->
<g id="edge8_Node000006_Node000007" class="edge">
<title>Node6&#45;&gt;Node7</title>
<g id="a_edge8_Node000006_Node000007"><a xlink:title=" ">
<path fill="none" stroke="#63b8ff" d="M364.8,-738.49C381.74,-754.26 416.53,-783.81 452.25,-797.1 531.58,-826.64 557.11,-816.1 641.75,-816.1 641.75,-816.1 641.75,-816.1 799.62,-816.1 946.4,-816.1 1119.02,-815.61 1208.18,-815.31"/>
<polygon fill="#63b8ff" stroke="#63b8ff" points="1208.17,-818.81 1218.16,-815.28 1208.15,-811.81 1208.17,-818.81"/>
</a>
</g>
</g>
<!-- Node8 -->
<g id="Node000008" class="node">
<title>Node8</title>
<g id="a_Node000008"><a xlink:href="structxpath__parser.html#ad67ec26e0e286ca1bb5144a79e3a3583" target="_top" xlink:title=" ">
<polygon fill="white" stroke="#666666" points="554.5,-788.1 452.25,-788.1 452.25,-756.1 554.5,-756.1 554.5,-788.1"/>
<text xml:space="preserve" text-anchor="start" x="460.25" y="-774.6" font-family="Helvetica,sans-Serif" font-size="10.00">xpath_parser::parse</text>
<text xml:space="preserve" text-anchor="middle" x="503.38" y="-762.6" font-family="Helvetica,sans-Serif" font-size="10.00">_axis_name</text>
</a>
</g>
</g>
<!-- Node6&#45;&gt;Node8 -->
<g id="edge11_Node000006_Node000008" class="edge">
<title>Node6&#45;&gt;Node8</title>
<g id="a_edge11_Node000006_Node000008"><a xlink:title=" ">
<path fill="none" stroke="#63b8ff" d="M389.26,-738.53C404.72,-743.12 423.34,-748.65 440.97,-753.88"/>
<polygon fill="#63b8ff" stroke="#63b8ff" points="439.75,-757.17 450.33,-756.66 441.74,-750.46 439.75,-757.17"/>
</a>
</g>
</g>
<!-- Node9 -->
<g id="Node000009" class="node">
<title>Node9</title>
<g id="a_Node000009"><a xlink:href="structxpath__parser.html#a7738e256011ca842dc2a0beba78562ed" target="_top" xlink:title=" ">
<polygon fill="white" stroke="#666666" points="554.5,-583.1 452.25,-583.1 452.25,-551.1 554.5,-551.1 554.5,-583.1"/>
<text xml:space="preserve" text-anchor="start" x="460.25" y="-569.6" font-family="Helvetica,sans-Serif" font-size="10.00">xpath_parser::parse</text>
<text xml:space="preserve" text-anchor="middle" x="503.38" y="-557.6" font-family="Helvetica,sans-Serif" font-size="10.00">_expression</text>
</a>
</g>
</g>
<!-- Node6&#45;&gt;Node9 -->
<g id="edge12_Node000006_Node000009" class="edge">
<title>Node6&#45;&gt;Node9</title>
<g id="a_edge12_Node000006_Node000009"><a xlink:title=" ">
<path fill="none" stroke="#63b8ff" d="M363.4,-718.03C386.42,-693.03 446.72,-627.54 479.82,-591.6"/>
<polygon fill="#63b8ff" stroke="#63b8ff" points="482.39,-593.98 486.59,-584.25 477.24,-589.24 482.39,-593.98"/>
</a>
</g>
</g>
<!-- Node25 -->
<g id="Node000025" class="node">
<title>Node25</title>
<g id="a_Node000025"><a xlink:href="classxpath__ast__node.html#a2764184d076834284eb3ff3182b845cc" target="_top" xlink:title=" ">
<polygon fill="white" stroke="#666666" points="1333.5,-945.1 1205,-945.1 1205,-925.1 1333.5,-925.1 1333.5,-945.1"/>
<text xml:space="preserve" text-anchor="middle" x="1269.25" y="-931.6" font-family="Helvetica,sans-Serif" font-size="10.00">xpath_ast_node::set_next</text>
</a>
</g>
</g>
<!-- Node6&#45;&gt;Node25 -->
<g id="edge59_Node000006_Node000025" class="edge">
<title>Node6&#45;&gt;Node25</title>
<g id="a_edge59_Node000006_Node000025"><a xlink:title=" ">
<path fill="none" stroke="#63b8ff" d="M357.39,-738.21C366.88,-765.74 397.34,-842.17 452.25,-874.1 515.39,-910.83 1003.78,-927.92 1193.36,-933.22"/>
<polygon fill="#63b8ff" stroke="#63b8ff" points="1192.99,-936.71 1203.09,-933.49 1193.19,-929.71 1192.99,-936.71"/>
</a>
</g>
</g>
<!-- Node27 -->
<g id="Node000027" class="node">
<title>Node27</title>
<g id="a_Node000027"><a xlink:href="classxpath__ast__node.html#a2c12e34a46db2a3d0052f9f38bcf1bb6" target="_top" xlink:title=" ">
<polygon fill="white" stroke="#666666" points="1169,-414.1 1048,-414.1 1048,-394.1 1169,-394.1 1169,-414.1"/>
<text xml:space="preserve" text-anchor="middle" x="1108.5" y="-400.6" font-family="Helvetica,sans-Serif" font-size="10.00">xpath_ast_node::rettype</text>
</a>
</g>
</g>
<!-- Node6&#45;&gt;Node27 -->
<g id="edge58_Node000006_Node000027" class="edge">
<title>Node6&#45;&gt;Node27</title>
<g id="a_edge58_Node000006_Node000027"><a xlink:title=" ">
<path fill="none" stroke="#63b8ff" d="M355.02,-717.95C360.98,-657.19 400.78,-340.18 590.5,-219.1 652.68,-179.42 819.66,-103.69 1012,-221.1 1070.92,-257.07 1095.24,-342.51 1103.67,-382.62"/>
<polygon fill="#63b8ff" stroke="#63b8ff" points="1100.2,-383.09 1105.55,-392.23 1107.07,-381.75 1100.2,-383.09"/>
</a>
</g>
</g>
<!-- Node28 -->
<g id="Node000028" class="node">
<title>Node28</title>
<g id="a_Node000028"><a xlink:href="structxpath__parser.html#a7b4555d7bfdb90971333c46963d5d791" target="_top" xlink:title=" ">
<polygon fill="white" stroke="#666666" points="1008.25,-666.1 906,-666.1 906,-634.1 1008.25,-634.1 1008.25,-666.1"/>
<text xml:space="preserve" text-anchor="start" x="914" y="-652.6" font-family="Helvetica,sans-Serif" font-size="10.00">xpath_parser::parse</text>
<text xml:space="preserve" text-anchor="middle" x="957.12" y="-640.6" font-family="Helvetica,sans-Serif" font-size="10.00">_node_test_type</text>
</a>
</g>
</g>
<!-- Node6&#45;&gt;Node28 -->
<g id="edge57_Node000006_Node000028" class="edge">
<title>Node6&#45;&gt;Node28</title>
<g id="a_edge57_Node000006_Node000028"><a xlink:title=" ">
<path fill="none" stroke="#63b8ff" d="M416.66,-719.04C428.48,-717.36 440.74,-715.66 452.25,-714.1 611.43,-692.64 799.19,-669.32 894.27,-657.65"/>
<polygon fill="#63b8ff" stroke="#63b8ff" points="894.67,-661.13 904.17,-656.44 893.82,-654.18 894.67,-661.13"/>
</a>
</g>
</g>
<!-- Node29 -->
<g id="Node000029" class="node">
<title>Node29</title>
<g id="a_Node000029"><a xlink:href="classxpath__ast__node.html#afe044146db852b7d4dbf188fd2ff6c75" target="_top" xlink:title=" ">
<polygon fill="white" stroke="#666666" points="695,-958.1 590.5,-958.1 590.5,-926.1 695,-926.1 695,-958.1"/>
<text xml:space="preserve" text-anchor="start" x="598.5" y="-944.6" font-family="Helvetica,sans-Serif" font-size="10.00">xpath_ast_node::set</text>
<text xml:space="preserve" text-anchor="middle" x="642.75" y="-932.6" font-family="Helvetica,sans-Serif" font-size="10.00">_right</text>
</a>
</g>
</g>
<!-- Node6&#45;&gt;Node29 -->
<g id="edge60_Node000006_Node000029" class="edge">
<title>Node6&#45;&gt;Node29</title>
<g id="a_edge60_Node000006_Node000029"><a xlink:title=" ">
<path fill="none" stroke="#63b8ff" d="M356.28,-738.6C363.47,-770.61 389.74,-867.58 452.25,-912.1 488.67,-938.05 539.01,-945.03 578.65,-945.81"/>
<polygon fill="#63b8ff" stroke="#63b8ff" points="578.52,-949.31 588.54,-945.86 578.55,-942.31 578.52,-949.31"/>
</a>
</g>
</g>
<!-- Node9&#45;&gt;Node4 -->
<g id="edge13_Node000009_Node000004" class="edge">
<title>Node9&#45;&gt;Node4</title>
<g id="a_edge13_Node000009_Node000004"><a xlink:title=" ">
<path fill="none" stroke="#63b8ff" d="M516.3,-550.66C552.62,-502.65 667.39,-366.1 797.62,-366.1 797.62,-366.1 797.62,-366.1 958.12,-366.1 1042.99,-366.1 1140,-352.28 1202.59,-341.53"/>
<polygon fill="#63b8ff" stroke="#63b8ff" points="1203.12,-344.99 1212.37,-339.82 1201.92,-338.09 1203.12,-344.99"/>
</a>
</g>
</g>
<!-- Node10 -->
<g id="Node000010" class="node">
<title>Node10</title>
<g id="a_Node000010"><a xlink:href="structxpath__parser.html#adcd54e9b508acfe1f040ee7a54b88f2a" target="_top" xlink:title=" ">
<polygon fill="white" stroke="#666666" points="693.88,-260.1 591.62,-260.1 591.62,-228.1 693.88,-228.1 693.88,-260.1"/>
<text xml:space="preserve" text-anchor="start" x="599.62" y="-246.6" font-family="Helvetica,sans-Serif" font-size="10.00">xpath_parser::parse</text>
<text xml:space="preserve" text-anchor="middle" x="642.75" y="-234.6" font-family="Helvetica,sans-Serif" font-size="10.00">_expression_rec</text>
</a>
</g>
</g>
<!-- Node9&#45;&gt;Node10 -->
<g id="edge14_Node000009_Node000010" class="edge">
<title>Node9&#45;&gt;Node10</title>
<g id="a_edge14_Node000009_Node000010"><a xlink:title=" ">
<path fill="none" stroke="#63b8ff" d="M510.52,-550.78C524.19,-514.67 558.45,-425.42 590.5,-352.1 602.8,-323.96 618.01,-292.26 628.65,-270.53"/>
<polygon fill="#63b8ff" stroke="#63b8ff" points="631.68,-272.3 632.95,-261.78 625.39,-269.21 631.68,-272.3"/>
</a>
</g>
</g>
<!-- Node15 -->
<g id="Node000015" class="node">
<title>Node15</title>
<g id="a_Node000015"><a xlink:href="structxpath__parser.html#ab5275305ebaac95fd68a3186b737aaa7" target="_top" xlink:title=" ">
<polygon fill="white" stroke="#666666" points="866.25,-583.1 731,-583.1 731,-551.1 866.25,-551.1 866.25,-583.1"/>
<text xml:space="preserve" text-anchor="start" x="739" y="-569.6" font-family="Helvetica,sans-Serif" font-size="10.00">xpath_parser::parse</text>
<text xml:space="preserve" text-anchor="middle" x="798.62" y="-557.6" font-family="Helvetica,sans-Serif" font-size="10.00">_path_or_unary_expression</text>
</a>
</g>
</g>
<!-- Node9&#45;&gt;Node15 -->
<g id="edge56_Node000009_Node000015" class="edge">
<title>Node9&#45;&gt;Node15</title>
<g id="a_edge56_Node000009_Node000015"><a xlink:title=" ">
<path fill="none" stroke="#63b8ff" d="M554.79,-561.86C600.02,-560.17 667.13,-559.9 719.35,-561.05"/>
<polygon fill="#63b8ff" stroke="#63b8ff" points="718.99,-564.55 729.07,-561.29 719.16,-557.55 718.99,-564.55"/>
</a>
</g>
</g>
<!-- Node10&#45;&gt;Node2 -->
<g id="edge15_Node000010_Node000002" class="edge">
<title>Node10&#45;&gt;Node2</title>
<g id="a_edge15_Node000010_Node000002"><a xlink:title=" ">
<path fill="none" stroke="#63b8ff" d="M657.17,-260.42C693.63,-304.2 798.79,-426.64 902.25,-511.1 947.07,-547.69 975.81,-535.97 1012,-581.1 1041.29,-617.63 1016.17,-645.77 1048,-680.1 1100.06,-736.27 1133.04,-724.89 1205,-751.1 1237.38,-762.9 1325.17,-786.73 1381.82,-801.75"/>
<polygon fill="#63b8ff" stroke="#63b8ff" points="1380.68,-805.07 1391.24,-804.24 1382.47,-798.3 1380.68,-805.07"/>
</a>
</g>
</g>
<!-- Node10&#45;&gt;Node4 -->
<g id="edge17_Node000010_Node000004" class="edge">
<title>Node10&#45;&gt;Node4</title>
<g id="a_edge17_Node000010_Node000004"><a xlink:title=" ">
<path fill="none" stroke="#63b8ff" d="M694.35,-232.71C765.86,-218.46 900.24,-198.51 1012,-221.1 1099.8,-238.85 1194.94,-287.61 1240.66,-313.1"/>
<polygon fill="#63b8ff" stroke="#63b8ff" points="1238.67,-316 1249.1,-317.86 1242.11,-309.9 1238.67,-316"/>
</a>
</g>
</g>
<!-- Node10&#45;&gt;Node5 -->
<g id="edge16_Node000010_Node000005" class="edge">
<title>Node10&#45;&gt;Node5</title>
<g id="a_edge16_Node000010_Node000005"><a xlink:title=" ">
<path fill="none" stroke="#63b8ff" d="M667.21,-227.65C742.78,-176.8 985.62,-30.44 1169,-112.1 1299.44,-170.19 1392.44,-328.2 1422.4,-384.68"/>
<polygon fill="#63b8ff" stroke="#63b8ff" points="1419.27,-386.25 1426.98,-393.51 1425.48,-383.02 1419.27,-386.25"/>
</a>
</g>
</g>
<!-- Node10&#45;&gt;Node10 -->
<g id="edge22_Node000010_Node000010" class="edge">
<title>Node10&#45;&gt;Node10</title>
<g id="a_edge22_Node000010_Node000010"><a xlink:title=" ">
<path fill="none" stroke="#63b8ff" d="M617.87,-260.55C613.22,-269.69 621.52,-278.1 642.75,-278.1 654.36,-278.1 662.1,-275.59 665.98,-271.81"/>
<polygon fill="#63b8ff" stroke="#63b8ff" points="669.42,-272.45 667.41,-262.04 662.49,-271.43 669.42,-272.45"/>
</a>
</g>
</g>
<!-- Node11 -->
<g id="Node000011" class="node">
<title>Node11</title>
<g id="a_Node000011"><a xlink:href="structxpath__parser_1_1binary__op__t.html#a723f5f2b66df47b4ac74455cb39b9544" target="_top" xlink:title=" ">
<polygon fill="white" stroke="#666666" points="850.88,-278.1 746.38,-278.1 746.38,-246.1 850.88,-246.1 850.88,-278.1"/>
<text xml:space="preserve" text-anchor="start" x="754.38" y="-264.6" font-family="Helvetica,sans-Serif" font-size="10.00">xpath_parser::binary</text>
<text xml:space="preserve" text-anchor="middle" x="798.62" y="-252.6" font-family="Helvetica,sans-Serif" font-size="10.00">_op_t::parse</text>
</a>
</g>
</g>
<!-- Node10&#45;&gt;Node11 -->
<g id="edge18_Node000010_Node000011" class="edge">
<title>Node10&#45;&gt;Node11</title>
<g id="a_edge18_Node000010_Node000011"><a xlink:title=" ">
<path fill="none" stroke="#63b8ff" d="M694.13,-250C707.14,-251.52 721.31,-253.18 734.87,-254.76"/>
<polygon fill="#63b8ff" stroke="#63b8ff" points="734.23,-258.21 744.57,-255.9 735.04,-251.26 734.23,-258.21"/>
</a>
</g>
</g>
<!-- Node10&#45;&gt;Node15 -->
<g id="edge23_Node000010_Node000015" class="edge">
<title>Node10&#45;&gt;Node15</title>
<g id="a_edge23_Node000010_Node000015"><a xlink:title=" ">
<path fill="none" stroke="#63b8ff" d="M667.19,-260.53C677.3,-268.84 688.32,-279.78 695,-292.1 738.85,-373.06 689.79,-413.78 731,-496.1 739.94,-513.96 754.81,-530.45 768.24,-543.04"/>
<polygon fill="#63b8ff" stroke="#63b8ff" points="765.88,-545.63 775.66,-549.71 770.56,-540.42 765.88,-545.63"/>
</a>
</g>
</g>
<!-- Node10&#45;&gt;Node27 -->
<g id="edge55_Node000010_Node000027" class="edge">
<title>Node10&#45;&gt;Node27</title>
<g id="a_edge55_Node000010_Node000027"><a xlink:title=" ">
<path fill="none" stroke="#63b8ff" d="M674.83,-260.56C691.3,-268.99 712,-279.13 731,-287.1 842.51,-333.91 979.43,-371.84 1053.58,-390.85"/>
<polygon fill="#63b8ff" stroke="#63b8ff" points="1052.47,-394.18 1063.02,-393.25 1054.19,-387.39 1052.47,-394.18"/>
</a>
</g>
</g>
<!-- Node12 -->
<g id="Node000012" class="node">
<title>Node12</title>
<g id="a_Node000012"><a xlink:href="structxpath__parser_1_1binary__op__t.html#a18cac63911120c27f5ee842b1e6afe35" target="_top" xlink:title=" ">
<polygon fill="white" stroke="#666666" points="1009.38,-338.1 904.88,-338.1 904.88,-306.1 1009.38,-306.1 1009.38,-338.1"/>
<text xml:space="preserve" text-anchor="start" x="912.88" y="-324.6" font-family="Helvetica,sans-Serif" font-size="10.00">xpath_parser::binary</text>
<text xml:space="preserve" text-anchor="middle" x="957.12" y="-312.6" font-family="Helvetica,sans-Serif" font-size="10.00">_op_t::binary_op_t</text>
</a>
</g>
</g>
<!-- Node11&#45;&gt;Node12 -->
<g id="edge19_Node000011_Node000012" class="edge">
<title>Node11&#45;&gt;Node12</title>
<g id="a_edge19_Node000011_Node000012"><a xlink:title=" ">
<path fill="none" stroke="#63b8ff" d="M842.39,-278.5C860.94,-285.61 882.88,-294.02 902.51,-301.55"/>
<polygon fill="#63b8ff" stroke="#63b8ff" points="901.14,-304.77 911.73,-305.08 903.64,-298.24 901.14,-304.77"/>
</a>
</g>
</g>
<!-- Node13 -->
<g id="Node000013" class="node">
<title>Node13</title>
<g id="a_Node000013"><a xlink:href="classxpath__lexer.html#a9a398feb578c697be7067f6f8d178fc9" target="_top" xlink:title=" ">
<polygon fill="white" stroke="#666666" points="1012,-288.1 902.25,-288.1 902.25,-268.1 1012,-268.1 1012,-288.1"/>
<text xml:space="preserve" text-anchor="middle" x="957.12" y="-274.6" font-family="Helvetica,sans-Serif" font-size="10.00">xpath_lexer::contents</text>
</a>
</g>
</g>
<!-- Node11&#45;&gt;Node13 -->
<g id="edge20_Node000011_Node000013" class="edge">
<title>Node11&#45;&gt;Node13</title>
<g id="a_edge20_Node000011_Node000013"><a xlink:title=" ">
<path fill="none" stroke="#63b8ff" d="M851.3,-267.39C863.84,-268.67 877.4,-270.06 890.48,-271.39"/>
<polygon fill="#63b8ff" stroke="#63b8ff" points="890.01,-274.86 900.31,-272.4 890.72,-267.9 890.01,-274.86"/>
</a>
</g>
</g>
<!-- Node14 -->
<g id="Node000014" class="node">
<title>Node14</title>
<g id="a_Node000014"><a xlink:href="classxpath__lexer.html#a47425d5012741aecfd898306651439d0" target="_top" xlink:title=" ">
<polygon fill="white" stroke="#666666" points="1008.25,-250.1 906,-250.1 906,-230.1 1008.25,-230.1 1008.25,-250.1"/>
<text xml:space="preserve" text-anchor="middle" x="957.12" y="-236.6" font-family="Helvetica,sans-Serif" font-size="10.00">xpath_lexer::current</text>
</a>
</g>
</g>
<!-- Node11&#45;&gt;Node14 -->
<g id="edge21_Node000011_Node000014" class="edge">
<title>Node11&#45;&gt;Node14</title>
<g id="a_edge21_Node000011_Node000014"><a xlink:title=" ">
<path fill="none" stroke="#63b8ff" d="M851.3,-254.84C865.07,-252.9 880.09,-250.79 894.34,-248.79"/>
<polygon fill="#63b8ff" stroke="#63b8ff" points="894.65,-252.28 904.07,-247.42 893.68,-245.35 894.65,-252.28"/>
</a>
</g>
</g>
<!-- Node15&#45;&gt;Node1 -->
<g id="edge51_Node000015_Node000001" class="edge">
<title>Node15&#45;&gt;Node1</title>
<g id="a_edge51_Node000015_Node000001"><a xlink:title=" ">
<path fill="none" stroke="#63b8ff" d="M730.69,-558.36C681.94,-552.44 614.25,-545.17 554.5,-542.1 509.12,-539.78 497.14,-535.05 452.25,-542.1 320.82,-562.77 173.69,-619.41 99.85,-650.32"/>
<polygon fill="#63b8ff" stroke="#63b8ff" points="98.75,-646.98 90.9,-654.09 101.47,-653.43 98.75,-646.98"/>
</a>
</g>
</g>
<!-- Node15&#45;&gt;Node2 -->
<g id="edge24_Node000015_Node000002" class="edge">
<title>Node15&#45;&gt;Node2</title>
<g id="a_edge24_Node000015_Node000002"><a xlink:title=" ">
<path fill="none" stroke="#63b8ff" d="M866.63,-577.7C921.06,-587.65 991.96,-604.14 1012,-625.1 1062.36,-677.8 999.52,-730.67 1048,-785.1 1097.17,-840.32 1132.11,-827.71 1205,-840.1 1261.3,-849.68 1276.82,-847.13 1333.5,-840.1 1352.02,-837.81 1372.04,-833.19 1389.22,-828.54"/>
<polygon fill="#63b8ff" stroke="#63b8ff" points="1389.91,-831.98 1398.6,-825.91 1388.02,-825.24 1389.91,-831.98"/>
</a>
</g>
</g>
<!-- Node15&#45;&gt;Node3 -->
<g id="edge53_Node000015_Node000003" class="edge">
<title>Node15&#45;&gt;Node3</title>
<g id="a_edge53_Node000015_Node000003"><a xlink:title=" ">
<path fill="none" stroke="#63b8ff" d="M730.67,-582.71C718.81,-585.3 706.56,-587.87 695,-590.1 542.35,-619.6 361.98,-647.14 265.75,-661.25"/>
<polygon fill="#63b8ff" stroke="#63b8ff" points="265.33,-657.78 255.94,-662.69 266.34,-664.7 265.33,-657.78"/>
</a>
</g>
</g>
<!-- Node15&#45;&gt;Node5 -->
<g id="edge25_Node000015_Node000005" class="edge">
<title>Node15&#45;&gt;Node5</title>
<g id="a_edge25_Node000015_Node000005"><a xlink:title=" ">
<path fill="none" stroke="#63b8ff" d="M866.59,-568.16C945.8,-566.19 1078.33,-552.4 1169,-488.1 1194.06,-470.34 1179.04,-445.52 1205,-429.1 1255.24,-397.33 1324.48,-394.48 1373.39,-397.61"/>
<polygon fill="#63b8ff" stroke="#63b8ff" points="1373,-401.09 1383.23,-398.36 1373.53,-394.11 1373,-401.09"/>
</a>
</g>
</g>
<!-- Node15&#45;&gt;Node9 -->
<g id="edge26_Node000015_Node000009" class="edge">
<title>Node15&#45;&gt;Node9</title>
<g id="a_edge26_Node000015_Node000009"><a xlink:title=" ">
<path fill="none" stroke="#63b8ff" d="M730.58,-572.88C681.07,-574.23 614.18,-574.18 566,-572.72"/>
<polygon fill="#63b8ff" stroke="#63b8ff" points="566.41,-569.24 556.3,-572.4 566.18,-576.23 566.41,-569.24"/>
</a>
</g>
</g>
<!-- Node16 -->
<g id="Node000016" class="node">
<title>Node16</title>
<g id="a_Node000016"><a xlink:href="structxpath__parser.html#a61a425d990a56d5db8cd14405835a5b6" target="_top" xlink:title=" ">
<polygon fill="white" stroke="#666666" points="1008.25,-502.1 906,-502.1 906,-470.1 1008.25,-470.1 1008.25,-502.1"/>
<text xml:space="preserve" text-anchor="start" x="914" y="-488.6" font-family="Helvetica,sans-Serif" font-size="10.00">xpath_parser::parse</text>
<text xml:space="preserve" text-anchor="middle" x="957.12" y="-476.6" font-family="Helvetica,sans-Serif" font-size="10.00">_filter_expression</text>
</a>
</g>
</g>
<!-- Node15&#45;&gt;Node16 -->
<g id="edge27_Node000015_Node000016" class="edge">
<title>Node15&#45;&gt;Node16</title>
<g id="a_edge27_Node000015_Node000016"><a xlink:title=" ">
<path fill="none" stroke="#63b8ff" d="M833.28,-550.69C843.86,-545.45 855.58,-539.6 866.25,-534.1 882.64,-525.67 900.57,-516.15 916.08,-507.83"/>
<polygon fill="#63b8ff" stroke="#63b8ff" points="917.4,-511.09 924.55,-503.27 914.08,-504.93 917.4,-511.09"/>
</a>
</g>
</g>
<!-- Node15&#45;&gt;Node27 -->
<g id="edge54_Node000015_Node000027" class="edge">
<title>Node15&#45;&gt;Node27</title>
<g id="a_edge54_Node000015_Node000027"><a xlink:title=" ">
<path fill="none" stroke="#63b8ff" d="M810.94,-550.9C828.05,-527.61 862.73,-484.85 902.25,-461.1 943.19,-436.5 995.07,-422.22 1036.42,-414.1"/>
<polygon fill="#63b8ff" stroke="#63b8ff" points="1036.84,-417.58 1046.03,-412.3 1035.55,-410.7 1036.84,-417.58"/>
</a>
</g>
</g>
<!-- Node15&#45;&gt;Node28 -->
<g id="edge52_Node000015_Node000028" class="edge">
<title>Node15&#45;&gt;Node28</title>
<g id="a_edge52_Node000015_Node000028"><a xlink:title=" ">
<path fill="none" stroke="#63b8ff" d="M830.54,-583.5C854.77,-596.35 888.68,-614.33 915.16,-628.38"/>
<polygon fill="#63b8ff" stroke="#63b8ff" points="913.46,-631.44 923.93,-633.03 916.74,-625.25 913.46,-631.44"/>
</a>
</g>
</g>
<!-- Node16&#45;&gt;Node2 -->
<g id="edge28_Node000016_Node000002" class="edge">
<title>Node16&#45;&gt;Node2</title>
<g id="a_edge28_Node000016_Node000002"><a xlink:title=" ">
<path fill="none" stroke="#63b8ff" d="M996.23,-502.5C1002.09,-506.3 1007.64,-510.82 1012,-516.1 1044.72,-555.79 1015.14,-586.53 1048,-626.1 1137.19,-733.51 1206.77,-698.54 1333.5,-757.1 1359.73,-769.22 1388.03,-786.18 1407.67,-798.63"/>
<polygon fill="#63b8ff" stroke="#63b8ff" points="1405.52,-801.41 1415.83,-803.87 1409.3,-795.52 1405.52,-801.41"/>
</a>
</g>
</g>
<!-- Node16&#45;&gt;Node4 -->
<g id="edge30_Node000016_Node000004" class="edge">
<title>Node16&#45;&gt;Node4</title>
<g id="a_edge30_Node000016_Node000004"><a xlink:title=" ">
<path fill="none" stroke="#63b8ff" d="M1008.53,-473.27C1066.83,-458.07 1156.45,-433.52 1169,-423.1 1195.91,-400.75 1178.91,-376.41 1205,-353.1 1208.75,-349.76 1213.01,-346.86 1217.51,-344.35"/>
<polygon fill="#63b8ff" stroke="#63b8ff" points="1218.78,-347.62 1226.26,-340.12 1215.74,-341.32 1218.78,-347.62"/>
</a>
</g>
</g>
<!-- Node16&#45;&gt;Node5 -->
<g id="edge29_Node000016_Node000005" class="edge">
<title>Node16&#45;&gt;Node5</title>
<g id="a_edge29_Node000016_Node000005"><a xlink:title=" ">
<path fill="none" stroke="#63b8ff" d="M1008.68,-491.32C1054.5,-493.41 1121.86,-489.64 1169,-457.1 1196.5,-438.13 1176.27,-408.16 1205,-391.1 1254.11,-361.95 1276.53,-387.11 1333.5,-391.1 1346.39,-392.01 1360.15,-393.57 1373.19,-395.32"/>
<polygon fill="#63b8ff" stroke="#63b8ff" points="1372.54,-398.76 1382.93,-396.69 1373.52,-391.83 1372.54,-398.76"/>
</a>
</g>
</g>
<!-- Node16&#45;&gt;Node9 -->
<g id="edge31_Node000016_Node000009" class="edge">
<title>Node16&#45;&gt;Node9</title>
<g id="a_edge31_Node000016_Node000009"><a xlink:title=" ">
<path fill="none" stroke="#63b8ff" d="M905.6,-495.16C822.23,-510.11 656.15,-539.89 566.02,-556.05"/>
<polygon fill="#63b8ff" stroke="#63b8ff" points="565.6,-552.57 556.37,-557.78 566.83,-559.46 565.6,-552.57"/>
</a>
</g>
</g>
<!-- Node17 -->
<g id="Node000017" class="node">
<title>Node17</title>
<g id="a_Node000017"><a xlink:href="structxpath__parser.html#a49cbc6141508ace22ab4b8bd8ddf965a" target="_top" xlink:title=" ">
<polygon fill="white" stroke="#666666" points="1161.5,-617.1 1055.5,-617.1 1055.5,-585.1 1161.5,-585.1 1161.5,-617.1"/>
<text xml:space="preserve" text-anchor="start" x="1063.5" y="-603.6" font-family="Helvetica,sans-Serif" font-size="10.00">xpath_parser::parse</text>
<text xml:space="preserve" text-anchor="middle" x="1108.5" y="-591.6" font-family="Helvetica,sans-Serif" font-size="10.00">_primary_expression</text>
</a>
</g>
</g>
<!-- Node16&#45;&gt;Node17 -->
<g id="edge32_Node000016_Node000017" class="edge">
<title>Node16&#45;&gt;Node17</title>
<g id="a_edge32_Node000016_Node000017"><a xlink:title=" ">
<path fill="none" stroke="#63b8ff" d="M990.45,-502.59C997.73,-506.71 1005.28,-511.33 1012,-516.1 1037.93,-534.53 1064.76,-558.96 1083.35,-576.9"/>
<polygon fill="#63b8ff" stroke="#63b8ff" points="1080.84,-579.35 1090.44,-583.83 1085.73,-574.34 1080.84,-579.35"/>
</a>
</g>
</g>
<!-- Node16&#45;&gt;Node27 -->
<g id="edge50_Node000016_Node000027" class="edge">
<title>Node16&#45;&gt;Node27</title>
<g id="a_edge50_Node000016_Node000027"><a xlink:title=" ">
<path fill="none" stroke="#63b8ff" d="M989.66,-469.61C997.12,-465.42 1004.95,-460.77 1012,-456.1 1028.9,-444.92 1030.43,-438.22 1048,-428.1 1053.81,-424.76 1060.18,-421.66 1066.53,-418.87"/>
<polygon fill="#63b8ff" stroke="#63b8ff" points="1067.78,-422.14 1075.68,-415.08 1065.1,-415.68 1067.78,-422.14"/>
</a>
</g>
</g>
<!-- Node17&#45;&gt;Node2 -->
<g id="edge33_Node000017_Node000002" class="edge">
<title>Node17&#45;&gt;Node2</title>
<g id="a_edge33_Node000017_Node000002"><a xlink:title=" ">
<path fill="none" stroke="#63b8ff" d="M1126.51,-617.46C1144.68,-634.17 1174.94,-659.9 1205,-676.1 1258.01,-704.68 1282.03,-687.84 1333.5,-719.1 1367.79,-739.93 1399.67,-774.56 1417.63,-796.04"/>
<polygon fill="#63b8ff" stroke="#63b8ff" points="1414.86,-798.19 1423.9,-803.72 1420.28,-793.76 1414.86,-798.19"/>
</a>
</g>
</g>
<!-- Node17&#45;&gt;Node4 -->
<g id="edge41_Node000017_Node000004" class="edge">
<title>Node17&#45;&gt;Node4</title>
<g id="a_edge41_Node000017_Node000004"><a xlink:title=" ">
<path fill="none" stroke="#63b8ff" d="M1118.96,-584.9C1146.44,-537.82 1226.26,-401.05 1256.47,-349.28"/>
<polygon fill="#63b8ff" stroke="#63b8ff" points="1259.35,-351.3 1261.37,-340.89 1253.31,-347.77 1259.35,-351.3"/>
</a>
</g>
</g>
<!-- Node17&#45;&gt;Node5 -->
<g id="edge39_Node000017_Node000005" class="edge">
<title>Node17&#45;&gt;Node5</title>
<g id="a_edge39_Node000017_Node000005"><a xlink:title=" ">
<path fill="none" stroke="#63b8ff" d="M1150.86,-584.62C1157.42,-580.82 1163.76,-576.33 1169,-571.1 1194.05,-546.12 1178.22,-523.23 1205,-500.1 1250.58,-460.75 1278.1,-480.71 1333.5,-457.1 1358.38,-446.5 1385.5,-432.08 1405.1,-421.12"/>
<polygon fill="#63b8ff" stroke="#63b8ff" points="1406.58,-424.3 1413.56,-416.33 1403.14,-418.21 1406.58,-424.3"/>
</a>
</g>
</g>
<!-- Node17&#45;&gt;Node7 -->
<g id="edge34_Node000017_Node000007" class="edge">
<title>Node17&#45;&gt;Node7</title>
<g id="a_edge34_Node000017_Node000007"><a xlink:title=" ">
<path fill="none" stroke="#63b8ff" d="M1121.69,-617.54C1149.22,-654.65 1216.36,-745.15 1249.34,-789.61"/>
<polygon fill="#63b8ff" stroke="#63b8ff" points="1246.34,-791.45 1255.11,-797.4 1251.97,-787.28 1246.34,-791.45"/>
</a>
</g>
</g>
<!-- Node17&#45;&gt;Node9 -->
<g id="edge43_Node000017_Node000009" class="edge">
<title>Node17&#45;&gt;Node9</title>
<g id="a_edge43_Node000017_Node000009"><a xlink:title=" ">
<path fill="none" stroke="#63b8ff" d="M1093.22,-617.28C1076.05,-635.39 1045.34,-663.7 1012,-675.1 965.85,-690.89 950.6,-681.55 902.25,-675.1 777.49,-658.47 636.39,-613.73 560.27,-587.34"/>
<polygon fill="#63b8ff" stroke="#63b8ff" points="561.54,-584.08 550.94,-584.09 559.23,-590.69 561.54,-584.08"/>
</a>
</g>
</g>
<!-- Node18 -->
<g id="Node000018" class="node">
<title>Node18</title>
<g id="a_Node000018"><a xlink:href="pugixml_8cpp.html#a1a1fca8011d76ef218f46957cf16cd1e" target="_top" xlink:title=" ">
<polygon fill="white" stroke="#666666" points="1333.5,-667.1 1205,-667.1 1205,-635.1 1333.5,-635.1 1333.5,-667.1"/>
<text xml:space="preserve" text-anchor="start" x="1213" y="-653.6" font-family="Helvetica,sans-Serif" font-size="10.00">convert_string_to_number</text>
<text xml:space="preserve" text-anchor="middle" x="1269.25" y="-641.6" font-family="Helvetica,sans-Serif" font-size="10.00">_scratch</text>
</a>
</g>
</g>
<!-- Node17&#45;&gt;Node18 -->
<g id="edge35_Node000017_Node000018" class="edge">
<title>Node17&#45;&gt;Node18</title>
<g id="a_edge35_Node000017_Node000018"><a xlink:title=" ">
<path fill="none" stroke="#63b8ff" d="M1161.48,-617.48C1175.39,-621.86 1190.57,-626.64 1205.02,-631.19"/>
<polygon fill="#63b8ff" stroke="#63b8ff" points="1203.85,-634.49 1214.44,-634.16 1205.95,-627.81 1203.85,-634.49"/>
</a>
</g>
</g>
<!-- Node22 -->
<g id="Node000022" class="node">
<title>Node22</title>
<g id="a_Node000022"><a xlink:href="structxpath__parser.html#a253554c10701671465d3eab96e464c93" target="_top" xlink:title=" ">
<polygon fill="white" stroke="#666666" points="1330.12,-567.1 1208.38,-567.1 1208.38,-547.1 1330.12,-547.1 1330.12,-567.1"/>
<text xml:space="preserve" text-anchor="middle" x="1269.25" y="-553.6" font-family="Helvetica,sans-Serif" font-size="10.00">xpath_parser::error_oom</text>
</a>
</g>
</g>
<!-- Node17&#45;&gt;Node22 -->
<g id="edge40_Node000017_Node000022" class="edge">
<title>Node17&#45;&gt;Node22</title>
<g id="a_edge40_Node000017_Node000022"><a xlink:title=" ">
<path fill="none" stroke="#63b8ff" d="M1161.92,-586.58C1180.47,-581.43 1201.25,-575.68 1219.48,-570.62"/>
<polygon fill="#63b8ff" stroke="#63b8ff" points="1220.3,-574.03 1229,-567.98 1218.43,-567.28 1220.3,-574.03"/>
</a>
</g>
</g>
<!-- Node23 -->
<g id="Node000023" class="node">
<title>Node23</title>
<g id="a_Node000023"><a xlink:href="pugixml_8cpp.html#a046d19e3dedb7e154882fe5ad4647e25" target="_top" xlink:title=" ">
<polygon fill="white" stroke="#666666" points="1322.25,-529.1 1216.25,-529.1 1216.25,-509.1 1322.25,-509.1 1322.25,-529.1"/>
<text xml:space="preserve" text-anchor="middle" x="1269.25" y="-515.6" font-family="Helvetica,sans-Serif" font-size="10.00">get_variable_scratch</text>
</a>
</g>
</g>
<!-- Node17&#45;&gt;Node23 -->
<g id="edge42_Node000017_Node000023" class="edge">
<title>Node17&#45;&gt;Node23</title>
<g id="a_edge42_Node000017_Node000023"><a xlink:title=" ">
<path fill="none" stroke="#63b8ff" d="M1145.97,-584.72C1153.8,-580.65 1161.86,-576.04 1169,-571.1 1186.86,-558.77 1186.13,-548.83 1205,-538.1 1207.66,-536.59 1210.46,-535.18 1213.34,-533.88"/>
<polygon fill="#63b8ff" stroke="#63b8ff" points="1214.6,-537.15 1222.57,-530.17 1211.99,-530.65 1214.6,-537.15"/>
</a>
</g>
</g>
<!-- Node24 -->
<g id="Node000024" class="node">
<title>Node24</title>
<g id="a_Node000024"><a xlink:href="structxpath__parser.html#a9a68f1cbf9900714aefe00059a66a22d" target="_top" xlink:title=" ">
<polygon fill="white" stroke="#666666" points="1320.38,-617.1 1218.12,-617.1 1218.12,-585.1 1320.38,-585.1 1320.38,-617.1"/>
<text xml:space="preserve" text-anchor="start" x="1226.12" y="-603.6" font-family="Helvetica,sans-Serif" font-size="10.00">xpath_parser::parse</text>
<text xml:space="preserve" text-anchor="middle" x="1269.25" y="-591.6" font-family="Helvetica,sans-Serif" font-size="10.00">_function</text>
</a>
</g>
</g>
<!-- Node17&#45;&gt;Node24 -->
<g id="edge44_Node000017_Node000024" class="edge">
<title>Node17&#45;&gt;Node24</title>
<g id="a_edge44_Node000017_Node000024"><a xlink:title=" ">
<path fill="none" stroke="#63b8ff" d="M1161.92,-601.1C1176.24,-601.1 1191.89,-601.1 1206.67,-601.1"/>
<polygon fill="#63b8ff" stroke="#63b8ff" points="1206.26,-604.6 1216.26,-601.1 1206.26,-597.6 1206.26,-604.6"/>
</a>
</g>
</g>
<!-- Node17&#45;&gt;Node25 -->
<g id="edge47_Node000017_Node000025" class="edge">
<title>Node17&#45;&gt;Node25</title>
<g id="a_edge47_Node000017_Node000025"><a xlink:title=" ">
<path fill="none" stroke="#63b8ff" d="M1114.76,-617.56C1127.65,-657.08 1162.91,-760 1205,-840.1 1219.39,-867.48 1239.74,-896.79 1253.44,-915.5"/>
<polygon fill="#63b8ff" stroke="#63b8ff" points="1250.61,-917.56 1259.39,-923.51 1256.24,-913.39 1250.61,-917.56"/>
</a>
</g>
</g>
<!-- Node19 -->
<g id="Node000019" class="node">
<title>Node19</title>
<g id="a_Node000019"><a xlink:href="pugixml_8cpp.html#ae6299198941714e42acefb1481370646" target="_top" xlink:title=" ">
<polygon fill="white" stroke="#666666" points="1498,-661.1 1369.5,-661.1 1369.5,-641.1 1498,-641.1 1498,-661.1"/>
<text xml:space="preserve" text-anchor="middle" x="1433.75" y="-647.6" font-family="Helvetica,sans-Serif" font-size="10.00">convert_string_to_number</text>
</a>
</g>
</g>
<!-- Node18&#45;&gt;Node19 -->
<g id="edge36_Node000018_Node000019" class="edge">
<title>Node18&#45;&gt;Node19</title>
<g id="a_edge36_Node000018_Node000019"><a xlink:title=" ">
<path fill="none" stroke="#63b8ff" d="M1333.54,-651.1C1341.48,-651.1 1349.65,-651.1 1357.74,-651.1"/>
<polygon fill="#63b8ff" stroke="#63b8ff" points="1357.58,-654.6 1367.58,-651.1 1357.58,-647.6 1357.58,-654.6"/>
</a>
</g>
</g>
<!-- Node20 -->
<g id="Node000020" class="node">
<title>Node20</title>
<g id="a_Node000020"><a xlink:href="pugixml_8cpp.html#a0bf9a61bcf9eb4888ef36942e5cd8d05" target="_top" xlink:title=" ">
<polygon fill="white" stroke="#666666" points="1656.5,-689.1 1534,-689.1 1534,-657.1 1656.5,-657.1 1656.5,-689.1"/>
<text xml:space="preserve" text-anchor="start" x="1542" y="-675.6" font-family="Helvetica,sans-Serif" font-size="10.00">check_string_to_number</text>
<text xml:space="preserve" text-anchor="middle" x="1595.25" y="-663.6" font-family="Helvetica,sans-Serif" font-size="10.00">_format</text>
</a>
</g>
</g>
<!-- Node19&#45;&gt;Node20 -->
<g id="edge37_Node000019_Node000020" class="edge">
<title>Node19&#45;&gt;Node20</title>
<g id="a_edge37_Node000019_Node000020"><a xlink:title=" ">
<path fill="none" stroke="#63b8ff" d="M1498.25,-659.86C1506.16,-660.95 1514.29,-662.08 1522.32,-663.18"/>
<polygon fill="#63b8ff" stroke="#63b8ff" points="1521.68,-666.63 1532.07,-664.53 1522.64,-659.69 1521.68,-666.63"/>
</a>
</g>
</g>
<!-- Node21 -->
<g id="Node000021" class="node">
<title>Node21</title>
<g id="a_Node000021"><a xlink:href="pugixml_8cpp.html#a2f4c7e7ca3a98b25cbfa5d98dd21b300" target="_top" xlink:title=" ">
<polygon fill="white" stroke="#666666" points="1621.62,-639.1 1568.88,-639.1 1568.88,-619.1 1621.62,-619.1 1621.62,-639.1"/>
<text xml:space="preserve" text-anchor="middle" x="1595.25" y="-625.6" font-family="Helvetica,sans-Serif" font-size="10.00">gen_nan</text>
</a>
</g>
</g>
<!-- Node19&#45;&gt;Node21 -->
<g id="edge38_Node000019_Node000021" class="edge">
<title>Node19&#45;&gt;Node21</title>
<g id="a_edge38_Node000019_Node000021"><a xlink:title=" ">
<path fill="none" stroke="#63b8ff" d="M1498.25,-642.35C1518.39,-639.57 1539.98,-636.59 1557.57,-634.16"/>
<polygon fill="#63b8ff" stroke="#63b8ff" points="1557.84,-637.66 1567.27,-632.83 1556.89,-630.72 1557.84,-637.66"/>
</a>
</g>
</g>
<!-- Node24&#45;&gt;Node2 -->
<g id="edge45_Node000024_Node000002" class="edge">
<title>Node24&#45;&gt;Node2</title>
<g id="a_edge45_Node000024_Node000002"><a xlink:title=" ">
<path fill="none" stroke="#63b8ff" d="M1320.58,-617C1325.23,-619.62 1329.63,-622.63 1333.5,-626.1 1360.78,-650.61 1405.18,-750.13 1423.94,-794.08"/>
<polygon fill="#63b8ff" stroke="#63b8ff" points="1420.71,-795.42 1427.83,-803.27 1427.15,-792.7 1420.71,-795.42"/>
</a>
</g>
</g>
<!-- Node24&#45;&gt;Node5 -->
<g id="edge46_Node000024_Node000005" class="edge">
<title>Node24&#45;&gt;Node5</title>
<g id="a_edge46_Node000024_Node000005"><a xlink:title=" ">
<path fill="none" stroke="#63b8ff" d="M1320.75,-584.86C1325.31,-582.32 1329.65,-579.42 1333.5,-576.1 1382.35,-534.06 1412.94,-461.69 1425.77,-426.11"/>
<polygon fill="#63b8ff" stroke="#63b8ff" points="1428.97,-427.57 1428.94,-416.98 1422.35,-425.27 1428.97,-427.57"/>
</a>
</g>
</g>
<!-- Node26 -->
<g id="Node000026" class="node">
<title>Node26</title>
<g id="a_Node000026"><a xlink:href="classxpath__ast__node.html#ae5a059e41b41505bef1f7dbebda8070b" target="_top" xlink:title=" ">
<polygon fill="white" stroke="#666666" points="1491.25,-1011.1 1376.25,-1011.1 1376.25,-979.1 1491.25,-979.1 1491.25,-1011.1"/>
<text xml:space="preserve" text-anchor="start" x="1384.25" y="-997.6" font-family="Helvetica,sans-Serif" font-size="10.00">xpath_ast_node::xpath</text>
<text xml:space="preserve" text-anchor="middle" x="1433.75" y="-985.6" font-family="Helvetica,sans-Serif" font-size="10.00">_ast_node</text>
</a>
</g>
</g>
<!-- Node25&#45;&gt;Node26 -->
<g id="edge48_Node000025_Node000026" class="edge">
<title>Node25&#45;&gt;Node26</title>
<g id="a_edge48_Node000025_Node000026"><a xlink:title=" ">
<path fill="none" stroke="#63b8ff" d="M1298.56,-945.56C1320.29,-953.58 1350.99,-964.92 1377.54,-974.72"/>
<polygon fill="#63b8ff" stroke="#63b8ff" points="1376.23,-977.96 1386.82,-978.15 1378.65,-971.4 1376.23,-977.96"/>
</a>
</g>
</g>
<!-- Node26&#45;&gt;Node26 -->
<g id="edge49_Node000026_Node000026" class="edge">
<title>Node26&#45;&gt;Node26</title>
<g id="a_edge49_Node000026_Node000026"><a xlink:title=" ">
<path fill="none" stroke="#63b8ff" d="M1404.92,-1011.55C1399.54,-1020.69 1409.15,-1029.1 1433.75,-1029.1 1447.21,-1029.1 1456.18,-1026.59 1460.66,-1022.81"/>
<polygon fill="#63b8ff" stroke="#63b8ff" points="1464.1,-1023.48 1462.33,-1013.04 1457.2,-1022.31 1464.1,-1023.48"/>
</a>
</g>
</g>
<!-- Node29&#45;&gt;Node26 -->
<g id="edge61_Node000029_Node000026" class="edge">
<title>Node29&#45;&gt;Node26</title>
<g id="a_edge61_Node000029_Node000026"><a xlink:title=" ">
<path fill="none" stroke="#63b8ff" d="M695.22,-953.92C793.58,-975.84 1015.39,-1022.01 1205,-1038.1 1261.91,-1042.94 1277.58,-1049.7 1333.5,-1038.1 1354.15,-1033.82 1375.79,-1025.02 1393.57,-1016.49"/>
<polygon fill="#63b8ff" stroke="#63b8ff" points="1395.07,-1019.65 1402.47,-1012.07 1391.96,-1013.38 1395.07,-1019.65"/>
</a>
</g>
</g>
</g>
</svg>
