<?xml version="1.0" encoding="UTF-8" standalone="no"?>
<!DOCTYPE svg PUBLIC "-//W3C//DTD SVG 1.1//EN"
 "http://www.w3.org/Graphics/SVG/1.1/DTD/svg11.dtd">
<!-- Generated by graphviz version 14.1.2 (20260124.0452)
 -->
<!-- Title: xpath_allocator::reallocate Pages: 1 -->
<svg width="2013pt" height="355pt"
 viewBox="0.00 0.00 2013.00 355.00" xmlns="http://www.w3.org/2000/svg" xmlns:xlink="http://www.w3.org/1999/xlink">
<g id="graph0" class="graph" transform="scale(1 1) rotate(0) translate(4 351)">
<title>xpath_allocator::reallocate</title>
<!-- Node1 -->
<g id="Node000001" class="node">
<title>Node1</title>
<g id="a_Node000001"><a xlink:title=" ">
<polygon fill="#999999" stroke="#666666" points="2005,-133 1875,-133 1875,-113 2005,-113 2005,-133"/>
<text xml:space="preserve" text-anchor="middle" x="1940" y="-119.5" font-family="Helvetica,sans-Serif" font-size="10.00">xpath_allocator::reallocate</text>
</a>
</g>
</g>
<!-- Node2 -->
<g id="Node000002" class="node">
<title>Node2</title>
<g id="a_Node000002"><a xlink:href="classxpath__node__set__raw.html#a0c02728de3d895a2d12df9666d60e414" target="_top" xlink:title=" ">
<polygon fill="white" stroke="#666666" points="1696.25,-139 1590.25,-139 1590.25,-107 1696.25,-107 1696.25,-139"/>
<text xml:space="preserve" text-anchor="start" x="1598.25" y="-125.5" font-family="Helvetica,sans-Serif" font-size="10.00">xpath_node_set_raw</text>
<text xml:space="preserve" text-anchor="middle" x="1643.25" y="-113.5" font-family="Helvetica,sans-Serif" font-size="10.00">::append</text>
</a>
</g>
</g>
<!-- Node1&#45;&gt;Node2 -->
<g id="edge1_Node000001_Node000002" class="edge">
<title>Node1&#45;&gt;Node2</title>
<g id="a_edge1_Node000001_Node000002"><a xlink:title=" ">
<path fill="none" stroke="#63b8ff" d="M1863.45,-123C1811.2,-123 1743,-123 1696.64,-123"/>
<polygon fill="#63b8ff" stroke="#63b8ff" points="1863.17,-126.5 1873.17,-123 1863.17,-119.5 1863.17,-126.5"/>
</a>
</g>
</g>
<!-- Node13 -->
<g id="Node000013" class="node">
<title>Node13</title>
<g id="a_Node000013"><a xlink:href="classxpath__string.html#aab0d867c56d390213cf0fbe7334e1cc0" target="_top" xlink:title=" ">
<polygon fill="white" stroke="#666666" points="1839,-92 1732.25,-92 1732.25,-72 1839,-72 1839,-92"/>
<text xml:space="preserve" text-anchor="middle" x="1785.62" y="-78.5" font-family="Helvetica,sans-Serif" font-size="10.00">xpath_string::append</text>
</a>
</g>
</g>
<!-- Node1&#45;&gt;Node13 -->
<g id="edge26_Node000001_Node000013" class="edge">
<title>Node1&#45;&gt;Node13</title>
<g id="a_edge26_Node000001_Node000013"><a xlink:title=" ">
<path fill="none" stroke="#63b8ff" d="M1889.3,-109.63C1868.56,-104.05 1844.82,-97.66 1825.4,-92.43"/>
<polygon fill="#63b8ff" stroke="#63b8ff" points="1888.13,-112.94 1898.69,-112.15 1889.95,-106.18 1888.13,-112.94"/>
</a>
</g>
</g>
<!-- Node15 -->
<g id="Node000015" class="node">
<title>Node15</title>
<g id="a_Node000015"><a xlink:href="classxpath__node__set__raw.html#a0b2d66a98ec56ed0c5b5a9fce222ddc4" target="_top" xlink:title=" ">
<polygon fill="white" stroke="#666666" points="1838.62,-186 1732.62,-186 1732.62,-154 1838.62,-154 1838.62,-186"/>
<text xml:space="preserve" text-anchor="start" x="1740.62" y="-172.5" font-family="Helvetica,sans-Serif" font-size="10.00">xpath_node_set_raw</text>
<text xml:space="preserve" text-anchor="middle" x="1785.62" y="-160.5" font-family="Helvetica,sans-Serif" font-size="10.00">::push_back_grow</text>
</a>
</g>
</g>
<!-- Node1&#45;&gt;Node15 -->
<g id="edge32_Node000001_Node000015" class="edge">
<title>Node1&#45;&gt;Node15</title>
<g id="a_edge32_Node000001_Node000015"><a xlink:title=" ">
<path fill="none" stroke="#63b8ff" d="M1894.21,-136.81C1876.87,-142.16 1856.9,-148.32 1838.91,-153.87"/>
<polygon fill="#63b8ff" stroke="#63b8ff" points="1895.21,-140.17 1903.74,-133.88 1893.15,-133.48 1895.21,-140.17"/>
</a>
</g>
</g>
<!-- Node3 -->
<g id="Node000003" class="node">
<title>Node3</title>
<g id="a_Node000003"><a xlink:href="classxpath__ast__node.html#a68cace396dd4eeae67ecfcd34a3a8285" target="_top" xlink:title=" ">
<polygon fill="white" stroke="#666666" points="1060,-250 951,-250 951,-218 1060,-218 1060,-250"/>
<text xml:space="preserve" text-anchor="start" x="959" y="-236.5" font-family="Helvetica,sans-Serif" font-size="10.00">xpath_ast_node::eval</text>
<text xml:space="preserve" text-anchor="middle" x="1005.5" y="-224.5" font-family="Helvetica,sans-Serif" font-size="10.00">_node_set</text>
</a>
</g>
</g>
<!-- Node2&#45;&gt;Node3 -->
<g id="edge2_Node000002_Node000003" class="edge">
<title>Node2&#45;&gt;Node3</title>
<g id="a_edge2_Node000002_Node000003"><a xlink:title=" ">
<path fill="none" stroke="#63b8ff" d="M1578.66,-118.85C1453.6,-111.67 1180.45,-101.06 1096,-139 1059.21,-155.53 1030.31,-195 1016.12,-217.52"/>
<polygon fill="#63b8ff" stroke="#63b8ff" points="1578.23,-122.33 1588.42,-119.43 1578.64,-115.35 1578.23,-122.33"/>
</a>
</g>
</g>
<!-- Node4 -->
<g id="Node000004" class="node">
<title>Node4</title>
<g id="a_Node000004"><a xlink:href="classxpath__ast__node.html#a98dd7f6e67fe2c56c63056eed835d6a4" target="_top" xlink:title=" ">
<polygon fill="white" stroke="#666666" points="915,-162 770.75,-162 770.75,-142 915,-142 915,-162"/>
<text xml:space="preserve" text-anchor="middle" x="842.88" y="-148.5" font-family="Helvetica,sans-Serif" font-size="10.00">xpath_ast_node::compare_eq</text>
</a>
</g>
</g>
<!-- Node3&#45;&gt;Node4 -->
<g id="edge3_Node000003_Node000004" class="edge">
<title>Node3&#45;&gt;Node4</title>
<g id="a_edge3_Node000003_Node000004"><a xlink:title=" ">
<path fill="none" stroke="#63b8ff" d="M973.34,-211.06C956.63,-199.47 935.35,-185.83 915,-176 904.09,-170.73 891.72,-166.12 880.39,-162.38"/>
<polygon fill="#63b8ff" stroke="#63b8ff" points="971.18,-213.82 981.37,-216.72 975.22,-208.1 971.18,-213.82"/>
</a>
</g>
</g>
<!-- Node5 -->
<g id="Node000005" class="node">
<title>Node5</title>
<g id="a_Node000005"><a xlink:href="classxpath__ast__node.html#ab7f965a92023bc2704b8e6fd9f3d7c14" target="_top" xlink:title=" ">
<polygon fill="white" stroke="#666666" points="734.75,-250 625.75,-250 625.75,-218 734.75,-218 734.75,-250"/>
<text xml:space="preserve" text-anchor="start" x="633.75" y="-236.5" font-family="Helvetica,sans-Serif" font-size="10.00">xpath_ast_node::eval</text>
<text xml:space="preserve" text-anchor="middle" x="680.25" y="-224.5" font-family="Helvetica,sans-Serif" font-size="10.00">_boolean</text>
</a>
</g>
</g>
<!-- Node3&#45;&gt;Node5 -->
<g id="edge24_Node000003_Node000005" class="edge">
<title>Node3&#45;&gt;Node5</title>
<g id="a_edge24_Node000003_Node000005"><a xlink:title=" ">
<path fill="none" stroke="#63b8ff" d="M939.52,-234C879.48,-234 791.33,-234 735.12,-234"/>
<polygon fill="#63b8ff" stroke="#63b8ff" points="939.25,-237.5 949.25,-234 939.25,-230.5 939.25,-237.5"/>
</a>
</g>
</g>
<!-- Node11 -->
<g id="Node000011" class="node">
<title>Node11</title>
<g id="a_Node000011"><a xlink:href="classxpath__ast__node.html#abb6e4c529276eaf882233dbb6e04e111" target="_top" xlink:title=" ">
<polygon fill="white" stroke="#666666" points="294.5,-231 150.25,-231 150.25,-211 294.5,-211 294.5,-231"/>
<text xml:space="preserve" text-anchor="middle" x="222.38" y="-217.5" font-family="Helvetica,sans-Serif" font-size="10.00">xpath_ast_node::compare_rel</text>
</a>
</g>
</g>
<!-- Node3&#45;&gt;Node11 -->
<g id="edge23_Node000003_Node000011" class="edge">
<title>Node3&#45;&gt;Node11</title>
<g id="a_edge23_Node000003_Node000011"><a xlink:title=" ">
<path fill="none" stroke="#63b8ff" d="M951.31,-254.2C887.96,-276.42 778.46,-309 681.25,-309 681.25,-309 681.25,-309 534.25,-309 443.3,-309 416.46,-319.69 330.5,-290 292.24,-276.78 253.94,-247.2 235.21,-231.41"/>
<polygon fill="#63b8ff" stroke="#63b8ff" points="952.16,-257.62 960.41,-250.97 949.81,-251.02 952.16,-257.62"/>
</a>
</g>
</g>
<!-- Node12 -->
<g id="Node000012" class="node">
<title>Node12</title>
<g id="a_Node000012"><a xlink:href="classxpath__ast__node.html#a6b675237a590548b68d0e0b97518b6df" target="_top" xlink:title=" ">
<polygon fill="white" stroke="#666666" points="589.75,-143 480.75,-143 480.75,-111 589.75,-111 589.75,-143"/>
<text xml:space="preserve" text-anchor="start" x="488.75" y="-129.5" font-family="Helvetica,sans-Serif" font-size="10.00">xpath_ast_node::eval</text>
<text xml:space="preserve" text-anchor="middle" x="535.25" y="-117.5" font-family="Helvetica,sans-Serif" font-size="10.00">_string</text>
</a>
</g>
</g>
<!-- Node3&#45;&gt;Node12 -->
<g id="edge25_Node000003_Node000012" class="edge">
<title>Node3&#45;&gt;Node12</title>
<g id="a_edge25_Node000003_Node000012"><a xlink:title=" ">
<path fill="none" stroke="#63b8ff" d="M939.36,-221.55C863.63,-206.74 735.06,-180.53 625.75,-153 614.14,-150.08 601.76,-146.67 590.03,-143.3"/>
<polygon fill="#63b8ff" stroke="#63b8ff" points="938.62,-224.97 949.11,-223.45 939.96,-218.1 938.62,-224.97"/>
</a>
</g>
</g>
<!-- Node4&#45;&gt;Node5 -->
<g id="edge4_Node000004_Node000005" class="edge">
<title>Node4&#45;&gt;Node5</title>
<g id="a_edge4_Node000004_Node000005"><a xlink:title=" ">
<path fill="none" stroke="#63b8ff" d="M800.48,-167.14C769.69,-181.55 728.85,-202.78 703.84,-217.6"/>
<polygon fill="#63b8ff" stroke="#63b8ff" points="801.9,-170.34 809.53,-162.98 798.98,-163.98 801.9,-170.34"/>
</a>
</g>
</g>
<!-- Node5&#45;&gt;Node4 -->
<g id="edge8_Node000005_Node000004" class="edge">
<title>Node5&#45;&gt;Node4</title>
<g id="a_edge8_Node000005_Node000004"><a xlink:title=" ">
<path fill="none" stroke="#63b8ff" d="M735.58,-212.69C768.89,-196.54 808.9,-175.27 829,-162.45"/>
<polygon fill="#63b8ff" stroke="#63b8ff" points="734.36,-209.4 726.85,-216.87 737.38,-215.71 734.36,-209.4"/>
</a>
</g>
</g>
<!-- Node6 -->
<g id="Node000006" class="node">
<title>Node6</title>
<g id="a_Node000006"><a xlink:href="classxpath__ast__node.html#ab4e5bbd3f2e83c86a43349374b4bfc22" target="_top" xlink:title=" ">
<polygon fill="white" stroke="#666666" points="444.75,-281 330.5,-281 330.5,-249 444.75,-249 444.75,-281"/>
<text xml:space="preserve" text-anchor="start" x="338.5" y="-267.5" font-family="Helvetica,sans-Serif" font-size="10.00">xpath_ast_node::apply</text>
<text xml:space="preserve" text-anchor="middle" x="387.62" y="-255.5" font-family="Helvetica,sans-Serif" font-size="10.00">_predicate_boolean</text>
</a>
</g>
</g>
<!-- Node5&#45;&gt;Node6 -->
<g id="edge5_Node000005_Node000006" class="edge">
<title>Node5&#45;&gt;Node6</title>
<g id="a_edge5_Node000005_Node000006"><a xlink:title=" ">
<path fill="none" stroke="#63b8ff" d="M614.07,-240.95C563.18,-246.38 493.23,-253.84 444.8,-259.01"/>
<polygon fill="#63b8ff" stroke="#63b8ff" points="614.19,-244.46 623.76,-239.92 613.45,-237.5 614.19,-244.46"/>
</a>
</g>
</g>
<!-- Node8 -->
<g id="Node000008" class="node">
<title>Node8</title>
<g id="a_Node000008"><a xlink:href="classxpath__ast__node.html#a92dd7048e28d486bc7f382d1fc6f1de6" target="_top" xlink:title=" ">
<polygon fill="white" stroke="#666666" points="442.12,-143 333.12,-143 333.12,-111 442.12,-111 442.12,-143"/>
<text xml:space="preserve" text-anchor="start" x="341.12" y="-129.5" font-family="Helvetica,sans-Serif" font-size="10.00">xpath_ast_node::eval</text>
<text xml:space="preserve" text-anchor="middle" x="387.62" y="-117.5" font-family="Helvetica,sans-Serif" font-size="10.00">_number</text>
</a>
</g>
</g>
<!-- Node5&#45;&gt;Node8 -->
<g id="edge9_Node000005_Node000008" class="edge">
<title>Node5&#45;&gt;Node8</title>
<g id="a_edge9_Node000005_Node000008"><a xlink:title=" ">
<path fill="none" stroke="#63b8ff" d="M636.33,-213.24C584.85,-192.05 498.53,-160.13 442.59,-141.48"/>
<polygon fill="#63b8ff" stroke="#63b8ff" points="634.78,-216.39 645.36,-217.01 637.48,-209.93 634.78,-216.39"/>
</a>
</g>
</g>
<!-- Node5&#45;&gt;Node12 -->
<g id="edge22_Node000005_Node000012" class="edge">
<title>Node5&#45;&gt;Node12</title>
<g id="a_edge22_Node000005_Node000012"><a xlink:title=" ">
<path fill="none" stroke="#63b8ff" d="M649.96,-211.76C641.67,-206.8 632.96,-201.25 625.75,-195 605.87,-177.77 609.63,-165.23 589.75,-148 587.9,-146.4 585.95,-144.84 583.93,-143.34"/>
<polygon fill="#63b8ff" stroke="#63b8ff" points="648.02,-214.68 658.41,-216.75 651.58,-208.65 648.02,-214.68"/>
</a>
</g>
</g>
<!-- Node7 -->
<g id="Node000007" class="node">
<title>Node7</title>
<g id="a_Node000007"><a xlink:href="classxpath__ast__node.html#a7e35f265c9e0712a16e1d8a9db4c7672" target="_top" xlink:title=" ">
<polygon fill="white" stroke="#666666" points="114.25,-235 0,-235 0,-203 114.25,-203 114.25,-235"/>
<text xml:space="preserve" text-anchor="start" x="8" y="-221.5" font-family="Helvetica,sans-Serif" font-size="10.00">xpath_ast_node::apply</text>
<text xml:space="preserve" text-anchor="middle" x="57.12" y="-209.5" font-family="Helvetica,sans-Serif" font-size="10.00">_predicate</text>
</a>
</g>
</g>
<!-- Node6&#45;&gt;Node7 -->
<g id="edge6_Node000006_Node000007" class="edge">
<title>Node6&#45;&gt;Node7</title>
<g id="a_edge6_Node000006_Node000007"><a xlink:title=" ">
<path fill="none" stroke="#63b8ff" d="M318.66,-259.97C271.26,-255.93 206.66,-249.38 150.25,-240 138.6,-238.06 126.21,-235.55 114.43,-232.95"/>
<polygon fill="#63b8ff" stroke="#63b8ff" points="318.25,-263.44 328.51,-260.79 318.83,-256.47 318.25,-263.44"/>
</a>
</g>
</g>
<!-- Node7&#45;&gt;Node3 -->
<g id="edge7_Node000007_Node000003" class="edge">
<title>Node7&#45;&gt;Node3</title>
<g id="a_edge7_Node000007_Node000003"><a xlink:title=" ">
<path fill="none" stroke="#63b8ff" d="M91.67,-241.73C149.31,-278.51 272.01,-347 386.62,-347 681.25,-347 681.25,-347 681.25,-347 787.4,-347 817.81,-340.67 915,-298 942.11,-286.1 969.2,-265.15 986.36,-250.47"/>
<polygon fill="#63b8ff" stroke="#63b8ff" points="93.58,-238.8 83.28,-236.29 89.77,-244.67 93.58,-238.8"/>
</a>
</g>
</g>
<!-- Node8&#45;&gt;Node4 -->
<g id="edge14_Node000008_Node000004" class="edge">
<title>Node8&#45;&gt;Node4</title>
<g id="a_edge14_Node000008_Node000004"><a xlink:title=" ">
<path fill="none" stroke="#63b8ff" d="M450.82,-107.74C460.74,-105.36 470.96,-103.3 480.75,-102 602.15,-85.82 746.35,-122.67 809.52,-141.62"/>
<polygon fill="#63b8ff" stroke="#63b8ff" points="450.08,-104.31 441.25,-110.17 451.8,-111.1 450.08,-104.31"/>
</a>
</g>
</g>
<!-- Node8&#45;&gt;Node5 -->
<g id="edge17_Node000008_Node000005" class="edge">
<title>Node8&#45;&gt;Node5</title>
<g id="a_edge17_Node000008_Node000005"><a xlink:title=" ">
<path fill="none" stroke="#63b8ff" d="M431.56,-147.76C483.03,-168.95 569.33,-200.87 625.27,-219.51"/>
<polygon fill="#63b8ff" stroke="#63b8ff" points="433.1,-144.62 422.52,-144 430.41,-151.08 433.1,-144.62"/>
</a>
</g>
</g>
<!-- Node9 -->
<g id="Node000009" class="node">
<title>Node9</title>
<g id="a_Node000009"><a xlink:href="classxpath__ast__node.html#abf2d4b745493f63aebc1c89d9fde8eed" target="_top" xlink:title=" ">
<polygon fill="white" stroke="#666666" points="279.5,-193 165.25,-193 165.25,-161 279.5,-161 279.5,-193"/>
<text xml:space="preserve" text-anchor="start" x="173.25" y="-179.5" font-family="Helvetica,sans-Serif" font-size="10.00">xpath_ast_node::apply</text>
<text xml:space="preserve" text-anchor="middle" x="222.38" y="-167.5" font-family="Helvetica,sans-Serif" font-size="10.00">_predicate_number</text>
</a>
</g>
</g>
<!-- Node8&#45;&gt;Node9 -->
<g id="edge10_Node000008_Node000009" class="edge">
<title>Node8&#45;&gt;Node9</title>
<g id="a_edge10_Node000008_Node000009"><a xlink:title=" ">
<path fill="none" stroke="#63b8ff" d="M322.45,-146.66C307.48,-151.24 291.69,-156.08 277.23,-160.51"/>
<polygon fill="#63b8ff" stroke="#63b8ff" points="323.19,-150.09 331.72,-143.82 321.14,-143.4 323.19,-150.09"/>
</a>
</g>
</g>
<!-- Node10 -->
<g id="Node000010" class="node">
<title>Node10</title>
<g id="a_Node000010"><a xlink:href="classxpath__ast__node.html#a8cedd7e15623b9fa431788b8843f1463" target="_top" xlink:title=" ">
<polygon fill="white" stroke="#666666" points="286.25,-143 158.5,-143 158.5,-111 286.25,-111 286.25,-143"/>
<text xml:space="preserve" text-anchor="start" x="166.5" y="-129.5" font-family="Helvetica,sans-Serif" font-size="10.00">xpath_ast_node::apply</text>
<text xml:space="preserve" text-anchor="middle" x="222.38" y="-117.5" font-family="Helvetica,sans-Serif" font-size="10.00">_predicate_number_const</text>
</a>
</g>
</g>
<!-- Node8&#45;&gt;Node10 -->
<g id="edge12_Node000008_Node000010" class="edge">
<title>Node8&#45;&gt;Node10</title>
<g id="a_edge12_Node000008_Node000010"><a xlink:title=" ">
<path fill="none" stroke="#63b8ff" d="M321.42,-127C309.94,-127 298,-127 286.57,-127"/>
<polygon fill="#63b8ff" stroke="#63b8ff" points="321.2,-130.5 331.2,-127 321.2,-123.5 321.2,-130.5"/>
</a>
</g>
</g>
<!-- Node8&#45;&gt;Node11 -->
<g id="edge15_Node000008_Node000011" class="edge">
<title>Node8&#45;&gt;Node11</title>
<g id="a_edge15_Node000008_Node000011"><a xlink:title=" ">
<path fill="none" stroke="#63b8ff" d="M362.89,-151.13C345.38,-167.64 320.23,-188.86 294.5,-202 287.9,-205.37 280.64,-208.19 273.35,-210.53"/>
<polygon fill="#63b8ff" stroke="#63b8ff" points="364.99,-153.97 369.75,-144.5 360.12,-148.93 364.99,-153.97"/>
</a>
</g>
</g>
<!-- Node8&#45;&gt;Node12 -->
<g id="edge18_Node000008_Node000012" class="edge">
<title>Node8&#45;&gt;Node12</title>
<g id="a_edge18_Node000008_Node000012"><a xlink:title=" ">
<path fill="none" stroke="#63b8ff" d="M453.49,-133.71C462.5,-133.8 471.67,-133.74 480.44,-133.54"/>
<polygon fill="#63b8ff" stroke="#63b8ff" points="453.78,-130.22 443.73,-133.56 453.67,-137.22 453.78,-130.22"/>
</a>
</g>
</g>
<!-- Node9&#45;&gt;Node7 -->
<g id="edge11_Node000009_Node000007" class="edge">
<title>Node9&#45;&gt;Node7</title>
<g id="a_edge11_Node000009_Node000007"><a xlink:title=" ">
<path fill="none" stroke="#63b8ff" d="M154.3,-194.26C141.14,-197.64 127.46,-201.16 114.69,-204.45"/>
<polygon fill="#63b8ff" stroke="#63b8ff" points="154.92,-197.71 163.73,-191.83 153.17,-190.93 154.92,-197.71"/>
</a>
</g>
</g>
<!-- Node10&#45;&gt;Node7 -->
<g id="edge13_Node000010_Node000007" class="edge">
<title>Node10&#45;&gt;Node7</title>
<g id="a_edge13_Node000010_Node000007"><a xlink:title=" ">
<path fill="none" stroke="#63b8ff" d="M158.53,-147.94C155.7,-149.24 152.93,-150.59 150.25,-152 123.11,-166.25 95.06,-187.8 77.16,-202.6"/>
<polygon fill="#63b8ff" stroke="#63b8ff" points="159.77,-151.21 167.57,-144.05 157,-144.78 159.77,-151.21"/>
</a>
</g>
</g>
<!-- Node11&#45;&gt;Node5 -->
<g id="edge16_Node000011_Node000005" class="edge">
<title>Node11&#45;&gt;Node5</title>
<g id="a_edge16_Node000011_Node000005"><a xlink:title=" ">
<path fill="none" stroke="#63b8ff" d="M306.06,-223.36C398.88,-226 546.76,-230.22 625.61,-232.47"/>
<polygon fill="#63b8ff" stroke="#63b8ff" points="306.35,-219.86 296.26,-223.08 306.15,-226.86 306.35,-219.86"/>
</a>
</g>
</g>
<!-- Node12&#45;&gt;Node4 -->
<g id="edge19_Node000012_Node000004" class="edge">
<title>Node12&#45;&gt;Node4</title>
<g id="a_edge19_Node000012_Node000004"><a xlink:title=" ">
<path fill="none" stroke="#63b8ff" d="M601.17,-132.31C650.88,-136.38 719.39,-141.98 770.61,-146.17"/>
<polygon fill="#63b8ff" stroke="#63b8ff" points="601.68,-128.84 591.43,-131.51 601.11,-135.82 601.68,-128.84"/>
</a>
</g>
</g>
<!-- Node12&#45;&gt;Node5 -->
<g id="edge20_Node000012_Node000005" class="edge">
<title>Node12&#45;&gt;Node5</title>
<g id="a_edge20_Node000012_Node000005"><a xlink:title=" ">
<path fill="none" stroke="#63b8ff" d="M565.54,-149.24C573.83,-154.2 582.54,-159.75 589.75,-166 609.63,-183.23 605.87,-195.77 625.75,-213 627.6,-214.6 629.55,-216.16 631.57,-217.66"/>
<polygon fill="#63b8ff" stroke="#63b8ff" points="567.48,-146.32 557.09,-144.25 563.92,-152.35 567.48,-146.32"/>
</a>
</g>
</g>
<!-- Node12&#45;&gt;Node8 -->
<g id="edge21_Node000012_Node000008" class="edge">
<title>Node12&#45;&gt;Node8</title>
<g id="a_edge21_Node000012_Node000008"><a xlink:title=" ">
<path fill="none" stroke="#63b8ff" d="M469.16,-120.28C460.15,-120.2 450.98,-120.26 442.22,-120.46"/>
<polygon fill="#63b8ff" stroke="#63b8ff" points="468.87,-123.78 478.93,-120.44 468.98,-116.78 468.87,-123.78"/>
</a>
</g>
</g>
<!-- Node14 -->
<g id="Node000014" class="node">
<title>Node14</title>
<g id="a_Node000014"><a xlink:href="pugixml_8cpp.html#ad34afe159db16c5eff7771f4f4935e4e" target="_top" xlink:title=" ">
<polygon fill="white" stroke="#666666" points="1039.75,-89 971.25,-89 971.25,-69 1039.75,-69 1039.75,-89"/>
<text xml:space="preserve" text-anchor="middle" x="1005.5" y="-75.5" font-family="Helvetica,sans-Serif" font-size="10.00">string_value</text>
</a>
</g>
</g>
<!-- Node13&#45;&gt;Node14 -->
<g id="edge27_Node000013_Node000014" class="edge">
<title>Node13&#45;&gt;Node14</title>
<g id="a_edge27_Node000013_Node000014"><a xlink:title=" ">
<path fill="none" stroke="#63b8ff" d="M1720.76,-80.98C1660.54,-80.11 1567.77,-79 1487.25,-79 1487.25,-79 1487.25,-79 1318.88,-79 1217.46,-79 1097.53,-79 1040.24,-79"/>
<polygon fill="#63b8ff" stroke="#63b8ff" points="1720.42,-84.48 1730.47,-81.13 1720.52,-77.48 1720.42,-84.48"/>
</a>
</g>
</g>
<!-- Node14&#45;&gt;Node4 -->
<g id="edge28_Node000014_Node000004" class="edge">
<title>Node14&#45;&gt;Node4</title>
<g id="a_edge28_Node000014_Node000004"><a xlink:title=" ">
<path fill="none" stroke="#63b8ff" d="M978.26,-94.96C960.74,-105.21 936.97,-118.37 915,-128 903.42,-133.08 890.41,-137.75 878.71,-141.6"/>
<polygon fill="#63b8ff" stroke="#63b8ff" points="979.67,-98.19 986.49,-90.08 976.1,-92.17 979.67,-98.19"/>
</a>
</g>
</g>
<!-- Node14&#45;&gt;Node8 -->
<g id="edge30_Node000014_Node000008" class="edge">
<title>Node14&#45;&gt;Node8</title>
<g id="a_edge30_Node000014_Node000008"><a xlink:title=" ">
<path fill="none" stroke="#63b8ff" d="M959.75,-75.56C868.64,-69.58 655.41,-60.86 480.75,-94 462.22,-97.52 442.44,-104.19 425.98,-110.62"/>
<polygon fill="#63b8ff" stroke="#63b8ff" points="959.29,-79.03 969.51,-76.22 959.77,-72.05 959.29,-79.03"/>
</a>
</g>
</g>
<!-- Node14&#45;&gt;Node11 -->
<g id="edge29_Node000014_Node000011" class="edge">
<title>Node14&#45;&gt;Node11</title>
<g id="a_edge29_Node000014_Node000011"><a xlink:title=" ">
<path fill="none" stroke="#63b8ff" d="M968.88,-64.34C910.06,-41.5 788.44,0 681.25,0 681.25,0 681.25,0 534.25,0 432.98,0 397.74,-26.27 330.5,-102 299.14,-137.32 329.28,-170.04 294.5,-202 290.74,-205.46 286.41,-208.3 281.79,-210.63"/>
<polygon fill="#63b8ff" stroke="#63b8ff" points="967.45,-67.54 978.04,-67.95 970.02,-61.03 967.45,-67.54"/>
</a>
</g>
</g>
<!-- Node14&#45;&gt;Node12 -->
<g id="edge31_Node000014_Node000012" class="edge">
<title>Node14&#45;&gt;Node12</title>
<g id="a_edge31_Node000014_Node000012"><a xlink:title=" ">
<path fill="none" stroke="#63b8ff" d="M959.56,-83.61C872.98,-92.48 683.42,-111.91 590.2,-121.47"/>
<polygon fill="#63b8ff" stroke="#63b8ff" points="959.73,-87.11 969.32,-82.61 959.01,-80.14 959.73,-87.11"/>
</a>
</g>
</g>
<!-- Node16 -->
<g id="Node000016" class="node">
<title>Node16</title>
<g id="a_Node000016"><a xlink:href="classxpath__node__set__raw.html#a676ec123e5be874869c78ff5c43ae9c2" target="_top" xlink:title=" ">
<polygon fill="white" stroke="#666666" points="1696.25,-204 1590.25,-204 1590.25,-172 1696.25,-172 1696.25,-204"/>
<text xml:space="preserve" text-anchor="start" x="1598.25" y="-190.5" font-family="Helvetica,sans-Serif" font-size="10.00">xpath_node_set_raw</text>
<text xml:space="preserve" text-anchor="middle" x="1643.25" y="-178.5" font-family="Helvetica,sans-Serif" font-size="10.00">::push_back</text>
</a>
</g>
</g>
<!-- Node15&#45;&gt;Node16 -->
<g id="edge33_Node000015_Node000016" class="edge">
<title>Node15&#45;&gt;Node16</title>
<g id="a_edge33_Node000015_Node000016"><a xlink:title=" ">
<path fill="none" stroke="#63b8ff" d="M1720.95,-178.17C1712.79,-179.21 1704.51,-180.27 1696.56,-181.29"/>
<polygon fill="#63b8ff" stroke="#63b8ff" points="1721.38,-181.64 1730.85,-176.9 1720.49,-174.7 1721.38,-181.64"/>
</a>
</g>
</g>
<!-- Node16&#45;&gt;Node3 -->
<g id="edge34_Node000016_Node000003" class="edge">
<title>Node16&#45;&gt;Node3</title>
<g id="a_edge34_Node000016_Node000003"><a xlink:title=" ">
<path fill="none" stroke="#63b8ff" d="M1610.98,-210.59C1594.85,-220.95 1574.38,-232.19 1554.25,-238 1358.46,-294.49 1298.66,-274.27 1096,-253 1084.31,-251.77 1071.9,-249.67 1060.16,-247.29"/>
<polygon fill="#63b8ff" stroke="#63b8ff" points="1612.77,-213.6 1619.16,-205.15 1608.89,-207.77 1612.77,-213.6"/>
</a>
</g>
</g>
<!-- Node17 -->
<g id="Node000017" class="node">
<title>Node17</title>
<g id="a_Node000017"><a xlink:href="classxpath__ast__node.html#a4f7aaa038105a1d98a7505606ca2b5a2" target="_top" xlink:title=" ">
<polygon fill="white" stroke="#666666" points="1554.25,-191 1418.25,-191 1418.25,-171 1554.25,-171 1554.25,-191"/>
<text xml:space="preserve" text-anchor="middle" x="1486.25" y="-177.5" font-family="Helvetica,sans-Serif" font-size="10.00">xpath_ast_node::step_push</text>
</a>
</g>
</g>
<!-- Node16&#45;&gt;Node17 -->
<g id="edge35_Node000016_Node000017" class="edge">
<title>Node16&#45;&gt;Node17</title>
<g id="a_edge35_Node000016_Node000017"><a xlink:title=" ">
<path fill="none" stroke="#63b8ff" d="M1578.4,-185.12C1570.52,-184.76 1562.44,-184.4 1554.51,-184.04"/>
<polygon fill="#63b8ff" stroke="#63b8ff" points="1578.11,-188.61 1588.26,-185.56 1578.43,-181.61 1578.11,-188.61"/>
</a>
</g>
</g>
<!-- Node22 -->
<g id="Node000022" class="node">
<title>Node22</title>
<g id="a_Node000022"><a xlink:href="classxpath__ast__node.html#a29d639296f3cd2726e6967b1ba277928" target="_top" xlink:title=" ">
<polygon fill="white" stroke="#666666" points="1554.25,-229 1418.25,-229 1418.25,-209 1554.25,-209 1554.25,-229"/>
<text xml:space="preserve" text-anchor="middle" x="1486.25" y="-215.5" font-family="Helvetica,sans-Serif" font-size="10.00">xpath_ast_node::step_push</text>
</a>
</g>
</g>
<!-- Node16&#45;&gt;Node22 -->
<g id="edge42_Node000016_Node000022" class="edge">
<title>Node16&#45;&gt;Node22</title>
<g id="a_edge42_Node000016_Node000022"><a xlink:title=" ">
<path fill="none" stroke="#63b8ff" d="M1578.58,-200.73C1565.64,-203.32 1552.17,-206.02 1539.67,-208.52"/>
<polygon fill="#63b8ff" stroke="#63b8ff" points="1579.17,-204.19 1588.29,-198.79 1577.8,-197.32 1579.17,-204.19"/>
</a>
</g>
</g>
<!-- Node18 -->
<g id="Node000018" class="node">
<title>Node18</title>
<g id="a_Node000018"><a xlink:href="classxpath__ast__node.html#aca100722d72e30f12c7276e8b2616587" target="_top" xlink:title=" ">
<polygon fill="white" stroke="#666666" points="1221.12,-168 1096.38,-168 1096.38,-148 1221.12,-148 1221.12,-168"/>
<text xml:space="preserve" text-anchor="middle" x="1158.75" y="-154.5" font-family="Helvetica,sans-Serif" font-size="10.00">xpath_ast_node::step_fill</text>
</a>
</g>
</g>
<!-- Node17&#45;&gt;Node18 -->
<g id="edge36_Node000017_Node000018" class="edge">
<title>Node17&#45;&gt;Node18</title>
<g id="a_edge36_Node000017_Node000018"><a xlink:title=" ">
<path fill="none" stroke="#63b8ff" d="M1406.35,-175.42C1349.56,-171.41 1274.04,-166.08 1221.6,-162.37"/>
<polygon fill="#63b8ff" stroke="#63b8ff" points="1406.07,-178.91 1416.3,-176.13 1406.57,-171.93 1406.07,-178.91"/>
</a>
</g>
</g>
<!-- Node19 -->
<g id="Node000019" class="node">
<title>Node19</title>
<g id="a_Node000019"><a xlink:href="classxpath__ast__node.html#acbc4f5ec0e4d48444564d5101890416e" target="_top" xlink:title=" ">
<polygon fill="white" stroke="#666666" points="1382.25,-206 1257.5,-206 1257.5,-186 1382.25,-186 1382.25,-206"/>
<text xml:space="preserve" text-anchor="middle" x="1319.88" y="-192.5" font-family="Helvetica,sans-Serif" font-size="10.00">xpath_ast_node::step_fill</text>
</a>
</g>
</g>
<!-- Node17&#45;&gt;Node19 -->
<g id="edge37_Node000017_Node000019" class="edge">
<title>Node17&#45;&gt;Node19</title>
<g id="a_edge37_Node000017_Node000019"><a xlink:title=" ">
<path fill="none" stroke="#63b8ff" d="M1406.58,-188.18C1398.51,-188.92 1390.4,-189.66 1382.55,-190.37"/>
<polygon fill="#63b8ff" stroke="#63b8ff" points="1406.77,-191.68 1416.41,-187.28 1406.13,-184.71 1406.77,-191.68"/>
</a>
</g>
</g>
<!-- Node19&#45;&gt;Node18 -->
<g id="edge41_Node000019_Node000018" class="edge">
<title>Node19&#45;&gt;Node18</title>
<g id="a_edge41_Node000019_Node000018"><a xlink:title=" ">
<path fill="none" stroke="#63b8ff" d="M1263.95,-182.88C1244.2,-178.17 1222.19,-172.91 1203.51,-168.45"/>
<polygon fill="#63b8ff" stroke="#63b8ff" points="1262.96,-186.25 1273.5,-185.16 1264.59,-179.44 1262.96,-186.25"/>
</a>
</g>
</g>
<!-- Node20 -->
<g id="Node000020" class="node">
<title>Node20</title>
<g id="a_Node000020"><a xlink:href="classxpath__ast__node.html#a3258c05ab9aaa78e154d2ff63fe56906" target="_top" xlink:title=" ">
<polygon fill="white" stroke="#666666" points="1221.5,-244 1096,-244 1096,-224 1221.5,-224 1221.5,-244"/>
<text xml:space="preserve" text-anchor="middle" x="1158.75" y="-230.5" font-family="Helvetica,sans-Serif" font-size="10.00">xpath_ast_node::step_do</text>
</a>
</g>
</g>
<!-- Node19&#45;&gt;Node20 -->
<g id="edge38_Node000019_Node000020" class="edge">
<title>Node19&#45;&gt;Node20</title>
<g id="a_edge38_Node000019_Node000020"><a xlink:title=" ">
<path fill="none" stroke="#63b8ff" d="M1263.95,-209.12C1244.2,-213.83 1222.19,-219.09 1203.51,-223.55"/>
<polygon fill="#63b8ff" stroke="#63b8ff" points="1264.59,-212.56 1273.5,-206.84 1262.96,-205.75 1264.59,-212.56"/>
</a>
</g>
</g>
<!-- Node21 -->
<g id="Node000021" class="node">
<title>Node21</title>
<g id="a_Node000021"><a xlink:href="classxpath__ast__node.html#ad1bf00f367027a353dc253900e85c036" target="_top" xlink:title=" ">
<polygon fill="white" stroke="#666666" points="1221.12,-206 1096.38,-206 1096.38,-186 1221.12,-186 1221.12,-206"/>
<text xml:space="preserve" text-anchor="middle" x="1158.75" y="-192.5" font-family="Helvetica,sans-Serif" font-size="10.00">xpath_ast_node::step_fill</text>
</a>
</g>
</g>
<!-- Node19&#45;&gt;Node21 -->
<g id="edge40_Node000019_Node000021" class="edge">
<title>Node19&#45;&gt;Node21</title>
<g id="a_edge40_Node000019_Node000021"><a xlink:title=" ">
<path fill="none" stroke="#63b8ff" d="M1245.87,-196C1237.68,-196 1229.4,-196 1221.37,-196"/>
<polygon fill="#63b8ff" stroke="#63b8ff" points="1245.84,-199.5 1255.84,-196 1245.84,-192.5 1245.84,-199.5"/>
</a>
</g>
</g>
<!-- Node20&#45;&gt;Node3 -->
<g id="edge39_Node000020_Node000003" class="edge">
<title>Node20&#45;&gt;Node3</title>
<g id="a_edge39_Node000020_Node000003"><a xlink:title=" ">
<path fill="none" stroke="#63b8ff" d="M1084.4,-234C1076.3,-234 1068.17,-234 1060.37,-234"/>
<polygon fill="#63b8ff" stroke="#63b8ff" points="1084.28,-237.5 1094.28,-234 1084.28,-230.5 1084.28,-237.5"/>
</a>
</g>
</g>
</g>
</svg>
