<?xml version="1.0" encoding="UTF-8" standalone="no"?>
<!DOCTYPE svg PUBLIC "-//W3C//DTD SVG 1.1//EN"
 "http://www.w3.org/Graphics/SVG/1.1/DTD/svg11.dtd">
<!-- Generated by graphviz version 14.1.2 (20260124.0452)
 -->
<!-- Title: xml_allocator::deallocate_memory Pages: 1 -->
<!--zoomable 198 -->

<svg id="main" version="1.1" xmlns="http://www.w3.org/2000/svg" xmlns:xlink="http://www.w3.org/1999/xlink" xml:space="preserve" onload="init(evt)">

<style type="text/css"><![CDATA[
.node, .edge {opacity: 0.7;}
.node.selected, .edge.selected {opacity: 1;}
.edge:hover path { stroke: red; }
.edge:hover polygon { stroke: red; fill: red; }
]]></style>

<defs>
  <circle id="rim" cx="0" cy="0" r="7"/>
  <circle id="rim2" cx="0" cy="0" r="3.5"/>
  <g id="zoomPlus">
    <use xlink:href="#rim" fill="#404040"><set attributeName="fill" to="#808080" begin="zoomplus.mouseover" end="zoomplus.mouseout"/></use>
    <path d="M-4,0h8M0,-4v8" fill="none" stroke="white" stroke-width="1.5" pointer-events="none"/>
  </g>
  <g id="zoomMin">
    <use xlink:href="#rim" fill="#404040"><set attributeName="fill" to="#808080" begin="zoomminus.mouseover" end="zoomminus.mouseout"/></use>
    <path d="M-4,0h8" fill="none" stroke="white" stroke-width="1.5" pointer-events="none"/>
  </g>
  <g id="arrowUp" transform="translate(30 24)">
    <use xlink:href="#rim"/>
    <path pointer-events="none" fill="none" stroke="white" stroke-width="1.5" d="M0,-3.0v7 M-2.5,-0.5L0,-3.0L2.5,-0.5"/>
  </g>
  <g id="arrowRight" transform="rotate(90) translate(36 -43)">
    <use xlink:href="#rim"/>
    <path pointer-events="none" fill="none" stroke="white" stroke-width="1.5" d="M0,-3.0v7 M-2.5,-0.5L0,-3.0L2.5,-0.5"/>
  </g>
  <g id="arrowDown" transform="rotate(180) translate(-30 -48)">
    <use xlink:href="#rim"/>
    <path pointer-events="none" fill="none" stroke="white" stroke-width="1.5" d="M0,-3.0v7 M-2.5,-0.5L0,-3.0L2.5,-0.5"/>
  </g>
  <g id="arrowLeft" transform="rotate(270) translate(-36 17)">
    <use xlink:href="#rim"/>
    <path pointer-events="none" fill="none" stroke="white" stroke-width="1.5" d="M0,-3.0v7 M-2.5,-0.5L0,-3.0L2.5,-0.5"/>
  </g>
  <g id="resetDef">
    <use xlink:href="#rim2" fill="#404040"><set attributeName="fill" to="#808080" begin="reset.mouseover" end="reset.mouseout"/></use>
  </g>
</defs>
<script type="application/ecmascript">
var viewWidth = 808;
var viewHeight = 198;
var sectionId = 'dynsection-14';
</script>
<script type="application/ecmascript" xlink:href="svg.min.js"/>
<svg id="graph" class="graph">
<g id="viewport">
<title>xml_allocator::deallocate_memory</title>
<!-- Node1 -->
<g id="Node000001" class="node">
<title>Node1</title>
<g id="a_Node000001"><a xlink:title=" ">
<polygon fill="#999999" stroke="#666666" points="800.25,-178 676.25,-178 676.25,-146 800.25,-146 800.25,-178"/>
<text xml:space="preserve" text-anchor="start" x="684.25" y="-164.5" font-family="Helvetica,sans-Serif" font-size="10.00">xml_allocator::deallocate</text>
<text xml:space="preserve" text-anchor="middle" x="738.25" y="-152.5" font-family="Helvetica,sans-Serif" font-size="10.00">_memory</text>
</a>
</g>
</g>
<!-- Node2 -->
<g id="Node000002" class="node">
<title>Node2</title>
<g id="a_Node000002"><a xlink:href="structxml__allocator.html#af32c538db4d562c2d0bfe15f7c0aa879" target="_top" xlink:title=" ">
<polygon fill="white" stroke="#666666" points="640.25,-134 516.25,-134 516.25,-102 640.25,-102 640.25,-134"/>
<text xml:space="preserve" text-anchor="start" x="524.25" y="-120.5" font-family="Helvetica,sans-Serif" font-size="10.00">xml_allocator::deallocate</text>
<text xml:space="preserve" text-anchor="middle" x="578.25" y="-108.5" font-family="Helvetica,sans-Serif" font-size="10.00">_string</text>
</a>
</g>
</g>
<!-- Node1&#45;&gt;Node2 -->
<g id="edge1_Node000001_Node000002" class="edge">
<title>Node1&#45;&gt;Node2</title>
<g id="a_edge1_Node000001_Node000002"><a xlink:title=" ">
<path fill="none" stroke="#63b8ff" d="M667.55,-142.59C657.82,-139.88 647.9,-137.12 638.4,-134.47"/>
<polygon fill="#63b8ff" stroke="#63b8ff" points="666.39,-145.9 676.96,-145.21 668.26,-139.16 666.39,-145.9"/>
</a>
</g>
</g>
<!-- Node3 -->
<g id="Node000003" class="node">
<title>Node3</title>
<g id="a_Node000003"><a xlink:href="pugixml_8cpp.html#a451a69801ffa96a6389bb7d4c8099bd9" target="_top" xlink:title=" ">
<polygon fill="white" stroke="#666666" points="480.25,-172 391.5,-172 391.5,-152 480.25,-152 480.25,-172"/>
<text xml:space="preserve" text-anchor="middle" x="435.88" y="-158.5" font-family="Helvetica,sans-Serif" font-size="10.00">destroy_attribute</text>
</a>
</g>
</g>
<!-- Node1&#45;&gt;Node3 -->
<g id="edge16_Node000001_Node000003" class="edge">
<title>Node1&#45;&gt;Node3</title>
<g id="a_edge16_Node000001_Node000003"><a xlink:title=" ">
<path fill="none" stroke="#63b8ff" d="M664.89,-162C607.33,-162 528.71,-162 480.44,-162"/>
<polygon fill="#63b8ff" stroke="#63b8ff" points="664.59,-165.5 674.59,-162 664.59,-158.5 664.59,-165.5"/>
</a>
</g>
</g>
<!-- Node4 -->
<g id="Node000004" class="node">
<title>Node4</title>
<g id="a_Node000004"><a xlink:href="pugixml_8cpp.html#a00ae2c226db329ac858206e646251867" target="_top" xlink:title=" ">
<polygon fill="white" stroke="#666666" points="346.5,-172 272,-172 272,-152 346.5,-152 346.5,-172"/>
<text xml:space="preserve" text-anchor="middle" x="309.25" y="-158.5" font-family="Helvetica,sans-Serif" font-size="10.00">destroy_node</text>
</a>
</g>
</g>
<!-- Node1&#45;&gt;Node4 -->
<g id="edge17_Node000001_Node000004" class="edge">
<title>Node1&#45;&gt;Node4</title>
<g id="a_edge17_Node000001_Node000004"><a xlink:title=" ">
<path fill="none" stroke="#63b8ff" d="M664.52,-173.14C594.4,-182.19 485.41,-191.83 391.5,-181 376.68,-179.29 360.63,-175.88 346.74,-172.42"/>
<polygon fill="#63b8ff" stroke="#63b8ff" points="664.9,-176.62 674.35,-171.83 663.98,-169.68 664.9,-176.62"/>
</a>
</g>
</g>
<!-- Node2&#45;&gt;Node3 -->
<g id="edge2_Node000002_Node000003" class="edge">
<title>Node2&#45;&gt;Node3</title>
<g id="a_edge2_Node000002_Node000003"><a xlink:title=" ">
<path fill="none" stroke="#63b8ff" d="M514.04,-137.81C498.85,-142.57 483.23,-147.47 470.04,-151.6"/>
<polygon fill="#63b8ff" stroke="#63b8ff" points="515.04,-141.17 523.54,-134.84 512.95,-134.49 515.04,-141.17"/>
</a>
</g>
</g>
<!-- Node2&#45;&gt;Node4 -->
<g id="edge5_Node000002_Node000004" class="edge">
<title>Node2&#45;&gt;Node4</title>
<g id="a_edge5_Node000002_Node000004"><a xlink:title=" ">
<path fill="none" stroke="#63b8ff" d="M504.57,-126.14C470.17,-130.41 428.59,-136.18 391.5,-143 376.82,-145.7 360.81,-149.3 346.9,-152.64"/>
<polygon fill="#63b8ff" stroke="#63b8ff" points="504.94,-129.62 514.44,-124.94 504.09,-122.68 504.94,-129.62"/>
</a>
</g>
</g>
<!-- Node5 -->
<g id="Node000005" class="node">
<title>Node5</title>
<g id="a_Node000005"><a xlink:href="pugixml_8cpp.html#a6acbb945c483e413572aadd55a2c8712" target="_top" xlink:title=" ">
<polygon fill="white" stroke="#666666" points="471.62,-96 400.12,-96 400.12,-76 471.62,-76 471.62,-96"/>
<text xml:space="preserve" text-anchor="middle" x="435.88" y="-82.5" font-family="Helvetica,sans-Serif" font-size="10.00">strcpy_insitu</text>
</a>
</g>
</g>
<!-- Node2&#45;&gt;Node5 -->
<g id="edge6_Node000002_Node000005" class="edge">
<title>Node2&#45;&gt;Node5</title>
<g id="a_edge6_Node000002_Node000005"><a xlink:title=" ">
<path fill="none" stroke="#63b8ff" d="M505.08,-101.55C493.58,-98.93 482.14,-96.32 472.02,-94.01"/>
<polygon fill="#63b8ff" stroke="#63b8ff" points="504.08,-104.91 514.61,-103.72 505.64,-98.09 504.08,-104.91"/>
</a>
</g>
</g>
<!-- Node3&#45;&gt;Node4 -->
<g id="edge3_Node000003_Node000004" class="edge">
<title>Node3&#45;&gt;Node4</title>
<g id="a_edge3_Node000003_Node000004"><a xlink:title=" ">
<path fill="none" stroke="#63b8ff" d="M379.87,-162C368.74,-162 357.3,-162 346.99,-162"/>
<polygon fill="#63b8ff" stroke="#63b8ff" points="379.77,-165.5 389.77,-162 379.77,-158.5 379.77,-165.5"/>
</a>
</g>
</g>
<!-- Node4&#45;&gt;Node4 -->
<g id="edge4_Node000004_Node000004" class="edge">
<title>Node4&#45;&gt;Node4</title>
<g id="a_edge4_Node000004_Node000004"><a xlink:title=" ">
<path fill="none" stroke="#63b8ff" d="M331.63,-183.44C328.75,-187.3 321.29,-190 309.25,-190 287.24,-190 280.53,-180.98 289.13,-172.34"/>
<polygon fill="#63b8ff" stroke="#63b8ff" points="335.1,-182.92 329.67,-173.82 328.24,-184.32 335.1,-182.92"/>
</a>
</g>
</g>
<!-- Node6 -->
<g id="Node000006" class="node">
<title>Node6</title>
<g id="a_Node000006"><a xlink:href="pugixml_8cpp.html#aee4bcdb425d825a33564649ece0a4b31" target="_top" xlink:title=" ">
<polygon fill="white" stroke="#666666" points="355.5,-96 263,-96 263,-76 355.5,-76 355.5,-96"/>
<text xml:space="preserve" text-anchor="middle" x="309.25" y="-82.5" font-family="Helvetica,sans-Serif" font-size="10.00">node_copy_string</text>
</a>
</g>
</g>
<!-- Node5&#45;&gt;Node6 -->
<g id="edge7_Node000005_Node000006" class="edge">
<title>Node5&#45;&gt;Node6</title>
<g id="a_edge7_Node000005_Node000006"><a xlink:title=" ">
<path fill="none" stroke="#63b8ff" d="M388.53,-86C377.82,-86 366.42,-86 355.75,-86"/>
<polygon fill="#63b8ff" stroke="#63b8ff" points="388.31,-89.5 398.31,-86 388.31,-82.5 388.31,-89.5"/>
</a>
</g>
</g>
<!-- Node10 -->
<g id="Node000010" class="node">
<title>Node10</title>
<g id="a_Node000010"><a xlink:href="pugixml_8cpp.html#add59ae346f2993be95cf7b56903ec676" target="_top" xlink:title=" ">
<polygon fill="white" stroke="#666666" points="351,-58 267.5,-58 267.5,-38 351,-38 351,-58"/>
<text xml:space="preserve" text-anchor="middle" x="309.25" y="-44.5" font-family="Helvetica,sans-Serif" font-size="10.00">set_value_ascii</text>
</a>
</g>
</g>
<!-- Node5&#45;&gt;Node10 -->
<g id="edge11_Node000005_Node000010" class="edge">
<title>Node5&#45;&gt;Node10</title>
<g id="a_edge11_Node000005_Node000010"><a xlink:title=" ">
<path fill="none" stroke="#63b8ff" d="M389.91,-72.29C374.95,-67.73 358.54,-62.72 344.52,-58.45"/>
<polygon fill="#63b8ff" stroke="#63b8ff" points="388.46,-75.51 399.04,-75.07 390.5,-68.81 388.46,-75.51"/>
</a>
</g>
</g>
<!-- Node13 -->
<g id="Node000013" class="node">
<title>Node13</title>
<g id="a_Node000013"><a xlink:href="pugixml_8cpp.html#ad084c2ba3b0385b65a3c50b12146fa36" target="_top" xlink:title=" ">
<polygon fill="white" stroke="#666666" points="349.88,-20 268.62,-20 268.62,0 349.88,0 349.88,-20"/>
<text xml:space="preserve" text-anchor="middle" x="309.25" y="-6.5" font-family="Helvetica,sans-Serif" font-size="10.00">set_value_bool</text>
</a>
</g>
</g>
<!-- Node5&#45;&gt;Node13 -->
<g id="edge14_Node000005_Node000013" class="edge">
<title>Node5&#45;&gt;Node13</title>
<g id="a_edge14_Node000005_Node000013"><a xlink:title=" ">
<path fill="none" stroke="#63b8ff" d="M413.5,-68.63C398.01,-56.55 376.22,-40.59 355.5,-29 350,-25.92 343.9,-23.03 338,-20.49"/>
<polygon fill="#63b8ff" stroke="#63b8ff" points="411.08,-71.17 421.09,-74.64 415.42,-65.68 411.08,-71.17"/>
</a>
</g>
</g>
<!-- Node14 -->
<g id="Node000014" class="node">
<title>Node14</title>
<g id="a_Node000014"><a xlink:href="pugixml_8cpp.html#a4b9ba5312f3cfa08fba37205484fc91d" target="_top" xlink:title=" ">
<polygon fill="white" stroke="#666666" points="355.5,-134 263,-134 263,-114 355.5,-114 355.5,-134"/>
<text xml:space="preserve" text-anchor="middle" x="309.25" y="-120.5" font-family="Helvetica,sans-Serif" font-size="10.00">set_value_integer</text>
</a>
</g>
</g>
<!-- Node5&#45;&gt;Node14 -->
<g id="edge15_Node000005_Node000014" class="edge">
<title>Node5&#45;&gt;Node14</title>
<g id="a_edge15_Node000005_Node000014"><a xlink:title=" ">
<path fill="none" stroke="#63b8ff" d="M389.91,-99.71C374.95,-104.27 358.54,-109.28 344.52,-113.55"/>
<polygon fill="#63b8ff" stroke="#63b8ff" points="390.5,-103.19 399.04,-96.93 388.46,-96.49 390.5,-103.19"/>
</a>
</g>
</g>
<!-- Node7 -->
<g id="Node000007" class="node">
<title>Node7</title>
<g id="a_Node000007"><a xlink:href="pugixml_8cpp.html#aa393963791df0fe1b8bfe3829637bfbf" target="_top" xlink:title=" ">
<polygon fill="white" stroke="#666666" points="225.88,-134 122.12,-134 122.12,-114 225.88,-114 225.88,-134"/>
<text xml:space="preserve" text-anchor="middle" x="174" y="-120.5" font-family="Helvetica,sans-Serif" font-size="10.00">node_copy_attribute</text>
</a>
</g>
</g>
<!-- Node6&#45;&gt;Node7 -->
<g id="edge8_Node000006_Node000007" class="edge">
<title>Node6&#45;&gt;Node7</title>
<g id="a_edge8_Node000006_Node000007"><a xlink:title=" ">
<path fill="none" stroke="#63b8ff" d="M260.64,-99.58C244.52,-104.18 226.78,-109.23 211.64,-113.55"/>
<polygon fill="#63b8ff" stroke="#63b8ff" points="261.37,-103.01 270.03,-96.9 259.45,-96.28 261.37,-103.01"/>
</a>
</g>
</g>
<!-- Node8 -->
<g id="Node000008" class="node">
<title>Node8</title>
<g id="a_Node000008"><a xlink:href="pugixml_8cpp.html#a04264129af89281e0d73c01e7b4716bb" target="_top" xlink:title=" ">
<polygon fill="white" stroke="#666666" points="227,-96 121,-96 121,-76 227,-76 227,-96"/>
<text xml:space="preserve" text-anchor="middle" x="174" y="-82.5" font-family="Helvetica,sans-Serif" font-size="10.00">node_copy_contents</text>
</a>
</g>
</g>
<!-- Node6&#45;&gt;Node8 -->
<g id="edge9_Node000006_Node000008" class="edge">
<title>Node6&#45;&gt;Node8</title>
<g id="a_edge9_Node000006_Node000008"><a xlink:title=" ">
<path fill="none" stroke="#63b8ff" d="M251.52,-86C243.43,-86 235.15,-86 227.16,-86"/>
<polygon fill="#63b8ff" stroke="#63b8ff" points="251.25,-89.5 261.25,-86 251.25,-82.5 251.25,-89.5"/>
</a>
</g>
</g>
<!-- Node9 -->
<g id="Node000009" class="node">
<title>Node9</title>
<g id="a_Node000009"><a xlink:href="pugixml_8cpp.html#a14949165ebd41eaf762dce303c0118a9" target="_top" xlink:title=" ">
<polygon fill="white" stroke="#666666" points="85,-96 0,-96 0,-76 85,-76 85,-96"/>
<text xml:space="preserve" text-anchor="middle" x="42.5" y="-82.5" font-family="Helvetica,sans-Serif" font-size="10.00">node_copy_tree</text>
</a>
</g>
</g>
<!-- Node8&#45;&gt;Node9 -->
<g id="edge10_Node000008_Node000009" class="edge">
<title>Node8&#45;&gt;Node9</title>
<g id="a_edge10_Node000008_Node000009"><a xlink:title=" ">
<path fill="none" stroke="#63b8ff" d="M109.25,-86C101.1,-86 92.92,-86 85.25,-86"/>
<polygon fill="#63b8ff" stroke="#63b8ff" points="109.19,-89.5 119.19,-86 109.19,-82.5 109.19,-89.5"/>
</a>
</g>
</g>
<!-- Node11 -->
<g id="Node000011" class="node">
<title>Node11</title>
<g id="a_Node000011"><a xlink:href="pugixml_8cpp.html#a1c25c237dad556a4905806d70ed107f3" target="_top" xlink:title=" ">
<polygon fill="white" stroke="#666666" points="221.75,-58 126.25,-58 126.25,-38 221.75,-38 221.75,-58"/>
<text xml:space="preserve" text-anchor="middle" x="174" y="-44.5" font-family="Helvetica,sans-Serif" font-size="10.00">set_value_convert</text>
</a>
</g>
</g>
<!-- Node10&#45;&gt;Node11 -->
<g id="edge12_Node000010_Node000011" class="edge">
<title>Node10&#45;&gt;Node11</title>
<g id="a_edge12_Node000010_Node000011"><a xlink:title=" ">
<path fill="none" stroke="#63b8ff" d="M255.87,-48C244.77,-48 233.12,-48 222.23,-48"/>
<polygon fill="#63b8ff" stroke="#63b8ff" points="255.67,-51.5 265.67,-48 255.67,-44.5 255.67,-51.5"/>
</a>
</g>
</g>
<!-- Node12 -->
<g id="Node000012" class="node">
<title>Node12</title>
<g id="a_Node000012"><a xlink:href="pugixml_8cpp.html#a7548c736894a21eda85551af5f2bafed" target="_top" xlink:title=" ">
<polygon fill="white" stroke="#666666" points="221.75,-20 126.25,-20 126.25,0 221.75,0 221.75,-20"/>
<text xml:space="preserve" text-anchor="middle" x="174" y="-6.5" font-family="Helvetica,sans-Serif" font-size="10.00">set_value_convert</text>
</a>
</g>
</g>
<!-- Node10&#45;&gt;Node12 -->
<g id="edge13_Node000010_Node000012" class="edge">
<title>Node10&#45;&gt;Node12</title>
<g id="a_edge13_Node000010_Node000012"><a xlink:title=" ">
<path fill="none" stroke="#63b8ff" d="M260.64,-34.42C244.52,-29.82 226.78,-24.77 211.64,-20.45"/>
<polygon fill="#63b8ff" stroke="#63b8ff" points="259.45,-37.72 270.03,-37.1 261.37,-30.99 259.45,-37.72"/>
</a>
</g>
</g>
</g>
</svg>

<g id="navigator" transform="translate(0 0)" fill="#404254">
  <rect fill="#f2f5e9" fill-opacity="0.5" stroke="#606060" stroke-width=".5" x="0" y="0" width="60" height="60"/>
  <use id="zoomplus" xlink:href="#zoomPlus" x="17" y="9" onmousedown="handleZoom(evt,'in')"/>
  <use id="zoomminus" xlink:href="#zoomMin" x="42" y="9" onmousedown="handleZoom(evt,'out')"/>
  <use id="reset" xlink:href="#resetDef" x="30" y="36" onmousedown="handleReset()"/>
   <use id="arrowup" xlink:href="#arrowUp" x="0" y="0" onmousedown="handlePan(0,-1)"/>
  <use id="arrowright" xlink:href="#arrowRight" x="0" y="0" onmousedown="handlePan(1,0)"/>
  <use id="arrowdown" xlink:href="#arrowDown" x="0" y="0" onmousedown="handlePan(0,1)"/>
  <use id="arrowleft" xlink:href="#arrowLeft" x="0" y="0" onmousedown="handlePan(-1,0)"/>
</g>
<svg viewBox="0 0 15 15" width="100%" height="30px" preserveAspectRatio="xMaxYMin meet">
 <g id="arrow_out" transform="scale(0.3 0.3)">
  <a xlink:href="structxml__allocator_a5df417155487cce4e0460b123ac33dc6_icgraph_org.svg" target="_base">
   <rect id="button" ry="5" rx="5" y="6" x="6" height="38" width="38"
        fill="#f2f5e9" fill-opacity="0.5" stroke="#606060" stroke-width="1.0"/>
   <path id="arrow"
     d="M 11.500037,31.436501 C 11.940474,20.09759 22.043105,11.32322 32.158766,21.979434 L 37.068811,17.246167 C 37.068811,17.246167 37.088388,32 37.088388,32 L 22.160133,31.978069 C 22.160133,31.978069 26.997745,27.140456 26.997745,27.140456 C 18.528582,18.264221 13.291696,25.230495 11.500037,31.436501 z"
     style="fill:#404040;"/>
  </a>
 </g>
</svg>

<style type='text/css'>
<![CDATA[
[data-mouse-over-selected='false'] { opacity: 0.7; }
[data-mouse-over-selected='true']  { opacity: 1.0; }
]]>
</style>
<script type="application/ecmascript"><![CDATA[
document.addEventListener('DOMContentLoaded', (event) => {
  highlightEdges();
  highlightAdjacentNodes();
});
]]></script>
</svg>
