<?xml version="1.0" encoding="UTF-8" standalone="no"?>
<!DOCTYPE svg PUBLIC "-//W3C//DTD SVG 1.1//EN"
 "http://www.w3.org/Graphics/SVG/1.1/DTD/svg11.dtd">
<!-- Generated by graphviz version 14.1.2 (20260124.0452)
 -->
<!-- Title: auto_deleter::release Pages: 1 -->
<svg width="410pt" height="216pt"
 viewBox="0.00 0.00 410.00 216.00" xmlns="http://www.w3.org/2000/svg" xmlns:xlink="http://www.w3.org/1999/xlink">

<svg id="main" version="1.1" xmlns="http://www.w3.org/2000/svg" xmlns:xlink="http://www.w3.org/1999/xlink" xml:space="preserve">

<style type="text/css"><![CDATA[
.node, .edge {opacity: 0.7;}
.node.selected, .edge.selected {opacity: 1;}
.edge:hover path { stroke: red; }
.edge:hover polygon { stroke: red; fill: red; }
]]></style>
<script type="application/ecmascript" xlink:href="svg.min.js"/>
<svg id="graph" class="graph">
<g id="graph0" class="graph" transform="scale(1 1) rotate(0) translate(4 212)">
<title>auto_deleter::release</title>
<!-- Node1 -->
<g id="Node000001" class="node">
<title>Node1</title>
<g id="a_Node000001"><a xlink:title=" ">
<polygon fill="#999999" stroke="#666666" points="402,-126 295.25,-126 295.25,-106 402,-106 402,-126"/>
<text xml:space="preserve" text-anchor="middle" x="348.62" y="-112.5" font-family="Helvetica,sans-Serif" font-size="10.00">auto_deleter::release</text>
</a>
</g>
</g>
<!-- Node2 -->
<g id="Node000002" class="node">
<title>Node2</title>
<g id="a_Node000002"><a xlink:href="pugixml_8cpp.html#af9acc905a97f5a257bf4e9fbac044b5f" target="_top" xlink:title=" ">
<polygon fill="white" stroke="#666666" points="242.75,-208 156.25,-208 156.25,-188 242.75,-188 242.75,-208"/>
<text xml:space="preserve" text-anchor="middle" x="199.5" y="-194.5" font-family="Helvetica,sans-Serif" font-size="10.00">load_buffer_impl</text>
</a>
</g>
</g>
<!-- Node1&#45;&gt;Node2 -->
<g id="edge1_Node000001_Node000002" class="edge">
<title>Node1&#45;&gt;Node2</title>
<g id="a_edge1_Node000001_Node000002"><a xlink:title=" ">
<path fill="none" stroke="#63b8ff" d="M326.89,-133.58C309.69,-147.46 284.1,-166.5 259.25,-179 252.83,-182.23 245.75,-185.07 238.79,-187.5"/>
<polygon fill="#63b8ff" stroke="#63b8ff" points="328.86,-136.5 334.36,-127.44 324.41,-131.09 328.86,-136.5"/>
</a>
</g>
</g>
<!-- Node5 -->
<g id="Node000005" class="node">
<title>Node5</title>
<g id="a_Node000005"><a xlink:href="pugixml_8cpp.html#a7fb75031ba5591267a20fa508daa8e4b" target="_top" xlink:title=" ">
<polygon fill="white" stroke="#666666" points="259.25,-170 139.75,-170 139.75,-150 259.25,-150 259.25,-170"/>
<text xml:space="preserve" text-anchor="middle" x="199.5" y="-156.5" font-family="Helvetica,sans-Serif" font-size="10.00">load_stream_data_seek</text>
</a>
</g>
</g>
<!-- Node1&#45;&gt;Node5 -->
<g id="edge4_Node000001_Node000005" class="edge">
<title>Node1&#45;&gt;Node5</title>
<g id="a_edge4_Node000001_Node000005"><a xlink:title=" ">
<path fill="none" stroke="#63b8ff" d="M301.92,-129.67C280.45,-136.09 255.27,-143.62 235.37,-149.57"/>
<polygon fill="#63b8ff" stroke="#63b8ff" points="302.73,-133.08 311.31,-126.86 300.72,-126.37 302.73,-133.08"/>
</a>
</g>
</g>
<!-- Node6 -->
<g id="Node000006" class="node">
<title>Node6</title>
<g id="a_Node000006"><a xlink:href="classpugi_1_1xml__document.html#a0ab2364806fa3578fa8d4b092edd83f8" target="_top" xlink:title=" ">
<polygon fill="white" stroke="#666666" points="251.38,-132 147.62,-132 147.62,-100 251.38,-100 251.38,-132"/>
<text xml:space="preserve" text-anchor="start" x="155.62" y="-118.5" font-family="Helvetica,sans-Serif" font-size="10.00">pugi::xml_document</text>
<text xml:space="preserve" text-anchor="middle" x="199.5" y="-106.5" font-family="Helvetica,sans-Serif" font-size="10.00">::save_file</text>
</a>
</g>
</g>
<!-- Node1&#45;&gt;Node6 -->
<g id="edge6_Node000001_Node000006" class="edge">
<title>Node1&#45;&gt;Node6</title>
<g id="a_edge6_Node000001_Node000006"><a xlink:title=" ">
<path fill="none" stroke="#63b8ff" d="M283.56,-116C272.96,-116 262.09,-116 251.85,-116"/>
<polygon fill="#63b8ff" stroke="#63b8ff" points="283.41,-119.5 293.41,-116 283.41,-112.5 283.41,-119.5"/>
</a>
</g>
</g>
<!-- Node8 -->
<g id="Node000008" class="node">
<title>Node8</title>
<g id="a_Node000008"><a xlink:href="classpugi_1_1xml__document.html#aface329a64abd9d098e77ce5d7b8003c" target="_top" xlink:title=" ">
<polygon fill="white" stroke="#666666" points="251.38,-82 147.62,-82 147.62,-50 251.38,-50 251.38,-82"/>
<text xml:space="preserve" text-anchor="start" x="155.62" y="-68.5" font-family="Helvetica,sans-Serif" font-size="10.00">pugi::xml_document</text>
<text xml:space="preserve" text-anchor="middle" x="199.5" y="-56.5" font-family="Helvetica,sans-Serif" font-size="10.00">::save_file</text>
</a>
</g>
</g>
<!-- Node1&#45;&gt;Node8 -->
<g id="edge8_Node000001_Node000008" class="edge">
<title>Node1&#45;&gt;Node8</title>
<g id="a_edge8_Node000001_Node000008"><a xlink:title=" ">
<path fill="none" stroke="#63b8ff" d="M305.91,-101.82C288.17,-95.8 267.38,-88.73 248.97,-82.47"/>
<polygon fill="#63b8ff" stroke="#63b8ff" points="304.76,-105.13 315.35,-105.03 307.01,-98.5 304.76,-105.13"/>
</a>
</g>
</g>
<!-- Node9 -->
<g id="Node000009" class="node">
<title>Node9</title>
<g id="a_Node000009"><a xlink:href="classpugi_1_1xpath__query.html#adec235593bdc5e7e61af4f85bc8ee72a" target="_top" xlink:title=" ">
<polygon fill="white" stroke="#666666" points="249.12,-32 149.88,-32 149.88,0 249.12,0 249.12,-32"/>
<text xml:space="preserve" text-anchor="start" x="157.88" y="-18.5" font-family="Helvetica,sans-Serif" font-size="10.00">pugi::xpath_query::</text>
<text xml:space="preserve" text-anchor="middle" x="199.5" y="-6.5" font-family="Helvetica,sans-Serif" font-size="10.00">xpath_query</text>
</a>
</g>
</g>
<!-- Node1&#45;&gt;Node9 -->
<g id="edge9_Node000001_Node000009" class="edge">
<title>Node1&#45;&gt;Node9</title>
<g id="a_edge9_Node000001_Node000009"><a xlink:title=" ">
<path fill="none" stroke="#63b8ff" d="M329.6,-97.83C312.59,-81.42 285.79,-57.38 259.25,-41 254.25,-37.91 248.8,-35.03 243.31,-32.41"/>
<polygon fill="#63b8ff" stroke="#63b8ff" points="326.89,-100.07 336.47,-104.58 331.79,-95.08 326.89,-100.07"/>
</a>
</g>
</g>
<!-- Node3 -->
<g id="Node000003" class="node">
<title>Node3</title>
<g id="a_Node000003"><a xlink:href="pugixml_8cpp.html#aceaecd7da4188d11f224e33404cb23ba" target="_top" xlink:title=" ">
<polygon fill="white" stroke="#666666" points="89.5,-208 14.25,-208 14.25,-188 89.5,-188 89.5,-208"/>
<text xml:space="preserve" text-anchor="middle" x="51.88" y="-194.5" font-family="Helvetica,sans-Serif" font-size="10.00">load_file_impl</text>
</a>
</g>
</g>
<!-- Node2&#45;&gt;Node3 -->
<g id="edge2_Node000002_Node000003" class="edge">
<title>Node2&#45;&gt;Node3</title>
<g id="a_edge2_Node000002_Node000003"><a xlink:title=" ">
<path fill="none" stroke="#63b8ff" d="M144.59,-198C126.34,-198 106.38,-198 89.76,-198"/>
<polygon fill="#63b8ff" stroke="#63b8ff" points="144.47,-201.5 154.47,-198 144.47,-194.5 144.47,-201.5"/>
</a>
</g>
</g>
<!-- Node4 -->
<g id="Node000004" class="node">
<title>Node4</title>
<g id="a_Node000004"><a xlink:href="pugixml_8cpp.html#a826b7e183311c8aa4e5b25157a3b3d3f" target="_top" xlink:title=" ">
<polygon fill="white" stroke="#666666" points="98.12,-170 5.62,-170 5.62,-150 98.12,-150 98.12,-170"/>
<text xml:space="preserve" text-anchor="middle" x="51.88" y="-156.5" font-family="Helvetica,sans-Serif" font-size="10.00">load_stream_impl</text>
</a>
</g>
</g>
<!-- Node2&#45;&gt;Node4 -->
<g id="edge3_Node000002_Node000004" class="edge">
<title>Node2&#45;&gt;Node4</title>
<g id="a_edge3_Node000002_Node000004"><a xlink:title=" ">
<path fill="none" stroke="#63b8ff" d="M147.23,-184.62C129.41,-179.97 109.7,-174.83 92.92,-170.45"/>
<polygon fill="#63b8ff" stroke="#63b8ff" points="146.3,-188 156.86,-187.13 148.07,-181.22 146.3,-188"/>
</a>
</g>
</g>
<!-- Node5&#45;&gt;Node4 -->
<g id="edge5_Node000005_Node000004" class="edge">
<title>Node5&#45;&gt;Node4</title>
<g id="a_edge5_Node000005_Node000004"><a xlink:title=" ">
<path fill="none" stroke="#63b8ff" d="M127.92,-160C117.81,-160 107.65,-160 98.2,-160"/>
<polygon fill="#63b8ff" stroke="#63b8ff" points="127.76,-163.5 137.76,-160 127.76,-156.5 127.76,-163.5"/>
</a>
</g>
</g>
<!-- Node7 -->
<g id="Node000007" class="node">
<title>Node7</title>
<g id="a_Node000007"><a xlink:href="classpugi_1_1xml__document.html#af2465eda9e5f0551c2a40fd53d96c63d" target="_top" xlink:title=" ">
<polygon fill="white" stroke="#666666" points="103.75,-132 0,-132 0,-100 103.75,-100 103.75,-132"/>
<text xml:space="preserve" text-anchor="start" x="8" y="-118.5" font-family="Helvetica,sans-Serif" font-size="10.00">pugi::xml_document</text>
<text xml:space="preserve" text-anchor="middle" x="51.88" y="-106.5" font-family="Helvetica,sans-Serif" font-size="10.00">::_move</text>
</a>
</g>
</g>
<!-- Node6&#45;&gt;Node7 -->
<g id="edge7_Node000006_Node000007" class="edge">
<title>Node6&#45;&gt;Node7</title>
<g id="a_edge7_Node000006_Node000007"><a xlink:title=" ">
<path fill="none" stroke="#63b8ff" d="M135.86,-116C125.31,-116 114.47,-116 104.24,-116"/>
<polygon fill="#63b8ff" stroke="#63b8ff" points="135.64,-119.5 145.64,-116 135.64,-112.5 135.64,-119.5"/>
</a>
</g>
</g>
</g>
</svg>
</svg>

<style type='text/css'>
<![CDATA[
[data-mouse-over-selected='false'] { opacity: 0.7; }
[data-mouse-over-selected='true']  { opacity: 1.0; }
]]>
</style>
<script type="application/ecmascript"><![CDATA[
document.addEventListener('DOMContentLoaded', (event) => {
  highlightEdges();
  highlightAdjacentNodes();
});
]]></script>
</svg>
