<?xml version="1.0" encoding="UTF-8" standalone="no"?>
<!DOCTYPE svg PUBLIC "-//W3C//DTD SVG 1.1//EN"
 "http://www.w3.org/Graphics/SVG/1.1/DTD/svg11.dtd">
<!-- Generated by graphviz version 14.1.2 (20260124.0452)
 -->
<!-- Title: xml_allocator::deallocate_page Pages: 1 -->
<svg width="995pt" height="198pt"
 viewBox="0.00 0.00 995.00 198.00" xmlns="http://www.w3.org/2000/svg" xmlns:xlink="http://www.w3.org/1999/xlink">
<g id="graph0" class="graph" transform="scale(1 1) rotate(0) translate(4 194)">
<title>xml_allocator::deallocate_page</title>
<!-- Node1 -->
<g id="Node000001" class="node">
<title>Node1</title>
<g id="a_Node000001"><a xlink:title=" ">
<polygon fill="#999999" stroke="#666666" points="986.5,-172 836.25,-172 836.25,-152 986.5,-152 986.5,-172"/>
<text xml:space="preserve" text-anchor="middle" x="911.38" y="-158.5" font-family="Helvetica,sans-Serif" font-size="10.00">xml_allocator::deallocate_page</text>
</a>
</g>
</g>
<!-- Node2 -->
<g id="Node000002" class="node">
<title>Node2</title>
<g id="a_Node000002"><a xlink:href="structxml__allocator.html#a5df417155487cce4e0460b123ac33dc6" target="_top" xlink:title=" ">
<polygon fill="white" stroke="#666666" points="800.25,-178 676.25,-178 676.25,-146 800.25,-146 800.25,-178"/>
<text xml:space="preserve" text-anchor="start" x="684.25" y="-164.5" font-family="Helvetica,sans-Serif" font-size="10.00">xml_allocator::deallocate</text>
<text xml:space="preserve" text-anchor="middle" x="738.25" y="-152.5" font-family="Helvetica,sans-Serif" font-size="10.00">_memory</text>
</a>
</g>
</g>
<!-- Node1&#45;&gt;Node2 -->
<g id="edge1_Node000001_Node000002" class="edge">
<title>Node1&#45;&gt;Node2</title>
<g id="a_edge1_Node000001_Node000002"><a xlink:title=" ">
<path fill="none" stroke="#63b8ff" d="M824.51,-162C816.49,-162 808.48,-162 800.75,-162"/>
<polygon fill="#63b8ff" stroke="#63b8ff" points="824.3,-165.5 834.3,-162 824.3,-158.5 824.3,-165.5"/>
</a>
</g>
</g>
<!-- Node3 -->
<g id="Node000003" class="node">
<title>Node3</title>
<g id="a_Node000003"><a xlink:href="structxml__allocator.html#af32c538db4d562c2d0bfe15f7c0aa879" target="_top" xlink:title=" ">
<polygon fill="white" stroke="#666666" points="640.25,-134 516.25,-134 516.25,-102 640.25,-102 640.25,-134"/>
<text xml:space="preserve" text-anchor="start" x="524.25" y="-120.5" font-family="Helvetica,sans-Serif" font-size="10.00">xml_allocator::deallocate</text>
<text xml:space="preserve" text-anchor="middle" x="578.25" y="-108.5" font-family="Helvetica,sans-Serif" font-size="10.00">_string</text>
</a>
</g>
</g>
<!-- Node2&#45;&gt;Node3 -->
<g id="edge2_Node000002_Node000003" class="edge">
<title>Node2&#45;&gt;Node3</title>
<g id="a_edge2_Node000002_Node000003"><a xlink:title=" ">
<path fill="none" stroke="#63b8ff" d="M667.55,-142.59C657.82,-139.88 647.9,-137.12 638.4,-134.47"/>
<polygon fill="#63b8ff" stroke="#63b8ff" points="666.39,-145.9 676.96,-145.21 668.26,-139.16 666.39,-145.9"/>
</a>
</g>
</g>
<!-- Node4 -->
<g id="Node000004" class="node">
<title>Node4</title>
<g id="a_Node000004"><a xlink:href="pugixml_8cpp.html#a451a69801ffa96a6389bb7d4c8099bd9" target="_top" xlink:title=" ">
<polygon fill="white" stroke="#666666" points="480.25,-172 391.5,-172 391.5,-152 480.25,-152 480.25,-172"/>
<text xml:space="preserve" text-anchor="middle" x="435.88" y="-158.5" font-family="Helvetica,sans-Serif" font-size="10.00">destroy_attribute</text>
</a>
</g>
</g>
<!-- Node2&#45;&gt;Node4 -->
<g id="edge17_Node000002_Node000004" class="edge">
<title>Node2&#45;&gt;Node4</title>
<g id="a_edge17_Node000002_Node000004"><a xlink:title=" ">
<path fill="none" stroke="#63b8ff" d="M664.89,-162C607.33,-162 528.71,-162 480.44,-162"/>
<polygon fill="#63b8ff" stroke="#63b8ff" points="664.59,-165.5 674.59,-162 664.59,-158.5 664.59,-165.5"/>
</a>
</g>
</g>
<!-- Node5 -->
<g id="Node000005" class="node">
<title>Node5</title>
<g id="a_Node000005"><a xlink:href="pugixml_8cpp.html#a00ae2c226db329ac858206e646251867" target="_top" xlink:title=" ">
<polygon fill="white" stroke="#666666" points="346.5,-172 272,-172 272,-152 346.5,-152 346.5,-172"/>
<text xml:space="preserve" text-anchor="middle" x="309.25" y="-158.5" font-family="Helvetica,sans-Serif" font-size="10.00">destroy_node</text>
</a>
</g>
</g>
<!-- Node2&#45;&gt;Node5 -->
<g id="edge18_Node000002_Node000005" class="edge">
<title>Node2&#45;&gt;Node5</title>
<g id="a_edge18_Node000002_Node000005"><a xlink:title=" ">
<path fill="none" stroke="#63b8ff" d="M664.52,-173.14C594.4,-182.19 485.41,-191.83 391.5,-181 376.68,-179.29 360.63,-175.88 346.74,-172.42"/>
<polygon fill="#63b8ff" stroke="#63b8ff" points="664.9,-176.62 674.35,-171.83 663.98,-169.68 664.9,-176.62"/>
</a>
</g>
</g>
<!-- Node3&#45;&gt;Node4 -->
<g id="edge3_Node000003_Node000004" class="edge">
<title>Node3&#45;&gt;Node4</title>
<g id="a_edge3_Node000003_Node000004"><a xlink:title=" ">
<path fill="none" stroke="#63b8ff" d="M514.04,-137.81C498.85,-142.57 483.23,-147.47 470.04,-151.6"/>
<polygon fill="#63b8ff" stroke="#63b8ff" points="515.04,-141.17 523.54,-134.84 512.95,-134.49 515.04,-141.17"/>
</a>
</g>
</g>
<!-- Node3&#45;&gt;Node5 -->
<g id="edge6_Node000003_Node000005" class="edge">
<title>Node3&#45;&gt;Node5</title>
<g id="a_edge6_Node000003_Node000005"><a xlink:title=" ">
<path fill="none" stroke="#63b8ff" d="M504.57,-126.14C470.17,-130.41 428.59,-136.18 391.5,-143 376.82,-145.7 360.81,-149.3 346.9,-152.64"/>
<polygon fill="#63b8ff" stroke="#63b8ff" points="504.94,-129.62 514.44,-124.94 504.09,-122.68 504.94,-129.62"/>
</a>
</g>
</g>
<!-- Node6 -->
<g id="Node000006" class="node">
<title>Node6</title>
<g id="a_Node000006"><a xlink:href="pugixml_8cpp.html#a6acbb945c483e413572aadd55a2c8712" target="_top" xlink:title=" ">
<polygon fill="white" stroke="#666666" points="471.62,-96 400.12,-96 400.12,-76 471.62,-76 471.62,-96"/>
<text xml:space="preserve" text-anchor="middle" x="435.88" y="-82.5" font-family="Helvetica,sans-Serif" font-size="10.00">strcpy_insitu</text>
</a>
</g>
</g>
<!-- Node3&#45;&gt;Node6 -->
<g id="edge7_Node000003_Node000006" class="edge">
<title>Node3&#45;&gt;Node6</title>
<g id="a_edge7_Node000003_Node000006"><a xlink:title=" ">
<path fill="none" stroke="#63b8ff" d="M505.08,-101.55C493.58,-98.93 482.14,-96.32 472.02,-94.01"/>
<polygon fill="#63b8ff" stroke="#63b8ff" points="504.08,-104.91 514.61,-103.72 505.64,-98.09 504.08,-104.91"/>
</a>
</g>
</g>
<!-- Node4&#45;&gt;Node5 -->
<g id="edge4_Node000004_Node000005" class="edge">
<title>Node4&#45;&gt;Node5</title>
<g id="a_edge4_Node000004_Node000005"><a xlink:title=" ">
<path fill="none" stroke="#63b8ff" d="M379.87,-162C368.74,-162 357.3,-162 346.99,-162"/>
<polygon fill="#63b8ff" stroke="#63b8ff" points="379.77,-165.5 389.77,-162 379.77,-158.5 379.77,-165.5"/>
</a>
</g>
</g>
<!-- Node5&#45;&gt;Node5 -->
<g id="edge5_Node000005_Node000005" class="edge">
<title>Node5&#45;&gt;Node5</title>
<g id="a_edge5_Node000005_Node000005"><a xlink:title=" ">
<path fill="none" stroke="#63b8ff" d="M331.63,-183.44C328.75,-187.3 321.29,-190 309.25,-190 287.24,-190 280.53,-180.98 289.13,-172.34"/>
<polygon fill="#63b8ff" stroke="#63b8ff" points="335.1,-182.92 329.67,-173.82 328.24,-184.32 335.1,-182.92"/>
</a>
</g>
</g>
<!-- Node7 -->
<g id="Node000007" class="node">
<title>Node7</title>
<g id="a_Node000007"><a xlink:href="pugixml_8cpp.html#aee4bcdb425d825a33564649ece0a4b31" target="_top" xlink:title=" ">
<polygon fill="white" stroke="#666666" points="355.5,-96 263,-96 263,-76 355.5,-76 355.5,-96"/>
<text xml:space="preserve" text-anchor="middle" x="309.25" y="-82.5" font-family="Helvetica,sans-Serif" font-size="10.00">node_copy_string</text>
</a>
</g>
</g>
<!-- Node6&#45;&gt;Node7 -->
<g id="edge8_Node000006_Node000007" class="edge">
<title>Node6&#45;&gt;Node7</title>
<g id="a_edge8_Node000006_Node000007"><a xlink:title=" ">
<path fill="none" stroke="#63b8ff" d="M388.53,-86C377.82,-86 366.42,-86 355.75,-86"/>
<polygon fill="#63b8ff" stroke="#63b8ff" points="388.31,-89.5 398.31,-86 388.31,-82.5 388.31,-89.5"/>
</a>
</g>
</g>
<!-- Node11 -->
<g id="Node000011" class="node">
<title>Node11</title>
<g id="a_Node000011"><a xlink:href="pugixml_8cpp.html#add59ae346f2993be95cf7b56903ec676" target="_top" xlink:title=" ">
<polygon fill="white" stroke="#666666" points="351,-58 267.5,-58 267.5,-38 351,-38 351,-58"/>
<text xml:space="preserve" text-anchor="middle" x="309.25" y="-44.5" font-family="Helvetica,sans-Serif" font-size="10.00">set_value_ascii</text>
</a>
</g>
</g>
<!-- Node6&#45;&gt;Node11 -->
<g id="edge12_Node000006_Node000011" class="edge">
<title>Node6&#45;&gt;Node11</title>
<g id="a_edge12_Node000006_Node000011"><a xlink:title=" ">
<path fill="none" stroke="#63b8ff" d="M389.91,-72.29C374.95,-67.73 358.54,-62.72 344.52,-58.45"/>
<polygon fill="#63b8ff" stroke="#63b8ff" points="388.46,-75.51 399.04,-75.07 390.5,-68.81 388.46,-75.51"/>
</a>
</g>
</g>
<!-- Node14 -->
<g id="Node000014" class="node">
<title>Node14</title>
<g id="a_Node000014"><a xlink:href="pugixml_8cpp.html#ad084c2ba3b0385b65a3c50b12146fa36" target="_top" xlink:title=" ">
<polygon fill="white" stroke="#666666" points="349.88,-20 268.62,-20 268.62,0 349.88,0 349.88,-20"/>
<text xml:space="preserve" text-anchor="middle" x="309.25" y="-6.5" font-family="Helvetica,sans-Serif" font-size="10.00">set_value_bool</text>
</a>
</g>
</g>
<!-- Node6&#45;&gt;Node14 -->
<g id="edge15_Node000006_Node000014" class="edge">
<title>Node6&#45;&gt;Node14</title>
<g id="a_edge15_Node000006_Node000014"><a xlink:title=" ">
<path fill="none" stroke="#63b8ff" d="M413.5,-68.63C398.01,-56.55 376.22,-40.59 355.5,-29 350,-25.92 343.9,-23.03 338,-20.49"/>
<polygon fill="#63b8ff" stroke="#63b8ff" points="411.08,-71.17 421.09,-74.64 415.42,-65.68 411.08,-71.17"/>
</a>
</g>
</g>
<!-- Node15 -->
<g id="Node000015" class="node">
<title>Node15</title>
<g id="a_Node000015"><a xlink:href="pugixml_8cpp.html#a4b9ba5312f3cfa08fba37205484fc91d" target="_top" xlink:title=" ">
<polygon fill="white" stroke="#666666" points="355.5,-134 263,-134 263,-114 355.5,-114 355.5,-134"/>
<text xml:space="preserve" text-anchor="middle" x="309.25" y="-120.5" font-family="Helvetica,sans-Serif" font-size="10.00">set_value_integer</text>
</a>
</g>
</g>
<!-- Node6&#45;&gt;Node15 -->
<g id="edge16_Node000006_Node000015" class="edge">
<title>Node6&#45;&gt;Node15</title>
<g id="a_edge16_Node000006_Node000015"><a xlink:title=" ">
<path fill="none" stroke="#63b8ff" d="M389.91,-99.71C374.95,-104.27 358.54,-109.28 344.52,-113.55"/>
<polygon fill="#63b8ff" stroke="#63b8ff" points="390.5,-103.19 399.04,-96.93 388.46,-96.49 390.5,-103.19"/>
</a>
</g>
</g>
<!-- Node8 -->
<g id="Node000008" class="node">
<title>Node8</title>
<g id="a_Node000008"><a xlink:href="pugixml_8cpp.html#aa393963791df0fe1b8bfe3829637bfbf" target="_top" xlink:title=" ">
<polygon fill="white" stroke="#666666" points="225.88,-134 122.12,-134 122.12,-114 225.88,-114 225.88,-134"/>
<text xml:space="preserve" text-anchor="middle" x="174" y="-120.5" font-family="Helvetica,sans-Serif" font-size="10.00">node_copy_attribute</text>
</a>
</g>
</g>
<!-- Node7&#45;&gt;Node8 -->
<g id="edge9_Node000007_Node000008" class="edge">
<title>Node7&#45;&gt;Node8</title>
<g id="a_edge9_Node000007_Node000008"><a xlink:title=" ">
<path fill="none" stroke="#63b8ff" d="M260.64,-99.58C244.52,-104.18 226.78,-109.23 211.64,-113.55"/>
<polygon fill="#63b8ff" stroke="#63b8ff" points="261.37,-103.01 270.03,-96.9 259.45,-96.28 261.37,-103.01"/>
</a>
</g>
</g>
<!-- Node9 -->
<g id="Node000009" class="node">
<title>Node9</title>
<g id="a_Node000009"><a xlink:href="pugixml_8cpp.html#a04264129af89281e0d73c01e7b4716bb" target="_top" xlink:title=" ">
<polygon fill="white" stroke="#666666" points="227,-96 121,-96 121,-76 227,-76 227,-96"/>
<text xml:space="preserve" text-anchor="middle" x="174" y="-82.5" font-family="Helvetica,sans-Serif" font-size="10.00">node_copy_contents</text>
</a>
</g>
</g>
<!-- Node7&#45;&gt;Node9 -->
<g id="edge10_Node000007_Node000009" class="edge">
<title>Node7&#45;&gt;Node9</title>
<g id="a_edge10_Node000007_Node000009"><a xlink:title=" ">
<path fill="none" stroke="#63b8ff" d="M251.52,-86C243.43,-86 235.15,-86 227.16,-86"/>
<polygon fill="#63b8ff" stroke="#63b8ff" points="251.25,-89.5 261.25,-86 251.25,-82.5 251.25,-89.5"/>
</a>
</g>
</g>
<!-- Node10 -->
<g id="Node000010" class="node">
<title>Node10</title>
<g id="a_Node000010"><a xlink:href="pugixml_8cpp.html#a14949165ebd41eaf762dce303c0118a9" target="_top" xlink:title=" ">
<polygon fill="white" stroke="#666666" points="85,-96 0,-96 0,-76 85,-76 85,-96"/>
<text xml:space="preserve" text-anchor="middle" x="42.5" y="-82.5" font-family="Helvetica,sans-Serif" font-size="10.00">node_copy_tree</text>
</a>
</g>
</g>
<!-- Node9&#45;&gt;Node10 -->
<g id="edge11_Node000009_Node000010" class="edge">
<title>Node9&#45;&gt;Node10</title>
<g id="a_edge11_Node000009_Node000010"><a xlink:title=" ">
<path fill="none" stroke="#63b8ff" d="M109.25,-86C101.1,-86 92.92,-86 85.25,-86"/>
<polygon fill="#63b8ff" stroke="#63b8ff" points="109.19,-89.5 119.19,-86 109.19,-82.5 109.19,-89.5"/>
</a>
</g>
</g>
<!-- Node12 -->
<g id="Node000012" class="node">
<title>Node12</title>
<g id="a_Node000012"><a xlink:href="pugixml_8cpp.html#a1c25c237dad556a4905806d70ed107f3" target="_top" xlink:title=" ">
<polygon fill="white" stroke="#666666" points="221.75,-58 126.25,-58 126.25,-38 221.75,-38 221.75,-58"/>
<text xml:space="preserve" text-anchor="middle" x="174" y="-44.5" font-family="Helvetica,sans-Serif" font-size="10.00">set_value_convert</text>
</a>
</g>
</g>
<!-- Node11&#45;&gt;Node12 -->
<g id="edge13_Node000011_Node000012" class="edge">
<title>Node11&#45;&gt;Node12</title>
<g id="a_edge13_Node000011_Node000012"><a xlink:title=" ">
<path fill="none" stroke="#63b8ff" d="M255.87,-48C244.77,-48 233.12,-48 222.23,-48"/>
<polygon fill="#63b8ff" stroke="#63b8ff" points="255.67,-51.5 265.67,-48 255.67,-44.5 255.67,-51.5"/>
</a>
</g>
</g>
<!-- Node13 -->
<g id="Node000013" class="node">
<title>Node13</title>
<g id="a_Node000013"><a xlink:href="pugixml_8cpp.html#a7548c736894a21eda85551af5f2bafed" target="_top" xlink:title=" ">
<polygon fill="white" stroke="#666666" points="221.75,-20 126.25,-20 126.25,0 221.75,0 221.75,-20"/>
<text xml:space="preserve" text-anchor="middle" x="174" y="-6.5" font-family="Helvetica,sans-Serif" font-size="10.00">set_value_convert</text>
</a>
</g>
</g>
<!-- Node11&#45;&gt;Node13 -->
<g id="edge14_Node000011_Node000013" class="edge">
<title>Node11&#45;&gt;Node13</title>
<g id="a_edge14_Node000011_Node000013"><a xlink:title=" ">
<path fill="none" stroke="#63b8ff" d="M260.64,-34.42C244.52,-29.82 226.78,-24.77 211.64,-20.45"/>
<polygon fill="#63b8ff" stroke="#63b8ff" points="259.45,-37.72 270.03,-37.1 261.37,-30.99 259.45,-37.72"/>
</a>
</g>
</g>
</g>
</svg>
