<?xml version="1.0" encoding="UTF-8" standalone="no"?>
<!DOCTYPE svg PUBLIC "-//W3C//DTD SVG 1.1//EN"
 "http://www.w3.org/Graphics/SVG/1.1/DTD/svg11.dtd">
<!-- Generated by graphviz version 14.1.2 (20260124.0452)
 -->
<!-- Title: utf8_writer::any Pages: 1 -->
<!--zoomable 240 -->

<svg id="main" version="1.1" xmlns="http://www.w3.org/2000/svg" xmlns:xlink="http://www.w3.org/1999/xlink" xml:space="preserve" onload="init(evt)">

<style type="text/css"><![CDATA[
.node, .edge {opacity: 0.7;}
.node.selected, .edge.selected {opacity: 1;}
.edge:hover path { stroke: red; }
.edge:hover polygon { stroke: red; fill: red; }
]]></style>

<defs>
  <circle id="rim" cx="0" cy="0" r="7"/>
  <circle id="rim2" cx="0" cy="0" r="3.5"/>
  <g id="zoomPlus">
    <use xlink:href="#rim" fill="#404040"><set attributeName="fill" to="#808080" begin="zoomplus.mouseover" end="zoomplus.mouseout"/></use>
    <path d="M-4,0h8M0,-4v8" fill="none" stroke="white" stroke-width="1.5" pointer-events="none"/>
  </g>
  <g id="zoomMin">
    <use xlink:href="#rim" fill="#404040"><set attributeName="fill" to="#808080" begin="zoomminus.mouseover" end="zoomminus.mouseout"/></use>
    <path d="M-4,0h8" fill="none" stroke="white" stroke-width="1.5" pointer-events="none"/>
  </g>
  <g id="arrowUp" transform="translate(30 24)">
    <use xlink:href="#rim"/>
    <path pointer-events="none" fill="none" stroke="white" stroke-width="1.5" d="M0,-3.0v7 M-2.5,-0.5L0,-3.0L2.5,-0.5"/>
  </g>
  <g id="arrowRight" transform="rotate(90) translate(36 -43)">
    <use xlink:href="#rim"/>
    <path pointer-events="none" fill="none" stroke="white" stroke-width="1.5" d="M0,-3.0v7 M-2.5,-0.5L0,-3.0L2.5,-0.5"/>
  </g>
  <g id="arrowDown" transform="rotate(180) translate(-30 -48)">
    <use xlink:href="#rim"/>
    <path pointer-events="none" fill="none" stroke="white" stroke-width="1.5" d="M0,-3.0v7 M-2.5,-0.5L0,-3.0L2.5,-0.5"/>
  </g>
  <g id="arrowLeft" transform="rotate(270) translate(-36 17)">
    <use xlink:href="#rim"/>
    <path pointer-events="none" fill="none" stroke="white" stroke-width="1.5" d="M0,-3.0v7 M-2.5,-0.5L0,-3.0L2.5,-0.5"/>
  </g>
  <g id="resetDef">
    <use xlink:href="#rim2" fill="#404040"><set attributeName="fill" to="#808080" begin="reset.mouseover" end="reset.mouseout"/></use>
  </g>
</defs>
<script type="application/ecmascript">
var viewWidth = 786;
var viewHeight = 240;
var sectionId = 'dynsection-1';
</script>
<script type="application/ecmascript" xlink:href="svg.min.js"/>
<svg id="graph" class="graph">
<g id="viewport">
<title>utf8_writer::any</title>
<!-- Node1 -->
<g id="Node000001" class="node">
<title>Node1</title>
<g id="a_Node000001"><a xlink:title=" ">
<polygon fill="#999999" stroke="#666666" points="777.75,-126 694.25,-126 694.25,-106 777.75,-106 777.75,-126"/>
<text xml:space="preserve" text-anchor="middle" x="736" y="-112.5" font-family="Helvetica,sans-Serif" font-size="10.00">utf8_writer::any</text>
</a>
</g>
</g>
<!-- Node2 -->
<g id="Node000002" class="node">
<title>Node2</title>
<g id="a_Node000002"><a xlink:href="pugixml_8cpp.html#a27b2a01a0bee31f8526055bdf590e42c" target="_top" xlink:title=" ">
<polygon fill="white" stroke="#666666" points="658.25,-126 573.25,-126 573.25,-106 658.25,-106 658.25,-126"/>
<text xml:space="preserve" text-anchor="middle" x="615.75" y="-112.5" font-family="Helvetica,sans-Serif" font-size="10.00">strconv_escape</text>
</a>
</g>
</g>
<!-- Node1&#45;&gt;Node2 -->
<g id="edge1_Node000001_Node000002" class="edge">
<title>Node1&#45;&gt;Node2</title>
<g id="a_edge1_Node000001_Node000002"><a xlink:title=" ">
<path fill="none" stroke="#63b8ff" d="M682.7,-116C674.6,-116 666.33,-116 658.51,-116"/>
<polygon fill="#63b8ff" stroke="#63b8ff" points="682.46,-119.5 692.46,-116 682.46,-112.5 682.46,-119.5"/>
</a>
</g>
</g>
<!-- Node3 -->
<g id="Node000003" class="node">
<title>Node3</title>
<g id="a_Node000003"><a xlink:href="structstrconv__pcdata__impl.html#a7f14166de54e30596aa4e398568b4a5f" target="_top" xlink:title=" ">
<polygon fill="white" stroke="#666666" points="534.25,-232 428.25,-232 428.25,-200 534.25,-200 534.25,-232"/>
<text xml:space="preserve" text-anchor="start" x="436.25" y="-218.5" font-family="Helvetica,sans-Serif" font-size="10.00">strconv_pcdata_impl</text>
<text xml:space="preserve" text-anchor="middle" x="481.25" y="-206.5" font-family="Helvetica,sans-Serif" font-size="10.00">::parse</text>
</a>
</g>
</g>
<!-- Node2&#45;&gt;Node3 -->
<g id="edge2_Node000002_Node000003" class="edge">
<title>Node2&#45;&gt;Node3</title>
<g id="a_edge2_Node000002_Node000003"><a xlink:title=" ">
<path fill="none" stroke="#63b8ff" d="M598.87,-134.64C584.16,-151.06 561.02,-174.82 537.25,-191 532.74,-194.07 527.8,-196.92 522.78,-199.52"/>
<polygon fill="#63b8ff" stroke="#63b8ff" points="601.17,-137.33 605.13,-127.51 595.9,-132.72 601.17,-137.33"/>
</a>
</g>
</g>
<!-- Node7 -->
<g id="Node000007" class="node">
<title>Node7</title>
<g id="a_Node000007"><a xlink:href="structstrconv__attribute__impl.html#a078a9b175b8c7a338d58431ec959a98c" target="_top" xlink:title=" ">
<polygon fill="white" stroke="#666666" points="537.25,-182 425.25,-182 425.25,-150 537.25,-150 537.25,-182"/>
<text xml:space="preserve" text-anchor="start" x="433.25" y="-168.5" font-family="Helvetica,sans-Serif" font-size="10.00">strconv_attribute_impl</text>
<text xml:space="preserve" text-anchor="middle" x="481.25" y="-156.5" font-family="Helvetica,sans-Serif" font-size="10.00">::parse_eol</text>
</a>
</g>
</g>
<!-- Node2&#45;&gt;Node7 -->
<g id="edge6_Node000002_Node000007" class="edge">
<title>Node2&#45;&gt;Node7</title>
<g id="a_edge6_Node000002_Node000007"><a xlink:title=" ">
<path fill="none" stroke="#63b8ff" d="M576.5,-130.44C560.67,-136.41 542.24,-143.36 525.9,-149.53"/>
<polygon fill="#63b8ff" stroke="#63b8ff" points="577.44,-133.82 585.56,-127.02 574.97,-127.27 577.44,-133.82"/>
</a>
</g>
</g>
<!-- Node9 -->
<g id="Node000009" class="node">
<title>Node9</title>
<g id="a_Node000009"><a xlink:href="structstrconv__attribute__impl.html#a56ce65fa313ef3bb4a95f5b03a959f7f" target="_top" xlink:title=" ">
<polygon fill="white" stroke="#666666" points="537.25,-132 425.25,-132 425.25,-100 537.25,-100 537.25,-132"/>
<text xml:space="preserve" text-anchor="start" x="433.25" y="-118.5" font-family="Helvetica,sans-Serif" font-size="10.00">strconv_attribute_impl</text>
<text xml:space="preserve" text-anchor="middle" x="481.25" y="-106.5" font-family="Helvetica,sans-Serif" font-size="10.00">::parse_simple</text>
</a>
</g>
</g>
<!-- Node2&#45;&gt;Node9 -->
<g id="edge9_Node000002_Node000009" class="edge">
<title>Node2&#45;&gt;Node9</title>
<g id="a_edge9_Node000002_Node000009"><a xlink:title=" ">
<path fill="none" stroke="#63b8ff" d="M561.49,-116C553.58,-116 545.42,-116 537.48,-116"/>
<polygon fill="#63b8ff" stroke="#63b8ff" points="561.31,-119.5 571.31,-116 561.31,-112.5 561.31,-119.5"/>
</a>
</g>
</g>
<!-- Node10 -->
<g id="Node000010" class="node">
<title>Node10</title>
<g id="a_Node000010"><a xlink:href="structstrconv__attribute__impl.html#abb4e88a853d1bc28af060f38f3f0f8d3" target="_top" xlink:title=" ">
<polygon fill="white" stroke="#666666" points="537.25,-82 425.25,-82 425.25,-50 537.25,-50 537.25,-82"/>
<text xml:space="preserve" text-anchor="start" x="433.25" y="-68.5" font-family="Helvetica,sans-Serif" font-size="10.00">strconv_attribute_impl</text>
<text xml:space="preserve" text-anchor="middle" x="481.25" y="-56.5" font-family="Helvetica,sans-Serif" font-size="10.00">::parse_wconv</text>
</a>
</g>
</g>
<!-- Node2&#45;&gt;Node10 -->
<g id="edge11_Node000002_Node000010" class="edge">
<title>Node2&#45;&gt;Node10</title>
<g id="a_edge11_Node000002_Node000010"><a xlink:title=" ">
<path fill="none" stroke="#63b8ff" d="M576.5,-101.56C560.67,-95.59 542.24,-88.64 525.9,-82.47"/>
<polygon fill="#63b8ff" stroke="#63b8ff" points="574.97,-104.73 585.56,-104.98 577.44,-98.18 574.97,-104.73"/>
</a>
</g>
</g>
<!-- Node11 -->
<g id="Node000011" class="node">
<title>Node11</title>
<g id="a_Node000011"><a xlink:href="structstrconv__attribute__impl.html#a9e45f050f2526ac299cbc5adf4de442b" target="_top" xlink:title=" ">
<polygon fill="white" stroke="#666666" points="537.25,-32 425.25,-32 425.25,0 537.25,0 537.25,-32"/>
<text xml:space="preserve" text-anchor="start" x="433.25" y="-18.5" font-family="Helvetica,sans-Serif" font-size="10.00">strconv_attribute_impl</text>
<text xml:space="preserve" text-anchor="middle" x="481.25" y="-6.5" font-family="Helvetica,sans-Serif" font-size="10.00">::parse_wnorm</text>
</a>
</g>
</g>
<!-- Node2&#45;&gt;Node11 -->
<g id="edge13_Node000002_Node000011" class="edge">
<title>Node2&#45;&gt;Node11</title>
<g id="a_edge13_Node000002_Node000011"><a xlink:title=" ">
<path fill="none" stroke="#63b8ff" d="M598.87,-97.36C584.16,-80.94 561.02,-57.18 537.25,-41 532.74,-37.93 527.8,-35.08 522.78,-32.48"/>
<polygon fill="#63b8ff" stroke="#63b8ff" points="595.9,-99.28 605.13,-104.49 601.17,-94.67 595.9,-99.28"/>
</a>
</g>
</g>
<!-- Node4 -->
<g id="Node000004" class="node">
<title>Node4</title>
<g id="a_Node000004"><a xlink:href="pugixml_8cpp.html#a52da3e542d6ab6e06855274825508ab1" target="_top" xlink:title=" ">
<polygon fill="white" stroke="#666666" points="386.25,-195 284.75,-195 284.75,-175 386.25,-175 386.25,-195"/>
<text xml:space="preserve" text-anchor="middle" x="335.5" y="-181.5" font-family="Helvetica,sans-Serif" font-size="10.00">get_strconv_pcdata</text>
</a>
</g>
</g>
<!-- Node3&#45;&gt;Node4 -->
<g id="edge3_Node000003_Node000004" class="edge">
<title>Node3&#45;&gt;Node4</title>
<g id="a_edge3_Node000003_Node000004"><a xlink:title=" ">
<path fill="none" stroke="#63b8ff" d="M416.97,-202.35C406.31,-200.05 395.39,-197.7 385.18,-195.5"/>
<polygon fill="#63b8ff" stroke="#63b8ff" points="415.95,-205.71 426.47,-204.4 417.43,-198.87 415.95,-205.71"/>
</a>
</g>
</g>
<!-- Node5 -->
<g id="Node000005" class="node">
<title>Node5</title>
<g id="a_Node000005"><a xlink:href="structxml__parser.html#a35bac90f1975aa1a9d5de4b60b761f16" target="_top" xlink:title=" ">
<polygon fill="white" stroke="#666666" points="245.75,-145 130,-145 130,-125 245.75,-125 245.75,-145"/>
<text xml:space="preserve" text-anchor="middle" x="187.88" y="-131.5" font-family="Helvetica,sans-Serif" font-size="10.00">xml_parser::parse_tree</text>
</a>
</g>
</g>
<!-- Node4&#45;&gt;Node5 -->
<g id="edge4_Node000004_Node000005" class="edge">
<title>Node4&#45;&gt;Node5</title>
<g id="a_edge4_Node000004_Node000005"><a xlink:title=" ">
<path fill="none" stroke="#63b8ff" d="M293.27,-170.84C269.76,-162.77 240.81,-152.83 219.36,-145.47"/>
<polygon fill="#63b8ff" stroke="#63b8ff" points="291.95,-174.09 302.54,-174.03 294.22,-167.47 291.95,-174.09"/>
</a>
</g>
</g>
<!-- Node6 -->
<g id="Node000006" class="node">
<title>Node6</title>
<g id="a_Node000006"><a xlink:href="structxml__parser.html#a4bf0acd166edf3fc6cc9543002ff6f5d" target="_top" xlink:title=" ">
<polygon fill="white" stroke="#666666" points="94,-145 0,-145 0,-125 94,-125 94,-145"/>
<text xml:space="preserve" text-anchor="middle" x="47" y="-131.5" font-family="Helvetica,sans-Serif" font-size="10.00">xml_parser::parse</text>
</a>
</g>
</g>
<!-- Node5&#45;&gt;Node6 -->
<g id="edge5_Node000005_Node000006" class="edge">
<title>Node5&#45;&gt;Node6</title>
<g id="a_edge5_Node000005_Node000006"><a xlink:title=" ">
<path fill="none" stroke="#63b8ff" d="M118.14,-135C110.01,-135 101.86,-135 94.14,-135"/>
<polygon fill="#63b8ff" stroke="#63b8ff" points="118.07,-138.5 128.07,-135 118.07,-131.5 118.07,-138.5"/>
</a>
</g>
</g>
<!-- Node8 -->
<g id="Node000008" class="node">
<title>Node8</title>
<g id="a_Node000008"><a xlink:href="pugixml_8cpp.html#ab206ad5e3a83ea8040ec039ea641c208" target="_top" xlink:title=" ">
<polygon fill="white" stroke="#666666" points="389.25,-126 281.75,-126 281.75,-106 389.25,-106 389.25,-126"/>
<text xml:space="preserve" text-anchor="middle" x="335.5" y="-112.5" font-family="Helvetica,sans-Serif" font-size="10.00">get_strconv_attribute</text>
</a>
</g>
</g>
<!-- Node7&#45;&gt;Node8 -->
<g id="edge7_Node000007_Node000008" class="edge">
<title>Node7&#45;&gt;Node8</title>
<g id="a_edge7_Node000007_Node000008"><a xlink:title=" ">
<path fill="none" stroke="#63b8ff" d="M422.41,-145.88C403.24,-139.21 382.69,-132.07 366.49,-126.43"/>
<polygon fill="#63b8ff" stroke="#63b8ff" points="421.16,-149.15 431.75,-149.13 423.46,-142.54 421.16,-149.15"/>
</a>
</g>
</g>
<!-- Node8&#45;&gt;Node5 -->
<g id="edge8_Node000008_Node000005" class="edge">
<title>Node8&#45;&gt;Node5</title>
<g id="a_edge8_Node000008_Node000005"><a xlink:title=" ">
<path fill="none" stroke="#63b8ff" d="M270.24,-124.38C262.17,-125.44 253.95,-126.51 246,-127.55"/>
<polygon fill="#63b8ff" stroke="#63b8ff" points="270.55,-127.87 280.01,-123.11 269.64,-120.93 270.55,-127.87"/>
</a>
</g>
</g>
<!-- Node9&#45;&gt;Node8 -->
<g id="edge10_Node000009_Node000008" class="edge">
<title>Node9&#45;&gt;Node8</title>
<g id="a_edge10_Node000009_Node000008"><a xlink:title=" ">
<path fill="none" stroke="#63b8ff" d="M413.67,-116C405.53,-116 397.29,-116 389.39,-116"/>
<polygon fill="#63b8ff" stroke="#63b8ff" points="413.57,-119.5 423.57,-116 413.57,-112.5 413.57,-119.5"/>
</a>
</g>
</g>
<!-- Node10&#45;&gt;Node8 -->
<g id="edge12_Node000010_Node000008" class="edge">
<title>Node10&#45;&gt;Node8</title>
<g id="a_edge12_Node000010_Node000008"><a xlink:title=" ">
<path fill="none" stroke="#63b8ff" d="M422.41,-86.12C403.24,-92.79 382.69,-99.93 366.49,-105.57"/>
<polygon fill="#63b8ff" stroke="#63b8ff" points="423.46,-89.46 431.75,-82.87 421.16,-82.85 423.46,-89.46"/>
</a>
</g>
</g>
<!-- Node11&#45;&gt;Node8 -->
<g id="edge14_Node000011_Node000008" class="edge">
<title>Node11&#45;&gt;Node8</title>
<g id="a_edge14_Node000011_Node000008"><a xlink:title=" ">
<path fill="none" stroke="#63b8ff" d="M430.79,-37.67C428.9,-38.75 427.04,-39.86 425.25,-41 394.22,-60.63 362.46,-90.26 346.68,-105.74"/>
<polygon fill="#63b8ff" stroke="#63b8ff" points="432,-40.99 439.16,-33.19 428.7,-34.82 432,-40.99"/>
</a>
</g>
</g>
</g>
</svg>

<g id="navigator" transform="translate(0 0)" fill="#404254">
  <rect fill="#f2f5e9" fill-opacity="0.5" stroke="#606060" stroke-width=".5" x="0" y="0" width="60" height="60"/>
  <use id="zoomplus" xlink:href="#zoomPlus" x="17" y="9" onmousedown="handleZoom(evt,'in')"/>
  <use id="zoomminus" xlink:href="#zoomMin" x="42" y="9" onmousedown="handleZoom(evt,'out')"/>
  <use id="reset" xlink:href="#resetDef" x="30" y="36" onmousedown="handleReset()"/>
   <use id="arrowup" xlink:href="#arrowUp" x="0" y="0" onmousedown="handlePan(0,-1)"/>
  <use id="arrowright" xlink:href="#arrowRight" x="0" y="0" onmousedown="handlePan(1,0)"/>
  <use id="arrowdown" xlink:href="#arrowDown" x="0" y="0" onmousedown="handlePan(0,1)"/>
  <use id="arrowleft" xlink:href="#arrowLeft" x="0" y="0" onmousedown="handlePan(-1,0)"/>
</g>
<svg viewBox="0 0 15 15" width="100%" height="30px" preserveAspectRatio="xMaxYMin meet">
 <g id="arrow_out" transform="scale(0.3 0.3)">
  <a xlink:href="structutf8__writer_a288e9c5f3720b95ae6b77330ad38dd56_icgraph_org.svg" target="_base">
   <rect id="button" ry="5" rx="5" y="6" x="6" height="38" width="38"
        fill="#f2f5e9" fill-opacity="0.5" stroke="#606060" stroke-width="1.0"/>
   <path id="arrow"
     d="M 11.500037,31.436501 C 11.940474,20.09759 22.043105,11.32322 32.158766,21.979434 L 37.068811,17.246167 C 37.068811,17.246167 37.088388,32 37.088388,32 L 22.160133,31.978069 C 22.160133,31.978069 26.997745,27.140456 26.997745,27.140456 C 18.528582,18.264221 13.291696,25.230495 11.500037,31.436501 z"
     style="fill:#404040;"/>
  </a>
 </g>
</svg>

<style type='text/css'>
<![CDATA[
[data-mouse-over-selected='false'] { opacity: 0.7; }
[data-mouse-over-selected='true']  { opacity: 1.0; }
]]>
</style>
<script type="application/ecmascript"><![CDATA[
document.addEventListener('DOMContentLoaded', (event) => {
  highlightEdges();
  highlightAdjacentNodes();
});
]]></script>
</svg>
