<?xml version="1.0" encoding="UTF-8" standalone="no"?>
<!DOCTYPE svg PUBLIC "-//W3C//DTD SVG 1.1//EN"
 "http://www.w3.org/Graphics/SVG/1.1/DTD/svg11.dtd">
<!-- Generated by graphviz version 14.1.2 (20260124.0452)
 -->
<!-- Title: xml_parser::parse_tree Pages: 1 -->
<svg width="1307pt" height="535pt"
 viewBox="0.00 0.00 1307.00 535.00" xmlns="http://www.w3.org/2000/svg" xmlns:xlink="http://www.w3.org/1999/xlink">
<g id="graph0" class="graph" transform="scale(1 1) rotate(0) translate(4 531)">
<title>xml_parser::parse_tree</title>
<!-- Node1 -->
<g id="Node000001" class="node">
<title>Node1</title>
<g id="a_Node000001"><a xlink:title=" ">
<polygon fill="#999999" stroke="#666666" points="115.75,-178 0,-178 0,-158 115.75,-158 115.75,-178"/>
<text xml:space="preserve" text-anchor="middle" x="57.88" y="-164.5" font-family="Helvetica,sans-Serif" font-size="10.00">xml_parser::parse_tree</text>
</a>
</g>
</g>
<!-- Node2 -->
<g id="Node000002" class="node">
<title>Node2</title>
<g id="a_Node000002"><a xlink:href="pugixml_8cpp.html#aa4d1cd18410ae2f5008f74bd5fc8a387" target="_top" xlink:title=" ">
<polygon fill="white" stroke="#666666" points="283.25,-464 172,-464 172,-444 283.25,-444 283.25,-464"/>
<text xml:space="preserve" text-anchor="middle" x="227.62" y="-450.5" font-family="Helvetica,sans-Serif" font-size="10.00">append_new_attribute</text>
</a>
</g>
</g>
<!-- Node1&#45;&gt;Node2 -->
<g id="edge1_Node000001_Node000002" class="edge">
<title>Node1&#45;&gt;Node2</title>
<g id="a_edge1_Node000001_Node000002"><a xlink:title=" ">
<path fill="none" stroke="#63b8ff" d="M64.85,-178.18C89.25,-219.79 181.69,-377.39 214.76,-433.78"/>
<polygon fill="#63b8ff" stroke="#63b8ff" points="211.71,-435.48 219.79,-442.34 217.74,-431.94 211.71,-435.48"/>
</a>
</g>
</g>
<!-- Node11 -->
<g id="Node000011" class="node">
<title>Node11</title>
<g id="a_Node000011"><a xlink:href="pugixml_8cpp.html#ab206ad5e3a83ea8040ec039ea641c208" target="_top" xlink:title=" ">
<polygon fill="white" stroke="#666666" points="281.38,-301 173.88,-301 173.88,-281 281.38,-281 281.38,-301"/>
<text xml:space="preserve" text-anchor="middle" x="227.62" y="-287.5" font-family="Helvetica,sans-Serif" font-size="10.00">get_strconv_attribute</text>
</a>
</g>
</g>
<!-- Node1&#45;&gt;Node11 -->
<g id="edge10_Node000001_Node000011" class="edge">
<title>Node1&#45;&gt;Node11</title>
<g id="a_edge10_Node000001_Node000011"><a xlink:title=" ">
<path fill="none" stroke="#63b8ff" d="M73.18,-178.49C102.15,-199.73 167.99,-248.01 203.27,-273.88"/>
<polygon fill="#63b8ff" stroke="#63b8ff" points="201,-276.55 211.14,-279.64 205.14,-270.91 201,-276.55"/>
</a>
</g>
</g>
<!-- Node22 -->
<g id="Node000022" class="node">
<title>Node22</title>
<g id="a_Node000022"><a xlink:href="pugixml_8cpp.html#a52da3e542d6ab6e06855274825508ab1" target="_top" xlink:title=" ">
<polygon fill="white" stroke="#666666" points="278.38,-198 176.88,-198 176.88,-178 278.38,-178 278.38,-198"/>
<text xml:space="preserve" text-anchor="middle" x="227.62" y="-184.5" font-family="Helvetica,sans-Serif" font-size="10.00">get_strconv_pcdata</text>
</a>
</g>
</g>
<!-- Node1&#45;&gt;Node22 -->
<g id="edge30_Node000001_Node000022" class="edge">
<title>Node1&#45;&gt;Node22</title>
<g id="a_edge30_Node000001_Node000022"><a xlink:title=" ">
<path fill="none" stroke="#63b8ff" d="M116.14,-174.83C131.95,-176.71 149.16,-178.76 165.2,-180.68"/>
<polygon fill="#63b8ff" stroke="#63b8ff" points="164.78,-184.15 175.13,-181.86 165.61,-177.2 164.78,-184.15"/>
</a>
</g>
</g>
<!-- Node24 -->
<g id="Node000024" class="node">
<title>Node24</title>
<g id="a_Node000024"><a xlink:href="structxml__parser.html#afc651baa774c379ad03244cac2e96015" target="_top" xlink:title=" ">
<polygon fill="white" stroke="#666666" points="303.5,-159 151.75,-159 151.75,-139 303.5,-139 303.5,-159"/>
<text xml:space="preserve" text-anchor="middle" x="227.62" y="-145.5" font-family="Helvetica,sans-Serif" font-size="10.00">xml_parser::parse_exclamation</text>
</a>
</g>
</g>
<!-- Node1&#45;&gt;Node24 -->
<g id="edge35_Node000001_Node000024" class="edge">
<title>Node1&#45;&gt;Node24</title>
<g id="a_edge35_Node000001_Node000024"><a xlink:title=" ">
<path fill="none" stroke="#63b8ff" d="M116.14,-161.51C123.97,-160.63 132.14,-159.7 140.35,-158.77"/>
<polygon fill="#63b8ff" stroke="#63b8ff" points="140.48,-162.28 150.02,-157.68 139.69,-155.32 140.48,-162.28"/>
</a>
</g>
</g>
<!-- Node30 -->
<g id="Node000030" class="node">
<title>Node30</title>
<g id="a_Node000030"><a xlink:href="structxml__parser.html#a8587d716d71121b4dfffdd1cc8e2145f" target="_top" xlink:title=" ">
<polygon fill="white" stroke="#666666" points="295.62,-121 159.62,-121 159.62,-101 295.62,-101 295.62,-121"/>
<text xml:space="preserve" text-anchor="middle" x="227.62" y="-107.5" font-family="Helvetica,sans-Serif" font-size="10.00">xml_parser::parse_question</text>
</a>
</g>
</g>
<!-- Node1&#45;&gt;Node30 -->
<g id="edge45_Node000001_Node000030" class="edge">
<title>Node1&#45;&gt;Node30</title>
<g id="a_edge45_Node000001_Node000030"><a xlink:title=" ">
<path fill="none" stroke="#63b8ff" d="M81.82,-157.56C100.41,-149.36 127.43,-138.02 151.75,-130 157.79,-128.01 164.16,-126.1 170.53,-124.32"/>
<polygon fill="#63b8ff" stroke="#63b8ff" points="170.99,-127.82 179.73,-121.84 169.17,-121.06 170.99,-127.82"/>
</a>
</g>
</g>
<!-- Node31 -->
<g id="Node000031" class="node">
<title>Node31</title>
<g id="a_Node000031"><a xlink:href="pugixml_8cpp.html#a775f7b78d2f13c1b72d69b114599461d" target="_top" xlink:title=" ">
<polygon fill="white" stroke="#666666" points="254.38,-83 200.88,-83 200.88,-63 254.38,-63 254.38,-83"/>
<text xml:space="preserve" text-anchor="middle" x="227.62" y="-69.5" font-family="Helvetica,sans-Serif" font-size="10.00">strlength</text>
</a>
</g>
</g>
<!-- Node1&#45;&gt;Node31 -->
<g id="edge46_Node000001_Node000031" class="edge">
<title>Node1&#45;&gt;Node31</title>
<g id="a_edge46_Node000001_Node000031"><a xlink:title=" ">
<path fill="none" stroke="#63b8ff" d="M68.4,-157.71C84.16,-141.32 117.34,-109.36 151.75,-92 163.48,-86.08 177.21,-81.91 189.68,-79.01"/>
<polygon fill="#63b8ff" stroke="#63b8ff" points="190.14,-82.5 199.2,-77.01 188.7,-75.64 190.14,-82.5"/>
</a>
</g>
</g>
<!-- Node3 -->
<g id="Node000003" class="node">
<title>Node3</title>
<g id="a_Node000003"><a xlink:href="pugixml_8cpp.html#a26ec349a881efb75dce214a92fd56842" target="_top" xlink:title=" ">
<polygon fill="white" stroke="#666666" points="451.5,-521 361.25,-521 361.25,-501 451.5,-501 451.5,-521"/>
<text xml:space="preserve" text-anchor="middle" x="406.38" y="-507.5" font-family="Helvetica,sans-Serif" font-size="10.00">allocate_attribute</text>
</a>
</g>
</g>
<!-- Node2&#45;&gt;Node3 -->
<g id="edge2_Node000002_Node000003" class="edge">
<title>Node2&#45;&gt;Node3</title>
<g id="a_edge2_Node000002_Node000003"><a xlink:title=" ">
<path fill="none" stroke="#63b8ff" d="M257.68,-464.4C279.97,-472.27 311.56,-483.19 339.5,-492 345.25,-493.81 351.3,-495.65 357.31,-497.43"/>
<polygon fill="#63b8ff" stroke="#63b8ff" points="355.97,-500.69 366.55,-500.14 357.94,-493.97 355.97,-500.69"/>
</a>
</g>
</g>
<!-- Node9 -->
<g id="Node000009" class="node">
<title>Node9</title>
<g id="a_Node000009"><a xlink:href="pugixml_8cpp.html#ad64fdacadf33c8b534a9cd220f1aa966" target="_top" xlink:title=" ">
<polygon fill="white" stroke="#666666" points="450.38,-483 362.38,-483 362.38,-463 450.38,-463 450.38,-483"/>
<text xml:space="preserve" text-anchor="middle" x="406.38" y="-469.5" font-family="Helvetica,sans-Serif" font-size="10.00">append_attribute</text>
</a>
</g>
</g>
<!-- Node2&#45;&gt;Node9 -->
<g id="edge8_Node000002_Node000009" class="edge">
<title>Node2&#45;&gt;Node9</title>
<g id="a_edge8_Node000002_Node000009"><a xlink:title=" ">
<path fill="none" stroke="#63b8ff" d="M283.58,-459.91C304.97,-462.21 329.42,-464.84 350.78,-467.13"/>
<polygon fill="#63b8ff" stroke="#63b8ff" points="350.13,-470.58 360.45,-468.17 350.88,-463.62 350.13,-470.58"/>
</a>
</g>
</g>
<!-- Node10 -->
<g id="Node000010" class="node">
<title>Node10</title>
<g id="a_Node000010"><a xlink:href="structxml__allocator.html#ac831a283ec3bcbe22fd3ce3be98ec347" target="_top" xlink:title=" ">
<polygon fill="white" stroke="#666666" points="462.38,-445 350.38,-445 350.38,-425 462.38,-425 462.38,-445"/>
<text xml:space="preserve" text-anchor="middle" x="406.38" y="-431.5" font-family="Helvetica,sans-Serif" font-size="10.00">xml_allocator::reserve</text>
</a>
</g>
</g>
<!-- Node2&#45;&gt;Node10 -->
<g id="edge9_Node000002_Node000010" class="edge">
<title>Node2&#45;&gt;Node10</title>
<g id="a_edge9_Node000002_Node000010"><a xlink:title=" ">
<path fill="none" stroke="#63b8ff" d="M283.58,-448.09C301.04,-446.22 320.53,-444.12 338.72,-442.16"/>
<polygon fill="#63b8ff" stroke="#63b8ff" points="339.08,-445.65 348.64,-441.1 338.33,-438.69 339.08,-445.65"/>
</a>
</g>
</g>
<!-- Node4 -->
<g id="Node000004" class="node">
<title>Node4</title>
<g id="a_Node000004"><a xlink:href="structxml__allocator.html#a103dfdec5c72cb955e2a97a61fdc9af1" target="_top" xlink:title=" ">
<polygon fill="white" stroke="#666666" points="632.88,-527 519.38,-527 519.38,-495 632.88,-495 632.88,-527"/>
<text xml:space="preserve" text-anchor="start" x="527.38" y="-513.5" font-family="Helvetica,sans-Serif" font-size="10.00">xml_allocator::allocate</text>
<text xml:space="preserve" text-anchor="middle" x="576.12" y="-501.5" font-family="Helvetica,sans-Serif" font-size="10.00">_object</text>
</a>
</g>
</g>
<!-- Node3&#45;&gt;Node4 -->
<g id="edge3_Node000003_Node000004" class="edge">
<title>Node3&#45;&gt;Node4</title>
<g id="a_edge3_Node000003_Node000004"><a xlink:title=" ">
<path fill="none" stroke="#63b8ff" d="M451.89,-511C468.93,-511 488.77,-511 507.49,-511"/>
<polygon fill="#63b8ff" stroke="#63b8ff" points="507.46,-514.5 517.46,-511 507.46,-507.5 507.46,-514.5"/>
</a>
</g>
</g>
<!-- Node5 -->
<g id="Node000005" class="node">
<title>Node5</title>
<g id="a_Node000005"><a xlink:href="structxml__allocator.html#a02a8725611785568ceae7a0eea3eca76" target="_top" xlink:title=" ">
<polygon fill="white" stroke="#666666" points="792.5,-527 679,-527 679,-495 792.5,-495 792.5,-527"/>
<text xml:space="preserve" text-anchor="start" x="687" y="-513.5" font-family="Helvetica,sans-Serif" font-size="10.00">xml_allocator::allocate</text>
<text xml:space="preserve" text-anchor="middle" x="735.75" y="-501.5" font-family="Helvetica,sans-Serif" font-size="10.00">_memory</text>
</a>
</g>
</g>
<!-- Node4&#45;&gt;Node5 -->
<g id="edge4_Node000004_Node000005" class="edge">
<title>Node4&#45;&gt;Node5</title>
<g id="a_edge4_Node000004_Node000005"><a xlink:title=" ">
<path fill="none" stroke="#63b8ff" d="M633.14,-511C644.22,-511 655.97,-511 667.38,-511"/>
<polygon fill="#63b8ff" stroke="#63b8ff" points="667.13,-514.5 677.13,-511 667.13,-507.5 667.13,-514.5"/>
</a>
</g>
</g>
<!-- Node6 -->
<g id="Node000006" class="node">
<title>Node6</title>
<g id="a_Node000006"><a xlink:href="structxml__allocator.html#ae010e1cb3ad4e8f1235ad94ea4c542ee" target="_top" xlink:title=" ">
<polygon fill="white" stroke="#666666" points="942,-527 828.5,-527 828.5,-495 942,-495 942,-527"/>
<text xml:space="preserve" text-anchor="start" x="836.5" y="-513.5" font-family="Helvetica,sans-Serif" font-size="10.00">xml_allocator::allocate</text>
<text xml:space="preserve" text-anchor="middle" x="885.25" y="-501.5" font-family="Helvetica,sans-Serif" font-size="10.00">_memory_oob</text>
</a>
</g>
</g>
<!-- Node5&#45;&gt;Node6 -->
<g id="edge5_Node000005_Node000006" class="edge">
<title>Node5&#45;&gt;Node6</title>
<g id="a_edge5_Node000005_Node000006"><a xlink:title=" ">
<path fill="none" stroke="#63b8ff" d="M792.93,-511C800.79,-511 808.93,-511 816.97,-511"/>
<polygon fill="#63b8ff" stroke="#63b8ff" points="816.71,-514.5 826.71,-511 816.71,-507.5 816.71,-514.5"/>
</a>
</g>
</g>
<!-- Node7 -->
<g id="Node000007" class="node">
<title>Node7</title>
<g id="a_Node000007"><a xlink:href="structxml__allocator.html#ad07a6aa6876c8c5a5536d409c01d88e5" target="_top" xlink:title=" ">
<polygon fill="white" stroke="#666666" points="1117.75,-521 978,-521 978,-501 1117.75,-501 1117.75,-521"/>
<text xml:space="preserve" text-anchor="middle" x="1047.88" y="-507.5" font-family="Helvetica,sans-Serif" font-size="10.00">xml_allocator::allocate_page</text>
</a>
</g>
</g>
<!-- Node6&#45;&gt;Node7 -->
<g id="edge6_Node000006_Node000007" class="edge">
<title>Node6&#45;&gt;Node7</title>
<g id="a_edge6_Node000006_Node000007"><a xlink:title=" ">
<path fill="none" stroke="#63b8ff" d="M942.43,-511C950.18,-511 958.25,-511 966.34,-511"/>
<polygon fill="#63b8ff" stroke="#63b8ff" points="966.22,-514.5 976.22,-511 966.22,-507.5 966.22,-514.5"/>
</a>
</g>
</g>
<!-- Node8 -->
<g id="Node000008" class="node">
<title>Node8</title>
<g id="a_Node000008"><a xlink:href="structxml__memory__page.html#a071bb9cc9aeccef1655c1336b16472a5" target="_top" xlink:title=" ">
<polygon fill="white" stroke="#666666" points="1298.75,-521 1153.75,-521 1153.75,-501 1298.75,-501 1298.75,-521"/>
<text xml:space="preserve" text-anchor="middle" x="1226.25" y="-507.5" font-family="Helvetica,sans-Serif" font-size="10.00">xml_memory_page::construct</text>
</a>
</g>
</g>
<!-- Node7&#45;&gt;Node8 -->
<g id="edge7_Node000007_Node000008" class="edge">
<title>Node7&#45;&gt;Node8</title>
<g id="a_edge7_Node000007_Node000008"><a xlink:title=" ">
<path fill="none" stroke="#63b8ff" d="M1118.08,-511C1125.95,-511 1134.03,-511 1142.06,-511"/>
<polygon fill="#63b8ff" stroke="#63b8ff" points="1141.83,-514.5 1151.83,-511 1141.83,-507.5 1141.83,-514.5"/>
</a>
</g>
</g>
<!-- Node12 -->
<g id="Node000012" class="node">
<title>Node12</title>
<g id="a_Node000012"><a xlink:href="structstrconv__attribute__impl.html#a078a9b175b8c7a338d58431ec959a98c" target="_top" xlink:title=" ">
<polygon fill="white" stroke="#666666" points="462.38,-307 350.38,-307 350.38,-275 462.38,-275 462.38,-307"/>
<text xml:space="preserve" text-anchor="start" x="358.38" y="-293.5" font-family="Helvetica,sans-Serif" font-size="10.00">strconv_attribute_impl</text>
<text xml:space="preserve" text-anchor="middle" x="406.38" y="-281.5" font-family="Helvetica,sans-Serif" font-size="10.00">::parse_eol</text>
</a>
</g>
</g>
<!-- Node11&#45;&gt;Node12 -->
<g id="edge11_Node000011_Node000012" class="edge">
<title>Node11&#45;&gt;Node12</title>
<g id="a_edge11_Node000011_Node000012"><a xlink:title=" ">
<path fill="none" stroke="#63b8ff" d="M281.66,-291C299.51,-291 319.66,-291 338.44,-291"/>
<polygon fill="#63b8ff" stroke="#63b8ff" points="338.41,-294.5 348.41,-291 338.41,-287.5 338.41,-294.5"/>
</a>
</g>
</g>
<!-- Node19 -->
<g id="Node000019" class="node">
<title>Node19</title>
<g id="a_Node000019"><a xlink:href="structstrconv__attribute__impl.html#a56ce65fa313ef3bb4a95f5b03a959f7f" target="_top" xlink:title=" ">
<polygon fill="white" stroke="#666666" points="462.38,-257 350.38,-257 350.38,-225 462.38,-225 462.38,-257"/>
<text xml:space="preserve" text-anchor="start" x="358.38" y="-243.5" font-family="Helvetica,sans-Serif" font-size="10.00">strconv_attribute_impl</text>
<text xml:space="preserve" text-anchor="middle" x="406.38" y="-231.5" font-family="Helvetica,sans-Serif" font-size="10.00">::parse_simple</text>
</a>
</g>
</g>
<!-- Node11&#45;&gt;Node19 -->
<g id="edge19_Node000011_Node000019" class="edge">
<title>Node11&#45;&gt;Node19</title>
<g id="a_edge19_Node000011_Node000019"><a xlink:title=" ">
<path fill="none" stroke="#63b8ff" d="M265.68,-280.52C286.93,-274.51 314.24,-266.78 339.07,-259.76"/>
<polygon fill="#63b8ff" stroke="#63b8ff" points="339.77,-263.2 348.44,-257.11 337.87,-256.46 339.77,-263.2"/>
</a>
</g>
</g>
<!-- Node20 -->
<g id="Node000020" class="node">
<title>Node20</title>
<g id="a_Node000020"><a xlink:href="structstrconv__attribute__impl.html#abb4e88a853d1bc28af060f38f3f0f8d3" target="_top" xlink:title=" ">
<polygon fill="white" stroke="#666666" points="462.38,-407 350.38,-407 350.38,-375 462.38,-375 462.38,-407"/>
<text xml:space="preserve" text-anchor="start" x="358.38" y="-393.5" font-family="Helvetica,sans-Serif" font-size="10.00">strconv_attribute_impl</text>
<text xml:space="preserve" text-anchor="middle" x="406.38" y="-381.5" font-family="Helvetica,sans-Serif" font-size="10.00">::parse_wconv</text>
</a>
</g>
</g>
<!-- Node11&#45;&gt;Node20 -->
<g id="edge22_Node000011_Node000020" class="edge">
<title>Node11&#45;&gt;Node20</title>
<g id="a_edge22_Node000011_Node000020"><a xlink:title=" ">
<path fill="none" stroke="#63b8ff" d="M241.65,-301.29C261.76,-316.83 301.96,-346.52 339.5,-366 342.16,-367.38 344.91,-368.72 347.71,-370.02"/>
<polygon fill="#63b8ff" stroke="#63b8ff" points="346.06,-373.12 356.62,-373.94 348.88,-366.71 346.06,-373.12"/>
</a>
</g>
</g>
<!-- Node21 -->
<g id="Node000021" class="node">
<title>Node21</title>
<g id="a_Node000021"><a xlink:href="structstrconv__attribute__impl.html#a9e45f050f2526ac299cbc5adf4de442b" target="_top" xlink:title=" ">
<polygon fill="white" stroke="#666666" points="462.38,-357 350.38,-357 350.38,-325 462.38,-325 462.38,-357"/>
<text xml:space="preserve" text-anchor="start" x="358.38" y="-343.5" font-family="Helvetica,sans-Serif" font-size="10.00">strconv_attribute_impl</text>
<text xml:space="preserve" text-anchor="middle" x="406.38" y="-331.5" font-family="Helvetica,sans-Serif" font-size="10.00">::parse_wnorm</text>
</a>
</g>
</g>
<!-- Node11&#45;&gt;Node21 -->
<g id="edge26_Node000011_Node000021" class="edge">
<title>Node11&#45;&gt;Node21</title>
<g id="a_edge26_Node000011_Node000021"><a xlink:title=" ">
<path fill="none" stroke="#63b8ff" d="M265.68,-301.48C286.93,-307.49 314.24,-315.22 339.07,-322.24"/>
<polygon fill="#63b8ff" stroke="#63b8ff" points="337.87,-325.54 348.44,-324.89 339.77,-318.8 337.87,-325.54"/>
</a>
</g>
</g>
<!-- Node13 -->
<g id="Node000013" class="node">
<title>Node13</title>
<g id="a_Node000013"><a xlink:href="structgap.html#a7d5e84d56dbeef1310977fe1ecec5ded" target="_top" xlink:title=" ">
<polygon fill="white" stroke="#666666" points="605.5,-239 546.75,-239 546.75,-219 605.5,-219 605.5,-239"/>
<text xml:space="preserve" text-anchor="middle" x="576.12" y="-225.5" font-family="Helvetica,sans-Serif" font-size="10.00">gap::flush</text>
</a>
</g>
</g>
<!-- Node12&#45;&gt;Node13 -->
<g id="edge12_Node000012_Node000013" class="edge">
<title>Node12&#45;&gt;Node13</title>
<g id="a_edge12_Node000012_Node000013"><a xlink:title=" ">
<path fill="none" stroke="#63b8ff" d="M451.22,-274.56C469.2,-267.84 490.21,-260.02 509.25,-253 517.84,-249.83 527.07,-246.45 535.83,-243.26"/>
<polygon fill="#63b8ff" stroke="#63b8ff" points="536.95,-246.58 545.15,-239.87 534.56,-240 536.95,-246.58"/>
</a>
</g>
</g>
<!-- Node14 -->
<g id="Node000014" class="node">
<title>Node14</title>
<g id="a_Node000014"><a xlink:href="structgap.html#a9c0d0b12bc778c8439c8aec7747ab2b0" target="_top" xlink:title=" ">
<polygon fill="white" stroke="#666666" points="765.12,-277 706.38,-277 706.38,-257 765.12,-257 765.12,-277"/>
<text xml:space="preserve" text-anchor="middle" x="735.75" y="-263.5" font-family="Helvetica,sans-Serif" font-size="10.00">gap::push</text>
</a>
</g>
</g>
<!-- Node12&#45;&gt;Node14 -->
<g id="edge13_Node000012_Node000014" class="edge">
<title>Node12&#45;&gt;Node14</title>
<g id="a_edge13_Node000012_Node000014"><a xlink:title=" ">
<path fill="none" stroke="#63b8ff" d="M462.54,-286.96C528.34,-282.13 636.74,-274.19 694.91,-269.92"/>
<polygon fill="#63b8ff" stroke="#63b8ff" points="694.96,-273.43 704.68,-269.2 694.45,-266.45 694.96,-273.43"/>
</a>
</g>
</g>
<!-- Node15 -->
<g id="Node000015" class="node">
<title>Node15</title>
<g id="a_Node000015"><a xlink:href="pugixml_8cpp.html#a27b2a01a0bee31f8526055bdf590e42c" target="_top" xlink:title=" ">
<polygon fill="white" stroke="#666666" points="618.62,-315 533.62,-315 533.62,-295 618.62,-295 618.62,-315"/>
<text xml:space="preserve" text-anchor="middle" x="576.12" y="-301.5" font-family="Helvetica,sans-Serif" font-size="10.00">strconv_escape</text>
</a>
</g>
</g>
<!-- Node12&#45;&gt;Node15 -->
<g id="edge14_Node000012_Node000015" class="edge">
<title>Node12&#45;&gt;Node15</title>
<g id="a_edge14_Node000012_Node000015"><a xlink:title=" ">
<path fill="none" stroke="#63b8ff" d="M462.77,-295.62C481.81,-297.21 503.08,-298.99 521.95,-300.56"/>
<polygon fill="#63b8ff" stroke="#63b8ff" points="521.58,-304.04 531.84,-301.39 522.16,-297.07 521.58,-304.04"/>
</a>
</g>
</g>
<!-- Node15&#45;&gt;Node14 -->
<g id="edge18_Node000015_Node000014" class="edge">
<title>Node15&#45;&gt;Node14</title>
<g id="a_edge18_Node000015_Node000014"><a xlink:title=" ">
<path fill="none" stroke="#63b8ff" d="M618.95,-294.92C642.51,-289.24 671.78,-282.18 695,-276.58"/>
<polygon fill="#63b8ff" stroke="#63b8ff" points="695.82,-279.99 704.72,-274.24 694.18,-273.18 695.82,-279.99"/>
</a>
</g>
</g>
<!-- Node16 -->
<g id="Node000016" class="node">
<title>Node16</title>
<g id="a_Node000016"><a xlink:href="structutf8__writer.html#a288e9c5f3720b95ae6b77330ad38dd56" target="_top" xlink:title=" ">
<polygon fill="white" stroke="#666666" points="777.5,-315 694,-315 694,-295 777.5,-295 777.5,-315"/>
<text xml:space="preserve" text-anchor="middle" x="735.75" y="-301.5" font-family="Helvetica,sans-Serif" font-size="10.00">utf8_writer::any</text>
</a>
</g>
</g>
<!-- Node15&#45;&gt;Node16 -->
<g id="edge15_Node000015_Node000016" class="edge">
<title>Node15&#45;&gt;Node16</title>
<g id="a_edge15_Node000015_Node000016"><a xlink:title=" ">
<path fill="none" stroke="#63b8ff" d="M618.95,-305C638.33,-305 661.57,-305 682.13,-305"/>
<polygon fill="#63b8ff" stroke="#63b8ff" points="682.03,-308.5 692.03,-305 682.03,-301.5 682.03,-308.5"/>
</a>
</g>
</g>
<!-- Node17 -->
<g id="Node000017" class="node">
<title>Node17</title>
<g id="a_Node000017"><a xlink:href="structutf8__writer.html#ac03dfaf797d599afdf0be7def86ff9b9" target="_top" xlink:title=" ">
<polygon fill="white" stroke="#666666" points="928.12,-296 842.38,-296 842.38,-276 928.12,-276 928.12,-296"/>
<text xml:space="preserve" text-anchor="middle" x="885.25" y="-282.5" font-family="Helvetica,sans-Serif" font-size="10.00">utf8_writer::high</text>
</a>
</g>
</g>
<!-- Node16&#45;&gt;Node17 -->
<g id="edge16_Node000016_Node000017" class="edge">
<title>Node16&#45;&gt;Node17</title>
<g id="a_edge16_Node000016_Node000017"><a xlink:title=" ">
<path fill="none" stroke="#63b8ff" d="M777.84,-299.71C794.27,-297.59 813.41,-295.12 830.9,-292.87"/>
<polygon fill="#63b8ff" stroke="#63b8ff" points="831.13,-296.37 840.6,-291.62 830.23,-289.43 831.13,-296.37"/>
</a>
</g>
</g>
<!-- Node18 -->
<g id="Node000018" class="node">
<title>Node18</title>
<g id="a_Node000018"><a xlink:href="structutf8__writer.html#ac4ec52da6f37225ba4fde259bff2f86c" target="_top" xlink:title=" ">
<polygon fill="white" stroke="#666666" points="926.62,-334 843.88,-334 843.88,-314 926.62,-314 926.62,-334"/>
<text xml:space="preserve" text-anchor="middle" x="885.25" y="-320.5" font-family="Helvetica,sans-Serif" font-size="10.00">utf8_writer::low</text>
</a>
</g>
</g>
<!-- Node16&#45;&gt;Node18 -->
<g id="edge17_Node000016_Node000018" class="edge">
<title>Node16&#45;&gt;Node18</title>
<g id="a_edge17_Node000016_Node000018"><a xlink:title=" ">
<path fill="none" stroke="#63b8ff" d="M777.84,-310.29C794.62,-312.45 814.23,-314.98 832.01,-317.27"/>
<polygon fill="#63b8ff" stroke="#63b8ff" points="831.52,-320.74 841.88,-318.54 832.41,-313.79 831.52,-320.74"/>
</a>
</g>
</g>
<!-- Node19&#45;&gt;Node13 -->
<g id="edge20_Node000019_Node000013" class="edge">
<title>Node19&#45;&gt;Node13</title>
<g id="a_edge20_Node000019_Node000013"><a xlink:title=" ">
<path fill="none" stroke="#63b8ff" d="M462.77,-237.04C486.44,-235.34 513.55,-233.4 535.21,-231.86"/>
<polygon fill="#63b8ff" stroke="#63b8ff" points="535.39,-235.35 545.11,-231.15 534.89,-228.37 535.39,-235.35"/>
</a>
</g>
</g>
<!-- Node19&#45;&gt;Node15 -->
<g id="edge21_Node000019_Node000015" class="edge">
<title>Node19&#45;&gt;Node15</title>
<g id="a_edge21_Node000019_Node000015"><a xlink:title=" ">
<path fill="none" stroke="#63b8ff" d="M450.61,-257.39C458.16,-260.25 465.93,-263.21 473.25,-266 494.4,-274.06 518.02,-283.1 537.18,-290.44"/>
<polygon fill="#63b8ff" stroke="#63b8ff" points="535.89,-293.7 546.48,-294.01 538.39,-287.16 535.89,-293.7"/>
</a>
</g>
</g>
<!-- Node20&#45;&gt;Node13 -->
<g id="edge23_Node000020_Node000013" class="edge">
<title>Node20&#45;&gt;Node13</title>
<g id="a_edge23_Node000020_Node000013"><a xlink:title=" ">
<path fill="none" stroke="#63b8ff" d="M461.64,-374.61C465.83,-372.12 469.78,-369.27 473.25,-366 501.64,-339.27 485.96,-317.27 509.25,-286 520.66,-270.68 536.85,-256.6 550.33,-246.26"/>
<polygon fill="#63b8ff" stroke="#63b8ff" points="552.38,-249.1 558.34,-240.34 548.22,-243.47 552.38,-249.1"/>
</a>
</g>
</g>
<!-- Node20&#45;&gt;Node14 -->
<g id="edge24_Node000020_Node000014" class="edge">
<title>Node20&#45;&gt;Node14</title>
<g id="a_edge24_Node000020_Node000014"><a xlink:title=" ">
<path fill="none" stroke="#63b8ff" d="M462.48,-394.59C513.76,-395.14 590.02,-388.55 643,-351 669.94,-331.9 653.67,-307.19 679,-286 683.8,-281.98 689.5,-278.8 695.39,-276.28"/>
<polygon fill="#63b8ff" stroke="#63b8ff" points="696.4,-279.64 704.61,-272.94 694.02,-273.05 696.4,-279.64"/>
</a>
</g>
</g>
<!-- Node20&#45;&gt;Node15 -->
<g id="edge25_Node000020_Node000015" class="edge">
<title>Node20&#45;&gt;Node15</title>
<g id="a_edge25_Node000020_Node000015"><a xlink:title=" ">
<path fill="none" stroke="#63b8ff" d="M453.88,-374.53C460.47,-371.86 467.09,-368.99 473.25,-366 500.55,-352.78 530.12,-334.6 550.34,-321.54"/>
<polygon fill="#63b8ff" stroke="#63b8ff" points="552,-324.63 558.46,-316.23 548.17,-318.77 552,-324.63"/>
</a>
</g>
</g>
<!-- Node21&#45;&gt;Node13 -->
<g id="edge27_Node000021_Node000013" class="edge">
<title>Node21&#45;&gt;Node13</title>
<g id="a_edge27_Node000021_Node000013"><a xlink:title=" ">
<path fill="none" stroke="#63b8ff" d="M456.47,-324.54C462.27,-321.97 467.99,-319.12 473.25,-316 477.76,-313.33 526.54,-271.19 554.93,-246.55"/>
<polygon fill="#63b8ff" stroke="#63b8ff" points="556.95,-249.43 562.21,-240.23 552.36,-244.15 556.95,-249.43"/>
</a>
</g>
</g>
<!-- Node21&#45;&gt;Node14 -->
<g id="edge28_Node000021_Node000014" class="edge">
<title>Node21&#45;&gt;Node14</title>
<g id="a_edge28_Node000021_Node000014"><a xlink:title=" ">
<path fill="none" stroke="#63b8ff" d="M462.6,-347.93C512.24,-351.69 585.92,-351.03 643,-324 664.03,-314.04 659.42,-298.56 679,-286 683.98,-282.8 689.56,-280.08 695.21,-277.78"/>
<polygon fill="#63b8ff" stroke="#63b8ff" points="696.4,-281.08 704.61,-274.38 694.02,-274.49 696.4,-281.08"/>
</a>
</g>
</g>
<!-- Node21&#45;&gt;Node15 -->
<g id="edge29_Node000021_Node000015" class="edge">
<title>Node21&#45;&gt;Node15</title>
<g id="a_edge29_Node000021_Node000015"><a xlink:title=" ">
<path fill="none" stroke="#63b8ff" d="M462.77,-329.11C481.9,-325.01 503.28,-320.42 522.22,-316.35"/>
<polygon fill="#63b8ff" stroke="#63b8ff" points="522.82,-319.8 531.86,-314.28 521.35,-312.96 522.82,-319.8"/>
</a>
</g>
</g>
<!-- Node23 -->
<g id="Node000023" class="node">
<title>Node23</title>
<g id="a_Node000023"><a xlink:href="structstrconv__pcdata__impl.html#a7f14166de54e30596aa4e398568b4a5f" target="_top" xlink:title=" ">
<polygon fill="white" stroke="#666666" points="459.38,-207 353.38,-207 353.38,-175 459.38,-175 459.38,-207"/>
<text xml:space="preserve" text-anchor="start" x="361.38" y="-193.5" font-family="Helvetica,sans-Serif" font-size="10.00">strconv_pcdata_impl</text>
<text xml:space="preserve" text-anchor="middle" x="406.38" y="-181.5" font-family="Helvetica,sans-Serif" font-size="10.00">::parse</text>
</a>
</g>
</g>
<!-- Node22&#45;&gt;Node23 -->
<g id="edge31_Node000022_Node000023" class="edge">
<title>Node22&#45;&gt;Node23</title>
<g id="a_edge31_Node000022_Node000023"><a xlink:title=" ">
<path fill="none" stroke="#63b8ff" d="M278.8,-188.85C298.35,-189.18 320.98,-189.57 341.66,-189.92"/>
<polygon fill="#63b8ff" stroke="#63b8ff" points="341.34,-193.41 351.4,-190.08 341.46,-186.41 341.34,-193.41"/>
</a>
</g>
</g>
<!-- Node23&#45;&gt;Node13 -->
<g id="edge32_Node000023_Node000013" class="edge">
<title>Node23&#45;&gt;Node13</title>
<g id="a_edge32_Node000023_Node000013"><a xlink:title=" ">
<path fill="none" stroke="#63b8ff" d="M459.53,-202.82C484.05,-208.37 512.81,-214.88 535.51,-220.03"/>
<polygon fill="#63b8ff" stroke="#63b8ff" points="534.44,-223.37 544.97,-222.17 535.99,-216.55 534.44,-223.37"/>
</a>
</g>
</g>
<!-- Node23&#45;&gt;Node14 -->
<g id="edge33_Node000023_Node000014" class="edge">
<title>Node23&#45;&gt;Node14</title>
<g id="a_edge33_Node000023_Node000014"><a xlink:title=" ">
<path fill="none" stroke="#63b8ff" d="M459.78,-188.25C508.47,-187.31 582.39,-190.04 643,-210 669.3,-218.66 695.78,-236.29 713.49,-249.67"/>
<polygon fill="#63b8ff" stroke="#63b8ff" points="711.13,-252.27 721.17,-255.65 715.43,-246.74 711.13,-252.27"/>
</a>
</g>
</g>
<!-- Node23&#45;&gt;Node15 -->
<g id="edge34_Node000023_Node000015" class="edge">
<title>Node23&#45;&gt;Node15</title>
<g id="a_edge34_Node000023_Node000015"><a xlink:title=" ">
<path fill="none" stroke="#63b8ff" d="M456.53,-207.36C462.32,-209.95 468.02,-212.83 473.25,-216 491.56,-227.09 493.16,-233.88 509.25,-248 524.26,-261.16 541.3,-275.9 554.29,-287.09"/>
<polygon fill="#63b8ff" stroke="#63b8ff" points="551.93,-289.68 561.79,-293.56 556.5,-284.38 551.93,-289.68"/>
</a>
</g>
</g>
<!-- Node25 -->
<g id="Node000025" class="node">
<title>Node25</title>
<g id="a_Node000025"><a xlink:href="structxml__parser.html#a85625c095f072a9938d0e47cf468de6b" target="_top" xlink:title=" ">
<polygon fill="white" stroke="#666666" points="473.25,-81 339.5,-81 339.5,-49 473.25,-49 473.25,-81"/>
<text xml:space="preserve" text-anchor="start" x="347.5" y="-67.5" font-family="Helvetica,sans-Serif" font-size="10.00">xml_parser::parse_doctype</text>
<text xml:space="preserve" text-anchor="middle" x="406.38" y="-55.5" font-family="Helvetica,sans-Serif" font-size="10.00">_group</text>
</a>
</g>
</g>
<!-- Node24&#45;&gt;Node25 -->
<g id="edge36_Node000024_Node000025" class="edge">
<title>Node24&#45;&gt;Node25</title>
<g id="a_edge36_Node000024_Node000025"><a xlink:title=" ">
<path fill="none" stroke="#63b8ff" d="M284.9,-138.62C291.41,-136.3 297.76,-133.47 303.5,-130 323.97,-117.64 319.76,-103.51 339.5,-90 341.1,-88.91 342.75,-87.85 344.44,-86.84"/>
<polygon fill="#63b8ff" stroke="#63b8ff" points="346,-89.98 353.16,-82.17 342.69,-83.81 346,-89.98"/>
</a>
</g>
</g>
<!-- Node28 -->
<g id="Node000028" class="node">
<title>Node28</title>
<g id="a_Node000028"><a xlink:href="pugixml_8cpp.html#a17c42195ecf9b84b34bfb53b5c6480b8" target="_top" xlink:title=" ">
<polygon fill="white" stroke="#666666" points="445.12,-157 367.62,-157 367.62,-137 445.12,-137 445.12,-157"/>
<text xml:space="preserve" text-anchor="middle" x="406.38" y="-143.5" font-family="Helvetica,sans-Serif" font-size="10.00">strconv_cdata</text>
</a>
</g>
</g>
<!-- Node24&#45;&gt;Node28 -->
<g id="edge39_Node000024_Node000028" class="edge">
<title>Node24&#45;&gt;Node28</title>
<g id="a_edge39_Node000024_Node000028"><a xlink:title=" ">
<path fill="none" stroke="#63b8ff" d="M303.84,-148.15C321.53,-147.95 339.94,-147.74 356.15,-147.56"/>
<polygon fill="#63b8ff" stroke="#63b8ff" points="356.05,-151.06 366.01,-147.45 355.97,-144.06 356.05,-151.06"/>
</a>
</g>
</g>
<!-- Node29 -->
<g id="Node000029" class="node">
<title>Node29</title>
<g id="a_Node000029"><a xlink:href="pugixml_8cpp.html#a80f240310448aefa4adcb0a929db6462" target="_top" xlink:title=" ">
<polygon fill="white" stroke="#666666" points="453.38,-119 359.38,-119 359.38,-99 453.38,-99 453.38,-119"/>
<text xml:space="preserve" text-anchor="middle" x="406.38" y="-105.5" font-family="Helvetica,sans-Serif" font-size="10.00">strconv_comment</text>
</a>
</g>
</g>
<!-- Node24&#45;&gt;Node29 -->
<g id="edge42_Node000024_Node000029" class="edge">
<title>Node24&#45;&gt;Node29</title>
<g id="a_edge42_Node000024_Node000029"><a xlink:title=" ">
<path fill="none" stroke="#63b8ff" d="M274.6,-138.59C297.03,-133.52 324.23,-127.36 348.01,-121.98"/>
<polygon fill="#63b8ff" stroke="#63b8ff" points="348.56,-125.45 357.54,-119.83 347.01,-118.62 348.56,-125.45"/>
</a>
</g>
</g>
<!-- Node26 -->
<g id="Node000026" class="node">
<title>Node26</title>
<g id="a_Node000026"><a xlink:href="structxml__parser.html#a93f0e9c20ffd16c42a287e687a359a0c" target="_top" xlink:title=" ">
<polygon fill="white" stroke="#666666" points="643,-32 509.25,-32 509.25,0 643,0 643,-32"/>
<text xml:space="preserve" text-anchor="start" x="517.25" y="-18.5" font-family="Helvetica,sans-Serif" font-size="10.00">xml_parser::parse_doctype</text>
<text xml:space="preserve" text-anchor="middle" x="576.12" y="-6.5" font-family="Helvetica,sans-Serif" font-size="10.00">_ignore</text>
</a>
</g>
</g>
<!-- Node25&#45;&gt;Node26 -->
<g id="edge37_Node000025_Node000026" class="edge">
<title>Node25&#45;&gt;Node26</title>
<g id="a_edge37_Node000025_Node000026"><a xlink:title=" ">
<path fill="none" stroke="#63b8ff" d="M463.7,-48.55C477.81,-44.43 493.09,-39.96 507.67,-35.7"/>
<polygon fill="#63b8ff" stroke="#63b8ff" points="508.59,-39.08 517.21,-32.92 506.63,-32.36 508.59,-39.08"/>
</a>
</g>
</g>
<!-- Node27 -->
<g id="Node000027" class="node">
<title>Node27</title>
<g id="a_Node000027"><a xlink:href="structxml__parser.html#a09210dea8745d4d4c45ebb1e1a9211d0" target="_top" xlink:title=" ">
<polygon fill="white" stroke="#666666" points="643,-82 509.25,-82 509.25,-50 643,-50 643,-82"/>
<text xml:space="preserve" text-anchor="start" x="517.25" y="-68.5" font-family="Helvetica,sans-Serif" font-size="10.00">xml_parser::parse_doctype</text>
<text xml:space="preserve" text-anchor="middle" x="576.12" y="-56.5" font-family="Helvetica,sans-Serif" font-size="10.00">_primitive</text>
</a>
</g>
</g>
<!-- Node25&#45;&gt;Node27 -->
<g id="edge38_Node000025_Node000027" class="edge">
<title>Node25&#45;&gt;Node27</title>
<g id="a_edge38_Node000025_Node000027"><a xlink:title=" ">
<path fill="none" stroke="#63b8ff" d="M473.67,-65.4C481.43,-65.44 489.39,-65.49 497.28,-65.54"/>
<polygon fill="#63b8ff" stroke="#63b8ff" points="497.22,-69.04 507.24,-65.6 497.27,-62.04 497.22,-69.04"/>
</a>
</g>
</g>
<!-- Node28&#45;&gt;Node13 -->
<g id="edge40_Node000028_Node000013" class="edge">
<title>Node28&#45;&gt;Node13</title>
<g id="a_edge40_Node000028_Node000013"><a xlink:title=" ">
<path fill="none" stroke="#63b8ff" d="M445.28,-156.02C454.6,-158.76 464.44,-162.09 473.25,-166 501.87,-178.69 532.07,-198.25 552.08,-212.2"/>
<polygon fill="#63b8ff" stroke="#63b8ff" points="549.88,-214.93 560.06,-217.86 553.93,-209.22 549.88,-214.93"/>
</a>
</g>
</g>
<!-- Node28&#45;&gt;Node14 -->
<g id="edge41_Node000028_Node000014" class="edge">
<title>Node28&#45;&gt;Node14</title>
<g id="a_edge41_Node000028_Node000014"><a xlink:title=" ">
<path fill="none" stroke="#63b8ff" d="M445.21,-146.67C493.43,-147.65 578.29,-154.17 643,-185 674.18,-199.86 702.58,-228.66 719.26,-247.86"/>
<polygon fill="#63b8ff" stroke="#63b8ff" points="716.58,-250.11 725.7,-255.5 721.93,-245.6 716.58,-250.11"/>
</a>
</g>
</g>
<!-- Node29&#45;&gt;Node13 -->
<g id="edge43_Node000029_Node000013" class="edge">
<title>Node29&#45;&gt;Node13</title>
<g id="a_edge43_Node000029_Node000013"><a xlink:title=" ">
<path fill="none" stroke="#63b8ff" d="M453.61,-119.12C460.43,-121.52 467.19,-124.44 473.25,-128 509.73,-149.42 542.65,-186.88 560.68,-209.67"/>
<polygon fill="#63b8ff" stroke="#63b8ff" points="557.86,-211.74 566.74,-217.52 563.4,-207.46 557.86,-211.74"/>
</a>
</g>
</g>
<!-- Node29&#45;&gt;Node14 -->
<g id="edge44_Node000029_Node000014" class="edge">
<title>Node29&#45;&gt;Node14</title>
<g id="a_edge44_Node000029_Node000014"><a xlink:title=" ">
<path fill="none" stroke="#63b8ff" d="M453.74,-106.69C503.89,-106.3 584.5,-112.02 643,-147 682.76,-170.78 711.34,-218.88 725.23,-246.42"/>
<polygon fill="#63b8ff" stroke="#63b8ff" points="721.95,-247.68 729.47,-255.15 728.25,-244.62 721.95,-247.68"/>
</a>
</g>
</g>
</g>
</svg>
