<?xml version="1.0" encoding="UTF-8" standalone="no"?>
<!DOCTYPE svg PUBLIC "-//W3C//DTD SVG 1.1//EN"
 "http://www.w3.org/Graphics/SVG/1.1/DTD/svg11.dtd">
<!-- Generated by graphviz version 14.1.2 (20260124.0452)
 -->
<!-- Title: xml_allocator::deallocate_string Pages: 1 -->
<svg width="648pt" height="198pt"
 viewBox="0.00 0.00 648.00 198.00" xmlns="http://www.w3.org/2000/svg" xmlns:xlink="http://www.w3.org/1999/xlink">
<g id="graph0" class="graph" transform="scale(1 1) rotate(0) translate(4 194)">
<title>xml_allocator::deallocate_string</title>
<!-- Node1 -->
<g id="Node000001" class="node">
<title>Node1</title>
<g id="a_Node000001"><a xlink:title=" ">
<polygon fill="#999999" stroke="#666666" points="640.25,-140 516.25,-140 516.25,-108 640.25,-108 640.25,-140"/>
<text xml:space="preserve" text-anchor="start" x="524.25" y="-126.5" font-family="Helvetica,sans-Serif" font-size="10.00">xml_allocator::deallocate</text>
<text xml:space="preserve" text-anchor="middle" x="578.25" y="-114.5" font-family="Helvetica,sans-Serif" font-size="10.00">_string</text>
</a>
</g>
</g>
<!-- Node2 -->
<g id="Node000002" class="node">
<title>Node2</title>
<g id="a_Node000002"><a xlink:href="pugixml_8cpp.html#a451a69801ffa96a6389bb7d4c8099bd9" target="_top" xlink:title=" ">
<polygon fill="white" stroke="#666666" points="480.25,-172 391.5,-172 391.5,-152 480.25,-152 480.25,-172"/>
<text xml:space="preserve" text-anchor="middle" x="435.88" y="-158.5" font-family="Helvetica,sans-Serif" font-size="10.00">destroy_attribute</text>
</a>
</g>
</g>
<!-- Node1&#45;&gt;Node2 -->
<g id="edge1_Node000001_Node000002" class="edge">
<title>Node1&#45;&gt;Node2</title>
<g id="a_edge1_Node000001_Node000002"><a xlink:title=" ">
<path fill="none" stroke="#63b8ff" d="M505.66,-143.38C495.24,-146.2 484.86,-149.01 475.44,-151.56"/>
<polygon fill="#63b8ff" stroke="#63b8ff" points="506.3,-146.83 515.03,-140.84 504.47,-140.08 506.3,-146.83"/>
</a>
</g>
</g>
<!-- Node3 -->
<g id="Node000003" class="node">
<title>Node3</title>
<g id="a_Node000003"><a xlink:href="pugixml_8cpp.html#a00ae2c226db329ac858206e646251867" target="_top" xlink:title=" ">
<polygon fill="white" stroke="#666666" points="346.5,-172 272,-172 272,-152 346.5,-152 346.5,-172"/>
<text xml:space="preserve" text-anchor="middle" x="309.25" y="-158.5" font-family="Helvetica,sans-Serif" font-size="10.00">destroy_node</text>
</a>
</g>
</g>
<!-- Node1&#45;&gt;Node3 -->
<g id="edge4_Node000001_Node000003" class="edge">
<title>Node1&#45;&gt;Node3</title>
<g id="a_edge4_Node000001_Node000003"><a xlink:title=" ">
<path fill="none" stroke="#63b8ff" d="M504.54,-129.27C470.13,-132.32 428.55,-136.8 391.5,-143 376.78,-145.46 360.76,-149.02 346.86,-152.39"/>
<polygon fill="#63b8ff" stroke="#63b8ff" points="504.74,-132.77 514.41,-128.42 504.14,-125.79 504.74,-132.77"/>
</a>
</g>
</g>
<!-- Node4 -->
<g id="Node000004" class="node">
<title>Node4</title>
<g id="a_Node000004"><a xlink:href="pugixml_8cpp.html#a6acbb945c483e413572aadd55a2c8712" target="_top" xlink:title=" ">
<polygon fill="white" stroke="#666666" points="471.62,-96 400.12,-96 400.12,-76 471.62,-76 471.62,-96"/>
<text xml:space="preserve" text-anchor="middle" x="435.88" y="-82.5" font-family="Helvetica,sans-Serif" font-size="10.00">strcpy_insitu</text>
</a>
</g>
</g>
<!-- Node1&#45;&gt;Node4 -->
<g id="edge5_Node000001_Node000004" class="edge">
<title>Node1&#45;&gt;Node4</title>
<g id="a_edge5_Node000001_Node000004"><a xlink:title=" ">
<path fill="none" stroke="#63b8ff" d="M505.7,-104.63C493.92,-101.44 482.19,-98.27 471.84,-95.47"/>
<polygon fill="#63b8ff" stroke="#63b8ff" points="504.47,-107.92 515.03,-107.16 506.3,-101.17 504.47,-107.92"/>
</a>
</g>
</g>
<!-- Node2&#45;&gt;Node3 -->
<g id="edge2_Node000002_Node000003" class="edge">
<title>Node2&#45;&gt;Node3</title>
<g id="a_edge2_Node000002_Node000003"><a xlink:title=" ">
<path fill="none" stroke="#63b8ff" d="M379.87,-162C368.74,-162 357.3,-162 346.99,-162"/>
<polygon fill="#63b8ff" stroke="#63b8ff" points="379.77,-165.5 389.77,-162 379.77,-158.5 379.77,-165.5"/>
</a>
</g>
</g>
<!-- Node3&#45;&gt;Node3 -->
<g id="edge3_Node000003_Node000003" class="edge">
<title>Node3&#45;&gt;Node3</title>
<g id="a_edge3_Node000003_Node000003"><a xlink:title=" ">
<path fill="none" stroke="#63b8ff" d="M331.63,-183.44C328.75,-187.3 321.29,-190 309.25,-190 287.24,-190 280.53,-180.98 289.13,-172.34"/>
<polygon fill="#63b8ff" stroke="#63b8ff" points="335.1,-182.92 329.67,-173.82 328.24,-184.32 335.1,-182.92"/>
</a>
</g>
</g>
<!-- Node5 -->
<g id="Node000005" class="node">
<title>Node5</title>
<g id="a_Node000005"><a xlink:href="pugixml_8cpp.html#aee4bcdb425d825a33564649ece0a4b31" target="_top" xlink:title=" ">
<polygon fill="white" stroke="#666666" points="355.5,-134 263,-134 263,-114 355.5,-114 355.5,-134"/>
<text xml:space="preserve" text-anchor="middle" x="309.25" y="-120.5" font-family="Helvetica,sans-Serif" font-size="10.00">node_copy_string</text>
</a>
</g>
</g>
<!-- Node4&#45;&gt;Node5 -->
<g id="edge6_Node000004_Node000005" class="edge">
<title>Node4&#45;&gt;Node5</title>
<g id="a_edge6_Node000004_Node000005"><a xlink:title=" ">
<path fill="none" stroke="#63b8ff" d="M389.91,-99.71C374.95,-104.27 358.54,-109.28 344.52,-113.55"/>
<polygon fill="#63b8ff" stroke="#63b8ff" points="390.5,-103.19 399.04,-96.93 388.46,-96.49 390.5,-103.19"/>
</a>
</g>
</g>
<!-- Node9 -->
<g id="Node000009" class="node">
<title>Node9</title>
<g id="a_Node000009"><a xlink:href="pugixml_8cpp.html#add59ae346f2993be95cf7b56903ec676" target="_top" xlink:title=" ">
<polygon fill="white" stroke="#666666" points="351,-96 267.5,-96 267.5,-76 351,-76 351,-96"/>
<text xml:space="preserve" text-anchor="middle" x="309.25" y="-82.5" font-family="Helvetica,sans-Serif" font-size="10.00">set_value_ascii</text>
</a>
</g>
</g>
<!-- Node4&#45;&gt;Node9 -->
<g id="edge10_Node000004_Node000009" class="edge">
<title>Node4&#45;&gt;Node9</title>
<g id="a_edge10_Node000004_Node000009"><a xlink:title=" ">
<path fill="none" stroke="#63b8ff" d="M388.44,-86C376.22,-86 363.12,-86 351.2,-86"/>
<polygon fill="#63b8ff" stroke="#63b8ff" points="388.31,-89.5 398.31,-86 388.31,-82.5 388.31,-89.5"/>
</a>
</g>
</g>
<!-- Node12 -->
<g id="Node000012" class="node">
<title>Node12</title>
<g id="a_Node000012"><a xlink:href="pugixml_8cpp.html#ad084c2ba3b0385b65a3c50b12146fa36" target="_top" xlink:title=" ">
<polygon fill="white" stroke="#666666" points="349.88,-58 268.62,-58 268.62,-38 349.88,-38 349.88,-58"/>
<text xml:space="preserve" text-anchor="middle" x="309.25" y="-44.5" font-family="Helvetica,sans-Serif" font-size="10.00">set_value_bool</text>
</a>
</g>
</g>
<!-- Node4&#45;&gt;Node12 -->
<g id="edge13_Node000004_Node000012" class="edge">
<title>Node4&#45;&gt;Node12</title>
<g id="a_edge13_Node000004_Node000012"><a xlink:title=" ">
<path fill="none" stroke="#63b8ff" d="M389.91,-72.29C374.95,-67.73 358.54,-62.72 344.52,-58.45"/>
<polygon fill="#63b8ff" stroke="#63b8ff" points="388.46,-75.51 399.04,-75.07 390.5,-68.81 388.46,-75.51"/>
</a>
</g>
</g>
<!-- Node13 -->
<g id="Node000013" class="node">
<title>Node13</title>
<g id="a_Node000013"><a xlink:href="pugixml_8cpp.html#a4b9ba5312f3cfa08fba37205484fc91d" target="_top" xlink:title=" ">
<polygon fill="white" stroke="#666666" points="355.5,-20 263,-20 263,0 355.5,0 355.5,-20"/>
<text xml:space="preserve" text-anchor="middle" x="309.25" y="-6.5" font-family="Helvetica,sans-Serif" font-size="10.00">set_value_integer</text>
</a>
</g>
</g>
<!-- Node4&#45;&gt;Node13 -->
<g id="edge14_Node000004_Node000013" class="edge">
<title>Node4&#45;&gt;Node13</title>
<g id="a_edge14_Node000004_Node000013"><a xlink:title=" ">
<path fill="none" stroke="#63b8ff" d="M413.5,-68.63C398.01,-56.55 376.22,-40.59 355.5,-29 350,-25.92 343.9,-23.03 338,-20.49"/>
<polygon fill="#63b8ff" stroke="#63b8ff" points="411.08,-71.17 421.09,-74.64 415.42,-65.68 411.08,-71.17"/>
</a>
</g>
</g>
<!-- Node6 -->
<g id="Node000006" class="node">
<title>Node6</title>
<g id="a_Node000006"><a xlink:href="pugixml_8cpp.html#aa393963791df0fe1b8bfe3829637bfbf" target="_top" xlink:title=" ">
<polygon fill="white" stroke="#666666" points="225.88,-172 122.12,-172 122.12,-152 225.88,-152 225.88,-172"/>
<text xml:space="preserve" text-anchor="middle" x="174" y="-158.5" font-family="Helvetica,sans-Serif" font-size="10.00">node_copy_attribute</text>
</a>
</g>
</g>
<!-- Node5&#45;&gt;Node6 -->
<g id="edge7_Node000005_Node000006" class="edge">
<title>Node5&#45;&gt;Node6</title>
<g id="a_edge7_Node000005_Node000006"><a xlink:title=" ">
<path fill="none" stroke="#63b8ff" d="M260.64,-137.58C244.52,-142.18 226.78,-147.23 211.64,-151.55"/>
<polygon fill="#63b8ff" stroke="#63b8ff" points="261.37,-141.01 270.03,-134.9 259.45,-134.28 261.37,-141.01"/>
</a>
</g>
</g>
<!-- Node7 -->
<g id="Node000007" class="node">
<title>Node7</title>
<g id="a_Node000007"><a xlink:href="pugixml_8cpp.html#a04264129af89281e0d73c01e7b4716bb" target="_top" xlink:title=" ">
<polygon fill="white" stroke="#666666" points="227,-134 121,-134 121,-114 227,-114 227,-134"/>
<text xml:space="preserve" text-anchor="middle" x="174" y="-120.5" font-family="Helvetica,sans-Serif" font-size="10.00">node_copy_contents</text>
</a>
</g>
</g>
<!-- Node5&#45;&gt;Node7 -->
<g id="edge8_Node000005_Node000007" class="edge">
<title>Node5&#45;&gt;Node7</title>
<g id="a_edge8_Node000005_Node000007"><a xlink:title=" ">
<path fill="none" stroke="#63b8ff" d="M251.52,-124C243.43,-124 235.15,-124 227.16,-124"/>
<polygon fill="#63b8ff" stroke="#63b8ff" points="251.25,-127.5 261.25,-124 251.25,-120.5 251.25,-127.5"/>
</a>
</g>
</g>
<!-- Node8 -->
<g id="Node000008" class="node">
<title>Node8</title>
<g id="a_Node000008"><a xlink:href="pugixml_8cpp.html#a14949165ebd41eaf762dce303c0118a9" target="_top" xlink:title=" ">
<polygon fill="white" stroke="#666666" points="85,-134 0,-134 0,-114 85,-114 85,-134"/>
<text xml:space="preserve" text-anchor="middle" x="42.5" y="-120.5" font-family="Helvetica,sans-Serif" font-size="10.00">node_copy_tree</text>
</a>
</g>
</g>
<!-- Node7&#45;&gt;Node8 -->
<g id="edge9_Node000007_Node000008" class="edge">
<title>Node7&#45;&gt;Node8</title>
<g id="a_edge9_Node000007_Node000008"><a xlink:title=" ">
<path fill="none" stroke="#63b8ff" d="M109.25,-124C101.1,-124 92.92,-124 85.25,-124"/>
<polygon fill="#63b8ff" stroke="#63b8ff" points="109.19,-127.5 119.19,-124 109.19,-120.5 109.19,-127.5"/>
</a>
</g>
</g>
<!-- Node10 -->
<g id="Node000010" class="node">
<title>Node10</title>
<g id="a_Node000010"><a xlink:href="pugixml_8cpp.html#a1c25c237dad556a4905806d70ed107f3" target="_top" xlink:title=" ">
<polygon fill="white" stroke="#666666" points="221.75,-96 126.25,-96 126.25,-76 221.75,-76 221.75,-96"/>
<text xml:space="preserve" text-anchor="middle" x="174" y="-82.5" font-family="Helvetica,sans-Serif" font-size="10.00">set_value_convert</text>
</a>
</g>
</g>
<!-- Node9&#45;&gt;Node10 -->
<g id="edge11_Node000009_Node000010" class="edge">
<title>Node9&#45;&gt;Node10</title>
<g id="a_edge11_Node000009_Node000010"><a xlink:title=" ">
<path fill="none" stroke="#63b8ff" d="M255.87,-86C244.77,-86 233.12,-86 222.23,-86"/>
<polygon fill="#63b8ff" stroke="#63b8ff" points="255.67,-89.5 265.67,-86 255.67,-82.5 255.67,-89.5"/>
</a>
</g>
</g>
<!-- Node11 -->
<g id="Node000011" class="node">
<title>Node11</title>
<g id="a_Node000011"><a xlink:href="pugixml_8cpp.html#a7548c736894a21eda85551af5f2bafed" target="_top" xlink:title=" ">
<polygon fill="white" stroke="#666666" points="221.75,-58 126.25,-58 126.25,-38 221.75,-38 221.75,-58"/>
<text xml:space="preserve" text-anchor="middle" x="174" y="-44.5" font-family="Helvetica,sans-Serif" font-size="10.00">set_value_convert</text>
</a>
</g>
</g>
<!-- Node9&#45;&gt;Node11 -->
<g id="edge12_Node000009_Node000011" class="edge">
<title>Node9&#45;&gt;Node11</title>
<g id="a_edge12_Node000009_Node000011"><a xlink:title=" ">
<path fill="none" stroke="#63b8ff" d="M260.64,-72.42C244.52,-67.82 226.78,-62.77 211.64,-58.45"/>
<polygon fill="#63b8ff" stroke="#63b8ff" points="259.45,-75.72 270.03,-75.1 261.37,-68.99 259.45,-75.72"/>
</a>
</g>
</g>
</g>
</svg>
