<?xml version="1.0" encoding="UTF-8" standalone="no"?>
<!DOCTYPE svg PUBLIC "-//W3C//DTD SVG 1.1//EN"
 "http://www.w3.org/Graphics/SVG/1.1/DTD/svg11.dtd">
<!-- Generated by graphviz version 14.1.2 (20260124.0452)
 -->
<!-- Title: xpath_parser::error_rec Pages: 1 -->
<svg width="1025pt" height="333pt"
 viewBox="0.00 0.00 1025.00 333.00" xmlns="http://www.w3.org/2000/svg" xmlns:xlink="http://www.w3.org/1999/xlink">
<g id="graph0" class="graph" transform="scale(1 1) rotate(0) translate(4 328.83)">
<title>xpath_parser::error_rec</title>
<!-- Node1 -->
<g id="Node000001" class="node">
<title>Node1</title>
<g id="a_Node000001"><a xlink:title=" ">
<polygon fill="#999999" stroke="#666666" points="1016.5,-96.83 900,-96.83 900,-76.83 1016.5,-76.83 1016.5,-96.83"/>
<text xml:space="preserve" text-anchor="middle" x="958.25" y="-83.33" font-family="Helvetica,sans-Serif" font-size="10.00">xpath_parser::error_rec</text>
</a>
</g>
</g>
<!-- Node2 -->
<g id="Node000002" class="node">
<title>Node2</title>
<g id="a_Node000002"><a xlink:href="structxpath__parser.html#a7738e256011ca842dc2a0beba78562ed" target="_top" xlink:title=" ">
<polygon fill="white" stroke="#666666" points="864,-194.83 761.75,-194.83 761.75,-162.83 864,-162.83 864,-194.83"/>
<text xml:space="preserve" text-anchor="start" x="769.75" y="-181.33" font-family="Helvetica,sans-Serif" font-size="10.00">xpath_parser::parse</text>
<text xml:space="preserve" text-anchor="middle" x="812.88" y="-169.33" font-family="Helvetica,sans-Serif" font-size="10.00">_expression</text>
</a>
</g>
</g>
<!-- Node1&#45;&gt;Node2 -->
<g id="edge1_Node000001_Node000002" class="edge">
<title>Node1&#45;&gt;Node2</title>
<g id="a_edge1_Node000001_Node000002"><a xlink:title=" ">
<path fill="none" stroke="#63b8ff" d="M931.51,-103.35C905.44,-120.08 865.37,-145.79 839.39,-162.46"/>
<polygon fill="#63b8ff" stroke="#63b8ff" points="933.28,-106.37 939.81,-98.02 929.5,-100.48 933.28,-106.37"/>
</a>
</g>
</g>
<!-- Node5 -->
<g id="Node000005" class="node">
<title>Node5</title>
<g id="a_Node000005"><a xlink:href="structxpath__parser.html#a61a425d990a56d5db8cd14405835a5b6" target="_top" xlink:title=" ">
<polygon fill="white" stroke="#666666" points="556.75,-145.83 454.5,-145.83 454.5,-113.83 556.75,-113.83 556.75,-145.83"/>
<text xml:space="preserve" text-anchor="start" x="462.5" y="-132.33" font-family="Helvetica,sans-Serif" font-size="10.00">xpath_parser::parse</text>
<text xml:space="preserve" text-anchor="middle" x="505.62" y="-120.33" font-family="Helvetica,sans-Serif" font-size="10.00">_filter_expression</text>
</a>
</g>
</g>
<!-- Node1&#45;&gt;Node5 -->
<g id="edge19_Node000001_Node000005" class="edge">
<title>Node1&#45;&gt;Node5</title>
<g id="a_edge19_Node000001_Node000005"><a xlink:title=" ">
<path fill="none" stroke="#63b8ff" d="M888.42,-77.67C815.65,-70.06 698,-63.68 599.5,-85.83 575.83,-91.16 551.09,-103.24 533.11,-113.4"/>
<polygon fill="#63b8ff" stroke="#63b8ff" points="887.88,-81.14 898.2,-78.74 888.64,-74.18 887.88,-81.14"/>
</a>
</g>
</g>
<!-- Node7 -->
<g id="Node000007" class="node">
<title>Node7</title>
<g id="a_Node000007"><a xlink:href="structxpath__parser.html#adcd54e9b508acfe1f040ee7a54b88f2a" target="_top" xlink:title=" ">
<polygon fill="white" stroke="#666666" points="102.25,-302.83 0,-302.83 0,-270.83 102.25,-270.83 102.25,-302.83"/>
<text xml:space="preserve" text-anchor="start" x="8" y="-289.33" font-family="Helvetica,sans-Serif" font-size="10.00">xpath_parser::parse</text>
<text xml:space="preserve" text-anchor="middle" x="51.12" y="-277.33" font-family="Helvetica,sans-Serif" font-size="10.00">_expression_rec</text>
</a>
</g>
</g>
<!-- Node1&#45;&gt;Node7 -->
<g id="edge18_Node000001_Node000007" class="edge">
<title>Node1&#45;&gt;Node7</title>
<g id="a_edge18_Node000001_Node000007"><a xlink:title=" ">
<path fill="none" stroke="#63b8ff" d="M945.78,-106.77C911.19,-164.01 801.71,-324.83 663.62,-324.83 663.62,-324.83 663.62,-324.83 359.62,-324.83 268.45,-324.83 163.2,-308.17 102.49,-296.92"/>
<polygon fill="#63b8ff" stroke="#63b8ff" points="948.67,-108.75 950.75,-98.36 942.65,-105.19 948.67,-108.75"/>
</a>
</g>
</g>
<!-- Node8 -->
<g id="Node000008" class="node">
<title>Node8</title>
<g id="a_Node000008"><a xlink:href="structxpath__parser.html#a49cbc6141508ace22ab4b8bd8ddf965a" target="_top" xlink:title=" ">
<polygon fill="white" stroke="#666666" points="715.62,-126.83 609.62,-126.83 609.62,-94.83 715.62,-94.83 715.62,-126.83"/>
<text xml:space="preserve" text-anchor="start" x="617.62" y="-113.33" font-family="Helvetica,sans-Serif" font-size="10.00">xpath_parser::parse</text>
<text xml:space="preserve" text-anchor="middle" x="662.62" y="-101.33" font-family="Helvetica,sans-Serif" font-size="10.00">_primary_expression</text>
</a>
</g>
</g>
<!-- Node1&#45;&gt;Node8 -->
<g id="edge20_Node000001_Node000008" class="edge">
<title>Node1&#45;&gt;Node8</title>
<g id="a_edge20_Node000001_Node000008"><a xlink:title=" ">
<path fill="none" stroke="#63b8ff" d="M888.29,-92.47C835.5,-96.78 763.81,-102.64 715.74,-106.57"/>
<polygon fill="#63b8ff" stroke="#63b8ff" points="888.4,-95.97 898.08,-91.67 887.83,-88.99 888.4,-95.97"/>
</a>
</g>
</g>
<!-- Node9 -->
<g id="Node000009" class="node">
<title>Node9</title>
<g id="a_Node000009"><a xlink:href="structxpath__parser.html#a0b226e2905970c868ab6a80d76da3a95" target="_top" xlink:title=" ">
<polygon fill="white" stroke="#666666" points="725.75,-38.83 599.5,-38.83 599.5,-18.83 725.75,-18.83 725.75,-38.83"/>
<text xml:space="preserve" text-anchor="middle" x="662.62" y="-25.33" font-family="Helvetica,sans-Serif" font-size="10.00">xpath_parser::parse_step</text>
</a>
</g>
</g>
<!-- Node1&#45;&gt;Node9 -->
<g id="edge22_Node000001_Node000009" class="edge">
<title>Node1&#45;&gt;Node9</title>
<g id="a_edge22_Node000001_Node000009"><a xlink:title=" ">
<path fill="none" stroke="#63b8ff" d="M923.32,-72.32C905.89,-65.42 884.13,-57.64 864,-52.83 818.51,-41.97 765.97,-35.91 726.11,-32.6"/>
<polygon fill="#63b8ff" stroke="#63b8ff" points="921.58,-75.39 932.16,-75.9 924.21,-68.9 921.58,-75.39"/>
</a>
</g>
</g>
<!-- Node10 -->
<g id="Node000010" class="node">
<title>Node10</title>
<g id="a_Node000010"><a xlink:href="structxpath__parser.html#aebea559423376001c89b19216dfc3012" target="_top" xlink:title=" ">
<polygon fill="white" stroke="#666666" points="563.5,-47.83 447.75,-47.83 447.75,-15.83 563.5,-15.83 563.5,-47.83"/>
<text xml:space="preserve" text-anchor="start" x="455.75" y="-34.33" font-family="Helvetica,sans-Serif" font-size="10.00">xpath_parser::parse</text>
<text xml:space="preserve" text-anchor="middle" x="505.62" y="-22.33" font-family="Helvetica,sans-Serif" font-size="10.00">_relative_location_path</text>
</a>
</g>
</g>
<!-- Node1&#45;&gt;Node10 -->
<g id="edge21_Node000001_Node000010" class="edge">
<title>Node1&#45;&gt;Node10</title>
<g id="a_edge21_Node000001_Node000010"><a xlink:title=" ">
<path fill="none" stroke="#63b8ff" d="M933.73,-70C915.55,-57.8 889.28,-41.92 864,-32.83 752.95,7.06 716.7,3.86 599.5,-9.83 587.81,-11.2 575.47,-13.5 563.72,-16.11"/>
<polygon fill="#63b8ff" stroke="#63b8ff" points="931.72,-72.86 941.95,-75.65 935.69,-67.1 931.72,-72.86"/>
</a>
</g>
</g>
<!-- Node3 -->
<g id="Node000003" class="node">
<title>Node3</title>
<g id="a_Node000003"><a xlink:href="structxpath__parser.html#aa3fe0e7d23131b3943d8248646ecd362" target="_top" xlink:title=" ">
<polygon fill="white" stroke="#666666" points="713.75,-258.83 611.5,-258.83 611.5,-238.83 713.75,-238.83 713.75,-258.83"/>
<text xml:space="preserve" text-anchor="middle" x="662.62" y="-245.33" font-family="Helvetica,sans-Serif" font-size="10.00">xpath_parser::parse</text>
</a>
</g>
</g>
<!-- Node2&#45;&gt;Node3 -->
<g id="edge2_Node000002_Node000003" class="edge">
<title>Node2&#45;&gt;Node3</title>
<g id="a_edge2_Node000002_Node000003"><a xlink:title=" ">
<path fill="none" stroke="#63b8ff" d="M773.45,-200.65C758.73,-208.66 741.65,-217.55 725.75,-224.83 715.13,-229.7 703.22,-234.46 692.69,-238.44"/>
<polygon fill="#63b8ff" stroke="#63b8ff" points="774.82,-203.89 781.89,-196 771.44,-197.76 774.82,-203.89"/>
</a>
</g>
</g>
<!-- Node2&#45;&gt;Node5 -->
<g id="edge4_Node000002_Node000005" class="edge">
<title>Node2&#45;&gt;Node5</title>
<g id="a_edge4_Node000002_Node000005"><a xlink:title=" ">
<path fill="none" stroke="#63b8ff" d="M750.12,-168.92C693.3,-159.8 610.05,-146.43 557.11,-137.94"/>
<polygon fill="#63b8ff" stroke="#63b8ff" points="749.55,-172.37 759.97,-170.5 750.66,-165.46 749.55,-172.37"/>
</a>
</g>
</g>
<!-- Node6 -->
<g id="Node000006" class="node">
<title>Node6</title>
<g id="a_Node000006"><a xlink:href="structxpath__parser.html#ab5275305ebaac95fd68a3186b737aaa7" target="_top" xlink:title=" ">
<polygon fill="white" stroke="#666666" points="273.5,-194.83 138.25,-194.83 138.25,-162.83 273.5,-162.83 273.5,-194.83"/>
<text xml:space="preserve" text-anchor="start" x="146.25" y="-181.33" font-family="Helvetica,sans-Serif" font-size="10.00">xpath_parser::parse</text>
<text xml:space="preserve" text-anchor="middle" x="205.88" y="-169.33" font-family="Helvetica,sans-Serif" font-size="10.00">_path_or_unary_expression</text>
</a>
</g>
</g>
<!-- Node2&#45;&gt;Node6 -->
<g id="edge10_Node000002_Node000006" class="edge">
<title>Node2&#45;&gt;Node6</title>
<g id="a_edge10_Node000002_Node000006"><a xlink:title=" ">
<path fill="none" stroke="#63b8ff" d="M750.01,-174.54C635.52,-171.31 391.54,-171.26 273.54,-174.41"/>
<polygon fill="#63b8ff" stroke="#63b8ff" points="749.72,-178.03 759.82,-174.84 749.93,-171.04 749.72,-178.03"/>
</a>
</g>
</g>
<!-- Node2&#45;&gt;Node8 -->
<g id="edge11_Node000002_Node000008" class="edge">
<title>Node2&#45;&gt;Node8</title>
<g id="a_edge11_Node000002_Node000008"><a xlink:title=" ">
<path fill="none" stroke="#63b8ff" d="M765.53,-157.57C744.2,-147.79 719.29,-136.37 699.44,-127.26"/>
<polygon fill="#63b8ff" stroke="#63b8ff" points="764.06,-160.75 774.61,-161.74 766.98,-154.39 764.06,-160.75"/>
</a>
</g>
</g>
<!-- Node2&#45;&gt;Node9 -->
<g id="edge13_Node000002_Node000009" class="edge">
<title>Node2&#45;&gt;Node9</title>
<g id="a_edge13_Node000002_Node000009"><a xlink:title=" ">
<path fill="none" stroke="#63b8ff" d="M790.11,-154.25C773,-135.2 748.37,-108.35 725.75,-85.83 708.74,-68.9 688.03,-50.27 675.34,-39.06"/>
<polygon fill="#63b8ff" stroke="#63b8ff" points="787.35,-156.41 796.62,-161.54 792.57,-151.75 787.35,-156.41"/>
</a>
</g>
</g>
<!-- Node4 -->
<g id="Node000004" class="node">
<title>Node4</title>
<g id="a_Node000004"><a xlink:href="structxpath__parser.html#aad773be8b591966eb535018fcc2b6a66" target="_top" xlink:title=" ">
<polygon fill="white" stroke="#666666" points="556.75,-258.83 454.5,-258.83 454.5,-238.83 556.75,-238.83 556.75,-258.83"/>
<text xml:space="preserve" text-anchor="middle" x="505.62" y="-245.33" font-family="Helvetica,sans-Serif" font-size="10.00">xpath_parser::parse</text>
</a>
</g>
</g>
<!-- Node3&#45;&gt;Node4 -->
<g id="edge3_Node000003_Node000004" class="edge">
<title>Node3&#45;&gt;Node4</title>
<g id="a_edge3_Node000003_Node000004"><a xlink:title=" ">
<path fill="none" stroke="#63b8ff" d="M600.1,-248.83C585.88,-248.83 570.92,-248.83 557.23,-248.83"/>
<polygon fill="#63b8ff" stroke="#63b8ff" points="599.79,-252.33 609.79,-248.83 599.79,-245.33 599.79,-252.33"/>
</a>
</g>
</g>
<!-- Node5&#45;&gt;Node6 -->
<g id="edge5_Node000005_Node000006" class="edge">
<title>Node5&#45;&gt;Node6</title>
<g id="a_edge5_Node000005_Node000006"><a xlink:title=" ">
<path fill="none" stroke="#63b8ff" d="M442.97,-139.98C393.64,-148.1 324.57,-159.46 273.88,-167.8"/>
<polygon fill="#63b8ff" stroke="#63b8ff" points="443.32,-143.47 452.62,-138.39 442.19,-136.56 443.32,-143.47"/>
</a>
</g>
</g>
<!-- Node6&#45;&gt;Node2 -->
<g id="edge6_Node000006_Node000002" class="edge">
<title>Node6&#45;&gt;Node2</title>
<g id="a_edge6_Node000006_Node000002"><a xlink:title=" ">
<path fill="none" stroke="#63b8ff" d="M284.99,-183.54C411.01,-186.5 655.72,-186.24 761.33,-182.78"/>
<polygon fill="#63b8ff" stroke="#63b8ff" points="285.14,-180.04 275.05,-183.29 284.96,-187.04 285.14,-180.04"/>
</a>
</g>
</g>
<!-- Node6&#45;&gt;Node7 -->
<g id="edge7_Node000006_Node000007" class="edge">
<title>Node6&#45;&gt;Node7</title>
<g id="a_edge7_Node000006_Node000007"><a xlink:title=" ">
<path fill="none" stroke="#63b8ff" d="M172.3,-201.87C143.05,-222.54 100.87,-252.37 75.04,-270.63"/>
<polygon fill="#63b8ff" stroke="#63b8ff" points="174.3,-204.74 180.44,-196.11 170.25,-199.02 174.3,-204.74"/>
</a>
</g>
</g>
<!-- Node7&#45;&gt;Node2 -->
<g id="edge8_Node000007_Node000002" class="edge">
<title>Node7&#45;&gt;Node2</title>
<g id="a_edge8_Node000007_Node000002"><a xlink:title=" ">
<path fill="none" stroke="#63b8ff" d="M113.89,-286.83C175.98,-286.83 274.44,-286.83 359.62,-286.83 506.62,-286.83 506.62,-286.83 506.62,-286.83 604.38,-286.83 637.48,-309.84 725.75,-267.83 759.73,-251.66 787.5,-216.01 801.67,-195.07"/>
<polygon fill="#63b8ff" stroke="#63b8ff" points="114.24,-283.33 104.24,-286.83 114.24,-290.33 114.24,-283.33"/>
</a>
</g>
</g>
<!-- Node7&#45;&gt;Node7 -->
<g id="edge9_Node000007_Node000007" class="edge">
<title>Node7&#45;&gt;Node7</title>
<g id="a_edge9_Node000007_Node000007"><a xlink:title=" ">
<path fill="none" stroke="#63b8ff" d="M76.91,-314.54C72.61,-318.31 64.02,-320.83 51.12,-320.83 27.55,-320.83 18.34,-312.41 23.5,-303.27"/>
<polygon fill="#63b8ff" stroke="#63b8ff" points="80.35,-315.2 78.51,-304.77 73.44,-314.07 80.35,-315.2"/>
</a>
</g>
</g>
<!-- Node8&#45;&gt;Node5 -->
<g id="edge12_Node000008_Node000005" class="edge">
<title>Node8&#45;&gt;Node5</title>
<g id="a_edge12_Node000008_Node000005"><a xlink:title=" ">
<path fill="none" stroke="#63b8ff" d="M597.93,-118.64C584.36,-120.3 570.21,-122.04 557.21,-123.63"/>
<polygon fill="#63b8ff" stroke="#63b8ff" points="598.15,-122.14 607.65,-117.45 597.3,-115.19 598.15,-122.14"/>
</a>
</g>
</g>
<!-- Node9&#45;&gt;Node10 -->
<g id="edge14_Node000009_Node000010" class="edge">
<title>Node9&#45;&gt;Node10</title>
<g id="a_edge14_Node000009_Node000010"><a xlink:title=" ">
<path fill="none" stroke="#63b8ff" d="M587.78,-30.26C579.77,-30.42 571.71,-30.57 563.95,-30.72"/>
<polygon fill="#63b8ff" stroke="#63b8ff" points="587.58,-33.77 597.51,-30.07 587.45,-26.77 587.58,-33.77"/>
</a>
</g>
</g>
<!-- Node10&#45;&gt;Node6 -->
<g id="edge17_Node000010_Node000006" class="edge">
<title>Node10&#45;&gt;Node6</title>
<g id="a_edge17_Node000010_Node000006"><a xlink:title=" ">
<path fill="none" stroke="#63b8ff" d="M462.4,-53.36C446.54,-61.4 428.34,-70.58 411.75,-78.83 351.85,-108.6 281.75,-142.65 241.02,-162.35"/>
<polygon fill="#63b8ff" stroke="#63b8ff" points="463.76,-56.59 471.1,-48.94 460.6,-50.35 463.76,-56.59"/>
</a>
</g>
</g>
<!-- Node11 -->
<g id="Node000011" class="node">
<title>Node11</title>
<g id="a_Node000011"><a xlink:href="structxpath__parser.html#af14e396ddb7817998ec221eec6b781ab" target="_top" xlink:title=" ">
<polygon fill="white" stroke="#666666" points="411.75,-69.83 309.5,-69.83 309.5,-37.83 411.75,-37.83 411.75,-69.83"/>
<text xml:space="preserve" text-anchor="start" x="317.5" y="-56.33" font-family="Helvetica,sans-Serif" font-size="10.00">xpath_parser::parse</text>
<text xml:space="preserve" text-anchor="middle" x="360.62" y="-44.33" font-family="Helvetica,sans-Serif" font-size="10.00">_location_path</text>
</a>
</g>
</g>
<!-- Node10&#45;&gt;Node11 -->
<g id="edge15_Node000010_Node000011" class="edge">
<title>Node10&#45;&gt;Node11</title>
<g id="a_edge15_Node000010_Node000011"><a xlink:title=" ">
<path fill="none" stroke="#63b8ff" d="M435.97,-42.39C427.91,-43.63 419.8,-44.88 412.06,-46.07"/>
<polygon fill="#63b8ff" stroke="#63b8ff" points="436.44,-45.86 445.79,-40.88 435.37,-38.94 436.44,-45.86"/>
</a>
</g>
</g>
<!-- Node11&#45;&gt;Node6 -->
<g id="edge16_Node000011_Node000006" class="edge">
<title>Node11&#45;&gt;Node6</title>
<g id="a_edge16_Node000011_Node000006"><a xlink:title=" ">
<path fill="none" stroke="#63b8ff" d="M330.8,-77.42C300.43,-102.27 253.38,-140.77 226.85,-162.49"/>
<polygon fill="#63b8ff" stroke="#63b8ff" points="332.96,-80.17 338.48,-71.13 328.53,-74.76 332.96,-80.17"/>
</a>
</g>
</g>
</g>
</svg>
