<?xml version="1.0" encoding="UTF-8" standalone="no"?>
<!DOCTYPE svg PUBLIC "-//W3C//DTD SVG 1.1//EN"
 "http://www.w3.org/Graphics/SVG/1.1/DTD/svg11.dtd">
<!-- Generated by graphviz version 14.1.2 (20260124.0452)
 -->
<!-- Title: xpath_query_impl::destroy Pages: 1 -->
<svg width="297pt" height="78pt"
 viewBox="0.00 0.00 297.00 78.00" xmlns="http://www.w3.org/2000/svg" xmlns:xlink="http://www.w3.org/1999/xlink">
<g id="graph0" class="graph" transform="scale(1 1) rotate(0) translate(4 74)">
<title>xpath_query_impl::destroy</title>
<!-- Node1 -->
<g id="Node000001" class="node">
<title>Node1</title>
<g id="a_Node000001"><a xlink:title=" ">
<polygon fill="#999999" stroke="#666666" points="130.75,-48 0,-48 0,-28 130.75,-28 130.75,-48"/>
<text xml:space="preserve" text-anchor="middle" x="65.38" y="-34.5" font-family="Helvetica,sans-Serif" font-size="10.00">xpath_query_impl::destroy</text>
</a>
</g>
</g>
<!-- Node2 -->
<g id="Node000002" class="node">
<title>Node2</title>
<g id="a_Node000002"><a xlink:href="structxpath__allocator.html#a9436b8bdef3e0e0ff0df28c2af6a430d" target="_top" xlink:title=" ">
<polygon fill="white" stroke="#666666" points="287.75,-70 168.25,-70 168.25,-50 287.75,-50 287.75,-70"/>
<text xml:space="preserve" text-anchor="middle" x="228" y="-56.5" font-family="Helvetica,sans-Serif" font-size="10.00">xpath_allocator::release</text>
</a>
</g>
</g>
<!-- Node1&#45;&gt;Node2 -->
<g id="edge1_Node000001_Node000002" class="edge">
<title>Node1&#45;&gt;Node2</title>
<g id="a_edge1_Node000001_Node000002"><a xlink:title=" ">
<path fill="none" stroke="#63b8ff" d="M131.24,-46.88C139.56,-48.02 148.12,-49.2 156.52,-50.35"/>
<polygon fill="#63b8ff" stroke="#63b8ff" points="155.97,-53.8 166.36,-51.69 156.92,-46.87 155.97,-53.8"/>
</a>
</g>
</g>
<!-- Node3 -->
<g id="Node000003" class="node">
<title>Node3</title>
<g id="a_Node000003"><a xlink:href="structxpath__query__impl.html#a57ef8fcfa3f46e6c395edb00328e9a0e" target="_top" xlink:title=" ">
<polygon fill="white" stroke="#666666" points="289.25,-32 166.75,-32 166.75,0 289.25,0 289.25,-32"/>
<text xml:space="preserve" text-anchor="start" x="174.75" y="-18.5" font-family="Helvetica,sans-Serif" font-size="10.00">xpath_query_impl::xpath</text>
<text xml:space="preserve" text-anchor="middle" x="228" y="-6.5" font-family="Helvetica,sans-Serif" font-size="10.00">_query_impl</text>
</a>
</g>
</g>
<!-- Node1&#45;&gt;Node3 -->
<g id="edge2_Node000001_Node000003" class="edge">
<title>Node1&#45;&gt;Node3</title>
<g id="a_edge2_Node000001_Node000003"><a xlink:title=" ">
<path fill="none" stroke="#63b8ff" d="M131.24,-29.12C139.12,-28.04 147.19,-26.93 155.16,-25.84"/>
<polygon fill="#63b8ff" stroke="#63b8ff" points="155.38,-29.34 164.81,-24.52 154.43,-22.41 155.38,-29.34"/>
</a>
</g>
</g>
</g>
</svg>
