<?xml version="1.0" encoding="UTF-8" standalone="no"?>
<!DOCTYPE svg PUBLIC "-//W3C//DTD SVG 1.1//EN"
 "http://www.w3.org/Graphics/SVG/1.1/DTD/svg11.dtd">
<!-- Generated by graphviz version 14.1.2 (20260124.0452)
 -->
<!-- Title: xml_allocator Pages: 1 -->
<svg width="149pt" height="116pt"
 viewBox="0.00 0.00 149.00 116.00" xmlns="http://www.w3.org/2000/svg" xmlns:xlink="http://www.w3.org/1999/xlink">

<svg id="main" version="1.1" xmlns="http://www.w3.org/2000/svg" xmlns:xlink="http://www.w3.org/1999/xlink" xml:space="preserve">

<style type="text/css"><![CDATA[
.node, .edge {opacity: 0.7;}
.node.selected, .edge.selected {opacity: 1;}
.edge:hover path { stroke: red; }
.edge:hover polygon { stroke: red; fill: red; }
]]></style>
<script type="application/ecmascript" xlink:href="svg.min.js"/>
<svg id="graph" class="graph">
<g id="graph0" class="graph" transform="scale(1 1) rotate(0) translate(4 112)">
<title>xml_allocator</title>
<!-- Node1 -->
<g id="Node000001" class="node">
<title>Node1</title>
<g id="a_Node000001"><a xlink:title=" ">
<polygon fill="#999999" stroke="#666666" points="86.12,-108 12.38,-108 12.38,-88 86.12,-88 86.12,-108"/>
<text xml:space="preserve" text-anchor="middle" x="49.25" y="-94.5" font-family="Helvetica,sans-Serif" font-size="10.00">xml_allocator</text>
</a>
</g>
</g>
<!-- Node2 -->
<g id="Node000002" class="node">
<title>Node2</title>
<g id="a_Node000002"><a xlink:href="structxml__memory__page.html" target="_top" xlink:title=" ">
<polygon fill="white" stroke="#666666" points="98.5,-27 0,-27 0,-7 98.5,-7 98.5,-27"/>
<text xml:space="preserve" text-anchor="middle" x="49.25" y="-13.5" font-family="Helvetica,sans-Serif" font-size="10.00">xml_memory_page</text>
</a>
</g>
</g>
<!-- Node1&#45;&gt;Node2 -->
<g id="edge2_Node000002_Node000001" class="edge">
<title>Node1&#45;&gt;Node2</title>
<g id="a_edge2_Node000002_Node000001"><a xlink:title=" ">
<path fill="none" stroke="#9a32cd" stroke-dasharray="5,2" d="M21.78,-80.77C18.44,-77.63 15.51,-74.04 13.5,-70 9.93,-62.84 10.35,-59.35 13.5,-52 17.82,-41.92 26.76,-33.42 34.62,-27.44"/>
<polygon fill="#9a32cd" stroke="#9a32cd" points="19.37,-83.33 29.4,-86.72 23.67,-77.81 19.37,-83.33"/>
</a>
</g>
<text xml:space="preserve" text-anchor="start" x="16.5" y="-57.5" font-family="Helvetica,sans-Serif" font-size="10.00" fill="grey">allocator</text>
</g>
<!-- Node2&#45;&gt;Node1 -->
<g id="edge1_Node000001_Node000002" class="edge">
<title>Node2&#45;&gt;Node1</title>
<g id="a_edge1_Node000001_Node000002"><a xlink:title=" ">
<path fill="none" stroke="#9a32cd" stroke-dasharray="5,2" d="M57.22,-37.72C60.17,-47.43 62.34,-59.31 60.25,-70 59.04,-76.16 56.42,-82.69 54.05,-87.78"/>
<polygon fill="#9a32cd" stroke="#9a32cd" points="60.63,-36.86 53.97,-28.61 54.03,-39.21 60.63,-36.86"/>
</a>
</g>
<text xml:space="preserve" text-anchor="start" x="64.08" y="-57.5" font-family="Helvetica,sans-Serif" font-size="10.00" fill="grey">_root</text>
</g>
<!-- Node2&#45;&gt;Node2 -->
<g id="edge3_Node000002_Node000002" class="edge">
<title>Node2&#45;&gt;Node2</title>
<g id="a_edge3_Node000002_Node000002"><a xlink:title=" ">
<path fill="none" stroke="#9a32cd" stroke-dasharray="5,2" d="M109.95,-22.93C114.03,-21.56 116.5,-19.58 116.5,-17 116.5,-12.53 109.1,-9.88 98.81,-9.04"/>
<polygon fill="#9a32cd" stroke="#9a32cd" points="109.51,-19.45 100.3,-24.69 110.77,-26.34 109.51,-19.45"/>
</a>
</g>
<text xml:space="preserve" text-anchor="start" x="119.5" y="-21.5" font-family="Helvetica,sans-Serif" font-size="10.00" fill="grey">next</text>
<text xml:space="preserve" text-anchor="start" x="119.5" y="-5.5" font-family="Helvetica,sans-Serif" font-size="10.00" fill="grey">prev</text>
</g>
</g>
</svg>
</svg>

<style type='text/css'>
<![CDATA[
[data-mouse-over-selected='false'] { opacity: 0.7; }
[data-mouse-over-selected='true']  { opacity: 1.0; }
]]>
</style>
<script type="application/ecmascript"><![CDATA[
document.addEventListener('DOMContentLoaded', (event) => {
  highlightEdges();
  highlightAdjacentNodes();
});
]]></script>
</svg>
