<?xml version="1.0" encoding="UTF-8" standalone="no"?>
<!DOCTYPE svg PUBLIC "-//W3C//DTD SVG 1.1//EN"
 "http://www.w3.org/Graphics/SVG/1.1/DTD/svg11.dtd">
<!-- Generated by graphviz version 14.1.2 (20260124.0452)
 -->
<!-- Title: xpath_parser::parse_step Pages: 1 -->
<svg width="1152pt" height="173pt"
 viewBox="0.00 0.00 1152.00 173.00" xmlns="http://www.w3.org/2000/svg" xmlns:xlink="http://www.w3.org/1999/xlink">
<g id="graph0" class="graph" transform="scale(1 1) rotate(0) translate(4 168.97)">
<title>xpath_parser::parse_step</title>
<!-- Node1 -->
<g id="Node000001" class="node">
<title>Node1</title>
<g id="a_Node000001"><a xlink:title=" ">
<polygon fill="#999999" stroke="#666666" points="1144.25,-32 1018,-32 1018,-12 1144.25,-12 1144.25,-32"/>
<text xml:space="preserve" text-anchor="middle" x="1081.12" y="-18.5" font-family="Helvetica,sans-Serif" font-size="10.00">xpath_parser::parse_step</text>
</a>
</g>
</g>
<!-- Node2 -->
<g id="Node000002" class="node">
<title>Node2</title>
<g id="a_Node000002"><a xlink:href="structxpath__parser.html#aebea559423376001c89b19216dfc3012" target="_top" xlink:title=" ">
<polygon fill="white" stroke="#666666" points="982,-60 866.25,-60 866.25,-28 982,-28 982,-60"/>
<text xml:space="preserve" text-anchor="start" x="874.25" y="-46.5" font-family="Helvetica,sans-Serif" font-size="10.00">xpath_parser::parse</text>
<text xml:space="preserve" text-anchor="middle" x="924.12" y="-34.5" font-family="Helvetica,sans-Serif" font-size="10.00">_relative_location_path</text>
</a>
</g>
</g>
<!-- Node1&#45;&gt;Node2 -->
<g id="edge1_Node000001_Node000002" class="edge">
<title>Node1&#45;&gt;Node2</title>
<g id="a_edge1_Node000001_Node000002"><a xlink:title=" ">
<path fill="none" stroke="#63b8ff" d="M1006.28,-32.48C998.27,-33.62 990.21,-34.76 982.45,-35.86"/>
<polygon fill="#63b8ff" stroke="#63b8ff" points="1006.62,-35.97 1016.03,-31.1 1005.64,-29.04 1006.62,-35.97"/>
</a>
</g>
</g>
<!-- Node3 -->
<g id="Node000003" class="node">
<title>Node3</title>
<g id="a_Node000003"><a xlink:href="structxpath__parser.html#af14e396ddb7817998ec221eec6b781ab" target="_top" xlink:title=" ">
<polygon fill="white" stroke="#666666" points="830.25,-60 728,-60 728,-28 830.25,-28 830.25,-60"/>
<text xml:space="preserve" text-anchor="start" x="736" y="-46.5" font-family="Helvetica,sans-Serif" font-size="10.00">xpath_parser::parse</text>
<text xml:space="preserve" text-anchor="middle" x="779.12" y="-34.5" font-family="Helvetica,sans-Serif" font-size="10.00">_location_path</text>
</a>
</g>
</g>
<!-- Node2&#45;&gt;Node3 -->
<g id="edge2_Node000002_Node000003" class="edge">
<title>Node2&#45;&gt;Node3</title>
<g id="a_edge2_Node000002_Node000003"><a xlink:title=" ">
<path fill="none" stroke="#63b8ff" d="M854.47,-44C846.41,-44 838.3,-44 830.56,-44"/>
<polygon fill="#63b8ff" stroke="#63b8ff" points="854.27,-47.5 864.27,-44 854.27,-40.5 854.27,-47.5"/>
</a>
</g>
</g>
<!-- Node4 -->
<g id="Node000004" class="node">
<title>Node4</title>
<g id="a_Node000004"><a xlink:href="structxpath__parser.html#ab5275305ebaac95fd68a3186b737aaa7" target="_top" xlink:title=" ">
<polygon fill="white" stroke="#666666" points="692,-83 556.75,-83 556.75,-51 692,-51 692,-83"/>
<text xml:space="preserve" text-anchor="start" x="564.75" y="-69.5" font-family="Helvetica,sans-Serif" font-size="10.00">xpath_parser::parse</text>
<text xml:space="preserve" text-anchor="middle" x="624.38" y="-57.5" font-family="Helvetica,sans-Serif" font-size="10.00">_path_or_unary_expression</text>
</a>
</g>
</g>
<!-- Node2&#45;&gt;Node4 -->
<g id="edge16_Node000002_Node000004" class="edge">
<title>Node2&#45;&gt;Node4</title>
<g id="a_edge16_Node000002_Node000004"><a xlink:title=" ">
<path fill="none" stroke="#63b8ff" d="M860.42,-63.26C850.41,-65.64 840.11,-67.7 830.25,-69 784.41,-75.06 732.29,-74.45 692.1,-72.38"/>
<polygon fill="#63b8ff" stroke="#63b8ff" points="861.24,-66.67 870.08,-60.83 859.53,-59.88 861.24,-66.67"/>
</a>
</g>
</g>
<!-- Node3&#45;&gt;Node4 -->
<g id="edge3_Node000003_Node000004" class="edge">
<title>Node3&#45;&gt;Node4</title>
<g id="a_edge3_Node000003_Node000004"><a xlink:title=" ">
<path fill="none" stroke="#63b8ff" d="M716.33,-53.3C708.44,-54.49 700.34,-55.71 692.38,-56.91"/>
<polygon fill="#63b8ff" stroke="#63b8ff" points="716.82,-56.77 726.19,-51.82 715.78,-49.85 716.82,-56.77"/>
</a>
</g>
</g>
<!-- Node5 -->
<g id="Node000005" class="node">
<title>Node5</title>
<g id="a_Node000005"><a xlink:href="structxpath__parser.html#a7738e256011ca842dc2a0beba78562ed" target="_top" xlink:title=" ">
<polygon fill="white" stroke="#666666" points="382.5,-63 280.25,-63 280.25,-31 382.5,-31 382.5,-63"/>
<text xml:space="preserve" text-anchor="start" x="288.25" y="-49.5" font-family="Helvetica,sans-Serif" font-size="10.00">xpath_parser::parse</text>
<text xml:space="preserve" text-anchor="middle" x="331.38" y="-37.5" font-family="Helvetica,sans-Serif" font-size="10.00">_expression</text>
</a>
</g>
</g>
<!-- Node4&#45;&gt;Node5 -->
<g id="edge4_Node000004_Node000005" class="edge">
<title>Node4&#45;&gt;Node5</title>
<g id="a_edge4_Node000004_Node000005"><a xlink:title=" ">
<path fill="none" stroke="#63b8ff" d="M545.19,-55.56C493.66,-50.89 427.68,-46.62 382.95,-45.21"/>
<polygon fill="#63b8ff" stroke="#63b8ff" points="544.82,-59.05 555.11,-56.49 545.48,-52.08 544.82,-59.05"/>
</a>
</g>
</g>
<!-- Node10 -->
<g id="Node000010" class="node">
<title>Node10</title>
<g id="a_Node000010"><a xlink:href="structxpath__parser.html#adcd54e9b508acfe1f040ee7a54b88f2a" target="_top" xlink:title=" ">
<polygon fill="white" stroke="#666666" points="520.75,-116 418.5,-116 418.5,-84 520.75,-84 520.75,-116"/>
<text xml:space="preserve" text-anchor="start" x="426.5" y="-102.5" font-family="Helvetica,sans-Serif" font-size="10.00">xpath_parser::parse</text>
<text xml:space="preserve" text-anchor="middle" x="469.62" y="-90.5" font-family="Helvetica,sans-Serif" font-size="10.00">_expression_rec</text>
</a>
</g>
</g>
<!-- Node4&#45;&gt;Node10 -->
<g id="edge13_Node000004_Node000010" class="edge">
<title>Node4&#45;&gt;Node10</title>
<g id="a_edge13_Node000004_Node000010"><a xlink:title=" ">
<path fill="none" stroke="#63b8ff" d="M545.2,-83.89C536.99,-85.66 528.81,-87.43 521.03,-89.11"/>
<polygon fill="#63b8ff" stroke="#63b8ff" points="545.86,-87.33 554.9,-81.79 544.38,-80.48 545.86,-87.33"/>
</a>
</g>
</g>
<!-- Node5&#45;&gt;Node1 -->
<g id="edge12_Node000005_Node000001" class="edge">
<title>Node5&#45;&gt;Node1</title>
<g id="a_edge12_Node000005_Node000001"><a xlink:title=" ">
<path fill="none" stroke="#63b8ff" d="M393.88,-31.2C452.46,-17.55 543.33,0 623.38,0 780.12,0 780.12,0 780.12,0 862.38,0 956.97,-8.33 1017.59,-14.74"/>
<polygon fill="#63b8ff" stroke="#63b8ff" points="393.36,-27.72 384.44,-33.43 394.98,-34.53 393.36,-27.72"/>
</a>
</g>
</g>
<!-- Node5&#45;&gt;Node4 -->
<g id="edge9_Node000005_Node000004" class="edge">
<title>Node5&#45;&gt;Node4</title>
<g id="a_edge9_Node000005_Node000004"><a xlink:title=" ">
<path fill="none" stroke="#63b8ff" d="M394.35,-56.9C442.02,-61.61 507.78,-66.17 556.61,-68.19"/>
<polygon fill="#63b8ff" stroke="#63b8ff" points="394.75,-53.43 384.45,-55.89 394.04,-60.39 394.75,-53.43"/>
</a>
</g>
</g>
<!-- Node6 -->
<g id="Node000006" class="node">
<title>Node6</title>
<g id="a_Node000006"><a xlink:href="structxpath__parser.html#aa3fe0e7d23131b3943d8248646ecd362" target="_top" xlink:title=" ">
<polygon fill="white" stroke="#666666" points="242.38,-33 140.12,-33 140.12,-13 242.38,-13 242.38,-33"/>
<text xml:space="preserve" text-anchor="middle" x="191.25" y="-19.5" font-family="Helvetica,sans-Serif" font-size="10.00">xpath_parser::parse</text>
</a>
</g>
</g>
<!-- Node5&#45;&gt;Node6 -->
<g id="edge5_Node000005_Node000006" class="edge">
<title>Node5&#45;&gt;Node6</title>
<g id="a_edge5_Node000005_Node000006"><a xlink:title=" ">
<path fill="none" stroke="#63b8ff" d="M268.79,-36.3C260.07,-34.78 251.18,-33.24 242.7,-31.77"/>
<polygon fill="#63b8ff" stroke="#63b8ff" points="268.18,-39.74 278.63,-38.01 269.37,-32.85 268.18,-39.74"/>
</a>
</g>
</g>
<!-- Node8 -->
<g id="Node000008" class="node">
<title>Node8</title>
<g id="a_Node000008"><a xlink:href="structxpath__parser.html#a61a425d990a56d5db8cd14405835a5b6" target="_top" xlink:title=" ">
<polygon fill="white" stroke="#666666" points="102.25,-121 0,-121 0,-89 102.25,-89 102.25,-121"/>
<text xml:space="preserve" text-anchor="start" x="8" y="-107.5" font-family="Helvetica,sans-Serif" font-size="10.00">xpath_parser::parse</text>
<text xml:space="preserve" text-anchor="middle" x="51.12" y="-95.5" font-family="Helvetica,sans-Serif" font-size="10.00">_filter_expression</text>
</a>
</g>
</g>
<!-- Node5&#45;&gt;Node8 -->
<g id="edge7_Node000005_Node000008" class="edge">
<title>Node5&#45;&gt;Node8</title>
<g id="a_edge7_Node000005_Node000008"><a xlink:title=" ">
<path fill="none" stroke="#63b8ff" d="M268.55,-55.81C230.72,-61.65 181.44,-70.06 138.25,-80 126.57,-82.69 114.12,-86.02 102.43,-89.37"/>
<polygon fill="#63b8ff" stroke="#63b8ff" points="269.05,-59.28 278.41,-54.31 268,-52.36 269.05,-59.28"/>
</a>
</g>
</g>
<!-- Node9 -->
<g id="Node000009" class="node">
<title>Node9</title>
<g id="a_Node000009"><a xlink:href="structxpath__parser.html#a49cbc6141508ace22ab4b8bd8ddf965a" target="_top" xlink:title=" ">
<polygon fill="white" stroke="#666666" points="244.25,-121 138.25,-121 138.25,-89 244.25,-89 244.25,-121"/>
<text xml:space="preserve" text-anchor="start" x="146.25" y="-107.5" font-family="Helvetica,sans-Serif" font-size="10.00">xpath_parser::parse</text>
<text xml:space="preserve" text-anchor="middle" x="191.25" y="-95.5" font-family="Helvetica,sans-Serif" font-size="10.00">_primary_expression</text>
</a>
</g>
</g>
<!-- Node5&#45;&gt;Node9 -->
<g id="edge10_Node000005_Node000009" class="edge">
<title>Node5&#45;&gt;Node9</title>
<g id="a_edge10_Node000005_Node000009"><a xlink:title=" ">
<path fill="none" stroke="#63b8ff" d="M280.7,-67.86C264.38,-74.71 246.48,-82.23 231.08,-88.69"/>
<polygon fill="#63b8ff" stroke="#63b8ff" points="281.9,-71.15 289.77,-64.05 279.19,-64.7 281.9,-71.15"/>
</a>
</g>
</g>
<!-- Node7 -->
<g id="Node000007" class="node">
<title>Node7</title>
<g id="a_Node000007"><a xlink:href="structxpath__parser.html#aad773be8b591966eb535018fcc2b6a66" target="_top" xlink:title=" ">
<polygon fill="white" stroke="#666666" points="102.25,-33 0,-33 0,-13 102.25,-13 102.25,-33"/>
<text xml:space="preserve" text-anchor="middle" x="51.12" y="-19.5" font-family="Helvetica,sans-Serif" font-size="10.00">xpath_parser::parse</text>
</a>
</g>
</g>
<!-- Node6&#45;&gt;Node7 -->
<g id="edge6_Node000006_Node000007" class="edge">
<title>Node6&#45;&gt;Node7</title>
<g id="a_edge6_Node000006_Node000007"><a xlink:title=" ">
<path fill="none" stroke="#63b8ff" d="M128.66,-23C119.94,-23 111.06,-23 102.58,-23"/>
<polygon fill="#63b8ff" stroke="#63b8ff" points="128.48,-26.5 138.48,-23 128.48,-19.5 128.48,-26.5"/>
</a>
</g>
</g>
<!-- Node8&#45;&gt;Node4 -->
<g id="edge8_Node000008_Node000004" class="edge">
<title>Node8&#45;&gt;Node4</title>
<g id="a_edge8_Node000008_Node000004"><a xlink:title=" ">
<path fill="none" stroke="#63b8ff" d="M112.81,-124.71C203.9,-151.05 380.3,-189.34 520.75,-143 556.33,-131.26 589.66,-101.9 608.2,-83.3"/>
<polygon fill="#63b8ff" stroke="#63b8ff" points="113.9,-121.38 103.31,-121.91 111.92,-128.1 113.9,-121.38"/>
</a>
</g>
</g>
<!-- Node9&#45;&gt;Node8 -->
<g id="edge11_Node000009_Node000008" class="edge">
<title>Node9&#45;&gt;Node8</title>
<g id="a_edge11_Node000009_Node000008"><a xlink:title=" ">
<path fill="none" stroke="#63b8ff" d="M126.71,-105C118.62,-105 110.43,-105 102.59,-105"/>
<polygon fill="#63b8ff" stroke="#63b8ff" points="126.52,-108.5 136.52,-105 126.52,-101.5 126.52,-108.5"/>
</a>
</g>
</g>
<!-- Node10&#45;&gt;Node5 -->
<g id="edge14_Node000010_Node000005" class="edge">
<title>Node10&#45;&gt;Node5</title>
<g id="a_edge14_Node000010_Node000005"><a xlink:title=" ">
<path fill="none" stroke="#63b8ff" d="M415.61,-79.38C402.05,-74.1 387.65,-68.5 374.71,-63.47"/>
<polygon fill="#63b8ff" stroke="#63b8ff" points="414.26,-82.61 424.85,-82.97 416.8,-76.09 414.26,-82.61"/>
</a>
</g>
</g>
<!-- Node10&#45;&gt;Node10 -->
<g id="edge15_Node000010_Node000010" class="edge">
<title>Node10&#45;&gt;Node10</title>
<g id="a_edge15_Node000010_Node000010"><a xlink:title=" ">
<path fill="none" stroke="#63b8ff" d="M492.66,-127.71C488.82,-131.48 481.14,-134 469.62,-134 448.56,-134 440.34,-125.58 444.94,-116.44"/>
<polygon fill="#63b8ff" stroke="#63b8ff" points="496.11,-128.34 494.09,-117.94 489.18,-127.33 496.11,-128.34"/>
</a>
</g>
</g>
</g>
</svg>
