<?xml version="1.0" encoding="UTF-8" standalone="no"?>
<!DOCTYPE svg PUBLIC "-//W3C//DTD SVG 1.1//EN"
 "http://www.w3.org/Graphics/SVG/1.1/DTD/svg11.dtd">
<!-- Generated by graphviz version 14.1.2 (20260124.0452)
 -->
<!-- Title: MVPVulkan/GEDescriptorSet.h Pages: 1 -->
<svg width="686pt" height="252pt"
 viewBox="0.00 0.00 686.00 252.00" xmlns="http://www.w3.org/2000/svg" xmlns:xlink="http://www.w3.org/1999/xlink">
<g id="graph0" class="graph" transform="scale(1 1) rotate(0) translate(4 248)">
<title>MVPVulkan/GEDescriptorSet.h</title>
<!-- Node1 -->
<g id="Node000001" class="node">
<title>Node1</title>
<g id="a_Node000001"><a xlink:title="Declaración de la clase GEDescriptorSet para gestionar conjuntos de descriptores.">
<polygon fill="#999999" stroke="#666666" points="530.25,-244 377.75,-244 377.75,-224 530.25,-224 530.25,-244"/>
<text xml:space="preserve" text-anchor="middle" x="454" y="-230.5" font-family="Helvetica,sans-Serif" font-size="10.00">MVPVulkan/GEDescriptorSet.h</text>
</a>
</g>
</g>
<!-- Node2 -->
<g id="Node000002" class="node">
<title>Node2</title>
<g id="a_Node000002"><a xlink:title=" ">
<polygon fill="#e0e0e0" stroke="#999999" points="301.12,-20 216.88,-20 216.88,0 301.12,0 301.12,-20"/>
<text xml:space="preserve" text-anchor="middle" x="259" y="-6.5" font-family="Helvetica,sans-Serif" font-size="10.00">vulkan/vulkan.h</text>
</a>
</g>
</g>
<!-- Node1&#45;&gt;Node2 -->
<g id="edge1_Node000001_Node000002" class="edge">
<title>Node1&#45;&gt;Node2</title>
<g id="a_edge1_Node000001_Node000002"><a xlink:title=" ">
<path fill="none" stroke="#63b8ff" d="M517.72,-223.56C594.37,-209.18 708.28,-176.38 670,-112 643.37,-67.21 616.44,-72.47 567,-56 480.84,-27.3 375.09,-16.89 312.58,-13.12"/>
<polygon fill="#63b8ff" stroke="#63b8ff" points="313.12,-9.65 302.94,-12.58 312.73,-16.64 313.12,-9.65"/>
</a>
</g>
</g>
<!-- Node3 -->
<g id="Node000003" class="node">
<title>Node3</title>
<g id="a_Node000003"><a xlink:title=" ">
<polygon fill="#e0e0e0" stroke="#999999" points="529.5,-76 486.5,-76 486.5,-56 529.5,-56 529.5,-76"/>
<text xml:space="preserve" text-anchor="middle" x="508" y="-62.5" font-family="Helvetica,sans-Serif" font-size="10.00">vector</text>
</a>
</g>
</g>
<!-- Node1&#45;&gt;Node3 -->
<g id="edge2_Node000001_Node000003" class="edge">
<title>Node1&#45;&gt;Node3</title>
<g id="a_edge2_Node000001_Node000003"><a xlink:title=" ">
<path fill="none" stroke="#63b8ff" d="M461.6,-223.72C474.95,-206.78 502.1,-169.12 512,-132 515.89,-117.43 514.64,-100.4 512.55,-87.42"/>
<polygon fill="#63b8ff" stroke="#63b8ff" points="516.05,-87.08 510.72,-77.93 509.17,-88.41 516.05,-87.08"/>
</a>
</g>
</g>
<!-- Node4 -->
<g id="Node000004" class="node">
<title>Node4</title>
<g id="a_Node000004"><a xlink:href="_g_e_graphics_context_8h.html" target="_top" xlink:title="Declaración de la clase GEGraphicsContext que almacena el contexto gráfico de Vulkan.">
<polygon fill="white" stroke="#666666" points="112,-76 0,-76 0,-56 112,-56 112,-76"/>
<text xml:space="preserve" text-anchor="middle" x="56" y="-62.5" font-family="Helvetica,sans-Serif" font-size="10.00">GEGraphicsContext.h</text>
</a>
</g>
</g>
<!-- Node1&#45;&gt;Node4 -->
<g id="edge3_Node000001_Node000004" class="edge">
<title>Node1&#45;&gt;Node4</title>
<g id="a_edge3_Node000001_Node000004"><a xlink:title=" ">
<path fill="none" stroke="#63b8ff" d="M377.33,-226.68C318.36,-220.48 235.36,-208.83 165,-188 106.63,-170.72 73.1,-183.09 40,-132 31.03,-118.15 36.93,-99.66 43.97,-85.94"/>
<polygon fill="#63b8ff" stroke="#63b8ff" points="46.9,-87.87 48.85,-77.46 40.83,-84.38 46.9,-87.87"/>
</a>
</g>
</g>
<!-- Node6 -->
<g id="Node000006" class="node">
<title>Node6</title>
<g id="a_Node000006"><a xlink:href="_g_e_rendering_context_8h.html" target="_top" xlink:title="Declaración de la clase GERenderingContext que describe un contexto de renderizado.">
<polygon fill="white" stroke="#666666" points="291.62,-188 174.38,-188 174.38,-168 291.62,-168 291.62,-188"/>
<text xml:space="preserve" text-anchor="middle" x="233" y="-174.5" font-family="Helvetica,sans-Serif" font-size="10.00">GERenderingContext.h</text>
</a>
</g>
</g>
<!-- Node1&#45;&gt;Node6 -->
<g id="edge6_Node000001_Node000006" class="edge">
<title>Node1&#45;&gt;Node6</title>
<g id="a_edge6_Node000001_Node000006"><a xlink:title=" ">
<path fill="none" stroke="#63b8ff" d="M415.25,-223.53C378.44,-214.54 322.92,-200.97 282.83,-191.18"/>
<polygon fill="#63b8ff" stroke="#63b8ff" points="283.72,-187.79 273.17,-188.82 282.06,-194.59 283.72,-187.79"/>
</a>
</g>
</g>
<!-- Node12 -->
<g id="Node000012" class="node">
<title>Node12</title>
<g id="a_Node000012"><a xlink:href="_g_e_uniform_buffer_8h.html" target="_top" xlink:title=" ">
<polygon fill="white" stroke="#666666" points="503.25,-132 404.75,-132 404.75,-112 503.25,-112 503.25,-132"/>
<text xml:space="preserve" text-anchor="middle" x="454" y="-118.5" font-family="Helvetica,sans-Serif" font-size="10.00">GEUniformBuffer.h</text>
</a>
</g>
</g>
<!-- Node1&#45;&gt;Node12 -->
<g id="edge21_Node000001_Node000012" class="edge">
<title>Node1&#45;&gt;Node12</title>
<g id="a_edge21_Node000001_Node000012"><a xlink:title=" ">
<path fill="none" stroke="#63b8ff" d="M454,-223.62C454,-206.01 454,-167.59 454,-143.65"/>
<polygon fill="#63b8ff" stroke="#63b8ff" points="457.5,-143.87 454,-133.87 450.5,-143.87 457.5,-143.87"/>
</a>
</g>
</g>
<!-- Node4&#45;&gt;Node2 -->
<g id="edge5_Node000004_Node000002" class="edge">
<title>Node4&#45;&gt;Node2</title>
<g id="a_edge5_Node000004_Node000002"><a xlink:title=" ">
<path fill="none" stroke="#63b8ff" d="M91.36,-55.59C124.92,-46.67 175.57,-33.19 212.41,-23.39"/>
<polygon fill="#63b8ff" stroke="#63b8ff" points="213.14,-26.82 221.9,-20.87 211.34,-20.06 213.14,-26.82"/>
</a>
</g>
</g>
<!-- Node5 -->
<g id="Node000005" class="node">
<title>Node5</title>
<g id="a_Node000005"><a xlink:title=" ">
<polygon fill="#e0e0e0" stroke="#999999" points="95.5,-20 16.5,-20 16.5,0 95.5,0 95.5,-20"/>
<text xml:space="preserve" text-anchor="middle" x="56" y="-6.5" font-family="Helvetica,sans-Serif" font-size="10.00">GLFW/glfw3.h</text>
</a>
</g>
</g>
<!-- Node4&#45;&gt;Node5 -->
<g id="edge4_Node000004_Node000005" class="edge">
<title>Node4&#45;&gt;Node5</title>
<g id="a_edge4_Node000004_Node000005"><a xlink:title=" ">
<path fill="none" stroke="#63b8ff" d="M56,-55.59C56,-49.01 56,-39.96 56,-31.73"/>
<polygon fill="#63b8ff" stroke="#63b8ff" points="59.5,-31.81 56,-21.81 52.5,-31.81 59.5,-31.81"/>
</a>
</g>
</g>
<!-- Node6&#45;&gt;Node2 -->
<g id="edge7_Node000006_Node000002" class="edge">
<title>Node6&#45;&gt;Node2</title>
<g id="a_edge7_Node000006_Node000002"><a xlink:title=" ">
<path fill="none" stroke="#63b8ff" d="M222.15,-167.53C213.47,-159.18 201.97,-146.16 197,-132 194.06,-123.61 194.58,-120.55 197,-112 206,-80.13 228.19,-48.41 243.43,-29.25"/>
<polygon fill="#63b8ff" stroke="#63b8ff" points="246.06,-31.56 249.69,-21.61 240.65,-27.12 246.06,-31.56"/>
</a>
</g>
</g>
<!-- Node6&#45;&gt;Node4 -->
<g id="edge9_Node000006_Node000004" class="edge">
<title>Node6&#45;&gt;Node4</title>
<g id="a_edge9_Node000006_Node000004"><a xlink:title=" ">
<path fill="none" stroke="#63b8ff" d="M173.91,-170.26C126.75,-163.53 66.15,-151.35 51,-132 41.08,-119.33 43.72,-100.68 48.03,-86.6"/>
<polygon fill="#63b8ff" stroke="#63b8ff" points="51.21,-88.11 51.29,-77.51 44.62,-85.74 51.21,-88.11"/>
</a>
</g>
</g>
<!-- Node7 -->
<g id="Node000007" class="node">
<title>Node7</title>
<g id="a_Node000007"><a xlink:title=" ">
<polygon fill="#e0e0e0" stroke="#999999" points="259.75,-132 206.25,-132 206.25,-112 259.75,-112 259.75,-132"/>
<text xml:space="preserve" text-anchor="middle" x="233" y="-118.5" font-family="Helvetica,sans-Serif" font-size="10.00">iostream</text>
</a>
</g>
</g>
<!-- Node6&#45;&gt;Node7 -->
<g id="edge8_Node000006_Node000007" class="edge">
<title>Node6&#45;&gt;Node7</title>
<g id="a_edge8_Node000006_Node000007"><a xlink:title=" ">
<path fill="none" stroke="#63b8ff" d="M233,-167.59C233,-161.01 233,-151.96 233,-143.73"/>
<polygon fill="#63b8ff" stroke="#63b8ff" points="236.5,-143.81 233,-133.81 229.5,-143.81 236.5,-143.81"/>
</a>
</g>
</g>
<!-- Node8 -->
<g id="Node000008" class="node">
<title>Node8</title>
<g id="a_Node000008"><a xlink:href="_g_e_drawing_context_8h.html" target="_top" xlink:title="Declaración de la clase GEDrawingContext para gestionar swapchain y present.">
<polygon fill="white" stroke="#666666" points="386.5,-132 277.5,-132 277.5,-112 386.5,-112 386.5,-132"/>
<text xml:space="preserve" text-anchor="middle" x="332" y="-118.5" font-family="Helvetica,sans-Serif" font-size="10.00">GEDrawingContext.h</text>
</a>
</g>
</g>
<!-- Node6&#45;&gt;Node8 -->
<g id="edge10_Node000006_Node000008" class="edge">
<title>Node6&#45;&gt;Node8</title>
<g id="a_edge10_Node000006_Node000008"><a xlink:title=" ">
<path fill="none" stroke="#63b8ff" d="M250.24,-167.59C265.34,-159.36 287.53,-147.26 304.98,-137.74"/>
<polygon fill="#63b8ff" stroke="#63b8ff" points="306.19,-141.07 313.29,-133.2 302.84,-134.92 306.19,-141.07"/>
</a>
</g>
</g>
<!-- Node10 -->
<g id="Node000010" class="node">
<title>Node10</title>
<g id="a_Node000010"><a xlink:href="_g_e_pipeline_config_8h.html" target="_top" xlink:title="Declaración de la clase GEPipelineConfig que almacena la configuración de un pipeline de renderizado.">
<polygon fill="white" stroke="#666666" points="660.75,-132 559.25,-132 559.25,-112 660.75,-112 660.75,-132"/>
<text xml:space="preserve" text-anchor="middle" x="610" y="-118.5" font-family="Helvetica,sans-Serif" font-size="10.00">GEPipelineConfig.h</text>
</a>
</g>
</g>
<!-- Node6&#45;&gt;Node10 -->
<g id="edge15_Node000006_Node000010" class="edge">
<title>Node6&#45;&gt;Node10</title>
<g id="a_edge15_Node000006_Node000010"><a xlink:title=" ">
<path fill="none" stroke="#63b8ff" d="M291.91,-168.56C361.49,-158.6 476.75,-142.09 547.76,-131.91"/>
<polygon fill="#63b8ff" stroke="#63b8ff" points="547.86,-135.44 557.27,-130.55 546.87,-128.51 547.86,-135.44"/>
</a>
</g>
</g>
<!-- Node11 -->
<g id="Node000011" class="node">
<title>Node11</title>
<g id="a_Node000011"><a xlink:href="_g_e_depth_buffer_8h.html" target="_top" xlink:title="Declaración de la clase GEDepthBuffer que gestiona el recurso de profundidad.">
<polygon fill="white" stroke="#666666" points="150.12,-132 59.88,-132 59.88,-112 150.12,-112 150.12,-132"/>
<text xml:space="preserve" text-anchor="middle" x="105" y="-118.5" font-family="Helvetica,sans-Serif" font-size="10.00">GEDepthBuffer.h</text>
</a>
</g>
</g>
<!-- Node6&#45;&gt;Node11 -->
<g id="edge18_Node000006_Node000011" class="edge">
<title>Node6&#45;&gt;Node11</title>
<g id="a_edge18_Node000006_Node000011"><a xlink:title=" ">
<path fill="none" stroke="#63b8ff" d="M210.7,-167.59C190.64,-159.13 160.88,-146.58 138.05,-136.94"/>
<polygon fill="#63b8ff" stroke="#63b8ff" points="139.44,-133.73 128.86,-133.07 136.72,-140.18 139.44,-133.73"/>
</a>
</g>
</g>
<!-- Node8&#45;&gt;Node2 -->
<g id="edge11_Node000008_Node000002" class="edge">
<title>Node8&#45;&gt;Node2</title>
<g id="a_edge11_Node000008_Node000002"><a xlink:title=" ">
<path fill="none" stroke="#63b8ff" d="M316.91,-111.7C305.01,-103.63 288.83,-90.92 279,-76 270.05,-62.41 264.94,-44.62 262.13,-31.08"/>
<polygon fill="#63b8ff" stroke="#63b8ff" points="265.63,-30.8 260.42,-21.58 258.74,-32.04 265.63,-30.8"/>
</a>
</g>
</g>
<!-- Node8&#45;&gt;Node3 -->
<g id="edge12_Node000008_Node000003" class="edge">
<title>Node8&#45;&gt;Node3</title>
<g id="a_edge12_Node000008_Node000003"><a xlink:title=" ">
<path fill="none" stroke="#63b8ff" d="M362.66,-111.59C394.2,-101.92 443.14,-86.9 475.38,-77.01"/>
<polygon fill="#63b8ff" stroke="#63b8ff" points="476.05,-80.46 484.59,-74.18 474,-73.77 476.05,-80.46"/>
</a>
</g>
</g>
<!-- Node8&#45;&gt;Node4 -->
<g id="edge13_Node000008_Node000004" class="edge">
<title>Node8&#45;&gt;Node4</title>
<g id="a_edge13_Node000008_Node000004"><a xlink:title=" ">
<path fill="none" stroke="#63b8ff" d="M283.61,-111.53C236.75,-102.36 165.61,-88.45 115.36,-78.61"/>
<polygon fill="#63b8ff" stroke="#63b8ff" points="116.31,-75.23 105.82,-76.75 114.96,-82.1 116.31,-75.23"/>
</a>
</g>
</g>
<!-- Node9 -->
<g id="Node000009" class="node">
<title>Node9</title>
<g id="a_Node000009"><a xlink:href="_g_e_window_position_8h.html" target="_top" xlink:title="Declaración de la estructura GEWindowPosition para ventanas.">
<polygon fill="white" stroke="#666666" points="396.5,-76 287.5,-76 287.5,-56 396.5,-56 396.5,-76"/>
<text xml:space="preserve" text-anchor="middle" x="342" y="-62.5" font-family="Helvetica,sans-Serif" font-size="10.00">GEWindowPosition.h</text>
</a>
</g>
</g>
<!-- Node8&#45;&gt;Node9 -->
<g id="edge14_Node000008_Node000009" class="edge">
<title>Node8&#45;&gt;Node9</title>
<g id="a_edge14_Node000008_Node000009"><a xlink:title=" ">
<path fill="none" stroke="#63b8ff" d="M333.74,-111.59C334.98,-104.93 336.68,-95.75 338.21,-87.44"/>
<polygon fill="#63b8ff" stroke="#63b8ff" points="341.62,-88.26 340,-77.79 334.74,-86.98 341.62,-88.26"/>
</a>
</g>
</g>
<!-- Node10&#45;&gt;Node2 -->
<g id="edge16_Node000010_Node000002" class="edge">
<title>Node10&#45;&gt;Node2</title>
<g id="a_edge16_Node000010_Node000002"><a xlink:title=" ">
<path fill="none" stroke="#63b8ff" d="M602.88,-111.64C591.25,-97.11 566.68,-69.38 539,-56 466.07,-20.74 371.23,-12.22 312.76,-10.63"/>
<polygon fill="#63b8ff" stroke="#63b8ff" points="313.15,-7.13 303.08,-10.43 313.01,-14.13 313.15,-7.13"/>
</a>
</g>
</g>
<!-- Node10&#45;&gt;Node3 -->
<g id="edge17_Node000010_Node000003" class="edge">
<title>Node10&#45;&gt;Node3</title>
<g id="a_edge17_Node000010_Node000003"><a xlink:title=" ">
<path fill="none" stroke="#63b8ff" d="M592.23,-111.59C576.68,-103.36 553.82,-91.26 535.84,-81.74"/>
<polygon fill="#63b8ff" stroke="#63b8ff" points="537.72,-78.77 527.24,-77.19 534.44,-84.96 537.72,-78.77"/>
</a>
</g>
</g>
<!-- Node11&#45;&gt;Node2 -->
<g id="edge19_Node000011_Node000002" class="edge">
<title>Node11&#45;&gt;Node2</title>
<g id="a_edge19_Node000011_Node000002"><a xlink:title=" ">
<path fill="none" stroke="#63b8ff" d="M111.69,-111.54C121.75,-97.84 141.96,-72.34 164,-56 181.44,-43.07 203.19,-32.43 221.48,-24.76"/>
<polygon fill="#63b8ff" stroke="#63b8ff" points="222.7,-28.04 230.66,-21.04 220.08,-21.55 222.7,-28.04"/>
</a>
</g>
</g>
<!-- Node11&#45;&gt;Node4 -->
<g id="edge20_Node000011_Node000004" class="edge">
<title>Node11&#45;&gt;Node4</title>
<g id="a_edge20_Node000011_Node000004"><a xlink:title=" ">
<path fill="none" stroke="#63b8ff" d="M96.46,-111.59C89.72,-104.16 80.11,-93.58 71.96,-84.58"/>
<polygon fill="#63b8ff" stroke="#63b8ff" points="74.77,-82.47 65.45,-77.42 69.58,-87.18 74.77,-82.47"/>
</a>
</g>
</g>
<!-- Node12&#45;&gt;Node2 -->
<g id="edge23_Node000012_Node000002" class="edge">
<title>Node12&#45;&gt;Node2</title>
<g id="a_edge23_Node000012_Node000002"><a xlink:title=" ">
<path fill="none" stroke="#63b8ff" d="M449.51,-111.54C442.31,-97.38 426.84,-70.75 406,-56 378.38,-36.45 342.05,-25.23 312.42,-18.88"/>
<polygon fill="#63b8ff" stroke="#63b8ff" points="313.41,-15.5 302.91,-16.97 312.03,-22.37 313.41,-15.5"/>
</a>
</g>
</g>
<!-- Node12&#45;&gt;Node3 -->
<g id="edge24_Node000012_Node000003" class="edge">
<title>Node12&#45;&gt;Node3</title>
<g id="a_edge24_Node000012_Node000003"><a xlink:title=" ">
<path fill="none" stroke="#63b8ff" d="M463.41,-111.59C470.92,-104.08 481.65,-93.35 490.7,-84.3"/>
<polygon fill="#63b8ff" stroke="#63b8ff" points="493.04,-86.91 497.63,-77.37 488.09,-81.96 493.04,-86.91"/>
</a>
</g>
</g>
<!-- Node12&#45;&gt;Node4 -->
<g id="edge22_Node000012_Node000004" class="edge">
<title>Node12&#45;&gt;Node4</title>
<g id="a_edge22_Node000012_Node000004"><a xlink:title=" ">
<path fill="none" stroke="#63b8ff" d="M404.34,-113.22C401.52,-112.8 398.72,-112.39 396,-112 301.51,-98.42 192.02,-84.2 123.38,-75.47"/>
<polygon fill="#63b8ff" stroke="#63b8ff" points="124.17,-72.04 113.81,-74.25 123.28,-78.98 124.17,-72.04"/>
</a>
</g>
</g>
</g>
</svg>
