<?xml version="1.0" encoding="UTF-8" standalone="no"?>
<!DOCTYPE svg PUBLIC "-//W3C//DTD SVG 1.1//EN"
 "http://www.w3.org/Graphics/SVG/1.1/DTD/svg11.dtd">
<!-- Generated by graphviz version 14.1.2 (20260124.0452)
 -->
<!-- Title: MVPVulkan/GEDescriptorSet.cpp Pages: 1 -->
<svg width="677pt" height="308pt"
 viewBox="0.00 0.00 677.00 308.00" xmlns="http://www.w3.org/2000/svg" xmlns:xlink="http://www.w3.org/1999/xlink">
<g id="graph0" class="graph" transform="scale(1 1) rotate(0) translate(4 304)">
<title>MVPVulkan/GEDescriptorSet.cpp</title>
<!-- Node1 -->
<g id="Node000001" class="node">
<title>Node1</title>
<g id="a_Node000001"><a xlink:title="Implementación de la clase GEDescriptorSet.">
<polygon fill="#999999" stroke="#666666" points="222.46,-300 59.46,-300 59.46,-280 222.46,-280 222.46,-300"/>
<text xml:space="preserve" text-anchor="middle" x="140.96" y="-286.5" font-family="Helvetica,sans-Serif" font-size="10.00">MVPVulkan/GEDescriptorSet.cpp</text>
</a>
</g>
</g>
<!-- Node2 -->
<g id="Node000002" class="node">
<title>Node2</title>
<g id="a_Node000002"><a xlink:href="_g_e_descriptor_set_8h.html" target="_top" xlink:title="Declaración de la clase GEDescriptorSet para gestionar conjuntos de descriptores.">
<polygon fill="white" stroke="#666666" points="190.21,-244 91.71,-244 91.71,-224 190.21,-224 190.21,-244"/>
<text xml:space="preserve" text-anchor="middle" x="140.96" y="-230.5" font-family="Helvetica,sans-Serif" font-size="10.00">GEDescriptorSet.h</text>
</a>
</g>
</g>
<!-- Node1&#45;&gt;Node2 -->
<g id="edge1_Node000001_Node000002" class="edge">
<title>Node1&#45;&gt;Node2</title>
<g id="a_edge1_Node000001_Node000002"><a xlink:title=" ">
<path fill="none" stroke="#63b8ff" d="M140.96,-279.59C140.96,-273.01 140.96,-263.96 140.96,-255.73"/>
<polygon fill="#63b8ff" stroke="#63b8ff" points="144.46,-255.81 140.96,-245.81 137.46,-255.81 144.46,-255.81"/>
</a>
</g>
</g>
<!-- Node8 -->
<g id="Node000008" class="node">
<title>Node8</title>
<g id="a_Node000008"><a xlink:title=" ">
<polygon fill="#e0e0e0" stroke="#999999" points="654.71,-132 601.21,-132 601.21,-112 654.71,-112 654.71,-132"/>
<text xml:space="preserve" text-anchor="middle" x="627.96" y="-118.5" font-family="Helvetica,sans-Serif" font-size="10.00">iostream</text>
</a>
</g>
</g>
<!-- Node1&#45;&gt;Node8 -->
<g id="edge27_Node000001_Node000008" class="edge">
<title>Node1&#45;&gt;Node8</title>
<g id="a_edge27_Node000001_Node000008"><a xlink:title=" ">
<path fill="none" stroke="#63b8ff" d="M170.9,-279.59C226.22,-262.12 348.08,-223.24 449.96,-188 499.69,-170.8 556.76,-149.72 592.59,-136.32"/>
<polygon fill="#63b8ff" stroke="#63b8ff" points="593.44,-139.74 601.58,-132.95 590.99,-133.18 593.44,-139.74"/>
</a>
</g>
</g>
<!-- Node13 -->
<g id="Node000013" class="node">
<title>Node13</title>
<g id="a_Node000013"><a xlink:href="_g_e_uniform_buffer_8h.html" target="_top" xlink:title=" ">
<polygon fill="white" stroke="#666666" points="113.21,-132 14.71,-132 14.71,-112 113.21,-112 113.21,-132"/>
<text xml:space="preserve" text-anchor="middle" x="63.96" y="-118.5" font-family="Helvetica,sans-Serif" font-size="10.00">GEUniformBuffer.h</text>
</a>
</g>
</g>
<!-- Node1&#45;&gt;Node13 -->
<g id="edge26_Node000001_Node000013" class="edge">
<title>Node1&#45;&gt;Node13</title>
<g id="a_edge26_Node000001_Node000013"><a xlink:title=" ">
<path fill="none" stroke="#63b8ff" d="M122.45,-279.61C109.23,-271.9 92.22,-259.69 82.96,-244 64.45,-212.66 62.2,-169.14 62.74,-143.73"/>
<polygon fill="#63b8ff" stroke="#63b8ff" points="66.23,-143.9 63.14,-133.77 59.24,-143.62 66.23,-143.9"/>
</a>
</g>
</g>
<!-- Node3 -->
<g id="Node000003" class="node">
<title>Node3</title>
<g id="a_Node000003"><a xlink:title=" ">
<polygon fill="#e0e0e0" stroke="#999999" points="327.08,-20 242.83,-20 242.83,0 327.08,0 327.08,-20"/>
<text xml:space="preserve" text-anchor="middle" x="284.96" y="-6.5" font-family="Helvetica,sans-Serif" font-size="10.00">vulkan/vulkan.h</text>
</a>
</g>
</g>
<!-- Node2&#45;&gt;Node3 -->
<g id="edge2_Node000002_Node000003" class="edge">
<title>Node2&#45;&gt;Node3</title>
<g id="a_edge2_Node000002_Node000003"><a xlink:title=" ">
<path fill="none" stroke="#63b8ff" d="M113.25,-223.58C65.81,-205.82 -23.16,-164.41 5.96,-112 49.53,-33.57 162.96,-15.11 231.02,-11.32"/>
<polygon fill="#63b8ff" stroke="#63b8ff" points="231.01,-14.82 240.84,-10.87 230.69,-7.83 231.01,-14.82"/>
</a>
</g>
</g>
<!-- Node4 -->
<g id="Node000004" class="node">
<title>Node4</title>
<g id="a_Node000004"><a xlink:title=" ">
<polygon fill="#e0e0e0" stroke="#999999" points="176.46,-76 133.46,-76 133.46,-56 176.46,-56 176.46,-76"/>
<text xml:space="preserve" text-anchor="middle" x="154.96" y="-62.5" font-family="Helvetica,sans-Serif" font-size="10.00">vector</text>
</a>
</g>
</g>
<!-- Node2&#45;&gt;Node4 -->
<g id="edge3_Node000002_Node000004" class="edge">
<title>Node2&#45;&gt;Node4</title>
<g id="a_edge3_Node000002_Node000004"><a xlink:title=" ">
<path fill="none" stroke="#63b8ff" d="M141.75,-223.6C143.95,-197.46 150.19,-123.48 153.24,-87.36"/>
<polygon fill="#63b8ff" stroke="#63b8ff" points="156.69,-88.06 154.05,-77.81 149.72,-87.48 156.69,-88.06"/>
</a>
</g>
</g>
<!-- Node5 -->
<g id="Node000005" class="node">
<title>Node5</title>
<g id="a_Node000005"><a xlink:href="_g_e_graphics_context_8h.html" target="_top" xlink:title="Declaración de la clase GEGraphicsContext que almacena el contexto gráfico de Vulkan.">
<polygon fill="white" stroke="#666666" points="628.96,-76 516.96,-76 516.96,-56 628.96,-56 628.96,-76"/>
<text xml:space="preserve" text-anchor="middle" x="572.96" y="-62.5" font-family="Helvetica,sans-Serif" font-size="10.00">GEGraphicsContext.h</text>
</a>
</g>
</g>
<!-- Node2&#45;&gt;Node5 -->
<g id="edge4_Node000002_Node000005" class="edge">
<title>Node2&#45;&gt;Node5</title>
<g id="a_edge4_Node000002_Node000005"><a xlink:title=" ">
<path fill="none" stroke="#63b8ff" d="M190.67,-231.4C309.89,-226.37 606.46,-206.48 663.96,-132 681.31,-109.52 649.13,-91.51 618.36,-80.2"/>
<polygon fill="#63b8ff" stroke="#63b8ff" points="619.64,-76.94 609.04,-76.98 617.35,-83.56 619.64,-76.94"/>
</a>
</g>
</g>
<!-- Node7 -->
<g id="Node000007" class="node">
<title>Node7</title>
<g id="a_Node000007"><a xlink:href="_g_e_rendering_context_8h.html" target="_top" xlink:title="Declaración de la clase GERenderingContext que describe un contexto de renderizado.">
<polygon fill="white" stroke="#666666" points="440.58,-188 323.33,-188 323.33,-168 440.58,-168 440.58,-188"/>
<text xml:space="preserve" text-anchor="middle" x="381.96" y="-174.5" font-family="Helvetica,sans-Serif" font-size="10.00">GERenderingContext.h</text>
</a>
</g>
</g>
<!-- Node2&#45;&gt;Node7 -->
<g id="edge7_Node000002_Node000007" class="edge">
<title>Node2&#45;&gt;Node7</title>
<g id="a_edge7_Node000002_Node000007"><a xlink:title=" ">
<path fill="none" stroke="#63b8ff" d="M183.21,-223.53C223.7,-214.46 284.94,-200.74 328.74,-190.93"/>
<polygon fill="#63b8ff" stroke="#63b8ff" points="329.28,-194.39 338.27,-188.79 327.75,-187.56 329.28,-194.39"/>
</a>
</g>
</g>
<!-- Node2&#45;&gt;Node13 -->
<g id="edge22_Node000002_Node000013" class="edge">
<title>Node2&#45;&gt;Node13</title>
<g id="a_edge22_Node000002_Node000013"><a xlink:title=" ">
<path fill="none" stroke="#63b8ff" d="M134.39,-223.62C121.72,-205.52 93.67,-165.45 77.05,-141.7"/>
<polygon fill="#63b8ff" stroke="#63b8ff" points="79.98,-139.78 71.37,-133.59 74.24,-143.79 79.98,-139.78"/>
</a>
</g>
</g>
<!-- Node5&#45;&gt;Node3 -->
<g id="edge6_Node000005_Node000003" class="edge">
<title>Node5&#45;&gt;Node3</title>
<g id="a_edge6_Node000005_Node000003"><a xlink:title=" ">
<path fill="none" stroke="#63b8ff" d="M522.46,-55.53C470.91,-45.87 391.19,-30.92 338.55,-21.05"/>
<polygon fill="#63b8ff" stroke="#63b8ff" points="339.38,-17.64 328.91,-19.24 338.09,-24.52 339.38,-17.64"/>
</a>
</g>
</g>
<!-- Node6 -->
<g id="Node000006" class="node">
<title>Node6</title>
<g id="a_Node000006"><a xlink:title=" ">
<polygon fill="#e0e0e0" stroke="#999999" points="612.46,-20 533.46,-20 533.46,0 612.46,0 612.46,-20"/>
<text xml:space="preserve" text-anchor="middle" x="572.96" y="-6.5" font-family="Helvetica,sans-Serif" font-size="10.00">GLFW/glfw3.h</text>
</a>
</g>
</g>
<!-- Node5&#45;&gt;Node6 -->
<g id="edge5_Node000005_Node000006" class="edge">
<title>Node5&#45;&gt;Node6</title>
<g id="a_edge5_Node000005_Node000006"><a xlink:title=" ">
<path fill="none" stroke="#63b8ff" d="M572.96,-55.59C572.96,-49.01 572.96,-39.96 572.96,-31.73"/>
<polygon fill="#63b8ff" stroke="#63b8ff" points="576.46,-31.81 572.96,-21.81 569.46,-31.81 576.46,-31.81"/>
</a>
</g>
</g>
<!-- Node7&#45;&gt;Node3 -->
<g id="edge8_Node000007_Node000003" class="edge">
<title>Node7&#45;&gt;Node3</title>
<g id="a_edge8_Node000007_Node000003"><a xlink:title=" ">
<path fill="none" stroke="#63b8ff" d="M362.43,-167.63C348.37,-159.93 330,-147.73 318.96,-132 297.39,-101.29 289.46,-57.25 286.57,-31.64"/>
<polygon fill="#63b8ff" stroke="#63b8ff" points="290.08,-31.51 285.64,-21.89 283.11,-32.18 290.08,-31.51"/>
</a>
</g>
</g>
<!-- Node7&#45;&gt;Node5 -->
<g id="edge10_Node000007_Node000005" class="edge">
<title>Node7&#45;&gt;Node5</title>
<g id="a_edge10_Node000007_Node000005"><a xlink:title=" ">
<path fill="none" stroke="#63b8ff" d="M440.88,-175.81C477.88,-171.97 524.08,-161.04 553.96,-132 565.82,-120.47 570.39,-101.96 572.09,-87.64"/>
<polygon fill="#63b8ff" stroke="#63b8ff" points="575.56,-88.17 572.84,-77.92 568.58,-87.62 575.56,-88.17"/>
</a>
</g>
</g>
<!-- Node7&#45;&gt;Node8 -->
<g id="edge9_Node000007_Node000008" class="edge">
<title>Node7&#45;&gt;Node8</title>
<g id="a_edge9_Node000007_Node000008"><a xlink:title=" ">
<path fill="none" stroke="#63b8ff" d="M425.09,-167.53C471.64,-157.31 545.07,-141.19 589.65,-131.41"/>
<polygon fill="#63b8ff" stroke="#63b8ff" points="590.38,-134.83 599.4,-129.27 588.88,-127.99 590.38,-134.83"/>
</a>
</g>
</g>
<!-- Node9 -->
<g id="Node000009" class="node">
<title>Node9</title>
<g id="a_Node000009"><a xlink:href="_g_e_drawing_context_8h.html" target="_top" xlink:title="Declaración de la clase GEDrawingContext para gestionar swapchain y present.">
<polygon fill="white" stroke="#666666" points="436.46,-132 327.46,-132 327.46,-112 436.46,-112 436.46,-132"/>
<text xml:space="preserve" text-anchor="middle" x="381.96" y="-118.5" font-family="Helvetica,sans-Serif" font-size="10.00">GEDrawingContext.h</text>
</a>
</g>
</g>
<!-- Node7&#45;&gt;Node9 -->
<g id="edge11_Node000007_Node000009" class="edge">
<title>Node7&#45;&gt;Node9</title>
<g id="a_edge11_Node000007_Node000009"><a xlink:title=" ">
<path fill="none" stroke="#63b8ff" d="M381.96,-167.59C381.96,-161.01 381.96,-151.96 381.96,-143.73"/>
<polygon fill="#63b8ff" stroke="#63b8ff" points="385.46,-143.81 381.96,-133.81 378.46,-143.81 385.46,-143.81"/>
</a>
</g>
</g>
<!-- Node11 -->
<g id="Node000011" class="node">
<title>Node11</title>
<g id="a_Node000011"><a xlink:href="_g_e_pipeline_config_8h.html" target="_top" xlink:title="Declaración de la clase GEPipelineConfig que almacena la configuración de un pipeline de renderizado.">
<polygon fill="white" stroke="#666666" points="270.71,-132 169.21,-132 169.21,-112 270.71,-112 270.71,-132"/>
<text xml:space="preserve" text-anchor="middle" x="219.96" y="-118.5" font-family="Helvetica,sans-Serif" font-size="10.00">GEPipelineConfig.h</text>
</a>
</g>
</g>
<!-- Node7&#45;&gt;Node11 -->
<g id="edge16_Node000007_Node000011" class="edge">
<title>Node7&#45;&gt;Node11</title>
<g id="a_edge16_Node000007_Node000011"><a xlink:title=" ">
<path fill="none" stroke="#63b8ff" d="M353.74,-167.59C327.53,-158.86 288.27,-145.77 259.05,-136.03"/>
<polygon fill="#63b8ff" stroke="#63b8ff" points="260.42,-132.8 249.83,-132.96 258.21,-139.44 260.42,-132.8"/>
</a>
</g>
</g>
<!-- Node12 -->
<g id="Node000012" class="node">
<title>Node12</title>
<g id="a_Node000012"><a xlink:href="_g_e_depth_buffer_8h.html" target="_top" xlink:title="Declaración de la clase GEDepthBuffer que gestiona el recurso de profundidad.">
<polygon fill="white" stroke="#666666" points="545.08,-132 454.83,-132 454.83,-112 545.08,-112 545.08,-132"/>
<text xml:space="preserve" text-anchor="middle" x="499.96" y="-118.5" font-family="Helvetica,sans-Serif" font-size="10.00">GEDepthBuffer.h</text>
</a>
</g>
</g>
<!-- Node7&#45;&gt;Node12 -->
<g id="edge19_Node000007_Node000012" class="edge">
<title>Node7&#45;&gt;Node12</title>
<g id="a_edge19_Node000007_Node000012"><a xlink:title=" ">
<path fill="none" stroke="#63b8ff" d="M402.51,-167.59C420.84,-159.21 447.94,-146.8 468.91,-137.21"/>
<polygon fill="#63b8ff" stroke="#63b8ff" points="470.23,-140.45 477.87,-133.11 467.32,-134.09 470.23,-140.45"/>
</a>
</g>
</g>
<!-- Node9&#45;&gt;Node3 -->
<g id="edge12_Node000009_Node000003" class="edge">
<title>Node9&#45;&gt;Node3</title>
<g id="a_edge12_Node000009_Node000003"><a xlink:title=" ">
<path fill="none" stroke="#63b8ff" d="M398.26,-111.61C417.97,-99.05 446.77,-76.03 431.96,-56 410.66,-27.21 371.3,-16.24 338.67,-12.31"/>
<polygon fill="#63b8ff" stroke="#63b8ff" points="339.25,-8.85 328.95,-11.35 338.56,-15.82 339.25,-8.85"/>
</a>
</g>
</g>
<!-- Node9&#45;&gt;Node4 -->
<g id="edge13_Node000009_Node000004" class="edge">
<title>Node9&#45;&gt;Node4</title>
<g id="a_edge13_Node000009_Node000004"><a xlink:title=" ">
<path fill="none" stroke="#63b8ff" d="M342.16,-111.53C298.32,-101.1 228.63,-84.53 187.79,-74.81"/>
<polygon fill="#63b8ff" stroke="#63b8ff" points="188.85,-71.46 178.31,-72.56 187.23,-78.27 188.85,-71.46"/>
</a>
</g>
</g>
<!-- Node9&#45;&gt;Node5 -->
<g id="edge14_Node000009_Node000005" class="edge">
<title>Node9&#45;&gt;Node5</title>
<g id="a_edge14_Node000009_Node000005"><a xlink:title=" ">
<path fill="none" stroke="#63b8ff" d="M415.23,-111.59C446.67,-102.71 494.05,-89.31 528.67,-79.52"/>
<polygon fill="#63b8ff" stroke="#63b8ff" points="529.3,-82.98 537.97,-76.89 527.4,-76.24 529.3,-82.98"/>
</a>
</g>
</g>
<!-- Node10 -->
<g id="Node000010" class="node">
<title>Node10</title>
<g id="a_Node000010"><a xlink:href="_g_e_window_position_8h.html" target="_top" xlink:title="Declaración de la estructura GEWindowPosition para ventanas.">
<polygon fill="white" stroke="#666666" points="422.46,-76 313.46,-76 313.46,-56 422.46,-56 422.46,-76"/>
<text xml:space="preserve" text-anchor="middle" x="367.96" y="-62.5" font-family="Helvetica,sans-Serif" font-size="10.00">GEWindowPosition.h</text>
</a>
</g>
</g>
<!-- Node9&#45;&gt;Node10 -->
<g id="edge15_Node000009_Node000010" class="edge">
<title>Node9&#45;&gt;Node10</title>
<g id="a_edge15_Node000009_Node000010"><a xlink:title=" ">
<path fill="none" stroke="#63b8ff" d="M379.52,-111.59C377.79,-104.93 375.41,-95.75 373.26,-87.44"/>
<polygon fill="#63b8ff" stroke="#63b8ff" points="376.64,-86.56 370.75,-77.76 369.87,-88.32 376.64,-86.56"/>
</a>
</g>
</g>
<!-- Node11&#45;&gt;Node3 -->
<g id="edge17_Node000011_Node000003" class="edge">
<title>Node11&#45;&gt;Node3</title>
<g id="a_edge17_Node000011_Node000003"><a xlink:title=" ">
<path fill="none" stroke="#63b8ff" d="M225.5,-111.62C236.15,-93.6 259.66,-53.81 273.72,-30.02"/>
<polygon fill="#63b8ff" stroke="#63b8ff" points="276.58,-32.05 278.66,-21.66 270.56,-28.49 276.58,-32.05"/>
</a>
</g>
</g>
<!-- Node11&#45;&gt;Node4 -->
<g id="edge18_Node000011_Node000004" class="edge">
<title>Node11&#45;&gt;Node4</title>
<g id="a_edge18_Node000011_Node000004"><a xlink:title=" ">
<path fill="none" stroke="#63b8ff" d="M208.63,-111.59C199.31,-103.85 185.88,-92.69 174.78,-83.47"/>
<polygon fill="#63b8ff" stroke="#63b8ff" points="177.24,-80.96 167.31,-77.27 172.77,-86.35 177.24,-80.96"/>
</a>
</g>
</g>
<!-- Node12&#45;&gt;Node3 -->
<g id="edge20_Node000012_Node000003" class="edge">
<title>Node12&#45;&gt;Node3</title>
<g id="a_edge20_Node000012_Node000003"><a xlink:title=" ">
<path fill="none" stroke="#63b8ff" d="M495.2,-111.94C487.31,-97.81 470.16,-70.63 447.96,-56 415.14,-34.37 372.08,-23.06 338.45,-17.19"/>
<polygon fill="#63b8ff" stroke="#63b8ff" points="339.36,-13.79 328.93,-15.64 338.24,-20.7 339.36,-13.79"/>
</a>
</g>
</g>
<!-- Node12&#45;&gt;Node5 -->
<g id="edge21_Node000012_Node000005" class="edge">
<title>Node12&#45;&gt;Node5</title>
<g id="a_edge21_Node000012_Node000005"><a xlink:title=" ">
<path fill="none" stroke="#63b8ff" d="M512.67,-111.59C523.35,-103.7 538.84,-92.24 551.44,-82.92"/>
<polygon fill="#63b8ff" stroke="#63b8ff" points="553.21,-85.96 559.17,-77.2 549.05,-80.33 553.21,-85.96"/>
</a>
</g>
</g>
<!-- Node13&#45;&gt;Node3 -->
<g id="edge24_Node000013_Node000003" class="edge">
<title>Node13&#45;&gt;Node3</title>
<g id="a_edge24_Node000013_Node000003"><a xlink:title=" ">
<path fill="none" stroke="#63b8ff" d="M70.12,-111.5C79.85,-97.28 100.11,-70.58 123.96,-56 156.62,-36.02 198.39,-24.68 231.19,-18.38"/>
<polygon fill="#63b8ff" stroke="#63b8ff" points="231.68,-21.85 240.9,-16.63 230.44,-14.96 231.68,-21.85"/>
</a>
</g>
</g>
<!-- Node13&#45;&gt;Node4 -->
<g id="edge25_Node000013_Node000004" class="edge">
<title>Node13&#45;&gt;Node4</title>
<g id="a_edge25_Node000013_Node000004"><a xlink:title=" ">
<path fill="none" stroke="#63b8ff" d="M79.81,-111.59C93.43,-103.51 113.32,-91.71 129.22,-82.27"/>
<polygon fill="#63b8ff" stroke="#63b8ff" points="130.87,-85.37 137.68,-77.25 127.29,-79.35 130.87,-85.37"/>
</a>
</g>
</g>
<!-- Node13&#45;&gt;Node5 -->
<g id="edge23_Node000013_Node000005" class="edge">
<title>Node13&#45;&gt;Node5</title>
<g id="a_edge23_Node000013_Node000005"><a xlink:title=" ">
<path fill="none" stroke="#63b8ff" d="M113.69,-115.72C205.43,-105.99 401.39,-85.2 505.19,-74.19"/>
<polygon fill="#63b8ff" stroke="#63b8ff" points="505.39,-77.69 514.96,-73.15 504.65,-70.73 505.39,-77.69"/>
</a>
</g>
</g>
</g>
</svg>
