<?xml version="1.0" encoding="UTF-8" standalone="no"?>
<!DOCTYPE svg PUBLIC "-//W3C//DTD SVG 1.1//EN"
 "http://www.w3.org/Graphics/SVG/1.1/DTD/svg11.dtd">
<!-- Generated by graphviz version 14.1.2 (20260124.0452)
 -->
<!-- Title: MVPVulkan/GEDrawingContext.h Pages: 1 -->
<svg width="357pt" height="140pt"
 viewBox="0.00 0.00 357.00 140.00" xmlns="http://www.w3.org/2000/svg" xmlns:xlink="http://www.w3.org/1999/xlink">
<g id="graph0" class="graph" transform="scale(1 1) rotate(0) translate(4 136)">
<title>MVPVulkan/GEDrawingContext.h</title>
<!-- Node1 -->
<g id="Node000001" class="node">
<title>Node1</title>
<g id="a_Node000001"><a xlink:title="Declaraci칩n de la clase GEDrawingContext para gestionar swapchain y present.">
<polygon fill="#999999" stroke="#666666" points="198.62,-132 35.62,-132 35.62,-112 198.62,-112 198.62,-132"/>
<text xml:space="preserve" text-anchor="middle" x="117.12" y="-118.5" font-family="Helvetica,sans-Serif" font-size="10.00">MVPVulkan/GEDrawingContext.h</text>
</a>
</g>
</g>
<!-- Node2 -->
<g id="Node000002" class="node">
<title>Node2</title>
<g id="a_Node000002"><a xlink:title=" ">
<polygon fill="#e0e0e0" stroke="#999999" points="84.25,-20 0,-20 0,0 84.25,0 84.25,-20"/>
<text xml:space="preserve" text-anchor="middle" x="42.12" y="-6.5" font-family="Helvetica,sans-Serif" font-size="10.00">vulkan/vulkan.h</text>
</a>
</g>
</g>
<!-- Node1&#45;&gt;Node2 -->
<g id="edge1_Node000001_Node000002" class="edge">
<title>Node1&#45;&gt;Node2</title>
<g id="a_edge1_Node000001_Node000002"><a xlink:title=" ">
<path fill="none" stroke="#63b8ff" d="M85.24,-111.6C68.03,-104.72 48.28,-93.47 38.12,-76 30.3,-62.53 32.05,-44.72 35.35,-31.16"/>
<polygon fill="#63b8ff" stroke="#63b8ff" points="38.7,-32.17 38.15,-21.59 31.98,-30.2 38.7,-32.17"/>
</a>
</g>
</g>
<!-- Node3 -->
<g id="Node000003" class="node">
<title>Node3</title>
<g id="a_Node000003"><a xlink:title=" ">
<polygon fill="#e0e0e0" stroke="#999999" points="90.62,-76 47.62,-76 47.62,-56 90.62,-56 90.62,-76"/>
<text xml:space="preserve" text-anchor="middle" x="69.12" y="-62.5" font-family="Helvetica,sans-Serif" font-size="10.00">vector</text>
</a>
</g>
</g>
<!-- Node1&#45;&gt;Node3 -->
<g id="edge2_Node000001_Node000003" class="edge">
<title>Node1&#45;&gt;Node3</title>
<g id="a_edge2_Node000001_Node000003"><a xlink:title=" ">
<path fill="none" stroke="#63b8ff" d="M108.76,-111.59C102.23,-104.24 92.94,-93.8 85.01,-84.87"/>
<polygon fill="#63b8ff" stroke="#63b8ff" points="87.66,-82.58 78.4,-77.43 82.42,-87.23 87.66,-82.58"/>
</a>
</g>
</g>
<!-- Node4 -->
<g id="Node000004" class="node">
<title>Node4</title>
<g id="a_Node000004"><a xlink:href="_g_e_graphics_context_8h.html" target="_top" xlink:title="Declaraci칩n de la clase GEGraphicsContext que almacena el contexto gr치fico de Vulkan.">
<polygon fill="white" stroke="#666666" points="221.12,-76 109.12,-76 109.12,-56 221.12,-56 221.12,-76"/>
<text xml:space="preserve" text-anchor="middle" x="165.12" y="-62.5" font-family="Helvetica,sans-Serif" font-size="10.00">GEGraphicsContext.h</text>
</a>
</g>
</g>
<!-- Node1&#45;&gt;Node4 -->
<g id="edge3_Node000001_Node000004" class="edge">
<title>Node1&#45;&gt;Node4</title>
<g id="a_edge3_Node000001_Node000004"><a xlink:title=" ">
<path fill="none" stroke="#63b8ff" d="M125.49,-111.59C132.02,-104.24 141.31,-93.8 149.24,-84.87"/>
<polygon fill="#63b8ff" stroke="#63b8ff" points="151.83,-87.23 155.85,-77.43 146.59,-82.58 151.83,-87.23"/>
</a>
</g>
</g>
<!-- Node6 -->
<g id="Node000006" class="node">
<title>Node6</title>
<g id="a_Node000006"><a xlink:href="_g_e_window_position_8h.html" target="_top" xlink:title="Declaraci칩n de la estructura GEWindowPosition para ventanas.">
<polygon fill="white" stroke="#666666" points="348.62,-76 239.62,-76 239.62,-56 348.62,-56 348.62,-76"/>
<text xml:space="preserve" text-anchor="middle" x="294.12" y="-62.5" font-family="Helvetica,sans-Serif" font-size="10.00">GEWindowPosition.h</text>
</a>
</g>
</g>
<!-- Node1&#45;&gt;Node6 -->
<g id="edge6_Node000001_Node000006" class="edge">
<title>Node1&#45;&gt;Node6</title>
<g id="a_edge6_Node000001_Node000006"><a xlink:title=" ">
<path fill="none" stroke="#63b8ff" d="M147.96,-111.59C176.84,-102.78 220.24,-89.54 252.25,-79.78"/>
<polygon fill="#63b8ff" stroke="#63b8ff" points="253.06,-83.19 261.61,-76.92 251.02,-76.49 253.06,-83.19"/>
</a>
</g>
</g>
<!-- Node4&#45;&gt;Node2 -->
<g id="edge5_Node000004_Node000002" class="edge">
<title>Node4&#45;&gt;Node2</title>
<g id="a_edge5_Node000004_Node000002"><a xlink:title=" ">
<path fill="none" stroke="#63b8ff" d="M143.7,-55.59C124.5,-47.17 96.08,-34.69 74.18,-25.07"/>
<polygon fill="#63b8ff" stroke="#63b8ff" points="75.67,-21.9 65.1,-21.09 72.85,-28.31 75.67,-21.9"/>
</a>
</g>
</g>
<!-- Node5 -->
<g id="Node000005" class="node">
<title>Node5</title>
<g id="a_Node000005"><a xlink:title=" ">
<polygon fill="#e0e0e0" stroke="#999999" points="204.62,-20 125.62,-20 125.62,0 204.62,0 204.62,-20"/>
<text xml:space="preserve" text-anchor="middle" x="165.12" y="-6.5" font-family="Helvetica,sans-Serif" font-size="10.00">GLFW/glfw3.h</text>
</a>
</g>
</g>
<!-- Node4&#45;&gt;Node5 -->
<g id="edge4_Node000004_Node000005" class="edge">
<title>Node4&#45;&gt;Node5</title>
<g id="a_edge4_Node000004_Node000005"><a xlink:title=" ">
<path fill="none" stroke="#63b8ff" d="M165.12,-55.59C165.12,-49.01 165.12,-39.96 165.12,-31.73"/>
<polygon fill="#63b8ff" stroke="#63b8ff" points="168.63,-31.81 165.13,-21.81 161.63,-31.81 168.63,-31.81"/>
</a>
</g>
</g>
</g>
</svg>
