<?xml version="1.0" encoding="UTF-8" standalone="no"?>
<!DOCTYPE svg PUBLIC "-//W3C//DTD SVG 1.1//EN"
 "http://www.w3.org/Graphics/SVG/1.1/DTD/svg11.dtd">
<!-- Generated by graphviz version 14.1.2 (20260124.0452)
 -->
<!-- Title: MVPVulkan/GEGraphicsContext.h Pages: 1 -->
<!--zoomable 588 -->

<svg id="main" version="1.1" xmlns="http://www.w3.org/2000/svg" xmlns:xlink="http://www.w3.org/1999/xlink" xml:space="preserve" onload="init(evt)">

<style type="text/css"><![CDATA[
.node, .edge {opacity: 0.7;}
.node.selected, .edge.selected {opacity: 1;}
.edge:hover path { stroke: red; }
.edge:hover polygon { stroke: red; fill: red; }
]]></style>

<defs>
  <circle id="rim" cx="0" cy="0" r="7"/>
  <circle id="rim2" cx="0" cy="0" r="3.5"/>
  <g id="zoomPlus">
    <use xlink:href="#rim" fill="#404040"><set attributeName="fill" to="#808080" begin="zoomplus.mouseover" end="zoomplus.mouseout"/></use>
    <path d="M-4,0h8M0,-4v8" fill="none" stroke="white" stroke-width="1.5" pointer-events="none"/>
  </g>
  <g id="zoomMin">
    <use xlink:href="#rim" fill="#404040"><set attributeName="fill" to="#808080" begin="zoomminus.mouseover" end="zoomminus.mouseout"/></use>
    <path d="M-4,0h8" fill="none" stroke="white" stroke-width="1.5" pointer-events="none"/>
  </g>
  <g id="arrowUp" transform="translate(30 24)">
    <use xlink:href="#rim"/>
    <path pointer-events="none" fill="none" stroke="white" stroke-width="1.5" d="M0,-3.0v7 M-2.5,-0.5L0,-3.0L2.5,-0.5"/>
  </g>
  <g id="arrowRight" transform="rotate(90) translate(36 -43)">
    <use xlink:href="#rim"/>
    <path pointer-events="none" fill="none" stroke="white" stroke-width="1.5" d="M0,-3.0v7 M-2.5,-0.5L0,-3.0L2.5,-0.5"/>
  </g>
  <g id="arrowDown" transform="rotate(180) translate(-30 -48)">
    <use xlink:href="#rim"/>
    <path pointer-events="none" fill="none" stroke="white" stroke-width="1.5" d="M0,-3.0v7 M-2.5,-0.5L0,-3.0L2.5,-0.5"/>
  </g>
  <g id="arrowLeft" transform="rotate(270) translate(-36 17)">
    <use xlink:href="#rim"/>
    <path pointer-events="none" fill="none" stroke="white" stroke-width="1.5" d="M0,-3.0v7 M-2.5,-0.5L0,-3.0L2.5,-0.5"/>
  </g>
  <g id="resetDef">
    <use xlink:href="#rim2" fill="#404040"><set attributeName="fill" to="#808080" begin="reset.mouseover" end="reset.mouseout"/></use>
  </g>
</defs>
<script type="application/ecmascript">
var viewWidth = 1761;
var viewHeight = 588;
var sectionId = 'dynsection-1';
</script>
<script type="application/ecmascript" xlink:href="svg.min.js"/>
<svg id="graph" class="graph">
<g id="viewport">
<title>MVPVulkan/GEGraphicsContext.h</title>
<!-- Node1 -->
<g id="Node000001" class="node">
<title>Node1</title>
<g id="a_Node000001"><a xlink:title="Declaración de la clase GEGraphicsContext que almacena el contexto gráfico de Vulkan.">
<polygon fill="#999999" stroke="#666666" points="735.82,-580 569.82,-580 569.82,-560 735.82,-560 735.82,-580"/>
<text xml:space="preserve" text-anchor="middle" x="652.82" y="-566.5" font-family="Helvetica,sans-Serif" font-size="10.00">MVPVulkan/GEGraphicsContext.h</text>
</a>
</g>
</g>
<!-- Node2 -->
<g id="Node000002" class="node">
<title>Node2</title>
<g id="a_Node000002"><a xlink:href="_g_e_application_8h.html" target="_top" xlink:title="Declaración de la clase GEApplication que crea y lanza la aplicación gráfica.">
<polygon fill="white" stroke="#666666" points="328.07,-76 187.57,-76 187.57,-56 328.07,-56 328.07,-76"/>
<text xml:space="preserve" text-anchor="middle" x="257.82" y="-62.5" font-family="Helvetica,sans-Serif" font-size="10.00">MVPVulkan/GEApplication.h</text>
</a>
</g>
</g>
<!-- Node1&#45;&gt;Node2 -->
<g id="edge1_Node000001_Node000002" class="edge">
<title>Node1&#45;&gt;Node2</title>
<g id="a_edge1_Node000001_Node000002"><a xlink:title=" ">
<path fill="none" stroke="#63b8ff" d="M558.23,-562.69C377.48,-549.34 0.82,-514.84 0.82,-459 0.82,-459 0.82,-459 0.82,-177 0.82,-146.9 -2.47,-132.22 19.82,-112 43.96,-90.11 126.12,-78.23 187.19,-72.26"/>
<polygon fill="#63b8ff" stroke="#63b8ff" points="557.85,-566.17 568.08,-563.4 558.36,-559.18 557.85,-566.17"/>
</a>
</g>
</g>
<!-- Node5 -->
<g id="Node000005" class="node">
<title>Node5</title>
<g id="a_Node000005"><a xlink:href="_g_e_balljoint_8h.html" target="_top" xlink:title="Declaración de la clase GEBalljoint para articulaciones jerárquicas.">
<polygon fill="white" stroke="#666666" points="776.32,-244 649.32,-244 649.32,-224 776.32,-224 776.32,-244"/>
<text xml:space="preserve" text-anchor="middle" x="712.82" y="-230.5" font-family="Helvetica,sans-Serif" font-size="10.00">MVPVulkan/GEBalljoint.h</text>
</a>
</g>
</g>
<!-- Node1&#45;&gt;Node5 -->
<g id="edge4_Node000001_Node000005" class="edge">
<title>Node1&#45;&gt;Node5</title>
<g id="a_edge4_Node000001_Node000005"><a xlink:title=" ">
<path fill="none" stroke="#63b8ff" d="M633.37,-552.11C612.66,-532.15 582.82,-496.83 582.82,-459 582.82,-459 582.82,-459 582.82,-345 582.82,-291.93 646.74,-259.2 684.94,-244.38"/>
<polygon fill="#63b8ff" stroke="#63b8ff" points="630.74,-554.45 640.46,-558.66 635.49,-549.31 630.74,-554.45"/>
</a>
</g>
</g>
<!-- Node8 -->
<g id="Node000008" class="node">
<title>Node8</title>
<g id="a_Node000008"><a xlink:href="_g_e_skeleton_8h.html" target="_top" xlink:title="Declaración de la clase GESkeleton que representa un esqueleto con articulaciones jerárquicas.">
<polygon fill="white" stroke="#666666" points="618.2,-188 487.45,-188 487.45,-168 618.2,-168 618.2,-188"/>
<text xml:space="preserve" text-anchor="middle" x="552.82" y="-174.5" font-family="Helvetica,sans-Serif" font-size="10.00">MVPVulkan/GESkeleton.h</text>
</a>
</g>
</g>
<!-- Node1&#45;&gt;Node8 -->
<g id="edge55_Node000001_Node000008" class="edge">
<title>Node1&#45;&gt;Node8</title>
<g id="a_edge55_Node000001_Node000008"><a xlink:title=" ">
<path fill="none" stroke="#63b8ff" d="M622.44,-554.4C590.5,-536.68 544.82,-503.56 544.82,-459 544.82,-459 544.82,-459 544.82,-289 544.82,-251.66 549.47,-207.38 551.68,-188.4"/>
<polygon fill="#63b8ff" stroke="#63b8ff" points="620.44,-557.3 630.92,-558.9 623.72,-551.12 620.44,-557.3"/>
</a>
</g>
</g>
<!-- Node9 -->
<g id="Node000009" class="node">
<title>Node9</title>
<g id="a_Node000009"><a xlink:href="_g_e_scene_8h.html" target="_top" xlink:title="Declaración de la clase GEScene que contiene la escena con esqueleto animado.">
<polygon fill="white" stroke="#666666" points="440.95,-132 320.7,-132 320.7,-112 440.95,-112 440.95,-132"/>
<text xml:space="preserve" text-anchor="middle" x="380.82" y="-118.5" font-family="Helvetica,sans-Serif" font-size="10.00">MVPVulkan/GEScene.h</text>
</a>
</g>
</g>
<!-- Node1&#45;&gt;Node9 -->
<g id="edge54_Node000001_Node000009" class="edge">
<title>Node1&#45;&gt;Node9</title>
<g id="a_edge54_Node000001_Node000009"><a xlink:title=" ">
<path fill="none" stroke="#63b8ff" d="M557.97,-563.3C471.17,-556.9 349.91,-544.6 306.82,-524 269.11,-505.96 238.82,-500.81 238.82,-459 238.82,-459 238.82,-459 238.82,-345 238.82,-248.46 335.29,-160.25 369.2,-132.22"/>
<polygon fill="#63b8ff" stroke="#63b8ff" points="557.7,-566.79 567.93,-564.02 558.21,-559.81 557.7,-566.79"/>
</a>
</g>
</g>
<!-- Node12 -->
<g id="Node000012" class="node">
<title>Node12</title>
<g id="a_Node000012"><a xlink:href="_g_e_command_context_8h.html" target="_top" xlink:title="Declaración de la clase GECommandContext que gestiona buffers de comandos.">
<polygon fill="white" stroke="#666666" points="248.82,-188 76.82,-188 76.82,-168 248.82,-168 248.82,-188"/>
<text xml:space="preserve" text-anchor="middle" x="162.82" y="-174.5" font-family="Helvetica,sans-Serif" font-size="10.00">MVPVulkan/GECommandContext.h</text>
</a>
</g>
</g>
<!-- Node1&#45;&gt;Node12 -->
<g id="edge13_Node000001_Node000012" class="edge">
<title>Node1&#45;&gt;Node12</title>
<g id="a_edge13_Node000001_Node000012"><a xlink:title=" ">
<path fill="none" stroke="#63b8ff" d="M558.26,-568.32C449.52,-565.96 279.03,-556.9 224.82,-524 195.21,-506.03 181.82,-493.64 181.82,-459 181.82,-459 181.82,-459 181.82,-289 181.82,-251.21 170.8,-207.17 165.55,-188.32"/>
<polygon fill="#63b8ff" stroke="#63b8ff" points="557.98,-571.82 568.05,-568.52 558.12,-564.82 557.98,-571.82"/>
</a>
</g>
</g>
<!-- Node14 -->
<g id="Node000014" class="node">
<title>Node14</title>
<g id="a_Node000014"><a xlink:href="_g_e_depth_buffer_8h.html" target="_top" xlink:title="Declaración de la clase GEDepthBuffer que gestiona el recurso de profundidad.">
<polygon fill="white" stroke="#666666" points="824.95,-524 680.7,-524 680.7,-504 824.95,-504 824.95,-524"/>
<text xml:space="preserve" text-anchor="middle" x="752.82" y="-510.5" font-family="Helvetica,sans-Serif" font-size="10.00">MVPVulkan/GEDepthBuffer.h</text>
</a>
</g>
</g>
<!-- Node1&#45;&gt;Node14 -->
<g id="edge17_Node000001_Node000014" class="edge">
<title>Node1&#45;&gt;Node14</title>
<g id="a_edge17_Node000001_Node000014"><a xlink:title=" ">
<path fill="none" stroke="#63b8ff" d="M679.96,-554.35C697.56,-544.84 719.98,-532.74 735.27,-524.48"/>
<polygon fill="#63b8ff" stroke="#63b8ff" points="678.71,-551.04 671.57,-558.87 682.04,-557.2 678.71,-551.04"/>
</a>
</g>
</g>
<!-- Node16 -->
<g id="Node000016" class="node">
<title>Node16</title>
<g id="a_Node000016"><a xlink:href="_g_e_rendering_context_8h.html" target="_top" xlink:title="Declaración de la clase GERenderingContext que describe un contexto de renderizado.">
<polygon fill="white" stroke="#666666" points="782.45,-468 611.2,-468 611.2,-448 782.45,-448 782.45,-468"/>
<text xml:space="preserve" text-anchor="middle" x="696.82" y="-454.5" font-family="Helvetica,sans-Serif" font-size="10.00">MVPVulkan/GERenderingContext.h</text>
</a>
</g>
</g>
<!-- Node1&#45;&gt;Node16 -->
<g id="edge53_Node000001_Node000016" class="edge">
<title>Node1&#45;&gt;Node16</title>
<g id="a_edge53_Node000001_Node000016"><a xlink:title=" ">
<path fill="none" stroke="#63b8ff" d="M657.56,-548.51C660.88,-535.5 665.78,-518.47 671.82,-504 677.2,-491.14 685.31,-477.24 690.82,-468.35"/>
<polygon fill="#63b8ff" stroke="#63b8ff" points="654.21,-547.5 655.25,-558.05 661.01,-549.15 654.21,-547.5"/>
</a>
</g>
</g>
<!-- Node17 -->
<g id="Node000017" class="node">
<title>Node17</title>
<g id="a_Node000017"><a xlink:href="_g_e_descriptor_set_8h.html" target="_top" xlink:title="Declaración de la clase GEDescriptorSet para gestionar conjuntos de descriptores.">
<polygon fill="white" stroke="#666666" points="1517.07,-412 1364.57,-412 1364.57,-392 1517.07,-392 1517.07,-412"/>
<text xml:space="preserve" text-anchor="middle" x="1440.82" y="-398.5" font-family="Helvetica,sans-Serif" font-size="10.00">MVPVulkan/GEDescriptorSet.h</text>
</a>
</g>
</g>
<!-- Node1&#45;&gt;Node17 -->
<g id="edge41_Node000001_Node000017" class="edge">
<title>Node1&#45;&gt;Node17</title>
<g id="a_edge41_Node000001_Node000017"><a xlink:title=" ">
<path fill="none" stroke="#63b8ff" d="M747.42,-569.78C940.81,-570.47 1367.44,-567.04 1416.82,-524 1449.76,-495.29 1445.44,-435.5 1442.33,-412.4"/>
<polygon fill="#63b8ff" stroke="#63b8ff" points="747.67,-566.28 737.66,-569.74 747.64,-573.28 747.67,-566.28"/>
</a>
</g>
</g>
<!-- Node19 -->
<g id="Node000019" class="node">
<title>Node19</title>
<g id="a_Node000019"><a xlink:href="_g_e_figure_8h.html" target="_top" xlink:title="Declaración de la clase GEFigure para figuras de malla.">
<polygon fill="white" stroke="#666666" points="1124.57,-356 1005.07,-356 1005.07,-336 1124.57,-336 1124.57,-356"/>
<text xml:space="preserve" text-anchor="middle" x="1064.82" y="-342.5" font-family="Helvetica,sans-Serif" font-size="10.00">MVPVulkan/GEFigure.h</text>
</a>
</g>
</g>
<!-- Node1&#45;&gt;Node19 -->
<g id="edge48_Node000001_Node000019" class="edge">
<title>Node1&#45;&gt;Node19</title>
<g id="a_edge48_Node000001_Node000019"><a xlink:title=" ">
<path fill="none" stroke="#63b8ff" d="M747.41,-566.58C940.21,-561.19 1362.35,-546.83 1383.82,-524 1406.96,-499.39 1403.78,-475.25 1383.82,-448 1352.42,-405.12 1202.9,-371.93 1120.19,-356.49"/>
<polygon fill="#63b8ff" stroke="#63b8ff" points="747.58,-563.08 737.68,-566.85 747.78,-570.07 747.58,-563.08"/>
</a>
</g>
</g>
<!-- Node28 -->
<g id="Node000028" class="node">
<title>Node28</title>
<g id="a_Node000028"><a xlink:href="_g_e_drawing_context_8cpp.html" target="_top" xlink:title="Implementación de GEDrawingContext y gestión de swapchain.">
<polygon fill="white" stroke="#666666" points="516.57,-468 343.07,-468 343.07,-448 516.57,-448 516.57,-468"/>
<text xml:space="preserve" text-anchor="middle" x="429.82" y="-454.5" font-family="Helvetica,sans-Serif" font-size="10.00">MVPVulkan/GEDrawingContext.cpp</text>
</a>
</g>
</g>
<!-- Node1&#45;&gt;Node28 -->
<g id="edge42_Node000001_Node000028" class="edge">
<title>Node1&#45;&gt;Node28</title>
<g id="a_edge42_Node000001_Node000028"><a xlink:title=" ">
<path fill="none" stroke="#63b8ff" d="M610.6,-555.96C586.66,-547.95 556.46,-536.79 530.82,-524 497.23,-507.25 460.95,-481.92 442.36,-468.36"/>
<polygon fill="#63b8ff" stroke="#63b8ff" points="609.43,-559.26 620.02,-559.06 611.61,-552.61 609.43,-559.26"/>
</a>
</g>
</g>
<!-- Node29 -->
<g id="Node000029" class="node">
<title>Node29</title>
<g id="a_Node000029"><a xlink:href="_g_e_drawing_context_8h.html" target="_top" xlink:title="Declaración de la clase GEDrawingContext para gestionar swapchain y present.">
<polygon fill="white" stroke="#666666" points="478.32,-524 315.32,-524 315.32,-504 478.32,-504 478.32,-524"/>
<text xml:space="preserve" text-anchor="middle" x="396.82" y="-510.5" font-family="Helvetica,sans-Serif" font-size="10.00">MVPVulkan/GEDrawingContext.h</text>
</a>
</g>
</g>
<!-- Node1&#45;&gt;Node29 -->
<g id="edge43_Node000001_Node000029" class="edge">
<title>Node1&#45;&gt;Node29</title>
<g id="a_edge43_Node000001_Node000029"><a xlink:title=" ">
<path fill="none" stroke="#63b8ff" d="M596.83,-557.19C550.25,-547.36 484.83,-533.56 441.66,-524.46"/>
<polygon fill="#63b8ff" stroke="#63b8ff" points="595.95,-560.58 606.46,-559.22 597.4,-553.73 595.95,-560.58"/>
</a>
</g>
</g>
<!-- Node30 -->
<g id="Node000030" class="node">
<title>Node30</title>
<g id="a_Node000030"><a xlink:href="_g_e_graphics_context_8cpp.html" target="_top" xlink:title="Implementación de la clase GEGraphicsContext.">
<polygon fill="white" stroke="#666666" points="1375.07,-524 1198.57,-524 1198.57,-504 1375.07,-504 1375.07,-524"/>
<text xml:space="preserve" text-anchor="middle" x="1286.82" y="-510.5" font-family="Helvetica,sans-Serif" font-size="10.00">MVPVulkan/GEGraphicsContext.cpp</text>
</a>
</g>
</g>
<!-- Node1&#45;&gt;Node30 -->
<g id="edge49_Node000001_Node000030" class="edge">
<title>Node1&#45;&gt;Node30</title>
<g id="a_edge49_Node000001_Node000030"><a xlink:title=" ">
<path fill="none" stroke="#63b8ff" d="M747.53,-561.32C854.84,-552.56 1034.94,-537.67 1189.82,-524 1192.6,-523.75 1195.43,-523.5 1198.28,-523.25"/>
<polygon fill="#63b8ff" stroke="#63b8ff" points="747.29,-557.83 737.61,-562.13 747.86,-564.81 747.29,-557.83"/>
</a>
</g>
</g>
<!-- Node31 -->
<g id="Node000031" class="node">
<title>Node31</title>
<g id="a_Node000031"><a xlink:href="_g_e_index_buffer_8h.html" target="_top" xlink:title="Declaración de la clase GEIndexBuffer para buffers de índices.">
<polygon fill="white" stroke="#666666" points="1016.82,-524 874.82,-524 874.82,-504 1016.82,-504 1016.82,-524"/>
<text xml:space="preserve" text-anchor="middle" x="945.82" y="-510.5" font-family="Helvetica,sans-Serif" font-size="10.00">MVPVulkan/GEIndexBuffer.h</text>
</a>
</g>
</g>
<!-- Node1&#45;&gt;Node31 -->
<g id="edge50_Node000001_Node000031" class="edge">
<title>Node1&#45;&gt;Node31</title>
<g id="a_edge50_Node000001_Node000031"><a xlink:title=" ">
<path fill="none" stroke="#63b8ff" d="M715.23,-557.5C768.64,-547.66 844.58,-533.66 894.51,-524.46"/>
<polygon fill="#63b8ff" stroke="#63b8ff" points="714.88,-554 705.68,-559.26 716.15,-560.89 714.88,-554"/>
</a>
</g>
</g>
<!-- Node33 -->
<g id="Node000033" class="node">
<title>Node33</title>
<g id="a_Node000033"><a xlink:href="_g_e_uniform_buffer_8h.html" target="_top" xlink:title=" ">
<polygon fill="white" stroke="#666666" points="1621.07,-468 1468.57,-468 1468.57,-448 1621.07,-448 1621.07,-468"/>
<text xml:space="preserve" text-anchor="middle" x="1544.82" y="-454.5" font-family="Helvetica,sans-Serif" font-size="10.00">MVPVulkan/GEUniformBuffer.h</text>
</a>
</g>
</g>
<!-- Node1&#45;&gt;Node33 -->
<g id="edge56_Node000001_Node000033" class="edge">
<title>Node1&#45;&gt;Node33</title>
<g id="a_edge56_Node000001_Node000033"><a xlink:title=" ">
<path fill="none" stroke="#63b8ff" d="M747.56,-566.67C945.44,-561.38 1389.75,-547.07 1454.82,-524 1488.61,-512.02 1520.81,-483.13 1535.9,-468.23"/>
<polygon fill="#63b8ff" stroke="#63b8ff" points="747.74,-563.17 737.83,-566.93 747.92,-570.16 747.74,-563.17"/>
</a>
</g>
</g>
<!-- Node35 -->
<g id="Node000035" class="node">
<title>Node35</title>
<g id="a_Node000035"><a xlink:href="_g_e_vertex_buffer_8h.html" target="_top" xlink:title=" ">
<polygon fill="white" stroke="#666666" points="1180.7,-524 1034.95,-524 1034.95,-504 1180.7,-504 1180.7,-524"/>
<text xml:space="preserve" text-anchor="middle" x="1107.82" y="-510.5" font-family="Helvetica,sans-Serif" font-size="10.00">MVPVulkan/GEVertexBuffer.h</text>
</a>
</g>
</g>
<!-- Node1&#45;&gt;Node35 -->
<g id="edge61_Node000001_Node000035" class="edge">
<title>Node1&#45;&gt;Node35</title>
<g id="a_edge61_Node000001_Node000035"><a xlink:title=" ">
<path fill="none" stroke="#63b8ff" d="M744.12,-558.17C829.57,-548.02 955.59,-533.07 1034.63,-523.69"/>
<polygon fill="#63b8ff" stroke="#63b8ff" points="743.88,-554.67 734.36,-559.32 744.71,-561.62 743.88,-554.67"/>
</a>
</g>
</g>
<!-- Node3 -->
<g id="Node000003" class="node">
<title>Node3</title>
<g id="a_Node000003"><a xlink:href="_g_e_application_8cpp.html" target="_top" xlink:title="Implementación de la clase GEApplication.">
<polygon fill="white" stroke="#666666" points="259.32,-20 108.32,-20 108.32,0 259.32,0 259.32,-20"/>
<text xml:space="preserve" text-anchor="middle" x="183.82" y="-6.5" font-family="Helvetica,sans-Serif" font-size="10.00">MVPVulkan/GEApplication.cpp</text>
</a>
</g>
</g>
<!-- Node2&#45;&gt;Node3 -->
<g id="edge2_Node000002_Node000003" class="edge">
<title>Node2&#45;&gt;Node3</title>
<g id="a_edge2_Node000002_Node000003"><a xlink:title=" ">
<path fill="none" stroke="#63b8ff" d="M235.84,-48.95C223.03,-39.61 207.34,-28.16 196.57,-20.3"/>
<polygon fill="#63b8ff" stroke="#63b8ff" points="233.57,-51.63 243.71,-54.7 237.7,-45.98 233.57,-51.63"/>
</a>
</g>
</g>
<!-- Node4 -->
<g id="Node000004" class="node">
<title>Node4</title>
<g id="a_Node000004"><a xlink:href="main_8cpp.html" target="_top" xlink:title="Punto de entrada principal de la aplicación MVPVulkan.">
<polygon fill="white" stroke="#666666" points="386.7,-20 276.95,-20 276.95,0 386.7,0 386.7,-20"/>
<text xml:space="preserve" text-anchor="middle" x="331.82" y="-6.5" font-family="Helvetica,sans-Serif" font-size="10.00">MVPVulkan/main.cpp</text>
</a>
</g>
</g>
<!-- Node2&#45;&gt;Node4 -->
<g id="edge3_Node000002_Node000004" class="edge">
<title>Node2&#45;&gt;Node4</title>
<g id="a_edge3_Node000002_Node000004"><a xlink:title=" ">
<path fill="none" stroke="#63b8ff" d="M279.81,-48.95C292.61,-39.61 308.3,-28.16 319.08,-20.3"/>
<polygon fill="#63b8ff" stroke="#63b8ff" points="277.95,-45.98 271.94,-54.7 282.08,-51.63 277.95,-45.98"/>
</a>
</g>
</g>
<!-- Node6 -->
<g id="Node000006" class="node">
<title>Node6</title>
<g id="a_Node000006"><a xlink:href="_g_e_animation_8cpp.html" target="_top" xlink:title="Implementación del sistema de animación por keyframes.">
<polygon fill="white" stroke="#666666" points="832.07,-132 685.57,-132 685.57,-112 832.07,-112 832.07,-132"/>
<text xml:space="preserve" text-anchor="middle" x="758.82" y="-118.5" font-family="Helvetica,sans-Serif" font-size="10.00">MVPVulkan/GEAnimation.cpp</text>
</a>
</g>
</g>
<!-- Node5&#45;&gt;Node6 -->
<g id="edge5_Node000005_Node000006" class="edge">
<title>Node5&#45;&gt;Node6</title>
<g id="a_edge5_Node000005_Node000006"><a xlink:title=" ">
<path fill="none" stroke="#63b8ff" d="M749.3,-218.55C762.29,-211.42 775.5,-201.41 782.82,-188 793.08,-169.21 777.47,-145.12 767.01,-132.19"/>
<polygon fill="#63b8ff" stroke="#63b8ff" points="747.79,-215.39 740.4,-222.98 750.91,-221.65 747.79,-215.39"/>
</a>
</g>
</g>
<!-- Node7 -->
<g id="Node000007" class="node">
<title>Node7</title>
<g id="a_Node000007"><a xlink:href="_g_e_balljoint_8cpp.html" target="_top" xlink:title="Implementación de la clase GEBalljoint con soporte jerárquico.">
<polygon fill="white" stroke="#666666" points="773.57,-188 636.07,-188 636.07,-168 773.57,-168 773.57,-188"/>
<text xml:space="preserve" text-anchor="middle" x="704.82" y="-174.5" font-family="Helvetica,sans-Serif" font-size="10.00">MVPVulkan/GEBalljoint.cpp</text>
</a>
</g>
</g>
<!-- Node5&#45;&gt;Node7 -->
<g id="edge6_Node000005_Node000007" class="edge">
<title>Node5&#45;&gt;Node7</title>
<g id="a_edge6_Node000005_Node000007"><a xlink:title=" ">
<path fill="none" stroke="#63b8ff" d="M709.78,-212.43C708.54,-204.11 707.18,-194.93 706.2,-188.3"/>
<polygon fill="#63b8ff" stroke="#63b8ff" points="706.28,-212.72 711.21,-222.1 713.2,-211.69 706.28,-212.72"/>
</a>
</g>
</g>
<!-- Node5&#45;&gt;Node8 -->
<g id="edge7_Node000005_Node000008" class="edge">
<title>Node5&#45;&gt;Node8</title>
<g id="a_edge7_Node000005_Node000008"><a xlink:title=" ">
<path fill="none" stroke="#63b8ff" d="M674.07,-219.92C645.31,-210.21 606.75,-197.2 580.91,-188.48"/>
<polygon fill="#63b8ff" stroke="#63b8ff" points="672.93,-223.23 683.52,-223.11 675.16,-216.6 672.93,-223.23"/>
</a>
</g>
</g>
<!-- Node8&#45;&gt;Node6 -->
<g id="edge8_Node000008_Node000006" class="edge">
<title>Node8&#45;&gt;Node6</title>
<g id="a_edge8_Node000008_Node000006"><a xlink:title=" ">
<path fill="none" stroke="#63b8ff" d="M599.8,-164.69C637.11,-154.91 688.51,-141.43 722.66,-132.48"/>
<polygon fill="#63b8ff" stroke="#63b8ff" points="598.96,-161.29 590.17,-167.21 600.73,-168.06 598.96,-161.29"/>
</a>
</g>
</g>
<!-- Node8&#45;&gt;Node9 -->
<g id="edge9_Node000008_Node000009" class="edge">
<title>Node8&#45;&gt;Node9</title>
<g id="a_edge9_Node000008_Node000009"><a xlink:title=" ">
<path fill="none" stroke="#63b8ff" d="M511.98,-164.18C480.98,-154.44 439.04,-141.28 411.02,-132.48"/>
<polygon fill="#63b8ff" stroke="#63b8ff" points="510.83,-167.48 521.42,-167.14 512.93,-160.81 510.83,-167.48"/>
</a>
</g>
</g>
<!-- Node11 -->
<g id="Node000011" class="node">
<title>Node11</title>
<g id="a_Node000011"><a xlink:href="_g_e_skeleton_8cpp.html" target="_top" xlink:title="Implementación de GESkeleton con carga desde archivo .skel.">
<polygon fill="white" stroke="#666666" points="623.45,-132 482.2,-132 482.2,-112 623.45,-112 623.45,-132"/>
<text xml:space="preserve" text-anchor="middle" x="552.82" y="-118.5" font-family="Helvetica,sans-Serif" font-size="10.00">MVPVulkan/GESkeleton.cpp</text>
</a>
</g>
</g>
<!-- Node8&#45;&gt;Node11 -->
<g id="edge12_Node000008_Node000011" class="edge">
<title>Node8&#45;&gt;Node11</title>
<g id="a_edge12_Node000008_Node000011"><a xlink:title=" ">
<path fill="none" stroke="#63b8ff" d="M552.82,-156.13C552.82,-147.9 552.82,-138.85 552.82,-132.3"/>
<polygon fill="#63b8ff" stroke="#63b8ff" points="549.32,-156.08 552.82,-166.08 556.32,-156.08 549.32,-156.08"/>
</a>
</g>
</g>
<!-- Node9&#45;&gt;Node2 -->
<g id="edge10_Node000009_Node000002" class="edge">
<title>Node9&#45;&gt;Node2</title>
<g id="a_edge10_Node000009_Node000002"><a xlink:title=" ">
<path fill="none" stroke="#63b8ff" d="M348.96,-107.01C327.09,-97.41 298.66,-84.93 279.42,-76.48"/>
<polygon fill="#63b8ff" stroke="#63b8ff" points="347.45,-110.17 358.01,-110.99 350.26,-103.76 347.45,-110.17"/>
</a>
</g>
</g>
<!-- Node10 -->
<g id="Node000010" class="node">
<title>Node10</title>
<g id="a_Node000010"><a xlink:href="_g_e_scene_8cpp.html" target="_top" xlink:title="Escena con animación de tiro libre de baloncesto.">
<polygon fill="white" stroke="#666666" points="1046.2,-76 915.45,-76 915.45,-56 1046.2,-56 1046.2,-76"/>
<text xml:space="preserve" text-anchor="middle" x="980.82" y="-62.5" font-family="Helvetica,sans-Serif" font-size="10.00">MVPVulkan/GEScene.cpp</text>
</a>
</g>
</g>
<!-- Node9&#45;&gt;Node10 -->
<g id="edge11_Node000009_Node000010" class="edge">
<title>Node9&#45;&gt;Node10</title>
<g id="a_edge11_Node000009_Node000010"><a xlink:title=" ">
<path fill="none" stroke="#63b8ff" d="M452.64,-113.91C459.46,-113.26 466.27,-112.61 472.82,-112 631.51,-97.21 818.19,-80.97 915.05,-72.63"/>
<polygon fill="#63b8ff" stroke="#63b8ff" points="452.32,-110.43 442.7,-114.87 452.99,-117.39 452.32,-110.43"/>
</a>
</g>
</g>
<!-- Node12&#45;&gt;Node2 -->
<g id="edge14_Node000012_Node000002" class="edge">
<title>Node12&#45;&gt;Node2</title>
<g id="a_edge14_Node000012_Node000002"><a xlink:title=" ">
<path fill="none" stroke="#63b8ff" d="M187.04,-161.01C197.87,-153.11 210.32,-142.93 219.82,-132 235.26,-114.25 247.78,-89.32 253.85,-76.09"/>
<polygon fill="#63b8ff" stroke="#63b8ff" points="185.08,-158.11 178.9,-166.71 189.1,-163.84 185.08,-158.11"/>
</a>
</g>
</g>
<!-- Node12&#45;&gt;Node9 -->
<g id="edge16_Node000012_Node000009" class="edge">
<title>Node12&#45;&gt;Node9</title>
<g id="a_edge16_Node000012_Node000009"><a xlink:title=" ">
<path fill="none" stroke="#63b8ff" d="M212.03,-164.81C251.58,-155.01 306.35,-141.45 342.65,-132.46"/>
<polygon fill="#63b8ff" stroke="#63b8ff" points="211.38,-161.37 202.51,-167.17 213.06,-168.16 211.38,-161.37"/>
</a>
</g>
</g>
<!-- Node13 -->
<g id="Node000013" class="node">
<title>Node13</title>
<g id="a_Node000013"><a xlink:href="_g_e_command_context_8cpp.html" target="_top" xlink:title="Implementación de la clase GECommandContext.">
<polygon fill="white" stroke="#666666" points="211.07,-132 28.57,-132 28.57,-112 211.07,-112 211.07,-132"/>
<text xml:space="preserve" text-anchor="middle" x="119.82" y="-118.5" font-family="Helvetica,sans-Serif" font-size="10.00">MVPVulkan/GECommandContext.cpp</text>
</a>
</g>
</g>
<!-- Node12&#45;&gt;Node13 -->
<g id="edge15_Node000012_Node000013" class="edge">
<title>Node12&#45;&gt;Node13</title>
<g id="a_edge15_Node000012_Node000013"><a xlink:title=" ">
<path fill="none" stroke="#63b8ff" d="M148.27,-158.72C141.2,-149.84 133,-139.55 127.23,-132.3"/>
<polygon fill="#63b8ff" stroke="#63b8ff" points="145.42,-160.77 154.39,-166.41 150.9,-156.41 145.42,-160.77"/>
</a>
</g>
</g>
<!-- Node15 -->
<g id="Node000015" class="node">
<title>Node15</title>
<g id="a_Node000015"><a xlink:href="_g_e_depth_buffer_8cpp.html" target="_top" xlink:title="Implementación de la clase GEDepthBuffer.">
<polygon fill="white" stroke="#666666" points="955.2,-468 800.45,-468 800.45,-448 955.2,-448 955.2,-468"/>
<text xml:space="preserve" text-anchor="middle" x="877.82" y="-454.5" font-family="Helvetica,sans-Serif" font-size="10.00">MVPVulkan/GEDepthBuffer.cpp</text>
</a>
</g>
</g>
<!-- Node14&#45;&gt;Node15 -->
<g id="edge18_Node000014_Node000015" class="edge">
<title>Node14&#45;&gt;Node15</title>
<g id="a_edge18_Node000014_Node000015"><a xlink:title=" ">
<path fill="none" stroke="#63b8ff" d="M784.91,-499.14C807.16,-489.52 836.23,-476.97 855.88,-468.48"/>
<polygon fill="#63b8ff" stroke="#63b8ff" points="783.78,-495.81 775.99,-502.99 786.55,-502.24 783.78,-495.81"/>
</a>
</g>
</g>
<!-- Node14&#45;&gt;Node16 -->
<g id="edge19_Node000014_Node000016" class="edge">
<title>Node14&#45;&gt;Node16</title>
<g id="a_edge19_Node000014_Node000016"><a xlink:title=" ">
<path fill="none" stroke="#63b8ff" d="M735.03,-495.85C725.57,-486.72 714.3,-475.86 706.47,-468.3"/>
<polygon fill="#63b8ff" stroke="#63b8ff" points="732.35,-498.12 741.98,-502.54 737.21,-493.08 732.35,-498.12"/>
</a>
</g>
</g>
<!-- Node16&#45;&gt;Node5 -->
<g id="edge20_Node000016_Node000005" class="edge">
<title>Node16&#45;&gt;Node5</title>
<g id="a_edge20_Node000016_Node000005"><a xlink:title=" ">
<path fill="none" stroke="#63b8ff" d="M695.42,-436.42C693.56,-403.26 691.4,-336.08 699.82,-280 701.71,-267.45 706.12,-253.49 709.28,-244.49"/>
<polygon fill="#63b8ff" stroke="#63b8ff" points="691.92,-436.44 696.03,-446.2 698.91,-436.01 691.92,-436.44"/>
</a>
</g>
</g>
<!-- Node16&#45;&gt;Node8 -->
<g id="edge40_Node000016_Node000008" class="edge">
<title>Node16&#45;&gt;Node8</title>
<g id="a_edge40_Node000016_Node000008"><a xlink:title=" ">
<path fill="none" stroke="#63b8ff" d="M675.65,-440.41C653.16,-420.76 620.82,-385.76 620.82,-347 620.82,-347 620.82,-347 620.82,-289 620.82,-246.12 582.97,-205.99 563.75,-188.38"/>
<polygon fill="#63b8ff" stroke="#63b8ff" points="673.2,-442.92 683.11,-446.66 677.69,-437.56 673.2,-442.92"/>
</a>
</g>
</g>
<!-- Node16&#45;&gt;Node9 -->
<g id="edge39_Node000016_Node000009" class="edge">
<title>Node16&#45;&gt;Node9</title>
<g id="a_edge39_Node000016_Node000009"><a xlink:title=" ">
<path fill="none" stroke="#63b8ff" d="M627.74,-445.45C540.55,-428.88 401.82,-394.98 401.82,-347 401.82,-347 401.82,-347 401.82,-233 401.82,-195.09 389.64,-151.11 383.83,-132.3"/>
<polygon fill="#63b8ff" stroke="#63b8ff" points="626.93,-448.86 637.41,-447.26 628.22,-441.98 626.93,-448.86"/>
</a>
</g>
</g>
<!-- Node16&#45;&gt;Node17 -->
<g id="edge21_Node000016_Node000017" class="edge">
<title>Node16&#45;&gt;Node17</title>
<g id="a_edge21_Node000016_Node000017"><a xlink:title=" ">
<path fill="none" stroke="#63b8ff" d="M794.18,-447.83C1007.21,-430.48 1245.07,-415.11 1364.35,-407.68"/>
<polygon fill="#63b8ff" stroke="#63b8ff" points="793.96,-444.33 784.28,-448.64 794.53,-451.31 793.96,-444.33"/>
</a>
</g>
</g>
<!-- Node16&#45;&gt;Node19 -->
<g id="edge37_Node000016_Node000019" class="edge">
<title>Node16&#45;&gt;Node19</title>
<g id="a_edge37_Node000016_Node000019"><a xlink:title=" ">
<path fill="none" stroke="#63b8ff" d="M761.68,-445.32C801.87,-437.43 854.32,-425.91 899.82,-412 952.97,-395.75 1013.2,-370.1 1044.1,-356.39"/>
<polygon fill="#63b8ff" stroke="#63b8ff" points="761.06,-441.88 751.9,-447.22 762.39,-448.75 761.06,-441.88"/>
</a>
</g>
</g>
<!-- Node27 -->
<g id="Node000027" class="node">
<title>Node27</title>
<g id="a_Node000027"><a xlink:href="_g_e_rendering_context_8cpp.html" target="_top" xlink:title="Implementación de la clase GERenderingContext.">
<polygon fill="white" stroke="#666666" points="890.7,-412 708.95,-412 708.95,-392 890.7,-392 890.7,-412"/>
<text xml:space="preserve" text-anchor="middle" x="799.82" y="-398.5" font-family="Helvetica,sans-Serif" font-size="10.00">MVPVulkan/GERenderingContext.cpp</text>
</a>
</g>
</g>
<!-- Node16&#45;&gt;Node27 -->
<g id="edge38_Node000016_Node000027" class="edge">
<title>Node16&#45;&gt;Node27</title>
<g id="a_edge38_Node000016_Node000027"><a xlink:title=" ">
<path fill="none" stroke="#63b8ff" d="M724.77,-442.35C742.9,-432.84 765.99,-420.74 781.74,-412.48"/>
<polygon fill="#63b8ff" stroke="#63b8ff" points="723.34,-439.15 716.11,-446.89 726.59,-445.35 723.34,-439.15"/>
</a>
</g>
</g>
<!-- Node18 -->
<g id="Node000018" class="node">
<title>Node18</title>
<g id="a_Node000018"><a xlink:href="_g_e_descriptor_set_8cpp.html" target="_top" xlink:title="Implementación de la clase GEDescriptorSet.">
<polygon fill="white" stroke="#666666" points="1684.32,-356 1521.32,-356 1521.32,-336 1684.32,-336 1684.32,-356"/>
<text xml:space="preserve" text-anchor="middle" x="1602.82" y="-342.5" font-family="Helvetica,sans-Serif" font-size="10.00">MVPVulkan/GEDescriptorSet.cpp</text>
</a>
</g>
</g>
<!-- Node17&#45;&gt;Node18 -->
<g id="edge22_Node000017_Node000018" class="edge">
<title>Node17&#45;&gt;Node18</title>
<g id="a_edge22_Node000017_Node000018"><a xlink:title=" ">
<path fill="none" stroke="#63b8ff" d="M1479.68,-388.05C1508.84,-378.33 1548.11,-365.24 1574.39,-356.48"/>
<polygon fill="#63b8ff" stroke="#63b8ff" points="1478.86,-384.63 1470.48,-391.12 1481.07,-391.27 1478.86,-384.63"/>
</a>
</g>
</g>
<!-- Node17&#45;&gt;Node19 -->
<g id="edge23_Node000017_Node000019" class="edge">
<title>Node17&#45;&gt;Node19</title>
<g id="a_edge23_Node000017_Node000019"><a xlink:title=" ">
<path fill="none" stroke="#63b8ff" d="M1363.83,-389.94C1293.05,-379.78 1189.57,-364.92 1124.77,-355.61"/>
<polygon fill="#63b8ff" stroke="#63b8ff" points="1363,-393.36 1373.4,-391.32 1364,-386.43 1363,-393.36"/>
</a>
</g>
</g>
<!-- Node19&#45;&gt;Node9 -->
<g id="edge32_Node000019_Node000009" class="edge">
<title>Node19&#45;&gt;Node9</title>
<g id="a_edge32_Node000019_Node000009"><a xlink:title=" ">
<path fill="none" stroke="#63b8ff" d="M993.59,-343.46C918.91,-340.19 798.87,-330.19 699.82,-300 594.49,-267.89 573.98,-243.42 478.82,-188 447.42,-169.71 412.31,-145.43 393.83,-132.33"/>
<polygon fill="#63b8ff" stroke="#63b8ff" points="993.08,-346.94 1003.21,-343.85 993.36,-339.95 993.08,-346.94"/>
</a>
</g>
</g>
<!-- Node20 -->
<g id="Node000020" class="node">
<title>Node20</title>
<g id="a_Node000020"><a xlink:href="_g_e_cylinder_8h.html" target="_top" xlink:title="Declaración de la clase GECylinder.">
<polygon fill="white" stroke="#666666" points="985.07,-300 856.57,-300 856.57,-280 985.07,-280 985.07,-300"/>
<text xml:space="preserve" text-anchor="middle" x="920.82" y="-286.5" font-family="Helvetica,sans-Serif" font-size="10.00">MVPVulkan/GECylinder.h</text>
</a>
</g>
</g>
<!-- Node19&#45;&gt;Node20 -->
<g id="edge24_Node000019_Node000020" class="edge">
<title>Node19&#45;&gt;Node20</title>
<g id="a_edge24_Node000019_Node000020"><a xlink:title=" ">
<path fill="none" stroke="#63b8ff" d="M1029.26,-331.66C1003.44,-321.98 969.15,-309.12 946.1,-300.48"/>
<polygon fill="#63b8ff" stroke="#63b8ff" points="1027.73,-334.83 1038.32,-335.06 1030.19,-328.27 1027.73,-334.83"/>
</a>
</g>
</g>
<!-- Node22 -->
<g id="Node000022" class="node">
<title>Node22</title>
<g id="a_Node000022"><a xlink:href="_g_e_figure_8cpp.html" target="_top" xlink:title="Implementación de la clase GEFigure.">
<polygon fill="white" stroke="#666666" points="838.82,-300 708.82,-300 708.82,-280 838.82,-280 838.82,-300"/>
<text xml:space="preserve" text-anchor="middle" x="773.82" y="-286.5" font-family="Helvetica,sans-Serif" font-size="10.00">MVPVulkan/GEFigure.cpp</text>
</a>
</g>
</g>
<!-- Node19&#45;&gt;Node22 -->
<g id="edge28_Node000019_Node000022" class="edge">
<title>Node19&#45;&gt;Node22</title>
<g id="a_edge28_Node000019_Node000022"><a xlink:title=" ">
<path fill="none" stroke="#63b8ff" d="M1002.51,-333.44C949.49,-323.6 874.27,-309.64 824.79,-300.46"/>
<polygon fill="#63b8ff" stroke="#63b8ff" points="1001.84,-336.87 1012.31,-335.26 1003.12,-329.99 1001.84,-336.87"/>
</a>
</g>
</g>
<!-- Node23 -->
<g id="Node000023" class="node">
<title>Node23</title>
<g id="a_Node000023"><a xlink:href="_g_e_ground_8h.html" target="_top" xlink:title="Declaración de la clase GEGround para terreno rectangular.">
<polygon fill="white" stroke="#666666" points="1268.82,-300 1144.82,-300 1144.82,-280 1268.82,-280 1268.82,-300"/>
<text xml:space="preserve" text-anchor="middle" x="1206.82" y="-286.5" font-family="Helvetica,sans-Serif" font-size="10.00">MVPVulkan/GEGround.h</text>
</a>
</g>
</g>
<!-- Node19&#45;&gt;Node23 -->
<g id="edge29_Node000019_Node000023" class="edge">
<title>Node19&#45;&gt;Node23</title>
<g id="a_edge29_Node000019_Node000023"><a xlink:title=" ">
<path fill="none" stroke="#63b8ff" d="M1100.24,-331.53C1125.65,-321.87 1159.27,-309.08 1181.9,-300.48"/>
<polygon fill="#63b8ff" stroke="#63b8ff" points="1099.08,-328.23 1090.97,-335.06 1101.56,-334.77 1099.08,-328.23"/>
</a>
</g>
</g>
<!-- Node25 -->
<g id="Node000025" class="node">
<title>Node25</title>
<g id="a_Node000025"><a xlink:href="_g_e_sphere_8h.html" target="_top" xlink:title="Declaración de la clase GESphere que describe una esfera.">
<polygon fill="white" stroke="#666666" points="1126.45,-300 1003.2,-300 1003.2,-280 1126.45,-280 1126.45,-300"/>
<text xml:space="preserve" text-anchor="middle" x="1064.82" y="-286.5" font-family="Helvetica,sans-Serif" font-size="10.00">MVPVulkan/GESphere.h</text>
</a>
</g>
</g>
<!-- Node19&#45;&gt;Node25 -->
<g id="edge33_Node000019_Node000025" class="edge">
<title>Node19&#45;&gt;Node25</title>
<g id="a_edge33_Node000019_Node000025"><a xlink:title=" ">
<path fill="none" stroke="#63b8ff" d="M1064.82,-324.13C1064.82,-315.9 1064.82,-306.85 1064.82,-300.3"/>
<polygon fill="#63b8ff" stroke="#63b8ff" points="1061.32,-324.08 1064.82,-334.08 1068.32,-324.08 1061.32,-324.08"/>
</a>
</g>
</g>
<!-- Node20&#45;&gt;Node5 -->
<g id="edge25_Node000020_Node000005" class="edge">
<title>Node20&#45;&gt;Node5</title>
<g id="a_edge25_Node000020_Node000005"><a xlink:title=" ">
<path fill="none" stroke="#63b8ff" d="M873.88,-276.81C836.17,-267.02 783.97,-253.47 749.34,-244.48"/>
<polygon fill="#63b8ff" stroke="#63b8ff" points="872.57,-280.09 883.13,-279.21 874.33,-273.31 872.57,-280.09"/>
</a>
</g>
</g>
<!-- Node20&#45;&gt;Node10 -->
<g id="edge27_Node000020_Node000010" class="edge">
<title>Node20&#45;&gt;Node10</title>
<g id="a_edge27_Node000020_Node000010"><a xlink:title=" ">
<path fill="none" stroke="#63b8ff" d="M931.52,-269.74C935.52,-261.93 939.81,-252.71 942.82,-244 964.3,-181.92 976.04,-103.23 979.62,-76.43"/>
<polygon fill="#63b8ff" stroke="#63b8ff" points="928.57,-267.83 926.95,-278.3 934.75,-271.12 928.57,-267.83"/>
</a>
</g>
</g>
<!-- Node21 -->
<g id="Node000021" class="node">
<title>Node21</title>
<g id="a_Node000021"><a xlink:href="_g_e_cylinder_8cpp.html" target="_top" xlink:title="Implementación de la clase GECylinder.">
<polygon fill="white" stroke="#666666" points="933.32,-244 794.32,-244 794.32,-224 933.32,-224 933.32,-244"/>
<text xml:space="preserve" text-anchor="middle" x="863.82" y="-230.5" font-family="Helvetica,sans-Serif" font-size="10.00">MVPVulkan/GECylinder.cpp</text>
</a>
</g>
</g>
<!-- Node20&#45;&gt;Node21 -->
<g id="edge26_Node000020_Node000021" class="edge">
<title>Node20&#45;&gt;Node21</title>
<g id="a_edge26_Node000020_Node000021"><a xlink:title=" ">
<path fill="none" stroke="#63b8ff" d="M902.72,-271.85C893.08,-262.72 881.62,-251.86 873.64,-244.3"/>
<polygon fill="#63b8ff" stroke="#63b8ff" points="900.13,-274.22 909.8,-278.55 904.94,-269.13 900.13,-274.22"/>
</a>
</g>
</g>
<!-- Node23&#45;&gt;Node10 -->
<g id="edge31_Node000023_Node000010" class="edge">
<title>Node23&#45;&gt;Node10</title>
<g id="a_edge31_Node000023_Node000010"><a xlink:title=" ">
<path fill="none" stroke="#63b8ff" d="M1198.54,-269.8C1192.13,-256.19 1182.41,-237.96 1170.82,-224 1115.88,-157.83 1030.08,-98.78 995.76,-76.46"/>
<polygon fill="#63b8ff" stroke="#63b8ff" points="1195.19,-270.88 1202.49,-278.56 1201.57,-268 1195.19,-270.88"/>
</a>
</g>
</g>
<!-- Node24 -->
<g id="Node000024" class="node">
<title>Node24</title>
<g id="a_Node000024"><a xlink:href="_g_e_ground_8cpp.html" target="_top" xlink:title="Implementación de la clase GEGround.">
<polygon fill="white" stroke="#666666" points="1352.07,-244 1217.57,-244 1217.57,-224 1352.07,-224 1352.07,-244"/>
<text xml:space="preserve" text-anchor="middle" x="1284.82" y="-230.5" font-family="Helvetica,sans-Serif" font-size="10.00">MVPVulkan/GEGround.cpp</text>
</a>
</g>
</g>
<!-- Node23&#45;&gt;Node24 -->
<g id="edge30_Node000023_Node000024" class="edge">
<title>Node23&#45;&gt;Node24</title>
<g id="a_edge30_Node000023_Node000024"><a xlink:title=" ">
<path fill="none" stroke="#63b8ff" d="M1229.54,-273.27C1243.02,-263.94 1259.65,-252.43 1271.13,-244.48"/>
<polygon fill="#63b8ff" stroke="#63b8ff" points="1227.88,-270.16 1221.65,-278.73 1231.87,-275.92 1227.88,-270.16"/>
</a>
</g>
</g>
<!-- Node25&#45;&gt;Node5 -->
<g id="edge34_Node000025_Node000005" class="edge">
<title>Node25&#45;&gt;Node5</title>
<g id="a_edge34_Node000025_Node000005"><a xlink:title=" ">
<path fill="none" stroke="#63b8ff" d="M991.85,-277.81C927.6,-267.95 835.08,-253.76 774.47,-244.46"/>
<polygon fill="#63b8ff" stroke="#63b8ff" points="991.2,-281.25 1001.61,-279.3 992.26,-274.33 991.2,-281.25"/>
</a>
</g>
</g>
<!-- Node25&#45;&gt;Node10 -->
<g id="edge35_Node000025_Node000010" class="edge">
<title>Node25&#45;&gt;Node10</title>
<g id="a_edge35_Node000025_Node000010"><a xlink:title=" ">
<path fill="none" stroke="#63b8ff" d="M1043.11,-272.56C1034.31,-264.82 1024.83,-254.89 1018.82,-244 1002.43,-214.28 986.65,-108.7 982.12,-76.44"/>
<polygon fill="#63b8ff" stroke="#63b8ff" points="1040.75,-275.16 1050.69,-278.83 1045.21,-269.76 1040.75,-275.16"/>
</a>
</g>
</g>
<!-- Node26 -->
<g id="Node000026" class="node">
<title>Node26</title>
<g id="a_Node000026"><a xlink:href="_g_e_sphere_8cpp.html" target="_top" xlink:title="Implementación de la clase GESphere.">
<polygon fill="white" stroke="#666666" points="1161.7,-244 1027.95,-244 1027.95,-224 1161.7,-224 1161.7,-244"/>
<text xml:space="preserve" text-anchor="middle" x="1094.82" y="-230.5" font-family="Helvetica,sans-Serif" font-size="10.00">MVPVulkan/GESphere.cpp</text>
</a>
</g>
</g>
<!-- Node25&#45;&gt;Node26 -->
<g id="edge36_Node000025_Node000026" class="edge">
<title>Node25&#45;&gt;Node26</title>
<g id="a_edge36_Node000025_Node000026"><a xlink:title=" ">
<path fill="none" stroke="#63b8ff" d="M1075.61,-269.58C1080.4,-260.97 1085.8,-251.24 1089.66,-244.3"/>
<polygon fill="#63b8ff" stroke="#63b8ff" points="1072.58,-267.83 1070.78,-278.27 1078.7,-271.23 1072.58,-267.83"/>
</a>
</g>
</g>
<!-- Node29&#45;&gt;Node2 -->
<g id="edge44_Node000029_Node000002" class="edge">
<title>Node29&#45;&gt;Node2</title>
<g id="a_edge44_Node000029_Node000002"><a xlink:title=" ">
<path fill="none" stroke="#63b8ff" d="M362.24,-498.92C326.79,-481.92 276.82,-449.69 276.82,-403 276.82,-403 276.82,-403 276.82,-177 276.82,-139.21 265.8,-95.17 260.55,-76.32"/>
<polygon fill="#63b8ff" stroke="#63b8ff" points="360.33,-501.89 370.87,-502.88 363.24,-495.53 360.33,-501.89"/>
</a>
</g>
</g>
<!-- Node29&#45;&gt;Node9 -->
<g id="edge47_Node000029_Node000009" class="edge">
<title>Node29&#45;&gt;Node9</title>
<g id="a_edge47_Node000029_Node000009"><a xlink:title=" ">
<path fill="none" stroke="#63b8ff" d="M364.6,-498.17C352.67,-490.9 340.45,-480.89 333.82,-468 272,-347.87 353.95,-174.54 375.75,-132.46"/>
<polygon fill="#63b8ff" stroke="#63b8ff" points="362.66,-501.1 373.1,-502.91 366.06,-494.98 362.66,-501.1"/>
</a>
</g>
</g>
<!-- Node29&#45;&gt;Node16 -->
<g id="edge46_Node000029_Node000016" class="edge">
<title>Node29&#45;&gt;Node16</title>
<g id="a_edge46_Node000029_Node000016"><a xlink:title=" ">
<path fill="none" stroke="#63b8ff" d="M460.72,-501.5C515.4,-491.66 593.16,-477.66 644.28,-468.46"/>
<polygon fill="#63b8ff" stroke="#63b8ff" points="460.13,-498.05 450.91,-503.26 461.37,-504.94 460.13,-498.05"/>
</a>
</g>
</g>
<!-- Node29&#45;&gt;Node28 -->
<g id="edge45_Node000029_Node000028" class="edge">
<title>Node29&#45;&gt;Node28</title>
<g id="a_edge45_Node000029_Node000028"><a xlink:title=" ">
<path fill="none" stroke="#63b8ff" d="M408.52,-493.87C413.82,-485.19 419.85,-475.32 424.14,-468.3"/>
<polygon fill="#63b8ff" stroke="#63b8ff" points="405.59,-491.94 403.36,-502.3 411.56,-495.59 405.59,-491.94"/>
</a>
</g>
</g>
<!-- Node31&#45;&gt;Node19 -->
<g id="edge51_Node000031_Node000019" class="edge">
<title>Node31&#45;&gt;Node19</title>
<g id="a_edge51_Node000031_Node000019"><a xlink:title=" ">
<path fill="none" stroke="#63b8ff" d="M959.18,-494.36C984.63,-458.87 1039.19,-382.76 1058.16,-356.3"/>
<polygon fill="#63b8ff" stroke="#63b8ff" points="956.43,-492.2 953.44,-502.37 962.12,-496.28 956.43,-492.2"/>
</a>
</g>
</g>
<!-- Node32 -->
<g id="Node000032" class="node">
<title>Node32</title>
<g id="a_Node000032"><a xlink:href="_g_e_index_buffer_8cpp.html" target="_top" xlink:title="Implementación de la clase GEIndexBuffer.">
<polygon fill="white" stroke="#666666" points="1163.07,-468 1010.57,-468 1010.57,-448 1163.07,-448 1163.07,-468"/>
<text xml:space="preserve" text-anchor="middle" x="1086.82" y="-454.5" font-family="Helvetica,sans-Serif" font-size="10.00">MVPVulkan/GEIndexBuffer.cpp</text>
</a>
</g>
</g>
<!-- Node31&#45;&gt;Node32 -->
<g id="edge52_Node000031_Node000032" class="edge">
<title>Node31&#45;&gt;Node32</title>
<g id="a_edge52_Node000031_Node000032"><a xlink:title=" ">
<path fill="none" stroke="#63b8ff" d="M980.99,-499.53C1006.22,-489.87 1039.6,-477.08 1062.07,-468.48"/>
<polygon fill="#63b8ff" stroke="#63b8ff" points="979.88,-496.21 971.8,-503.05 982.39,-502.74 979.88,-496.21"/>
</a>
</g>
</g>
<!-- Node33&#45;&gt;Node17 -->
<g id="edge58_Node000033_Node000017" class="edge">
<title>Node33&#45;&gt;Node17</title>
<g id="a_edge58_Node000033_Node000017"><a xlink:title=" ">
<path fill="none" stroke="#63b8ff" d="M1516.6,-442.35C1498.3,-432.84 1474.98,-420.74 1459.08,-412.48"/>
<polygon fill="#63b8ff" stroke="#63b8ff" points="1514.88,-445.39 1525.36,-446.9 1518.1,-439.18 1514.88,-445.39"/>
</a>
</g>
</g>
<!-- Node33&#45;&gt;Node18 -->
<g id="edge57_Node000033_Node000018" class="edge">
<title>Node33&#45;&gt;Node18</title>
<g id="a_edge57_Node000033_Node000018"><a xlink:title=" ">
<path fill="none" stroke="#63b8ff" d="M1632.58,-448.19C1679.81,-441.44 1731.31,-430.12 1745.82,-412 1769.77,-382.09 1724.36,-365.44 1678.51,-356.49"/>
<polygon fill="#63b8ff" stroke="#63b8ff" points="1632.26,-444.7 1622.83,-449.52 1633.21,-451.63 1632.26,-444.7"/>
</a>
</g>
</g>
<!-- Node33&#45;&gt;Node19 -->
<g id="edge59_Node000033_Node000019" class="edge">
<title>Node33&#45;&gt;Node19</title>
<g id="a_edge59_Node000033_Node000019"><a xlink:title=" ">
<path fill="none" stroke="#63b8ff" d="M1544.53,-436.24C1543.14,-421.57 1538.71,-402.67 1525.82,-392 1495.56,-366.93 1242.67,-353.9 1124.82,-349.15"/>
<polygon fill="#63b8ff" stroke="#63b8ff" points="1541.04,-436.42 1545.04,-446.23 1548.03,-436.07 1541.04,-436.42"/>
</a>
</g>
</g>
<!-- Node34 -->
<g id="Node000034" class="node">
<title>Node34</title>
<g id="a_Node000034"><a xlink:href="_g_e_uniform_buffer_8cpp.html" target="_top" xlink:title="Implementación de la clase GEUniformBuffer.">
<polygon fill="white" stroke="#666666" points="1736.32,-412 1573.32,-412 1573.32,-392 1736.32,-392 1736.32,-412"/>
<text xml:space="preserve" text-anchor="middle" x="1654.82" y="-398.5" font-family="Helvetica,sans-Serif" font-size="10.00">MVPVulkan/GEUniformBuffer.cpp</text>
</a>
</g>
</g>
<!-- Node33&#45;&gt;Node34 -->
<g id="edge60_Node000033_Node000034" class="edge">
<title>Node33&#45;&gt;Node34</title>
<g id="a_edge60_Node000033_Node000034"><a xlink:title=" ">
<path fill="none" stroke="#63b8ff" d="M1574.13,-442.61C1593.57,-433.07 1618.54,-420.81 1635.51,-412.48"/>
<polygon fill="#63b8ff" stroke="#63b8ff" points="1572.78,-439.38 1565.34,-446.93 1575.86,-445.66 1572.78,-439.38"/>
</a>
</g>
</g>
<!-- Node35&#45;&gt;Node19 -->
<g id="edge62_Node000035_Node000019" class="edge">
<title>Node35&#45;&gt;Node19</title>
<g id="a_edge62_Node000035_Node000019"><a xlink:title=" ">
<path fill="none" stroke="#63b8ff" d="M1140.81,-498.13C1152.84,-490.88 1165.12,-480.9 1171.82,-468 1175.92,-460.11 1175.34,-456.16 1171.82,-448 1153.31,-405.07 1106.59,-371.91 1081.45,-356.48"/>
<polygon fill="#63b8ff" stroke="#63b8ff" points="1139.3,-494.96 1132.22,-502.85 1142.67,-501.1 1139.3,-494.96"/>
</a>
</g>
</g>
<!-- Node36 -->
<g id="Node000036" class="node">
<title>Node36</title>
<g id="a_Node000036"><a xlink:href="_g_e_vertex_buffer_8cpp.html" target="_top" xlink:title="Implementación de la clase GEVertexBuffer.">
<polygon fill="white" stroke="#666666" points="1374.95,-468 1218.7,-468 1218.7,-448 1374.95,-448 1374.95,-468"/>
<text xml:space="preserve" text-anchor="middle" x="1296.82" y="-454.5" font-family="Helvetica,sans-Serif" font-size="10.00">MVPVulkan/GEVertexBuffer.cpp</text>
</a>
</g>
</g>
<!-- Node35&#45;&gt;Node36 -->
<g id="edge63_Node000035_Node000036" class="edge">
<title>Node35&#45;&gt;Node36</title>
<g id="a_edge63_Node000035_Node000036"><a xlink:title=" ">
<path fill="none" stroke="#63b8ff" d="M1151.81,-500.43C1185.96,-490.67 1232.58,-477.35 1263.65,-468.48"/>
<polygon fill="#63b8ff" stroke="#63b8ff" points="1150.85,-497.07 1142.2,-503.18 1152.78,-503.8 1150.85,-497.07"/>
</a>
</g>
</g>
</g>
</svg>

<g id="navigator" transform="translate(0 0)" fill="#404254">
  <rect fill="#f2f5e9" fill-opacity="0.5" stroke="#606060" stroke-width=".5" x="0" y="0" width="60" height="60"/>
  <use id="zoomplus" xlink:href="#zoomPlus" x="17" y="9" onmousedown="handleZoom(evt,'in')"/>
  <use id="zoomminus" xlink:href="#zoomMin" x="42" y="9" onmousedown="handleZoom(evt,'out')"/>
  <use id="reset" xlink:href="#resetDef" x="30" y="36" onmousedown="handleReset()"/>
   <use id="arrowup" xlink:href="#arrowUp" x="0" y="0" onmousedown="handlePan(0,-1)"/>
  <use id="arrowright" xlink:href="#arrowRight" x="0" y="0" onmousedown="handlePan(1,0)"/>
  <use id="arrowdown" xlink:href="#arrowDown" x="0" y="0" onmousedown="handlePan(0,1)"/>
  <use id="arrowleft" xlink:href="#arrowLeft" x="0" y="0" onmousedown="handlePan(-1,0)"/>
</g>
<svg viewBox="0 0 15 15" width="100%" height="30px" preserveAspectRatio="xMaxYMin meet">
 <g id="arrow_out" transform="scale(0.3 0.3)">
  <a xlink:href="_g_e_graphics_context_8h__dep__incl_org.svg" target="_base">
   <rect id="button" ry="5" rx="5" y="6" x="6" height="38" width="38"
        fill="#f2f5e9" fill-opacity="0.5" stroke="#606060" stroke-width="1.0"/>
   <path id="arrow"
     d="M 11.500037,31.436501 C 11.940474,20.09759 22.043105,11.32322 32.158766,21.979434 L 37.068811,17.246167 C 37.068811,17.246167 37.088388,32 37.088388,32 L 22.160133,31.978069 C 22.160133,31.978069 26.997745,27.140456 26.997745,27.140456 C 18.528582,18.264221 13.291696,25.230495 11.500037,31.436501 z"
     style="fill:#404040;"/>
  </a>
 </g>
</svg>

<style type='text/css'>
<![CDATA[
[data-mouse-over-selected='false'] { opacity: 0.7; }
[data-mouse-over-selected='true']  { opacity: 1.0; }
]]>
</style>
<script type="application/ecmascript"><![CDATA[
document.addEventListener('DOMContentLoaded', (event) => {
  highlightEdges();
  highlightAdjacentNodes();
});
]]></script>
</svg>
