<?xml version="1.0" encoding="UTF-8" standalone="no"?>
<!DOCTYPE svg PUBLIC "-//W3C//DTD SVG 1.1//EN"
 "http://www.w3.org/Graphics/SVG/1.1/DTD/svg11.dtd">
<!-- Generated by graphviz version 14.1.2 (20260124.0452)
 -->
<!-- Title: MVPVulkan/GEGround.h Pages: 1 -->
<svg width="292pt" height="84pt"
 viewBox="0.00 0.00 292.00 84.00" xmlns="http://www.w3.org/2000/svg" xmlns:xlink="http://www.w3.org/1999/xlink">
<g id="graph0" class="graph" transform="scale(1 1) rotate(0) translate(4 80)">
<title>MVPVulkan/GEGround.h</title>
<!-- Node1 -->
<g id="Node000001" class="node">
<title>Node1</title>
<g id="a_Node000001"><a xlink:title="Declaración de la clase GEGround para terreno rectangular.">
<polygon fill="#999999" stroke="#666666" points="204.25,-76 80.25,-76 80.25,-56 204.25,-56 204.25,-76"/>
<text xml:space="preserve" text-anchor="middle" x="142.25" y="-62.5" font-family="Helvetica,sans-Serif" font-size="10.00">MVPVulkan/GEGround.h</text>
</a>
</g>
</g>
<!-- Node2 -->
<g id="Node000002" class="node">
<title>Node2</title>
<g id="a_Node000002"><a xlink:href="_g_e_ground_8cpp.html" target="_top" xlink:title="Implementación de la clase GEGround.">
<polygon fill="white" stroke="#666666" points="134.5,-20 0,-20 0,0 134.5,0 134.5,-20"/>
<text xml:space="preserve" text-anchor="middle" x="67.25" y="-6.5" font-family="Helvetica,sans-Serif" font-size="10.00">MVPVulkan/GEGround.cpp</text>
</a>
</g>
</g>
<!-- Node1&#45;&gt;Node2 -->
<g id="edge1_Node000001_Node000002" class="edge">
<title>Node1&#45;&gt;Node2</title>
<g id="a_edge1_Node000001_Node000002"><a xlink:title=" ">
<path fill="none" stroke="#63b8ff" d="M120.03,-49C107.14,-39.72 91.35,-28.35 80.42,-20.48"/>
<polygon fill="#63b8ff" stroke="#63b8ff" points="117.8,-51.71 127.96,-54.71 121.89,-46.03 117.8,-51.71"/>
</a>
</g>
</g>
<!-- Node3 -->
<g id="Node000003" class="node">
<title>Node3</title>
<g id="a_Node000003"><a xlink:href="_g_e_scene_8cpp.html" target="_top" xlink:title="Escena con animación de tiro libre de baloncesto.">
<polygon fill="white" stroke="#666666" points="283.62,-20 152.88,-20 152.88,0 283.62,0 283.62,-20"/>
<text xml:space="preserve" text-anchor="middle" x="218.25" y="-6.5" font-family="Helvetica,sans-Serif" font-size="10.00">MVPVulkan/GEScene.cpp</text>
</a>
</g>
</g>
<!-- Node1&#45;&gt;Node3 -->
<g id="edge2_Node000001_Node000003" class="edge">
<title>Node1&#45;&gt;Node3</title>
<g id="a_edge2_Node000001_Node000003"><a xlink:title=" ">
<path fill="none" stroke="#63b8ff" d="M164.77,-49C177.83,-39.72 193.83,-28.35 204.91,-20.48"/>
<polygon fill="#63b8ff" stroke="#63b8ff" points="162.85,-46.07 156.72,-54.72 166.9,-51.78 162.85,-46.07"/>
</a>
</g>
</g>
</g>
</svg>
