<?xml version="1.0" encoding="UTF-8" standalone="no"?>
<!DOCTYPE svg PUBLIC "-//W3C//DTD SVG 1.1//EN"
 "http://www.w3.org/Graphics/SVG/1.1/DTD/svg11.dtd">
<!-- Generated by graphviz version 14.1.2 (20260124.0452)
 -->
<!-- Title: MVPVulkan/GEMaterial.h Pages: 1 -->
<!--zoomable 420 -->

<svg id="main" version="1.1" xmlns="http://www.w3.org/2000/svg" xmlns:xlink="http://www.w3.org/1999/xlink" xml:space="preserve" onload="init(evt)">

<style type="text/css"><![CDATA[
.node, .edge {opacity: 0.7;}
.node.selected, .edge.selected {opacity: 1;}
.edge:hover path { stroke: red; }
.edge:hover polygon { stroke: red; fill: red; }
]]></style>

<defs>
  <circle id="rim" cx="0" cy="0" r="7"/>
  <circle id="rim2" cx="0" cy="0" r="3.5"/>
  <g id="zoomPlus">
    <use xlink:href="#rim" fill="#404040"><set attributeName="fill" to="#808080" begin="zoomplus.mouseover" end="zoomplus.mouseout"/></use>
    <path d="M-4,0h8M0,-4v8" fill="none" stroke="white" stroke-width="1.5" pointer-events="none"/>
  </g>
  <g id="zoomMin">
    <use xlink:href="#rim" fill="#404040"><set attributeName="fill" to="#808080" begin="zoomminus.mouseover" end="zoomminus.mouseout"/></use>
    <path d="M-4,0h8" fill="none" stroke="white" stroke-width="1.5" pointer-events="none"/>
  </g>
  <g id="arrowUp" transform="translate(30 24)">
    <use xlink:href="#rim"/>
    <path pointer-events="none" fill="none" stroke="white" stroke-width="1.5" d="M0,-3.0v7 M-2.5,-0.5L0,-3.0L2.5,-0.5"/>
  </g>
  <g id="arrowRight" transform="rotate(90) translate(36 -43)">
    <use xlink:href="#rim"/>
    <path pointer-events="none" fill="none" stroke="white" stroke-width="1.5" d="M0,-3.0v7 M-2.5,-0.5L0,-3.0L2.5,-0.5"/>
  </g>
  <g id="arrowDown" transform="rotate(180) translate(-30 -48)">
    <use xlink:href="#rim"/>
    <path pointer-events="none" fill="none" stroke="white" stroke-width="1.5" d="M0,-3.0v7 M-2.5,-0.5L0,-3.0L2.5,-0.5"/>
  </g>
  <g id="arrowLeft" transform="rotate(270) translate(-36 17)">
    <use xlink:href="#rim"/>
    <path pointer-events="none" fill="none" stroke="white" stroke-width="1.5" d="M0,-3.0v7 M-2.5,-0.5L0,-3.0L2.5,-0.5"/>
  </g>
  <g id="resetDef">
    <use xlink:href="#rim2" fill="#404040"><set attributeName="fill" to="#808080" begin="reset.mouseover" end="reset.mouseout"/></use>
  </g>
</defs>
<script type="application/ecmascript">
var viewWidth = 828;
var viewHeight = 420;
var sectionId = 'dynsection-1';
</script>
<script type="application/ecmascript" xlink:href="svg.min.js"/>
<svg id="graph" class="graph">
<g id="viewport">
<title>MVPVulkan/GEMaterial.h</title>
<!-- Node1 -->
<g id="Node000001" class="node">
<title>Node1</title>
<g id="a_Node000001"><a xlink:title="Declaración de la estructura GEMaterial para materiales.">
<polygon fill="#999999" stroke="#666666" points="185.5,-412 58.5,-412 58.5,-392 185.5,-392 185.5,-412"/>
<text xml:space="preserve" text-anchor="middle" x="122" y="-398.5" font-family="Helvetica,sans-Serif" font-size="10.00">MVPVulkan/GEMaterial.h</text>
</a>
</g>
</g>
<!-- Node2 -->
<g id="Node000002" class="node">
<title>Node2</title>
<g id="a_Node000002"><a xlink:href="_g_e_balljoint_8cpp.html" target="_top" xlink:title="Implementación de la clase GEBalljoint con soporte jerárquico.">
<polygon fill="white" stroke="#666666" points="388.75,-188 251.25,-188 251.25,-168 388.75,-168 388.75,-188"/>
<text xml:space="preserve" text-anchor="middle" x="320" y="-174.5" font-family="Helvetica,sans-Serif" font-size="10.00">MVPVulkan/GEBalljoint.cpp</text>
</a>
</g>
</g>
<!-- Node1&#45;&gt;Node2 -->
<g id="edge1_Node000001_Node000002" class="edge">
<title>Node1&#45;&gt;Node2</title>
<g id="a_edge1_Node000001_Node000002"><a xlink:title=" ">
<path fill="none" stroke="#63b8ff" d="M110.72,-382.07C91.31,-346.74 57.14,-270.19 95,-224 114.48,-200.24 192.17,-188.78 250.85,-183.42"/>
<polygon fill="#63b8ff" stroke="#63b8ff" points="107.43,-383.36 115.43,-390.31 113.51,-379.89 107.43,-383.36"/>
</a>
</g>
</g>
<!-- Node3 -->
<g id="Node000003" class="node">
<title>Node3</title>
<g id="a_Node000003"><a xlink:href="_g_e_figure_8cpp.html" target="_top" xlink:title="Implementación de la clase GEFigure.">
<polygon fill="white" stroke="#666666" points="234,-300 104,-300 104,-280 234,-280 234,-300"/>
<text xml:space="preserve" text-anchor="middle" x="169" y="-286.5" font-family="Helvetica,sans-Serif" font-size="10.00">MVPVulkan/GEFigure.cpp</text>
</a>
</g>
</g>
<!-- Node1&#45;&gt;Node3 -->
<g id="edge2_Node000001_Node000003" class="edge">
<title>Node1&#45;&gt;Node3</title>
<g id="a_edge2_Node000001_Node000003"><a xlink:title=" ">
<path fill="none" stroke="#63b8ff" d="M130.42,-381.3C140.62,-357.43 157.38,-318.2 165,-300.35"/>
<polygon fill="#63b8ff" stroke="#63b8ff" points="127.31,-379.66 126.6,-390.23 133.75,-382.41 127.31,-379.66"/>
</a>
</g>
</g>
<!-- Node4 -->
<g id="Node000004" class="node">
<title>Node4</title>
<g id="a_Node000004"><a xlink:href="_g_e_figure_8h.html" target="_top" xlink:title="Declaración de la clase GEFigure para figuras de malla.">
<polygon fill="white" stroke="#666666" points="444.75,-356 325.25,-356 325.25,-336 444.75,-336 444.75,-356"/>
<text xml:space="preserve" text-anchor="middle" x="385" y="-342.5" font-family="Helvetica,sans-Serif" font-size="10.00">MVPVulkan/GEFigure.h</text>
</a>
</g>
</g>
<!-- Node1&#45;&gt;Node4 -->
<g id="edge3_Node000001_Node000004" class="edge">
<title>Node1&#45;&gt;Node4</title>
<g id="a_edge3_Node000001_Node000004"><a xlink:title=" ">
<path fill="none" stroke="#63b8ff" d="M179.23,-389.25C227.09,-379.42 294.5,-365.58 338.94,-356.46"/>
<polygon fill="#63b8ff" stroke="#63b8ff" points="178.69,-385.79 169.59,-391.23 180.09,-392.64 178.69,-385.79"/>
</a>
</g>
</g>
<!-- Node13 -->
<g id="Node000013" class="node">
<title>Node13</title>
<g id="a_Node000013"><a xlink:href="_g_e_scene_8cpp.html" target="_top" xlink:title="Escena con animación de tiro libre de baloncesto.">
<polygon fill="white" stroke="#666666" points="288.38,-76 157.62,-76 157.62,-56 288.38,-56 288.38,-76"/>
<text xml:space="preserve" text-anchor="middle" x="223" y="-62.5" font-family="Helvetica,sans-Serif" font-size="10.00">MVPVulkan/GEScene.cpp</text>
</a>
</g>
</g>
<!-- Node1&#45;&gt;Node13 -->
<g id="edge27_Node000001_Node000013" class="edge">
<title>Node1&#45;&gt;Node13</title>
<g id="a_edge27_Node000001_Node000013"><a xlink:title=" ">
<path fill="none" stroke="#63b8ff" d="M86.84,-387.08C50.8,-370.23 0,-338.11 0,-291 0,-291 0,-291 0,-177 0,-106.2 91.52,-80.97 157.3,-71.98"/>
<polygon fill="#63b8ff" stroke="#63b8ff" points="85.08,-390.13 95.64,-391.01 87.93,-383.73 85.08,-390.13"/>
</a>
</g>
</g>
<!-- Node4&#45;&gt;Node3 -->
<g id="edge18_Node000004_Node000003" class="edge">
<title>Node4&#45;&gt;Node3</title>
<g id="a_edge18_Node000004_Node000003"><a xlink:title=" ">
<path fill="none" stroke="#63b8ff" d="M336.25,-332.81C297.09,-323.02 242.88,-309.47 206.92,-300.48"/>
<polygon fill="#63b8ff" stroke="#63b8ff" points="335.36,-336.2 345.91,-335.23 337.05,-329.41 335.36,-336.2"/>
</a>
</g>
</g>
<!-- Node5 -->
<g id="Node000005" class="node">
<title>Node5</title>
<g id="a_Node000005"><a xlink:href="_g_e_cylinder_8h.html" target="_top" xlink:title="Declaración de la clase GECylinder.">
<polygon fill="white" stroke="#666666" points="666.25,-300 537.75,-300 537.75,-280 666.25,-280 666.25,-300"/>
<text xml:space="preserve" text-anchor="middle" x="602" y="-286.5" font-family="Helvetica,sans-Serif" font-size="10.00">MVPVulkan/GECylinder.h</text>
</a>
</g>
</g>
<!-- Node4&#45;&gt;Node5 -->
<g id="edge4_Node000004_Node000005" class="edge">
<title>Node4&#45;&gt;Node5</title>
<g id="a_edge4_Node000004_Node000005"><a xlink:title=" ">
<path fill="none" stroke="#63b8ff" d="M433.72,-332.88C473.08,-323.08 527.7,-309.49 563.91,-300.48"/>
<polygon fill="#63b8ff" stroke="#63b8ff" points="433.13,-329.42 424.27,-335.23 434.82,-336.21 433.13,-329.42"/>
</a>
</g>
</g>
<!-- Node9 -->
<g id="Node000009" class="node">
<title>Node9</title>
<g id="a_Node000009"><a xlink:href="_g_e_scene_8h.html" target="_top" xlink:title="Declaración de la clase GEScene que contiene la escena con esqueleto animado.">
<polygon fill="white" stroke="#666666" points="751.12,-132 630.88,-132 630.88,-112 751.12,-112 751.12,-132"/>
<text xml:space="preserve" text-anchor="middle" x="691" y="-118.5" font-family="Helvetica,sans-Serif" font-size="10.00">MVPVulkan/GEScene.h</text>
</a>
</g>
</g>
<!-- Node4&#45;&gt;Node9 -->
<g id="edge22_Node000004_Node000009" class="edge">
<title>Node4&#45;&gt;Node9</title>
<g id="a_edge22_Node000004_Node000009"><a xlink:title=" ">
<path fill="none" stroke="#63b8ff" d="M456.17,-340.64C515.85,-335.42 602.69,-324.12 675,-300 725.17,-283.27 752.79,-289.35 780,-244 806.43,-199.95 739.48,-152.04 707.21,-132.3"/>
<polygon fill="#63b8ff" stroke="#63b8ff" points="456.16,-337.13 446.48,-341.45 456.74,-344.1 456.16,-337.13"/>
</a>
</g>
</g>
<!-- Node16 -->
<g id="Node000016" class="node">
<title>Node16</title>
<g id="a_Node000016"><a xlink:href="_g_e_ground_8h.html" target="_top" xlink:title="Declaración de la clase GEGround para terreno rectangular.">
<polygon fill="white" stroke="#666666" points="376,-300 252,-300 252,-280 376,-280 376,-300"/>
<text xml:space="preserve" text-anchor="middle" x="314" y="-286.5" font-family="Helvetica,sans-Serif" font-size="10.00">MVPVulkan/GEGround.h</text>
</a>
</g>
</g>
<!-- Node4&#45;&gt;Node16 -->
<g id="edge19_Node000004_Node000016" class="edge">
<title>Node4&#45;&gt;Node16</title>
<g id="a_edge19_Node000004_Node000016"><a xlink:title=" ">
<path fill="none" stroke="#63b8ff" d="M363.54,-328.68C351.33,-319.39 336.47,-308.09 326.23,-300.3"/>
<polygon fill="#63b8ff" stroke="#63b8ff" points="361.35,-331.41 371.43,-334.68 365.59,-325.84 361.35,-331.41"/>
</a>
</g>
</g>
<!-- Node18 -->
<g id="Node000018" class="node">
<title>Node18</title>
<g id="a_Node000018"><a xlink:href="_g_e_sphere_8h.html" target="_top" xlink:title="Declaración de la clase GESphere que describe una esfera.">
<polygon fill="white" stroke="#666666" points="517.62,-300 394.38,-300 394.38,-280 517.62,-280 517.62,-300"/>
<text xml:space="preserve" text-anchor="middle" x="456" y="-286.5" font-family="Helvetica,sans-Serif" font-size="10.00">MVPVulkan/GESphere.h</text>
</a>
</g>
</g>
<!-- Node4&#45;&gt;Node18 -->
<g id="edge23_Node000004_Node000018" class="edge">
<title>Node4&#45;&gt;Node18</title>
<g id="a_edge23_Node000004_Node000018"><a xlink:title=" ">
<path fill="none" stroke="#63b8ff" d="M406.46,-328.68C418.67,-319.39 433.53,-308.09 443.77,-300.3"/>
<polygon fill="#63b8ff" stroke="#63b8ff" points="404.41,-325.84 398.57,-334.68 408.65,-331.41 404.41,-325.84"/>
</a>
</g>
</g>
<!-- Node6 -->
<g id="Node000006" class="node">
<title>Node6</title>
<g id="a_Node000006"><a xlink:href="_g_e_balljoint_8h.html" target="_top" xlink:title="Declaración de la clase GEBalljoint para articulaciones jerárquicas.">
<polygon fill="white" stroke="#666666" points="573.5,-244 446.5,-244 446.5,-224 573.5,-224 573.5,-244"/>
<text xml:space="preserve" text-anchor="middle" x="510" y="-230.5" font-family="Helvetica,sans-Serif" font-size="10.00">MVPVulkan/GEBalljoint.h</text>
</a>
</g>
</g>
<!-- Node5&#45;&gt;Node6 -->
<g id="edge5_Node000005_Node000006" class="edge">
<title>Node5&#45;&gt;Node6</title>
<g id="a_edge5_Node000005_Node000006"><a xlink:title=" ">
<path fill="none" stroke="#63b8ff" d="M576.12,-273.81C560.07,-264.39 539.96,-252.58 526.15,-244.48"/>
<polygon fill="#63b8ff" stroke="#63b8ff" points="574.27,-276.78 584.67,-278.83 577.82,-270.75 574.27,-276.78"/>
</a>
</g>
</g>
<!-- Node5&#45;&gt;Node13 -->
<g id="edge17_Node000005_Node000013" class="edge">
<title>Node5&#45;&gt;Node13</title>
<g id="a_edge17_Node000005_Node000013"><a xlink:title=" ">
<path fill="none" stroke="#63b8ff" d="M607.04,-268.93C614.92,-232.25 625.32,-154.27 584,-112 563.75,-91.28 387.05,-77.14 288.59,-70.8"/>
<polygon fill="#63b8ff" stroke="#63b8ff" points="603.74,-267.67 604.88,-278.2 610.56,-269.26 603.74,-267.67"/>
</a>
</g>
</g>
<!-- Node15 -->
<g id="Node000015" class="node">
<title>Node15</title>
<g id="a_Node000015"><a xlink:href="_g_e_cylinder_8cpp.html" target="_top" xlink:title="Implementación de la clase GECylinder.">
<polygon fill="white" stroke="#666666" points="770.5,-244 631.5,-244 631.5,-224 770.5,-224 770.5,-244"/>
<text xml:space="preserve" text-anchor="middle" x="701" y="-230.5" font-family="Helvetica,sans-Serif" font-size="10.00">MVPVulkan/GECylinder.cpp</text>
</a>
</g>
</g>
<!-- Node5&#45;&gt;Node15 -->
<g id="edge16_Node000005_Node000015" class="edge">
<title>Node5&#45;&gt;Node15</title>
<g id="a_edge16_Node000005_Node000015"><a xlink:title=" ">
<path fill="none" stroke="#63b8ff" d="M628.86,-274.35C646.29,-264.84 668.48,-252.74 683.62,-244.48"/>
<polygon fill="#63b8ff" stroke="#63b8ff" points="627.68,-271.01 620.57,-278.87 631.03,-277.15 627.68,-271.01"/>
</a>
</g>
</g>
<!-- Node6&#45;&gt;Node2 -->
<g id="edge7_Node000006_Node000002" class="edge">
<title>Node6&#45;&gt;Node2</title>
<g id="a_edge7_Node000006_Node000002"><a xlink:title=" ">
<path fill="none" stroke="#63b8ff" d="M466.23,-220.56C431.86,-210.79 384.72,-197.39 353.35,-188.48"/>
<polygon fill="#63b8ff" stroke="#63b8ff" points="464.87,-223.81 475.45,-223.18 466.79,-217.08 464.87,-223.81"/>
</a>
</g>
</g>
<!-- Node7 -->
<g id="Node000007" class="node">
<title>Node7</title>
<g id="a_Node000007"><a xlink:href="_g_e_animation_8cpp.html" target="_top" xlink:title="Implementación del sistema de animación por keyframes.">
<polygon fill="white" stroke="#666666" points="415.25,-132 268.75,-132 268.75,-112 415.25,-112 415.25,-132"/>
<text xml:space="preserve" text-anchor="middle" x="342" y="-118.5" font-family="Helvetica,sans-Serif" font-size="10.00">MVPVulkan/GEAnimation.cpp</text>
</a>
</g>
</g>
<!-- Node6&#45;&gt;Node7 -->
<g id="edge6_Node000006_Node000007" class="edge">
<title>Node6&#45;&gt;Node7</title>
<g id="a_edge6_Node000006_Node000007"><a xlink:title=" ">
<path fill="none" stroke="#63b8ff" d="M484.27,-217.86C469.93,-209.29 451.83,-198.28 436,-188 406.54,-168.88 372.88,-145.13 354.91,-132.29"/>
<polygon fill="#63b8ff" stroke="#63b8ff" points="482.27,-220.74 492.65,-222.84 485.84,-214.72 482.27,-220.74"/>
</a>
</g>
</g>
<!-- Node8 -->
<g id="Node000008" class="node">
<title>Node8</title>
<g id="a_Node000008"><a xlink:href="_g_e_skeleton_8h.html" target="_top" xlink:title="Declaración de la clase GESkeleton que representa un esqueleto con articulaciones jerárquicas.">
<polygon fill="white" stroke="#666666" points="575.38,-188 444.62,-188 444.62,-168 575.38,-168 575.38,-188"/>
<text xml:space="preserve" text-anchor="middle" x="510" y="-174.5" font-family="Helvetica,sans-Serif" font-size="10.00">MVPVulkan/GESkeleton.h</text>
</a>
</g>
</g>
<!-- Node6&#45;&gt;Node8 -->
<g id="edge8_Node000006_Node000008" class="edge">
<title>Node6&#45;&gt;Node8</title>
<g id="a_edge8_Node000006_Node000008"><a xlink:title=" ">
<path fill="none" stroke="#63b8ff" d="M510,-212.13C510,-203.9 510,-194.85 510,-188.3"/>
<polygon fill="#63b8ff" stroke="#63b8ff" points="506.5,-212.08 510,-222.08 513.5,-212.08 506.5,-212.08"/>
</a>
</g>
</g>
<!-- Node8&#45;&gt;Node7 -->
<g id="edge9_Node000008_Node000007" class="edge">
<title>Node8&#45;&gt;Node7</title>
<g id="a_edge9_Node000008_Node000007"><a xlink:title=" ">
<path fill="none" stroke="#63b8ff" d="M470.11,-164.18C439.82,-154.44 398.86,-141.28 371.49,-132.48"/>
<polygon fill="#63b8ff" stroke="#63b8ff" points="468.7,-167.4 479.3,-167.13 470.85,-160.74 468.7,-167.4"/>
</a>
</g>
</g>
<!-- Node8&#45;&gt;Node9 -->
<g id="edge10_Node000008_Node000009" class="edge">
<title>Node8&#45;&gt;Node9</title>
<g id="a_edge10_Node000008_Node000009"><a xlink:title=" ">
<path fill="none" stroke="#63b8ff" d="M552.55,-164.31C585.22,-154.56 629.61,-141.32 659.23,-132.48"/>
<polygon fill="#63b8ff" stroke="#63b8ff" points="551.56,-160.95 542.98,-167.16 553.56,-167.66 551.56,-160.95"/>
</a>
</g>
</g>
<!-- Node14 -->
<g id="Node000014" class="node">
<title>Node14</title>
<g id="a_Node000014"><a xlink:href="_g_e_skeleton_8cpp.html" target="_top" xlink:title="Implementación de GESkeleton con carga desde archivo .skel.">
<polygon fill="white" stroke="#666666" points="574.62,-132 433.38,-132 433.38,-112 574.62,-112 574.62,-132"/>
<text xml:space="preserve" text-anchor="middle" x="504" y="-118.5" font-family="Helvetica,sans-Serif" font-size="10.00">MVPVulkan/GESkeleton.cpp</text>
</a>
</g>
</g>
<!-- Node8&#45;&gt;Node14 -->
<g id="edge15_Node000008_Node000014" class="edge">
<title>Node8&#45;&gt;Node14</title>
<g id="a_edge15_Node000008_Node000014"><a xlink:title=" ">
<path fill="none" stroke="#63b8ff" d="M507.71,-156.43C506.79,-148.11 505.77,-138.93 505.03,-132.3"/>
<polygon fill="#63b8ff" stroke="#63b8ff" points="504.2,-156.54 508.79,-166.09 511.16,-155.76 504.2,-156.54"/>
</a>
</g>
</g>
<!-- Node10 -->
<g id="Node000010" class="node">
<title>Node10</title>
<g id="a_Node000010"><a xlink:href="_g_e_application_8h.html" target="_top" xlink:title="Declaración de la clase GEApplication que crea y lanza la aplicación gráfica.">
<polygon fill="white" stroke="#666666" points="761.25,-76 620.75,-76 620.75,-56 761.25,-56 761.25,-76"/>
<text xml:space="preserve" text-anchor="middle" x="691" y="-62.5" font-family="Helvetica,sans-Serif" font-size="10.00">MVPVulkan/GEApplication.h</text>
</a>
</g>
</g>
<!-- Node9&#45;&gt;Node10 -->
<g id="edge11_Node000009_Node000010" class="edge">
<title>Node9&#45;&gt;Node10</title>
<g id="a_edge11_Node000009_Node000010"><a xlink:title=" ">
<path fill="none" stroke="#63b8ff" d="M691,-100.13C691,-91.9 691,-82.85 691,-76.3"/>
<polygon fill="#63b8ff" stroke="#63b8ff" points="687.5,-100.08 691,-110.08 694.5,-100.08 687.5,-100.08"/>
</a>
</g>
</g>
<!-- Node9&#45;&gt;Node13 -->
<g id="edge14_Node000009_Node000013" class="edge">
<title>Node9&#45;&gt;Node13</title>
<g id="a_edge14_Node000009_Node000013"><a xlink:title=" ">
<path fill="none" stroke="#63b8ff" d="M619.06,-112.24C618.37,-112.16 617.68,-112.08 617,-112 501.45,-98.37 366.75,-83.13 288.55,-74.34"/>
<polygon fill="#63b8ff" stroke="#63b8ff" points="618.58,-115.71 628.93,-113.42 619.41,-108.76 618.58,-115.71"/>
</a>
</g>
</g>
<!-- Node11 -->
<g id="Node000011" class="node">
<title>Node11</title>
<g id="a_Node000011"><a xlink:href="_g_e_application_8cpp.html" target="_top" xlink:title="Implementación de la clase GEApplication.">
<polygon fill="white" stroke="#666666" points="692.5,-20 541.5,-20 541.5,0 692.5,0 692.5,-20"/>
<text xml:space="preserve" text-anchor="middle" x="617" y="-6.5" font-family="Helvetica,sans-Serif" font-size="10.00">MVPVulkan/GEApplication.cpp</text>
</a>
</g>
</g>
<!-- Node10&#45;&gt;Node11 -->
<g id="edge12_Node000010_Node000011" class="edge">
<title>Node10&#45;&gt;Node11</title>
<g id="a_edge12_Node000010_Node000011"><a xlink:title=" ">
<path fill="none" stroke="#63b8ff" d="M669.01,-48.95C656.21,-39.61 640.52,-28.16 629.74,-20.3"/>
<polygon fill="#63b8ff" stroke="#63b8ff" points="666.75,-51.63 676.89,-54.7 670.87,-45.98 666.75,-51.63"/>
</a>
</g>
</g>
<!-- Node12 -->
<g id="Node000012" class="node">
<title>Node12</title>
<g id="a_Node000012"><a xlink:href="main_8cpp.html" target="_top" xlink:title="Punto de entrada principal de la aplicación MVPVulkan.">
<polygon fill="white" stroke="#666666" points="819.88,-20 710.12,-20 710.12,0 819.88,0 819.88,-20"/>
<text xml:space="preserve" text-anchor="middle" x="765" y="-6.5" font-family="Helvetica,sans-Serif" font-size="10.00">MVPVulkan/main.cpp</text>
</a>
</g>
</g>
<!-- Node10&#45;&gt;Node12 -->
<g id="edge13_Node000010_Node000012" class="edge">
<title>Node10&#45;&gt;Node12</title>
<g id="a_edge13_Node000010_Node000012"><a xlink:title=" ">
<path fill="none" stroke="#63b8ff" d="M712.99,-48.95C725.79,-39.61 741.48,-28.16 752.26,-20.3"/>
<polygon fill="#63b8ff" stroke="#63b8ff" points="711.13,-45.98 705.11,-54.7 715.25,-51.63 711.13,-45.98"/>
</a>
</g>
</g>
<!-- Node16&#45;&gt;Node13 -->
<g id="edge21_Node000016_Node000013" class="edge">
<title>Node16&#45;&gt;Node13</title>
<g id="a_edge21_Node000016_Node000013"><a xlink:title=" ">
<path fill="none" stroke="#63b8ff" d="M240.33,-278.53C180.44,-269.27 104.36,-255.48 95,-244 44.91,-182.57 161.92,-103.47 206.58,-76.5"/>
<polygon fill="#63b8ff" stroke="#63b8ff" points="239.78,-281.99 250.19,-280.04 240.83,-275.07 239.78,-281.99"/>
</a>
</g>
</g>
<!-- Node17 -->
<g id="Node000017" class="node">
<title>Node17</title>
<g id="a_Node000017"><a xlink:href="_g_e_ground_8cpp.html" target="_top" xlink:title="Implementación de la clase GEGround.">
<polygon fill="white" stroke="#666666" points="238.25,-244 103.75,-244 103.75,-224 238.25,-224 238.25,-244"/>
<text xml:space="preserve" text-anchor="middle" x="171" y="-230.5" font-family="Helvetica,sans-Serif" font-size="10.00">MVPVulkan/GEGround.cpp</text>
</a>
</g>
</g>
<!-- Node16&#45;&gt;Node17 -->
<g id="edge20_Node000016_Node000017" class="edge">
<title>Node16&#45;&gt;Node17</title>
<g id="a_edge20_Node000016_Node000017"><a xlink:title=" ">
<path fill="none" stroke="#63b8ff" d="M278.34,-275.53C252.74,-265.87 218.89,-253.08 196.1,-244.48"/>
<polygon fill="#63b8ff" stroke="#63b8ff" points="277.08,-278.8 287.68,-279.06 279.56,-272.25 277.08,-278.8"/>
</a>
</g>
</g>
<!-- Node18&#45;&gt;Node6 -->
<g id="edge24_Node000018_Node000006" class="edge">
<title>Node18&#45;&gt;Node6</title>
<g id="a_edge24_Node000018_Node000006"><a xlink:title=" ">
<path fill="none" stroke="#63b8ff" d="M473.43,-271.57C482.5,-262.5 493.22,-251.78 500.7,-244.3"/>
<polygon fill="#63b8ff" stroke="#63b8ff" points="471.07,-268.98 466.48,-278.52 476.02,-273.93 471.07,-268.98"/>
</a>
</g>
</g>
<!-- Node18&#45;&gt;Node13 -->
<g id="edge25_Node000018_Node000013" class="edge">
<title>Node18&#45;&gt;Node13</title>
<g id="a_edge25_Node000018_Node000013"><a xlink:title=" ">
<path fill="none" stroke="#63b8ff" d="M444.62,-270.58C434.47,-255.74 418.27,-235.5 399,-224 337.53,-187.31 290.83,-240.35 242,-188 212.56,-156.43 217.86,-98.84 221.32,-76.35"/>
<polygon fill="#63b8ff" stroke="#63b8ff" points="441.42,-272.09 449.81,-278.56 447.29,-268.27 441.42,-272.09"/>
</a>
</g>
</g>
<!-- Node19 -->
<g id="Node000019" class="node">
<title>Node19</title>
<g id="a_Node000019"><a xlink:href="_g_e_sphere_8cpp.html" target="_top" xlink:title="Implementación de la clase GESphere.">
<polygon fill="white" stroke="#666666" points="389.88,-244 256.12,-244 256.12,-224 389.88,-224 389.88,-244"/>
<text xml:space="preserve" text-anchor="middle" x="323" y="-230.5" font-family="Helvetica,sans-Serif" font-size="10.00">MVPVulkan/GESphere.cpp</text>
</a>
</g>
</g>
<!-- Node18&#45;&gt;Node19 -->
<g id="edge26_Node000018_Node000019" class="edge">
<title>Node18&#45;&gt;Node19</title>
<g id="a_edge26_Node000018_Node000019"><a xlink:title=" ">
<path fill="none" stroke="#63b8ff" d="M422.19,-275.27C398.46,-265.64 367.35,-253.01 346.35,-244.48"/>
<polygon fill="#63b8ff" stroke="#63b8ff" points="420.85,-278.51 431.43,-279.02 423.48,-272.02 420.85,-278.51"/>
</a>
</g>
</g>
</g>
</svg>

<g id="navigator" transform="translate(0 0)" fill="#404254">
  <rect fill="#f2f5e9" fill-opacity="0.5" stroke="#606060" stroke-width=".5" x="0" y="0" width="60" height="60"/>
  <use id="zoomplus" xlink:href="#zoomPlus" x="17" y="9" onmousedown="handleZoom(evt,'in')"/>
  <use id="zoomminus" xlink:href="#zoomMin" x="42" y="9" onmousedown="handleZoom(evt,'out')"/>
  <use id="reset" xlink:href="#resetDef" x="30" y="36" onmousedown="handleReset()"/>
   <use id="arrowup" xlink:href="#arrowUp" x="0" y="0" onmousedown="handlePan(0,-1)"/>
  <use id="arrowright" xlink:href="#arrowRight" x="0" y="0" onmousedown="handlePan(1,0)"/>
  <use id="arrowdown" xlink:href="#arrowDown" x="0" y="0" onmousedown="handlePan(0,1)"/>
  <use id="arrowleft" xlink:href="#arrowLeft" x="0" y="0" onmousedown="handlePan(-1,0)"/>
</g>
<svg viewBox="0 0 15 15" width="100%" height="30px" preserveAspectRatio="xMaxYMin meet">
 <g id="arrow_out" transform="scale(0.3 0.3)">
  <a xlink:href="_g_e_material_8h__dep__incl_org.svg" target="_base">
   <rect id="button" ry="5" rx="5" y="6" x="6" height="38" width="38"
        fill="#f2f5e9" fill-opacity="0.5" stroke="#606060" stroke-width="1.0"/>
   <path id="arrow"
     d="M 11.500037,31.436501 C 11.940474,20.09759 22.043105,11.32322 32.158766,21.979434 L 37.068811,17.246167 C 37.068811,17.246167 37.088388,32 37.088388,32 L 22.160133,31.978069 C 22.160133,31.978069 26.997745,27.140456 26.997745,27.140456 C 18.528582,18.264221 13.291696,25.230495 11.500037,31.436501 z"
     style="fill:#404040;"/>
  </a>
 </g>
</svg>

<style type='text/css'>
<![CDATA[
[data-mouse-over-selected='false'] { opacity: 0.7; }
[data-mouse-over-selected='true']  { opacity: 1.0; }
]]>
</style>
<script type="application/ecmascript"><![CDATA[
document.addEventListener('DOMContentLoaded', (event) => {
  highlightEdges();
  highlightAdjacentNodes();
});
]]></script>
</svg>
