<?xml version="1.0" encoding="UTF-8" standalone="no"?>
<!DOCTYPE svg PUBLIC "-//W3C//DTD SVG 1.1//EN"
 "http://www.w3.org/Graphics/SVG/1.1/DTD/svg11.dtd">
<!-- Generated by graphviz version 14.1.2 (20260124.0452)
 -->
<!-- Title: MVPVulkan/GEDescriptorSet.h Pages: 1 -->
<svg width="874pt" height="420pt"
 viewBox="0.00 0.00 874.00 420.00" xmlns="http://www.w3.org/2000/svg" xmlns:xlink="http://www.w3.org/1999/xlink">
<g id="graph0" class="graph" transform="scale(1 1) rotate(0) translate(4 416)">
<title>MVPVulkan/GEDescriptorSet.h</title>
<!-- Node1 -->
<g id="Node000001" class="node">
<title>Node1</title>
<g id="a_Node000001"><a xlink:title="Declaración de la clase GEDescriptorSet para gestionar conjuntos de descriptores.">
<polygon fill="#999999" stroke="#666666" points="509.75,-412 357.25,-412 357.25,-392 509.75,-392 509.75,-412"/>
<text xml:space="preserve" text-anchor="middle" x="433.5" y="-398.5" font-family="Helvetica,sans-Serif" font-size="10.00">MVPVulkan/GEDescriptorSet.h</text>
</a>
</g>
</g>
<!-- Node2 -->
<g id="Node000002" class="node">
<title>Node2</title>
<g id="a_Node000002"><a xlink:href="_g_e_descriptor_set_8cpp.html" target="_top" xlink:title="Implementación de la clase GEDescriptorSet.">
<polygon fill="white" stroke="#666666" points="436,-356 273,-356 273,-336 436,-336 436,-356"/>
<text xml:space="preserve" text-anchor="middle" x="354.5" y="-342.5" font-family="Helvetica,sans-Serif" font-size="10.00">MVPVulkan/GEDescriptorSet.cpp</text>
</a>
</g>
</g>
<!-- Node1&#45;&gt;Node2 -->
<g id="edge1_Node000001_Node000002" class="edge">
<title>Node1&#45;&gt;Node2</title>
<g id="a_edge1_Node000001_Node000002"><a xlink:title=" ">
<path fill="none" stroke="#63b8ff" d="M410.49,-385.27C396.84,-375.94 380,-364.43 368.37,-356.48"/>
<polygon fill="#63b8ff" stroke="#63b8ff" points="408.26,-387.99 418.49,-390.74 412.21,-382.21 408.26,-387.99"/>
</a>
</g>
</g>
<!-- Node3 -->
<g id="Node000003" class="node">
<title>Node3</title>
<g id="a_Node000003"><a xlink:href="_g_e_figure_8h.html" target="_top" xlink:title="Declaración de la clase GEFigure para figuras de malla.">
<polygon fill="white" stroke="#666666" points="573.25,-356 453.75,-356 453.75,-336 573.25,-336 573.25,-356"/>
<text xml:space="preserve" text-anchor="middle" x="513.5" y="-342.5" font-family="Helvetica,sans-Serif" font-size="10.00">MVPVulkan/GEFigure.h</text>
</a>
</g>
</g>
<!-- Node1&#45;&gt;Node3 -->
<g id="edge2_Node000001_Node000003" class="edge">
<title>Node1&#45;&gt;Node3</title>
<g id="a_edge2_Node000001_Node000003"><a xlink:title=" ">
<path fill="none" stroke="#63b8ff" d="M456.8,-385.27C470.62,-375.94 487.68,-364.43 499.46,-356.48"/>
<polygon fill="#63b8ff" stroke="#63b8ff" points="455.02,-382.25 448.69,-390.75 458.94,-388.05 455.02,-382.25"/>
</a>
</g>
</g>
<!-- Node4 -->
<g id="Node000004" class="node">
<title>Node4</title>
<g id="a_Node000004"><a xlink:href="_g_e_cylinder_8h.html" target="_top" xlink:title="Declaración de la clase GECylinder.">
<polygon fill="white" stroke="#666666" points="390.75,-300 262.25,-300 262.25,-280 390.75,-280 390.75,-300"/>
<text xml:space="preserve" text-anchor="middle" x="326.5" y="-286.5" font-family="Helvetica,sans-Serif" font-size="10.00">MVPVulkan/GECylinder.h</text>
</a>
</g>
</g>
<!-- Node3&#45;&gt;Node4 -->
<g id="edge3_Node000003_Node000004" class="edge">
<title>Node3&#45;&gt;Node4</title>
<g id="a_edge3_Node000003_Node000004"><a xlink:title=" ">
<path fill="none" stroke="#63b8ff" d="M469.98,-332.43C436.19,-322.67 390.06,-309.35 359.33,-300.48"/>
<polygon fill="#63b8ff" stroke="#63b8ff" points="468.89,-335.76 479.47,-335.17 470.84,-329.04 468.89,-335.76"/>
</a>
</g>
</g>
<!-- Node9 -->
<g id="Node000009" class="node">
<title>Node9</title>
<g id="a_Node000009"><a xlink:href="_g_e_scene_8h.html" target="_top" xlink:title="Declaración de la clase GEScene que contiene la escena con esqueleto animado.">
<polygon fill="white" stroke="#666666" points="209.62,-132 89.38,-132 89.38,-112 209.62,-112 209.62,-132"/>
<text xml:space="preserve" text-anchor="middle" x="149.5" y="-118.5" font-family="Helvetica,sans-Serif" font-size="10.00">MVPVulkan/GEScene.h</text>
</a>
</g>
</g>
<!-- Node3&#45;&gt;Node9 -->
<g id="edge21_Node000003_Node000009" class="edge">
<title>Node3&#45;&gt;Node9</title>
<g id="a_edge21_Node000003_Node000009"><a xlink:title=" ">
<path fill="none" stroke="#63b8ff" d="M442.14,-335.43C389.58,-327.71 316.58,-315.59 253.5,-300 175.04,-280.62 128.04,-309.36 80.5,-244 52.05,-204.89 110.17,-153.04 136.96,-132.22"/>
<polygon fill="#63b8ff" stroke="#63b8ff" points="441.47,-338.87 451.87,-336.84 442.47,-331.95 441.47,-338.87"/>
</a>
</g>
</g>
<!-- Node16 -->
<g id="Node000016" class="node">
<title>Node16</title>
<g id="a_Node000016"><a xlink:href="_g_e_figure_8cpp.html" target="_top" xlink:title="Implementación de la clase GEFigure.">
<polygon fill="white" stroke="#666666" points="865.5,-300 735.5,-300 735.5,-280 865.5,-280 865.5,-300"/>
<text xml:space="preserve" text-anchor="middle" x="800.5" y="-286.5" font-family="Helvetica,sans-Serif" font-size="10.00">MVPVulkan/GEFigure.cpp</text>
</a>
</g>
</g>
<!-- Node3&#45;&gt;Node16 -->
<g id="edge17_Node000003_Node000016" class="edge">
<title>Node3&#45;&gt;Node16</title>
<g id="a_edge17_Node000003_Node000016"><a xlink:title=" ">
<path fill="none" stroke="#63b8ff" d="M574.96,-333.44C627.25,-323.6 701.43,-309.64 750.24,-300.46"/>
<polygon fill="#63b8ff" stroke="#63b8ff" points="574.49,-329.96 565.31,-335.25 575.78,-336.84 574.49,-329.96"/>
</a>
</g>
</g>
<!-- Node17 -->
<g id="Node000017" class="node">
<title>Node17</title>
<g id="a_Node000017"><a xlink:href="_g_e_ground_8h.html" target="_top" xlink:title="Declaración de la clase GEGround para terreno rectangular.">
<polygon fill="white" stroke="#666666" points="717.5,-300 593.5,-300 593.5,-280 717.5,-280 717.5,-300"/>
<text xml:space="preserve" text-anchor="middle" x="655.5" y="-286.5" font-family="Helvetica,sans-Serif" font-size="10.00">MVPVulkan/GEGround.h</text>
</a>
</g>
</g>
<!-- Node3&#45;&gt;Node17 -->
<g id="edge18_Node000003_Node000017" class="edge">
<title>Node3&#45;&gt;Node17</title>
<g id="a_edge18_Node000003_Node000017"><a xlink:title=" ">
<path fill="none" stroke="#63b8ff" d="M548.92,-331.53C574.33,-321.87 607.94,-309.08 630.57,-300.48"/>
<polygon fill="#63b8ff" stroke="#63b8ff" points="547.75,-328.23 539.65,-335.06 550.24,-334.77 547.75,-328.23"/>
</a>
</g>
</g>
<!-- Node19 -->
<g id="Node000019" class="node">
<title>Node19</title>
<g id="a_Node000019"><a xlink:href="_g_e_sphere_8h.html" target="_top" xlink:title="Declaración de la clase GESphere que describe una esfera.">
<polygon fill="white" stroke="#666666" points="575.12,-300 451.88,-300 451.88,-280 575.12,-280 575.12,-300"/>
<text xml:space="preserve" text-anchor="middle" x="513.5" y="-286.5" font-family="Helvetica,sans-Serif" font-size="10.00">MVPVulkan/GESphere.h</text>
</a>
</g>
</g>
<!-- Node3&#45;&gt;Node19 -->
<g id="edge22_Node000003_Node000019" class="edge">
<title>Node3&#45;&gt;Node19</title>
<g id="a_edge22_Node000003_Node000019"><a xlink:title=" ">
<path fill="none" stroke="#63b8ff" d="M513.5,-324.13C513.5,-315.9 513.5,-306.85 513.5,-300.3"/>
<polygon fill="#63b8ff" stroke="#63b8ff" points="510,-324.08 513.5,-334.08 517,-324.08 510,-324.08"/>
</a>
</g>
</g>
<!-- Node5 -->
<g id="Node000005" class="node">
<title>Node5</title>
<g id="a_Node000005"><a xlink:href="_g_e_balljoint_8h.html" target="_top" xlink:title="Declaración de la clase GEBalljoint para articulaciones jerárquicas.">
<polygon fill="white" stroke="#666666" points="434,-244 307,-244 307,-224 434,-224 434,-244"/>
<text xml:space="preserve" text-anchor="middle" x="370.5" y="-230.5" font-family="Helvetica,sans-Serif" font-size="10.00">MVPVulkan/GEBalljoint.h</text>
</a>
</g>
</g>
<!-- Node4&#45;&gt;Node5 -->
<g id="edge4_Node000004_Node000005" class="edge">
<title>Node4&#45;&gt;Node5</title>
<g id="a_edge4_Node000004_Node000005"><a xlink:title=" ">
<path fill="none" stroke="#63b8ff" d="M341.39,-270.72C348.63,-261.84 357.02,-251.55 362.92,-244.3"/>
<polygon fill="#63b8ff" stroke="#63b8ff" points="338.72,-268.46 335.12,-278.42 344.15,-272.88 338.72,-268.46"/>
</a>
</g>
</g>
<!-- Node13 -->
<g id="Node000013" class="node">
<title>Node13</title>
<g id="a_Node000013"><a xlink:href="_g_e_scene_8cpp.html" target="_top" xlink:title="Escena con animación de tiro libre de baloncesto.">
<polygon fill="white" stroke="#666666" points="525.88,-76 395.12,-76 395.12,-56 525.88,-56 525.88,-76"/>
<text xml:space="preserve" text-anchor="middle" x="460.5" y="-62.5" font-family="Helvetica,sans-Serif" font-size="10.00">MVPVulkan/GEScene.cpp</text>
</a>
</g>
</g>
<!-- Node4&#45;&gt;Node13 -->
<g id="edge16_Node000004_Node000013" class="edge">
<title>Node4&#45;&gt;Node13</title>
<g id="a_edge16_Node000004_Node000013"><a xlink:title=" ">
<path fill="none" stroke="#63b8ff" d="M308.95,-271.52C277.06,-237.61 216.41,-161.9 256.5,-112 273.71,-90.58 341.99,-78.76 394.88,-72.67"/>
<polygon fill="#63b8ff" stroke="#63b8ff" points="306.21,-273.71 315.67,-278.47 311.24,-268.84 306.21,-273.71"/>
</a>
</g>
</g>
<!-- Node15 -->
<g id="Node000015" class="node">
<title>Node15</title>
<g id="a_Node000015"><a xlink:href="_g_e_cylinder_8cpp.html" target="_top" xlink:title="Implementación de la clase GECylinder.">
<polygon fill="white" stroke="#666666" points="228,-244 89,-244 89,-224 228,-224 228,-244"/>
<text xml:space="preserve" text-anchor="middle" x="158.5" y="-230.5" font-family="Helvetica,sans-Serif" font-size="10.00">MVPVulkan/GECylinder.cpp</text>
</a>
</g>
</g>
<!-- Node4&#45;&gt;Node15 -->
<g id="edge15_Node000004_Node000015" class="edge">
<title>Node4&#45;&gt;Node15</title>
<g id="a_edge15_Node000004_Node000015"><a xlink:title=" ">
<path fill="none" stroke="#63b8ff" d="M286.61,-276.18C256.32,-266.44 215.36,-253.28 187.99,-244.48"/>
<polygon fill="#63b8ff" stroke="#63b8ff" points="285.2,-279.4 295.8,-279.13 287.35,-272.74 285.2,-279.4"/>
</a>
</g>
</g>
<!-- Node6 -->
<g id="Node000006" class="node">
<title>Node6</title>
<g id="a_Node000006"><a xlink:href="_g_e_animation_8cpp.html" target="_top" xlink:title="Implementación del sistema de animación por keyframes.">
<polygon fill="white" stroke="#666666" points="571.75,-132 425.25,-132 425.25,-112 571.75,-112 571.75,-132"/>
<text xml:space="preserve" text-anchor="middle" x="498.5" y="-118.5" font-family="Helvetica,sans-Serif" font-size="10.00">MVPVulkan/GEAnimation.cpp</text>
</a>
</g>
</g>
<!-- Node5&#45;&gt;Node6 -->
<g id="edge5_Node000005_Node000006" class="edge">
<title>Node5&#45;&gt;Node6</title>
<g id="a_edge5_Node000005_Node000006"><a xlink:title=" ">
<path fill="none" stroke="#63b8ff" d="M388.66,-216.07C403.07,-202.78 423.82,-183.92 442.5,-168 457.31,-155.38 474.87,-141.43 486.32,-132.46"/>
<polygon fill="#63b8ff" stroke="#63b8ff" points="386.66,-213.16 381.7,-222.53 391.41,-218.3 386.66,-213.16"/>
</a>
</g>
</g>
<!-- Node7 -->
<g id="Node000007" class="node">
<title>Node7</title>
<g id="a_Node000007"><a xlink:href="_g_e_balljoint_8cpp.html" target="_top" xlink:title="Implementación de la clase GEBalljoint con soporte jerárquico.">
<polygon fill="white" stroke="#666666" points="589.25,-188 451.75,-188 451.75,-168 589.25,-168 589.25,-188"/>
<text xml:space="preserve" text-anchor="middle" x="520.5" y="-174.5" font-family="Helvetica,sans-Serif" font-size="10.00">MVPVulkan/GEBalljoint.cpp</text>
</a>
</g>
</g>
<!-- Node5&#45;&gt;Node7 -->
<g id="edge6_Node000005_Node000007" class="edge">
<title>Node5&#45;&gt;Node7</title>
<g id="a_edge6_Node000005_Node000007"><a xlink:title=" ">
<path fill="none" stroke="#63b8ff" d="M407.19,-219.79C434.12,-210.1 470.05,-197.16 494.17,-188.48"/>
<polygon fill="#63b8ff" stroke="#63b8ff" points="406.28,-216.4 398.05,-223.08 408.65,-222.99 406.28,-216.4"/>
</a>
</g>
</g>
<!-- Node8 -->
<g id="Node000008" class="node">
<title>Node8</title>
<g id="a_Node000008"><a xlink:href="_g_e_skeleton_8h.html" target="_top" xlink:title="Declaración de la clase GESkeleton que representa un esqueleto con articulaciones jerárquicas.">
<polygon fill="white" stroke="#666666" points="395.88,-188 265.12,-188 265.12,-168 395.88,-168 395.88,-188"/>
<text xml:space="preserve" text-anchor="middle" x="330.5" y="-174.5" font-family="Helvetica,sans-Serif" font-size="10.00">MVPVulkan/GESkeleton.h</text>
</a>
</g>
</g>
<!-- Node5&#45;&gt;Node8 -->
<g id="edge7_Node000005_Node000008" class="edge">
<title>Node5&#45;&gt;Node8</title>
<g id="a_edge7_Node000005_Node000008"><a xlink:title=" ">
<path fill="none" stroke="#63b8ff" d="M356.75,-214.44C350.22,-205.62 342.7,-195.47 337.39,-188.3"/>
<polygon fill="#63b8ff" stroke="#63b8ff" points="353.87,-216.43 362.63,-222.38 359.49,-212.26 353.87,-216.43"/>
</a>
</g>
</g>
<!-- Node8&#45;&gt;Node6 -->
<g id="edge8_Node000008_Node000006" class="edge">
<title>Node8&#45;&gt;Node6</title>
<g id="a_edge8_Node000008_Node000006"><a xlink:title=" ">
<path fill="none" stroke="#63b8ff" d="M370.39,-164.18C400.68,-154.44 441.64,-141.28 469.01,-132.48"/>
<polygon fill="#63b8ff" stroke="#63b8ff" points="369.65,-160.74 361.2,-167.13 371.8,-167.4 369.65,-160.74"/>
</a>
</g>
</g>
<!-- Node8&#45;&gt;Node9 -->
<g id="edge9_Node000008_Node000009" class="edge">
<title>Node8&#45;&gt;Node9</title>
<g id="a_edge9_Node000008_Node000009"><a xlink:title=" ">
<path fill="none" stroke="#63b8ff" d="M287.95,-164.31C255.28,-154.56 210.89,-141.32 181.27,-132.48"/>
<polygon fill="#63b8ff" stroke="#63b8ff" points="286.94,-167.66 297.52,-167.16 288.94,-160.95 286.94,-167.66"/>
</a>
</g>
</g>
<!-- Node14 -->
<g id="Node000014" class="node">
<title>Node14</title>
<g id="a_Node000014"><a xlink:href="_g_e_skeleton_8cpp.html" target="_top" xlink:title="Implementación de GESkeleton con carga desde archivo .skel.">
<polygon fill="white" stroke="#666666" points="407.12,-132 265.88,-132 265.88,-112 407.12,-112 407.12,-132"/>
<text xml:space="preserve" text-anchor="middle" x="336.5" y="-118.5" font-family="Helvetica,sans-Serif" font-size="10.00">MVPVulkan/GESkeleton.cpp</text>
</a>
</g>
</g>
<!-- Node8&#45;&gt;Node14 -->
<g id="edge14_Node000008_Node000014" class="edge">
<title>Node8&#45;&gt;Node14</title>
<g id="a_edge14_Node000008_Node000014"><a xlink:title=" ">
<path fill="none" stroke="#63b8ff" d="M332.79,-156.43C333.71,-148.11 334.73,-138.93 335.47,-132.3"/>
<polygon fill="#63b8ff" stroke="#63b8ff" points="329.34,-155.76 331.71,-166.09 336.3,-156.54 329.34,-155.76"/>
</a>
</g>
</g>
<!-- Node10 -->
<g id="Node000010" class="node">
<title>Node10</title>
<g id="a_Node000010"><a xlink:href="_g_e_application_8h.html" target="_top" xlink:title="Declaración de la clase GEApplication que crea y lanza la aplicación gráfica.">
<polygon fill="white" stroke="#666666" points="219.75,-76 79.25,-76 79.25,-56 219.75,-56 219.75,-76"/>
<text xml:space="preserve" text-anchor="middle" x="149.5" y="-62.5" font-family="Helvetica,sans-Serif" font-size="10.00">MVPVulkan/GEApplication.h</text>
</a>
</g>
</g>
<!-- Node9&#45;&gt;Node10 -->
<g id="edge10_Node000009_Node000010" class="edge">
<title>Node9&#45;&gt;Node10</title>
<g id="a_edge10_Node000009_Node000010"><a xlink:title=" ">
<path fill="none" stroke="#63b8ff" d="M149.5,-100.13C149.5,-91.9 149.5,-82.85 149.5,-76.3"/>
<polygon fill="#63b8ff" stroke="#63b8ff" points="146,-100.08 149.5,-110.08 153,-100.08 146,-100.08"/>
</a>
</g>
</g>
<!-- Node9&#45;&gt;Node13 -->
<g id="edge13_Node000009_Node000013" class="edge">
<title>Node9&#45;&gt;Node13</title>
<g id="a_edge13_Node000009_Node000013"><a xlink:title=" ">
<path fill="none" stroke="#63b8ff" d="M215.03,-109.62C271.75,-99.77 352.81,-85.7 406.03,-76.46"/>
<polygon fill="#63b8ff" stroke="#63b8ff" points="214.77,-106.11 205.52,-111.27 215.97,-113.01 214.77,-106.11"/>
</a>
</g>
</g>
<!-- Node11 -->
<g id="Node000011" class="node">
<title>Node11</title>
<g id="a_Node000011"><a xlink:href="_g_e_application_8cpp.html" target="_top" xlink:title="Implementación de la clase GEApplication.">
<polygon fill="white" stroke="#666666" points="151,-20 0,-20 0,0 151,0 151,-20"/>
<text xml:space="preserve" text-anchor="middle" x="75.5" y="-6.5" font-family="Helvetica,sans-Serif" font-size="10.00">MVPVulkan/GEApplication.cpp</text>
</a>
</g>
</g>
<!-- Node10&#45;&gt;Node11 -->
<g id="edge11_Node000010_Node000011" class="edge">
<title>Node10&#45;&gt;Node11</title>
<g id="a_edge11_Node000010_Node000011"><a xlink:title=" ">
<path fill="none" stroke="#63b8ff" d="M127.51,-48.95C114.71,-39.61 99.02,-28.16 88.24,-20.3"/>
<polygon fill="#63b8ff" stroke="#63b8ff" points="125.25,-51.63 135.39,-54.7 129.37,-45.98 125.25,-51.63"/>
</a>
</g>
</g>
<!-- Node12 -->
<g id="Node000012" class="node">
<title>Node12</title>
<g id="a_Node000012"><a xlink:href="main_8cpp.html" target="_top" xlink:title="Punto de entrada principal de la aplicación MVPVulkan.">
<polygon fill="white" stroke="#666666" points="278.38,-20 168.62,-20 168.62,0 278.38,0 278.38,-20"/>
<text xml:space="preserve" text-anchor="middle" x="223.5" y="-6.5" font-family="Helvetica,sans-Serif" font-size="10.00">MVPVulkan/main.cpp</text>
</a>
</g>
</g>
<!-- Node10&#45;&gt;Node12 -->
<g id="edge12_Node000010_Node000012" class="edge">
<title>Node10&#45;&gt;Node12</title>
<g id="a_edge12_Node000010_Node000012"><a xlink:title=" ">
<path fill="none" stroke="#63b8ff" d="M171.49,-48.95C184.29,-39.61 199.98,-28.16 210.76,-20.3"/>
<polygon fill="#63b8ff" stroke="#63b8ff" points="169.63,-45.98 163.61,-54.7 173.75,-51.63 169.63,-45.98"/>
</a>
</g>
</g>
<!-- Node17&#45;&gt;Node13 -->
<g id="edge20_Node000017_Node000013" class="edge">
<title>Node17&#45;&gt;Node13</title>
<g id="a_edge20_Node000017_Node000013"><a xlink:title=" ">
<path fill="none" stroke="#63b8ff" d="M655.01,-268.74C653.03,-232.33 643.64,-155.56 600.5,-112 580.83,-92.14 552.37,-81.03 526.24,-74.83"/>
<polygon fill="#63b8ff" stroke="#63b8ff" points="651.5,-268.45 655.39,-278.31 658.49,-268.18 651.5,-268.45"/>
</a>
</g>
</g>
<!-- Node18 -->
<g id="Node000018" class="node">
<title>Node18</title>
<g id="a_Node000018"><a xlink:href="_g_e_ground_8cpp.html" target="_top" xlink:title="Implementación de la clase GEGround.">
<polygon fill="white" stroke="#666666" points="817.75,-244 683.25,-244 683.25,-224 817.75,-224 817.75,-244"/>
<text xml:space="preserve" text-anchor="middle" x="750.5" y="-230.5" font-family="Helvetica,sans-Serif" font-size="10.00">MVPVulkan/GEGround.cpp</text>
</a>
</g>
</g>
<!-- Node17&#45;&gt;Node18 -->
<g id="edge19_Node000017_Node000018" class="edge">
<title>Node17&#45;&gt;Node18</title>
<g id="a_edge19_Node000017_Node000018"><a xlink:title=" ">
<path fill="none" stroke="#63b8ff" d="M681.75,-274.08C698.4,-264.62 719.43,-252.66 733.82,-244.48"/>
<polygon fill="#63b8ff" stroke="#63b8ff" points="680.33,-270.86 673.36,-278.85 683.79,-276.95 680.33,-270.86"/>
</a>
</g>
</g>
<!-- Node19&#45;&gt;Node5 -->
<g id="edge23_Node000019_Node000005" class="edge">
<title>Node19&#45;&gt;Node5</title>
<g id="a_edge23_Node000019_Node000005"><a xlink:title=" ">
<path fill="none" stroke="#63b8ff" d="M477.84,-275.53C452.24,-265.87 418.39,-253.08 395.6,-244.48"/>
<polygon fill="#63b8ff" stroke="#63b8ff" points="476.58,-278.8 487.18,-279.06 479.06,-272.25 476.58,-278.8"/>
</a>
</g>
</g>
<!-- Node19&#45;&gt;Node13 -->
<g id="edge24_Node000019_Node000013" class="edge">
<title>Node19&#45;&gt;Node13</title>
<g id="a_edge24_Node000019_Node000013"><a xlink:title=" ">
<path fill="none" stroke="#63b8ff" d="M556.17,-274.96C570.74,-267.99 585.59,-257.97 594.5,-244 612.68,-215.48 603.74,-201.42 598.5,-168 594.45,-142.17 598.54,-130.92 580.5,-112 563.23,-93.88 537.96,-83 515.06,-76.49"/>
<polygon fill="#63b8ff" stroke="#63b8ff" points="554.86,-271.72 547.09,-278.92 557.65,-278.14 554.86,-271.72"/>
</a>
</g>
</g>
<!-- Node20 -->
<g id="Node000020" class="node">
<title>Node20</title>
<g id="a_Node000020"><a xlink:href="_g_e_sphere_8cpp.html" target="_top" xlink:title="Implementación de la clase GESphere.">
<polygon fill="white" stroke="#666666" points="585.38,-244 451.62,-244 451.62,-224 585.38,-224 585.38,-244"/>
<text xml:space="preserve" text-anchor="middle" x="518.5" y="-230.5" font-family="Helvetica,sans-Serif" font-size="10.00">MVPVulkan/GESphere.cpp</text>
</a>
</g>
</g>
<!-- Node19&#45;&gt;Node20 -->
<g id="edge25_Node000019_Node000020" class="edge">
<title>Node19&#45;&gt;Node20</title>
<g id="a_edge25_Node000019_Node000020"><a xlink:title=" ">
<path fill="none" stroke="#63b8ff" d="M515.43,-268.13C516.19,-259.9 517.03,-250.85 517.64,-244.3"/>
<polygon fill="#63b8ff" stroke="#63b8ff" points="511.95,-267.81 514.51,-278.09 518.92,-268.45 511.95,-267.81"/>
</a>
</g>
</g>
</g>
</svg>
