<?xml version="1.0" encoding="UTF-8" standalone="no"?>
<!DOCTYPE svg PUBLIC "-//W3C//DTD SVG 1.1//EN"
 "http://www.w3.org/Graphics/SVG/1.1/DTD/svg11.dtd">
<!-- Generated by graphviz version 14.1.2 (20260124.0452)
 -->
<!-- Title: MVPVulkan/GEGround.h Pages: 1 -->
<svg width="962pt" height="364pt"
 viewBox="0.00 0.00 962.00 364.00" xmlns="http://www.w3.org/2000/svg" xmlns:xlink="http://www.w3.org/1999/xlink">
<g id="graph0" class="graph" transform="scale(1 1) rotate(0) translate(4 360)">
<title>MVPVulkan/GEGround.h</title>
<!-- Node1 -->
<g id="Node000001" class="node">
<title>Node1</title>
<g id="a_Node000001"><a xlink:title="Declaración de la clase GEGround para terreno rectangular.">
<polygon fill="#999999" stroke="#666666" points="535.88,-356 411.88,-356 411.88,-336 535.88,-336 535.88,-356"/>
<text xml:space="preserve" text-anchor="middle" x="473.88" y="-342.5" font-family="Helvetica,sans-Serif" font-size="10.00">MVPVulkan/GEGround.h</text>
</a>
</g>
</g>
<!-- Node2 -->
<g id="Node000002" class="node">
<title>Node2</title>
<g id="a_Node000002"><a xlink:href="_g_e_figure_8h.html" target="_top" xlink:title="Declaración de la clase GEFigure para figuras de malla.">
<polygon fill="white" stroke="#666666" points="506.62,-300 441.12,-300 441.12,-280 506.62,-280 506.62,-300"/>
<text xml:space="preserve" text-anchor="middle" x="473.88" y="-286.5" font-family="Helvetica,sans-Serif" font-size="10.00">GEFigure.h</text>
</a>
</g>
</g>
<!-- Node1&#45;&gt;Node2 -->
<g id="edge1_Node000001_Node000002" class="edge">
<title>Node1&#45;&gt;Node2</title>
<g id="a_edge1_Node000001_Node000002"><a xlink:title=" ">
<path fill="none" stroke="#63b8ff" d="M473.88,-335.59C473.88,-329.01 473.88,-319.96 473.88,-311.73"/>
<polygon fill="#63b8ff" stroke="#63b8ff" points="477.38,-311.81 473.88,-301.81 470.38,-311.81 477.38,-311.81"/>
</a>
</g>
</g>
<!-- Node3 -->
<g id="Node000003" class="node">
<title>Node3</title>
<g id="a_Node000003"><a xlink:href="_g_e_graphics_context_8h.html" target="_top" xlink:title="Declaración de la clase GEGraphicsContext que almacena el contexto gráfico de Vulkan.">
<polygon fill="white" stroke="#666666" points="357.88,-76 245.88,-76 245.88,-56 357.88,-56 357.88,-76"/>
<text xml:space="preserve" text-anchor="middle" x="301.88" y="-62.5" font-family="Helvetica,sans-Serif" font-size="10.00">GEGraphicsContext.h</text>
</a>
</g>
</g>
<!-- Node2&#45;&gt;Node3 -->
<g id="edge2_Node000002_Node000003" class="edge">
<title>Node2&#45;&gt;Node3</title>
<g id="a_edge2_Node000002_Node000003"><a xlink:title=" ">
<path fill="none" stroke="#63b8ff" d="M440.76,-287.53C352.84,-283.28 118.64,-269.63 95.88,-244 73.45,-218.74 76.01,-195.32 95.88,-168 126.37,-126.05 160.33,-154.88 206.88,-132 234.39,-118.48 263.05,-97.81 281.59,-83.43"/>
<polygon fill="#63b8ff" stroke="#63b8ff" points="283.68,-86.24 289.36,-77.3 279.34,-80.75 283.68,-86.24"/>
</a>
</g>
</g>
<!-- Node6 -->
<g id="Node000006" class="node">
<title>Node6</title>
<g id="a_Node000006"><a xlink:href="_g_e_rendering_context_8h.html" target="_top" xlink:title="Declaración de la clase GERenderingContext que describe un contexto de renderizado.">
<polygon fill="white" stroke="#666666" points="706.5,-188 589.25,-188 589.25,-168 706.5,-168 706.5,-188"/>
<text xml:space="preserve" text-anchor="middle" x="647.88" y="-174.5" font-family="Helvetica,sans-Serif" font-size="10.00">GERenderingContext.h</text>
</a>
</g>
</g>
<!-- Node2&#45;&gt;Node6 -->
<g id="edge5_Node000002_Node000006" class="edge">
<title>Node2&#45;&gt;Node6</title>
<g id="a_edge5_Node000002_Node000006"><a xlink:title=" ">
<path fill="none" stroke="#63b8ff" d="M493.56,-279.59C511.08,-270.97 537.21,-257.55 558.88,-244 583.24,-228.76 609.65,-209.03 627.32,-195.33"/>
<polygon fill="#63b8ff" stroke="#63b8ff" points="629.26,-198.25 634.97,-189.33 624.94,-192.74 629.26,-198.25"/>
</a>
</g>
</g>
<!-- Node9 -->
<g id="Node000009" class="node">
<title>Node9</title>
<g id="a_Node000009"><a xlink:title=" ">
<polygon fill="#e0e0e0" stroke="#999999" points="827.38,-76 784.38,-76 784.38,-56 827.38,-56 827.38,-76"/>
<text xml:space="preserve" text-anchor="middle" x="805.88" y="-62.5" font-family="Helvetica,sans-Serif" font-size="10.00">vector</text>
</a>
</g>
</g>
<!-- Node2&#45;&gt;Node9 -->
<g id="edge45_Node000002_Node000009" class="edge">
<title>Node2&#45;&gt;Node9</title>
<g id="a_edge45_Node000002_Node000009"><a xlink:title=" ">
<path fill="none" stroke="#63b8ff" d="M506.94,-288.12C587.08,-285.52 789.37,-275.87 847.88,-244 910.9,-209.67 982.84,-170.22 940.88,-112 928.75,-95.18 874.5,-81.07 838.57,-73.35"/>
<polygon fill="#63b8ff" stroke="#63b8ff" points="839.61,-69.99 829.1,-71.38 838.18,-76.85 839.61,-69.99"/>
</a>
</g>
</g>
<!-- Node13 -->
<g id="Node000013" class="node">
<title>Node13</title>
<g id="a_Node000013"><a xlink:href="_g_e_vertex_8h.html" target="_top" xlink:title="Declaración de la estructura GEVertex para vértices.">
<polygon fill="white" stroke="#666666" points="171,-244 104.75,-244 104.75,-224 171,-224 171,-244"/>
<text xml:space="preserve" text-anchor="middle" x="137.88" y="-230.5" font-family="Helvetica,sans-Serif" font-size="10.00">GEVertex.h</text>
</a>
</g>
</g>
<!-- Node2&#45;&gt;Node13 -->
<g id="edge20_Node000002_Node000013" class="edge">
<title>Node2&#45;&gt;Node13</title>
<g id="a_edge20_Node000002_Node000013"><a xlink:title=" ">
<path fill="none" stroke="#63b8ff" d="M440.7,-284.57C388.1,-277.42 282.11,-262.42 182.48,-244.39"/>
<polygon fill="#63b8ff" stroke="#63b8ff" points="183.27,-240.98 172.8,-242.62 182.01,-247.86 183.27,-240.98"/>
</a>
</g>
</g>
<!-- Node15 -->
<g id="Node000015" class="node">
<title>Node15</title>
<g id="a_Node000015"><a xlink:href="_g_e_transform_8h.html" target="_top" xlink:title="Estructura para transformaciones usadas por las figuras.">
<polygon fill="white" stroke="#666666" points="349.25,-244 266.5,-244 266.5,-224 349.25,-224 349.25,-244"/>
<text xml:space="preserve" text-anchor="middle" x="307.88" y="-230.5" font-family="Helvetica,sans-Serif" font-size="10.00">GETransform.h</text>
</a>
</g>
</g>
<!-- Node2&#45;&gt;Node15 -->
<g id="edge22_Node000002_Node000015" class="edge">
<title>Node2&#45;&gt;Node15</title>
<g id="a_edge22_Node000002_Node000015"><a xlink:title=" ">
<path fill="none" stroke="#63b8ff" d="M444.96,-279.59C418.11,-270.86 377.88,-257.77 347.94,-248.03"/>
<polygon fill="#63b8ff" stroke="#63b8ff" points="349.05,-244.71 338.45,-244.95 346.88,-251.37 349.05,-244.71"/>
</a>
</g>
</g>
<!-- Node16 -->
<g id="Node000016" class="node">
<title>Node16</title>
<g id="a_Node000016"><a xlink:title=" ">
<polygon fill="#e0e0e0" stroke="#999999" points="376.5,-188 307.25,-188 307.25,-168 376.5,-168 376.5,-188"/>
<text xml:space="preserve" text-anchor="middle" x="341.88" y="-174.5" font-family="Helvetica,sans-Serif" font-size="10.00">glm/glm.hpp</text>
</a>
</g>
</g>
<!-- Node2&#45;&gt;Node16 -->
<g id="edge44_Node000002_Node000016" class="edge">
<title>Node2&#45;&gt;Node16</title>
<g id="a_edge44_Node000002_Node000016"><a xlink:title=" ">
<path fill="none" stroke="#63b8ff" d="M453.69,-279.6C437.41,-271.48 414.42,-258.74 396.88,-244 380.48,-230.23 365.03,-211.23 354.71,-197.33"/>
<polygon fill="#63b8ff" stroke="#63b8ff" points="357.73,-195.54 349.04,-189.49 352.06,-199.64 357.73,-195.54"/>
</a>
</g>
</g>
<!-- Node17 -->
<g id="Node000017" class="node">
<title>Node17</title>
<g id="a_Node000017"><a xlink:href="_g_e_material_8h.html" target="_top" xlink:title="Declaración de la estructura GEMaterial para materiales.">
<polygon fill="white" stroke="#666666" points="478.38,-244 405.38,-244 405.38,-224 478.38,-224 478.38,-244"/>
<text xml:space="preserve" text-anchor="middle" x="441.88" y="-230.5" font-family="Helvetica,sans-Serif" font-size="10.00">GEMaterial.h</text>
</a>
</g>
</g>
<!-- Node2&#45;&gt;Node17 -->
<g id="edge24_Node000002_Node000017" class="edge">
<title>Node2&#45;&gt;Node17</title>
<g id="a_edge24_Node000002_Node000017"><a xlink:title=" ">
<path fill="none" stroke="#63b8ff" d="M468.3,-279.59C464.13,-272.55 458.27,-262.67 453.13,-254"/>
<polygon fill="#63b8ff" stroke="#63b8ff" points="456.27,-252.42 448.16,-245.6 450.24,-255.99 456.27,-252.42"/>
</a>
</g>
</g>
<!-- Node18 -->
<g id="Node000018" class="node">
<title>Node18</title>
<g id="a_Node000018"><a xlink:href="_g_e_light_8h.html" target="_top" xlink:title="Declaración de la estructura GELight para iluminación.">
<polygon fill="white" stroke="#666666" points="248.62,-244 189.12,-244 189.12,-224 248.62,-224 248.62,-244"/>
<text xml:space="preserve" text-anchor="middle" x="218.88" y="-230.5" font-family="Helvetica,sans-Serif" font-size="10.00">GELight.h</text>
</a>
</g>
</g>
<!-- Node2&#45;&gt;Node18 -->
<g id="edge26_Node000002_Node000018" class="edge">
<title>Node2&#45;&gt;Node18</title>
<g id="a_edge26_Node000002_Node000018"><a xlink:title=" ">
<path fill="none" stroke="#63b8ff" d="M440.89,-282.36C400.64,-274.2 330.22,-259.77 260.31,-244.5"/>
<polygon fill="#63b8ff" stroke="#63b8ff" points="261.09,-241.09 250.57,-242.36 259.59,-247.92 261.09,-241.09"/>
</a>
</g>
</g>
<!-- Node19 -->
<g id="Node000019" class="node">
<title>Node19</title>
<g id="a_Node000019"><a xlink:href="_g_e_vertex_buffer_8h.html" target="_top" xlink:title=" ">
<polygon fill="white" stroke="#666666" points="91.75,-132 0,-132 0,-112 91.75,-112 91.75,-132"/>
<text xml:space="preserve" text-anchor="middle" x="45.88" y="-118.5" font-family="Helvetica,sans-Serif" font-size="10.00">GEVertexBuffer.h</text>
</a>
</g>
</g>
<!-- Node2&#45;&gt;Node19 -->
<g id="edge28_Node000002_Node000019" class="edge">
<title>Node2&#45;&gt;Node19</title>
<g id="a_edge28_Node000002_Node000019"><a xlink:title=" ">
<path fill="none" stroke="#63b8ff" d="M479.64,-279.94C487.24,-266.75 498.46,-241.88 487.88,-224 461.54,-179.49 435.06,-183.97 385.88,-168 267.88,-129.7 229.4,-149.13 103.32,-132.26"/>
<polygon fill="#63b8ff" stroke="#63b8ff" points="103.96,-128.81 93.57,-130.89 102.99,-135.74 103.96,-128.81"/>
</a>
</g>
</g>
<!-- Node20 -->
<g id="Node000020" class="node">
<title>Node20</title>
<g id="a_Node000020"><a xlink:href="_g_e_index_buffer_8h.html" target="_top" xlink:title="Declaración de la clase GEIndexBuffer para buffers de índices.">
<polygon fill="white" stroke="#666666" points="197.88,-132 109.88,-132 109.88,-112 197.88,-112 197.88,-132"/>
<text xml:space="preserve" text-anchor="middle" x="153.88" y="-118.5" font-family="Helvetica,sans-Serif" font-size="10.00">GEIndexBuffer.h</text>
</a>
</g>
</g>
<!-- Node2&#45;&gt;Node20 -->
<g id="edge31_Node000002_Node000020" class="edge">
<title>Node2&#45;&gt;Node20</title>
<g id="a_edge31_Node000002_Node000020"><a xlink:title=" ">
<path fill="none" stroke="#63b8ff" d="M488.86,-279.62C500.02,-271.67 514.4,-259.17 520.88,-244 531.86,-218.28 499.33,-168.35 498.88,-168 487.61,-159.2 304.26,-138.8 209.56,-128.77"/>
<polygon fill="#63b8ff" stroke="#63b8ff" points="210.01,-125.3 199.7,-127.73 209.27,-132.26 210.01,-125.3"/>
</a>
</g>
</g>
<!-- Node21 -->
<g id="Node000021" class="node">
<title>Node21</title>
<g id="a_Node000021"><a xlink:href="_g_e_uniform_buffer_8h.html" target="_top" xlink:title=" ">
<polygon fill="white" stroke="#666666" points="932.12,-132 833.62,-132 833.62,-112 932.12,-112 932.12,-132"/>
<text xml:space="preserve" text-anchor="middle" x="882.88" y="-118.5" font-family="Helvetica,sans-Serif" font-size="10.00">GEUniformBuffer.h</text>
</a>
</g>
</g>
<!-- Node2&#45;&gt;Node21 -->
<g id="edge34_Node000002_Node000021" class="edge">
<title>Node2&#45;&gt;Node21</title>
<g id="a_edge34_Node000002_Node000021"><a xlink:title=" ">
<path fill="none" stroke="#63b8ff" d="M507.03,-288.66C584.28,-287.26 773.54,-280.12 823.88,-244 857.63,-219.78 872.96,-170.85 879.17,-143.2"/>
<polygon fill="#63b8ff" stroke="#63b8ff" points="882.55,-144.15 881.12,-133.65 875.69,-142.75 882.55,-144.15"/>
</a>
</g>
</g>
<!-- Node22 -->
<g id="Node000022" class="node">
<title>Node22</title>
<g id="a_Node000022"><a xlink:href="_g_e_descriptor_set_8h.html" target="_top" xlink:title="Declaración de la clase GEDescriptorSet para gestionar conjuntos de descriptores.">
<polygon fill="white" stroke="#666666" points="815.12,-244 716.62,-244 716.62,-224 815.12,-224 815.12,-244"/>
<text xml:space="preserve" text-anchor="middle" x="765.88" y="-230.5" font-family="Helvetica,sans-Serif" font-size="10.00">GEDescriptorSet.h</text>
</a>
</g>
</g>
<!-- Node2&#45;&gt;Node22 -->
<g id="edge38_Node000002_Node000022" class="edge">
<title>Node2&#45;&gt;Node22</title>
<g id="a_edge38_Node000002_Node000022"><a xlink:title=" ">
<path fill="none" stroke="#63b8ff" d="M507.09,-282.86C555.11,-273.98 644.77,-257.4 704.9,-246.28"/>
<polygon fill="#63b8ff" stroke="#63b8ff" points="705.45,-249.73 714.65,-244.47 704.18,-242.85 705.45,-249.73"/>
</a>
</g>
</g>
<!-- Node4 -->
<g id="Node000004" class="node">
<title>Node4</title>
<g id="a_Node000004"><a xlink:title=" ">
<polygon fill="#e0e0e0" stroke="#999999" points="341.38,-20 262.38,-20 262.38,0 341.38,0 341.38,-20"/>
<text xml:space="preserve" text-anchor="middle" x="301.88" y="-6.5" font-family="Helvetica,sans-Serif" font-size="10.00">GLFW/glfw3.h</text>
</a>
</g>
</g>
<!-- Node3&#45;&gt;Node4 -->
<g id="edge3_Node000003_Node000004" class="edge">
<title>Node3&#45;&gt;Node4</title>
<g id="a_edge3_Node000003_Node000004"><a xlink:title=" ">
<path fill="none" stroke="#63b8ff" d="M301.88,-55.59C301.88,-49.01 301.88,-39.96 301.88,-31.73"/>
<polygon fill="#63b8ff" stroke="#63b8ff" points="305.38,-31.81 301.88,-21.81 298.38,-31.81 305.38,-31.81"/>
</a>
</g>
</g>
<!-- Node5 -->
<g id="Node000005" class="node">
<title>Node5</title>
<g id="a_Node000005"><a xlink:title=" ">
<polygon fill="#e0e0e0" stroke="#999999" points="652,-20 567.75,-20 567.75,0 652,0 652,-20"/>
<text xml:space="preserve" text-anchor="middle" x="609.88" y="-6.5" font-family="Helvetica,sans-Serif" font-size="10.00">vulkan/vulkan.h</text>
</a>
</g>
</g>
<!-- Node3&#45;&gt;Node5 -->
<g id="edge4_Node000003_Node000005" class="edge">
<title>Node3&#45;&gt;Node5</title>
<g id="a_edge4_Node000003_Node000005"><a xlink:title=" ">
<path fill="none" stroke="#63b8ff" d="M355.88,-55.53C412.21,-45.66 499.99,-30.27 556.2,-20.41"/>
<polygon fill="#63b8ff" stroke="#63b8ff" points="556.61,-23.89 565.85,-18.72 555.4,-17 556.61,-23.89"/>
</a>
</g>
</g>
<!-- Node6&#45;&gt;Node3 -->
<g id="edge8_Node000006_Node000003" class="edge">
<title>Node6&#45;&gt;Node3</title>
<g id="a_edge8_Node000006_Node000003"><a xlink:title=" ">
<path fill="none" stroke="#63b8ff" d="M589.03,-169.72C496.26,-158.13 325.92,-136.35 320.88,-132 308.2,-121.07 303.75,-102.21 302.29,-87.61"/>
<polygon fill="#63b8ff" stroke="#63b8ff" points="305.79,-87.48 301.74,-77.69 298.8,-87.87 305.79,-87.48"/>
</a>
</g>
</g>
<!-- Node6&#45;&gt;Node5 -->
<g id="edge6_Node000006_Node000005" class="edge">
<title>Node6&#45;&gt;Node5</title>
<g id="a_edge6_Node000006_Node000005"><a xlink:title=" ">
<path fill="none" stroke="#63b8ff" d="M645.72,-167.6C639.74,-141.46 622.81,-67.48 614.54,-31.36"/>
<polygon fill="#63b8ff" stroke="#63b8ff" points="617.98,-30.74 612.34,-21.77 611.16,-32.3 617.98,-30.74"/>
</a>
</g>
</g>
<!-- Node7 -->
<g id="Node000007" class="node">
<title>Node7</title>
<g id="a_Node000007"><a xlink:title=" ">
<polygon fill="#e0e0e0" stroke="#999999" points="383.62,-132 330.12,-132 330.12,-112 383.62,-112 383.62,-132"/>
<text xml:space="preserve" text-anchor="middle" x="356.88" y="-118.5" font-family="Helvetica,sans-Serif" font-size="10.00">iostream</text>
</a>
</g>
</g>
<!-- Node6&#45;&gt;Node7 -->
<g id="edge7_Node000006_Node000007" class="edge">
<title>Node6&#45;&gt;Node7</title>
<g id="a_edge7_Node000006_Node000007"><a xlink:title=" ">
<path fill="none" stroke="#63b8ff" d="M588.9,-167.8C539.6,-159.84 467.2,-147.51 395.06,-132.34"/>
<polygon fill="#63b8ff" stroke="#63b8ff" points="395.94,-128.95 385.43,-130.3 394.49,-135.8 395.94,-128.95"/>
</a>
</g>
</g>
<!-- Node8 -->
<g id="Node000008" class="node">
<title>Node8</title>
<g id="a_Node000008"><a xlink:href="_g_e_drawing_context_8h.html" target="_top" xlink:title="Declaración de la clase GEDrawingContext para gestionar swapchain y present.">
<polygon fill="white" stroke="#666666" points="619.38,-132 510.38,-132 510.38,-112 619.38,-112 619.38,-132"/>
<text xml:space="preserve" text-anchor="middle" x="564.88" y="-118.5" font-family="Helvetica,sans-Serif" font-size="10.00">GEDrawingContext.h</text>
</a>
</g>
</g>
<!-- Node6&#45;&gt;Node8 -->
<g id="edge9_Node000006_Node000008" class="edge">
<title>Node6&#45;&gt;Node8</title>
<g id="a_edge9_Node000006_Node000008"><a xlink:title=" ">
<path fill="none" stroke="#63b8ff" d="M633.42,-167.59C621.12,-159.59 603.2,-147.93 588.77,-138.54"/>
<polygon fill="#63b8ff" stroke="#63b8ff" points="591,-135.82 580.71,-133.3 587.19,-141.69 591,-135.82"/>
</a>
</g>
</g>
<!-- Node11 -->
<g id="Node000011" class="node">
<title>Node11</title>
<g id="a_Node000011"><a xlink:href="_g_e_pipeline_config_8h.html" target="_top" xlink:title="Declaración de la clase GEPipelineConfig que almacena la configuración de un pipeline de renderizado.">
<polygon fill="white" stroke="#666666" points="777.62,-132 676.12,-132 676.12,-112 777.62,-112 777.62,-132"/>
<text xml:space="preserve" text-anchor="middle" x="726.88" y="-118.5" font-family="Helvetica,sans-Serif" font-size="10.00">GEPipelineConfig.h</text>
</a>
</g>
</g>
<!-- Node6&#45;&gt;Node11 -->
<g id="edge14_Node000006_Node000011" class="edge">
<title>Node6&#45;&gt;Node11</title>
<g id="a_edge14_Node000006_Node000011"><a xlink:title=" ">
<path fill="none" stroke="#63b8ff" d="M661.64,-167.59C673.23,-159.67 690.07,-148.16 703.74,-138.82"/>
<polygon fill="#63b8ff" stroke="#63b8ff" points="705.48,-141.87 711.76,-133.33 701.53,-136.09 705.48,-141.87"/>
</a>
</g>
</g>
<!-- Node12 -->
<g id="Node000012" class="node">
<title>Node12</title>
<g id="a_Node000012"><a xlink:href="_g_e_depth_buffer_8h.html" target="_top" xlink:title="Declaración de la clase GEDepthBuffer que gestiona el recurso de profundidad.">
<polygon fill="white" stroke="#666666" points="492,-132 401.75,-132 401.75,-112 492,-112 492,-132"/>
<text xml:space="preserve" text-anchor="middle" x="446.88" y="-118.5" font-family="Helvetica,sans-Serif" font-size="10.00">GEDepthBuffer.h</text>
</a>
</g>
</g>
<!-- Node6&#45;&gt;Node12 -->
<g id="edge17_Node000006_Node000012" class="edge">
<title>Node6&#45;&gt;Node12</title>
<g id="a_edge17_Node000006_Node000012"><a xlink:title=" ">
<path fill="none" stroke="#63b8ff" d="M612.86,-167.59C579.63,-158.67 529.49,-145.19 493.01,-135.39"/>
<polygon fill="#63b8ff" stroke="#63b8ff" points="494.19,-132.09 483.62,-132.87 492.37,-138.85 494.19,-132.09"/>
</a>
</g>
</g>
<!-- Node8&#45;&gt;Node3 -->
<g id="edge12_Node000008_Node000003" class="edge">
<title>Node8&#45;&gt;Node3</title>
<g id="a_edge12_Node000008_Node000003"><a xlink:title=" ">
<path fill="none" stroke="#63b8ff" d="M518.76,-111.53C474.3,-102.4 406.9,-88.56 359.04,-78.74"/>
<polygon fill="#63b8ff" stroke="#63b8ff" points="359.92,-75.34 349.42,-76.76 358.51,-82.2 359.92,-75.34"/>
</a>
</g>
</g>
<!-- Node8&#45;&gt;Node5 -->
<g id="edge10_Node000008_Node000005" class="edge">
<title>Node8&#45;&gt;Node5</title>
<g id="a_edge10_Node000008_Node000005"><a xlink:title=" ">
<path fill="none" stroke="#63b8ff" d="M571.14,-111.69C576.9,-102.82 585.34,-88.94 590.88,-76 597.11,-61.42 602.05,-44.16 605.33,-31.09"/>
<polygon fill="#63b8ff" stroke="#63b8ff" points="608.69,-32.08 607.6,-21.54 601.88,-30.46 608.69,-32.08"/>
</a>
</g>
</g>
<!-- Node8&#45;&gt;Node9 -->
<g id="edge11_Node000008_Node000009" class="edge">
<title>Node8&#45;&gt;Node9</title>
<g id="a_edge11_Node000008_Node000009"><a xlink:title=" ">
<path fill="none" stroke="#63b8ff" d="M607.13,-111.53C654.37,-100.95 729.87,-84.03 772.94,-74.38"/>
<polygon fill="#63b8ff" stroke="#63b8ff" points="773.45,-77.85 782.44,-72.25 771.92,-71.02 773.45,-77.85"/>
</a>
</g>
</g>
<!-- Node10 -->
<g id="Node000010" class="node">
<title>Node10</title>
<g id="a_Node000010"><a xlink:href="_g_e_window_position_8h.html" target="_top" xlink:title="Declaración de la estructura GEWindowPosition para ventanas.">
<polygon fill="white" stroke="#666666" points="581.38,-76 472.38,-76 472.38,-56 581.38,-56 581.38,-76"/>
<text xml:space="preserve" text-anchor="middle" x="526.88" y="-62.5" font-family="Helvetica,sans-Serif" font-size="10.00">GEWindowPosition.h</text>
</a>
</g>
</g>
<!-- Node8&#45;&gt;Node10 -->
<g id="edge13_Node000008_Node000010" class="edge">
<title>Node8&#45;&gt;Node10</title>
<g id="a_edge13_Node000008_Node000010"><a xlink:title=" ">
<path fill="none" stroke="#63b8ff" d="M558.26,-111.59C553.19,-104.39 546.04,-94.23 539.85,-85.43"/>
<polygon fill="#63b8ff" stroke="#63b8ff" points="542.91,-83.7 534.29,-77.54 537.18,-87.73 542.91,-83.7"/>
</a>
</g>
</g>
<!-- Node11&#45;&gt;Node5 -->
<g id="edge15_Node000011_Node000005" class="edge">
<title>Node11&#45;&gt;Node5</title>
<g id="a_edge15_Node000011_Node000005"><a xlink:title=" ">
<path fill="none" stroke="#63b8ff" d="M717.82,-111.53C705.45,-98.68 682.44,-75.13 661.88,-56 651.54,-46.39 639.66,-36.05 629.87,-27.72"/>
<polygon fill="#63b8ff" stroke="#63b8ff" points="632.29,-25.18 622.39,-21.4 627.77,-30.53 632.29,-25.18"/>
</a>
</g>
</g>
<!-- Node11&#45;&gt;Node9 -->
<g id="edge16_Node000011_Node000009" class="edge">
<title>Node11&#45;&gt;Node9</title>
<g id="a_edge16_Node000011_Node000009"><a xlink:title=" ">
<path fill="none" stroke="#63b8ff" d="M740.64,-111.59C752.23,-103.67 769.07,-92.16 782.74,-82.82"/>
<polygon fill="#63b8ff" stroke="#63b8ff" points="784.48,-85.87 790.76,-77.33 780.53,-80.09 784.48,-85.87"/>
</a>
</g>
</g>
<!-- Node12&#45;&gt;Node3 -->
<g id="edge19_Node000012_Node000003" class="edge">
<title>Node12&#45;&gt;Node3</title>
<g id="a_edge19_Node000012_Node000003"><a xlink:title=" ">
<path fill="none" stroke="#63b8ff" d="M421.62,-111.59C398.47,-102.97 363.95,-90.12 337.91,-80.42"/>
<polygon fill="#63b8ff" stroke="#63b8ff" points="339.34,-77.22 328.75,-77.01 336.9,-83.78 339.34,-77.22"/>
</a>
</g>
</g>
<!-- Node12&#45;&gt;Node5 -->
<g id="edge18_Node000012_Node000005" class="edge">
<title>Node12&#45;&gt;Node5</title>
<g id="a_edge18_Node000012_Node000005"><a xlink:title=" ">
<path fill="none" stroke="#63b8ff" d="M446.63,-111.69C446.79,-97.72 449.19,-71.33 463.88,-56 487.81,-31.01 525.28,-19.8 556.26,-14.82"/>
<polygon fill="#63b8ff" stroke="#63b8ff" points="556.43,-18.33 565.84,-13.46 555.45,-11.4 556.43,-18.33"/>
</a>
</g>
</g>
<!-- Node14 -->
<g id="Node000014" class="node">
<title>Node14</title>
<g id="a_Node000014"><a xlink:title=" ">
<polygon fill="#e0e0e0" stroke="#999999" points="174.5,-188 105.25,-188 105.25,-168 174.5,-168 174.5,-188"/>
<text xml:space="preserve" text-anchor="middle" x="139.88" y="-174.5" font-family="Helvetica,sans-Serif" font-size="10.00">glm\glm.hpp</text>
</a>
</g>
</g>
<!-- Node13&#45;&gt;Node14 -->
<g id="edge21_Node000013_Node000014" class="edge">
<title>Node13&#45;&gt;Node14</title>
<g id="a_edge21_Node000013_Node000014"><a xlink:title=" ">
<path fill="none" stroke="#63b8ff" d="M138.22,-223.59C138.47,-217.01 138.8,-207.96 139.11,-199.73"/>
<polygon fill="#63b8ff" stroke="#63b8ff" points="142.6,-199.93 139.47,-189.81 135.61,-199.67 142.6,-199.93"/>
</a>
</g>
</g>
<!-- Node15&#45;&gt;Node16 -->
<g id="edge23_Node000015_Node000016" class="edge">
<title>Node15&#45;&gt;Node16</title>
<g id="a_edge23_Node000015_Node000016"><a xlink:title=" ">
<path fill="none" stroke="#63b8ff" d="M313.8,-223.59C318.23,-216.55 324.45,-206.67 329.91,-198"/>
<polygon fill="#63b8ff" stroke="#63b8ff" points="332.85,-199.91 335.21,-189.58 326.92,-196.18 332.85,-199.91"/>
</a>
</g>
</g>
<!-- Node17&#45;&gt;Node16 -->
<g id="edge25_Node000017_Node000016" class="edge">
<title>Node17&#45;&gt;Node16</title>
<g id="a_edge25_Node000017_Node000016"><a xlink:title=" ">
<path fill="none" stroke="#63b8ff" d="M424.46,-223.59C409.21,-215.36 386.8,-203.26 369.17,-193.74"/>
<polygon fill="#63b8ff" stroke="#63b8ff" points="371.22,-190.87 360.76,-189.2 367.9,-197.03 371.22,-190.87"/>
</a>
</g>
</g>
<!-- Node18&#45;&gt;Node16 -->
<g id="edge27_Node000018_Node000016" class="edge">
<title>Node18&#45;&gt;Node16</title>
<g id="a_edge27_Node000018_Node000016"><a xlink:title=" ">
<path fill="none" stroke="#63b8ff" d="M240.3,-223.59C259.5,-215.17 287.92,-202.69 309.82,-193.07"/>
<polygon fill="#63b8ff" stroke="#63b8ff" points="311.15,-196.31 318.9,-189.09 308.33,-189.9 311.15,-196.31"/>
</a>
</g>
</g>
<!-- Node19&#45;&gt;Node3 -->
<g id="edge30_Node000019_Node000003" class="edge">
<title>Node19&#45;&gt;Node3</title>
<g id="a_edge30_Node000019_Node000003"><a xlink:title=" ">
<path fill="none" stroke="#63b8ff" d="M90.76,-111.53C133.95,-102.42 199.37,-88.62 245.93,-78.8"/>
<polygon fill="#63b8ff" stroke="#63b8ff" points="246.5,-82.26 255.56,-76.77 245.05,-75.41 246.5,-82.26"/>
</a>
</g>
</g>
<!-- Node19&#45;&gt;Node5 -->
<g id="edge29_Node000019_Node000005" class="edge">
<title>Node19&#45;&gt;Node5</title>
<g id="a_edge29_Node000019_Node000005"><a xlink:title=" ">
<path fill="none" stroke="#63b8ff" d="M63.43,-111.66C91.56,-97.15 148.9,-69.46 200.88,-56 325.45,-23.75 477.23,-14.6 556.23,-12.02"/>
<polygon fill="#63b8ff" stroke="#63b8ff" points="555.95,-15.53 565.84,-11.73 555.74,-8.53 555.95,-15.53"/>
</a>
</g>
</g>
<!-- Node20&#45;&gt;Node3 -->
<g id="edge33_Node000020_Node000003" class="edge">
<title>Node20&#45;&gt;Node3</title>
<g id="a_edge33_Node000020_Node000003"><a xlink:title=" ">
<path fill="none" stroke="#63b8ff" d="M179.65,-111.59C203.28,-102.97 238.52,-90.12 265.09,-80.42"/>
<polygon fill="#63b8ff" stroke="#63b8ff" points="266.28,-83.71 274.47,-77 263.88,-77.14 266.28,-83.71"/>
</a>
</g>
</g>
<!-- Node20&#45;&gt;Node5 -->
<g id="edge32_Node000020_Node000005" class="edge">
<title>Node20&#45;&gt;Node5</title>
<g id="a_edge32_Node000020_Node000005"><a xlink:title=" ">
<path fill="none" stroke="#63b8ff" d="M162.49,-111.52C176.49,-96.82 205.76,-68.87 236.88,-56 293.33,-32.65 466.91,-19.37 555.96,-13.93"/>
<polygon fill="#63b8ff" stroke="#63b8ff" points="556.14,-17.43 565.91,-13.34 555.72,-10.44 556.14,-17.43"/>
</a>
</g>
</g>
<!-- Node21&#45;&gt;Node3 -->
<g id="edge35_Node000021_Node000003" class="edge">
<title>Node21&#45;&gt;Node3</title>
<g id="a_edge35_Node000021_Node000003"><a xlink:title=" ">
<path fill="none" stroke="#63b8ff" d="M833.54,-116.37C818.56,-114.96 802.04,-113.41 786.88,-112 637.95,-98.11 463.3,-81.93 369.55,-73.26"/>
<polygon fill="#63b8ff" stroke="#63b8ff" points="370.04,-69.79 359.76,-72.35 369.4,-76.76 370.04,-69.79"/>
</a>
</g>
</g>
<!-- Node21&#45;&gt;Node5 -->
<g id="edge36_Node000021_Node000005" class="edge">
<title>Node21&#45;&gt;Node5</title>
<g id="a_edge36_Node000021_Node000005"><a xlink:title=" ">
<path fill="none" stroke="#63b8ff" d="M879.07,-111.75C872.64,-97.36 858.22,-69.84 836.88,-56 784.6,-22.1 712.37,-12.76 663.53,-10.66"/>
<polygon fill="#63b8ff" stroke="#63b8ff" points="663.88,-7.17 653.77,-10.34 663.65,-14.17 663.88,-7.17"/>
</a>
</g>
</g>
<!-- Node21&#45;&gt;Node9 -->
<g id="edge37_Node000021_Node000009" class="edge">
<title>Node21&#45;&gt;Node9</title>
<g id="a_edge37_Node000021_Node000009"><a xlink:title=" ">
<path fill="none" stroke="#63b8ff" d="M869.46,-111.59C858.27,-103.74 842.06,-92.38 828.82,-83.09"/>
<polygon fill="#63b8ff" stroke="#63b8ff" points="830.83,-80.22 820.63,-77.35 826.81,-85.96 830.83,-80.22"/>
</a>
</g>
</g>
<!-- Node22&#45;&gt;Node3 -->
<g id="edge41_Node000022_Node000003" class="edge">
<title>Node22&#45;&gt;Node3</title>
<g id="a_edge41_Node000022_Node000003"><a xlink:title=" ">
<path fill="none" stroke="#63b8ff" d="M722.4,-223.51C684.54,-215 628.29,-201.77 579.88,-188 552.43,-180.19 546.58,-174.82 518.88,-168 471.84,-156.42 335.74,-168.49 303.88,-132 293.42,-120.03 293.86,-101.57 296.37,-87.38"/>
<polygon fill="#63b8ff" stroke="#63b8ff" points="299.76,-88.28 298.56,-77.75 292.93,-86.73 299.76,-88.28"/>
</a>
</g>
</g>
<!-- Node22&#45;&gt;Node5 -->
<g id="edge39_Node000022_Node000005" class="edge">
<title>Node22&#45;&gt;Node5</title>
<g id="a_edge39_Node000022_Node000005"><a xlink:title=" ">
<path fill="none" stroke="#63b8ff" d="M808.82,-223.53C870.09,-207.73 971.96,-171.71 940.88,-112 920.83,-73.5 900.95,-72.66 860.88,-56 796.27,-29.14 715.77,-18.29 663.62,-13.92"/>
<polygon fill="#63b8ff" stroke="#63b8ff" points="664.05,-10.45 653.8,-13.16 663.5,-17.43 664.05,-10.45"/>
</a>
</g>
</g>
<!-- Node22&#45;&gt;Node6 -->
<g id="edge42_Node000022_Node000006" class="edge">
<title>Node22&#45;&gt;Node6</title>
<g id="a_edge42_Node000022_Node000006"><a xlink:title=" ">
<path fill="none" stroke="#63b8ff" d="M745.32,-223.59C726.99,-215.21 699.89,-202.8 678.92,-193.21"/>
<polygon fill="#63b8ff" stroke="#63b8ff" points="680.52,-190.09 669.97,-189.11 677.6,-196.45 680.52,-190.09"/>
</a>
</g>
</g>
<!-- Node22&#45;&gt;Node9 -->
<g id="edge40_Node000022_Node000009" class="edge">
<title>Node22&#45;&gt;Node9</title>
<g id="a_edge40_Node000022_Node000009"><a xlink:title=" ">
<path fill="none" stroke="#63b8ff" d="M768.14,-223.6C774.44,-197.46 792.26,-123.48 800.97,-87.36"/>
<polygon fill="#63b8ff" stroke="#63b8ff" points="804.34,-88.31 803.28,-77.77 797.53,-86.67 804.34,-88.31"/>
</a>
</g>
</g>
<!-- Node22&#45;&gt;Node21 -->
<g id="edge43_Node000022_Node000021" class="edge">
<title>Node22&#45;&gt;Node21</title>
<g id="a_edge43_Node000022_Node000021"><a xlink:title=" ">
<path fill="none" stroke="#63b8ff" d="M777.77,-223.69C788.92,-214.83 805.92,-200.95 819.88,-188 836.54,-172.54 854.48,-153.81 866.94,-140.43"/>
<polygon fill="#63b8ff" stroke="#63b8ff" points="869.36,-142.96 873.58,-133.24 864.22,-138.21 869.36,-142.96"/>
</a>
</g>
</g>
</g>
</svg>
