<?xml version="1.0" encoding="UTF-8" standalone="no"?>
<!DOCTYPE svg PUBLIC "-//W3C//DTD SVG 1.1//EN"
 "http://www.w3.org/Graphics/SVG/1.1/DTD/svg11.dtd">
<!-- Generated by graphviz version 14.1.2 (20260124.0452)
 -->
<!-- Title: xpath_string::from_const Pages: 1 -->
<!--zoomable 336 -->

<svg id="main" version="1.1" xmlns="http://www.w3.org/2000/svg" xmlns:xlink="http://www.w3.org/1999/xlink" xml:space="preserve" onload="init(evt)">

<style type="text/css"><![CDATA[
.node, .edge {opacity: 0.7;}
.node.selected, .edge.selected {opacity: 1;}
.edge:hover path { stroke: red; }
.edge:hover polygon { stroke: red; fill: red; }
]]></style>

<defs>
  <circle id="rim" cx="0" cy="0" r="7"/>
  <circle id="rim2" cx="0" cy="0" r="3.5"/>
  <g id="zoomPlus">
    <use xlink:href="#rim" fill="#404040"><set attributeName="fill" to="#808080" begin="zoomplus.mouseover" end="zoomplus.mouseout"/></use>
    <path d="M-4,0h8M0,-4v8" fill="none" stroke="white" stroke-width="1.5" pointer-events="none"/>
  </g>
  <g id="zoomMin">
    <use xlink:href="#rim" fill="#404040"><set attributeName="fill" to="#808080" begin="zoomminus.mouseover" end="zoomminus.mouseout"/></use>
    <path d="M-4,0h8" fill="none" stroke="white" stroke-width="1.5" pointer-events="none"/>
  </g>
  <g id="arrowUp" transform="translate(30 24)">
    <use xlink:href="#rim"/>
    <path pointer-events="none" fill="none" stroke="white" stroke-width="1.5" d="M0,-3.0v7 M-2.5,-0.5L0,-3.0L2.5,-0.5"/>
  </g>
  <g id="arrowRight" transform="rotate(90) translate(36 -43)">
    <use xlink:href="#rim"/>
    <path pointer-events="none" fill="none" stroke="white" stroke-width="1.5" d="M0,-3.0v7 M-2.5,-0.5L0,-3.0L2.5,-0.5"/>
  </g>
  <g id="arrowDown" transform="rotate(180) translate(-30 -48)">
    <use xlink:href="#rim"/>
    <path pointer-events="none" fill="none" stroke="white" stroke-width="1.5" d="M0,-3.0v7 M-2.5,-0.5L0,-3.0L2.5,-0.5"/>
  </g>
  <g id="arrowLeft" transform="rotate(270) translate(-36 17)">
    <use xlink:href="#rim"/>
    <path pointer-events="none" fill="none" stroke="white" stroke-width="1.5" d="M0,-3.0v7 M-2.5,-0.5L0,-3.0L2.5,-0.5"/>
  </g>
  <g id="resetDef">
    <use xlink:href="#rim2" fill="#404040"><set attributeName="fill" to="#808080" begin="reset.mouseover" end="reset.mouseout"/></use>
  </g>
</defs>
<script type="application/ecmascript">
var viewWidth = 1527;
var viewHeight = 336;
var sectionId = 'dynsection-11';
</script>
<script type="application/ecmascript" xlink:href="svg.min.js"/>
<svg id="graph" class="graph">
<g id="viewport">
<title>xpath_string::from_const</title>
<!-- Node1 -->
<g id="Node000001" class="node">
<title>Node1</title>
<g id="a_Node000001"><a xlink:title=" ">
<polygon fill="#999999" stroke="#666666" points="1519,-163 1424.25,-163 1424.25,-131 1519,-131 1519,-163"/>
<text xml:space="preserve" text-anchor="start" x="1432.25" y="-149.5" font-family="Helvetica,sans-Serif" font-size="10.00">xpath_string::from</text>
<text xml:space="preserve" text-anchor="middle" x="1471.62" y="-137.5" font-family="Helvetica,sans-Serif" font-size="10.00">_const</text>
</a>
</g>
</g>
<!-- Node2 -->
<g id="Node000002" class="node">
<title>Node2</title>
<g id="a_Node000002"><a xlink:href="pugixml_8cpp.html#a70fefd711768a3ae223cf73fdb088f40" target="_top" xlink:title=" ">
<polygon fill="white" stroke="#666666" points="1388.25,-119 1259.75,-119 1259.75,-99 1388.25,-99 1388.25,-119"/>
<text xml:space="preserve" text-anchor="middle" x="1324" y="-105.5" font-family="Helvetica,sans-Serif" font-size="10.00">convert_number_to_string</text>
</a>
</g>
</g>
<!-- Node1&#45;&gt;Node2 -->
<g id="edge1_Node000001_Node000002" class="edge">
<title>Node1&#45;&gt;Node2</title>
<g id="a_edge1_Node000001_Node000002"><a xlink:title=" ">
<path fill="none" stroke="#63b8ff" d="M1413.22,-132.02C1397.14,-127.82 1380.01,-123.35 1365.16,-119.48"/>
<polygon fill="#63b8ff" stroke="#63b8ff" points="1412.12,-135.35 1422.68,-134.49 1413.89,-128.58 1412.12,-135.35"/>
</a>
</g>
</g>
<!-- Node3 -->
<g id="Node000003" class="node">
<title>Node3</title>
<g id="a_Node000003"><a xlink:href="classxpath__ast__node.html#a6b675237a590548b68d0e0b97518b6df" target="_top" xlink:title=" ">
<polygon fill="white" stroke="#666666" points="1223.75,-139 1114.75,-139 1114.75,-107 1223.75,-107 1223.75,-139"/>
<text xml:space="preserve" text-anchor="start" x="1122.75" y="-125.5" font-family="Helvetica,sans-Serif" font-size="10.00">xpath_ast_node::eval</text>
<text xml:space="preserve" text-anchor="middle" x="1169.25" y="-113.5" font-family="Helvetica,sans-Serif" font-size="10.00">_string</text>
</a>
</g>
</g>
<!-- Node1&#45;&gt;Node3 -->
<g id="edge26_Node000001_Node000003" class="edge">
<title>Node1&#45;&gt;Node3</title>
<g id="a_edge26_Node000001_Node000003"><a xlink:title=" ">
<path fill="none" stroke="#63b8ff" d="M1412.81,-142.38C1358.3,-138.03 1277.24,-131.55 1224.08,-127.3"/>
<polygon fill="#63b8ff" stroke="#63b8ff" points="1412.27,-145.85 1422.51,-143.16 1412.82,-138.87 1412.27,-145.85"/>
</a>
</g>
</g>
<!-- Node13 -->
<g id="Node000013" class="node">
<title>Node13</title>
<g id="a_Node000013"><a xlink:href="pugixml_8cpp.html#ad34afe159db16c5eff7771f4f4935e4e" target="_top" xlink:title=" ">
<polygon fill="white" stroke="#666666" points="1358.25,-195 1289.75,-195 1289.75,-175 1358.25,-175 1358.25,-195"/>
<text xml:space="preserve" text-anchor="middle" x="1324" y="-181.5" font-family="Helvetica,sans-Serif" font-size="10.00">string_value</text>
</a>
</g>
</g>
<!-- Node1&#45;&gt;Node13 -->
<g id="edge27_Node000001_Node000013" class="edge">
<title>Node1&#45;&gt;Node13</title>
<g id="a_edge27_Node000001_Node000013"><a xlink:title=" ">
<path fill="none" stroke="#63b8ff" d="M1413.16,-162C1394.66,-166.82 1374.78,-172.01 1358.59,-176.23"/>
<polygon fill="#63b8ff" stroke="#63b8ff" points="1413.89,-165.42 1422.68,-159.51 1412.12,-158.65 1413.89,-165.42"/>
</a>
</g>
</g>
<!-- Node2&#45;&gt;Node3 -->
<g id="edge2_Node000002_Node000003" class="edge">
<title>Node2&#45;&gt;Node3</title>
<g id="a_edge2_Node000002_Node000003"><a xlink:title=" ">
<path fill="none" stroke="#63b8ff" d="M1248.11,-115.86C1239.99,-116.61 1231.84,-117.36 1224.04,-118.07"/>
<polygon fill="#63b8ff" stroke="#63b8ff" points="1248.4,-119.35 1258.04,-114.95 1247.76,-112.38 1248.4,-119.35"/>
</a>
</g>
</g>
<!-- Node4 -->
<g id="Node000004" class="node">
<title>Node4</title>
<g id="a_Node000004"><a xlink:href="classxpath__ast__node.html#a98dd7f6e67fe2c56c63056eed835d6a4" target="_top" xlink:title=" ">
<polygon fill="white" stroke="#666666" points="1078.75,-218 934.5,-218 934.5,-198 1078.75,-198 1078.75,-218"/>
<text xml:space="preserve" text-anchor="middle" x="1006.62" y="-204.5" font-family="Helvetica,sans-Serif" font-size="10.00">xpath_ast_node::compare_eq</text>
</a>
</g>
</g>
<!-- Node3&#45;&gt;Node4 -->
<g id="edge3_Node000003_Node000004" class="edge">
<title>Node3&#45;&gt;Node4</title>
<g id="a_edge3_Node000003_Node000004"><a xlink:title=" ">
<path fill="none" stroke="#63b8ff" d="M1127.31,-144.67C1095.27,-161.62 1052.14,-184.44 1027.36,-197.56"/>
<polygon fill="#63b8ff" stroke="#63b8ff" points="1128.74,-147.87 1135.94,-140.1 1125.47,-141.68 1128.74,-147.87"/>
</a>
</g>
</g>
<!-- Node5 -->
<g id="Node000005" class="node">
<title>Node5</title>
<g id="a_Node000005"><a xlink:href="classxpath__ast__node.html#ab7f965a92023bc2704b8e6fd9f3d7c14" target="_top" xlink:title=" ">
<polygon fill="white" stroke="#666666" points="898.5,-224 789.5,-224 789.5,-192 898.5,-192 898.5,-224"/>
<text xml:space="preserve" text-anchor="start" x="797.5" y="-210.5" font-family="Helvetica,sans-Serif" font-size="10.00">xpath_ast_node::eval</text>
<text xml:space="preserve" text-anchor="middle" x="844" y="-198.5" font-family="Helvetica,sans-Serif" font-size="10.00">_boolean</text>
</a>
</g>
</g>
<!-- Node3&#45;&gt;Node5 -->
<g id="edge24_Node000003_Node000005" class="edge">
<title>Node3&#45;&gt;Node5</title>
<g id="a_edge24_Node000003_Node000005"><a xlink:title=" ">
<path fill="none" stroke="#63b8ff" d="M1103.41,-134.52C1039.83,-149.4 944.6,-174.68 889.24,-191.55"/>
<polygon fill="#63b8ff" stroke="#63b8ff" points="1104.08,-137.96 1113.03,-132.29 1102.5,-131.14 1104.08,-137.96"/>
</a>
</g>
</g>
<!-- Node10 -->
<g id="Node000010" class="node">
<title>Node10</title>
<g id="a_Node000010"><a xlink:href="classxpath__ast__node.html#a92dd7048e28d486bc7f382d1fc6f1de6" target="_top" xlink:title=" ">
<polygon fill="white" stroke="#666666" points="750.88,-136 641.88,-136 641.88,-104 750.88,-104 750.88,-136"/>
<text xml:space="preserve" text-anchor="start" x="649.88" y="-122.5" font-family="Helvetica,sans-Serif" font-size="10.00">xpath_ast_node::eval</text>
<text xml:space="preserve" text-anchor="middle" x="696.38" y="-110.5" font-family="Helvetica,sans-Serif" font-size="10.00">_number</text>
</a>
</g>
</g>
<!-- Node3&#45;&gt;Node10 -->
<g id="edge25_Node000003_Node000010" class="edge">
<title>Node3&#45;&gt;Node10</title>
<g id="a_edge25_Node000003_Node000010"><a xlink:title=" ">
<path fill="none" stroke="#63b8ff" d="M1103.09,-111.76C1027.61,-104.4 899.52,-98.23 789.5,-103 776.99,-103.54 763.55,-104.5 750.91,-105.82"/>
<polygon fill="#63b8ff" stroke="#63b8ff" points="1102.48,-115.22 1112.79,-112.75 1103.19,-108.26 1102.48,-115.22"/>
</a>
</g>
</g>
<!-- Node4&#45;&gt;Node5 -->
<g id="edge4_Node000004_Node000005" class="edge">
<title>Node4&#45;&gt;Node5</title>
<g id="a_edge4_Node000004_Node000005"><a xlink:title=" ">
<path fill="none" stroke="#63b8ff" d="M922.76,-201.25C914.63,-201.27 906.54,-201.38 898.81,-201.59"/>
<polygon fill="#63b8ff" stroke="#63b8ff" points="922.71,-204.75 932.72,-201.28 922.73,-197.75 922.71,-204.75"/>
</a>
</g>
</g>
<!-- Node5&#45;&gt;Node3 -->
<g id="edge23_Node000005_Node000003" class="edge">
<title>Node5&#45;&gt;Node3</title>
<g id="a_edge23_Node000005_Node000003"><a xlink:title=" ">
<path fill="none" stroke="#63b8ff" d="M910.05,-196.43C973.63,-181.54 1068.68,-156.31 1123.98,-139.46"/>
<polygon fill="#63b8ff" stroke="#63b8ff" points="909.38,-193 900.43,-198.66 910.96,-199.82 909.38,-193"/>
</a>
</g>
</g>
<!-- Node5&#45;&gt;Node4 -->
<g id="edge13_Node000005_Node000004" class="edge">
<title>Node5&#45;&gt;Node4</title>
<g id="a_edge13_Node000005_Node000004"><a xlink:title=" ">
<path fill="none" stroke="#63b8ff" d="M910.22,-214.64C918.13,-214.76 926.24,-214.78 934.24,-214.71"/>
<polygon fill="#63b8ff" stroke="#63b8ff" points="910.39,-211.15 900.33,-214.44 910.25,-218.14 910.39,-211.15"/>
</a>
</g>
</g>
<!-- Node6 -->
<g id="Node000006" class="node">
<title>Node6</title>
<g id="a_Node000006"><a xlink:href="classxpath__ast__node.html#ab4e5bbd3f2e83c86a43349374b4bfc22" target="_top" xlink:title=" ">
<polygon fill="white" stroke="#666666" points="753.5,-186 639.25,-186 639.25,-154 753.5,-154 753.5,-186"/>
<text xml:space="preserve" text-anchor="start" x="647.25" y="-172.5" font-family="Helvetica,sans-Serif" font-size="10.00">xpath_ast_node::apply</text>
<text xml:space="preserve" text-anchor="middle" x="696.38" y="-160.5" font-family="Helvetica,sans-Serif" font-size="10.00">_predicate_boolean</text>
</a>
</g>
</g>
<!-- Node5&#45;&gt;Node6 -->
<g id="edge5_Node000005_Node000006" class="edge">
<title>Node5&#45;&gt;Node6</title>
<g id="a_edge5_Node000005_Node000006"><a xlink:title=" ">
<path fill="none" stroke="#63b8ff" d="M778.24,-191.1C770.12,-188.98 761.87,-186.83 753.89,-184.75"/>
<polygon fill="#63b8ff" stroke="#63b8ff" points="777.16,-194.44 787.72,-193.58 778.93,-187.66 777.16,-194.44"/>
</a>
</g>
</g>
<!-- Node5&#45;&gt;Node10 -->
<g id="edge14_Node000005_Node000010" class="edge">
<title>Node5&#45;&gt;Node10</title>
<g id="a_edge14_Node000005_Node000010"><a xlink:title=" ">
<path fill="none" stroke="#63b8ff" d="M815.82,-185.81C807.15,-180.58 797.68,-174.92 789.5,-169 771.92,-156.27 771.65,-147.9 753.5,-136 752.79,-135.53 752.06,-135.07 751.33,-134.61"/>
<polygon fill="#63b8ff" stroke="#63b8ff" points="813.87,-188.71 824.23,-190.95 817.52,-182.74 813.87,-188.71"/>
</a>
</g>
</g>
<!-- Node7 -->
<g id="Node000007" class="node">
<title>Node7</title>
<g id="a_Node000007"><a xlink:href="classxpath__ast__node.html#a7e35f265c9e0712a16e1d8a9db4c7672" target="_top" xlink:title=" ">
<polygon fill="white" stroke="#666666" points="439.5,-167 325.25,-167 325.25,-135 439.5,-135 439.5,-167"/>
<text xml:space="preserve" text-anchor="start" x="333.25" y="-153.5" font-family="Helvetica,sans-Serif" font-size="10.00">xpath_ast_node::apply</text>
<text xml:space="preserve" text-anchor="middle" x="382.38" y="-141.5" font-family="Helvetica,sans-Serif" font-size="10.00">_predicate</text>
</a>
</g>
</g>
<!-- Node6&#45;&gt;Node7 -->
<g id="edge6_Node000006_Node000007" class="edge">
<title>Node6&#45;&gt;Node7</title>
<g id="a_edge6_Node000006_Node000007"><a xlink:title=" ">
<path fill="none" stroke="#63b8ff" d="M627.58,-166.1C584.11,-163.57 526.48,-160.17 475.5,-157 463.98,-156.28 451.66,-155.5 439.89,-154.73"/>
<polygon fill="#63b8ff" stroke="#63b8ff" points="627.18,-169.58 637.37,-166.67 627.59,-162.59 627.18,-169.58"/>
</a>
</g>
</g>
<!-- Node8 -->
<g id="Node000008" class="node">
<title>Node8</title>
<g id="a_Node000008"><a xlink:href="classxpath__ast__node.html#a68cace396dd4eeae67ecfcd34a3a8285" target="_top" xlink:title=" ">
<polygon fill="white" stroke="#666666" points="289.25,-224 180.25,-224 180.25,-192 289.25,-192 289.25,-224"/>
<text xml:space="preserve" text-anchor="start" x="188.25" y="-210.5" font-family="Helvetica,sans-Serif" font-size="10.00">xpath_ast_node::eval</text>
<text xml:space="preserve" text-anchor="middle" x="234.75" y="-198.5" font-family="Helvetica,sans-Serif" font-size="10.00">_node_set</text>
</a>
</g>
</g>
<!-- Node7&#45;&gt;Node8 -->
<g id="edge7_Node000007_Node000008" class="edge">
<title>Node7&#45;&gt;Node8</title>
<g id="a_edge7_Node000007_Node000008"><a xlink:title=" ">
<path fill="none" stroke="#63b8ff" d="M328.54,-171.68C311.84,-178.22 293.62,-185.35 277.78,-191.55"/>
<polygon fill="#63b8ff" stroke="#63b8ff" points="329.81,-174.94 337.84,-168.04 327.26,-168.42 329.81,-174.94"/>
</a>
</g>
</g>
<!-- Node8&#45;&gt;Node3 -->
<g id="edge12_Node000008_Node000003" class="edge">
<title>Node8&#45;&gt;Node3</title>
<g id="a_edge12_Node000008_Node000003"><a xlink:title=" ">
<path fill="none" stroke="#63b8ff" d="M254.29,-182.83C297.43,-127.47 410.61,0 538.38,0 845,0 845,0 845,0 963.59,0 1091.59,-73.21 1143.9,-106.67"/>
<polygon fill="#63b8ff" stroke="#63b8ff" points="251.74,-180.41 248.44,-190.48 257.3,-184.66 251.74,-180.41"/>
</a>
</g>
</g>
<!-- Node8&#45;&gt;Node4 -->
<g id="edge8_Node000008_Node000004" class="edge">
<title>Node8&#45;&gt;Node4</title>
<g id="a_edge8_Node000008_Node000004"><a xlink:title=" ">
<path fill="none" stroke="#63b8ff" d="M282.07,-228.77C340.56,-253.07 444.85,-290 538.38,-290 697.38,-290 697.38,-290 697.38,-290 807.57,-290 932.71,-240.45 982.97,-218.39"/>
<polygon fill="#63b8ff" stroke="#63b8ff" points="283.67,-225.65 273.09,-224.99 280.94,-232.1 283.67,-225.65"/>
</a>
</g>
</g>
<!-- Node8&#45;&gt;Node5 -->
<g id="edge11_Node000008_Node000005" class="edge">
<title>Node8&#45;&gt;Node5</title>
<g id="a_edge11_Node000008_Node000005"><a xlink:title=" ">
<path fill="none" stroke="#63b8ff" d="M300.75,-208C421.32,-208 677.48,-208 789.11,-208"/>
<polygon fill="#63b8ff" stroke="#63b8ff" points="301.03,-204.5 291.03,-208 301.03,-211.5 301.03,-204.5"/>
</a>
</g>
</g>
<!-- Node9 -->
<g id="Node000009" class="node">
<title>Node9</title>
<g id="a_Node000009"><a xlink:href="classxpath__ast__node.html#abb6e4c529276eaf882233dbb6e04e111" target="_top" xlink:title=" ">
<polygon fill="white" stroke="#666666" points="144.25,-240 0,-240 0,-220 144.25,-220 144.25,-240"/>
<text xml:space="preserve" text-anchor="middle" x="72.12" y="-226.5" font-family="Helvetica,sans-Serif" font-size="10.00">xpath_ast_node::compare_rel</text>
</a>
</g>
</g>
<!-- Node8&#45;&gt;Node9 -->
<g id="edge9_Node000008_Node000009" class="edge">
<title>Node8&#45;&gt;Node9</title>
<g id="a_edge9_Node000008_Node000009"><a xlink:title=" ">
<path fill="none" stroke="#63b8ff" d="M168.48,-216.94C160.61,-218.02 152.55,-219.12 144.6,-220.21"/>
<polygon fill="#63b8ff" stroke="#63b8ff" points="168.89,-220.42 178.32,-215.59 167.94,-213.48 168.89,-220.42"/>
</a>
</g>
</g>
<!-- Node9&#45;&gt;Node5 -->
<g id="edge10_Node000009_Node000005" class="edge">
<title>Node9&#45;&gt;Node5</title>
<g id="a_edge10_Node000009_Node000005"><a xlink:title=" ">
<path fill="none" stroke="#63b8ff" d="M155.93,-239.12C217.92,-245.17 304.86,-252 381.38,-252 540.38,-252 540.38,-252 540.38,-252 628.24,-252 728.98,-233.61 789.22,-220.61"/>
<polygon fill="#63b8ff" stroke="#63b8ff" points="156.45,-235.66 146.16,-238.15 155.76,-242.62 156.45,-235.66"/>
</a>
</g>
</g>
<!-- Node10&#45;&gt;Node3 -->
<g id="edge22_Node000010_Node000003" class="edge">
<title>Node10&#45;&gt;Node3</title>
<g id="a_edge22_Node000010_Node000003"><a xlink:title=" ">
<path fill="none" stroke="#63b8ff" d="M762.33,-122.56C771.45,-121.97 780.7,-121.38 789.5,-121 905.17,-115.99 1040.81,-123.07 1114.29,-125.06"/>
<polygon fill="#63b8ff" stroke="#63b8ff" points="762.17,-119.06 752.42,-123.21 762.63,-126.05 762.17,-119.06"/>
</a>
</g>
</g>
<!-- Node10&#45;&gt;Node4 -->
<g id="edge19_Node000010_Node000004" class="edge">
<title>Node10&#45;&gt;Node4</title>
<g id="a_edge19_Node000010_Node000004"><a xlink:title=" ">
<path fill="none" stroke="#63b8ff" d="M762.2,-138.51C825.05,-156.45 918.13,-183.02 969.05,-197.56"/>
<polygon fill="#63b8ff" stroke="#63b8ff" points="763.26,-135.17 752.68,-135.79 761.34,-141.9 763.26,-135.17"/>
</a>
</g>
</g>
<!-- Node10&#45;&gt;Node5 -->
<g id="edge21_Node000010_Node000005" class="edge">
<title>Node10&#45;&gt;Node5</title>
<g id="a_edge21_Node000010_Node000005"><a xlink:title=" ">
<path fill="none" stroke="#63b8ff" d="M730.64,-141.43C738.4,-145.22 746.45,-149.37 753.5,-154 771.65,-165.9 771.92,-174.27 789.5,-187 791.66,-188.56 793.9,-190.1 796.2,-191.61"/>
<polygon fill="#63b8ff" stroke="#63b8ff" points="732.25,-138.32 721.73,-137.12 729.21,-144.62 732.25,-138.32"/>
</a>
</g>
</g>
<!-- Node10&#45;&gt;Node9 -->
<g id="edge20_Node000010_Node000009" class="edge">
<title>Node10&#45;&gt;Node9</title>
<g id="a_edge20_Node000010_Node000009"><a xlink:title=" ">
<path fill="none" stroke="#63b8ff" d="M669.99,-96.39C652.64,-81.93 628.31,-64.75 603.25,-57 549.01,-40.23 531.13,-45.63 475.5,-57 317.19,-89.37 144.45,-187.2 90.32,-219.52"/>
<polygon fill="#63b8ff" stroke="#63b8ff" points="667.39,-98.77 677.25,-102.65 671.96,-93.47 667.39,-98.77"/>
</a>
</g>
</g>
<!-- Node11 -->
<g id="Node000011" class="node">
<title>Node11</title>
<g id="a_Node000011"><a xlink:href="classxpath__ast__node.html#abf2d4b745493f63aebc1c89d9fde8eed" target="_top" xlink:title=" ">
<polygon fill="white" stroke="#666666" points="596.5,-98 482.25,-98 482.25,-66 596.5,-66 596.5,-98"/>
<text xml:space="preserve" text-anchor="start" x="490.25" y="-84.5" font-family="Helvetica,sans-Serif" font-size="10.00">xpath_ast_node::apply</text>
<text xml:space="preserve" text-anchor="middle" x="539.38" y="-72.5" font-family="Helvetica,sans-Serif" font-size="10.00">_predicate_number</text>
</a>
</g>
</g>
<!-- Node10&#45;&gt;Node11 -->
<g id="edge15_Node000010_Node000011" class="edge">
<title>Node10&#45;&gt;Node11</title>
<g id="a_edge15_Node000010_Node000011"><a xlink:title=" ">
<path fill="none" stroke="#63b8ff" d="M630.59,-104.12C619.42,-101.38 607.89,-98.55 596.96,-95.87"/>
<polygon fill="#63b8ff" stroke="#63b8ff" points="629.58,-107.47 640.13,-106.46 631.25,-100.68 629.58,-107.47"/>
</a>
</g>
</g>
<!-- Node12 -->
<g id="Node000012" class="node">
<title>Node12</title>
<g id="a_Node000012"><a xlink:href="classxpath__ast__node.html#a8cedd7e15623b9fa431788b8843f1463" target="_top" xlink:title=" ">
<polygon fill="white" stroke="#666666" points="603.25,-148 475.5,-148 475.5,-116 603.25,-116 603.25,-148"/>
<text xml:space="preserve" text-anchor="start" x="483.5" y="-134.5" font-family="Helvetica,sans-Serif" font-size="10.00">xpath_ast_node::apply</text>
<text xml:space="preserve" text-anchor="middle" x="539.38" y="-122.5" font-family="Helvetica,sans-Serif" font-size="10.00">_predicate_number_const</text>
</a>
</g>
</g>
<!-- Node10&#45;&gt;Node12 -->
<g id="edge17_Node000010_Node000012" class="edge">
<title>Node10&#45;&gt;Node12</title>
<g id="a_edge17_Node000010_Node000012"><a xlink:title=" ">
<path fill="none" stroke="#63b8ff" d="M630.21,-125.05C621.41,-125.73 612.4,-126.42 603.65,-127.1"/>
<polygon fill="#63b8ff" stroke="#63b8ff" points="630.39,-128.54 640.09,-124.28 629.85,-121.56 630.39,-128.54"/>
</a>
</g>
</g>
<!-- Node11&#45;&gt;Node7 -->
<g id="edge16_Node000011_Node000007" class="edge">
<title>Node11&#45;&gt;Node7</title>
<g id="a_edge16_Node000011_Node000007"><a xlink:title=" ">
<path fill="none" stroke="#63b8ff" d="M485.61,-102.68C482.18,-104.12 478.78,-105.57 475.5,-107 455.69,-115.66 433.83,-126.06 416.39,-134.57"/>
<polygon fill="#63b8ff" stroke="#63b8ff" points="486.63,-106.05 494.54,-99 483.96,-99.57 486.63,-106.05"/>
</a>
</g>
</g>
<!-- Node12&#45;&gt;Node7 -->
<g id="edge18_Node000012_Node000007" class="edge">
<title>Node12&#45;&gt;Node7</title>
<g id="a_edge18_Node000012_Node000007"><a xlink:title=" ">
<path fill="none" stroke="#63b8ff" d="M463.95,-141.12C455.85,-142.12 447.71,-143.11 439.88,-144.07"/>
<polygon fill="#63b8ff" stroke="#63b8ff" points="464.33,-144.6 473.83,-139.91 463.48,-137.65 464.33,-144.6"/>
</a>
</g>
</g>
<!-- Node13&#45;&gt;Node3 -->
<g id="edge31_Node000013_Node000003" class="edge">
<title>Node13&#45;&gt;Node3</title>
<g id="a_edge31_Node000013_Node000003"><a xlink:title=" ">
<path fill="none" stroke="#63b8ff" d="M1284.17,-170.54C1276.08,-167.45 1267.62,-164.16 1259.75,-161 1242.68,-154.14 1223.92,-146.23 1208,-139.41"/>
<polygon fill="#63b8ff" stroke="#63b8ff" points="1282.88,-173.79 1293.47,-174.06 1285.36,-167.25 1282.88,-173.79"/>
</a>
</g>
</g>
<!-- Node13&#45;&gt;Node4 -->
<g id="edge28_Node000013_Node000004" class="edge">
<title>Node13&#45;&gt;Node4</title>
<g id="a_edge28_Node000013_Node000004"><a xlink:title=" ">
<path fill="none" stroke="#63b8ff" d="M1278.08,-188.28C1226.23,-192.06 1140.25,-198.33 1079.17,-202.78"/>
<polygon fill="#63b8ff" stroke="#63b8ff" points="1278.32,-191.77 1288.04,-187.55 1277.81,-184.79 1278.32,-191.77"/>
</a>
</g>
</g>
<!-- Node13&#45;&gt;Node9 -->
<g id="edge29_Node000013_Node000009" class="edge">
<title>Node13&#45;&gt;Node9</title>
<g id="a_edge29_Node000013_Node000009"><a xlink:title=" ">
<path fill="none" stroke="#63b8ff" d="M1301.74,-202.42C1252.98,-240.54 1127.99,-328 1007.62,-328 1007.62,-328 1007.62,-328 381.38,-328 266.82,-328 139.09,-265.77 91.93,-240.49"/>
<polygon fill="#63b8ff" stroke="#63b8ff" points="1303.88,-205.19 1309.52,-196.23 1299.52,-199.71 1303.88,-205.19"/>
</a>
</g>
</g>
<!-- Node13&#45;&gt;Node10 -->
<g id="edge30_Node000013_Node000010" class="edge">
<title>Node13&#45;&gt;Node10</title>
<g id="a_edge30_Node000013_Node000010"><a xlink:title=" ">
<path fill="none" stroke="#63b8ff" d="M1278.13,-180.34C1165.73,-168.66 872.46,-138.19 751.13,-125.58"/>
<polygon fill="#63b8ff" stroke="#63b8ff" points="1277.55,-183.8 1287.86,-181.35 1278.27,-176.83 1277.55,-183.8"/>
</a>
</g>
</g>
</g>
</svg>

<g id="navigator" transform="translate(0 0)" fill="#404254">
  <rect fill="#f2f5e9" fill-opacity="0.5" stroke="#606060" stroke-width=".5" x="0" y="0" width="60" height="60"/>
  <use id="zoomplus" xlink:href="#zoomPlus" x="17" y="9" onmousedown="handleZoom(evt,'in')"/>
  <use id="zoomminus" xlink:href="#zoomMin" x="42" y="9" onmousedown="handleZoom(evt,'out')"/>
  <use id="reset" xlink:href="#resetDef" x="30" y="36" onmousedown="handleReset()"/>
   <use id="arrowup" xlink:href="#arrowUp" x="0" y="0" onmousedown="handlePan(0,-1)"/>
  <use id="arrowright" xlink:href="#arrowRight" x="0" y="0" onmousedown="handlePan(1,0)"/>
  <use id="arrowdown" xlink:href="#arrowDown" x="0" y="0" onmousedown="handlePan(0,1)"/>
  <use id="arrowleft" xlink:href="#arrowLeft" x="0" y="0" onmousedown="handlePan(-1,0)"/>
</g>
<svg viewBox="0 0 15 15" width="100%" height="30px" preserveAspectRatio="xMaxYMin meet">
 <g id="arrow_out" transform="scale(0.3 0.3)">
  <a xlink:href="classxpath__string_a6dce01c6b3a949c3c4c886e6be44931e_icgraph_org.svg" target="_base">
   <rect id="button" ry="5" rx="5" y="6" x="6" height="38" width="38"
        fill="#f2f5e9" fill-opacity="0.5" stroke="#606060" stroke-width="1.0"/>
   <path id="arrow"
     d="M 11.500037,31.436501 C 11.940474,20.09759 22.043105,11.32322 32.158766,21.979434 L 37.068811,17.246167 C 37.068811,17.246167 37.088388,32 37.088388,32 L 22.160133,31.978069 C 22.160133,31.978069 26.997745,27.140456 26.997745,27.140456 C 18.528582,18.264221 13.291696,25.230495 11.500037,31.436501 z"
     style="fill:#404040;"/>
  </a>
 </g>
</svg>

<style type='text/css'>
<![CDATA[
[data-mouse-over-selected='false'] { opacity: 0.7; }
[data-mouse-over-selected='true']  { opacity: 1.0; }
]]>
</style>
<script type="application/ecmascript"><![CDATA[
document.addEventListener('DOMContentLoaded', (event) => {
  highlightEdges();
  highlightAdjacentNodes();
});
]]></script>
</svg>
