<?xml version="1.0" encoding="UTF-8" standalone="no"?>
<!DOCTYPE svg PUBLIC "-//W3C//DTD SVG 1.1//EN"
 "http://www.w3.org/Graphics/SVG/1.1/DTD/svg11.dtd">
<!-- Generated by graphviz version 14.1.2 (20260124.0452)
 -->
<!-- Title: GEBalljoint::updateRecursive Pages: 1 -->
<svg width="339pt" height="142pt"
 viewBox="0.00 0.00 339.00 142.00" xmlns="http://www.w3.org/2000/svg" xmlns:xlink="http://www.w3.org/1999/xlink">

<svg id="main" version="1.1" xmlns="http://www.w3.org/2000/svg" xmlns:xlink="http://www.w3.org/1999/xlink" xml:space="preserve">

<style type="text/css"><![CDATA[
.node, .edge {opacity: 0.7;}
.node.selected, .edge.selected {opacity: 1;}
.edge:hover path { stroke: red; }
.edge:hover polygon { stroke: red; fill: red; }
]]></style>
<script type="application/ecmascript" xlink:href="svg.min.js"/>
<svg id="graph" class="graph">
<g id="graph0" class="graph" transform="scale(1 1) rotate(0) translate(4 138)">
<title>GEBalljoint::updateRecursive</title>
<!-- Node1 -->
<g id="Node000001" class="node">
<title>Node1</title>
<g id="a_Node000001"><a xlink:title="Actualiza recursivamente con matriz del padre.">
<polygon fill="#999999" stroke="#666666" points="144.25,-77 0,-77 0,-57 144.25,-57 144.25,-77"/>
<text xml:space="preserve" text-anchor="middle" x="72.12" y="-63.5" font-family="Helvetica,sans-Serif" font-size="10.00">GEBalljoint::updateRecursive</text>
</a>
</g>
</g>
<!-- Node2 -->
<g id="Node000002" class="node">
<title>Node2</title>
<g id="a_Node000002"><a xlink:href="class_g_e_balljoint.html#a26c862fcf041ae1703e1f2b5faa701d7" target="_top" xlink:title="Calcula la matriz de transformación local.">
<polygon fill="white" stroke="#666666" points="324.5,-134 187,-134 187,-114 324.5,-114 324.5,-134"/>
<text xml:space="preserve" text-anchor="middle" x="255.75" y="-120.5" font-family="Helvetica,sans-Serif" font-size="10.00">GEBalljoint::ComputeMatrix</text>
</a>
</g>
</g>
<!-- Node1&#45;&gt;Node2 -->
<g id="edge1_Node000001_Node000002" class="edge">
<title>Node1&#45;&gt;Node2</title>
<g id="a_edge1_Node000001_Node000002"><a xlink:title=" ">
<path fill="none" stroke="#63b8ff" d="M100.2,-77.37C121.72,-85.43 152.69,-96.62 180.25,-105 186.55,-106.92 193.19,-108.8 199.8,-110.59"/>
<polygon fill="#63b8ff" stroke="#63b8ff" points="198.81,-113.95 209.37,-113.12 200.6,-107.18 198.81,-113.95"/>
</a>
</g>
</g>
<!-- Node3 -->
<g id="Node000003" class="node">
<title>Node3</title>
<g id="a_Node000003"><a xlink:href="class_g_e_balljoint.html#a0f468b4618ae46410622a32a83569714" target="_top" xlink:title="Construye una articulación.">
<polygon fill="white" stroke="#666666" points="315.5,-96 196,-96 196,-76 315.5,-76 315.5,-96"/>
<text xml:space="preserve" text-anchor="middle" x="255.75" y="-82.5" font-family="Helvetica,sans-Serif" font-size="10.00">GEBalljoint::GEBalljoint</text>
</a>
</g>
</g>
<!-- Node1&#45;&gt;Node3 -->
<g id="edge2_Node000001_Node000003" class="edge">
<title>Node1&#45;&gt;Node3</title>
<g id="a_edge2_Node000001_Node000003"><a xlink:title=" ">
<path fill="none" stroke="#63b8ff" d="M144.65,-74.48C157.7,-75.85 171.31,-77.27 184.33,-78.63"/>
<polygon fill="#63b8ff" stroke="#63b8ff" points="183.78,-82.09 194.09,-79.65 184.5,-75.13 183.78,-82.09"/>
</a>
</g>
</g>
<!-- Node4 -->
<g id="Node000004" class="node">
<title>Node4</title>
<g id="a_Node000004"><a xlink:href="class_g_e_balljoint.html#ad45612bbae85e9d9fe8003847d22bda6" target="_top" xlink:title="Obtiene la matriz en el extremo del hueso.">
<polygon fill="white" stroke="#666666" points="331.25,-58 180.25,-58 180.25,-38 331.25,-38 331.25,-58"/>
<text xml:space="preserve" text-anchor="middle" x="255.75" y="-44.5" font-family="Helvetica,sans-Serif" font-size="10.00">GEBalljoint::getBoneEndMatrix</text>
</a>
</g>
</g>
<!-- Node1&#45;&gt;Node4 -->
<g id="edge3_Node000001_Node000004" class="edge">
<title>Node1&#45;&gt;Node4</title>
<g id="a_edge3_Node000001_Node000004"><a xlink:title=" ">
<path fill="none" stroke="#63b8ff" d="M144.65,-59.52C152.54,-58.69 160.64,-57.85 168.69,-57"/>
<polygon fill="#63b8ff" stroke="#63b8ff" points="168.92,-60.5 178.5,-55.98 168.19,-53.54 168.92,-60.5"/>
</a>
</g>
</g>
<!-- Node5 -->
<g id="Node000005" class="node">
<title>Node5</title>
<g id="a_Node000005"><a xlink:href="class_g_e_balljoint.html#af5d47555933b7c5b8c66644bad354497" target="_top" xlink:title="Actualiza las variables uniformes.">
<polygon fill="white" stroke="#666666" points="305.75,-20 205.75,-20 205.75,0 305.75,0 305.75,-20"/>
<text xml:space="preserve" text-anchor="middle" x="255.75" y="-6.5" font-family="Helvetica,sans-Serif" font-size="10.00">GEBalljoint::update</text>
</a>
</g>
</g>
<!-- Node1&#45;&gt;Node5 -->
<g id="edge4_Node000001_Node000005" class="edge">
<title>Node1&#45;&gt;Node5</title>
<g id="a_edge4_Node000001_Node000005"><a xlink:title=" ">
<path fill="none" stroke="#63b8ff" d="M100.2,-56.63C121.72,-48.57 152.69,-37.38 180.25,-29 186.55,-27.08 193.19,-25.2 199.8,-23.41"/>
<polygon fill="#63b8ff" stroke="#63b8ff" points="200.6,-26.82 209.37,-20.88 198.81,-20.05 200.6,-26.82"/>
</a>
</g>
</g>
</g>
</svg>
</svg>

<style type='text/css'>
<![CDATA[
[data-mouse-over-selected='false'] { opacity: 0.7; }
[data-mouse-over-selected='true']  { opacity: 1.0; }
]]>
</style>
<script type="application/ecmascript"><![CDATA[
document.addEventListener('DOMContentLoaded', (event) => {
  highlightEdges();
  highlightAdjacentNodes();
});
]]></script>
</svg>
