<?xml version="1.0" encoding="UTF-8" standalone="no"?>
<!DOCTYPE svg PUBLIC "-//W3C//DTD SVG 1.1//EN"
 "http://www.w3.org/Graphics/SVG/1.1/DTD/svg11.dtd">
<!-- Generated by graphviz version 14.1.2 (20260124.0452)
 -->
<!-- Title: pugi::xpath_variable::xpath_variable Pages: 1 -->
<svg width="250pt" height="90pt"
 viewBox="0.00 0.00 250.00 90.00" xmlns="http://www.w3.org/2000/svg" xmlns:xlink="http://www.w3.org/1999/xlink">
<g id="graph0" class="graph" transform="scale(1 1) rotate(0) translate(4 86)">
<title>pugi::xpath_variable::xpath_variable</title>
<!-- Node1 -->
<g id="Node000001" class="node">
<title>Node1</title>
<g id="a_Node000001"><a xlink:title=" ">
<polygon fill="#999999" stroke="#666666" points="242,-57 139,-57 139,-25 242,-25 242,-57"/>
<text xml:space="preserve" text-anchor="start" x="147" y="-43.5" font-family="Helvetica,sans-Serif" font-size="10.00">pugi::xpath_variable</text>
<text xml:space="preserve" text-anchor="middle" x="190.5" y="-31.5" font-family="Helvetica,sans-Serif" font-size="10.00">::xpath_variable</text>
</a>
</g>
</g>
<!-- Node2 -->
<g id="Node000002" class="node">
<title>Node2</title>
<g id="a_Node000002"><a xlink:href="classpugi_1_1xpath__variable.html#abdae5ede6814c614bb09768847d06384" target="_top" xlink:title=" ">
<polygon fill="white" stroke="#666666" points="103,-82 0,-82 0,-50 103,-50 103,-82"/>
<text xml:space="preserve" text-anchor="start" x="8" y="-68.5" font-family="Helvetica,sans-Serif" font-size="10.00">pugi::xpath_variable</text>
<text xml:space="preserve" text-anchor="middle" x="51.5" y="-56.5" font-family="Helvetica,sans-Serif" font-size="10.00">::operator=</text>
</a>
</g>
</g>
<!-- Node1&#45;&gt;Node2 -->
<g id="edge1_Node000001_Node000002" class="edge">
<title>Node1&#45;&gt;Node2</title>
<g id="a_edge1_Node000001_Node000002"><a xlink:title=" ">
<path fill="none" stroke="#63b8ff" d="M127.56,-52.3C119.47,-53.78 111.26,-55.28 103.37,-56.72"/>
<polygon fill="#63b8ff" stroke="#63b8ff" points="128.18,-55.75 137.39,-50.51 126.92,-48.86 128.18,-55.75"/>
</a>
</g>
</g>
<!-- Node3 -->
<g id="Node000003" class="node">
<title>Node3</title>
<g id="a_Node000003"><a xlink:href="classpugi_1_1xpath__variable.html#a2d805ed204c1fec482f859217d1baa4a" target="_top" xlink:title=" ">
<polygon fill="white" stroke="#666666" points="103,-32 0,-32 0,0 103,0 103,-32"/>
<text xml:space="preserve" text-anchor="start" x="8" y="-18.5" font-family="Helvetica,sans-Serif" font-size="10.00">pugi::xpath_variable</text>
<text xml:space="preserve" text-anchor="middle" x="51.5" y="-6.5" font-family="Helvetica,sans-Serif" font-size="10.00">::xpath_variable</text>
</a>
</g>
</g>
<!-- Node1&#45;&gt;Node3 -->
<g id="edge2_Node000001_Node000003" class="edge">
<title>Node1&#45;&gt;Node3</title>
<g id="a_edge2_Node000001_Node000003"><a xlink:title=" ">
<path fill="none" stroke="#63b8ff" d="M127.56,-29.7C119.47,-28.22 111.26,-26.72 103.37,-25.28"/>
<polygon fill="#63b8ff" stroke="#63b8ff" points="126.92,-33.14 137.39,-31.49 128.18,-26.25 126.92,-33.14"/>
</a>
</g>
</g>
</g>
</svg>
