<?xml version="1.0" encoding="UTF-8" standalone="no"?>
<!DOCTYPE svg PUBLIC "-//W3C//DTD SVG 1.1//EN"
 "http://www.w3.org/Graphics/SVG/1.1/DTD/svg11.dtd">
<!-- Generated by graphviz version 14.1.2 (20260124.0452)
 -->
<!-- Title: xpath_ast_node::step_do Pages: 1 -->
<!--zoomable 443 -->

<svg id="main" version="1.1" xmlns="http://www.w3.org/2000/svg" xmlns:xlink="http://www.w3.org/1999/xlink" xml:space="preserve" onload="init(evt)">

<style type="text/css"><![CDATA[
.node, .edge {opacity: 0.7;}
.node.selected, .edge.selected {opacity: 1;}
.edge:hover path { stroke: red; }
.edge:hover polygon { stroke: red; fill: red; }
]]></style>

<defs>
  <circle id="rim" cx="0" cy="0" r="7"/>
  <circle id="rim2" cx="0" cy="0" r="3.5"/>
  <g id="zoomPlus">
    <use xlink:href="#rim" fill="#404040"><set attributeName="fill" to="#808080" begin="zoomplus.mouseover" end="zoomplus.mouseout"/></use>
    <path d="M-4,0h8M0,-4v8" fill="none" stroke="white" stroke-width="1.5" pointer-events="none"/>
  </g>
  <g id="zoomMin">
    <use xlink:href="#rim" fill="#404040"><set attributeName="fill" to="#808080" begin="zoomminus.mouseover" end="zoomminus.mouseout"/></use>
    <path d="M-4,0h8" fill="none" stroke="white" stroke-width="1.5" pointer-events="none"/>
  </g>
  <g id="arrowUp" transform="translate(30 24)">
    <use xlink:href="#rim"/>
    <path pointer-events="none" fill="none" stroke="white" stroke-width="1.5" d="M0,-3.0v7 M-2.5,-0.5L0,-3.0L2.5,-0.5"/>
  </g>
  <g id="arrowRight" transform="rotate(90) translate(36 -43)">
    <use xlink:href="#rim"/>
    <path pointer-events="none" fill="none" stroke="white" stroke-width="1.5" d="M0,-3.0v7 M-2.5,-0.5L0,-3.0L2.5,-0.5"/>
  </g>
  <g id="arrowDown" transform="rotate(180) translate(-30 -48)">
    <use xlink:href="#rim"/>
    <path pointer-events="none" fill="none" stroke="white" stroke-width="1.5" d="M0,-3.0v7 M-2.5,-0.5L0,-3.0L2.5,-0.5"/>
  </g>
  <g id="arrowLeft" transform="rotate(270) translate(-36 17)">
    <use xlink:href="#rim"/>
    <path pointer-events="none" fill="none" stroke="white" stroke-width="1.5" d="M0,-3.0v7 M-2.5,-0.5L0,-3.0L2.5,-0.5"/>
  </g>
  <g id="resetDef">
    <use xlink:href="#rim2" fill="#404040"><set attributeName="fill" to="#808080" begin="reset.mouseover" end="reset.mouseout"/></use>
  </g>
</defs>
<script type="application/ecmascript">
var viewWidth = 919;
var viewHeight = 443;
var sectionId = 'dynsection-43';
</script>
<script type="application/ecmascript" xlink:href="svg.min.js"/>
<svg id="graph" class="graph">
<g id="viewport">
<title>xpath_ast_node::step_do</title>
<!-- Node1 -->
<g id="Node000001" class="node">
<title>Node1</title>
<g id="a_Node000001"><a xlink:title=" ">
<polygon fill="#999999" stroke="#666666" points="125.5,-259 0,-259 0,-239 125.5,-239 125.5,-259"/>
<text xml:space="preserve" text-anchor="middle" x="62.75" y="-245.5" font-family="Helvetica,sans-Serif" font-size="10.00">xpath_ast_node::step_do</text>
</a>
</g>
</g>
<!-- Node2 -->
<g id="Node000002" class="node">
<title>Node2</title>
<g id="a_Node000002"><a xlink:href="classxpath__ast__node.html#af025a480dab7dd0bab21157fb9dd3e73" target="_top" xlink:title=" ">
<polygon fill="white" stroke="#666666" points="282.5,-353 168.25,-353 168.25,-321 282.5,-321 282.5,-353"/>
<text xml:space="preserve" text-anchor="start" x="176.25" y="-339.5" font-family="Helvetica,sans-Serif" font-size="10.00">xpath_ast_node::apply</text>
<text xml:space="preserve" text-anchor="middle" x="225.38" y="-327.5" font-family="Helvetica,sans-Serif" font-size="10.00">_predicates</text>
</a>
</g>
</g>
<!-- Node1&#45;&gt;Node2 -->
<g id="edge1_Node000001_Node000002" class="edge">
<title>Node1&#45;&gt;Node2</title>
<g id="a_edge1_Node000001_Node000002"><a xlink:title=" ">
<path fill="none" stroke="#63b8ff" d="M80.09,-259.31C99.3,-271.29 132.25,-291.39 161.5,-307 166.9,-309.88 172.63,-312.8 178.33,-315.62"/>
<polygon fill="#63b8ff" stroke="#63b8ff" points="176.63,-318.69 187.16,-319.92 179.69,-312.39 176.63,-318.69"/>
</a>
</g>
</g>
<!-- Node3 -->
<g id="Node000003" class="node">
<title>Node3</title>
<g id="a_Node000003"><a xlink:href="classxpath__ast__node.html#a35ad012fc33cf3dc51468a67c04aac54" target="_top" xlink:title=" ">
<polygon fill="white" stroke="#666666" points="460.88,-435 325.62,-435 325.62,-415 460.88,-415 460.88,-435"/>
<text xml:space="preserve" text-anchor="middle" x="393.25" y="-421.5" font-family="Helvetica,sans-Serif" font-size="10.00">xpath_ast_node::eval_once</text>
</a>
</g>
</g>
<!-- Node1&#45;&gt;Node3 -->
<g id="edge9_Node000001_Node000003" class="edge">
<title>Node1&#45;&gt;Node3</title>
<g id="a_edge9_Node000001_Node000003"><a xlink:title=" ">
<path fill="none" stroke="#63b8ff" d="M67.55,-259.24C77.97,-285.72 109.7,-356.67 161.5,-389 206.78,-417.26 266.51,-425.98 313.86,-427.78"/>
<polygon fill="#63b8ff" stroke="#63b8ff" points="313.69,-431.27 323.79,-428.05 313.88,-424.28 313.69,-431.27"/>
</a>
</g>
</g>
<!-- Node4 -->
<g id="Node000004" class="node">
<title>Node4</title>
<g id="a_Node000004"><a xlink:href="classxpath__node__set__raw.html#a1e790772073ddeafd7fe93464acb1156" target="_top" xlink:title=" ">
<polygon fill="white" stroke="#666666" points="446.25,-397 340.25,-397 340.25,-365 446.25,-365 446.25,-397"/>
<text xml:space="preserve" text-anchor="start" x="348.25" y="-383.5" font-family="Helvetica,sans-Serif" font-size="10.00">xpath_node_set_raw</text>
<text xml:space="preserve" text-anchor="middle" x="393.25" y="-371.5" font-family="Helvetica,sans-Serif" font-size="10.00">::size</text>
</a>
</g>
</g>
<!-- Node1&#45;&gt;Node4 -->
<g id="edge15_Node000001_Node000004" class="edge">
<title>Node1&#45;&gt;Node4</title>
<g id="a_edge15_Node000001_Node000004"><a xlink:title=" ">
<path fill="none" stroke="#63b8ff" d="M69.1,-259.48C81.6,-282.75 115.24,-338.51 161.5,-362 213.43,-388.37 280.49,-390.98 328.92,-388.27"/>
<polygon fill="#63b8ff" stroke="#63b8ff" points="328.93,-391.78 338.68,-387.63 328.47,-384.79 328.93,-391.78"/>
</a>
</g>
</g>
<!-- Node5 -->
<g id="Node000005" class="node">
<title>Node5</title>
<g id="a_Node000005"><a xlink:href="classxpath__node__set__raw.html#a40f85691234070adc233cc2eac980fbf" target="_top" xlink:title=" ">
<polygon fill="white" stroke="#666666" points="446.25,-279 340.25,-279 340.25,-247 446.25,-247 446.25,-279"/>
<text xml:space="preserve" text-anchor="start" x="348.25" y="-265.5" font-family="Helvetica,sans-Serif" font-size="10.00">xpath_node_set_raw</text>
<text xml:space="preserve" text-anchor="middle" x="393.25" y="-253.5" font-family="Helvetica,sans-Serif" font-size="10.00">::type</text>
</a>
</g>
</g>
<!-- Node1&#45;&gt;Node5 -->
<g id="edge26_Node000001_Node000005" class="edge">
<title>Node1&#45;&gt;Node5</title>
<g id="a_edge26_Node000001_Node000005"><a xlink:title=" ">
<path fill="none" stroke="#63b8ff" d="M95.94,-259.4C114.82,-264.95 139.25,-271.2 161.5,-274 217.63,-281.06 281.95,-277 328.4,-271.93"/>
<polygon fill="#63b8ff" stroke="#63b8ff" points="328.77,-275.42 338.31,-270.8 327.98,-268.46 328.77,-275.42"/>
</a>
</g>
</g>
<!-- Node7 -->
<g id="Node000007" class="node">
<title>Node7</title>
<g id="a_Node000007"><a xlink:href="classxpath__node__set__raw.html#aa7b27af5bb0611715e24d52788a6360d" target="_top" xlink:title=" ">
<polygon fill="white" stroke="#666666" points="278.38,-265 172.38,-265 172.38,-233 278.38,-233 278.38,-265"/>
<text xml:space="preserve" text-anchor="start" x="180.38" y="-251.5" font-family="Helvetica,sans-Serif" font-size="10.00">xpath_node_set_raw</text>
<text xml:space="preserve" text-anchor="middle" x="225.38" y="-239.5" font-family="Helvetica,sans-Serif" font-size="10.00">::begin</text>
</a>
</g>
</g>
<!-- Node1&#45;&gt;Node7 -->
<g id="edge7_Node000001_Node000007" class="edge">
<title>Node1&#45;&gt;Node7</title>
<g id="a_edge7_Node000001_Node000007"><a xlink:title=" ">
<path fill="none" stroke="#63b8ff" d="M125.85,-249C137.31,-249 149.28,-249 160.78,-249"/>
<polygon fill="#63b8ff" stroke="#63b8ff" points="160.57,-252.5 170.57,-249 160.57,-245.5 160.57,-252.5"/>
</a>
</g>
</g>
<!-- Node8 -->
<g id="Node000008" class="node">
<title>Node8</title>
<g id="a_Node000008"><a xlink:href="classxpath__node__set__raw.html#a57ee6a2ace876f3d0ad51748be66e684" target="_top" xlink:title=" ">
<polygon fill="white" stroke="#666666" points="289.25,-215 161.5,-215 161.5,-195 289.25,-195 289.25,-215"/>
<text xml:space="preserve" text-anchor="middle" x="225.38" y="-201.5" font-family="Helvetica,sans-Serif" font-size="10.00">xpath_node_set_raw::end</text>
</a>
</g>
</g>
<!-- Node1&#45;&gt;Node8 -->
<g id="edge8_Node000001_Node000008" class="edge">
<title>Node1&#45;&gt;Node8</title>
<g id="a_edge8_Node000001_Node000008"><a xlink:title=" ">
<path fill="none" stroke="#63b8ff" d="M101.82,-238.57C123.84,-232.54 151.79,-224.88 175.43,-218.41"/>
<polygon fill="#63b8ff" stroke="#63b8ff" points="176.12,-221.85 184.84,-215.83 174.28,-215.09 176.12,-221.85"/>
</a>
</g>
</g>
<!-- Node9 -->
<g id="Node000009" class="node">
<title>Node9</title>
<g id="a_Node000009"><a xlink:href="classxpath__node__set__raw.html#a9c79c58b27de48b650f4e0e7c177e4b6" target="_top" xlink:title=" ">
<polygon fill="white" stroke="#666666" points="278.38,-177 172.38,-177 172.38,-145 278.38,-145 278.38,-177"/>
<text xml:space="preserve" text-anchor="start" x="180.38" y="-163.5" font-family="Helvetica,sans-Serif" font-size="10.00">xpath_node_set_raw</text>
<text xml:space="preserve" text-anchor="middle" x="225.38" y="-151.5" font-family="Helvetica,sans-Serif" font-size="10.00">::remove_duplicates</text>
</a>
</g>
</g>
<!-- Node1&#45;&gt;Node9 -->
<g id="edge10_Node000001_Node000009" class="edge">
<title>Node1&#45;&gt;Node9</title>
<g id="a_edge10_Node000001_Node000009"><a xlink:title=" ">
<path fill="none" stroke="#63b8ff" d="M77.8,-238.7C96.33,-225.41 130.27,-202.08 161.5,-186 164.15,-184.64 166.89,-183.3 169.68,-181.99"/>
<polygon fill="#63b8ff" stroke="#63b8ff" points="170.83,-185.31 178.54,-178.04 167.98,-178.92 170.83,-185.31"/>
</a>
</g>
</g>
<!-- Node13 -->
<g id="Node000013" class="node">
<title>Node13</title>
<g id="a_Node000013"><a xlink:href="classxpath__node__set__raw.html#ae73780271d772967f78ddd7b9376cdab" target="_top" xlink:title=" ">
<polygon fill="white" stroke="#666666" points="278.38,-127 172.38,-127 172.38,-95 278.38,-95 278.38,-127"/>
<text xml:space="preserve" text-anchor="start" x="180.38" y="-113.5" font-family="Helvetica,sans-Serif" font-size="10.00">xpath_node_set_raw</text>
<text xml:space="preserve" text-anchor="middle" x="225.38" y="-101.5" font-family="Helvetica,sans-Serif" font-size="10.00">::set_type</text>
</a>
</g>
</g>
<!-- Node1&#45;&gt;Node13 -->
<g id="edge14_Node000001_Node000013" class="edge">
<title>Node1&#45;&gt;Node13</title>
<g id="a_edge14_Node000001_Node000013"><a xlink:title=" ">
<path fill="none" stroke="#63b8ff" d="M70.08,-238.81C84.06,-217.08 119.64,-165.76 161.5,-136 163.05,-134.9 164.65,-133.84 166.29,-132.82"/>
<polygon fill="#63b8ff" stroke="#63b8ff" points="167.71,-136.03 174.75,-128.12 164.31,-129.91 167.71,-136.03"/>
</a>
</g>
</g>
<!-- Node14 -->
<g id="Node000014" class="node">
<title>Node14</title>
<g id="a_Node000014"><a xlink:href="classxpath__ast__node.html#acbc4f5ec0e4d48444564d5101890416e" target="_top" xlink:title=" ">
<polygon fill="white" stroke="#666666" points="287.75,-77 163,-77 163,-57 287.75,-57 287.75,-77"/>
<text xml:space="preserve" text-anchor="middle" x="225.38" y="-63.5" font-family="Helvetica,sans-Serif" font-size="10.00">xpath_ast_node::step_fill</text>
</a>
</g>
</g>
<!-- Node1&#45;&gt;Node14 -->
<g id="edge16_Node000001_Node000014" class="edge">
<title>Node1&#45;&gt;Node14</title>
<g id="a_edge16_Node000001_Node000014"><a xlink:title=" ">
<path fill="none" stroke="#63b8ff" d="M66.92,-238.82C76.37,-210.21 107.11,-128.39 161.5,-86 163.01,-84.82 164.6,-83.71 166.25,-82.67"/>
<polygon fill="#63b8ff" stroke="#63b8ff" points="167.62,-85.91 174.83,-78.15 164.36,-79.71 167.62,-85.91"/>
</a>
</g>
</g>
<!-- Node2&#45;&gt;Node3 -->
<g id="edge2_Node000002_Node000003" class="edge">
<title>Node2&#45;&gt;Node3</title>
<g id="a_edge2_Node000002_Node000003"><a xlink:title=" ">
<path fill="none" stroke="#63b8ff" d="M245.61,-353.36C264.71,-368.87 295.37,-391.83 325.25,-406 328.96,-407.76 332.87,-409.39 336.86,-410.89"/>
<polygon fill="#63b8ff" stroke="#63b8ff" points="335.49,-414.12 346.09,-414.07 337.77,-407.5 335.49,-414.12"/>
</a>
</g>
</g>
<!-- Node2&#45;&gt;Node4 -->
<g id="edge3_Node000002_Node000004" class="edge">
<title>Node2&#45;&gt;Node4</title>
<g id="a_edge3_Node000002_Node000004"><a xlink:title=" ">
<path fill="none" stroke="#63b8ff" d="M283,-352.02C297.8,-355.95 313.85,-360.2 328.97,-364.22"/>
<polygon fill="#63b8ff" stroke="#63b8ff" points="327.76,-367.52 338.33,-366.7 329.56,-360.75 327.76,-367.52"/>
</a>
</g>
</g>
<!-- Node2&#45;&gt;Node5 -->
<g id="edge4_Node000002_Node000005" class="edge">
<title>Node2&#45;&gt;Node5</title>
<g id="a_edge4_Node000002_Node000005"><a xlink:title=" ">
<path fill="none" stroke="#63b8ff" d="M261.42,-320.59C270.52,-316.24 280.28,-311.51 289.25,-307 305.42,-298.88 308.74,-295.4 325.25,-288 328.54,-286.53 331.94,-285.07 335.38,-283.64"/>
<polygon fill="#63b8ff" stroke="#63b8ff" points="336.43,-286.99 344.4,-280.01 333.81,-280.5 336.43,-286.99"/>
</a>
</g>
</g>
<!-- Node6 -->
<g id="Node000006" class="node">
<title>Node6</title>
<g id="a_Node000006"><a xlink:href="classxpath__ast__node.html#ae5a059e41b41505bef1f7dbebda8070b" target="_top" xlink:title=" ">
<polygon fill="white" stroke="#666666" points="450.75,-329 335.75,-329 335.75,-297 450.75,-297 450.75,-329"/>
<text xml:space="preserve" text-anchor="start" x="343.75" y="-315.5" font-family="Helvetica,sans-Serif" font-size="10.00">xpath_ast_node::xpath</text>
<text xml:space="preserve" text-anchor="middle" x="393.25" y="-303.5" font-family="Helvetica,sans-Serif" font-size="10.00">_ast_node</text>
</a>
</g>
</g>
<!-- Node2&#45;&gt;Node6 -->
<g id="edge5_Node000002_Node000006" class="edge">
<title>Node2&#45;&gt;Node6</title>
<g id="a_edge5_Node000002_Node000006"><a xlink:title=" ">
<path fill="none" stroke="#63b8ff" d="M283,-328.81C296.19,-326.9 310.38,-324.84 324.03,-322.87"/>
<polygon fill="#63b8ff" stroke="#63b8ff" points="324.43,-326.35 333.82,-321.45 323.43,-319.42 324.43,-326.35"/>
</a>
</g>
</g>
<!-- Node6&#45;&gt;Node6 -->
<g id="edge6_Node000006_Node000006" class="edge">
<title>Node6&#45;&gt;Node6</title>
<g id="a_edge6_Node000006_Node000006"><a xlink:title=" ">
<path fill="none" stroke="#63b8ff" d="M365.22,-329.44C359.99,-338.58 369.33,-347 393.25,-347 406.33,-347 415.05,-344.48 419.41,-340.71"/>
<polygon fill="#63b8ff" stroke="#63b8ff" points="422.85,-341.37 421.03,-330.94 415.94,-340.23 422.85,-341.37"/>
</a>
</g>
</g>
<!-- Node10 -->
<g id="Node000010" class="node">
<title>Node10</title>
<g id="a_Node000010"><a xlink:href="structxpath__allocator.html#a6c13fefbd7038d78b336987f396c8415" target="_top" xlink:title=" ">
<polygon fill="white" stroke="#666666" points="454.12,-209 332.38,-209 332.38,-189 454.12,-189 454.12,-209"/>
<text xml:space="preserve" text-anchor="middle" x="393.25" y="-195.5" font-family="Helvetica,sans-Serif" font-size="10.00">xpath_allocator::allocate</text>
</a>
</g>
</g>
<!-- Node9&#45;&gt;Node10 -->
<g id="edge11_Node000009_Node000010" class="edge">
<title>Node9&#45;&gt;Node10</title>
<g id="a_edge11_Node000009_Node000010"><a xlink:title=" ">
<path fill="none" stroke="#63b8ff" d="M278.86,-173.02C296.86,-177.15 317.08,-181.78 335.41,-185.98"/>
<polygon fill="#63b8ff" stroke="#63b8ff" points="334.54,-189.37 345.06,-188.19 336.1,-182.55 334.54,-189.37"/>
</a>
</g>
</g>
<!-- Node11 -->
<g id="Node000011" class="node">
<title>Node11</title>
<g id="a_Node000011"><a xlink:href="pugixml_8cpp.html#a8b125cff014bd029663ef486205e71a5" target="_top" xlink:title=" ">
<polygon fill="white" stroke="#666666" points="426.38,-171 360.12,-171 360.12,-151 426.38,-151 426.38,-171"/>
<text xml:space="preserve" text-anchor="middle" x="393.25" y="-157.5" font-family="Helvetica,sans-Serif" font-size="10.00">hash_insert</text>
</a>
</g>
</g>
<!-- Node9&#45;&gt;Node11 -->
<g id="edge12_Node000009_Node000011" class="edge">
<title>Node9&#45;&gt;Node11</title>
<g id="a_edge12_Node000009_Node000011"><a xlink:title=" ">
<path fill="none" stroke="#63b8ff" d="M278.86,-161C301.28,-161 327.15,-161 348.52,-161"/>
<polygon fill="#63b8ff" stroke="#63b8ff" points="348.36,-164.5 358.36,-161 348.36,-157.5 348.36,-164.5"/>
</a>
</g>
</g>
<!-- Node12 -->
<g id="Node000012" class="node">
<title>Node12</title>
<g id="a_Node000012"><a xlink:href="pugixml_8cpp.html#a444191b06b1fc17263925ef2c7185338" target="_top" xlink:title=" ">
<polygon fill="white" stroke="#666666" points="415.5,-133 371,-133 371,-113 415.5,-113 415.5,-133"/>
<text xml:space="preserve" text-anchor="middle" x="393.25" y="-119.5" font-family="Helvetica,sans-Serif" font-size="10.00">unique</text>
</a>
</g>
</g>
<!-- Node9&#45;&gt;Node12 -->
<g id="edge13_Node000009_Node000012" class="edge">
<title>Node9&#45;&gt;Node12</title>
<g id="a_edge13_Node000009_Node000012"><a xlink:title=" ">
<path fill="none" stroke="#63b8ff" d="M278.86,-148.98C305.37,-142.9 336.7,-135.73 359.7,-130.46"/>
<polygon fill="#63b8ff" stroke="#63b8ff" points="360.46,-133.87 369.43,-128.23 358.9,-127.05 360.46,-133.87"/>
</a>
</g>
</g>
<!-- Node15 -->
<g id="Node000015" class="node">
<title>Node15</title>
<g id="a_Node000015"><a xlink:href="pugixml_8cpp.html#a8ab686db9f80e7ac953ba69ccace1f6a" target="_top" xlink:title=" ">
<polygon fill="white" stroke="#666666" points="439.5,-48 347,-48 347,-28 439.5,-28 439.5,-48"/>
<text xml:space="preserve" text-anchor="middle" x="393.25" y="-34.5" font-family="Helvetica,sans-Serif" font-size="10.00">node_is_ancestor</text>
</a>
</g>
</g>
<!-- Node14&#45;&gt;Node15 -->
<g id="edge17_Node000014_Node000015" class="edge">
<title>Node14&#45;&gt;Node15</title>
<g id="a_edge17_Node000014_Node000015"><a xlink:title=" ">
<path fill="none" stroke="#63b8ff" d="M286.26,-56.53C302.24,-53.74 319.46,-50.73 335.28,-47.96"/>
<polygon fill="#63b8ff" stroke="#63b8ff" points="335.77,-51.43 345.02,-46.26 334.57,-44.53 335.77,-51.43"/>
</a>
</g>
</g>
<!-- Node16 -->
<g id="Node000016" class="node">
<title>Node16</title>
<g id="a_Node000016"><a xlink:href="classxpath__ast__node.html#a4f7aaa038105a1d98a7505606ca2b5a2" target="_top" xlink:title=" ">
<polygon fill="white" stroke="#666666" points="461.25,-86 325.25,-86 325.25,-66 461.25,-66 461.25,-86"/>
<text xml:space="preserve" text-anchor="middle" x="393.25" y="-72.5" font-family="Helvetica,sans-Serif" font-size="10.00">xpath_ast_node::step_push</text>
</a>
</g>
</g>
<!-- Node14&#45;&gt;Node16 -->
<g id="edge18_Node000014_Node000016" class="edge">
<title>Node14&#45;&gt;Node16</title>
<g id="a_edge18_Node000014_Node000016"><a xlink:title=" ">
<path fill="none" stroke="#63b8ff" d="M288.14,-70.35C296.37,-70.8 304.9,-71.26 313.38,-71.72"/>
<polygon fill="#63b8ff" stroke="#63b8ff" points="313.18,-75.21 323.35,-72.26 313.56,-68.23 313.18,-75.21"/>
</a>
</g>
</g>
<!-- Node17 -->
<g id="Node000017" class="node">
<title>Node17</title>
<g id="a_Node000017"><a xlink:href="pugixml_8cpp.html#a63041941bf2b704523fead76b505d418" target="_top" xlink:title=" ">
<polygon fill="white" stroke="#666666" points="596.88,-108 503.62,-108 503.62,-88 596.88,-88 596.88,-108"/>
<text xml:space="preserve" text-anchor="middle" x="550.25" y="-94.5" font-family="Helvetica,sans-Serif" font-size="10.00">is_xpath_attribute</text>
</a>
</g>
</g>
<!-- Node16&#45;&gt;Node17 -->
<g id="edge19_Node000016_Node000017" class="edge">
<title>Node16&#45;&gt;Node17</title>
<g id="a_edge19_Node000016_Node000017"><a xlink:title=" ">
<path fill="none" stroke="#63b8ff" d="M461.33,-85.52C471.68,-86.99 482.27,-88.49 492.37,-89.93"/>
<polygon fill="#63b8ff" stroke="#63b8ff" points="491.62,-93.35 502.01,-91.29 492.6,-86.42 491.62,-93.35"/>
</a>
</g>
</g>
<!-- Node18 -->
<g id="Node000018" class="node">
<title>Node18</title>
<g id="a_Node000018"><a xlink:href="pugixml_8cpp.html#ae495a9f52adc166d7cd2f30a87e1d315" target="_top" xlink:title=" ">
<polygon fill="white" stroke="#666666" points="724.25,-127 660.25,-127 660.25,-107 724.25,-107 724.25,-127"/>
<text xml:space="preserve" text-anchor="middle" x="692.25" y="-113.5" font-family="Helvetica,sans-Serif" font-size="10.00">starts_with</text>
</a>
</g>
</g>
<!-- Node16&#45;&gt;Node18 -->
<g id="edge24_Node000016_Node000018" class="edge">
<title>Node16&#45;&gt;Node18</title>
<g id="a_edge24_Node000016_Node000018"><a xlink:title=" ">
<path fill="none" stroke="#63b8ff" d="M419.09,-86.46C446.93,-98.09 489.26,-115.47 497.25,-117 548.62,-126.85 609.06,-124.75 648.66,-121.57"/>
<polygon fill="#63b8ff" stroke="#63b8ff" points="648.83,-125.07 658.49,-120.72 648.22,-118.1 648.83,-125.07"/>
</a>
</g>
</g>
<!-- Node19 -->
<g id="Node000019" class="node">
<title>Node19</title>
<g id="a_Node000019"><a xlink:href="classxpath__node__set__raw.html#a676ec123e5be874869c78ff5c43ae9c2" target="_top" xlink:title=" ">
<polygon fill="white" stroke="#666666" points="603.25,-70 497.25,-70 497.25,-38 603.25,-38 603.25,-70"/>
<text xml:space="preserve" text-anchor="start" x="505.25" y="-56.5" font-family="Helvetica,sans-Serif" font-size="10.00">xpath_node_set_raw</text>
<text xml:space="preserve" text-anchor="middle" x="550.25" y="-44.5" font-family="Helvetica,sans-Serif" font-size="10.00">::push_back</text>
</a>
</g>
</g>
<!-- Node16&#45;&gt;Node19 -->
<g id="edge21_Node000016_Node000019" class="edge">
<title>Node16&#45;&gt;Node19</title>
<g id="a_edge21_Node000016_Node000019"><a xlink:title=" ">
<path fill="none" stroke="#63b8ff" d="M461.33,-66.48C469.45,-65.33 477.73,-64.15 485.79,-63.01"/>
<polygon fill="#63b8ff" stroke="#63b8ff" points="486.11,-66.5 495.52,-61.63 485.12,-59.57 486.11,-66.5"/>
</a>
</g>
</g>
<!-- Node22 -->
<g id="Node000022" class="node">
<title>Node22</title>
<g id="a_Node000022"><a xlink:href="pugixml_8cpp.html#a18ca4720d82fac6db58f522a2c6a682e" target="_top" xlink:title=" ">
<polygon fill="white" stroke="#666666" points="575.5,-20 525,-20 525,0 575.5,0 575.5,-20"/>
<text xml:space="preserve" text-anchor="middle" x="550.25" y="-6.5" font-family="Helvetica,sans-Serif" font-size="10.00">strequal</text>
</a>
</g>
</g>
<!-- Node16&#45;&gt;Node22 -->
<g id="edge25_Node000016_Node000022" class="edge">
<title>Node16&#45;&gt;Node22</title>
<g id="a_edge25_Node000016_Node000022"><a xlink:title=" ">
<path fill="none" stroke="#63b8ff" d="M440.2,-65.52C447.42,-63.15 454.67,-60.33 461.25,-57 479.33,-47.84 479.52,-38.82 497.25,-29 502.61,-26.03 508.53,-23.36 514.39,-21.03"/>
<polygon fill="#63b8ff" stroke="#63b8ff" points="515.16,-24.48 523.33,-17.72 512.74,-17.91 515.16,-24.48"/>
</a>
</g>
</g>
<!-- Node17&#45;&gt;Node18 -->
<g id="edge20_Node000017_Node000018" class="edge">
<title>Node17&#45;&gt;Node18</title>
<g id="a_edge20_Node000017_Node000018"><a xlink:title=" ">
<path fill="none" stroke="#63b8ff" d="M597.09,-104.22C613.65,-106.47 632.26,-108.99 648.54,-111.2"/>
<polygon fill="#63b8ff" stroke="#63b8ff" points="648.03,-114.67 658.41,-112.54 648.97,-107.73 648.03,-114.67"/>
</a>
</g>
</g>
<!-- Node20 -->
<g id="Node000020" class="node">
<title>Node20</title>
<g id="a_Node000020"><a xlink:href="classxpath__node__set__raw.html#a0b2d66a98ec56ed0c5b5a9fce222ddc4" target="_top" xlink:title=" ">
<polygon fill="white" stroke="#666666" points="745.25,-70 639.25,-70 639.25,-38 745.25,-38 745.25,-70"/>
<text xml:space="preserve" text-anchor="start" x="647.25" y="-56.5" font-family="Helvetica,sans-Serif" font-size="10.00">xpath_node_set_raw</text>
<text xml:space="preserve" text-anchor="middle" x="692.25" y="-44.5" font-family="Helvetica,sans-Serif" font-size="10.00">::push_back_grow</text>
</a>
</g>
</g>
<!-- Node19&#45;&gt;Node20 -->
<g id="edge22_Node000019_Node000020" class="edge">
<title>Node19&#45;&gt;Node20</title>
<g id="a_edge22_Node000019_Node000020"><a xlink:title=" ">
<path fill="none" stroke="#63b8ff" d="M603.38,-54C611.31,-54 619.56,-54 627.7,-54"/>
<polygon fill="#63b8ff" stroke="#63b8ff" points="627.56,-57.5 637.56,-54 627.56,-50.5 627.56,-57.5"/>
</a>
</g>
</g>
<!-- Node21 -->
<g id="Node000021" class="node">
<title>Node21</title>
<g id="a_Node000021"><a xlink:href="structxpath__allocator.html#a5d3ba1b01ba87b2002b348674e9d50b6" target="_top" xlink:title=" ">
<polygon fill="white" stroke="#666666" points="911.25,-64 781.25,-64 781.25,-44 911.25,-44 911.25,-64"/>
<text xml:space="preserve" text-anchor="middle" x="846.25" y="-50.5" font-family="Helvetica,sans-Serif" font-size="10.00">xpath_allocator::reallocate</text>
</a>
</g>
</g>
<!-- Node20&#45;&gt;Node21 -->
<g id="edge23_Node000020_Node000021" class="edge">
<title>Node20&#45;&gt;Node21</title>
<g id="a_edge23_Node000020_Node000021"><a xlink:title=" ">
<path fill="none" stroke="#63b8ff" d="M745.56,-54C753.26,-54 761.33,-54 769.39,-54"/>
<polygon fill="#63b8ff" stroke="#63b8ff" points="769.24,-57.5 779.24,-54 769.24,-50.5 769.24,-57.5"/>
</a>
</g>
</g>
</g>
</svg>

<g id="navigator" transform="translate(0 0)" fill="#404254">
  <rect fill="#f2f5e9" fill-opacity="0.5" stroke="#606060" stroke-width=".5" x="0" y="0" width="60" height="60"/>
  <use id="zoomplus" xlink:href="#zoomPlus" x="17" y="9" onmousedown="handleZoom(evt,'in')"/>
  <use id="zoomminus" xlink:href="#zoomMin" x="42" y="9" onmousedown="handleZoom(evt,'out')"/>
  <use id="reset" xlink:href="#resetDef" x="30" y="36" onmousedown="handleReset()"/>
   <use id="arrowup" xlink:href="#arrowUp" x="0" y="0" onmousedown="handlePan(0,-1)"/>
  <use id="arrowright" xlink:href="#arrowRight" x="0" y="0" onmousedown="handlePan(1,0)"/>
  <use id="arrowdown" xlink:href="#arrowDown" x="0" y="0" onmousedown="handlePan(0,1)"/>
  <use id="arrowleft" xlink:href="#arrowLeft" x="0" y="0" onmousedown="handlePan(-1,0)"/>
</g>
<svg viewBox="0 0 15 15" width="100%" height="30px" preserveAspectRatio="xMaxYMin meet">
 <g id="arrow_out" transform="scale(0.3 0.3)">
  <a xlink:href="classxpath__ast__node_a3258c05ab9aaa78e154d2ff63fe56906_cgraph_org.svg" target="_base">
   <rect id="button" ry="5" rx="5" y="6" x="6" height="38" width="38"
        fill="#f2f5e9" fill-opacity="0.5" stroke="#606060" stroke-width="1.0"/>
   <path id="arrow"
     d="M 11.500037,31.436501 C 11.940474,20.09759 22.043105,11.32322 32.158766,21.979434 L 37.068811,17.246167 C 37.068811,17.246167 37.088388,32 37.088388,32 L 22.160133,31.978069 C 22.160133,31.978069 26.997745,27.140456 26.997745,27.140456 C 18.528582,18.264221 13.291696,25.230495 11.500037,31.436501 z"
     style="fill:#404040;"/>
  </a>
 </g>
</svg>

<style type='text/css'>
<![CDATA[
[data-mouse-over-selected='false'] { opacity: 0.7; }
[data-mouse-over-selected='true']  { opacity: 1.0; }
]]>
</style>
<script type="application/ecmascript"><![CDATA[
document.addEventListener('DOMContentLoaded', (event) => {
  highlightEdges();
  highlightAdjacentNodes();
});
]]></script>
</svg>
