<?xml version="1.0" encoding="UTF-8" standalone="no"?>
<!DOCTYPE svg PUBLIC "-//W3C//DTD SVG 1.1//EN"
 "http://www.w3.org/Graphics/SVG/1.1/DTD/svg11.dtd">
<!-- Generated by graphviz version 14.1.2 (20260124.0452)
 -->
<!-- Title: GEBalljoint Pages: 1 -->
<svg width="558pt" height="265pt"
 viewBox="0.00 0.00 558.00 265.00" xmlns="http://www.w3.org/2000/svg" xmlns:xlink="http://www.w3.org/1999/xlink">
<g id="graph0" class="graph" transform="scale(1 1) rotate(0) translate(4 261)">
<title>GEBalljoint</title>
<!-- Node1 -->
<g id="Node000001" class="node">
<title>Node1</title>
<g id="a_Node000001"><a xlink:title="Representa una articulación esférica con 3 grados de libertad.">
<polygon fill="#999999" stroke="#666666" points="317.75,-20 253,-20 253,0 317.75,0 317.75,-20"/>
<text xml:space="preserve" text-anchor="middle" x="285.38" y="-6.5" font-family="Helvetica,sans-Serif" font-size="10.00">GEBalljoint</text>
</a>
</g>
</g>
<!-- Node2 -->
<g id="Node000002" class="node">
<title>Node2</title>
<g id="a_Node000002"><a xlink:href="class_g_e_sphere.html" target="_top" xlink:title="Clase que describe una esfera.">
<polygon fill="white" stroke="#666666" points="233.88,-94 172.88,-94 172.88,-74 233.88,-74 233.88,-94"/>
<text xml:space="preserve" text-anchor="middle" x="203.38" y="-80.5" font-family="Helvetica,sans-Serif" font-size="10.00">GESphere</text>
</a>
</g>
</g>
<!-- Node2&#45;&gt;Node1 -->
<g id="edge1_Node000001_Node000002" class="edge">
<title>Node2&#45;&gt;Node1</title>
<g id="a_edge1_Node000001_Node000002"><a xlink:title=" ">
<path fill="none" stroke="#9a32cd" stroke-dasharray="5,2" d="M222.34,-66.35C238.58,-52.08 261.39,-32.06 274.65,-20.42"/>
<polygon fill="#9a32cd" stroke="#9a32cd" points="220.44,-63.36 215.23,-72.59 225.06,-68.62 220.44,-63.36"/>
</a>
</g>
<text xml:space="preserve" text-anchor="start" x="257.13" y="-43.5" font-family="Helvetica,sans-Serif" font-size="10.00" fill="grey">joint</text>
</g>
<!-- Node3 -->
<g id="Node000003" class="node">
<title>Node3</title>
<g id="a_Node000003"><a xlink:href="class_g_e_figure.html" target="_top" xlink:title="Clase que describe una figura formada por una malla de vértices.">
<polygon fill="white" stroke="#666666" points="272,-151 214.75,-151 214.75,-131 272,-131 272,-151"/>
<text xml:space="preserve" text-anchor="middle" x="243.38" y="-137.5" font-family="Helvetica,sans-Serif" font-size="10.00">GEFigure</text>
</a>
</g>
</g>
<!-- Node3&#45;&gt;Node2 -->
<g id="edge2_Node000002_Node000003" class="edge">
<title>Node3&#45;&gt;Node2</title>
<g id="a_edge2_Node000002_Node000003"><a xlink:title=" ">
<path fill="none" stroke="#63b8ff" d="M230.12,-121.77C223.42,-112.56 215.58,-101.78 210.12,-94.28"/>
<polygon fill="#63b8ff" stroke="#63b8ff" points="227.17,-123.67 235.88,-129.69 232.83,-119.55 227.17,-123.67"/>
</a>
</g>
</g>
<!-- Node10 -->
<g id="Node000010" class="node">
<title>Node10</title>
<g id="a_Node000010"><a xlink:href="class_g_e_cylinder.html" target="_top" xlink:title="Clase que describe un cilindro.">
<polygon fill="white" stroke="#666666" points="318.5,-94 252.25,-94 252.25,-74 318.5,-74 318.5,-94"/>
<text xml:space="preserve" text-anchor="middle" x="285.38" y="-80.5" font-family="Helvetica,sans-Serif" font-size="10.00">GECylinder</text>
</a>
</g>
</g>
<!-- Node3&#45;&gt;Node10 -->
<g id="edge10_Node000010_Node000003" class="edge">
<title>Node3&#45;&gt;Node10</title>
<g id="a_edge10_Node000010_Node000003"><a xlink:title=" ">
<path fill="none" stroke="#63b8ff" d="M257.3,-121.77C264.33,-112.56 272.56,-101.78 278.29,-94.28"/>
<polygon fill="#63b8ff" stroke="#63b8ff" points="254.52,-119.64 251.23,-129.71 260.08,-123.89 254.52,-119.64"/>
</a>
</g>
</g>
<!-- Node4 -->
<g id="Node000004" class="node">
<title>Node4</title>
<g id="a_Node000004"><a xlink:href="struct_g_e_material.html" target="_top" xlink:title="Estructura que describe las propiedades de un material.">
<polygon fill="white" stroke="#666666" points="64.75,-257 0,-257 0,-237 64.75,-237 64.75,-257"/>
<text xml:space="preserve" text-anchor="middle" x="32.38" y="-243.5" font-family="Helvetica,sans-Serif" font-size="10.00">GEMaterial</text>
</a>
</g>
</g>
<!-- Node4&#45;&gt;Node3 -->
<g id="edge3_Node000003_Node000004" class="edge">
<title>Node4&#45;&gt;Node3</title>
<g id="a_edge3_Node000003_Node000004"><a xlink:title=" ">
<path fill="none" stroke="#9a32cd" stroke-dasharray="5,2" d="M40.45,-226.12C48.81,-208.2 63.65,-182.62 84.88,-169 105.84,-155.54 174.63,-147.73 214.36,-144.23"/>
<polygon fill="#9a32cd" stroke="#9a32cd" points="37.28,-224.64 36.49,-235.21 43.69,-227.44 37.28,-224.64"/>
</a>
</g>
<text xml:space="preserve" text-anchor="start" x="87.88" y="-190.5" font-family="Helvetica,sans-Serif" font-size="10.00" fill="grey">material</text>
</g>
<!-- Node5 -->
<g id="Node000005" class="node">
<title>Node5</title>
<g id="a_Node000005"><a xlink:href="struct_g_e_light.html" target="_top" xlink:title="Estructura que describe una fuente de luz direccional.">
<polygon fill="white" stroke="#666666" points="134,-257 82.75,-257 82.75,-237 134,-237 134,-257"/>
<text xml:space="preserve" text-anchor="middle" x="108.38" y="-243.5" font-family="Helvetica,sans-Serif" font-size="10.00">GELight</text>
</a>
</g>
</g>
<!-- Node5&#45;&gt;Node3 -->
<g id="edge4_Node000003_Node000005" class="edge">
<title>Node5&#45;&gt;Node3</title>
<g id="a_edge4_Node000003_Node000005"><a xlink:title=" ">
<path fill="none" stroke="#9a32cd" stroke-dasharray="5,2" d="M121.24,-227.74C134.07,-210.64 155.16,-185.34 178.38,-169 189.27,-161.33 202.67,-155.3 214.47,-150.9"/>
<polygon fill="#9a32cd" stroke="#9a32cd" points="118.64,-225.36 115.58,-235.5 124.3,-229.48 118.64,-225.36"/>
</a>
</g>
<text xml:space="preserve" text-anchor="start" x="181.38" y="-190.5" font-family="Helvetica,sans-Serif" font-size="10.00" fill="grey">light</text>
</g>
<!-- Node6 -->
<g id="Node000006" class="node">
<title>Node6</title>
<g id="a_Node000006"><a xlink:href="class_g_e_vertex_buffer.html" target="_top" xlink:title="Clase que describe un buffer de vértices.">
<polygon fill="white" stroke="#666666" points="235.12,-257 151.62,-257 151.62,-237 235.12,-237 235.12,-257"/>
<text xml:space="preserve" text-anchor="middle" x="193.38" y="-243.5" font-family="Helvetica,sans-Serif" font-size="10.00">GEVertexBuffer</text>
</a>
</g>
</g>
<!-- Node6&#45;&gt;Node3 -->
<g id="edge5_Node000003_Node000006" class="edge">
<title>Node6&#45;&gt;Node3</title>
<g id="a_edge5_Node000003_Node000006"><a xlink:title=" ">
<path fill="none" stroke="#9a32cd" stroke-dasharray="5,2" d="M202.78,-226.44C213.55,-204.03 230.77,-168.22 238.88,-151.36"/>
<polygon fill="#9a32cd" stroke="#9a32cd" points="199.65,-224.88 198.47,-235.41 205.96,-227.91 199.65,-224.88"/>
</a>
</g>
<text xml:space="preserve" text-anchor="start" x="232.97" y="-190.5" font-family="Helvetica,sans-Serif" font-size="10.00" fill="grey">vbo</text>
</g>
<!-- Node7 -->
<g id="Node000007" class="node">
<title>Node7</title>
<g id="a_Node000007"><a xlink:href="class_g_e_index_buffer.html" target="_top" xlink:title="Clase que describe un buffer de índices.">
<polygon fill="white" stroke="#666666" points="333.25,-257 253.5,-257 253.5,-237 333.25,-237 333.25,-257"/>
<text xml:space="preserve" text-anchor="middle" x="293.38" y="-243.5" font-family="Helvetica,sans-Serif" font-size="10.00">GEIndexBuffer</text>
</a>
</g>
</g>
<!-- Node7&#45;&gt;Node3 -->
<g id="edge6_Node000003_Node000007" class="edge">
<title>Node7&#45;&gt;Node3</title>
<g id="a_edge6_Node000003_Node000007"><a xlink:title=" ">
<path fill="none" stroke="#9a32cd" stroke-dasharray="5,2" d="M283.97,-226.44C273.2,-204.03 255.98,-168.22 247.87,-151.36"/>
<polygon fill="#9a32cd" stroke="#9a32cd" points="280.79,-227.91 288.28,-235.41 287.1,-224.88 280.79,-227.91"/>
</a>
</g>
<text xml:space="preserve" text-anchor="start" x="282.97" y="-190.5" font-family="Helvetica,sans-Serif" font-size="10.00" fill="grey">ibo</text>
</g>
<!-- Node8 -->
<g id="Node000008" class="node">
<title>Node8</title>
<g id="a_Node000008"><a xlink:href="class_g_e_uniform_buffer.html" target="_top" xlink:title="Clase que describe un conjunto de buffers para almacenar variables uniformes.">
<polygon fill="white" stroke="#666666" points="441.5,-257 351.25,-257 351.25,-237 441.5,-237 441.5,-257"/>
<text xml:space="preserve" text-anchor="middle" x="396.38" y="-243.5" font-family="Helvetica,sans-Serif" font-size="10.00">GEUniformBuffer</text>
</a>
</g>
</g>
<!-- Node8&#45;&gt;Node3 -->
<g id="edge7_Node000003_Node000008" class="edge">
<title>Node8&#45;&gt;Node3</title>
<g id="a_edge7_Node000003_Node000008"><a xlink:title=" ">
<path fill="none" stroke="#9a32cd" stroke-dasharray="5,2" d="M378.66,-229.12C360.51,-212.43 330.98,-186.85 302.38,-169 291.48,-162.2 278.59,-156.11 267.64,-151.43"/>
<polygon fill="#9a32cd" stroke="#9a32cd" points="375.8,-231.24 385.49,-235.5 380.57,-226.12 375.8,-231.24"/>
</a>
</g>
<text xml:space="preserve" text-anchor="start" x="369.56" y="-206.5" font-family="Helvetica,sans-Serif" font-size="10.00" fill="grey">lightBuffer</text>
<text xml:space="preserve" text-anchor="start" x="369.56" y="-190.5" font-family="Helvetica,sans-Serif" font-size="10.00" fill="grey">materialBuffer</text>
<text xml:space="preserve" text-anchor="start" x="369.56" y="-174.5" font-family="Helvetica,sans-Serif" font-size="10.00" fill="grey">transformBuffer</text>
</g>
<!-- Node9 -->
<g id="Node000009" class="node">
<title>Node9</title>
<g id="a_Node000009"><a xlink:href="class_g_e_descriptor_set.html" target="_top" xlink:title="Clase que describe un conjunto de descriptores.">
<polygon fill="white" stroke="#666666" points="549.5,-257 459.25,-257 459.25,-237 549.5,-237 549.5,-257"/>
<text xml:space="preserve" text-anchor="middle" x="504.38" y="-243.5" font-family="Helvetica,sans-Serif" font-size="10.00">GEDescriptorSet</text>
</a>
</g>
</g>
<!-- Node9&#45;&gt;Node3 -->
<g id="edge8_Node000003_Node000009" class="edge">
<title>Node9&#45;&gt;Node3</title>
<g id="a_edge8_Node000003_Node000009"><a xlink:title=" ">
<path fill="none" stroke="#9a32cd" stroke-dasharray="5,2" d="M494.73,-226.71C484.58,-208.59 466.82,-182.35 443.38,-169 414.75,-152.71 320.31,-145.78 272.15,-143.25"/>
<polygon fill="#9a32cd" stroke="#9a32cd" points="491.57,-228.21 499.34,-235.41 497.75,-224.93 491.57,-228.21"/>
</a>
</g>
<text xml:space="preserve" text-anchor="start" x="492.34" y="-190.5" font-family="Helvetica,sans-Serif" font-size="10.00" fill="grey">dset</text>
</g>
<!-- Node10&#45;&gt;Node1 -->
<g id="edge9_Node000001_Node000010" class="edge">
<title>Node10&#45;&gt;Node1</title>
<g id="a_edge9_Node000001_Node000010"><a xlink:title=" ">
<path fill="none" stroke="#9a32cd" stroke-dasharray="5,2" d="M285.38,-62.18C285.38,-48.29 285.38,-30.71 285.38,-20.19"/>
<polygon fill="#9a32cd" stroke="#9a32cd" points="281.88,-62.07 285.38,-72.07 288.88,-62.07 281.88,-62.07"/>
</a>
</g>
<text xml:space="preserve" text-anchor="start" x="288.38" y="-43.5" font-family="Helvetica,sans-Serif" font-size="10.00" fill="grey">bone</text>
</g>
<!-- Node11 -->
<g id="Node000011" class="node">
<title>Node11</title>
<g id="a_Node000011"><a xlink:href="struct_g_e_balljoint_1_1_limits.html" target="_top" xlink:title="Estructura que almacena los límites de rotación de la articulación.">
<polygon fill="white" stroke="#666666" points="433.88,-94 336.88,-94 336.88,-74 433.88,-74 433.88,-94"/>
<text xml:space="preserve" text-anchor="middle" x="385.38" y="-80.5" font-family="Helvetica,sans-Serif" font-size="10.00">GEBalljoint::Limits</text>
</a>
</g>
</g>
<!-- Node11&#45;&gt;Node1 -->
<g id="edge11_Node000001_Node000011" class="edge">
<title>Node11&#45;&gt;Node1</title>
<g id="a_edge11_Node000001_Node000011"><a xlink:title=" ">
<path fill="none" stroke="#9a32cd" stroke-dasharray="5,2" d="M363.07,-66.94C343.21,-52.64 314.85,-32.22 298.45,-20.42"/>
<polygon fill="#9a32cd" stroke="#9a32cd" points="360.91,-69.7 371.07,-72.7 365,-64.02 360.91,-69.7"/>
</a>
</g>
<text xml:space="preserve" text-anchor="start" x="350.27" y="-43.5" font-family="Helvetica,sans-Serif" font-size="10.00" fill="grey">limits</text>
</g>
</g>
</svg>
