<?xml version="1.0" encoding="UTF-8" standalone="no"?>
<!DOCTYPE svg PUBLIC "-//W3C//DTD SVG 1.1//EN"
 "http://www.w3.org/Graphics/SVG/1.1/DTD/svg11.dtd">
<!-- Generated by graphviz version 14.1.2 (20260124.0452)
 -->
<!-- Title: pugi::xml_node::remove_child Pages: 1 -->
<svg width="451pt" height="78pt"
 viewBox="0.00 0.00 451.00 78.00" xmlns="http://www.w3.org/2000/svg" xmlns:xlink="http://www.w3.org/1999/xlink">
<g id="graph0" class="graph" transform="scale(1 1) rotate(0) translate(4 74)">
<title>pugi::xml_node::remove_child</title>
<!-- Node1 -->
<g id="Node000001" class="node">
<title>Node1</title>
<g id="a_Node000001"><a xlink:title=" ">
<polygon fill="#999999" stroke="#666666" points="120.25,-54 0,-54 0,-22 120.25,-22 120.25,-54"/>
<text xml:space="preserve" text-anchor="start" x="8" y="-40.5" font-family="Helvetica,sans-Serif" font-size="10.00">pugi::xml_node::remove</text>
<text xml:space="preserve" text-anchor="middle" x="60.12" y="-28.5" font-family="Helvetica,sans-Serif" font-size="10.00">_child</text>
</a>
</g>
</g>
<!-- Node2 -->
<g id="Node000002" class="node">
<title>Node2</title>
<g id="a_Node000002"><a xlink:href="classpugi_1_1xml__node.html#a4154ffb6451d4203b74bb56d3f3ecf50" target="_top" xlink:title=" ">
<polygon fill="white" stroke="#666666" points="270.5,-70 162.25,-70 162.25,-50 270.5,-50 270.5,-70"/>
<text xml:space="preserve" text-anchor="middle" x="216.38" y="-56.5" font-family="Helvetica,sans-Serif" font-size="10.00">pugi::xml_node::child</text>
</a>
</g>
</g>
<!-- Node1&#45;&gt;Node2 -->
<g id="edge1_Node000001_Node000002" class="edge">
<title>Node1&#45;&gt;Node2</title>
<g id="a_edge1_Node000001_Node000002"><a xlink:title=" ">
<path fill="none" stroke="#63b8ff" d="M120.32,-46.44C130.32,-47.87 140.75,-49.36 150.87,-50.8"/>
<polygon fill="#63b8ff" stroke="#63b8ff" points="150.25,-54.25 160.64,-52.19 151.24,-47.32 150.25,-54.25"/>
</a>
</g>
</g>
<!-- Node4 -->
<g id="Node000004" class="node">
<title>Node4</title>
<g id="a_Node000004"><a xlink:href="classpugi_1_1xml__node.html#abe07faa639fd2d828a340f6283404203" target="_top" xlink:title=" ">
<polygon fill="white" stroke="#666666" points="276.5,-32 156.25,-32 156.25,0 276.5,0 276.5,-32"/>
<text xml:space="preserve" text-anchor="start" x="164.25" y="-18.5" font-family="Helvetica,sans-Serif" font-size="10.00">pugi::xml_node::remove</text>
<text xml:space="preserve" text-anchor="middle" x="216.38" y="-6.5" font-family="Helvetica,sans-Serif" font-size="10.00">_child</text>
</a>
</g>
</g>
<!-- Node1&#45;&gt;Node4 -->
<g id="edge3_Node000001_Node000004" class="edge">
<title>Node1&#45;&gt;Node4</title>
<g id="a_edge3_Node000001_Node000004"><a xlink:title=" ">
<path fill="none" stroke="#63b8ff" d="M120.32,-29.56C128.23,-28.43 136.41,-27.26 144.5,-26.11"/>
<polygon fill="#63b8ff" stroke="#63b8ff" points="144.92,-29.58 154.33,-24.71 143.94,-22.65 144.92,-29.58"/>
</a>
</g>
</g>
<!-- Node3 -->
<g id="Node000003" class="node">
<title>Node3</title>
<g id="a_Node000003"><a xlink:href="classpugi_1_1xml__node.html#a4641476ddd4869da18f0738186b17368" target="_top" xlink:title=" ">
<polygon fill="white" stroke="#666666" points="442.5,-48 312.5,-48 312.5,-28 442.5,-28 442.5,-48"/>
<text xml:space="preserve" text-anchor="middle" x="377.5" y="-34.5" font-family="Helvetica,sans-Serif" font-size="10.00">pugi::xml_node::xml_node</text>
</a>
</g>
</g>
<!-- Node2&#45;&gt;Node3 -->
<g id="edge2_Node000002_Node000003" class="edge">
<title>Node2&#45;&gt;Node3</title>
<g id="a_edge2_Node000002_Node000003"><a xlink:title=" ">
<path fill="none" stroke="#63b8ff" d="M270.8,-52.61C280.45,-51.28 290.67,-49.87 300.8,-48.47"/>
<polygon fill="#63b8ff" stroke="#63b8ff" points="301.25,-51.94 310.68,-47.1 300.29,-45 301.25,-51.94"/>
</a>
</g>
</g>
<!-- Node4&#45;&gt;Node3 -->
<g id="edge4_Node000004_Node000003" class="edge">
<title>Node4&#45;&gt;Node3</title>
<g id="a_edge4_Node000004_Node000003"><a xlink:title=" ">
<path fill="none" stroke="#63b8ff" d="M276.63,-24.19C284.49,-25.28 292.65,-26.41 300.75,-27.53"/>
<polygon fill="#63b8ff" stroke="#63b8ff" points="300.24,-30.99 310.63,-28.89 301.2,-24.06 300.24,-30.99"/>
</a>
</g>
</g>
</g>
</svg>
