<?xml version="1.0" encoding="UTF-8" standalone="no"?>
<!DOCTYPE svg PUBLIC "-//W3C//DTD SVG 1.1//EN"
 "http://www.w3.org/Graphics/SVG/1.1/DTD/svg11.dtd">
<!-- Generated by graphviz version 14.1.2 (20260124.0452)
 -->
<!-- Title: pugi::xml_attribute_iterator::xml_attribute_iterator Pages: 1 -->
<svg width="262pt" height="290pt"
 viewBox="0.00 0.00 262.00 290.00" xmlns="http://www.w3.org/2000/svg" xmlns:xlink="http://www.w3.org/1999/xlink">

<svg id="main" version="1.1" xmlns="http://www.w3.org/2000/svg" xmlns:xlink="http://www.w3.org/1999/xlink" xml:space="preserve">

<style type="text/css"><![CDATA[
.node, .edge {opacity: 0.7;}
.node.selected, .edge.selected {opacity: 1;}
.edge:hover path { stroke: red; }
.edge:hover polygon { stroke: red; fill: red; }
]]></style>
<script type="application/ecmascript" xlink:href="svg.min.js"/>
<svg id="graph" class="graph">
<g id="graph0" class="graph" transform="scale(1 1) rotate(0) translate(4 286)">
<title>pugi::xml_attribute_iterator::xml_attribute_iterator</title>
<!-- Node1 -->
<g id="Node000001" class="node">
<title>Node1</title>
<g id="a_Node000001"><a xlink:title=" ">
<polygon fill="#999999" stroke="#666666" points="254,-163 140.5,-163 140.5,-119 254,-119 254,-163"/>
<text xml:space="preserve" text-anchor="start" x="148.5" y="-149.5" font-family="Helvetica,sans-Serif" font-size="10.00">pugi::xml_attribute</text>
<text xml:space="preserve" text-anchor="start" x="148.5" y="-137.5" font-family="Helvetica,sans-Serif" font-size="10.00">_iterator::xml_attribute</text>
<text xml:space="preserve" text-anchor="middle" x="197.25" y="-125.5" font-family="Helvetica,sans-Serif" font-size="10.00">_iterator</text>
</a>
</g>
</g>
<!-- Node2 -->
<g id="Node000002" class="node">
<title>Node2</title>
<g id="a_Node000002"><a xlink:href="classpugi_1_1xml__attribute__iterator.html#a6066107dfafa7845068bdf52b0bb85e6" target="_top" xlink:title=" ">
<polygon fill="white" stroke="#666666" points="103,-282 1.5,-282 1.5,-250 103,-250 103,-282"/>
<text xml:space="preserve" text-anchor="start" x="9.5" y="-268.5" font-family="Helvetica,sans-Serif" font-size="10.00">pugi::xml_attribute</text>
<text xml:space="preserve" text-anchor="middle" x="52.25" y="-256.5" font-family="Helvetica,sans-Serif" font-size="10.00">_iterator::operator!=</text>
</a>
</g>
</g>
<!-- Node1&#45;&gt;Node2 -->
<g id="edge1_Node000001_Node000002" class="edge">
<title>Node1&#45;&gt;Node2</title>
<g id="a_edge1_Node000001_Node000002"><a xlink:title=" ">
<path fill="none" stroke="#63b8ff" d="M172.86,-172.12C155.67,-193.46 130.82,-221.36 104.5,-241 100.37,-244.08 95.81,-246.94 91.16,-249.54"/>
<polygon fill="#63b8ff" stroke="#63b8ff" points="175.58,-174.33 179.03,-164.32 170.08,-169.99 175.58,-174.33"/>
</a>
</g>
</g>
<!-- Node3 -->
<g id="Node000003" class="node">
<title>Node3</title>
<g id="a_Node000003"><a xlink:href="classpugi_1_1xml__attribute__iterator.html#acc4578d31f9d4c582396d60b1bace4b9" target="_top" xlink:title=" ">
<polygon fill="white" stroke="#666666" points="104.5,-232 0,-232 0,-200 104.5,-200 104.5,-232"/>
<text xml:space="preserve" text-anchor="start" x="8" y="-218.5" font-family="Helvetica,sans-Serif" font-size="10.00">pugi::xml_attribute</text>
<text xml:space="preserve" text-anchor="middle" x="52.25" y="-206.5" font-family="Helvetica,sans-Serif" font-size="10.00">_iterator::operator++</text>
</a>
</g>
</g>
<!-- Node1&#45;&gt;Node3 -->
<g id="edge2_Node000001_Node000003" class="edge">
<title>Node1&#45;&gt;Node3</title>
<g id="a_edge2_Node000001_Node000003"><a xlink:title=" ">
<path fill="none" stroke="#63b8ff" d="M146.22,-168.8C132.74,-176.14 118.12,-183.97 104.5,-191 99.05,-193.81 93.23,-196.73 87.54,-199.54"/>
<polygon fill="#63b8ff" stroke="#63b8ff" points="147.84,-171.9 154.94,-164.03 144.48,-165.75 147.84,-171.9"/>
</a>
</g>
</g>
<!-- Node4 -->
<g id="Node000004" class="node">
<title>Node4</title>
<g id="a_Node000004"><a xlink:href="classpugi_1_1xml__attribute__iterator.html#a4a033181dcd9738eed9c976209b98b98" target="_top" xlink:title=" ">
<polygon fill="white" stroke="#666666" points="104.5,-182 0,-182 0,-150 104.5,-150 104.5,-182"/>
<text xml:space="preserve" text-anchor="start" x="8" y="-168.5" font-family="Helvetica,sans-Serif" font-size="10.00">pugi::xml_attribute</text>
<text xml:space="preserve" text-anchor="middle" x="52.25" y="-156.5" font-family="Helvetica,sans-Serif" font-size="10.00">_iterator::operator++</text>
</a>
</g>
</g>
<!-- Node1&#45;&gt;Node4 -->
<g id="edge3_Node000001_Node000004" class="edge">
<title>Node1&#45;&gt;Node4</title>
<g id="a_edge3_Node000001_Node000004"><a xlink:title=" ">
<path fill="none" stroke="#63b8ff" d="M128.88,-152.78C120.86,-154.18 112.76,-155.6 105,-156.95"/>
<polygon fill="#63b8ff" stroke="#63b8ff" points="129.4,-156.24 138.65,-151.07 128.2,-149.34 129.4,-156.24"/>
</a>
</g>
</g>
<!-- Node5 -->
<g id="Node000005" class="node">
<title>Node5</title>
<g id="a_Node000005"><a xlink:href="classpugi_1_1xml__attribute__iterator.html#ab82aed83d718aa9507379064848579ab" target="_top" xlink:title=" ">
<polygon fill="white" stroke="#666666" points="101.5,-132 3,-132 3,-100 101.5,-100 101.5,-132"/>
<text xml:space="preserve" text-anchor="start" x="11" y="-118.5" font-family="Helvetica,sans-Serif" font-size="10.00">pugi::xml_attribute</text>
<text xml:space="preserve" text-anchor="middle" x="52.25" y="-106.5" font-family="Helvetica,sans-Serif" font-size="10.00">_iterator::operator&#45;&#45;</text>
</a>
</g>
</g>
<!-- Node1&#45;&gt;Node5 -->
<g id="edge4_Node000001_Node000005" class="edge">
<title>Node1&#45;&gt;Node5</title>
<g id="a_edge4_Node000001_Node000005"><a xlink:title=" ">
<path fill="none" stroke="#63b8ff" d="M129.02,-129.25C119.83,-127.64 110.55,-126.02 101.78,-124.48"/>
<polygon fill="#63b8ff" stroke="#63b8ff" points="128.2,-132.66 138.65,-130.93 129.4,-125.76 128.2,-132.66"/>
</a>
</g>
</g>
<!-- Node6 -->
<g id="Node000006" class="node">
<title>Node6</title>
<g id="a_Node000006"><a xlink:href="classpugi_1_1xml__attribute__iterator.html#a4563d90d8bc61bce7b1aa0bfe8bc6f2b" target="_top" xlink:title=" ">
<polygon fill="white" stroke="#666666" points="101.5,-82 3,-82 3,-50 101.5,-50 101.5,-82"/>
<text xml:space="preserve" text-anchor="start" x="11" y="-68.5" font-family="Helvetica,sans-Serif" font-size="10.00">pugi::xml_attribute</text>
<text xml:space="preserve" text-anchor="middle" x="52.25" y="-56.5" font-family="Helvetica,sans-Serif" font-size="10.00">_iterator::operator&#45;&#45;</text>
</a>
</g>
</g>
<!-- Node1&#45;&gt;Node6 -->
<g id="edge5_Node000001_Node000006" class="edge">
<title>Node1&#45;&gt;Node6</title>
<g id="a_edge5_Node000001_Node000006"><a xlink:title=" ">
<path fill="none" stroke="#63b8ff" d="M146.22,-113.2C132.74,-105.86 118.12,-98.03 104.5,-91 99.05,-88.19 93.23,-85.27 87.54,-82.46"/>
<polygon fill="#63b8ff" stroke="#63b8ff" points="144.48,-116.25 154.94,-117.97 147.84,-110.1 144.48,-116.25"/>
</a>
</g>
</g>
<!-- Node7 -->
<g id="Node000007" class="node">
<title>Node7</title>
<g id="a_Node000007"><a xlink:href="classpugi_1_1xml__attribute__iterator.html#a63a156242c4bd6c80346e226d8e51d05" target="_top" xlink:title=" ">
<polygon fill="white" stroke="#666666" points="104.5,-32 0,-32 0,0 104.5,0 104.5,-32"/>
<text xml:space="preserve" text-anchor="start" x="8" y="-18.5" font-family="Helvetica,sans-Serif" font-size="10.00">pugi::xml_attribute</text>
<text xml:space="preserve" text-anchor="middle" x="52.25" y="-6.5" font-family="Helvetica,sans-Serif" font-size="10.00">_iterator::operator==</text>
</a>
</g>
</g>
<!-- Node1&#45;&gt;Node7 -->
<g id="edge6_Node000001_Node000007" class="edge">
<title>Node1&#45;&gt;Node7</title>
<g id="a_edge6_Node000001_Node000007"><a xlink:title=" ">
<path fill="none" stroke="#63b8ff" d="M172.86,-109.88C155.67,-88.54 130.82,-60.64 104.5,-41 100.37,-37.92 95.81,-35.06 91.16,-32.46"/>
<polygon fill="#63b8ff" stroke="#63b8ff" points="170.08,-112.01 179.03,-117.68 175.58,-107.67 170.08,-112.01"/>
</a>
</g>
</g>
</g>
</svg>
</svg>

<style type='text/css'>
<![CDATA[
[data-mouse-over-selected='false'] { opacity: 0.7; }
[data-mouse-over-selected='true']  { opacity: 1.0; }
]]>
</style>
<script type="application/ecmascript"><![CDATA[
document.addEventListener('DOMContentLoaded', (event) => {
  highlightEdges();
  highlightAdjacentNodes();
});
]]></script>
</svg>
