<?xml version="1.0" encoding="UTF-8" standalone="no"?>
<!DOCTYPE svg PUBLIC "-//W3C//DTD SVG 1.1//EN"
 "http://www.w3.org/Graphics/SVG/1.1/DTD/svg11.dtd">
<!-- Generated by graphviz version 14.1.2 (20260124.0452)
 -->
<!-- Title: GEApplication Pages: 1 -->
<svg width="749pt" height="282pt"
 viewBox="0.00 0.00 749.00 282.00" xmlns="http://www.w3.org/2000/svg" xmlns:xlink="http://www.w3.org/1999/xlink">
<g id="graph0" class="graph" transform="scale(1 1) rotate(0) translate(4 278)">
<title>GEApplication</title>
<!-- Node1 -->
<g id="Node000001" class="node">
<title>Node1</title>
<g id="a_Node000001"><a xlink:title="Clase que crea y lanza la aplicación gráfica.">
<polygon fill="#999999" stroke="#666666" points="329.5,-20 251.25,-20 251.25,0 329.5,0 329.5,-20"/>
<text xml:space="preserve" text-anchor="middle" x="290.38" y="-6.5" font-family="Helvetica,sans-Serif" font-size="10.00">GEApplication</text>
</a>
</g>
</g>
<!-- Node2 -->
<g id="Node000002" class="node">
<title>Node2</title>
<g id="a_Node000002"><a xlink:href="struct_g_e_window_position.html" target="_top" xlink:title="Estructura que almacena la posición y el tamaño de la ventana gráfica.">
<polygon fill="white" stroke="#666666" points="100.75,-94 0,-94 0,-74 100.75,-74 100.75,-94"/>
<text xml:space="preserve" text-anchor="middle" x="50.38" y="-80.5" font-family="Helvetica,sans-Serif" font-size="10.00">GEWindowPosition</text>
</a>
</g>
</g>
<!-- Node2&#45;&gt;Node1 -->
<g id="edge1_Node000001_Node000002" class="edge">
<title>Node2&#45;&gt;Node1</title>
<g id="a_edge1_Node000001_Node000002"><a xlink:title=" ">
<path fill="none" stroke="#9a32cd" stroke-dasharray="5,2" d="M79.17,-68.85C100.11,-59.04 129.35,-46.3 156.12,-38 187.35,-28.33 223.76,-21.26 250.78,-16.78"/>
<polygon fill="#9a32cd" stroke="#9a32cd" points="77.93,-65.57 70.41,-73.03 80.94,-71.89 77.93,-65.57"/>
</a>
</g>
<text xml:space="preserve" text-anchor="start" x="159.12" y="-43.5" font-family="Helvetica,sans-Serif" font-size="10.00" fill="grey">windowPos</text>
</g>
<!-- Node3 -->
<g id="Node000003" class="node">
<title>Node3</title>
<g id="a_Node000003"><a xlink:href="class_g_e_graphics_context.html" target="_top" xlink:title="Clase que almacena el contexto gráfico de Vulkan (instancia y dispositivo).">
<polygon fill="white" stroke="#666666" points="222.25,-94 118.5,-94 118.5,-74 222.25,-74 222.25,-94"/>
<text xml:space="preserve" text-anchor="middle" x="170.38" y="-80.5" font-family="Helvetica,sans-Serif" font-size="10.00">GEGraphicsContext</text>
</a>
</g>
</g>
<!-- Node3&#45;&gt;Node1 -->
<g id="edge2_Node000001_Node000003" class="edge">
<title>Node3&#45;&gt;Node1</title>
<g id="a_edge2_Node000001_Node000003"><a xlink:title=" ">
<path fill="none" stroke="#9a32cd" stroke-dasharray="5,2" d="M195.85,-67.71C219.72,-53.39 254.65,-32.44 274.68,-20.42"/>
<polygon fill="#9a32cd" stroke="#9a32cd" points="194.13,-64.66 187.36,-72.81 197.74,-70.66 194.13,-64.66"/>
</a>
</g>
<text xml:space="preserve" text-anchor="start" x="247.65" y="-43.5" font-family="Helvetica,sans-Serif" font-size="10.00" fill="grey">gc</text>
</g>
<!-- Node4 -->
<g id="Node000004" class="node">
<title>Node4</title>
<g id="a_Node000004"><a xlink:href="class_g_e_drawing_context.html" target="_top" xlink:title="Clase que contiene la información sobre el destino de las imágenes a generar (swapchain,...">
<polygon fill="white" stroke="#666666" points="340.75,-94 240,-94 240,-74 340.75,-74 340.75,-94"/>
<text xml:space="preserve" text-anchor="middle" x="290.38" y="-80.5" font-family="Helvetica,sans-Serif" font-size="10.00">GEDrawingContext</text>
</a>
</g>
</g>
<!-- Node4&#45;&gt;Node1 -->
<g id="edge3_Node000001_Node000004" class="edge">
<title>Node4&#45;&gt;Node1</title>
<g id="a_edge3_Node000001_Node000004"><a xlink:title=" ">
<path fill="none" stroke="#9a32cd" stroke-dasharray="5,2" d="M290.38,-62.18C290.38,-48.29 290.38,-30.71 290.38,-20.19"/>
<polygon fill="#9a32cd" stroke="#9a32cd" points="286.88,-62.07 290.38,-72.07 293.88,-62.07 286.88,-62.07"/>
</a>
</g>
<text xml:space="preserve" text-anchor="start" x="293.38" y="-43.5" font-family="Helvetica,sans-Serif" font-size="10.00" fill="grey">dc</text>
</g>
<!-- Node5 -->
<g id="Node000005" class="node">
<title>Node5</title>
<g id="a_Node000005"><a xlink:href="class_g_e_command_context.html" target="_top" xlink:title="Clase que almacena los buffers de comandos vinculados a cada imagen de la swapchain.">
<polygon fill="white" stroke="#666666" points="468.25,-94 358.5,-94 358.5,-74 468.25,-74 468.25,-94"/>
<text xml:space="preserve" text-anchor="middle" x="413.38" y="-80.5" font-family="Helvetica,sans-Serif" font-size="10.00">GECommandContext</text>
</a>
</g>
</g>
<!-- Node5&#45;&gt;Node1 -->
<g id="edge4_Node000001_Node000005" class="edge">
<title>Node5&#45;&gt;Node1</title>
<g id="a_edge4_Node000001_Node000005"><a xlink:title=" ">
<path fill="none" stroke="#9a32cd" stroke-dasharray="5,2" d="M387.59,-67.91C363.11,-53.58 327.09,-32.49 306.46,-20.42"/>
<polygon fill="#9a32cd" stroke="#9a32cd" points="385.59,-70.79 395.99,-72.82 389.13,-64.75 385.59,-70.79"/>
</a>
</g>
<text xml:space="preserve" text-anchor="start" x="369.51" y="-43.5" font-family="Helvetica,sans-Serif" font-size="10.00" fill="grey">cc</text>
</g>
<!-- Node6 -->
<g id="Node000006" class="node">
<title>Node6</title>
<g id="a_Node000006"><a xlink:href="class_g_e_scene.html" target="_top" xlink:title="Escena con esqueleto animado realizando tiro libre.">
<polygon fill="white" stroke="#666666" points="544.38,-94 486.38,-94 486.38,-74 544.38,-74 544.38,-94"/>
<text xml:space="preserve" text-anchor="middle" x="515.38" y="-80.5" font-family="Helvetica,sans-Serif" font-size="10.00">GEScene</text>
</a>
</g>
</g>
<!-- Node6&#45;&gt;Node1 -->
<g id="edge5_Node000001_Node000006" class="edge">
<title>Node6&#45;&gt;Node1</title>
<g id="a_edge5_Node000001_Node000006"><a xlink:title=" ">
<path fill="none" stroke="#9a32cd" stroke-dasharray="5,2" d="M479.38,-69.63C453.85,-60.31 418.69,-47.85 387.38,-38 367.37,-31.71 344.8,-25.38 326.47,-20.43"/>
<polygon fill="#9a32cd" stroke="#9a32cd" points="478.03,-72.86 488.62,-73.01 480.44,-66.28 478.03,-72.86"/>
</a>
</g>
<text xml:space="preserve" text-anchor="start" x="443.39" y="-43.5" font-family="Helvetica,sans-Serif" font-size="10.00" fill="grey">scene</text>
</g>
<!-- Node7 -->
<g id="Node000007" class="node">
<title>Node7</title>
<g id="a_Node000007"><a xlink:href="class_g_e_rendering_context.html" target="_top" xlink:title="Clase que describe un contexto de renderizado.">
<polygon fill="white" stroke="#666666" points="387.88,-168 278.88,-168 278.88,-148 387.88,-148 387.88,-168"/>
<text xml:space="preserve" text-anchor="middle" x="333.38" y="-154.5" font-family="Helvetica,sans-Serif" font-size="10.00">GERenderingContext</text>
</a>
</g>
</g>
<!-- Node7&#45;&gt;Node6 -->
<g id="edge6_Node000006_Node000007" class="edge">
<title>Node7&#45;&gt;Node6</title>
<g id="a_edge6_Node000006_Node000007"><a xlink:title=" ">
<path fill="none" stroke="#9a32cd" stroke-dasharray="5,2" d="M365.23,-143.03C386.36,-133.91 414.75,-121.89 440.12,-112 455.9,-105.85 473.73,-99.43 488.07,-94.39"/>
<polygon fill="#9a32cd" stroke="#9a32cd" points="364.07,-139.72 356.29,-146.91 366.86,-146.14 364.07,-139.72"/>
</a>
</g>
<text xml:space="preserve" text-anchor="start" x="443.12" y="-117.5" font-family="Helvetica,sans-Serif" font-size="10.00" fill="grey">rc</text>
</g>
<!-- Node8 -->
<g id="Node000008" class="node">
<title>Node8</title>
<g id="a_Node000008"><a xlink:href="class_g_e_figure.html" target="_top" xlink:title="Clase que describe una figura formada por una malla de vértices.">
<polygon fill="white" stroke="#666666" points="463,-168 405.75,-168 405.75,-148 463,-148 463,-168"/>
<text xml:space="preserve" text-anchor="middle" x="434.38" y="-154.5" font-family="Helvetica,sans-Serif" font-size="10.00">GEFigure</text>
</a>
</g>
</g>
<!-- Node8&#45;&gt;Node6 -->
<g id="edge7_Node000006_Node000008" class="edge">
<title>Node8&#45;&gt;Node6</title>
<g id="a_edge7_Node000006_Node000008"><a xlink:title=" ">
<path fill="none" stroke="#9a32cd" stroke-dasharray="5,2" d="M449.21,-139.25C456.84,-130.59 466.53,-120.29 476.12,-112 483.63,-105.51 492.73,-99.17 500.27,-94.27"/>
<polygon fill="#9a32cd" stroke="#9a32cd" points="446.69,-136.81 442.83,-146.67 452,-141.37 446.69,-136.81"/>
</a>
</g>
<text xml:space="preserve" text-anchor="start" x="479.12" y="-117.5" font-family="Helvetica,sans-Serif" font-size="10.00" fill="grey">ground</text>
</g>
<!-- Node9 -->
<g id="Node000009" class="node">
<title>Node9</title>
<g id="a_Node000009"><a xlink:href="struct_g_e_material.html" target="_top" xlink:title="Estructura que describe las propiedades de un material.">
<polygon fill="white" stroke="#666666" points="255.75,-274 191,-274 191,-254 255.75,-254 255.75,-274"/>
<text xml:space="preserve" text-anchor="middle" x="223.38" y="-260.5" font-family="Helvetica,sans-Serif" font-size="10.00">GEMaterial</text>
</a>
</g>
</g>
<!-- Node9&#45;&gt;Node8 -->
<g id="edge8_Node000008_Node000009" class="edge">
<title>Node9&#45;&gt;Node8</title>
<g id="a_edge8_Node000008_Node000009"><a xlink:title=" ">
<path fill="none" stroke="#9a32cd" stroke-dasharray="5,2" d="M231.38,-243.02C239.7,-225.03 254.51,-199.4 275.88,-186 321.74,-157.22 343.2,-178.25 396.38,-168 399.3,-167.44 402.35,-166.8 405.38,-166.13"/>
<polygon fill="#9a32cd" stroke="#9a32cd" points="228.19,-241.58 227.45,-252.15 234.62,-244.35 228.19,-241.58"/>
</a>
</g>
<text xml:space="preserve" text-anchor="start" x="278.88" y="-207.5" font-family="Helvetica,sans-Serif" font-size="10.00" fill="grey">material</text>
</g>
<!-- Node10 -->
<g id="Node000010" class="node">
<title>Node10</title>
<g id="a_Node000010"><a xlink:href="struct_g_e_light.html" target="_top" xlink:title="Estructura que describe una fuente de luz direccional.">
<polygon fill="white" stroke="#666666" points="325,-274 273.75,-274 273.75,-254 325,-254 325,-274"/>
<text xml:space="preserve" text-anchor="middle" x="299.38" y="-260.5" font-family="Helvetica,sans-Serif" font-size="10.00">GELight</text>
</a>
</g>
</g>
<!-- Node10&#45;&gt;Node8 -->
<g id="edge9_Node000008_Node000010" class="edge">
<title>Node10&#45;&gt;Node8</title>
<g id="a_edge9_Node000008_Node000010"><a xlink:title=" ">
<path fill="none" stroke="#9a32cd" stroke-dasharray="5,2" d="M312.24,-244.74C325.07,-227.64 346.16,-202.34 369.38,-186 380.27,-178.33 393.67,-172.3 405.47,-167.9"/>
<polygon fill="#9a32cd" stroke="#9a32cd" points="309.64,-242.36 306.58,-252.5 315.3,-246.48 309.64,-242.36"/>
</a>
</g>
<text xml:space="preserve" text-anchor="start" x="372.38" y="-207.5" font-family="Helvetica,sans-Serif" font-size="10.00" fill="grey">light</text>
</g>
<!-- Node11 -->
<g id="Node000011" class="node">
<title>Node11</title>
<g id="a_Node000011"><a xlink:href="class_g_e_vertex_buffer.html" target="_top" xlink:title="Clase que describe un buffer de vértices.">
<polygon fill="white" stroke="#666666" points="426.12,-274 342.62,-274 342.62,-254 426.12,-254 426.12,-274"/>
<text xml:space="preserve" text-anchor="middle" x="384.38" y="-260.5" font-family="Helvetica,sans-Serif" font-size="10.00">GEVertexBuffer</text>
</a>
</g>
</g>
<!-- Node11&#45;&gt;Node8 -->
<g id="edge10_Node000008_Node000011" class="edge">
<title>Node11&#45;&gt;Node8</title>
<g id="a_edge10_Node000008_Node000011"><a xlink:title=" ">
<path fill="none" stroke="#9a32cd" stroke-dasharray="5,2" d="M393.78,-243.44C404.55,-221.03 421.77,-185.22 429.88,-168.36"/>
<polygon fill="#9a32cd" stroke="#9a32cd" points="390.65,-241.88 389.47,-252.41 396.96,-244.91 390.65,-241.88"/>
</a>
</g>
<text xml:space="preserve" text-anchor="start" x="423.97" y="-207.5" font-family="Helvetica,sans-Serif" font-size="10.00" fill="grey">vbo</text>
</g>
<!-- Node12 -->
<g id="Node000012" class="node">
<title>Node12</title>
<g id="a_Node000012"><a xlink:href="class_g_e_index_buffer.html" target="_top" xlink:title="Clase que describe un buffer de índices.">
<polygon fill="white" stroke="#666666" points="524.25,-274 444.5,-274 444.5,-254 524.25,-254 524.25,-274"/>
<text xml:space="preserve" text-anchor="middle" x="484.38" y="-260.5" font-family="Helvetica,sans-Serif" font-size="10.00">GEIndexBuffer</text>
</a>
</g>
</g>
<!-- Node12&#45;&gt;Node8 -->
<g id="edge11_Node000008_Node000012" class="edge">
<title>Node12&#45;&gt;Node8</title>
<g id="a_edge11_Node000008_Node000012"><a xlink:title=" ">
<path fill="none" stroke="#9a32cd" stroke-dasharray="5,2" d="M474.97,-243.44C464.2,-221.03 446.98,-185.22 438.87,-168.36"/>
<polygon fill="#9a32cd" stroke="#9a32cd" points="471.79,-244.91 479.28,-252.41 478.1,-241.88 471.79,-244.91"/>
</a>
</g>
<text xml:space="preserve" text-anchor="start" x="473.97" y="-207.5" font-family="Helvetica,sans-Serif" font-size="10.00" fill="grey">ibo</text>
</g>
<!-- Node13 -->
<g id="Node000013" class="node">
<title>Node13</title>
<g id="a_Node000013"><a xlink:href="class_g_e_uniform_buffer.html" target="_top" xlink:title="Clase que describe un conjunto de buffers para almacenar variables uniformes.">
<polygon fill="white" stroke="#666666" points="632.5,-274 542.25,-274 542.25,-254 632.5,-254 632.5,-274"/>
<text xml:space="preserve" text-anchor="middle" x="587.38" y="-260.5" font-family="Helvetica,sans-Serif" font-size="10.00">GEUniformBuffer</text>
</a>
</g>
</g>
<!-- Node13&#45;&gt;Node8 -->
<g id="edge12_Node000008_Node000013" class="edge">
<title>Node13&#45;&gt;Node8</title>
<g id="a_edge12_Node000008_Node000013"><a xlink:title=" ">
<path fill="none" stroke="#9a32cd" stroke-dasharray="5,2" d="M569.66,-246.12C551.51,-229.43 521.98,-203.85 493.38,-186 482.48,-179.2 469.59,-173.11 458.64,-168.43"/>
<polygon fill="#9a32cd" stroke="#9a32cd" points="566.8,-248.24 576.49,-252.5 571.57,-243.12 566.8,-248.24"/>
</a>
</g>
<text xml:space="preserve" text-anchor="start" x="560.56" y="-223.5" font-family="Helvetica,sans-Serif" font-size="10.00" fill="grey">lightBuffer</text>
<text xml:space="preserve" text-anchor="start" x="560.56" y="-207.5" font-family="Helvetica,sans-Serif" font-size="10.00" fill="grey">materialBuffer</text>
<text xml:space="preserve" text-anchor="start" x="560.56" y="-191.5" font-family="Helvetica,sans-Serif" font-size="10.00" fill="grey">transformBuffer</text>
</g>
<!-- Node14 -->
<g id="Node000014" class="node">
<title>Node14</title>
<g id="a_Node000014"><a xlink:href="class_g_e_descriptor_set.html" target="_top" xlink:title="Clase que describe un conjunto de descriptores.">
<polygon fill="white" stroke="#666666" points="740.5,-274 650.25,-274 650.25,-254 740.5,-254 740.5,-274"/>
<text xml:space="preserve" text-anchor="middle" x="695.38" y="-260.5" font-family="Helvetica,sans-Serif" font-size="10.00">GEDescriptorSet</text>
</a>
</g>
</g>
<!-- Node14&#45;&gt;Node8 -->
<g id="edge13_Node000008_Node000014" class="edge">
<title>Node14&#45;&gt;Node8</title>
<g id="a_edge13_Node000008_Node000014"><a xlink:title=" ">
<path fill="none" stroke="#9a32cd" stroke-dasharray="5,2" d="M685.8,-243.59C675.7,-225.38 657.97,-199.07 634.38,-186 571,-150.9 543.75,-180.37 472.38,-168 469.44,-167.49 466.38,-166.89 463.35,-166.25"/>
<polygon fill="#9a32cd" stroke="#9a32cd" points="682.64,-245.11 690.38,-252.34 688.84,-241.86 682.64,-245.11"/>
</a>
</g>
<text xml:space="preserve" text-anchor="start" x="683.43" y="-207.5" font-family="Helvetica,sans-Serif" font-size="10.00" fill="grey">dset</text>
</g>
<!-- Node15 -->
<g id="Node000015" class="node">
<title>Node15</title>
<g id="a_Node000015"><a xlink:href="class_g_e_skeleton.html" target="_top" xlink:title="Representa un esqueleto completo con articulaciones jerárquicas.">
<polygon fill="white" stroke="#666666" points="549.62,-168 481.12,-168 481.12,-148 549.62,-148 549.62,-168"/>
<text xml:space="preserve" text-anchor="middle" x="515.38" y="-154.5" font-family="Helvetica,sans-Serif" font-size="10.00">GESkeleton</text>
</a>
</g>
</g>
<!-- Node15&#45;&gt;Node6 -->
<g id="edge14_Node000006_Node000015" class="edge">
<title>Node15&#45;&gt;Node6</title>
<g id="a_edge14_Node000006_Node000015"><a xlink:title=" ">
<path fill="none" stroke="#9a32cd" stroke-dasharray="5,2" d="M515.38,-136.18C515.38,-122.29 515.38,-104.71 515.38,-94.19"/>
<polygon fill="#9a32cd" stroke="#9a32cd" points="511.88,-136.07 515.38,-146.07 518.88,-136.07 511.88,-136.07"/>
</a>
</g>
<text xml:space="preserve" text-anchor="start" x="518.38" y="-117.5" font-family="Helvetica,sans-Serif" font-size="10.00" fill="grey">skeleton</text>
</g>
<!-- Node16 -->
<g id="Node000016" class="node">
<title>Node16</title>
<g id="a_Node000016"><a xlink:href="class_g_e_animation.html" target="_top" xlink:title="Sistema de animación por keyframes con interpolación lineal.">
<polygon fill="white" stroke="#666666" points="641.25,-168 567.5,-168 567.5,-148 641.25,-148 641.25,-168"/>
<text xml:space="preserve" text-anchor="middle" x="604.38" y="-154.5" font-family="Helvetica,sans-Serif" font-size="10.00">GEAnimation</text>
</a>
</g>
</g>
<!-- Node16&#45;&gt;Node6 -->
<g id="edge15_Node000006_Node000016" class="edge">
<title>Node16&#45;&gt;Node6</title>
<g id="a_edge15_Node000006_Node000016"><a xlink:title=" ">
<path fill="none" stroke="#9a32cd" stroke-dasharray="5,2" d="M589.72,-138.91C582.11,-130.18 572.34,-119.9 562.38,-112 553.82,-105.22 543.37,-99.04 534.5,-94.31"/>
<polygon fill="#9a32cd" stroke="#9a32cd" points="586.94,-141.05 596.06,-146.45 592.3,-136.54 586.94,-141.05"/>
</a>
</g>
<text xml:space="preserve" text-anchor="start" x="583.9" y="-117.5" font-family="Helvetica,sans-Serif" font-size="10.00" fill="grey">animation</text>
</g>
<!-- Node17 -->
<g id="Node000017" class="node">
<title>Node17</title>
<g id="a_Node000017"><a xlink:href="class_g_e_camera.html" target="_top" xlink:title="Clase que representa una cámara en el espacio 3D.">
<polygon fill="white" stroke="#666666" points="723.75,-168 659,-168 659,-148 723.75,-148 723.75,-168"/>
<text xml:space="preserve" text-anchor="middle" x="691.38" y="-154.5" font-family="Helvetica,sans-Serif" font-size="10.00">GECamera</text>
</a>
</g>
</g>
<!-- Node17&#45;&gt;Node6 -->
<g id="edge16_Node000006_Node000017" class="edge">
<title>Node17&#45;&gt;Node6</title>
<g id="a_edge16_Node000006_Node000017"><a xlink:title=" ">
<path fill="none" stroke="#9a32cd" stroke-dasharray="5,2" d="M673.53,-139.82C662.71,-130.3 648.16,-119.01 633.38,-112 604.89,-98.5 569.27,-91.55 544.66,-88.11"/>
<polygon fill="#9a32cd" stroke="#9a32cd" points="671.15,-142.39 680.88,-146.56 675.87,-137.22 671.15,-142.39"/>
</a>
</g>
<text xml:space="preserve" text-anchor="start" x="663.48" y="-117.5" font-family="Helvetica,sans-Serif" font-size="10.00" fill="grey">camera</text>
</g>
</g>
</svg>
