<?xml version="1.0" encoding="UTF-8" standalone="no"?>
<!DOCTYPE svg PUBLIC "-//W3C//DTD SVG 1.1//EN"
 "http://www.w3.org/Graphics/SVG/1.1/DTD/svg11.dtd">
<!-- Generated by graphviz version 14.1.2 (20260124.0452)
 -->
<!-- Title: xpath_ast_node::step_fill Pages: 1 -->
<svg width="755pt" height="154pt"
 viewBox="0.00 0.00 755.00 154.00" xmlns="http://www.w3.org/2000/svg" xmlns:xlink="http://www.w3.org/1999/xlink">
<g id="graph0" class="graph" transform="scale(1 1) rotate(0) translate(4 150)">
<title>xpath_ast_node::step_fill</title>
<!-- Node1 -->
<g id="Node000001" class="node">
<title>Node1</title>
<g id="a_Node000001"><a xlink:title=" ">
<polygon fill="#999999" stroke="#666666" points="124.75,-105 0,-105 0,-85 124.75,-85 124.75,-105"/>
<text xml:space="preserve" text-anchor="middle" x="62.38" y="-91.5" font-family="Helvetica,sans-Serif" font-size="10.00">xpath_ast_node::step_fill</text>
</a>
</g>
</g>
<!-- Node2 -->
<g id="Node000002" class="node">
<title>Node2</title>
<g id="a_Node000002"><a xlink:href="pugixml_8cpp.html#a8ab686db9f80e7ac953ba69ccace1f6a" target="_top" xlink:title=" ">
<polygon fill="white" stroke="#666666" points="275,-124 182.5,-124 182.5,-104 275,-104 275,-124"/>
<text xml:space="preserve" text-anchor="middle" x="228.75" y="-110.5" font-family="Helvetica,sans-Serif" font-size="10.00">node_is_ancestor</text>
</a>
</g>
</g>
<!-- Node1&#45;&gt;Node2 -->
<g id="edge1_Node000001_Node000002" class="edge">
<title>Node1&#45;&gt;Node2</title>
<g id="a_edge1_Node000001_Node000002"><a xlink:title=" ">
<path fill="none" stroke="#63b8ff" d="M125.05,-102.13C140.15,-103.87 156.24,-105.73 171.09,-107.45"/>
<polygon fill="#63b8ff" stroke="#63b8ff" points="170.33,-110.89 180.66,-108.56 171.13,-103.93 170.33,-110.89"/>
</a>
</g>
</g>
<!-- Node3 -->
<g id="Node000003" class="node">
<title>Node3</title>
<g id="a_Node000003"><a xlink:href="classxpath__ast__node.html#a4f7aaa038105a1d98a7505606ca2b5a2" target="_top" xlink:title=" ">
<polygon fill="white" stroke="#666666" points="296.75,-86 160.75,-86 160.75,-66 296.75,-66 296.75,-86"/>
<text xml:space="preserve" text-anchor="middle" x="228.75" y="-72.5" font-family="Helvetica,sans-Serif" font-size="10.00">xpath_ast_node::step_push</text>
</a>
</g>
</g>
<!-- Node1&#45;&gt;Node3 -->
<g id="edge2_Node000001_Node000003" class="edge">
<title>Node1&#45;&gt;Node3</title>
<g id="a_edge2_Node000001_Node000003"><a xlink:title=" ">
<path fill="none" stroke="#63b8ff" d="M125.05,-87.87C132.91,-86.96 141.04,-86.02 149.13,-85.09"/>
<polygon fill="#63b8ff" stroke="#63b8ff" points="149.46,-88.57 158.99,-83.95 148.66,-81.62 149.46,-88.57"/>
</a>
</g>
</g>
<!-- Node4 -->
<g id="Node000004" class="node">
<title>Node4</title>
<g id="a_Node000004"><a xlink:href="pugixml_8cpp.html#a63041941bf2b704523fead76b505d418" target="_top" xlink:title=" ">
<polygon fill="white" stroke="#666666" points="432.38,-146 339.12,-146 339.12,-126 432.38,-126 432.38,-146"/>
<text xml:space="preserve" text-anchor="middle" x="385.75" y="-132.5" font-family="Helvetica,sans-Serif" font-size="10.00">is_xpath_attribute</text>
</a>
</g>
</g>
<!-- Node3&#45;&gt;Node4 -->
<g id="edge3_Node000003_Node000004" class="edge">
<title>Node3&#45;&gt;Node4</title>
<g id="a_edge3_Node000003_Node000004"><a xlink:title=" ">
<path fill="none" stroke="#63b8ff" d="M270.84,-86.5C279.49,-89.02 288.49,-91.9 296.75,-95 313.32,-101.21 316.72,-104.51 332.75,-112 338.87,-114.86 345.4,-117.89 351.69,-120.8"/>
<polygon fill="#63b8ff" stroke="#63b8ff" points="350.03,-123.88 360.57,-124.89 352.96,-117.53 350.03,-123.88"/>
</a>
</g>
</g>
<!-- Node5 -->
<g id="Node000005" class="node">
<title>Node5</title>
<g id="a_Node000005"><a xlink:href="pugixml_8cpp.html#ae495a9f52adc166d7cd2f30a87e1d315" target="_top" xlink:title=" ">
<polygon fill="white" stroke="#666666" points="559.75,-127 495.75,-127 495.75,-107 559.75,-107 559.75,-127"/>
<text xml:space="preserve" text-anchor="middle" x="527.75" y="-113.5" font-family="Helvetica,sans-Serif" font-size="10.00">starts_with</text>
</a>
</g>
</g>
<!-- Node3&#45;&gt;Node5 -->
<g id="edge8_Node000003_Node000005" class="edge">
<title>Node3&#45;&gt;Node5</title>
<g id="a_edge8_Node000003_Node000005"><a xlink:title=" ">
<path fill="none" stroke="#63b8ff" d="M297.14,-85.3C354.66,-93.24 435.59,-104.42 484.42,-111.16"/>
<polygon fill="#63b8ff" stroke="#63b8ff" points="483.63,-114.58 494.02,-112.48 484.59,-107.65 483.63,-114.58"/>
</a>
</g>
</g>
<!-- Node6 -->
<g id="Node000006" class="node">
<title>Node6</title>
<g id="a_Node000006"><a xlink:href="classxpath__node__set__raw.html#a676ec123e5be874869c78ff5c43ae9c2" target="_top" xlink:title=" ">
<polygon fill="white" stroke="#666666" points="438.75,-70 332.75,-70 332.75,-38 438.75,-38 438.75,-70"/>
<text xml:space="preserve" text-anchor="start" x="340.75" y="-56.5" font-family="Helvetica,sans-Serif" font-size="10.00">xpath_node_set_raw</text>
<text xml:space="preserve" text-anchor="middle" x="385.75" y="-44.5" font-family="Helvetica,sans-Serif" font-size="10.00">::push_back</text>
</a>
</g>
</g>
<!-- Node3&#45;&gt;Node6 -->
<g id="edge5_Node000003_Node000006" class="edge">
<title>Node3&#45;&gt;Node6</title>
<g id="a_edge5_Node000003_Node000006"><a xlink:title=" ">
<path fill="none" stroke="#63b8ff" d="M296.83,-66.48C304.95,-65.33 313.23,-64.15 321.29,-63.01"/>
<polygon fill="#63b8ff" stroke="#63b8ff" points="321.61,-66.5 331.02,-61.63 320.62,-59.57 321.61,-66.5"/>
</a>
</g>
</g>
<!-- Node9 -->
<g id="Node000009" class="node">
<title>Node9</title>
<g id="a_Node000009"><a xlink:href="pugixml_8cpp.html#a18ca4720d82fac6db58f522a2c6a682e" target="_top" xlink:title=" ">
<polygon fill="white" stroke="#666666" points="411,-20 360.5,-20 360.5,0 411,0 411,-20"/>
<text xml:space="preserve" text-anchor="middle" x="385.75" y="-6.5" font-family="Helvetica,sans-Serif" font-size="10.00">strequal</text>
</a>
</g>
</g>
<!-- Node3&#45;&gt;Node9 -->
<g id="edge9_Node000003_Node000009" class="edge">
<title>Node3&#45;&gt;Node9</title>
<g id="a_edge9_Node000003_Node000009"><a xlink:title=" ">
<path fill="none" stroke="#63b8ff" d="M251.24,-65.6C271.93,-55.73 304.2,-40.71 332.75,-29 338.17,-26.78 343.95,-24.54 349.63,-22.41"/>
<polygon fill="#63b8ff" stroke="#63b8ff" points="350.66,-25.76 358.84,-19.03 348.25,-19.19 350.66,-25.76"/>
</a>
</g>
</g>
<!-- Node4&#45;&gt;Node5 -->
<g id="edge4_Node000004_Node000005" class="edge">
<title>Node4&#45;&gt;Node5</title>
<g id="a_edge4_Node000004_Node000005"><a xlink:title=" ">
<path fill="none" stroke="#63b8ff" d="M432.59,-129.78C449.15,-127.53 467.76,-125.01 484.04,-122.8"/>
<polygon fill="#63b8ff" stroke="#63b8ff" points="484.47,-126.27 493.91,-121.46 483.53,-119.33 484.47,-126.27"/>
</a>
</g>
</g>
<!-- Node7 -->
<g id="Node000007" class="node">
<title>Node7</title>
<g id="a_Node000007"><a xlink:href="classxpath__node__set__raw.html#a0b2d66a98ec56ed0c5b5a9fce222ddc4" target="_top" xlink:title=" ">
<polygon fill="white" stroke="#666666" points="580.75,-70 474.75,-70 474.75,-38 580.75,-38 580.75,-70"/>
<text xml:space="preserve" text-anchor="start" x="482.75" y="-56.5" font-family="Helvetica,sans-Serif" font-size="10.00">xpath_node_set_raw</text>
<text xml:space="preserve" text-anchor="middle" x="527.75" y="-44.5" font-family="Helvetica,sans-Serif" font-size="10.00">::push_back_grow</text>
</a>
</g>
</g>
<!-- Node6&#45;&gt;Node7 -->
<g id="edge6_Node000006_Node000007" class="edge">
<title>Node6&#45;&gt;Node7</title>
<g id="a_edge6_Node000006_Node000007"><a xlink:title=" ">
<path fill="none" stroke="#63b8ff" d="M438.88,-54C446.81,-54 455.06,-54 463.2,-54"/>
<polygon fill="#63b8ff" stroke="#63b8ff" points="463.06,-57.5 473.06,-54 463.06,-50.5 463.06,-57.5"/>
</a>
</g>
</g>
<!-- Node8 -->
<g id="Node000008" class="node">
<title>Node8</title>
<g id="a_Node000008"><a xlink:href="structxpath__allocator.html#a5d3ba1b01ba87b2002b348674e9d50b6" target="_top" xlink:title=" ">
<polygon fill="white" stroke="#666666" points="746.75,-64 616.75,-64 616.75,-44 746.75,-44 746.75,-64"/>
<text xml:space="preserve" text-anchor="middle" x="681.75" y="-50.5" font-family="Helvetica,sans-Serif" font-size="10.00">xpath_allocator::reallocate</text>
</a>
</g>
</g>
<!-- Node7&#45;&gt;Node8 -->
<g id="edge7_Node000007_Node000008" class="edge">
<title>Node7&#45;&gt;Node8</title>
<g id="a_edge7_Node000007_Node000008"><a xlink:title=" ">
<path fill="none" stroke="#63b8ff" d="M581.06,-54C588.76,-54 596.83,-54 604.89,-54"/>
<polygon fill="#63b8ff" stroke="#63b8ff" points="604.74,-57.5 614.74,-54 604.74,-50.5 604.74,-57.5"/>
</a>
</g>
</g>
</g>
</svg>
