<?xml version="1.0" encoding="UTF-8" standalone="no"?>
<!DOCTYPE svg PUBLIC "-//W3C//DTD SVG 1.1//EN"
 "http://www.w3.org/Graphics/SVG/1.1/DTD/svg11.dtd">
<!-- Generated by graphviz version 14.1.2 (20260124.0452)
 -->
<!-- Title: pugi::xml_tree_walker::for_each Pages: 1 -->
<svg width="436pt" height="58pt"
 viewBox="0.00 0.00 436.00 58.00" xmlns="http://www.w3.org/2000/svg" xmlns:xlink="http://www.w3.org/1999/xlink">
<g id="graph0" class="graph" transform="scale(1 1) rotate(0) translate(4 54)">
<title>pugi::xml_tree_walker::for_each</title>
<!-- Node1 -->
<g id="Node000001" class="node">
<title>Node1</title>
<g id="a_Node000001"><a xlink:title=" ">
<polygon fill="#999999" stroke="#666666" points="111.25,-32 0,-32 0,0 111.25,0 111.25,-32"/>
<text xml:space="preserve" text-anchor="start" x="8" y="-18.5" font-family="Helvetica,sans-Serif" font-size="10.00">pugi::xml_tree_walker</text>
<text xml:space="preserve" text-anchor="middle" x="55.62" y="-6.5" font-family="Helvetica,sans-Serif" font-size="10.00">::for_each</text>
</a>
</g>
</g>
<!-- Node2 -->
<g id="Node000002" class="node">
<title>Node2</title>
<g id="a_Node000002"><a xlink:href="classpugi_1_1xml__tree__walker.html#a7ce500c6b0d3a0446d17daa57f9b4622" target="_top" xlink:title=" ">
<polygon fill="white" stroke="#666666" points="280.25,-45 147.25,-45 147.25,-25 280.25,-25 280.25,-45"/>
<text xml:space="preserve" text-anchor="middle" x="213.75" y="-31.5" font-family="Helvetica,sans-Serif" font-size="10.00">pugi::xml_tree_walker::end</text>
</a>
</g>
</g>
<!-- Node1&#45;&gt;Node2 -->
<g id="edge1_Node000001_Node000002" class="edge">
<title>Node1&#45;&gt;Node2</title>
<g id="a_edge1_Node000001_Node000002"><a xlink:title=" ">
<path fill="none" stroke="#63b8ff" d="M111.67,-22.7C119.43,-23.64 127.52,-24.63 135.59,-25.61"/>
<polygon fill="#63b8ff" stroke="#63b8ff" points="135.12,-29.08 145.47,-26.81 135.96,-22.13 135.12,-29.08"/>
</a>
</g>
</g>
<!-- Node3 -->
<g id="Node000003" class="node">
<title>Node3</title>
<g id="a_Node000003"><a xlink:href="classpugi_1_1xml__tree__walker.html#a156d917a92815c7b593bd5ef19f6d5fb" target="_top" xlink:title=" ">
<polygon fill="white" stroke="#666666" points="427.5,-32 316.25,-32 316.25,0 427.5,0 427.5,-32"/>
<text xml:space="preserve" text-anchor="start" x="324.25" y="-18.5" font-family="Helvetica,sans-Serif" font-size="10.00">pugi::xml_tree_walker</text>
<text xml:space="preserve" text-anchor="middle" x="371.88" y="-6.5" font-family="Helvetica,sans-Serif" font-size="10.00">::xml_node</text>
</a>
</g>
</g>
<!-- Node1&#45;&gt;Node3 -->
<g id="edge4_Node000001_Node000003" class="edge">
<title>Node1&#45;&gt;Node3</title>
<g id="a_edge4_Node000001_Node000003"><a xlink:title=" ">
<path fill="none" stroke="#63b8ff" d="M111.72,-16C165.41,-16 247.09,-16 304.37,-16"/>
<polygon fill="#63b8ff" stroke="#63b8ff" points="304.33,-19.5 314.33,-16 304.33,-12.5 304.33,-19.5"/>
</a>
</g>
</g>
<!-- Node2&#45;&gt;Node3 -->
<g id="edge2_Node000002_Node000003" class="edge">
<title>Node2&#45;&gt;Node3</title>
<g id="a_edge2_Node000002_Node000003"><a xlink:title=" ">
<path fill="none" stroke="#63b8ff" d="M280.51,-27C288.55,-26.02 296.77,-25.02 304.82,-24.04"/>
<polygon fill="#63b8ff" stroke="#63b8ff" points="305.04,-27.54 314.54,-22.86 304.19,-20.59 305.04,-27.54"/>
</a>
</g>
</g>
<!-- Node3&#45;&gt;Node3 -->
<g id="edge3_Node000003_Node000003" class="edge">
<title>Node3&#45;&gt;Node3</title>
<g id="a_edge3_Node000003_Node000003"><a xlink:title=" ">
<path fill="none" stroke="#63b8ff" d="M343.65,-32.44C338.38,-41.58 347.79,-50 371.88,-50 385.05,-50 393.83,-47.48 398.23,-43.71"/>
<polygon fill="#63b8ff" stroke="#63b8ff" points="401.66,-44.38 399.86,-33.94 394.76,-43.22 401.66,-44.38"/>
</a>
</g>
</g>
</g>
</svg>
