<?xml version="1.0" encoding="UTF-8" standalone="no"?>
<!DOCTYPE svg PUBLIC "-//W3C//DTD SVG 1.1//EN"
 "http://www.w3.org/Graphics/SVG/1.1/DTD/svg11.dtd">
<!-- Generated by graphviz version 14.1.2 (20260124.0452)
 -->
<!-- Title: GESkeleton::buildSkeleton Pages: 1 -->
<svg width="988pt" height="424pt"
 viewBox="0.00 0.00 988.00 424.00" xmlns="http://www.w3.org/2000/svg" xmlns:xlink="http://www.w3.org/1999/xlink">
<g id="graph0" class="graph" transform="scale(1 1) rotate(0) translate(4 420)">
<title>GESkeleton::buildSkeleton</title>
<!-- Node1 -->
<g id="Node000001" class="node">
<title>Node1</title>
<g id="a_Node000001"><a xlink:title="Construye la jerarquía de articulaciones desde body.skel.">
<polygon fill="#999999" stroke="#666666" points="133,-290 0,-290 0,-270 133,-270 133,-290"/>
<text xml:space="preserve" text-anchor="middle" x="66.5" y="-276.5" font-family="Helvetica,sans-Serif" font-size="10.00">GESkeleton::buildSkeleton</text>
</a>
</g>
</g>
<!-- Node2 -->
<g id="Node000002" class="node">
<title>Node2</title>
<g id="a_Node000002"><a xlink:href="class_g_e_skeleton.html#a24b0dd5ddd9c940fb8e95eaceb720ea0" target="_top" xlink:title="Crea recursivamente las articulaciones desde los datos parseados.">
<polygon fill="white" stroke="#666666" points="335,-378 169,-378 169,-358 335,-358 335,-378"/>
<text xml:space="preserve" text-anchor="middle" x="252" y="-364.5" font-family="Helvetica,sans-Serif" font-size="10.00">GESkeleton::createJointFromData</text>
</a>
</g>
</g>
<!-- Node1&#45;&gt;Node2 -->
<g id="edge1_Node000001_Node000002" class="edge">
<title>Node1&#45;&gt;Node2</title>
<g id="a_edge1_Node000001_Node000002"><a xlink:title=" ">
<path fill="none" stroke="#63b8ff" d="M89.27,-290.44C121.41,-305.86 181.77,-334.8 218.97,-352.64"/>
<polygon fill="#63b8ff" stroke="#63b8ff" points="217.36,-355.75 227.89,-356.92 220.39,-349.44 217.36,-355.75"/>
</a>
</g>
</g>
<!-- Node6 -->
<g id="Node000006" class="node">
<title>Node6</title>
<g id="a_Node000006"><a xlink:href="class_g_e_x_m_l_parser.html#acd9fc587fbd992edbb51df00549c1bda" target="_top" xlink:title="Parsea un archivo .skel y devuelve los datos del esqueleto.">
<polygon fill="white" stroke="#666666" points="333.5,-202 170.5,-202 170.5,-182 333.5,-182 333.5,-202"/>
<text xml:space="preserve" text-anchor="middle" x="252" y="-188.5" font-family="Helvetica,sans-Serif" font-size="10.00">GEXMLParser::parseSkeletonFile</text>
</a>
</g>
</g>
<!-- Node1&#45;&gt;Node6 -->
<g id="edge6_Node000001_Node000006" class="edge">
<title>Node1&#45;&gt;Node6</title>
<g id="a_edge6_Node000001_Node000006"><a xlink:title=" ">
<path fill="none" stroke="#63b8ff" d="M89.27,-269.56C121.41,-254.14 181.77,-225.2 218.97,-207.36"/>
<polygon fill="#63b8ff" stroke="#63b8ff" points="220.39,-210.56 227.89,-203.08 217.36,-204.25 220.39,-210.56"/>
</a>
</g>
</g>
<!-- Node2&#45;&gt;Node2 -->
<g id="edge4_Node000002_Node000002" class="edge">
<title>Node2&#45;&gt;Node2</title>
<g id="a_edge4_Node000002_Node000002"><a xlink:title=" ">
<path fill="none" stroke="#63b8ff" d="M222.53,-378.34C209.93,-386.98 219.75,-396 252,-396 270.14,-396 281.18,-393.14 285.13,-389.11"/>
<polygon fill="#63b8ff" stroke="#63b8ff" points="288.49,-388.12 281.96,-379.77 281.86,-390.37 288.49,-388.12"/>
</a>
</g>
</g>
<!-- Node3 -->
<g id="Node000003" class="node">
<title>Node3</title>
<g id="a_Node000003"><a xlink:href="class_g_e_balljoint.html#a2a6fc6d00a3ea4c9ca016f1afe358fd9" target="_top" xlink:title="Añade una articulación hija.">
<polygon fill="white" stroke="#666666" points="497.25,-416 388.25,-416 388.25,-396 497.25,-396 497.25,-416"/>
<text xml:space="preserve" text-anchor="middle" x="442.75" y="-402.5" font-family="Helvetica,sans-Serif" font-size="10.00">GEBalljoint::addChild</text>
</a>
</g>
</g>
<!-- Node2&#45;&gt;Node3 -->
<g id="edge2_Node000002_Node000003" class="edge">
<title>Node2&#45;&gt;Node3</title>
<g id="a_edge2_Node000002_Node000003"><a xlink:title=" ">
<path fill="none" stroke="#63b8ff" d="M305.08,-378.48C327.87,-383.07 354.82,-388.5 378.74,-393.31"/>
<polygon fill="#63b8ff" stroke="#63b8ff" points="377.87,-396.71 388.36,-395.25 379.25,-389.85 377.87,-396.71"/>
</a>
</g>
</g>
<!-- Node5 -->
<g id="Node000005" class="node">
<title>Node5</title>
<g id="a_Node000005"><a xlink:href="class_g_e_balljoint.html#a57203edfebb0ba0bf9979e34fe472274" target="_top" xlink:title="Asigna los límites de rotación.">
<polygon fill="white" stroke="#666666" points="498,-378 387.5,-378 387.5,-358 498,-358 498,-378"/>
<text xml:space="preserve" text-anchor="middle" x="442.75" y="-364.5" font-family="Helvetica,sans-Serif" font-size="10.00">GEBalljoint::setLimits</text>
</a>
</g>
</g>
<!-- Node2&#45;&gt;Node5 -->
<g id="edge5_Node000002_Node000005" class="edge">
<title>Node2&#45;&gt;Node5</title>
<g id="a_edge5_Node000002_Node000005"><a xlink:title=" ">
<path fill="none" stroke="#63b8ff" d="M335.24,-368C348.84,-368 362.78,-368 375.91,-368"/>
<polygon fill="#63b8ff" stroke="#63b8ff" points="375.7,-371.5 385.7,-368 375.7,-364.5 375.7,-371.5"/>
</a>
</g>
</g>
<!-- Node4 -->
<g id="Node000004" class="node">
<title>Node4</title>
<g id="a_Node000004"><a xlink:href="class_g_e_balljoint.html#a0f468b4618ae46410622a32a83569714" target="_top" xlink:title="Construye una articulación.">
<polygon fill="white" stroke="#666666" points="675.62,-416 556.12,-416 556.12,-396 675.62,-396 675.62,-416"/>
<text xml:space="preserve" text-anchor="middle" x="615.88" y="-402.5" font-family="Helvetica,sans-Serif" font-size="10.00">GEBalljoint::GEBalljoint</text>
</a>
</g>
</g>
<!-- Node3&#45;&gt;Node4 -->
<g id="edge3_Node000003_Node000004" class="edge">
<title>Node3&#45;&gt;Node4</title>
<g id="a_edge3_Node000003_Node000004"><a xlink:title=" ">
<path fill="none" stroke="#63b8ff" d="M497.43,-406C512.33,-406 528.75,-406 544.46,-406"/>
<polygon fill="#63b8ff" stroke="#63b8ff" points="544.23,-409.5 554.23,-406 544.23,-402.5 544.23,-409.5"/>
</a>
</g>
</g>
<!-- Node7 -->
<g id="Node000007" class="node">
<title>Node7</title>
<g id="a_Node000007"><a xlink:href="classpugi_1_1xml__attribute.html#ae5f55e07fdbe1b862af67cf9eb5678a3" target="_top" xlink:title=" ">
<polygon fill="white" stroke="#666666" points="664,-32 567.75,-32 567.75,0 664,0 664,-32"/>
<text xml:space="preserve" text-anchor="start" x="575.75" y="-18.5" font-family="Helvetica,sans-Serif" font-size="10.00">pugi::xml_attribute</text>
<text xml:space="preserve" text-anchor="middle" x="615.88" y="-6.5" font-family="Helvetica,sans-Serif" font-size="10.00">::as_string</text>
</a>
</g>
</g>
<!-- Node6&#45;&gt;Node7 -->
<g id="edge7_Node000006_Node000007" class="edge">
<title>Node6&#45;&gt;Node7</title>
<g id="a_edge7_Node000006_Node000007"><a xlink:title=" ">
<path fill="none" stroke="#63b8ff" d="M257.83,-181.6C271.27,-153.99 312.01,-78.74 371,-46 428.21,-14.24 504.43,-9.77 556.33,-11.29"/>
<polygon fill="#63b8ff" stroke="#63b8ff" points="556.02,-14.78 566.15,-11.67 556.3,-7.79 556.02,-14.78"/>
</a>
</g>
</g>
<!-- Node9 -->
<g id="Node000009" class="node">
<title>Node9</title>
<g id="a_Node000009"><a xlink:href="classpugi_1_1xml__node.html#a2d27d392a789976eb1aef9d49f72393e" target="_top" xlink:title=" ">
<polygon fill="white" stroke="#666666" points="843.88,-83 720.62,-83 720.62,-63 843.88,-63 843.88,-83"/>
<text xml:space="preserve" text-anchor="middle" x="782.25" y="-69.5" font-family="Helvetica,sans-Serif" font-size="10.00">pugi::xml_node::attribute</text>
</a>
</g>
</g>
<!-- Node6&#45;&gt;Node9 -->
<g id="edge10_Node000006_Node000009" class="edge">
<title>Node6&#45;&gt;Node9</title>
<g id="a_edge10_Node000006_Node000009"><a xlink:title=" ">
<path fill="none" stroke="#63b8ff" d="M261.08,-181.58C278.45,-160.06 321.81,-111.07 371,-91 482.07,-45.69 624.37,-52.17 708.86,-61.93"/>
<polygon fill="#63b8ff" stroke="#63b8ff" points="708.29,-65.38 718.63,-63.11 709.13,-58.43 708.29,-65.38"/>
</a>
</g>
</g>
<!-- Node10 -->
<g id="Node000010" class="node">
<title>Node10</title>
<g id="a_Node000010"><a xlink:href="classpugi_1_1xml__node.html#a4154ffb6451d4203b74bb56d3f3ecf50" target="_top" xlink:title=" ">
<polygon fill="white" stroke="#666666" points="670,-267 561.75,-267 561.75,-247 670,-247 670,-267"/>
<text xml:space="preserve" text-anchor="middle" x="615.88" y="-253.5" font-family="Helvetica,sans-Serif" font-size="10.00">pugi::xml_node::child</text>
</a>
</g>
</g>
<!-- Node6&#45;&gt;Node10 -->
<g id="edge11_Node000006_Node000010" class="edge">
<title>Node6&#45;&gt;Node10</title>
<g id="a_edge11_Node000006_Node000010"><a xlink:title=" ">
<path fill="none" stroke="#63b8ff" d="M265.42,-202.33C285.87,-218.6 328.62,-249.52 371,-261 430.15,-277.03 500.37,-273.65 550.23,-267.69"/>
<polygon fill="#63b8ff" stroke="#63b8ff" points="550.52,-271.19 560,-266.45 549.63,-264.24 550.52,-271.19"/>
</a>
</g>
</g>
<!-- Node12 -->
<g id="Node000012" class="node">
<title>Node12</title>
<g id="a_Node000012"><a xlink:href="classpugi_1_1xml__node.html#a4f72c001fed61753fa76fd32d4e978af" target="_top" xlink:title=" ">
<polygon fill="white" stroke="#666666" points="676.75,-222 555,-222 555,-202 676.75,-202 676.75,-222"/>
<text xml:space="preserve" text-anchor="middle" x="615.88" y="-208.5" font-family="Helvetica,sans-Serif" font-size="10.00">pugi::xml_node::children</text>
</a>
</g>
</g>
<!-- Node6&#45;&gt;Node12 -->
<g id="edge13_Node000006_Node000012" class="edge">
<title>Node6&#45;&gt;Node12</title>
<g id="a_edge13_Node000006_Node000012"><a xlink:title=" ">
<path fill="none" stroke="#63b8ff" d="M333.76,-196.46C396.58,-199.94 482.92,-204.71 543.28,-208.04"/>
<polygon fill="#63b8ff" stroke="#63b8ff" points="542.93,-211.53 553.11,-208.59 543.31,-204.54 542.93,-211.53"/>
</a>
</g>
</g>
<!-- Node15 -->
<g id="Node000015" class="node">
<title>Node15</title>
<g id="a_Node000015"><a xlink:href="structpugi_1_1xml__parse__result.html#a5229a07ba72d6ff72d7a0775c6d67fdc" target="_top" xlink:title=" ">
<polygon fill="white" stroke="#666666" points="499.88,-252 385.62,-252 385.62,-220 499.88,-220 499.88,-252"/>
<text xml:space="preserve" text-anchor="start" x="393.62" y="-238.5" font-family="Helvetica,sans-Serif" font-size="10.00">pugi::xml_parse_result</text>
<text xml:space="preserve" text-anchor="middle" x="442.75" y="-226.5" font-family="Helvetica,sans-Serif" font-size="10.00">::description</text>
</a>
</g>
</g>
<!-- Node6&#45;&gt;Node15 -->
<g id="edge16_Node000006_Node000015" class="edge">
<title>Node6&#45;&gt;Node15</title>
<g id="a_edge16_Node000006_Node000015"><a xlink:title=" ">
<path fill="none" stroke="#63b8ff" d="M297.73,-202.43C320.52,-207.74 348.71,-214.31 374.09,-220.23"/>
<polygon fill="#63b8ff" stroke="#63b8ff" points="373.14,-223.6 383.68,-222.46 374.73,-216.78 373.14,-223.6"/>
</a>
</g>
</g>
<!-- Node16 -->
<g id="Node000016" class="node">
<title>Node16</title>
<g id="a_Node000016"><a xlink:href="classpugi_1_1xml__document.html#aefb4c986984462e3972cf332156dbf00" target="_top" xlink:title=" ">
<polygon fill="white" stroke="#666666" points="494.62,-340 390.88,-340 390.88,-308 494.62,-308 494.62,-340"/>
<text xml:space="preserve" text-anchor="start" x="398.88" y="-326.5" font-family="Helvetica,sans-Serif" font-size="10.00">pugi::xml_document</text>
<text xml:space="preserve" text-anchor="middle" x="442.75" y="-314.5" font-family="Helvetica,sans-Serif" font-size="10.00">::load_file</text>
</a>
</g>
</g>
<!-- Node6&#45;&gt;Node16 -->
<g id="edge17_Node000006_Node000016" class="edge">
<title>Node6&#45;&gt;Node16</title>
<g id="a_edge17_Node000006_Node000016"><a xlink:title=" ">
<path fill="none" stroke="#63b8ff" d="M262.86,-202.47C282.1,-222.43 326.64,-266.38 371,-294 376.1,-297.17 381.59,-300.16 387.18,-302.92"/>
<polygon fill="#63b8ff" stroke="#63b8ff" points="385.37,-305.94 395.91,-307.01 388.34,-299.6 385.37,-305.94"/>
</a>
</g>
</g>
<!-- Node20 -->
<g id="Node000020" class="node">
<title>Node20</title>
<g id="a_Node000020"><a xlink:href="class_g_e_x_m_l_parser.html#af7e66e11e1a8973779770daa1ad6f653" target="_top" xlink:title="Parsea una articulación y sus hijas recursivamente.">
<polygon fill="white" stroke="#666666" points="514.5,-146 371,-146 371,-126 514.5,-126 514.5,-146"/>
<text xml:space="preserve" text-anchor="middle" x="442.75" y="-132.5" font-family="Helvetica,sans-Serif" font-size="10.00">GEXMLParser::parseBalljoint</text>
</a>
</g>
</g>
<!-- Node6&#45;&gt;Node20 -->
<g id="edge21_Node000006_Node000020" class="edge">
<title>Node6&#45;&gt;Node20</title>
<g id="a_edge21_Node000006_Node000020"><a xlink:title=" ">
<path fill="none" stroke="#63b8ff" d="M288.06,-181.6C318.42,-172.59 362.56,-159.49 395.76,-149.65"/>
<polygon fill="#63b8ff" stroke="#63b8ff" points="396.52,-153.07 405.11,-146.87 394.52,-146.36 396.52,-153.07"/>
</a>
</g>
</g>
<!-- Node22 -->
<g id="Node000022" class="node">
<title>Node22</title>
<g id="a_Node000022"><a xlink:href="class_g_e_x_m_l_parser.html#aa8e732df591d508941d3c717188b7266" target="_top" xlink:title="Parsea un nodo vec3 (offset, zaxis, yaxis).">
<polygon fill="white" stroke="#666666" points="681.25,-108 550.5,-108 550.5,-88 681.25,-88 681.25,-108"/>
<text xml:space="preserve" text-anchor="middle" x="615.88" y="-94.5" font-family="Helvetica,sans-Serif" font-size="10.00">GEXMLParser::parseVec3</text>
</a>
</g>
</g>
<!-- Node6&#45;&gt;Node22 -->
<g id="edge32_Node000006_Node000022" class="edge">
<title>Node6&#45;&gt;Node22</title>
<g id="a_edge32_Node000006_Node000022"><a xlink:title=" ">
<path fill="none" stroke="#63b8ff" d="M264.71,-181.72C284.83,-164.76 327.94,-131.36 371,-117 425.08,-98.96 489.5,-94.62 538.55,-94.56"/>
<polygon fill="#63b8ff" stroke="#63b8ff" points="538.5,-98.06 548.52,-94.62 538.54,-91.06 538.5,-98.06"/>
</a>
</g>
</g>
<!-- Node8 -->
<g id="Node000008" class="node">
<title>Node8</title>
<g id="a_Node000008"><a xlink:href="classpugi_1_1xml__attribute.html#ac18639df6493d250601566d1156c38d9" target="_top" xlink:title=" ">
<polygon fill="white" stroke="#666666" points="979.5,-77 883.25,-77 883.25,-45 979.5,-45 979.5,-77"/>
<text xml:space="preserve" text-anchor="start" x="891.25" y="-63.5" font-family="Helvetica,sans-Serif" font-size="10.00">pugi::xml_attribute</text>
<text xml:space="preserve" text-anchor="middle" x="931.38" y="-51.5" font-family="Helvetica,sans-Serif" font-size="10.00">::value</text>
</a>
</g>
</g>
<!-- Node7&#45;&gt;Node8 -->
<g id="edge8_Node000007_Node000008" class="edge">
<title>Node7&#45;&gt;Node8</title>
<g id="a_edge8_Node000007_Node000008"><a xlink:title=" ">
<path fill="none" stroke="#63b8ff" d="M664.49,-22.83C720.01,-30.8 811.78,-43.98 871.67,-52.57"/>
<polygon fill="#63b8ff" stroke="#63b8ff" points="870.93,-56 881.33,-53.96 871.93,-49.07 870.93,-56"/>
</a>
</g>
</g>
<!-- Node8&#45;&gt;Node8 -->
<g id="edge9_Node000008_Node000008" class="edge">
<title>Node8&#45;&gt;Node8</title>
<g id="a_edge9_Node000008_Node000008"><a xlink:title=" ">
<path fill="none" stroke="#63b8ff" d="M904.75,-77.44C899.78,-86.58 908.66,-95 931.38,-95 943.8,-95 952.08,-92.48 956.23,-88.71"/>
<polygon fill="#63b8ff" stroke="#63b8ff" points="959.67,-89.36 957.76,-78.94 952.75,-88.27 959.67,-89.36"/>
</a>
</g>
</g>
<!-- Node11 -->
<g id="Node000011" class="node">
<title>Node11</title>
<g id="a_Node000011"><a xlink:href="classpugi_1_1xml__node.html#a4641476ddd4869da18f0738186b17368" target="_top" xlink:title=" ">
<polygon fill="white" stroke="#666666" points="847.25,-267 717.25,-267 717.25,-247 847.25,-247 847.25,-267"/>
<text xml:space="preserve" text-anchor="middle" x="782.25" y="-253.5" font-family="Helvetica,sans-Serif" font-size="10.00">pugi::xml_node::xml_node</text>
</a>
</g>
</g>
<!-- Node10&#45;&gt;Node11 -->
<g id="edge12_Node000010_Node000011" class="edge">
<title>Node10&#45;&gt;Node11</title>
<g id="a_edge12_Node000010_Node000011"><a xlink:title=" ">
<path fill="none" stroke="#63b8ff" d="M670.24,-257C681.54,-257 693.66,-257 705.61,-257"/>
<polygon fill="#63b8ff" stroke="#63b8ff" points="705.45,-260.5 715.45,-257 705.45,-253.5 705.45,-260.5"/>
</a>
</g>
</g>
<!-- Node13 -->
<g id="Node000013" class="node">
<title>Node13</title>
<g id="a_Node000013"><a xlink:href="classpugi_1_1xml__node.html#aeff3362bf030a0df28ec2db9b84498f1" target="_top" xlink:title=" ">
<polygon fill="white" stroke="#666666" points="837.88,-225 726.62,-225 726.62,-205 837.88,-205 837.88,-225"/>
<text xml:space="preserve" text-anchor="middle" x="782.25" y="-211.5" font-family="Helvetica,sans-Serif" font-size="10.00">pugi::xml_node::begin</text>
</a>
</g>
</g>
<!-- Node12&#45;&gt;Node13 -->
<g id="edge14_Node000012_Node000013" class="edge">
<title>Node12&#45;&gt;Node13</title>
<g id="a_edge14_Node000012_Node000013"><a xlink:title=" ">
<path fill="none" stroke="#63b8ff" d="M677.15,-213.1C689.43,-213.32 702.41,-213.56 714.88,-213.79"/>
<polygon fill="#63b8ff" stroke="#63b8ff" points="714.58,-217.28 724.65,-213.97 714.71,-210.28 714.58,-217.28"/>
</a>
</g>
</g>
<!-- Node14 -->
<g id="Node000014" class="node">
<title>Node14</title>
<g id="a_Node000014"><a xlink:href="classpugi_1_1xml__node.html#aafa1deeb5fe928d07cd7caebbf975527" target="_top" xlink:title=" ">
<polygon fill="white" stroke="#666666" points="834.12,-187 730.38,-187 730.38,-167 834.12,-167 834.12,-187"/>
<text xml:space="preserve" text-anchor="middle" x="782.25" y="-173.5" font-family="Helvetica,sans-Serif" font-size="10.00">pugi::xml_node::end</text>
</a>
</g>
</g>
<!-- Node12&#45;&gt;Node14 -->
<g id="edge15_Node000012_Node000014" class="edge">
<title>Node12&#45;&gt;Node14</title>
<g id="a_edge15_Node000012_Node000014"><a xlink:title=" ">
<path fill="none" stroke="#63b8ff" d="M665.75,-201.59C683.07,-197.91 702.76,-193.71 720.92,-189.85"/>
<polygon fill="#63b8ff" stroke="#63b8ff" points="721.47,-193.31 730.52,-187.8 720.01,-186.46 721.47,-193.31"/>
</a>
</g>
</g>
<!-- Node17 -->
<g id="Node000017" class="node">
<title>Node17</title>
<g id="a_Node000017"><a xlink:href="classpugi_1_1xml__document.html#a56e84f1a61d9798b8095f633d2174ab5" target="_top" xlink:title=" ">
<polygon fill="white" stroke="#666666" points="667.75,-340 564,-340 564,-308 667.75,-308 667.75,-340"/>
<text xml:space="preserve" text-anchor="start" x="572" y="-326.5" font-family="Helvetica,sans-Serif" font-size="10.00">pugi::xml_document</text>
<text xml:space="preserve" text-anchor="middle" x="615.88" y="-314.5" font-family="Helvetica,sans-Serif" font-size="10.00">::reset</text>
</a>
</g>
</g>
<!-- Node16&#45;&gt;Node17 -->
<g id="edge18_Node000016_Node000017" class="edge">
<title>Node16&#45;&gt;Node17</title>
<g id="a_edge18_Node000016_Node000017"><a xlink:title=" ">
<path fill="none" stroke="#63b8ff" d="M495.09,-324C513.03,-324 533.37,-324 552.13,-324"/>
<polygon fill="#63b8ff" stroke="#63b8ff" points="552.05,-327.5 562.05,-324 552.05,-320.5 552.05,-327.5"/>
</a>
</g>
</g>
<!-- Node18 -->
<g id="Node000018" class="node">
<title>Node18</title>
<g id="a_Node000018"><a xlink:href="classpugi_1_1xml__document.html#abe0c208ff54097055a572f0a7fe40a94" target="_top" xlink:title=" ">
<polygon fill="white" stroke="#666666" points="834.12,-382 730.38,-382 730.38,-350 834.12,-350 834.12,-382"/>
<text xml:space="preserve" text-anchor="start" x="738.38" y="-368.5" font-family="Helvetica,sans-Serif" font-size="10.00">pugi::xml_document</text>
<text xml:space="preserve" text-anchor="middle" x="782.25" y="-356.5" font-family="Helvetica,sans-Serif" font-size="10.00">::_create</text>
</a>
</g>
</g>
<!-- Node17&#45;&gt;Node18 -->
<g id="edge19_Node000017_Node000018" class="edge">
<title>Node17&#45;&gt;Node18</title>
<g id="a_edge19_Node000017_Node000018"><a xlink:title=" ">
<path fill="none" stroke="#63b8ff" d="M667.98,-337.06C684.14,-341.19 702.18,-345.8 719.02,-350.1"/>
<polygon fill="#63b8ff" stroke="#63b8ff" points="717.87,-353.42 728.42,-352.5 719.6,-346.64 717.87,-353.42"/>
</a>
</g>
</g>
<!-- Node19 -->
<g id="Node000019" class="node">
<title>Node19</title>
<g id="a_Node000019"><a xlink:href="classpugi_1_1xml__document.html#ae622fdaff0407d22288f36194f9b0cbe" target="_top" xlink:title=" ">
<polygon fill="white" stroke="#666666" points="834.12,-332 730.38,-332 730.38,-300 834.12,-300 834.12,-332"/>
<text xml:space="preserve" text-anchor="start" x="738.38" y="-318.5" font-family="Helvetica,sans-Serif" font-size="10.00">pugi::xml_document</text>
<text xml:space="preserve" text-anchor="middle" x="782.25" y="-306.5" font-family="Helvetica,sans-Serif" font-size="10.00">::_destroy</text>
</a>
</g>
</g>
<!-- Node17&#45;&gt;Node19 -->
<g id="edge20_Node000017_Node000019" class="edge">
<title>Node17&#45;&gt;Node19</title>
<g id="a_edge20_Node000017_Node000019"><a xlink:title=" ">
<path fill="none" stroke="#63b8ff" d="M667.98,-321.51C683.99,-320.73 701.83,-319.87 718.54,-319.05"/>
<polygon fill="#63b8ff" stroke="#63b8ff" points="718.56,-322.56 728.38,-318.57 718.22,-315.56 718.56,-322.56"/>
</a>
</g>
</g>
<!-- Node20&#45;&gt;Node7 -->
<g id="edge24_Node000020_Node000007" class="edge">
<title>Node20&#45;&gt;Node7</title>
<g id="a_edge24_Node000020_Node000007"><a xlink:title=" ">
<path fill="none" stroke="#63b8ff" d="M458.64,-125.56C486.03,-106.35 545.02,-64.99 582.16,-38.94"/>
<polygon fill="#63b8ff" stroke="#63b8ff" points="584.14,-41.83 590.32,-33.22 580.12,-36.09 584.14,-41.83"/>
</a>
</g>
</g>
<!-- Node20&#45;&gt;Node9 -->
<g id="edge25_Node000020_Node000009" class="edge">
<title>Node20&#45;&gt;Node9</title>
<g id="a_edge25_Node000020_Node000009"><a xlink:title=" ">
<path fill="none" stroke="#63b8ff" d="M514.88,-139.87C563.15,-140.21 627.69,-136.15 681.25,-117 699.59,-110.44 699.69,-100.43 717.25,-92 720.81,-90.29 724.55,-88.7 728.36,-87.23"/>
<polygon fill="#63b8ff" stroke="#63b8ff" points="729.53,-90.53 737.79,-83.89 727.19,-83.93 729.53,-90.53"/>
</a>
</g>
</g>
<!-- Node20&#45;&gt;Node10 -->
<g id="edge26_Node000020_Node000010" class="edge">
<title>Node20&#45;&gt;Node10</title>
<g id="a_edge26_Node000020_Node000010"><a xlink:title=" ">
<path fill="none" stroke="#63b8ff" d="M453.11,-146.43C470.63,-165.43 510.24,-206.01 550.5,-231 557.25,-235.19 564.8,-238.95 572.28,-242.22"/>
<polygon fill="#63b8ff" stroke="#63b8ff" points="570.74,-245.37 581.32,-245.93 573.4,-238.89 570.74,-245.37"/>
</a>
</g>
</g>
<!-- Node20&#45;&gt;Node12 -->
<g id="edge27_Node000020_Node000012" class="edge">
<title>Node20&#45;&gt;Node12</title>
<g id="a_edge27_Node000020_Node000012"><a xlink:title=" ">
<path fill="none" stroke="#63b8ff" d="M463.55,-146.36C484.78,-157.3 519.62,-174.76 550.5,-188 558.19,-191.3 566.49,-194.59 574.5,-197.63"/>
<polygon fill="#63b8ff" stroke="#63b8ff" points="573.14,-200.86 583.74,-201.07 575.59,-194.3 573.14,-200.86"/>
</a>
</g>
</g>
<!-- Node20&#45;&gt;Node20 -->
<g id="edge28_Node000020_Node000020" class="edge">
<title>Node20&#45;&gt;Node20</title>
<g id="a_edge28_Node000020_Node000020"><a xlink:title=" ">
<path fill="none" stroke="#63b8ff" d="M415.24,-146.34C403.49,-154.98 412.66,-164 442.75,-164 459.68,-164 469.99,-161.14 473.67,-157.11"/>
<polygon fill="#63b8ff" stroke="#63b8ff" points="477.07,-156.26 470.72,-147.78 470.4,-158.37 477.07,-156.26"/>
</a>
</g>
</g>
<!-- Node21 -->
<g id="Node000021" class="node">
<title>Node21</title>
<g id="a_Node000021"><a xlink:href="classpugi_1_1xml__attribute.html#af245d352a69150cb6b556d1400f24f8b" target="_top" xlink:title=" ">
<polygon fill="white" stroke="#666666" points="830.38,-133 734.12,-133 734.12,-101 830.38,-101 830.38,-133"/>
<text xml:space="preserve" text-anchor="start" x="742.12" y="-119.5" font-family="Helvetica,sans-Serif" font-size="10.00">pugi::xml_attribute</text>
<text xml:space="preserve" text-anchor="middle" x="782.25" y="-107.5" font-family="Helvetica,sans-Serif" font-size="10.00">::as_float</text>
</a>
</g>
</g>
<!-- Node20&#45;&gt;Node21 -->
<g id="edge22_Node000020_Node000021" class="edge">
<title>Node20&#45;&gt;Node21</title>
<g id="a_edge22_Node000020_Node000021"><a xlink:title=" ">
<path fill="none" stroke="#63b8ff" d="M502.18,-146.48C550.47,-153.46 620.69,-159.73 681.25,-150 697.68,-147.36 715.06,-142.43 730.64,-137.16"/>
<polygon fill="#63b8ff" stroke="#63b8ff" points="731.41,-140.61 739.69,-133.99 729.09,-134 731.41,-140.61"/>
</a>
</g>
</g>
<!-- Node20&#45;&gt;Node22 -->
<g id="edge29_Node000020_Node000022" class="edge">
<title>Node20&#45;&gt;Node22</title>
<g id="a_edge29_Node000020_Node000022"><a xlink:title=" ">
<path fill="none" stroke="#63b8ff" d="M490.96,-125.52C511.35,-120.99 535.4,-115.65 556.86,-110.88"/>
<polygon fill="#63b8ff" stroke="#63b8ff" points="557.33,-114.36 566.34,-108.78 555.82,-107.53 557.33,-114.36"/>
</a>
</g>
</g>
<!-- Node21&#45;&gt;Node8 -->
<g id="edge23_Node000021_Node000008" class="edge">
<title>Node21&#45;&gt;Node8</title>
<g id="a_edge23_Node000021_Node000008"><a xlink:title=" ">
<path fill="none" stroke="#63b8ff" d="M826.6,-100.5C842.24,-94.55 860.09,-87.75 876.53,-81.5"/>
<polygon fill="#63b8ff" stroke="#63b8ff" points="877.57,-84.84 885.67,-78.02 875.08,-78.3 877.57,-84.84"/>
</a>
</g>
</g>
<!-- Node22&#45;&gt;Node9 -->
<g id="edge31_Node000022_Node000009" class="edge">
<title>Node22&#45;&gt;Node9</title>
<g id="a_edge31_Node000022_Node000009"><a xlink:title=" ">
<path fill="none" stroke="#63b8ff" d="M681.37,-88.19C690.45,-86.81 699.83,-85.38 709.04,-83.98"/>
<polygon fill="#63b8ff" stroke="#63b8ff" points="709.31,-87.48 718.67,-82.52 708.26,-80.56 709.31,-87.48"/>
</a>
</g>
</g>
<!-- Node22&#45;&gt;Node21 -->
<g id="edge30_Node000022_Node000021" class="edge">
<title>Node22&#45;&gt;Node21</title>
<g id="a_edge30_Node000022_Node000021"><a xlink:title=" ">
<path fill="none" stroke="#63b8ff" d="M681.37,-105.45C694.86,-107.01 709.03,-108.65 722.31,-110.19"/>
<polygon fill="#63b8ff" stroke="#63b8ff" points="721.88,-113.66 732.21,-111.33 722.68,-106.71 721.88,-113.66"/>
</a>
</g>
</g>
</g>
</svg>
