<?xml version="1.0" encoding="UTF-8" standalone="no"?>
<!DOCTYPE svg PUBLIC "-//W3C//DTD SVG 1.1//EN"
 "http://www.w3.org/Graphics/SVG/1.1/DTD/svg11.dtd">
<!-- Generated by graphviz version 14.1.2 (20260124.0452)
 -->
<!-- Title: xpath_ast_node::eval_string_concat Pages: 1 -->
<svg width="410pt" height="146pt"
 viewBox="0.00 0.00 410.00 146.00" xmlns="http://www.w3.org/2000/svg" xmlns:xlink="http://www.w3.org/1999/xlink">
<g id="graph0" class="graph" transform="scale(1 1) rotate(0) translate(4 142)">
<title>xpath_ast_node::eval_string_concat</title>
<!-- Node1 -->
<g id="Node000001" class="node">
<title>Node1</title>
<g id="a_Node000001"><a xlink:title=" ">
<polygon fill="#999999" stroke="#666666" points="109,-100 0,-100 0,-68 109,-68 109,-100"/>
<text xml:space="preserve" text-anchor="start" x="8" y="-86.5" font-family="Helvetica,sans-Serif" font-size="10.00">xpath_ast_node::eval</text>
<text xml:space="preserve" text-anchor="middle" x="54.5" y="-74.5" font-family="Helvetica,sans-Serif" font-size="10.00">_string_concat</text>
</a>
</g>
</g>
<!-- Node2 -->
<g id="Node000002" class="node">
<title>Node2</title>
<g id="a_Node000002"><a xlink:href="structxpath__allocator.html#a6c13fefbd7038d78b336987f396c8415" target="_top" xlink:title=" ">
<polygon fill="white" stroke="#666666" points="266.75,-138 145,-138 145,-118 266.75,-118 266.75,-138"/>
<text xml:space="preserve" text-anchor="middle" x="205.88" y="-124.5" font-family="Helvetica,sans-Serif" font-size="10.00">xpath_allocator::allocate</text>
</a>
</g>
</g>
<!-- Node1&#45;&gt;Node2 -->
<g id="edge1_Node000001_Node000002" class="edge">
<title>Node1&#45;&gt;Node2</title>
<g id="a_edge1_Node000001_Node000002"><a xlink:title=" ">
<path fill="none" stroke="#63b8ff" d="M109.43,-99.89C125.57,-104.64 143.11,-109.81 158.7,-114.4"/>
<polygon fill="#63b8ff" stroke="#63b8ff" points="157.63,-117.73 168.21,-117.2 159.61,-111.02 157.63,-117.73"/>
</a>
</g>
</g>
<!-- Node3 -->
<g id="Node000003" class="node">
<title>Node3</title>
<g id="a_Node000003"><a xlink:href="classxpath__string.html#a37e13c2dc384cac842cee3870e9e9e23" target="_top" xlink:title=" ">
<polygon fill="white" stroke="#666666" points="255.88,-100 155.88,-100 155.88,-68 255.88,-68 255.88,-100"/>
<text xml:space="preserve" text-anchor="start" x="163.88" y="-86.5" font-family="Helvetica,sans-Serif" font-size="10.00">xpath_string::from</text>
<text xml:space="preserve" text-anchor="middle" x="205.88" y="-74.5" font-family="Helvetica,sans-Serif" font-size="10.00">_heap_preallocated</text>
</a>
</g>
</g>
<!-- Node1&#45;&gt;Node3 -->
<g id="edge2_Node000001_Node000003" class="edge">
<title>Node1&#45;&gt;Node3</title>
<g id="a_edge2_Node000001_Node000003"><a xlink:title=" ">
<path fill="none" stroke="#63b8ff" d="M109.43,-84C120.71,-84 132.68,-84 144.19,-84"/>
<polygon fill="#63b8ff" stroke="#63b8ff" points="143.98,-87.5 153.98,-84 143.98,-80.5 143.98,-87.5"/>
</a>
</g>
</g>
<!-- Node6 -->
<g id="Node000006" class="node">
<title>Node6</title>
<g id="a_Node000006"><a xlink:href="classxpath__ast__node.html#ae5a059e41b41505bef1f7dbebda8070b" target="_top" xlink:title=" ">
<polygon fill="white" stroke="#666666" points="263.38,-32 148.38,-32 148.38,0 263.38,0 263.38,-32"/>
<text xml:space="preserve" text-anchor="start" x="156.38" y="-18.5" font-family="Helvetica,sans-Serif" font-size="10.00">xpath_ast_node::xpath</text>
<text xml:space="preserve" text-anchor="middle" x="205.88" y="-6.5" font-family="Helvetica,sans-Serif" font-size="10.00">_ast_node</text>
</a>
</g>
</g>
<!-- Node1&#45;&gt;Node6 -->
<g id="edge5_Node000001_Node000006" class="edge">
<title>Node1&#45;&gt;Node6</title>
<g id="a_edge5_Node000001_Node000006"><a xlink:title=" ">
<path fill="none" stroke="#63b8ff" d="M91.66,-67.54C111.77,-58.39 137.01,-46.9 158.55,-37.09"/>
<polygon fill="#63b8ff" stroke="#63b8ff" points="159.76,-40.38 167.41,-33.05 156.86,-34.01 159.76,-40.38"/>
</a>
</g>
</g>
<!-- Node4 -->
<g id="Node000004" class="node">
<title>Node4</title>
<g id="a_Node000004"><a xlink:href="classxpath__string.html#a6c415f55011c6b816446d7454d1e9d2c" target="_top" xlink:title=" ">
<polygon fill="white" stroke="#666666" points="402,-125 302.75,-125 302.75,-93 402,-93 402,-125"/>
<text xml:space="preserve" text-anchor="start" x="310.75" y="-111.5" font-family="Helvetica,sans-Serif" font-size="10.00">xpath_string::xpath</text>
<text xml:space="preserve" text-anchor="middle" x="352.38" y="-99.5" font-family="Helvetica,sans-Serif" font-size="10.00">_string</text>
</a>
</g>
</g>
<!-- Node3&#45;&gt;Node4 -->
<g id="edge3_Node000003_Node000004" class="edge">
<title>Node3&#45;&gt;Node4</title>
<g id="a_edge3_Node000003_Node000004"><a xlink:title=" ">
<path fill="none" stroke="#63b8ff" d="M256.2,-92.53C267.48,-94.48 279.58,-96.58 291.26,-98.6"/>
<polygon fill="#63b8ff" stroke="#63b8ff" points="290.33,-101.99 300.78,-100.25 291.52,-95.09 290.33,-101.99"/>
</a>
</g>
</g>
<!-- Node5 -->
<g id="Node000005" class="node">
<title>Node5</title>
<g id="a_Node000005"><a xlink:href="classxpath__string.html#a93704af22ba77956cae8ec65f84658d8" target="_top" xlink:title=" ">
<polygon fill="white" stroke="#666666" points="402,-75 302.75,-75 302.75,-43 402,-43 402,-75"/>
<text xml:space="preserve" text-anchor="start" x="310.75" y="-61.5" font-family="Helvetica,sans-Serif" font-size="10.00">xpath_string::xpath</text>
<text xml:space="preserve" text-anchor="middle" x="352.38" y="-49.5" font-family="Helvetica,sans-Serif" font-size="10.00">_string</text>
</a>
</g>
</g>
<!-- Node3&#45;&gt;Node5 -->
<g id="edge4_Node000003_Node000005" class="edge">
<title>Node3&#45;&gt;Node5</title>
<g id="a_edge4_Node000003_Node000005"><a xlink:title=" ">
<path fill="none" stroke="#63b8ff" d="M256.2,-75.47C267.48,-73.52 279.58,-71.42 291.26,-69.4"/>
<polygon fill="#63b8ff" stroke="#63b8ff" points="291.52,-72.91 300.78,-67.75 290.33,-66.01 291.52,-72.91"/>
</a>
</g>
</g>
<!-- Node6&#45;&gt;Node6 -->
<g id="edge6_Node000006_Node000006" class="edge">
<title>Node6&#45;&gt;Node6</title>
<g id="a_edge6_Node000006_Node000006"><a xlink:title=" ">
<path fill="none" stroke="#63b8ff" d="M179.72,-32.44C174.84,-41.58 183.56,-50 205.88,-50 218.08,-50 226.22,-47.48 230.29,-43.71"/>
<polygon fill="#63b8ff" stroke="#63b8ff" points="233.73,-44.36 231.8,-33.94 226.81,-43.29 233.73,-44.36"/>
</a>
</g>
</g>
</g>
</svg>
