<?xml version="1.0" encoding="UTF-8" standalone="no"?>
<!DOCTYPE svg PUBLIC "-//W3C//DTD SVG 1.1//EN"
 "http://www.w3.org/Graphics/SVG/1.1/DTD/svg11.dtd">
<!-- Generated by graphviz version 14.1.2 (20260124.0452)
 -->
<!-- Title: GERenderingContext::createShaderModule Pages: 1 -->
<svg width="644pt" height="102pt"
 viewBox="0.00 0.00 644.00 102.00" xmlns="http://www.w3.org/2000/svg" xmlns:xlink="http://www.w3.org/1999/xlink">
<g id="graph0" class="graph" transform="scale(1 1) rotate(0) translate(4 98)">
<title>GERenderingContext::createShaderModule</title>
<!-- Node1 -->
<g id="Node000001" class="node">
<title>Node1</title>
<g id="a_Node000001"><a xlink:title="Crea un shader a partir de su código en SPIR&#45;V.">
<polygon fill="#999999" stroke="#666666" points="635.5,-60 524.25,-60 524.25,-28 635.5,-28 635.5,-60"/>
<text xml:space="preserve" text-anchor="start" x="532.25" y="-46.5" font-family="Helvetica,sans-Serif" font-size="10.00">GERenderingContext</text>
<text xml:space="preserve" text-anchor="middle" x="579.88" y="-34.5" font-family="Helvetica,sans-Serif" font-size="10.00">::createShaderModule</text>
</a>
</g>
</g>
<!-- Node2 -->
<g id="Node000002" class="node">
<title>Node2</title>
<g id="a_Node000002"><a xlink:href="class_g_e_rendering_context.html#a30b91a68b3ab264ec7943ba1ffa14f96" target="_top" xlink:title="Crea la información sobre el Fragment Shader.">
<polygon fill="white" stroke="#666666" points="472.12,-94 325.62,-94 325.62,-50 472.12,-50 472.12,-94"/>
<text xml:space="preserve" text-anchor="start" x="333.62" y="-80.5" font-family="Helvetica,sans-Serif" font-size="10.00">GERenderingContext</text>
<text xml:space="preserve" text-anchor="start" x="333.62" y="-68.5" font-family="Helvetica,sans-Serif" font-size="10.00">::createFragmentShaderStage</text>
<text xml:space="preserve" text-anchor="middle" x="398.88" y="-56.5" font-family="Helvetica,sans-Serif" font-size="10.00">CreateInfo</text>
</a>
</g>
</g>
<!-- Node1&#45;&gt;Node2 -->
<g id="edge1_Node000001_Node000002" class="edge">
<title>Node1&#45;&gt;Node2</title>
<g id="a_edge1_Node000001_Node000002"><a xlink:title=" ">
<path fill="none" stroke="#63b8ff" d="M512.83,-54.33C499.65,-56.39 485.75,-58.57 472.36,-60.66"/>
<polygon fill="#63b8ff" stroke="#63b8ff" points="513.36,-57.79 522.7,-52.79 512.28,-50.87 513.36,-57.79"/>
</a>
</g>
</g>
<!-- Node5 -->
<g id="Node000005" class="node">
<title>Node5</title>
<g id="a_Node000005"><a xlink:href="class_g_e_rendering_context.html#aa10b997efa5b9408fefb7bbefff219cf" target="_top" xlink:title="Crea la información sobre el Vertex Shader.">
<polygon fill="white" stroke="#666666" points="488.25,-32 309.5,-32 309.5,0 488.25,0 488.25,-32"/>
<text xml:space="preserve" text-anchor="start" x="317.5" y="-18.5" font-family="Helvetica,sans-Serif" font-size="10.00">GERenderingContext</text>
<text xml:space="preserve" text-anchor="middle" x="398.88" y="-6.5" font-family="Helvetica,sans-Serif" font-size="10.00">::createVertexShaderStageCreateInfo</text>
</a>
</g>
</g>
<!-- Node1&#45;&gt;Node5 -->
<g id="edge4_Node000001_Node000005" class="edge">
<title>Node1&#45;&gt;Node5</title>
<g id="a_edge4_Node000001_Node000005"><a xlink:title=" ">
<path fill="none" stroke="#63b8ff" d="M513.09,-33.71C505.08,-32.46 496.8,-31.16 488.53,-29.87"/>
<polygon fill="#63b8ff" stroke="#63b8ff" points="512.28,-37.13 522.7,-35.21 513.36,-30.21 512.28,-37.13"/>
</a>
</g>
</g>
<!-- Node3 -->
<g id="Node000003" class="node">
<title>Node3</title>
<g id="a_Node000003"><a xlink:href="class_g_e_rendering_context.html#aba96e7a9f6699afaa6b695cb3e7373e2" target="_top" xlink:title="Crea el Pipeline de renderizado.">
<polygon fill="white" stroke="#666666" points="273.5,-60 151,-60 151,-28 273.5,-28 273.5,-60"/>
<text xml:space="preserve" text-anchor="start" x="159" y="-46.5" font-family="Helvetica,sans-Serif" font-size="10.00">GERenderingContext</text>
<text xml:space="preserve" text-anchor="middle" x="212.25" y="-34.5" font-family="Helvetica,sans-Serif" font-size="10.00">::createGraphicsPipeline</text>
</a>
</g>
</g>
<!-- Node2&#45;&gt;Node3 -->
<g id="edge2_Node000002_Node000003" class="edge">
<title>Node2&#45;&gt;Node3</title>
<g id="a_edge2_Node000002_Node000003"><a xlink:title=" ">
<path fill="none" stroke="#63b8ff" d="M313.94,-59.27C300.47,-57.23 286.76,-55.15 273.97,-53.21"/>
<polygon fill="#63b8ff" stroke="#63b8ff" points="313.26,-62.71 323.67,-60.75 314.31,-55.79 313.26,-62.71"/>
</a>
</g>
</g>
<!-- Node4 -->
<g id="Node000004" class="node">
<title>Node4</title>
<g id="a_Node000004"><a xlink:href="class_g_e_rendering_context.html#a6cd622aab40a887d134dd524bac920b8" target="_top" xlink:title="Construye el contexto de renderizado (render pass, pipeline y framebuffers).">
<polygon fill="white" stroke="#666666" points="115,-60 0,-60 0,-28 115,-28 115,-60"/>
<text xml:space="preserve" text-anchor="start" x="8" y="-46.5" font-family="Helvetica,sans-Serif" font-size="10.00">GERenderingContext</text>
<text xml:space="preserve" text-anchor="middle" x="57.5" y="-34.5" font-family="Helvetica,sans-Serif" font-size="10.00">::GERenderingContext</text>
</a>
</g>
</g>
<!-- Node3&#45;&gt;Node4 -->
<g id="edge3_Node000003_Node000004" class="edge">
<title>Node3&#45;&gt;Node4</title>
<g id="a_edge3_Node000003_Node000004"><a xlink:title=" ">
<path fill="none" stroke="#63b8ff" d="M139.54,-44C131.46,-44 123.3,-44 115.45,-44"/>
<polygon fill="#63b8ff" stroke="#63b8ff" points="139.37,-47.5 149.37,-44 139.37,-40.5 139.37,-47.5"/>
</a>
</g>
</g>
<!-- Node5&#45;&gt;Node3 -->
<g id="edge5_Node000005_Node000003" class="edge">
<title>Node5&#45;&gt;Node3</title>
<g id="a_edge5_Node000005_Node000003"><a xlink:title=" ">
<path fill="none" stroke="#63b8ff" d="M297.91,-31.16C289.73,-32.4 281.64,-33.63 273.89,-34.8"/>
<polygon fill="#63b8ff" stroke="#63b8ff" points="298.22,-34.65 307.58,-29.69 297.17,-27.73 298.22,-34.65"/>
</a>
</g>
</g>
</g>
</svg>
