<?xml version="1.0" encoding="UTF-8" standalone="no"?>
<!DOCTYPE svg PUBLIC "-//W3C//DTD SVG 1.1//EN"
 "http://www.w3.org/Graphics/SVG/1.1/DTD/svg11.dtd">
<!-- Generated by graphviz version 14.1.2 (20260124.0452)
 -->
<!-- Title: pugi::xml_node::find_node Pages: 1 -->
<svg width="455pt" height="166pt"
 viewBox="0.00 0.00 455.00 166.00" xmlns="http://www.w3.org/2000/svg" xmlns:xlink="http://www.w3.org/1999/xlink">
<g id="graph0" class="graph" transform="scale(1 1) rotate(0) translate(4 162)">
<title>pugi::xml_node::find_node</title>
<!-- Node1 -->
<g id="Node000001" class="node">
<title>Node1</title>
<g id="a_Node000001"><a xlink:title=" ">
<polygon fill="#999999" stroke="#666666" points="130,-86 0,-86 0,-66 130,-66 130,-86"/>
<text xml:space="preserve" text-anchor="middle" x="65" y="-72.5" font-family="Helvetica,sans-Serif" font-size="10.00">pugi::xml_node::find_node</text>
</a>
</g>
</g>
<!-- Node2 -->
<g id="Node000002" class="node">
<title>Node2</title>
<g id="a_Node000002"><a xlink:href="classpugi_1_1xml__node.html#ac83ede17542137999d86f4e5dcc2c356" target="_top" xlink:title=" ">
<polygon fill="white" stroke="#666666" points="275.75,-158 171.25,-158 171.25,-126 275.75,-126 275.75,-158"/>
<text xml:space="preserve" text-anchor="start" x="179.25" y="-144.5" font-family="Helvetica,sans-Serif" font-size="10.00">pugi::xml_node::first</text>
<text xml:space="preserve" text-anchor="middle" x="223.5" y="-132.5" font-family="Helvetica,sans-Serif" font-size="10.00">_child</text>
</a>
</g>
</g>
<!-- Node1&#45;&gt;Node2 -->
<g id="edge1_Node000001_Node000002" class="edge">
<title>Node1&#45;&gt;Node2</title>
<g id="a_edge1_Node000001_Node000002"><a xlink:title=" ">
<path fill="none" stroke="#63b8ff" d="M90.8,-86.46C112.79,-95.73 145.56,-109.55 172.92,-121.09"/>
<polygon fill="#63b8ff" stroke="#63b8ff" points="171.52,-124.3 182.09,-124.96 174.24,-117.85 171.52,-124.3"/>
</a>
</g>
</g>
<!-- Node3 -->
<g id="Node000003" class="node">
<title>Node3</title>
<g id="a_Node000003"><a xlink:href="classpugi_1_1xml__node.html#a4641476ddd4869da18f0738186b17368" target="_top" xlink:title=" ">
<polygon fill="white" stroke="#666666" points="447,-86 317,-86 317,-66 447,-66 447,-86"/>
<text xml:space="preserve" text-anchor="middle" x="382" y="-72.5" font-family="Helvetica,sans-Serif" font-size="10.00">pugi::xml_node::xml_node</text>
</a>
</g>
</g>
<!-- Node1&#45;&gt;Node3 -->
<g id="edge7_Node000001_Node000003" class="edge">
<title>Node1&#45;&gt;Node3</title>
<g id="a_edge7_Node000001_Node000003"><a xlink:title=" ">
<path fill="none" stroke="#63b8ff" d="M130.28,-78.21C142.15,-78.54 154.45,-78.83 166,-79 217.11,-79.77 229.89,-79.77 281,-79 288.85,-78.88 297.04,-78.71 305.22,-78.51"/>
<polygon fill="#63b8ff" stroke="#63b8ff" points="305.3,-82.01 315.21,-78.25 305.12,-75.01 305.3,-82.01"/>
</a>
</g>
</g>
<!-- Node4 -->
<g id="Node000004" class="node">
<title>Node4</title>
<g id="a_Node000004"><a xlink:href="classpugi_1_1xml__node.html#ae157b9c76f71e7c417a2dda8da489bab" target="_top" xlink:title=" ">
<polygon fill="white" stroke="#666666" points="276.88,-70 170.12,-70 170.12,-38 276.88,-38 276.88,-70"/>
<text xml:space="preserve" text-anchor="start" x="178.12" y="-56.5" font-family="Helvetica,sans-Serif" font-size="10.00">pugi::xml_node::next</text>
<text xml:space="preserve" text-anchor="middle" x="223.5" y="-44.5" font-family="Helvetica,sans-Serif" font-size="10.00">_sibling</text>
</a>
</g>
</g>
<!-- Node1&#45;&gt;Node4 -->
<g id="edge3_Node000001_Node000004" class="edge">
<title>Node1&#45;&gt;Node4</title>
<g id="a_edge3_Node000001_Node000004"><a xlink:title=" ">
<path fill="none" stroke="#63b8ff" d="M130.11,-66.99C139.47,-65.67 149.11,-64.32 158.47,-63"/>
<polygon fill="#63b8ff" stroke="#63b8ff" points="158.8,-66.49 168.21,-61.63 157.82,-59.56 158.8,-66.49"/>
</a>
</g>
</g>
<!-- Node5 -->
<g id="Node000005" class="node">
<title>Node5</title>
<g id="a_Node000005"><a xlink:href="classpugi_1_1xml__node.html#a09d3ce003534139d4cf3d125dcfdac89" target="_top" xlink:title=" ">
<polygon fill="white" stroke="#666666" points="281,-20 166,-20 166,0 281,0 281,-20"/>
<text xml:space="preserve" text-anchor="middle" x="223.5" y="-6.5" font-family="Helvetica,sans-Serif" font-size="10.00">pugi::xml_node::parent</text>
</a>
</g>
</g>
<!-- Node1&#45;&gt;Node5 -->
<g id="edge5_Node000001_Node000005" class="edge">
<title>Node1&#45;&gt;Node5</title>
<g id="a_edge5_Node000001_Node000005"><a xlink:title=" ">
<path fill="none" stroke="#63b8ff" d="M86.38,-65.58C106.37,-55.55 137.87,-40.3 166,-29 170.1,-27.35 174.4,-25.73 178.72,-24.17"/>
<polygon fill="#63b8ff" stroke="#63b8ff" points="179.7,-27.53 187.98,-20.92 177.38,-20.93 179.7,-27.53"/>
</a>
</g>
</g>
<!-- Node2&#45;&gt;Node3 -->
<g id="edge2_Node000002_Node000003" class="edge">
<title>Node2&#45;&gt;Node3</title>
<g id="a_edge2_Node000002_Node000003"><a xlink:title=" ">
<path fill="none" stroke="#63b8ff" d="M263.59,-125.52C288.87,-114.85 321.5,-101.09 345.94,-90.79"/>
<polygon fill="#63b8ff" stroke="#63b8ff" points="347.29,-94.02 355.14,-86.9 344.57,-87.57 347.29,-94.02"/>
</a>
</g>
</g>
<!-- Node4&#45;&gt;Node3 -->
<g id="edge4_Node000004_Node000003" class="edge">
<title>Node4&#45;&gt;Node3</title>
<g id="a_edge4_Node000004_Node000003"><a xlink:title=" ">
<path fill="none" stroke="#63b8ff" d="M277.05,-61.39C286.17,-62.67 295.83,-64.03 305.42,-65.38"/>
<polygon fill="#63b8ff" stroke="#63b8ff" points="304.74,-68.81 315.13,-66.74 305.72,-61.88 304.74,-68.81"/>
</a>
</g>
</g>
<!-- Node5&#45;&gt;Node3 -->
<g id="edge6_Node000005_Node000003" class="edge">
<title>Node5&#45;&gt;Node3</title>
<g id="a_edge6_Node000005_Node000003"><a xlink:title=" ">
<path fill="none" stroke="#63b8ff" d="M257.6,-20.42C265.34,-23.05 273.51,-25.99 281,-29 304.73,-38.53 330.86,-50.88 350.46,-60.53"/>
<polygon fill="#63b8ff" stroke="#63b8ff" points="348.75,-63.59 359.27,-64.9 351.87,-57.32 348.75,-63.59"/>
</a>
</g>
</g>
</g>
</svg>
