<?xml version="1.0" encoding="UTF-8" standalone="no"?>
<!DOCTYPE svg PUBLIC "-//W3C//DTD SVG 1.1//EN"
 "http://www.w3.org/Graphics/SVG/1.1/DTD/svg11.dtd">
<!-- Generated by graphviz version 14.1.2 (20260124.0452)
 -->
<!-- Title: pugi::xml_node_iterator Pages: 1 -->
<svg width="209pt" height="326pt"
 viewBox="0.00 0.00 209.00 326.00" xmlns="http://www.w3.org/2000/svg" xmlns:xlink="http://www.w3.org/1999/xlink">
<g id="graph0" class="graph" transform="scale(1 1) rotate(0) translate(4 322)">
<title>pugi::xml_node_iterator</title>
<!-- Node1 -->
<g id="Node000001" class="node">
<title>Node1</title>
<g id="a_Node000001"><a xlink:title=" ">
<polygon fill="#999999" stroke="#666666" points="117.25,-20 0,-20 0,0 117.25,0 117.25,-20"/>
<text xml:space="preserve" text-anchor="middle" x="58.62" y="-6.5" font-family="Helvetica,sans-Serif" font-size="10.00">pugi::xml_node_iterator</text>
</a>
</g>
</g>
<!-- Node2 -->
<g id="Node000002" class="node">
<title>Node2</title>
<g id="a_Node000002"><a xlink:href="classpugi_1_1xml__node.html" target="_top" xlink:title=" ">
<polygon fill="white" stroke="#666666" points="99.62,-110 17.62,-110 17.62,-90 99.62,-90 99.62,-110"/>
<text xml:space="preserve" text-anchor="middle" x="58.62" y="-96.5" font-family="Helvetica,sans-Serif" font-size="10.00">pugi::xml_node</text>
</a>
</g>
</g>
<!-- Node2&#45;&gt;Node1 -->
<g id="edge1_Node000001_Node000002" class="edge">
<title>Node2&#45;&gt;Node1</title>
<g id="a_edge1_Node000001_Node000002"><a xlink:title=" ">
<path fill="none" stroke="#9a32cd" stroke-dasharray="5,2" d="M58.62,-78.09C58.62,-59.77 58.62,-34.01 58.62,-20.35"/>
<polygon fill="#9a32cd" stroke="#9a32cd" points="55.13,-78.07 58.63,-88.07 62.13,-78.07 55.13,-78.07"/>
</a>
</g>
<text xml:space="preserve" text-anchor="start" x="61.62" y="-59.5" font-family="Helvetica,sans-Serif" font-size="10.00" fill="grey">_parent</text>
<text xml:space="preserve" text-anchor="start" x="61.62" y="-43.5" font-family="Helvetica,sans-Serif" font-size="10.00" fill="grey">_wrap</text>
</g>
<!-- Node3 -->
<g id="Node000003" class="node">
<title>Node3</title>
<g id="a_Node000003"><a xlink:href="structpugi_1_1xml__node__struct.html" target="_top" xlink:title=" ">
<polygon fill="white" stroke="#666666" points="114.62,-207 2.62,-207 2.62,-187 114.62,-187 114.62,-207"/>
<text xml:space="preserve" text-anchor="middle" x="58.62" y="-193.5" font-family="Helvetica,sans-Serif" font-size="10.00">pugi::xml_node_struct</text>
</a>
</g>
</g>
<!-- Node3&#45;&gt;Node2 -->
<g id="edge2_Node000002_Node000003" class="edge">
<title>Node3&#45;&gt;Node2</title>
<g id="a_edge2_Node000002_Node000003"><a xlink:title=" ">
<path fill="none" stroke="#9a32cd" stroke-dasharray="5,2" d="M58.62,-175.18C58.62,-155.03 58.62,-125.4 58.62,-110.42"/>
<polygon fill="#9a32cd" stroke="#9a32cd" points="55.13,-175.03 58.63,-185.03 62.13,-175.03 55.13,-175.03"/>
</a>
</g>
<text xml:space="preserve" text-anchor="start" x="61.62" y="-133.5" font-family="Helvetica,sans-Serif" font-size="10.00" fill="grey">_root</text>
</g>
<!-- Node3&#45;&gt;Node3 -->
<g id="edge3_Node000003_Node000003" class="edge">
<title>Node3&#45;&gt;Node3</title>
<g id="a_edge3_Node000003_Node000003"><a xlink:title=" ">
<path fill="none" stroke="#9a32cd" stroke-dasharray="5,2" d="M103.56,-208.24C119.58,-208.46 132.62,-204.71 132.62,-197 132.62,-187.51 112.87,-184.02 92.11,-186.54"/>
<polygon fill="#9a32cd" stroke="#9a32cd" points="103.84,-204.75 93.62,-207.56 103.36,-211.74 103.84,-204.75"/>
</a>
</g>
<text xml:space="preserve" text-anchor="start" x="135.62" y="-217.5" font-family="Helvetica,sans-Serif" font-size="10.00" fill="grey">first_child</text>
<text xml:space="preserve" text-anchor="start" x="135.62" y="-201.5" font-family="Helvetica,sans-Serif" font-size="10.00" fill="grey">next_sibling</text>
<text xml:space="preserve" text-anchor="start" x="135.62" y="-185.5" font-family="Helvetica,sans-Serif" font-size="10.00" fill="grey">parent</text>
<text xml:space="preserve" text-anchor="start" x="135.62" y="-169.5" font-family="Helvetica,sans-Serif" font-size="10.00" fill="grey">prev_sibling_c</text>
</g>
<!-- Node4 -->
<g id="Node000004" class="node">
<title>Node4</title>
<g id="a_Node000004"><a xlink:href="structpugi_1_1xml__attribute__struct.html" target="_top" xlink:title=" ">
<polygon fill="white" stroke="#666666" points="106.75,-317 10.5,-317 10.5,-285 106.75,-285 106.75,-317"/>
<text xml:space="preserve" text-anchor="start" x="18.5" y="-303.5" font-family="Helvetica,sans-Serif" font-size="10.00">pugi::xml_attribute</text>
<text xml:space="preserve" text-anchor="middle" x="58.62" y="-291.5" font-family="Helvetica,sans-Serif" font-size="10.00">_struct</text>
</a>
</g>
</g>
<!-- Node4&#45;&gt;Node3 -->
<g id="edge4_Node000003_Node000004" class="edge">
<title>Node4&#45;&gt;Node3</title>
<g id="a_edge4_Node000003_Node000004"><a xlink:title=" ">
<path fill="none" stroke="#9a32cd" stroke-dasharray="5,2" d="M58.62,-273.04C58.62,-251.28 58.62,-221.95 58.62,-207.23"/>
<polygon fill="#9a32cd" stroke="#9a32cd" points="55.13,-272.99 58.63,-282.99 62.13,-272.99 55.13,-272.99"/>
</a>
</g>
<text xml:space="preserve" text-anchor="start" x="61.62" y="-253.5" font-family="Helvetica,sans-Serif" font-size="10.00" fill="grey">first_attribute</text>
</g>
<!-- Node4&#45;&gt;Node4 -->
<g id="edge5_Node000004_Node000004" class="edge">
<title>Node4&#45;&gt;Node4</title>
<g id="a_edge5_Node000004_Node000004"><a xlink:title=" ">
<path fill="none" stroke="#9a32cd" stroke-dasharray="5,2" d="M118.2,-306.97C122.27,-305.6 124.75,-303.61 124.75,-301 124.75,-296.49 117.33,-293.83 107.06,-293.02"/>
<polygon fill="#9a32cd" stroke="#9a32cd" points="117.77,-303.49 108.55,-308.71 119.02,-310.38 117.77,-303.49"/>
</a>
</g>
<text xml:space="preserve" text-anchor="start" x="127.75" y="-305.5" font-family="Helvetica,sans-Serif" font-size="10.00" fill="grey">next_attribute</text>
<text xml:space="preserve" text-anchor="start" x="127.75" y="-289.5" font-family="Helvetica,sans-Serif" font-size="10.00" fill="grey">prev_attribute_c</text>
</g>
</g>
</svg>
