<?xml version="1.0" encoding="UTF-8" standalone="no"?>
<!DOCTYPE svg PUBLIC "-//W3C//DTD SVG 1.1//EN"
 "http://www.w3.org/Graphics/SVG/1.1/DTD/svg11.dtd">
<!-- Generated by graphviz version 14.1.2 (20260124.0452)
 -->
<!-- Title: GEApplication::resize Pages: 1 -->
<svg width="663pt" height="40pt"
 viewBox="0.00 0.00 663.00 40.00" xmlns="http://www.w3.org/2000/svg" xmlns:xlink="http://www.w3.org/1999/xlink">
<g id="graph0" class="graph" transform="scale(1 1) rotate(0) translate(4 36)">
<title>GEApplication::resize</title>
<!-- Node1 -->
<g id="Node000001" class="node">
<title>Node1</title>
<g id="a_Node000001"><a xlink:title="Reconstruye los objetos con el nuevo tamaño de ventana.">
<polygon fill="#999999" stroke="#666666" points="654.5,-26 544,-26 544,-6 654.5,-6 654.5,-26"/>
<text xml:space="preserve" text-anchor="middle" x="599.25" y="-12.5" font-family="Helvetica,sans-Serif" font-size="10.00">GEApplication::resize</text>
</a>
</g>
</g>
<!-- Node2 -->
<g id="Node000002" class="node">
<title>Node2</title>
<g id="a_Node000002"><a xlink:href="class_g_e_application.html#ae38335734c12fd0bac757536085068fa" target="_top" xlink:title="Respuesta a un evento de redimensionamiento de la ventana.">
<polygon fill="white" stroke="#666666" points="508,-32 375,-32 375,0 508,0 508,-32"/>
<text xml:space="preserve" text-anchor="start" x="383" y="-18.5" font-family="Helvetica,sans-Serif" font-size="10.00">GEApplication::framebuffer</text>
<text xml:space="preserve" text-anchor="middle" x="441.5" y="-6.5" font-family="Helvetica,sans-Serif" font-size="10.00">ResizeCallback</text>
</a>
</g>
</g>
<!-- Node1&#45;&gt;Node2 -->
<g id="edge1_Node000001_Node000002" class="edge">
<title>Node1&#45;&gt;Node2</title>
<g id="a_edge1_Node000001_Node000002"><a xlink:title=" ">
<path fill="none" stroke="#63b8ff" d="M532.35,-16C524.44,-16 516.37,-16 508.46,-16"/>
<polygon fill="#63b8ff" stroke="#63b8ff" points="532.26,-19.5 542.26,-16 532.26,-12.5 532.26,-19.5"/>
</a>
</g>
</g>
<!-- Node3 -->
<g id="Node000003" class="node">
<title>Node3</title>
<g id="a_Node000003"><a xlink:href="class_g_e_application.html#ae473a6cb8cc8aa8a76a19a8df91d6e49" target="_top" xlink:title="Inicializa la ventana GLFW.">
<polygon fill="white" stroke="#666666" points="339,-26 206.75,-26 206.75,-6 339,-6 339,-26"/>
<text xml:space="preserve" text-anchor="middle" x="272.88" y="-12.5" font-family="Helvetica,sans-Serif" font-size="10.00">GEApplication::initWindow</text>
</a>
</g>
</g>
<!-- Node2&#45;&gt;Node3 -->
<g id="edge2_Node000002_Node000003" class="edge">
<title>Node2&#45;&gt;Node3</title>
<g id="a_edge2_Node000002_Node000003"><a xlink:title=" ">
<path fill="none" stroke="#63b8ff" d="M363.34,-16C355.29,-16 347.16,-16 339.25,-16"/>
<polygon fill="#63b8ff" stroke="#63b8ff" points="363.13,-19.5 373.13,-16 363.13,-12.5 363.13,-19.5"/>
</a>
</g>
</g>
<!-- Node4 -->
<g id="Node000004" class="node">
<title>Node4</title>
<g id="a_Node000004"><a xlink:href="class_g_e_application.html#a2a7d38dd9a5bca43fc115b09704915a4" target="_top" xlink:title="Ejecuta la aplicación.">
<polygon fill="white" stroke="#666666" points="170.75,-26 73,-26 73,-6 170.75,-6 170.75,-26"/>
<text xml:space="preserve" text-anchor="middle" x="121.88" y="-12.5" font-family="Helvetica,sans-Serif" font-size="10.00">GEApplication::run</text>
</a>
</g>
</g>
<!-- Node3&#45;&gt;Node4 -->
<g id="edge3_Node000003_Node000004" class="edge">
<title>Node3&#45;&gt;Node4</title>
<g id="a_edge3_Node000003_Node000004"><a xlink:title=" ">
<path fill="none" stroke="#63b8ff" d="M195.04,-16C186.91,-16 178.82,-16 171.15,-16"/>
<polygon fill="#63b8ff" stroke="#63b8ff" points="195.01,-19.5 205.01,-16 195.01,-12.5 195.01,-19.5"/>
</a>
</g>
</g>
<!-- Node5 -->
<g id="Node000005" class="node">
<title>Node5</title>
<g id="a_Node000005"><a xlink:href="main_8cpp.html#ae66f6b31b5ad750f1fe042a706a4e3d4" target="_top" xlink:title=" ">
<polygon fill="white" stroke="#666666" points="37,-26 0,-26 0,-6 37,-6 37,-26"/>
<text xml:space="preserve" text-anchor="middle" x="18.5" y="-12.5" font-family="Helvetica,sans-Serif" font-size="10.00">main</text>
</a>
</g>
</g>
<!-- Node4&#45;&gt;Node5 -->
<g id="edge4_Node000004_Node000005" class="edge">
<title>Node4&#45;&gt;Node5</title>
<g id="a_edge4_Node000004_Node000005"><a xlink:title=" ">
<path fill="none" stroke="#63b8ff" d="M61.33,-16C52.55,-16 44.14,-16 37.19,-16"/>
<polygon fill="#63b8ff" stroke="#63b8ff" points="61.05,-19.5 71.05,-16 61.05,-12.5 61.05,-19.5"/>
</a>
</g>
</g>
</g>
</svg>
