<?xml version="1.0" encoding="UTF-8" standalone="no"?>
<!DOCTYPE svg PUBLIC "-//W3C//DTD SVG 1.1//EN"
 "http://www.w3.org/Graphics/SVG/1.1/DTD/svg11.dtd">
<!-- Generated by graphviz version 14.1.2 (20260124.0452)
 -->
<!-- Title: pugi::xml_attribute::xml_attribute Pages: 1 -->
<!--zoomable 790 -->

<svg id="main" version="1.1" xmlns="http://www.w3.org/2000/svg" xmlns:xlink="http://www.w3.org/1999/xlink" xml:space="preserve" onload="init(evt)">

<style type="text/css"><![CDATA[
.node, .edge {opacity: 0.7;}
.node.selected, .edge.selected {opacity: 1;}
.edge:hover path { stroke: red; }
.edge:hover polygon { stroke: red; fill: red; }
]]></style>

<defs>
  <circle id="rim" cx="0" cy="0" r="7"/>
  <circle id="rim2" cx="0" cy="0" r="3.5"/>
  <g id="zoomPlus">
    <use xlink:href="#rim" fill="#404040"><set attributeName="fill" to="#808080" begin="zoomplus.mouseover" end="zoomplus.mouseout"/></use>
    <path d="M-4,0h8M0,-4v8" fill="none" stroke="white" stroke-width="1.5" pointer-events="none"/>
  </g>
  <g id="zoomMin">
    <use xlink:href="#rim" fill="#404040"><set attributeName="fill" to="#808080" begin="zoomminus.mouseover" end="zoomminus.mouseout"/></use>
    <path d="M-4,0h8" fill="none" stroke="white" stroke-width="1.5" pointer-events="none"/>
  </g>
  <g id="arrowUp" transform="translate(30 24)">
    <use xlink:href="#rim"/>
    <path pointer-events="none" fill="none" stroke="white" stroke-width="1.5" d="M0,-3.0v7 M-2.5,-0.5L0,-3.0L2.5,-0.5"/>
  </g>
  <g id="arrowRight" transform="rotate(90) translate(36 -43)">
    <use xlink:href="#rim"/>
    <path pointer-events="none" fill="none" stroke="white" stroke-width="1.5" d="M0,-3.0v7 M-2.5,-0.5L0,-3.0L2.5,-0.5"/>
  </g>
  <g id="arrowDown" transform="rotate(180) translate(-30 -48)">
    <use xlink:href="#rim"/>
    <path pointer-events="none" fill="none" stroke="white" stroke-width="1.5" d="M0,-3.0v7 M-2.5,-0.5L0,-3.0L2.5,-0.5"/>
  </g>
  <g id="arrowLeft" transform="rotate(270) translate(-36 17)">
    <use xlink:href="#rim"/>
    <path pointer-events="none" fill="none" stroke="white" stroke-width="1.5" d="M0,-3.0v7 M-2.5,-0.5L0,-3.0L2.5,-0.5"/>
  </g>
  <g id="resetDef">
    <use xlink:href="#rim2" fill="#404040"><set attributeName="fill" to="#808080" begin="reset.mouseover" end="reset.mouseout"/></use>
  </g>
</defs>
<script type="application/ecmascript">
var viewWidth = 240;
var viewHeight = 790;
var sectionId = 'dynsection-1';
</script>
<script type="application/ecmascript" xlink:href="svg.min.js"/>
<svg id="graph" class="graph">
<g id="viewport">
<title>pugi::xml_attribute::xml_attribute</title>
<!-- Node1 -->
<g id="Node000001" class="node">
<title>Node1</title>
<g id="a_Node000001"><a xlink:title=" ">
<polygon fill="#999999" stroke="#666666" points="231.5,-407 135.25,-407 135.25,-375 231.5,-375 231.5,-407"/>
<text xml:space="preserve" text-anchor="start" x="143.25" y="-393.5" font-family="Helvetica,sans-Serif" font-size="10.00">pugi::xml_attribute</text>
<text xml:space="preserve" text-anchor="middle" x="183.38" y="-381.5" font-family="Helvetica,sans-Serif" font-size="10.00">::xml_attribute</text>
</a>
</g>
</g>
<!-- Node2 -->
<g id="Node000002" class="node">
<title>Node2</title>
<g id="a_Node000002"><a xlink:href="classpugi_1_1xml__attribute.html#ab33a805824b318b7908bc9a64c0b60a5" target="_top" xlink:title=" ">
<polygon fill="white" stroke="#666666" points="97.75,-782 1.5,-782 1.5,-750 97.75,-750 97.75,-782"/>
<text xml:space="preserve" text-anchor="start" x="9.5" y="-768.5" font-family="Helvetica,sans-Serif" font-size="10.00">pugi::xml_attribute</text>
<text xml:space="preserve" text-anchor="middle" x="49.62" y="-756.5" font-family="Helvetica,sans-Serif" font-size="10.00">::next_attribute</text>
</a>
</g>
</g>
<!-- Node1&#45;&gt;Node2 -->
<g id="edge1_Node000001_Node000002" class="edge">
<title>Node1&#45;&gt;Node2</title>
<g id="a_edge1_Node000001_Node000002"><a xlink:title=" ">
<path fill="none" stroke="#63b8ff" d="M183.23,-418.75C183.77,-482.63 176.7,-642.13 99.25,-741 96.67,-744.29 93.55,-747.18 90.14,-749.73"/>
<polygon fill="#63b8ff" stroke="#63b8ff" points="186.73,-418.75 183.07,-408.81 179.73,-418.87 186.73,-418.75"/>
</a>
</g>
</g>
<!-- Node3 -->
<g id="Node000003" class="node">
<title>Node3</title>
<g id="a_Node000003"><a xlink:href="classpugi_1_1xml__attribute.html#a0ab90376d68a2f634c73ae324d07c29e" target="_top" xlink:title=" ">
<polygon fill="white" stroke="#666666" points="97.75,-732 1.5,-732 1.5,-700 97.75,-700 97.75,-732"/>
<text xml:space="preserve" text-anchor="start" x="9.5" y="-718.5" font-family="Helvetica,sans-Serif" font-size="10.00">pugi::xml_attribute</text>
<text xml:space="preserve" text-anchor="middle" x="49.62" y="-706.5" font-family="Helvetica,sans-Serif" font-size="10.00">::operator!=</text>
</a>
</g>
</g>
<!-- Node1&#45;&gt;Node3 -->
<g id="edge2_Node000001_Node000003" class="edge">
<title>Node1&#45;&gt;Node3</title>
<g id="a_edge2_Node000001_Node000003"><a xlink:title=" ">
<path fill="none" stroke="#63b8ff" d="M181.86,-418.67C179.4,-475.85 166.31,-608.6 99.25,-691 96.61,-694.24 93.45,-697.1 90.01,-699.63"/>
<polygon fill="#63b8ff" stroke="#63b8ff" points="185.35,-418.98 182.19,-408.86 178.35,-418.74 185.35,-418.98"/>
</a>
</g>
</g>
<!-- Node4 -->
<g id="Node000004" class="node">
<title>Node4</title>
<g id="a_Node000004"><a xlink:href="classpugi_1_1xml__attribute.html#a896ba92069ffc9d0459a08565ccd53c4" target="_top" xlink:title=" ">
<polygon fill="white" stroke="#666666" points="97.75,-682 1.5,-682 1.5,-650 97.75,-650 97.75,-682"/>
<text xml:space="preserve" text-anchor="start" x="9.5" y="-668.5" font-family="Helvetica,sans-Serif" font-size="10.00">pugi::xml_attribute</text>
<text xml:space="preserve" text-anchor="middle" x="49.62" y="-656.5" font-family="Helvetica,sans-Serif" font-size="10.00">::operator&lt;</text>
</a>
</g>
</g>
<!-- Node1&#45;&gt;Node4 -->
<g id="edge3_Node000001_Node000004" class="edge">
<title>Node1&#45;&gt;Node4</title>
<g id="a_edge3_Node000001_Node000004"><a xlink:title=" ">
<path fill="none" stroke="#63b8ff" d="M179.96,-418.83C174.27,-468.85 155.9,-574.88 99.25,-641 96.41,-644.32 93.02,-647.25 89.37,-649.83"/>
<polygon fill="#63b8ff" stroke="#63b8ff" points="183.44,-419.2 180.99,-408.89 176.48,-418.47 183.44,-419.2"/>
</a>
</g>
</g>
<!-- Node5 -->
<g id="Node000005" class="node">
<title>Node5</title>
<g id="a_Node000005"><a xlink:href="classpugi_1_1xml__attribute.html#a07a856e255cc260ebca346aad5d55a06" target="_top" xlink:title=" ">
<polygon fill="white" stroke="#666666" points="97.75,-632 1.5,-632 1.5,-600 97.75,-600 97.75,-632"/>
<text xml:space="preserve" text-anchor="start" x="9.5" y="-618.5" font-family="Helvetica,sans-Serif" font-size="10.00">pugi::xml_attribute</text>
<text xml:space="preserve" text-anchor="middle" x="49.62" y="-606.5" font-family="Helvetica,sans-Serif" font-size="10.00">::operator&lt;=</text>
</a>
</g>
</g>
<!-- Node1&#45;&gt;Node5 -->
<g id="edge4_Node000001_Node000005" class="edge">
<title>Node1&#45;&gt;Node5</title>
<g id="a_edge4_Node000001_Node000005"><a xlink:title=" ">
<path fill="none" stroke="#63b8ff" d="M177.26,-418.53C168.2,-460.4 145.77,-540.56 99.25,-591 96.29,-594.21 92.82,-597.07 89.13,-599.61"/>
<polygon fill="#63b8ff" stroke="#63b8ff" points="180.67,-419.29 179.25,-408.79 173.81,-417.89 180.67,-419.29"/>
</a>
</g>
</g>
<!-- Node6 -->
<g id="Node000006" class="node">
<title>Node6</title>
<g id="a_Node000006"><a xlink:href="classpugi_1_1xml__attribute.html#aa7eea63df54bbabdaf47879fd4092545" target="_top" xlink:title=" ">
<polygon fill="white" stroke="#666666" points="97.75,-582 1.5,-582 1.5,-550 97.75,-550 97.75,-582"/>
<text xml:space="preserve" text-anchor="start" x="9.5" y="-568.5" font-family="Helvetica,sans-Serif" font-size="10.00">pugi::xml_attribute</text>
<text xml:space="preserve" text-anchor="middle" x="49.62" y="-556.5" font-family="Helvetica,sans-Serif" font-size="10.00">::operator=</text>
</a>
</g>
</g>
<!-- Node1&#45;&gt;Node6 -->
<g id="edge5_Node000001_Node000006" class="edge">
<title>Node1&#45;&gt;Node6</title>
<g id="a_edge5_Node000001_Node000006"><a xlink:title=" ">
<path fill="none" stroke="#63b8ff" d="M173.03,-417.99C160.57,-450.63 135.78,-505.59 99.25,-541 95.98,-544.17 92.22,-547.03 88.28,-549.59"/>
<polygon fill="#63b8ff" stroke="#63b8ff" points="176.22,-419.46 176.39,-408.87 169.65,-417.04 176.22,-419.46"/>
</a>
</g>
</g>
<!-- Node7 -->
<g id="Node000007" class="node">
<title>Node7</title>
<g id="a_Node000007"><a xlink:href="classpugi_1_1xml__attribute.html#a549f6c2f570c31c353baaf0b24b07d4c" target="_top" xlink:title=" ">
<polygon fill="white" stroke="#666666" points="97.75,-532 1.5,-532 1.5,-500 97.75,-500 97.75,-532"/>
<text xml:space="preserve" text-anchor="start" x="9.5" y="-518.5" font-family="Helvetica,sans-Serif" font-size="10.00">pugi::xml_attribute</text>
<text xml:space="preserve" text-anchor="middle" x="49.62" y="-506.5" font-family="Helvetica,sans-Serif" font-size="10.00">::operator=</text>
</a>
</g>
</g>
<!-- Node1&#45;&gt;Node7 -->
<g id="edge6_Node000001_Node000007" class="edge">
<title>Node1&#45;&gt;Node7</title>
<g id="a_edge6_Node000001_Node000007"><a xlink:title=" ">
<path fill="none" stroke="#63b8ff" d="M165.54,-416.58C150.23,-438.4 125.97,-469.56 99.25,-491 95.4,-494.09 91.11,-496.95 86.71,-499.56"/>
<polygon fill="#63b8ff" stroke="#63b8ff" points="168.3,-418.75 171.07,-408.52 162.53,-414.78 168.3,-418.75"/>
</a>
</g>
</g>
<!-- Node8 -->
<g id="Node000008" class="node">
<title>Node8</title>
<g id="a_Node000008"><a xlink:href="classpugi_1_1xml__attribute.html#aba9f1447cba8f87114c8e2ca76727b64" target="_top" xlink:title=" ">
<polygon fill="white" stroke="#666666" points="97.75,-482 1.5,-482 1.5,-450 97.75,-450 97.75,-482"/>
<text xml:space="preserve" text-anchor="start" x="9.5" y="-468.5" font-family="Helvetica,sans-Serif" font-size="10.00">pugi::xml_attribute</text>
<text xml:space="preserve" text-anchor="middle" x="49.62" y="-456.5" font-family="Helvetica,sans-Serif" font-size="10.00">::operator=</text>
</a>
</g>
</g>
<!-- Node1&#45;&gt;Node8 -->
<g id="edge7_Node000001_Node000008" class="edge">
<title>Node1&#45;&gt;Node8</title>
<g id="a_edge7_Node000001_Node000008"><a xlink:title=" ">
<path fill="none" stroke="#63b8ff" d="M146.44,-413.33C131.92,-422.16 114.91,-432.28 99.25,-441 94.11,-443.86 88.61,-446.81 83.22,-449.62"/>
<polygon fill="#63b8ff" stroke="#63b8ff" points="148.06,-416.44 154.77,-408.23 144.41,-410.47 148.06,-416.44"/>
</a>
</g>
</g>
<!-- Node9 -->
<g id="Node000009" class="node">
<title>Node9</title>
<g id="a_Node000009"><a xlink:href="classpugi_1_1xml__attribute.html#a56fe22cb0e7b08edfc3d43f91b771222" target="_top" xlink:title=" ">
<polygon fill="white" stroke="#666666" points="97.75,-432 1.5,-432 1.5,-400 97.75,-400 97.75,-432"/>
<text xml:space="preserve" text-anchor="start" x="9.5" y="-418.5" font-family="Helvetica,sans-Serif" font-size="10.00">pugi::xml_attribute</text>
<text xml:space="preserve" text-anchor="middle" x="49.62" y="-406.5" font-family="Helvetica,sans-Serif" font-size="10.00">::operator=</text>
</a>
</g>
</g>
<!-- Node1&#45;&gt;Node9 -->
<g id="edge8_Node000001_Node000009" class="edge">
<title>Node1&#45;&gt;Node9</title>
<g id="a_edge8_Node000001_Node000009"><a xlink:title=" ">
<path fill="none" stroke="#63b8ff" d="M123.7,-402.13C115.14,-403.76 106.42,-405.41 98.12,-406.99"/>
<polygon fill="#63b8ff" stroke="#63b8ff" points="124.15,-405.61 133.32,-400.31 122.85,-398.73 124.15,-405.61"/>
</a>
</g>
</g>
<!-- Node10 -->
<g id="Node000010" class="node">
<title>Node10</title>
<g id="a_Node000010"><a xlink:href="classpugi_1_1xml__attribute.html#a7379208969fffc103d16f536e3ccc889" target="_top" xlink:title=" ">
<polygon fill="white" stroke="#666666" points="97.75,-382 1.5,-382 1.5,-350 97.75,-350 97.75,-382"/>
<text xml:space="preserve" text-anchor="start" x="9.5" y="-368.5" font-family="Helvetica,sans-Serif" font-size="10.00">pugi::xml_attribute</text>
<text xml:space="preserve" text-anchor="middle" x="49.62" y="-356.5" font-family="Helvetica,sans-Serif" font-size="10.00">::operator=</text>
</a>
</g>
</g>
<!-- Node1&#45;&gt;Node10 -->
<g id="edge9_Node000001_Node000010" class="edge">
<title>Node1&#45;&gt;Node10</title>
<g id="a_edge9_Node000001_Node000010"><a xlink:title=" ">
<path fill="none" stroke="#63b8ff" d="M123.7,-379.87C115.14,-378.24 106.42,-376.59 98.12,-375.01"/>
<polygon fill="#63b8ff" stroke="#63b8ff" points="122.85,-383.27 133.32,-381.69 124.15,-376.39 122.85,-383.27"/>
</a>
</g>
</g>
<!-- Node11 -->
<g id="Node000011" class="node">
<title>Node11</title>
<g id="a_Node000011"><a xlink:href="classpugi_1_1xml__attribute.html#a297736b0fcb5a826a7588cd57c6a6ae1" target="_top" xlink:title=" ">
<polygon fill="white" stroke="#666666" points="97.75,-332 1.5,-332 1.5,-300 97.75,-300 97.75,-332"/>
<text xml:space="preserve" text-anchor="start" x="9.5" y="-318.5" font-family="Helvetica,sans-Serif" font-size="10.00">pugi::xml_attribute</text>
<text xml:space="preserve" text-anchor="middle" x="49.62" y="-306.5" font-family="Helvetica,sans-Serif" font-size="10.00">::operator=</text>
</a>
</g>
</g>
<!-- Node1&#45;&gt;Node11 -->
<g id="edge10_Node000001_Node000011" class="edge">
<title>Node1&#45;&gt;Node11</title>
<g id="a_edge10_Node000001_Node000011"><a xlink:title=" ">
<path fill="none" stroke="#63b8ff" d="M146.44,-368.67C131.92,-359.84 114.91,-349.72 99.25,-341 94.11,-338.14 88.61,-335.19 83.22,-332.38"/>
<polygon fill="#63b8ff" stroke="#63b8ff" points="144.41,-371.53 154.77,-373.77 148.06,-365.56 144.41,-371.53"/>
</a>
</g>
</g>
<!-- Node12 -->
<g id="Node000012" class="node">
<title>Node12</title>
<g id="a_Node000012"><a xlink:href="classpugi_1_1xml__attribute.html#a12b8c9edb7e139306054fac839f349d5" target="_top" xlink:title=" ">
<polygon fill="white" stroke="#666666" points="97.75,-282 1.5,-282 1.5,-250 97.75,-250 97.75,-282"/>
<text xml:space="preserve" text-anchor="start" x="9.5" y="-268.5" font-family="Helvetica,sans-Serif" font-size="10.00">pugi::xml_attribute</text>
<text xml:space="preserve" text-anchor="middle" x="49.62" y="-256.5" font-family="Helvetica,sans-Serif" font-size="10.00">::operator=</text>
</a>
</g>
</g>
<!-- Node1&#45;&gt;Node12 -->
<g id="edge11_Node000001_Node000012" class="edge">
<title>Node1&#45;&gt;Node12</title>
<g id="a_edge11_Node000001_Node000012"><a xlink:title=" ">
<path fill="none" stroke="#63b8ff" d="M165.54,-365.42C150.23,-343.6 125.97,-312.44 99.25,-291 95.4,-287.91 91.11,-285.05 86.71,-282.44"/>
<polygon fill="#63b8ff" stroke="#63b8ff" points="162.53,-367.22 171.07,-373.48 168.3,-363.25 162.53,-367.22"/>
</a>
</g>
</g>
<!-- Node13 -->
<g id="Node000013" class="node">
<title>Node13</title>
<g id="a_Node000013"><a xlink:href="classpugi_1_1xml__attribute.html#aed96651842aca8f9f01a9c4be99b981a" target="_top" xlink:title=" ">
<polygon fill="white" stroke="#666666" points="97.75,-232 1.5,-232 1.5,-200 97.75,-200 97.75,-232"/>
<text xml:space="preserve" text-anchor="start" x="9.5" y="-218.5" font-family="Helvetica,sans-Serif" font-size="10.00">pugi::xml_attribute</text>
<text xml:space="preserve" text-anchor="middle" x="49.62" y="-206.5" font-family="Helvetica,sans-Serif" font-size="10.00">::operator=</text>
</a>
</g>
</g>
<!-- Node1&#45;&gt;Node13 -->
<g id="edge12_Node000001_Node000013" class="edge">
<title>Node1&#45;&gt;Node13</title>
<g id="a_edge12_Node000001_Node000013"><a xlink:title=" ">
<path fill="none" stroke="#63b8ff" d="M173.03,-364.01C160.57,-331.37 135.78,-276.41 99.25,-241 95.98,-237.83 92.22,-234.97 88.28,-232.41"/>
<polygon fill="#63b8ff" stroke="#63b8ff" points="169.65,-364.96 176.39,-373.13 176.22,-362.54 169.65,-364.96"/>
</a>
</g>
</g>
<!-- Node14 -->
<g id="Node000014" class="node">
<title>Node14</title>
<g id="a_Node000014"><a xlink:href="classpugi_1_1xml__attribute.html#a8b73b3641f9408ba08899c1e01bb19c5" target="_top" xlink:title=" ">
<polygon fill="white" stroke="#666666" points="97.75,-182 1.5,-182 1.5,-150 97.75,-150 97.75,-182"/>
<text xml:space="preserve" text-anchor="start" x="9.5" y="-168.5" font-family="Helvetica,sans-Serif" font-size="10.00">pugi::xml_attribute</text>
<text xml:space="preserve" text-anchor="middle" x="49.62" y="-156.5" font-family="Helvetica,sans-Serif" font-size="10.00">::operator==</text>
</a>
</g>
</g>
<!-- Node1&#45;&gt;Node14 -->
<g id="edge13_Node000001_Node000014" class="edge">
<title>Node1&#45;&gt;Node14</title>
<g id="a_edge13_Node000001_Node000014"><a xlink:title=" ">
<path fill="none" stroke="#63b8ff" d="M177.26,-363.47C168.2,-321.6 145.77,-241.44 99.25,-191 96.29,-187.79 92.82,-184.93 89.13,-182.39"/>
<polygon fill="#63b8ff" stroke="#63b8ff" points="173.81,-364.11 179.25,-373.21 180.67,-362.71 173.81,-364.11"/>
</a>
</g>
</g>
<!-- Node15 -->
<g id="Node000015" class="node">
<title>Node15</title>
<g id="a_Node000015"><a xlink:href="classpugi_1_1xml__attribute.html#a211fbd6ecd46853807686b0b706e813a" target="_top" xlink:title=" ">
<polygon fill="white" stroke="#666666" points="97.75,-132 1.5,-132 1.5,-100 97.75,-100 97.75,-132"/>
<text xml:space="preserve" text-anchor="start" x="9.5" y="-118.5" font-family="Helvetica,sans-Serif" font-size="10.00">pugi::xml_attribute</text>
<text xml:space="preserve" text-anchor="middle" x="49.62" y="-106.5" font-family="Helvetica,sans-Serif" font-size="10.00">::operator&gt;</text>
</a>
</g>
</g>
<!-- Node1&#45;&gt;Node15 -->
<g id="edge14_Node000001_Node000015" class="edge">
<title>Node1&#45;&gt;Node15</title>
<g id="a_edge14_Node000001_Node000015"><a xlink:title=" ">
<path fill="none" stroke="#63b8ff" d="M179.96,-363.17C174.27,-313.15 155.9,-207.12 99.25,-141 96.41,-137.68 93.02,-134.75 89.37,-132.17"/>
<polygon fill="#63b8ff" stroke="#63b8ff" points="176.48,-363.53 180.99,-373.11 183.44,-362.8 176.48,-363.53"/>
</a>
</g>
</g>
<!-- Node16 -->
<g id="Node000016" class="node">
<title>Node16</title>
<g id="a_Node000016"><a xlink:href="classpugi_1_1xml__attribute.html#aaefb5ec965e515ee8b4d75c5c8ab13b0" target="_top" xlink:title=" ">
<polygon fill="white" stroke="#666666" points="97.75,-82 1.5,-82 1.5,-50 97.75,-50 97.75,-82"/>
<text xml:space="preserve" text-anchor="start" x="9.5" y="-68.5" font-family="Helvetica,sans-Serif" font-size="10.00">pugi::xml_attribute</text>
<text xml:space="preserve" text-anchor="middle" x="49.62" y="-56.5" font-family="Helvetica,sans-Serif" font-size="10.00">::operator&gt;=</text>
</a>
</g>
</g>
<!-- Node1&#45;&gt;Node16 -->
<g id="edge15_Node000001_Node000016" class="edge">
<title>Node1&#45;&gt;Node16</title>
<g id="a_edge15_Node000001_Node000016"><a xlink:title=" ">
<path fill="none" stroke="#63b8ff" d="M181.86,-363.33C179.4,-306.15 166.31,-173.4 99.25,-91 96.61,-87.76 93.45,-84.9 90.01,-82.37"/>
<polygon fill="#63b8ff" stroke="#63b8ff" points="178.35,-363.26 182.19,-373.14 185.35,-363.02 178.35,-363.26"/>
</a>
</g>
</g>
<!-- Node17 -->
<g id="Node000017" class="node">
<title>Node17</title>
<g id="a_Node000017"><a xlink:href="classpugi_1_1xml__attribute.html#aab55a263a797ac808c73bbca8426ed54" target="_top" xlink:title=" ">
<polygon fill="white" stroke="#666666" points="99.25,-32 0,-32 0,0 99.25,0 99.25,-32"/>
<text xml:space="preserve" text-anchor="start" x="8" y="-18.5" font-family="Helvetica,sans-Serif" font-size="10.00">pugi::xml_attribute</text>
<text xml:space="preserve" text-anchor="middle" x="49.62" y="-6.5" font-family="Helvetica,sans-Serif" font-size="10.00">::previous_attribute</text>
</a>
</g>
</g>
<!-- Node1&#45;&gt;Node17 -->
<g id="edge16_Node000001_Node000017" class="edge">
<title>Node1&#45;&gt;Node17</title>
<g id="a_edge16_Node000001_Node000017"><a xlink:title=" ">
<path fill="none" stroke="#63b8ff" d="M183.23,-363.25C183.77,-299.37 176.7,-139.87 99.25,-41 96.67,-37.71 93.55,-34.82 90.14,-32.27"/>
<polygon fill="#63b8ff" stroke="#63b8ff" points="179.73,-363.13 183.07,-373.19 186.73,-363.25 179.73,-363.13"/>
</a>
</g>
</g>
</g>
</svg>

<g id="navigator" transform="translate(0 0)" fill="#404254">
  <rect fill="#f2f5e9" fill-opacity="0.5" stroke="#606060" stroke-width=".5" x="0" y="0" width="60" height="60"/>
  <use id="zoomplus" xlink:href="#zoomPlus" x="17" y="9" onmousedown="handleZoom(evt,'in')"/>
  <use id="zoomminus" xlink:href="#zoomMin" x="42" y="9" onmousedown="handleZoom(evt,'out')"/>
  <use id="reset" xlink:href="#resetDef" x="30" y="36" onmousedown="handleReset()"/>
   <use id="arrowup" xlink:href="#arrowUp" x="0" y="0" onmousedown="handlePan(0,-1)"/>
  <use id="arrowright" xlink:href="#arrowRight" x="0" y="0" onmousedown="handlePan(1,0)"/>
  <use id="arrowdown" xlink:href="#arrowDown" x="0" y="0" onmousedown="handlePan(0,1)"/>
  <use id="arrowleft" xlink:href="#arrowLeft" x="0" y="0" onmousedown="handlePan(-1,0)"/>
</g>
<svg viewBox="0 0 15 15" width="100%" height="30px" preserveAspectRatio="xMaxYMin meet">
 <g id="arrow_out" transform="scale(0.3 0.3)">
  <a xlink:href="classpugi_1_1xml__attribute_adf782670be216ab5a3ecbd2b7e9b39db_icgraph_org.svg" target="_base">
   <rect id="button" ry="5" rx="5" y="6" x="6" height="38" width="38"
        fill="#f2f5e9" fill-opacity="0.5" stroke="#606060" stroke-width="1.0"/>
   <path id="arrow"
     d="M 11.500037,31.436501 C 11.940474,20.09759 22.043105,11.32322 32.158766,21.979434 L 37.068811,17.246167 C 37.068811,17.246167 37.088388,32 37.088388,32 L 22.160133,31.978069 C 22.160133,31.978069 26.997745,27.140456 26.997745,27.140456 C 18.528582,18.264221 13.291696,25.230495 11.500037,31.436501 z"
     style="fill:#404040;"/>
  </a>
 </g>
</svg>

<style type='text/css'>
<![CDATA[
[data-mouse-over-selected='false'] { opacity: 0.7; }
[data-mouse-over-selected='true']  { opacity: 1.0; }
]]>
</style>
<script type="application/ecmascript"><![CDATA[
document.addEventListener('DOMContentLoaded', (event) => {
  highlightEdges();
  highlightAdjacentNodes();
});
]]></script>
</svg>
