<?xml version="1.0" encoding="UTF-8" standalone="no"?>
<!DOCTYPE svg PUBLIC "-//W3C//DTD SVG 1.1//EN"
 "http://www.w3.org/Graphics/SVG/1.1/DTD/svg11.dtd">
<!-- Generated by graphviz version 14.1.2 (20260124.0452)
 -->
<!-- Title: pugi::xml_node::prepend_child Pages: 1 -->
<svg width="456pt" height="110pt"
 viewBox="0.00 0.00 456.00 110.00" xmlns="http://www.w3.org/2000/svg" xmlns:xlink="http://www.w3.org/1999/xlink">

<svg id="main" version="1.1" xmlns="http://www.w3.org/2000/svg" xmlns:xlink="http://www.w3.org/1999/xlink" xml:space="preserve">

<style type="text/css"><![CDATA[
.node, .edge {opacity: 0.7;}
.node.selected, .edge.selected {opacity: 1;}
.edge:hover path { stroke: red; }
.edge:hover polygon { stroke: red; fill: red; }
]]></style>
<script type="application/ecmascript" xlink:href="svg.min.js"/>
<svg id="graph" class="graph">
<g id="graph0" class="graph" transform="scale(1 1) rotate(0) translate(4 106)">
<title>pugi::xml_node::prepend_child</title>
<!-- Node1 -->
<g id="Node000001" class="node">
<title>Node1</title>
<g id="a_Node000001"><a xlink:title=" ">
<polygon fill="#999999" stroke="#666666" points="122.5,-67 0,-67 0,-35 122.5,-35 122.5,-67"/>
<text xml:space="preserve" text-anchor="start" x="8" y="-53.5" font-family="Helvetica,sans-Serif" font-size="10.00">pugi::xml_node::prepend</text>
<text xml:space="preserve" text-anchor="middle" x="61.25" y="-41.5" font-family="Helvetica,sans-Serif" font-size="10.00">_child</text>
</a>
</g>
</g>
<!-- Node2 -->
<g id="Node000002" class="node">
<title>Node2</title>
<g id="a_Node000002"><a xlink:href="classpugi_1_1xml__node.html#aed2c393e34bbebe1fd1c596ec57fb398" target="_top" xlink:title=" ">
<polygon fill="white" stroke="#666666" points="281,-67 158.5,-67 158.5,-35 281,-35 281,-67"/>
<text xml:space="preserve" text-anchor="start" x="166.5" y="-53.5" font-family="Helvetica,sans-Serif" font-size="10.00">pugi::xml_node::prepend</text>
<text xml:space="preserve" text-anchor="middle" x="219.75" y="-41.5" font-family="Helvetica,sans-Serif" font-size="10.00">_child</text>
</a>
</g>
</g>
<!-- Node1&#45;&gt;Node2 -->
<g id="edge1_Node000001_Node000002" class="edge">
<title>Node1&#45;&gt;Node2</title>
<g id="a_edge1_Node000001_Node000002"><a xlink:title=" ">
<path fill="none" stroke="#63b8ff" d="M122.76,-51C130.65,-51 138.8,-51 146.85,-51"/>
<polygon fill="#63b8ff" stroke="#63b8ff" points="146.63,-54.5 156.63,-51 146.63,-47.5 146.63,-54.5"/>
</a>
</g>
</g>
<!-- Node3 -->
<g id="Node000003" class="node">
<title>Node3</title>
<g id="a_Node000003"><a xlink:href="classpugi_1_1xml__node.html#a461ee70affaf5ad3d4bdd089889f6a1a" target="_top" xlink:title=" ">
<polygon fill="white" stroke="#666666" points="447.75,-102 317,-102 317,-82 447.75,-82 447.75,-102"/>
<text xml:space="preserve" text-anchor="middle" x="382.38" y="-88.5" font-family="Helvetica,sans-Serif" font-size="10.00">pugi::xml_node::set_name</text>
</a>
</g>
</g>
<!-- Node1&#45;&gt;Node3 -->
<g id="edge5_Node000001_Node000003" class="edge">
<title>Node1&#45;&gt;Node3</title>
<g id="a_edge5_Node000001_Node000003"><a xlink:title=" ">
<path fill="none" stroke="#63b8ff" d="M118.63,-67.48C131.63,-70.76 145.47,-73.86 158.5,-76 206.99,-83.97 262.07,-87.97 305.34,-89.98"/>
<polygon fill="#63b8ff" stroke="#63b8ff" points="304.99,-93.47 315.13,-90.4 305.29,-86.47 304.99,-93.47"/>
</a>
</g>
</g>
<!-- Node5 -->
<g id="Node000005" class="node">
<title>Node5</title>
<g id="a_Node000005"><a xlink:href="classpugi_1_1xml__node.html#a4641476ddd4869da18f0738186b17368" target="_top" xlink:title=" ">
<polygon fill="white" stroke="#666666" points="447.38,-20 317.38,-20 317.38,0 447.38,0 447.38,-20"/>
<text xml:space="preserve" text-anchor="middle" x="382.38" y="-6.5" font-family="Helvetica,sans-Serif" font-size="10.00">pugi::xml_node::xml_node</text>
</a>
</g>
</g>
<!-- Node1&#45;&gt;Node5 -->
<g id="edge6_Node000001_Node000005" class="edge">
<title>Node1&#45;&gt;Node5</title>
<g id="a_edge6_Node000001_Node000005"><a xlink:title=" ">
<path fill="none" stroke="#63b8ff" d="M118.63,-34.52C131.63,-31.24 145.47,-28.14 158.5,-26 207.17,-18 262.47,-14 305.81,-12"/>
<polygon fill="#63b8ff" stroke="#63b8ff" points="305.77,-15.51 315.61,-11.58 305.47,-8.51 305.77,-15.51"/>
</a>
</g>
</g>
<!-- Node2&#45;&gt;Node3 -->
<g id="edge2_Node000002_Node000003" class="edge">
<title>Node2&#45;&gt;Node3</title>
<g id="a_edge2_Node000002_Node000003"><a xlink:title=" ">
<path fill="none" stroke="#63b8ff" d="M281.48,-66.5C297.35,-70.55 314.3,-74.88 329.66,-78.8"/>
<polygon fill="#63b8ff" stroke="#63b8ff" points="328.49,-82.11 339.05,-81.2 330.22,-75.33 328.49,-82.11"/>
</a>
</g>
</g>
<!-- Node4 -->
<g id="Node000004" class="node">
<title>Node4</title>
<g id="a_Node000004"><a xlink:href="classpugi_1_1xml__node.html#aa018a135915ec8b2e3388feab2a78cfe" target="_top" xlink:title=" ">
<polygon fill="white" stroke="#666666" points="435.75,-61 329,-61 329,-41 435.75,-41 435.75,-61"/>
<text xml:space="preserve" text-anchor="middle" x="382.38" y="-47.5" font-family="Helvetica,sans-Serif" font-size="10.00">pugi::xml_node::type</text>
</a>
</g>
</g>
<!-- Node2&#45;&gt;Node4 -->
<g id="edge3_Node000002_Node000004" class="edge">
<title>Node2&#45;&gt;Node4</title>
<g id="a_edge3_Node000002_Node000004"><a xlink:title=" ">
<path fill="none" stroke="#63b8ff" d="M281.48,-51C293.26,-51 305.64,-51 317.52,-51"/>
<polygon fill="#63b8ff" stroke="#63b8ff" points="317.2,-54.5 327.2,-51 317.2,-47.5 317.2,-54.5"/>
</a>
</g>
</g>
<!-- Node2&#45;&gt;Node5 -->
<g id="edge4_Node000002_Node000005" class="edge">
<title>Node2&#45;&gt;Node5</title>
<g id="a_edge4_Node000002_Node000005"><a xlink:title=" ">
<path fill="none" stroke="#63b8ff" d="M281.48,-35.5C297.35,-31.45 314.3,-27.12 329.66,-23.2"/>
<polygon fill="#63b8ff" stroke="#63b8ff" points="330.22,-26.67 339.05,-20.8 328.49,-19.89 330.22,-26.67"/>
</a>
</g>
</g>
</g>
</svg>
</svg>

<style type='text/css'>
<![CDATA[
[data-mouse-over-selected='false'] { opacity: 0.7; }
[data-mouse-over-selected='true']  { opacity: 1.0; }
]]>
</style>
<script type="application/ecmascript"><![CDATA[
document.addEventListener('DOMContentLoaded', (event) => {
  highlightEdges();
  highlightAdjacentNodes();
});
]]></script>
</svg>
