<?xml version="1.0" encoding="UTF-8" standalone="no"?>
<!DOCTYPE svg PUBLIC "-//W3C//DTD SVG 1.1//EN"
 "http://www.w3.org/Graphics/SVG/1.1/DTD/svg11.dtd">
<!-- Generated by graphviz version 14.1.2 (20260124.0452)
 -->
<!-- Title: GESkeleton::GESkeleton Pages: 1 -->
<!--zoomable 424 -->

<svg id="main" version="1.1" xmlns="http://www.w3.org/2000/svg" xmlns:xlink="http://www.w3.org/1999/xlink" xml:space="preserve" onload="init(evt)">

<style type="text/css"><![CDATA[
.node, .edge {opacity: 0.7;}
.node.selected, .edge.selected {opacity: 1;}
.edge:hover path { stroke: red; }
.edge:hover polygon { stroke: red; fill: red; }
]]></style>

<defs>
  <circle id="rim" cx="0" cy="0" r="7"/>
  <circle id="rim2" cx="0" cy="0" r="3.5"/>
  <g id="zoomPlus">
    <use xlink:href="#rim" fill="#404040"><set attributeName="fill" to="#808080" begin="zoomplus.mouseover" end="zoomplus.mouseout"/></use>
    <path d="M-4,0h8M0,-4v8" fill="none" stroke="white" stroke-width="1.5" pointer-events="none"/>
  </g>
  <g id="zoomMin">
    <use xlink:href="#rim" fill="#404040"><set attributeName="fill" to="#808080" begin="zoomminus.mouseover" end="zoomminus.mouseout"/></use>
    <path d="M-4,0h8" fill="none" stroke="white" stroke-width="1.5" pointer-events="none"/>
  </g>
  <g id="arrowUp" transform="translate(30 24)">
    <use xlink:href="#rim"/>
    <path pointer-events="none" fill="none" stroke="white" stroke-width="1.5" d="M0,-3.0v7 M-2.5,-0.5L0,-3.0L2.5,-0.5"/>
  </g>
  <g id="arrowRight" transform="rotate(90) translate(36 -43)">
    <use xlink:href="#rim"/>
    <path pointer-events="none" fill="none" stroke="white" stroke-width="1.5" d="M0,-3.0v7 M-2.5,-0.5L0,-3.0L2.5,-0.5"/>
  </g>
  <g id="arrowDown" transform="rotate(180) translate(-30 -48)">
    <use xlink:href="#rim"/>
    <path pointer-events="none" fill="none" stroke="white" stroke-width="1.5" d="M0,-3.0v7 M-2.5,-0.5L0,-3.0L2.5,-0.5"/>
  </g>
  <g id="arrowLeft" transform="rotate(270) translate(-36 17)">
    <use xlink:href="#rim"/>
    <path pointer-events="none" fill="none" stroke="white" stroke-width="1.5" d="M0,-3.0v7 M-2.5,-0.5L0,-3.0L2.5,-0.5"/>
  </g>
  <g id="resetDef">
    <use xlink:href="#rim2" fill="#404040"><set attributeName="fill" to="#808080" begin="reset.mouseover" end="reset.mouseout"/></use>
  </g>
</defs>
<script type="application/ecmascript">
var viewWidth = 1151;
var viewHeight = 424;
var sectionId = 'dynsection-0';
</script>
<script type="application/ecmascript" xlink:href="svg.min.js"/>
<svg id="graph" class="graph">
<g id="viewport">
<title>GESkeleton::GESkeleton</title>
<!-- Node1 -->
<g id="Node000001" class="node">
<title>Node1</title>
<g id="a_Node000001"><a xlink:title="Constructor del esqueleto.">
<polygon fill="#999999" stroke="#666666" points="127,-290 0,-290 0,-270 127,-270 127,-290"/>
<text xml:space="preserve" text-anchor="middle" x="63.5" y="-276.5" font-family="Helvetica,sans-Serif" font-size="10.00">GESkeleton::GESkeleton</text>
</a>
</g>
</g>
<!-- Node2 -->
<g id="Node000002" class="node">
<title>Node2</title>
<g id="a_Node000002"><a xlink:href="class_g_e_skeleton.html#ade3f0504c12faea2597ee2c23abf22bd" target="_top" xlink:title="Construye la jerarquía de articulaciones desde body.skel.">
<polygon fill="white" stroke="#666666" points="296,-290 163,-290 163,-270 296,-270 296,-290"/>
<text xml:space="preserve" text-anchor="middle" x="229.5" y="-276.5" font-family="Helvetica,sans-Serif" font-size="10.00">GESkeleton::buildSkeleton</text>
</a>
</g>
</g>
<!-- Node1&#45;&gt;Node2 -->
<g id="edge1_Node000001_Node000002" class="edge">
<title>Node1&#45;&gt;Node2</title>
<g id="a_edge1_Node000001_Node000002"><a xlink:title=" ">
<path fill="none" stroke="#63b8ff" d="M127.44,-280C135.3,-280 143.4,-280 151.44,-280"/>
<polygon fill="#63b8ff" stroke="#63b8ff" points="151.23,-283.5 161.23,-280 151.23,-276.5 151.23,-283.5"/>
</a>
</g>
</g>
<!-- Node3 -->
<g id="Node000003" class="node">
<title>Node3</title>
<g id="a_Node000003"><a xlink:href="class_g_e_skeleton.html#a24b0dd5ddd9c940fb8e95eaceb720ea0" target="_top" xlink:title="Crea recursivamente las articulaciones desde los datos parseados.">
<polygon fill="white" stroke="#666666" points="498,-378 332,-378 332,-358 498,-358 498,-378"/>
<text xml:space="preserve" text-anchor="middle" x="415" y="-364.5" font-family="Helvetica,sans-Serif" font-size="10.00">GESkeleton::createJointFromData</text>
</a>
</g>
</g>
<!-- Node2&#45;&gt;Node3 -->
<g id="edge2_Node000002_Node000003" class="edge">
<title>Node2&#45;&gt;Node3</title>
<g id="a_edge2_Node000002_Node000003"><a xlink:title=" ">
<path fill="none" stroke="#63b8ff" d="M252.27,-290.44C284.41,-305.86 344.77,-334.8 381.97,-352.64"/>
<polygon fill="#63b8ff" stroke="#63b8ff" points="380.36,-355.75 390.89,-356.92 383.39,-349.44 380.36,-355.75"/>
</a>
</g>
</g>
<!-- Node7 -->
<g id="Node000007" class="node">
<title>Node7</title>
<g id="a_Node000007"><a xlink:href="class_g_e_x_m_l_parser.html#acd9fc587fbd992edbb51df00549c1bda" target="_top" xlink:title="Parsea un archivo .skel y devuelve los datos del esqueleto.">
<polygon fill="white" stroke="#666666" points="496.5,-202 333.5,-202 333.5,-182 496.5,-182 496.5,-202"/>
<text xml:space="preserve" text-anchor="middle" x="415" y="-188.5" font-family="Helvetica,sans-Serif" font-size="10.00">GEXMLParser::parseSkeletonFile</text>
</a>
</g>
</g>
<!-- Node2&#45;&gt;Node7 -->
<g id="edge7_Node000002_Node000007" class="edge">
<title>Node2&#45;&gt;Node7</title>
<g id="a_edge7_Node000002_Node000007"><a xlink:title=" ">
<path fill="none" stroke="#63b8ff" d="M252.27,-269.56C284.41,-254.14 344.77,-225.2 381.97,-207.36"/>
<polygon fill="#63b8ff" stroke="#63b8ff" points="383.39,-210.56 390.89,-203.08 380.36,-204.25 383.39,-210.56"/>
</a>
</g>
</g>
<!-- Node3&#45;&gt;Node3 -->
<g id="edge5_Node000003_Node000003" class="edge">
<title>Node3&#45;&gt;Node3</title>
<g id="a_edge5_Node000003_Node000003"><a xlink:title=" ">
<path fill="none" stroke="#63b8ff" d="M385.53,-378.34C372.93,-386.98 382.75,-396 415,-396 433.14,-396 444.18,-393.14 448.13,-389.11"/>
<polygon fill="#63b8ff" stroke="#63b8ff" points="451.49,-388.12 444.96,-379.77 444.86,-390.37 451.49,-388.12"/>
</a>
</g>
</g>
<!-- Node4 -->
<g id="Node000004" class="node">
<title>Node4</title>
<g id="a_Node000004"><a xlink:href="class_g_e_balljoint.html#a2a6fc6d00a3ea4c9ca016f1afe358fd9" target="_top" xlink:title="Añade una articulación hija.">
<polygon fill="white" stroke="#666666" points="660.25,-416 551.25,-416 551.25,-396 660.25,-396 660.25,-416"/>
<text xml:space="preserve" text-anchor="middle" x="605.75" y="-402.5" font-family="Helvetica,sans-Serif" font-size="10.00">GEBalljoint::addChild</text>
</a>
</g>
</g>
<!-- Node3&#45;&gt;Node4 -->
<g id="edge3_Node000003_Node000004" class="edge">
<title>Node3&#45;&gt;Node4</title>
<g id="a_edge3_Node000003_Node000004"><a xlink:title=" ">
<path fill="none" stroke="#63b8ff" d="M468.08,-378.48C490.87,-383.07 517.82,-388.5 541.74,-393.31"/>
<polygon fill="#63b8ff" stroke="#63b8ff" points="540.87,-396.71 551.36,-395.25 542.25,-389.85 540.87,-396.71"/>
</a>
</g>
</g>
<!-- Node6 -->
<g id="Node000006" class="node">
<title>Node6</title>
<g id="a_Node000006"><a xlink:href="class_g_e_balljoint.html#a57203edfebb0ba0bf9979e34fe472274" target="_top" xlink:title="Asigna los límites de rotación.">
<polygon fill="white" stroke="#666666" points="661,-378 550.5,-378 550.5,-358 661,-358 661,-378"/>
<text xml:space="preserve" text-anchor="middle" x="605.75" y="-364.5" font-family="Helvetica,sans-Serif" font-size="10.00">GEBalljoint::setLimits</text>
</a>
</g>
</g>
<!-- Node3&#45;&gt;Node6 -->
<g id="edge6_Node000003_Node000006" class="edge">
<title>Node3&#45;&gt;Node6</title>
<g id="a_edge6_Node000003_Node000006"><a xlink:title=" ">
<path fill="none" stroke="#63b8ff" d="M498.24,-368C511.84,-368 525.78,-368 538.91,-368"/>
<polygon fill="#63b8ff" stroke="#63b8ff" points="538.7,-371.5 548.7,-368 538.7,-364.5 538.7,-371.5"/>
</a>
</g>
</g>
<!-- Node5 -->
<g id="Node000005" class="node">
<title>Node5</title>
<g id="a_Node000005"><a xlink:href="class_g_e_balljoint.html#a0f468b4618ae46410622a32a83569714" target="_top" xlink:title="Construye una articulación.">
<polygon fill="white" stroke="#666666" points="838.62,-416 719.12,-416 719.12,-396 838.62,-396 838.62,-416"/>
<text xml:space="preserve" text-anchor="middle" x="778.88" y="-402.5" font-family="Helvetica,sans-Serif" font-size="10.00">GEBalljoint::GEBalljoint</text>
</a>
</g>
</g>
<!-- Node4&#45;&gt;Node5 -->
<g id="edge4_Node000004_Node000005" class="edge">
<title>Node4&#45;&gt;Node5</title>
<g id="a_edge4_Node000004_Node000005"><a xlink:title=" ">
<path fill="none" stroke="#63b8ff" d="M660.43,-406C675.33,-406 691.75,-406 707.46,-406"/>
<polygon fill="#63b8ff" stroke="#63b8ff" points="707.23,-409.5 717.23,-406 707.23,-402.5 707.23,-409.5"/>
</a>
</g>
</g>
<!-- Node8 -->
<g id="Node000008" class="node">
<title>Node8</title>
<g id="a_Node000008"><a xlink:href="classpugi_1_1xml__attribute.html#ae5f55e07fdbe1b862af67cf9eb5678a3" target="_top" xlink:title=" ">
<polygon fill="white" stroke="#666666" points="827,-32 730.75,-32 730.75,0 827,0 827,-32"/>
<text xml:space="preserve" text-anchor="start" x="738.75" y="-18.5" font-family="Helvetica,sans-Serif" font-size="10.00">pugi::xml_attribute</text>
<text xml:space="preserve" text-anchor="middle" x="778.88" y="-6.5" font-family="Helvetica,sans-Serif" font-size="10.00">::as_string</text>
</a>
</g>
</g>
<!-- Node7&#45;&gt;Node8 -->
<g id="edge8_Node000007_Node000008" class="edge">
<title>Node7&#45;&gt;Node8</title>
<g id="a_edge8_Node000007_Node000008"><a xlink:title=" ">
<path fill="none" stroke="#63b8ff" d="M420.83,-181.6C434.27,-153.99 475.01,-78.74 534,-46 591.21,-14.24 667.43,-9.77 719.33,-11.29"/>
<polygon fill="#63b8ff" stroke="#63b8ff" points="719.02,-14.78 729.15,-11.67 719.3,-7.79 719.02,-14.78"/>
</a>
</g>
</g>
<!-- Node10 -->
<g id="Node000010" class="node">
<title>Node10</title>
<g id="a_Node000010"><a xlink:href="classpugi_1_1xml__node.html#a2d27d392a789976eb1aef9d49f72393e" target="_top" xlink:title=" ">
<polygon fill="white" stroke="#666666" points="1006.88,-83 883.62,-83 883.62,-63 1006.88,-63 1006.88,-83"/>
<text xml:space="preserve" text-anchor="middle" x="945.25" y="-69.5" font-family="Helvetica,sans-Serif" font-size="10.00">pugi::xml_node::attribute</text>
</a>
</g>
</g>
<!-- Node7&#45;&gt;Node10 -->
<g id="edge11_Node000007_Node000010" class="edge">
<title>Node7&#45;&gt;Node10</title>
<g id="a_edge11_Node000007_Node000010"><a xlink:title=" ">
<path fill="none" stroke="#63b8ff" d="M424.08,-181.58C441.45,-160.06 484.81,-111.07 534,-91 645.07,-45.69 787.37,-52.17 871.86,-61.93"/>
<polygon fill="#63b8ff" stroke="#63b8ff" points="871.29,-65.38 881.63,-63.11 872.13,-58.43 871.29,-65.38"/>
</a>
</g>
</g>
<!-- Node11 -->
<g id="Node000011" class="node">
<title>Node11</title>
<g id="a_Node000011"><a xlink:href="classpugi_1_1xml__node.html#a4154ffb6451d4203b74bb56d3f3ecf50" target="_top" xlink:title=" ">
<polygon fill="white" stroke="#666666" points="833,-267 724.75,-267 724.75,-247 833,-247 833,-267"/>
<text xml:space="preserve" text-anchor="middle" x="778.88" y="-253.5" font-family="Helvetica,sans-Serif" font-size="10.00">pugi::xml_node::child</text>
</a>
</g>
</g>
<!-- Node7&#45;&gt;Node11 -->
<g id="edge12_Node000007_Node000011" class="edge">
<title>Node7&#45;&gt;Node11</title>
<g id="a_edge12_Node000007_Node000011"><a xlink:title=" ">
<path fill="none" stroke="#63b8ff" d="M428.42,-202.33C448.87,-218.6 491.62,-249.52 534,-261 593.15,-277.03 663.37,-273.65 713.23,-267.69"/>
<polygon fill="#63b8ff" stroke="#63b8ff" points="713.52,-271.19 723,-266.45 712.63,-264.24 713.52,-271.19"/>
</a>
</g>
</g>
<!-- Node13 -->
<g id="Node000013" class="node">
<title>Node13</title>
<g id="a_Node000013"><a xlink:href="classpugi_1_1xml__node.html#a4f72c001fed61753fa76fd32d4e978af" target="_top" xlink:title=" ">
<polygon fill="white" stroke="#666666" points="839.75,-222 718,-222 718,-202 839.75,-202 839.75,-222"/>
<text xml:space="preserve" text-anchor="middle" x="778.88" y="-208.5" font-family="Helvetica,sans-Serif" font-size="10.00">pugi::xml_node::children</text>
</a>
</g>
</g>
<!-- Node7&#45;&gt;Node13 -->
<g id="edge14_Node000007_Node000013" class="edge">
<title>Node7&#45;&gt;Node13</title>
<g id="a_edge14_Node000007_Node000013"><a xlink:title=" ">
<path fill="none" stroke="#63b8ff" d="M496.76,-196.46C559.58,-199.94 645.92,-204.71 706.28,-208.04"/>
<polygon fill="#63b8ff" stroke="#63b8ff" points="705.93,-211.53 716.11,-208.59 706.31,-204.54 705.93,-211.53"/>
</a>
</g>
</g>
<!-- Node16 -->
<g id="Node000016" class="node">
<title>Node16</title>
<g id="a_Node000016"><a xlink:href="structpugi_1_1xml__parse__result.html#a5229a07ba72d6ff72d7a0775c6d67fdc" target="_top" xlink:title=" ">
<polygon fill="white" stroke="#666666" points="662.88,-252 548.62,-252 548.62,-220 662.88,-220 662.88,-252"/>
<text xml:space="preserve" text-anchor="start" x="556.62" y="-238.5" font-family="Helvetica,sans-Serif" font-size="10.00">pugi::xml_parse_result</text>
<text xml:space="preserve" text-anchor="middle" x="605.75" y="-226.5" font-family="Helvetica,sans-Serif" font-size="10.00">::description</text>
</a>
</g>
</g>
<!-- Node7&#45;&gt;Node16 -->
<g id="edge17_Node000007_Node000016" class="edge">
<title>Node7&#45;&gt;Node16</title>
<g id="a_edge17_Node000007_Node000016"><a xlink:title=" ">
<path fill="none" stroke="#63b8ff" d="M460.73,-202.43C483.52,-207.74 511.71,-214.31 537.09,-220.23"/>
<polygon fill="#63b8ff" stroke="#63b8ff" points="536.14,-223.6 546.68,-222.46 537.73,-216.78 536.14,-223.6"/>
</a>
</g>
</g>
<!-- Node17 -->
<g id="Node000017" class="node">
<title>Node17</title>
<g id="a_Node000017"><a xlink:href="classpugi_1_1xml__document.html#aefb4c986984462e3972cf332156dbf00" target="_top" xlink:title=" ">
<polygon fill="white" stroke="#666666" points="657.62,-340 553.88,-340 553.88,-308 657.62,-308 657.62,-340"/>
<text xml:space="preserve" text-anchor="start" x="561.88" y="-326.5" font-family="Helvetica,sans-Serif" font-size="10.00">pugi::xml_document</text>
<text xml:space="preserve" text-anchor="middle" x="605.75" y="-314.5" font-family="Helvetica,sans-Serif" font-size="10.00">::load_file</text>
</a>
</g>
</g>
<!-- Node7&#45;&gt;Node17 -->
<g id="edge18_Node000007_Node000017" class="edge">
<title>Node7&#45;&gt;Node17</title>
<g id="a_edge18_Node000007_Node000017"><a xlink:title=" ">
<path fill="none" stroke="#63b8ff" d="M425.86,-202.47C445.1,-222.43 489.64,-266.38 534,-294 539.1,-297.17 544.59,-300.16 550.18,-302.92"/>
<polygon fill="#63b8ff" stroke="#63b8ff" points="548.37,-305.94 558.91,-307.01 551.34,-299.6 548.37,-305.94"/>
</a>
</g>
</g>
<!-- Node21 -->
<g id="Node000021" class="node">
<title>Node21</title>
<g id="a_Node000021"><a xlink:href="class_g_e_x_m_l_parser.html#af7e66e11e1a8973779770daa1ad6f653" target="_top" xlink:title="Parsea una articulación y sus hijas recursivamente.">
<polygon fill="white" stroke="#666666" points="677.5,-146 534,-146 534,-126 677.5,-126 677.5,-146"/>
<text xml:space="preserve" text-anchor="middle" x="605.75" y="-132.5" font-family="Helvetica,sans-Serif" font-size="10.00">GEXMLParser::parseBalljoint</text>
</a>
</g>
</g>
<!-- Node7&#45;&gt;Node21 -->
<g id="edge22_Node000007_Node000021" class="edge">
<title>Node7&#45;&gt;Node21</title>
<g id="a_edge22_Node000007_Node000021"><a xlink:title=" ">
<path fill="none" stroke="#63b8ff" d="M451.06,-181.6C481.42,-172.59 525.56,-159.49 558.76,-149.65"/>
<polygon fill="#63b8ff" stroke="#63b8ff" points="559.52,-153.07 568.11,-146.87 557.52,-146.36 559.52,-153.07"/>
</a>
</g>
</g>
<!-- Node23 -->
<g id="Node000023" class="node">
<title>Node23</title>
<g id="a_Node000023"><a xlink:href="class_g_e_x_m_l_parser.html#aa8e732df591d508941d3c717188b7266" target="_top" xlink:title="Parsea un nodo vec3 (offset, zaxis, yaxis).">
<polygon fill="white" stroke="#666666" points="844.25,-108 713.5,-108 713.5,-88 844.25,-88 844.25,-108"/>
<text xml:space="preserve" text-anchor="middle" x="778.88" y="-94.5" font-family="Helvetica,sans-Serif" font-size="10.00">GEXMLParser::parseVec3</text>
</a>
</g>
</g>
<!-- Node7&#45;&gt;Node23 -->
<g id="edge33_Node000007_Node000023" class="edge">
<title>Node7&#45;&gt;Node23</title>
<g id="a_edge33_Node000007_Node000023"><a xlink:title=" ">
<path fill="none" stroke="#63b8ff" d="M427.71,-181.72C447.83,-164.76 490.94,-131.36 534,-117 588.08,-98.96 652.5,-94.62 701.55,-94.56"/>
<polygon fill="#63b8ff" stroke="#63b8ff" points="701.5,-98.06 711.52,-94.62 701.54,-91.06 701.5,-98.06"/>
</a>
</g>
</g>
<!-- Node9 -->
<g id="Node000009" class="node">
<title>Node9</title>
<g id="a_Node000009"><a xlink:href="classpugi_1_1xml__attribute.html#ac18639df6493d250601566d1156c38d9" target="_top" xlink:title=" ">
<polygon fill="white" stroke="#666666" points="1142.5,-77 1046.25,-77 1046.25,-45 1142.5,-45 1142.5,-77"/>
<text xml:space="preserve" text-anchor="start" x="1054.25" y="-63.5" font-family="Helvetica,sans-Serif" font-size="10.00">pugi::xml_attribute</text>
<text xml:space="preserve" text-anchor="middle" x="1094.38" y="-51.5" font-family="Helvetica,sans-Serif" font-size="10.00">::value</text>
</a>
</g>
</g>
<!-- Node8&#45;&gt;Node9 -->
<g id="edge9_Node000008_Node000009" class="edge">
<title>Node8&#45;&gt;Node9</title>
<g id="a_edge9_Node000008_Node000009"><a xlink:title=" ">
<path fill="none" stroke="#63b8ff" d="M827.49,-22.83C883.01,-30.8 974.78,-43.98 1034.67,-52.57"/>
<polygon fill="#63b8ff" stroke="#63b8ff" points="1033.93,-56 1044.33,-53.96 1034.93,-49.07 1033.93,-56"/>
</a>
</g>
</g>
<!-- Node9&#45;&gt;Node9 -->
<g id="edge10_Node000009_Node000009" class="edge">
<title>Node9&#45;&gt;Node9</title>
<g id="a_edge10_Node000009_Node000009"><a xlink:title=" ">
<path fill="none" stroke="#63b8ff" d="M1067.75,-77.44C1062.78,-86.58 1071.66,-95 1094.38,-95 1106.8,-95 1115.08,-92.48 1119.23,-88.71"/>
<polygon fill="#63b8ff" stroke="#63b8ff" points="1122.67,-89.36 1120.76,-78.94 1115.75,-88.27 1122.67,-89.36"/>
</a>
</g>
</g>
<!-- Node12 -->
<g id="Node000012" class="node">
<title>Node12</title>
<g id="a_Node000012"><a xlink:href="classpugi_1_1xml__node.html#a4641476ddd4869da18f0738186b17368" target="_top" xlink:title=" ">
<polygon fill="white" stroke="#666666" points="1010.25,-267 880.25,-267 880.25,-247 1010.25,-247 1010.25,-267"/>
<text xml:space="preserve" text-anchor="middle" x="945.25" y="-253.5" font-family="Helvetica,sans-Serif" font-size="10.00">pugi::xml_node::xml_node</text>
</a>
</g>
</g>
<!-- Node11&#45;&gt;Node12 -->
<g id="edge13_Node000011_Node000012" class="edge">
<title>Node11&#45;&gt;Node12</title>
<g id="a_edge13_Node000011_Node000012"><a xlink:title=" ">
<path fill="none" stroke="#63b8ff" d="M833.24,-257C844.54,-257 856.66,-257 868.61,-257"/>
<polygon fill="#63b8ff" stroke="#63b8ff" points="868.45,-260.5 878.45,-257 868.45,-253.5 868.45,-260.5"/>
</a>
</g>
</g>
<!-- Node14 -->
<g id="Node000014" class="node">
<title>Node14</title>
<g id="a_Node000014"><a xlink:href="classpugi_1_1xml__node.html#aeff3362bf030a0df28ec2db9b84498f1" target="_top" xlink:title=" ">
<polygon fill="white" stroke="#666666" points="1000.88,-225 889.62,-225 889.62,-205 1000.88,-205 1000.88,-225"/>
<text xml:space="preserve" text-anchor="middle" x="945.25" y="-211.5" font-family="Helvetica,sans-Serif" font-size="10.00">pugi::xml_node::begin</text>
</a>
</g>
</g>
<!-- Node13&#45;&gt;Node14 -->
<g id="edge15_Node000013_Node000014" class="edge">
<title>Node13&#45;&gt;Node14</title>
<g id="a_edge15_Node000013_Node000014"><a xlink:title=" ">
<path fill="none" stroke="#63b8ff" d="M840.15,-213.1C852.43,-213.32 865.41,-213.56 877.88,-213.79"/>
<polygon fill="#63b8ff" stroke="#63b8ff" points="877.58,-217.28 887.65,-213.97 877.71,-210.28 877.58,-217.28"/>
</a>
</g>
</g>
<!-- Node15 -->
<g id="Node000015" class="node">
<title>Node15</title>
<g id="a_Node000015"><a xlink:href="classpugi_1_1xml__node.html#aafa1deeb5fe928d07cd7caebbf975527" target="_top" xlink:title=" ">
<polygon fill="white" stroke="#666666" points="997.12,-187 893.38,-187 893.38,-167 997.12,-167 997.12,-187"/>
<text xml:space="preserve" text-anchor="middle" x="945.25" y="-173.5" font-family="Helvetica,sans-Serif" font-size="10.00">pugi::xml_node::end</text>
</a>
</g>
</g>
<!-- Node13&#45;&gt;Node15 -->
<g id="edge16_Node000013_Node000015" class="edge">
<title>Node13&#45;&gt;Node15</title>
<g id="a_edge16_Node000013_Node000015"><a xlink:title=" ">
<path fill="none" stroke="#63b8ff" d="M828.75,-201.59C846.07,-197.91 865.76,-193.71 883.92,-189.85"/>
<polygon fill="#63b8ff" stroke="#63b8ff" points="884.47,-193.31 893.52,-187.8 883.01,-186.46 884.47,-193.31"/>
</a>
</g>
</g>
<!-- Node18 -->
<g id="Node000018" class="node">
<title>Node18</title>
<g id="a_Node000018"><a xlink:href="classpugi_1_1xml__document.html#a56e84f1a61d9798b8095f633d2174ab5" target="_top" xlink:title=" ">
<polygon fill="white" stroke="#666666" points="830.75,-340 727,-340 727,-308 830.75,-308 830.75,-340"/>
<text xml:space="preserve" text-anchor="start" x="735" y="-326.5" font-family="Helvetica,sans-Serif" font-size="10.00">pugi::xml_document</text>
<text xml:space="preserve" text-anchor="middle" x="778.88" y="-314.5" font-family="Helvetica,sans-Serif" font-size="10.00">::reset</text>
</a>
</g>
</g>
<!-- Node17&#45;&gt;Node18 -->
<g id="edge19_Node000017_Node000018" class="edge">
<title>Node17&#45;&gt;Node18</title>
<g id="a_edge19_Node000017_Node000018"><a xlink:title=" ">
<path fill="none" stroke="#63b8ff" d="M658.09,-324C676.03,-324 696.37,-324 715.13,-324"/>
<polygon fill="#63b8ff" stroke="#63b8ff" points="715.05,-327.5 725.05,-324 715.05,-320.5 715.05,-327.5"/>
</a>
</g>
</g>
<!-- Node19 -->
<g id="Node000019" class="node">
<title>Node19</title>
<g id="a_Node000019"><a xlink:href="classpugi_1_1xml__document.html#abe0c208ff54097055a572f0a7fe40a94" target="_top" xlink:title=" ">
<polygon fill="white" stroke="#666666" points="997.12,-382 893.38,-382 893.38,-350 997.12,-350 997.12,-382"/>
<text xml:space="preserve" text-anchor="start" x="901.38" y="-368.5" font-family="Helvetica,sans-Serif" font-size="10.00">pugi::xml_document</text>
<text xml:space="preserve" text-anchor="middle" x="945.25" y="-356.5" font-family="Helvetica,sans-Serif" font-size="10.00">::_create</text>
</a>
</g>
</g>
<!-- Node18&#45;&gt;Node19 -->
<g id="edge20_Node000018_Node000019" class="edge">
<title>Node18&#45;&gt;Node19</title>
<g id="a_edge20_Node000018_Node000019"><a xlink:title=" ">
<path fill="none" stroke="#63b8ff" d="M830.98,-337.06C847.14,-341.19 865.18,-345.8 882.02,-350.1"/>
<polygon fill="#63b8ff" stroke="#63b8ff" points="880.87,-353.42 891.42,-352.5 882.6,-346.64 880.87,-353.42"/>
</a>
</g>
</g>
<!-- Node20 -->
<g id="Node000020" class="node">
<title>Node20</title>
<g id="a_Node000020"><a xlink:href="classpugi_1_1xml__document.html#ae622fdaff0407d22288f36194f9b0cbe" target="_top" xlink:title=" ">
<polygon fill="white" stroke="#666666" points="997.12,-332 893.38,-332 893.38,-300 997.12,-300 997.12,-332"/>
<text xml:space="preserve" text-anchor="start" x="901.38" y="-318.5" font-family="Helvetica,sans-Serif" font-size="10.00">pugi::xml_document</text>
<text xml:space="preserve" text-anchor="middle" x="945.25" y="-306.5" font-family="Helvetica,sans-Serif" font-size="10.00">::_destroy</text>
</a>
</g>
</g>
<!-- Node18&#45;&gt;Node20 -->
<g id="edge21_Node000018_Node000020" class="edge">
<title>Node18&#45;&gt;Node20</title>
<g id="a_edge21_Node000018_Node000020"><a xlink:title=" ">
<path fill="none" stroke="#63b8ff" d="M830.98,-321.51C846.99,-320.73 864.83,-319.87 881.54,-319.05"/>
<polygon fill="#63b8ff" stroke="#63b8ff" points="881.56,-322.56 891.38,-318.57 881.22,-315.56 881.56,-322.56"/>
</a>
</g>
</g>
<!-- Node21&#45;&gt;Node8 -->
<g id="edge25_Node000021_Node000008" class="edge">
<title>Node21&#45;&gt;Node8</title>
<g id="a_edge25_Node000021_Node000008"><a xlink:title=" ">
<path fill="none" stroke="#63b8ff" d="M621.64,-125.56C649.03,-106.35 708.02,-64.99 745.16,-38.94"/>
<polygon fill="#63b8ff" stroke="#63b8ff" points="747.14,-41.83 753.32,-33.22 743.12,-36.09 747.14,-41.83"/>
</a>
</g>
</g>
<!-- Node21&#45;&gt;Node10 -->
<g id="edge26_Node000021_Node000010" class="edge">
<title>Node21&#45;&gt;Node10</title>
<g id="a_edge26_Node000021_Node000010"><a xlink:title=" ">
<path fill="none" stroke="#63b8ff" d="M677.88,-139.87C726.15,-140.21 790.69,-136.15 844.25,-117 862.59,-110.44 862.69,-100.43 880.25,-92 883.81,-90.29 887.55,-88.7 891.36,-87.23"/>
<polygon fill="#63b8ff" stroke="#63b8ff" points="892.53,-90.53 900.79,-83.89 890.19,-83.93 892.53,-90.53"/>
</a>
</g>
</g>
<!-- Node21&#45;&gt;Node11 -->
<g id="edge27_Node000021_Node000011" class="edge">
<title>Node21&#45;&gt;Node11</title>
<g id="a_edge27_Node000021_Node000011"><a xlink:title=" ">
<path fill="none" stroke="#63b8ff" d="M616.11,-146.43C633.63,-165.43 673.24,-206.01 713.5,-231 720.25,-235.19 727.8,-238.95 735.28,-242.22"/>
<polygon fill="#63b8ff" stroke="#63b8ff" points="733.74,-245.37 744.32,-245.93 736.4,-238.89 733.74,-245.37"/>
</a>
</g>
</g>
<!-- Node21&#45;&gt;Node13 -->
<g id="edge28_Node000021_Node000013" class="edge">
<title>Node21&#45;&gt;Node13</title>
<g id="a_edge28_Node000021_Node000013"><a xlink:title=" ">
<path fill="none" stroke="#63b8ff" d="M626.55,-146.36C647.78,-157.3 682.62,-174.76 713.5,-188 721.19,-191.3 729.49,-194.59 737.5,-197.63"/>
<polygon fill="#63b8ff" stroke="#63b8ff" points="736.14,-200.86 746.74,-201.07 738.59,-194.3 736.14,-200.86"/>
</a>
</g>
</g>
<!-- Node21&#45;&gt;Node21 -->
<g id="edge29_Node000021_Node000021" class="edge">
<title>Node21&#45;&gt;Node21</title>
<g id="a_edge29_Node000021_Node000021"><a xlink:title=" ">
<path fill="none" stroke="#63b8ff" d="M578.24,-146.34C566.49,-154.98 575.66,-164 605.75,-164 622.68,-164 632.99,-161.14 636.67,-157.11"/>
<polygon fill="#63b8ff" stroke="#63b8ff" points="640.07,-156.26 633.72,-147.78 633.4,-158.37 640.07,-156.26"/>
</a>
</g>
</g>
<!-- Node22 -->
<g id="Node000022" class="node">
<title>Node22</title>
<g id="a_Node000022"><a xlink:href="classpugi_1_1xml__attribute.html#af245d352a69150cb6b556d1400f24f8b" target="_top" xlink:title=" ">
<polygon fill="white" stroke="#666666" points="993.38,-133 897.12,-133 897.12,-101 993.38,-101 993.38,-133"/>
<text xml:space="preserve" text-anchor="start" x="905.12" y="-119.5" font-family="Helvetica,sans-Serif" font-size="10.00">pugi::xml_attribute</text>
<text xml:space="preserve" text-anchor="middle" x="945.25" y="-107.5" font-family="Helvetica,sans-Serif" font-size="10.00">::as_float</text>
</a>
</g>
</g>
<!-- Node21&#45;&gt;Node22 -->
<g id="edge23_Node000021_Node000022" class="edge">
<title>Node21&#45;&gt;Node22</title>
<g id="a_edge23_Node000021_Node000022"><a xlink:title=" ">
<path fill="none" stroke="#63b8ff" d="M665.18,-146.48C713.47,-153.46 783.69,-159.73 844.25,-150 860.68,-147.36 878.06,-142.43 893.64,-137.16"/>
<polygon fill="#63b8ff" stroke="#63b8ff" points="894.41,-140.61 902.69,-133.99 892.09,-134 894.41,-140.61"/>
</a>
</g>
</g>
<!-- Node21&#45;&gt;Node23 -->
<g id="edge30_Node000021_Node000023" class="edge">
<title>Node21&#45;&gt;Node23</title>
<g id="a_edge30_Node000021_Node000023"><a xlink:title=" ">
<path fill="none" stroke="#63b8ff" d="M653.96,-125.52C674.35,-120.99 698.4,-115.65 719.86,-110.88"/>
<polygon fill="#63b8ff" stroke="#63b8ff" points="720.33,-114.36 729.34,-108.78 718.82,-107.53 720.33,-114.36"/>
</a>
</g>
</g>
<!-- Node22&#45;&gt;Node9 -->
<g id="edge24_Node000022_Node000009" class="edge">
<title>Node22&#45;&gt;Node9</title>
<g id="a_edge24_Node000022_Node000009"><a xlink:title=" ">
<path fill="none" stroke="#63b8ff" d="M989.6,-100.5C1005.24,-94.55 1023.09,-87.75 1039.53,-81.5"/>
<polygon fill="#63b8ff" stroke="#63b8ff" points="1040.57,-84.84 1048.67,-78.02 1038.08,-78.3 1040.57,-84.84"/>
</a>
</g>
</g>
<!-- Node23&#45;&gt;Node10 -->
<g id="edge32_Node000023_Node000010" class="edge">
<title>Node23&#45;&gt;Node10</title>
<g id="a_edge32_Node000023_Node000010"><a xlink:title=" ">
<path fill="none" stroke="#63b8ff" d="M844.37,-88.19C853.45,-86.81 862.83,-85.38 872.04,-83.98"/>
<polygon fill="#63b8ff" stroke="#63b8ff" points="872.31,-87.48 881.67,-82.52 871.26,-80.56 872.31,-87.48"/>
</a>
</g>
</g>
<!-- Node23&#45;&gt;Node22 -->
<g id="edge31_Node000023_Node000022" class="edge">
<title>Node23&#45;&gt;Node22</title>
<g id="a_edge31_Node000023_Node000022"><a xlink:title=" ">
<path fill="none" stroke="#63b8ff" d="M844.37,-105.45C857.86,-107.01 872.03,-108.65 885.31,-110.19"/>
<polygon fill="#63b8ff" stroke="#63b8ff" points="884.88,-113.66 895.21,-111.33 885.68,-106.71 884.88,-113.66"/>
</a>
</g>
</g>
</g>
</svg>

<g id="navigator" transform="translate(0 0)" fill="#404254">
  <rect fill="#f2f5e9" fill-opacity="0.5" stroke="#606060" stroke-width=".5" x="0" y="0" width="60" height="60"/>
  <use id="zoomplus" xlink:href="#zoomPlus" x="17" y="9" onmousedown="handleZoom(evt,'in')"/>
  <use id="zoomminus" xlink:href="#zoomMin" x="42" y="9" onmousedown="handleZoom(evt,'out')"/>
  <use id="reset" xlink:href="#resetDef" x="30" y="36" onmousedown="handleReset()"/>
   <use id="arrowup" xlink:href="#arrowUp" x="0" y="0" onmousedown="handlePan(0,-1)"/>
  <use id="arrowright" xlink:href="#arrowRight" x="0" y="0" onmousedown="handlePan(1,0)"/>
  <use id="arrowdown" xlink:href="#arrowDown" x="0" y="0" onmousedown="handlePan(0,1)"/>
  <use id="arrowleft" xlink:href="#arrowLeft" x="0" y="0" onmousedown="handlePan(-1,0)"/>
</g>
<svg viewBox="0 0 15 15" width="100%" height="30px" preserveAspectRatio="xMaxYMin meet">
 <g id="arrow_out" transform="scale(0.3 0.3)">
  <a xlink:href="class_g_e_skeleton_ad854854fdf1e4d090553d4d6edbfe095_cgraph_org.svg" target="_base">
   <rect id="button" ry="5" rx="5" y="6" x="6" height="38" width="38"
        fill="#f2f5e9" fill-opacity="0.5" stroke="#606060" stroke-width="1.0"/>
   <path id="arrow"
     d="M 11.500037,31.436501 C 11.940474,20.09759 22.043105,11.32322 32.158766,21.979434 L 37.068811,17.246167 C 37.068811,17.246167 37.088388,32 37.088388,32 L 22.160133,31.978069 C 22.160133,31.978069 26.997745,27.140456 26.997745,27.140456 C 18.528582,18.264221 13.291696,25.230495 11.500037,31.436501 z"
     style="fill:#404040;"/>
  </a>
 </g>
</svg>

<style type='text/css'>
<![CDATA[
[data-mouse-over-selected='false'] { opacity: 0.7; }
[data-mouse-over-selected='true']  { opacity: 1.0; }
]]>
</style>
<script type="application/ecmascript"><![CDATA[
document.addEventListener('DOMContentLoaded', (event) => {
  highlightEdges();
  highlightAdjacentNodes();
});
]]></script>
</svg>
