<?xml version="1.0" encoding="UTF-8" standalone="no"?>
<!DOCTYPE svg PUBLIC "-//W3C//DTD SVG 1.1//EN"
 "http://www.w3.org/Graphics/SVG/1.1/DTD/svg11.dtd">
<!-- Generated by graphviz version 14.1.2 (20260124.0452)
 -->
<!-- Title: xpath_ast_node::eval_number Pages: 1 -->
<svg width="1052pt" height="286pt"
 viewBox="0.00 0.00 1052.00 286.00" xmlns="http://www.w3.org/2000/svg" xmlns:xlink="http://www.w3.org/1999/xlink">
<g id="graph0" class="graph" transform="scale(1 1) rotate(0) translate(4 282.47)">
<title>xpath_ast_node::eval_number</title>
<!-- Node1 -->
<g id="Node000001" class="node">
<title>Node1</title>
<g id="a_Node000001"><a xlink:title=" ">
<polygon fill="#999999" stroke="#666666" points="1043.5,-191.47 934.5,-191.47 934.5,-159.47 1043.5,-159.47 1043.5,-191.47"/>
<text xml:space="preserve" text-anchor="start" x="942.5" y="-177.97" font-family="Helvetica,sans-Serif" font-size="10.00">xpath_ast_node::eval</text>
<text xml:space="preserve" text-anchor="middle" x="989" y="-165.97" font-family="Helvetica,sans-Serif" font-size="10.00">_number</text>
</a>
</g>
</g>
<!-- Node2 -->
<g id="Node000002" class="node">
<title>Node2</title>
<g id="a_Node000002"><a xlink:href="classxpath__ast__node.html#abf2d4b745493f63aebc1c89d9fde8eed" target="_top" xlink:title=" ">
<polygon fill="white" stroke="#666666" points="891.75,-138.47 777.5,-138.47 777.5,-106.47 891.75,-106.47 891.75,-138.47"/>
<text xml:space="preserve" text-anchor="start" x="785.5" y="-124.97" font-family="Helvetica,sans-Serif" font-size="10.00">xpath_ast_node::apply</text>
<text xml:space="preserve" text-anchor="middle" x="834.62" y="-112.97" font-family="Helvetica,sans-Serif" font-size="10.00">_predicate_number</text>
</a>
</g>
</g>
<!-- Node1&#45;&gt;Node2 -->
<g id="edge1_Node000001_Node000002" class="edge">
<title>Node1&#45;&gt;Node2</title>
<g id="a_edge1_Node000001_Node000002"><a xlink:title=" ">
<path fill="none" stroke="#63b8ff" d="M930.06,-155.32C914.51,-149.91 897.88,-144.12 882.97,-138.94"/>
<polygon fill="#63b8ff" stroke="#63b8ff" points="928.6,-158.51 939.19,-158.49 930.9,-151.9 928.6,-158.51"/>
</a>
</g>
</g>
<!-- Node5 -->
<g id="Node000005" class="node">
<title>Node5</title>
<g id="a_Node000005"><a xlink:href="classxpath__ast__node.html#a98dd7f6e67fe2c56c63056eed835d6a4" target="_top" xlink:title=" ">
<polygon fill="white" stroke="#666666" points="439.5,-232.47 295.25,-232.47 295.25,-212.47 439.5,-212.47 439.5,-232.47"/>
<text xml:space="preserve" text-anchor="middle" x="367.38" y="-218.97" font-family="Helvetica,sans-Serif" font-size="10.00">xpath_ast_node::compare_eq</text>
</a>
</g>
</g>
<!-- Node1&#45;&gt;Node5 -->
<g id="edge20_Node000001_Node000005" class="edge">
<title>Node1&#45;&gt;Node5</title>
<g id="a_edge20_Node000001_Node000005"><a xlink:title=" ">
<path fill="none" stroke="#63b8ff" d="M923.25,-193.78C914.97,-195.63 906.57,-197.26 898.5,-198.47 735.86,-222.78 542.29,-224.86 439.99,-223.89"/>
<polygon fill="#63b8ff" stroke="#63b8ff" points="924.01,-197.2 932.94,-191.5 922.41,-190.38 924.01,-197.2"/>
</a>
</g>
</g>
<!-- Node6 -->
<g id="Node000006" class="node">
<title>Node6</title>
<g id="a_Node000006"><a xlink:href="classxpath__ast__node.html#ab7f965a92023bc2704b8e6fd9f3d7c14" target="_top" xlink:title=" ">
<polygon fill="white" stroke="#666666" points="259.25,-191.47 150.25,-191.47 150.25,-159.47 259.25,-159.47 259.25,-191.47"/>
<text xml:space="preserve" text-anchor="start" x="158.25" y="-177.97" font-family="Helvetica,sans-Serif" font-size="10.00">xpath_ast_node::eval</text>
<text xml:space="preserve" text-anchor="middle" x="204.75" y="-165.97" font-family="Helvetica,sans-Serif" font-size="10.00">_boolean</text>
</a>
</g>
</g>
<!-- Node1&#45;&gt;Node6 -->
<g id="edge22_Node000001_Node000006" class="edge">
<title>Node1&#45;&gt;Node6</title>
<g id="a_edge22_Node000001_Node000006"><a xlink:title=" ">
<path fill="none" stroke="#63b8ff" d="M922.79,-168.54C860.18,-166.47 762.94,-166.47 678.62,-166.47 678.62,-166.47 678.62,-166.47 529,-166.47 434.16,-166.47 323.66,-166.47 259.51,-169.06"/>
<polygon fill="#63b8ff" stroke="#63b8ff" points="922.43,-172.03 932.56,-168.9 922.69,-165.04 922.43,-172.03"/>
</a>
</g>
</g>
<!-- Node8 -->
<g id="Node000008" class="node">
<title>Node8</title>
<g id="a_Node000008"><a xlink:href="classxpath__ast__node.html#a6b675237a590548b68d0e0b97518b6df" target="_top" xlink:title=" ">
<polygon fill="white" stroke="#666666" points="111.62,-214.47 2.62,-214.47 2.62,-182.47 111.62,-182.47 111.62,-214.47"/>
<text xml:space="preserve" text-anchor="start" x="10.62" y="-200.97" font-family="Helvetica,sans-Serif" font-size="10.00">xpath_ast_node::eval</text>
<text xml:space="preserve" text-anchor="middle" x="57.12" y="-188.97" font-family="Helvetica,sans-Serif" font-size="10.00">_string</text>
</a>
</g>
</g>
<!-- Node1&#45;&gt;Node8 -->
<g id="edge23_Node000001_Node000008" class="edge">
<title>Node1&#45;&gt;Node8</title>
<g id="a_edge23_Node000001_Node000008"><a xlink:title=" ">
<path fill="none" stroke="#63b8ff" d="M932.14,-196.57C921.18,-201.56 909.63,-206.53 898.5,-210.47 804.03,-243.91 778.84,-260.47 678.62,-260.47 678.62,-260.47 678.62,-260.47 366.38,-260.47 275.35,-260.47 172.98,-230.7 112.11,-212.16"/>
<polygon fill="#63b8ff" stroke="#63b8ff" points="933.46,-199.82 941.06,-192.44 930.52,-193.47 933.46,-199.82"/>
</a>
</g>
</g>
<!-- Node9 -->
<g id="Node000009" class="node">
<title>Node9</title>
<g id="a_Node000009"><a xlink:href="classxpath__ast__node.html#abb6e4c529276eaf882233dbb6e04e111" target="_top" xlink:title=" ">
<polygon fill="white" stroke="#666666" points="439.5,-62.47 295.25,-62.47 295.25,-42.47 439.5,-42.47 439.5,-62.47"/>
<text xml:space="preserve" text-anchor="middle" x="367.38" y="-48.97" font-family="Helvetica,sans-Serif" font-size="10.00">xpath_ast_node::compare_rel</text>
</a>
</g>
</g>
<!-- Node1&#45;&gt;Node9 -->
<g id="edge21_Node000001_Node000009" class="edge">
<title>Node1&#45;&gt;Node9</title>
<g id="a_edge21_Node000001_Node000009"><a xlink:title=" ">
<path fill="none" stroke="#63b8ff" d="M978.15,-148.62C965.19,-117.77 939.19,-68.67 898.5,-47.47 730.15,40.24 488.96,-16.62 401.58,-42.04"/>
<polygon fill="#63b8ff" stroke="#63b8ff" points="974.8,-149.69 981.77,-157.67 981.3,-147.09 974.8,-149.69"/>
</a>
</g>
</g>
<!-- Node10 -->
<g id="Node000010" class="node">
<title>Node10</title>
<g id="a_Node000010"><a xlink:href="classxpath__ast__node.html#a8cedd7e15623b9fa431788b8843f1463" target="_top" xlink:title=" ">
<polygon fill="white" stroke="#666666" points="898.5,-88.47 770.75,-88.47 770.75,-56.47 898.5,-56.47 898.5,-88.47"/>
<text xml:space="preserve" text-anchor="start" x="778.75" y="-74.97" font-family="Helvetica,sans-Serif" font-size="10.00">xpath_ast_node::apply</text>
<text xml:space="preserve" text-anchor="middle" x="834.62" y="-62.97" font-family="Helvetica,sans-Serif" font-size="10.00">_predicate_number_const</text>
</a>
</g>
</g>
<!-- Node1&#45;&gt;Node10 -->
<g id="edge18_Node000001_Node000010" class="edge">
<title>Node1&#45;&gt;Node10</title>
<g id="a_edge18_Node000001_Node000010"><a xlink:title=" ">
<path fill="none" stroke="#63b8ff" d="M964.73,-151.22C947.62,-134.44 923.15,-112.5 898.5,-97.47 893.39,-94.35 887.81,-91.48 882.17,-88.89"/>
<polygon fill="#63b8ff" stroke="#63b8ff" points="961.89,-153.33 971.43,-157.92 966.83,-148.38 961.89,-153.33"/>
</a>
</g>
</g>
<!-- Node3 -->
<g id="Node000003" class="node">
<title>Node3</title>
<g id="a_Node000003"><a xlink:href="classxpath__ast__node.html#a7e35f265c9e0712a16e1d8a9db4c7672" target="_top" xlink:title=" ">
<polygon fill="white" stroke="#666666" points="734.75,-97.47 620.5,-97.47 620.5,-65.47 734.75,-65.47 734.75,-97.47"/>
<text xml:space="preserve" text-anchor="start" x="628.5" y="-83.97" font-family="Helvetica,sans-Serif" font-size="10.00">xpath_ast_node::apply</text>
<text xml:space="preserve" text-anchor="middle" x="677.62" y="-71.97" font-family="Helvetica,sans-Serif" font-size="10.00">_predicate</text>
</a>
</g>
</g>
<!-- Node2&#45;&gt;Node3 -->
<g id="edge2_Node000002_Node000003" class="edge">
<title>Node2&#45;&gt;Node3</title>
<g id="a_edge2_Node000002_Node000003"><a xlink:title=" ">
<path fill="none" stroke="#63b8ff" d="M766.16,-104.62C755.85,-101.89 745.29,-99.1 735.24,-96.44"/>
<polygon fill="#63b8ff" stroke="#63b8ff" points="765.2,-107.99 775.76,-107.16 766.99,-101.22 765.2,-107.99"/>
</a>
</g>
</g>
<!-- Node4 -->
<g id="Node000004" class="node">
<title>Node4</title>
<g id="a_Node000004"><a xlink:href="classxpath__ast__node.html#a68cace396dd4eeae67ecfcd34a3a8285" target="_top" xlink:title=" ">
<polygon fill="white" stroke="#666666" points="584.5,-106.47 475.5,-106.47 475.5,-74.47 584.5,-74.47 584.5,-106.47"/>
<text xml:space="preserve" text-anchor="start" x="483.5" y="-92.97" font-family="Helvetica,sans-Serif" font-size="10.00">xpath_ast_node::eval</text>
<text xml:space="preserve" text-anchor="middle" x="530" y="-80.97" font-family="Helvetica,sans-Serif" font-size="10.00">_node_set</text>
</a>
</g>
</g>
<!-- Node3&#45;&gt;Node4 -->
<g id="edge3_Node000003_Node000004" class="edge">
<title>Node3&#45;&gt;Node4</title>
<g id="a_edge3_Node000003_Node000004"><a xlink:title=" ">
<path fill="none" stroke="#63b8ff" d="M608.95,-85.65C600.84,-86.15 592.64,-86.66 584.76,-87.15"/>
<polygon fill="#63b8ff" stroke="#63b8ff" points="609.05,-89.15 618.81,-85.04 608.62,-82.16 609.05,-89.15"/>
</a>
</g>
</g>
<!-- Node4&#45;&gt;Node5 -->
<g id="edge4_Node000004_Node000005" class="edge">
<title>Node4&#45;&gt;Node5</title>
<g id="a_edge4_Node000004_Node000005"><a xlink:title=" ">
<path fill="none" stroke="#63b8ff" d="M500.52,-113.87C465.13,-142.96 406.28,-191.31 380.79,-212.27"/>
<polygon fill="#63b8ff" stroke="#63b8ff" points="502.31,-116.93 507.81,-107.88 497.86,-111.53 502.31,-116.93"/>
</a>
</g>
</g>
<!-- Node4&#45;&gt;Node6 -->
<g id="edge16_Node000004_Node000006" class="edge">
<title>Node4&#45;&gt;Node6</title>
<g id="a_edge16_Node000004_Node000006"><a xlink:title=" ">
<path fill="none" stroke="#63b8ff" d="M464.39,-107.46C404.35,-123.25 315.95,-146.49 259.62,-161.3"/>
<polygon fill="#63b8ff" stroke="#63b8ff" points="465.01,-110.91 473.8,-104.98 463.23,-104.14 465.01,-110.91"/>
</a>
</g>
</g>
<!-- Node4&#45;&gt;Node8 -->
<g id="edge17_Node000004_Node000008" class="edge">
<title>Node4&#45;&gt;Node8</title>
<g id="a_edge17_Node000004_Node000008"><a xlink:title=" ">
<path fill="none" stroke="#63b8ff" d="M463.6,-92.41C386.31,-96.58 254.98,-109.66 150.25,-150.47 127.73,-159.24 103.55,-171.98 85.61,-182.13"/>
<polygon fill="#63b8ff" stroke="#63b8ff" points="463.74,-95.9 473.55,-91.91 463.39,-88.91 463.74,-95.9"/>
</a>
</g>
</g>
<!-- Node4&#45;&gt;Node9 -->
<g id="edge14_Node000004_Node000009" class="edge">
<title>Node4&#45;&gt;Node9</title>
<g id="a_edge14_Node000004_Node000009"><a xlink:title=" ">
<path fill="none" stroke="#63b8ff" d="M463.9,-75.07C446.64,-70.98 428.41,-66.67 412.55,-62.92"/>
<polygon fill="#63b8ff" stroke="#63b8ff" points="463.06,-78.46 473.59,-77.36 464.67,-71.65 463.06,-78.46"/>
</a>
</g>
</g>
<!-- Node5&#45;&gt;Node6 -->
<g id="edge5_Node000005_Node000006" class="edge">
<title>Node5&#45;&gt;Node6</title>
<g id="a_edge5_Node000005_Node000006"><a xlink:title=" ">
<path fill="none" stroke="#63b8ff" d="M335.9,-208.12C314.34,-200.49 284.88,-191.54 259.43,-184.77"/>
<polygon fill="#63b8ff" stroke="#63b8ff" points="334.67,-211.4 345.26,-211.57 337.08,-204.83 334.67,-211.4"/>
</a>
</g>
</g>
<!-- Node6&#45;&gt;Node1 -->
<g id="edge9_Node000006_Node000001" class="edge">
<title>Node6&#45;&gt;Node1</title>
<g id="a_edge9_Node000006_Node000001"><a xlink:title=" ">
<path fill="none" stroke="#63b8ff" d="M270.85,-182.29C336.13,-184.47 439.53,-184.47 529,-184.47 678.62,-184.47 678.62,-184.47 678.62,-184.47 768.19,-184.47 872.34,-184.47 934.07,-181.98"/>
<polygon fill="#63b8ff" stroke="#63b8ff" points="271.15,-178.8 261.03,-181.93 270.89,-185.8 271.15,-178.8"/>
</a>
</g>
</g>
<!-- Node6&#45;&gt;Node5 -->
<g id="edge8_Node000006_Node000005" class="edge">
<title>Node6&#45;&gt;Node5</title>
<g id="a_edge8_Node000006_Node000005"><a xlink:title=" ">
<path fill="none" stroke="#63b8ff" d="M252.66,-195.4C270.09,-201.1 290.08,-207.05 308.39,-212.01"/>
<polygon fill="#63b8ff" stroke="#63b8ff" points="254.2,-192.22 243.61,-192.37 251.98,-198.86 254.2,-192.22"/>
</a>
</g>
</g>
<!-- Node7 -->
<g id="Node000007" class="node">
<title>Node7</title>
<g id="a_Node000007"><a xlink:href="classxpath__ast__node.html#ab4e5bbd3f2e83c86a43349374b4bfc22" target="_top" xlink:title=" ">
<polygon fill="white" stroke="#666666" points="114.25,-109.47 0,-109.47 0,-77.47 114.25,-77.47 114.25,-109.47"/>
<text xml:space="preserve" text-anchor="start" x="8" y="-95.97" font-family="Helvetica,sans-Serif" font-size="10.00">xpath_ast_node::apply</text>
<text xml:space="preserve" text-anchor="middle" x="57.12" y="-83.97" font-family="Helvetica,sans-Serif" font-size="10.00">_predicate_boolean</text>
</a>
</g>
</g>
<!-- Node6&#45;&gt;Node7 -->
<g id="edge6_Node000006_Node000007" class="edge">
<title>Node6&#45;&gt;Node7</title>
<g id="a_edge6_Node000006_Node000007"><a xlink:title=" ">
<path fill="none" stroke="#63b8ff" d="M164.62,-153.44C140.24,-139.71 109.4,-122.34 87.19,-109.84"/>
<polygon fill="#63b8ff" stroke="#63b8ff" points="162.88,-156.47 173.31,-158.33 166.32,-150.37 162.88,-156.47"/>
</a>
</g>
</g>
<!-- Node6&#45;&gt;Node8 -->
<g id="edge10_Node000006_Node000008" class="edge">
<title>Node6&#45;&gt;Node8</title>
<g id="a_edge10_Node000006_Node000008"><a xlink:title=" ">
<path fill="none" stroke="#63b8ff" d="M138.66,-179.03C129.65,-180.38 120.48,-181.88 111.72,-183.47"/>
<polygon fill="#63b8ff" stroke="#63b8ff" points="139.03,-182.51 148.44,-177.64 138.05,-175.58 139.03,-182.51"/>
</a>
</g>
</g>
<!-- Node7&#45;&gt;Node3 -->
<g id="edge7_Node000007_Node000003" class="edge">
<title>Node7&#45;&gt;Node3</title>
<g id="a_edge7_Node000007_Node000003"><a xlink:title=" ">
<path fill="none" stroke="#63b8ff" d="M118.86,-73.67C166.3,-59.29 234.2,-41.07 295.25,-33.47 410.64,-19.1 545.64,-46.53 620.09,-65.51"/>
<polygon fill="#63b8ff" stroke="#63b8ff" points="117.84,-70.32 109.3,-76.6 119.89,-77.01 117.84,-70.32"/>
</a>
</g>
</g>
<!-- Node8&#45;&gt;Node1 -->
<g id="edge13_Node000008_Node000001" class="edge">
<title>Node8&#45;&gt;Node1</title>
<g id="a_edge13_Node000008_Node000001"><a xlink:title=" ">
<path fill="none" stroke="#63b8ff" d="M97.45,-219.43C155.41,-243.4 267.58,-278.47 366.38,-278.47 678.62,-278.47 678.62,-278.47 678.62,-278.47 778.84,-278.47 804.03,-261.91 898.5,-228.47 924.94,-219.11 953.76,-203.97 971.36,-191.84"/>
<polygon fill="#63b8ff" stroke="#63b8ff" points="98.9,-216.25 88.33,-215.54 96.16,-222.69 98.9,-216.25"/>
</a>
</g>
</g>
<!-- Node8&#45;&gt;Node5 -->
<g id="edge11_Node000008_Node000005" class="edge">
<title>Node8&#45;&gt;Node5</title>
<g id="a_edge11_Node000008_Node000005"><a xlink:title=" ">
<path fill="none" stroke="#63b8ff" d="M123.29,-203.54C173.58,-207.46 243.07,-212.87 294.88,-216.9"/>
<polygon fill="#63b8ff" stroke="#63b8ff" points="123.66,-200.06 113.42,-202.77 123.11,-207.04 123.66,-200.06"/>
</a>
</g>
</g>
<!-- Node8&#45;&gt;Node6 -->
<g id="edge12_Node000008_Node000006" class="edge">
<title>Node8&#45;&gt;Node6</title>
<g id="a_edge12_Node000008_Node000006"><a xlink:title=" ">
<path fill="none" stroke="#63b8ff" d="M122.99,-194.94C132,-193.6 141.17,-192.09 149.94,-190.51"/>
<polygon fill="#63b8ff" stroke="#63b8ff" points="122.62,-191.45 113.21,-196.33 123.61,-198.38 122.62,-191.45"/>
</a>
</g>
</g>
<!-- Node9&#45;&gt;Node6 -->
<g id="edge15_Node000009_Node000006" class="edge">
<title>Node9&#45;&gt;Node6</title>
<g id="a_edge15_Node000009_Node000006"><a xlink:title=" ">
<path fill="none" stroke="#63b8ff" d="M343.91,-69.67C312.96,-93.37 257.58,-135.78 227.18,-159.06"/>
<polygon fill="#63b8ff" stroke="#63b8ff" points="345.67,-72.73 351.48,-63.88 341.41,-67.18 345.67,-72.73"/>
</a>
</g>
</g>
<!-- Node10&#45;&gt;Node3 -->
<g id="edge19_Node000010_Node000003" class="edge">
<title>Node10&#45;&gt;Node3</title>
<g id="a_edge19_Node000010_Node000003"><a xlink:title=" ">
<path fill="none" stroke="#63b8ff" d="M759.2,-76.79C751.1,-77.26 742.96,-77.73 735.13,-78.19"/>
<polygon fill="#63b8ff" stroke="#63b8ff" points="759.29,-80.29 769.07,-76.22 758.88,-73.3 759.29,-80.29"/>
</a>
</g>
</g>
</g>
</svg>
