<?xml version="1.0" encoding="UTF-8" standalone="no"?>
<!DOCTYPE svg PUBLIC "-//W3C//DTD SVG 1.1//EN"
 "http://www.w3.org/Graphics/SVG/1.1/DTD/svg11.dtd">
<!-- Generated by graphviz version 14.1.2 (20260124.0452)
 -->
<!-- Title: pugi::xml_attribute Pages: 1 -->
<svg width="198pt" height="116pt"
 viewBox="0.00 0.00 198.00 116.00" xmlns="http://www.w3.org/2000/svg" xmlns:xlink="http://www.w3.org/1999/xlink">
<g id="graph0" class="graph" transform="scale(1 1) rotate(0) translate(4 112)">
<title>pugi::xml_attribute</title>
<!-- Node1 -->
<g id="Node000001" class="node">
<title>Node1</title>
<g id="a_Node000001"><a xlink:title=" ">
<polygon fill="#999999" stroke="#666666" points="96.25,-20 0,-20 0,0 96.25,0 96.25,-20"/>
<text xml:space="preserve" text-anchor="middle" x="48.12" y="-6.5" font-family="Helvetica,sans-Serif" font-size="10.00">pugi::xml_attribute</text>
</a>
</g>
</g>
<!-- Node2 -->
<g id="Node000002" class="node">
<title>Node2</title>
<g id="a_Node000002"><a xlink:href="structpugi_1_1xml__attribute__struct.html" target="_top" xlink:title=" ">
<polygon fill="white" stroke="#666666" points="96.25,-107 0,-107 0,-75 96.25,-75 96.25,-107"/>
<text xml:space="preserve" text-anchor="start" x="8" y="-93.5" font-family="Helvetica,sans-Serif" font-size="10.00">pugi::xml_attribute</text>
<text xml:space="preserve" text-anchor="middle" x="48.12" y="-81.5" font-family="Helvetica,sans-Serif" font-size="10.00">_struct</text>
</a>
</g>
</g>
<!-- Node2&#45;&gt;Node1 -->
<g id="edge1_Node000001_Node000002" class="edge">
<title>Node2&#45;&gt;Node1</title>
<g id="a_edge1_Node000001_Node000002"><a xlink:title=" ">
<path fill="none" stroke="#9a32cd" stroke-dasharray="5,2" d="M48.12,-63.57C48.12,-48.61 48.12,-30.83 48.12,-20.26"/>
<polygon fill="#9a32cd" stroke="#9a32cd" points="44.63,-63.25 48.13,-73.25 51.63,-63.25 44.63,-63.25"/>
</a>
</g>
<text xml:space="preserve" text-anchor="start" x="51.12" y="-43.5" font-family="Helvetica,sans-Serif" font-size="10.00" fill="grey">_attr</text>
</g>
<!-- Node2&#45;&gt;Node2 -->
<g id="edge2_Node000002_Node000002" class="edge">
<title>Node2&#45;&gt;Node2</title>
<g id="a_edge2_Node000002_Node000002"><a xlink:title=" ">
<path fill="none" stroke="#9a32cd" stroke-dasharray="5,2" d="M107.7,-96.97C111.77,-95.6 114.25,-93.61 114.25,-91 114.25,-86.49 106.83,-83.83 96.56,-83.02"/>
<polygon fill="#9a32cd" stroke="#9a32cd" points="107.27,-93.49 98.05,-98.71 108.52,-100.38 107.27,-93.49"/>
</a>
</g>
<text xml:space="preserve" text-anchor="start" x="117.25" y="-95.5" font-family="Helvetica,sans-Serif" font-size="10.00" fill="grey">next_attribute</text>
<text xml:space="preserve" text-anchor="start" x="117.25" y="-79.5" font-family="Helvetica,sans-Serif" font-size="10.00" fill="grey">prev_attribute_c</text>
</g>
</g>
</svg>
