<?xml version="1.0" encoding="UTF-8" standalone="no"?>
<!DOCTYPE svg PUBLIC "-//W3C//DTD SVG 1.1//EN"
 "http://www.w3.org/Graphics/SVG/1.1/DTD/svg11.dtd">
<!-- Generated by graphviz version 14.1.2 (20260124.0452)
 -->
<!-- Title: pugi::xml_document::load_string Pages: 1 -->
<svg width="531pt" height="90pt"
 viewBox="0.00 0.00 531.00 90.00" xmlns="http://www.w3.org/2000/svg" xmlns:xlink="http://www.w3.org/1999/xlink">
<g id="graph0" class="graph" transform="scale(1 1) rotate(0) translate(4 86)">
<title>pugi::xml_document::load_string</title>
<!-- Node1 -->
<g id="Node000001" class="node">
<title>Node1</title>
<g id="a_Node000001"><a xlink:title=" ">
<polygon fill="#999999" stroke="#666666" points="103.75,-57 0,-57 0,-25 103.75,-25 103.75,-57"/>
<text xml:space="preserve" text-anchor="start" x="8" y="-43.5" font-family="Helvetica,sans-Serif" font-size="10.00">pugi::xml_document</text>
<text xml:space="preserve" text-anchor="middle" x="51.88" y="-31.5" font-family="Helvetica,sans-Serif" font-size="10.00">::load_string</text>
</a>
</g>
</g>
<!-- Node2 -->
<g id="Node000002" class="node">
<title>Node2</title>
<g id="a_Node000002"><a xlink:href="classpugi_1_1xml__document.html#a6caaa62694a6d0d1a5bece7fb56a2954" target="_top" xlink:title=" ">
<polygon fill="white" stroke="#666666" points="243.5,-57 139.75,-57 139.75,-25 243.5,-25 243.5,-57"/>
<text xml:space="preserve" text-anchor="start" x="147.75" y="-43.5" font-family="Helvetica,sans-Serif" font-size="10.00">pugi::xml_document</text>
<text xml:space="preserve" text-anchor="middle" x="191.62" y="-31.5" font-family="Helvetica,sans-Serif" font-size="10.00">::load_buffer</text>
</a>
</g>
</g>
<!-- Node1&#45;&gt;Node2 -->
<g id="edge1_Node000001_Node000002" class="edge">
<title>Node1&#45;&gt;Node2</title>
<g id="a_edge1_Node000001_Node000002"><a xlink:title=" ">
<path fill="none" stroke="#63b8ff" d="M104.17,-41C111.88,-41 119.9,-41 127.82,-41"/>
<polygon fill="#63b8ff" stroke="#63b8ff" points="127.78,-44.5 137.78,-41 127.78,-37.5 127.78,-44.5"/>
</a>
</g>
</g>
<!-- Node3 -->
<g id="Node000003" class="node">
<title>Node3</title>
<g id="a_Node000003"><a xlink:href="classpugi_1_1xml__document.html#a56e84f1a61d9798b8095f633d2174ab5" target="_top" xlink:title=" ">
<polygon fill="white" stroke="#666666" points="383.25,-57 279.5,-57 279.5,-25 383.25,-25 383.25,-57"/>
<text xml:space="preserve" text-anchor="start" x="287.5" y="-43.5" font-family="Helvetica,sans-Serif" font-size="10.00">pugi::xml_document</text>
<text xml:space="preserve" text-anchor="middle" x="331.38" y="-31.5" font-family="Helvetica,sans-Serif" font-size="10.00">::reset</text>
</a>
</g>
</g>
<!-- Node2&#45;&gt;Node3 -->
<g id="edge2_Node000002_Node000003" class="edge">
<title>Node2&#45;&gt;Node3</title>
<g id="a_edge2_Node000002_Node000003"><a xlink:title=" ">
<path fill="none" stroke="#63b8ff" d="M243.92,-41C251.63,-41 259.65,-41 267.57,-41"/>
<polygon fill="#63b8ff" stroke="#63b8ff" points="267.53,-44.5 277.53,-41 267.53,-37.5 267.53,-44.5"/>
</a>
</g>
</g>
<!-- Node4 -->
<g id="Node000004" class="node">
<title>Node4</title>
<g id="a_Node000004"><a xlink:href="classpugi_1_1xml__document.html#abe0c208ff54097055a572f0a7fe40a94" target="_top" xlink:title=" ">
<polygon fill="white" stroke="#666666" points="523,-82 419.25,-82 419.25,-50 523,-50 523,-82"/>
<text xml:space="preserve" text-anchor="start" x="427.25" y="-68.5" font-family="Helvetica,sans-Serif" font-size="10.00">pugi::xml_document</text>
<text xml:space="preserve" text-anchor="middle" x="471.12" y="-56.5" font-family="Helvetica,sans-Serif" font-size="10.00">::_create</text>
</a>
</g>
</g>
<!-- Node3&#45;&gt;Node4 -->
<g id="edge3_Node000003_Node000004" class="edge">
<title>Node3&#45;&gt;Node4</title>
<g id="a_edge3_Node000003_Node000004"><a xlink:title=" ">
<path fill="none" stroke="#63b8ff" d="M383.67,-50.31C391.47,-51.72 399.59,-53.2 407.59,-54.65"/>
<polygon fill="#63b8ff" stroke="#63b8ff" points="406.84,-58.07 417.3,-56.41 408.09,-51.18 406.84,-58.07"/>
</a>
</g>
</g>
<!-- Node5 -->
<g id="Node000005" class="node">
<title>Node5</title>
<g id="a_Node000005"><a xlink:href="classpugi_1_1xml__document.html#ae622fdaff0407d22288f36194f9b0cbe" target="_top" xlink:title=" ">
<polygon fill="white" stroke="#666666" points="523,-32 419.25,-32 419.25,0 523,0 523,-32"/>
<text xml:space="preserve" text-anchor="start" x="427.25" y="-18.5" font-family="Helvetica,sans-Serif" font-size="10.00">pugi::xml_document</text>
<text xml:space="preserve" text-anchor="middle" x="471.12" y="-6.5" font-family="Helvetica,sans-Serif" font-size="10.00">::_destroy</text>
</a>
</g>
</g>
<!-- Node3&#45;&gt;Node5 -->
<g id="edge4_Node000003_Node000005" class="edge">
<title>Node3&#45;&gt;Node5</title>
<g id="a_edge4_Node000003_Node000005"><a xlink:title=" ">
<path fill="none" stroke="#63b8ff" d="M383.67,-31.69C391.47,-30.28 399.59,-28.8 407.59,-27.35"/>
<polygon fill="#63b8ff" stroke="#63b8ff" points="408.09,-30.82 417.3,-25.59 406.84,-23.93 408.09,-30.82"/>
</a>
</g>
</g>
</g>
</svg>
