<?xml version="1.0" encoding="UTF-8" standalone="no"?>
<!DOCTYPE svg PUBLIC "-//W3C//DTD SVG 1.1//EN"
 "http://www.w3.org/Graphics/SVG/1.1/DTD/svg11.dtd">
<!-- Generated by graphviz version 14.1.2 (20260124.0452)
 -->
<!-- Title: xpath_string::c_str Pages: 1 -->
<!--zoomable 486 -->

<svg id="main" version="1.1" xmlns="http://www.w3.org/2000/svg" xmlns:xlink="http://www.w3.org/1999/xlink" xml:space="preserve" onload="init(evt)">

<style type="text/css"><![CDATA[
.node, .edge {opacity: 0.7;}
.node.selected, .edge.selected {opacity: 1;}
.edge:hover path { stroke: red; }
.edge:hover polygon { stroke: red; fill: red; }
]]></style>

<defs>
  <circle id="rim" cx="0" cy="0" r="7"/>
  <circle id="rim2" cx="0" cy="0" r="3.5"/>
  <g id="zoomPlus">
    <use xlink:href="#rim" fill="#404040"><set attributeName="fill" to="#808080" begin="zoomplus.mouseover" end="zoomplus.mouseout"/></use>
    <path d="M-4,0h8M0,-4v8" fill="none" stroke="white" stroke-width="1.5" pointer-events="none"/>
  </g>
  <g id="zoomMin">
    <use xlink:href="#rim" fill="#404040"><set attributeName="fill" to="#808080" begin="zoomminus.mouseover" end="zoomminus.mouseout"/></use>
    <path d="M-4,0h8" fill="none" stroke="white" stroke-width="1.5" pointer-events="none"/>
  </g>
  <g id="arrowUp" transform="translate(30 24)">
    <use xlink:href="#rim"/>
    <path pointer-events="none" fill="none" stroke="white" stroke-width="1.5" d="M0,-3.0v7 M-2.5,-0.5L0,-3.0L2.5,-0.5"/>
  </g>
  <g id="arrowRight" transform="rotate(90) translate(36 -43)">
    <use xlink:href="#rim"/>
    <path pointer-events="none" fill="none" stroke="white" stroke-width="1.5" d="M0,-3.0v7 M-2.5,-0.5L0,-3.0L2.5,-0.5"/>
  </g>
  <g id="arrowDown" transform="rotate(180) translate(-30 -48)">
    <use xlink:href="#rim"/>
    <path pointer-events="none" fill="none" stroke="white" stroke-width="1.5" d="M0,-3.0v7 M-2.5,-0.5L0,-3.0L2.5,-0.5"/>
  </g>
  <g id="arrowLeft" transform="rotate(270) translate(-36 17)">
    <use xlink:href="#rim"/>
    <path pointer-events="none" fill="none" stroke="white" stroke-width="1.5" d="M0,-3.0v7 M-2.5,-0.5L0,-3.0L2.5,-0.5"/>
  </g>
  <g id="resetDef">
    <use xlink:href="#rim2" fill="#404040"><set attributeName="fill" to="#808080" begin="reset.mouseover" end="reset.mouseout"/></use>
  </g>
</defs>
<script type="application/ecmascript">
var viewWidth = 1220;
var viewHeight = 486;
var sectionId = 'dynsection-4';
</script>
<script type="application/ecmascript" xlink:href="svg.min.js"/>
<svg id="graph" class="graph">
<g id="viewport">
<title>xpath_string::c_str</title>
<!-- Node1 -->
<g id="Node000001" class="node">
<title>Node1</title>
<g id="a_Node000001"><a xlink:title=" ">
<polygon fill="#999999" stroke="#666666" points="1211.75,-286 1114.75,-286 1114.75,-266 1211.75,-266 1211.75,-286"/>
<text xml:space="preserve" text-anchor="middle" x="1163.25" y="-272.5" font-family="Helvetica,sans-Serif" font-size="10.00">xpath_string::c_str</text>
</a>
</g>
</g>
<!-- Node2 -->
<g id="Node000002" class="node">
<title>Node2</title>
<g id="a_Node000002"><a xlink:href="classxpath__ast__node.html#a98dd7f6e67fe2c56c63056eed835d6a4" target="_top" xlink:title=" ">
<polygon fill="white" stroke="#666666" points="1078.75,-286 934.5,-286 934.5,-266 1078.75,-266 1078.75,-286"/>
<text xml:space="preserve" text-anchor="middle" x="1006.62" y="-272.5" font-family="Helvetica,sans-Serif" font-size="10.00">xpath_ast_node::compare_eq</text>
</a>
</g>
</g>
<!-- Node1&#45;&gt;Node2 -->
<g id="edge1_Node000001_Node000002" class="edge">
<title>Node1&#45;&gt;Node2</title>
<g id="a_edge1_Node000001_Node000002"><a xlink:title=" ">
<path fill="none" stroke="#63b8ff" d="M1103.22,-276C1095.3,-276 1087.11,-276 1079,-276"/>
<polygon fill="#63b8ff" stroke="#63b8ff" points="1103.08,-279.5 1113.08,-276 1103.08,-272.5 1103.08,-279.5"/>
</a>
</g>
</g>
<!-- Node3 -->
<g id="Node000003" class="node">
<title>Node3</title>
<g id="a_Node000003"><a xlink:href="classxpath__ast__node.html#ab7f965a92023bc2704b8e6fd9f3d7c14" target="_top" xlink:title=" ">
<polygon fill="white" stroke="#666666" points="898.5,-254 789.5,-254 789.5,-222 898.5,-222 898.5,-254"/>
<text xml:space="preserve" text-anchor="start" x="797.5" y="-240.5" font-family="Helvetica,sans-Serif" font-size="10.00">xpath_ast_node::eval</text>
<text xml:space="preserve" text-anchor="middle" x="844" y="-228.5" font-family="Helvetica,sans-Serif" font-size="10.00">_boolean</text>
</a>
</g>
</g>
<!-- Node1&#45;&gt;Node3 -->
<g id="edge26_Node000001_Node000003" class="edge">
<title>Node1&#45;&gt;Node3</title>
<g id="a_edge26_Node000001_Node000003"><a xlink:title=" ">
<path fill="none" stroke="#63b8ff" d="M1110.58,-263.04C1100.1,-260.75 1089.11,-258.59 1078.75,-257 1017.38,-247.57 946.18,-242.63 898.63,-240.18"/>
<polygon fill="#63b8ff" stroke="#63b8ff" points="1109.7,-266.43 1120.23,-265.22 1111.24,-259.6 1109.7,-266.43"/>
</a>
</g>
</g>
<!-- Node7 -->
<g id="Node000007" class="node">
<title>Node7</title>
<g id="a_Node000007"><a xlink:href="classxpath__ast__node.html#abb6e4c529276eaf882233dbb6e04e111" target="_top" xlink:title=" ">
<polygon fill="white" stroke="#666666" points="144.25,-431 0,-431 0,-411 144.25,-411 144.25,-431"/>
<text xml:space="preserve" text-anchor="middle" x="72.12" y="-417.5" font-family="Helvetica,sans-Serif" font-size="10.00">xpath_ast_node::compare_rel</text>
</a>
</g>
</g>
<!-- Node1&#45;&gt;Node7 -->
<g id="edge25_Node000001_Node000007" class="edge">
<title>Node1&#45;&gt;Node7</title>
<g id="a_edge25_Node000001_Node000007"><a xlink:title=" ">
<path fill="none" stroke="#63b8ff" d="M1147.07,-294.92C1104.91,-345.14 980.57,-478 845,-478 845,-478 845,-478 381.38,-478 280.15,-478 163.29,-447.91 106.96,-431.45"/>
<polygon fill="#63b8ff" stroke="#63b8ff" points="1149.55,-297.41 1153.21,-287.46 1144.15,-292.95 1149.55,-297.41"/>
</a>
</g>
</g>
<!-- Node8 -->
<g id="Node000008" class="node">
<title>Node8</title>
<g id="a_Node000008"><a xlink:href="classxpath__ast__node.html#a6b675237a590548b68d0e0b97518b6df" target="_top" xlink:title=" ">
<polygon fill="white" stroke="#666666" points="126.62,-101 17.62,-101 17.62,-69 126.62,-69 126.62,-101"/>
<text xml:space="preserve" text-anchor="start" x="25.62" y="-87.5" font-family="Helvetica,sans-Serif" font-size="10.00">xpath_ast_node::eval</text>
<text xml:space="preserve" text-anchor="middle" x="72.12" y="-75.5" font-family="Helvetica,sans-Serif" font-size="10.00">_string</text>
</a>
</g>
</g>
<!-- Node1&#45;&gt;Node8 -->
<g id="edge28_Node000001_Node000008" class="edge">
<title>Node1&#45;&gt;Node8</title>
<g id="a_edge28_Node000001_Node000008"><a xlink:title=" ">
<path fill="none" stroke="#63b8ff" d="M1151.66,-255.43C1117.08,-191.43 1000.64,0 845,0 845,0 845,0 381.38,0 290.24,0 267.4,-13.33 180.25,-40 155.17,-47.67 127.94,-59.16 107.21,-68.6"/>
<polygon fill="#63b8ff" stroke="#63b8ff" points="1148.52,-256.98 1156.29,-264.18 1154.71,-253.7 1148.52,-256.98"/>
</a>
</g>
</g>
<!-- Node9 -->
<g id="Node000009" class="node">
<title>Node9</title>
<g id="a_Node000009"><a xlink:href="classxpath__ast__node.html#a92dd7048e28d486bc7f382d1fc6f1de6" target="_top" xlink:title=" ">
<polygon fill="white" stroke="#666666" points="750.88,-298 641.88,-298 641.88,-266 750.88,-266 750.88,-298"/>
<text xml:space="preserve" text-anchor="start" x="649.88" y="-284.5" font-family="Helvetica,sans-Serif" font-size="10.00">xpath_ast_node::eval</text>
<text xml:space="preserve" text-anchor="middle" x="696.38" y="-272.5" font-family="Helvetica,sans-Serif" font-size="10.00">_number</text>
</a>
</g>
</g>
<!-- Node1&#45;&gt;Node9 -->
<g id="edge27_Node000001_Node000009" class="edge">
<title>Node1&#45;&gt;Node9</title>
<g id="a_edge27_Node000001_Node000009"><a xlink:title=" ">
<path fill="none" stroke="#63b8ff" d="M1113.66,-288.98C1102.29,-291.48 1090.16,-293.72 1078.75,-295 950.99,-309.35 917.78,-301.52 789.5,-293 777.12,-292.18 763.86,-290.86 751.36,-289.41"/>
<polygon fill="#63b8ff" stroke="#63b8ff" points="1114.3,-292.42 1123.26,-286.76 1112.72,-285.6 1114.3,-292.42"/>
</a>
</g>
</g>
<!-- Node2&#45;&gt;Node3 -->
<g id="edge2_Node000002_Node000003" class="edge">
<title>Node2&#45;&gt;Node3</title>
<g id="a_edge2_Node000002_Node000003"><a xlink:title=" ">
<path fill="none" stroke="#63b8ff" d="M971.29,-262.23C950.25,-256.11 922.85,-249.38 898.96,-244.35"/>
<polygon fill="#63b8ff" stroke="#63b8ff" points="970.23,-265.56 980.82,-265.11 972.26,-258.86 970.23,-265.56"/>
</a>
</g>
</g>
<!-- Node3&#45;&gt;Node2 -->
<g id="edge22_Node000003_Node000002" class="edge">
<title>Node3&#45;&gt;Node2</title>
<g id="a_edge22_Node000003_Node000002"><a xlink:title=" ">
<path fill="none" stroke="#63b8ff" d="M899.77,-257.4C910.86,-260.3 922.67,-263.19 934.24,-265.82"/>
<polygon fill="#63b8ff" stroke="#63b8ff" points="900.99,-254.1 890.43,-254.89 899.18,-260.86 900.99,-254.1"/>
</a>
</g>
</g>
<!-- Node4 -->
<g id="Node000004" class="node">
<title>Node4</title>
<g id="a_Node000004"><a xlink:href="classxpath__ast__node.html#ab4e5bbd3f2e83c86a43349374b4bfc22" target="_top" xlink:title=" ">
<polygon fill="white" stroke="#666666" points="753.5,-248 639.25,-248 639.25,-216 753.5,-216 753.5,-248"/>
<text xml:space="preserve" text-anchor="start" x="647.25" y="-234.5" font-family="Helvetica,sans-Serif" font-size="10.00">xpath_ast_node::apply</text>
<text xml:space="preserve" text-anchor="middle" x="696.38" y="-222.5" font-family="Helvetica,sans-Serif" font-size="10.00">_predicate_boolean</text>
</a>
</g>
</g>
<!-- Node3&#45;&gt;Node4 -->
<g id="edge3_Node000003_Node000004" class="edge">
<title>Node3&#45;&gt;Node4</title>
<g id="a_edge3_Node000003_Node000004"><a xlink:title=" ">
<path fill="none" stroke="#63b8ff" d="M777.69,-235.31C769.75,-234.98 761.69,-234.65 753.89,-234.33"/>
<polygon fill="#63b8ff" stroke="#63b8ff" points="777.54,-238.81 787.68,-235.72 777.83,-231.81 777.54,-238.81"/>
</a>
</g>
</g>
<!-- Node3&#45;&gt;Node8 -->
<g id="edge24_Node000003_Node000008" class="edge">
<title>Node3&#45;&gt;Node8</title>
<g id="a_edge24_Node000003_Node000008"><a xlink:title=" ">
<path fill="none" stroke="#63b8ff" d="M821.84,-213.6C774.98,-168.12 657.32,-76 540.38,-76 540.38,-76 540.38,-76 381.38,-76 292.14,-76 188.37,-76 126.86,-78.49"/>
<polygon fill="#63b8ff" stroke="#63b8ff" points="819.14,-215.85 828.68,-220.45 824.09,-210.9 819.14,-215.85"/>
</a>
</g>
</g>
<!-- Node3&#45;&gt;Node9 -->
<g id="edge23_Node000003_Node000009" class="edge">
<title>Node3&#45;&gt;Node9</title>
<g id="a_edge23_Node000003_Node000009"><a xlink:title=" ">
<path fill="none" stroke="#63b8ff" d="M778.37,-250.82C762.56,-255.45 746.23,-260.66 732.42,-265.54"/>
<polygon fill="#63b8ff" stroke="#63b8ff" points="779.08,-254.25 787.73,-248.13 777.16,-247.52 779.08,-254.25"/>
</a>
</g>
</g>
<!-- Node5 -->
<g id="Node000005" class="node">
<title>Node5</title>
<g id="a_Node000005"><a xlink:href="classxpath__ast__node.html#a7e35f265c9e0712a16e1d8a9db4c7672" target="_top" xlink:title=" ">
<polygon fill="white" stroke="#666666" points="439.5,-286 325.25,-286 325.25,-254 439.5,-254 439.5,-286"/>
<text xml:space="preserve" text-anchor="start" x="333.25" y="-272.5" font-family="Helvetica,sans-Serif" font-size="10.00">xpath_ast_node::apply</text>
<text xml:space="preserve" text-anchor="middle" x="382.38" y="-260.5" font-family="Helvetica,sans-Serif" font-size="10.00">_predicate</text>
</a>
</g>
</g>
<!-- Node4&#45;&gt;Node5 -->
<g id="edge4_Node000004_Node000005" class="edge">
<title>Node4&#45;&gt;Node5</title>
<g id="a_edge4_Node000004_Node000005"><a xlink:title=" ">
<path fill="none" stroke="#63b8ff" d="M627.64,-232.41C583.96,-233.56 526.08,-236.73 475.5,-245 462.74,-247.09 449.21,-250.22 436.55,-253.57"/>
<polygon fill="#63b8ff" stroke="#63b8ff" points="627.56,-235.91 637.48,-232.18 627.4,-228.92 627.56,-235.91"/>
</a>
</g>
</g>
<!-- Node6 -->
<g id="Node000006" class="node">
<title>Node6</title>
<g id="a_Node000006"><a xlink:href="classxpath__ast__node.html#a68cace396dd4eeae67ecfcd34a3a8285" target="_top" xlink:title=" ">
<polygon fill="white" stroke="#666666" points="289.25,-286 180.25,-286 180.25,-254 289.25,-254 289.25,-286"/>
<text xml:space="preserve" text-anchor="start" x="188.25" y="-272.5" font-family="Helvetica,sans-Serif" font-size="10.00">xpath_ast_node::eval</text>
<text xml:space="preserve" text-anchor="middle" x="234.75" y="-260.5" font-family="Helvetica,sans-Serif" font-size="10.00">_node_set</text>
</a>
</g>
</g>
<!-- Node5&#45;&gt;Node6 -->
<g id="edge5_Node000005_Node000006" class="edge">
<title>Node5&#45;&gt;Node6</title>
<g id="a_edge5_Node000005_Node000006"><a xlink:title=" ">
<path fill="none" stroke="#63b8ff" d="M313.7,-270C305.59,-270 297.39,-270 289.51,-270"/>
<polygon fill="#63b8ff" stroke="#63b8ff" points="313.56,-273.5 323.56,-270 313.56,-266.5 313.56,-273.5"/>
</a>
</g>
</g>
<!-- Node6&#45;&gt;Node2 -->
<g id="edge6_Node000006_Node000002" class="edge">
<title>Node6&#45;&gt;Node2</title>
<g id="a_edge6_Node000006_Node000002"><a xlink:title=" ">
<path fill="none" stroke="#63b8ff" d="M285.83,-290.57C333.62,-309.02 408.11,-334.7 475.5,-345 663.81,-373.77 890.94,-312.05 973.59,-286.45"/>
<polygon fill="#63b8ff" stroke="#63b8ff" points="287.17,-287.34 276.58,-286.96 284.62,-293.86 287.17,-287.34"/>
</a>
</g>
</g>
<!-- Node6&#45;&gt;Node3 -->
<g id="edge9_Node000006_Node000003" class="edge">
<title>Node6&#45;&gt;Node3</title>
<g id="a_edge9_Node000006_Node000003"><a xlink:title=" ">
<path fill="none" stroke="#63b8ff" d="M299.42,-250.5C397.38,-223.14 590.78,-179.62 753.5,-207 770.69,-209.89 788.99,-215.7 804.53,-221.52"/>
<polygon fill="#63b8ff" stroke="#63b8ff" points="298.65,-247.08 289.98,-253.17 300.56,-253.81 298.65,-247.08"/>
</a>
</g>
</g>
<!-- Node6&#45;&gt;Node7 -->
<g id="edge7_Node000006_Node000007" class="edge">
<title>Node6&#45;&gt;Node7</title>
<g id="a_edge7_Node000006_Node000007"><a xlink:title=" ">
<path fill="none" stroke="#63b8ff" d="M208.23,-293.99C172.52,-327.57 109.17,-387.12 83.93,-410.84"/>
<polygon fill="#63b8ff" stroke="#63b8ff" points="210.26,-296.88 215.15,-287.48 205.47,-291.78 210.26,-296.88"/>
</a>
</g>
</g>
<!-- Node6&#45;&gt;Node8 -->
<g id="edge10_Node000006_Node000008" class="edge">
<title>Node6&#45;&gt;Node8</title>
<g id="a_edge10_Node000006_Node000008"><a xlink:title=" ">
<path fill="none" stroke="#63b8ff" d="M212.07,-245.03C178.67,-206.56 115.54,-133.85 87.35,-101.38"/>
<polygon fill="#63b8ff" stroke="#63b8ff" points="209.3,-247.18 218.5,-252.44 214.59,-242.59 209.3,-247.18"/>
</a>
</g>
</g>
<!-- Node7&#45;&gt;Node3 -->
<g id="edge8_Node000007_Node000003" class="edge">
<title>Node7&#45;&gt;Node3</title>
<g id="a_edge8_Node000007_Node000003"><a xlink:title=" ">
<path fill="none" stroke="#63b8ff" d="M155.7,-426.61C262.18,-431.1 451.69,-429.73 603.25,-378 673.15,-354.14 690.5,-345.55 753.5,-307 779.44,-291.13 806.78,-269.18 824.31,-254.33"/>
<polygon fill="#63b8ff" stroke="#63b8ff" points="156.05,-423.12 145.91,-426.17 155.74,-430.12 156.05,-423.12"/>
</a>
</g>
</g>
<!-- Node8&#45;&gt;Node2 -->
<g id="edge11_Node000008_Node000002" class="edge">
<title>Node8&#45;&gt;Node2</title>
<g id="a_edge11_Node000008_Node000002"><a xlink:title=" ">
<path fill="none" stroke="#63b8ff" d="M138.22,-69.22C200.31,-55.57 296.65,-38 381.38,-38 697.38,-38 697.38,-38 697.38,-38 848.82,-38 971.24,-220.22 999.48,-265.77"/>
<polygon fill="#63b8ff" stroke="#63b8ff" points="137.51,-65.79 128.51,-71.39 139.04,-72.63 137.51,-65.79"/>
</a>
</g>
</g>
<!-- Node8&#45;&gt;Node3 -->
<g id="edge12_Node000008_Node000003" class="edge">
<title>Node8&#45;&gt;Node3</title>
<g id="a_edge12_Node000008_Node000003"><a xlink:title=" ">
<path fill="none" stroke="#63b8ff" d="M138.1,-91.92C200.48,-94 297.37,-94 381.38,-94 540.38,-94 540.38,-94 540.38,-94 655.76,-94 771.86,-183.69 819.94,-221.69"/>
<polygon fill="#63b8ff" stroke="#63b8ff" points="138.49,-88.44 128.37,-91.57 138.24,-95.43 138.49,-88.44"/>
</a>
</g>
</g>
<!-- Node8&#45;&gt;Node9 -->
<g id="edge13_Node000008_Node000009" class="edge">
<title>Node8&#45;&gt;Node9</title>
<g id="a_edge13_Node000008_Node000009"><a xlink:title=" ">
<path fill="none" stroke="#63b8ff" d="M127.06,-104.92C223.47,-134.99 431.35,-193.67 603.25,-254 615.77,-258.39 629.1,-263.49 641.61,-268.23"/>
<polygon fill="#63b8ff" stroke="#63b8ff" points="128.18,-101.6 117.59,-101.94 126.08,-108.28 128.18,-101.6"/>
</a>
</g>
</g>
<!-- Node9&#45;&gt;Node2 -->
<g id="edge18_Node000009_Node000002" class="edge">
<title>Node9&#45;&gt;Node2</title>
<g id="a_edge18_Node000009_Node000002"><a xlink:title=" ">
<path fill="none" stroke="#63b8ff" d="M762.54,-280.73C812.83,-279.75 882.32,-278.4 934.13,-277.39"/>
<polygon fill="#63b8ff" stroke="#63b8ff" points="762.6,-277.23 752.67,-280.92 762.74,-284.23 762.6,-277.23"/>
</a>
</g>
</g>
<!-- Node9&#45;&gt;Node3 -->
<g id="edge20_Node000009_Node000003" class="edge">
<title>Node9&#45;&gt;Node3</title>
<g id="a_edge20_Node000009_Node000003"><a xlink:title=" ">
<path fill="none" stroke="#63b8ff" d="M762.15,-269.14C777.97,-264.51 794.31,-259.29 808.12,-254.4"/>
<polygon fill="#63b8ff" stroke="#63b8ff" points="761.42,-265.71 752.77,-271.83 763.35,-272.44 761.42,-265.71"/>
</a>
</g>
</g>
<!-- Node9&#45;&gt;Node7 -->
<g id="edge19_Node000009_Node000007" class="edge">
<title>Node9&#45;&gt;Node7</title>
<g id="a_edge19_Node000009_Node000007"><a xlink:title=" ">
<path fill="none" stroke="#63b8ff" d="M668.58,-305.23C651.14,-319.05 627.24,-335.67 603.25,-345 447.5,-405.61 249.11,-418.57 144.75,-420.92"/>
<polygon fill="#63b8ff" stroke="#63b8ff" points="670.36,-308.3 675.91,-299.27 665.94,-302.87 670.36,-308.3"/>
</a>
</g>
</g>
<!-- Node9&#45;&gt;Node8 -->
<g id="edge21_Node000009_Node000008" class="edge">
<title>Node9&#45;&gt;Node8</title>
<g id="a_edge21_Node000009_Node000008"><a xlink:title=" ">
<path fill="none" stroke="#63b8ff" d="M663.68,-260.51C646.04,-252.13 623.59,-243.14 603.25,-236 431.35,-175.67 223.46,-116.99 127.06,-94.22"/>
<polygon fill="#63b8ff" stroke="#63b8ff" points="662.12,-263.64 672.63,-264.96 665.23,-257.37 662.12,-263.64"/>
</a>
</g>
</g>
<!-- Node10 -->
<g id="Node000010" class="node">
<title>Node10</title>
<g id="a_Node000010"><a xlink:href="classxpath__ast__node.html#abf2d4b745493f63aebc1c89d9fde8eed" target="_top" xlink:title=" ">
<polygon fill="white" stroke="#666666" points="596.5,-286 482.25,-286 482.25,-254 596.5,-254 596.5,-286"/>
<text xml:space="preserve" text-anchor="start" x="490.25" y="-272.5" font-family="Helvetica,sans-Serif" font-size="10.00">xpath_ast_node::apply</text>
<text xml:space="preserve" text-anchor="middle" x="539.38" y="-260.5" font-family="Helvetica,sans-Serif" font-size="10.00">_predicate_number</text>
</a>
</g>
</g>
<!-- Node9&#45;&gt;Node10 -->
<g id="edge14_Node000009_Node000010" class="edge">
<title>Node9&#45;&gt;Node10</title>
<g id="a_edge14_Node000009_Node000010"><a xlink:title=" ">
<path fill="none" stroke="#63b8ff" d="M630.24,-276.96C619.18,-276.1 607.77,-275.22 596.96,-274.38"/>
<polygon fill="#63b8ff" stroke="#63b8ff" points="629.85,-280.44 640.09,-277.72 630.39,-273.46 629.85,-280.44"/>
</a>
</g>
</g>
<!-- Node11 -->
<g id="Node000011" class="node">
<title>Node11</title>
<g id="a_Node000011"><a xlink:href="classxpath__ast__node.html#a8cedd7e15623b9fa431788b8843f1463" target="_top" xlink:title=" ">
<polygon fill="white" stroke="#666666" points="603.25,-336 475.5,-336 475.5,-304 603.25,-304 603.25,-336"/>
<text xml:space="preserve" text-anchor="start" x="483.5" y="-322.5" font-family="Helvetica,sans-Serif" font-size="10.00">xpath_ast_node::apply</text>
<text xml:space="preserve" text-anchor="middle" x="539.38" y="-310.5" font-family="Helvetica,sans-Serif" font-size="10.00">_predicate_number_const</text>
</a>
</g>
</g>
<!-- Node9&#45;&gt;Node11 -->
<g id="edge16_Node000009_Node000011" class="edge">
<title>Node9&#45;&gt;Node11</title>
<g id="a_edge16_Node000009_Node000011"><a xlink:title=" ">
<path fill="none" stroke="#63b8ff" d="M630.5,-297.9C621.62,-300.08 612.5,-302.32 603.65,-304.49"/>
<polygon fill="#63b8ff" stroke="#63b8ff" points="631.25,-301.32 640.13,-295.54 629.58,-294.53 631.25,-301.32"/>
</a>
</g>
</g>
<!-- Node10&#45;&gt;Node5 -->
<g id="edge15_Node000010_Node000005" class="edge">
<title>Node10&#45;&gt;Node5</title>
<g id="a_edge15_Node000010_Node000005"><a xlink:title=" ">
<path fill="none" stroke="#63b8ff" d="M470.58,-270C460.37,-270 449.93,-270 439.99,-270"/>
<polygon fill="#63b8ff" stroke="#63b8ff" points="470.46,-273.5 480.46,-270 470.46,-266.5 470.46,-273.5"/>
</a>
</g>
</g>
<!-- Node11&#45;&gt;Node5 -->
<g id="edge17_Node000011_Node000005" class="edge">
<title>Node11&#45;&gt;Node5</title>
<g id="a_edge17_Node000011_Node000005"><a xlink:title=" ">
<path fill="none" stroke="#63b8ff" d="M477.03,-300.21C462.94,-295.67 448.11,-290.88 434.51,-286.49"/>
<polygon fill="#63b8ff" stroke="#63b8ff" points="475.59,-303.42 486.18,-303.16 477.74,-296.76 475.59,-303.42"/>
</a>
</g>
</g>
</g>
</svg>

<g id="navigator" transform="translate(0 0)" fill="#404254">
  <rect fill="#f2f5e9" fill-opacity="0.5" stroke="#606060" stroke-width=".5" x="0" y="0" width="60" height="60"/>
  <use id="zoomplus" xlink:href="#zoomPlus" x="17" y="9" onmousedown="handleZoom(evt,'in')"/>
  <use id="zoomminus" xlink:href="#zoomMin" x="42" y="9" onmousedown="handleZoom(evt,'out')"/>
  <use id="reset" xlink:href="#resetDef" x="30" y="36" onmousedown="handleReset()"/>
   <use id="arrowup" xlink:href="#arrowUp" x="0" y="0" onmousedown="handlePan(0,-1)"/>
  <use id="arrowright" xlink:href="#arrowRight" x="0" y="0" onmousedown="handlePan(1,0)"/>
  <use id="arrowdown" xlink:href="#arrowDown" x="0" y="0" onmousedown="handlePan(0,1)"/>
  <use id="arrowleft" xlink:href="#arrowLeft" x="0" y="0" onmousedown="handlePan(-1,0)"/>
</g>
<svg viewBox="0 0 15 15" width="100%" height="30px" preserveAspectRatio="xMaxYMin meet">
 <g id="arrow_out" transform="scale(0.3 0.3)">
  <a xlink:href="classxpath__string_af69f5c575cfd3de179cac76a1b0b5c9e_icgraph_org.svg" target="_base">
   <rect id="button" ry="5" rx="5" y="6" x="6" height="38" width="38"
        fill="#f2f5e9" fill-opacity="0.5" stroke="#606060" stroke-width="1.0"/>
   <path id="arrow"
     d="M 11.500037,31.436501 C 11.940474,20.09759 22.043105,11.32322 32.158766,21.979434 L 37.068811,17.246167 C 37.068811,17.246167 37.088388,32 37.088388,32 L 22.160133,31.978069 C 22.160133,31.978069 26.997745,27.140456 26.997745,27.140456 C 18.528582,18.264221 13.291696,25.230495 11.500037,31.436501 z"
     style="fill:#404040;"/>
  </a>
 </g>
</svg>

<style type='text/css'>
<![CDATA[
[data-mouse-over-selected='false'] { opacity: 0.7; }
[data-mouse-over-selected='true']  { opacity: 1.0; }
]]>
</style>
<script type="application/ecmascript"><![CDATA[
document.addEventListener('DOMContentLoaded', (event) => {
  highlightEdges();
  highlightAdjacentNodes();
});
]]></script>
</svg>
