<?xml version="1.0" encoding="UTF-8" standalone="no"?>
<!DOCTYPE svg PUBLIC "-//W3C//DTD SVG 1.1//EN"
 "http://www.w3.org/Graphics/SVG/1.1/DTD/svg11.dtd">
<!-- Generated by graphviz version 14.1.2 (20260124.0452)
 -->
<!-- Title: GEApplication::swapFullScreen Pages: 1 -->
<svg width="711pt" height="28pt"
 viewBox="0.00 0.00 711.00 28.00" xmlns="http://www.w3.org/2000/svg" xmlns:xlink="http://www.w3.org/1999/xlink">
<g id="graph0" class="graph" transform="scale(1 1) rotate(0) translate(4 24)">
<title>GEApplication::swapFullScreen</title>
<!-- Node1 -->
<g id="Node000001" class="node">
<title>Node1</title>
<g id="a_Node000001"><a xlink:title="Cambia entre pantalla completa y modo ventana.">
<polygon fill="#999999" stroke="#666666" points="703.25,-20 549.25,-20 549.25,0 703.25,0 703.25,-20"/>
<text xml:space="preserve" text-anchor="middle" x="626.25" y="-6.5" font-family="Helvetica,sans-Serif" font-size="10.00">GEApplication::swapFullScreen</text>
</a>
</g>
</g>
<!-- Node2 -->
<g id="Node000002" class="node">
<title>Node2</title>
<g id="a_Node000002"><a xlink:href="class_g_e_application.html#aff889e80a2c5e7e0bf9b530b7ae3cc16" target="_top" xlink:title="Respuesta a un evento de teclado.">
<polygon fill="white" stroke="#666666" points="513.25,-20 375,-20 375,0 513.25,0 513.25,-20"/>
<text xml:space="preserve" text-anchor="middle" x="444.12" y="-6.5" font-family="Helvetica,sans-Serif" font-size="10.00">GEApplication::keyCallback</text>
</a>
</g>
</g>
<!-- Node1&#45;&gt;Node2 -->
<g id="edge1_Node000001_Node000002" class="edge">
<title>Node1&#45;&gt;Node2</title>
<g id="a_edge1_Node000001_Node000002"><a xlink:title=" ">
<path fill="none" stroke="#63b8ff" d="M537.55,-10C529.52,-10 521.46,-10 513.64,-10"/>
<polygon fill="#63b8ff" stroke="#63b8ff" points="537.35,-13.5 547.35,-10 537.35,-6.5 537.35,-13.5"/>
</a>
</g>
</g>
<!-- Node3 -->
<g id="Node000003" class="node">
<title>Node3</title>
<g id="a_Node000003"><a xlink:href="class_g_e_application.html#ae473a6cb8cc8aa8a76a19a8df91d6e49" target="_top" xlink:title="Inicializa la ventana GLFW.">
<polygon fill="white" stroke="#666666" points="339,-20 206.75,-20 206.75,0 339,0 339,-20"/>
<text xml:space="preserve" text-anchor="middle" x="272.88" y="-6.5" font-family="Helvetica,sans-Serif" font-size="10.00">GEApplication::initWindow</text>
</a>
</g>
</g>
<!-- Node2&#45;&gt;Node3 -->
<g id="edge2_Node000002_Node000003" class="edge">
<title>Node2&#45;&gt;Node3</title>
<g id="a_edge2_Node000002_Node000003"><a xlink:title=" ">
<path fill="none" stroke="#63b8ff" d="M363.47,-10C355.43,-10 347.33,-10 339.46,-10"/>
<polygon fill="#63b8ff" stroke="#63b8ff" points="363.26,-13.5 373.26,-10 363.26,-6.5 363.26,-13.5"/>
</a>
</g>
</g>
<!-- Node4 -->
<g id="Node000004" class="node">
<title>Node4</title>
<g id="a_Node000004"><a xlink:href="class_g_e_application.html#a2a7d38dd9a5bca43fc115b09704915a4" target="_top" xlink:title="Ejecuta la aplicación.">
<polygon fill="white" stroke="#666666" points="170.75,-20 73,-20 73,0 170.75,0 170.75,-20"/>
<text xml:space="preserve" text-anchor="middle" x="121.88" y="-6.5" font-family="Helvetica,sans-Serif" font-size="10.00">GEApplication::run</text>
</a>
</g>
</g>
<!-- Node3&#45;&gt;Node4 -->
<g id="edge3_Node000003_Node000004" class="edge">
<title>Node3&#45;&gt;Node4</title>
<g id="a_edge3_Node000003_Node000004"><a xlink:title=" ">
<path fill="none" stroke="#63b8ff" d="M195.04,-10C186.91,-10 178.82,-10 171.15,-10"/>
<polygon fill="#63b8ff" stroke="#63b8ff" points="195.01,-13.5 205.01,-10 195.01,-6.5 195.01,-13.5"/>
</a>
</g>
</g>
<!-- Node5 -->
<g id="Node000005" class="node">
<title>Node5</title>
<g id="a_Node000005"><a xlink:href="main_8cpp.html#ae66f6b31b5ad750f1fe042a706a4e3d4" target="_top" xlink:title=" ">
<polygon fill="white" stroke="#666666" points="37,-20 0,-20 0,0 37,0 37,-20"/>
<text xml:space="preserve" text-anchor="middle" x="18.5" y="-6.5" font-family="Helvetica,sans-Serif" font-size="10.00">main</text>
</a>
</g>
</g>
<!-- Node4&#45;&gt;Node5 -->
<g id="edge4_Node000004_Node000005" class="edge">
<title>Node4&#45;&gt;Node5</title>
<g id="a_edge4_Node000004_Node000005"><a xlink:title=" ">
<path fill="none" stroke="#63b8ff" d="M61.33,-10C52.55,-10 44.14,-10 37.19,-10"/>
<polygon fill="#63b8ff" stroke="#63b8ff" points="61.05,-13.5 71.05,-10 61.05,-6.5 61.05,-13.5"/>
</a>
</g>
</g>
</g>
</svg>
