<?xml version="1.0" encoding="UTF-8" standalone="no"?>
<!DOCTYPE svg PUBLIC "-//W3C//DTD SVG 1.1//EN"
 "http://www.w3.org/Graphics/SVG/1.1/DTD/svg11.dtd">
<!-- Generated by graphviz version 14.1.2 (20260124.0452)
 -->
<!-- Title: GEDepthBuffer::GEDepthBuffer Pages: 1 -->
<svg width="308pt" height="90pt"
 viewBox="0.00 0.00 308.00 90.00" xmlns="http://www.w3.org/2000/svg" xmlns:xlink="http://www.w3.org/1999/xlink">
<g id="graph0" class="graph" transform="scale(1 1) rotate(0) translate(4 86)">
<title>GEDepthBuffer::GEDepthBuffer</title>
<!-- Node1 -->
<g id="Node000001" class="node">
<title>Node1</title>
<g id="a_Node000001"><a xlink:title="Crea un buffer de profundidad (imagen, memoria y vista).">
<polygon fill="#999999" stroke="#666666" points="154,-51 0,-51 0,-31 154,-31 154,-51"/>
<text xml:space="preserve" text-anchor="middle" x="77" y="-37.5" font-family="Helvetica,sans-Serif" font-size="10.00">GEDepthBuffer::GEDepthBuffer</text>
</a>
</g>
</g>
<!-- Node2 -->
<g id="Node000002" class="node">
<title>Node2</title>
<g id="a_Node000002"><a xlink:href="class_g_e_graphics_context.html#a0d7cc8d858bf9deed9bf31b2d5b7ea36" target="_top" xlink:title="Busca el formato de imagen adecuado para el buffer de profundidad.">
<polygon fill="white" stroke="#666666" points="299.75,-82 190,-82 190,-50 299.75,-50 299.75,-82"/>
<text xml:space="preserve" text-anchor="start" x="198" y="-68.5" font-family="Helvetica,sans-Serif" font-size="10.00">GEGraphicsContext::</text>
<text xml:space="preserve" text-anchor="middle" x="244.88" y="-56.5" font-family="Helvetica,sans-Serif" font-size="10.00">findDepthFormat</text>
</a>
</g>
</g>
<!-- Node1&#45;&gt;Node2 -->
<g id="edge1_Node000001_Node000002" class="edge">
<title>Node1&#45;&gt;Node2</title>
<g id="a_edge1_Node000001_Node000002"><a xlink:title=" ">
<path fill="none" stroke="#63b8ff" d="M147.38,-51.46C157.64,-53 168.18,-54.59 178.35,-56.13"/>
<polygon fill="#63b8ff" stroke="#63b8ff" points="177.74,-59.57 188.15,-57.6 178.79,-52.65 177.74,-59.57"/>
</a>
</g>
</g>
<!-- Node3 -->
<g id="Node000003" class="node">
<title>Node3</title>
<g id="a_Node000003"><a xlink:href="class_g_e_graphics_context.html#ad35321242b0a2bb7e00b2ef0a515d402" target="_top" xlink:title="Busca el tipo de memoria adecuado para un filtro y propiedades dadas.">
<polygon fill="white" stroke="#666666" points="299.75,-32 190,-32 190,0 299.75,0 299.75,-32"/>
<text xml:space="preserve" text-anchor="start" x="198" y="-18.5" font-family="Helvetica,sans-Serif" font-size="10.00">GEGraphicsContext::</text>
<text xml:space="preserve" text-anchor="middle" x="244.88" y="-6.5" font-family="Helvetica,sans-Serif" font-size="10.00">findMemoryType</text>
</a>
</g>
</g>
<!-- Node1&#45;&gt;Node3 -->
<g id="edge2_Node000001_Node000003" class="edge">
<title>Node1&#45;&gt;Node3</title>
<g id="a_edge2_Node000001_Node000003"><a xlink:title=" ">
<path fill="none" stroke="#63b8ff" d="M147.38,-30.54C157.64,-29 168.18,-27.41 178.35,-25.87"/>
<polygon fill="#63b8ff" stroke="#63b8ff" points="178.79,-29.35 188.15,-24.4 177.74,-22.43 178.79,-29.35"/>
</a>
</g>
</g>
</g>
</svg>
