<?xml version="1.0" encoding="UTF-8" standalone="no"?>
<!DOCTYPE svg PUBLIC "-//W3C//DTD SVG 1.1//EN"
 "http://www.w3.org/Graphics/SVG/1.1/DTD/svg11.dtd">
<!-- Generated by graphviz version 14.1.2 (20260124.0452)
 -->
<!-- Title: GEXMLParser::parseBalljoint Pages: 1 -->
<svg width="617pt" height="251pt"
 viewBox="0.00 0.00 617.00 251.00" xmlns="http://www.w3.org/2000/svg" xmlns:xlink="http://www.w3.org/1999/xlink">
<g id="graph0" class="graph" transform="scale(1 1) rotate(0) translate(4 246.8)">
<title>GEXMLParser::parseBalljoint</title>
<!-- Node1 -->
<g id="Node000001" class="node">
<title>Node1</title>
<g id="a_Node000001"><a xlink:title="Parsea una articulación y sus hijas recursivamente.">
<polygon fill="#999999" stroke="#666666" points="143.5,-162 0,-162 0,-142 143.5,-142 143.5,-162"/>
<text xml:space="preserve" text-anchor="middle" x="71.75" y="-148.5" font-family="Helvetica,sans-Serif" font-size="10.00">GEXMLParser::parseBalljoint</text>
</a>
</g>
</g>
<!-- Node1&#45;&gt;Node1 -->
<g id="edge12_Node000001_Node000001" class="edge">
<title>Node1&#45;&gt;Node1</title>
<g id="a_edge12_Node000001_Node000001"><a xlink:title=" ">
<path fill="none" stroke="#63b8ff" d="M44.24,-162.34C32.49,-170.98 41.66,-180 71.75,-180 88.68,-180 98.99,-177.14 102.67,-173.11"/>
<polygon fill="#63b8ff" stroke="#63b8ff" points="106.07,-172.26 99.72,-163.78 99.4,-174.37 106.07,-172.26"/>
</a>
</g>
</g>
<!-- Node2 -->
<g id="Node000002" class="node">
<title>Node2</title>
<g id="a_Node000002"><a xlink:href="classpugi_1_1xml__attribute.html#af245d352a69150cb6b556d1400f24f8b" target="_top" xlink:title=" ">
<polygon fill="white" stroke="#666666" points="459.38,-234 363.12,-234 363.12,-202 459.38,-202 459.38,-234"/>
<text xml:space="preserve" text-anchor="start" x="371.12" y="-220.5" font-family="Helvetica,sans-Serif" font-size="10.00">pugi::xml_attribute</text>
<text xml:space="preserve" text-anchor="middle" x="411.25" y="-208.5" font-family="Helvetica,sans-Serif" font-size="10.00">::as_float</text>
</a>
</g>
</g>
<!-- Node1&#45;&gt;Node2 -->
<g id="edge1_Node000001_Node000002" class="edge">
<title>Node1&#45;&gt;Node2</title>
<g id="a_edge1_Node000001_Node000002"><a xlink:title=" ">
<path fill="none" stroke="#63b8ff" d="M82.08,-162.31C99.25,-180.41 137.9,-217.28 179.5,-231 235.94,-249.61 304.32,-242.34 351.93,-232.9"/>
<polygon fill="#63b8ff" stroke="#63b8ff" points="352.4,-236.37 361.48,-230.9 350.98,-229.52 352.4,-236.37"/>
</a>
</g>
</g>
<!-- Node4 -->
<g id="Node000004" class="node">
<title>Node4</title>
<g id="a_Node000004"><a xlink:href="classpugi_1_1xml__attribute.html#ae5f55e07fdbe1b862af67cf9eb5678a3" target="_top" xlink:title=" ">
<polygon fill="white" stroke="#666666" points="293,-146 196.75,-146 196.75,-114 293,-114 293,-146"/>
<text xml:space="preserve" text-anchor="start" x="204.75" y="-132.5" font-family="Helvetica,sans-Serif" font-size="10.00">pugi::xml_attribute</text>
<text xml:space="preserve" text-anchor="middle" x="244.88" y="-120.5" font-family="Helvetica,sans-Serif" font-size="10.00">::as_string</text>
</a>
</g>
</g>
<!-- Node1&#45;&gt;Node4 -->
<g id="edge4_Node000001_Node000004" class="edge">
<title>Node1&#45;&gt;Node4</title>
<g id="a_edge4_Node000001_Node000004"><a xlink:title=" ">
<path fill="none" stroke="#63b8ff" d="M143.84,-142.86C157.54,-141.1 171.76,-139.27 185.03,-137.57"/>
<polygon fill="#63b8ff" stroke="#63b8ff" points="185.43,-141.04 194.9,-136.3 184.54,-134.1 185.43,-141.04"/>
</a>
</g>
</g>
<!-- Node5 -->
<g id="Node000005" class="node">
<title>Node5</title>
<g id="a_Node000005"><a xlink:href="classpugi_1_1xml__node.html#a2d27d392a789976eb1aef9d49f72393e" target="_top" xlink:title=" ">
<polygon fill="white" stroke="#666666" points="472.88,-184 349.62,-184 349.62,-164 472.88,-164 472.88,-184"/>
<text xml:space="preserve" text-anchor="middle" x="411.25" y="-170.5" font-family="Helvetica,sans-Serif" font-size="10.00">pugi::xml_node::attribute</text>
</a>
</g>
</g>
<!-- Node1&#45;&gt;Node5 -->
<g id="edge6_Node000001_Node000005" class="edge">
<title>Node1&#45;&gt;Node5</title>
<g id="a_edge6_Node000001_Node000005"><a xlink:title=" ">
<path fill="none" stroke="#63b8ff" d="M143.91,-156.64C201.02,-160.36 280.86,-165.57 338.2,-169.3"/>
<polygon fill="#63b8ff" stroke="#63b8ff" points="337.64,-172.77 347.85,-169.93 338.1,-165.79 337.64,-172.77"/>
</a>
</g>
</g>
<!-- Node6 -->
<g id="Node000006" class="node">
<title>Node6</title>
<g id="a_Node000006"><a xlink:href="classpugi_1_1xml__node.html#a4154ffb6451d4203b74bb56d3f3ecf50" target="_top" xlink:title=" ">
<polygon fill="white" stroke="#666666" points="299,-96 190.75,-96 190.75,-76 299,-76 299,-96"/>
<text xml:space="preserve" text-anchor="middle" x="244.88" y="-82.5" font-family="Helvetica,sans-Serif" font-size="10.00">pugi::xml_node::child</text>
</a>
</g>
</g>
<!-- Node1&#45;&gt;Node6 -->
<g id="edge7_Node000001_Node000006" class="edge">
<title>Node1&#45;&gt;Node6</title>
<g id="a_edge7_Node000001_Node000006"><a xlink:title=" ">
<path fill="none" stroke="#63b8ff" d="M94.09,-141.64C115.41,-131.52 149.26,-116.07 179.5,-105 184.44,-103.19 189.64,-101.43 194.85,-99.76"/>
<polygon fill="#63b8ff" stroke="#63b8ff" points="195.53,-103.21 204.04,-96.9 193.45,-96.53 195.53,-103.21"/>
</a>
</g>
</g>
<!-- Node8 -->
<g id="Node000008" class="node">
<title>Node8</title>
<g id="a_Node000008"><a xlink:href="classpugi_1_1xml__node.html#a4f72c001fed61753fa76fd32d4e978af" target="_top" xlink:title=" ">
<polygon fill="white" stroke="#666666" points="305.75,-58 184,-58 184,-38 305.75,-38 305.75,-58"/>
<text xml:space="preserve" text-anchor="middle" x="244.88" y="-44.5" font-family="Helvetica,sans-Serif" font-size="10.00">pugi::xml_node::children</text>
</a>
</g>
</g>
<!-- Node1&#45;&gt;Node8 -->
<g id="edge9_Node000001_Node000008" class="edge">
<title>Node1&#45;&gt;Node8</title>
<g id="a_edge9_Node000001_Node000008"><a xlink:title=" ">
<path fill="none" stroke="#63b8ff" d="M82.98,-141.55C100.94,-123.76 139.99,-87.56 179.5,-67 182.7,-65.33 186.08,-63.79 189.53,-62.37"/>
<polygon fill="#63b8ff" stroke="#63b8ff" points="190.47,-65.75 198.62,-58.98 188.03,-59.19 190.47,-65.75"/>
</a>
</g>
</g>
<!-- Node11 -->
<g id="Node000011" class="node">
<title>Node11</title>
<g id="a_Node000011"><a xlink:href="class_g_e_x_m_l_parser.html#aa8e732df591d508941d3c717188b7266" target="_top" xlink:title="Parsea un nodo vec3 (offset, zaxis, yaxis).">
<polygon fill="white" stroke="#666666" points="310.25,-222 179.5,-222 179.5,-202 310.25,-202 310.25,-222"/>
<text xml:space="preserve" text-anchor="middle" x="244.88" y="-208.5" font-family="Helvetica,sans-Serif" font-size="10.00">GEXMLParser::parseVec3</text>
</a>
</g>
</g>
<!-- Node1&#45;&gt;Node11 -->
<g id="edge13_Node000001_Node000011" class="edge">
<title>Node1&#45;&gt;Node11</title>
<g id="a_edge13_Node000001_Node000011"><a xlink:title=" ">
<path fill="none" stroke="#63b8ff" d="M102.56,-162.45C130.45,-172.23 172.33,-186.92 203.27,-197.76"/>
<polygon fill="#63b8ff" stroke="#63b8ff" points="202.1,-201.06 212.69,-201.07 204.42,-194.46 202.1,-201.06"/>
</a>
</g>
</g>
<!-- Node3 -->
<g id="Node000003" class="node">
<title>Node3</title>
<g id="a_Node000003"><a xlink:href="classpugi_1_1xml__attribute.html#ac18639df6493d250601566d1156c38d9" target="_top" xlink:title=" ">
<polygon fill="white" stroke="#666666" points="608.5,-191 512.25,-191 512.25,-159 608.5,-159 608.5,-191"/>
<text xml:space="preserve" text-anchor="start" x="520.25" y="-177.5" font-family="Helvetica,sans-Serif" font-size="10.00">pugi::xml_attribute</text>
<text xml:space="preserve" text-anchor="middle" x="560.38" y="-165.5" font-family="Helvetica,sans-Serif" font-size="10.00">::value</text>
</a>
</g>
</g>
<!-- Node2&#45;&gt;Node3 -->
<g id="edge2_Node000002_Node000003" class="edge">
<title>Node2&#45;&gt;Node3</title>
<g id="a_edge2_Node000002_Node000003"><a xlink:title=" ">
<path fill="none" stroke="#63b8ff" d="M459.61,-204.16C472.8,-200.3 487.28,-196.07 501.03,-192.05"/>
<polygon fill="#63b8ff" stroke="#63b8ff" points="501.78,-195.48 510.4,-189.31 499.82,-188.76 501.78,-195.48"/>
</a>
</g>
</g>
<!-- Node3&#45;&gt;Node3 -->
<g id="edge3_Node000003_Node000003" class="edge">
<title>Node3&#45;&gt;Node3</title>
<g id="a_edge3_Node000003_Node000003"><a xlink:title=" ">
<path fill="none" stroke="#63b8ff" d="M533.75,-191.44C528.78,-200.58 537.66,-209 560.38,-209 572.8,-209 581.08,-206.48 585.23,-202.71"/>
<polygon fill="#63b8ff" stroke="#63b8ff" points="588.67,-203.36 586.76,-192.94 581.75,-202.27 588.67,-203.36"/>
</a>
</g>
</g>
<!-- Node4&#45;&gt;Node3 -->
<g id="edge5_Node000004_Node000003" class="edge">
<title>Node4&#45;&gt;Node3</title>
<g id="a_edge5_Node000004_Node000003"><a xlink:title=" ">
<path fill="none" stroke="#63b8ff" d="M293.33,-133.36C340.09,-137.1 413.43,-144.08 476.25,-155 484.29,-156.4 492.72,-158.12 500.99,-159.96"/>
<polygon fill="#63b8ff" stroke="#63b8ff" points="500.11,-163.35 510.64,-162.18 501.68,-156.53 500.11,-163.35"/>
</a>
</g>
</g>
<!-- Node7 -->
<g id="Node000007" class="node">
<title>Node7</title>
<g id="a_Node000007"><a xlink:href="classpugi_1_1xml__node.html#a4641476ddd4869da18f0738186b17368" target="_top" xlink:title=" ">
<polygon fill="white" stroke="#666666" points="476.25,-96 346.25,-96 346.25,-76 476.25,-76 476.25,-96"/>
<text xml:space="preserve" text-anchor="middle" x="411.25" y="-82.5" font-family="Helvetica,sans-Serif" font-size="10.00">pugi::xml_node::xml_node</text>
</a>
</g>
</g>
<!-- Node6&#45;&gt;Node7 -->
<g id="edge8_Node000006_Node000007" class="edge">
<title>Node6&#45;&gt;Node7</title>
<g id="a_edge8_Node000006_Node000007"><a xlink:title=" ">
<path fill="none" stroke="#63b8ff" d="M299.24,-86C310.54,-86 322.66,-86 334.61,-86"/>
<polygon fill="#63b8ff" stroke="#63b8ff" points="334.45,-89.5 344.45,-86 334.45,-82.5 334.45,-89.5"/>
</a>
</g>
</g>
<!-- Node9 -->
<g id="Node000009" class="node">
<title>Node9</title>
<g id="a_Node000009"><a xlink:href="classpugi_1_1xml__node.html#aeff3362bf030a0df28ec2db9b84498f1" target="_top" xlink:title=" ">
<polygon fill="white" stroke="#666666" points="466.88,-58 355.62,-58 355.62,-38 466.88,-38 466.88,-58"/>
<text xml:space="preserve" text-anchor="middle" x="411.25" y="-44.5" font-family="Helvetica,sans-Serif" font-size="10.00">pugi::xml_node::begin</text>
</a>
</g>
</g>
<!-- Node8&#45;&gt;Node9 -->
<g id="edge10_Node000008_Node000009" class="edge">
<title>Node8&#45;&gt;Node9</title>
<g id="a_edge10_Node000008_Node000009"><a xlink:title=" ">
<path fill="none" stroke="#63b8ff" d="M306.15,-48C318.43,-48 331.41,-48 343.88,-48"/>
<polygon fill="#63b8ff" stroke="#63b8ff" points="343.65,-51.5 353.65,-48 343.65,-44.5 343.65,-51.5"/>
</a>
</g>
</g>
<!-- Node10 -->
<g id="Node000010" class="node">
<title>Node10</title>
<g id="a_Node000010"><a xlink:href="classpugi_1_1xml__node.html#aafa1deeb5fe928d07cd7caebbf975527" target="_top" xlink:title=" ">
<polygon fill="white" stroke="#666666" points="463.12,-20 359.38,-20 359.38,0 463.12,0 463.12,-20"/>
<text xml:space="preserve" text-anchor="middle" x="411.25" y="-6.5" font-family="Helvetica,sans-Serif" font-size="10.00">pugi::xml_node::end</text>
</a>
</g>
</g>
<!-- Node8&#45;&gt;Node10 -->
<g id="edge11_Node000008_Node000010" class="edge">
<title>Node8&#45;&gt;Node10</title>
<g id="a_edge11_Node000008_Node000010"><a xlink:title=" ">
<path fill="none" stroke="#63b8ff" d="M291.23,-37.52C310.63,-33.03 333.49,-27.75 353.96,-23.01"/>
<polygon fill="#63b8ff" stroke="#63b8ff" points="354.62,-26.45 363.57,-20.79 353.04,-19.63 354.62,-26.45"/>
</a>
</g>
</g>
<!-- Node11&#45;&gt;Node2 -->
<g id="edge14_Node000011_Node000002" class="edge">
<title>Node11&#45;&gt;Node2</title>
<g id="a_edge14_Node000011_Node000002"><a xlink:title=" ">
<path fill="none" stroke="#63b8ff" d="M310.37,-214.35C323.86,-214.85 338.03,-215.36 351.31,-215.85"/>
<polygon fill="#63b8ff" stroke="#63b8ff" points="351.08,-219.34 361.2,-216.21 351.34,-212.35 351.08,-219.34"/>
</a>
</g>
</g>
<!-- Node11&#45;&gt;Node5 -->
<g id="edge15_Node000011_Node000005" class="edge">
<title>Node11&#45;&gt;Node5</title>
<g id="a_edge15_Node000011_Node000005"><a xlink:title=" ">
<path fill="none" stroke="#63b8ff" d="M291.23,-201.52C310.63,-197.03 333.49,-191.75 353.96,-187.01"/>
<polygon fill="#63b8ff" stroke="#63b8ff" points="354.62,-190.45 363.57,-184.79 353.04,-183.63 354.62,-190.45"/>
</a>
</g>
</g>
</g>
</svg>
