<?xml version="1.0" encoding="UTF-8" standalone="no"?>
<!DOCTYPE svg PUBLIC "-//W3C//DTD SVG 1.1//EN"
 "http://www.w3.org/Graphics/SVG/1.1/DTD/svg11.dtd">
<!-- Generated by graphviz version 14.1.2 (20260124.0452)
 -->
<!-- Title: GEFigure Pages: 1 -->
<svg width="558pt" height="134pt"
 viewBox="0.00 0.00 558.00 134.00" xmlns="http://www.w3.org/2000/svg" xmlns:xlink="http://www.w3.org/1999/xlink">
<g id="graph0" class="graph" transform="scale(1 1) rotate(0) translate(4 130)">
<title>GEFigure</title>
<!-- Node1 -->
<g id="Node000001" class="node">
<title>Node1</title>
<g id="a_Node000001"><a xlink:title="Clase que describe una figura formada por una malla de vértices.">
<polygon fill="#999999" stroke="#666666" points="272,-20 214.75,-20 214.75,0 272,0 272,-20"/>
<text xml:space="preserve" text-anchor="middle" x="243.38" y="-6.5" font-family="Helvetica,sans-Serif" font-size="10.00">GEFigure</text>
</a>
</g>
</g>
<!-- Node2 -->
<g id="Node000002" class="node">
<title>Node2</title>
<g id="a_Node000002"><a xlink:href="struct_g_e_material.html" target="_top" xlink:title="Estructura que describe las propiedades de un material.">
<polygon fill="white" stroke="#666666" points="64.75,-126 0,-126 0,-106 64.75,-106 64.75,-126"/>
<text xml:space="preserve" text-anchor="middle" x="32.38" y="-112.5" font-family="Helvetica,sans-Serif" font-size="10.00">GEMaterial</text>
</a>
</g>
</g>
<!-- Node2&#45;&gt;Node1 -->
<g id="edge1_Node000001_Node000002" class="edge">
<title>Node2&#45;&gt;Node1</title>
<g id="a_edge1_Node000001_Node000002"><a xlink:title=" ">
<path fill="none" stroke="#9a32cd" stroke-dasharray="5,2" d="M40.45,-95.12C48.81,-77.2 63.65,-51.62 84.88,-38 105.84,-24.54 174.63,-16.73 214.36,-13.23"/>
<polygon fill="#9a32cd" stroke="#9a32cd" points="37.28,-93.64 36.49,-104.21 43.69,-96.44 37.28,-93.64"/>
</a>
</g>
<text xml:space="preserve" text-anchor="start" x="87.88" y="-59.5" font-family="Helvetica,sans-Serif" font-size="10.00" fill="grey">material</text>
</g>
<!-- Node3 -->
<g id="Node000003" class="node">
<title>Node3</title>
<g id="a_Node000003"><a xlink:href="struct_g_e_light.html" target="_top" xlink:title="Estructura que describe una fuente de luz direccional.">
<polygon fill="white" stroke="#666666" points="134,-126 82.75,-126 82.75,-106 134,-106 134,-126"/>
<text xml:space="preserve" text-anchor="middle" x="108.38" y="-112.5" font-family="Helvetica,sans-Serif" font-size="10.00">GELight</text>
</a>
</g>
</g>
<!-- Node3&#45;&gt;Node1 -->
<g id="edge2_Node000001_Node000003" class="edge">
<title>Node3&#45;&gt;Node1</title>
<g id="a_edge2_Node000001_Node000003"><a xlink:title=" ">
<path fill="none" stroke="#9a32cd" stroke-dasharray="5,2" d="M121.24,-96.74C134.07,-79.64 155.16,-54.34 178.38,-38 189.27,-30.33 202.67,-24.3 214.47,-19.9"/>
<polygon fill="#9a32cd" stroke="#9a32cd" points="118.64,-94.36 115.58,-104.5 124.3,-98.48 118.64,-94.36"/>
</a>
</g>
<text xml:space="preserve" text-anchor="start" x="181.38" y="-59.5" font-family="Helvetica,sans-Serif" font-size="10.00" fill="grey">light</text>
</g>
<!-- Node4 -->
<g id="Node000004" class="node">
<title>Node4</title>
<g id="a_Node000004"><a xlink:href="class_g_e_vertex_buffer.html" target="_top" xlink:title="Clase que describe un buffer de vértices.">
<polygon fill="white" stroke="#666666" points="235.12,-126 151.62,-126 151.62,-106 235.12,-106 235.12,-126"/>
<text xml:space="preserve" text-anchor="middle" x="193.38" y="-112.5" font-family="Helvetica,sans-Serif" font-size="10.00">GEVertexBuffer</text>
</a>
</g>
</g>
<!-- Node4&#45;&gt;Node1 -->
<g id="edge3_Node000001_Node000004" class="edge">
<title>Node4&#45;&gt;Node1</title>
<g id="a_edge3_Node000001_Node000004"><a xlink:title=" ">
<path fill="none" stroke="#9a32cd" stroke-dasharray="5,2" d="M202.78,-95.44C213.55,-73.03 230.77,-37.22 238.88,-20.36"/>
<polygon fill="#9a32cd" stroke="#9a32cd" points="199.65,-93.88 198.47,-104.41 205.96,-96.91 199.65,-93.88"/>
</a>
</g>
<text xml:space="preserve" text-anchor="start" x="232.97" y="-59.5" font-family="Helvetica,sans-Serif" font-size="10.00" fill="grey">vbo</text>
</g>
<!-- Node5 -->
<g id="Node000005" class="node">
<title>Node5</title>
<g id="a_Node000005"><a xlink:href="class_g_e_index_buffer.html" target="_top" xlink:title="Clase que describe un buffer de índices.">
<polygon fill="white" stroke="#666666" points="333.25,-126 253.5,-126 253.5,-106 333.25,-106 333.25,-126"/>
<text xml:space="preserve" text-anchor="middle" x="293.38" y="-112.5" font-family="Helvetica,sans-Serif" font-size="10.00">GEIndexBuffer</text>
</a>
</g>
</g>
<!-- Node5&#45;&gt;Node1 -->
<g id="edge4_Node000001_Node000005" class="edge">
<title>Node5&#45;&gt;Node1</title>
<g id="a_edge4_Node000001_Node000005"><a xlink:title=" ">
<path fill="none" stroke="#9a32cd" stroke-dasharray="5,2" d="M283.97,-95.44C273.2,-73.03 255.98,-37.22 247.87,-20.36"/>
<polygon fill="#9a32cd" stroke="#9a32cd" points="280.79,-96.91 288.28,-104.41 287.1,-93.88 280.79,-96.91"/>
</a>
</g>
<text xml:space="preserve" text-anchor="start" x="282.97" y="-59.5" font-family="Helvetica,sans-Serif" font-size="10.00" fill="grey">ibo</text>
</g>
<!-- Node6 -->
<g id="Node000006" class="node">
<title>Node6</title>
<g id="a_Node000006"><a xlink:href="class_g_e_uniform_buffer.html" target="_top" xlink:title="Clase que describe un conjunto de buffers para almacenar variables uniformes.">
<polygon fill="white" stroke="#666666" points="441.5,-126 351.25,-126 351.25,-106 441.5,-106 441.5,-126"/>
<text xml:space="preserve" text-anchor="middle" x="396.38" y="-112.5" font-family="Helvetica,sans-Serif" font-size="10.00">GEUniformBuffer</text>
</a>
</g>
</g>
<!-- Node6&#45;&gt;Node1 -->
<g id="edge5_Node000001_Node000006" class="edge">
<title>Node6&#45;&gt;Node1</title>
<g id="a_edge5_Node000001_Node000006"><a xlink:title=" ">
<path fill="none" stroke="#9a32cd" stroke-dasharray="5,2" d="M378.66,-98.12C360.51,-81.43 330.98,-55.85 302.38,-38 291.48,-31.2 278.59,-25.11 267.64,-20.43"/>
<polygon fill="#9a32cd" stroke="#9a32cd" points="375.8,-100.24 385.49,-104.5 380.57,-95.12 375.8,-100.24"/>
</a>
</g>
<text xml:space="preserve" text-anchor="start" x="369.56" y="-75.5" font-family="Helvetica,sans-Serif" font-size="10.00" fill="grey">lightBuffer</text>
<text xml:space="preserve" text-anchor="start" x="369.56" y="-59.5" font-family="Helvetica,sans-Serif" font-size="10.00" fill="grey">materialBuffer</text>
<text xml:space="preserve" text-anchor="start" x="369.56" y="-43.5" font-family="Helvetica,sans-Serif" font-size="10.00" fill="grey">transformBuffer</text>
</g>
<!-- Node7 -->
<g id="Node000007" class="node">
<title>Node7</title>
<g id="a_Node000007"><a xlink:href="class_g_e_descriptor_set.html" target="_top" xlink:title="Clase que describe un conjunto de descriptores.">
<polygon fill="white" stroke="#666666" points="549.5,-126 459.25,-126 459.25,-106 549.5,-106 549.5,-126"/>
<text xml:space="preserve" text-anchor="middle" x="504.38" y="-112.5" font-family="Helvetica,sans-Serif" font-size="10.00">GEDescriptorSet</text>
</a>
</g>
</g>
<!-- Node7&#45;&gt;Node1 -->
<g id="edge6_Node000001_Node000007" class="edge">
<title>Node7&#45;&gt;Node1</title>
<g id="a_edge6_Node000001_Node000007"><a xlink:title=" ">
<path fill="none" stroke="#9a32cd" stroke-dasharray="5,2" d="M494.73,-95.71C484.58,-77.59 466.82,-51.35 443.38,-38 414.75,-21.71 320.31,-14.78 272.15,-12.25"/>
<polygon fill="#9a32cd" stroke="#9a32cd" points="491.57,-97.21 499.34,-104.41 497.75,-93.93 491.57,-97.21"/>
</a>
</g>
<text xml:space="preserve" text-anchor="start" x="492.34" y="-59.5" font-family="Helvetica,sans-Serif" font-size="10.00" fill="grey">dset</text>
</g>
</g>
</svg>
