<?xml version="1.0" encoding="UTF-8" standalone="no"?>
<!DOCTYPE svg PUBLIC "-//W3C//DTD SVG 1.1//EN"
 "http://www.w3.org/Graphics/SVG/1.1/DTD/svg11.dtd">
<!-- Generated by graphviz version 14.1.2 (20260124.0452)
 -->
<!-- Title: pugi::xml_node::attribute Pages: 1 -->
<!--zoomable 140 -->

<svg id="main" version="1.1" xmlns="http://www.w3.org/2000/svg" xmlns:xlink="http://www.w3.org/1999/xlink" xml:space="preserve" onload="init(evt)">

<style type="text/css"><![CDATA[
.node, .edge {opacity: 0.7;}
.node.selected, .edge.selected {opacity: 1;}
.edge:hover path { stroke: red; }
.edge:hover polygon { stroke: red; fill: red; }
]]></style>

<defs>
  <circle id="rim" cx="0" cy="0" r="7"/>
  <circle id="rim2" cx="0" cy="0" r="3.5"/>
  <g id="zoomPlus">
    <use xlink:href="#rim" fill="#404040"><set attributeName="fill" to="#808080" begin="zoomplus.mouseover" end="zoomplus.mouseout"/></use>
    <path d="M-4,0h8M0,-4v8" fill="none" stroke="white" stroke-width="1.5" pointer-events="none"/>
  </g>
  <g id="zoomMin">
    <use xlink:href="#rim" fill="#404040"><set attributeName="fill" to="#808080" begin="zoomminus.mouseover" end="zoomminus.mouseout"/></use>
    <path d="M-4,0h8" fill="none" stroke="white" stroke-width="1.5" pointer-events="none"/>
  </g>
  <g id="arrowUp" transform="translate(30 24)">
    <use xlink:href="#rim"/>
    <path pointer-events="none" fill="none" stroke="white" stroke-width="1.5" d="M0,-3.0v7 M-2.5,-0.5L0,-3.0L2.5,-0.5"/>
  </g>
  <g id="arrowRight" transform="rotate(90) translate(36 -43)">
    <use xlink:href="#rim"/>
    <path pointer-events="none" fill="none" stroke="white" stroke-width="1.5" d="M0,-3.0v7 M-2.5,-0.5L0,-3.0L2.5,-0.5"/>
  </g>
  <g id="arrowDown" transform="rotate(180) translate(-30 -48)">
    <use xlink:href="#rim"/>
    <path pointer-events="none" fill="none" stroke="white" stroke-width="1.5" d="M0,-3.0v7 M-2.5,-0.5L0,-3.0L2.5,-0.5"/>
  </g>
  <g id="arrowLeft" transform="rotate(270) translate(-36 17)">
    <use xlink:href="#rim"/>
    <path pointer-events="none" fill="none" stroke="white" stroke-width="1.5" d="M0,-3.0v7 M-2.5,-0.5L0,-3.0L2.5,-0.5"/>
  </g>
  <g id="resetDef">
    <use xlink:href="#rim2" fill="#404040"><set attributeName="fill" to="#808080" begin="reset.mouseover" end="reset.mouseout"/></use>
  </g>
</defs>
<script type="application/ecmascript">
var viewWidth = 1009;
var viewHeight = 140;
var sectionId = 'dynsection-11';
</script>
<script type="application/ecmascript" xlink:href="svg.min.js"/>
<svg id="graph" class="graph">
<g id="viewport">
<title>pugi::xml_node::attribute</title>
<!-- Node1 -->
<g id="Node000001" class="node">
<title>Node1</title>
<g id="a_Node000001"><a xlink:title=" ">
<polygon fill="#999999" stroke="#666666" points="1000.5,-89 877.25,-89 877.25,-69 1000.5,-69 1000.5,-89"/>
<text xml:space="preserve" text-anchor="middle" x="938.88" y="-75.5" font-family="Helvetica,sans-Serif" font-size="10.00">pugi::xml_node::attribute</text>
</a>
</g>
</g>
<!-- Node2 -->
<g id="Node000002" class="node">
<title>Node2</title>
<g id="a_Node000002"><a xlink:href="class_g_e_x_m_l_parser.html#af7e66e11e1a8973779770daa1ad6f653" target="_top" xlink:title="Parsea una articulación y sus hijas recursivamente.">
<polygon fill="white" stroke="#666666" points="674.5,-99 531,-99 531,-79 674.5,-79 674.5,-99"/>
<text xml:space="preserve" text-anchor="middle" x="602.75" y="-85.5" font-family="Helvetica,sans-Serif" font-size="10.00">GEXMLParser::parseBalljoint</text>
</a>
</g>
</g>
<!-- Node1&#45;&gt;Node2 -->
<g id="edge1_Node000001_Node000002" class="edge">
<title>Node1&#45;&gt;Node2</title>
<g id="a_edge1_Node000001_Node000002"><a xlink:title=" ">
<path fill="none" stroke="#63b8ff" d="M865.63,-81.16C809.18,-82.85 731.14,-85.19 674.95,-86.87"/>
<polygon fill="#63b8ff" stroke="#63b8ff" points="865.58,-84.67 875.47,-80.87 865.37,-77.67 865.58,-84.67"/>
</a>
</g>
</g>
<!-- Node3 -->
<g id="Node000003" class="node">
<title>Node3</title>
<g id="a_Node000003"><a xlink:href="class_g_e_x_m_l_parser.html#acd9fc587fbd992edbb51df00549c1bda" target="_top" xlink:title="Parsea un archivo .skel y devuelve los datos del esqueleto.">
<polygon fill="white" stroke="#666666" points="495,-99 332,-99 332,-79 495,-79 495,-99"/>
<text xml:space="preserve" text-anchor="middle" x="413.5" y="-85.5" font-family="Helvetica,sans-Serif" font-size="10.00">GEXMLParser::parseSkeletonFile</text>
</a>
</g>
</g>
<!-- Node1&#45;&gt;Node3 -->
<g id="edge6_Node000001_Node000003" class="edge">
<title>Node1&#45;&gt;Node3</title>
<g id="a_edge6_Node000001_Node000003"><a xlink:title=" ">
<path fill="none" stroke="#63b8ff" d="M891.64,-92.41C815.99,-112.54 661.17,-146.17 531,-126 498.5,-120.96 462.64,-108.46 439.41,-99.38"/>
<polygon fill="#63b8ff" stroke="#63b8ff" points="892.45,-95.82 901.19,-89.82 890.62,-89.06 892.45,-95.82"/>
</a>
</g>
</g>
<!-- Node6 -->
<g id="Node000006" class="node">
<title>Node6</title>
<g id="a_Node000006"><a xlink:href="class_g_e_x_m_l_parser.html#aa8e732df591d508941d3c717188b7266" target="_top" xlink:title="Parsea un nodo vec3 (offset, zaxis, yaxis).">
<polygon fill="white" stroke="#666666" points="841.25,-70 710.5,-70 710.5,-50 841.25,-50 841.25,-70"/>
<text xml:space="preserve" text-anchor="middle" x="775.88" y="-56.5" font-family="Helvetica,sans-Serif" font-size="10.00">GEXMLParser::parseVec3</text>
</a>
</g>
</g>
<!-- Node1&#45;&gt;Node6 -->
<g id="edge7_Node000001_Node000006" class="edge">
<title>Node1&#45;&gt;Node6</title>
<g id="a_edge7_Node000001_Node000006"><a xlink:title=" ">
<path fill="none" stroke="#63b8ff" d="M865.74,-70.49C857.69,-69.54 849.53,-68.57 841.59,-67.64"/>
<polygon fill="#63b8ff" stroke="#63b8ff" points="865.16,-73.94 875.5,-71.64 865.98,-66.99 865.16,-73.94"/>
</a>
</g>
</g>
<!-- Node7 -->
<g id="Node000007" class="node">
<title>Node7</title>
<g id="a_Node000007"><a xlink:href="classpugi_1_1xml__node.html#af8ca9132093404a89d25a81060c64293" target="_top" xlink:title=" ">
<polygon fill="white" stroke="#666666" points="836,-32 715.75,-32 715.75,0 836,0 836,-32"/>
<text xml:space="preserve" text-anchor="start" x="723.75" y="-18.5" font-family="Helvetica,sans-Serif" font-size="10.00">pugi::xml_node::remove</text>
<text xml:space="preserve" text-anchor="middle" x="775.88" y="-6.5" font-family="Helvetica,sans-Serif" font-size="10.00">_attribute</text>
</a>
</g>
</g>
<!-- Node1&#45;&gt;Node7 -->
<g id="edge10_Node000001_Node000007" class="edge">
<title>Node1&#45;&gt;Node7</title>
<g id="a_edge10_Node000001_Node000007"><a xlink:title=" ">
<path fill="none" stroke="#63b8ff" d="M901,-64.45C882.99,-57.36 860.99,-48.72 841.25,-41 834.1,-38.21 826.51,-35.25 819.13,-32.38"/>
<polygon fill="#63b8ff" stroke="#63b8ff" points="899.65,-67.68 910.23,-68.09 902.21,-61.17 899.65,-67.68"/>
</a>
</g>
</g>
<!-- Node2&#45;&gt;Node2 -->
<g id="edge2_Node000002_Node000002" class="edge">
<title>Node2&#45;&gt;Node2</title>
<g id="a_edge2_Node000002_Node000002"><a xlink:title=" ">
<path fill="none" stroke="#63b8ff" d="M633.67,-110.11C629.99,-114.14 619.68,-117 602.75,-117 572.66,-117 563.49,-107.98 575.24,-99.34"/>
<polygon fill="#63b8ff" stroke="#63b8ff" points="637.07,-109.26 630.72,-100.78 630.4,-111.37 637.07,-109.26"/>
</a>
</g>
</g>
<!-- Node2&#45;&gt;Node3 -->
<g id="edge3_Node000002_Node000003" class="edge">
<title>Node2&#45;&gt;Node3</title>
<g id="a_edge3_Node000002_Node000003"><a xlink:title=" ">
<path fill="none" stroke="#63b8ff" d="M519.43,-89C511.4,-89 503.25,-89 495.23,-89"/>
<polygon fill="#63b8ff" stroke="#63b8ff" points="519.18,-92.5 529.18,-89 519.18,-85.5 519.18,-92.5"/>
</a>
</g>
</g>
<!-- Node4 -->
<g id="Node000004" class="node">
<title>Node4</title>
<g id="a_Node000004"><a xlink:href="class_g_e_skeleton.html#ade3f0504c12faea2597ee2c23abf22bd" target="_top" xlink:title="Construye la jerarquía de articulaciones desde body.skel.">
<polygon fill="white" stroke="#666666" points="296,-99 163,-99 163,-79 296,-79 296,-99"/>
<text xml:space="preserve" text-anchor="middle" x="229.5" y="-85.5" font-family="Helvetica,sans-Serif" font-size="10.00">GESkeleton::buildSkeleton</text>
</a>
</g>
</g>
<!-- Node3&#45;&gt;Node4 -->
<g id="edge4_Node000003_Node000004" class="edge">
<title>Node3&#45;&gt;Node4</title>
<g id="a_edge4_Node000003_Node000004"><a xlink:title=" ">
<path fill="none" stroke="#63b8ff" d="M320.26,-89C312.21,-89 304.18,-89 296.41,-89"/>
<polygon fill="#63b8ff" stroke="#63b8ff" points="320.1,-92.5 330.1,-89 320.1,-85.5 320.1,-92.5"/>
</a>
</g>
</g>
<!-- Node5 -->
<g id="Node000005" class="node">
<title>Node5</title>
<g id="a_Node000005"><a xlink:href="class_g_e_skeleton.html#ad854854fdf1e4d090553d4d6edbfe095" target="_top" xlink:title="Constructor del esqueleto.">
<polygon fill="white" stroke="#666666" points="127,-99 0,-99 0,-79 127,-79 127,-99"/>
<text xml:space="preserve" text-anchor="middle" x="63.5" y="-85.5" font-family="Helvetica,sans-Serif" font-size="10.00">GESkeleton::GESkeleton</text>
</a>
</g>
</g>
<!-- Node4&#45;&gt;Node5 -->
<g id="edge5_Node000004_Node000005" class="edge">
<title>Node4&#45;&gt;Node5</title>
<g id="a_edge5_Node000004_Node000005"><a xlink:title=" ">
<path fill="none" stroke="#63b8ff" d="M151.41,-89C143.35,-89 135.22,-89 127.34,-89"/>
<polygon fill="#63b8ff" stroke="#63b8ff" points="151.23,-92.5 161.23,-89 151.23,-85.5 151.23,-92.5"/>
</a>
</g>
</g>
<!-- Node6&#45;&gt;Node2 -->
<g id="edge8_Node000006_Node000002" class="edge">
<title>Node6&#45;&gt;Node2</title>
<g id="a_edge8_Node000006_Node000002"><a xlink:title=" ">
<path fill="none" stroke="#63b8ff" d="M702.03,-72.34C689.85,-74.41 677.31,-76.53 665.44,-78.55"/>
<polygon fill="#63b8ff" stroke="#63b8ff" points="702.33,-75.84 711.6,-70.72 701.16,-68.94 702.33,-75.84"/>
</a>
</g>
</g>
<!-- Node6&#45;&gt;Node3 -->
<g id="edge9_Node000006_Node000003" class="edge">
<title>Node6&#45;&gt;Node3</title>
<g id="a_edge9_Node000006_Node000003"><a xlink:title=" ">
<path fill="none" stroke="#63b8ff" d="M698.75,-60.76C650.56,-61.83 587.01,-64.31 531,-70 511.02,-72.03 489.26,-75.29 470.02,-78.54"/>
<polygon fill="#63b8ff" stroke="#63b8ff" points="698.59,-64.27 708.51,-60.56 698.44,-57.27 698.59,-64.27"/>
</a>
</g>
</g>
</g>
</svg>

<g id="navigator" transform="translate(0 0)" fill="#404254">
  <rect fill="#f2f5e9" fill-opacity="0.5" stroke="#606060" stroke-width=".5" x="0" y="0" width="60" height="60"/>
  <use id="zoomplus" xlink:href="#zoomPlus" x="17" y="9" onmousedown="handleZoom(evt,'in')"/>
  <use id="zoomminus" xlink:href="#zoomMin" x="42" y="9" onmousedown="handleZoom(evt,'out')"/>
  <use id="reset" xlink:href="#resetDef" x="30" y="36" onmousedown="handleReset()"/>
   <use id="arrowup" xlink:href="#arrowUp" x="0" y="0" onmousedown="handlePan(0,-1)"/>
  <use id="arrowright" xlink:href="#arrowRight" x="0" y="0" onmousedown="handlePan(1,0)"/>
  <use id="arrowdown" xlink:href="#arrowDown" x="0" y="0" onmousedown="handlePan(0,1)"/>
  <use id="arrowleft" xlink:href="#arrowLeft" x="0" y="0" onmousedown="handlePan(-1,0)"/>
</g>
<svg viewBox="0 0 15 15" width="100%" height="30px" preserveAspectRatio="xMaxYMin meet">
 <g id="arrow_out" transform="scale(0.3 0.3)">
  <a xlink:href="classpugi_1_1xml__node_a2d27d392a789976eb1aef9d49f72393e_icgraph_org.svg" target="_base">
   <rect id="button" ry="5" rx="5" y="6" x="6" height="38" width="38"
        fill="#f2f5e9" fill-opacity="0.5" stroke="#606060" stroke-width="1.0"/>
   <path id="arrow"
     d="M 11.500037,31.436501 C 11.940474,20.09759 22.043105,11.32322 32.158766,21.979434 L 37.068811,17.246167 C 37.068811,17.246167 37.088388,32 37.088388,32 L 22.160133,31.978069 C 22.160133,31.978069 26.997745,27.140456 26.997745,27.140456 C 18.528582,18.264221 13.291696,25.230495 11.500037,31.436501 z"
     style="fill:#404040;"/>
  </a>
 </g>
</svg>

<style type='text/css'>
<![CDATA[
[data-mouse-over-selected='false'] { opacity: 0.7; }
[data-mouse-over-selected='true']  { opacity: 1.0; }
]]>
</style>
<script type="application/ecmascript"><![CDATA[
document.addEventListener('DOMContentLoaded', (event) => {
  highlightEdges();
  highlightAdjacentNodes();
});
]]></script>
</svg>
