<?xml version="1.0" encoding="UTF-8" standalone="no"?>
<!DOCTYPE svg PUBLIC "-//W3C//DTD SVG 1.1//EN"
 "http://www.w3.org/Graphics/SVG/1.1/DTD/svg11.dtd">
<!-- Generated by graphviz version 14.1.2 (20260124.0452)
 -->
<!-- Title: xpath_string::from_heap_preallocated Pages: 1 -->
<svg width="243pt" height="90pt"
 viewBox="0.00 0.00 243.00 90.00" xmlns="http://www.w3.org/2000/svg" xmlns:xlink="http://www.w3.org/1999/xlink">
<g id="graph0" class="graph" transform="scale(1 1) rotate(0) translate(4 86)">
<title>xpath_string::from_heap_preallocated</title>
<!-- Node1 -->
<g id="Node000001" class="node">
<title>Node1</title>
<g id="a_Node000001"><a xlink:title=" ">
<polygon fill="#999999" stroke="#666666" points="100,-57 0,-57 0,-25 100,-25 100,-57"/>
<text xml:space="preserve" text-anchor="start" x="8" y="-43.5" font-family="Helvetica,sans-Serif" font-size="10.00">xpath_string::from</text>
<text xml:space="preserve" text-anchor="middle" x="50" y="-31.5" font-family="Helvetica,sans-Serif" font-size="10.00">_heap_preallocated</text>
</a>
</g>
</g>
<!-- Node2 -->
<g id="Node000002" class="node">
<title>Node2</title>
<g id="a_Node000002"><a xlink:href="classxpath__string.html#a6c415f55011c6b816446d7454d1e9d2c" target="_top" xlink:title=" ">
<polygon fill="white" stroke="#666666" points="235.25,-82 136,-82 136,-50 235.25,-50 235.25,-82"/>
<text xml:space="preserve" text-anchor="start" x="144" y="-68.5" font-family="Helvetica,sans-Serif" font-size="10.00">xpath_string::xpath</text>
<text xml:space="preserve" text-anchor="middle" x="185.62" y="-56.5" font-family="Helvetica,sans-Serif" font-size="10.00">_string</text>
</a>
</g>
</g>
<!-- Node1&#45;&gt;Node2 -->
<g id="edge1_Node000001_Node000002" class="edge">
<title>Node1&#45;&gt;Node2</title>
<g id="a_edge1_Node000001_Node000002"><a xlink:title=" ">
<path fill="none" stroke="#63b8ff" d="M100.38,-50.24C108.26,-51.71 116.49,-53.25 124.59,-54.77"/>
<polygon fill="#63b8ff" stroke="#63b8ff" points="123.94,-58.21 134.41,-56.6 125.22,-51.33 123.94,-58.21"/>
</a>
</g>
</g>
<!-- Node3 -->
<g id="Node000003" class="node">
<title>Node3</title>
<g id="a_Node000003"><a xlink:href="classxpath__string.html#a93704af22ba77956cae8ec65f84658d8" target="_top" xlink:title=" ">
<polygon fill="white" stroke="#666666" points="235.25,-32 136,-32 136,0 235.25,0 235.25,-32"/>
<text xml:space="preserve" text-anchor="start" x="144" y="-18.5" font-family="Helvetica,sans-Serif" font-size="10.00">xpath_string::xpath</text>
<text xml:space="preserve" text-anchor="middle" x="185.62" y="-6.5" font-family="Helvetica,sans-Serif" font-size="10.00">_string</text>
</a>
</g>
</g>
<!-- Node1&#45;&gt;Node3 -->
<g id="edge2_Node000001_Node000003" class="edge">
<title>Node1&#45;&gt;Node3</title>
<g id="a_edge2_Node000001_Node000003"><a xlink:title=" ">
<path fill="none" stroke="#63b8ff" d="M100.38,-31.76C108.26,-30.29 116.49,-28.75 124.59,-27.23"/>
<polygon fill="#63b8ff" stroke="#63b8ff" points="125.22,-30.67 134.41,-25.4 123.94,-23.79 125.22,-30.67"/>
</a>
</g>
</g>
</g>
</svg>
