<?xml version="1.0" encoding="UTF-8" standalone="no"?>
<!DOCTYPE svg PUBLIC "-//W3C//DTD SVG 1.1//EN"
 "http://www.w3.org/Graphics/SVG/1.1/DTD/svg11.dtd">
<!-- Generated by graphviz version 14.1.2 (20260124.0452)
 -->
<!-- Title: pugi::xml_text::_data_new Pages: 1 -->
<!--zoomable 503 -->

<svg id="main" version="1.1" xmlns="http://www.w3.org/2000/svg" xmlns:xlink="http://www.w3.org/1999/xlink" xml:space="preserve" onload="init(evt)">

<style type="text/css"><![CDATA[
.node, .edge {opacity: 0.7;}
.node.selected, .edge.selected {opacity: 1;}
.edge:hover path { stroke: red; }
.edge:hover polygon { stroke: red; fill: red; }
]]></style>

<defs>
  <circle id="rim" cx="0" cy="0" r="7"/>
  <circle id="rim2" cx="0" cy="0" r="3.5"/>
  <g id="zoomPlus">
    <use xlink:href="#rim" fill="#404040"><set attributeName="fill" to="#808080" begin="zoomplus.mouseover" end="zoomplus.mouseout"/></use>
    <path d="M-4,0h8M0,-4v8" fill="none" stroke="white" stroke-width="1.5" pointer-events="none"/>
  </g>
  <g id="zoomMin">
    <use xlink:href="#rim" fill="#404040"><set attributeName="fill" to="#808080" begin="zoomminus.mouseover" end="zoomminus.mouseout"/></use>
    <path d="M-4,0h8" fill="none" stroke="white" stroke-width="1.5" pointer-events="none"/>
  </g>
  <g id="arrowUp" transform="translate(30 24)">
    <use xlink:href="#rim"/>
    <path pointer-events="none" fill="none" stroke="white" stroke-width="1.5" d="M0,-3.0v7 M-2.5,-0.5L0,-3.0L2.5,-0.5"/>
  </g>
  <g id="arrowRight" transform="rotate(90) translate(36 -43)">
    <use xlink:href="#rim"/>
    <path pointer-events="none" fill="none" stroke="white" stroke-width="1.5" d="M0,-3.0v7 M-2.5,-0.5L0,-3.0L2.5,-0.5"/>
  </g>
  <g id="arrowDown" transform="rotate(180) translate(-30 -48)">
    <use xlink:href="#rim"/>
    <path pointer-events="none" fill="none" stroke="white" stroke-width="1.5" d="M0,-3.0v7 M-2.5,-0.5L0,-3.0L2.5,-0.5"/>
  </g>
  <g id="arrowLeft" transform="rotate(270) translate(-36 17)">
    <use xlink:href="#rim"/>
    <path pointer-events="none" fill="none" stroke="white" stroke-width="1.5" d="M0,-3.0v7 M-2.5,-0.5L0,-3.0L2.5,-0.5"/>
  </g>
  <g id="resetDef">
    <use xlink:href="#rim2" fill="#404040"><set attributeName="fill" to="#808080" begin="reset.mouseover" end="reset.mouseout"/></use>
  </g>
</defs>
<script type="application/ecmascript">
var viewWidth = 433;
var viewHeight = 503;
var sectionId = 'dynsection-4';
</script>
<script type="application/ecmascript" xlink:href="svg.min.js"/>
<svg id="graph" class="graph">
<g id="viewport">
<title>pugi::xml_text::_data_new</title>
<!-- Node1 -->
<g id="Node000001" class="node">
<title>Node1</title>
<g id="a_Node000001"><a xlink:title=" ">
<polygon fill="#999999" stroke="#666666" points="424.5,-210 293.75,-210 293.75,-190 424.5,-190 424.5,-210"/>
<text xml:space="preserve" text-anchor="middle" x="359.12" y="-196.5" font-family="Helvetica,sans-Serif" font-size="10.00">pugi::xml_text::_data_new</text>
</a>
</g>
</g>
<!-- Node2 -->
<g id="Node000002" class="node">
<title>Node2</title>
<g id="a_Node000002"><a xlink:href="classpugi_1_1xml__text.html#ad6d90753ebbb8259f9647ce6e6522c7a" target="_top" xlink:title=" ">
<polygon fill="white" stroke="#666666" points="257.75,-400 160.75,-400 160.75,-380 257.75,-380 257.75,-400"/>
<text xml:space="preserve" text-anchor="middle" x="209.25" y="-386.5" font-family="Helvetica,sans-Serif" font-size="10.00">pugi::xml_text::set</text>
</a>
</g>
</g>
<!-- Node1&#45;&gt;Node2 -->
<g id="edge1_Node000001_Node000002" class="edge">
<title>Node1&#45;&gt;Node2</title>
<g id="a_edge1_Node000001_Node000002"><a xlink:title=" ">
<path fill="none" stroke="#63b8ff" d="M350.98,-220.98C337.88,-256.54 306.76,-328.85 257.75,-371 253.84,-374.36 249.27,-377.17 244.53,-379.51"/>
<polygon fill="#63b8ff" stroke="#63b8ff" points="354.17,-222.45 354.23,-211.86 347.58,-220.11 354.17,-222.45"/>
</a>
</g>
</g>
<!-- Node3 -->
<g id="Node000003" class="node">
<title>Node3</title>
<g id="a_Node000003"><a xlink:href="classpugi_1_1xml__text.html#a902acc65b6ed883af8540293ea2a5b36" target="_top" xlink:title=" ">
<polygon fill="white" stroke="#666666" points="257.75,-362 160.75,-362 160.75,-342 257.75,-342 257.75,-362"/>
<text xml:space="preserve" text-anchor="middle" x="209.25" y="-348.5" font-family="Helvetica,sans-Serif" font-size="10.00">pugi::xml_text::set</text>
</a>
</g>
</g>
<!-- Node1&#45;&gt;Node3 -->
<g id="edge2_Node000001_Node000003" class="edge">
<title>Node1&#45;&gt;Node3</title>
<g id="a_edge2_Node000001_Node000003"><a xlink:title=" ">
<path fill="none" stroke="#63b8ff" d="M347.57,-220.23C331.65,-248.94 298.95,-301.53 257.75,-333 253.37,-336.34 248.33,-339.18 243.2,-341.56"/>
<polygon fill="#63b8ff" stroke="#63b8ff" points="350.61,-221.95 352.28,-211.49 344.45,-218.63 350.61,-221.95"/>
</a>
</g>
</g>
<!-- Node12 -->
<g id="Node000012" class="node">
<title>Node12</title>
<g id="a_Node000012"><a xlink:href="classpugi_1_1xml__text.html#a83d31892282b29568d806c5b94de7000" target="_top" xlink:title=" ">
<polygon fill="white" stroke="#666666" points="257.75,-324 160.75,-324 160.75,-304 257.75,-304 257.75,-324"/>
<text xml:space="preserve" text-anchor="middle" x="209.25" y="-310.5" font-family="Helvetica,sans-Serif" font-size="10.00">pugi::xml_text::set</text>
</a>
</g>
</g>
<!-- Node1&#45;&gt;Node12 -->
<g id="edge11_Node000001_Node000012" class="edge">
<title>Node1&#45;&gt;Node12</title>
<g id="a_edge11_Node000001_Node000012"><a xlink:title=" ">
<path fill="none" stroke="#63b8ff" d="M341.95,-219.15C323.4,-240.11 291.23,-273.58 257.75,-295 252.66,-298.26 246.93,-301.12 241.25,-303.58"/>
<polygon fill="#63b8ff" stroke="#63b8ff" points="344.56,-221.48 348.47,-211.63 339.27,-216.89 344.56,-221.48"/>
</a>
</g>
</g>
<!-- Node13 -->
<g id="Node000013" class="node">
<title>Node13</title>
<g id="a_Node000013"><a xlink:href="classpugi_1_1xml__text.html#abc7376eb7631b28da7d26633ed5481f6" target="_top" xlink:title=" ">
<polygon fill="white" stroke="#666666" points="257.75,-286 160.75,-286 160.75,-266 257.75,-266 257.75,-286"/>
<text xml:space="preserve" text-anchor="middle" x="209.25" y="-272.5" font-family="Helvetica,sans-Serif" font-size="10.00">pugi::xml_text::set</text>
</a>
</g>
</g>
<!-- Node1&#45;&gt;Node13 -->
<g id="edge12_Node000001_Node000013" class="edge">
<title>Node1&#45;&gt;Node13</title>
<g id="a_edge12_Node000001_Node000013"><a xlink:title=" ">
<path fill="none" stroke="#63b8ff" d="M331.84,-216.23C311.89,-228.23 283.58,-244.57 257.75,-257 251.51,-260 244.66,-262.94 238.15,-265.57"/>
<polygon fill="#63b8ff" stroke="#63b8ff" points="333.42,-219.37 340.16,-211.19 329.79,-213.38 333.42,-219.37"/>
</a>
</g>
</g>
<!-- Node14 -->
<g id="Node000014" class="node">
<title>Node14</title>
<g id="a_Node000014"><a xlink:href="classpugi_1_1xml__text.html#a72e139a753c73ce98043a0a2656651fd" target="_top" xlink:title=" ">
<polygon fill="white" stroke="#666666" points="257.75,-248 160.75,-248 160.75,-228 257.75,-228 257.75,-248"/>
<text xml:space="preserve" text-anchor="middle" x="209.25" y="-234.5" font-family="Helvetica,sans-Serif" font-size="10.00">pugi::xml_text::set</text>
</a>
</g>
</g>
<!-- Node1&#45;&gt;Node14 -->
<g id="edge13_Node000001_Node000014" class="edge">
<title>Node1&#45;&gt;Node14</title>
<g id="a_edge13_Node000001_Node000014"><a xlink:title=" ">
<path fill="none" stroke="#63b8ff" d="M306.32,-213.31C288.16,-217.98 268.03,-223.15 250.92,-227.55"/>
<polygon fill="#63b8ff" stroke="#63b8ff" points="307.05,-216.74 315.86,-210.86 305.3,-209.96 307.05,-216.74"/>
</a>
</g>
</g>
<!-- Node15 -->
<g id="Node000015" class="node">
<title>Node15</title>
<g id="a_Node000015"><a xlink:href="classpugi_1_1xml__text.html#a8495d80a69cb6828590d6eda97efa0c4" target="_top" xlink:title=" ">
<polygon fill="white" stroke="#666666" points="257.75,-210 160.75,-210 160.75,-190 257.75,-190 257.75,-210"/>
<text xml:space="preserve" text-anchor="middle" x="209.25" y="-196.5" font-family="Helvetica,sans-Serif" font-size="10.00">pugi::xml_text::set</text>
</a>
</g>
</g>
<!-- Node1&#45;&gt;Node15 -->
<g id="edge14_Node000001_Node000015" class="edge">
<title>Node1&#45;&gt;Node15</title>
<g id="a_edge14_Node000001_Node000015"><a xlink:title=" ">
<path fill="none" stroke="#63b8ff" d="M281.87,-200C273.81,-200 265.77,-200 258.17,-200"/>
<polygon fill="#63b8ff" stroke="#63b8ff" points="281.75,-203.5 291.75,-200 281.75,-196.5 281.75,-203.5"/>
</a>
</g>
</g>
<!-- Node16 -->
<g id="Node000016" class="node">
<title>Node16</title>
<g id="a_Node000016"><a xlink:href="classpugi_1_1xml__text.html#a184b58bdb90707ac216b7d3799417137" target="_top" xlink:title=" ">
<polygon fill="white" stroke="#666666" points="257.75,-172 160.75,-172 160.75,-152 257.75,-152 257.75,-172"/>
<text xml:space="preserve" text-anchor="middle" x="209.25" y="-158.5" font-family="Helvetica,sans-Serif" font-size="10.00">pugi::xml_text::set</text>
</a>
</g>
</g>
<!-- Node1&#45;&gt;Node16 -->
<g id="edge15_Node000001_Node000016" class="edge">
<title>Node1&#45;&gt;Node16</title>
<g id="a_edge15_Node000001_Node000016"><a xlink:title=" ">
<path fill="none" stroke="#63b8ff" d="M306.32,-186.69C288.16,-182.02 268.03,-176.85 250.92,-172.45"/>
<polygon fill="#63b8ff" stroke="#63b8ff" points="305.3,-190.04 315.86,-189.14 307.05,-183.26 305.3,-190.04"/>
</a>
</g>
</g>
<!-- Node17 -->
<g id="Node000017" class="node">
<title>Node17</title>
<g id="a_Node000017"><a xlink:href="classpugi_1_1xml__text.html#af5f503a48b696f52fe3f337ee147161d" target="_top" xlink:title=" ">
<polygon fill="white" stroke="#666666" points="257.75,-134 160.75,-134 160.75,-114 257.75,-114 257.75,-134"/>
<text xml:space="preserve" text-anchor="middle" x="209.25" y="-120.5" font-family="Helvetica,sans-Serif" font-size="10.00">pugi::xml_text::set</text>
</a>
</g>
</g>
<!-- Node1&#45;&gt;Node17 -->
<g id="edge16_Node000001_Node000017" class="edge">
<title>Node1&#45;&gt;Node17</title>
<g id="a_edge16_Node000001_Node000017"><a xlink:title=" ">
<path fill="none" stroke="#63b8ff" d="M331.84,-183.77C311.89,-171.77 283.58,-155.43 257.75,-143 251.51,-140 244.66,-137.06 238.15,-134.43"/>
<polygon fill="#63b8ff" stroke="#63b8ff" points="329.79,-186.62 340.16,-188.81 333.42,-180.63 329.79,-186.62"/>
</a>
</g>
</g>
<!-- Node18 -->
<g id="Node000018" class="node">
<title>Node18</title>
<g id="a_Node000018"><a xlink:href="classpugi_1_1xml__text.html#a8f05560dc59a07411b2fa64736b0ea2b" target="_top" xlink:title=" ">
<polygon fill="white" stroke="#666666" points="257.75,-96 160.75,-96 160.75,-76 257.75,-76 257.75,-96"/>
<text xml:space="preserve" text-anchor="middle" x="209.25" y="-82.5" font-family="Helvetica,sans-Serif" font-size="10.00">pugi::xml_text::set</text>
</a>
</g>
</g>
<!-- Node1&#45;&gt;Node18 -->
<g id="edge17_Node000001_Node000018" class="edge">
<title>Node1&#45;&gt;Node18</title>
<g id="a_edge17_Node000001_Node000018"><a xlink:title=" ">
<path fill="none" stroke="#63b8ff" d="M341.95,-180.85C323.4,-159.89 291.23,-126.42 257.75,-105 252.66,-101.74 246.93,-98.88 241.25,-96.42"/>
<polygon fill="#63b8ff" stroke="#63b8ff" points="339.27,-183.11 348.47,-188.37 344.56,-178.52 339.27,-183.11"/>
</a>
</g>
</g>
<!-- Node19 -->
<g id="Node000019" class="node">
<title>Node19</title>
<g id="a_Node000019"><a xlink:href="classpugi_1_1xml__text.html#a58dded2d86a058a5e7f0fcbe5bdec156" target="_top" xlink:title=" ">
<polygon fill="white" stroke="#666666" points="257.75,-58 160.75,-58 160.75,-38 257.75,-38 257.75,-58"/>
<text xml:space="preserve" text-anchor="middle" x="209.25" y="-44.5" font-family="Helvetica,sans-Serif" font-size="10.00">pugi::xml_text::set</text>
</a>
</g>
</g>
<!-- Node1&#45;&gt;Node19 -->
<g id="edge18_Node000001_Node000019" class="edge">
<title>Node1&#45;&gt;Node19</title>
<g id="a_edge18_Node000001_Node000019"><a xlink:title=" ">
<path fill="none" stroke="#63b8ff" d="M347.57,-179.77C331.65,-151.06 298.95,-98.47 257.75,-67 253.37,-63.66 248.33,-60.82 243.2,-58.44"/>
<polygon fill="#63b8ff" stroke="#63b8ff" points="344.45,-181.37 352.28,-188.51 350.61,-178.05 344.45,-181.37"/>
</a>
</g>
</g>
<!-- Node20 -->
<g id="Node000020" class="node">
<title>Node20</title>
<g id="a_Node000020"><a xlink:href="classpugi_1_1xml__text.html#a3f8620dc6f882a5885d459da72ccc590" target="_top" xlink:title=" ">
<polygon fill="white" stroke="#666666" points="257.75,-20 160.75,-20 160.75,0 257.75,0 257.75,-20"/>
<text xml:space="preserve" text-anchor="middle" x="209.25" y="-6.5" font-family="Helvetica,sans-Serif" font-size="10.00">pugi::xml_text::set</text>
</a>
</g>
</g>
<!-- Node1&#45;&gt;Node20 -->
<g id="edge19_Node000001_Node000020" class="edge">
<title>Node1&#45;&gt;Node20</title>
<g id="a_edge19_Node000001_Node000020"><a xlink:title=" ">
<path fill="none" stroke="#63b8ff" d="M350.98,-179.02C337.88,-143.46 306.76,-71.15 257.75,-29 253.84,-25.64 249.27,-22.83 244.53,-20.49"/>
<polygon fill="#63b8ff" stroke="#63b8ff" points="347.58,-179.89 354.23,-188.14 354.17,-177.55 347.58,-179.89"/>
</a>
</g>
</g>
<!-- Node4 -->
<g id="Node000004" class="node">
<title>Node4</title>
<g id="a_Node000004"><a xlink:href="classpugi_1_1xml__text.html#a81b4238dae036fe8a81bbd3b3125d70b" target="_top" xlink:title=" ">
<polygon fill="white" stroke="#666666" points="124.75,-495 0,-495 0,-475 124.75,-475 124.75,-495"/>
<text xml:space="preserve" text-anchor="middle" x="62.38" y="-481.5" font-family="Helvetica,sans-Serif" font-size="10.00">pugi::xml_text::operator=</text>
</a>
</g>
</g>
<!-- Node3&#45;&gt;Node4 -->
<g id="edge3_Node000003_Node000004" class="edge">
<title>Node3&#45;&gt;Node4</title>
<g id="a_edge3_Node000003_Node000004"><a xlink:title=" ">
<path fill="none" stroke="#63b8ff" d="M163.05,-368.84C162.25,-369.53 161.49,-370.25 160.75,-371 129.12,-403.22 157.65,-435.08 124.75,-466 121.09,-469.44 116.82,-472.25 112.27,-474.56"/>
<polygon fill="#63b8ff" stroke="#63b8ff" points="164.92,-371.8 171.22,-363.28 160.99,-366.01 164.92,-371.8"/>
</a>
</g>
</g>
<!-- Node5 -->
<g id="Node000005" class="node">
<title>Node5</title>
<g id="a_Node000005"><a xlink:href="classpugi_1_1xml__text.html#a1a08c9c8b703e929d4b3bf2e6f61149d" target="_top" xlink:title=" ">
<polygon fill="white" stroke="#666666" points="124.75,-457 0,-457 0,-437 124.75,-437 124.75,-457"/>
<text xml:space="preserve" text-anchor="middle" x="62.38" y="-443.5" font-family="Helvetica,sans-Serif" font-size="10.00">pugi::xml_text::operator=</text>
</a>
</g>
</g>
<!-- Node3&#45;&gt;Node5 -->
<g id="edge4_Node000003_Node000005" class="edge">
<title>Node3&#45;&gt;Node5</title>
<g id="a_edge4_Node000003_Node000005"><a xlink:title=" ">
<path fill="none" stroke="#63b8ff" d="M164.78,-367.96C163.38,-368.92 162.03,-369.93 160.75,-371 137.72,-390.16 148.53,-409.78 124.75,-428 120.23,-431.46 115.08,-434.3 109.73,-436.62"/>
<polygon fill="#63b8ff" stroke="#63b8ff" points="166.31,-371.12 173.24,-363.12 162.83,-365.05 166.31,-371.12"/>
</a>
</g>
</g>
<!-- Node6 -->
<g id="Node000006" class="node">
<title>Node6</title>
<g id="a_Node000006"><a xlink:href="classpugi_1_1xml__text.html#ab78070dd0b8ea25e4351d9ca28bf7923" target="_top" xlink:title=" ">
<polygon fill="white" stroke="#666666" points="124.75,-419 0,-419 0,-399 124.75,-399 124.75,-419"/>
<text xml:space="preserve" text-anchor="middle" x="62.38" y="-405.5" font-family="Helvetica,sans-Serif" font-size="10.00">pugi::xml_text::operator=</text>
</a>
</g>
</g>
<!-- Node3&#45;&gt;Node6 -->
<g id="edge5_Node000003_Node000006" class="edge">
<title>Node3&#45;&gt;Node6</title>
<g id="a_edge5_Node000003_Node000006"><a xlink:title=" ">
<path fill="none" stroke="#63b8ff" d="M170.31,-366.76C167.06,-368.15 163.83,-369.57 160.75,-371 144.33,-378.59 141.46,-383.07 124.75,-390 117.23,-393.12 109.01,-396 101.09,-398.53"/>
<polygon fill="#63b8ff" stroke="#63b8ff" points="171.37,-370.11 179.26,-363.05 168.69,-363.64 171.37,-370.11"/>
</a>
</g>
</g>
<!-- Node7 -->
<g id="Node000007" class="node">
<title>Node7</title>
<g id="a_Node000007"><a xlink:href="classpugi_1_1xml__text.html#a599caf816bcffda85ca04be72b153937" target="_top" xlink:title=" ">
<polygon fill="white" stroke="#666666" points="124.75,-381 0,-381 0,-361 124.75,-361 124.75,-381"/>
<text xml:space="preserve" text-anchor="middle" x="62.38" y="-367.5" font-family="Helvetica,sans-Serif" font-size="10.00">pugi::xml_text::operator=</text>
</a>
</g>
</g>
<!-- Node3&#45;&gt;Node7 -->
<g id="edge6_Node000003_Node000007" class="edge">
<title>Node3&#45;&gt;Node7</title>
<g id="a_edge6_Node000003_Node000007"><a xlink:title=" ">
<path fill="none" stroke="#63b8ff" d="M149.05,-359.76C141.16,-360.8 133.05,-361.86 125.11,-362.9"/>
<polygon fill="#63b8ff" stroke="#63b8ff" points="149.45,-363.24 158.91,-358.47 148.54,-356.3 149.45,-363.24"/>
</a>
</g>
</g>
<!-- Node8 -->
<g id="Node000008" class="node">
<title>Node8</title>
<g id="a_Node000008"><a xlink:href="classpugi_1_1xml__text.html#ad98117a3a16fe2ebd80e33a3468421f4" target="_top" xlink:title=" ">
<polygon fill="white" stroke="#666666" points="124.75,-343 0,-343 0,-323 124.75,-323 124.75,-343"/>
<text xml:space="preserve" text-anchor="middle" x="62.38" y="-329.5" font-family="Helvetica,sans-Serif" font-size="10.00">pugi::xml_text::operator=</text>
</a>
</g>
</g>
<!-- Node3&#45;&gt;Node8 -->
<g id="edge7_Node000003_Node000008" class="edge">
<title>Node3&#45;&gt;Node8</title>
<g id="a_edge7_Node000003_Node000008"><a xlink:title=" ">
<path fill="none" stroke="#63b8ff" d="M149.05,-344.24C141.16,-343.2 133.05,-342.14 125.11,-341.1"/>
<polygon fill="#63b8ff" stroke="#63b8ff" points="148.54,-347.7 158.91,-345.53 149.45,-340.76 148.54,-347.7"/>
</a>
</g>
</g>
<!-- Node9 -->
<g id="Node000009" class="node">
<title>Node9</title>
<g id="a_Node000009"><a xlink:href="classpugi_1_1xml__text.html#a29a0ab34bacdc90797f6db9878dcf1ef" target="_top" xlink:title=" ">
<polygon fill="white" stroke="#666666" points="124.75,-305 0,-305 0,-285 124.75,-285 124.75,-305"/>
<text xml:space="preserve" text-anchor="middle" x="62.38" y="-291.5" font-family="Helvetica,sans-Serif" font-size="10.00">pugi::xml_text::operator=</text>
</a>
</g>
</g>
<!-- Node3&#45;&gt;Node9 -->
<g id="edge8_Node000003_Node000009" class="edge">
<title>Node3&#45;&gt;Node9</title>
<g id="a_edge8_Node000003_Node000009"><a xlink:title=" ">
<path fill="none" stroke="#63b8ff" d="M170.31,-337.24C167.06,-335.85 163.83,-334.43 160.75,-333 144.33,-325.41 141.46,-320.93 124.75,-314 117.23,-310.88 109.01,-308 101.09,-305.47"/>
<polygon fill="#63b8ff" stroke="#63b8ff" points="168.69,-340.36 179.26,-340.95 171.37,-333.89 168.69,-340.36"/>
</a>
</g>
</g>
<!-- Node10 -->
<g id="Node000010" class="node">
<title>Node10</title>
<g id="a_Node000010"><a xlink:href="classpugi_1_1xml__text.html#a48fb4cbc530a6ef28c408d81487f0e40" target="_top" xlink:title=" ">
<polygon fill="white" stroke="#666666" points="124.75,-267 0,-267 0,-247 124.75,-247 124.75,-267"/>
<text xml:space="preserve" text-anchor="middle" x="62.38" y="-253.5" font-family="Helvetica,sans-Serif" font-size="10.00">pugi::xml_text::operator=</text>
</a>
</g>
</g>
<!-- Node3&#45;&gt;Node10 -->
<g id="edge9_Node000003_Node000010" class="edge">
<title>Node3&#45;&gt;Node10</title>
<g id="a_edge9_Node000003_Node000010"><a xlink:title=" ">
<path fill="none" stroke="#63b8ff" d="M164.78,-336.04C163.38,-335.08 162.03,-334.07 160.75,-333 137.72,-313.84 148.53,-294.22 124.75,-276 120.23,-272.54 115.08,-269.7 109.73,-267.38"/>
<polygon fill="#63b8ff" stroke="#63b8ff" points="162.83,-338.95 173.24,-340.88 166.31,-332.88 162.83,-338.95"/>
</a>
</g>
</g>
<!-- Node11 -->
<g id="Node000011" class="node">
<title>Node11</title>
<g id="a_Node000011"><a xlink:href="classpugi_1_1xml__text.html#a6d7074af69fe080f02154bceb4d1d61a" target="_top" xlink:title=" ">
<polygon fill="white" stroke="#666666" points="124.75,-229 0,-229 0,-209 124.75,-209 124.75,-229"/>
<text xml:space="preserve" text-anchor="middle" x="62.38" y="-215.5" font-family="Helvetica,sans-Serif" font-size="10.00">pugi::xml_text::operator=</text>
</a>
</g>
</g>
<!-- Node3&#45;&gt;Node11 -->
<g id="edge10_Node000003_Node000011" class="edge">
<title>Node3&#45;&gt;Node11</title>
<g id="a_edge10_Node000003_Node000011"><a xlink:title=" ">
<path fill="none" stroke="#63b8ff" d="M163.05,-335.16C162.25,-334.47 161.49,-333.75 160.75,-333 129.12,-300.78 157.65,-268.92 124.75,-238 121.09,-234.56 116.82,-231.75 112.27,-229.44"/>
<polygon fill="#63b8ff" stroke="#63b8ff" points="160.99,-337.99 171.22,-340.72 164.92,-332.2 160.99,-337.99"/>
</a>
</g>
</g>
</g>
</svg>

<g id="navigator" transform="translate(0 0)" fill="#404254">
  <rect fill="#f2f5e9" fill-opacity="0.5" stroke="#606060" stroke-width=".5" x="0" y="0" width="60" height="60"/>
  <use id="zoomplus" xlink:href="#zoomPlus" x="17" y="9" onmousedown="handleZoom(evt,'in')"/>
  <use id="zoomminus" xlink:href="#zoomMin" x="42" y="9" onmousedown="handleZoom(evt,'out')"/>
  <use id="reset" xlink:href="#resetDef" x="30" y="36" onmousedown="handleReset()"/>
   <use id="arrowup" xlink:href="#arrowUp" x="0" y="0" onmousedown="handlePan(0,-1)"/>
  <use id="arrowright" xlink:href="#arrowRight" x="0" y="0" onmousedown="handlePan(1,0)"/>
  <use id="arrowdown" xlink:href="#arrowDown" x="0" y="0" onmousedown="handlePan(0,1)"/>
  <use id="arrowleft" xlink:href="#arrowLeft" x="0" y="0" onmousedown="handlePan(-1,0)"/>
</g>
<svg viewBox="0 0 15 15" width="100%" height="30px" preserveAspectRatio="xMaxYMin meet">
 <g id="arrow_out" transform="scale(0.3 0.3)">
  <a xlink:href="classpugi_1_1xml__text_a2ad78284a3210c085baa5ca31fe57cf8_icgraph_org.svg" target="_base">
   <rect id="button" ry="5" rx="5" y="6" x="6" height="38" width="38"
        fill="#f2f5e9" fill-opacity="0.5" stroke="#606060" stroke-width="1.0"/>
   <path id="arrow"
     d="M 11.500037,31.436501 C 11.940474,20.09759 22.043105,11.32322 32.158766,21.979434 L 37.068811,17.246167 C 37.068811,17.246167 37.088388,32 37.088388,32 L 22.160133,31.978069 C 22.160133,31.978069 26.997745,27.140456 26.997745,27.140456 C 18.528582,18.264221 13.291696,25.230495 11.500037,31.436501 z"
     style="fill:#404040;"/>
  </a>
 </g>
</svg>

<style type='text/css'>
<![CDATA[
[data-mouse-over-selected='false'] { opacity: 0.7; }
[data-mouse-over-selected='true']  { opacity: 1.0; }
]]>
</style>
<script type="application/ecmascript"><![CDATA[
document.addEventListener('DOMContentLoaded', (event) => {
  highlightEdges();
  highlightAdjacentNodes();
});
]]></script>
</svg>
