<?xml version="1.0" encoding="UTF-8" standalone="no"?>
<!DOCTYPE svg PUBLIC "-//W3C//DTD SVG 1.1//EN"
 "http://www.w3.org/Graphics/SVG/1.1/DTD/svg11.dtd">
<!-- Generated by graphviz version 14.1.2 (20260124.0452)
 -->
<!-- Title: pugi::xml_node::traverse Pages: 1 -->
<!--zoomable 160 -->

<svg id="main" version="1.1" xmlns="http://www.w3.org/2000/svg" xmlns:xlink="http://www.w3.org/1999/xlink" xml:space="preserve" onload="init(evt)">

<style type="text/css"><![CDATA[
.node, .edge {opacity: 0.7;}
.node.selected, .edge.selected {opacity: 1;}
.edge:hover path { stroke: red; }
.edge:hover polygon { stroke: red; fill: red; }
]]></style>

<defs>
  <circle id="rim" cx="0" cy="0" r="7"/>
  <circle id="rim2" cx="0" cy="0" r="3.5"/>
  <g id="zoomPlus">
    <use xlink:href="#rim" fill="#404040"><set attributeName="fill" to="#808080" begin="zoomplus.mouseover" end="zoomplus.mouseout"/></use>
    <path d="M-4,0h8M0,-4v8" fill="none" stroke="white" stroke-width="1.5" pointer-events="none"/>
  </g>
  <g id="zoomMin">
    <use xlink:href="#rim" fill="#404040"><set attributeName="fill" to="#808080" begin="zoomminus.mouseover" end="zoomminus.mouseout"/></use>
    <path d="M-4,0h8" fill="none" stroke="white" stroke-width="1.5" pointer-events="none"/>
  </g>
  <g id="arrowUp" transform="translate(30 24)">
    <use xlink:href="#rim"/>
    <path pointer-events="none" fill="none" stroke="white" stroke-width="1.5" d="M0,-3.0v7 M-2.5,-0.5L0,-3.0L2.5,-0.5"/>
  </g>
  <g id="arrowRight" transform="rotate(90) translate(36 -43)">
    <use xlink:href="#rim"/>
    <path pointer-events="none" fill="none" stroke="white" stroke-width="1.5" d="M0,-3.0v7 M-2.5,-0.5L0,-3.0L2.5,-0.5"/>
  </g>
  <g id="arrowDown" transform="rotate(180) translate(-30 -48)">
    <use xlink:href="#rim"/>
    <path pointer-events="none" fill="none" stroke="white" stroke-width="1.5" d="M0,-3.0v7 M-2.5,-0.5L0,-3.0L2.5,-0.5"/>
  </g>
  <g id="arrowLeft" transform="rotate(270) translate(-36 17)">
    <use xlink:href="#rim"/>
    <path pointer-events="none" fill="none" stroke="white" stroke-width="1.5" d="M0,-3.0v7 M-2.5,-0.5L0,-3.0L2.5,-0.5"/>
  </g>
  <g id="resetDef">
    <use xlink:href="#rim2" fill="#404040"><set attributeName="fill" to="#808080" begin="reset.mouseover" end="reset.mouseout"/></use>
  </g>
</defs>
<script type="application/ecmascript">
var viewWidth = 614;
var viewHeight = 160;
var sectionId = 'dynsection-92';
</script>
<script type="application/ecmascript" xlink:href="svg.min.js"/>
<svg id="graph" class="graph">
<g id="viewport">
<title>pugi::xml_node::traverse</title>
<!-- Node1 -->
<g id="Node000001" class="node">
<title>Node1</title>
<g id="a_Node000001"><a xlink:title=" ">
<polygon fill="#999999" stroke="#666666" points="123.25,-86 0,-86 0,-66 123.25,-66 123.25,-86"/>
<text xml:space="preserve" text-anchor="middle" x="61.62" y="-72.5" font-family="Helvetica,sans-Serif" font-size="10.00">pugi::xml_node::traverse</text>
</a>
</g>
</g>
<!-- Node2 -->
<g id="Node000002" class="node">
<title>Node2</title>
<g id="a_Node000002"><a xlink:href="classpugi_1_1xml__tree__walker.html#a4822454e1bfc72771d5b808fb65cbce0" target="_top" xlink:title=" ">
<polygon fill="white" stroke="#666666" points="447.38,-152 336.12,-152 336.12,-120 447.38,-120 447.38,-152"/>
<text xml:space="preserve" text-anchor="start" x="344.12" y="-138.5" font-family="Helvetica,sans-Serif" font-size="10.00">pugi::xml_tree_walker</text>
<text xml:space="preserve" text-anchor="middle" x="391.75" y="-126.5" font-family="Helvetica,sans-Serif" font-size="10.00">::begin</text>
</a>
</g>
</g>
<!-- Node1&#45;&gt;Node2 -->
<g id="edge1_Node000001_Node000002" class="edge">
<title>Node1&#45;&gt;Node2</title>
<g id="a_edge1_Node000001_Node000002"><a xlink:title=" ">
<path fill="none" stroke="#63b8ff" d="M105.79,-86.42C122.45,-90.29 141.69,-94.56 159.25,-98 214.82,-108.88 278.32,-119.15 324.74,-126.26"/>
<polygon fill="#63b8ff" stroke="#63b8ff" points="323.95,-129.68 334.36,-127.73 325,-122.76 323.95,-129.68"/>
</a>
</g>
</g>
<!-- Node4 -->
<g id="Node000004" class="node">
<title>Node4</title>
<g id="a_Node000004"><a xlink:href="classpugi_1_1xml__tree__walker.html#a7ce500c6b0d3a0446d17daa57f9b4622" target="_top" xlink:title=" ">
<polygon fill="white" stroke="#666666" points="458.25,-102 325.25,-102 325.25,-82 458.25,-82 458.25,-102"/>
<text xml:space="preserve" text-anchor="middle" x="391.75" y="-88.5" font-family="Helvetica,sans-Serif" font-size="10.00">pugi::xml_tree_walker::end</text>
</a>
</g>
</g>
<!-- Node1&#45;&gt;Node4 -->
<g id="edge4_Node000001_Node000004" class="edge">
<title>Node1&#45;&gt;Node4</title>
<g id="a_edge4_Node000001_Node000004"><a xlink:title=" ">
<path fill="none" stroke="#63b8ff" d="M123.57,-78.97C177.18,-81.59 255.47,-85.4 313.46,-88.23"/>
<polygon fill="#63b8ff" stroke="#63b8ff" points="313.11,-91.72 323.27,-88.71 313.45,-84.73 313.11,-91.72"/>
</a>
</g>
</g>
<!-- Node5 -->
<g id="Node000005" class="node">
<title>Node5</title>
<g id="a_Node000005"><a xlink:href="classpugi_1_1xml__tree__walker.html#a309363c9d17ef3fc8cacc6f71fcbea88" target="_top" xlink:title=" ">
<polygon fill="white" stroke="#666666" points="279.88,-70 168.62,-70 168.62,-38 279.88,-38 279.88,-70"/>
<text xml:space="preserve" text-anchor="start" x="176.62" y="-56.5" font-family="Helvetica,sans-Serif" font-size="10.00">pugi::xml_tree_walker</text>
<text xml:space="preserve" text-anchor="middle" x="224.25" y="-44.5" font-family="Helvetica,sans-Serif" font-size="10.00">::for_each</text>
</a>
</g>
</g>
<!-- Node1&#45;&gt;Node5 -->
<g id="edge6_Node000001_Node000005" class="edge">
<title>Node1&#45;&gt;Node5</title>
<g id="a_edge6_Node000001_Node000005"><a xlink:title=" ">
<path fill="none" stroke="#63b8ff" d="M123.35,-67.68C134.3,-66.18 145.76,-64.61 156.85,-63.09"/>
<polygon fill="#63b8ff" stroke="#63b8ff" points="157.32,-66.56 166.75,-61.74 156.37,-59.63 157.32,-66.56"/>
</a>
</g>
</g>
<!-- Node6 -->
<g id="Node000006" class="node">
<title>Node6</title>
<g id="a_Node000006"><a xlink:href="classpugi_1_1xml__node.html#a4641476ddd4869da18f0738186b17368" target="_top" xlink:title=" ">
<polygon fill="white" stroke="#666666" points="289.25,-20 159.25,-20 159.25,0 289.25,0 289.25,-20"/>
<text xml:space="preserve" text-anchor="middle" x="224.25" y="-6.5" font-family="Helvetica,sans-Serif" font-size="10.00">pugi::xml_node::xml_node</text>
</a>
</g>
</g>
<!-- Node1&#45;&gt;Node6 -->
<g id="edge9_Node000001_Node000006" class="edge">
<title>Node1&#45;&gt;Node6</title>
<g id="a_edge9_Node000001_Node000006"><a xlink:title=" ">
<path fill="none" stroke="#63b8ff" d="M81.46,-65.69C100.64,-55.47 131.43,-39.81 159.25,-29 163.87,-27.2 168.74,-25.48 173.63,-23.85"/>
<polygon fill="#63b8ff" stroke="#63b8ff" points="174.41,-27.27 182.88,-20.9 172.29,-20.6 174.41,-27.27"/>
</a>
</g>
</g>
<!-- Node3 -->
<g id="Node000003" class="node">
<title>Node3</title>
<g id="a_Node000003"><a xlink:href="classpugi_1_1xml__tree__walker.html#a156d917a92815c7b593bd5ef19f6d5fb" target="_top" xlink:title=" ">
<polygon fill="white" stroke="#666666" points="605.5,-108 494.25,-108 494.25,-76 605.5,-76 605.5,-108"/>
<text xml:space="preserve" text-anchor="start" x="502.25" y="-94.5" font-family="Helvetica,sans-Serif" font-size="10.00">pugi::xml_tree_walker</text>
<text xml:space="preserve" text-anchor="middle" x="549.88" y="-82.5" font-family="Helvetica,sans-Serif" font-size="10.00">::xml_node</text>
</a>
</g>
</g>
<!-- Node2&#45;&gt;Node3 -->
<g id="edge2_Node000002_Node000003" class="edge">
<title>Node2&#45;&gt;Node3</title>
<g id="a_edge2_Node000002_Node000003"><a xlink:title=" ">
<path fill="none" stroke="#63b8ff" d="M447.79,-120.49C459.1,-117.3 471.12,-113.91 482.78,-110.63"/>
<polygon fill="#63b8ff" stroke="#63b8ff" points="483.67,-114.01 492.35,-107.93 481.77,-107.28 483.67,-114.01"/>
</a>
</g>
</g>
<!-- Node3&#45;&gt;Node3 -->
<g id="edge3_Node000003_Node000003" class="edge">
<title>Node3&#45;&gt;Node3</title>
<g id="a_edge3_Node000003_Node000003"><a xlink:title=" ">
<path fill="none" stroke="#63b8ff" d="M521.65,-108.44C516.38,-117.58 525.79,-126 549.88,-126 563.05,-126 571.83,-123.48 576.23,-119.71"/>
<polygon fill="#63b8ff" stroke="#63b8ff" points="579.66,-120.38 577.86,-109.94 572.76,-119.22 579.66,-120.38"/>
</a>
</g>
</g>
<!-- Node4&#45;&gt;Node3 -->
<g id="edge5_Node000004_Node000003" class="edge">
<title>Node4&#45;&gt;Node3</title>
<g id="a_edge5_Node000004_Node000003"><a xlink:title=" ">
<path fill="none" stroke="#63b8ff" d="M458.51,-92C466.46,-92 474.58,-92 482.54,-92"/>
<polygon fill="#63b8ff" stroke="#63b8ff" points="482.53,-95.5 492.53,-92 482.53,-88.5 482.53,-95.5"/>
</a>
</g>
</g>
<!-- Node5&#45;&gt;Node3 -->
<g id="edge8_Node000005_Node000003" class="edge">
<title>Node5&#45;&gt;Node3</title>
<g id="a_edge8_Node000005_Node000003"><a xlink:title=" ">
<path fill="none" stroke="#63b8ff" d="M280.08,-56.53C327.43,-59.17 397.6,-64.2 458.25,-73 466.23,-74.16 474.57,-75.59 482.82,-77.15"/>
<polygon fill="#63b8ff" stroke="#63b8ff" points="481.99,-80.55 492.47,-79.04 483.33,-73.68 481.99,-80.55"/>
</a>
</g>
</g>
<!-- Node5&#45;&gt;Node4 -->
<g id="edge7_Node000005_Node000004" class="edge">
<title>Node5&#45;&gt;Node4</title>
<g id="a_edge7_Node000005_Node000004"><a xlink:title=" ">
<path fill="none" stroke="#63b8ff" d="M280.36,-66.65C297.64,-70.62 316.73,-75 334.11,-79"/>
<polygon fill="#63b8ff" stroke="#63b8ff" points="333.25,-82.39 343.78,-81.21 334.81,-75.57 333.25,-82.39"/>
</a>
</g>
</g>
</g>
</svg>

<g id="navigator" transform="translate(0 0)" fill="#404254">
  <rect fill="#f2f5e9" fill-opacity="0.5" stroke="#606060" stroke-width=".5" x="0" y="0" width="60" height="60"/>
  <use id="zoomplus" xlink:href="#zoomPlus" x="17" y="9" onmousedown="handleZoom(evt,'in')"/>
  <use id="zoomminus" xlink:href="#zoomMin" x="42" y="9" onmousedown="handleZoom(evt,'out')"/>
  <use id="reset" xlink:href="#resetDef" x="30" y="36" onmousedown="handleReset()"/>
   <use id="arrowup" xlink:href="#arrowUp" x="0" y="0" onmousedown="handlePan(0,-1)"/>
  <use id="arrowright" xlink:href="#arrowRight" x="0" y="0" onmousedown="handlePan(1,0)"/>
  <use id="arrowdown" xlink:href="#arrowDown" x="0" y="0" onmousedown="handlePan(0,1)"/>
  <use id="arrowleft" xlink:href="#arrowLeft" x="0" y="0" onmousedown="handlePan(-1,0)"/>
</g>
<svg viewBox="0 0 15 15" width="100%" height="30px" preserveAspectRatio="xMaxYMin meet">
 <g id="arrow_out" transform="scale(0.3 0.3)">
  <a xlink:href="classpugi_1_1xml__node_a651059099765f6c35833b4e237a895de_cgraph_org.svg" target="_base">
   <rect id="button" ry="5" rx="5" y="6" x="6" height="38" width="38"
        fill="#f2f5e9" fill-opacity="0.5" stroke="#606060" stroke-width="1.0"/>
   <path id="arrow"
     d="M 11.500037,31.436501 C 11.940474,20.09759 22.043105,11.32322 32.158766,21.979434 L 37.068811,17.246167 C 37.068811,17.246167 37.088388,32 37.088388,32 L 22.160133,31.978069 C 22.160133,31.978069 26.997745,27.140456 26.997745,27.140456 C 18.528582,18.264221 13.291696,25.230495 11.500037,31.436501 z"
     style="fill:#404040;"/>
  </a>
 </g>
</svg>

<style type='text/css'>
<![CDATA[
[data-mouse-over-selected='false'] { opacity: 0.7; }
[data-mouse-over-selected='true']  { opacity: 1.0; }
]]>
</style>
<script type="application/ecmascript"><![CDATA[
document.addEventListener('DOMContentLoaded', (event) => {
  highlightEdges();
  highlightAdjacentNodes();
});
]]></script>
</svg>
