<?xml version="1.0" encoding="UTF-8" standalone="no"?>
<!DOCTYPE svg PUBLIC "-//W3C//DTD SVG 1.1//EN"
 "http://www.w3.org/Graphics/SVG/1.1/DTD/svg11.dtd">
<!-- Generated by graphviz version 14.1.2 (20260124.0452)
 -->
<!-- Title: pugi::xml_node::first_element_by_path Pages: 1 -->
<svg width="430pt" height="104pt"
 viewBox="0.00 0.00 430.00 104.00" xmlns="http://www.w3.org/2000/svg" xmlns:xlink="http://www.w3.org/1999/xlink">

<svg id="main" version="1.1" xmlns="http://www.w3.org/2000/svg" xmlns:xlink="http://www.w3.org/1999/xlink" xml:space="preserve">

<style type="text/css"><![CDATA[
.node, .edge {opacity: 0.7;}
.node.selected, .edge.selected {opacity: 1;}
.edge:hover path { stroke: red; }
.edge:hover polygon { stroke: red; fill: red; }
]]></style>
<script type="application/ecmascript" xlink:href="svg.min.js"/>
<svg id="graph" class="graph">
<g id="graph0" class="graph" transform="scale(1 1) rotate(0) translate(4 100)">
<title>pugi::xml_node::first_element_by_path</title>
<!-- Node1 -->
<g id="Node000001" class="node">
<title>Node1</title>
<g id="a_Node000001"><a xlink:title=" ">
<polygon fill="#999999" stroke="#666666" points="104.5,-64 0,-64 0,-32 104.5,-32 104.5,-64"/>
<text xml:space="preserve" text-anchor="start" x="8" y="-50.5" font-family="Helvetica,sans-Serif" font-size="10.00">pugi::xml_node::first</text>
<text xml:space="preserve" text-anchor="middle" x="52.25" y="-38.5" font-family="Helvetica,sans-Serif" font-size="10.00">_element_by_path</text>
</a>
</g>
</g>
<!-- Node1&#45;&gt;Node1 -->
<g id="edge1_Node000001_Node000001" class="edge">
<title>Node1&#45;&gt;Node1</title>
<g id="a_edge1_Node000001_Node000001"><a xlink:title=" ">
<path fill="none" stroke="#63b8ff" d="M26.23,-64.44C21.37,-73.58 30.05,-82 52.25,-82 64.39,-82 72.49,-79.48 76.54,-75.71"/>
<polygon fill="#63b8ff" stroke="#63b8ff" points="79.98,-76.35 78.04,-65.94 73.06,-75.29 79.98,-76.35"/>
</a>
</g>
</g>
<!-- Node2 -->
<g id="Node000002" class="node">
<title>Node2</title>
<g id="a_Node000002"><a xlink:href="classpugi_1_1xml__node.html#a09d3ce003534139d4cf3d125dcfdac89" target="_top" xlink:title=" ">
<polygon fill="white" stroke="#666666" points="255.5,-96 140.5,-96 140.5,-76 255.5,-76 255.5,-96"/>
<text xml:space="preserve" text-anchor="middle" x="198" y="-82.5" font-family="Helvetica,sans-Serif" font-size="10.00">pugi::xml_node::parent</text>
</a>
</g>
</g>
<!-- Node1&#45;&gt;Node2 -->
<g id="edge2_Node000001_Node000002" class="edge">
<title>Node1&#45;&gt;Node2</title>
<g id="a_edge2_Node000001_Node000002"><a xlink:title=" ">
<path fill="none" stroke="#63b8ff" d="M104.74,-61.61C118.34,-65.21 132.99,-69.08 146.53,-72.66"/>
<polygon fill="#63b8ff" stroke="#63b8ff" points="145.57,-76.02 156.13,-75.2 147.36,-69.26 145.57,-76.02"/>
</a>
</g>
</g>
<!-- Node3 -->
<g id="Node000003" class="node">
<title>Node3</title>
<g id="a_Node000003"><a xlink:href="classpugi_1_1xml__node.html#a4641476ddd4869da18f0738186b17368" target="_top" xlink:title=" ">
<polygon fill="white" stroke="#666666" points="421.5,-58 291.5,-58 291.5,-38 421.5,-38 421.5,-58"/>
<text xml:space="preserve" text-anchor="middle" x="356.5" y="-44.5" font-family="Helvetica,sans-Serif" font-size="10.00">pugi::xml_node::xml_node</text>
</a>
</g>
</g>
<!-- Node1&#45;&gt;Node3 -->
<g id="edge6_Node000001_Node000003" class="edge">
<title>Node1&#45;&gt;Node3</title>
<g id="a_edge6_Node000001_Node000003"><a xlink:title=" ">
<path fill="none" stroke="#63b8ff" d="M104.87,-48C152.95,-48 225.24,-48 279.84,-48"/>
<polygon fill="#63b8ff" stroke="#63b8ff" points="279.7,-51.5 289.7,-48 279.7,-44.5 279.7,-51.5"/>
</a>
</g>
</g>
<!-- Node4 -->
<g id="Node000004" class="node">
<title>Node4</title>
<g id="a_Node000004"><a xlink:href="classpugi_1_1xml__node.html#a0f227aa552d3c111983cea84b69f02e7" target="_top" xlink:title=" ">
<polygon fill="white" stroke="#666666" points="250.25,-20 145.75,-20 145.75,0 250.25,0 250.25,-20"/>
<text xml:space="preserve" text-anchor="middle" x="198" y="-6.5" font-family="Helvetica,sans-Serif" font-size="10.00">pugi::xml_node::root</text>
</a>
</g>
</g>
<!-- Node1&#45;&gt;Node4 -->
<g id="edge4_Node000001_Node000004" class="edge">
<title>Node1&#45;&gt;Node4</title>
<g id="a_edge4_Node000001_Node000004"><a xlink:title=" ">
<path fill="none" stroke="#63b8ff" d="M104.74,-34.39C118.34,-30.79 132.99,-26.92 146.53,-23.34"/>
<polygon fill="#63b8ff" stroke="#63b8ff" points="147.36,-26.74 156.13,-20.8 145.57,-19.98 147.36,-26.74"/>
</a>
</g>
</g>
<!-- Node2&#45;&gt;Node3 -->
<g id="edge3_Node000002_Node000003" class="edge">
<title>Node2&#45;&gt;Node3</title>
<g id="a_edge3_Node000002_Node000003"><a xlink:title=" ">
<path fill="none" stroke="#63b8ff" d="M242.18,-75.52C260.48,-71.07 282.01,-65.84 301.36,-61.15"/>
<polygon fill="#63b8ff" stroke="#63b8ff" points="302.1,-64.57 310.99,-58.81 300.45,-57.77 302.1,-64.57"/>
</a>
</g>
</g>
<!-- Node4&#45;&gt;Node3 -->
<g id="edge5_Node000004_Node000003" class="edge">
<title>Node4&#45;&gt;Node3</title>
<g id="a_edge5_Node000004_Node000003"><a xlink:title=" ">
<path fill="none" stroke="#63b8ff" d="M242.18,-20.48C260.48,-24.93 282.01,-30.16 301.36,-34.85"/>
<polygon fill="#63b8ff" stroke="#63b8ff" points="300.45,-38.23 310.99,-37.19 302.1,-31.43 300.45,-38.23"/>
</a>
</g>
</g>
</g>
</svg>
</svg>

<style type='text/css'>
<![CDATA[
[data-mouse-over-selected='false'] { opacity: 0.7; }
[data-mouse-over-selected='true']  { opacity: 1.0; }
]]>
</style>
<script type="application/ecmascript"><![CDATA[
document.addEventListener('DOMContentLoaded', (event) => {
  highlightEdges();
  highlightAdjacentNodes();
});
]]></script>
</svg>
