<?xml version="1.0" encoding="UTF-8" standalone="no"?>
<!DOCTYPE svg PUBLIC "-//W3C//DTD SVG 1.1//EN"
 "http://www.w3.org/Graphics/SVG/1.1/DTD/svg11.dtd">
<!-- Generated by graphviz version 14.1.2 (20260124.0452)
 -->
<!-- Title: pugi::xml_tree_walker::end Pages: 1 -->
<svg width="288pt" height="58pt"
 viewBox="0.00 0.00 288.00 58.00" xmlns="http://www.w3.org/2000/svg" xmlns:xlink="http://www.w3.org/1999/xlink">
<g id="graph0" class="graph" transform="scale(1 1) rotate(0) translate(4 54)">
<title>pugi::xml_tree_walker::end</title>
<!-- Node1 -->
<g id="Node000001" class="node">
<title>Node1</title>
<g id="a_Node000001"><a xlink:title=" ">
<polygon fill="#999999" stroke="#666666" points="133,-26 0,-26 0,-6 133,-6 133,-26"/>
<text xml:space="preserve" text-anchor="middle" x="66.5" y="-12.5" font-family="Helvetica,sans-Serif" font-size="10.00">pugi::xml_tree_walker::end</text>
</a>
</g>
</g>
<!-- Node2 -->
<g id="Node000002" class="node">
<title>Node2</title>
<g id="a_Node000002"><a xlink:href="classpugi_1_1xml__tree__walker.html#a156d917a92815c7b593bd5ef19f6d5fb" target="_top" xlink:title=" ">
<polygon fill="white" stroke="#666666" points="280.25,-32 169,-32 169,0 280.25,0 280.25,-32"/>
<text xml:space="preserve" text-anchor="start" x="177" y="-18.5" font-family="Helvetica,sans-Serif" font-size="10.00">pugi::xml_tree_walker</text>
<text xml:space="preserve" text-anchor="middle" x="224.62" y="-6.5" font-family="Helvetica,sans-Serif" font-size="10.00">::xml_node</text>
</a>
</g>
</g>
<!-- Node1&#45;&gt;Node2 -->
<g id="edge1_Node000001_Node000002" class="edge">
<title>Node1&#45;&gt;Node2</title>
<g id="a_edge1_Node000001_Node000002"><a xlink:title=" ">
<path fill="none" stroke="#63b8ff" d="M133.26,-16C141.21,-16 149.33,-16 157.29,-16"/>
<polygon fill="#63b8ff" stroke="#63b8ff" points="157.28,-19.5 167.28,-16 157.28,-12.5 157.28,-19.5"/>
</a>
</g>
</g>
<!-- Node2&#45;&gt;Node2 -->
<g id="edge2_Node000002_Node000002" class="edge">
<title>Node2&#45;&gt;Node2</title>
<g id="a_edge2_Node000002_Node000002"><a xlink:title=" ">
<path fill="none" stroke="#63b8ff" d="M196.4,-32.44C191.13,-41.58 200.54,-50 224.62,-50 237.8,-50 246.58,-47.48 250.98,-43.71"/>
<polygon fill="#63b8ff" stroke="#63b8ff" points="254.41,-44.38 252.61,-33.94 247.51,-43.22 254.41,-44.38"/>
</a>
</g>
</g>
</g>
</svg>
