<?xml version="1.0" encoding="UTF-8" standalone="no"?>
<!DOCTYPE svg PUBLIC "-//W3C//DTD SVG 1.1//EN"
 "http://www.w3.org/Graphics/SVG/1.1/DTD/svg11.dtd">
<!-- Generated by graphviz version 14.1.2 (20260124.0452)
 -->
<!-- Title: pugi::xml_node::attribute Pages: 1 -->
<svg width="1009pt" height="140pt"
 viewBox="0.00 0.00 1009.00 140.00" xmlns="http://www.w3.org/2000/svg" xmlns:xlink="http://www.w3.org/1999/xlink">
<g id="graph0" class="graph" transform="scale(1 1) rotate(0) translate(4 136.41)">
<title>pugi::xml_node::attribute</title>
<!-- Node1 -->
<g id="Node000001" class="node">
<title>Node1</title>
<g id="a_Node000001"><a xlink:title=" ">
<polygon fill="#999999" stroke="#666666" points="1000.5,-89 877.25,-89 877.25,-69 1000.5,-69 1000.5,-89"/>
<text xml:space="preserve" text-anchor="middle" x="938.88" y="-75.5" font-family="Helvetica,sans-Serif" font-size="10.00">pugi::xml_node::attribute</text>
</a>
</g>
</g>
<!-- Node2 -->
<g id="Node000002" class="node">
<title>Node2</title>
<g id="a_Node000002"><a xlink:href="class_g_e_x_m_l_parser.html#af7e66e11e1a8973779770daa1ad6f653" target="_top" xlink:title="Parsea una articulación y sus hijas recursivamente.">
<polygon fill="white" stroke="#666666" points="674.5,-99 531,-99 531,-79 674.5,-79 674.5,-99"/>
<text xml:space="preserve" text-anchor="middle" x="602.75" y="-85.5" font-family="Helvetica,sans-Serif" font-size="10.00">GEXMLParser::parseBalljoint</text>
</a>
</g>
</g>
<!-- Node1&#45;&gt;Node2 -->
<g id="edge1_Node000001_Node000002" class="edge">
<title>Node1&#45;&gt;Node2</title>
<g id="a_edge1_Node000001_Node000002"><a xlink:title=" ">
<path fill="none" stroke="#63b8ff" d="M865.63,-81.16C809.18,-82.85 731.14,-85.19 674.95,-86.87"/>
<polygon fill="#63b8ff" stroke="#63b8ff" points="865.58,-84.67 875.47,-80.87 865.37,-77.67 865.58,-84.67"/>
</a>
</g>
</g>
<!-- Node3 -->
<g id="Node000003" class="node">
<title>Node3</title>
<g id="a_Node000003"><a xlink:href="class_g_e_x_m_l_parser.html#acd9fc587fbd992edbb51df00549c1bda" target="_top" xlink:title="Parsea un archivo .skel y devuelve los datos del esqueleto.">
<polygon fill="white" stroke="#666666" points="495,-99 332,-99 332,-79 495,-79 495,-99"/>
<text xml:space="preserve" text-anchor="middle" x="413.5" y="-85.5" font-family="Helvetica,sans-Serif" font-size="10.00">GEXMLParser::parseSkeletonFile</text>
</a>
</g>
</g>
<!-- Node1&#45;&gt;Node3 -->
<g id="edge6_Node000001_Node000003" class="edge">
<title>Node1&#45;&gt;Node3</title>
<g id="a_edge6_Node000001_Node000003"><a xlink:title=" ">
<path fill="none" stroke="#63b8ff" d="M891.64,-92.41C815.99,-112.54 661.17,-146.17 531,-126 498.5,-120.96 462.64,-108.46 439.41,-99.38"/>
<polygon fill="#63b8ff" stroke="#63b8ff" points="892.45,-95.82 901.19,-89.82 890.62,-89.06 892.45,-95.82"/>
</a>
</g>
</g>
<!-- Node6 -->
<g id="Node000006" class="node">
<title>Node6</title>
<g id="a_Node000006"><a xlink:href="class_g_e_x_m_l_parser.html#aa8e732df591d508941d3c717188b7266" target="_top" xlink:title="Parsea un nodo vec3 (offset, zaxis, yaxis).">
<polygon fill="white" stroke="#666666" points="841.25,-70 710.5,-70 710.5,-50 841.25,-50 841.25,-70"/>
<text xml:space="preserve" text-anchor="middle" x="775.88" y="-56.5" font-family="Helvetica,sans-Serif" font-size="10.00">GEXMLParser::parseVec3</text>
</a>
</g>
</g>
<!-- Node1&#45;&gt;Node6 -->
<g id="edge7_Node000001_Node000006" class="edge">
<title>Node1&#45;&gt;Node6</title>
<g id="a_edge7_Node000001_Node000006"><a xlink:title=" ">
<path fill="none" stroke="#63b8ff" d="M865.74,-70.49C857.69,-69.54 849.53,-68.57 841.59,-67.64"/>
<polygon fill="#63b8ff" stroke="#63b8ff" points="865.16,-73.94 875.5,-71.64 865.98,-66.99 865.16,-73.94"/>
</a>
</g>
</g>
<!-- Node7 -->
<g id="Node000007" class="node">
<title>Node7</title>
<g id="a_Node000007"><a xlink:href="classpugi_1_1xml__node.html#af8ca9132093404a89d25a81060c64293" target="_top" xlink:title=" ">
<polygon fill="white" stroke="#666666" points="836,-32 715.75,-32 715.75,0 836,0 836,-32"/>
<text xml:space="preserve" text-anchor="start" x="723.75" y="-18.5" font-family="Helvetica,sans-Serif" font-size="10.00">pugi::xml_node::remove</text>
<text xml:space="preserve" text-anchor="middle" x="775.88" y="-6.5" font-family="Helvetica,sans-Serif" font-size="10.00">_attribute</text>
</a>
</g>
</g>
<!-- Node1&#45;&gt;Node7 -->
<g id="edge10_Node000001_Node000007" class="edge">
<title>Node1&#45;&gt;Node7</title>
<g id="a_edge10_Node000001_Node000007"><a xlink:title=" ">
<path fill="none" stroke="#63b8ff" d="M901,-64.45C882.99,-57.36 860.99,-48.72 841.25,-41 834.1,-38.21 826.51,-35.25 819.13,-32.38"/>
<polygon fill="#63b8ff" stroke="#63b8ff" points="899.65,-67.68 910.23,-68.09 902.21,-61.17 899.65,-67.68"/>
</a>
</g>
</g>
<!-- Node2&#45;&gt;Node2 -->
<g id="edge2_Node000002_Node000002" class="edge">
<title>Node2&#45;&gt;Node2</title>
<g id="a_edge2_Node000002_Node000002"><a xlink:title=" ">
<path fill="none" stroke="#63b8ff" d="M633.67,-110.11C629.99,-114.14 619.68,-117 602.75,-117 572.66,-117 563.49,-107.98 575.24,-99.34"/>
<polygon fill="#63b8ff" stroke="#63b8ff" points="637.07,-109.26 630.72,-100.78 630.4,-111.37 637.07,-109.26"/>
</a>
</g>
</g>
<!-- Node2&#45;&gt;Node3 -->
<g id="edge3_Node000002_Node000003" class="edge">
<title>Node2&#45;&gt;Node3</title>
<g id="a_edge3_Node000002_Node000003"><a xlink:title=" ">
<path fill="none" stroke="#63b8ff" d="M519.43,-89C511.4,-89 503.25,-89 495.23,-89"/>
<polygon fill="#63b8ff" stroke="#63b8ff" points="519.18,-92.5 529.18,-89 519.18,-85.5 519.18,-92.5"/>
</a>
</g>
</g>
<!-- Node4 -->
<g id="Node000004" class="node">
<title>Node4</title>
<g id="a_Node000004"><a xlink:href="class_g_e_skeleton.html#ade3f0504c12faea2597ee2c23abf22bd" target="_top" xlink:title="Construye la jerarquía de articulaciones desde body.skel.">
<polygon fill="white" stroke="#666666" points="296,-99 163,-99 163,-79 296,-79 296,-99"/>
<text xml:space="preserve" text-anchor="middle" x="229.5" y="-85.5" font-family="Helvetica,sans-Serif" font-size="10.00">GESkeleton::buildSkeleton</text>
</a>
</g>
</g>
<!-- Node3&#45;&gt;Node4 -->
<g id="edge4_Node000003_Node000004" class="edge">
<title>Node3&#45;&gt;Node4</title>
<g id="a_edge4_Node000003_Node000004"><a xlink:title=" ">
<path fill="none" stroke="#63b8ff" d="M320.26,-89C312.21,-89 304.18,-89 296.41,-89"/>
<polygon fill="#63b8ff" stroke="#63b8ff" points="320.1,-92.5 330.1,-89 320.1,-85.5 320.1,-92.5"/>
</a>
</g>
</g>
<!-- Node5 -->
<g id="Node000005" class="node">
<title>Node5</title>
<g id="a_Node000005"><a xlink:href="class_g_e_skeleton.html#ad854854fdf1e4d090553d4d6edbfe095" target="_top" xlink:title="Constructor del esqueleto.">
<polygon fill="white" stroke="#666666" points="127,-99 0,-99 0,-79 127,-79 127,-99"/>
<text xml:space="preserve" text-anchor="middle" x="63.5" y="-85.5" font-family="Helvetica,sans-Serif" font-size="10.00">GESkeleton::GESkeleton</text>
</a>
</g>
</g>
<!-- Node4&#45;&gt;Node5 -->
<g id="edge5_Node000004_Node000005" class="edge">
<title>Node4&#45;&gt;Node5</title>
<g id="a_edge5_Node000004_Node000005"><a xlink:title=" ">
<path fill="none" stroke="#63b8ff" d="M151.41,-89C143.35,-89 135.22,-89 127.34,-89"/>
<polygon fill="#63b8ff" stroke="#63b8ff" points="151.23,-92.5 161.23,-89 151.23,-85.5 151.23,-92.5"/>
</a>
</g>
</g>
<!-- Node6&#45;&gt;Node2 -->
<g id="edge8_Node000006_Node000002" class="edge">
<title>Node6&#45;&gt;Node2</title>
<g id="a_edge8_Node000006_Node000002"><a xlink:title=" ">
<path fill="none" stroke="#63b8ff" d="M702.03,-72.34C689.85,-74.41 677.31,-76.53 665.44,-78.55"/>
<polygon fill="#63b8ff" stroke="#63b8ff" points="702.33,-75.84 711.6,-70.72 701.16,-68.94 702.33,-75.84"/>
</a>
</g>
</g>
<!-- Node6&#45;&gt;Node3 -->
<g id="edge9_Node000006_Node000003" class="edge">
<title>Node6&#45;&gt;Node3</title>
<g id="a_edge9_Node000006_Node000003"><a xlink:title=" ">
<path fill="none" stroke="#63b8ff" d="M698.75,-60.76C650.56,-61.83 587.01,-64.31 531,-70 511.02,-72.03 489.26,-75.29 470.02,-78.54"/>
<polygon fill="#63b8ff" stroke="#63b8ff" points="698.59,-64.27 708.51,-60.56 698.44,-57.27 698.59,-64.27"/>
</a>
</g>
</g>
</g>
</svg>
