<?xml version="1.0" encoding="UTF-8" standalone="no"?>
<!DOCTYPE svg PUBLIC "-//W3C//DTD SVG 1.1//EN"
 "http://www.w3.org/Graphics/SVG/1.1/DTD/svg11.dtd">
<!-- Generated by graphviz version 14.1.2 (20260124.0452)
 -->
<!-- Title: GEAnimation::applyToSkeleton Pages: 1 -->
<svg width="628pt" height="192pt"
 viewBox="0.00 0.00 628.00 192.00" xmlns="http://www.w3.org/2000/svg" xmlns:xlink="http://www.w3.org/1999/xlink">
<g id="graph0" class="graph" transform="scale(1 1) rotate(0) translate(4 188)">
<title>GEAnimation::applyToSkeleton</title>
<!-- Node1 -->
<g id="Node000001" class="node">
<title>Node1</title>
<g id="a_Node000001"><a xlink:title="Aplica la animación actual al esqueleto.">
<polygon fill="#999999" stroke="#666666" points="151.75,-102 0,-102 0,-82 151.75,-82 151.75,-102"/>
<text xml:space="preserve" text-anchor="middle" x="75.88" y="-88.5" font-family="Helvetica,sans-Serif" font-size="10.00">GEAnimation::applyToSkeleton</text>
</a>
</g>
</g>
<!-- Node2 -->
<g id="Node000002" class="node">
<title>Node2</title>
<g id="a_Node000002"><a xlink:href="class_g_e_skeleton.html#ac2e620f6a7ba3d371b5e5dbeb6bbec85" target="_top" xlink:title="Busca una articulación por nombre.">
<polygon fill="white" stroke="#666666" points="309.12,-184 197.88,-184 197.88,-164 309.12,-164 309.12,-184"/>
<text xml:space="preserve" text-anchor="middle" x="253.5" y="-170.5" font-family="Helvetica,sans-Serif" font-size="10.00">GESkeleton::findJoint</text>
</a>
</g>
</g>
<!-- Node1&#45;&gt;Node2 -->
<g id="edge1_Node000001_Node000002" class="edge">
<title>Node1&#45;&gt;Node2</title>
<g id="a_edge1_Node000001_Node000002"><a xlink:title=" ">
<path fill="none" stroke="#63b8ff" d="M92.44,-102.39C113.37,-115.99 152.08,-139.87 187.75,-155 192,-156.8 196.47,-158.5 201,-160.08"/>
<polygon fill="#63b8ff" stroke="#63b8ff" points="199.55,-163.29 210.14,-163.08 201.74,-156.64 199.55,-163.29"/>
</a>
</g>
</g>
<!-- Node5 -->
<g id="Node000005" class="node">
<title>Node5</title>
<g id="a_Node000005"><a xlink:href="class_g_e_animation.html#acbec67cc5efe634a7bfb89ae6dd069b0" target="_top" xlink:title="Obtiene la pose interpolada para una articulación.">
<polygon fill="white" stroke="#666666" points="316.25,-146 190.75,-146 190.75,-126 316.25,-126 316.25,-146"/>
<text xml:space="preserve" text-anchor="middle" x="253.5" y="-132.5" font-family="Helvetica,sans-Serif" font-size="10.00">GEAnimation::getPoseAt</text>
</a>
</g>
</g>
<!-- Node1&#45;&gt;Node5 -->
<g id="edge4_Node000001_Node000005" class="edge">
<title>Node1&#45;&gt;Node5</title>
<g id="a_edge4_Node000001_Node000005"><a xlink:title=" ">
<path fill="none" stroke="#63b8ff" d="M118.5,-102.43C142.9,-108.54 173.97,-116.32 200.04,-122.86"/>
<polygon fill="#63b8ff" stroke="#63b8ff" points="198.86,-126.17 209.41,-125.2 200.56,-119.38 198.86,-126.17"/>
</a>
</g>
</g>
<!-- Node6 -->
<g id="Node000006" class="node">
<title>Node6</title>
<g id="a_Node000006"><a xlink:href="class_g_e_animation.html#a0f23d92d8b3dd22f3a9acd9b74e2be07" target="_top" xlink:title="Obtiene la posición del esqueleto interpolada.">
<polygon fill="white" stroke="#666666" points="319.25,-108 187.75,-108 187.75,-76 319.25,-76 319.25,-108"/>
<text xml:space="preserve" text-anchor="start" x="195.75" y="-94.5" font-family="Helvetica,sans-Serif" font-size="10.00">GEAnimation::getSkeleton</text>
<text xml:space="preserve" text-anchor="middle" x="253.5" y="-82.5" font-family="Helvetica,sans-Serif" font-size="10.00">Position</text>
</a>
</g>
</g>
<!-- Node1&#45;&gt;Node6 -->
<g id="edge5_Node000001_Node000006" class="edge">
<title>Node1&#45;&gt;Node6</title>
<g id="a_edge5_Node000001_Node000006"><a xlink:title=" ">
<path fill="none" stroke="#63b8ff" d="M152.12,-92C160,-92 168.02,-92 175.92,-92"/>
<polygon fill="#63b8ff" stroke="#63b8ff" points="175.85,-95.5 185.85,-92 175.85,-88.5 175.85,-95.5"/>
</a>
</g>
</g>
<!-- Node7 -->
<g id="Node000007" class="node">
<title>Node7</title>
<g id="a_Node000007"><a xlink:href="class_g_e_balljoint.html#af4e9dadf09e7626f4bfe7386a8d76e5b" target="_top" xlink:title="Asigna la rotación de la articulación (respetando límites).">
<polygon fill="white" stroke="#666666" points="306.88,-58 200.12,-58 200.12,-38 306.88,-38 306.88,-58"/>
<text xml:space="preserve" text-anchor="middle" x="253.5" y="-44.5" font-family="Helvetica,sans-Serif" font-size="10.00">GEBalljoint::setPose</text>
</a>
</g>
</g>
<!-- Node1&#45;&gt;Node7 -->
<g id="edge6_Node000001_Node000007" class="edge">
<title>Node1&#45;&gt;Node7</title>
<g id="a_edge6_Node000001_Node000007"><a xlink:title=" ">
<path fill="none" stroke="#63b8ff" d="M118.5,-81.57C142.9,-75.46 173.97,-67.68 200.04,-61.14"/>
<polygon fill="#63b8ff" stroke="#63b8ff" points="200.56,-64.62 209.41,-58.8 198.86,-57.83 200.56,-64.62"/>
</a>
</g>
</g>
<!-- Node8 -->
<g id="Node000008" class="node">
<title>Node8</title>
<g id="a_Node000008"><a xlink:href="class_g_e_skeleton.html#aea806b4224cb8d236d740defe660d042" target="_top" xlink:title="Establece la posición global del esqueleto.">
<polygon fill="white" stroke="#666666" points="315.12,-20 191.88,-20 191.88,0 315.12,0 315.12,-20"/>
<text xml:space="preserve" text-anchor="middle" x="253.5" y="-6.5" font-family="Helvetica,sans-Serif" font-size="10.00">GESkeleton::setPosition</text>
</a>
</g>
</g>
<!-- Node1&#45;&gt;Node8 -->
<g id="edge7_Node000001_Node000008" class="edge">
<title>Node1&#45;&gt;Node8</title>
<g id="a_edge7_Node000001_Node000008"><a xlink:title=" ">
<path fill="none" stroke="#63b8ff" d="M92.44,-81.61C113.37,-68.01 152.08,-44.13 187.75,-29 192,-27.2 196.47,-25.5 201,-23.92"/>
<polygon fill="#63b8ff" stroke="#63b8ff" points="201.74,-27.36 210.14,-20.92 199.55,-20.71 201.74,-27.36"/>
</a>
</g>
</g>
<!-- Node3 -->
<g id="Node000003" class="node">
<title>Node3</title>
<g id="a_Node000003"><a xlink:href="class_g_e_balljoint.html#a13e4735bffa31009035f084f415a5955" target="_top" xlink:title="Busca una articulación hija por nombre.">
<polygon fill="white" stroke="#666666" points="464.25,-184 355.25,-184 355.25,-164 464.25,-164 464.25,-184"/>
<text xml:space="preserve" text-anchor="middle" x="409.75" y="-170.5" font-family="Helvetica,sans-Serif" font-size="10.00">GEBalljoint::findChild</text>
</a>
</g>
</g>
<!-- Node2&#45;&gt;Node3 -->
<g id="edge2_Node000002_Node000003" class="edge">
<title>Node2&#45;&gt;Node3</title>
<g id="a_edge2_Node000002_Node000003"><a xlink:title=" ">
<path fill="none" stroke="#63b8ff" d="M309.32,-174C320.42,-174 332.2,-174 343.62,-174"/>
<polygon fill="#63b8ff" stroke="#63b8ff" points="343.37,-177.5 353.37,-174 343.37,-170.5 343.37,-177.5"/>
</a>
</g>
</g>
<!-- Node4 -->
<g id="Node000004" class="node">
<title>Node4</title>
<g id="a_Node000004"><a xlink:href="class_g_e_balljoint.html#a0f468b4618ae46410622a32a83569714" target="_top" xlink:title="Construye una articulación.">
<polygon fill="white" stroke="#666666" points="619.75,-184 500.25,-184 500.25,-164 619.75,-164 619.75,-184"/>
<text xml:space="preserve" text-anchor="middle" x="560" y="-170.5" font-family="Helvetica,sans-Serif" font-size="10.00">GEBalljoint::GEBalljoint</text>
</a>
</g>
</g>
<!-- Node3&#45;&gt;Node4 -->
<g id="edge3_Node000003_Node000004" class="edge">
<title>Node3&#45;&gt;Node4</title>
<g id="a_edge3_Node000003_Node000004"><a xlink:title=" ">
<path fill="none" stroke="#63b8ff" d="M464.69,-174C472.46,-174 480.54,-174 488.57,-174"/>
<polygon fill="#63b8ff" stroke="#63b8ff" points="488.33,-177.5 498.33,-174 488.33,-170.5 488.33,-177.5"/>
</a>
</g>
</g>
</g>
</svg>
