<?xml version="1.0" encoding="UTF-8" standalone="no"?>
<!DOCTYPE svg PUBLIC "-//W3C//DTD SVG 1.1//EN"
 "http://www.w3.org/Graphics/SVG/1.1/DTD/svg11.dtd">
<!-- Generated by graphviz version 14.1.2 (20260124.0452)
 -->
<!-- Title: xpath_ast_node::rettype Pages: 1 -->
<svg width="1435pt" height="772pt"
 viewBox="0.00 0.00 1435.00 772.00" xmlns="http://www.w3.org/2000/svg" xmlns:xlink="http://www.w3.org/1999/xlink">
<g id="graph0" class="graph" transform="scale(1 1) rotate(0) translate(4 768)">
<title>xpath_ast_node::rettype</title>
<!-- Node1 -->
<g id="Node000001" class="node">
<title>Node1</title>
<g id="a_Node000001"><a xlink:title=" ">
<polygon fill="#999999" stroke="#666666" points="1426.5,-375 1305.5,-375 1305.5,-355 1426.5,-355 1426.5,-375"/>
<text xml:space="preserve" text-anchor="middle" x="1366" y="-361.5" font-family="Helvetica,sans-Serif" font-size="10.00">xpath_ast_node::rettype</text>
</a>
</g>
</g>
<!-- Node2 -->
<g id="Node000002" class="node">
<title>Node2</title>
<g id="a_Node000002"><a xlink:href="classxpath__ast__node.html#ab4e5bbd3f2e83c86a43349374b4bfc22" target="_top" xlink:title=" ">
<polygon fill="white" stroke="#666666" points="1259,-511 1144.75,-511 1144.75,-479 1259,-479 1259,-511"/>
<text xml:space="preserve" text-anchor="start" x="1152.75" y="-497.5" font-family="Helvetica,sans-Serif" font-size="10.00">xpath_ast_node::apply</text>
<text xml:space="preserve" text-anchor="middle" x="1201.88" y="-485.5" font-family="Helvetica,sans-Serif" font-size="10.00">_predicate_boolean</text>
</a>
</g>
</g>
<!-- Node1&#45;&gt;Node2 -->
<g id="edge1_Node000001_Node000002" class="edge">
<title>Node1&#45;&gt;Node2</title>
<g id="a_edge1_Node000001_Node000002"><a xlink:title=" ">
<path fill="none" stroke="#63b8ff" d="M1343.15,-382.52C1311.7,-407.74 1254.11,-453.92 1223.41,-478.53"/>
<polygon fill="#63b8ff" stroke="#63b8ff" points="1345.21,-385.35 1350.83,-376.37 1340.83,-379.89 1345.21,-385.35"/>
</a>
</g>
</g>
<!-- Node5 -->
<g id="Node000005" class="node">
<title>Node5</title>
<g id="a_Node000005"><a xlink:href="classxpath__ast__node.html#a98dd7f6e67fe2c56c63056eed835d6a4" target="_top" xlink:title=" ">
<polygon fill="white" stroke="#666666" points="785.75,-660 641.5,-660 641.5,-640 785.75,-640 785.75,-660"/>
<text xml:space="preserve" text-anchor="middle" x="713.62" y="-646.5" font-family="Helvetica,sans-Serif" font-size="10.00">xpath_ast_node::compare_eq</text>
</a>
</g>
</g>
<!-- Node1&#45;&gt;Node5 -->
<g id="edge27_Node000001_Node000005" class="edge">
<title>Node1&#45;&gt;Node5</title>
<g id="a_edge27_Node000001_Node000005"><a xlink:title=" ">
<path fill="none" stroke="#63b8ff" d="M1357.35,-385.95C1344.27,-418.97 1314.61,-483.11 1269.5,-520 1127.62,-636.04 900.52,-652.21 785.83,-652.29"/>
<polygon fill="#63b8ff" stroke="#63b8ff" points="1360.57,-387.31 1360.87,-376.72 1354.03,-384.82 1360.57,-387.31"/>
</a>
</g>
</g>
<!-- Node8 -->
<g id="Node000008" class="node">
<title>Node8</title>
<g id="a_Node000008"><a xlink:href="classxpath__ast__node.html#abf2d4b745493f63aebc1c89d9fde8eed" target="_top" xlink:title=" ">
<polygon fill="white" stroke="#666666" points="129.25,-742 15,-742 15,-710 129.25,-710 129.25,-742"/>
<text xml:space="preserve" text-anchor="start" x="23" y="-728.5" font-family="Helvetica,sans-Serif" font-size="10.00">xpath_ast_node::apply</text>
<text xml:space="preserve" text-anchor="middle" x="72.12" y="-716.5" font-family="Helvetica,sans-Serif" font-size="10.00">_predicate_number</text>
</a>
</g>
</g>
<!-- Node1&#45;&gt;Node8 -->
<g id="edge25_Node000001_Node000008" class="edge">
<title>Node1&#45;&gt;Node8</title>
<g id="a_edge25_Node000001_Node000008"><a xlink:title=" ">
<path fill="none" stroke="#63b8ff" d="M1359.33,-386.23C1335.89,-468.8 1238.34,-764 1042.12,-764 1042.12,-764 1042.12,-764 391.88,-764 299.5,-764 193.12,-748.07 129.6,-736.84"/>
<polygon fill="#63b8ff" stroke="#63b8ff" points="1362.67,-387.29 1361.96,-376.72 1355.92,-385.43 1362.67,-387.29"/>
</a>
</g>
</g>
<!-- Node9 -->
<g id="Node000009" class="node">
<title>Node9</title>
<g id="a_Node000009"><a xlink:href="classxpath__ast__node.html#a8cedd7e15623b9fa431788b8843f1463" target="_top" xlink:title=" ">
<polygon fill="white" stroke="#666666" points="136,-476 8.25,-476 8.25,-444 136,-444 136,-476"/>
<text xml:space="preserve" text-anchor="start" x="16.25" y="-462.5" font-family="Helvetica,sans-Serif" font-size="10.00">xpath_ast_node::apply</text>
<text xml:space="preserve" text-anchor="middle" x="72.12" y="-450.5" font-family="Helvetica,sans-Serif" font-size="10.00">_predicate_number_const</text>
</a>
</g>
</g>
<!-- Node1&#45;&gt;Node9 -->
<g id="edge26_Node000001_Node000009" class="edge">
<title>Node1&#45;&gt;Node9</title>
<g id="a_edge26_Node000001_Node000009"><a xlink:title=" ">
<path fill="none" stroke="#63b8ff" d="M1293.86,-371.59C1228.49,-377.08 1128.87,-384 1042.12,-384 1042.12,-384 1042.12,-384 391.88,-384 297.22,-384 271.16,-381.62 180.25,-408 151.66,-416.3 121.34,-431.71 100.28,-443.61"/>
<polygon fill="#63b8ff" stroke="#63b8ff" points="1294.08,-375.09 1303.75,-370.75 1293.49,-368.11 1294.08,-375.09"/>
</a>
</g>
</g>
<!-- Node10 -->
<g id="Node000010" class="node">
<title>Node10</title>
<g id="a_Node000010"><a xlink:href="classxpath__ast__node.html#abb6e4c529276eaf882233dbb6e04e111" target="_top" xlink:title=" ">
<polygon fill="white" stroke="#666666" points="144.25,-535 0,-535 0,-515 144.25,-515 144.25,-535"/>
<text xml:space="preserve" text-anchor="middle" x="72.12" y="-521.5" font-family="Helvetica,sans-Serif" font-size="10.00">xpath_ast_node::compare_rel</text>
</a>
</g>
</g>
<!-- Node1&#45;&gt;Node10 -->
<g id="edge28_Node000001_Node000010" class="edge">
<title>Node1&#45;&gt;Node10</title>
<g id="a_edge28_Node000001_Node000010"><a xlink:title=" ">
<path fill="none" stroke="#63b8ff" d="M1321.77,-378.65C1305.51,-383.41 1286.78,-388.44 1269.5,-392 1169.67,-412.59 1144.06,-422 1042.12,-422 1042.12,-422 1042.12,-422 391.88,-422 272.36,-422 139.33,-488.37 91.49,-514.56"/>
<polygon fill="#63b8ff" stroke="#63b8ff" points="1322.55,-382.07 1331.13,-375.86 1320.55,-375.36 1322.55,-382.07"/>
</a>
</g>
</g>
<!-- Node12 -->
<g id="Node000012" class="node">
<title>Node12</title>
<g id="a_Node000012"><a xlink:href="pugixml_8cpp.html#aae3852a9b9a47faa237f1a21e22d2450" target="_top" xlink:title=" ">
<polygon fill="white" stroke="#666666" points="1269.5,-356 1134.25,-356 1134.25,-336 1269.5,-336 1269.5,-356"/>
<text xml:space="preserve" text-anchor="middle" x="1201.88" y="-342.5" font-family="Helvetica,sans-Serif" font-size="10.00">evaluate_node_set_prepare</text>
</a>
</g>
</g>
<!-- Node1&#45;&gt;Node12 -->
<g id="edge29_Node000001_Node000012" class="edge">
<title>Node1&#45;&gt;Node12</title>
<g id="a_edge29_Node000001_Node000012"><a xlink:title=" ">
<path fill="none" stroke="#63b8ff" d="M1293.93,-356.67C1285.95,-355.74 1277.84,-354.79 1269.91,-353.86"/>
<polygon fill="#63b8ff" stroke="#63b8ff" points="1293.25,-360.12 1303.59,-357.8 1294.06,-353.16 1293.25,-360.12"/>
</a>
</g>
</g>
<!-- Node13 -->
<g id="Node000013" class="node">
<title>Node13</title>
<g id="a_Node000013"><a xlink:href="structxpath__parser.html#adcd54e9b508acfe1f040ee7a54b88f2a" target="_top" xlink:title=" ">
<polygon fill="white" stroke="#666666" points="1253,-189 1150.75,-189 1150.75,-157 1253,-157 1253,-189"/>
<text xml:space="preserve" text-anchor="start" x="1158.75" y="-175.5" font-family="Helvetica,sans-Serif" font-size="10.00">xpath_parser::parse</text>
<text xml:space="preserve" text-anchor="middle" x="1201.88" y="-163.5" font-family="Helvetica,sans-Serif" font-size="10.00">_expression_rec</text>
</a>
</g>
</g>
<!-- Node1&#45;&gt;Node13 -->
<g id="edge30_Node000001_Node000013" class="edge">
<title>Node1&#45;&gt;Node13</title>
<g id="a_edge30_Node000001_Node000013"><a xlink:title=" ">
<path fill="none" stroke="#63b8ff" d="M1349.1,-346.17C1317.36,-308.59 1246.62,-224.81 1216.68,-189.35"/>
<polygon fill="#63b8ff" stroke="#63b8ff" points="1346.18,-348.14 1355.31,-353.52 1351.53,-343.62 1346.18,-348.14"/>
</a>
</g>
</g>
<!-- Node17 -->
<g id="Node000017" class="node">
<title>Node17</title>
<g id="a_Node000017"><a xlink:href="structxpath__parser.html#a61a425d990a56d5db8cd14405835a5b6" target="_top" xlink:title=" ">
<polygon fill="white" stroke="#666666" points="764.75,-274 662.5,-274 662.5,-242 764.75,-242 764.75,-274"/>
<text xml:space="preserve" text-anchor="start" x="670.5" y="-260.5" font-family="Helvetica,sans-Serif" font-size="10.00">xpath_parser::parse</text>
<text xml:space="preserve" text-anchor="middle" x="713.62" y="-248.5" font-family="Helvetica,sans-Serif" font-size="10.00">_filter_expression</text>
</a>
</g>
</g>
<!-- Node1&#45;&gt;Node17 -->
<g id="edge47_Node000001_Node000017" class="edge">
<title>Node1&#45;&gt;Node17</title>
<g id="a_edge47_Node000001_Node000017"><a xlink:title=" ">
<path fill="none" stroke="#63b8ff" d="M1333.19,-349.92C1314.94,-341.89 1291.38,-332.55 1269.5,-327 1075.25,-277.76 1020.37,-300.58 821.75,-274 803.2,-271.52 782.89,-268.55 764.99,-265.85"/>
<polygon fill="#63b8ff" stroke="#63b8ff" points="1331.6,-353.04 1342.16,-353.96 1334.48,-346.66 1331.6,-353.04"/>
</a>
</g>
</g>
<!-- Node18 -->
<g id="Node000018" class="node">
<title>Node18</title>
<g id="a_Node000018"><a xlink:href="structxpath__parser.html#ab5275305ebaac95fd68a3186b737aaa7" target="_top" xlink:title=" ">
<polygon fill="white" stroke="#666666" points="460.5,-142 325.25,-142 325.25,-110 460.5,-110 460.5,-142"/>
<text xml:space="preserve" text-anchor="start" x="333.25" y="-128.5" font-family="Helvetica,sans-Serif" font-size="10.00">xpath_parser::parse</text>
<text xml:space="preserve" text-anchor="middle" x="392.88" y="-116.5" font-family="Helvetica,sans-Serif" font-size="10.00">_path_or_unary_expression</text>
</a>
</g>
</g>
<!-- Node1&#45;&gt;Node18 -->
<g id="edge48_Node000001_Node000018" class="edge">
<title>Node1&#45;&gt;Node18</title>
<g id="a_edge48_Node000001_Node000018"><a xlink:title=" ">
<path fill="none" stroke="#63b8ff" d="M1363.67,-343.18C1359.38,-291.5 1341.58,-160.41 1269.5,-86 1194.33,-8.4 1150.17,0 1042.12,0 1042.12,0 1042.12,0 712.62,0 614.23,0 585.76,-6.6 496.5,-48 462.8,-63.63 429.65,-91.79 410.51,-109.65"/>
<polygon fill="#63b8ff" stroke="#63b8ff" points="1360.17,-343.3 1364.39,-353.02 1367.15,-342.79 1360.17,-343.3"/>
</a>
</g>
</g>
<!-- Node20 -->
<g id="Node000020" class="node">
<title>Node20</title>
<g id="a_Node000020"><a xlink:href="structxpath__parser.html#a0b226e2905970c868ab6a80d76da3a95" target="_top" xlink:title=" ">
<polygon fill="white" stroke="#666666" points="948,-92 821.75,-92 821.75,-72 948,-72 948,-92"/>
<text xml:space="preserve" text-anchor="middle" x="884.88" y="-78.5" font-family="Helvetica,sans-Serif" font-size="10.00">xpath_parser::parse_step</text>
</a>
</g>
</g>
<!-- Node1&#45;&gt;Node20 -->
<g id="edge49_Node000001_Node000020" class="edge">
<title>Node1&#45;&gt;Node20</title>
<g id="a_edge49_Node000001_Node000020"><a xlink:title=" ">
<path fill="none" stroke="#63b8ff" d="M1362.26,-343.39C1355.4,-299.06 1333.25,-197.81 1269.5,-148 1176.18,-75.08 1030.85,-71.07 948.45,-75.79"/>
<polygon fill="#63b8ff" stroke="#63b8ff" points="1358.75,-343.62 1363.62,-353.03 1365.68,-342.64 1358.75,-343.62"/>
</a>
</g>
</g>
<!-- Node3 -->
<g id="Node000003" class="node">
<title>Node3</title>
<g id="a_Node000003"><a xlink:href="classxpath__ast__node.html#a7e35f265c9e0712a16e1d8a9db4c7672" target="_top" xlink:title=" ">
<polygon fill="white" stroke="#666666" points="1098.25,-574 984,-574 984,-542 1098.25,-542 1098.25,-574"/>
<text xml:space="preserve" text-anchor="start" x="992" y="-560.5" font-family="Helvetica,sans-Serif" font-size="10.00">xpath_ast_node::apply</text>
<text xml:space="preserve" text-anchor="middle" x="1041.12" y="-548.5" font-family="Helvetica,sans-Serif" font-size="10.00">_predicate</text>
</a>
</g>
</g>
<!-- Node2&#45;&gt;Node3 -->
<g id="edge2_Node000002_Node000003" class="edge">
<title>Node2&#45;&gt;Node3</title>
<g id="a_edge2_Node000002_Node000003"><a xlink:title=" ">
<path fill="none" stroke="#63b8ff" d="M1149.09,-515.55C1127.83,-523.99 1103.54,-533.63 1083.49,-541.58"/>
<polygon fill="#63b8ff" stroke="#63b8ff" points="1150.17,-518.89 1158.17,-511.95 1147.59,-512.38 1150.17,-518.89"/>
</a>
</g>
</g>
<!-- Node4 -->
<g id="Node000004" class="node">
<title>Node4</title>
<g id="a_Node000004"><a xlink:href="classxpath__ast__node.html#a68cace396dd4eeae67ecfcd34a3a8285" target="_top" xlink:title=" ">
<polygon fill="white" stroke="#666666" points="939.38,-593 830.38,-593 830.38,-561 939.38,-561 939.38,-593"/>
<text xml:space="preserve" text-anchor="start" x="838.38" y="-579.5" font-family="Helvetica,sans-Serif" font-size="10.00">xpath_ast_node::eval</text>
<text xml:space="preserve" text-anchor="middle" x="884.88" y="-567.5" font-family="Helvetica,sans-Serif" font-size="10.00">_node_set</text>
</a>
</g>
</g>
<!-- Node3&#45;&gt;Node4 -->
<g id="edge3_Node000003_Node000004" class="edge">
<title>Node3&#45;&gt;Node4</title>
<g id="a_edge3_Node000003_Node000004"><a xlink:title=" ">
<path fill="none" stroke="#63b8ff" d="M972.36,-566.35C961.48,-567.69 950.36,-569.06 939.86,-570.35"/>
<polygon fill="#63b8ff" stroke="#63b8ff" points="972.56,-569.85 982.06,-565.15 971.71,-562.9 972.56,-569.85"/>
</a>
</g>
</g>
<!-- Node4&#45;&gt;Node5 -->
<g id="edge4_Node000004_Node000005" class="edge">
<title>Node4&#45;&gt;Node5</title>
<g id="a_edge4_Node000004_Node000005"><a xlink:title=" ">
<path fill="none" stroke="#63b8ff" d="M843.96,-598.49C826.37,-607.56 805.3,-617.87 785.75,-626 773.84,-630.96 760.5,-635.67 748.63,-639.58"/>
<polygon fill="#63b8ff" stroke="#63b8ff" points="845.29,-601.75 852.54,-594.03 842.05,-595.54 845.29,-601.75"/>
</a>
</g>
</g>
<!-- Node6 -->
<g id="Node000006" class="node">
<title>Node6</title>
<g id="a_Node000006"><a xlink:href="classxpath__ast__node.html#ab7f965a92023bc2704b8e6fd9f3d7c14" target="_top" xlink:title=" ">
<polygon fill="white" stroke="#666666" points="605.5,-584 496.5,-584 496.5,-552 605.5,-552 605.5,-584"/>
<text xml:space="preserve" text-anchor="start" x="504.5" y="-570.5" font-family="Helvetica,sans-Serif" font-size="10.00">xpath_ast_node::eval</text>
<text xml:space="preserve" text-anchor="middle" x="551" y="-558.5" font-family="Helvetica,sans-Serif" font-size="10.00">_boolean</text>
</a>
</g>
</g>
<!-- Node4&#45;&gt;Node6 -->
<g id="edge23_Node000004_Node000006" class="edge">
<title>Node4&#45;&gt;Node6</title>
<g id="a_edge23_Node000004_Node000006"><a xlink:title=" ">
<path fill="none" stroke="#63b8ff" d="M818.95,-575.24C756.78,-573.55 664.08,-571.04 605.89,-569.46"/>
<polygon fill="#63b8ff" stroke="#63b8ff" points="818.58,-578.73 828.67,-575.5 818.77,-571.73 818.58,-578.73"/>
</a>
</g>
</g>
<!-- Node4&#45;&gt;Node10 -->
<g id="edge22_Node000004_Node000010" class="edge">
<title>Node4&#45;&gt;Node10</title>
<g id="a_edge22_Node000004_Node000010"><a xlink:title=" ">
<path fill="none" stroke="#63b8ff" d="M818.89,-567.5C762.57,-559.65 678.83,-548.86 605.5,-543 465.29,-531.8 429.83,-535.62 289.25,-531 241.04,-529.42 186.78,-527.91 144.68,-526.8"/>
<polygon fill="#63b8ff" stroke="#63b8ff" points="818.24,-570.94 828.62,-568.87 819.21,-564.01 818.24,-570.94"/>
</a>
</g>
</g>
<!-- Node11 -->
<g id="Node000011" class="node">
<title>Node11</title>
<g id="a_Node000011"><a xlink:href="classxpath__ast__node.html#a6b675237a590548b68d0e0b97518b6df" target="_top" xlink:title=" ">
<polygon fill="white" stroke="#666666" points="447.38,-660 338.38,-660 338.38,-628 447.38,-628 447.38,-660"/>
<text xml:space="preserve" text-anchor="start" x="346.38" y="-646.5" font-family="Helvetica,sans-Serif" font-size="10.00">xpath_ast_node::eval</text>
<text xml:space="preserve" text-anchor="middle" x="392.88" y="-634.5" font-family="Helvetica,sans-Serif" font-size="10.00">_string</text>
</a>
</g>
</g>
<!-- Node4&#45;&gt;Node11 -->
<g id="edge24_Node000004_Node000011" class="edge">
<title>Node4&#45;&gt;Node11</title>
<g id="a_edge24_Node000004_Node000011"><a xlink:title=" ">
<path fill="none" stroke="#63b8ff" d="M818.85,-585.89C721.2,-599.24 538.5,-624.22 447.8,-636.63"/>
<polygon fill="#63b8ff" stroke="#63b8ff" points="819.1,-589.39 828.54,-584.57 818.15,-582.45 819.1,-589.39"/>
</a>
</g>
</g>
<!-- Node5&#45;&gt;Node6 -->
<g id="edge5_Node000005_Node000006" class="edge">
<title>Node5&#45;&gt;Node6</title>
<g id="a_edge5_Node000005_Node000006"><a xlink:title=" ">
<path fill="none" stroke="#63b8ff" d="M690.04,-633.61C665.79,-619.23 626.65,-598.84 596.23,-584.48"/>
<polygon fill="#63b8ff" stroke="#63b8ff" points="688.11,-636.52 698.46,-638.76 691.76,-630.55 688.11,-636.52"/>
</a>
</g>
</g>
<!-- Node6&#45;&gt;Node2 -->
<g id="edge6_Node000006_Node000002" class="edge">
<title>Node6&#45;&gt;Node2</title>
<g id="a_edge6_Node000006_Node000002"><a xlink:title=" ">
<path fill="none" stroke="#63b8ff" d="M616.65,-560.73C743.76,-546.43 1024.26,-514.87 1144.43,-501.35"/>
<polygon fill="#63b8ff" stroke="#63b8ff" points="616.62,-557.21 607.08,-561.8 617.41,-564.16 616.62,-557.21"/>
</a>
</g>
</g>
<!-- Node6&#45;&gt;Node5 -->
<g id="edge7_Node000006_Node000005" class="edge">
<title>Node6&#45;&gt;Node5</title>
<g id="a_edge7_Node000006_Node000005"><a xlink:title=" ">
<path fill="none" stroke="#63b8ff" d="M584.42,-590.1C612.8,-606.22 653.72,-627.08 681.65,-639.65"/>
<polygon fill="#63b8ff" stroke="#63b8ff" points="586.3,-587.14 575.9,-585.16 582.8,-593.2 586.3,-587.14"/>
</a>
</g>
</g>
<!-- Node7 -->
<g id="Node000007" class="node">
<title>Node7</title>
<g id="a_Node000007"><a xlink:href="classxpath__ast__node.html#a92dd7048e28d486bc7f382d1fc6f1de6" target="_top" xlink:title=" ">
<polygon fill="white" stroke="#666666" points="289.25,-633 180.25,-633 180.25,-601 289.25,-601 289.25,-633"/>
<text xml:space="preserve" text-anchor="start" x="188.25" y="-619.5" font-family="Helvetica,sans-Serif" font-size="10.00">xpath_ast_node::eval</text>
<text xml:space="preserve" text-anchor="middle" x="234.75" y="-607.5" font-family="Helvetica,sans-Serif" font-size="10.00">_number</text>
</a>
</g>
</g>
<!-- Node6&#45;&gt;Node7 -->
<g id="edge8_Node000006_Node000007" class="edge">
<title>Node6&#45;&gt;Node7</title>
<g id="a_edge8_Node000006_Node000007"><a xlink:title=" ">
<path fill="none" stroke="#63b8ff" d="M485.15,-572.53C427.4,-579.87 343.9,-593.01 289.72,-603.34"/>
<polygon fill="#63b8ff" stroke="#63b8ff" points="485.34,-576.03 494.83,-571.32 484.48,-569.08 485.34,-576.03"/>
</a>
</g>
</g>
<!-- Node6&#45;&gt;Node11 -->
<g id="edge21_Node000006_Node000011" class="edge">
<title>Node6&#45;&gt;Node11</title>
<g id="a_edge21_Node000006_Node000011"><a xlink:title=" ">
<path fill="none" stroke="#63b8ff" d="M492.08,-589.47C481.62,-594.64 470.77,-600.05 460.5,-605 445.07,-612.43 427.39,-620.37 414.12,-627.53"/>
<polygon fill="#63b8ff" stroke="#63b8ff" points="493.6,-592.62 501.03,-585.07 490.51,-586.34 493.6,-592.62"/>
</a>
</g>
</g>
<!-- Node7&#45;&gt;Node5 -->
<g id="edge13_Node000007_Node000005" class="edge">
<title>Node7&#45;&gt;Node5</title>
<g id="a_edge13_Node000007_Node000005"><a xlink:title=" ">
<path fill="none" stroke="#63b8ff" d="M265.55,-639.67C282.16,-650.88 303.78,-663.22 325.25,-669 446.99,-701.8 597.89,-676.45 670.16,-660.47"/>
<polygon fill="#63b8ff" stroke="#63b8ff" points="267.83,-636.99 257.63,-634.13 263.81,-642.73 267.83,-636.99"/>
</a>
</g>
</g>
<!-- Node7&#45;&gt;Node6 -->
<g id="edge16_Node000007_Node000006" class="edge">
<title>Node7&#45;&gt;Node6</title>
<g id="a_edge16_Node000007_Node000006"><a xlink:title=" ">
<path fill="none" stroke="#63b8ff" d="M300.93,-612.43C358.77,-605.07 442.27,-591.93 496.34,-581.6"/>
<polygon fill="#63b8ff" stroke="#63b8ff" points="300.71,-608.93 291.22,-613.64 301.58,-615.88 300.71,-608.93"/>
</a>
</g>
</g>
<!-- Node7&#45;&gt;Node8 -->
<g id="edge9_Node000007_Node000008" class="edge">
<title>Node7&#45;&gt;Node8</title>
<g id="a_edge9_Node000007_Node000008"><a xlink:title=" ">
<path fill="none" stroke="#63b8ff" d="M200.26,-639.73C169.52,-660.58 124.73,-690.98 97.34,-709.57"/>
<polygon fill="#63b8ff" stroke="#63b8ff" points="202.14,-642.68 208.45,-634.17 198.21,-636.89 202.14,-642.68"/>
</a>
</g>
</g>
<!-- Node7&#45;&gt;Node9 -->
<g id="edge11_Node000007_Node000009" class="edge">
<title>Node7&#45;&gt;Node9</title>
<g id="a_edge11_Node000007_Node000009"><a xlink:title=" ">
<path fill="none" stroke="#63b8ff" d="M216.5,-591.14C199.82,-567.29 172.9,-531.8 144.25,-506 131.79,-494.78 116.33,-484.43 103,-476.4"/>
<polygon fill="#63b8ff" stroke="#63b8ff" points="213.59,-593.08 222.15,-599.33 219.36,-589.11 213.59,-593.08"/>
</a>
</g>
</g>
<!-- Node7&#45;&gt;Node10 -->
<g id="edge14_Node000007_Node000010" class="edge">
<title>Node7&#45;&gt;Node10</title>
<g id="a_edge14_Node000007_Node000010"><a xlink:title=" ">
<path fill="none" stroke="#63b8ff" d="M195.25,-594.95C162.25,-576.05 116.2,-549.67 91.13,-535.31"/>
<polygon fill="#63b8ff" stroke="#63b8ff" points="193.3,-597.87 203.72,-599.8 196.78,-591.79 193.3,-597.87"/>
</a>
</g>
</g>
<!-- Node7&#45;&gt;Node11 -->
<g id="edge17_Node000007_Node000011" class="edge">
<title>Node7&#45;&gt;Node11</title>
<g id="a_edge17_Node000007_Node000011"><a xlink:title=" ">
<path fill="none" stroke="#63b8ff" d="M300.82,-634.92C313.25,-637.23 326.12,-639.38 338.15,-641.16"/>
<polygon fill="#63b8ff" stroke="#63b8ff" points="301.55,-631.49 291.06,-633.05 300.23,-638.37 301.55,-631.49"/>
</a>
</g>
</g>
<!-- Node8&#45;&gt;Node3 -->
<g id="edge10_Node000008_Node000003" class="edge">
<title>Node8&#45;&gt;Node3</title>
<g id="a_edge10_Node000008_Node000003"><a xlink:title=" ">
<path fill="none" stroke="#63b8ff" d="M140.92,-728.66C269.22,-731.93 555.34,-730.79 785.75,-669 870.92,-646.16 964.31,-599.25 1010.64,-574.36"/>
<polygon fill="#63b8ff" stroke="#63b8ff" points="141.34,-725.17 131.25,-728.39 141.15,-732.16 141.34,-725.17"/>
</a>
</g>
</g>
<!-- Node9&#45;&gt;Node3 -->
<g id="edge12_Node000009_Node000003" class="edge">
<title>Node9&#45;&gt;Node3</title>
<g id="a_edge12_Node000009_Node000003"><a xlink:title=" ">
<path fill="none" stroke="#63b8ff" d="M147.61,-460C212.21,-460 308.22,-460 391.88,-460 552,-460 552,-460 552,-460 715.79,-460 904.56,-513.7 991.58,-541.6"/>
<polygon fill="#63b8ff" stroke="#63b8ff" points="147.84,-456.5 137.84,-460 147.84,-463.5 147.84,-456.5"/>
</a>
</g>
</g>
<!-- Node10&#45;&gt;Node6 -->
<g id="edge15_Node000010_Node000006" class="edge">
<title>Node10&#45;&gt;Node6</title>
<g id="a_edge15_Node000010_Node000006"><a xlink:title=" ">
<path fill="none" stroke="#63b8ff" d="M155.8,-532.46C253.52,-541.27 413.28,-555.67 496.22,-563.15"/>
<polygon fill="#63b8ff" stroke="#63b8ff" points="156.28,-528.98 146.01,-531.57 155.65,-535.96 156.28,-528.98"/>
</a>
</g>
</g>
<!-- Node11&#45;&gt;Node5 -->
<g id="edge18_Node000011_Node000005" class="edge">
<title>Node11&#45;&gt;Node5</title>
<g id="a_edge18_Node000011_Node000005"><a xlink:title=" ">
<path fill="none" stroke="#63b8ff" d="M459.1,-645.23C512.02,-646.22 586.54,-647.63 641.09,-648.65"/>
<polygon fill="#63b8ff" stroke="#63b8ff" points="459.39,-641.73 449.33,-645.04 459.26,-648.73 459.39,-641.73"/>
</a>
</g>
</g>
<!-- Node11&#45;&gt;Node6 -->
<g id="edge19_Node000011_Node000006" class="edge">
<title>Node11&#45;&gt;Node6</title>
<g id="a_edge19_Node000011_Node000006"><a xlink:title=" ">
<path fill="none" stroke="#63b8ff" d="M458.17,-624.12C458.95,-623.74 459.73,-623.37 460.5,-623 485.53,-610.94 513.99,-596.12 531.97,-584.46"/>
<polygon fill="#63b8ff" stroke="#63b8ff" points="456.74,-620.92 449.17,-628.34 459.71,-627.26 456.74,-620.92"/>
</a>
</g>
</g>
<!-- Node11&#45;&gt;Node7 -->
<g id="edge20_Node000011_Node000007" class="edge">
<title>Node11&#45;&gt;Node7</title>
<g id="a_edge20_Node000011_Node000007"><a xlink:title=" ">
<path fill="none" stroke="#63b8ff" d="M326.9,-626.1C314.48,-623.79 301.6,-621.63 289.58,-619.86"/>
<polygon fill="#63b8ff" stroke="#63b8ff" points="326.18,-629.52 336.66,-627.97 327.5,-622.65 326.18,-629.52"/>
</a>
</g>
</g>
<!-- Node13&#45;&gt;Node13 -->
<g id="edge46_Node000013_Node000013" class="edge">
<title>Node13&#45;&gt;Node13</title>
<g id="a_edge46_Node000013_Node000013"><a xlink:title=" ">
<path fill="none" stroke="#63b8ff" d="M1228.66,-200.71C1224.2,-204.48 1215.27,-207 1201.88,-207 1177.39,-207 1167.82,-198.58 1173.18,-189.44"/>
<polygon fill="#63b8ff" stroke="#63b8ff" points="1232.1,-201.38 1230.32,-190.93 1225.2,-200.21 1232.1,-201.38"/>
</a>
</g>
</g>
<!-- Node14 -->
<g id="Node000014" class="node">
<title>Node14</title>
<g id="a_Node000014"><a xlink:href="structxpath__parser.html#a7738e256011ca842dc2a0beba78562ed" target="_top" xlink:title=" ">
<polygon fill="white" stroke="#666666" points="1092.25,-189 990,-189 990,-157 1092.25,-157 1092.25,-189"/>
<text xml:space="preserve" text-anchor="start" x="998" y="-175.5" font-family="Helvetica,sans-Serif" font-size="10.00">xpath_parser::parse</text>
<text xml:space="preserve" text-anchor="middle" x="1041.12" y="-163.5" font-family="Helvetica,sans-Serif" font-size="10.00">_expression</text>
</a>
</g>
</g>
<!-- Node13&#45;&gt;Node14 -->
<g id="edge31_Node000013_Node000014" class="edge">
<title>Node13&#45;&gt;Node14</title>
<g id="a_edge31_Node000013_Node000014"><a xlink:title=" ">
<path fill="none" stroke="#63b8ff" d="M1139.54,-173C1124.01,-173 1107.5,-173 1092.57,-173"/>
<polygon fill="#63b8ff" stroke="#63b8ff" points="1139.13,-176.5 1149.13,-173 1139.13,-169.5 1139.13,-176.5"/>
</a>
</g>
</g>
<!-- Node15 -->
<g id="Node000015" class="node">
<title>Node15</title>
<g id="a_Node000015"><a xlink:href="structxpath__parser.html#aa3fe0e7d23131b3943d8248646ecd362" target="_top" xlink:title=" ">
<polygon fill="white" stroke="#666666" points="936,-136 833.75,-136 833.75,-116 936,-116 936,-136"/>
<text xml:space="preserve" text-anchor="middle" x="884.88" y="-122.5" font-family="Helvetica,sans-Serif" font-size="10.00">xpath_parser::parse</text>
</a>
</g>
</g>
<!-- Node14&#45;&gt;Node15 -->
<g id="edge32_Node000014_Node000015" class="edge">
<title>Node14&#45;&gt;Node15</title>
<g id="a_edge32_Node000014_Node000015"><a xlink:title=" ">
<path fill="none" stroke="#63b8ff" d="M978.69,-154.28C958.67,-148.18 937.18,-141.63 919.93,-136.38"/>
<polygon fill="#63b8ff" stroke="#63b8ff" points="977.58,-157.6 988.17,-157.17 979.62,-150.91 977.58,-157.6"/>
</a>
</g>
</g>
<!-- Node14&#45;&gt;Node17 -->
<g id="edge34_Node000014_Node000017" class="edge">
<title>Node14&#45;&gt;Node17</title>
<g id="a_edge34_Node000014_Node000017"><a xlink:title=" ">
<path fill="none" stroke="#63b8ff" d="M1019.57,-197.72C1002.55,-216.18 976.59,-240.04 948,-251 888.39,-273.86 813.79,-271.24 765.21,-265.84"/>
<polygon fill="#63b8ff" stroke="#63b8ff" points="1022.14,-200.1 1026.18,-190.3 1016.91,-195.45 1022.14,-200.1"/>
</a>
</g>
</g>
<!-- Node14&#45;&gt;Node18 -->
<g id="edge38_Node000014_Node000018" class="edge">
<title>Node14&#45;&gt;Node18</title>
<g id="a_edge38_Node000014_Node000018"><a xlink:title=" ">
<path fill="none" stroke="#63b8ff" d="M978.68,-162.56C900.38,-154.44 760.86,-144.77 641.5,-136 580.33,-131.51 510.68,-126.14 460.87,-123.8"/>
<polygon fill="#63b8ff" stroke="#63b8ff" points="977.96,-166 988.27,-163.59 978.7,-159.04 977.96,-166"/>
</a>
</g>
</g>
<!-- Node19 -->
<g id="Node000019" class="node">
<title>Node19</title>
<g id="a_Node000019"><a xlink:href="structxpath__parser.html#a49cbc6141508ace22ab4b8bd8ddf965a" target="_top" xlink:title=" ">
<polygon fill="white" stroke="#666666" points="937.88,-242 831.88,-242 831.88,-210 937.88,-210 937.88,-242"/>
<text xml:space="preserve" text-anchor="start" x="839.88" y="-228.5" font-family="Helvetica,sans-Serif" font-size="10.00">xpath_parser::parse</text>
<text xml:space="preserve" text-anchor="middle" x="884.88" y="-216.5" font-family="Helvetica,sans-Serif" font-size="10.00">_primary_expression</text>
</a>
</g>
</g>
<!-- Node14&#45;&gt;Node19 -->
<g id="edge39_Node000014_Node000019" class="edge">
<title>Node14&#45;&gt;Node19</title>
<g id="a_edge39_Node000014_Node000019"><a xlink:title=" ">
<path fill="none" stroke="#63b8ff" d="M981.47,-193.15C965.73,-198.56 948.89,-204.35 933.81,-209.53"/>
<polygon fill="#63b8ff" stroke="#63b8ff" points="982.41,-196.53 990.73,-189.97 980.14,-189.91 982.41,-196.53"/>
</a>
</g>
</g>
<!-- Node14&#45;&gt;Node20 -->
<g id="edge41_Node000014_Node000020" class="edge">
<title>Node14&#45;&gt;Node20</title>
<g id="a_edge41_Node000014_Node000020"><a xlink:title=" ">
<path fill="none" stroke="#63b8ff" d="M1011.55,-149.81C993.93,-136.21 970.47,-119.34 948,-107 937.91,-101.46 926.33,-96.47 915.93,-92.42"/>
<polygon fill="#63b8ff" stroke="#63b8ff" points="1008.98,-152.24 1019.01,-155.65 1013.29,-146.73 1008.98,-152.24"/>
</a>
</g>
</g>
<!-- Node16 -->
<g id="Node000016" class="node">
<title>Node16</title>
<g id="a_Node000016"><a xlink:href="structxpath__parser.html#aad773be8b591966eb535018fcc2b6a66" target="_top" xlink:title=" ">
<polygon fill="white" stroke="#666666" points="764.75,-136 662.5,-136 662.5,-116 764.75,-116 764.75,-136"/>
<text xml:space="preserve" text-anchor="middle" x="713.62" y="-122.5" font-family="Helvetica,sans-Serif" font-size="10.00">xpath_parser::parse</text>
</a>
</g>
</g>
<!-- Node15&#45;&gt;Node16 -->
<g id="edge33_Node000015_Node000016" class="edge">
<title>Node15&#45;&gt;Node16</title>
<g id="a_edge33_Node000015_Node000016"><a xlink:title=" ">
<path fill="none" stroke="#63b8ff" d="M822.12,-126C803.35,-126 782.97,-126 765.05,-126"/>
<polygon fill="#63b8ff" stroke="#63b8ff" points="822.04,-129.5 832.04,-126 822.04,-122.5 822.04,-129.5"/>
</a>
</g>
</g>
<!-- Node17&#45;&gt;Node18 -->
<g id="edge35_Node000017_Node000018" class="edge">
<title>Node17&#45;&gt;Node18</title>
<g id="a_edge35_Node000017_Node000018"><a xlink:title=" ">
<path fill="none" stroke="#63b8ff" d="M650.89,-245.81C606.61,-235.77 546.23,-219.35 496.5,-196 465.46,-181.43 433.39,-157.95 413.54,-142.26"/>
<polygon fill="#63b8ff" stroke="#63b8ff" points="650.07,-249.22 660.6,-247.97 651.59,-242.38 650.07,-249.22"/>
</a>
</g>
</g>
<!-- Node18&#45;&gt;Node13 -->
<g id="edge37_Node000018_Node000013" class="edge">
<title>Node18&#45;&gt;Node13</title>
<g id="a_edge37_Node000018_Node000013"><a xlink:title=" ">
<path fill="none" stroke="#63b8ff" d="M419.63,-102.28C439.12,-86.03 467.43,-65.87 496.5,-57 520.67,-49.63 873.75,-46.11 948,-63 1034.13,-82.59 1127.46,-131.08 1172.87,-156.64"/>
<polygon fill="#63b8ff" stroke="#63b8ff" points="417.51,-99.49 412.21,-108.66 422.07,-104.8 417.51,-99.49"/>
</a>
</g>
</g>
<!-- Node18&#45;&gt;Node14 -->
<g id="edge36_Node000018_Node000014" class="edge">
<title>Node18&#45;&gt;Node14</title>
<g id="a_edge36_Node000018_Node000014"><a xlink:title=" ">
<path fill="none" stroke="#63b8ff" d="M472.27,-139.92C520.98,-144.93 584.87,-149.84 641.5,-154 766.73,-163.2 914.15,-173.39 989.78,-175.39"/>
<polygon fill="#63b8ff" stroke="#63b8ff" points="472.68,-136.44 462.37,-138.87 471.95,-143.41 472.68,-136.44"/>
</a>
</g>
</g>
<!-- Node19&#45;&gt;Node17 -->
<g id="edge40_Node000019_Node000017" class="edge">
<title>Node19&#45;&gt;Node17</title>
<g id="a_edge40_Node000019_Node000017"><a xlink:title=" ">
<path fill="none" stroke="#63b8ff" d="M820.55,-237.97C802.26,-241.43 782.56,-245.16 765.16,-248.44"/>
<polygon fill="#63b8ff" stroke="#63b8ff" points="821.05,-241.44 830.23,-236.14 819.75,-234.56 821.05,-241.44"/>
</a>
</g>
</g>
<!-- Node21 -->
<g id="Node000021" class="node">
<title>Node21</title>
<g id="a_Node000021"><a xlink:href="structxpath__parser.html#aebea559423376001c89b19216dfc3012" target="_top" xlink:title=" ">
<polygon fill="white" stroke="#666666" points="771.5,-98 655.75,-98 655.75,-66 771.5,-66 771.5,-98"/>
<text xml:space="preserve" text-anchor="start" x="663.75" y="-84.5" font-family="Helvetica,sans-Serif" font-size="10.00">xpath_parser::parse</text>
<text xml:space="preserve" text-anchor="middle" x="713.62" y="-72.5" font-family="Helvetica,sans-Serif" font-size="10.00">_relative_location_path</text>
</a>
</g>
</g>
<!-- Node20&#45;&gt;Node21 -->
<g id="edge42_Node000020_Node000021" class="edge">
<title>Node20&#45;&gt;Node21</title>
<g id="a_edge42_Node000020_Node000021"><a xlink:title=" ">
<path fill="none" stroke="#63b8ff" d="M810.18,-82C797.35,-82 784.18,-82 771.87,-82"/>
<polygon fill="#63b8ff" stroke="#63b8ff" points="809.82,-85.5 819.82,-82 809.82,-78.5 809.82,-85.5"/>
</a>
</g>
</g>
<!-- Node21&#45;&gt;Node18 -->
<g id="edge45_Node000021_Node000018" class="edge">
<title>Node21&#45;&gt;Node18</title>
<g id="a_edge45_Node000021_Node000018"><a xlink:title=" ">
<path fill="none" stroke="#63b8ff" d="M644.27,-99.45C631.45,-102.3 618.11,-104.97 605.5,-107 557.42,-114.73 502.66,-119.54 460.89,-122.39"/>
<polygon fill="#63b8ff" stroke="#63b8ff" points="644.93,-102.89 653.9,-97.25 643.37,-96.07 644.93,-102.89"/>
</a>
</g>
</g>
<!-- Node22 -->
<g id="Node000022" class="node">
<title>Node22</title>
<g id="a_Node000022"><a xlink:href="structxpath__parser.html#af14e396ddb7817998ec221eec6b781ab" target="_top" xlink:title=" ">
<polygon fill="white" stroke="#666666" points="602.12,-98 499.88,-98 499.88,-66 602.12,-66 602.12,-98"/>
<text xml:space="preserve" text-anchor="start" x="507.88" y="-84.5" font-family="Helvetica,sans-Serif" font-size="10.00">xpath_parser::parse</text>
<text xml:space="preserve" text-anchor="middle" x="551" y="-72.5" font-family="Helvetica,sans-Serif" font-size="10.00">_location_path</text>
</a>
</g>
</g>
<!-- Node21&#45;&gt;Node22 -->
<g id="edge43_Node000021_Node000022" class="edge">
<title>Node21&#45;&gt;Node22</title>
<g id="a_edge43_Node000021_Node000022"><a xlink:title=" ">
<path fill="none" stroke="#63b8ff" d="M644.41,-82C630.35,-82 615.79,-82 602.49,-82"/>
<polygon fill="#63b8ff" stroke="#63b8ff" points="644.03,-85.5 654.03,-82 644.03,-78.5 644.03,-85.5"/>
</a>
</g>
</g>
<!-- Node22&#45;&gt;Node18 -->
<g id="edge44_Node000022_Node000018" class="edge">
<title>Node22&#45;&gt;Node18</title>
<g id="a_edge44_Node000022_Node000018"><a xlink:title=" ">
<path fill="none" stroke="#63b8ff" d="M488.86,-99.23C476.79,-102.63 464.16,-106.19 452.19,-109.56"/>
<polygon fill="#63b8ff" stroke="#63b8ff" points="489.61,-102.66 498.28,-96.57 487.71,-95.92 489.61,-102.66"/>
</a>
</g>
</g>
</g>
</svg>
