<?xml version="1.0" encoding="UTF-8" standalone="no"?>
<!DOCTYPE svg PUBLIC "-//W3C//DTD SVG 1.1//EN"
 "http://www.w3.org/Graphics/SVG/1.1/DTD/svg11.dtd">
<!-- Generated by graphviz version 14.1.2 (20260124.0452)
 -->
<!-- Title: pugi::xml_attribute::set_name Pages: 1 -->
<svg width="263pt" height="190pt"
 viewBox="0.00 0.00 263.00 190.00" xmlns="http://www.w3.org/2000/svg" xmlns:xlink="http://www.w3.org/1999/xlink">
<g id="graph0" class="graph" transform="scale(1 1) rotate(0) translate(4 186)">
<title>pugi::xml_attribute::set_name</title>
<!-- Node1 -->
<g id="Node000001" class="node">
<title>Node1</title>
<g id="a_Node000001"><a xlink:title=" ">
<polygon fill="#999999" stroke="#666666" points="254.75,-107 158.5,-107 158.5,-75 254.75,-75 254.75,-107"/>
<text xml:space="preserve" text-anchor="start" x="166.5" y="-93.5" font-family="Helvetica,sans-Serif" font-size="10.00">pugi::xml_attribute</text>
<text xml:space="preserve" text-anchor="middle" x="206.62" y="-81.5" font-family="Helvetica,sans-Serif" font-size="10.00">::set_name</text>
</a>
</g>
</g>
<!-- Node2 -->
<g id="Node000002" class="node">
<title>Node2</title>
<g id="a_Node000002"><a xlink:href="classpugi_1_1xml__node.html#ac80fc8de66fcdff37529c1e8e5f239e4" target="_top" xlink:title=" ">
<polygon fill="white" stroke="#666666" points="121,-182 1.5,-182 1.5,-150 121,-150 121,-182"/>
<text xml:space="preserve" text-anchor="start" x="9.5" y="-168.5" font-family="Helvetica,sans-Serif" font-size="10.00">pugi::xml_node::append</text>
<text xml:space="preserve" text-anchor="middle" x="61.25" y="-156.5" font-family="Helvetica,sans-Serif" font-size="10.00">_attribute</text>
</a>
</g>
</g>
<!-- Node1&#45;&gt;Node2 -->
<g id="edge1_Node000001_Node000002" class="edge">
<title>Node1&#45;&gt;Node2</title>
<g id="a_edge1_Node000001_Node000002"><a xlink:title=" ">
<path fill="none" stroke="#63b8ff" d="M171.04,-113.38C156.35,-122.46 138.87,-132.74 122.5,-141 116.64,-143.96 110.34,-146.86 104.1,-149.58"/>
<polygon fill="#63b8ff" stroke="#63b8ff" points="172.81,-116.39 179.43,-108.12 169.09,-110.46 172.81,-116.39"/>
</a>
</g>
</g>
<!-- Node3 -->
<g id="Node000003" class="node">
<title>Node3</title>
<g id="a_Node000003"><a xlink:href="classpugi_1_1xml__node.html#a873edeb1bec559ce5a5ded06bb3fb16a" target="_top" xlink:title=" ">
<polygon fill="white" stroke="#666666" points="117.25,-132 5.25,-132 5.25,-100 117.25,-100 117.25,-132"/>
<text xml:space="preserve" text-anchor="start" x="13.25" y="-118.5" font-family="Helvetica,sans-Serif" font-size="10.00">pugi::xml_node::insert</text>
<text xml:space="preserve" text-anchor="middle" x="61.25" y="-106.5" font-family="Helvetica,sans-Serif" font-size="10.00">_attribute_after</text>
</a>
</g>
</g>
<!-- Node1&#45;&gt;Node3 -->
<g id="edge2_Node000001_Node000003" class="edge">
<title>Node1&#45;&gt;Node3</title>
<g id="a_edge2_Node000001_Node000003"><a xlink:title=" ">
<path fill="none" stroke="#63b8ff" d="M147.03,-101.22C137.27,-102.92 127.17,-104.68 117.5,-106.37"/>
<polygon fill="#63b8ff" stroke="#63b8ff" points="147.54,-104.68 156.79,-99.52 146.34,-97.79 147.54,-104.68"/>
</a>
</g>
</g>
<!-- Node4 -->
<g id="Node000004" class="node">
<title>Node4</title>
<g id="a_Node000004"><a xlink:href="classpugi_1_1xml__node.html#a3a14ac695d1e5350c8095b9a83548ee0" target="_top" xlink:title=" ">
<polygon fill="white" stroke="#666666" points="117.25,-82 5.25,-82 5.25,-50 117.25,-50 117.25,-82"/>
<text xml:space="preserve" text-anchor="start" x="13.25" y="-68.5" font-family="Helvetica,sans-Serif" font-size="10.00">pugi::xml_node::insert</text>
<text xml:space="preserve" text-anchor="middle" x="61.25" y="-56.5" font-family="Helvetica,sans-Serif" font-size="10.00">_attribute_before</text>
</a>
</g>
</g>
<!-- Node1&#45;&gt;Node4 -->
<g id="edge3_Node000001_Node000004" class="edge">
<title>Node1&#45;&gt;Node4</title>
<g id="a_edge3_Node000001_Node000004"><a xlink:title=" ">
<path fill="none" stroke="#63b8ff" d="M147.03,-80.78C137.27,-79.08 127.17,-77.32 117.5,-75.63"/>
<polygon fill="#63b8ff" stroke="#63b8ff" points="146.34,-84.21 156.79,-82.48 147.54,-77.32 146.34,-84.21"/>
</a>
</g>
</g>
<!-- Node5 -->
<g id="Node000005" class="node">
<title>Node5</title>
<g id="a_Node000005"><a xlink:href="classpugi_1_1xml__node.html#a6750b5da07e4b4e828af807b7d751099" target="_top" xlink:title=" ">
<polygon fill="white" stroke="#666666" points="122.5,-32 0,-32 0,0 122.5,0 122.5,-32"/>
<text xml:space="preserve" text-anchor="start" x="8" y="-18.5" font-family="Helvetica,sans-Serif" font-size="10.00">pugi::xml_node::prepend</text>
<text xml:space="preserve" text-anchor="middle" x="61.25" y="-6.5" font-family="Helvetica,sans-Serif" font-size="10.00">_attribute</text>
</a>
</g>
</g>
<!-- Node1&#45;&gt;Node5 -->
<g id="edge4_Node000001_Node000005" class="edge">
<title>Node1&#45;&gt;Node5</title>
<g id="a_edge4_Node000001_Node000005"><a xlink:title=" ">
<path fill="none" stroke="#63b8ff" d="M171.04,-68.62C156.35,-59.54 138.87,-49.26 122.5,-41 116.64,-38.04 110.34,-35.14 104.1,-32.42"/>
<polygon fill="#63b8ff" stroke="#63b8ff" points="169.09,-71.54 179.43,-73.88 172.81,-65.61 169.09,-71.54"/>
</a>
</g>
</g>
</g>
</svg>
