<?xml version="1.0" encoding="UTF-8" standalone="no"?>
<!DOCTYPE svg PUBLIC "-//W3C//DTD SVG 1.1//EN"
 "http://www.w3.org/Graphics/SVG/1.1/DTD/svg11.dtd">
<!-- Generated by graphviz version 14.1.2 (20260124.0452)
 -->
<!-- Title: xpath_node_set_raw::sort_do Pages: 1 -->
<svg width="519pt" height="137pt"
 viewBox="0.00 0.00 519.00 137.00" xmlns="http://www.w3.org/2000/svg" xmlns:xlink="http://www.w3.org/1999/xlink">
<g id="graph0" class="graph" transform="scale(1 1) rotate(0) translate(4 133)">
<title>xpath_node_set_raw::sort_do</title>
<!-- Node1 -->
<g id="Node000001" class="node">
<title>Node1</title>
<g id="a_Node000001"><a xlink:title=" ">
<polygon fill="#999999" stroke="#666666" points="106,-74 0,-74 0,-42 106,-42 106,-74"/>
<text xml:space="preserve" text-anchor="start" x="8" y="-60.5" font-family="Helvetica,sans-Serif" font-size="10.00">xpath_node_set_raw</text>
<text xml:space="preserve" text-anchor="middle" x="53" y="-48.5" font-family="Helvetica,sans-Serif" font-size="10.00">::sort_do</text>
</a>
</g>
</g>
<!-- Node2 -->
<g id="Node000002" class="node">
<title>Node2</title>
<g id="a_Node000002"><a xlink:href="pugixml_8cpp.html#ad84a1c6cc9aedeb003069d58199ca5f5" target="_top" xlink:title=" ">
<polygon fill="white" stroke="#666666" points="203.75,-68 142,-68 142,-48 203.75,-48 203.75,-68"/>
<text xml:space="preserve" text-anchor="middle" x="172.88" y="-54.5" font-family="Helvetica,sans-Serif" font-size="10.00">xpath_sort</text>
</a>
</g>
</g>
<!-- Node1&#45;&gt;Node2 -->
<g id="edge1_Node000001_Node000002" class="edge">
<title>Node1&#45;&gt;Node2</title>
<g id="a_edge1_Node000001_Node000002"><a xlink:title=" ">
<path fill="none" stroke="#63b8ff" d="M106.39,-58C114.39,-58 122.56,-58 130.29,-58"/>
<polygon fill="#63b8ff" stroke="#63b8ff" points="130.09,-61.5 140.09,-58 130.09,-54.5 130.09,-61.5"/>
</a>
</g>
</g>
<!-- Node3 -->
<g id="Node000003" class="node">
<title>Node3</title>
<g id="a_Node000003"><a xlink:href="pugixml_8cpp.html#a181d689d647721b02f6db6c996550a3d" target="_top" xlink:title=" ">
<polygon fill="white" stroke="#666666" points="306.75,-129 258.5,-129 258.5,-109 306.75,-109 306.75,-129"/>
<text xml:space="preserve" text-anchor="middle" x="282.62" y="-115.5" font-family="Helvetica,sans-Serif" font-size="10.00">reverse</text>
</a>
</g>
</g>
<!-- Node2&#45;&gt;Node3 -->
<g id="edge2_Node000002_Node000003" class="edge">
<title>Node2&#45;&gt;Node3</title>
<g id="a_edge2_Node000002_Node000003"><a xlink:title=" ">
<path fill="none" stroke="#63b8ff" d="M192.15,-68.35C208.95,-77.86 234.1,-92.09 253.46,-103.06"/>
<polygon fill="#63b8ff" stroke="#63b8ff" points="251.51,-105.97 261.94,-107.86 254.96,-99.88 251.51,-105.97"/>
</a>
</g>
</g>
<!-- Node5 -->
<g id="Node000005" class="node">
<title>Node5</title>
<g id="a_Node000005"><a xlink:href="pugixml_8cpp.html#a09a6af504e5bf26365ccb2d1c707ca48" target="_top" xlink:title=" ">
<polygon fill="white" stroke="#666666" points="298.88,-68 266.38,-68 266.38,-48 298.88,-48 298.88,-68"/>
<text xml:space="preserve" text-anchor="middle" x="282.62" y="-54.5" font-family="Helvetica,sans-Serif" font-size="10.00">sort</text>
</a>
</g>
</g>
<!-- Node2&#45;&gt;Node5 -->
<g id="edge4_Node000002_Node000005" class="edge">
<title>Node2&#45;&gt;Node5</title>
<g id="a_edge4_Node000002_Node000005"><a xlink:title=" ">
<path fill="none" stroke="#63b8ff" d="M204.18,-58C220.09,-58 239.42,-58 254.79,-58"/>
<polygon fill="#63b8ff" stroke="#63b8ff" points="254.61,-61.5 264.61,-58 254.61,-54.5 254.61,-61.5"/>
</a>
</g>
</g>
<!-- Node9 -->
<g id="Node000009" class="node">
<title>Node9</title>
<g id="a_Node000009"><a xlink:href="pugixml_8cpp.html#aa445b0555e1eabcce1cf5a12808f70a8" target="_top" xlink:title=" ">
<polygon fill="white" stroke="#666666" points="325.5,-30 239.75,-30 239.75,-10 325.5,-10 325.5,-30"/>
<text xml:space="preserve" text-anchor="middle" x="282.62" y="-16.5" font-family="Helvetica,sans-Serif" font-size="10.00">xpath_get_order</text>
</a>
</g>
</g>
<!-- Node2&#45;&gt;Node9 -->
<g id="edge11_Node000002_Node000009" class="edge">
<title>Node2&#45;&gt;Node9</title>
<g id="a_edge11_Node000002_Node000009"><a xlink:title=" ">
<path fill="none" stroke="#63b8ff" d="M203.6,-47.52C215.26,-43.4 228.82,-38.62 241.34,-34.21"/>
<polygon fill="#63b8ff" stroke="#63b8ff" points="242.3,-37.58 250.57,-30.95 239.97,-30.98 242.3,-37.58"/>
</a>
</g>
</g>
<!-- Node4 -->
<g id="Node000004" class="node">
<title>Node4</title>
<g id="a_Node000004"><a xlink:href="pugixml_8cpp.html#aab8f818e90a34b18c1da140588eca88d" target="_top" xlink:title=" ">
<polygon fill="white" stroke="#666666" points="511.25,-58 472,-58 472,-38 511.25,-38 511.25,-58"/>
<text xml:space="preserve" text-anchor="middle" x="491.62" y="-44.5" font-family="Helvetica,sans-Serif" font-size="10.00">swap</text>
</a>
</g>
</g>
<!-- Node3&#45;&gt;Node4 -->
<g id="edge3_Node000003_Node000004" class="edge">
<title>Node3&#45;&gt;Node4</title>
<g id="a_edge3_Node000003_Node000004"><a xlink:title=" ">
<path fill="none" stroke="#63b8ff" d="M307.16,-121.74C338.29,-124.32 394.12,-125.19 436,-105 453.32,-96.65 468.05,-80.34 477.84,-67.3"/>
<polygon fill="#63b8ff" stroke="#63b8ff" points="480.52,-69.57 483.45,-59.39 474.81,-65.52 480.52,-69.57"/>
</a>
</g>
</g>
<!-- Node5&#45;&gt;Node5 -->
<g id="edge10_Node000005_Node000005" class="edge">
<title>Node5&#45;&gt;Node5</title>
<g id="a_edge10_Node000005_Node000005"><a xlink:title=" ">
<path fill="none" stroke="#63b8ff" d="M265.99,-67.47C257.36,-76.36 262.9,-86 282.62,-86 294.03,-86 300.69,-82.78 302.62,-78.34"/>
<polygon fill="#63b8ff" stroke="#63b8ff" points="306,-77.44 299.71,-68.91 299.31,-79.5 306,-77.44"/>
</a>
</g>
</g>
<!-- Node6 -->
<g id="Node000006" class="node">
<title>Node6</title>
<g id="a_Node000006"><a xlink:href="pugixml_8cpp.html#ae32103b72e8928c87dfa9bce03565bb0" target="_top" xlink:title=" ">
<polygon fill="white" stroke="#666666" points="436,-96 361.5,-96 361.5,-76 436,-76 436,-96"/>
<text xml:space="preserve" text-anchor="middle" x="398.75" y="-82.5" font-family="Helvetica,sans-Serif" font-size="10.00">insertion_sort</text>
</a>
</g>
</g>
<!-- Node5&#45;&gt;Node6 -->
<g id="edge5_Node000005_Node000006" class="edge">
<title>Node5&#45;&gt;Node6</title>
<g id="a_edge5_Node000005_Node000006"><a xlink:title=" ">
<path fill="none" stroke="#63b8ff" d="M299.02,-61.78C312.12,-64.99 331.66,-69.78 349.91,-74.26"/>
<polygon fill="#63b8ff" stroke="#63b8ff" points="349.02,-77.65 359.57,-76.63 350.69,-70.85 349.02,-77.65"/>
</a>
</g>
</g>
<!-- Node7 -->
<g id="Node000007" class="node">
<title>Node7</title>
<g id="a_Node000007"><a xlink:href="pugixml_8cpp.html#a1212d7df5db87e06b12d2a2705e4b73d" target="_top" xlink:title=" ">
<polygon fill="white" stroke="#666666" points="425.12,-58 372.38,-58 372.38,-38 425.12,-38 425.12,-58"/>
<text xml:space="preserve" text-anchor="middle" x="398.75" y="-44.5" font-family="Helvetica,sans-Serif" font-size="10.00">median3</text>
</a>
</g>
</g>
<!-- Node5&#45;&gt;Node7 -->
<g id="edge6_Node000005_Node000007" class="edge">
<title>Node5&#45;&gt;Node7</title>
<g id="a_edge6_Node000005_Node000007"><a xlink:title=" ">
<path fill="none" stroke="#63b8ff" d="M299.02,-56.65C314.75,-55.27 339.79,-53.08 360.71,-51.25"/>
<polygon fill="#63b8ff" stroke="#63b8ff" points="360.98,-54.74 370.63,-50.38 360.37,-47.76 360.98,-54.74"/>
</a>
</g>
</g>
<!-- Node8 -->
<g id="Node000008" class="node">
<title>Node8</title>
<g id="a_Node000008"><a xlink:href="pugixml_8cpp.html#a9c094b50369e7c77c5b9ec157b2350b1" target="_top" xlink:title=" ">
<polygon fill="white" stroke="#666666" points="426.62,-20 370.88,-20 370.88,0 426.62,0 426.62,-20"/>
<text xml:space="preserve" text-anchor="middle" x="398.75" y="-6.5" font-family="Helvetica,sans-Serif" font-size="10.00">partition3</text>
</a>
</g>
</g>
<!-- Node5&#45;&gt;Node8 -->
<g id="edge8_Node000005_Node000008" class="edge">
<title>Node5&#45;&gt;Node8</title>
<g id="a_edge8_Node000005_Node000008"><a xlink:title=" ">
<path fill="none" stroke="#63b8ff" d="M299.02,-51.53C315.18,-44.73 341.16,-33.8 362.41,-24.86"/>
<polygon fill="#63b8ff" stroke="#63b8ff" points="363.76,-28.09 371.62,-20.99 361.04,-21.64 363.76,-28.09"/>
</a>
</g>
</g>
<!-- Node7&#45;&gt;Node4 -->
<g id="edge7_Node000007_Node000004" class="edge">
<title>Node7&#45;&gt;Node4</title>
<g id="a_edge7_Node000007_Node000004"><a xlink:title=" ">
<path fill="none" stroke="#63b8ff" d="M425.55,-48C436.34,-48 448.96,-48 460.2,-48"/>
<polygon fill="#63b8ff" stroke="#63b8ff" points="460.19,-51.5 470.19,-48 460.19,-44.5 460.19,-51.5"/>
</a>
</g>
</g>
<!-- Node8&#45;&gt;Node4 -->
<g id="edge9_Node000008_Node000004" class="edge">
<title>Node8&#45;&gt;Node4</title>
<g id="a_edge9_Node000008_Node000004"><a xlink:title=" ">
<path fill="none" stroke="#63b8ff" d="M424.58,-20.38C435.93,-25.13 449.45,-30.78 461.29,-35.73"/>
<polygon fill="#63b8ff" stroke="#63b8ff" points="459.62,-38.83 470.19,-39.46 462.32,-32.37 459.62,-38.83"/>
</a>
</g>
</g>
</g>
</svg>
