<?xml version="1.0" encoding="UTF-8" standalone="no"?>
<!DOCTYPE svg PUBLIC "-//W3C//DTD SVG 1.1//EN"
 "http://www.w3.org/Graphics/SVG/1.1/DTD/svg11.dtd">
<!-- Generated by graphviz version 14.1.2 (20260124.0452)
 -->
<!-- Title: GERenderingContext::GERenderingContext Pages: 1 -->
<svg width="677pt" height="636pt"
 viewBox="0.00 0.00 677.00 636.00" xmlns="http://www.w3.org/2000/svg" xmlns:xlink="http://www.w3.org/1999/xlink">
<g id="graph0" class="graph" transform="scale(1 1) rotate(0) translate(4 632)">
<title>GERenderingContext::GERenderingContext</title>
<!-- Node1 -->
<g id="Node000001" class="node">
<title>Node1</title>
<g id="a_Node000001"><a xlink:title="Construye el contexto de renderizado (render pass, pipeline y framebuffers).">
<polygon fill="#999999" stroke="#666666" points="115,-274 0,-274 0,-242 115,-242 115,-274"/>
<text xml:space="preserve" text-anchor="start" x="8" y="-260.5" font-family="Helvetica,sans-Serif" font-size="10.00">GERenderingContext</text>
<text xml:space="preserve" text-anchor="middle" x="57.5" y="-248.5" font-family="Helvetica,sans-Serif" font-size="10.00">::GERenderingContext</text>
</a>
</g>
</g>
<!-- Node2 -->
<g id="Node000002" class="node">
<title>Node2</title>
<g id="a_Node000002"><a xlink:href="class_g_e_rendering_context.html#a90496b6951e2b3830086cb2e2d038863" target="_top" xlink:title="Crea los buffers de profundidad.">
<polygon fill="white" stroke="#666666" points="281,-424 172,-424 172,-392 281,-392 281,-424"/>
<text xml:space="preserve" text-anchor="start" x="180" y="-410.5" font-family="Helvetica,sans-Serif" font-size="10.00">GERenderingContext</text>
<text xml:space="preserve" text-anchor="middle" x="226.5" y="-398.5" font-family="Helvetica,sans-Serif" font-size="10.00">::createDepthBuffers</text>
</a>
</g>
</g>
<!-- Node1&#45;&gt;Node2 -->
<g id="edge1_Node000001_Node000002" class="edge">
<title>Node1&#45;&gt;Node2</title>
<g id="a_edge1_Node000001_Node000002"><a xlink:title=" ">
<path fill="none" stroke="#63b8ff" d="M66.36,-274.3C79.96,-300.86 110.39,-353.47 151,-383 154.34,-385.43 157.93,-387.63 161.67,-389.63"/>
<polygon fill="#63b8ff" stroke="#63b8ff" points="159.93,-392.68 170.47,-393.81 162.94,-386.36 159.93,-392.68"/>
</a>
</g>
</g>
<!-- Node3 -->
<g id="Node000003" class="node">
<title>Node3</title>
<g id="a_Node000003"><a xlink:href="class_g_e_rendering_context.html#a306a0d9b0571d41b8a86da3f1a71b366" target="_top" xlink:title="Crea un Framebuffer para cada imagen del swapchain.">
<polygon fill="white" stroke="#666666" points="281,-374 172,-374 172,-342 281,-342 281,-374"/>
<text xml:space="preserve" text-anchor="start" x="180" y="-360.5" font-family="Helvetica,sans-Serif" font-size="10.00">GERenderingContext</text>
<text xml:space="preserve" text-anchor="middle" x="226.5" y="-348.5" font-family="Helvetica,sans-Serif" font-size="10.00">::createFramebuffers</text>
</a>
</g>
</g>
<!-- Node1&#45;&gt;Node3 -->
<g id="edge2_Node000001_Node000003" class="edge">
<title>Node1&#45;&gt;Node3</title>
<g id="a_edge2_Node000001_Node000003"><a xlink:title=" ">
<path fill="none" stroke="#63b8ff" d="M74.88,-274.39C92.4,-291.12 121.65,-316.87 151,-333 154.23,-334.77 157.6,-336.45 161.06,-338.03"/>
<polygon fill="#63b8ff" stroke="#63b8ff" points="159.64,-341.23 170.21,-341.91 162.37,-334.79 159.64,-341.23"/>
</a>
</g>
</g>
<!-- Node4 -->
<g id="Node000004" class="node">
<title>Node4</title>
<g id="a_Node000004"><a xlink:href="class_g_e_rendering_context.html#aba96e7a9f6699afaa6b695cb3e7373e2" target="_top" xlink:title="Crea el Pipeline de renderizado.">
<polygon fill="white" stroke="#666666" points="287.75,-324 165.25,-324 165.25,-292 287.75,-292 287.75,-324"/>
<text xml:space="preserve" text-anchor="start" x="173.25" y="-310.5" font-family="Helvetica,sans-Serif" font-size="10.00">GERenderingContext</text>
<text xml:space="preserve" text-anchor="middle" x="226.5" y="-298.5" font-family="Helvetica,sans-Serif" font-size="10.00">::createGraphicsPipeline</text>
</a>
</g>
</g>
<!-- Node1&#45;&gt;Node4 -->
<g id="edge3_Node000001_Node000004" class="edge">
<title>Node1&#45;&gt;Node4</title>
<g id="a_edge3_Node000001_Node000004"><a xlink:title=" ">
<path fill="none" stroke="#63b8ff" d="M113.18,-274.37C127.96,-278.8 144.1,-283.63 159.43,-288.22"/>
<polygon fill="#63b8ff" stroke="#63b8ff" points="158.38,-291.56 168.96,-291.07 160.38,-284.85 158.38,-291.56"/>
</a>
</g>
</g>
<!-- Node17 -->
<g id="Node000017" class="node">
<title>Node17</title>
<g id="a_Node000017"><a xlink:href="class_g_e_rendering_context.html#ab52c54295c5991f41c1202bd7d9df7bf" target="_top" xlink:title="Crea los pasos de renderizado.">
<polygon fill="white" stroke="#666666" points="281,-274 172,-274 172,-242 281,-242 281,-274"/>
<text xml:space="preserve" text-anchor="start" x="180" y="-260.5" font-family="Helvetica,sans-Serif" font-size="10.00">GERenderingContext</text>
<text xml:space="preserve" text-anchor="middle" x="226.5" y="-248.5" font-family="Helvetica,sans-Serif" font-size="10.00">::createRenderPass</text>
</a>
</g>
</g>
<!-- Node1&#45;&gt;Node17 -->
<g id="edge18_Node000001_Node000017" class="edge">
<title>Node1&#45;&gt;Node17</title>
<g id="a_edge18_Node000001_Node000017"><a xlink:title=" ">
<path fill="none" stroke="#63b8ff" d="M115.04,-258C129.59,-258 145.37,-258 160.32,-258"/>
<polygon fill="#63b8ff" stroke="#63b8ff" points="160.05,-261.5 170.05,-258 160.05,-254.5 160.05,-261.5"/>
</a>
</g>
</g>
<!-- Node19 -->
<g id="Node000019" class="node">
<title>Node19</title>
<g id="a_Node000019"><a xlink:href="class_g_e_drawing_context.html#aadd6a6e9fe0b128b7559c1066a94f153" target="_top" xlink:title="Obtiene la extensión de la imagen.">
<polygon fill="white" stroke="#666666" points="300.88,-224 152.12,-224 152.12,-204 300.88,-204 300.88,-224"/>
<text xml:space="preserve" text-anchor="middle" x="226.5" y="-210.5" font-family="Helvetica,sans-Serif" font-size="10.00">GEDrawingContext::getExtent</text>
</a>
</g>
</g>
<!-- Node1&#45;&gt;Node19 -->
<g id="edge20_Node000001_Node000019" class="edge">
<title>Node1&#45;&gt;Node19</title>
<g id="a_edge20_Node000001_Node000019"><a xlink:title=" ">
<path fill="none" stroke="#63b8ff" d="M115.21,-242.54C127.03,-239.35 139.42,-236.04 151,-233 158.12,-231.13 165.62,-229.19 173.02,-227.28"/>
<polygon fill="#63b8ff" stroke="#63b8ff" points="173.81,-230.69 182.63,-224.82 172.07,-223.91 173.81,-230.69"/>
</a>
</g>
</g>
<!-- Node20 -->
<g id="Node000020" class="node">
<title>Node20</title>
<g id="a_Node000020"><a xlink:href="class_g_e_drawing_context.html#aaee25336f1556a0ea07e3bcabc38a352" target="_top" xlink:title="Obtiene el formato de la imagen.">
<polygon fill="white" stroke="#666666" points="302,-186 151,-186 151,-166 302,-166 302,-186"/>
<text xml:space="preserve" text-anchor="middle" x="226.5" y="-172.5" font-family="Helvetica,sans-Serif" font-size="10.00">GEDrawingContext::getFormat</text>
</a>
</g>
</g>
<!-- Node1&#45;&gt;Node20 -->
<g id="edge21_Node000001_Node000020" class="edge">
<title>Node1&#45;&gt;Node20</title>
<g id="a_edge21_Node000001_Node000020"><a xlink:title=" ">
<path fill="none" stroke="#63b8ff" d="M78.21,-241.55C96.15,-227.34 123.9,-207.23 151,-195 155.06,-193.17 159.32,-191.49 163.68,-189.96"/>
<polygon fill="#63b8ff" stroke="#63b8ff" points="164.7,-193.31 173.15,-186.91 162.56,-186.64 164.7,-193.31"/>
</a>
</g>
</g>
<!-- Node21 -->
<g id="Node000021" class="node">
<title>Node21</title>
<g id="a_Node000021"><a xlink:href="class_g_e_drawing_context.html#a7b8a62f39a8390f5b08dd40e6d94da9e" target="_top" xlink:title="Obtiene el número de imágenes de la swapchain.">
<polygon fill="white" stroke="#666666" points="300.12,-148 152.88,-148 152.88,-116 300.12,-116 300.12,-148"/>
<text xml:space="preserve" text-anchor="start" x="160.88" y="-134.5" font-family="Helvetica,sans-Serif" font-size="10.00">GEDrawingContext::getImage</text>
<text xml:space="preserve" text-anchor="middle" x="226.5" y="-122.5" font-family="Helvetica,sans-Serif" font-size="10.00">Count</text>
</a>
</g>
</g>
<!-- Node1&#45;&gt;Node21 -->
<g id="edge22_Node000001_Node000021" class="edge">
<title>Node1&#45;&gt;Node21</title>
<g id="a_edge22_Node000001_Node000021"><a xlink:title=" ">
<path fill="none" stroke="#63b8ff" d="M69.41,-241.64C85,-219.44 115.72,-179.94 151,-157 152.84,-155.8 154.75,-154.65 156.71,-153.56"/>
<polygon fill="#63b8ff" stroke="#63b8ff" points="158.1,-156.78 165.46,-149.16 154.95,-150.52 158.1,-156.78"/>
</a>
</g>
</g>
<!-- Node5 -->
<g id="Node000005" class="node">
<title>Node5</title>
<g id="a_Node000005"><a xlink:href="class_g_e_rendering_context.html#a30b91a68b3ab264ec7943ba1ffa14f96" target="_top" xlink:title="Crea la información sobre el Fragment Shader.">
<polygon fill="white" stroke="#666666" points="500.62,-392 354.12,-392 354.12,-348 500.62,-348 500.62,-392"/>
<text xml:space="preserve" text-anchor="start" x="362.12" y="-378.5" font-family="Helvetica,sans-Serif" font-size="10.00">GERenderingContext</text>
<text xml:space="preserve" text-anchor="start" x="362.12" y="-366.5" font-family="Helvetica,sans-Serif" font-size="10.00">::createFragmentShaderStage</text>
<text xml:space="preserve" text-anchor="middle" x="427.38" y="-354.5" font-family="Helvetica,sans-Serif" font-size="10.00">CreateInfo</text>
</a>
</g>
</g>
<!-- Node4&#45;&gt;Node5 -->
<g id="edge4_Node000004_Node000005" class="edge">
<title>Node4&#45;&gt;Node5</title>
<g id="a_edge4_Node000004_Node000005"><a xlink:title=" ">
<path fill="none" stroke="#63b8ff" d="M280.27,-324.45C299.67,-330.5 322.12,-337.5 343.52,-344.17"/>
<polygon fill="#63b8ff" stroke="#63b8ff" points="342.23,-347.43 352.81,-347.07 344.31,-340.75 342.23,-347.43"/>
</a>
</g>
</g>
<!-- Node8 -->
<g id="Node000008" class="node">
<title>Node8</title>
<g id="a_Node000008"><a xlink:href="class_g_e_rendering_context.html#af69fff24d2239c503976bfd98496eb54" target="_top" xlink:title="Crea la información sobre la etapa de mezcla de colores.">
<polygon fill="white" stroke="#666666" points="493.12,-330 361.62,-330 361.62,-286 493.12,-286 493.12,-330"/>
<text xml:space="preserve" text-anchor="start" x="369.62" y="-316.5" font-family="Helvetica,sans-Serif" font-size="10.00">GERenderingContext</text>
<text xml:space="preserve" text-anchor="start" x="369.62" y="-304.5" font-family="Helvetica,sans-Serif" font-size="10.00">::createPipelineColorBlend</text>
<text xml:space="preserve" text-anchor="middle" x="427.38" y="-292.5" font-family="Helvetica,sans-Serif" font-size="10.00">StateCreateInfo</text>
</a>
</g>
</g>
<!-- Node4&#45;&gt;Node8 -->
<g id="edge7_Node000004_Node000008" class="edge">
<title>Node4&#45;&gt;Node8</title>
<g id="a_edge7_Node000004_Node000008"><a xlink:title=" ">
<path fill="none" stroke="#63b8ff" d="M288.25,-308C307.63,-308 329.33,-308 349.69,-308"/>
<polygon fill="#63b8ff" stroke="#63b8ff" points="349.65,-311.5 359.65,-308 349.65,-304.5 349.65,-311.5"/>
</a>
</g>
</g>
<!-- Node9 -->
<g id="Node000009" class="node">
<title>Node9</title>
<g id="a_Node000009"><a xlink:href="class_g_e_rendering_context.html#a1ed7be455efa66dc53a325d0ef41cd31" target="_top" xlink:title="Crea la información sobre los tests de profundidad y de plantilla.">
<polygon fill="white" stroke="#666666" points="497.25,-268 357.5,-268 357.5,-224 497.25,-224 497.25,-268"/>
<text xml:space="preserve" text-anchor="start" x="365.5" y="-254.5" font-family="Helvetica,sans-Serif" font-size="10.00">GERenderingContext</text>
<text xml:space="preserve" text-anchor="start" x="365.5" y="-242.5" font-family="Helvetica,sans-Serif" font-size="10.00">::createPipelineDepthStencil</text>
<text xml:space="preserve" text-anchor="middle" x="427.38" y="-230.5" font-family="Helvetica,sans-Serif" font-size="10.00">StateCreateInfo</text>
</a>
</g>
</g>
<!-- Node4&#45;&gt;Node9 -->
<g id="edge8_Node000004_Node000009" class="edge">
<title>Node4&#45;&gt;Node9</title>
<g id="a_edge8_Node000004_Node000009"><a xlink:title=" ">
<path fill="none" stroke="#63b8ff" d="M280.27,-291.55C300.55,-285.23 324.16,-277.86 346.43,-270.92"/>
<polygon fill="#63b8ff" stroke="#63b8ff" points="347.28,-274.33 355.78,-268.01 345.19,-267.64 347.28,-274.33"/>
</a>
</g>
</g>
<!-- Node10 -->
<g id="Node000010" class="node">
<title>Node10</title>
<g id="a_Node000010"><a xlink:href="class_g_e_rendering_context.html#a60ecf0b35e0a983cf9deb3c3d10cb2cc" target="_top" xlink:title="Crea la información para el ensamblado de primitivas.">
<polygon fill="white" stroke="#666666" points="501.75,-206 353,-206 353,-162 501.75,-162 501.75,-206"/>
<text xml:space="preserve" text-anchor="start" x="361" y="-192.5" font-family="Helvetica,sans-Serif" font-size="10.00">GERenderingContext</text>
<text xml:space="preserve" text-anchor="start" x="361" y="-180.5" font-family="Helvetica,sans-Serif" font-size="10.00">::createPipelineInputAssembly</text>
<text xml:space="preserve" text-anchor="middle" x="427.38" y="-168.5" font-family="Helvetica,sans-Serif" font-size="10.00">StateCreateInfo</text>
</a>
</g>
</g>
<!-- Node4&#45;&gt;Node10 -->
<g id="edge9_Node000004_Node000010" class="edge">
<title>Node4&#45;&gt;Node10</title>
<g id="a_edge9_Node000004_Node000010"><a xlink:title=" ">
<path fill="none" stroke="#63b8ff" d="M288.23,-292.18C293.16,-289.57 297.84,-286.53 302,-283 328.07,-260.87 312.08,-237.31 338,-215 339.66,-213.57 341.4,-212.2 343.19,-210.9"/>
<polygon fill="#63b8ff" stroke="#63b8ff" points="344.78,-214.04 351.31,-205.69 341,-208.14 344.78,-214.04"/>
</a>
</g>
</g>
<!-- Node11 -->
<g id="Node000011" class="node">
<title>Node11</title>
<g id="a_Node000011"><a xlink:href="class_g_e_rendering_context.html#afbcc3fb57b630a02a26505ebaab9613b" target="_top" xlink:title="Crea el esquema de los conjuntos de descriptores.">
<polygon fill="white" stroke="#666666" points="483.75,-144 371,-144 371,-112 483.75,-112 483.75,-144"/>
<text xml:space="preserve" text-anchor="start" x="379" y="-130.5" font-family="Helvetica,sans-Serif" font-size="10.00">GERenderingContext</text>
<text xml:space="preserve" text-anchor="middle" x="427.38" y="-118.5" font-family="Helvetica,sans-Serif" font-size="10.00">::createPipelineLayout</text>
</a>
</g>
</g>
<!-- Node4&#45;&gt;Node11 -->
<g id="edge10_Node000004_Node000011" class="edge">
<title>Node4&#45;&gt;Node11</title>
<g id="a_edge10_Node000004_Node000011"><a xlink:title=" ">
<path fill="none" stroke="#63b8ff" d="M288.02,-293.72C293.18,-290.79 297.96,-287.26 302,-283 343.24,-239.49 295.72,-195.51 338,-153 344.25,-146.72 351.94,-141.99 360.16,-138.43"/>
<polygon fill="#63b8ff" stroke="#63b8ff" points="361.2,-141.78 369.37,-135.04 358.78,-135.21 361.2,-141.78"/>
</a>
</g>
</g>
<!-- Node12 -->
<g id="Node000012" class="node">
<title>Node12</title>
<g id="a_Node000012"><a xlink:href="class_g_e_rendering_context.html#a49a8f3e1323aa8bca61eff8d9a563956" target="_top" xlink:title="Crea la información de la etapa de muestreo.">
<polygon fill="white" stroke="#666666" points="495.38,-94 359.38,-94 359.38,-50 495.38,-50 495.38,-94"/>
<text xml:space="preserve" text-anchor="start" x="367.38" y="-80.5" font-family="Helvetica,sans-Serif" font-size="10.00">GERenderingContext</text>
<text xml:space="preserve" text-anchor="start" x="367.38" y="-68.5" font-family="Helvetica,sans-Serif" font-size="10.00">::createPipelineMultisample</text>
<text xml:space="preserve" text-anchor="middle" x="427.38" y="-56.5" font-family="Helvetica,sans-Serif" font-size="10.00">StateCreateInfo</text>
</a>
</g>
</g>
<!-- Node4&#45;&gt;Node12 -->
<g id="edge11_Node000004_Node000012" class="edge">
<title>Node4&#45;&gt;Node12</title>
<g id="a_edge11_Node000004_Node000012"><a xlink:title=" ">
<path fill="none" stroke="#63b8ff" d="M287.99,-294.23C293.23,-291.2 298.03,-287.5 302,-283 355.93,-221.78 284.49,-164.58 338,-103 341.33,-99.17 345.16,-95.81 349.32,-92.87"/>
<polygon fill="#63b8ff" stroke="#63b8ff" points="350.86,-96.03 357.6,-87.85 347.23,-90.04 350.86,-96.03"/>
</a>
</g>
</g>
<!-- Node13 -->
<g id="Node000013" class="node">
<title>Node13</title>
<g id="a_Node000013"><a xlink:href="class_g_e_rendering_context.html#a0a4e5219ca485904f858c7eb1de15520" target="_top" xlink:title="Crea la información de la etapa de rasterización.">
<polygon fill="white" stroke="#666666" points="498,-628 356.75,-628 356.75,-584 498,-584 498,-628"/>
<text xml:space="preserve" text-anchor="start" x="364.75" y="-614.5" font-family="Helvetica,sans-Serif" font-size="10.00">GERenderingContext</text>
<text xml:space="preserve" text-anchor="start" x="364.75" y="-602.5" font-family="Helvetica,sans-Serif" font-size="10.00">::createPipelineRasterization</text>
<text xml:space="preserve" text-anchor="middle" x="427.38" y="-590.5" font-family="Helvetica,sans-Serif" font-size="10.00">StateCreateInfo</text>
</a>
</g>
</g>
<!-- Node4&#45;&gt;Node13 -->
<g id="edge12_Node000004_Node000013" class="edge">
<title>Node4&#45;&gt;Node13</title>
<g id="a_edge12_Node000004_Node000013"><a xlink:title=" ">
<path fill="none" stroke="#63b8ff" d="M288.22,-321.57C293.41,-324.64 298.15,-328.4 302,-333 371.83,-416.35 268.74,-491.17 338,-575 340.7,-578.26 343.76,-581.18 347.08,-583.8"/>
<polygon fill="#63b8ff" stroke="#63b8ff" points="344.9,-586.55 355.17,-589.18 348.78,-580.72 344.9,-586.55"/>
</a>
</g>
</g>
<!-- Node14 -->
<g id="Node000014" class="node">
<title>Node14</title>
<g id="a_Node000014"><a xlink:href="class_g_e_rendering_context.html#a0bdaf567aa35edb4521a03818a7abab0" target="_top" xlink:title="Crea la descripción de los atributos de los vértices.">
<polygon fill="white" stroke="#666666" points="493.88,-566 360.88,-566 360.88,-522 493.88,-522 493.88,-566"/>
<text xml:space="preserve" text-anchor="start" x="368.88" y="-552.5" font-family="Helvetica,sans-Serif" font-size="10.00">GERenderingContext</text>
<text xml:space="preserve" text-anchor="start" x="368.88" y="-540.5" font-family="Helvetica,sans-Serif" font-size="10.00">::createPipelineVertexInput</text>
<text xml:space="preserve" text-anchor="middle" x="427.38" y="-528.5" font-family="Helvetica,sans-Serif" font-size="10.00">StateCreateInfo</text>
</a>
</g>
</g>
<!-- Node4&#45;&gt;Node14 -->
<g id="edge13_Node000004_Node000014" class="edge">
<title>Node4&#45;&gt;Node14</title>
<g id="a_edge13_Node000004_Node000014"><a xlink:title=" ">
<path fill="none" stroke="#63b8ff" d="M287.99,-321.77C293.23,-324.8 298.03,-328.5 302,-333 355.93,-394.22 284.49,-451.42 338,-513 341.77,-517.34 346.18,-521.07 350.99,-524.28"/>
<polygon fill="#63b8ff" stroke="#63b8ff" points="348.93,-527.13 359.34,-529.07 352.41,-521.06 348.93,-527.13"/>
</a>
</g>
</g>
<!-- Node15 -->
<g id="Node000015" class="node">
<title>Node15</title>
<g id="a_Node000015"><a xlink:href="class_g_e_rendering_context.html#a131bc8d204c9ae3faf715f36bfdba8f2" target="_top" xlink:title="Crea la información del viewport.">
<polygon fill="white" stroke="#666666" points="499.88,-504 354.88,-504 354.88,-460 499.88,-460 499.88,-504"/>
<text xml:space="preserve" text-anchor="start" x="362.88" y="-490.5" font-family="Helvetica,sans-Serif" font-size="10.00">GERenderingContext</text>
<text xml:space="preserve" text-anchor="start" x="362.88" y="-478.5" font-family="Helvetica,sans-Serif" font-size="10.00">::createPipelineViewportState</text>
<text xml:space="preserve" text-anchor="middle" x="427.38" y="-466.5" font-family="Helvetica,sans-Serif" font-size="10.00">CreateInfo</text>
</a>
</g>
</g>
<!-- Node4&#45;&gt;Node15 -->
<g id="edge14_Node000004_Node000015" class="edge">
<title>Node4&#45;&gt;Node15</title>
<g id="a_edge14_Node000004_Node000015"><a xlink:title=" ">
<path fill="none" stroke="#63b8ff" d="M287.91,-322.39C293.09,-325.3 297.91,-328.79 302,-333 340.23,-372.3 300.04,-411.44 338,-451 340.27,-453.36 342.73,-455.55 345.33,-457.57"/>
<polygon fill="#63b8ff" stroke="#63b8ff" points="343.17,-460.33 353.44,-462.97 347.06,-454.51 343.17,-460.33"/>
</a>
</g>
</g>
<!-- Node16 -->
<g id="Node000016" class="node">
<title>Node16</title>
<g id="a_Node000016"><a xlink:href="class_g_e_rendering_context.html#aa10b997efa5b9408fefb7bbefff219cf" target="_top" xlink:title="Crea la información sobre el Vertex Shader.">
<polygon fill="white" stroke="#666666" points="516.75,-442 338,-442 338,-410 516.75,-410 516.75,-442"/>
<text xml:space="preserve" text-anchor="start" x="346" y="-428.5" font-family="Helvetica,sans-Serif" font-size="10.00">GERenderingContext</text>
<text xml:space="preserve" text-anchor="middle" x="427.38" y="-416.5" font-family="Helvetica,sans-Serif" font-size="10.00">::createVertexShaderStageCreateInfo</text>
</a>
</g>
</g>
<!-- Node4&#45;&gt;Node16 -->
<g id="edge15_Node000004_Node000016" class="edge">
<title>Node4&#45;&gt;Node16</title>
<g id="a_edge15_Node000004_Node000016"><a xlink:title=" ">
<path fill="none" stroke="#63b8ff" d="M288.23,-323.82C293.16,-326.43 297.84,-329.47 302,-333 328.07,-355.13 311.41,-379.5 338,-401 339.15,-401.93 340.33,-402.83 341.55,-403.69"/>
<polygon fill="#63b8ff" stroke="#63b8ff" points="339.69,-406.66 350.05,-408.88 343.34,-400.68 339.69,-406.66"/>
</a>
</g>
</g>
<!-- Node6 -->
<g id="Node000006" class="node">
<title>Node6</title>
<g id="a_Node000006"><a xlink:href="class_g_e_rendering_context.html#a0915e69629916660bd8b22fedf4b2e1c" target="_top" xlink:title="Crea un shader a partir de su código en SPIR&#45;V.">
<polygon fill="white" stroke="#666666" points="666.25,-440 555,-440 555,-408 666.25,-408 666.25,-440"/>
<text xml:space="preserve" text-anchor="start" x="563" y="-426.5" font-family="Helvetica,sans-Serif" font-size="10.00">GERenderingContext</text>
<text xml:space="preserve" text-anchor="middle" x="610.62" y="-414.5" font-family="Helvetica,sans-Serif" font-size="10.00">::createShaderModule</text>
</a>
</g>
</g>
<!-- Node5&#45;&gt;Node6 -->
<g id="edge5_Node000005_Node000006" class="edge">
<title>Node5&#45;&gt;Node6</title>
<g id="a_edge5_Node000005_Node000006"><a xlink:title=" ">
<path fill="none" stroke="#63b8ff" d="M501.05,-391.65C515.12,-395.84 529.78,-400.21 543.62,-404.34"/>
<polygon fill="#63b8ff" stroke="#63b8ff" points="542.48,-407.65 553.06,-407.15 544.48,-400.94 542.48,-407.65"/>
</a>
</g>
</g>
<!-- Node7 -->
<g id="Node000007" class="node">
<title>Node7</title>
<g id="a_Node000007"><a xlink:href="class_g_e_rendering_context.html#a50bcdd8c7da9656f5c93d7385a5eb714" target="_top" xlink:title="Extrae el contenido de un fichero incluido como recurso de la aplicación.">
<polygon fill="white" stroke="#666666" points="668.5,-389 552.75,-389 552.75,-357 668.5,-357 668.5,-389"/>
<text xml:space="preserve" text-anchor="start" x="560.75" y="-375.5" font-family="Helvetica,sans-Serif" font-size="10.00">GERenderingContext</text>
<text xml:space="preserve" text-anchor="middle" x="610.62" y="-363.5" font-family="Helvetica,sans-Serif" font-size="10.00">::getFileFromResource</text>
</a>
</g>
</g>
<!-- Node5&#45;&gt;Node7 -->
<g id="edge6_Node000005_Node000007" class="edge">
<title>Node5&#45;&gt;Node7</title>
<g id="a_edge6_Node000005_Node000007"><a xlink:title=" ">
<path fill="none" stroke="#63b8ff" d="M501.05,-371.2C514.23,-371.42 527.94,-371.65 540.99,-371.86"/>
<polygon fill="#63b8ff" stroke="#63b8ff" points="540.7,-375.36 550.76,-372.03 540.82,-368.36 540.7,-375.36"/>
</a>
</g>
</g>
<!-- Node16&#45;&gt;Node6 -->
<g id="edge16_Node000016_Node000006" class="edge">
<title>Node16&#45;&gt;Node6</title>
<g id="a_edge16_Node000016_Node000006"><a xlink:title=" ">
<path fill="none" stroke="#63b8ff" d="M517.14,-425.02C525.96,-424.92 534.8,-424.83 543.33,-424.73"/>
<polygon fill="#63b8ff" stroke="#63b8ff" points="543.27,-428.23 553.23,-424.62 543.19,-421.23 543.27,-428.23"/>
</a>
</g>
</g>
<!-- Node16&#45;&gt;Node7 -->
<g id="edge17_Node000016_Node000007" class="edge">
<title>Node16&#45;&gt;Node7</title>
<g id="a_edge17_Node000016_Node000007"><a xlink:title=" ">
<path fill="none" stroke="#63b8ff" d="M486.89,-409.6C496.86,-406.76 507.11,-403.82 516.75,-401 525.81,-398.35 535.36,-395.52 544.75,-392.71"/>
<polygon fill="#63b8ff" stroke="#63b8ff" points="545.63,-396.1 554.2,-389.88 543.62,-389.4 545.63,-396.1"/>
</a>
</g>
</g>
<!-- Node18 -->
<g id="Node000018" class="node">
<title>Node18</title>
<g id="a_Node000018"><a xlink:href="class_g_e_graphics_context.html#a0d7cc8d858bf9deed9bf31b2d5b7ea36" target="_top" xlink:title="Busca el formato de imagen adecuado para el buffer de profundidad.">
<polygon fill="white" stroke="#666666" points="482.25,-32 372.5,-32 372.5,0 482.25,0 482.25,-32"/>
<text xml:space="preserve" text-anchor="start" x="380.5" y="-18.5" font-family="Helvetica,sans-Serif" font-size="10.00">GEGraphicsContext::</text>
<text xml:space="preserve" text-anchor="middle" x="427.38" y="-6.5" font-family="Helvetica,sans-Serif" font-size="10.00">findDepthFormat</text>
</a>
</g>
</g>
<!-- Node17&#45;&gt;Node18 -->
<g id="edge19_Node000017_Node000018" class="edge">
<title>Node17&#45;&gt;Node18</title>
<g id="a_edge19_Node000017_Node000018"><a xlink:title=" ">
<path fill="none" stroke="#63b8ff" d="M281.44,-247.68C289.21,-244.14 296.45,-239.38 302,-233 359,-167.51 279.44,-105.1 338,-41 344.42,-33.98 352.64,-28.87 361.48,-25.17"/>
<polygon fill="#63b8ff" stroke="#63b8ff" points="362.38,-28.56 370.65,-21.94 360.05,-21.96 362.38,-28.56"/>
</a>
</g>
</g>
</g>
</svg>
