<?xml version="1.0" encoding="UTF-8" standalone="no"?>
<!DOCTYPE svg PUBLIC "-//W3C//DTD SVG 1.1//EN"
 "http://www.w3.org/Graphics/SVG/1.1/DTD/svg11.dtd">
<!-- Generated by graphviz version 14.1.2 (20260124.0452)
 -->
<!-- Title: pugi::xpath_query::evaluate_node_set Pages: 1 -->
<svg width="258pt" height="158pt"
 viewBox="0.00 0.00 258.00 158.00" xmlns="http://www.w3.org/2000/svg" xmlns:xlink="http://www.w3.org/1999/xlink">
<g id="graph0" class="graph" transform="scale(1 1) rotate(0) translate(4 154)">
<title>pugi::xpath_query::evaluate_node_set</title>
<!-- Node1 -->
<g id="Node000001" class="node">
<title>Node1</title>
<g id="a_Node000001"><a xlink:title=" ">
<polygon fill="#999999" stroke="#666666" points="249.5,-82 150.25,-82 150.25,-50 249.5,-50 249.5,-82"/>
<text xml:space="preserve" text-anchor="start" x="158.25" y="-68.5" font-family="Helvetica,sans-Serif" font-size="10.00">pugi::xpath_query::</text>
<text xml:space="preserve" text-anchor="middle" x="199.88" y="-56.5" font-family="Helvetica,sans-Serif" font-size="10.00">evaluate_node_set</text>
</a>
</g>
</g>
<!-- Node2 -->
<g id="Node000002" class="node">
<title>Node2</title>
<g id="a_Node000002"><a xlink:href="classpugi_1_1xpath__query.html#aa784b675e7171c0202ee1330f04d0399" target="_top" xlink:title=" ">
<polygon fill="white" stroke="#666666" points="106.75,-132 7.5,-132 7.5,-100 106.75,-100 106.75,-132"/>
<text xml:space="preserve" text-anchor="start" x="15.5" y="-118.5" font-family="Helvetica,sans-Serif" font-size="10.00">pugi::xpath_query::</text>
<text xml:space="preserve" text-anchor="middle" x="57.12" y="-106.5" font-family="Helvetica,sans-Serif" font-size="10.00">operator=</text>
</a>
</g>
</g>
<!-- Node1&#45;&gt;Node2 -->
<g id="edge1_Node000001_Node000002" class="edge">
<title>Node1&#45;&gt;Node2</title>
<g id="a_edge1_Node000001_Node000002"><a xlink:title=" ">
<path fill="none" stroke="#63b8ff" d="M141.98,-86.21C129.46,-90.66 116.35,-95.32 104.32,-99.59"/>
<polygon fill="#63b8ff" stroke="#63b8ff" points="143.11,-89.52 151.36,-82.88 140.77,-82.93 143.11,-89.52"/>
</a>
</g>
</g>
<!-- Node3 -->
<g id="Node000003" class="node">
<title>Node3</title>
<g id="a_Node000003"><a xlink:href="classpugi_1_1xml__node.html#a52c45598bf8fd13e90aec434af35f1fb" target="_top" xlink:title=" ">
<polygon fill="white" stroke="#666666" points="114.25,-82 0,-82 0,-50 114.25,-50 114.25,-82"/>
<text xml:space="preserve" text-anchor="start" x="8" y="-68.5" font-family="Helvetica,sans-Serif" font-size="10.00">pugi::xml_node::select</text>
<text xml:space="preserve" text-anchor="middle" x="57.12" y="-56.5" font-family="Helvetica,sans-Serif" font-size="10.00">_nodes</text>
</a>
</g>
</g>
<!-- Node1&#45;&gt;Node3 -->
<g id="edge3_Node000001_Node000003" class="edge">
<title>Node1&#45;&gt;Node3</title>
<g id="a_edge3_Node000001_Node000003"><a xlink:title=" ">
<path fill="none" stroke="#63b8ff" d="M138.57,-66C130.61,-66 122.49,-66 114.6,-66"/>
<polygon fill="#63b8ff" stroke="#63b8ff" points="138.53,-69.5 148.53,-66 138.53,-62.5 138.53,-69.5"/>
</a>
</g>
</g>
<!-- Node4 -->
<g id="Node000004" class="node">
<title>Node4</title>
<g id="a_Node000004"><a xlink:href="classpugi_1_1xml__node.html#aa69014e0abdd9fe604d7263641df4995" target="_top" xlink:title=" ">
<polygon fill="white" stroke="#666666" points="114.25,-32 0,-32 0,0 114.25,0 114.25,-32"/>
<text xml:space="preserve" text-anchor="start" x="8" y="-18.5" font-family="Helvetica,sans-Serif" font-size="10.00">pugi::xml_node::select</text>
<text xml:space="preserve" text-anchor="middle" x="57.12" y="-6.5" font-family="Helvetica,sans-Serif" font-size="10.00">_nodes</text>
</a>
</g>
</g>
<!-- Node1&#45;&gt;Node4 -->
<g id="edge4_Node000001_Node000004" class="edge">
<title>Node1&#45;&gt;Node4</title>
<g id="a_edge4_Node000001_Node000004"><a xlink:title=" ">
<path fill="none" stroke="#63b8ff" d="M141.98,-45.79C129.46,-41.34 116.35,-36.68 104.32,-32.41"/>
<polygon fill="#63b8ff" stroke="#63b8ff" points="140.77,-49.07 151.36,-49.12 143.11,-42.48 140.77,-49.07"/>
</a>
</g>
</g>
<!-- Node2&#45;&gt;Node2 -->
<g id="edge2_Node000002_Node000002" class="edge">
<title>Node2&#45;&gt;Node2</title>
<g id="a_edge2_Node000002_Node000002"><a xlink:title=" ">
<path fill="none" stroke="#63b8ff" d="M80.91,-143.71C76.95,-147.48 69.02,-150 57.12,-150 35.38,-150 26.88,-141.58 31.64,-132.44"/>
<polygon fill="#63b8ff" stroke="#63b8ff" points="84.36,-144.35 82.38,-133.94 77.43,-143.31 84.36,-144.35"/>
</a>
</g>
</g>
</g>
</svg>
