<?xml version="1.0" encoding="UTF-8" standalone="no"?>
<!DOCTYPE svg PUBLIC "-//W3C//DTD SVG 1.1//EN"
 "http://www.w3.org/Graphics/SVG/1.1/DTD/svg11.dtd">
<!-- Generated by graphviz version 14.1.2 (20260124.0452)
 -->
<!-- Title: pugi::xml_document::reset Pages: 1 -->
<!--zoomable 398 -->

<svg id="main" version="1.1" xmlns="http://www.w3.org/2000/svg" xmlns:xlink="http://www.w3.org/1999/xlink" xml:space="preserve" onload="init(evt)">

<style type="text/css"><![CDATA[
.node, .edge {opacity: 0.7;}
.node.selected, .edge.selected {opacity: 1;}
.edge:hover path { stroke: red; }
.edge:hover polygon { stroke: red; fill: red; }
]]></style>

<defs>
  <circle id="rim" cx="0" cy="0" r="7"/>
  <circle id="rim2" cx="0" cy="0" r="3.5"/>
  <g id="zoomPlus">
    <use xlink:href="#rim" fill="#404040"><set attributeName="fill" to="#808080" begin="zoomplus.mouseover" end="zoomplus.mouseout"/></use>
    <path d="M-4,0h8M0,-4v8" fill="none" stroke="white" stroke-width="1.5" pointer-events="none"/>
  </g>
  <g id="zoomMin">
    <use xlink:href="#rim" fill="#404040"><set attributeName="fill" to="#808080" begin="zoomminus.mouseover" end="zoomminus.mouseout"/></use>
    <path d="M-4,0h8" fill="none" stroke="white" stroke-width="1.5" pointer-events="none"/>
  </g>
  <g id="arrowUp" transform="translate(30 24)">
    <use xlink:href="#rim"/>
    <path pointer-events="none" fill="none" stroke="white" stroke-width="1.5" d="M0,-3.0v7 M-2.5,-0.5L0,-3.0L2.5,-0.5"/>
  </g>
  <g id="arrowRight" transform="rotate(90) translate(36 -43)">
    <use xlink:href="#rim"/>
    <path pointer-events="none" fill="none" stroke="white" stroke-width="1.5" d="M0,-3.0v7 M-2.5,-0.5L0,-3.0L2.5,-0.5"/>
  </g>
  <g id="arrowDown" transform="rotate(180) translate(-30 -48)">
    <use xlink:href="#rim"/>
    <path pointer-events="none" fill="none" stroke="white" stroke-width="1.5" d="M0,-3.0v7 M-2.5,-0.5L0,-3.0L2.5,-0.5"/>
  </g>
  <g id="arrowLeft" transform="rotate(270) translate(-36 17)">
    <use xlink:href="#rim"/>
    <path pointer-events="none" fill="none" stroke="white" stroke-width="1.5" d="M0,-3.0v7 M-2.5,-0.5L0,-3.0L2.5,-0.5"/>
  </g>
  <g id="resetDef">
    <use xlink:href="#rim2" fill="#404040"><set attributeName="fill" to="#808080" begin="reset.mouseover" end="reset.mouseout"/></use>
  </g>
</defs>
<script type="application/ecmascript">
var viewWidth = 783;
var viewHeight = 398;
var sectionId = 'dynsection-29';
</script>
<script type="application/ecmascript" xlink:href="svg.min.js"/>
<svg id="graph" class="graph">
<g id="viewport">
<title>pugi::xml_document::reset</title>
<!-- Node1 -->
<g id="Node000001" class="node">
<title>Node1</title>
<g id="a_Node000001"><a xlink:title=" ">
<polygon fill="#999999" stroke="#666666" points="774.5,-214 670.75,-214 670.75,-182 774.5,-182 774.5,-214"/>
<text xml:space="preserve" text-anchor="start" x="678.75" y="-200.5" font-family="Helvetica,sans-Serif" font-size="10.00">pugi::xml_document</text>
<text xml:space="preserve" text-anchor="middle" x="722.62" y="-188.5" font-family="Helvetica,sans-Serif" font-size="10.00">::reset</text>
</a>
</g>
</g>
<!-- Node2 -->
<g id="Node000002" class="node">
<title>Node2</title>
<g id="a_Node000002"><a xlink:href="classpugi_1_1xml__document.html#af2465eda9e5f0551c2a40fd53d96c63d" target="_top" xlink:title=" ">
<polygon fill="white" stroke="#666666" points="281.38,-258 177.62,-258 177.62,-226 281.38,-226 281.38,-258"/>
<text xml:space="preserve" text-anchor="start" x="185.62" y="-244.5" font-family="Helvetica,sans-Serif" font-size="10.00">pugi::xml_document</text>
<text xml:space="preserve" text-anchor="middle" x="229.5" y="-232.5" font-family="Helvetica,sans-Serif" font-size="10.00">::_move</text>
</a>
</g>
</g>
<!-- Node1&#45;&gt;Node2 -->
<g id="edge1_Node000001_Node000002" class="edge">
<title>Node1&#45;&gt;Node2</title>
<g id="a_edge1_Node000001_Node000002"><a xlink:title=" ">
<path fill="none" stroke="#63b8ff" d="M658.91,-208.73C650.8,-209.93 642.59,-211.06 634.75,-212 508.27,-227.14 358.56,-235.87 281.69,-239.68"/>
<polygon fill="#63b8ff" stroke="#63b8ff" points="659.42,-212.19 668.78,-207.21 658.36,-205.27 659.42,-212.19"/>
</a>
</g>
</g>
<!-- Node3 -->
<g id="Node000003" class="node">
<title>Node3</title>
<g id="a_Node000003"><a xlink:href="classpugi_1_1xml__document.html#ae66d084759441a5cf508b8ec85eee852" target="_top" xlink:title=" ">
<polygon fill="white" stroke="#666666" points="465.38,-214 361.62,-214 361.62,-182 465.38,-182 465.38,-214"/>
<text xml:space="preserve" text-anchor="start" x="369.62" y="-200.5" font-family="Helvetica,sans-Serif" font-size="10.00">pugi::xml_document</text>
<text xml:space="preserve" text-anchor="middle" x="413.5" y="-188.5" font-family="Helvetica,sans-Serif" font-size="10.00">::load</text>
</a>
</g>
</g>
<!-- Node1&#45;&gt;Node3 -->
<g id="edge2_Node000001_Node000003" class="edge">
<title>Node1&#45;&gt;Node3</title>
<g id="a_edge2_Node000001_Node000003"><a xlink:title=" ">
<path fill="none" stroke="#63b8ff" d="M659.17,-198C602.15,-198 518.87,-198 465.68,-198"/>
<polygon fill="#63b8ff" stroke="#63b8ff" points="659.05,-201.5 669.05,-198 659.05,-194.5 659.05,-201.5"/>
</a>
</g>
</g>
<!-- Node4 -->
<g id="Node000004" class="node">
<title>Node4</title>
<g id="a_Node000004"><a xlink:href="classpugi_1_1xml__document.html#a8f023c497ab9e905c7c26b2ee4247cab" target="_top" xlink:title=" ">
<polygon fill="white" stroke="#666666" points="634.75,-296 531,-296 531,-264 634.75,-264 634.75,-296"/>
<text xml:space="preserve" text-anchor="start" x="539" y="-282.5" font-family="Helvetica,sans-Serif" font-size="10.00">pugi::xml_document</text>
<text xml:space="preserve" text-anchor="middle" x="582.88" y="-270.5" font-family="Helvetica,sans-Serif" font-size="10.00">::load</text>
</a>
</g>
</g>
<!-- Node1&#45;&gt;Node4 -->
<g id="edge4_Node000001_Node000004" class="edge">
<title>Node1&#45;&gt;Node4</title>
<g id="a_edge4_Node000001_Node000004"><a xlink:title=" ">
<path fill="none" stroke="#63b8ff" d="M684.57,-220.25C669.18,-229.48 651.11,-240.28 634.75,-250 627.35,-254.4 619.32,-259.14 611.88,-263.53"/>
<polygon fill="#63b8ff" stroke="#63b8ff" points="686.19,-223.36 692.97,-215.22 682.59,-217.36 686.19,-223.36"/>
</a>
</g>
</g>
<!-- Node5 -->
<g id="Node000005" class="node">
<title>Node5</title>
<g id="a_Node000005"><a xlink:href="classpugi_1_1xml__document.html#a6caaa62694a6d0d1a5bece7fb56a2954" target="_top" xlink:title=" ">
<polygon fill="white" stroke="#666666" points="634.75,-384 531,-384 531,-352 634.75,-352 634.75,-384"/>
<text xml:space="preserve" text-anchor="start" x="539" y="-370.5" font-family="Helvetica,sans-Serif" font-size="10.00">pugi::xml_document</text>
<text xml:space="preserve" text-anchor="middle" x="582.88" y="-358.5" font-family="Helvetica,sans-Serif" font-size="10.00">::load_buffer</text>
</a>
</g>
</g>
<!-- Node1&#45;&gt;Node5 -->
<g id="edge5_Node000001_Node000005" class="edge">
<title>Node1&#45;&gt;Node5</title>
<g id="a_edge5_Node000001_Node000005"><a xlink:title=" ">
<path fill="none" stroke="#63b8ff" d="M709.92,-224.65C695.61,-254.94 669,-304.52 634.75,-338 629.54,-343.09 623.31,-347.66 617.03,-351.62"/>
<polygon fill="#63b8ff" stroke="#63b8ff" points="712.99,-226.35 714,-215.8 706.64,-223.42 712.99,-226.35"/>
</a>
</g>
</g>
<!-- Node8 -->
<g id="Node000008" class="node">
<title>Node8</title>
<g id="a_Node000008"><a xlink:href="classpugi_1_1xml__document.html#a0f3c5474fee2548e646b54bdd042472f" target="_top" xlink:title=" ">
<polygon fill="white" stroke="#666666" points="466.12,-164 360.88,-164 360.88,-132 466.12,-132 466.12,-164"/>
<text xml:space="preserve" text-anchor="start" x="368.88" y="-150.5" font-family="Helvetica,sans-Serif" font-size="10.00">pugi::xml_document</text>
<text xml:space="preserve" text-anchor="middle" x="413.5" y="-138.5" font-family="Helvetica,sans-Serif" font-size="10.00">::load_buffer_inplace</text>
</a>
</g>
</g>
<!-- Node1&#45;&gt;Node8 -->
<g id="edge10_Node000001_Node000008" class="edge">
<title>Node1&#45;&gt;Node8</title>
<g id="a_edge10_Node000001_Node000008"><a xlink:title=" ">
<path fill="none" stroke="#63b8ff" d="M659.22,-187.84C602.47,-178.6 519.69,-165.12 466.45,-156.46"/>
<polygon fill="#63b8ff" stroke="#63b8ff" points="658.64,-191.29 669.07,-189.44 659.76,-184.38 658.64,-191.29"/>
</a>
</g>
</g>
<!-- Node9 -->
<g id="Node000009" class="node">
<title>Node9</title>
<g id="a_Node000009"><a xlink:href="classpugi_1_1xml__document.html#a0127a62dfe677cc0c77dfb9ec534a618" target="_top" xlink:title=" ">
<polygon fill="white" stroke="#666666" points="477.75,-302 349.25,-302 349.25,-270 477.75,-270 477.75,-302"/>
<text xml:space="preserve" text-anchor="start" x="357.25" y="-288.5" font-family="Helvetica,sans-Serif" font-size="10.00">pugi::xml_document</text>
<text xml:space="preserve" text-anchor="middle" x="413.5" y="-276.5" font-family="Helvetica,sans-Serif" font-size="10.00">::load_buffer_inplace_own</text>
</a>
</g>
</g>
<!-- Node1&#45;&gt;Node9 -->
<g id="edge12_Node000001_Node000009" class="edge">
<title>Node1&#45;&gt;Node9</title>
<g id="a_edge12_Node000001_Node000009"><a xlink:title=" ">
<path fill="none" stroke="#63b8ff" d="M709.17,-224.08C695.15,-250.05 669.69,-288.36 634.75,-305 578.44,-331.81 504.87,-316.93 458.65,-302.48"/>
<polygon fill="#63b8ff" stroke="#63b8ff" points="712.13,-225.97 713.61,-215.48 705.91,-222.76 712.13,-225.97"/>
</a>
</g>
</g>
<!-- Node10 -->
<g id="Node000010" class="node">
<title>Node10</title>
<g id="a_Node000010"><a xlink:href="classpugi_1_1xml__document.html#aefb4c986984462e3972cf332156dbf00" target="_top" xlink:title=" ">
<polygon fill="white" stroke="#666666" points="634.75,-132 531,-132 531,-100 634.75,-100 634.75,-132"/>
<text xml:space="preserve" text-anchor="start" x="539" y="-118.5" font-family="Helvetica,sans-Serif" font-size="10.00">pugi::xml_document</text>
<text xml:space="preserve" text-anchor="middle" x="582.88" y="-106.5" font-family="Helvetica,sans-Serif" font-size="10.00">::load_file</text>
</a>
</g>
</g>
<!-- Node1&#45;&gt;Node10 -->
<g id="edge14_Node000001_Node000010" class="edge">
<title>Node1&#45;&gt;Node10</title>
<g id="a_edge14_Node000001_Node000010"><a xlink:title=" ">
<path fill="none" stroke="#63b8ff" d="M684.57,-175.75C669.18,-166.52 651.11,-155.72 634.75,-146 627.35,-141.6 619.32,-136.86 611.88,-132.47"/>
<polygon fill="#63b8ff" stroke="#63b8ff" points="682.59,-178.64 692.97,-180.78 686.19,-172.64 682.59,-178.64"/>
</a>
</g>
</g>
<!-- Node14 -->
<g id="Node000014" class="node">
<title>Node14</title>
<g id="a_Node000014"><a xlink:href="classpugi_1_1xml__document.html#a2581b5da40f2b80155c57c7f722ee631" target="_top" xlink:title=" ">
<polygon fill="white" stroke="#666666" points="634.75,-82 531,-82 531,-50 634.75,-50 634.75,-82"/>
<text xml:space="preserve" text-anchor="start" x="539" y="-68.5" font-family="Helvetica,sans-Serif" font-size="10.00">pugi::xml_document</text>
<text xml:space="preserve" text-anchor="middle" x="582.88" y="-56.5" font-family="Helvetica,sans-Serif" font-size="10.00">::load_file</text>
</a>
</g>
</g>
<!-- Node1&#45;&gt;Node14 -->
<g id="edge19_Node000001_Node000014" class="edge">
<title>Node1&#45;&gt;Node14</title>
<g id="a_edge19_Node000001_Node000014"><a xlink:title=" ">
<path fill="none" stroke="#63b8ff" d="M705.5,-172.31C689.73,-148.8 663.9,-114.22 634.75,-91 630.82,-87.87 626.44,-85 621.95,-82.4"/>
<polygon fill="#63b8ff" stroke="#63b8ff" points="702.38,-173.94 710.79,-180.38 708.24,-170.1 702.38,-173.94"/>
</a>
</g>
</g>
<!-- Node15 -->
<g id="Node000015" class="node">
<title>Node15</title>
<g id="a_Node000015"><a xlink:href="classpugi_1_1xml__document.html#a0706ec7644d94add7eadcf4d9636e251" target="_top" xlink:title=" ">
<polygon fill="white" stroke="#666666" points="634.75,-32 531,-32 531,0 634.75,0 634.75,-32"/>
<text xml:space="preserve" text-anchor="start" x="539" y="-18.5" font-family="Helvetica,sans-Serif" font-size="10.00">pugi::xml_document</text>
<text xml:space="preserve" text-anchor="middle" x="582.88" y="-6.5" font-family="Helvetica,sans-Serif" font-size="10.00">::reset</text>
</a>
</g>
</g>
<!-- Node1&#45;&gt;Node15 -->
<g id="edge20_Node000001_Node000015" class="edge">
<title>Node1&#45;&gt;Node15</title>
<g id="a_edge20_Node000001_Node000015"><a xlink:title=" ">
<path fill="none" stroke="#63b8ff" d="M712.54,-171.15C699.85,-137.07 673.86,-78.25 634.75,-41 631.4,-37.81 627.57,-34.95 623.54,-32.4"/>
<polygon fill="#63b8ff" stroke="#63b8ff" points="709.15,-172.04 715.83,-180.26 715.73,-169.67 709.15,-172.04"/>
</a>
</g>
</g>
<!-- Node3&#45;&gt;Node2 -->
<g id="edge3_Node000003_Node000002" class="edge">
<title>Node3&#45;&gt;Node2</title>
<g id="a_edge3_Node000003_Node000002"><a xlink:title=" ">
<path fill="none" stroke="#63b8ff" d="M350.23,-213.05C327.87,-218.46 302.92,-224.49 281.61,-229.64"/>
<polygon fill="#63b8ff" stroke="#63b8ff" points="350.95,-216.48 359.85,-210.73 349.3,-209.68 350.95,-216.48"/>
</a>
</g>
</g>
<!-- Node5&#45;&gt;Node2 -->
<g id="edge6_Node000005_Node000002" class="edge">
<title>Node5&#45;&gt;Node2</title>
<g id="a_edge6_Node000005_Node000002"><a xlink:title=" ">
<path fill="none" stroke="#63b8ff" d="M519.64,-354.41C448.5,-338.78 340.69,-314.78 332,-311 300.94,-297.47 269.31,-274.13 249.8,-258.39"/>
<polygon fill="#63b8ff" stroke="#63b8ff" points="518.73,-357.79 529.24,-356.52 520.23,-350.95 518.73,-357.79"/>
</a>
</g>
</g>
<!-- Node6 -->
<g id="Node000006" class="node">
<title>Node6</title>
<g id="a_Node000006"><a xlink:href="classpugi_1_1xml__document.html#ab35d1e571a3c2f7b15a1d14cc53603ae" target="_top" xlink:title=" ">
<polygon fill="white" stroke="#666666" points="465.38,-390 361.62,-390 361.62,-358 465.38,-358 465.38,-390"/>
<text xml:space="preserve" text-anchor="start" x="369.62" y="-376.5" font-family="Helvetica,sans-Serif" font-size="10.00">pugi::xml_document</text>
<text xml:space="preserve" text-anchor="middle" x="413.5" y="-364.5" font-family="Helvetica,sans-Serif" font-size="10.00">::load_string</text>
</a>
</g>
</g>
<!-- Node5&#45;&gt;Node6 -->
<g id="edge7_Node000005_Node000006" class="edge">
<title>Node5&#45;&gt;Node6</title>
<g id="a_edge7_Node000005_Node000006"><a xlink:title=" ">
<path fill="none" stroke="#63b8ff" d="M519.34,-370.24C501.62,-370.88 482.56,-371.56 465.6,-372.17"/>
<polygon fill="#63b8ff" stroke="#63b8ff" points="519.37,-373.74 529.23,-369.89 519.12,-366.75 519.37,-373.74"/>
</a>
</g>
</g>
<!-- Node6&#45;&gt;Node2 -->
<g id="edge8_Node000006_Node000002" class="edge">
<title>Node6&#45;&gt;Node2</title>
<g id="a_edge8_Node000006_Node000002"><a xlink:title=" ">
<path fill="none" stroke="#63b8ff" d="M351.03,-354.3C344.4,-351.25 337.92,-347.82 332,-344 294.83,-320.05 260.54,-280.46 242.91,-258.3"/>
<polygon fill="#63b8ff" stroke="#63b8ff" points="349.55,-357.47 360.12,-358.2 352.31,-351.04 349.55,-357.47"/>
</a>
</g>
</g>
<!-- Node7 -->
<g id="Node000007" class="node">
<title>Node7</title>
<g id="a_Node000007"><a xlink:href="classpugi_1_1xml__document.html#a579a0a64579d568ad9e3b682f5641de7" target="_top" xlink:title=" ">
<polygon fill="white" stroke="#666666" points="281.38,-390 177.62,-390 177.62,-358 281.38,-358 281.38,-390"/>
<text xml:space="preserve" text-anchor="start" x="185.62" y="-376.5" font-family="Helvetica,sans-Serif" font-size="10.00">pugi::xml_document</text>
<text xml:space="preserve" text-anchor="middle" x="229.5" y="-364.5" font-family="Helvetica,sans-Serif" font-size="10.00">::load</text>
</a>
</g>
</g>
<!-- Node6&#45;&gt;Node7 -->
<g id="edge9_Node000006_Node000007" class="edge">
<title>Node6&#45;&gt;Node7</title>
<g id="a_edge9_Node000006_Node000007"><a xlink:title=" ">
<path fill="none" stroke="#63b8ff" d="M349.93,-374C327.64,-374 302.82,-374 281.61,-374"/>
<polygon fill="#63b8ff" stroke="#63b8ff" points="349.81,-377.5 359.8,-374 349.8,-370.5 349.81,-377.5"/>
</a>
</g>
</g>
<!-- Node8&#45;&gt;Node2 -->
<g id="edge11_Node000008_Node000002" class="edge">
<title>Node8&#45;&gt;Node2</title>
<g id="a_edge11_Node000008_Node000002"><a xlink:title=" ">
<path fill="none" stroke="#63b8ff" d="M350.06,-165.36C343.86,-167.68 337.74,-170.23 332,-173 301.86,-187.52 270.52,-210.18 250.78,-225.54"/>
<polygon fill="#63b8ff" stroke="#63b8ff" points="350.84,-168.8 359.1,-162.16 348.5,-162.2 350.84,-168.8"/>
</a>
</g>
</g>
<!-- Node9&#45;&gt;Node2 -->
<g id="edge13_Node000009_Node000002" class="edge">
<title>Node9&#45;&gt;Node2</title>
<g id="a_edge13_Node000009_Node000002"><a xlink:title=" ">
<path fill="none" stroke="#63b8ff" d="M337.89,-267.96C319.04,-263.4 299.22,-258.61 281.81,-254.4"/>
<polygon fill="#63b8ff" stroke="#63b8ff" points="336.83,-271.31 347.37,-270.26 338.48,-264.5 336.83,-271.31"/>
</a>
</g>
</g>
<!-- Node10&#45;&gt;Node2 -->
<g id="edge15_Node000010_Node000002" class="edge">
<title>Node10&#45;&gt;Node2</title>
<g id="a_edge15_Node000010_Node000002"><a xlink:title=" ">
<path fill="none" stroke="#63b8ff" d="M519.52,-104.22C466.88,-97.34 390.9,-94.82 332,-123 286.2,-144.92 253.15,-198.31 238.66,-225.5"/>
<polygon fill="#63b8ff" stroke="#63b8ff" points="518.82,-107.65 529.21,-105.58 519.8,-100.72 518.82,-107.65"/>
</a>
</g>
</g>
<!-- Node11 -->
<g id="Node000011" class="node">
<title>Node11</title>
<g id="a_Node000011"><a xlink:href="class_g_e_x_m_l_parser.html#acd9fc587fbd992edbb51df00549c1bda" target="_top" xlink:title="Parsea un archivo .skel y devuelve los datos del esqueleto.">
<polygon fill="white" stroke="#666666" points="495,-76 332,-76 332,-56 495,-56 495,-76"/>
<text xml:space="preserve" text-anchor="middle" x="413.5" y="-62.5" font-family="Helvetica,sans-Serif" font-size="10.00">GEXMLParser::parseSkeletonFile</text>
</a>
</g>
</g>
<!-- Node10&#45;&gt;Node11 -->
<g id="edge16_Node000010_Node000011" class="edge">
<title>Node10&#45;&gt;Node11</title>
<g id="a_edge16_Node000010_Node000011"><a xlink:title=" ">
<path fill="none" stroke="#63b8ff" d="M519.96,-97.46C511.57,-94.95 503.08,-92.41 495,-90 480.05,-85.53 463.53,-80.61 449.37,-76.39"/>
<polygon fill="#63b8ff" stroke="#63b8ff" points="518.85,-100.78 529.44,-100.3 520.86,-94.08 518.85,-100.78"/>
</a>
</g>
</g>
<!-- Node12 -->
<g id="Node000012" class="node">
<title>Node12</title>
<g id="a_Node000012"><a xlink:href="class_g_e_skeleton.html#ade3f0504c12faea2597ee2c23abf22bd" target="_top" xlink:title="Construye la jerarquía de articulaciones desde body.skel.">
<polygon fill="white" stroke="#666666" points="296,-76 163,-76 163,-56 296,-56 296,-76"/>
<text xml:space="preserve" text-anchor="middle" x="229.5" y="-62.5" font-family="Helvetica,sans-Serif" font-size="10.00">GESkeleton::buildSkeleton</text>
</a>
</g>
</g>
<!-- Node11&#45;&gt;Node12 -->
<g id="edge17_Node000011_Node000012" class="edge">
<title>Node11&#45;&gt;Node12</title>
<g id="a_edge17_Node000011_Node000012"><a xlink:title=" ">
<path fill="none" stroke="#63b8ff" d="M320.26,-66C312.21,-66 304.18,-66 296.41,-66"/>
<polygon fill="#63b8ff" stroke="#63b8ff" points="320.1,-69.5 330.1,-66 320.1,-62.5 320.1,-69.5"/>
</a>
</g>
</g>
<!-- Node13 -->
<g id="Node000013" class="node">
<title>Node13</title>
<g id="a_Node000013"><a xlink:href="class_g_e_skeleton.html#ad854854fdf1e4d090553d4d6edbfe095" target="_top" xlink:title="Constructor del esqueleto.">
<polygon fill="white" stroke="#666666" points="127,-76 0,-76 0,-56 127,-56 127,-76"/>
<text xml:space="preserve" text-anchor="middle" x="63.5" y="-62.5" font-family="Helvetica,sans-Serif" font-size="10.00">GESkeleton::GESkeleton</text>
</a>
</g>
</g>
<!-- Node12&#45;&gt;Node13 -->
<g id="edge18_Node000012_Node000013" class="edge">
<title>Node12&#45;&gt;Node13</title>
<g id="a_edge18_Node000012_Node000013"><a xlink:title=" ">
<path fill="none" stroke="#63b8ff" d="M151.41,-66C143.35,-66 135.22,-66 127.34,-66"/>
<polygon fill="#63b8ff" stroke="#63b8ff" points="151.23,-69.5 161.23,-66 151.23,-62.5 151.23,-69.5"/>
</a>
</g>
</g>
</g>
</svg>

<g id="navigator" transform="translate(0 0)" fill="#404254">
  <rect fill="#f2f5e9" fill-opacity="0.5" stroke="#606060" stroke-width=".5" x="0" y="0" width="60" height="60"/>
  <use id="zoomplus" xlink:href="#zoomPlus" x="17" y="9" onmousedown="handleZoom(evt,'in')"/>
  <use id="zoomminus" xlink:href="#zoomMin" x="42" y="9" onmousedown="handleZoom(evt,'out')"/>
  <use id="reset" xlink:href="#resetDef" x="30" y="36" onmousedown="handleReset()"/>
   <use id="arrowup" xlink:href="#arrowUp" x="0" y="0" onmousedown="handlePan(0,-1)"/>
  <use id="arrowright" xlink:href="#arrowRight" x="0" y="0" onmousedown="handlePan(1,0)"/>
  <use id="arrowdown" xlink:href="#arrowDown" x="0" y="0" onmousedown="handlePan(0,1)"/>
  <use id="arrowleft" xlink:href="#arrowLeft" x="0" y="0" onmousedown="handlePan(-1,0)"/>
</g>
<svg viewBox="0 0 15 15" width="100%" height="30px" preserveAspectRatio="xMaxYMin meet">
 <g id="arrow_out" transform="scale(0.3 0.3)">
  <a xlink:href="classpugi_1_1xml__document_a56e84f1a61d9798b8095f633d2174ab5_icgraph_org.svg" target="_base">
   <rect id="button" ry="5" rx="5" y="6" x="6" height="38" width="38"
        fill="#f2f5e9" fill-opacity="0.5" stroke="#606060" stroke-width="1.0"/>
   <path id="arrow"
     d="M 11.500037,31.436501 C 11.940474,20.09759 22.043105,11.32322 32.158766,21.979434 L 37.068811,17.246167 C 37.068811,17.246167 37.088388,32 37.088388,32 L 22.160133,31.978069 C 22.160133,31.978069 26.997745,27.140456 26.997745,27.140456 C 18.528582,18.264221 13.291696,25.230495 11.500037,31.436501 z"
     style="fill:#404040;"/>
  </a>
 </g>
</svg>

<style type='text/css'>
<![CDATA[
[data-mouse-over-selected='false'] { opacity: 0.7; }
[data-mouse-over-selected='true']  { opacity: 1.0; }
]]>
</style>
<script type="application/ecmascript"><![CDATA[
document.addEventListener('DOMContentLoaded', (event) => {
  highlightEdges();
  highlightAdjacentNodes();
});
]]></script>
</svg>
