<?xml version="1.0" encoding="UTF-8" standalone="no"?>
<!DOCTYPE svg PUBLIC "-//W3C//DTD SVG 1.1//EN"
 "http://www.w3.org/Graphics/SVG/1.1/DTD/svg11.dtd">
<!-- Generated by graphviz version 14.1.2 (20260124.0452)
 -->
<!-- Title: GECylinder Pages: 1 -->
<svg width="558pt" height="191pt"
 viewBox="0.00 0.00 558.00 191.00" xmlns="http://www.w3.org/2000/svg" xmlns:xlink="http://www.w3.org/1999/xlink">
<g id="graph0" class="graph" transform="scale(1 1) rotate(0) translate(4 187)">
<title>GECylinder</title>
<!-- Node1 -->
<g id="Node000001" class="node">
<title>Node1</title>
<g id="a_Node000001"><a xlink:title="Clase que describe un cilindro.">
<polygon fill="#999999" stroke="#666666" points="276.5,-20 210.25,-20 210.25,0 276.5,0 276.5,-20"/>
<text xml:space="preserve" text-anchor="middle" x="243.38" y="-6.5" font-family="Helvetica,sans-Serif" font-size="10.00">GECylinder</text>
</a>
</g>
</g>
<!-- Node2 -->
<g id="Node000002" class="node">
<title>Node2</title>
<g id="a_Node000002"><a xlink:href="class_g_e_figure.html" target="_top" xlink:title="Clase que describe una figura formada por una malla de vértices.">
<polygon fill="white" stroke="#666666" points="272,-77 214.75,-77 214.75,-57 272,-57 272,-77"/>
<text xml:space="preserve" text-anchor="middle" x="243.38" y="-63.5" font-family="Helvetica,sans-Serif" font-size="10.00">GEFigure</text>
</a>
</g>
</g>
<!-- Node2&#45;&gt;Node1 -->
<g id="edge1_Node000001_Node000002" class="edge">
<title>Node2&#45;&gt;Node1</title>
<g id="a_edge1_Node000001_Node000002"><a xlink:title=" ">
<path fill="none" stroke="#63b8ff" d="M243.38,-45.69C243.38,-36.97 243.38,-27.22 243.38,-20.28"/>
<polygon fill="#63b8ff" stroke="#63b8ff" points="239.88,-45.4 243.38,-55.4 246.88,-45.4 239.88,-45.4"/>
</a>
</g>
</g>
<!-- Node3 -->
<g id="Node000003" class="node">
<title>Node3</title>
<g id="a_Node000003"><a xlink:href="struct_g_e_material.html" target="_top" xlink:title="Estructura que describe las propiedades de un material.">
<polygon fill="white" stroke="#666666" points="64.75,-183 0,-183 0,-163 64.75,-163 64.75,-183"/>
<text xml:space="preserve" text-anchor="middle" x="32.38" y="-169.5" font-family="Helvetica,sans-Serif" font-size="10.00">GEMaterial</text>
</a>
</g>
</g>
<!-- Node3&#45;&gt;Node2 -->
<g id="edge2_Node000002_Node000003" class="edge">
<title>Node3&#45;&gt;Node2</title>
<g id="a_edge2_Node000002_Node000003"><a xlink:title=" ">
<path fill="none" stroke="#9a32cd" stroke-dasharray="5,2" d="M40.45,-152.12C48.81,-134.2 63.65,-108.62 84.88,-95 105.84,-81.54 174.63,-73.73 214.36,-70.23"/>
<polygon fill="#9a32cd" stroke="#9a32cd" points="37.28,-150.64 36.49,-161.21 43.69,-153.44 37.28,-150.64"/>
</a>
</g>
<text xml:space="preserve" text-anchor="start" x="87.88" y="-116.5" font-family="Helvetica,sans-Serif" font-size="10.00" fill="grey">material</text>
</g>
<!-- Node4 -->
<g id="Node000004" class="node">
<title>Node4</title>
<g id="a_Node000004"><a xlink:href="struct_g_e_light.html" target="_top" xlink:title="Estructura que describe una fuente de luz direccional.">
<polygon fill="white" stroke="#666666" points="134,-183 82.75,-183 82.75,-163 134,-163 134,-183"/>
<text xml:space="preserve" text-anchor="middle" x="108.38" y="-169.5" font-family="Helvetica,sans-Serif" font-size="10.00">GELight</text>
</a>
</g>
</g>
<!-- Node4&#45;&gt;Node2 -->
<g id="edge3_Node000002_Node000004" class="edge">
<title>Node4&#45;&gt;Node2</title>
<g id="a_edge3_Node000002_Node000004"><a xlink:title=" ">
<path fill="none" stroke="#9a32cd" stroke-dasharray="5,2" d="M121.24,-153.74C134.07,-136.64 155.16,-111.34 178.38,-95 189.27,-87.33 202.67,-81.3 214.47,-76.9"/>
<polygon fill="#9a32cd" stroke="#9a32cd" points="118.64,-151.36 115.58,-161.5 124.3,-155.48 118.64,-151.36"/>
</a>
</g>
<text xml:space="preserve" text-anchor="start" x="181.38" y="-116.5" font-family="Helvetica,sans-Serif" font-size="10.00" fill="grey">light</text>
</g>
<!-- Node5 -->
<g id="Node000005" class="node">
<title>Node5</title>
<g id="a_Node000005"><a xlink:href="class_g_e_vertex_buffer.html" target="_top" xlink:title="Clase que describe un buffer de vértices.">
<polygon fill="white" stroke="#666666" points="235.12,-183 151.62,-183 151.62,-163 235.12,-163 235.12,-183"/>
<text xml:space="preserve" text-anchor="middle" x="193.38" y="-169.5" font-family="Helvetica,sans-Serif" font-size="10.00">GEVertexBuffer</text>
</a>
</g>
</g>
<!-- Node5&#45;&gt;Node2 -->
<g id="edge4_Node000002_Node000005" class="edge">
<title>Node5&#45;&gt;Node2</title>
<g id="a_edge4_Node000002_Node000005"><a xlink:title=" ">
<path fill="none" stroke="#9a32cd" stroke-dasharray="5,2" d="M202.78,-152.44C213.55,-130.03 230.77,-94.22 238.88,-77.36"/>
<polygon fill="#9a32cd" stroke="#9a32cd" points="199.65,-150.88 198.47,-161.41 205.96,-153.91 199.65,-150.88"/>
</a>
</g>
<text xml:space="preserve" text-anchor="start" x="232.97" y="-116.5" font-family="Helvetica,sans-Serif" font-size="10.00" fill="grey">vbo</text>
</g>
<!-- Node6 -->
<g id="Node000006" class="node">
<title>Node6</title>
<g id="a_Node000006"><a xlink:href="class_g_e_index_buffer.html" target="_top" xlink:title="Clase que describe un buffer de índices.">
<polygon fill="white" stroke="#666666" points="333.25,-183 253.5,-183 253.5,-163 333.25,-163 333.25,-183"/>
<text xml:space="preserve" text-anchor="middle" x="293.38" y="-169.5" font-family="Helvetica,sans-Serif" font-size="10.00">GEIndexBuffer</text>
</a>
</g>
</g>
<!-- Node6&#45;&gt;Node2 -->
<g id="edge5_Node000002_Node000006" class="edge">
<title>Node6&#45;&gt;Node2</title>
<g id="a_edge5_Node000002_Node000006"><a xlink:title=" ">
<path fill="none" stroke="#9a32cd" stroke-dasharray="5,2" d="M283.97,-152.44C273.2,-130.03 255.98,-94.22 247.87,-77.36"/>
<polygon fill="#9a32cd" stroke="#9a32cd" points="280.79,-153.91 288.28,-161.41 287.1,-150.88 280.79,-153.91"/>
</a>
</g>
<text xml:space="preserve" text-anchor="start" x="282.97" y="-116.5" font-family="Helvetica,sans-Serif" font-size="10.00" fill="grey">ibo</text>
</g>
<!-- Node7 -->
<g id="Node000007" class="node">
<title>Node7</title>
<g id="a_Node000007"><a xlink:href="class_g_e_uniform_buffer.html" target="_top" xlink:title="Clase que describe un conjunto de buffers para almacenar variables uniformes.">
<polygon fill="white" stroke="#666666" points="441.5,-183 351.25,-183 351.25,-163 441.5,-163 441.5,-183"/>
<text xml:space="preserve" text-anchor="middle" x="396.38" y="-169.5" font-family="Helvetica,sans-Serif" font-size="10.00">GEUniformBuffer</text>
</a>
</g>
</g>
<!-- Node7&#45;&gt;Node2 -->
<g id="edge6_Node000002_Node000007" class="edge">
<title>Node7&#45;&gt;Node2</title>
<g id="a_edge6_Node000002_Node000007"><a xlink:title=" ">
<path fill="none" stroke="#9a32cd" stroke-dasharray="5,2" d="M378.66,-155.12C360.51,-138.43 330.98,-112.85 302.38,-95 291.48,-88.2 278.59,-82.11 267.64,-77.43"/>
<polygon fill="#9a32cd" stroke="#9a32cd" points="375.8,-157.24 385.49,-161.5 380.57,-152.12 375.8,-157.24"/>
</a>
</g>
<text xml:space="preserve" text-anchor="start" x="369.56" y="-132.5" font-family="Helvetica,sans-Serif" font-size="10.00" fill="grey">lightBuffer</text>
<text xml:space="preserve" text-anchor="start" x="369.56" y="-116.5" font-family="Helvetica,sans-Serif" font-size="10.00" fill="grey">materialBuffer</text>
<text xml:space="preserve" text-anchor="start" x="369.56" y="-100.5" font-family="Helvetica,sans-Serif" font-size="10.00" fill="grey">transformBuffer</text>
</g>
<!-- Node8 -->
<g id="Node000008" class="node">
<title>Node8</title>
<g id="a_Node000008"><a xlink:href="class_g_e_descriptor_set.html" target="_top" xlink:title="Clase que describe un conjunto de descriptores.">
<polygon fill="white" stroke="#666666" points="549.5,-183 459.25,-183 459.25,-163 549.5,-163 549.5,-183"/>
<text xml:space="preserve" text-anchor="middle" x="504.38" y="-169.5" font-family="Helvetica,sans-Serif" font-size="10.00">GEDescriptorSet</text>
</a>
</g>
</g>
<!-- Node8&#45;&gt;Node2 -->
<g id="edge7_Node000002_Node000008" class="edge">
<title>Node8&#45;&gt;Node2</title>
<g id="a_edge7_Node000002_Node000008"><a xlink:title=" ">
<path fill="none" stroke="#9a32cd" stroke-dasharray="5,2" d="M494.73,-152.71C484.58,-134.59 466.82,-108.35 443.38,-95 414.75,-78.71 320.31,-71.78 272.15,-69.25"/>
<polygon fill="#9a32cd" stroke="#9a32cd" points="491.57,-154.21 499.34,-161.41 497.75,-150.93 491.57,-154.21"/>
</a>
</g>
<text xml:space="preserve" text-anchor="start" x="492.34" y="-116.5" font-family="Helvetica,sans-Serif" font-size="10.00" fill="grey">dset</text>
</g>
</g>
</svg>
