<?xml version="1.0" encoding="UTF-8" standalone="no"?>
<!DOCTYPE svg PUBLIC "-//W3C//DTD SVG 1.1//EN"
 "http://www.w3.org/Graphics/SVG/1.1/DTD/svg11.dtd">
<!-- Generated by graphviz version 14.1.2 (20260124.0452)
 -->
<!-- Title: GEBalljoint::destroyRecursive Pages: 1 -->
<svg width="311pt" height="66pt"
 viewBox="0.00 0.00 311.00 66.00" xmlns="http://www.w3.org/2000/svg" xmlns:xlink="http://www.w3.org/1999/xlink">
<g id="graph0" class="graph" transform="scale(1 1) rotate(0) translate(4 62)">
<title>GEBalljoint::destroyRecursive</title>
<!-- Node1 -->
<g id="Node000001" class="node">
<title>Node1</title>
<g id="a_Node000001"><a xlink:title="Destruye recursivamente esta articulación y sus hijas.">
<polygon fill="#999999" stroke="#666666" points="147.25,-39 0,-39 0,-19 147.25,-19 147.25,-39"/>
<text xml:space="preserve" text-anchor="middle" x="73.62" y="-25.5" font-family="Helvetica,sans-Serif" font-size="10.00">GEBalljoint::destroyRecursive</text>
</a>
</g>
</g>
<!-- Node2 -->
<g id="Node000002" class="node">
<title>Node2</title>
<g id="a_Node000002"><a xlink:href="class_g_e_balljoint.html#ae61d59436dfd3ecde5bfc3d73bc16c48" target="_top" xlink:title="Destruye los buffers de las piezas.">
<polygon fill="white" stroke="#666666" points="294.5,-58 191.5,-58 191.5,-38 294.5,-38 294.5,-58"/>
<text xml:space="preserve" text-anchor="middle" x="243" y="-44.5" font-family="Helvetica,sans-Serif" font-size="10.00">GEBalljoint::destroy</text>
</a>
</g>
</g>
<!-- Node1&#45;&gt;Node2 -->
<g id="edge1_Node000001_Node000002" class="edge">
<title>Node1&#45;&gt;Node2</title>
<g id="a_edge1_Node000001_Node000002"><a xlink:title=" ">
<path fill="none" stroke="#63b8ff" d="M147.55,-37.28C158.42,-38.51 169.53,-39.77 180.15,-40.98"/>
<polygon fill="#63b8ff" stroke="#63b8ff" points="179.59,-44.44 189.92,-42.09 180.38,-37.48 179.59,-44.44"/>
</a>
</g>
</g>
<!-- Node3 -->
<g id="Node000003" class="node">
<title>Node3</title>
<g id="a_Node000003"><a xlink:href="class_g_e_balljoint.html#a0f468b4618ae46410622a32a83569714" target="_top" xlink:title="Construye una articulación.">
<polygon fill="white" stroke="#666666" points="302.75,-20 183.25,-20 183.25,0 302.75,0 302.75,-20"/>
<text xml:space="preserve" text-anchor="middle" x="243" y="-6.5" font-family="Helvetica,sans-Serif" font-size="10.00">GEBalljoint::GEBalljoint</text>
</a>
</g>
</g>
<!-- Node1&#45;&gt;Node3 -->
<g id="edge2_Node000001_Node000003" class="edge">
<title>Node1&#45;&gt;Node3</title>
<g id="a_edge2_Node000001_Node000003"><a xlink:title=" ">
<path fill="none" stroke="#63b8ff" d="M147.55,-20.72C155.48,-19.82 163.54,-18.91 171.45,-18.01"/>
<polygon fill="#63b8ff" stroke="#63b8ff" points="171.83,-21.49 181.37,-16.88 171.04,-14.53 171.83,-21.49"/>
</a>
</g>
</g>
</g>
</svg>
