<?xml version="1.0" encoding="UTF-8" standalone="no"?>
<!DOCTYPE svg PUBLIC "-//W3C//DTD SVG 1.1//EN"
 "http://www.w3.org/Graphics/SVG/1.1/DTD/svg11.dtd">
<!-- Generated by graphviz version 14.1.2 (20260124.0452)
 -->
<!-- Title: pugi::xml_document Pages: 1 -->
<svg width="206pt" height="293pt"
 viewBox="0.00 0.00 206.00 293.00" xmlns="http://www.w3.org/2000/svg" xmlns:xlink="http://www.w3.org/1999/xlink">

<svg id="main" version="1.1" xmlns="http://www.w3.org/2000/svg" xmlns:xlink="http://www.w3.org/1999/xlink" xml:space="preserve">

<style type="text/css"><![CDATA[
.node, .edge {opacity: 0.7;}
.node.selected, .edge.selected {opacity: 1;}
.edge:hover path { stroke: red; }
.edge:hover polygon { stroke: red; fill: red; }
]]></style>
<script type="application/ecmascript" xlink:href="svg.min.js"/>
<svg id="graph" class="graph">
<g id="graph0" class="graph" transform="scale(1 1) rotate(0) translate(4 289)">
<title>pugi::xml_document</title>
<!-- Node1 -->
<g id="Node000001" class="node">
<title>Node1</title>
<g id="a_Node000001"><a xlink:title=" ">
<polygon fill="#999999" stroke="#666666" points="107.88,-20 4.13,-20 4.13,0 107.88,0 107.88,-20"/>
<text xml:space="preserve" text-anchor="middle" x="56" y="-6.5" font-family="Helvetica,sans-Serif" font-size="10.00">pugi::xml_document</text>
</a>
</g>
</g>
<!-- Node2 -->
<g id="Node000002" class="node">
<title>Node2</title>
<g id="a_Node000002"><a xlink:href="classpugi_1_1xml__node.html" target="_top" xlink:title=" ">
<polygon fill="white" stroke="#666666" points="97,-77 15,-77 15,-57 97,-57 97,-77"/>
<text xml:space="preserve" text-anchor="middle" x="56" y="-63.5" font-family="Helvetica,sans-Serif" font-size="10.00">pugi::xml_node</text>
</a>
</g>
</g>
<!-- Node2&#45;&gt;Node1 -->
<g id="edge1_Node000001_Node000002" class="edge">
<title>Node2&#45;&gt;Node1</title>
<g id="a_edge1_Node000001_Node000002"><a xlink:title=" ">
<path fill="none" stroke="#63b8ff" d="M56,-45.69C56,-36.97 56,-27.22 56,-20.28"/>
<polygon fill="#63b8ff" stroke="#63b8ff" points="52.5,-45.4 56,-55.4 59.5,-45.4 52.5,-45.4"/>
</a>
</g>
</g>
<!-- Node3 -->
<g id="Node000003" class="node">
<title>Node3</title>
<g id="a_Node000003"><a xlink:href="structpugi_1_1xml__node__struct.html" target="_top" xlink:title=" ">
<polygon fill="white" stroke="#666666" points="112,-174 0,-174 0,-154 112,-154 112,-174"/>
<text xml:space="preserve" text-anchor="middle" x="56" y="-160.5" font-family="Helvetica,sans-Serif" font-size="10.00">pugi::xml_node_struct</text>
</a>
</g>
</g>
<!-- Node3&#45;&gt;Node2 -->
<g id="edge2_Node000002_Node000003" class="edge">
<title>Node3&#45;&gt;Node2</title>
<g id="a_edge2_Node000002_Node000003"><a xlink:title=" ">
<path fill="none" stroke="#9a32cd" stroke-dasharray="5,2" d="M56,-142.18C56,-122.03 56,-92.4 56,-77.42"/>
<polygon fill="#9a32cd" stroke="#9a32cd" points="52.5,-142.03 56,-152.03 59.5,-142.03 52.5,-142.03"/>
</a>
</g>
<text xml:space="preserve" text-anchor="start" x="59" y="-100.5" font-family="Helvetica,sans-Serif" font-size="10.00" fill="grey">_root</text>
</g>
<!-- Node3&#45;&gt;Node3 -->
<g id="edge3_Node000003_Node000003" class="edge">
<title>Node3&#45;&gt;Node3</title>
<g id="a_edge3_Node000003_Node000003"><a xlink:title=" ">
<path fill="none" stroke="#9a32cd" stroke-dasharray="5,2" d="M100.93,-175.24C116.96,-175.46 130,-171.71 130,-164 130,-154.51 110.24,-151.02 89.49,-153.54"/>
<polygon fill="#9a32cd" stroke="#9a32cd" points="101.21,-171.75 91,-174.56 100.73,-178.74 101.21,-171.75"/>
</a>
</g>
<text xml:space="preserve" text-anchor="start" x="133" y="-184.5" font-family="Helvetica,sans-Serif" font-size="10.00" fill="grey">first_child</text>
<text xml:space="preserve" text-anchor="start" x="133" y="-168.5" font-family="Helvetica,sans-Serif" font-size="10.00" fill="grey">next_sibling</text>
<text xml:space="preserve" text-anchor="start" x="133" y="-152.5" font-family="Helvetica,sans-Serif" font-size="10.00" fill="grey">parent</text>
<text xml:space="preserve" text-anchor="start" x="133" y="-136.5" font-family="Helvetica,sans-Serif" font-size="10.00" fill="grey">prev_sibling_c</text>
</g>
<!-- Node4 -->
<g id="Node000004" class="node">
<title>Node4</title>
<g id="a_Node000004"><a xlink:href="structpugi_1_1xml__attribute__struct.html" target="_top" xlink:title=" ">
<polygon fill="white" stroke="#666666" points="104.12,-284 7.88,-284 7.88,-252 104.12,-252 104.12,-284"/>
<text xml:space="preserve" text-anchor="start" x="15.88" y="-270.5" font-family="Helvetica,sans-Serif" font-size="10.00">pugi::xml_attribute</text>
<text xml:space="preserve" text-anchor="middle" x="56" y="-258.5" font-family="Helvetica,sans-Serif" font-size="10.00">_struct</text>
</a>
</g>
</g>
<!-- Node4&#45;&gt;Node3 -->
<g id="edge4_Node000003_Node000004" class="edge">
<title>Node4&#45;&gt;Node3</title>
<g id="a_edge4_Node000003_Node000004"><a xlink:title=" ">
<path fill="none" stroke="#9a32cd" stroke-dasharray="5,2" d="M56,-240.04C56,-218.28 56,-188.95 56,-174.23"/>
<polygon fill="#9a32cd" stroke="#9a32cd" points="52.5,-239.99 56,-249.99 59.5,-239.99 52.5,-239.99"/>
</a>
</g>
<text xml:space="preserve" text-anchor="start" x="59" y="-220.5" font-family="Helvetica,sans-Serif" font-size="10.00" fill="grey">first_attribute</text>
</g>
<!-- Node4&#45;&gt;Node4 -->
<g id="edge5_Node000004_Node000004" class="edge">
<title>Node4&#45;&gt;Node4</title>
<g id="a_edge5_Node000004_Node000004"><a xlink:title=" ">
<path fill="none" stroke="#9a32cd" stroke-dasharray="5,2" d="M115.57,-273.97C119.65,-272.6 122.12,-270.61 122.12,-268 122.12,-263.49 114.71,-260.83 104.44,-260.02"/>
<polygon fill="#9a32cd" stroke="#9a32cd" points="115.15,-270.49 105.93,-275.71 116.39,-277.38 115.15,-270.49"/>
</a>
</g>
<text xml:space="preserve" text-anchor="start" x="125.12" y="-272.5" font-family="Helvetica,sans-Serif" font-size="10.00" fill="grey">next_attribute</text>
<text xml:space="preserve" text-anchor="start" x="125.12" y="-256.5" font-family="Helvetica,sans-Serif" font-size="10.00" fill="grey">prev_attribute_c</text>
</g>
</g>
</svg>
</svg>

<style type='text/css'>
<![CDATA[
[data-mouse-over-selected='false'] { opacity: 0.7; }
[data-mouse-over-selected='true']  { opacity: 1.0; }
]]>
</style>
<script type="application/ecmascript"><![CDATA[
document.addEventListener('DOMContentLoaded', (event) => {
  highlightEdges();
  highlightAdjacentNodes();
});
]]></script>
</svg>
