<?xml version="1.0" encoding="UTF-8" standalone="no"?>
<!DOCTYPE svg PUBLIC "-//W3C//DTD SVG 1.1//EN"
 "http://www.w3.org/Graphics/SVG/1.1/DTD/svg11.dtd">
<!-- Generated by graphviz version 14.1.2 (20260124.0452)
 -->
<!-- Title: GEAnimation::addKeyframe Pages: 1 -->
<svg width="460pt" height="40pt"
 viewBox="0.00 0.00 460.00 40.00" xmlns="http://www.w3.org/2000/svg" xmlns:xlink="http://www.w3.org/1999/xlink">
<g id="graph0" class="graph" transform="scale(1 1) rotate(0) translate(4 36)">
<title>GEAnimation::addKeyframe</title>
<!-- Node1 -->
<g id="Node000001" class="node">
<title>Node1</title>
<g id="a_Node000001"><a xlink:title="A침ade un keyframe a la animaci칩n.">
<polygon fill="#999999" stroke="#666666" points="452.25,-26 314.75,-26 314.75,-6 452.25,-6 452.25,-26"/>
<text xml:space="preserve" text-anchor="middle" x="383.5" y="-12.5" font-family="Helvetica,sans-Serif" font-size="10.00">GEAnimation::addKeyframe</text>
</a>
</g>
</g>
<!-- Node2 -->
<g id="Node000002" class="node">
<title>Node2</title>
<g id="a_Node000002"><a xlink:href="class_g_e_scene.html#aebca9f0f770129e8aa2df69a4fa80e63" target="_top" xlink:title="Crea la animaci칩n de tiro libre.">
<polygon fill="white" stroke="#666666" points="278.75,-32 142,-32 142,0 278.75,0 278.75,-32"/>
<text xml:space="preserve" text-anchor="start" x="150" y="-18.5" font-family="Helvetica,sans-Serif" font-size="10.00">GEScene::createBasketball</text>
<text xml:space="preserve" text-anchor="middle" x="210.38" y="-6.5" font-family="Helvetica,sans-Serif" font-size="10.00">ThrowAnimation</text>
</a>
</g>
</g>
<!-- Node1&#45;&gt;Node2 -->
<g id="edge1_Node000001_Node000002" class="edge">
<title>Node1&#45;&gt;Node2</title>
<g id="a_edge1_Node000001_Node000002"><a xlink:title=" ">
<path fill="none" stroke="#63b8ff" d="M303.07,-16C295.02,-16 286.9,-16 278.99,-16"/>
<polygon fill="#63b8ff" stroke="#63b8ff" points="302.86,-19.5 312.86,-16 302.86,-12.5 302.86,-19.5"/>
</a>
</g>
</g>
<!-- Node3 -->
<g id="Node000003" class="node">
<title>Node3</title>
<g id="a_Node000003"><a xlink:href="class_g_e_scene.html#acd8ea9948176d36d93ce1f86a4f3d186" target="_top" xlink:title="Construye la escena y crea los objetos gr치ficos.">
<polygon fill="white" stroke="#666666" points="106,-26 0,-26 0,-6 106,-6 106,-26"/>
<text xml:space="preserve" text-anchor="middle" x="53" y="-12.5" font-family="Helvetica,sans-Serif" font-size="10.00">GEScene::GEScene</text>
</a>
</g>
</g>
<!-- Node2&#45;&gt;Node3 -->
<g id="edge2_Node000002_Node000003" class="edge">
<title>Node2&#45;&gt;Node3</title>
<g id="a_edge2_Node000002_Node000003"><a xlink:title=" ">
<path fill="none" stroke="#63b8ff" d="M130.43,-16C122.16,-16 113.91,-16 106.05,-16"/>
<polygon fill="#63b8ff" stroke="#63b8ff" points="130.16,-19.5 140.16,-16 130.16,-12.5 130.16,-19.5"/>
</a>
</g>
</g>
</g>
</svg>
