<?xml version="1.0" encoding="UTF-8" standalone="no"?>
<!DOCTYPE svg PUBLIC "-//W3C//DTD SVG 1.1//EN"
 "http://www.w3.org/Graphics/SVG/1.1/DTD/svg11.dtd">
<!-- Generated by graphviz version 14.1.2 (20260124.0452)
 -->
<!-- Title: xpath_node_set_raw::first Pages: 1 -->
<!--zoomable 310 -->

<svg id="main" version="1.1" xmlns="http://www.w3.org/2000/svg" xmlns:xlink="http://www.w3.org/1999/xlink" xml:space="preserve" onload="init(evt)">

<style type="text/css"><![CDATA[
.node, .edge {opacity: 0.7;}
.node.selected, .edge.selected {opacity: 1;}
.edge:hover path { stroke: red; }
.edge:hover polygon { stroke: red; fill: red; }
]]></style>

<defs>
  <circle id="rim" cx="0" cy="0" r="7"/>
  <circle id="rim2" cx="0" cy="0" r="3.5"/>
  <g id="zoomPlus">
    <use xlink:href="#rim" fill="#404040"><set attributeName="fill" to="#808080" begin="zoomplus.mouseover" end="zoomplus.mouseout"/></use>
    <path d="M-4,0h8M0,-4v8" fill="none" stroke="white" stroke-width="1.5" pointer-events="none"/>
  </g>
  <g id="zoomMin">
    <use xlink:href="#rim" fill="#404040"><set attributeName="fill" to="#808080" begin="zoomminus.mouseover" end="zoomminus.mouseout"/></use>
    <path d="M-4,0h8" fill="none" stroke="white" stroke-width="1.5" pointer-events="none"/>
  </g>
  <g id="arrowUp" transform="translate(30 24)">
    <use xlink:href="#rim"/>
    <path pointer-events="none" fill="none" stroke="white" stroke-width="1.5" d="M0,-3.0v7 M-2.5,-0.5L0,-3.0L2.5,-0.5"/>
  </g>
  <g id="arrowRight" transform="rotate(90) translate(36 -43)">
    <use xlink:href="#rim"/>
    <path pointer-events="none" fill="none" stroke="white" stroke-width="1.5" d="M0,-3.0v7 M-2.5,-0.5L0,-3.0L2.5,-0.5"/>
  </g>
  <g id="arrowDown" transform="rotate(180) translate(-30 -48)">
    <use xlink:href="#rim"/>
    <path pointer-events="none" fill="none" stroke="white" stroke-width="1.5" d="M0,-3.0v7 M-2.5,-0.5L0,-3.0L2.5,-0.5"/>
  </g>
  <g id="arrowLeft" transform="rotate(270) translate(-36 17)">
    <use xlink:href="#rim"/>
    <path pointer-events="none" fill="none" stroke="white" stroke-width="1.5" d="M0,-3.0v7 M-2.5,-0.5L0,-3.0L2.5,-0.5"/>
  </g>
  <g id="resetDef">
    <use xlink:href="#rim2" fill="#404040"><set attributeName="fill" to="#808080" begin="reset.mouseover" end="reset.mouseout"/></use>
  </g>
</defs>
<script type="application/ecmascript">
var viewWidth = 1374;
var viewHeight = 310;
var sectionId = 'dynsection-6';
</script>
<script type="application/ecmascript" xlink:href="svg.min.js"/>
<svg id="graph" class="graph">
<g id="viewport">
<title>xpath_node_set_raw::first</title>
<!-- Node1 -->
<g id="Node000001" class="node">
<title>Node1</title>
<g id="a_Node000001"><a xlink:title=" ">
<polygon fill="#999999" stroke="#666666" points="1365.75,-230 1259.75,-230 1259.75,-198 1365.75,-198 1365.75,-230"/>
<text xml:space="preserve" text-anchor="start" x="1267.75" y="-216.5" font-family="Helvetica,sans-Serif" font-size="10.00">xpath_node_set_raw</text>
<text xml:space="preserve" text-anchor="middle" x="1312.75" y="-204.5" font-family="Helvetica,sans-Serif" font-size="10.00">::first</text>
</a>
</g>
</g>
<!-- Node2 -->
<g id="Node000002" class="node">
<title>Node2</title>
<g id="a_Node000002"><a xlink:href="classxpath__ast__node.html#a6b675237a590548b68d0e0b97518b6df" target="_top" xlink:title=" ">
<polygon fill="white" stroke="#666666" points="1223.75,-230 1114.75,-230 1114.75,-198 1223.75,-198 1223.75,-230"/>
<text xml:space="preserve" text-anchor="start" x="1122.75" y="-216.5" font-family="Helvetica,sans-Serif" font-size="10.00">xpath_ast_node::eval</text>
<text xml:space="preserve" text-anchor="middle" x="1169.25" y="-204.5" font-family="Helvetica,sans-Serif" font-size="10.00">_string</text>
</a>
</g>
</g>
<!-- Node1&#45;&gt;Node2 -->
<g id="edge1_Node000001_Node000002" class="edge">
<title>Node1&#45;&gt;Node2</title>
<g id="a_edge1_Node000001_Node000002"><a xlink:title=" ">
<path fill="none" stroke="#63b8ff" d="M1247.97,-214C1240.04,-214 1231.98,-214 1224.22,-214"/>
<polygon fill="#63b8ff" stroke="#63b8ff" points="1247.95,-217.5 1257.95,-214 1247.95,-210.5 1247.95,-217.5"/>
</a>
</g>
</g>
<!-- Node3 -->
<g id="Node000003" class="node">
<title>Node3</title>
<g id="a_Node000003"><a xlink:href="classxpath__ast__node.html#a98dd7f6e67fe2c56c63056eed835d6a4" target="_top" xlink:title=" ">
<polygon fill="white" stroke="#666666" points="1078.75,-183 934.5,-183 934.5,-163 1078.75,-163 1078.75,-183"/>
<text xml:space="preserve" text-anchor="middle" x="1006.62" y="-169.5" font-family="Helvetica,sans-Serif" font-size="10.00">xpath_ast_node::compare_eq</text>
</a>
</g>
</g>
<!-- Node2&#45;&gt;Node3 -->
<g id="edge2_Node000002_Node000003" class="edge">
<title>Node2&#45;&gt;Node3</title>
<g id="a_edge2_Node000002_Node000003"><a xlink:title=" ">
<path fill="none" stroke="#63b8ff" d="M1103.32,-197.43C1084.88,-192.72 1065.31,-187.73 1048.71,-183.49"/>
<polygon fill="#63b8ff" stroke="#63b8ff" points="1102.3,-200.78 1112.85,-199.86 1104.03,-193.99 1102.3,-200.78"/>
</a>
</g>
</g>
<!-- Node4 -->
<g id="Node000004" class="node">
<title>Node4</title>
<g id="a_Node000004"><a xlink:href="classxpath__ast__node.html#ab7f965a92023bc2704b8e6fd9f3d7c14" target="_top" xlink:title=" ">
<polygon fill="white" stroke="#666666" points="898.5,-142 789.5,-142 789.5,-110 898.5,-110 898.5,-142"/>
<text xml:space="preserve" text-anchor="start" x="797.5" y="-128.5" font-family="Helvetica,sans-Serif" font-size="10.00">xpath_ast_node::eval</text>
<text xml:space="preserve" text-anchor="middle" x="844" y="-116.5" font-family="Helvetica,sans-Serif" font-size="10.00">_boolean</text>
</a>
</g>
</g>
<!-- Node2&#45;&gt;Node4 -->
<g id="edge23_Node000002_Node000004" class="edge">
<title>Node2&#45;&gt;Node4</title>
<g id="a_edge23_Node000002_Node000004"><a xlink:title=" ">
<path fill="none" stroke="#63b8ff" d="M1148.71,-189.71C1131.52,-173.86 1105.19,-154.8 1078.75,-145 1019.73,-123.13 947.13,-117.44 898.65,-118.34"/>
<polygon fill="#63b8ff" stroke="#63b8ff" points="1146.13,-192.09 1155.73,-196.59 1151.03,-187.09 1146.13,-192.09"/>
</a>
</g>
</g>
<!-- Node9 -->
<g id="Node000009" class="node">
<title>Node9</title>
<g id="a_Node000009"><a xlink:href="classxpath__ast__node.html#a92dd7048e28d486bc7f382d1fc6f1de6" target="_top" xlink:title=" ">
<polygon fill="white" stroke="#666666" points="750.88,-186 641.88,-186 641.88,-154 750.88,-154 750.88,-186"/>
<text xml:space="preserve" text-anchor="start" x="649.88" y="-172.5" font-family="Helvetica,sans-Serif" font-size="10.00">xpath_ast_node::eval</text>
<text xml:space="preserve" text-anchor="middle" x="696.38" y="-160.5" font-family="Helvetica,sans-Serif" font-size="10.00">_number</text>
</a>
</g>
</g>
<!-- Node2&#45;&gt;Node9 -->
<g id="edge24_Node000002_Node000009" class="edge">
<title>Node2&#45;&gt;Node9</title>
<g id="a_edge24_Node000002_Node000009"><a xlink:title=" ">
<path fill="none" stroke="#63b8ff" d="M1103.27,-204.24C1027.7,-197.49 899.28,-189.12 789.5,-176 777.11,-174.52 763.84,-172.57 751.34,-170.82"/>
<polygon fill="#63b8ff" stroke="#63b8ff" points="1102.7,-207.7 1112.98,-205.12 1103.34,-200.73 1102.7,-207.7"/>
</a>
</g>
</g>
<!-- Node3&#45;&gt;Node4 -->
<g id="edge3_Node000003_Node000004" class="edge">
<title>Node3&#45;&gt;Node4</title>
<g id="a_edge3_Node000003_Node000004"><a xlink:title=" ">
<path fill="none" stroke="#63b8ff" d="M975.15,-158.65C953.59,-151.02 924.13,-142.07 898.68,-135.3"/>
<polygon fill="#63b8ff" stroke="#63b8ff" points="973.92,-161.93 984.51,-162.1 976.33,-155.36 973.92,-161.93"/>
</a>
</g>
</g>
<!-- Node4&#45;&gt;Node2 -->
<g id="edge22_Node000004_Node000002" class="edge">
<title>Node4&#45;&gt;Node2</title>
<g id="a_edge22_Node000004_Node000002"><a xlink:title=" ">
<path fill="none" stroke="#63b8ff" d="M910.13,-133.16C958.11,-136.4 1024.23,-142.79 1078.75,-163 1100.85,-171.19 1122.88,-185.85 1139.55,-197.56"/>
<polygon fill="#63b8ff" stroke="#63b8ff" points="910.36,-129.67 900.16,-132.51 909.91,-136.65 910.36,-129.67"/>
</a>
</g>
</g>
<!-- Node4&#45;&gt;Node3 -->
<g id="edge12_Node000004_Node000003" class="edge">
<title>Node4&#45;&gt;Node3</title>
<g id="a_edge12_Node000004_Node000003"><a xlink:title=" ">
<path fill="none" stroke="#63b8ff" d="M891.91,-145.93C909.34,-151.63 929.33,-157.59 947.64,-162.54"/>
<polygon fill="#63b8ff" stroke="#63b8ff" points="893.45,-142.75 882.86,-142.9 891.23,-149.39 893.45,-142.75"/>
</a>
</g>
</g>
<!-- Node5 -->
<g id="Node000005" class="node">
<title>Node5</title>
<g id="a_Node000005"><a xlink:href="classxpath__ast__node.html#ab4e5bbd3f2e83c86a43349374b4bfc22" target="_top" xlink:title=" ">
<polygon fill="white" stroke="#666666" points="753.5,-117 639.25,-117 639.25,-85 753.5,-85 753.5,-117"/>
<text xml:space="preserve" text-anchor="start" x="647.25" y="-103.5" font-family="Helvetica,sans-Serif" font-size="10.00">xpath_ast_node::apply</text>
<text xml:space="preserve" text-anchor="middle" x="696.38" y="-91.5" font-family="Helvetica,sans-Serif" font-size="10.00">_predicate_boolean</text>
</a>
</g>
</g>
<!-- Node4&#45;&gt;Node5 -->
<g id="edge4_Node000004_Node000005" class="edge">
<title>Node4&#45;&gt;Node5</title>
<g id="a_edge4_Node000004_Node000005"><a xlink:title=" ">
<path fill="none" stroke="#63b8ff" d="M777.96,-114.84C769.94,-113.46 761.78,-112.06 753.89,-110.7"/>
<polygon fill="#63b8ff" stroke="#63b8ff" points="777.25,-118.26 787.7,-116.51 778.43,-111.36 777.25,-118.26"/>
</a>
</g>
</g>
<!-- Node4&#45;&gt;Node9 -->
<g id="edge13_Node000004_Node000009" class="edge">
<title>Node4&#45;&gt;Node9</title>
<g id="a_edge13_Node000004_Node000009"><a xlink:title=" ">
<path fill="none" stroke="#63b8ff" d="M778.37,-138.82C762.56,-143.45 746.23,-148.66 732.42,-153.54"/>
<polygon fill="#63b8ff" stroke="#63b8ff" points="779.08,-142.25 787.73,-136.13 777.16,-135.52 779.08,-142.25"/>
</a>
</g>
</g>
<!-- Node6 -->
<g id="Node000006" class="node">
<title>Node6</title>
<g id="a_Node000006"><a xlink:href="classxpath__ast__node.html#a7e35f265c9e0712a16e1d8a9db4c7672" target="_top" xlink:title=" ">
<polygon fill="white" stroke="#666666" points="439.5,-158 325.25,-158 325.25,-126 439.5,-126 439.5,-158"/>
<text xml:space="preserve" text-anchor="start" x="333.25" y="-144.5" font-family="Helvetica,sans-Serif" font-size="10.00">xpath_ast_node::apply</text>
<text xml:space="preserve" text-anchor="middle" x="382.38" y="-132.5" font-family="Helvetica,sans-Serif" font-size="10.00">_predicate</text>
</a>
</g>
</g>
<!-- Node5&#45;&gt;Node6 -->
<g id="edge5_Node000005_Node000006" class="edge">
<title>Node5&#45;&gt;Node6</title>
<g id="a_edge5_Node000005_Node000006"><a xlink:title=" ">
<path fill="none" stroke="#63b8ff" d="M627.53,-90.12C583.58,-85.26 525.43,-83 475.5,-95 450.88,-100.92 425.44,-114.57 407.54,-125.65"/>
<polygon fill="#63b8ff" stroke="#63b8ff" points="627.12,-93.59 637.46,-91.29 627.94,-86.64 627.12,-93.59"/>
</a>
</g>
</g>
<!-- Node7 -->
<g id="Node000007" class="node">
<title>Node7</title>
<g id="a_Node000007"><a xlink:href="classxpath__ast__node.html#a68cace396dd4eeae67ecfcd34a3a8285" target="_top" xlink:title=" ">
<polygon fill="white" stroke="#666666" points="289.25,-202 180.25,-202 180.25,-170 289.25,-170 289.25,-202"/>
<text xml:space="preserve" text-anchor="start" x="188.25" y="-188.5" font-family="Helvetica,sans-Serif" font-size="10.00">xpath_ast_node::eval</text>
<text xml:space="preserve" text-anchor="middle" x="234.75" y="-176.5" font-family="Helvetica,sans-Serif" font-size="10.00">_node_set</text>
</a>
</g>
</g>
<!-- Node6&#45;&gt;Node7 -->
<g id="edge6_Node000006_Node000007" class="edge">
<title>Node6&#45;&gt;Node7</title>
<g id="a_edge6_Node000006_Node000007"><a xlink:title=" ">
<path fill="none" stroke="#63b8ff" d="M316.34,-161.65C307.38,-164.36 298.26,-167.11 289.54,-169.75"/>
<polygon fill="#63b8ff" stroke="#63b8ff" points="317.14,-165.06 325.7,-158.82 315.12,-158.36 317.14,-165.06"/>
</a>
</g>
</g>
<!-- Node7&#45;&gt;Node2 -->
<g id="edge11_Node000007_Node000002" class="edge">
<title>Node7&#45;&gt;Node2</title>
<g id="a_edge11_Node000007_Node000002"><a xlink:title=" ">
<path fill="none" stroke="#63b8ff" d="M269.49,-208.34C323.75,-242.04 434.82,-302 538.38,-302 845,-302 845,-302 845,-302 952.89,-302 1074.15,-255.79 1132.75,-230.35"/>
<polygon fill="#63b8ff" stroke="#63b8ff" points="271.64,-205.56 261.32,-203.18 267.9,-211.48 271.64,-205.56"/>
</a>
</g>
</g>
<!-- Node7&#45;&gt;Node3 -->
<g id="edge7_Node000007_Node000003" class="edge">
<title>Node7&#45;&gt;Node3</title>
<g id="a_edge7_Node000007_Node000003"><a xlink:title=" ">
<path fill="none" stroke="#63b8ff" d="M300.75,-189.1C348.96,-191.24 416.32,-193.89 475.5,-195 663.52,-198.53 711.21,-201.94 898.5,-185 910.06,-183.95 922.3,-182.71 934.22,-181.43"/>
<polygon fill="#63b8ff" stroke="#63b8ff" points="301.19,-185.62 291.04,-188.66 300.88,-192.61 301.19,-185.62"/>
</a>
</g>
</g>
<!-- Node7&#45;&gt;Node4 -->
<g id="edge10_Node000007_Node000004" class="edge">
<title>Node7&#45;&gt;Node4</title>
<g id="a_edge10_Node000007_Node000004"><a xlink:title=" ">
<path fill="none" stroke="#63b8ff" d="M260.64,-162.07C277.6,-147.03 301.25,-128.38 325.25,-117 387.2,-87.62 407.54,-91.07 475.5,-82 486.07,-80.59 723.32,-68.14 753.5,-76 778.48,-82.5 803.87,-97.68 821.2,-109.62"/>
<polygon fill="#63b8ff" stroke="#63b8ff" points="258.58,-159.21 253.54,-168.53 263.29,-164.39 258.58,-159.21"/>
</a>
</g>
</g>
<!-- Node8 -->
<g id="Node000008" class="node">
<title>Node8</title>
<g id="a_Node000008"><a xlink:href="classxpath__ast__node.html#abb6e4c529276eaf882233dbb6e04e111" target="_top" xlink:title=" ">
<polygon fill="white" stroke="#666666" points="144.25,-196 0,-196 0,-176 144.25,-176 144.25,-196"/>
<text xml:space="preserve" text-anchor="middle" x="72.12" y="-182.5" font-family="Helvetica,sans-Serif" font-size="10.00">xpath_ast_node::compare_rel</text>
</a>
</g>
</g>
<!-- Node7&#45;&gt;Node8 -->
<g id="edge8_Node000007_Node000008" class="edge">
<title>Node7&#45;&gt;Node8</title>
<g id="a_edge8_Node000007_Node000008"><a xlink:title=" ">
<path fill="none" stroke="#63b8ff" d="M168.48,-186C160.61,-186 152.55,-186 144.6,-186"/>
<polygon fill="#63b8ff" stroke="#63b8ff" points="168.3,-189.5 178.3,-186 168.3,-182.5 168.3,-189.5"/>
</a>
</g>
</g>
<!-- Node8&#45;&gt;Node4 -->
<g id="edge9_Node000008_Node000004" class="edge">
<title>Node8&#45;&gt;Node4</title>
<g id="a_edge9_Node000008_Node000004"><a xlink:title=" ">
<path fill="none" stroke="#63b8ff" d="M89.21,-167.34C131.74,-120.18 252.75,0 381.38,0 540.38,0 540.38,0 540.38,0 653.06,0 772.47,-75.37 820.79,-109.53"/>
<polygon fill="#63b8ff" stroke="#63b8ff" points="86.78,-164.79 82.77,-174.6 92.02,-169.44 86.78,-164.79"/>
</a>
</g>
</g>
<!-- Node9&#45;&gt;Node2 -->
<g id="edge21_Node000009_Node000002" class="edge">
<title>Node9&#45;&gt;Node2</title>
<g id="a_edge21_Node000009_Node000002"><a xlink:title=" ">
<path fill="none" stroke="#63b8ff" d="M752.3,-188.5C764.52,-190.67 777.43,-192.56 789.5,-194 904.91,-207.79 1040.93,-216.34 1114.48,-217.39"/>
<polygon fill="#63b8ff" stroke="#63b8ff" points="753.28,-185.12 742.8,-186.71 751.98,-192 753.28,-185.12"/>
</a>
</g>
</g>
<!-- Node9&#45;&gt;Node3 -->
<g id="edge18_Node000009_Node000003" class="edge">
<title>Node9&#45;&gt;Node3</title>
<g id="a_edge18_Node000009_Node000003"><a xlink:title=" ">
<path fill="none" stroke="#63b8ff" d="M762.54,-170.63C812.83,-171.12 882.32,-171.8 934.13,-172.3"/>
<polygon fill="#63b8ff" stroke="#63b8ff" points="762.7,-167.14 752.67,-170.54 762.64,-174.14 762.7,-167.14"/>
</a>
</g>
</g>
<!-- Node9&#45;&gt;Node4 -->
<g id="edge20_Node000009_Node000004" class="edge">
<title>Node9&#45;&gt;Node4</title>
<g id="a_edge20_Node000009_Node000004"><a xlink:title=" ">
<path fill="none" stroke="#63b8ff" d="M762.15,-157.14C777.97,-152.51 794.31,-147.29 808.12,-142.4"/>
<polygon fill="#63b8ff" stroke="#63b8ff" points="761.42,-153.71 752.77,-159.83 763.35,-160.44 761.42,-153.71"/>
</a>
</g>
</g>
<!-- Node9&#45;&gt;Node8 -->
<g id="edge19_Node000009_Node000008" class="edge">
<title>Node9&#45;&gt;Node8</title>
<g id="a_edge19_Node000009_Node000008"><a xlink:title=" ">
<path fill="none" stroke="#63b8ff" d="M631.72,-189.17C622.25,-191.47 612.54,-193.52 603.25,-195 417.46,-224.59 367.15,-232.52 180.25,-211 155.97,-208.2 129.18,-201.95 108.47,-196.4"/>
<polygon fill="#63b8ff" stroke="#63b8ff" points="632.4,-192.6 641.23,-186.75 630.68,-185.82 632.4,-192.6"/>
</a>
</g>
</g>
<!-- Node10 -->
<g id="Node000010" class="node">
<title>Node10</title>
<g id="a_Node000010"><a xlink:href="classxpath__ast__node.html#abf2d4b745493f63aebc1c89d9fde8eed" target="_top" xlink:title=" ">
<polygon fill="white" stroke="#666666" points="596.5,-186 482.25,-186 482.25,-154 596.5,-154 596.5,-186"/>
<text xml:space="preserve" text-anchor="start" x="490.25" y="-172.5" font-family="Helvetica,sans-Serif" font-size="10.00">xpath_ast_node::apply</text>
<text xml:space="preserve" text-anchor="middle" x="539.38" y="-160.5" font-family="Helvetica,sans-Serif" font-size="10.00">_predicate_number</text>
</a>
</g>
</g>
<!-- Node9&#45;&gt;Node10 -->
<g id="edge14_Node000009_Node000010" class="edge">
<title>Node9&#45;&gt;Node10</title>
<g id="a_edge14_Node000009_Node000010"><a xlink:title=" ">
<path fill="none" stroke="#63b8ff" d="M630.24,-170C619.18,-170 607.77,-170 596.96,-170"/>
<polygon fill="#63b8ff" stroke="#63b8ff" points="630.09,-173.5 640.08,-170 630.08,-166.5 630.09,-173.5"/>
</a>
</g>
</g>
<!-- Node11 -->
<g id="Node000011" class="node">
<title>Node11</title>
<g id="a_Node000011"><a xlink:href="classxpath__ast__node.html#a8cedd7e15623b9fa431788b8843f1463" target="_top" xlink:title=" ">
<polygon fill="white" stroke="#666666" points="603.25,-136 475.5,-136 475.5,-104 603.25,-104 603.25,-136"/>
<text xml:space="preserve" text-anchor="start" x="483.5" y="-122.5" font-family="Helvetica,sans-Serif" font-size="10.00">xpath_ast_node::apply</text>
<text xml:space="preserve" text-anchor="middle" x="539.38" y="-110.5" font-family="Helvetica,sans-Serif" font-size="10.00">_predicate_number_const</text>
</a>
</g>
</g>
<!-- Node9&#45;&gt;Node11 -->
<g id="edge16_Node000009_Node000011" class="edge">
<title>Node9&#45;&gt;Node11</title>
<g id="a_edge16_Node000009_Node000011"><a xlink:title=" ">
<path fill="none" stroke="#63b8ff" d="M634.03,-150.21C619.94,-145.67 605.11,-140.88 591.51,-136.49"/>
<polygon fill="#63b8ff" stroke="#63b8ff" points="632.59,-153.42 643.18,-153.16 634.74,-146.76 632.59,-153.42"/>
</a>
</g>
</g>
<!-- Node10&#45;&gt;Node6 -->
<g id="edge15_Node000010_Node000006" class="edge">
<title>Node10&#45;&gt;Node6</title>
<g id="a_edge15_Node000010_Node000006"><a xlink:title=" ">
<path fill="none" stroke="#63b8ff" d="M470.91,-157.81C460.6,-155.95 450.04,-154.04 439.99,-152.23"/>
<polygon fill="#63b8ff" stroke="#63b8ff" points="470.03,-161.21 480.49,-159.54 471.27,-154.32 470.03,-161.21"/>
</a>
</g>
</g>
<!-- Node11&#45;&gt;Node6 -->
<g id="edge17_Node000011_Node000006" class="edge">
<title>Node11&#45;&gt;Node6</title>
<g id="a_edge17_Node000011_Node000006"><a xlink:title=" ">
<path fill="none" stroke="#63b8ff" d="M463.95,-130.56C455.85,-131.71 447.71,-132.87 439.88,-133.98"/>
<polygon fill="#63b8ff" stroke="#63b8ff" points="464.42,-134.03 473.83,-129.16 463.44,-127.1 464.42,-134.03"/>
</a>
</g>
</g>
</g>
</svg>

<g id="navigator" transform="translate(0 0)" fill="#404254">
  <rect fill="#f2f5e9" fill-opacity="0.5" stroke="#606060" stroke-width=".5" x="0" y="0" width="60" height="60"/>
  <use id="zoomplus" xlink:href="#zoomPlus" x="17" y="9" onmousedown="handleZoom(evt,'in')"/>
  <use id="zoomminus" xlink:href="#zoomMin" x="42" y="9" onmousedown="handleZoom(evt,'out')"/>
  <use id="reset" xlink:href="#resetDef" x="30" y="36" onmousedown="handleReset()"/>
   <use id="arrowup" xlink:href="#arrowUp" x="0" y="0" onmousedown="handlePan(0,-1)"/>
  <use id="arrowright" xlink:href="#arrowRight" x="0" y="0" onmousedown="handlePan(1,0)"/>
  <use id="arrowdown" xlink:href="#arrowDown" x="0" y="0" onmousedown="handlePan(0,1)"/>
  <use id="arrowleft" xlink:href="#arrowLeft" x="0" y="0" onmousedown="handlePan(-1,0)"/>
</g>
<svg viewBox="0 0 15 15" width="100%" height="30px" preserveAspectRatio="xMaxYMin meet">
 <g id="arrow_out" transform="scale(0.3 0.3)">
  <a xlink:href="classxpath__node__set__raw_a8d937c8fa5c9001a6e40e861686aa5b4_icgraph_org.svg" target="_base">
   <rect id="button" ry="5" rx="5" y="6" x="6" height="38" width="38"
        fill="#f2f5e9" fill-opacity="0.5" stroke="#606060" stroke-width="1.0"/>
   <path id="arrow"
     d="M 11.500037,31.436501 C 11.940474,20.09759 22.043105,11.32322 32.158766,21.979434 L 37.068811,17.246167 C 37.068811,17.246167 37.088388,32 37.088388,32 L 22.160133,31.978069 C 22.160133,31.978069 26.997745,27.140456 26.997745,27.140456 C 18.528582,18.264221 13.291696,25.230495 11.500037,31.436501 z"
     style="fill:#404040;"/>
  </a>
 </g>
</svg>

<style type='text/css'>
<![CDATA[
[data-mouse-over-selected='false'] { opacity: 0.7; }
[data-mouse-over-selected='true']  { opacity: 1.0; }
]]>
</style>
<script type="application/ecmascript"><![CDATA[
document.addEventListener('DOMContentLoaded', (event) => {
  highlightEdges();
  highlightAdjacentNodes();
});
]]></script>
</svg>
