<?xml version="1.0" encoding="UTF-8" standalone="no"?>
<!DOCTYPE svg PUBLIC "-//W3C//DTD SVG 1.1//EN"
 "http://www.w3.org/Graphics/SVG/1.1/DTD/svg11.dtd">
<!-- Generated by graphviz version 14.1.2 (20260124.0452)
 -->
<!-- Title: pugi::xml_node::child Pages: 1 -->
<!--zoomable 222 -->

<svg id="main" version="1.1" xmlns="http://www.w3.org/2000/svg" xmlns:xlink="http://www.w3.org/1999/xlink" xml:space="preserve" onload="init(evt)">

<style type="text/css"><![CDATA[
.node, .edge {opacity: 0.7;}
.node.selected, .edge.selected {opacity: 1;}
.edge:hover path { stroke: red; }
.edge:hover polygon { stroke: red; fill: red; }
]]></style>

<defs>
  <circle id="rim" cx="0" cy="0" r="7"/>
  <circle id="rim2" cx="0" cy="0" r="3.5"/>
  <g id="zoomPlus">
    <use xlink:href="#rim" fill="#404040"><set attributeName="fill" to="#808080" begin="zoomplus.mouseover" end="zoomplus.mouseout"/></use>
    <path d="M-4,0h8M0,-4v8" fill="none" stroke="white" stroke-width="1.5" pointer-events="none"/>
  </g>
  <g id="zoomMin">
    <use xlink:href="#rim" fill="#404040"><set attributeName="fill" to="#808080" begin="zoomminus.mouseover" end="zoomminus.mouseout"/></use>
    <path d="M-4,0h8" fill="none" stroke="white" stroke-width="1.5" pointer-events="none"/>
  </g>
  <g id="arrowUp" transform="translate(30 24)">
    <use xlink:href="#rim"/>
    <path pointer-events="none" fill="none" stroke="white" stroke-width="1.5" d="M0,-3.0v7 M-2.5,-0.5L0,-3.0L2.5,-0.5"/>
  </g>
  <g id="arrowRight" transform="rotate(90) translate(36 -43)">
    <use xlink:href="#rim"/>
    <path pointer-events="none" fill="none" stroke="white" stroke-width="1.5" d="M0,-3.0v7 M-2.5,-0.5L0,-3.0L2.5,-0.5"/>
  </g>
  <g id="arrowDown" transform="rotate(180) translate(-30 -48)">
    <use xlink:href="#rim"/>
    <path pointer-events="none" fill="none" stroke="white" stroke-width="1.5" d="M0,-3.0v7 M-2.5,-0.5L0,-3.0L2.5,-0.5"/>
  </g>
  <g id="arrowLeft" transform="rotate(270) translate(-36 17)">
    <use xlink:href="#rim"/>
    <path pointer-events="none" fill="none" stroke="white" stroke-width="1.5" d="M0,-3.0v7 M-2.5,-0.5L0,-3.0L2.5,-0.5"/>
  </g>
  <g id="resetDef">
    <use xlink:href="#rim2" fill="#404040"><set attributeName="fill" to="#808080" begin="reset.mouseover" end="reset.mouseout"/></use>
  </g>
</defs>
<script type="application/ecmascript">
var viewWidth = 827;
var viewHeight = 222;
var sectionId = 'dynsection-17';
</script>
<script type="application/ecmascript" xlink:href="svg.min.js"/>
<svg id="graph" class="graph">
<g id="viewport">
<title>pugi::xml_node::child</title>
<!-- Node1 -->
<g id="Node000001" class="node">
<title>Node1</title>
<g id="a_Node000001"><a xlink:title=" ">
<polygon fill="#999999" stroke="#666666" points="818.75,-108 710.5,-108 710.5,-88 818.75,-88 818.75,-108"/>
<text xml:space="preserve" text-anchor="middle" x="764.62" y="-94.5" font-family="Helvetica,sans-Serif" font-size="10.00">pugi::xml_node::child</text>
</a>
</g>
</g>
<!-- Node2 -->
<g id="Node000002" class="node">
<title>Node2</title>
<g id="a_Node000002"><a xlink:href="classpugi_1_1xml__node.html#a3e92c57bca8669864b5ab7b54bd5cbca" target="_top" xlink:title=" ">
<polygon fill="white" stroke="#666666" points="656.88,-214 548.62,-214 548.62,-182 656.88,-182 656.88,-214"/>
<text xml:space="preserve" text-anchor="start" x="556.62" y="-200.5" font-family="Helvetica,sans-Serif" font-size="10.00">pugi::xml_node::child</text>
<text xml:space="preserve" text-anchor="middle" x="602.75" y="-188.5" font-family="Helvetica,sans-Serif" font-size="10.00">_value</text>
</a>
</g>
</g>
<!-- Node1&#45;&gt;Node2 -->
<g id="edge1_Node000001_Node000002" class="edge">
<title>Node1&#45;&gt;Node2</title>
<g id="a_edge1_Node000001_Node000002"><a xlink:title=" ">
<path fill="none" stroke="#63b8ff" d="M745.93,-116.27C728.93,-132.96 701.85,-157.35 674.5,-173 668.96,-176.17 662.95,-179.04 656.85,-181.61"/>
<polygon fill="#63b8ff" stroke="#63b8ff" points="748.2,-118.96 752.78,-109.41 743.24,-114.01 748.2,-118.96"/>
</a>
</g>
</g>
<!-- Node3 -->
<g id="Node000003" class="node">
<title>Node3</title>
<g id="a_Node000003"><a xlink:href="classpugi_1_1xml__node.html#aa4f96758e38e9dfd2c085dc5b5869139" target="_top" xlink:title=" ">
<polygon fill="white" stroke="#666666" points="663.62,-164 541.88,-164 541.88,-144 663.62,-144 663.62,-164"/>
<text xml:space="preserve" text-anchor="middle" x="602.75" y="-150.5" font-family="Helvetica,sans-Serif" font-size="10.00">pugi::xml_node::children</text>
</a>
</g>
</g>
<!-- Node1&#45;&gt;Node3 -->
<g id="edge2_Node000001_Node000003" class="edge">
<title>Node1&#45;&gt;Node3</title>
<g id="a_edge2_Node000001_Node000003"><a xlink:title=" ">
<path fill="none" stroke="#63b8ff" d="M730.56,-112.94C713.94,-120.14 693.37,-128.58 674.5,-135 665.47,-138.07 655.66,-140.98 646.3,-143.54"/>
<polygon fill="#63b8ff" stroke="#63b8ff" points="731.72,-116.25 739.47,-109.03 728.91,-109.84 731.72,-116.25"/>
</a>
</g>
</g>
<!-- Node4 -->
<g id="Node000004" class="node">
<title>Node4</title>
<g id="a_Node000004"><a xlink:href="class_g_e_x_m_l_parser.html#af7e66e11e1a8973779770daa1ad6f653" target="_top" xlink:title="Parsea una articulación y sus hijas recursivamente.">
<polygon fill="white" stroke="#666666" points="674.5,-108 531,-108 531,-88 674.5,-88 674.5,-108"/>
<text xml:space="preserve" text-anchor="middle" x="602.75" y="-94.5" font-family="Helvetica,sans-Serif" font-size="10.00">GEXMLParser::parseBalljoint</text>
</a>
</g>
</g>
<!-- Node1&#45;&gt;Node4 -->
<g id="edge3_Node000001_Node000004" class="edge">
<title>Node1&#45;&gt;Node4</title>
<g id="a_edge3_Node000001_Node000004"><a xlink:title=" ">
<path fill="none" stroke="#63b8ff" d="M698.99,-98C691.08,-98 682.96,-98 674.96,-98"/>
<polygon fill="#63b8ff" stroke="#63b8ff" points="698.88,-101.5 708.88,-98 698.88,-94.5 698.88,-101.5"/>
</a>
</g>
</g>
<!-- Node5 -->
<g id="Node000005" class="node">
<title>Node5</title>
<g id="a_Node000005"><a xlink:href="class_g_e_x_m_l_parser.html#acd9fc587fbd992edbb51df00549c1bda" target="_top" xlink:title="Parsea un archivo .skel y devuelve los datos del esqueleto.">
<polygon fill="white" stroke="#666666" points="495,-89 332,-89 332,-69 495,-69 495,-89"/>
<text xml:space="preserve" text-anchor="middle" x="413.5" y="-75.5" font-family="Helvetica,sans-Serif" font-size="10.00">GEXMLParser::parseSkeletonFile</text>
</a>
</g>
</g>
<!-- Node1&#45;&gt;Node5 -->
<g id="edge8_Node000001_Node000005" class="edge">
<title>Node1&#45;&gt;Node5</title>
<g id="a_edge8_Node000001_Node000005"><a xlink:title=" ">
<path fill="none" stroke="#63b8ff" d="M712.48,-85.18C700.13,-82.61 686.91,-80.31 674.5,-79 614.68,-72.69 546.7,-72.95 495.25,-74.65"/>
<polygon fill="#63b8ff" stroke="#63b8ff" points="711.54,-88.55 722.06,-87.26 713.03,-81.71 711.54,-88.55"/>
</a>
</g>
</g>
<!-- Node8 -->
<g id="Node000008" class="node">
<title>Node8</title>
<g id="a_Node000008"><a xlink:href="classpugi_1_1xml__node.html#ae169719bf580569191d0274bf6514bbc" target="_top" xlink:title=" ">
<polygon fill="white" stroke="#666666" points="662.88,-32 542.62,-32 542.62,0 662.88,0 662.88,-32"/>
<text xml:space="preserve" text-anchor="start" x="550.62" y="-18.5" font-family="Helvetica,sans-Serif" font-size="10.00">pugi::xml_node::remove</text>
<text xml:space="preserve" text-anchor="middle" x="602.75" y="-6.5" font-family="Helvetica,sans-Serif" font-size="10.00">_child</text>
</a>
</g>
</g>
<!-- Node1&#45;&gt;Node8 -->
<g id="edge9_Node000001_Node000008" class="edge">
<title>Node1&#45;&gt;Node8</title>
<g id="a_edge9_Node000001_Node000008"><a xlink:title=" ">
<path fill="none" stroke="#63b8ff" d="M737.69,-81.69C720.16,-70.96 696.32,-56.94 674.5,-46 665.08,-41.28 654.73,-36.61 644.93,-32.42"/>
<polygon fill="#63b8ff" stroke="#63b8ff" points="735.59,-84.5 745.93,-86.78 739.26,-78.55 735.59,-84.5"/>
</a>
</g>
</g>
<!-- Node4&#45;&gt;Node4 -->
<g id="edge4_Node000004_Node000004" class="edge">
<title>Node4&#45;&gt;Node4</title>
<g id="a_edge4_Node000004_Node000004"><a xlink:title=" ">
<path fill="none" stroke="#63b8ff" d="M631.36,-119.44C627.68,-123.3 618.14,-126 602.75,-126 574.61,-126 566.04,-116.98 577.03,-108.34"/>
<polygon fill="#63b8ff" stroke="#63b8ff" points="634.76,-118.6 628.85,-109.8 627.98,-120.36 634.76,-118.6"/>
</a>
</g>
</g>
<!-- Node4&#45;&gt;Node5 -->
<g id="edge5_Node000004_Node000005" class="edge">
<title>Node4&#45;&gt;Node5</title>
<g id="a_edge5_Node000004_Node000005"><a xlink:title=" ">
<path fill="none" stroke="#63b8ff" d="M519.43,-89.65C511.4,-88.83 503.25,-88.01 495.23,-87.19"/>
<polygon fill="#63b8ff" stroke="#63b8ff" points="518.88,-93.11 529.19,-90.64 519.59,-86.15 518.88,-93.11"/>
</a>
</g>
</g>
<!-- Node6 -->
<g id="Node000006" class="node">
<title>Node6</title>
<g id="a_Node000006"><a xlink:href="class_g_e_skeleton.html#ade3f0504c12faea2597ee2c23abf22bd" target="_top" xlink:title="Construye la jerarquía de articulaciones desde body.skel.">
<polygon fill="white" stroke="#666666" points="296,-89 163,-89 163,-69 296,-69 296,-89"/>
<text xml:space="preserve" text-anchor="middle" x="229.5" y="-75.5" font-family="Helvetica,sans-Serif" font-size="10.00">GESkeleton::buildSkeleton</text>
</a>
</g>
</g>
<!-- Node5&#45;&gt;Node6 -->
<g id="edge6_Node000005_Node000006" class="edge">
<title>Node5&#45;&gt;Node6</title>
<g id="a_edge6_Node000005_Node000006"><a xlink:title=" ">
<path fill="none" stroke="#63b8ff" d="M320.26,-79C312.21,-79 304.18,-79 296.41,-79"/>
<polygon fill="#63b8ff" stroke="#63b8ff" points="320.1,-82.5 330.1,-79 320.1,-75.5 320.1,-82.5"/>
</a>
</g>
</g>
<!-- Node7 -->
<g id="Node000007" class="node">
<title>Node7</title>
<g id="a_Node000007"><a xlink:href="class_g_e_skeleton.html#ad854854fdf1e4d090553d4d6edbfe095" target="_top" xlink:title="Constructor del esqueleto.">
<polygon fill="white" stroke="#666666" points="127,-89 0,-89 0,-69 127,-69 127,-89"/>
<text xml:space="preserve" text-anchor="middle" x="63.5" y="-75.5" font-family="Helvetica,sans-Serif" font-size="10.00">GESkeleton::GESkeleton</text>
</a>
</g>
</g>
<!-- Node6&#45;&gt;Node7 -->
<g id="edge7_Node000006_Node000007" class="edge">
<title>Node6&#45;&gt;Node7</title>
<g id="a_edge7_Node000006_Node000007"><a xlink:title=" ">
<path fill="none" stroke="#63b8ff" d="M151.41,-79C143.35,-79 135.22,-79 127.34,-79"/>
<polygon fill="#63b8ff" stroke="#63b8ff" points="151.23,-82.5 161.23,-79 151.23,-75.5 151.23,-82.5"/>
</a>
</g>
</g>
</g>
</svg>

<g id="navigator" transform="translate(0 0)" fill="#404254">
  <rect fill="#f2f5e9" fill-opacity="0.5" stroke="#606060" stroke-width=".5" x="0" y="0" width="60" height="60"/>
  <use id="zoomplus" xlink:href="#zoomPlus" x="17" y="9" onmousedown="handleZoom(evt,'in')"/>
  <use id="zoomminus" xlink:href="#zoomMin" x="42" y="9" onmousedown="handleZoom(evt,'out')"/>
  <use id="reset" xlink:href="#resetDef" x="30" y="36" onmousedown="handleReset()"/>
   <use id="arrowup" xlink:href="#arrowUp" x="0" y="0" onmousedown="handlePan(0,-1)"/>
  <use id="arrowright" xlink:href="#arrowRight" x="0" y="0" onmousedown="handlePan(1,0)"/>
  <use id="arrowdown" xlink:href="#arrowDown" x="0" y="0" onmousedown="handlePan(0,1)"/>
  <use id="arrowleft" xlink:href="#arrowLeft" x="0" y="0" onmousedown="handlePan(-1,0)"/>
</g>
<svg viewBox="0 0 15 15" width="100%" height="30px" preserveAspectRatio="xMaxYMin meet">
 <g id="arrow_out" transform="scale(0.3 0.3)">
  <a xlink:href="classpugi_1_1xml__node_a4154ffb6451d4203b74bb56d3f3ecf50_icgraph_org.svg" target="_base">
   <rect id="button" ry="5" rx="5" y="6" x="6" height="38" width="38"
        fill="#f2f5e9" fill-opacity="0.5" stroke="#606060" stroke-width="1.0"/>
   <path id="arrow"
     d="M 11.500037,31.436501 C 11.940474,20.09759 22.043105,11.32322 32.158766,21.979434 L 37.068811,17.246167 C 37.068811,17.246167 37.088388,32 37.088388,32 L 22.160133,31.978069 C 22.160133,31.978069 26.997745,27.140456 26.997745,27.140456 C 18.528582,18.264221 13.291696,25.230495 11.500037,31.436501 z"
     style="fill:#404040;"/>
  </a>
 </g>
</svg>

<style type='text/css'>
<![CDATA[
[data-mouse-over-selected='false'] { opacity: 0.7; }
[data-mouse-over-selected='true']  { opacity: 1.0; }
]]>
</style>
<script type="application/ecmascript"><![CDATA[
document.addEventListener('DOMContentLoaded', (event) => {
  highlightEdges();
  highlightAdjacentNodes();
});
]]></script>
</svg>
