<?xml version="1.0" encoding="UTF-8" standalone="no"?>
<!DOCTYPE svg PUBLIC "-//W3C//DTD SVG 1.1//EN"
 "http://www.w3.org/Graphics/SVG/1.1/DTD/svg11.dtd">
<!-- Generated by graphviz version 14.1.2 (20260124.0452)
 -->
<!-- Title: pugi::xml_node::type Pages: 1 -->
<!--zoomable 842 -->

<svg id="main" version="1.1" xmlns="http://www.w3.org/2000/svg" xmlns:xlink="http://www.w3.org/1999/xlink" xml:space="preserve" onload="init(evt)">

<style type="text/css"><![CDATA[
.node, .edge {opacity: 0.7;}
.node.selected, .edge.selected {opacity: 1;}
.edge:hover path { stroke: red; }
.edge:hover polygon { stroke: red; fill: red; }
]]></style>

<defs>
  <circle id="rim" cx="0" cy="0" r="7"/>
  <circle id="rim2" cx="0" cy="0" r="3.5"/>
  <g id="zoomPlus">
    <use xlink:href="#rim" fill="#404040"><set attributeName="fill" to="#808080" begin="zoomplus.mouseover" end="zoomplus.mouseout"/></use>
    <path d="M-4,0h8M0,-4v8" fill="none" stroke="white" stroke-width="1.5" pointer-events="none"/>
  </g>
  <g id="zoomMin">
    <use xlink:href="#rim" fill="#404040"><set attributeName="fill" to="#808080" begin="zoomminus.mouseover" end="zoomminus.mouseout"/></use>
    <path d="M-4,0h8" fill="none" stroke="white" stroke-width="1.5" pointer-events="none"/>
  </g>
  <g id="arrowUp" transform="translate(30 24)">
    <use xlink:href="#rim"/>
    <path pointer-events="none" fill="none" stroke="white" stroke-width="1.5" d="M0,-3.0v7 M-2.5,-0.5L0,-3.0L2.5,-0.5"/>
  </g>
  <g id="arrowRight" transform="rotate(90) translate(36 -43)">
    <use xlink:href="#rim"/>
    <path pointer-events="none" fill="none" stroke="white" stroke-width="1.5" d="M0,-3.0v7 M-2.5,-0.5L0,-3.0L2.5,-0.5"/>
  </g>
  <g id="arrowDown" transform="rotate(180) translate(-30 -48)">
    <use xlink:href="#rim"/>
    <path pointer-events="none" fill="none" stroke="white" stroke-width="1.5" d="M0,-3.0v7 M-2.5,-0.5L0,-3.0L2.5,-0.5"/>
  </g>
  <g id="arrowLeft" transform="rotate(270) translate(-36 17)">
    <use xlink:href="#rim"/>
    <path pointer-events="none" fill="none" stroke="white" stroke-width="1.5" d="M0,-3.0v7 M-2.5,-0.5L0,-3.0L2.5,-0.5"/>
  </g>
  <g id="resetDef">
    <use xlink:href="#rim2" fill="#404040"><set attributeName="fill" to="#808080" begin="reset.mouseover" end="reset.mouseout"/></use>
  </g>
</defs>
<script type="application/ecmascript">
var viewWidth = 458;
var viewHeight = 842;
var sectionId = 'dynsection-93';
</script>
<script type="application/ecmascript" xlink:href="svg.min.js"/>
<svg id="graph" class="graph">
<g id="viewport">
<title>pugi::xml_node::type</title>
<!-- Node1 -->
<g id="Node000001" class="node">
<title>Node1</title>
<g id="a_Node000001"><a xlink:title=" ">
<polygon fill="#999999" stroke="#666666" points="450,-427 343.25,-427 343.25,-407 450,-407 450,-427"/>
<text xml:space="preserve" text-anchor="middle" x="396.62" y="-413.5" font-family="Helvetica,sans-Serif" font-size="10.00">pugi::xml_node::type</text>
</a>
</g>
</g>
<!-- Node2 -->
<g id="Node000002" class="node">
<title>Node2</title>
<g id="a_Node000002"><a xlink:href="classpugi_1_1xml__node.html#ac80fc8de66fcdff37529c1e8e5f239e4" target="_top" xlink:title=" ">
<polygon fill="white" stroke="#666666" points="292.62,-834 173.12,-834 173.12,-802 292.62,-802 292.62,-834"/>
<text xml:space="preserve" text-anchor="start" x="181.12" y="-820.5" font-family="Helvetica,sans-Serif" font-size="10.00">pugi::xml_node::append</text>
<text xml:space="preserve" text-anchor="middle" x="232.88" y="-808.5" font-family="Helvetica,sans-Serif" font-size="10.00">_attribute</text>
</a>
</g>
</g>
<!-- Node1&#45;&gt;Node2 -->
<g id="edge1_Node000001_Node000002" class="edge">
<title>Node1&#45;&gt;Node2</title>
<g id="a_edge1_Node000001_Node000002"><a xlink:title=" ">
<path fill="none" stroke="#63b8ff" d="M393.29,-438.65C385.12,-510.51 355.7,-739.58 307.25,-793 303.18,-797.49 298.28,-801.17 292.95,-804.19"/>
<polygon fill="#63b8ff" stroke="#63b8ff" points="396.74,-439.31 394.36,-428.98 389.78,-438.53 396.74,-439.31"/>
</a>
</g>
</g>
<!-- Node3 -->
<g id="Node000003" class="node">
<title>Node3</title>
<g id="a_Node000003"><a xlink:href="classpugi_1_1xml__node.html#aa624d14153d5fef804aa55905fade059" target="_top" xlink:title=" ">
<polygon fill="white" stroke="#666666" points="292.62,-784 173.12,-784 173.12,-752 292.62,-752 292.62,-784"/>
<text xml:space="preserve" text-anchor="start" x="181.12" y="-770.5" font-family="Helvetica,sans-Serif" font-size="10.00">pugi::xml_node::append</text>
<text xml:space="preserve" text-anchor="middle" x="232.88" y="-758.5" font-family="Helvetica,sans-Serif" font-size="10.00">_buffer</text>
</a>
</g>
</g>
<!-- Node1&#45;&gt;Node3 -->
<g id="edge2_Node000001_Node000003" class="edge">
<title>Node1&#45;&gt;Node3</title>
<g id="a_edge2_Node000001_Node000003"><a xlink:title=" ">
<path fill="none" stroke="#63b8ff" d="M396.28,-438.65C396.82,-496.19 390.25,-654.54 307.25,-743 303.11,-747.42 298.15,-751.05 292.8,-754.05"/>
<polygon fill="#63b8ff" stroke="#63b8ff" points="399.79,-438.84 396.1,-428.91 392.79,-438.98 399.79,-438.84"/>
</a>
</g>
</g>
<!-- Node4 -->
<g id="Node000004" class="node">
<title>Node4</title>
<g id="a_Node000004"><a xlink:href="classpugi_1_1xml__node.html#afe1332e147508ef480aa395f9cc42e53" target="_top" xlink:title=" ">
<polygon fill="white" stroke="#666666" points="292.62,-734 173.12,-734 173.12,-702 292.62,-702 292.62,-734"/>
<text xml:space="preserve" text-anchor="start" x="181.12" y="-720.5" font-family="Helvetica,sans-Serif" font-size="10.00">pugi::xml_node::append</text>
<text xml:space="preserve" text-anchor="middle" x="232.88" y="-708.5" font-family="Helvetica,sans-Serif" font-size="10.00">_child</text>
</a>
</g>
</g>
<!-- Node1&#45;&gt;Node4 -->
<g id="edge3_Node000001_Node000004" class="edge">
<title>Node1&#45;&gt;Node4</title>
<g id="a_edge3_Node000001_Node000004"><a xlink:title=" ">
<path fill="none" stroke="#63b8ff" d="M395,-438.71C392.36,-490.11 378.57,-620.35 307.25,-693 303.1,-697.23 298.21,-700.74 292.96,-703.66"/>
<polygon fill="#63b8ff" stroke="#63b8ff" points="398.49,-439.07 395.4,-428.94 391.5,-438.79 398.49,-439.07"/>
</a>
</g>
</g>
<!-- Node6 -->
<g id="Node000006" class="node">
<title>Node6</title>
<g id="a_Node000006"><a xlink:href="classpugi_1_1xml__node.html#abd1b41bb34da6dc51af6d880ba3cfa14" target="_top" xlink:title=" ">
<polygon fill="white" stroke="#666666" points="305.75,-684 160,-684 160,-664 305.75,-664 305.75,-684"/>
<text xml:space="preserve" text-anchor="middle" x="232.88" y="-670.5" font-family="Helvetica,sans-Serif" font-size="10.00">pugi::xml_node::append_copy</text>
</a>
</g>
</g>
<!-- Node1&#45;&gt;Node6 -->
<g id="edge5_Node000001_Node000006" class="edge">
<title>Node1&#45;&gt;Node6</title>
<g id="a_edge5_Node000001_Node000006"><a xlink:title=" ">
<path fill="none" stroke="#63b8ff" d="M394.07,-438.86C389.53,-485.74 372.15,-596.42 307.25,-655 303.44,-658.44 299.09,-661.27 294.45,-663.6"/>
<polygon fill="#63b8ff" stroke="#63b8ff" points="397.56,-439.19 394.91,-428.93 390.58,-438.6 397.56,-439.19"/>
</a>
</g>
</g>
<!-- Node7 -->
<g id="Node000007" class="node">
<title>Node7</title>
<g id="a_Node000007"><a xlink:href="classpugi_1_1xml__node.html#a5820a846f22f81f27f62419cb8f8c7fd" target="_top" xlink:title=" ">
<polygon fill="white" stroke="#666666" points="305.75,-646 160,-646 160,-626 305.75,-626 305.75,-646"/>
<text xml:space="preserve" text-anchor="middle" x="232.88" y="-632.5" font-family="Helvetica,sans-Serif" font-size="10.00">pugi::xml_node::append_copy</text>
</a>
</g>
</g>
<!-- Node1&#45;&gt;Node7 -->
<g id="edge6_Node000001_Node000007" class="edge">
<title>Node1&#45;&gt;Node7</title>
<g id="a_edge6_Node000001_Node000007"><a xlink:title=" ">
<path fill="none" stroke="#63b8ff" d="M392.41,-438.43C385.08,-479.5 363.24,-569.45 307.25,-617 303.24,-620.41 298.69,-623.21 293.87,-625.52"/>
<polygon fill="#63b8ff" stroke="#63b8ff" points="395.85,-439.07 394.02,-428.63 388.94,-437.93 395.85,-439.07"/>
</a>
</g>
</g>
<!-- Node8 -->
<g id="Node000008" class="node">
<title>Node8</title>
<g id="a_Node000008"><a xlink:href="classpugi_1_1xml__node.html#a873edeb1bec559ce5a5ded06bb3fb16a" target="_top" xlink:title=" ">
<polygon fill="white" stroke="#666666" points="288.88,-608 176.88,-608 176.88,-576 288.88,-576 288.88,-608"/>
<text xml:space="preserve" text-anchor="start" x="184.88" y="-594.5" font-family="Helvetica,sans-Serif" font-size="10.00">pugi::xml_node::insert</text>
<text xml:space="preserve" text-anchor="middle" x="232.88" y="-582.5" font-family="Helvetica,sans-Serif" font-size="10.00">_attribute_after</text>
</a>
</g>
</g>
<!-- Node1&#45;&gt;Node8 -->
<g id="edge7_Node000001_Node000008" class="edge">
<title>Node1&#45;&gt;Node8</title>
<g id="a_edge7_Node000001_Node000008"><a xlink:title=" ">
<path fill="none" stroke="#63b8ff" d="M388.56,-438.29C376.77,-470.66 350.06,-532.14 307.25,-567 301.82,-571.42 295.57,-575.07 289.06,-578.09"/>
<polygon fill="#63b8ff" stroke="#63b8ff" points="391.86,-439.46 391.85,-428.86 385.26,-437.15 391.86,-439.46"/>
</a>
</g>
</g>
<!-- Node9 -->
<g id="Node000009" class="node">
<title>Node9</title>
<g id="a_Node000009"><a xlink:href="classpugi_1_1xml__node.html#a3a14ac695d1e5350c8095b9a83548ee0" target="_top" xlink:title=" ">
<polygon fill="white" stroke="#666666" points="288.88,-558 176.88,-558 176.88,-526 288.88,-526 288.88,-558"/>
<text xml:space="preserve" text-anchor="start" x="184.88" y="-544.5" font-family="Helvetica,sans-Serif" font-size="10.00">pugi::xml_node::insert</text>
<text xml:space="preserve" text-anchor="middle" x="232.88" y="-532.5" font-family="Helvetica,sans-Serif" font-size="10.00">_attribute_before</text>
</a>
</g>
</g>
<!-- Node1&#45;&gt;Node9 -->
<g id="edge8_Node000001_Node000009" class="edge">
<title>Node1&#45;&gt;Node9</title>
<g id="a_edge8_Node000001_Node000009"><a xlink:title=" ">
<path fill="none" stroke="#63b8ff" d="M382.82,-436.88C367.41,-459.32 339.54,-495.49 307.25,-517 301.65,-520.73 295.44,-523.96 289.07,-526.74"/>
<polygon fill="#63b8ff" stroke="#63b8ff" points="385.69,-438.89 388.33,-428.63 379.86,-435 385.69,-438.89"/>
</a>
</g>
</g>
<!-- Node10 -->
<g id="Node000010" class="node">
<title>Node10</title>
<g id="a_Node000010"><a xlink:href="classpugi_1_1xml__node.html#adad79bafed5383c1151e834ec366ab28" target="_top" xlink:title=" ">
<polygon fill="white" stroke="#666666" points="288.88,-508 176.88,-508 176.88,-476 288.88,-476 288.88,-508"/>
<text xml:space="preserve" text-anchor="start" x="184.88" y="-494.5" font-family="Helvetica,sans-Serif" font-size="10.00">pugi::xml_node::insert</text>
<text xml:space="preserve" text-anchor="middle" x="232.88" y="-482.5" font-family="Helvetica,sans-Serif" font-size="10.00">_child_after</text>
</a>
</g>
</g>
<!-- Node1&#45;&gt;Node10 -->
<g id="edge9_Node000001_Node000010" class="edge">
<title>Node1&#45;&gt;Node10</title>
<g id="a_edge9_Node000001_Node000010"><a xlink:title=" ">
<path fill="none" stroke="#63b8ff" d="M370.09,-433.13C352.79,-443.64 329.17,-457.17 307.25,-467 300.5,-470.03 293.26,-472.91 286.05,-475.57"/>
<polygon fill="#63b8ff" stroke="#63b8ff" points="371.52,-436.36 378.2,-428.14 367.85,-430.4 371.52,-436.36"/>
</a>
</g>
</g>
<!-- Node12 -->
<g id="Node000012" class="node">
<title>Node12</title>
<g id="a_Node000012"><a xlink:href="classpugi_1_1xml__node.html#a02f7be0c8b160292189f4ce4cb4d898a" target="_top" xlink:title=" ">
<polygon fill="white" stroke="#666666" points="288.88,-458 176.88,-458 176.88,-426 288.88,-426 288.88,-458"/>
<text xml:space="preserve" text-anchor="start" x="184.88" y="-444.5" font-family="Helvetica,sans-Serif" font-size="10.00">pugi::xml_node::insert</text>
<text xml:space="preserve" text-anchor="middle" x="232.88" y="-432.5" font-family="Helvetica,sans-Serif" font-size="10.00">_child_before</text>
</a>
</g>
</g>
<!-- Node1&#45;&gt;Node12 -->
<g id="edge11_Node000001_Node000012" class="edge">
<title>Node1&#45;&gt;Node12</title>
<g id="a_edge11_Node000001_Node000012"><a xlink:title=" ">
<path fill="none" stroke="#63b8ff" d="M331.97,-426.84C317.83,-429.02 302.96,-431.32 289.19,-433.45"/>
<polygon fill="#63b8ff" stroke="#63b8ff" points="332.27,-430.33 341.61,-425.35 331.2,-423.42 332.27,-430.33"/>
</a>
</g>
</g>
<!-- Node14 -->
<g id="Node000014" class="node">
<title>Node14</title>
<g id="a_Node000014"><a xlink:href="classpugi_1_1xml__node.html#a414eb68f8f6e719e6ce8599ba623a105" target="_top" xlink:title=" ">
<polygon fill="white" stroke="#666666" points="288.88,-408 176.88,-408 176.88,-376 288.88,-376 288.88,-408"/>
<text xml:space="preserve" text-anchor="start" x="184.88" y="-394.5" font-family="Helvetica,sans-Serif" font-size="10.00">pugi::xml_node::insert</text>
<text xml:space="preserve" text-anchor="middle" x="232.88" y="-382.5" font-family="Helvetica,sans-Serif" font-size="10.00">_copy_after</text>
</a>
</g>
</g>
<!-- Node1&#45;&gt;Node14 -->
<g id="edge13_Node000001_Node000014" class="edge">
<title>Node1&#45;&gt;Node14</title>
<g id="a_edge13_Node000001_Node000014"><a xlink:title=" ">
<path fill="none" stroke="#63b8ff" d="M331.97,-407.16C317.83,-404.98 302.96,-402.68 289.19,-400.55"/>
<polygon fill="#63b8ff" stroke="#63b8ff" points="331.2,-410.58 341.61,-408.65 332.27,-403.67 331.2,-410.58"/>
</a>
</g>
</g>
<!-- Node15 -->
<g id="Node000015" class="node">
<title>Node15</title>
<g id="a_Node000015"><a xlink:href="classpugi_1_1xml__node.html#a344b2b023530cb809edf172f1a6f8c1b" target="_top" xlink:title=" ">
<polygon fill="white" stroke="#666666" points="288.88,-358 176.88,-358 176.88,-326 288.88,-326 288.88,-358"/>
<text xml:space="preserve" text-anchor="start" x="184.88" y="-344.5" font-family="Helvetica,sans-Serif" font-size="10.00">pugi::xml_node::insert</text>
<text xml:space="preserve" text-anchor="middle" x="232.88" y="-332.5" font-family="Helvetica,sans-Serif" font-size="10.00">_copy_after</text>
</a>
</g>
</g>
<!-- Node1&#45;&gt;Node15 -->
<g id="edge14_Node000001_Node000015" class="edge">
<title>Node1&#45;&gt;Node15</title>
<g id="a_edge14_Node000001_Node000015"><a xlink:title=" ">
<path fill="none" stroke="#63b8ff" d="M370.09,-400.87C352.79,-390.36 329.17,-376.83 307.25,-367 300.5,-363.97 293.26,-361.09 286.05,-358.43"/>
<polygon fill="#63b8ff" stroke="#63b8ff" points="367.85,-403.6 378.2,-405.86 371.52,-397.64 367.85,-403.6"/>
</a>
</g>
</g>
<!-- Node16 -->
<g id="Node000016" class="node">
<title>Node16</title>
<g id="a_Node000016"><a xlink:href="classpugi_1_1xml__node.html#a78fc542de78457b1311890f1a2d30b2e" target="_top" xlink:title=" ">
<polygon fill="white" stroke="#666666" points="288.88,-308 176.88,-308 176.88,-276 288.88,-276 288.88,-308"/>
<text xml:space="preserve" text-anchor="start" x="184.88" y="-294.5" font-family="Helvetica,sans-Serif" font-size="10.00">pugi::xml_node::insert</text>
<text xml:space="preserve" text-anchor="middle" x="232.88" y="-282.5" font-family="Helvetica,sans-Serif" font-size="10.00">_copy_before</text>
</a>
</g>
</g>
<!-- Node1&#45;&gt;Node16 -->
<g id="edge15_Node000001_Node000016" class="edge">
<title>Node1&#45;&gt;Node16</title>
<g id="a_edge15_Node000001_Node000016"><a xlink:title=" ">
<path fill="none" stroke="#63b8ff" d="M382.82,-397.12C367.41,-374.68 339.54,-338.51 307.25,-317 301.65,-313.27 295.44,-310.04 289.07,-307.26"/>
<polygon fill="#63b8ff" stroke="#63b8ff" points="379.86,-399 388.33,-405.37 385.69,-395.11 379.86,-399"/>
</a>
</g>
</g>
<!-- Node17 -->
<g id="Node000017" class="node">
<title>Node17</title>
<g id="a_Node000017"><a xlink:href="classpugi_1_1xml__node.html#a29caa61e18518726790aadf12a9c4358" target="_top" xlink:title=" ">
<polygon fill="white" stroke="#666666" points="288.88,-258 176.88,-258 176.88,-226 288.88,-226 288.88,-258"/>
<text xml:space="preserve" text-anchor="start" x="184.88" y="-244.5" font-family="Helvetica,sans-Serif" font-size="10.00">pugi::xml_node::insert</text>
<text xml:space="preserve" text-anchor="middle" x="232.88" y="-232.5" font-family="Helvetica,sans-Serif" font-size="10.00">_copy_before</text>
</a>
</g>
</g>
<!-- Node1&#45;&gt;Node17 -->
<g id="edge16_Node000001_Node000017" class="edge">
<title>Node1&#45;&gt;Node17</title>
<g id="a_edge16_Node000001_Node000017"><a xlink:title=" ">
<path fill="none" stroke="#63b8ff" d="M388.56,-395.71C376.77,-363.34 350.06,-301.86 307.25,-267 301.82,-262.58 295.57,-258.93 289.06,-255.91"/>
<polygon fill="#63b8ff" stroke="#63b8ff" points="385.26,-396.85 391.85,-405.14 391.86,-394.54 385.26,-396.85"/>
</a>
</g>
</g>
<!-- Node18 -->
<g id="Node000018" class="node">
<title>Node18</title>
<g id="a_Node000018"><a xlink:href="classpugi_1_1xml__node.html#a3ea448a2641ee222bde36fca5a3e2f0f" target="_top" xlink:title=" ">
<polygon fill="white" stroke="#666666" points="288.88,-208 176.88,-208 176.88,-176 288.88,-176 288.88,-208"/>
<text xml:space="preserve" text-anchor="start" x="184.88" y="-194.5" font-family="Helvetica,sans-Serif" font-size="10.00">pugi::xml_node::offset</text>
<text xml:space="preserve" text-anchor="middle" x="232.88" y="-182.5" font-family="Helvetica,sans-Serif" font-size="10.00">_debug</text>
</a>
</g>
</g>
<!-- Node1&#45;&gt;Node18 -->
<g id="edge17_Node000001_Node000018" class="edge">
<title>Node1&#45;&gt;Node18</title>
<g id="a_edge17_Node000001_Node000018"><a xlink:title=" ">
<path fill="none" stroke="#63b8ff" d="M391.97,-395.37C383.98,-354.68 361.17,-266.39 307.25,-217 301.99,-212.18 295.76,-208.29 289.2,-205.14"/>
<polygon fill="#63b8ff" stroke="#63b8ff" points="388.51,-395.9 393.76,-405.1 395.39,-394.63 388.51,-395.9"/>
</a>
</g>
</g>
<!-- Node19 -->
<g id="Node000019" class="node">
<title>Node19</title>
<g id="a_Node000019"><a xlink:href="classpugi_1_1xml__node.html#a6750b5da07e4b4e828af807b7d751099" target="_top" xlink:title=" ">
<polygon fill="white" stroke="#666666" points="294.12,-158 171.62,-158 171.62,-126 294.12,-126 294.12,-158"/>
<text xml:space="preserve" text-anchor="start" x="179.62" y="-144.5" font-family="Helvetica,sans-Serif" font-size="10.00">pugi::xml_node::prepend</text>
<text xml:space="preserve" text-anchor="middle" x="232.88" y="-132.5" font-family="Helvetica,sans-Serif" font-size="10.00">_attribute</text>
</a>
</g>
</g>
<!-- Node1&#45;&gt;Node19 -->
<g id="edge18_Node000001_Node000019" class="edge">
<title>Node1&#45;&gt;Node19</title>
<g id="a_edge18_Node000001_Node000019"><a xlink:title=" ">
<path fill="none" stroke="#63b8ff" d="M394.14,-395.09C389.7,-347.02 372.47,-231.48 307.25,-167 303.52,-163.31 299.22,-160.16 294.61,-157.48"/>
<polygon fill="#63b8ff" stroke="#63b8ff" points="390.64,-395.32 394.94,-405.01 397.62,-394.76 390.64,-395.32"/>
</a>
</g>
</g>
<!-- Node20 -->
<g id="Node000020" class="node">
<title>Node20</title>
<g id="a_Node000020"><a xlink:href="classpugi_1_1xml__node.html#aed2c393e34bbebe1fd1c596ec57fb398" target="_top" xlink:title=" ">
<polygon fill="white" stroke="#666666" points="294.12,-108 171.62,-108 171.62,-76 294.12,-76 294.12,-108"/>
<text xml:space="preserve" text-anchor="start" x="179.62" y="-94.5" font-family="Helvetica,sans-Serif" font-size="10.00">pugi::xml_node::prepend</text>
<text xml:space="preserve" text-anchor="middle" x="232.88" y="-82.5" font-family="Helvetica,sans-Serif" font-size="10.00">_child</text>
</a>
</g>
</g>
<!-- Node1&#45;&gt;Node20 -->
<g id="edge19_Node000001_Node000020" class="edge">
<title>Node1&#45;&gt;Node20</title>
<g id="a_edge19_Node000001_Node000020"><a xlink:title=" ">
<path fill="none" stroke="#63b8ff" d="M395.67,-395.27C394.58,-340.82 384.14,-197.18 307.25,-117 303.52,-113.11 299.17,-109.83 294.48,-107.06"/>
<polygon fill="#63b8ff" stroke="#63b8ff" points="392.16,-395.09 395.76,-405.05 399.16,-395.02 392.16,-395.09"/>
</a>
</g>
</g>
<!-- Node22 -->
<g id="Node000022" class="node">
<title>Node22</title>
<g id="a_Node000022"><a xlink:href="classpugi_1_1xml__node.html#a1573a218a29ecf1a476bcb794be3800c" target="_top" xlink:title=" ">
<polygon fill="white" stroke="#666666" points="307.25,-58 158.5,-58 158.5,-38 307.25,-38 307.25,-58"/>
<text xml:space="preserve" text-anchor="middle" x="232.88" y="-44.5" font-family="Helvetica,sans-Serif" font-size="10.00">pugi::xml_node::prepend_copy</text>
</a>
</g>
</g>
<!-- Node1&#45;&gt;Node22 -->
<g id="edge21_Node000001_Node000022" class="edge">
<title>Node1&#45;&gt;Node22</title>
<g id="a_edge21_Node000001_Node000022"><a xlink:title=" ">
<path fill="none" stroke="#63b8ff" d="M393.05,-395.41C384.44,-326.64 354.46,-114.5 307.25,-67 303.82,-63.55 299.84,-60.69 295.56,-58.34"/>
<polygon fill="#63b8ff" stroke="#63b8ff" points="389.58,-395.83 394.27,-405.33 396.53,-394.98 389.58,-395.83"/>
</a>
</g>
</g>
<!-- Node23 -->
<g id="Node000023" class="node">
<title>Node23</title>
<g id="a_Node000023"><a xlink:href="classpugi_1_1xml__node.html#a55f7a4015048cb2c53e761fddf43a6d9" target="_top" xlink:title=" ">
<polygon fill="white" stroke="#666666" points="307.25,-20 158.5,-20 158.5,0 307.25,0 307.25,-20"/>
<text xml:space="preserve" text-anchor="middle" x="232.88" y="-6.5" font-family="Helvetica,sans-Serif" font-size="10.00">pugi::xml_node::prepend_copy</text>
</a>
</g>
</g>
<!-- Node1&#45;&gt;Node23 -->
<g id="edge22_Node000001_Node000023" class="edge">
<title>Node1&#45;&gt;Node23</title>
<g id="a_edge22_Node000001_Node000023"><a xlink:title=" ">
<path fill="none" stroke="#63b8ff" d="M393.64,-395.49C386.42,-322.02 359.23,-82.54 307.25,-29 303.95,-25.6 300.13,-22.78 295.99,-20.45"/>
<polygon fill="#63b8ff" stroke="#63b8ff" points="390.14,-395.73 394.58,-405.35 397.11,-395.06 390.14,-395.73"/>
</a>
</g>
</g>
<!-- Node5 -->
<g id="Node000005" class="node">
<title>Node5</title>
<g id="a_Node000005"><a xlink:href="classpugi_1_1xml__node.html#a292218f0d6cec6327f8a6b15f1478acc" target="_top" xlink:title=" ">
<polygon fill="white" stroke="#666666" points="121,-734 1.5,-734 1.5,-702 121,-702 121,-734"/>
<text xml:space="preserve" text-anchor="start" x="9.5" y="-720.5" font-family="Helvetica,sans-Serif" font-size="10.00">pugi::xml_node::append</text>
<text xml:space="preserve" text-anchor="middle" x="61.25" y="-708.5" font-family="Helvetica,sans-Serif" font-size="10.00">_child</text>
</a>
</g>
</g>
<!-- Node4&#45;&gt;Node5 -->
<g id="edge4_Node000004_Node000005" class="edge">
<title>Node4&#45;&gt;Node5</title>
<g id="a_edge4_Node000004_Node000005"><a xlink:title=" ">
<path fill="none" stroke="#63b8ff" d="M161.85,-718C148.37,-718 134.37,-718 121.28,-718"/>
<polygon fill="#63b8ff" stroke="#63b8ff" points="161.51,-721.5 171.51,-718 161.51,-714.5 161.51,-721.5"/>
</a>
</g>
</g>
<!-- Node11 -->
<g id="Node000011" class="node">
<title>Node11</title>
<g id="a_Node000011"><a xlink:href="classpugi_1_1xml__node.html#a87affe713b17757e8876858264c2c47e" target="_top" xlink:title=" ">
<polygon fill="white" stroke="#666666" points="117.25,-508 5.25,-508 5.25,-476 117.25,-476 117.25,-508"/>
<text xml:space="preserve" text-anchor="start" x="13.25" y="-494.5" font-family="Helvetica,sans-Serif" font-size="10.00">pugi::xml_node::insert</text>
<text xml:space="preserve" text-anchor="middle" x="61.25" y="-482.5" font-family="Helvetica,sans-Serif" font-size="10.00">_child_after</text>
</a>
</g>
</g>
<!-- Node10&#45;&gt;Node11 -->
<g id="edge10_Node000010_Node000011" class="edge">
<title>Node10&#45;&gt;Node11</title>
<g id="a_edge10_Node000010_Node000011"><a xlink:title=" ">
<path fill="none" stroke="#63b8ff" d="M165.47,-492C149.63,-492 132.9,-492 117.63,-492"/>
<polygon fill="#63b8ff" stroke="#63b8ff" points="165.29,-495.5 175.29,-492 165.29,-488.5 165.29,-495.5"/>
</a>
</g>
</g>
<!-- Node13 -->
<g id="Node000013" class="node">
<title>Node13</title>
<g id="a_Node000013"><a xlink:href="classpugi_1_1xml__node.html#aa73a08008f946784451710ae7aed9526" target="_top" xlink:title=" ">
<polygon fill="white" stroke="#666666" points="117.25,-458 5.25,-458 5.25,-426 117.25,-426 117.25,-458"/>
<text xml:space="preserve" text-anchor="start" x="13.25" y="-444.5" font-family="Helvetica,sans-Serif" font-size="10.00">pugi::xml_node::insert</text>
<text xml:space="preserve" text-anchor="middle" x="61.25" y="-432.5" font-family="Helvetica,sans-Serif" font-size="10.00">_child_before</text>
</a>
</g>
</g>
<!-- Node12&#45;&gt;Node13 -->
<g id="edge12_Node000012_Node000013" class="edge">
<title>Node12&#45;&gt;Node13</title>
<g id="a_edge12_Node000012_Node000013"><a xlink:title=" ">
<path fill="none" stroke="#63b8ff" d="M165.47,-442C149.63,-442 132.9,-442 117.63,-442"/>
<polygon fill="#63b8ff" stroke="#63b8ff" points="165.29,-445.5 175.29,-442 165.29,-438.5 165.29,-445.5"/>
</a>
</g>
</g>
<!-- Node21 -->
<g id="Node000021" class="node">
<title>Node21</title>
<g id="a_Node000021"><a xlink:href="classpugi_1_1xml__node.html#a434e6f74ccad87da1c2e01a73cbbefda" target="_top" xlink:title=" ">
<polygon fill="white" stroke="#666666" points="122.5,-108 0,-108 0,-76 122.5,-76 122.5,-108"/>
<text xml:space="preserve" text-anchor="start" x="8" y="-94.5" font-family="Helvetica,sans-Serif" font-size="10.00">pugi::xml_node::prepend</text>
<text xml:space="preserve" text-anchor="middle" x="61.25" y="-82.5" font-family="Helvetica,sans-Serif" font-size="10.00">_child</text>
</a>
</g>
</g>
<!-- Node20&#45;&gt;Node21 -->
<g id="edge20_Node000020_Node000021" class="edge">
<title>Node20&#45;&gt;Node21</title>
<g id="a_edge20_Node000020_Node000021"><a xlink:title=" ">
<path fill="none" stroke="#63b8ff" d="M160.31,-92C147.86,-92 135.03,-92 122.91,-92"/>
<polygon fill="#63b8ff" stroke="#63b8ff" points="160.08,-95.5 170.08,-92 160.08,-88.5 160.08,-95.5"/>
</a>
</g>
</g>
</g>
</svg>

<g id="navigator" transform="translate(0 0)" fill="#404254">
  <rect fill="#f2f5e9" fill-opacity="0.5" stroke="#606060" stroke-width=".5" x="0" y="0" width="60" height="60"/>
  <use id="zoomplus" xlink:href="#zoomPlus" x="17" y="9" onmousedown="handleZoom(evt,'in')"/>
  <use id="zoomminus" xlink:href="#zoomMin" x="42" y="9" onmousedown="handleZoom(evt,'out')"/>
  <use id="reset" xlink:href="#resetDef" x="30" y="36" onmousedown="handleReset()"/>
   <use id="arrowup" xlink:href="#arrowUp" x="0" y="0" onmousedown="handlePan(0,-1)"/>
  <use id="arrowright" xlink:href="#arrowRight" x="0" y="0" onmousedown="handlePan(1,0)"/>
  <use id="arrowdown" xlink:href="#arrowDown" x="0" y="0" onmousedown="handlePan(0,1)"/>
  <use id="arrowleft" xlink:href="#arrowLeft" x="0" y="0" onmousedown="handlePan(-1,0)"/>
</g>
<svg viewBox="0 0 15 15" width="100%" height="30px" preserveAspectRatio="xMaxYMin meet">
 <g id="arrow_out" transform="scale(0.3 0.3)">
  <a xlink:href="classpugi_1_1xml__node_aa018a135915ec8b2e3388feab2a78cfe_icgraph_org.svg" target="_base">
   <rect id="button" ry="5" rx="5" y="6" x="6" height="38" width="38"
        fill="#f2f5e9" fill-opacity="0.5" stroke="#606060" stroke-width="1.0"/>
   <path id="arrow"
     d="M 11.500037,31.436501 C 11.940474,20.09759 22.043105,11.32322 32.158766,21.979434 L 37.068811,17.246167 C 37.068811,17.246167 37.088388,32 37.088388,32 L 22.160133,31.978069 C 22.160133,31.978069 26.997745,27.140456 26.997745,27.140456 C 18.528582,18.264221 13.291696,25.230495 11.500037,31.436501 z"
     style="fill:#404040;"/>
  </a>
 </g>
</svg>

<style type='text/css'>
<![CDATA[
[data-mouse-over-selected='false'] { opacity: 0.7; }
[data-mouse-over-selected='true']  { opacity: 1.0; }
]]>
</style>
<script type="application/ecmascript"><![CDATA[
document.addEventListener('DOMContentLoaded', (event) => {
  highlightEdges();
  highlightAdjacentNodes();
});
]]></script>
</svg>
