<?xml version="1.0" encoding="UTF-8" standalone="no"?>
<!DOCTYPE svg PUBLIC "-//W3C//DTD SVG 1.1//EN"
 "http://www.w3.org/Graphics/SVG/1.1/DTD/svg11.dtd">
<!-- Generated by graphviz version 14.1.2 (20260124.0452)
 -->
<!-- Title: pugi::xpath_node_set Pages: 1 -->
<svg width="291pt" height="418pt"
 viewBox="0.00 0.00 291.00 418.00" xmlns="http://www.w3.org/2000/svg" xmlns:xlink="http://www.w3.org/1999/xlink">

<svg id="main" version="1.1" xmlns="http://www.w3.org/2000/svg" xmlns:xlink="http://www.w3.org/1999/xlink" xml:space="preserve">

<style type="text/css"><![CDATA[
.node, .edge {opacity: 0.7;}
.node.selected, .edge.selected {opacity: 1;}
.edge:hover path { stroke: red; }
.edge:hover polygon { stroke: red; fill: red; }
]]></style>
<script type="application/ecmascript" xlink:href="svg.min.js"/>
<svg id="graph" class="graph">
<g id="graph0" class="graph" transform="scale(1 1) rotate(0) translate(4 414)">
<title>pugi::xpath_node_set</title>
<!-- Node1 -->
<g id="Node000001" class="node">
<title>Node1</title>
<g id="a_Node000001"><a xlink:title=" ">
<polygon fill="#999999" stroke="#666666" points="200.5,-20 91.5,-20 91.5,0 200.5,0 200.5,-20"/>
<text xml:space="preserve" text-anchor="middle" x="146" y="-6.5" font-family="Helvetica,sans-Serif" font-size="10.00">pugi::xpath_node_set</text>
</a>
</g>
</g>
<!-- Node2 -->
<g id="Node000002" class="node">
<title>Node2</title>
<g id="a_Node000002"><a xlink:href="classpugi_1_1xpath__node.html" target="_top" xlink:title=" ">
<polygon fill="white" stroke="#666666" points="191.12,-126 100.88,-126 100.88,-106 191.12,-106 191.12,-126"/>
<text xml:space="preserve" text-anchor="middle" x="146" y="-112.5" font-family="Helvetica,sans-Serif" font-size="10.00">pugi::xpath_node</text>
</a>
</g>
</g>
<!-- Node2&#45;&gt;Node1 -->
<g id="edge1_Node000001_Node000002" class="edge">
<title>Node2&#45;&gt;Node1</title>
<g id="a_edge1_Node000001_Node000002"><a xlink:title=" ">
<path fill="none" stroke="#9a32cd" stroke-dasharray="5,2" d="M146,-94.51C146,-72.04 146,-36.99 146,-20.36"/>
<polygon fill="#9a32cd" stroke="#9a32cd" points="142.5,-94.26 146,-104.26 149.5,-94.26 142.5,-94.26"/>
</a>
</g>
<text xml:space="preserve" text-anchor="start" x="149" y="-75.5" font-family="Helvetica,sans-Serif" font-size="10.00" fill="grey">_begin</text>
<text xml:space="preserve" text-anchor="start" x="149" y="-59.5" font-family="Helvetica,sans-Serif" font-size="10.00" fill="grey">_end</text>
<text xml:space="preserve" text-anchor="start" x="149" y="-43.5" font-family="Helvetica,sans-Serif" font-size="10.00" fill="grey">_storage</text>
</g>
<!-- Node3 -->
<g id="Node000003" class="node">
<title>Node3</title>
<g id="a_Node000003"><a xlink:href="classpugi_1_1xml__node.html" target="_top" xlink:title=" ">
<polygon fill="white" stroke="#666666" points="143,-200 61,-200 61,-180 143,-180 143,-200"/>
<text xml:space="preserve" text-anchor="middle" x="102" y="-186.5" font-family="Helvetica,sans-Serif" font-size="10.00">pugi::xml_node</text>
</a>
</g>
</g>
<!-- Node3&#45;&gt;Node2 -->
<g id="edge2_Node000002_Node000003" class="edge">
<title>Node3&#45;&gt;Node2</title>
<g id="a_edge2_Node000002_Node000003"><a xlink:title=" ">
<path fill="none" stroke="#9a32cd" stroke-dasharray="5,2" d="M113.7,-169.86C122.33,-155.74 133.69,-137.14 140.39,-126.19"/>
<polygon fill="#9a32cd" stroke="#9a32cd" points="110.77,-167.94 108.54,-178.3 116.74,-171.59 110.77,-167.94"/>
</a>
</g>
<text xml:space="preserve" text-anchor="start" x="132.23" y="-149.5" font-family="Helvetica,sans-Serif" font-size="10.00" fill="grey">_node</text>
</g>
<!-- Node4 -->
<g id="Node000004" class="node">
<title>Node4</title>
<g id="a_Node000004"><a xlink:href="structpugi_1_1xml__node__struct.html" target="_top" xlink:title=" ">
<polygon fill="white" stroke="#666666" points="112,-299 0,-299 0,-279 112,-279 112,-299"/>
<text xml:space="preserve" text-anchor="middle" x="56" y="-285.5" font-family="Helvetica,sans-Serif" font-size="10.00">pugi::xml_node_struct</text>
</a>
</g>
</g>
<!-- Node4&#45;&gt;Node3 -->
<g id="edge3_Node000003_Node000004" class="edge">
<title>Node4&#45;&gt;Node3</title>
<g id="a_edge3_Node000003_Node000004"><a xlink:title=" ">
<path fill="none" stroke="#9a32cd" stroke-dasharray="5,2" d="M65.23,-268.54C75.03,-247.88 90.1,-216.1 97.54,-200.42"/>
<polygon fill="#9a32cd" stroke="#9a32cd" points="62.18,-266.8 61.06,-277.33 68.51,-269.8 62.18,-266.8"/>
</a>
</g>
<text xml:space="preserve" text-anchor="start" x="91.41" y="-224.5" font-family="Helvetica,sans-Serif" font-size="10.00" fill="grey">_root</text>
</g>
<!-- Node4&#45;&gt;Node4 -->
<g id="edge4_Node000004_Node000004" class="edge">
<title>Node4&#45;&gt;Node4</title>
<g id="a_edge4_Node000004_Node000004"><a xlink:title=" ">
<path fill="none" stroke="#9a32cd" stroke-dasharray="5,2" d="M100.93,-300.24C116.96,-300.46 130,-296.71 130,-289 130,-279.51 110.24,-276.02 89.49,-278.54"/>
<polygon fill="#9a32cd" stroke="#9a32cd" points="101.21,-296.75 91,-299.56 100.73,-303.74 101.21,-296.75"/>
</a>
</g>
<text xml:space="preserve" text-anchor="start" x="133" y="-309.5" font-family="Helvetica,sans-Serif" font-size="10.00" fill="grey">first_child</text>
<text xml:space="preserve" text-anchor="start" x="133" y="-293.5" font-family="Helvetica,sans-Serif" font-size="10.00" fill="grey">next_sibling</text>
<text xml:space="preserve" text-anchor="start" x="133" y="-277.5" font-family="Helvetica,sans-Serif" font-size="10.00" fill="grey">parent</text>
<text xml:space="preserve" text-anchor="start" x="133" y="-261.5" font-family="Helvetica,sans-Serif" font-size="10.00" fill="grey">prev_sibling_c</text>
</g>
<!-- Node5 -->
<g id="Node000005" class="node">
<title>Node5</title>
<g id="a_Node000005"><a xlink:href="structpugi_1_1xml__attribute__struct.html" target="_top" xlink:title=" ">
<polygon fill="white" stroke="#666666" points="189.12,-409 92.88,-409 92.88,-377 189.12,-377 189.12,-409"/>
<text xml:space="preserve" text-anchor="start" x="100.88" y="-395.5" font-family="Helvetica,sans-Serif" font-size="10.00">pugi::xml_attribute</text>
<text xml:space="preserve" text-anchor="middle" x="141" y="-383.5" font-family="Helvetica,sans-Serif" font-size="10.00">_struct</text>
</a>
</g>
</g>
<!-- Node5&#45;&gt;Node4 -->
<g id="edge5_Node000004_Node000005" class="edge">
<title>Node5&#45;&gt;Node4</title>
<g id="a_edge5_Node000004_Node000005"><a xlink:title=" ">
<path fill="none" stroke="#9a32cd" stroke-dasharray="5,2" d="M120.78,-367.73C102.47,-345.76 76.47,-314.56 63.69,-299.23"/>
<polygon fill="#9a32cd" stroke="#9a32cd" points="118.03,-369.9 127.12,-375.35 123.41,-365.42 118.03,-369.9"/>
</a>
</g>
<text xml:space="preserve" text-anchor="start" x="114.08" y="-345.5" font-family="Helvetica,sans-Serif" font-size="10.00" fill="grey">first_attribute</text>
</g>
<!-- Node5&#45;&gt;Node5 -->
<g id="edge6_Node000005_Node000005" class="edge">
<title>Node5&#45;&gt;Node5</title>
<g id="a_edge6_Node000005_Node000005"><a xlink:title=" ">
<path fill="none" stroke="#9a32cd" stroke-dasharray="5,2" d="M200.57,-398.97C204.65,-397.6 207.12,-395.61 207.12,-393 207.12,-388.49 199.71,-385.83 189.44,-385.02"/>
<polygon fill="#9a32cd" stroke="#9a32cd" points="200.15,-395.49 190.93,-400.71 201.39,-402.38 200.15,-395.49"/>
</a>
</g>
<text xml:space="preserve" text-anchor="start" x="210.12" y="-397.5" font-family="Helvetica,sans-Serif" font-size="10.00" fill="grey">next_attribute</text>
<text xml:space="preserve" text-anchor="start" x="210.12" y="-381.5" font-family="Helvetica,sans-Serif" font-size="10.00" fill="grey">prev_attribute_c</text>
</g>
<!-- Node6 -->
<g id="Node000006" class="node">
<title>Node6</title>
<g id="a_Node000006"><a xlink:href="classpugi_1_1xml__attribute.html" target="_top" xlink:title=" ">
<polygon fill="white" stroke="#666666" points="251.12,-238 154.88,-238 154.88,-218 251.12,-218 251.12,-238"/>
<text xml:space="preserve" text-anchor="middle" x="203" y="-224.5" font-family="Helvetica,sans-Serif" font-size="10.00">pugi::xml_attribute</text>
</a>
</g>
</g>
<!-- Node5&#45;&gt;Node6 -->
<g id="edge8_Node000006_Node000005" class="edge">
<title>Node5&#45;&gt;Node6</title>
<g id="a_edge8_Node000006_Node000005"><a xlink:title=" ">
<path fill="none" stroke="#9a32cd" stroke-dasharray="5,2" d="M171.71,-369.5C185.6,-357.26 200.38,-340.78 207,-322 217.27,-292.89 209.99,-255.45 205.63,-238.31"/>
<polygon fill="#9a32cd" stroke="#9a32cd" points="169.85,-366.49 164.41,-375.58 174.33,-371.86 169.85,-366.49"/>
</a>
</g>
<text xml:space="preserve" text-anchor="start" x="200.86" y="-345.5" font-family="Helvetica,sans-Serif" font-size="10.00" fill="grey">_attr</text>
</g>
<!-- Node6&#45;&gt;Node2 -->
<g id="edge7_Node000002_Node000006" class="edge">
<title>Node6&#45;&gt;Node2</title>
<g id="a_edge7_Node000002_Node000006"><a xlink:title=" ">
<path fill="none" stroke="#9a32cd" stroke-dasharray="5,2" d="M195.1,-207.08C188.01,-189.94 176.93,-164.77 165,-144 161.46,-137.84 156.89,-131.31 153.12,-126.22"/>
<polygon fill="#9a32cd" stroke="#9a32cd" points="191.76,-208.15 198.75,-216.11 198.24,-205.52 191.76,-208.15"/>
</a>
</g>
<text xml:space="preserve" text-anchor="start" x="194.58" y="-186.5" font-family="Helvetica,sans-Serif" font-size="10.00" fill="grey">_attribute</text>
</g>
</g>
</svg>
</svg>

<style type='text/css'>
<![CDATA[
[data-mouse-over-selected='false'] { opacity: 0.7; }
[data-mouse-over-selected='true']  { opacity: 1.0; }
]]>
</style>
<script type="application/ecmascript"><![CDATA[
document.addEventListener('DOMContentLoaded', (event) => {
  highlightEdges();
  highlightAdjacentNodes();
});
]]></script>
</svg>
