<?xml version="1.0" encoding="UTF-8" standalone="no"?>
<!DOCTYPE svg PUBLIC "-//W3C//DTD SVG 1.1//EN"
 "http://www.w3.org/Graphics/SVG/1.1/DTD/svg11.dtd">
<!-- Generated by graphviz version 14.1.2 (20260124.0452)
 -->
<!-- Title: pugi::xml_node::child Pages: 1 -->
<svg width="827pt" height="222pt"
 viewBox="0.00 0.00 827.00 222.00" xmlns="http://www.w3.org/2000/svg" xmlns:xlink="http://www.w3.org/1999/xlink">
<g id="graph0" class="graph" transform="scale(1 1) rotate(0) translate(4 218)">
<title>pugi::xml_node::child</title>
<!-- Node1 -->
<g id="Node000001" class="node">
<title>Node1</title>
<g id="a_Node000001"><a xlink:title=" ">
<polygon fill="#999999" stroke="#666666" points="818.75,-108 710.5,-108 710.5,-88 818.75,-88 818.75,-108"/>
<text xml:space="preserve" text-anchor="middle" x="764.62" y="-94.5" font-family="Helvetica,sans-Serif" font-size="10.00">pugi::xml_node::child</text>
</a>
</g>
</g>
<!-- Node2 -->
<g id="Node000002" class="node">
<title>Node2</title>
<g id="a_Node000002"><a xlink:href="classpugi_1_1xml__node.html#a3e92c57bca8669864b5ab7b54bd5cbca" target="_top" xlink:title=" ">
<polygon fill="white" stroke="#666666" points="656.88,-214 548.62,-214 548.62,-182 656.88,-182 656.88,-214"/>
<text xml:space="preserve" text-anchor="start" x="556.62" y="-200.5" font-family="Helvetica,sans-Serif" font-size="10.00">pugi::xml_node::child</text>
<text xml:space="preserve" text-anchor="middle" x="602.75" y="-188.5" font-family="Helvetica,sans-Serif" font-size="10.00">_value</text>
</a>
</g>
</g>
<!-- Node1&#45;&gt;Node2 -->
<g id="edge1_Node000001_Node000002" class="edge">
<title>Node1&#45;&gt;Node2</title>
<g id="a_edge1_Node000001_Node000002"><a xlink:title=" ">
<path fill="none" stroke="#63b8ff" d="M745.93,-116.27C728.93,-132.96 701.85,-157.35 674.5,-173 668.96,-176.17 662.95,-179.04 656.85,-181.61"/>
<polygon fill="#63b8ff" stroke="#63b8ff" points="748.2,-118.96 752.78,-109.41 743.24,-114.01 748.2,-118.96"/>
</a>
</g>
</g>
<!-- Node3 -->
<g id="Node000003" class="node">
<title>Node3</title>
<g id="a_Node000003"><a xlink:href="classpugi_1_1xml__node.html#aa4f96758e38e9dfd2c085dc5b5869139" target="_top" xlink:title=" ">
<polygon fill="white" stroke="#666666" points="663.62,-164 541.88,-164 541.88,-144 663.62,-144 663.62,-164"/>
<text xml:space="preserve" text-anchor="middle" x="602.75" y="-150.5" font-family="Helvetica,sans-Serif" font-size="10.00">pugi::xml_node::children</text>
</a>
</g>
</g>
<!-- Node1&#45;&gt;Node3 -->
<g id="edge2_Node000001_Node000003" class="edge">
<title>Node1&#45;&gt;Node3</title>
<g id="a_edge2_Node000001_Node000003"><a xlink:title=" ">
<path fill="none" stroke="#63b8ff" d="M730.56,-112.94C713.94,-120.14 693.37,-128.58 674.5,-135 665.47,-138.07 655.66,-140.98 646.3,-143.54"/>
<polygon fill="#63b8ff" stroke="#63b8ff" points="731.72,-116.25 739.47,-109.03 728.91,-109.84 731.72,-116.25"/>
</a>
</g>
</g>
<!-- Node4 -->
<g id="Node000004" class="node">
<title>Node4</title>
<g id="a_Node000004"><a xlink:href="class_g_e_x_m_l_parser.html#af7e66e11e1a8973779770daa1ad6f653" target="_top" xlink:title="Parsea una articulación y sus hijas recursivamente.">
<polygon fill="white" stroke="#666666" points="674.5,-108 531,-108 531,-88 674.5,-88 674.5,-108"/>
<text xml:space="preserve" text-anchor="middle" x="602.75" y="-94.5" font-family="Helvetica,sans-Serif" font-size="10.00">GEXMLParser::parseBalljoint</text>
</a>
</g>
</g>
<!-- Node1&#45;&gt;Node4 -->
<g id="edge3_Node000001_Node000004" class="edge">
<title>Node1&#45;&gt;Node4</title>
<g id="a_edge3_Node000001_Node000004"><a xlink:title=" ">
<path fill="none" stroke="#63b8ff" d="M698.99,-98C691.08,-98 682.96,-98 674.96,-98"/>
<polygon fill="#63b8ff" stroke="#63b8ff" points="698.88,-101.5 708.88,-98 698.88,-94.5 698.88,-101.5"/>
</a>
</g>
</g>
<!-- Node5 -->
<g id="Node000005" class="node">
<title>Node5</title>
<g id="a_Node000005"><a xlink:href="class_g_e_x_m_l_parser.html#acd9fc587fbd992edbb51df00549c1bda" target="_top" xlink:title="Parsea un archivo .skel y devuelve los datos del esqueleto.">
<polygon fill="white" stroke="#666666" points="495,-89 332,-89 332,-69 495,-69 495,-89"/>
<text xml:space="preserve" text-anchor="middle" x="413.5" y="-75.5" font-family="Helvetica,sans-Serif" font-size="10.00">GEXMLParser::parseSkeletonFile</text>
</a>
</g>
</g>
<!-- Node1&#45;&gt;Node5 -->
<g id="edge8_Node000001_Node000005" class="edge">
<title>Node1&#45;&gt;Node5</title>
<g id="a_edge8_Node000001_Node000005"><a xlink:title=" ">
<path fill="none" stroke="#63b8ff" d="M712.48,-85.18C700.13,-82.61 686.91,-80.31 674.5,-79 614.68,-72.69 546.7,-72.95 495.25,-74.65"/>
<polygon fill="#63b8ff" stroke="#63b8ff" points="711.54,-88.55 722.06,-87.26 713.03,-81.71 711.54,-88.55"/>
</a>
</g>
</g>
<!-- Node8 -->
<g id="Node000008" class="node">
<title>Node8</title>
<g id="a_Node000008"><a xlink:href="classpugi_1_1xml__node.html#ae169719bf580569191d0274bf6514bbc" target="_top" xlink:title=" ">
<polygon fill="white" stroke="#666666" points="662.88,-32 542.62,-32 542.62,0 662.88,0 662.88,-32"/>
<text xml:space="preserve" text-anchor="start" x="550.62" y="-18.5" font-family="Helvetica,sans-Serif" font-size="10.00">pugi::xml_node::remove</text>
<text xml:space="preserve" text-anchor="middle" x="602.75" y="-6.5" font-family="Helvetica,sans-Serif" font-size="10.00">_child</text>
</a>
</g>
</g>
<!-- Node1&#45;&gt;Node8 -->
<g id="edge9_Node000001_Node000008" class="edge">
<title>Node1&#45;&gt;Node8</title>
<g id="a_edge9_Node000001_Node000008"><a xlink:title=" ">
<path fill="none" stroke="#63b8ff" d="M737.69,-81.69C720.16,-70.96 696.32,-56.94 674.5,-46 665.08,-41.28 654.73,-36.61 644.93,-32.42"/>
<polygon fill="#63b8ff" stroke="#63b8ff" points="735.59,-84.5 745.93,-86.78 739.26,-78.55 735.59,-84.5"/>
</a>
</g>
</g>
<!-- Node4&#45;&gt;Node4 -->
<g id="edge4_Node000004_Node000004" class="edge">
<title>Node4&#45;&gt;Node4</title>
<g id="a_edge4_Node000004_Node000004"><a xlink:title=" ">
<path fill="none" stroke="#63b8ff" d="M631.36,-119.44C627.68,-123.3 618.14,-126 602.75,-126 574.61,-126 566.04,-116.98 577.03,-108.34"/>
<polygon fill="#63b8ff" stroke="#63b8ff" points="634.76,-118.6 628.85,-109.8 627.98,-120.36 634.76,-118.6"/>
</a>
</g>
</g>
<!-- Node4&#45;&gt;Node5 -->
<g id="edge5_Node000004_Node000005" class="edge">
<title>Node4&#45;&gt;Node5</title>
<g id="a_edge5_Node000004_Node000005"><a xlink:title=" ">
<path fill="none" stroke="#63b8ff" d="M519.43,-89.65C511.4,-88.83 503.25,-88.01 495.23,-87.19"/>
<polygon fill="#63b8ff" stroke="#63b8ff" points="518.88,-93.11 529.19,-90.64 519.59,-86.15 518.88,-93.11"/>
</a>
</g>
</g>
<!-- Node6 -->
<g id="Node000006" class="node">
<title>Node6</title>
<g id="a_Node000006"><a xlink:href="class_g_e_skeleton.html#ade3f0504c12faea2597ee2c23abf22bd" target="_top" xlink:title="Construye la jerarquía de articulaciones desde body.skel.">
<polygon fill="white" stroke="#666666" points="296,-89 163,-89 163,-69 296,-69 296,-89"/>
<text xml:space="preserve" text-anchor="middle" x="229.5" y="-75.5" font-family="Helvetica,sans-Serif" font-size="10.00">GESkeleton::buildSkeleton</text>
</a>
</g>
</g>
<!-- Node5&#45;&gt;Node6 -->
<g id="edge6_Node000005_Node000006" class="edge">
<title>Node5&#45;&gt;Node6</title>
<g id="a_edge6_Node000005_Node000006"><a xlink:title=" ">
<path fill="none" stroke="#63b8ff" d="M320.26,-79C312.21,-79 304.18,-79 296.41,-79"/>
<polygon fill="#63b8ff" stroke="#63b8ff" points="320.1,-82.5 330.1,-79 320.1,-75.5 320.1,-82.5"/>
</a>
</g>
</g>
<!-- Node7 -->
<g id="Node000007" class="node">
<title>Node7</title>
<g id="a_Node000007"><a xlink:href="class_g_e_skeleton.html#ad854854fdf1e4d090553d4d6edbfe095" target="_top" xlink:title="Constructor del esqueleto.">
<polygon fill="white" stroke="#666666" points="127,-89 0,-89 0,-69 127,-69 127,-89"/>
<text xml:space="preserve" text-anchor="middle" x="63.5" y="-75.5" font-family="Helvetica,sans-Serif" font-size="10.00">GESkeleton::GESkeleton</text>
</a>
</g>
</g>
<!-- Node6&#45;&gt;Node7 -->
<g id="edge7_Node000006_Node000007" class="edge">
<title>Node6&#45;&gt;Node7</title>
<g id="a_edge7_Node000006_Node000007"><a xlink:title=" ">
<path fill="none" stroke="#63b8ff" d="M151.41,-79C143.35,-79 135.22,-79 127.34,-79"/>
<polygon fill="#63b8ff" stroke="#63b8ff" points="151.23,-82.5 161.23,-79 151.23,-75.5 151.23,-82.5"/>
</a>
</g>
</g>
</g>
</svg>
