<?xml version="1.0" encoding="UTF-8" standalone="no"?>
<!DOCTYPE svg PUBLIC "-//W3C//DTD SVG 1.1//EN"
 "http://www.w3.org/Graphics/SVG/1.1/DTD/svg11.dtd">
<!-- Generated by graphviz version 14.1.2 (20260124.0452)
 -->
<!-- Title: pugi::xml_named_node_iterator::xml_named_node_iterator Pages: 1 -->
<svg width="277pt" height="290pt"
 viewBox="0.00 0.00 277.00 290.00" xmlns="http://www.w3.org/2000/svg" xmlns:xlink="http://www.w3.org/1999/xlink">

<svg id="main" version="1.1" xmlns="http://www.w3.org/2000/svg" xmlns:xlink="http://www.w3.org/1999/xlink" xml:space="preserve">

<style type="text/css"><![CDATA[
.node, .edge {opacity: 0.7;}
.node.selected, .edge.selected {opacity: 1;}
.edge:hover path { stroke: red; }
.edge:hover polygon { stroke: red; fill: red; }
]]></style>
<script type="application/ecmascript" xlink:href="svg.min.js"/>
<svg id="graph" class="graph">
<g id="graph0" class="graph" transform="scale(1 1) rotate(0) translate(4 286)">
<title>pugi::xml_named_node_iterator::xml_named_node_iterator</title>
<!-- Node1 -->
<g id="Node000001" class="node">
<title>Node1</title>
<g id="a_Node000001"><a xlink:title=" ">
<polygon fill="#999999" stroke="#666666" points="269,-163 152.5,-163 152.5,-119 269,-119 269,-163"/>
<text xml:space="preserve" text-anchor="start" x="160.5" y="-149.5" font-family="Helvetica,sans-Serif" font-size="10.00">pugi::xml_named_node</text>
<text xml:space="preserve" text-anchor="start" x="160.5" y="-137.5" font-family="Helvetica,sans-Serif" font-size="10.00">_iterator::xml_named</text>
<text xml:space="preserve" text-anchor="middle" x="210.75" y="-125.5" font-family="Helvetica,sans-Serif" font-size="10.00">_node_iterator</text>
</a>
</g>
</g>
<!-- Node2 -->
<g id="Node000002" class="node">
<title>Node2</title>
<g id="a_Node000002"><a xlink:href="classpugi_1_1xml__named__node__iterator.html#ae81bb53a8f21622af86904e21f73c348" target="_top" xlink:title=" ">
<polygon fill="white" stroke="#666666" points="116.5,-282 0,-282 0,-250 116.5,-250 116.5,-282"/>
<text xml:space="preserve" text-anchor="start" x="8" y="-268.5" font-family="Helvetica,sans-Serif" font-size="10.00">pugi::xml_named_node</text>
<text xml:space="preserve" text-anchor="middle" x="58.25" y="-256.5" font-family="Helvetica,sans-Serif" font-size="10.00">_iterator::operator!=</text>
</a>
</g>
</g>
<!-- Node1&#45;&gt;Node2 -->
<g id="edge1_Node000001_Node000002" class="edge">
<title>Node1&#45;&gt;Node2</title>
<g id="a_edge1_Node000001_Node000002"><a xlink:title=" ">
<path fill="none" stroke="#63b8ff" d="M186.37,-172.16C168.97,-193.69 143.62,-221.8 116.5,-241 112.07,-244.13 107.19,-247 102.2,-249.57"/>
<polygon fill="#63b8ff" stroke="#63b8ff" points="188.92,-174.58 192.38,-164.57 183.43,-170.24 188.92,-174.58"/>
</a>
</g>
</g>
<!-- Node3 -->
<g id="Node000003" class="node">
<title>Node3</title>
<g id="a_Node000003"><a xlink:href="classpugi_1_1xml__named__node__iterator.html#a3504c7d0e20faffcc77c5562568ba8ed" target="_top" xlink:title=" ">
<polygon fill="white" stroke="#666666" points="116.5,-232 0,-232 0,-200 116.5,-200 116.5,-232"/>
<text xml:space="preserve" text-anchor="start" x="8" y="-218.5" font-family="Helvetica,sans-Serif" font-size="10.00">pugi::xml_named_node</text>
<text xml:space="preserve" text-anchor="middle" x="58.25" y="-206.5" font-family="Helvetica,sans-Serif" font-size="10.00">_iterator::operator++</text>
</a>
</g>
</g>
<!-- Node1&#45;&gt;Node3 -->
<g id="edge2_Node000001_Node000003" class="edge">
<title>Node1&#45;&gt;Node3</title>
<g id="a_edge2_Node000001_Node000003"><a xlink:title=" ">
<path fill="none" stroke="#63b8ff" d="M159.85,-168.71C145.93,-176.18 130.73,-184.09 116.5,-191 110.55,-193.89 104.18,-196.82 97.94,-199.61"/>
<polygon fill="#63b8ff" stroke="#63b8ff" points="161.26,-171.93 168.39,-164.09 157.93,-165.77 161.26,-171.93"/>
</a>
</g>
</g>
<!-- Node4 -->
<g id="Node000004" class="node">
<title>Node4</title>
<g id="a_Node000004"><a xlink:href="classpugi_1_1xml__named__node__iterator.html#a5bf4f2836b7c061f52d071c3615e5efc" target="_top" xlink:title=" ">
<polygon fill="white" stroke="#666666" points="116.5,-182 0,-182 0,-150 116.5,-150 116.5,-182"/>
<text xml:space="preserve" text-anchor="start" x="8" y="-168.5" font-family="Helvetica,sans-Serif" font-size="10.00">pugi::xml_named_node</text>
<text xml:space="preserve" text-anchor="middle" x="58.25" y="-156.5" font-family="Helvetica,sans-Serif" font-size="10.00">_iterator::operator++</text>
</a>
</g>
</g>
<!-- Node1&#45;&gt;Node4 -->
<g id="edge3_Node000001_Node000004" class="edge">
<title>Node1&#45;&gt;Node4</title>
<g id="a_edge3_Node000001_Node000004"><a xlink:title=" ">
<path fill="none" stroke="#63b8ff" d="M141.1,-152.4C133.02,-153.75 124.83,-155.11 116.92,-156.42"/>
<polygon fill="#63b8ff" stroke="#63b8ff" points="141.64,-155.86 150.93,-150.77 140.49,-148.96 141.64,-155.86"/>
</a>
</g>
</g>
<!-- Node5 -->
<g id="Node000005" class="node">
<title>Node5</title>
<g id="a_Node000005"><a xlink:href="classpugi_1_1xml__named__node__iterator.html#a98ee4b012a25bd4edf70e81236368583" target="_top" xlink:title=" ">
<polygon fill="white" stroke="#666666" points="116.5,-132 0,-132 0,-100 116.5,-100 116.5,-132"/>
<text xml:space="preserve" text-anchor="start" x="8" y="-118.5" font-family="Helvetica,sans-Serif" font-size="10.00">pugi::xml_named_node</text>
<text xml:space="preserve" text-anchor="middle" x="58.25" y="-106.5" font-family="Helvetica,sans-Serif" font-size="10.00">_iterator::operator&#45;&#45;</text>
</a>
</g>
</g>
<!-- Node1&#45;&gt;Node5 -->
<g id="edge4_Node000001_Node000005" class="edge">
<title>Node1&#45;&gt;Node5</title>
<g id="a_edge4_Node000001_Node000005"><a xlink:title=" ">
<path fill="none" stroke="#63b8ff" d="M141.1,-129.6C133.02,-128.25 124.83,-126.89 116.92,-125.58"/>
<polygon fill="#63b8ff" stroke="#63b8ff" points="140.49,-133.04 150.93,-131.23 141.64,-126.14 140.49,-133.04"/>
</a>
</g>
</g>
<!-- Node6 -->
<g id="Node000006" class="node">
<title>Node6</title>
<g id="a_Node000006"><a xlink:href="classpugi_1_1xml__named__node__iterator.html#a018c2e9b246a7b9956a8e82cd3248d7f" target="_top" xlink:title=" ">
<polygon fill="white" stroke="#666666" points="116.5,-82 0,-82 0,-50 116.5,-50 116.5,-82"/>
<text xml:space="preserve" text-anchor="start" x="8" y="-68.5" font-family="Helvetica,sans-Serif" font-size="10.00">pugi::xml_named_node</text>
<text xml:space="preserve" text-anchor="middle" x="58.25" y="-56.5" font-family="Helvetica,sans-Serif" font-size="10.00">_iterator::operator&#45;&#45;</text>
</a>
</g>
</g>
<!-- Node1&#45;&gt;Node6 -->
<g id="edge5_Node000001_Node000006" class="edge">
<title>Node1&#45;&gt;Node6</title>
<g id="a_edge5_Node000001_Node000006"><a xlink:title=" ">
<path fill="none" stroke="#63b8ff" d="M159.85,-113.29C145.93,-105.82 130.73,-97.91 116.5,-91 110.55,-88.11 104.18,-85.18 97.94,-82.39"/>
<polygon fill="#63b8ff" stroke="#63b8ff" points="157.93,-116.23 168.39,-117.91 161.26,-110.07 157.93,-116.23"/>
</a>
</g>
</g>
<!-- Node7 -->
<g id="Node000007" class="node">
<title>Node7</title>
<g id="a_Node000007"><a xlink:href="classpugi_1_1xml__named__node__iterator.html#a99990c277131e2325517c991aefc1506" target="_top" xlink:title=" ">
<polygon fill="white" stroke="#666666" points="116.5,-32 0,-32 0,0 116.5,0 116.5,-32"/>
<text xml:space="preserve" text-anchor="start" x="8" y="-18.5" font-family="Helvetica,sans-Serif" font-size="10.00">pugi::xml_named_node</text>
<text xml:space="preserve" text-anchor="middle" x="58.25" y="-6.5" font-family="Helvetica,sans-Serif" font-size="10.00">_iterator::operator==</text>
</a>
</g>
</g>
<!-- Node1&#45;&gt;Node7 -->
<g id="edge6_Node000001_Node000007" class="edge">
<title>Node1&#45;&gt;Node7</title>
<g id="a_edge6_Node000001_Node000007"><a xlink:title=" ">
<path fill="none" stroke="#63b8ff" d="M186.37,-109.84C168.97,-88.31 143.62,-60.2 116.5,-41 112.07,-37.87 107.19,-35 102.2,-32.43"/>
<polygon fill="#63b8ff" stroke="#63b8ff" points="183.43,-111.76 192.38,-117.43 188.92,-107.42 183.43,-111.76"/>
</a>
</g>
</g>
</g>
</svg>
</svg>

<style type='text/css'>
<![CDATA[
[data-mouse-over-selected='false'] { opacity: 0.7; }
[data-mouse-over-selected='true']  { opacity: 1.0; }
]]>
</style>
<script type="application/ecmascript"><![CDATA[
document.addEventListener('DOMContentLoaded', (event) => {
  highlightEdges();
  highlightAdjacentNodes();
});
]]></script>
</svg>
