<?xml version="1.0" encoding="UTF-8" standalone="no"?>
<!DOCTYPE svg PUBLIC "-//W3C//DTD SVG 1.1//EN"
 "http://www.w3.org/Graphics/SVG/1.1/DTD/svg11.dtd">
<!-- Generated by graphviz version 14.1.2 (20260124.0452)
 -->
<!-- Title: GEApplication::run Pages: 1 -->
<svg width="664pt" height="216pt"
 viewBox="0.00 0.00 664.00 216.00" xmlns="http://www.w3.org/2000/svg" xmlns:xlink="http://www.w3.org/1999/xlink">
<g id="graph0" class="graph" transform="scale(1 1) rotate(0) translate(4 212)">
<title>GEApplication::run</title>
<!-- Node1 -->
<g id="Node000001" class="node">
<title>Node1</title>
<g id="a_Node000001"><a xlink:title="Ejecuta la aplicación.">
<polygon fill="#999999" stroke="#666666" points="97.75,-89 0,-89 0,-69 97.75,-69 97.75,-89"/>
<text xml:space="preserve" text-anchor="middle" x="48.88" y="-75.5" font-family="Helvetica,sans-Serif" font-size="10.00">GEApplication::run</text>
</a>
</g>
</g>
<!-- Node2 -->
<g id="Node000002" class="node">
<title>Node2</title>
<g id="a_Node000002"><a xlink:href="class_g_e_application.html#a461c4a6a6d343e4a5fdd993068fb8af1" target="_top" xlink:title="Libera los recursos y finaliza la aplicación.">
<polygon fill="white" stroke="#666666" points="267.5,-146 149.5,-146 149.5,-126 267.5,-126 267.5,-146"/>
<text xml:space="preserve" text-anchor="middle" x="208.5" y="-132.5" font-family="Helvetica,sans-Serif" font-size="10.00">GEApplication::cleanup</text>
</a>
</g>
</g>
<!-- Node1&#45;&gt;Node2 -->
<g id="edge1_Node000001_Node000002" class="edge">
<title>Node1&#45;&gt;Node2</title>
<g id="a_edge1_Node000001_Node000002"><a xlink:title=" ">
<path fill="none" stroke="#63b8ff" d="M70.15,-89.38C86.89,-97.67 111.43,-109.14 133.75,-117 139.36,-118.98 145.28,-120.85 151.22,-122.58"/>
<polygon fill="#63b8ff" stroke="#63b8ff" points="149.85,-125.84 160.43,-125.16 151.74,-119.09 149.85,-125.84"/>
</a>
</g>
</g>
<!-- Node3 -->
<g id="Node000003" class="node">
<title>Node3</title>
<g id="a_Node000003"><a xlink:href="class_g_e_application.html#ae473a6cb8cc8aa8a76a19a8df91d6e49" target="_top" xlink:title="Inicializa la ventana GLFW.">
<polygon fill="white" stroke="#666666" points="274.62,-108 142.38,-108 142.38,-88 274.62,-88 274.62,-108"/>
<text xml:space="preserve" text-anchor="middle" x="208.5" y="-94.5" font-family="Helvetica,sans-Serif" font-size="10.00">GEApplication::initWindow</text>
</a>
</g>
</g>
<!-- Node1&#45;&gt;Node3 -->
<g id="edge2_Node000001_Node000003" class="edge">
<title>Node1&#45;&gt;Node3</title>
<g id="a_edge2_Node000001_Node000003"><a xlink:title=" ">
<path fill="none" stroke="#63b8ff" d="M98.02,-84.8C108.41,-86.06 119.64,-87.41 130.82,-88.76"/>
<polygon fill="#63b8ff" stroke="#63b8ff" points="130.09,-92.19 140.44,-89.92 130.93,-85.24 130.09,-92.19"/>
</a>
</g>
</g>
<!-- Node11 -->
<g id="Node000011" class="node">
<title>Node11</title>
<g id="a_Node000011"><a xlink:href="class_g_e_application.html#ac34507dbd747e24e4e1f443b5a756dbb" target="_top" xlink:title="Inicializa la posición de la ventana.">
<polygon fill="white" stroke="#666666" points="283.25,-70 133.75,-70 133.75,-50 283.25,-50 283.25,-70"/>
<text xml:space="preserve" text-anchor="middle" x="208.5" y="-56.5" font-family="Helvetica,sans-Serif" font-size="10.00">GEApplication::initWindowPos</text>
</a>
</g>
</g>
<!-- Node1&#45;&gt;Node11 -->
<g id="edge10_Node000001_Node000011" class="edge">
<title>Node1&#45;&gt;Node11</title>
<g id="a_edge10_Node000001_Node000011"><a xlink:title=" ">
<path fill="none" stroke="#63b8ff" d="M98.02,-73.2C105.74,-72.27 113.93,-71.28 122.2,-70.28"/>
<polygon fill="#63b8ff" stroke="#63b8ff" points="122.51,-73.77 132.02,-69.1 121.67,-66.82 122.51,-73.77"/>
</a>
</g>
</g>
<!-- Node12 -->
<g id="Node000012" class="node">
<title>Node12</title>
<g id="a_Node000012"><a xlink:href="class_g_e_application.html#adde238fa4ed636bfebd76be73af395b7" target="_top" xlink:title="Bucle principal que procesa eventos y dibuja cada frame.">
<polygon fill="white" stroke="#666666" points="271.62,-26 145.38,-26 145.38,-6 271.62,-6 271.62,-26"/>
<text xml:space="preserve" text-anchor="middle" x="208.5" y="-12.5" font-family="Helvetica,sans-Serif" font-size="10.00">GEApplication::mainLoop</text>
</a>
</g>
</g>
<!-- Node1&#45;&gt;Node12 -->
<g id="edge11_Node000001_Node000012" class="edge">
<title>Node1&#45;&gt;Node12</title>
<g id="a_edge11_Node000001_Node000012"><a xlink:title=" ">
<path fill="none" stroke="#63b8ff" d="M71.35,-68.57C88.15,-60.57 112.19,-49.51 133.75,-41 143.34,-37.21 153.77,-33.46 163.68,-30.06"/>
<polygon fill="#63b8ff" stroke="#63b8ff" points="164.78,-33.38 173.14,-26.87 162.55,-26.75 164.78,-33.38"/>
</a>
</g>
</g>
<!-- Node4 -->
<g id="Node000004" class="node">
<title>Node4</title>
<g id="a_Node000004"><a xlink:href="class_g_e_application.html#a028396b9bae6c5697fc358e8260b3312" target="_top" xlink:title="Respuesta a un evento de movimiento del cursor.">
<polygon fill="white" stroke="#666666" points="465.75,-208 319.25,-208 319.25,-176 465.75,-176 465.75,-208"/>
<text xml:space="preserve" text-anchor="start" x="327.25" y="-194.5" font-family="Helvetica,sans-Serif" font-size="10.00">GEApplication::cursorPosition</text>
<text xml:space="preserve" text-anchor="middle" x="392.5" y="-182.5" font-family="Helvetica,sans-Serif" font-size="10.00">Callback</text>
</a>
</g>
</g>
<!-- Node3&#45;&gt;Node4 -->
<g id="edge3_Node000003_Node000004" class="edge">
<title>Node3&#45;&gt;Node4</title>
<g id="a_edge3_Node000003_Node000004"><a xlink:title=" ">
<path fill="none" stroke="#63b8ff" d="M266.82,-108.45C272.63,-110.76 278.23,-113.57 283.25,-117 305.86,-132.45 297.29,-150.65 319.25,-167 320.61,-168.02 322.02,-168.99 323.47,-169.93"/>
<polygon fill="#63b8ff" stroke="#63b8ff" points="321.71,-172.96 332.14,-174.85 325.17,-166.87 321.71,-172.96"/>
</a>
</g>
</g>
<!-- Node5 -->
<g id="Node000005" class="node">
<title>Node5</title>
<g id="a_Node000005"><a xlink:href="class_g_e_application.html#ae38335734c12fd0bac757536085068fa" target="_top" xlink:title="Respuesta a un evento de redimensionamiento de la ventana.">
<polygon fill="white" stroke="#666666" points="459,-158 326,-158 326,-126 459,-126 459,-158"/>
<text xml:space="preserve" text-anchor="start" x="334" y="-144.5" font-family="Helvetica,sans-Serif" font-size="10.00">GEApplication::framebuffer</text>
<text xml:space="preserve" text-anchor="middle" x="392.5" y="-132.5" font-family="Helvetica,sans-Serif" font-size="10.00">ResizeCallback</text>
</a>
</g>
</g>
<!-- Node3&#45;&gt;Node5 -->
<g id="edge4_Node000003_Node000005" class="edge">
<title>Node3&#45;&gt;Node5</title>
<g id="a_edge4_Node000003_Node000005"><a xlink:title=" ">
<path fill="none" stroke="#63b8ff" d="M252.63,-108.43C271.16,-112.91 293.39,-118.28 314.58,-123.4"/>
<polygon fill="#63b8ff" stroke="#63b8ff" points="313.52,-126.75 324.07,-125.7 315.17,-119.95 313.52,-126.75"/>
</a>
</g>
</g>
<!-- Node7 -->
<g id="Node000007" class="node">
<title>Node7</title>
<g id="a_Node000007"><a xlink:href="class_g_e_application.html#aff889e80a2c5e7e0bf9b530b7ae3cc16" target="_top" xlink:title="Respuesta a un evento de teclado.">
<polygon fill="white" stroke="#666666" points="461.62,-108 323.38,-108 323.38,-88 461.62,-88 461.62,-108"/>
<text xml:space="preserve" text-anchor="middle" x="392.5" y="-94.5" font-family="Helvetica,sans-Serif" font-size="10.00">GEApplication::keyCallback</text>
</a>
</g>
</g>
<!-- Node3&#45;&gt;Node7 -->
<g id="edge6_Node000003_Node000007" class="edge">
<title>Node3&#45;&gt;Node7</title>
<g id="a_edge6_Node000003_Node000007"><a xlink:title=" ">
<path fill="none" stroke="#63b8ff" d="M274.95,-98C286.89,-98 299.46,-98 311.76,-98"/>
<polygon fill="#63b8ff" stroke="#63b8ff" points="311.44,-101.5 321.44,-98 311.44,-94.5 311.44,-101.5"/>
</a>
</g>
</g>
<!-- Node10 -->
<g id="Node000010" class="node">
<title>Node10</title>
<g id="a_Node000010"><a xlink:href="class_g_e_application.html#a41dd9caf88a4ca14c2c177076ce4ecfd" target="_top" xlink:title="Respuesta a un evento de botón de ratón.">
<polygon fill="white" stroke="#666666" points="463.5,-70 321.5,-70 321.5,-38 463.5,-38 463.5,-70"/>
<text xml:space="preserve" text-anchor="start" x="329.5" y="-56.5" font-family="Helvetica,sans-Serif" font-size="10.00">GEApplication::mouseButton</text>
<text xml:space="preserve" text-anchor="middle" x="392.5" y="-44.5" font-family="Helvetica,sans-Serif" font-size="10.00">Callback</text>
</a>
</g>
</g>
<!-- Node3&#45;&gt;Node10 -->
<g id="edge9_Node000003_Node000010" class="edge">
<title>Node3&#45;&gt;Node10</title>
<g id="a_edge9_Node000003_Node000010"><a xlink:title=" ">
<path fill="none" stroke="#63b8ff" d="M252.63,-87.57C270.54,-83.24 291.91,-78.08 312.45,-73.11"/>
<polygon fill="#63b8ff" stroke="#63b8ff" points="313.05,-76.57 321.95,-70.81 311.41,-69.76 313.05,-76.57"/>
</a>
</g>
</g>
<!-- Node6 -->
<g id="Node000006" class="node">
<title>Node6</title>
<g id="a_Node000006"><a xlink:href="class_g_e_application.html#aba108b6e4e758a6ffa21bf644bce3ab8" target="_top" xlink:title="Reconstruye los objetos con el nuevo tamaño de ventana.">
<polygon fill="white" stroke="#666666" points="634,-152 523.5,-152 523.5,-132 634,-132 634,-152"/>
<text xml:space="preserve" text-anchor="middle" x="578.75" y="-138.5" font-family="Helvetica,sans-Serif" font-size="10.00">GEApplication::resize</text>
</a>
</g>
</g>
<!-- Node5&#45;&gt;Node6 -->
<g id="edge5_Node000005_Node000006" class="edge">
<title>Node5&#45;&gt;Node6</title>
<g id="a_edge5_Node000005_Node000006"><a xlink:title=" ">
<path fill="none" stroke="#63b8ff" d="M459.5,-142C476.45,-142 494.68,-142 511.63,-142"/>
<polygon fill="#63b8ff" stroke="#63b8ff" points="511.62,-145.5 521.62,-142 511.62,-138.5 511.62,-145.5"/>
</a>
</g>
</g>
<!-- Node8 -->
<g id="Node000008" class="node">
<title>Node8</title>
<g id="a_Node000008"><a xlink:href="class_g_e_scene.html#a971e9b981ad219b661db89f03f6d3179" target="_top" xlink:title="Maneja acciones de teclado.">
<polygon fill="white" stroke="#666666" points="634.38,-111 523.12,-111 523.12,-91 634.38,-91 634.38,-111"/>
<text xml:space="preserve" text-anchor="middle" x="578.75" y="-97.5" font-family="Helvetica,sans-Serif" font-size="10.00">GEScene::key_action</text>
</a>
</g>
</g>
<!-- Node7&#45;&gt;Node8 -->
<g id="edge7_Node000007_Node000008" class="edge">
<title>Node7&#45;&gt;Node8</title>
<g id="a_edge7_Node000007_Node000008"><a xlink:title=" ">
<path fill="none" stroke="#63b8ff" d="M462.11,-99.12C478.24,-99.38 495.41,-99.66 511.45,-99.92"/>
<polygon fill="#63b8ff" stroke="#63b8ff" points="511.32,-103.42 521.38,-100.08 511.43,-96.42 511.32,-103.42"/>
</a>
</g>
</g>
<!-- Node9 -->
<g id="Node000009" class="node">
<title>Node9</title>
<g id="a_Node000009"><a xlink:href="class_g_e_application.html#ae1a2c4de09efffbc0a40eb0f1505cf96" target="_top" xlink:title="Cambia entre pantalla completa y modo ventana.">
<polygon fill="white" stroke="#666666" points="655.75,-73 501.75,-73 501.75,-53 655.75,-53 655.75,-73"/>
<text xml:space="preserve" text-anchor="middle" x="578.75" y="-59.5" font-family="Helvetica,sans-Serif" font-size="10.00">GEApplication::swapFullScreen</text>
</a>
</g>
</g>
<!-- Node7&#45;&gt;Node9 -->
<g id="edge8_Node000007_Node000009" class="edge">
<title>Node7&#45;&gt;Node9</title>
<g id="a_edge8_Node000007_Node000009"><a xlink:title=" ">
<path fill="none" stroke="#63b8ff" d="M448.28,-87.59C468.06,-83.84 490.61,-79.55 511.28,-75.63"/>
<polygon fill="#63b8ff" stroke="#63b8ff" points="511.88,-79.07 521.06,-73.77 510.58,-72.2 511.88,-79.07"/>
</a>
</g>
</g>
<!-- Node13 -->
<g id="Node000013" class="node">
<title>Node13</title>
<g id="a_Node000013"><a xlink:href="class_g_e_application.html#a2b00b2d665876b63d4b227c933964c37" target="_top" xlink:title="Lanza la generación del dibujo.">
<polygon fill="white" stroke="#666666" points="445.12,-20 339.88,-20 339.88,0 445.12,0 445.12,-20"/>
<text xml:space="preserve" text-anchor="middle" x="392.5" y="-6.5" font-family="Helvetica,sans-Serif" font-size="10.00">GEApplication::draw</text>
</a>
</g>
</g>
<!-- Node12&#45;&gt;Node13 -->
<g id="edge12_Node000012_Node000013" class="edge">
<title>Node12&#45;&gt;Node13</title>
<g id="a_edge12_Node000012_Node000013"><a xlink:title=" ">
<path fill="none" stroke="#63b8ff" d="M271.88,-13.94C290.03,-13.35 309.87,-12.69 328.08,-12.09"/>
<polygon fill="#63b8ff" stroke="#63b8ff" points="328.09,-15.59 337.97,-11.76 327.86,-8.6 328.09,-15.59"/>
</a>
</g>
</g>
</g>
</svg>
