<?xml version="1.0" encoding="UTF-8" standalone="no"?>
<!DOCTYPE svg PUBLIC "-//W3C//DTD SVG 1.1//EN"
 "http://www.w3.org/Graphics/SVG/1.1/DTD/svg11.dtd">
<!-- Generated by graphviz version 14.1.2 (20260124.0452)
 -->
<!-- Title: xpath_node_set_raw::first Pages: 1 -->
<svg width="319pt" height="40pt"
 viewBox="0.00 0.00 319.00 40.00" xmlns="http://www.w3.org/2000/svg" xmlns:xlink="http://www.w3.org/1999/xlink">
<g id="graph0" class="graph" transform="scale(1 1) rotate(0) translate(4 36)">
<title>xpath_node_set_raw::first</title>
<!-- Node1 -->
<g id="Node000001" class="node">
<title>Node1</title>
<g id="a_Node000001"><a xlink:title=" ">
<polygon fill="#999999" stroke="#666666" points="106,-32 0,-32 0,0 106,0 106,-32"/>
<text xml:space="preserve" text-anchor="start" x="8" y="-18.5" font-family="Helvetica,sans-Serif" font-size="10.00">xpath_node_set_raw</text>
<text xml:space="preserve" text-anchor="middle" x="53" y="-6.5" font-family="Helvetica,sans-Serif" font-size="10.00">::first</text>
</a>
</g>
</g>
<!-- Node2 -->
<g id="Node000002" class="node">
<title>Node2</title>
<g id="a_Node000002"><a xlink:href="pugixml_8cpp.html#a959c2209346a23978707b96ca05d63d4" target="_top" xlink:title=" ">
<polygon fill="white" stroke="#666666" points="203.75,-26 142,-26 142,-6 203.75,-6 203.75,-26"/>
<text xml:space="preserve" text-anchor="middle" x="172.88" y="-12.5" font-family="Helvetica,sans-Serif" font-size="10.00">xpath_first</text>
</a>
</g>
</g>
<!-- Node1&#45;&gt;Node2 -->
<g id="edge1_Node000001_Node000002" class="edge">
<title>Node1&#45;&gt;Node2</title>
<g id="a_edge1_Node000001_Node000002"><a xlink:title=" ">
<path fill="none" stroke="#63b8ff" d="M106.39,-16C114.39,-16 122.56,-16 130.29,-16"/>
<polygon fill="#63b8ff" stroke="#63b8ff" points="130.09,-19.5 140.09,-16 130.09,-12.5 130.09,-19.5"/>
</a>
</g>
</g>
<!-- Node3 -->
<g id="Node000003" class="node">
<title>Node3</title>
<g id="a_Node000003"><a xlink:href="pugixml_8cpp.html#a08f53c77efa91323ff295e70af0ea5b8" target="_top" xlink:title=" ">
<polygon fill="white" stroke="#666666" points="311.25,-26 239.75,-26 239.75,-6 311.25,-6 311.25,-26"/>
<text xml:space="preserve" text-anchor="middle" x="275.5" y="-12.5" font-family="Helvetica,sans-Serif" font-size="10.00">min_element</text>
</a>
</g>
</g>
<!-- Node2&#45;&gt;Node3 -->
<g id="edge2_Node000002_Node000003" class="edge">
<title>Node2&#45;&gt;Node3</title>
<g id="a_edge2_Node000002_Node000003"><a xlink:title=" ">
<path fill="none" stroke="#63b8ff" d="M204.07,-16C211.62,-16 219.9,-16 228.04,-16"/>
<polygon fill="#63b8ff" stroke="#63b8ff" points="227.86,-19.5 237.86,-16 227.86,-12.5 227.86,-19.5"/>
</a>
</g>
</g>
</g>
</svg>
