<?xml version="1.0" encoding="UTF-8" standalone="no"?>
<!DOCTYPE svg PUBLIC "-//W3C//DTD SVG 1.1//EN"
 "http://www.w3.org/Graphics/SVG/1.1/DTD/svg11.dtd">
<!-- Generated by graphviz version 14.1.2 (20260124.0452)
 -->
<!-- Title: xpath_ast_node::compare_rel Pages: 1 -->
<svg width="1213pt" height="302pt"
 viewBox="0.00 0.00 1213.00 302.00" xmlns="http://www.w3.org/2000/svg" xmlns:xlink="http://www.w3.org/1999/xlink">
<g id="graph0" class="graph" transform="scale(1 1) rotate(0) translate(4 298)">
<title>xpath_ast_node::compare_rel</title>
<!-- Node1 -->
<g id="Node000001" class="node">
<title>Node1</title>
<g id="a_Node000001"><a xlink:title=" ">
<polygon fill="#999999" stroke="#666666" points="1205,-189 1060.75,-189 1060.75,-169 1205,-169 1205,-189"/>
<text xml:space="preserve" text-anchor="middle" x="1132.88" y="-175.5" font-family="Helvetica,sans-Serif" font-size="10.00">xpath_ast_node::compare_rel</text>
</a>
</g>
</g>
<!-- Node2 -->
<g id="Node000002" class="node">
<title>Node2</title>
<g id="a_Node000002"><a xlink:href="classxpath__ast__node.html#ab7f965a92023bc2704b8e6fd9f3d7c14" target="_top" xlink:title=" ">
<polygon fill="white" stroke="#666666" points="1024.75,-195 915.75,-195 915.75,-163 1024.75,-163 1024.75,-195"/>
<text xml:space="preserve" text-anchor="start" x="923.75" y="-181.5" font-family="Helvetica,sans-Serif" font-size="10.00">xpath_ast_node::eval</text>
<text xml:space="preserve" text-anchor="middle" x="970.25" y="-169.5" font-family="Helvetica,sans-Serif" font-size="10.00">_boolean</text>
</a>
</g>
</g>
<!-- Node1&#45;&gt;Node2 -->
<g id="edge1_Node000001_Node000002" class="edge">
<title>Node1&#45;&gt;Node2</title>
<g id="a_edge1_Node000001_Node000002"><a xlink:title=" ">
<path fill="none" stroke="#63b8ff" d="M1049.01,-179C1040.88,-179 1032.79,-179 1025.06,-179"/>
<polygon fill="#63b8ff" stroke="#63b8ff" points="1048.97,-182.5 1058.97,-179 1048.97,-175.5 1048.97,-182.5"/>
</a>
</g>
</g>
<!-- Node3 -->
<g id="Node000003" class="node">
<title>Node3</title>
<g id="a_Node000003"><a xlink:href="classxpath__ast__node.html#ab4e5bbd3f2e83c86a43349374b4bfc22" target="_top" xlink:title=" ">
<polygon fill="white" stroke="#666666" points="879.75,-142 765.5,-142 765.5,-110 879.75,-110 879.75,-142"/>
<text xml:space="preserve" text-anchor="start" x="773.5" y="-128.5" font-family="Helvetica,sans-Serif" font-size="10.00">xpath_ast_node::apply</text>
<text xml:space="preserve" text-anchor="middle" x="822.62" y="-116.5" font-family="Helvetica,sans-Serif" font-size="10.00">_predicate_boolean</text>
</a>
</g>
</g>
<!-- Node2&#45;&gt;Node3 -->
<g id="edge2_Node000002_Node000003" class="edge">
<title>Node2&#45;&gt;Node3</title>
<g id="a_edge2_Node000002_Node000003"><a xlink:title=" ">
<path fill="none" stroke="#63b8ff" d="M913.45,-158.69C898.71,-153.33 882.98,-147.6 868.88,-142.47"/>
<polygon fill="#63b8ff" stroke="#63b8ff" points="911.96,-161.87 922.55,-162 914.35,-155.29 911.96,-161.87"/>
</a>
</g>
</g>
<!-- Node6 -->
<g id="Node000006" class="node">
<title>Node6</title>
<g id="a_Node000006"><a xlink:href="classxpath__ast__node.html#a98dd7f6e67fe2c56c63056eed835d6a4" target="_top" xlink:title=" ">
<polygon fill="white" stroke="#666666" points="144.25,-242 0,-242 0,-222 144.25,-222 144.25,-242"/>
<text xml:space="preserve" text-anchor="middle" x="72.12" y="-228.5" font-family="Helvetica,sans-Serif" font-size="10.00">xpath_ast_node::compare_eq</text>
</a>
</g>
</g>
<!-- Node2&#45;&gt;Node6 -->
<g id="edge21_Node000002_Node000006" class="edge">
<title>Node2&#45;&gt;Node6</title>
<g id="a_edge21_Node000002_Node000006"><a xlink:title=" ">
<path fill="none" stroke="#63b8ff" d="M905.48,-197.07C896.98,-202.92 892.73,-208.05 879.75,-214 792.7,-253.94 769.15,-276 673.38,-276 673.38,-276 673.38,-276 378.75,-276 293.66,-276 197.19,-255.81 135.79,-242.47"/>
<polygon fill="#63b8ff" stroke="#63b8ff" points="907.25,-200.09 914.06,-191.98 903.67,-194.08 907.25,-200.09"/>
</a>
</g>
</g>
<!-- Node7 -->
<g id="Node000007" class="node">
<title>Node7</title>
<g id="a_Node000007"><a xlink:href="classxpath__ast__node.html#a6b675237a590548b68d0e0b97518b6df" target="_top" xlink:title=" ">
<polygon fill="white" stroke="#666666" points="434.25,-195 325.25,-195 325.25,-163 434.25,-163 434.25,-195"/>
<text xml:space="preserve" text-anchor="start" x="333.25" y="-181.5" font-family="Helvetica,sans-Serif" font-size="10.00">xpath_ast_node::eval</text>
<text xml:space="preserve" text-anchor="middle" x="379.75" y="-169.5" font-family="Helvetica,sans-Serif" font-size="10.00">_string</text>
</a>
</g>
</g>
<!-- Node2&#45;&gt;Node7 -->
<g id="edge23_Node000002_Node000007" class="edge">
<title>Node2&#45;&gt;Node7</title>
<g id="a_edge23_Node000002_Node000007"><a xlink:title=" ">
<path fill="none" stroke="#63b8ff" d="M904.2,-174.57C787.12,-171.37 543.03,-171.48 434.62,-174.9"/>
<polygon fill="#63b8ff" stroke="#63b8ff" points="903.85,-178.06 913.95,-174.86 904.06,-171.07 903.85,-178.06"/>
</a>
</g>
</g>
<!-- Node8 -->
<g id="Node000008" class="node">
<title>Node8</title>
<g id="a_Node000008"><a xlink:href="classxpath__ast__node.html#a92dd7048e28d486bc7f382d1fc6f1de6" target="_top" xlink:title=" ">
<polygon fill="white" stroke="#666666" points="289.25,-112 180.25,-112 180.25,-80 289.25,-80 289.25,-112"/>
<text xml:space="preserve" text-anchor="start" x="188.25" y="-98.5" font-family="Helvetica,sans-Serif" font-size="10.00">xpath_ast_node::eval</text>
<text xml:space="preserve" text-anchor="middle" x="234.75" y="-86.5" font-family="Helvetica,sans-Serif" font-size="10.00">_number</text>
</a>
</g>
</g>
<!-- Node2&#45;&gt;Node8 -->
<g id="edge22_Node000002_Node000008" class="edge">
<title>Node2&#45;&gt;Node8</title>
<g id="a_edge22_Node000002_Node000008"><a xlink:title=" ">
<path fill="none" stroke="#63b8ff" d="M952.87,-153.59C936.18,-133.65 908.69,-107.3 879.75,-92 795.94,-47.68 768.19,-38 673.38,-38 673.38,-38 673.38,-38 523.75,-38 432.71,-38 327.75,-62.09 273.14,-79.59"/>
<polygon fill="#63b8ff" stroke="#63b8ff" points="950.05,-155.67 959.01,-161.32 955.53,-151.31 950.05,-155.67"/>
</a>
</g>
</g>
<!-- Node4 -->
<g id="Node000004" class="node">
<title>Node4</title>
<g id="a_Node000004"><a xlink:href="classxpath__ast__node.html#a7e35f265c9e0712a16e1d8a9db4c7672" target="_top" xlink:title=" ">
<polygon fill="white" stroke="#666666" points="729.5,-142 615.25,-142 615.25,-110 729.5,-110 729.5,-142"/>
<text xml:space="preserve" text-anchor="start" x="623.25" y="-128.5" font-family="Helvetica,sans-Serif" font-size="10.00">xpath_ast_node::apply</text>
<text xml:space="preserve" text-anchor="middle" x="672.38" y="-116.5" font-family="Helvetica,sans-Serif" font-size="10.00">_predicate</text>
</a>
</g>
</g>
<!-- Node3&#45;&gt;Node4 -->
<g id="edge3_Node000003_Node000004" class="edge">
<title>Node3&#45;&gt;Node4</title>
<g id="a_edge3_Node000003_Node000004"><a xlink:title=" ">
<path fill="none" stroke="#63b8ff" d="M753.84,-126C745.76,-126 737.58,-126 729.69,-126"/>
<polygon fill="#63b8ff" stroke="#63b8ff" points="753.64,-129.5 763.64,-126 753.64,-122.5 753.64,-129.5"/>
</a>
</g>
</g>
<!-- Node5 -->
<g id="Node000005" class="node">
<title>Node5</title>
<g id="a_Node000005"><a xlink:href="classxpath__ast__node.html#a68cace396dd4eeae67ecfcd34a3a8285" target="_top" xlink:title=" ">
<polygon fill="white" stroke="#666666" points="579.25,-248 470.25,-248 470.25,-216 579.25,-216 579.25,-248"/>
<text xml:space="preserve" text-anchor="start" x="478.25" y="-234.5" font-family="Helvetica,sans-Serif" font-size="10.00">xpath_ast_node::eval</text>
<text xml:space="preserve" text-anchor="middle" x="524.75" y="-222.5" font-family="Helvetica,sans-Serif" font-size="10.00">_node_set</text>
</a>
</g>
</g>
<!-- Node4&#45;&gt;Node5 -->
<g id="edge4_Node000004_Node000005" class="edge">
<title>Node4&#45;&gt;Node5</title>
<g id="a_edge4_Node000004_Node000005"><a xlink:title=" ">
<path fill="none" stroke="#63b8ff" d="M639.68,-149.07C611.96,-169.25 572.43,-198.02 547.97,-215.83"/>
<polygon fill="#63b8ff" stroke="#63b8ff" points="641.69,-151.94 647.72,-143.22 637.57,-146.28 641.69,-151.94"/>
</a>
</g>
</g>
<!-- Node5&#45;&gt;Node1 -->
<g id="edge7_Node000005_Node000001" class="edge">
<title>Node5&#45;&gt;Node1</title>
<g id="a_edge7_Node000005_Node000001"><a xlink:title=" ">
<path fill="none" stroke="#63b8ff" d="M591.07,-237.7C599.21,-238.24 607.42,-238.69 615.25,-239 797.77,-246.13 845.03,-236.66 1024.75,-204 1046.92,-199.97 1071.41,-194.34 1091.38,-189.45"/>
<polygon fill="#63b8ff" stroke="#63b8ff" points="591.39,-234.22 581.17,-237.01 590.9,-241.2 591.39,-234.22"/>
</a>
</g>
</g>
<!-- Node5&#45;&gt;Node2 -->
<g id="edge8_Node000005_Node000002" class="edge">
<title>Node5&#45;&gt;Node2</title>
<g id="a_edge8_Node000005_Node000002"><a xlink:title=" ">
<path fill="none" stroke="#63b8ff" d="M590.95,-229.74C662.29,-226.5 779.81,-218.95 879.75,-202 891.45,-200.01 903.87,-197.25 915.61,-194.33"/>
<polygon fill="#63b8ff" stroke="#63b8ff" points="590.83,-226.24 580.99,-230.17 591.13,-233.23 590.83,-226.24"/>
</a>
</g>
</g>
<!-- Node5&#45;&gt;Node6 -->
<g id="edge5_Node000005_Node000006" class="edge">
<title>Node5&#45;&gt;Node6</title>
<g id="a_edge5_Node000005_Node000006"><a xlink:title=" ">
<path fill="none" stroke="#63b8ff" d="M458.47,-232C374.98,-232 230.87,-232 144.53,-232"/>
<polygon fill="#63b8ff" stroke="#63b8ff" points="458.33,-235.5 468.33,-232 458.33,-228.5 458.33,-235.5"/>
</a>
</g>
</g>
<!-- Node5&#45;&gt;Node7 -->
<g id="edge9_Node000005_Node000007" class="edge">
<title>Node5&#45;&gt;Node7</title>
<g id="a_edge9_Node000005_Node000007"><a xlink:title=" ">
<path fill="none" stroke="#63b8ff" d="M468.53,-211.54C454.18,-206.22 438.9,-200.55 425.18,-195.47"/>
<polygon fill="#63b8ff" stroke="#63b8ff" points="467.28,-214.8 477.87,-214.99 469.71,-208.24 467.28,-214.8"/>
</a>
</g>
</g>
<!-- Node6&#45;&gt;Node2 -->
<g id="edge6_Node000006_Node000002" class="edge">
<title>Node6&#45;&gt;Node2</title>
<g id="a_edge6_Node000006_Node000002"><a xlink:title=" ">
<path fill="none" stroke="#63b8ff" d="M103.6,-246.21C158.24,-264.95 276.69,-294 378.75,-294 673.38,-294 673.38,-294 673.38,-294 769.15,-294 792.7,-271.94 879.75,-232 897.01,-224.08 898.83,-217.62 915.75,-209 925.26,-204.15 936.17,-199.69 945.64,-195.48"/>
<polygon fill="#63b8ff" stroke="#63b8ff" points="104.96,-242.98 94.37,-242.9 102.6,-249.57 104.96,-242.98"/>
</a>
</g>
</g>
<!-- Node7&#45;&gt;Node2 -->
<g id="edge11_Node000007_Node000002" class="edge">
<title>Node7&#45;&gt;Node2</title>
<g id="a_edge11_Node000007_Node000002"><a xlink:title=" ">
<path fill="none" stroke="#63b8ff" d="M445.89,-183.43C563.04,-186.63 807.13,-186.52 915.46,-183.1"/>
<polygon fill="#63b8ff" stroke="#63b8ff" points="446.23,-179.94 436.14,-183.14 446.03,-186.94 446.23,-179.94"/>
</a>
</g>
</g>
<!-- Node7&#45;&gt;Node6 -->
<g id="edge10_Node000007_Node000006" class="edge">
<title>Node7&#45;&gt;Node6</title>
<g id="a_edge10_Node000007_Node000006"><a xlink:title=" ">
<path fill="none" stroke="#63b8ff" d="M313.79,-190.27C260.49,-199.51 185.62,-212.49 133.59,-221.51"/>
<polygon fill="#63b8ff" stroke="#63b8ff" points="314.07,-193.77 323.32,-188.61 312.87,-186.87 314.07,-193.77"/>
</a>
</g>
</g>
<!-- Node7&#45;&gt;Node8 -->
<g id="edge12_Node000007_Node000008" class="edge">
<title>Node7&#45;&gt;Node8</title>
<g id="a_edge12_Node000007_Node000008"><a xlink:title=" ">
<path fill="none" stroke="#63b8ff" d="M349.25,-156.29C327.64,-142.38 298.1,-125.07 274.57,-112.45"/>
<polygon fill="#63b8ff" stroke="#63b8ff" points="347.32,-159.21 357.6,-161.78 351.17,-153.37 347.32,-159.21"/>
</a>
</g>
</g>
<!-- Node8&#45;&gt;Node1 -->
<g id="edge18_Node000008_Node000001" class="edge">
<title>Node8&#45;&gt;Node1</title>
<g id="a_edge18_Node000008_Node000001"><a xlink:title=" ">
<path fill="none" stroke="#63b8ff" d="M274.28,-74.31C328.28,-45.99 430.36,0 523.75,0 823.62,0 823.62,0 823.62,0 958.84,0 1087.8,-130.4 1122.67,-168.6"/>
<polygon fill="#63b8ff" stroke="#63b8ff" points="272.65,-71.21 265.47,-79 275.94,-77.39 272.65,-71.21"/>
</a>
</g>
</g>
<!-- Node8&#45;&gt;Node2 -->
<g id="edge19_Node000008_Node000002" class="edge">
<title>Node8&#45;&gt;Node2</title>
<g id="a_edge19_Node000008_Node000002"><a xlink:title=" ">
<path fill="none" stroke="#63b8ff" d="M300.89,-85.56C358.92,-73.41 446.36,-56 523.75,-56 673.38,-56 673.38,-56 673.38,-56 768.19,-56 795.94,-65.68 879.75,-110 905.99,-123.87 931.03,-146.82 947.91,-162.64"/>
<polygon fill="#63b8ff" stroke="#63b8ff" points="300.24,-82.13 291.17,-87.61 301.68,-88.98 300.24,-82.13"/>
</a>
</g>
</g>
<!-- Node8&#45;&gt;Node6 -->
<g id="edge17_Node000008_Node000006" class="edge">
<title>Node8&#45;&gt;Node6</title>
<g id="a_edge17_Node000008_Node000006"><a xlink:title=" ">
<path fill="none" stroke="#63b8ff" d="M205.92,-119.56C170.46,-149.59 110.73,-200.16 85.24,-221.74"/>
<polygon fill="#63b8ff" stroke="#63b8ff" points="207.85,-122.52 213.22,-113.38 203.33,-117.17 207.85,-122.52"/>
</a>
</g>
</g>
<!-- Node8&#45;&gt;Node7 -->
<g id="edge20_Node000008_Node000007" class="edge">
<title>Node8&#45;&gt;Node7</title>
<g id="a_edge20_Node000008_Node000007"><a xlink:title=" ">
<path fill="none" stroke="#63b8ff" d="M264.91,-118.49C286.59,-132.46 316.38,-149.92 340.05,-162.61"/>
<polygon fill="#63b8ff" stroke="#63b8ff" points="267.11,-115.75 256.84,-113.18 263.27,-121.6 267.11,-115.75"/>
</a>
</g>
</g>
<!-- Node9 -->
<g id="Node000009" class="node">
<title>Node9</title>
<g id="a_Node000009"><a xlink:href="classxpath__ast__node.html#abf2d4b745493f63aebc1c89d9fde8eed" target="_top" xlink:title=" ">
<polygon fill="white" stroke="#666666" points="129.25,-78 15,-78 15,-46 129.25,-46 129.25,-78"/>
<text xml:space="preserve" text-anchor="start" x="23" y="-64.5" font-family="Helvetica,sans-Serif" font-size="10.00">xpath_ast_node::apply</text>
<text xml:space="preserve" text-anchor="middle" x="72.12" y="-52.5" font-family="Helvetica,sans-Serif" font-size="10.00">_predicate_number</text>
</a>
</g>
</g>
<!-- Node8&#45;&gt;Node9 -->
<g id="edge13_Node000008_Node000009" class="edge">
<title>Node8&#45;&gt;Node9</title>
<g id="a_edge13_Node000008_Node000009"><a xlink:title=" ">
<path fill="none" stroke="#63b8ff" d="M168.64,-82.22C155.73,-79.48 142.27,-76.64 129.66,-73.97"/>
<polygon fill="#63b8ff" stroke="#63b8ff" points="167.83,-85.62 178.34,-84.27 169.28,-78.78 167.83,-85.62"/>
</a>
</g>
</g>
<!-- Node10 -->
<g id="Node000010" class="node">
<title>Node10</title>
<g id="a_Node000010"><a xlink:href="classxpath__ast__node.html#a8cedd7e15623b9fa431788b8843f1463" target="_top" xlink:title=" ">
<polygon fill="white" stroke="#666666" points="136,-147 8.25,-147 8.25,-115 136,-115 136,-147"/>
<text xml:space="preserve" text-anchor="start" x="16.25" y="-133.5" font-family="Helvetica,sans-Serif" font-size="10.00">xpath_ast_node::apply</text>
<text xml:space="preserve" text-anchor="middle" x="72.12" y="-121.5" font-family="Helvetica,sans-Serif" font-size="10.00">_predicate_number_const</text>
</a>
</g>
</g>
<!-- Node8&#45;&gt;Node10 -->
<g id="edge15_Node000008_Node000010" class="edge">
<title>Node8&#45;&gt;Node10</title>
<g id="a_edge15_Node000008_Node000010"><a xlink:title=" ">
<path fill="none" stroke="#63b8ff" d="M168.83,-110.15C158.12,-112.48 147.03,-114.9 136.36,-117.22"/>
<polygon fill="#63b8ff" stroke="#63b8ff" points="169.31,-113.62 178.34,-108.07 167.82,-106.78 169.31,-113.62"/>
</a>
</g>
</g>
<!-- Node9&#45;&gt;Node4 -->
<g id="edge14_Node000009_Node000004" class="edge">
<title>Node9&#45;&gt;Node4</title>
<g id="a_edge14_Node000009_Node000004"><a xlink:title=" ">
<path fill="none" stroke="#63b8ff" d="M141.03,-63.06C183.66,-64.17 239.75,-66.42 289.25,-71 405.54,-81.76 540.56,-103.36 614.94,-116.05"/>
<polygon fill="#63b8ff" stroke="#63b8ff" points="141.25,-59.57 131.17,-62.83 141.08,-66.57 141.25,-59.57"/>
</a>
</g>
</g>
<!-- Node10&#45;&gt;Node4 -->
<g id="edge16_Node000010_Node000004" class="edge">
<title>Node10&#45;&gt;Node4</title>
<g id="a_edge16_Node000010_Node000004"><a xlink:title=" ">
<path fill="none" stroke="#63b8ff" d="M147.7,-130.38C268.99,-129.36 506.33,-127.38 614.82,-126.47"/>
<polygon fill="#63b8ff" stroke="#63b8ff" points="147.82,-126.88 137.85,-130.46 147.88,-133.88 147.82,-126.88"/>
</a>
</g>
</g>
</g>
</svg>
