<?xml version="1.0" encoding="UTF-8" standalone="no"?>
<!DOCTYPE svg PUBLIC "-//W3C//DTD SVG 1.1//EN"
 "http://www.w3.org/Graphics/SVG/1.1/DTD/svg11.dtd">
<!-- Generated by graphviz version 14.1.2 (20260124.0452)
 -->
<!-- Title: GEBalljoint::addChild Pages: 1 -->
<svg width="651pt" height="46pt"
 viewBox="0.00 0.00 651.00 46.00" xmlns="http://www.w3.org/2000/svg" xmlns:xlink="http://www.w3.org/1999/xlink">
<g id="graph0" class="graph" transform="scale(1 1) rotate(0) translate(4 42)">
<title>GEBalljoint::addChild</title>
<!-- Node1 -->
<g id="Node000001" class="node">
<title>Node1</title>
<g id="a_Node000001"><a xlink:title="Añade una articulación hija.">
<polygon fill="#999999" stroke="#666666" points="643,-20 534,-20 534,0 643,0 643,-20"/>
<text xml:space="preserve" text-anchor="middle" x="588.5" y="-6.5" font-family="Helvetica,sans-Serif" font-size="10.00">GEBalljoint::addChild</text>
</a>
</g>
</g>
<!-- Node2 -->
<g id="Node000002" class="node">
<title>Node2</title>
<g id="a_Node000002"><a xlink:href="class_g_e_skeleton.html#a24b0dd5ddd9c940fb8e95eaceb720ea0" target="_top" xlink:title="Crea recursivamente las articulaciones desde los datos parseados.">
<polygon fill="white" stroke="#666666" points="498,-20 332,-20 332,0 498,0 498,-20"/>
<text xml:space="preserve" text-anchor="middle" x="415" y="-6.5" font-family="Helvetica,sans-Serif" font-size="10.00">GESkeleton::createJointFromData</text>
</a>
</g>
</g>
<!-- Node1&#45;&gt;Node2 -->
<g id="edge1_Node000001_Node000002" class="edge">
<title>Node1&#45;&gt;Node2</title>
<g id="a_edge1_Node000001_Node000002"><a xlink:title=" ">
<path fill="none" stroke="#63b8ff" d="M522.44,-10C514.61,-10 506.54,-10 498.5,-10"/>
<polygon fill="#63b8ff" stroke="#63b8ff" points="522.19,-13.5 532.19,-10 522.19,-6.5 522.19,-13.5"/>
</a>
</g>
</g>
<!-- Node2&#45;&gt;Node2 -->
<g id="edge4_Node000002_Node000002" class="edge">
<title>Node2&#45;&gt;Node2</title>
<g id="a_edge4_Node000002_Node000002"><a xlink:title=" ">
<path fill="none" stroke="#63b8ff" d="M445.99,-31.11C442.29,-35.14 431.96,-38 415,-38 384.84,-38 375.65,-28.98 387.43,-20.34"/>
<polygon fill="#63b8ff" stroke="#63b8ff" points="449.39,-30.25 443.03,-21.78 442.72,-32.37 449.39,-30.25"/>
</a>
</g>
</g>
<!-- Node3 -->
<g id="Node000003" class="node">
<title>Node3</title>
<g id="a_Node000003"><a xlink:href="class_g_e_skeleton.html#ade3f0504c12faea2597ee2c23abf22bd" target="_top" xlink:title="Construye la jerarquía de articulaciones desde body.skel.">
<polygon fill="white" stroke="#666666" points="296,-20 163,-20 163,0 296,0 296,-20"/>
<text xml:space="preserve" text-anchor="middle" x="229.5" y="-6.5" font-family="Helvetica,sans-Serif" font-size="10.00">GESkeleton::buildSkeleton</text>
</a>
</g>
</g>
<!-- Node2&#45;&gt;Node3 -->
<g id="edge2_Node000002_Node000003" class="edge">
<title>Node2&#45;&gt;Node3</title>
<g id="a_edge2_Node000002_Node000003"><a xlink:title=" ">
<path fill="none" stroke="#63b8ff" d="M320.25,-10C312.19,-10 304.14,-10 296.36,-10"/>
<polygon fill="#63b8ff" stroke="#63b8ff" points="320.13,-13.5 330.13,-10 320.13,-6.5 320.13,-13.5"/>
</a>
</g>
</g>
<!-- Node4 -->
<g id="Node000004" class="node">
<title>Node4</title>
<g id="a_Node000004"><a xlink:href="class_g_e_skeleton.html#ad854854fdf1e4d090553d4d6edbfe095" target="_top" xlink:title="Constructor del esqueleto.">
<polygon fill="white" stroke="#666666" points="127,-20 0,-20 0,0 127,0 127,-20"/>
<text xml:space="preserve" text-anchor="middle" x="63.5" y="-6.5" font-family="Helvetica,sans-Serif" font-size="10.00">GESkeleton::GESkeleton</text>
</a>
</g>
</g>
<!-- Node3&#45;&gt;Node4 -->
<g id="edge3_Node000003_Node000004" class="edge">
<title>Node3&#45;&gt;Node4</title>
<g id="a_edge3_Node000003_Node000004"><a xlink:title=" ">
<path fill="none" stroke="#63b8ff" d="M151.41,-10C143.35,-10 135.22,-10 127.34,-10"/>
<polygon fill="#63b8ff" stroke="#63b8ff" points="151.23,-13.5 161.23,-10 151.23,-6.5 151.23,-13.5"/>
</a>
</g>
</g>
</g>
</svg>
