<?xml version="1.0" encoding="UTF-8" standalone="no"?>
<!DOCTYPE svg PUBLIC "-//W3C//DTD SVG 1.1//EN"
 "http://www.w3.org/Graphics/SVG/1.1/DTD/svg11.dtd">
<!-- Generated by graphviz version 14.1.2 (20260124.0452)
 -->
<!-- Title: pugi::xpath_variable::set Pages: 1 -->
<svg width="270pt" height="240pt"
 viewBox="0.00 0.00 270.00 240.00" xmlns="http://www.w3.org/2000/svg" xmlns:xlink="http://www.w3.org/1999/xlink">
<g id="graph0" class="graph" transform="scale(1 1) rotate(0) translate(4 236)">
<title>pugi::xpath_variable::set</title>
<!-- Node1 -->
<g id="Node000001" class="node">
<title>Node1</title>
<g id="a_Node000001"><a xlink:title=" ">
<polygon fill="#999999" stroke="#666666" points="261.5,-126 139,-126 139,-106 261.5,-106 261.5,-126"/>
<text xml:space="preserve" text-anchor="middle" x="200.25" y="-112.5" font-family="Helvetica,sans-Serif" font-size="10.00">pugi::xpath_variable::set</text>
</a>
</g>
</g>
<!-- Node2 -->
<g id="Node000002" class="node">
<title>Node2</title>
<g id="a_Node000002"><a xlink:href="classpugi_1_1xpath__variable.html#abdae5ede6814c614bb09768847d06384" target="_top" xlink:title=" ">
<polygon fill="white" stroke="#666666" points="103,-232 0,-232 0,-200 103,-200 103,-232"/>
<text xml:space="preserve" text-anchor="start" x="8" y="-218.5" font-family="Helvetica,sans-Serif" font-size="10.00">pugi::xpath_variable</text>
<text xml:space="preserve" text-anchor="middle" x="51.5" y="-206.5" font-family="Helvetica,sans-Serif" font-size="10.00">::operator=</text>
</a>
</g>
</g>
<!-- Node1&#45;&gt;Node2 -->
<g id="edge1_Node000001_Node000002" class="edge">
<title>Node1&#45;&gt;Node2</title>
<g id="a_edge1_Node000001_Node000002"><a xlink:title=" ">
<path fill="none" stroke="#63b8ff" d="M179.05,-133.71C160.16,-149.77 130.78,-173.55 103,-191 98.28,-193.97 93.16,-196.85 88.04,-199.54"/>
<polygon fill="#63b8ff" stroke="#63b8ff" points="181.23,-136.45 186.52,-127.28 176.66,-131.15 181.23,-136.45"/>
</a>
</g>
</g>
<!-- Node3 -->
<g id="Node000003" class="node">
<title>Node3</title>
<g id="a_Node000003"><a xlink:href="classpugi_1_1xpath__variable__set.html#a97f57493e6017940ae4c775cdd9a4204" target="_top" xlink:title=" ">
<polygon fill="white" stroke="#666666" points="103,-182 0,-182 0,-150 103,-150 103,-182"/>
<text xml:space="preserve" text-anchor="start" x="8" y="-168.5" font-family="Helvetica,sans-Serif" font-size="10.00">pugi::xpath_variable</text>
<text xml:space="preserve" text-anchor="middle" x="51.5" y="-156.5" font-family="Helvetica,sans-Serif" font-size="10.00">_set::set</text>
</a>
</g>
</g>
<!-- Node1&#45;&gt;Node3 -->
<g id="edge2_Node000001_Node000003" class="edge">
<title>Node1&#45;&gt;Node3</title>
<g id="a_edge2_Node000001_Node000003"><a xlink:title=" ">
<path fill="none" stroke="#63b8ff" d="M157.64,-130.18C139.95,-136.2 119.21,-143.27 100.84,-149.53"/>
<polygon fill="#63b8ff" stroke="#63b8ff" points="158.72,-133.51 167.05,-126.97 156.46,-126.88 158.72,-133.51"/>
</a>
</g>
</g>
<!-- Node4 -->
<g id="Node000004" class="node">
<title>Node4</title>
<g id="a_Node000004"><a xlink:href="classpugi_1_1xpath__variable__set.html#a0439e5a5cc3ec6008e6638a73f840fec" target="_top" xlink:title=" ">
<polygon fill="white" stroke="#666666" points="103,-132 0,-132 0,-100 103,-100 103,-132"/>
<text xml:space="preserve" text-anchor="start" x="8" y="-118.5" font-family="Helvetica,sans-Serif" font-size="10.00">pugi::xpath_variable</text>
<text xml:space="preserve" text-anchor="middle" x="51.5" y="-106.5" font-family="Helvetica,sans-Serif" font-size="10.00">_set::set</text>
</a>
</g>
</g>
<!-- Node1&#45;&gt;Node4 -->
<g id="edge3_Node000001_Node000004" class="edge">
<title>Node1&#45;&gt;Node4</title>
<g id="a_edge3_Node000001_Node000004"><a xlink:title=" ">
<path fill="none" stroke="#63b8ff" d="M127.23,-116C119.07,-116 110.89,-116 103.09,-116"/>
<polygon fill="#63b8ff" stroke="#63b8ff" points="127.2,-119.5 137.2,-116 127.2,-112.5 127.2,-119.5"/>
</a>
</g>
</g>
<!-- Node5 -->
<g id="Node000005" class="node">
<title>Node5</title>
<g id="a_Node000005"><a xlink:href="classpugi_1_1xpath__variable__set.html#aa69e883729406c5911febf9c56a0c67d" target="_top" xlink:title=" ">
<polygon fill="white" stroke="#666666" points="103,-82 0,-82 0,-50 103,-50 103,-82"/>
<text xml:space="preserve" text-anchor="start" x="8" y="-68.5" font-family="Helvetica,sans-Serif" font-size="10.00">pugi::xpath_variable</text>
<text xml:space="preserve" text-anchor="middle" x="51.5" y="-56.5" font-family="Helvetica,sans-Serif" font-size="10.00">_set::set</text>
</a>
</g>
</g>
<!-- Node1&#45;&gt;Node5 -->
<g id="edge4_Node000001_Node000005" class="edge">
<title>Node1&#45;&gt;Node5</title>
<g id="a_edge4_Node000001_Node000005"><a xlink:title=" ">
<path fill="none" stroke="#63b8ff" d="M157.64,-101.82C139.95,-95.8 119.21,-88.73 100.84,-82.47"/>
<polygon fill="#63b8ff" stroke="#63b8ff" points="156.46,-105.12 167.05,-105.03 158.72,-98.49 156.46,-105.12"/>
</a>
</g>
</g>
<!-- Node6 -->
<g id="Node000006" class="node">
<title>Node6</title>
<g id="a_Node000006"><a xlink:href="classpugi_1_1xpath__variable__set.html#ade2375d40f812706fb3fa1f6d06d84f8" target="_top" xlink:title=" ">
<polygon fill="white" stroke="#666666" points="103,-32 0,-32 0,0 103,0 103,-32"/>
<text xml:space="preserve" text-anchor="start" x="8" y="-18.5" font-family="Helvetica,sans-Serif" font-size="10.00">pugi::xpath_variable</text>
<text xml:space="preserve" text-anchor="middle" x="51.5" y="-6.5" font-family="Helvetica,sans-Serif" font-size="10.00">_set::set</text>
</a>
</g>
</g>
<!-- Node1&#45;&gt;Node6 -->
<g id="edge5_Node000001_Node000006" class="edge">
<title>Node1&#45;&gt;Node6</title>
<g id="a_edge5_Node000001_Node000006"><a xlink:title=" ">
<path fill="none" stroke="#63b8ff" d="M179.05,-98.29C160.16,-82.23 130.78,-58.45 103,-41 98.28,-38.03 93.16,-35.15 88.04,-32.46"/>
<polygon fill="#63b8ff" stroke="#63b8ff" points="176.66,-100.85 186.52,-104.72 181.23,-95.55 176.66,-100.85"/>
</a>
</g>
</g>
</g>
</svg>
