<?xml version="1.0" encoding="UTF-8" standalone="no"?>
<!DOCTYPE svg PUBLIC "-//W3C//DTD SVG 1.1//EN"
 "http://www.w3.org/Graphics/SVG/1.1/DTD/svg11.dtd">
<!-- Generated by graphviz version 14.1.2 (20260124.0452)
 -->
<!-- Title: pugi::xml_attribute_iterator Pages: 1 -->
<svg width="285pt" height="324pt"
 viewBox="0.00 0.00 285.00 324.00" xmlns="http://www.w3.org/2000/svg" xmlns:xlink="http://www.w3.org/1999/xlink">
<g id="graph0" class="graph" transform="scale(1 1) rotate(0) translate(4 320)">
<title>pugi::xml_attribute_iterator</title>
<!-- Node1 -->
<g id="Node000001" class="node">
<title>Node1</title>
<g id="a_Node000001"><a xlink:title=" ">
<polygon fill="#999999" stroke="#666666" points="109.25,-32 13,-32 13,0 109.25,0 109.25,-32"/>
<text xml:space="preserve" text-anchor="start" x="21" y="-18.5" font-family="Helvetica,sans-Serif" font-size="10.00">pugi::xml_attribute</text>
<text xml:space="preserve" text-anchor="middle" x="61.12" y="-6.5" font-family="Helvetica,sans-Serif" font-size="10.00">_iterator</text>
</a>
</g>
</g>
<!-- Node2 -->
<g id="Node000002" class="node">
<title>Node2</title>
<g id="a_Node000002"><a xlink:href="classpugi_1_1xml__attribute.html" target="_top" xlink:title=" ">
<polygon fill="white" stroke="#666666" points="96.25,-144 0,-144 0,-124 96.25,-124 96.25,-144"/>
<text xml:space="preserve" text-anchor="middle" x="48.12" y="-130.5" font-family="Helvetica,sans-Serif" font-size="10.00">pugi::xml_attribute</text>
</a>
</g>
</g>
<!-- Node2&#45;&gt;Node1 -->
<g id="edge1_Node000001_Node000002" class="edge">
<title>Node2&#45;&gt;Node1</title>
<g id="a_edge1_Node000001_Node000002"><a xlink:title=" ">
<path fill="none" stroke="#9a32cd" stroke-dasharray="5,2" d="M50.44,-112.36C53.01,-89.44 57.09,-52.97 59.4,-32.41"/>
<polygon fill="#9a32cd" stroke="#9a32cd" points="46.99,-111.68 49.36,-122 53.95,-112.46 46.99,-111.68"/>
</a>
</g>
<text xml:space="preserve" text-anchor="start" x="56.24" y="-92.5" font-family="Helvetica,sans-Serif" font-size="10.00" fill="grey">_wrap</text>
</g>
<!-- Node3 -->
<g id="Node000003" class="node">
<title>Node3</title>
<g id="a_Node000003"><a xlink:href="structpugi_1_1xml__attribute__struct.html" target="_top" xlink:title=" ">
<polygon fill="white" stroke="#666666" points="122.25,-315 26,-315 26,-283 122.25,-283 122.25,-315"/>
<text xml:space="preserve" text-anchor="start" x="34" y="-301.5" font-family="Helvetica,sans-Serif" font-size="10.00">pugi::xml_attribute</text>
<text xml:space="preserve" text-anchor="middle" x="74.12" y="-289.5" font-family="Helvetica,sans-Serif" font-size="10.00">_struct</text>
</a>
</g>
</g>
<!-- Node3&#45;&gt;Node2 -->
<g id="edge2_Node000002_Node000003" class="edge">
<title>Node3&#45;&gt;Node2</title>
<g id="a_edge2_Node000002_Node000003"><a xlink:title=" ">
<path fill="none" stroke="#9a32cd" stroke-dasharray="5,2" d="M67.22,-271.6C66.65,-269.04 66.1,-266.48 65.62,-264 57.09,-219.61 51.21,-165.84 49.05,-144.45"/>
<polygon fill="#9a32cd" stroke="#9a32cd" points="63.75,-272.14 69.51,-281.04 70.56,-270.49 63.75,-272.14"/>
</a>
</g>
<text xml:space="preserve" text-anchor="start" x="68.62" y="-251.5" font-family="Helvetica,sans-Serif" font-size="10.00" fill="grey">_attr</text>
</g>
<!-- Node3&#45;&gt;Node3 -->
<g id="edge3_Node000003_Node000003" class="edge">
<title>Node3&#45;&gt;Node3</title>
<g id="a_edge3_Node000003_Node000003"><a xlink:title=" ">
<path fill="none" stroke="#9a32cd" stroke-dasharray="5,2" d="M133.7,-304.97C137.77,-303.6 140.25,-301.61 140.25,-299 140.25,-294.49 132.83,-291.83 122.56,-291.02"/>
<polygon fill="#9a32cd" stroke="#9a32cd" points="133.27,-301.49 124.05,-306.71 134.52,-308.38 133.27,-301.49"/>
</a>
</g>
<text xml:space="preserve" text-anchor="start" x="143.25" y="-303.5" font-family="Helvetica,sans-Serif" font-size="10.00" fill="grey">next_attribute</text>
<text xml:space="preserve" text-anchor="start" x="143.25" y="-287.5" font-family="Helvetica,sans-Serif" font-size="10.00" fill="grey">prev_attribute_c</text>
</g>
<!-- Node5 -->
<g id="Node000005" class="node">
<title>Node5</title>
<g id="a_Node000005"><a xlink:href="structpugi_1_1xml__node__struct.html" target="_top" xlink:title=" ">
<polygon fill="white" stroke="#666666" points="191.12,-205 79.12,-205 79.12,-185 191.12,-185 191.12,-205"/>
<text xml:space="preserve" text-anchor="middle" x="135.12" y="-191.5" font-family="Helvetica,sans-Serif" font-size="10.00">pugi::xml_node_struct</text>
</a>
</g>
</g>
<!-- Node3&#45;&gt;Node5 -->
<g id="edge7_Node000005_Node000003" class="edge">
<title>Node3&#45;&gt;Node5</title>
<g id="a_edge7_Node000005_Node000003"><a xlink:title=" ">
<path fill="none" stroke="#9a32cd" stroke-dasharray="5,2" d="M89.17,-272.84C102.28,-250.93 120.56,-220.36 129.6,-205.23"/>
<polygon fill="#9a32cd" stroke="#9a32cd" points="86.3,-270.83 84.17,-281.21 92.3,-274.42 86.3,-270.83"/>
</a>
</g>
<text xml:space="preserve" text-anchor="start" x="107.62" y="-251.5" font-family="Helvetica,sans-Serif" font-size="10.00" fill="grey">first_attribute</text>
</g>
<!-- Node4 -->
<g id="Node000004" class="node">
<title>Node4</title>
<g id="a_Node000004"><a xlink:href="classpugi_1_1xml__node.html" target="_top" xlink:title=" ">
<polygon fill="white" stroke="#666666" points="177.12,-106 95.12,-106 95.12,-86 177.12,-86 177.12,-106"/>
<text xml:space="preserve" text-anchor="middle" x="136.12" y="-92.5" font-family="Helvetica,sans-Serif" font-size="10.00">pugi::xml_node</text>
</a>
</g>
</g>
<!-- Node4&#45;&gt;Node1 -->
<g id="edge4_Node000001_Node000004" class="edge">
<title>Node4&#45;&gt;Node1</title>
<g id="a_edge4_Node000001_Node000004"><a xlink:title=" ">
<path fill="none" stroke="#9a32cd" stroke-dasharray="5,2" d="M119.48,-77.69C106.45,-64.14 88.49,-45.46 75.95,-32.42"/>
<polygon fill="#9a32cd" stroke="#9a32cd" points="116.72,-79.87 126.18,-84.66 121.77,-75.02 116.72,-79.87"/>
</a>
</g>
<text xml:space="preserve" text-anchor="start" x="112.72" y="-55.5" font-family="Helvetica,sans-Serif" font-size="10.00" fill="grey">_parent</text>
</g>
<!-- Node5&#45;&gt;Node4 -->
<g id="edge5_Node000004_Node000005" class="edge">
<title>Node5&#45;&gt;Node4</title>
<g id="a_edge5_Node000004_Node000005"><a xlink:title=" ">
<path fill="none" stroke="#9a32cd" stroke-dasharray="5,2" d="M135.34,-173.38C135.55,-152.71 135.87,-121.81 136.03,-106.42"/>
<polygon fill="#9a32cd" stroke="#9a32cd" points="131.84,-173.15 135.24,-183.19 138.84,-173.22 131.84,-173.15"/>
</a>
</g>
<text xml:space="preserve" text-anchor="start" x="138.83" y="-130.5" font-family="Helvetica,sans-Serif" font-size="10.00" fill="grey">_root</text>
</g>
<!-- Node5&#45;&gt;Node5 -->
<g id="edge6_Node000005_Node000005" class="edge">
<title>Node5&#45;&gt;Node5</title>
<g id="a_edge6_Node000005_Node000005"><a xlink:title=" ">
<path fill="none" stroke="#9a32cd" stroke-dasharray="5,2" d="M180.06,-206.24C196.08,-206.46 209.12,-202.71 209.12,-195 209.12,-185.51 189.37,-182.02 168.61,-184.54"/>
<polygon fill="#9a32cd" stroke="#9a32cd" points="180.34,-202.75 170.12,-205.56 179.86,-209.74 180.34,-202.75"/>
</a>
</g>
<text xml:space="preserve" text-anchor="start" x="212.12" y="-215.5" font-family="Helvetica,sans-Serif" font-size="10.00" fill="grey">first_child</text>
<text xml:space="preserve" text-anchor="start" x="212.12" y="-199.5" font-family="Helvetica,sans-Serif" font-size="10.00" fill="grey">next_sibling</text>
<text xml:space="preserve" text-anchor="start" x="212.12" y="-183.5" font-family="Helvetica,sans-Serif" font-size="10.00" fill="grey">parent</text>
<text xml:space="preserve" text-anchor="start" x="212.12" y="-167.5" font-family="Helvetica,sans-Serif" font-size="10.00" fill="grey">prev_sibling_c</text>
</g>
</g>
</svg>
