<?xml version="1.0" encoding="UTF-8" standalone="no"?>
<!DOCTYPE svg PUBLIC "-//W3C//DTD SVG 1.1//EN"
 "http://www.w3.org/Graphics/SVG/1.1/DTD/svg11.dtd">
<!-- Generated by graphviz version 14.1.2 (20260124.0452)
 -->
<!-- Title: pugi::xml_document::load_file Pages: 1 -->
<svg width="643pt" height="78pt"
 viewBox="0.00 0.00 643.00 78.00" xmlns="http://www.w3.org/2000/svg" xmlns:xlink="http://www.w3.org/1999/xlink">
<g id="graph0" class="graph" transform="scale(1 1) rotate(0) translate(4 74)">
<title>pugi::xml_document::load_file</title>
<!-- Node1 -->
<g id="Node000001" class="node">
<title>Node1</title>
<g id="a_Node000001"><a xlink:title=" ">
<polygon fill="#999999" stroke="#666666" points="634.75,-48 531,-48 531,-16 634.75,-16 634.75,-48"/>
<text xml:space="preserve" text-anchor="start" x="539" y="-34.5" font-family="Helvetica,sans-Serif" font-size="10.00">pugi::xml_document</text>
<text xml:space="preserve" text-anchor="middle" x="582.88" y="-22.5" font-family="Helvetica,sans-Serif" font-size="10.00">::load_file</text>
</a>
</g>
</g>
<!-- Node2 -->
<g id="Node000002" class="node">
<title>Node2</title>
<g id="a_Node000002"><a xlink:href="classpugi_1_1xml__document.html#af2465eda9e5f0551c2a40fd53d96c63d" target="_top" xlink:title=" ">
<polygon fill="white" stroke="#666666" points="465.38,-70 361.62,-70 361.62,-38 465.38,-38 465.38,-70"/>
<text xml:space="preserve" text-anchor="start" x="369.62" y="-56.5" font-family="Helvetica,sans-Serif" font-size="10.00">pugi::xml_document</text>
<text xml:space="preserve" text-anchor="middle" x="413.5" y="-44.5" font-family="Helvetica,sans-Serif" font-size="10.00">::_move</text>
</a>
</g>
</g>
<!-- Node1&#45;&gt;Node2 -->
<g id="edge1_Node000001_Node000002" class="edge">
<title>Node1&#45;&gt;Node2</title>
<g id="a_edge1_Node000001_Node000002"><a xlink:title=" ">
<path fill="none" stroke="#63b8ff" d="M519.34,-40.22C501.62,-42.55 482.56,-45.05 465.6,-47.28"/>
<polygon fill="#63b8ff" stroke="#63b8ff" points="519.79,-43.69 529.25,-38.92 518.88,-36.75 519.79,-43.69"/>
</a>
</g>
</g>
<!-- Node3 -->
<g id="Node000003" class="node">
<title>Node3</title>
<g id="a_Node000003"><a xlink:href="class_g_e_x_m_l_parser.html#acd9fc587fbd992edbb51df00549c1bda" target="_top" xlink:title="Parsea un archivo .skel y devuelve los datos del esqueleto.">
<polygon fill="white" stroke="#666666" points="495,-20 332,-20 332,0 495,0 495,-20"/>
<text xml:space="preserve" text-anchor="middle" x="413.5" y="-6.5" font-family="Helvetica,sans-Serif" font-size="10.00">GEXMLParser::parseSkeletonFile</text>
</a>
</g>
</g>
<!-- Node1&#45;&gt;Node3 -->
<g id="edge2_Node000001_Node000003" class="edge">
<title>Node1&#45;&gt;Node3</title>
<g id="a_edge2_Node000001_Node000003"><a xlink:title=" ">
<path fill="none" stroke="#63b8ff" d="M519.4,-23.79C511.21,-22.71 502.72,-21.6 494.3,-20.49"/>
<polygon fill="#63b8ff" stroke="#63b8ff" points="518.88,-27.25 529.25,-25.08 519.79,-20.31 518.88,-27.25"/>
</a>
</g>
</g>
<!-- Node4 -->
<g id="Node000004" class="node">
<title>Node4</title>
<g id="a_Node000004"><a xlink:href="class_g_e_skeleton.html#ade3f0504c12faea2597ee2c23abf22bd" target="_top" xlink:title="Construye la jerarquía de articulaciones desde body.skel.">
<polygon fill="white" stroke="#666666" points="296,-20 163,-20 163,0 296,0 296,-20"/>
<text xml:space="preserve" text-anchor="middle" x="229.5" y="-6.5" font-family="Helvetica,sans-Serif" font-size="10.00">GESkeleton::buildSkeleton</text>
</a>
</g>
</g>
<!-- Node3&#45;&gt;Node4 -->
<g id="edge3_Node000003_Node000004" class="edge">
<title>Node3&#45;&gt;Node4</title>
<g id="a_edge3_Node000003_Node000004"><a xlink:title=" ">
<path fill="none" stroke="#63b8ff" d="M320.26,-10C312.21,-10 304.18,-10 296.41,-10"/>
<polygon fill="#63b8ff" stroke="#63b8ff" points="320.1,-13.5 330.1,-10 320.1,-6.5 320.1,-13.5"/>
</a>
</g>
</g>
<!-- Node5 -->
<g id="Node000005" class="node">
<title>Node5</title>
<g id="a_Node000005"><a xlink:href="class_g_e_skeleton.html#ad854854fdf1e4d090553d4d6edbfe095" target="_top" xlink:title="Constructor del esqueleto.">
<polygon fill="white" stroke="#666666" points="127,-20 0,-20 0,0 127,0 127,-20"/>
<text xml:space="preserve" text-anchor="middle" x="63.5" y="-6.5" font-family="Helvetica,sans-Serif" font-size="10.00">GESkeleton::GESkeleton</text>
</a>
</g>
</g>
<!-- Node4&#45;&gt;Node5 -->
<g id="edge4_Node000004_Node000005" class="edge">
<title>Node4&#45;&gt;Node5</title>
<g id="a_edge4_Node000004_Node000005"><a xlink:title=" ">
<path fill="none" stroke="#63b8ff" d="M151.41,-10C143.35,-10 135.22,-10 127.34,-10"/>
<polygon fill="#63b8ff" stroke="#63b8ff" points="151.23,-13.5 161.23,-10 151.23,-6.5 151.23,-13.5"/>
</a>
</g>
</g>
</g>
</svg>
