<?xml version="1.0" encoding="UTF-8" standalone="no"?>
<!DOCTYPE svg PUBLIC "-//W3C//DTD SVG 1.1//EN"
 "http://www.w3.org/Graphics/SVG/1.1/DTD/svg11.dtd">
<!-- Generated by graphviz version 14.1.2 (20260124.0452)
 -->
<!-- Title: xpath_node_set_raw::begin Pages: 1 -->
<svg width="1366pt" height="418pt"
 viewBox="0.00 0.00 1366.00 418.00" xmlns="http://www.w3.org/2000/svg" xmlns:xlink="http://www.w3.org/1999/xlink">
<g id="graph0" class="graph" transform="scale(1 1) rotate(0) translate(4 414)">
<title>xpath_node_set_raw::begin</title>
<!-- Node1 -->
<g id="Node000001" class="node">
<title>Node1</title>
<g id="a_Node000001"><a xlink:title=" ">
<polygon fill="#999999" stroke="#666666" points="1358.25,-211 1252.25,-211 1252.25,-179 1358.25,-179 1358.25,-211"/>
<text xml:space="preserve" text-anchor="start" x="1260.25" y="-197.5" font-family="Helvetica,sans-Serif" font-size="10.00">xpath_node_set_raw</text>
<text xml:space="preserve" text-anchor="middle" x="1305.25" y="-185.5" font-family="Helvetica,sans-Serif" font-size="10.00">::begin</text>
</a>
</g>
</g>
<!-- Node2 -->
<g id="Node000002" class="node">
<title>Node2</title>
<g id="a_Node000002"><a xlink:href="classxpath__ast__node.html#ab4e5bbd3f2e83c86a43349374b4bfc22" target="_top" xlink:title=" ">
<polygon fill="white" stroke="#666666" points="1216.25,-189 1102,-189 1102,-157 1216.25,-157 1216.25,-189"/>
<text xml:space="preserve" text-anchor="start" x="1110" y="-175.5" font-family="Helvetica,sans-Serif" font-size="10.00">xpath_ast_node::apply</text>
<text xml:space="preserve" text-anchor="middle" x="1159.12" y="-163.5" font-family="Helvetica,sans-Serif" font-size="10.00">_predicate_boolean</text>
</a>
</g>
</g>
<!-- Node1&#45;&gt;Node2 -->
<g id="edge1_Node000001_Node000002" class="edge">
<title>Node1&#45;&gt;Node2</title>
<g id="a_edge1_Node000001_Node000002"><a xlink:title=" ">
<path fill="none" stroke="#63b8ff" d="M1240.65,-185.29C1232.66,-184.07 1224.53,-182.83 1216.66,-181.63"/>
<polygon fill="#63b8ff" stroke="#63b8ff" points="1239.9,-188.72 1250.31,-186.77 1240.96,-181.8 1239.9,-188.72"/>
</a>
</g>
</g>
<!-- Node4 -->
<g id="Node000004" class="node">
<title>Node4</title>
<g id="a_Node000004"><a xlink:href="classxpath__ast__node.html#a68cace396dd4eeae67ecfcd34a3a8285" target="_top" xlink:title=" ">
<polygon fill="white" stroke="#666666" points="904.5,-145 795.5,-145 795.5,-113 904.5,-113 904.5,-145"/>
<text xml:space="preserve" text-anchor="start" x="803.5" y="-131.5" font-family="Helvetica,sans-Serif" font-size="10.00">xpath_ast_node::eval</text>
<text xml:space="preserve" text-anchor="middle" x="850" y="-119.5" font-family="Helvetica,sans-Serif" font-size="10.00">_node_set</text>
</a>
</g>
</g>
<!-- Node1&#45;&gt;Node4 -->
<g id="edge29_Node000001_Node000004" class="edge">
<title>Node1&#45;&gt;Node4</title>
<g id="a_edge29_Node000001_Node000004"><a xlink:title=" ">
<path fill="none" stroke="#63b8ff" d="M1281.2,-170.94C1264.69,-155.33 1241.07,-136.07 1216.25,-126 1112.54,-83.91 978.22,-101.28 904.79,-116.13"/>
<polygon fill="#63b8ff" stroke="#63b8ff" points="1278.47,-173.17 1288.07,-177.65 1283.36,-168.16 1278.47,-173.17"/>
</a>
</g>
</g>
<!-- Node5 -->
<g id="Node000005" class="node">
<title>Node5</title>
<g id="a_Node000005"><a xlink:href="classxpath__ast__node.html#a98dd7f6e67fe2c56c63056eed835d6a4" target="_top" xlink:title=" ">
<polygon fill="white" stroke="#666666" points="759.5,-221 615.25,-221 615.25,-201 759.5,-201 759.5,-221"/>
<text xml:space="preserve" text-anchor="middle" x="687.38" y="-207.5" font-family="Helvetica,sans-Serif" font-size="10.00">xpath_ast_node::compare_eq</text>
</a>
</g>
</g>
<!-- Node1&#45;&gt;Node5 -->
<g id="edge27_Node000001_Node000005" class="edge">
<title>Node1&#45;&gt;Node5</title>
<g id="a_edge27_Node000001_Node000005"><a xlink:title=" ">
<path fill="none" stroke="#63b8ff" d="M1240.64,-197.24C1232.43,-197.51 1224.14,-197.77 1216.25,-198 1052.91,-202.8 861.11,-207.22 759.67,-209.46"/>
<polygon fill="#63b8ff" stroke="#63b8ff" points="1240.75,-200.74 1250.62,-196.91 1240.51,-193.74 1240.75,-200.74"/>
</a>
</g>
</g>
<!-- Node7 -->
<g id="Node000007" class="node">
<title>Node7</title>
<g id="a_Node000007"><a xlink:href="classxpath__ast__node.html#a92dd7048e28d486bc7f382d1fc6f1de6" target="_top" xlink:title=" ">
<polygon fill="white" stroke="#666666" points="289.25,-192 180.25,-192 180.25,-160 289.25,-160 289.25,-192"/>
<text xml:space="preserve" text-anchor="start" x="188.25" y="-178.5" font-family="Helvetica,sans-Serif" font-size="10.00">xpath_ast_node::eval</text>
<text xml:space="preserve" text-anchor="middle" x="234.75" y="-166.5" font-family="Helvetica,sans-Serif" font-size="10.00">_number</text>
</a>
</g>
</g>
<!-- Node1&#45;&gt;Node7 -->
<g id="edge30_Node000001_Node000007" class="edge">
<title>Node1&#45;&gt;Node7</title>
<g id="a_edge30_Node000001_Node000007"><a xlink:title=" ">
<path fill="none" stroke="#63b8ff" d="M1258.4,-216.03C1211.26,-236.53 1135.18,-266.51 1066,-280 901.12,-312.14 856.36,-296 688.38,-296 688.38,-296 688.38,-296 523.75,-296 417.31,-296 304.59,-225.3 257.94,-192.43"/>
<polygon fill="#63b8ff" stroke="#63b8ff" points="1259.74,-219.27 1267.49,-212.04 1256.92,-212.86 1259.74,-219.27"/>
</a>
</g>
</g>
<!-- Node8 -->
<g id="Node000008" class="node">
<title>Node8</title>
<g id="a_Node000008"><a xlink:href="classxpath__ast__node.html#abf2d4b745493f63aebc1c89d9fde8eed" target="_top" xlink:title=" ">
<polygon fill="white" stroke="#666666" points="129.25,-350 15,-350 15,-318 129.25,-318 129.25,-350"/>
<text xml:space="preserve" text-anchor="start" x="23" y="-336.5" font-family="Helvetica,sans-Serif" font-size="10.00">xpath_ast_node::apply</text>
<text xml:space="preserve" text-anchor="middle" x="72.12" y="-324.5" font-family="Helvetica,sans-Serif" font-size="10.00">_predicate_number</text>
</a>
</g>
</g>
<!-- Node1&#45;&gt;Node8 -->
<g id="edge25_Node000001_Node000008" class="edge">
<title>Node1&#45;&gt;Node8</title>
<g id="a_edge25_Node000001_Node000008"><a xlink:title=" ">
<path fill="none" stroke="#63b8ff" d="M1293.34,-221.5C1279.58,-251.9 1253.16,-301.36 1216.25,-331 1137.85,-393.96 1104.8,-410 1004.25,-410 1004.25,-410 1004.25,-410 378.75,-410 280.88,-410 170.45,-372.84 112.88,-350.49"/>
<polygon fill="#63b8ff" stroke="#63b8ff" points="1296.43,-223.18 1297.23,-212.62 1290.01,-220.37 1296.43,-223.18"/>
</a>
</g>
</g>
<!-- Node9 -->
<g id="Node000009" class="node">
<title>Node9</title>
<g id="a_Node000009"><a xlink:href="classxpath__ast__node.html#a8cedd7e15623b9fa431788b8843f1463" target="_top" xlink:title=" ">
<polygon fill="white" stroke="#666666" points="136,-274 8.25,-274 8.25,-242 136,-242 136,-274"/>
<text xml:space="preserve" text-anchor="start" x="16.25" y="-260.5" font-family="Helvetica,sans-Serif" font-size="10.00">xpath_ast_node::apply</text>
<text xml:space="preserve" text-anchor="middle" x="72.12" y="-248.5" font-family="Helvetica,sans-Serif" font-size="10.00">_predicate_number_const</text>
</a>
</g>
</g>
<!-- Node1&#45;&gt;Node9 -->
<g id="edge26_Node000001_Node000009" class="edge">
<title>Node1&#45;&gt;Node9</title>
<g id="a_edge26_Node000001_Node000009"><a xlink:title=" ">
<path fill="none" stroke="#63b8ff" d="M1282.22,-219.45C1235.92,-268.01 1122.91,-372 1004.25,-372 1004.25,-372 1004.25,-372 378.75,-372 268.32,-372 148.79,-305.86 98.1,-274.33"/>
<polygon fill="#63b8ff" stroke="#63b8ff" points="1284.51,-222.13 1288.8,-212.44 1279.4,-217.34 1284.51,-222.13"/>
</a>
</g>
</g>
<!-- Node10 -->
<g id="Node000010" class="node">
<title>Node10</title>
<g id="a_Node000010"><a xlink:href="classxpath__ast__node.html#abb6e4c529276eaf882233dbb6e04e111" target="_top" xlink:title=" ">
<polygon fill="white" stroke="#666666" points="144.25,-67 0,-67 0,-47 144.25,-47 144.25,-67"/>
<text xml:space="preserve" text-anchor="middle" x="72.12" y="-53.5" font-family="Helvetica,sans-Serif" font-size="10.00">xpath_ast_node::compare_rel</text>
</a>
</g>
</g>
<!-- Node1&#45;&gt;Node10 -->
<g id="edge28_Node000001_Node000010" class="edge">
<title>Node1&#45;&gt;Node10</title>
<g id="a_edge28_Node000001_Node000010"><a xlink:title=" ">
<path fill="none" stroke="#63b8ff" d="M1285.98,-169.34C1269.65,-147.83 1244.05,-117.44 1216.25,-97 1132.78,-35.61 1107.87,0 1004.25,0 1004.25,0 1004.25,0 378.75,0 278.36,0 162.51,-30.09 106.66,-46.55"/>
<polygon fill="#63b8ff" stroke="#63b8ff" points="1283.14,-171.38 1291.91,-177.32 1288.76,-167.2 1283.14,-171.38"/>
</a>
</g>
</g>
<!-- Node12 -->
<g id="Node000012" class="node">
<title>Node12</title>
<g id="a_Node000012"><a xlink:href="classxpath__ast__node.html#a3258c05ab9aaa78e154d2ff63fe56906" target="_top" xlink:title=" ">
<polygon fill="white" stroke="#666666" points="1066,-139 940.5,-139 940.5,-119 1066,-119 1066,-139"/>
<text xml:space="preserve" text-anchor="middle" x="1003.25" y="-125.5" font-family="Helvetica,sans-Serif" font-size="10.00">xpath_ast_node::step_do</text>
</a>
</g>
</g>
<!-- Node1&#45;&gt;Node12 -->
<g id="edge31_Node000001_Node000012" class="edge">
<title>Node1&#45;&gt;Node12</title>
<g id="a_edge31_Node000001_Node000012"><a xlink:title=" ">
<path fill="none" stroke="#63b8ff" d="M1270.19,-172.68C1254.42,-163.44 1235.04,-153.61 1216.25,-148 1167.21,-133.37 1109.18,-129.01 1066.24,-128.09"/>
<polygon fill="#63b8ff" stroke="#63b8ff" points="1268.33,-175.64 1278.7,-177.82 1271.95,-169.65 1268.33,-175.64"/>
</a>
</g>
</g>
<!-- Node3 -->
<g id="Node000003" class="node">
<title>Node3</title>
<g id="a_Node000003"><a xlink:href="classxpath__ast__node.html#a7e35f265c9e0712a16e1d8a9db4c7672" target="_top" xlink:title=" ">
<polygon fill="white" stroke="#666666" points="1060.38,-271 946.12,-271 946.12,-239 1060.38,-239 1060.38,-271"/>
<text xml:space="preserve" text-anchor="start" x="954.12" y="-257.5" font-family="Helvetica,sans-Serif" font-size="10.00">xpath_ast_node::apply</text>
<text xml:space="preserve" text-anchor="middle" x="1003.25" y="-245.5" font-family="Helvetica,sans-Serif" font-size="10.00">_predicate</text>
</a>
</g>
</g>
<!-- Node2&#45;&gt;Node3 -->
<g id="edge2_Node000002_Node000003" class="edge">
<title>Node2&#45;&gt;Node3</title>
<g id="a_edge2_Node000002_Node000003"><a xlink:title=" ">
<path fill="none" stroke="#63b8ff" d="M1117.47,-194.67C1091.6,-208.45 1058.64,-226.01 1034.97,-238.63"/>
<polygon fill="#63b8ff" stroke="#63b8ff" points="1118.84,-197.9 1126.02,-190.11 1115.55,-191.72 1118.84,-197.9"/>
</a>
</g>
</g>
<!-- Node3&#45;&gt;Node4 -->
<g id="edge3_Node000003_Node000004" class="edge">
<title>Node3&#45;&gt;Node4</title>
<g id="a_edge3_Node000003_Node000004"><a xlink:title=" ">
<path fill="none" stroke="#63b8ff" d="M973.71,-231.23C943.63,-206.17 897.05,-167.36 870.78,-145.48"/>
<polygon fill="#63b8ff" stroke="#63b8ff" points="971.39,-233.85 981.31,-237.56 975.87,-228.47 971.39,-233.85"/>
</a>
</g>
</g>
<!-- Node4&#45;&gt;Node5 -->
<g id="edge4_Node000004_Node000005" class="edge">
<title>Node4&#45;&gt;Node5</title>
<g id="a_edge4_Node000004_Node000005"><a xlink:title=" ">
<path fill="none" stroke="#63b8ff" d="M807.01,-150.44C775.36,-166.6 733.34,-188.05 708.74,-200.6"/>
<polygon fill="#63b8ff" stroke="#63b8ff" points="808.22,-153.75 815.53,-146.09 805.04,-147.51 808.22,-153.75"/>
</a>
</g>
</g>
<!-- Node6 -->
<g id="Node000006" class="node">
<title>Node6</title>
<g id="a_Node000006"><a xlink:href="classxpath__ast__node.html#ab7f965a92023bc2704b8e6fd9f3d7c14" target="_top" xlink:title=" ">
<polygon fill="white" stroke="#666666" points="579.25,-116 470.25,-116 470.25,-84 579.25,-84 579.25,-116"/>
<text xml:space="preserve" text-anchor="start" x="478.25" y="-102.5" font-family="Helvetica,sans-Serif" font-size="10.00">xpath_ast_node::eval</text>
<text xml:space="preserve" text-anchor="middle" x="524.75" y="-90.5" font-family="Helvetica,sans-Serif" font-size="10.00">_boolean</text>
</a>
</g>
</g>
<!-- Node4&#45;&gt;Node6 -->
<g id="edge23_Node000004_Node000006" class="edge">
<title>Node4&#45;&gt;Node6</title>
<g id="a_edge23_Node000004_Node000006"><a xlink:title=" ">
<path fill="none" stroke="#63b8ff" d="M784.02,-123.17C723.98,-117.78 635.83,-109.88 579.62,-104.83"/>
<polygon fill="#63b8ff" stroke="#63b8ff" points="783.48,-126.64 793.75,-124.04 784.1,-119.66 783.48,-126.64"/>
</a>
</g>
</g>
<!-- Node4&#45;&gt;Node10 -->
<g id="edge22_Node000004_Node000010" class="edge">
<title>Node4&#45;&gt;Node10</title>
<g id="a_edge22_Node000004_Node000010"><a xlink:title=" ">
<path fill="none" stroke="#63b8ff" d="M804.02,-107.86C742.58,-80.98 628.32,-38 525.75,-38 525.75,-38 525.75,-38 378.75,-38 298.47,-38 206.57,-44.61 144.68,-50.03"/>
<polygon fill="#63b8ff" stroke="#63b8ff" points="802.56,-111.05 813.12,-111.91 805.4,-104.65 802.56,-111.05"/>
</a>
</g>
</g>
<!-- Node11 -->
<g id="Node000011" class="node">
<title>Node11</title>
<g id="a_Node000011"><a xlink:href="classxpath__ast__node.html#a6b675237a590548b68d0e0b97518b6df" target="_top" xlink:title=" ">
<polygon fill="white" stroke="#666666" points="434.25,-192 325.25,-192 325.25,-160 434.25,-160 434.25,-192"/>
<text xml:space="preserve" text-anchor="start" x="333.25" y="-178.5" font-family="Helvetica,sans-Serif" font-size="10.00">xpath_ast_node::eval</text>
<text xml:space="preserve" text-anchor="middle" x="379.75" y="-166.5" font-family="Helvetica,sans-Serif" font-size="10.00">_string</text>
</a>
</g>
</g>
<!-- Node4&#45;&gt;Node11 -->
<g id="edge24_Node000004_Node000011" class="edge">
<title>Node4&#45;&gt;Node11</title>
<g id="a_edge24_Node000004_Node000011"><a xlink:title=" ">
<path fill="none" stroke="#63b8ff" d="M784.04,-135.52C690.89,-144.87 521.09,-161.91 434.56,-170.6"/>
<polygon fill="#63b8ff" stroke="#63b8ff" points="784.18,-139.02 793.78,-134.54 783.48,-132.06 784.18,-139.02"/>
</a>
</g>
</g>
<!-- Node5&#45;&gt;Node6 -->
<g id="edge5_Node000005_Node000006" class="edge">
<title>Node5&#45;&gt;Node6</title>
<g id="a_edge5_Node000005_Node000006"><a xlink:title=" ">
<path fill="none" stroke="#63b8ff" d="M658.89,-196.74C645.14,-191.96 628.63,-186.17 615.25,-178 587.51,-161.06 561.55,-134.1 544.81,-116.49"/>
<polygon fill="#63b8ff" stroke="#63b8ff" points="657.63,-200.01 668.23,-200.04 659.97,-193.41 657.63,-200.01"/>
</a>
</g>
</g>
<!-- Node6&#45;&gt;Node2 -->
<g id="edge6_Node000006_Node000002" class="edge">
<title>Node6&#45;&gt;Node2</title>
<g id="a_edge6_Node000006_Node000002"><a xlink:title=" ">
<path fill="none" stroke="#63b8ff" d="M582.03,-119.89C592.95,-123.28 604.38,-126.51 615.25,-129 789.44,-168.97 1002.33,-173.91 1101.83,-173.75"/>
<polygon fill="#63b8ff" stroke="#63b8ff" points="583.34,-116.64 572.75,-116.93 581.21,-123.31 583.34,-116.64"/>
</a>
</g>
</g>
<!-- Node6&#45;&gt;Node5 -->
<g id="edge7_Node000006_Node000005" class="edge">
<title>Node6&#45;&gt;Node5</title>
<g id="a_edge7_Node000006_Node000005"><a xlink:title=" ">
<path fill="none" stroke="#63b8ff" d="M540.7,-125.53C557.1,-147.39 585.13,-177.6 615.25,-196 617.92,-197.63 620.71,-199.17 623.58,-200.6"/>
<polygon fill="#63b8ff" stroke="#63b8ff" points="543.75,-123.78 535.09,-117.67 538.05,-127.85 543.75,-123.78"/>
</a>
</g>
</g>
<!-- Node6&#45;&gt;Node7 -->
<g id="edge8_Node000006_Node000007" class="edge">
<title>Node6&#45;&gt;Node7</title>
<g id="a_edge8_Node000006_Node000007"><a xlink:title=" ">
<path fill="none" stroke="#63b8ff" d="M458.61,-108.53C419.83,-117.21 369.67,-130.09 325.25,-142 305.3,-147.35 282.93,-153.6 265.54,-159.64"/>
<polygon fill="#63b8ff" stroke="#63b8ff" points="459.25,-111.97 468.27,-106.41 457.75,-105.13 459.25,-111.97"/>
</a>
</g>
</g>
<!-- Node6&#45;&gt;Node11 -->
<g id="edge21_Node000006_Node000011" class="edge">
<title>Node6&#45;&gt;Node11</title>
<g id="a_edge21_Node000006_Node000011"><a xlink:title=" ">
<path fill="none" stroke="#63b8ff" d="M471.22,-121.38C447.35,-133.52 420.44,-148.33 402.21,-159.61"/>
<polygon fill="#63b8ff" stroke="#63b8ff" points="472.51,-124.65 479.88,-117.04 469.37,-118.4 472.51,-124.65"/>
</a>
</g>
</g>
<!-- Node7&#45;&gt;Node5 -->
<g id="edge13_Node000007_Node000005" class="edge">
<title>Node7&#45;&gt;Node5</title>
<g id="a_edge13_Node000007_Node000005"><a xlink:title=" ">
<path fill="none" stroke="#63b8ff" d="M297.5,-195.3C306.73,-197.58 316.18,-199.6 325.25,-201 424.89,-216.41 541.78,-216.41 614.98,-214.28"/>
<polygon fill="#63b8ff" stroke="#63b8ff" points="298.43,-191.93 287.87,-192.79 296.66,-198.7 298.43,-191.93"/>
</a>
</g>
</g>
<!-- Node7&#45;&gt;Node6 -->
<g id="edge16_Node000007_Node000006" class="edge">
<title>Node7&#45;&gt;Node6</title>
<g id="a_edge16_Node000007_Node000006"><a xlink:title=" ">
<path fill="none" stroke="#63b8ff" d="M300.78,-166.59C309.01,-164.39 317.32,-162.13 325.25,-160 380.58,-145.17 444.83,-128.82 484.89,-116.49"/>
<polygon fill="#63b8ff" stroke="#63b8ff" points="299.89,-163.21 291.12,-169.14 301.68,-169.98 299.89,-163.21"/>
</a>
</g>
</g>
<!-- Node7&#45;&gt;Node8 -->
<g id="edge9_Node000007_Node000008" class="edge">
<title>Node7&#45;&gt;Node8</title>
<g id="a_edge9_Node000007_Node000008"><a xlink:title=" ">
<path fill="none" stroke="#63b8ff" d="M215.47,-201.34C198.42,-224.06 171.59,-257.63 144.25,-283 130.44,-295.82 113.32,-308.18 99.34,-317.53"/>
<polygon fill="#63b8ff" stroke="#63b8ff" points="218.11,-203.66 221.24,-193.54 212.48,-199.49 218.11,-203.66"/>
</a>
</g>
</g>
<!-- Node7&#45;&gt;Node9 -->
<g id="edge11_Node000007_Node000009" class="edge">
<title>Node7&#45;&gt;Node9</title>
<g id="a_edge11_Node000007_Node000009"><a xlink:title=" ">
<path fill="none" stroke="#63b8ff" d="M191.67,-197.48C164.62,-211.29 130.01,-228.96 105.19,-241.63"/>
<polygon fill="#63b8ff" stroke="#63b8ff" points="192.97,-200.75 200.28,-193.09 189.79,-194.51 192.97,-200.75"/>
</a>
</g>
</g>
<!-- Node7&#45;&gt;Node10 -->
<g id="edge14_Node000007_Node000010" class="edge">
<title>Node7&#45;&gt;Node10</title>
<g id="a_edge14_Node000007_Node000010"><a xlink:title=" ">
<path fill="none" stroke="#63b8ff" d="M202.5,-152.85C167.69,-127.06 112.94,-86.5 87.28,-67.49"/>
<polygon fill="#63b8ff" stroke="#63b8ff" points="200.42,-155.66 210.54,-158.8 204.58,-150.04 200.42,-155.66"/>
</a>
</g>
</g>
<!-- Node7&#45;&gt;Node11 -->
<g id="edge17_Node000007_Node000011" class="edge">
<title>Node7&#45;&gt;Node11</title>
<g id="a_edge17_Node000007_Node000011"><a xlink:title=" ">
<path fill="none" stroke="#63b8ff" d="M300.99,-182.73C309.06,-182.79 317.23,-182.73 325.1,-182.56"/>
<polygon fill="#63b8ff" stroke="#63b8ff" points="301.27,-179.23 291.22,-182.59 301.17,-186.23 301.27,-179.23"/>
</a>
</g>
</g>
<!-- Node8&#45;&gt;Node3 -->
<g id="edge10_Node000008_Node000003" class="edge">
<title>Node8&#45;&gt;Node3</title>
<g id="a_edge10_Node000008_Node000003"><a xlink:title=" ">
<path fill="none" stroke="#63b8ff" d="M140.91,-334C202.85,-334 296.96,-334 378.75,-334 688.38,-334 688.38,-334 688.38,-334 790.08,-334 904.87,-294.51 963.4,-271.37"/>
<polygon fill="#63b8ff" stroke="#63b8ff" points="141.25,-330.5 131.25,-334 141.25,-337.5 141.25,-330.5"/>
</a>
</g>
</g>
<!-- Node9&#45;&gt;Node3 -->
<g id="edge12_Node000009_Node000003" class="edge">
<title>Node9&#45;&gt;Node3</title>
<g id="a_edge12_Node000009_Node000003"><a xlink:title=" ">
<path fill="none" stroke="#63b8ff" d="M147.56,-258C209.44,-258 299.83,-258 378.75,-258 688.38,-258 688.38,-258 688.38,-258 778.43,-258 883.01,-256.75 945.83,-255.86"/>
<polygon fill="#63b8ff" stroke="#63b8ff" points="147.85,-254.5 137.85,-258 147.85,-261.5 147.85,-254.5"/>
</a>
</g>
</g>
<!-- Node10&#45;&gt;Node6 -->
<g id="edge15_Node000010_Node000006" class="edge">
<title>Node10&#45;&gt;Node6</title>
<g id="a_edge15_Node000010_Node000006"><a xlink:title=" ">
<path fill="none" stroke="#63b8ff" d="M155.96,-64.9C247.42,-73.63 391.99,-87.43 469.84,-94.86"/>
<polygon fill="#63b8ff" stroke="#63b8ff" points="156.32,-61.42 146.03,-63.96 155.65,-68.39 156.32,-61.42"/>
</a>
</g>
</g>
<!-- Node11&#45;&gt;Node5 -->
<g id="edge18_Node000011_Node000005" class="edge">
<title>Node11&#45;&gt;Node5</title>
<g id="a_edge18_Node000011_Node000005"><a xlink:title=" ">
<path fill="none" stroke="#63b8ff" d="M445.67,-183.44C495.38,-189.13 563.89,-196.97 615.11,-202.84"/>
<polygon fill="#63b8ff" stroke="#63b8ff" points="446.26,-179.98 435.92,-182.32 445.46,-186.93 446.26,-179.98"/>
</a>
</g>
</g>
<!-- Node11&#45;&gt;Node6 -->
<g id="edge19_Node000011_Node000006" class="edge">
<title>Node11&#45;&gt;Node6</title>
<g id="a_edge19_Node000011_Node000006"><a xlink:title=" ">
<path fill="none" stroke="#63b8ff" d="M433.35,-154.58C457.23,-142.44 484.14,-127.62 502.34,-116.36"/>
<polygon fill="#63b8ff" stroke="#63b8ff" points="432.06,-151.31 424.69,-158.92 435.2,-157.57 432.06,-151.31"/>
</a>
</g>
</g>
<!-- Node11&#45;&gt;Node7 -->
<g id="edge20_Node000011_Node000007" class="edge">
<title>Node11&#45;&gt;Node7</title>
<g id="a_edge20_Node000011_Node000007"><a xlink:title=" ">
<path fill="none" stroke="#63b8ff" d="M313.81,-169.28C305.75,-169.21 297.58,-169.27 289.71,-169.43"/>
<polygon fill="#63b8ff" stroke="#63b8ff" points="313.53,-172.77 323.58,-169.42 313.63,-165.77 313.53,-172.77"/>
</a>
</g>
</g>
<!-- Node12&#45;&gt;Node4 -->
<g id="edge32_Node000012_Node000004" class="edge">
<title>Node12&#45;&gt;Node4</title>
<g id="a_edge32_Node000012_Node000004"><a xlink:title=" ">
<path fill="none" stroke="#63b8ff" d="M928.9,-129C920.8,-129 912.67,-129 904.87,-129"/>
<polygon fill="#63b8ff" stroke="#63b8ff" points="928.78,-132.5 938.78,-129 928.78,-125.5 928.78,-132.5"/>
</a>
</g>
</g>
</g>
</svg>
