<?xml version="1.0" encoding="UTF-8" standalone="no"?>
<!DOCTYPE svg PUBLIC "-//W3C//DTD SVG 1.1//EN"
 "http://www.w3.org/Graphics/SVG/1.1/DTD/svg11.dtd">
<!-- Generated by graphviz version 14.1.2 (20260124.0452)
 -->
<!-- Title: xml_buffered_writer::xml_buffered_writer Pages: 1 -->
<svg width="509pt" height="53pt"
 viewBox="0.00 0.00 509.00 53.00" xmlns="http://www.w3.org/2000/svg" xmlns:xlink="http://www.w3.org/1999/xlink">
<g id="graph0" class="graph" transform="scale(1 1) rotate(0) translate(4 49)">
<title>xml_buffered_writer::xml_buffered_writer</title>
<!-- Node1 -->
<g id="Node000001" class="node">
<title>Node1</title>
<g id="a_Node000001"><a xlink:title=" ">
<polygon fill="#999999" stroke="#666666" points="106.75,-32 0,-32 0,0 106.75,0 106.75,-32"/>
<text xml:space="preserve" text-anchor="start" x="8" y="-18.5" font-family="Helvetica,sans-Serif" font-size="10.00">xml_buffered_writer</text>
<text xml:space="preserve" text-anchor="middle" x="53.38" y="-6.5" font-family="Helvetica,sans-Serif" font-size="10.00">::xml_buffered_writer</text>
</a>
</g>
</g>
<!-- Node2 -->
<g id="Node000002" class="node">
<title>Node2</title>
<g id="a_Node000002"><a xlink:href="pugixml_8cpp.html#a8b37b77e90cb5817784fa4d3c0fce380" target="_top" xlink:title=" ">
<polygon fill="white" stroke="#666666" points="242.75,-26 142.75,-26 142.75,-6 242.75,-6 242.75,-26"/>
<text xml:space="preserve" text-anchor="middle" x="192.75" y="-12.5" font-family="Helvetica,sans-Serif" font-size="10.00">get_write_encoding</text>
</a>
</g>
</g>
<!-- Node1&#45;&gt;Node2 -->
<g id="edge1_Node000001_Node000002" class="edge">
<title>Node1&#45;&gt;Node2</title>
<g id="a_edge1_Node000001_Node000002"><a xlink:title=" ">
<path fill="none" stroke="#63b8ff" d="M107.09,-16C115.01,-16 123.23,-16 131.3,-16"/>
<polygon fill="#63b8ff" stroke="#63b8ff" points="131.04,-19.5 141.04,-16 131.04,-12.5 131.04,-19.5"/>
</a>
</g>
</g>
<!-- Node3 -->
<g id="Node000003" class="node">
<title>Node3</title>
<g id="a_Node000003"><a xlink:href="pugixml_8cpp.html#ac65295a489782c48a97a97e972ed61b0" target="_top" xlink:title=" ">
<polygon fill="white" stroke="#666666" points="384,-45 278.75,-45 278.75,-25 384,-25 384,-45"/>
<text xml:space="preserve" text-anchor="middle" x="331.38" y="-31.5" font-family="Helvetica,sans-Serif" font-size="10.00">get_wchar_encoding</text>
</a>
</g>
</g>
<!-- Node2&#45;&gt;Node3 -->
<g id="edge2_Node000002_Node000003" class="edge">
<title>Node2&#45;&gt;Node3</title>
<g id="a_edge2_Node000002_Node000003"><a xlink:title=" ">
<path fill="none" stroke="#63b8ff" d="M243.07,-22.86C250.87,-23.94 259.02,-25.08 267.08,-26.2"/>
<polygon fill="#63b8ff" stroke="#63b8ff" points="266.47,-29.65 276.86,-27.56 267.44,-22.71 266.47,-29.65"/>
</a>
</g>
</g>
<!-- Node4 -->
<g id="Node000004" class="node">
<title>Node4</title>
<g id="a_Node000004"><a xlink:href="pugixml_8cpp.html#aaf0cb0440cad4fe27233f6482e324e15" target="_top" xlink:title=" ">
<polygon fill="white" stroke="#666666" points="500.5,-26 420,-26 420,-6 500.5,-6 500.5,-26"/>
<text xml:space="preserve" text-anchor="middle" x="460.25" y="-12.5" font-family="Helvetica,sans-Serif" font-size="10.00">is_little_endian</text>
</a>
</g>
</g>
<!-- Node2&#45;&gt;Node4 -->
<g id="edge4_Node000002_Node000004" class="edge">
<title>Node2&#45;&gt;Node4</title>
<g id="a_edge4_Node000002_Node000004"><a xlink:title=" ">
<path fill="none" stroke="#63b8ff" d="M243.07,-16C290.17,-16 360.84,-16 408.44,-16"/>
<polygon fill="#63b8ff" stroke="#63b8ff" points="408.2,-19.5 418.2,-16 408.2,-12.5 408.2,-19.5"/>
</a>
</g>
</g>
<!-- Node3&#45;&gt;Node4 -->
<g id="edge3_Node000003_Node000004" class="edge">
<title>Node3&#45;&gt;Node4</title>
<g id="a_edge3_Node000003_Node000004"><a xlink:title=" ">
<path fill="none" stroke="#63b8ff" d="M384.35,-27.22C392.25,-26.03 400.41,-24.81 408.3,-23.63"/>
<polygon fill="#63b8ff" stroke="#63b8ff" points="408.73,-27.1 418.1,-22.16 407.69,-20.18 408.73,-27.1"/>
</a>
</g>
</g>
</g>
</svg>
