<?xml version="1.0" encoding="UTF-8" standalone="no"?>
<!DOCTYPE svg PUBLIC "-//W3C//DTD SVG 1.1//EN"
 "http://www.w3.org/Graphics/SVG/1.1/DTD/svg11.dtd">
<!-- Generated by graphviz version 14.1.2 (20260124.0452)
 -->
<!-- Title: GESkeleton::findJoint Pages: 1 -->
<svg width="420pt" height="28pt"
 viewBox="0.00 0.00 420.00 28.00" xmlns="http://www.w3.org/2000/svg" xmlns:xlink="http://www.w3.org/1999/xlink">
<g id="graph0" class="graph" transform="scale(1 1) rotate(0) translate(4 24)">
<title>GESkeleton::findJoint</title>
<!-- Node1 -->
<g id="Node000001" class="node">
<title>Node1</title>
<g id="a_Node000001"><a xlink:title="Busca una articulación por nombre.">
<polygon fill="#999999" stroke="#666666" points="111.25,-20 0,-20 0,0 111.25,0 111.25,-20"/>
<text xml:space="preserve" text-anchor="middle" x="55.62" y="-6.5" font-family="Helvetica,sans-Serif" font-size="10.00">GESkeleton::findJoint</text>
</a>
</g>
</g>
<!-- Node2 -->
<g id="Node000002" class="node">
<title>Node2</title>
<g id="a_Node000002"><a xlink:href="class_g_e_balljoint.html#a13e4735bffa31009035f084f415a5955" target="_top" xlink:title="Busca una articulación hija por nombre.">
<polygon fill="white" stroke="#666666" points="256.25,-20 147.25,-20 147.25,0 256.25,0 256.25,-20"/>
<text xml:space="preserve" text-anchor="middle" x="201.75" y="-6.5" font-family="Helvetica,sans-Serif" font-size="10.00">GEBalljoint::findChild</text>
</a>
</g>
</g>
<!-- Node1&#45;&gt;Node2 -->
<g id="edge1_Node000001_Node000002" class="edge">
<title>Node1&#45;&gt;Node2</title>
<g id="a_edge1_Node000001_Node000002"><a xlink:title=" ">
<path fill="none" stroke="#63b8ff" d="M111.52,-10C119.42,-10 127.6,-10 135.67,-10"/>
<polygon fill="#63b8ff" stroke="#63b8ff" points="135.44,-13.5 145.44,-10 135.44,-6.5 135.44,-13.5"/>
</a>
</g>
</g>
<!-- Node3 -->
<g id="Node000003" class="node">
<title>Node3</title>
<g id="a_Node000003"><a xlink:href="class_g_e_balljoint.html#a0f468b4618ae46410622a32a83569714" target="_top" xlink:title="Construye una articulación.">
<polygon fill="white" stroke="#666666" points="411.75,-20 292.25,-20 292.25,0 411.75,0 411.75,-20"/>
<text xml:space="preserve" text-anchor="middle" x="352" y="-6.5" font-family="Helvetica,sans-Serif" font-size="10.00">GEBalljoint::GEBalljoint</text>
</a>
</g>
</g>
<!-- Node2&#45;&gt;Node3 -->
<g id="edge2_Node000002_Node000003" class="edge">
<title>Node2&#45;&gt;Node3</title>
<g id="a_edge2_Node000002_Node000003"><a xlink:title=" ">
<path fill="none" stroke="#63b8ff" d="M256.69,-10C264.46,-10 272.54,-10 280.57,-10"/>
<polygon fill="#63b8ff" stroke="#63b8ff" points="280.33,-13.5 290.33,-10 280.33,-6.5 280.33,-13.5"/>
</a>
</g>
</g>
</g>
</svg>
