<?xml version="1.0" encoding="UTF-8" standalone="no"?>
<!DOCTYPE svg PUBLIC "-//W3C//DTD SVG 1.1//EN"
 "http://www.w3.org/Graphics/SVG/1.1/DTD/svg11.dtd">
<!-- Generated by graphviz version 14.1.2 (20260124.0452)
 -->
<!-- Title: pugi::xpath_variable::name Pages: 1 -->
<svg width="548pt" height="115pt"
 viewBox="0.00 0.00 548.00 115.00" xmlns="http://www.w3.org/2000/svg" xmlns:xlink="http://www.w3.org/1999/xlink">
<g id="graph0" class="graph" transform="scale(1 1) rotate(0) translate(4 111)">
<title>pugi::xpath_variable::name</title>
<!-- Node1 -->
<g id="Node000001" class="node">
<title>Node1</title>
<g id="a_Node000001"><a xlink:title=" ">
<polygon fill="#999999" stroke="#666666" points="539.5,-57 436.5,-57 436.5,-25 539.5,-25 539.5,-57"/>
<text xml:space="preserve" text-anchor="start" x="444.5" y="-43.5" font-family="Helvetica,sans-Serif" font-size="10.00">pugi::xpath_variable</text>
<text xml:space="preserve" text-anchor="middle" x="488" y="-31.5" font-family="Helvetica,sans-Serif" font-size="10.00">::name</text>
</a>
</g>
</g>
<!-- Node1&#45;&gt;Node1 -->
<g id="edge5_Node000001_Node000001" class="edge">
<title>Node1&#45;&gt;Node1</title>
<g id="a_edge5_Node000001_Node000001"><a xlink:title=" ">
<path fill="none" stroke="#63b8ff" d="M511.16,-68.71C507.3,-72.48 499.58,-75 488,-75 466.82,-75 458.55,-66.58 463.18,-57.44"/>
<polygon fill="#63b8ff" stroke="#63b8ff" points="514.61,-69.34 512.6,-58.94 507.68,-68.33 514.61,-69.34"/>
</a>
</g>
</g>
<!-- Node2 -->
<g id="Node000002" class="node">
<title>Node2</title>
<g id="a_Node000002"><a xlink:href="classpugi_1_1xpath__variable__set.html#a000081f39c2d0d2f2ac6954affadb42d" target="_top" xlink:title=" ">
<polygon fill="white" stroke="#666666" points="400.5,-82 297.5,-82 297.5,-50 400.5,-50 400.5,-82"/>
<text xml:space="preserve" text-anchor="start" x="305.5" y="-68.5" font-family="Helvetica,sans-Serif" font-size="10.00">pugi::xpath_variable</text>
<text xml:space="preserve" text-anchor="middle" x="349" y="-56.5" font-family="Helvetica,sans-Serif" font-size="10.00">_set::_clone</text>
</a>
</g>
</g>
<!-- Node1&#45;&gt;Node2 -->
<g id="edge1_Node000001_Node000002" class="edge">
<title>Node1&#45;&gt;Node2</title>
<g id="a_edge1_Node000001_Node000002"><a xlink:title=" ">
<path fill="none" stroke="#63b8ff" d="M425.06,-52.3C416.97,-53.78 408.76,-55.28 400.87,-56.72"/>
<polygon fill="#63b8ff" stroke="#63b8ff" points="425.68,-55.75 434.89,-50.51 424.42,-48.86 425.68,-55.75"/>
</a>
</g>
</g>
<!-- Node6 -->
<g id="Node000006" class="node">
<title>Node6</title>
<g id="a_Node000006"><a xlink:href="classpugi_1_1xpath__variable.html#abdae5ede6814c614bb09768847d06384" target="_top" xlink:title=" ">
<polygon fill="white" stroke="#666666" points="400.5,-32 297.5,-32 297.5,0 400.5,0 400.5,-32"/>
<text xml:space="preserve" text-anchor="start" x="305.5" y="-18.5" font-family="Helvetica,sans-Serif" font-size="10.00">pugi::xpath_variable</text>
<text xml:space="preserve" text-anchor="middle" x="349" y="-6.5" font-family="Helvetica,sans-Serif" font-size="10.00">::operator=</text>
</a>
</g>
</g>
<!-- Node1&#45;&gt;Node6 -->
<g id="edge6_Node000001_Node000006" class="edge">
<title>Node1&#45;&gt;Node6</title>
<g id="a_edge6_Node000001_Node000006"><a xlink:title=" ">
<path fill="none" stroke="#63b8ff" d="M425.06,-29.7C416.97,-28.22 408.76,-26.72 400.87,-25.28"/>
<polygon fill="#63b8ff" stroke="#63b8ff" points="424.42,-33.14 434.89,-31.49 425.68,-26.25 424.42,-33.14"/>
</a>
</g>
</g>
<!-- Node3 -->
<g id="Node000003" class="node">
<title>Node3</title>
<g id="a_Node000003"><a xlink:href="classpugi_1_1xpath__variable__set.html#ab3e49071473758d442d5198cf31a5960" target="_top" xlink:title=" ">
<polygon fill="white" stroke="#666666" points="261.5,-82 158.5,-82 158.5,-50 261.5,-50 261.5,-82"/>
<text xml:space="preserve" text-anchor="start" x="166.5" y="-68.5" font-family="Helvetica,sans-Serif" font-size="10.00">pugi::xpath_variable</text>
<text xml:space="preserve" text-anchor="middle" x="210" y="-56.5" font-family="Helvetica,sans-Serif" font-size="10.00">_set::_assign</text>
</a>
</g>
</g>
<!-- Node2&#45;&gt;Node3 -->
<g id="edge2_Node000002_Node000003" class="edge">
<title>Node2&#45;&gt;Node3</title>
<g id="a_edge2_Node000002_Node000003"><a xlink:title=" ">
<path fill="none" stroke="#63b8ff" d="M286.06,-66C277.97,-66 269.76,-66 261.87,-66"/>
<polygon fill="#63b8ff" stroke="#63b8ff" points="285.86,-69.5 295.86,-66 285.86,-62.5 285.86,-69.5"/>
</a>
</g>
</g>
<!-- Node4 -->
<g id="Node000004" class="node">
<title>Node4</title>
<g id="a_Node000004"><a xlink:href="classpugi_1_1xpath__variable__set.html#a01b2824caad84258c8931217081b8971" target="_top" xlink:title=" ">
<polygon fill="white" stroke="#666666" points="112.75,-107 9.75,-107 9.75,-75 112.75,-75 112.75,-107"/>
<text xml:space="preserve" text-anchor="start" x="17.75" y="-93.5" font-family="Helvetica,sans-Serif" font-size="10.00">pugi::xpath_variable</text>
<text xml:space="preserve" text-anchor="middle" x="61.25" y="-81.5" font-family="Helvetica,sans-Serif" font-size="10.00">_set::operator=</text>
</a>
</g>
</g>
<!-- Node3&#45;&gt;Node4 -->
<g id="edge3_Node000003_Node000004" class="edge">
<title>Node3&#45;&gt;Node4</title>
<g id="a_edge3_Node000003_Node000004"><a xlink:title=" ">
<path fill="none" stroke="#63b8ff" d="M146.95,-76.57C135.66,-78.49 124,-80.48 113.07,-82.34"/>
<polygon fill="#63b8ff" stroke="#63b8ff" points="147.32,-80.06 156.59,-74.93 146.15,-73.16 147.32,-80.06"/>
</a>
</g>
</g>
<!-- Node5 -->
<g id="Node000005" class="node">
<title>Node5</title>
<g id="a_Node000005"><a xlink:href="classpugi_1_1xpath__variable__set.html#a8885d983bc387f9faf1d34c3892de9c7" target="_top" xlink:title=" ">
<polygon fill="white" stroke="#666666" points="122.5,-57 0,-57 0,-25 122.5,-25 122.5,-57"/>
<text xml:space="preserve" text-anchor="start" x="8" y="-43.5" font-family="Helvetica,sans-Serif" font-size="10.00">pugi::xpath_variable</text>
<text xml:space="preserve" text-anchor="middle" x="61.25" y="-31.5" font-family="Helvetica,sans-Serif" font-size="10.00">_set::xpath_variable_set</text>
</a>
</g>
</g>
<!-- Node3&#45;&gt;Node5 -->
<g id="edge4_Node000003_Node000005" class="edge">
<title>Node3&#45;&gt;Node5</title>
<g id="a_edge4_Node000003_Node000005"><a xlink:title=" ">
<path fill="none" stroke="#63b8ff" d="M146.98,-55.44C139.02,-54.08 130.87,-52.69 122.92,-51.34"/>
<polygon fill="#63b8ff" stroke="#63b8ff" points="146.15,-58.84 156.59,-57.07 147.32,-51.94 146.15,-58.84"/>
</a>
</g>
</g>
</g>
</svg>
