<?xml version="1.0" encoding="UTF-8" standalone="no"?>
<!DOCTYPE svg PUBLIC "-//W3C//DTD SVG 1.1//EN"
 "http://www.w3.org/Graphics/SVG/1.1/DTD/svg11.dtd">
<!-- Generated by graphviz version 14.1.2 (20260124.0452)
 -->
<!-- Title: xpath_ast_node::optimize Pages: 1 -->
<svg width="637pt" height="96pt"
 viewBox="0.00 0.00 637.00 96.00" xmlns="http://www.w3.org/2000/svg" xmlns:xlink="http://www.w3.org/1999/xlink">
<g id="graph0" class="graph" transform="scale(1 1) rotate(0) translate(4 92)">
<title>xpath_ast_node::optimize</title>
<!-- Node1 -->
<g id="Node000001" class="node">
<title>Node1</title>
<g id="a_Node000001"><a xlink:title=" ">
<polygon fill="#999999" stroke="#666666" points="127.75,-42 0,-42 0,-22 127.75,-22 127.75,-42"/>
<text xml:space="preserve" text-anchor="middle" x="63.88" y="-28.5" font-family="Helvetica,sans-Serif" font-size="10.00">xpath_ast_node::optimize</text>
</a>
</g>
</g>
<!-- Node2 -->
<g id="Node000002" class="node">
<title>Node2</title>
<g id="a_Node000002"><a xlink:href="classxpath__ast__node.html#a3eb089927cabd867a3a9d1b723aece0d" target="_top" xlink:title=" ">
<polygon fill="white" stroke="#666666" points="312.5,-42 163.75,-42 163.75,-22 312.5,-22 312.5,-42"/>
<text xml:space="preserve" text-anchor="middle" x="238.12" y="-28.5" font-family="Helvetica,sans-Serif" font-size="10.00">xpath_ast_node::optimize_self</text>
</a>
</g>
</g>
<!-- Node1&#45;&gt;Node2 -->
<g id="edge1_Node000001_Node000002" class="edge">
<title>Node1&#45;&gt;Node2</title>
<g id="a_edge1_Node000001_Node000002"><a xlink:title=" ">
<path fill="none" stroke="#63b8ff" d="M128.04,-32C135.87,-32 143.97,-32 152.06,-32"/>
<polygon fill="#63b8ff" stroke="#63b8ff" points="151.95,-35.5 161.95,-32 151.95,-28.5 151.95,-35.5"/>
</a>
</g>
</g>
<!-- Node3 -->
<g id="Node000003" class="node">
<title>Node3</title>
<g id="a_Node000003"><a xlink:href="classxpath__ast__node.html#aac1162512c42ef38e35a9ba7ce994b91" target="_top" xlink:title=" ">
<polygon fill="white" stroke="#666666" points="459,-70 360.5,-70 360.5,-38 459,-38 459,-70"/>
<text xml:space="preserve" text-anchor="start" x="368.5" y="-56.5" font-family="Helvetica,sans-Serif" font-size="10.00">xpath_ast_node::is</text>
<text xml:space="preserve" text-anchor="middle" x="409.75" y="-44.5" font-family="Helvetica,sans-Serif" font-size="10.00">_posinv_step</text>
</a>
</g>
</g>
<!-- Node2&#45;&gt;Node3 -->
<g id="edge2_Node000002_Node000003" class="edge">
<title>Node2&#45;&gt;Node3</title>
<g id="a_edge2_Node000002_Node000003"><a xlink:title=" ">
<path fill="none" stroke="#63b8ff" d="M312.54,-41.52C324.75,-43.11 337.29,-44.73 349.1,-46.26"/>
<polygon fill="#63b8ff" stroke="#63b8ff" points="348.31,-49.69 358.68,-47.51 349.21,-42.75 348.31,-49.69"/>
</a>
</g>
</g>
<!-- Node5 -->
<g id="Node000005" class="node">
<title>Node5</title>
<g id="a_Node000005"><a xlink:href="pugixml_8cpp.html#a4a113e060713f00a1b6f835001c99efe" target="_top" xlink:title=" ">
<polygon fill="white" stroke="#666666" points="471,-20 348.5,-20 348.5,0 471,0 471,-20"/>
<text xml:space="preserve" text-anchor="middle" x="409.75" y="-6.5" font-family="Helvetica,sans-Serif" font-size="10.00">translate_table_generate</text>
</a>
</g>
</g>
<!-- Node2&#45;&gt;Node5 -->
<g id="edge5_Node000002_Node000005" class="edge">
<title>Node2&#45;&gt;Node5</title>
<g id="a_edge5_Node000002_Node000005"><a xlink:title=" ">
<path fill="none" stroke="#63b8ff" d="M312.54,-22.48C320.63,-21.43 328.87,-20.36 336.94,-19.31"/>
<polygon fill="#63b8ff" stroke="#63b8ff" points="337.25,-22.8 346.72,-18.05 336.35,-15.86 337.25,-22.8"/>
</a>
</g>
</g>
<!-- Node4 -->
<g id="Node000004" class="node">
<title>Node4</title>
<g id="a_Node000004"><a xlink:href="classxpath__ast__node.html#ae5a059e41b41505bef1f7dbebda8070b" target="_top" xlink:title=" ">
<polygon fill="white" stroke="#666666" points="625.38,-70 510.38,-70 510.38,-38 625.38,-38 625.38,-70"/>
<text xml:space="preserve" text-anchor="start" x="518.38" y="-56.5" font-family="Helvetica,sans-Serif" font-size="10.00">xpath_ast_node::xpath</text>
<text xml:space="preserve" text-anchor="middle" x="567.88" y="-44.5" font-family="Helvetica,sans-Serif" font-size="10.00">_ast_node</text>
</a>
</g>
</g>
<!-- Node3&#45;&gt;Node4 -->
<g id="edge3_Node000003_Node000004" class="edge">
<title>Node3&#45;&gt;Node4</title>
<g id="a_edge3_Node000003_Node000004"><a xlink:title=" ">
<path fill="none" stroke="#63b8ff" d="M459.29,-54C471.69,-54 485.24,-54 498.43,-54"/>
<polygon fill="#63b8ff" stroke="#63b8ff" points="498.37,-57.5 508.37,-54 498.37,-50.5 498.37,-57.5"/>
</a>
</g>
</g>
<!-- Node4&#45;&gt;Node4 -->
<g id="edge4_Node000004_Node000004" class="edge">
<title>Node4&#45;&gt;Node4</title>
<g id="a_edge4_Node000004_Node000004"><a xlink:title=" ">
<path fill="none" stroke="#63b8ff" d="M539.65,-70.44C534.38,-79.58 543.79,-88 567.88,-88 581.05,-88 589.83,-85.48 594.23,-81.71"/>
<polygon fill="#63b8ff" stroke="#63b8ff" points="597.66,-82.38 595.86,-71.94 590.76,-81.22 597.66,-82.38"/>
</a>
</g>
</g>
<!-- Node6 -->
<g id="Node000006" class="node">
<title>Node6</title>
<g id="a_Node000006"><a xlink:href="structxpath__allocator.html#a6c13fefbd7038d78b336987f396c8415" target="_top" xlink:title=" ">
<polygon fill="white" stroke="#666666" points="628.75,-20 507,-20 507,0 628.75,0 628.75,-20"/>
<text xml:space="preserve" text-anchor="middle" x="567.88" y="-6.5" font-family="Helvetica,sans-Serif" font-size="10.00">xpath_allocator::allocate</text>
</a>
</g>
</g>
<!-- Node5&#45;&gt;Node6 -->
<g id="edge6_Node000005_Node000006" class="edge">
<title>Node5&#45;&gt;Node6</title>
<g id="a_edge6_Node000005_Node000006"><a xlink:title=" ">
<path fill="none" stroke="#63b8ff" d="M471.11,-10C479.04,-10 487.23,-10 495.33,-10"/>
<polygon fill="#63b8ff" stroke="#63b8ff" points="495.16,-13.5 505.16,-10 495.16,-6.5 495.16,-13.5"/>
</a>
</g>
</g>
</g>
</svg>
