<?xml version="1.0" encoding="UTF-8" standalone="no"?>
<!DOCTYPE svg PUBLIC "-//W3C//DTD SVG 1.1//EN"
 "http://www.w3.org/Graphics/SVG/1.1/DTD/svg11.dtd">
<!-- Generated by graphviz version 14.1.2 (20260124.0452)
 -->
<!-- Title: GEAnimation::applyToSkeleton Pages: 1 -->
<!--zoomable 192 -->

<svg id="main" version="1.1" xmlns="http://www.w3.org/2000/svg" xmlns:xlink="http://www.w3.org/1999/xlink" xml:space="preserve" onload="init(evt)">

<style type="text/css"><![CDATA[
.node, .edge {opacity: 0.7;}
.node.selected, .edge.selected {opacity: 1;}
.edge:hover path { stroke: red; }
.edge:hover polygon { stroke: red; fill: red; }
]]></style>

<defs>
  <circle id="rim" cx="0" cy="0" r="7"/>
  <circle id="rim2" cx="0" cy="0" r="3.5"/>
  <g id="zoomPlus">
    <use xlink:href="#rim" fill="#404040"><set attributeName="fill" to="#808080" begin="zoomplus.mouseover" end="zoomplus.mouseout"/></use>
    <path d="M-4,0h8M0,-4v8" fill="none" stroke="white" stroke-width="1.5" pointer-events="none"/>
  </g>
  <g id="zoomMin">
    <use xlink:href="#rim" fill="#404040"><set attributeName="fill" to="#808080" begin="zoomminus.mouseover" end="zoomminus.mouseout"/></use>
    <path d="M-4,0h8" fill="none" stroke="white" stroke-width="1.5" pointer-events="none"/>
  </g>
  <g id="arrowUp" transform="translate(30 24)">
    <use xlink:href="#rim"/>
    <path pointer-events="none" fill="none" stroke="white" stroke-width="1.5" d="M0,-3.0v7 M-2.5,-0.5L0,-3.0L2.5,-0.5"/>
  </g>
  <g id="arrowRight" transform="rotate(90) translate(36 -43)">
    <use xlink:href="#rim"/>
    <path pointer-events="none" fill="none" stroke="white" stroke-width="1.5" d="M0,-3.0v7 M-2.5,-0.5L0,-3.0L2.5,-0.5"/>
  </g>
  <g id="arrowDown" transform="rotate(180) translate(-30 -48)">
    <use xlink:href="#rim"/>
    <path pointer-events="none" fill="none" stroke="white" stroke-width="1.5" d="M0,-3.0v7 M-2.5,-0.5L0,-3.0L2.5,-0.5"/>
  </g>
  <g id="arrowLeft" transform="rotate(270) translate(-36 17)">
    <use xlink:href="#rim"/>
    <path pointer-events="none" fill="none" stroke="white" stroke-width="1.5" d="M0,-3.0v7 M-2.5,-0.5L0,-3.0L2.5,-0.5"/>
  </g>
  <g id="resetDef">
    <use xlink:href="#rim2" fill="#404040"><set attributeName="fill" to="#808080" begin="reset.mouseover" end="reset.mouseout"/></use>
  </g>
</defs>
<script type="application/ecmascript">
var viewWidth = 628;
var viewHeight = 192;
var sectionId = 'dynsection-1';
</script>
<script type="application/ecmascript" xlink:href="svg.min.js"/>
<svg id="graph" class="graph">
<g id="viewport">
<title>GEAnimation::applyToSkeleton</title>
<!-- Node1 -->
<g id="Node000001" class="node">
<title>Node1</title>
<g id="a_Node000001"><a xlink:title="Aplica la animación actual al esqueleto.">
<polygon fill="#999999" stroke="#666666" points="151.75,-102 0,-102 0,-82 151.75,-82 151.75,-102"/>
<text xml:space="preserve" text-anchor="middle" x="75.88" y="-88.5" font-family="Helvetica,sans-Serif" font-size="10.00">GEAnimation::applyToSkeleton</text>
</a>
</g>
</g>
<!-- Node2 -->
<g id="Node000002" class="node">
<title>Node2</title>
<g id="a_Node000002"><a xlink:href="class_g_e_skeleton.html#ac2e620f6a7ba3d371b5e5dbeb6bbec85" target="_top" xlink:title="Busca una articulación por nombre.">
<polygon fill="white" stroke="#666666" points="309.12,-184 197.88,-184 197.88,-164 309.12,-164 309.12,-184"/>
<text xml:space="preserve" text-anchor="middle" x="253.5" y="-170.5" font-family="Helvetica,sans-Serif" font-size="10.00">GESkeleton::findJoint</text>
</a>
</g>
</g>
<!-- Node1&#45;&gt;Node2 -->
<g id="edge1_Node000001_Node000002" class="edge">
<title>Node1&#45;&gt;Node2</title>
<g id="a_edge1_Node000001_Node000002"><a xlink:title=" ">
<path fill="none" stroke="#63b8ff" d="M92.44,-102.39C113.37,-115.99 152.08,-139.87 187.75,-155 192,-156.8 196.47,-158.5 201,-160.08"/>
<polygon fill="#63b8ff" stroke="#63b8ff" points="199.55,-163.29 210.14,-163.08 201.74,-156.64 199.55,-163.29"/>
</a>
</g>
</g>
<!-- Node5 -->
<g id="Node000005" class="node">
<title>Node5</title>
<g id="a_Node000005"><a xlink:href="class_g_e_animation.html#acbec67cc5efe634a7bfb89ae6dd069b0" target="_top" xlink:title="Obtiene la pose interpolada para una articulación.">
<polygon fill="white" stroke="#666666" points="316.25,-146 190.75,-146 190.75,-126 316.25,-126 316.25,-146"/>
<text xml:space="preserve" text-anchor="middle" x="253.5" y="-132.5" font-family="Helvetica,sans-Serif" font-size="10.00">GEAnimation::getPoseAt</text>
</a>
</g>
</g>
<!-- Node1&#45;&gt;Node5 -->
<g id="edge4_Node000001_Node000005" class="edge">
<title>Node1&#45;&gt;Node5</title>
<g id="a_edge4_Node000001_Node000005"><a xlink:title=" ">
<path fill="none" stroke="#63b8ff" d="M118.5,-102.43C142.9,-108.54 173.97,-116.32 200.04,-122.86"/>
<polygon fill="#63b8ff" stroke="#63b8ff" points="198.86,-126.17 209.41,-125.2 200.56,-119.38 198.86,-126.17"/>
</a>
</g>
</g>
<!-- Node6 -->
<g id="Node000006" class="node">
<title>Node6</title>
<g id="a_Node000006"><a xlink:href="class_g_e_animation.html#a0f23d92d8b3dd22f3a9acd9b74e2be07" target="_top" xlink:title="Obtiene la posición del esqueleto interpolada.">
<polygon fill="white" stroke="#666666" points="319.25,-108 187.75,-108 187.75,-76 319.25,-76 319.25,-108"/>
<text xml:space="preserve" text-anchor="start" x="195.75" y="-94.5" font-family="Helvetica,sans-Serif" font-size="10.00">GEAnimation::getSkeleton</text>
<text xml:space="preserve" text-anchor="middle" x="253.5" y="-82.5" font-family="Helvetica,sans-Serif" font-size="10.00">Position</text>
</a>
</g>
</g>
<!-- Node1&#45;&gt;Node6 -->
<g id="edge5_Node000001_Node000006" class="edge">
<title>Node1&#45;&gt;Node6</title>
<g id="a_edge5_Node000001_Node000006"><a xlink:title=" ">
<path fill="none" stroke="#63b8ff" d="M152.12,-92C160,-92 168.02,-92 175.92,-92"/>
<polygon fill="#63b8ff" stroke="#63b8ff" points="175.85,-95.5 185.85,-92 175.85,-88.5 175.85,-95.5"/>
</a>
</g>
</g>
<!-- Node7 -->
<g id="Node000007" class="node">
<title>Node7</title>
<g id="a_Node000007"><a xlink:href="class_g_e_balljoint.html#af4e9dadf09e7626f4bfe7386a8d76e5b" target="_top" xlink:title="Asigna la rotación de la articulación (respetando límites).">
<polygon fill="white" stroke="#666666" points="306.88,-58 200.12,-58 200.12,-38 306.88,-38 306.88,-58"/>
<text xml:space="preserve" text-anchor="middle" x="253.5" y="-44.5" font-family="Helvetica,sans-Serif" font-size="10.00">GEBalljoint::setPose</text>
</a>
</g>
</g>
<!-- Node1&#45;&gt;Node7 -->
<g id="edge6_Node000001_Node000007" class="edge">
<title>Node1&#45;&gt;Node7</title>
<g id="a_edge6_Node000001_Node000007"><a xlink:title=" ">
<path fill="none" stroke="#63b8ff" d="M118.5,-81.57C142.9,-75.46 173.97,-67.68 200.04,-61.14"/>
<polygon fill="#63b8ff" stroke="#63b8ff" points="200.56,-64.62 209.41,-58.8 198.86,-57.83 200.56,-64.62"/>
</a>
</g>
</g>
<!-- Node8 -->
<g id="Node000008" class="node">
<title>Node8</title>
<g id="a_Node000008"><a xlink:href="class_g_e_skeleton.html#aea806b4224cb8d236d740defe660d042" target="_top" xlink:title="Establece la posición global del esqueleto.">
<polygon fill="white" stroke="#666666" points="315.12,-20 191.88,-20 191.88,0 315.12,0 315.12,-20"/>
<text xml:space="preserve" text-anchor="middle" x="253.5" y="-6.5" font-family="Helvetica,sans-Serif" font-size="10.00">GESkeleton::setPosition</text>
</a>
</g>
</g>
<!-- Node1&#45;&gt;Node8 -->
<g id="edge7_Node000001_Node000008" class="edge">
<title>Node1&#45;&gt;Node8</title>
<g id="a_edge7_Node000001_Node000008"><a xlink:title=" ">
<path fill="none" stroke="#63b8ff" d="M92.44,-81.61C113.37,-68.01 152.08,-44.13 187.75,-29 192,-27.2 196.47,-25.5 201,-23.92"/>
<polygon fill="#63b8ff" stroke="#63b8ff" points="201.74,-27.36 210.14,-20.92 199.55,-20.71 201.74,-27.36"/>
</a>
</g>
</g>
<!-- Node3 -->
<g id="Node000003" class="node">
<title>Node3</title>
<g id="a_Node000003"><a xlink:href="class_g_e_balljoint.html#a13e4735bffa31009035f084f415a5955" target="_top" xlink:title="Busca una articulación hija por nombre.">
<polygon fill="white" stroke="#666666" points="464.25,-184 355.25,-184 355.25,-164 464.25,-164 464.25,-184"/>
<text xml:space="preserve" text-anchor="middle" x="409.75" y="-170.5" font-family="Helvetica,sans-Serif" font-size="10.00">GEBalljoint::findChild</text>
</a>
</g>
</g>
<!-- Node2&#45;&gt;Node3 -->
<g id="edge2_Node000002_Node000003" class="edge">
<title>Node2&#45;&gt;Node3</title>
<g id="a_edge2_Node000002_Node000003"><a xlink:title=" ">
<path fill="none" stroke="#63b8ff" d="M309.32,-174C320.42,-174 332.2,-174 343.62,-174"/>
<polygon fill="#63b8ff" stroke="#63b8ff" points="343.37,-177.5 353.37,-174 343.37,-170.5 343.37,-177.5"/>
</a>
</g>
</g>
<!-- Node4 -->
<g id="Node000004" class="node">
<title>Node4</title>
<g id="a_Node000004"><a xlink:href="class_g_e_balljoint.html#a0f468b4618ae46410622a32a83569714" target="_top" xlink:title="Construye una articulación.">
<polygon fill="white" stroke="#666666" points="619.75,-184 500.25,-184 500.25,-164 619.75,-164 619.75,-184"/>
<text xml:space="preserve" text-anchor="middle" x="560" y="-170.5" font-family="Helvetica,sans-Serif" font-size="10.00">GEBalljoint::GEBalljoint</text>
</a>
</g>
</g>
<!-- Node3&#45;&gt;Node4 -->
<g id="edge3_Node000003_Node000004" class="edge">
<title>Node3&#45;&gt;Node4</title>
<g id="a_edge3_Node000003_Node000004"><a xlink:title=" ">
<path fill="none" stroke="#63b8ff" d="M464.69,-174C472.46,-174 480.54,-174 488.57,-174"/>
<polygon fill="#63b8ff" stroke="#63b8ff" points="488.33,-177.5 498.33,-174 488.33,-170.5 488.33,-177.5"/>
</a>
</g>
</g>
</g>
</svg>

<g id="navigator" transform="translate(0 0)" fill="#404254">
  <rect fill="#f2f5e9" fill-opacity="0.5" stroke="#606060" stroke-width=".5" x="0" y="0" width="60" height="60"/>
  <use id="zoomplus" xlink:href="#zoomPlus" x="17" y="9" onmousedown="handleZoom(evt,'in')"/>
  <use id="zoomminus" xlink:href="#zoomMin" x="42" y="9" onmousedown="handleZoom(evt,'out')"/>
  <use id="reset" xlink:href="#resetDef" x="30" y="36" onmousedown="handleReset()"/>
   <use id="arrowup" xlink:href="#arrowUp" x="0" y="0" onmousedown="handlePan(0,-1)"/>
  <use id="arrowright" xlink:href="#arrowRight" x="0" y="0" onmousedown="handlePan(1,0)"/>
  <use id="arrowdown" xlink:href="#arrowDown" x="0" y="0" onmousedown="handlePan(0,1)"/>
  <use id="arrowleft" xlink:href="#arrowLeft" x="0" y="0" onmousedown="handlePan(-1,0)"/>
</g>
<svg viewBox="0 0 15 15" width="100%" height="30px" preserveAspectRatio="xMaxYMin meet">
 <g id="arrow_out" transform="scale(0.3 0.3)">
  <a xlink:href="class_g_e_animation_a0c0c9b1891d41bae1e7cf2ae6bde46cc_cgraph_org.svg" target="_base">
   <rect id="button" ry="5" rx="5" y="6" x="6" height="38" width="38"
        fill="#f2f5e9" fill-opacity="0.5" stroke="#606060" stroke-width="1.0"/>
   <path id="arrow"
     d="M 11.500037,31.436501 C 11.940474,20.09759 22.043105,11.32322 32.158766,21.979434 L 37.068811,17.246167 C 37.068811,17.246167 37.088388,32 37.088388,32 L 22.160133,31.978069 C 22.160133,31.978069 26.997745,27.140456 26.997745,27.140456 C 18.528582,18.264221 13.291696,25.230495 11.500037,31.436501 z"
     style="fill:#404040;"/>
  </a>
 </g>
</svg>

<style type='text/css'>
<![CDATA[
[data-mouse-over-selected='false'] { opacity: 0.7; }
[data-mouse-over-selected='true']  { opacity: 1.0; }
]]>
</style>
<script type="application/ecmascript"><![CDATA[
document.addEventListener('DOMContentLoaded', (event) => {
  highlightEdges();
  highlightAdjacentNodes();
});
]]></script>
</svg>
