<?xml version="1.0" encoding="UTF-8" standalone="no"?>
<!DOCTYPE svg PUBLIC "-//W3C//DTD SVG 1.1//EN"
 "http://www.w3.org/Graphics/SVG/1.1/DTD/svg11.dtd">
<!-- Generated by graphviz version 14.1.2 (20260124.0452)
 -->
<!-- Title: pugi::xpath_variable_set::add Pages: 1 -->
<svg width="250pt" height="190pt"
 viewBox="0.00 0.00 250.00 190.00" xmlns="http://www.w3.org/2000/svg" xmlns:xlink="http://www.w3.org/1999/xlink">

<svg id="main" version="1.1" xmlns="http://www.w3.org/2000/svg" xmlns:xlink="http://www.w3.org/1999/xlink" xml:space="preserve">

<style type="text/css"><![CDATA[
.node, .edge {opacity: 0.7;}
.node.selected, .edge.selected {opacity: 1;}
.edge:hover path { stroke: red; }
.edge:hover polygon { stroke: red; fill: red; }
]]></style>
<script type="application/ecmascript" xlink:href="svg.min.js"/>
<svg id="graph" class="graph">
<g id="graph0" class="graph" transform="scale(1 1) rotate(0) translate(4 186)">
<title>pugi::xpath_variable_set::add</title>
<!-- Node1 -->
<g id="Node000001" class="node">
<title>Node1</title>
<g id="a_Node000001"><a xlink:title=" ">
<polygon fill="#999999" stroke="#666666" points="242,-107 139,-107 139,-75 242,-75 242,-107"/>
<text xml:space="preserve" text-anchor="start" x="147" y="-93.5" font-family="Helvetica,sans-Serif" font-size="10.00">pugi::xpath_variable</text>
<text xml:space="preserve" text-anchor="middle" x="190.5" y="-81.5" font-family="Helvetica,sans-Serif" font-size="10.00">_set::add</text>
</a>
</g>
</g>
<!-- Node2 -->
<g id="Node000002" class="node">
<title>Node2</title>
<g id="a_Node000002"><a xlink:href="classpugi_1_1xpath__variable__set.html#a97f57493e6017940ae4c775cdd9a4204" target="_top" xlink:title=" ">
<polygon fill="white" stroke="#666666" points="103,-182 0,-182 0,-150 103,-150 103,-182"/>
<text xml:space="preserve" text-anchor="start" x="8" y="-168.5" font-family="Helvetica,sans-Serif" font-size="10.00">pugi::xpath_variable</text>
<text xml:space="preserve" text-anchor="middle" x="51.5" y="-156.5" font-family="Helvetica,sans-Serif" font-size="10.00">_set::set</text>
</a>
</g>
</g>
<!-- Node1&#45;&gt;Node2 -->
<g id="edge1_Node000001_Node000002" class="edge">
<title>Node1&#45;&gt;Node2</title>
<g id="a_edge1_Node000001_Node000002"><a xlink:title=" ">
<path fill="none" stroke="#63b8ff" d="M152.52,-113.07C137.31,-121.97 119.43,-132.2 103,-141 97.65,-143.86 91.94,-146.81 86.34,-149.62"/>
<polygon fill="#63b8ff" stroke="#63b8ff" points="153.95,-116.3 160.79,-108.21 150.4,-110.26 153.95,-116.3"/>
</a>
</g>
</g>
<!-- Node3 -->
<g id="Node000003" class="node">
<title>Node3</title>
<g id="a_Node000003"><a xlink:href="classpugi_1_1xpath__variable__set.html#a0439e5a5cc3ec6008e6638a73f840fec" target="_top" xlink:title=" ">
<polygon fill="white" stroke="#666666" points="103,-132 0,-132 0,-100 103,-100 103,-132"/>
<text xml:space="preserve" text-anchor="start" x="8" y="-118.5" font-family="Helvetica,sans-Serif" font-size="10.00">pugi::xpath_variable</text>
<text xml:space="preserve" text-anchor="middle" x="51.5" y="-106.5" font-family="Helvetica,sans-Serif" font-size="10.00">_set::set</text>
</a>
</g>
</g>
<!-- Node1&#45;&gt;Node3 -->
<g id="edge2_Node000001_Node000003" class="edge">
<title>Node1&#45;&gt;Node3</title>
<g id="a_edge2_Node000001_Node000003"><a xlink:title=" ">
<path fill="none" stroke="#63b8ff" d="M127.56,-102.3C119.47,-103.78 111.26,-105.28 103.37,-106.72"/>
<polygon fill="#63b8ff" stroke="#63b8ff" points="128.18,-105.75 137.39,-100.51 126.92,-98.86 128.18,-105.75"/>
</a>
</g>
</g>
<!-- Node4 -->
<g id="Node000004" class="node">
<title>Node4</title>
<g id="a_Node000004"><a xlink:href="classpugi_1_1xpath__variable__set.html#aa69e883729406c5911febf9c56a0c67d" target="_top" xlink:title=" ">
<polygon fill="white" stroke="#666666" points="103,-82 0,-82 0,-50 103,-50 103,-82"/>
<text xml:space="preserve" text-anchor="start" x="8" y="-68.5" font-family="Helvetica,sans-Serif" font-size="10.00">pugi::xpath_variable</text>
<text xml:space="preserve" text-anchor="middle" x="51.5" y="-56.5" font-family="Helvetica,sans-Serif" font-size="10.00">_set::set</text>
</a>
</g>
</g>
<!-- Node1&#45;&gt;Node4 -->
<g id="edge3_Node000001_Node000004" class="edge">
<title>Node1&#45;&gt;Node4</title>
<g id="a_edge3_Node000001_Node000004"><a xlink:title=" ">
<path fill="none" stroke="#63b8ff" d="M127.56,-79.7C119.47,-78.22 111.26,-76.72 103.37,-75.28"/>
<polygon fill="#63b8ff" stroke="#63b8ff" points="126.92,-83.14 137.39,-81.49 128.18,-76.25 126.92,-83.14"/>
</a>
</g>
</g>
<!-- Node5 -->
<g id="Node000005" class="node">
<title>Node5</title>
<g id="a_Node000005"><a xlink:href="classpugi_1_1xpath__variable__set.html#ade2375d40f812706fb3fa1f6d06d84f8" target="_top" xlink:title=" ">
<polygon fill="white" stroke="#666666" points="103,-32 0,-32 0,0 103,0 103,-32"/>
<text xml:space="preserve" text-anchor="start" x="8" y="-18.5" font-family="Helvetica,sans-Serif" font-size="10.00">pugi::xpath_variable</text>
<text xml:space="preserve" text-anchor="middle" x="51.5" y="-6.5" font-family="Helvetica,sans-Serif" font-size="10.00">_set::set</text>
</a>
</g>
</g>
<!-- Node1&#45;&gt;Node5 -->
<g id="edge4_Node000001_Node000005" class="edge">
<title>Node1&#45;&gt;Node5</title>
<g id="a_edge4_Node000001_Node000005"><a xlink:title=" ">
<path fill="none" stroke="#63b8ff" d="M152.52,-68.93C137.31,-60.03 119.43,-49.8 103,-41 97.65,-38.14 91.94,-35.19 86.34,-32.38"/>
<polygon fill="#63b8ff" stroke="#63b8ff" points="150.4,-71.74 160.79,-73.79 153.95,-65.7 150.4,-71.74"/>
</a>
</g>
</g>
</g>
</svg>
</svg>

<style type='text/css'>
<![CDATA[
[data-mouse-over-selected='false'] { opacity: 0.7; }
[data-mouse-over-selected='true']  { opacity: 1.0; }
]]>
</style>
<script type="application/ecmascript"><![CDATA[
document.addEventListener('DOMContentLoaded', (event) => {
  highlightEdges();
  highlightAdjacentNodes();
});
]]></script>
</svg>
