<?xml version="1.0" encoding="UTF-8" standalone="no"?>
<!DOCTYPE svg PUBLIC "-//W3C//DTD SVG 1.1//EN"
 "http://www.w3.org/Graphics/SVG/1.1/DTD/svg11.dtd">
<!-- Generated by graphviz version 14.1.2 (20260124.0452)
 -->
<!-- Title: pugi::xml_attribute::as_bool Pages: 1 -->
<svg width="237pt" height="58pt"
 viewBox="0.00 0.00 237.00 58.00" xmlns="http://www.w3.org/2000/svg" xmlns:xlink="http://www.w3.org/1999/xlink">
<g id="graph0" class="graph" transform="scale(1 1) rotate(0) translate(4 54)">
<title>pugi::xml_attribute::as_bool</title>
<!-- Node1 -->
<g id="Node000001" class="node">
<title>Node1</title>
<g id="a_Node000001"><a xlink:title=" ">
<polygon fill="#999999" stroke="#666666" points="96.25,-32 0,-32 0,0 96.25,0 96.25,-32"/>
<text xml:space="preserve" text-anchor="start" x="8" y="-18.5" font-family="Helvetica,sans-Serif" font-size="10.00">pugi::xml_attribute</text>
<text xml:space="preserve" text-anchor="middle" x="48.12" y="-6.5" font-family="Helvetica,sans-Serif" font-size="10.00">::as_bool</text>
</a>
</g>
</g>
<!-- Node2 -->
<g id="Node000002" class="node">
<title>Node2</title>
<g id="a_Node000002"><a xlink:href="classpugi_1_1xml__attribute.html#ac18639df6493d250601566d1156c38d9" target="_top" xlink:title=" ">
<polygon fill="white" stroke="#666666" points="228.5,-32 132.25,-32 132.25,0 228.5,0 228.5,-32"/>
<text xml:space="preserve" text-anchor="start" x="140.25" y="-18.5" font-family="Helvetica,sans-Serif" font-size="10.00">pugi::xml_attribute</text>
<text xml:space="preserve" text-anchor="middle" x="180.38" y="-6.5" font-family="Helvetica,sans-Serif" font-size="10.00">::value</text>
</a>
</g>
</g>
<!-- Node1&#45;&gt;Node2 -->
<g id="edge1_Node000001_Node000002" class="edge">
<title>Node1&#45;&gt;Node2</title>
<g id="a_edge1_Node000001_Node000002"><a xlink:title=" ">
<path fill="none" stroke="#63b8ff" d="M96.52,-16C104.33,-16 112.51,-16 120.56,-16"/>
<polygon fill="#63b8ff" stroke="#63b8ff" points="120.29,-19.5 130.29,-16 120.29,-12.5 120.29,-19.5"/>
</a>
</g>
</g>
<!-- Node2&#45;&gt;Node2 -->
<g id="edge2_Node000002_Node000002" class="edge">
<title>Node2&#45;&gt;Node2</title>
<g id="a_edge2_Node000002_Node000002"><a xlink:title=" ">
<path fill="none" stroke="#63b8ff" d="M156.76,-32.44C152.36,-41.58 160.23,-50 180.38,-50 191.39,-50 198.74,-47.48 202.41,-43.71"/>
<polygon fill="#63b8ff" stroke="#63b8ff" points="205.86,-44.33 203.78,-33.94 198.93,-43.36 205.86,-44.33"/>
</a>
</g>
</g>
</g>
</svg>
