<?xml version="1.0" encoding="UTF-8" standalone="no"?>
<!DOCTYPE svg PUBLIC "-//W3C//DTD SVG 1.1//EN"
 "http://www.w3.org/Graphics/SVG/1.1/DTD/svg11.dtd">
<!-- Generated by graphviz version 14.1.2 (20260124.0452)
 -->
<!-- Title: pugi::xml_node::parent Pages: 1 -->
<svg width="289pt" height="96pt"
 viewBox="0.00 0.00 289.00 96.00" xmlns="http://www.w3.org/2000/svg" xmlns:xlink="http://www.w3.org/1999/xlink">

<svg id="main" version="1.1" xmlns="http://www.w3.org/2000/svg" xmlns:xlink="http://www.w3.org/1999/xlink" xml:space="preserve">

<style type="text/css"><![CDATA[
.node, .edge {opacity: 0.7;}
.node.selected, .edge.selected {opacity: 1;}
.edge:hover path { stroke: red; }
.edge:hover polygon { stroke: red; fill: red; }
]]></style>
<script type="application/ecmascript" xlink:href="svg.min.js"/>
<svg id="graph" class="graph">
<g id="graph0" class="graph" transform="scale(1 1) rotate(0) translate(4 92)">
<title>pugi::xml_node::parent</title>
<!-- Node1 -->
<g id="Node000001" class="node">
<title>Node1</title>
<g id="a_Node000001"><a xlink:title=" ">
<polygon fill="#999999" stroke="#666666" points="281,-57 166,-57 166,-37 281,-37 281,-57"/>
<text xml:space="preserve" text-anchor="middle" x="223.5" y="-43.5" font-family="Helvetica,sans-Serif" font-size="10.00">pugi::xml_node::parent</text>
</a>
</g>
</g>
<!-- Node2 -->
<g id="Node000002" class="node">
<title>Node2</title>
<g id="a_Node000002"><a xlink:href="classpugi_1_1xml__node.html#a8c360e4966b4015c50b927009c3d1ee3" target="_top" xlink:title=" ">
<polygon fill="white" stroke="#666666" points="130,-88 0,-88 0,-68 130,-68 130,-88"/>
<text xml:space="preserve" text-anchor="middle" x="65" y="-74.5" font-family="Helvetica,sans-Serif" font-size="10.00">pugi::xml_node::find_node</text>
</a>
</g>
</g>
<!-- Node1&#45;&gt;Node2 -->
<g id="edge1_Node000001_Node000002" class="edge">
<title>Node1&#45;&gt;Node2</title>
<g id="a_edge1_Node000001_Node000002"><a xlink:title=" ">
<path fill="none" stroke="#63b8ff" d="M158.61,-59.66C145.42,-62.27 131.67,-64.99 118.93,-67.52"/>
<polygon fill="#63b8ff" stroke="#63b8ff" points="158.9,-63.17 168.03,-57.79 157.54,-56.3 158.9,-63.17"/>
</a>
</g>
</g>
<!-- Node3 -->
<g id="Node000003" class="node">
<title>Node3</title>
<g id="a_Node000003"><a xlink:href="classpugi_1_1xml__node.html#a83fe1c45b001aa5caf36455318b66920" target="_top" xlink:title=" ">
<polygon fill="white" stroke="#666666" points="117.25,-32 12.75,-32 12.75,0 117.25,0 117.25,-32"/>
<text xml:space="preserve" text-anchor="start" x="20.75" y="-18.5" font-family="Helvetica,sans-Serif" font-size="10.00">pugi::xml_node::first</text>
<text xml:space="preserve" text-anchor="middle" x="65" y="-6.5" font-family="Helvetica,sans-Serif" font-size="10.00">_element_by_path</text>
</a>
</g>
</g>
<!-- Node1&#45;&gt;Node3 -->
<g id="edge2_Node000001_Node000003" class="edge">
<title>Node1&#45;&gt;Node3</title>
<g id="a_edge2_Node000001_Node000003"><a xlink:title=" ">
<path fill="none" stroke="#63b8ff" d="M158.31,-34.28C144.75,-31.6 130.62,-28.8 117.6,-26.22"/>
<polygon fill="#63b8ff" stroke="#63b8ff" points="157.54,-37.7 168.03,-36.21 158.9,-30.83 157.54,-37.7"/>
</a>
</g>
</g>
<!-- Node3&#45;&gt;Node3 -->
<g id="edge3_Node000003_Node000003" class="edge">
<title>Node3&#45;&gt;Node3</title>
<g id="a_edge3_Node000003_Node000003"><a xlink:title=" ">
<path fill="none" stroke="#63b8ff" d="M91.41,-43.71C87.01,-47.48 78.21,-50 65,-50 40.85,-50 31.42,-41.58 36.7,-32.44"/>
<polygon fill="#63b8ff" stroke="#63b8ff" points="94.85,-44.38 93.05,-33.94 87.95,-43.22 94.85,-44.38"/>
</a>
</g>
</g>
</g>
</svg>
</svg>

<style type='text/css'>
<![CDATA[
[data-mouse-over-selected='false'] { opacity: 0.7; }
[data-mouse-over-selected='true']  { opacity: 1.0; }
]]>
</style>
<script type="application/ecmascript"><![CDATA[
document.addEventListener('DOMContentLoaded', (event) => {
  highlightEdges();
  highlightAdjacentNodes();
});
]]></script>
</svg>
