<?xml version="1.0" encoding="UTF-8" standalone="no"?>
<!DOCTYPE svg PUBLIC "-//W3C//DTD SVG 1.1//EN"
 "http://www.w3.org/Graphics/SVG/1.1/DTD/svg11.dtd">
<!-- Generated by graphviz version 14.1.2 (20260124.0452)
 -->
<!-- Title: xpath_node_set_raw::truncate Pages: 1 -->
<!--zoomable 365 -->

<svg id="main" version="1.1" xmlns="http://www.w3.org/2000/svg" xmlns:xlink="http://www.w3.org/1999/xlink" xml:space="preserve" onload="init(evt)">

<style type="text/css"><![CDATA[
.node, .edge {opacity: 0.7;}
.node.selected, .edge.selected {opacity: 1;}
.edge:hover path { stroke: red; }
.edge:hover polygon { stroke: red; fill: red; }
]]></style>

<defs>
  <circle id="rim" cx="0" cy="0" r="7"/>
  <circle id="rim2" cx="0" cy="0" r="3.5"/>
  <g id="zoomPlus">
    <use xlink:href="#rim" fill="#404040"><set attributeName="fill" to="#808080" begin="zoomplus.mouseover" end="zoomplus.mouseout"/></use>
    <path d="M-4,0h8M0,-4v8" fill="none" stroke="white" stroke-width="1.5" pointer-events="none"/>
  </g>
  <g id="zoomMin">
    <use xlink:href="#rim" fill="#404040"><set attributeName="fill" to="#808080" begin="zoomminus.mouseover" end="zoomminus.mouseout"/></use>
    <path d="M-4,0h8" fill="none" stroke="white" stroke-width="1.5" pointer-events="none"/>
  </g>
  <g id="arrowUp" transform="translate(30 24)">
    <use xlink:href="#rim"/>
    <path pointer-events="none" fill="none" stroke="white" stroke-width="1.5" d="M0,-3.0v7 M-2.5,-0.5L0,-3.0L2.5,-0.5"/>
  </g>
  <g id="arrowRight" transform="rotate(90) translate(36 -43)">
    <use xlink:href="#rim"/>
    <path pointer-events="none" fill="none" stroke="white" stroke-width="1.5" d="M0,-3.0v7 M-2.5,-0.5L0,-3.0L2.5,-0.5"/>
  </g>
  <g id="arrowDown" transform="rotate(180) translate(-30 -48)">
    <use xlink:href="#rim"/>
    <path pointer-events="none" fill="none" stroke="white" stroke-width="1.5" d="M0,-3.0v7 M-2.5,-0.5L0,-3.0L2.5,-0.5"/>
  </g>
  <g id="arrowLeft" transform="rotate(270) translate(-36 17)">
    <use xlink:href="#rim"/>
    <path pointer-events="none" fill="none" stroke="white" stroke-width="1.5" d="M0,-3.0v7 M-2.5,-0.5L0,-3.0L2.5,-0.5"/>
  </g>
  <g id="resetDef">
    <use xlink:href="#rim2" fill="#404040"><set attributeName="fill" to="#808080" begin="reset.mouseover" end="reset.mouseout"/></use>
  </g>
</defs>
<script type="application/ecmascript">
var viewWidth = 1355;
var viewHeight = 365;
var sectionId = 'dynsection-17';
</script>
<script type="application/ecmascript" xlink:href="svg.min.js"/>
<svg id="graph" class="graph">
<g id="viewport">
<title>xpath_node_set_raw::truncate</title>
<!-- Node1 -->
<g id="Node000001" class="node">
<title>Node1</title>
<g id="a_Node000001"><a xlink:title=" ">
<polygon fill="#999999" stroke="#666666" points="1347,-54 1241,-54 1241,-22 1347,-22 1347,-54"/>
<text xml:space="preserve" text-anchor="start" x="1249" y="-40.5" font-family="Helvetica,sans-Serif" font-size="10.00">xpath_node_set_raw</text>
<text xml:space="preserve" text-anchor="middle" x="1294" y="-28.5" font-family="Helvetica,sans-Serif" font-size="10.00">::truncate</text>
</a>
</g>
</g>
<!-- Node2 -->
<g id="Node000002" class="node">
<title>Node2</title>
<g id="a_Node000002"><a xlink:href="classxpath__ast__node.html#ab4e5bbd3f2e83c86a43349374b4bfc22" target="_top" xlink:title=" ">
<polygon fill="white" stroke="#666666" points="1205,-130 1090.75,-130 1090.75,-98 1205,-98 1205,-130"/>
<text xml:space="preserve" text-anchor="start" x="1098.75" y="-116.5" font-family="Helvetica,sans-Serif" font-size="10.00">xpath_ast_node::apply</text>
<text xml:space="preserve" text-anchor="middle" x="1147.88" y="-104.5" font-family="Helvetica,sans-Serif" font-size="10.00">_predicate_boolean</text>
</a>
</g>
</g>
<!-- Node1&#45;&gt;Node2 -->
<g id="edge1_Node000001_Node000002" class="edge">
<title>Node1&#45;&gt;Node2</title>
<g id="a_edge1_Node000001_Node000002"><a xlink:title=" ">
<path fill="none" stroke="#63b8ff" d="M1251.65,-59.8C1228.87,-71.82 1201.04,-86.49 1180.09,-97.54"/>
<polygon fill="#63b8ff" stroke="#63b8ff" points="1253.18,-62.96 1260.39,-55.2 1249.91,-56.77 1253.18,-62.96"/>
</a>
</g>
</g>
<!-- Node8 -->
<g id="Node000008" class="node">
<title>Node8</title>
<g id="a_Node000008"><a xlink:href="classxpath__ast__node.html#abf2d4b745493f63aebc1c89d9fde8eed" target="_top" xlink:title=" ">
<polygon fill="white" stroke="#666666" points="129.25,-136 15,-136 15,-104 129.25,-104 129.25,-136"/>
<text xml:space="preserve" text-anchor="start" x="23" y="-122.5" font-family="Helvetica,sans-Serif" font-size="10.00">xpath_ast_node::apply</text>
<text xml:space="preserve" text-anchor="middle" x="72.12" y="-110.5" font-family="Helvetica,sans-Serif" font-size="10.00">_predicate_number</text>
</a>
</g>
</g>
<!-- Node1&#45;&gt;Node8 -->
<g id="edge25_Node000001_Node000008" class="edge">
<title>Node1&#45;&gt;Node8</title>
<g id="a_edge25_Node000001_Node000008"><a xlink:title=" ">
<path fill="none" stroke="#63b8ff" d="M1229.13,-38C1169.51,-38 1078.04,-38 998.62,-38 998.62,-38 998.62,-38 378.75,-38 328.69,-38 195.01,-79.56 122.14,-103.5"/>
<polygon fill="#63b8ff" stroke="#63b8ff" points="1229.11,-41.5 1239.11,-38 1229.11,-34.5 1229.11,-41.5"/>
</a>
</g>
</g>
<!-- Node9 -->
<g id="Node000009" class="node">
<title>Node9</title>
<g id="a_Node000009"><a xlink:href="classxpath__ast__node.html#a8cedd7e15623b9fa431788b8843f1463" target="_top" xlink:title=" ">
<polygon fill="white" stroke="#666666" points="136,-86 8.25,-86 8.25,-54 136,-54 136,-86"/>
<text xml:space="preserve" text-anchor="start" x="16.25" y="-72.5" font-family="Helvetica,sans-Serif" font-size="10.00">xpath_ast_node::apply</text>
<text xml:space="preserve" text-anchor="middle" x="72.12" y="-60.5" font-family="Helvetica,sans-Serif" font-size="10.00">_predicate_number_const</text>
</a>
</g>
</g>
<!-- Node1&#45;&gt;Node9 -->
<g id="edge26_Node000001_Node000009" class="edge">
<title>Node1&#45;&gt;Node9</title>
<g id="a_edge26_Node000001_Node000009"><a xlink:title=" ">
<path fill="none" stroke="#63b8ff" d="M1229.54,-25.02C1170.13,-14.02 1078.74,0 998.62,0 998.62,0 998.62,0 378.75,0 289.89,0 266.06,-0.9 180.25,-24 153.86,-31.1 125.52,-43.51 104.61,-53.65"/>
<polygon fill="#63b8ff" stroke="#63b8ff" points="1228.66,-28.42 1239.13,-26.83 1229.95,-21.54 1228.66,-28.42"/>
</a>
</g>
</g>
<!-- Node3 -->
<g id="Node000003" class="node">
<title>Node3</title>
<g id="a_Node000003"><a xlink:href="classxpath__ast__node.html#a7e35f265c9e0712a16e1d8a9db4c7672" target="_top" xlink:title=" ">
<polygon fill="white" stroke="#666666" points="1054.75,-130 940.5,-130 940.5,-98 1054.75,-98 1054.75,-130"/>
<text xml:space="preserve" text-anchor="start" x="948.5" y="-116.5" font-family="Helvetica,sans-Serif" font-size="10.00">xpath_ast_node::apply</text>
<text xml:space="preserve" text-anchor="middle" x="997.62" y="-104.5" font-family="Helvetica,sans-Serif" font-size="10.00">_predicate</text>
</a>
</g>
</g>
<!-- Node2&#45;&gt;Node3 -->
<g id="edge2_Node000002_Node000003" class="edge">
<title>Node2&#45;&gt;Node3</title>
<g id="a_edge2_Node000002_Node000003"><a xlink:title=" ">
<path fill="none" stroke="#63b8ff" d="M1079.09,-114C1071.01,-114 1062.83,-114 1054.94,-114"/>
<polygon fill="#63b8ff" stroke="#63b8ff" points="1078.89,-117.5 1088.89,-114 1078.89,-110.5 1078.89,-117.5"/>
</a>
</g>
</g>
<!-- Node4 -->
<g id="Node000004" class="node">
<title>Node4</title>
<g id="a_Node000004"><a xlink:href="classxpath__ast__node.html#a68cace396dd4eeae67ecfcd34a3a8285" target="_top" xlink:title=" ">
<polygon fill="white" stroke="#666666" points="904.5,-246 795.5,-246 795.5,-214 904.5,-214 904.5,-246"/>
<text xml:space="preserve" text-anchor="start" x="803.5" y="-232.5" font-family="Helvetica,sans-Serif" font-size="10.00">xpath_ast_node::eval</text>
<text xml:space="preserve" text-anchor="middle" x="850" y="-220.5" font-family="Helvetica,sans-Serif" font-size="10.00">_node_set</text>
</a>
</g>
</g>
<!-- Node3&#45;&gt;Node4 -->
<g id="edge3_Node000003_Node000004" class="edge">
<title>Node3&#45;&gt;Node4</title>
<g id="a_edge3_Node000003_Node000004"><a xlink:title=" ">
<path fill="none" stroke="#63b8ff" d="M967.37,-137.31C938.92,-159.97 896.45,-193.8 871.45,-213.71"/>
<polygon fill="#63b8ff" stroke="#63b8ff" points="969.24,-140.29 974.89,-131.32 964.88,-134.81 969.24,-140.29"/>
</a>
</g>
</g>
<!-- Node5 -->
<g id="Node000005" class="node">
<title>Node5</title>
<g id="a_Node000005"><a xlink:href="classxpath__ast__node.html#a98dd7f6e67fe2c56c63056eed835d6a4" target="_top" xlink:title=" ">
<polygon fill="white" stroke="#666666" points="759.5,-240 615.25,-240 615.25,-220 759.5,-220 759.5,-240"/>
<text xml:space="preserve" text-anchor="middle" x="687.38" y="-226.5" font-family="Helvetica,sans-Serif" font-size="10.00">xpath_ast_node::compare_eq</text>
</a>
</g>
</g>
<!-- Node4&#45;&gt;Node5 -->
<g id="edge4_Node000004_Node000005" class="edge">
<title>Node4&#45;&gt;Node5</title>
<g id="a_edge4_Node000004_Node000005"><a xlink:title=" ">
<path fill="none" stroke="#63b8ff" d="M783.73,-230C775.86,-230 767.8,-230 759.85,-230"/>
<polygon fill="#63b8ff" stroke="#63b8ff" points="783.55,-233.5 793.55,-230 783.55,-226.5 783.55,-233.5"/>
</a>
</g>
</g>
<!-- Node6 -->
<g id="Node000006" class="node">
<title>Node6</title>
<g id="a_Node000006"><a xlink:href="classxpath__ast__node.html#ab7f965a92023bc2704b8e6fd9f3d7c14" target="_top" xlink:title=" ">
<polygon fill="white" stroke="#666666" points="579.25,-288 470.25,-288 470.25,-256 579.25,-256 579.25,-288"/>
<text xml:space="preserve" text-anchor="start" x="478.25" y="-274.5" font-family="Helvetica,sans-Serif" font-size="10.00">xpath_ast_node::eval</text>
<text xml:space="preserve" text-anchor="middle" x="524.75" y="-262.5" font-family="Helvetica,sans-Serif" font-size="10.00">_boolean</text>
</a>
</g>
</g>
<!-- Node4&#45;&gt;Node6 -->
<g id="edge23_Node000004_Node000006" class="edge">
<title>Node4&#45;&gt;Node6</title>
<g id="a_edge23_Node000004_Node000006"><a xlink:title=" ">
<path fill="none" stroke="#63b8ff" d="M784.08,-244.67C775.83,-246.27 767.49,-247.76 759.5,-249 698.05,-258.52 626.86,-264.86 579.34,-268.43"/>
<polygon fill="#63b8ff" stroke="#63b8ff" points="784.63,-248.13 793.74,-242.73 783.25,-241.26 784.63,-248.13"/>
</a>
</g>
</g>
<!-- Node10 -->
<g id="Node000010" class="node">
<title>Node10</title>
<g id="a_Node000010"><a xlink:href="classxpath__ast__node.html#abb6e4c529276eaf882233dbb6e04e111" target="_top" xlink:title=" ">
<polygon fill="white" stroke="#666666" points="144.25,-329 0,-329 0,-309 144.25,-309 144.25,-329"/>
<text xml:space="preserve" text-anchor="middle" x="72.12" y="-315.5" font-family="Helvetica,sans-Serif" font-size="10.00">xpath_ast_node::compare_rel</text>
</a>
</g>
</g>
<!-- Node4&#45;&gt;Node10 -->
<g id="edge22_Node000004_Node000010" class="edge">
<title>Node4&#45;&gt;Node10</title>
<g id="a_edge22_Node000004_Node000010"><a xlink:title=" ">
<path fill="none" stroke="#63b8ff" d="M816.02,-252.55C759.34,-289.05 638.66,-357 525.75,-357 525.75,-357 525.75,-357 378.75,-357 289.19,-357 185.99,-340.73 125.34,-329.48"/>
<polygon fill="#63b8ff" stroke="#63b8ff" points="817.8,-255.57 824.25,-247.17 813.96,-249.71 817.8,-255.57"/>
</a>
</g>
</g>
<!-- Node11 -->
<g id="Node000011" class="node">
<title>Node11</title>
<g id="a_Node000011"><a xlink:href="classxpath__ast__node.html#a6b675237a590548b68d0e0b97518b6df" target="_top" xlink:title=" ">
<polygon fill="white" stroke="#666666" points="434.25,-235 325.25,-235 325.25,-203 434.25,-203 434.25,-235"/>
<text xml:space="preserve" text-anchor="start" x="333.25" y="-221.5" font-family="Helvetica,sans-Serif" font-size="10.00">xpath_ast_node::eval</text>
<text xml:space="preserve" text-anchor="middle" x="379.75" y="-209.5" font-family="Helvetica,sans-Serif" font-size="10.00">_string</text>
</a>
</g>
</g>
<!-- Node4&#45;&gt;Node11 -->
<g id="edge24_Node000004_Node000011" class="edge">
<title>Node4&#45;&gt;Node11</title>
<g id="a_edge24_Node000004_Node000011"><a xlink:title=" ">
<path fill="none" stroke="#63b8ff" d="M784.18,-214.58C775.91,-213.1 767.54,-211.84 759.5,-211 644.21,-198.9 508.14,-207.25 434.55,-213.63"/>
<polygon fill="#63b8ff" stroke="#63b8ff" points="783.37,-217.99 793.85,-216.42 784.68,-211.11 783.37,-217.99"/>
</a>
</g>
</g>
<!-- Node5&#45;&gt;Node6 -->
<g id="edge5_Node000005_Node000006" class="edge">
<title>Node5&#45;&gt;Node6</title>
<g id="a_edge5_Node000005_Node000006"><a xlink:title=" ">
<path fill="none" stroke="#63b8ff" d="M609.95,-243.24C594.63,-247.19 579.12,-251.52 565.66,-255.64"/>
<polygon fill="#63b8ff" stroke="#63b8ff" points="610.74,-246.65 619.58,-240.81 609.02,-239.86 610.74,-246.65"/>
</a>
</g>
</g>
<!-- Node6&#45;&gt;Node2 -->
<g id="edge6_Node000006_Node000002" class="edge">
<title>Node6&#45;&gt;Node2</title>
<g id="a_edge6_Node000006_Node000002"><a xlink:title=" ">
<path fill="none" stroke="#63b8ff" d="M590.87,-279.53C667.89,-286.08 798.96,-289.79 904.5,-255 993.5,-225.66 1085.7,-160.72 1125.96,-130.31"/>
<polygon fill="#63b8ff" stroke="#63b8ff" points="591.23,-276.05 580.96,-278.64 590.6,-283.02 591.23,-276.05"/>
</a>
</g>
</g>
<!-- Node6&#45;&gt;Node5 -->
<g id="edge7_Node000006_Node000005" class="edge">
<title>Node6&#45;&gt;Node5</title>
<g id="a_edge7_Node000006_Node000005"><a xlink:title=" ">
<path fill="none" stroke="#63b8ff" d="M590.61,-261.68C616.99,-255.17 645.68,-247.05 664.71,-240.45"/>
<polygon fill="#63b8ff" stroke="#63b8ff" points="589.85,-258.26 580.95,-264.01 591.49,-265.07 589.85,-258.26"/>
</a>
</g>
</g>
<!-- Node7 -->
<g id="Node000007" class="node">
<title>Node7</title>
<g id="a_Node000007"><a xlink:href="classxpath__ast__node.html#a92dd7048e28d486bc7f382d1fc6f1de6" target="_top" xlink:title=" ">
<polygon fill="white" stroke="#666666" points="289.25,-235 180.25,-235 180.25,-203 289.25,-203 289.25,-235"/>
<text xml:space="preserve" text-anchor="start" x="188.25" y="-221.5" font-family="Helvetica,sans-Serif" font-size="10.00">xpath_ast_node::eval</text>
<text xml:space="preserve" text-anchor="middle" x="234.75" y="-209.5" font-family="Helvetica,sans-Serif" font-size="10.00">_number</text>
</a>
</g>
</g>
<!-- Node6&#45;&gt;Node7 -->
<g id="edge8_Node000006_Node000007" class="edge">
<title>Node6&#45;&gt;Node7</title>
<g id="a_edge8_Node000006_Node000007"><a xlink:title=" ">
<path fill="none" stroke="#63b8ff" d="M458.74,-257.2C419.8,-251.31 369.43,-244.24 325.25,-235 313.56,-232.56 301.16,-229.43 289.42,-226.45"/>
<polygon fill="#63b8ff" stroke="#63b8ff" points="458.01,-260.63 468.42,-258.68 459.07,-253.71 458.01,-260.63"/>
</a>
</g>
</g>
<!-- Node6&#45;&gt;Node11 -->
<g id="edge21_Node000006_Node000011" class="edge">
<title>Node6&#45;&gt;Node11</title>
<g id="a_edge21_Node000006_Node000011"><a xlink:title=" ">
<path fill="none" stroke="#63b8ff" d="M484.28,-251.26C468.92,-244.91 451.07,-238.15 434.57,-232.38"/>
<polygon fill="#63b8ff" stroke="#63b8ff" points="482.5,-254.31 493.07,-254.99 485.23,-247.86 482.5,-254.31"/>
</a>
</g>
</g>
<!-- Node7&#45;&gt;Node5 -->
<g id="edge13_Node000007_Node000005" class="edge">
<title>Node7&#45;&gt;Node5</title>
<g id="a_edge13_Node000007_Node000005"><a xlink:title=" ">
<path fill="none" stroke="#63b8ff" d="M296.46,-199.66C306,-197.31 315.83,-195.29 325.25,-194 440.58,-178.2 577.53,-203.95 644.83,-219.51"/>
<polygon fill="#63b8ff" stroke="#63b8ff" points="295.68,-196.25 286.88,-202.16 297.44,-203.02 295.68,-196.25"/>
</a>
</g>
</g>
<!-- Node7&#45;&gt;Node6 -->
<g id="edge16_Node000007_Node000006" class="edge">
<title>Node7&#45;&gt;Node6</title>
<g id="a_edge16_Node000007_Node000006"><a xlink:title=" ">
<path fill="none" stroke="#63b8ff" d="M273.78,-239.14C289.58,-244.42 308.19,-249.43 325.25,-253 373.79,-263.16 429.8,-270.68 469.92,-273.81"/>
<polygon fill="#63b8ff" stroke="#63b8ff" points="275.36,-235.99 264.76,-235.97 273.03,-242.59 275.36,-235.99"/>
</a>
</g>
</g>
<!-- Node7&#45;&gt;Node8 -->
<g id="edge9_Node000007_Node000008" class="edge">
<title>Node7&#45;&gt;Node8</title>
<g id="a_edge9_Node000007_Node000008"><a xlink:title=" ">
<path fill="none" stroke="#63b8ff" d="M197.63,-196.74C167.9,-178.42 126.44,-152.86 99.69,-136.37"/>
<polygon fill="#63b8ff" stroke="#63b8ff" points="195.59,-199.59 205.94,-201.86 199.26,-193.63 195.59,-199.59"/>
</a>
</g>
</g>
<!-- Node7&#45;&gt;Node9 -->
<g id="edge11_Node000007_Node000009" class="edge">
<title>Node7&#45;&gt;Node9</title>
<g id="a_edge11_Node000007_Node000009"><a xlink:title=" ">
<path fill="none" stroke="#63b8ff" d="M220.95,-192.67C206.12,-164.73 179.17,-121.1 144.25,-95 139.95,-91.79 135.21,-88.96 130.27,-86.48"/>
<polygon fill="#63b8ff" stroke="#63b8ff" points="217.83,-194.25 225.51,-201.54 224.05,-191.05 217.83,-194.25"/>
</a>
</g>
</g>
<!-- Node7&#45;&gt;Node10 -->
<g id="edge14_Node000007_Node000010" class="edge">
<title>Node7&#45;&gt;Node10</title>
<g id="a_edge14_Node000007_Node000010"><a xlink:title=" ">
<path fill="none" stroke="#63b8ff" d="M198.1,-241.19C164.43,-262.16 115.4,-292.68 89.92,-308.55"/>
<polygon fill="#63b8ff" stroke="#63b8ff" points="199.66,-244.35 206.3,-236.09 195.96,-238.4 199.66,-244.35"/>
</a>
</g>
</g>
<!-- Node7&#45;&gt;Node11 -->
<g id="edge17_Node000007_Node000011" class="edge">
<title>Node7&#45;&gt;Node11</title>
<g id="a_edge17_Node000007_Node000011"><a xlink:title=" ">
<path fill="none" stroke="#63b8ff" d="M300.99,-225.73C309.06,-225.79 317.23,-225.73 325.1,-225.56"/>
<polygon fill="#63b8ff" stroke="#63b8ff" points="301.27,-222.23 291.22,-225.59 301.17,-229.23 301.27,-222.23"/>
</a>
</g>
</g>
<!-- Node8&#45;&gt;Node3 -->
<g id="edge10_Node000008_Node000003" class="edge">
<title>Node8&#45;&gt;Node3</title>
<g id="a_edge10_Node000008_Node000003"><a xlink:title=" ">
<path fill="none" stroke="#63b8ff" d="M140.91,-117.91C202.83,-116.18 296.94,-114 378.75,-114 688.38,-114 688.38,-114 688.38,-114 776.27,-114 878.27,-114 940.09,-114"/>
<polygon fill="#63b8ff" stroke="#63b8ff" points="141.14,-114.4 131.24,-118.18 141.34,-121.4 141.14,-114.4"/>
</a>
</g>
</g>
<!-- Node9&#45;&gt;Node3 -->
<g id="edge12_Node000009_Node000003" class="edge">
<title>Node9&#45;&gt;Node3</title>
<g id="a_edge12_Node000009_Node000003"><a xlink:title=" ">
<path fill="none" stroke="#63b8ff" d="M147.55,-72.28C209.43,-73.97 299.81,-76 378.75,-76 688.38,-76 688.38,-76 688.38,-76 776.81,-76 878.44,-91.6 940.07,-102.8"/>
<polygon fill="#63b8ff" stroke="#63b8ff" points="147.94,-68.79 137.85,-72.01 147.75,-75.78 147.94,-68.79"/>
</a>
</g>
</g>
<!-- Node10&#45;&gt;Node6 -->
<g id="edge15_Node000010_Node000006" class="edge">
<title>Node10&#45;&gt;Node6</title>
<g id="a_edge15_Node000010_Node000006"><a xlink:title=" ">
<path fill="none" stroke="#63b8ff" d="M155.96,-310.36C247.42,-300.82 391.99,-285.74 469.84,-277.62"/>
<polygon fill="#63b8ff" stroke="#63b8ff" points="155.61,-306.88 146.03,-311.4 156.34,-313.84 155.61,-306.88"/>
</a>
</g>
</g>
<!-- Node11&#45;&gt;Node5 -->
<g id="edge18_Node000011_Node000005" class="edge">
<title>Node11&#45;&gt;Node5</title>
<g id="a_edge18_Node000011_Node000005"><a xlink:title=" ">
<path fill="none" stroke="#63b8ff" d="M445.67,-221.34C495.38,-223.13 563.89,-225.59 615.11,-227.43"/>
<polygon fill="#63b8ff" stroke="#63b8ff" points="446.05,-217.85 435.93,-220.99 445.8,-224.84 446.05,-217.85"/>
</a>
</g>
</g>
<!-- Node11&#45;&gt;Node6 -->
<g id="edge19_Node000011_Node000006" class="edge">
<title>Node11&#45;&gt;Node6</title>
<g id="a_edge19_Node000011_Node000006"><a xlink:title=" ">
<path fill="none" stroke="#63b8ff" d="M420.41,-239.81C435.77,-246.16 453.61,-252.92 470.1,-258.67"/>
<polygon fill="#63b8ff" stroke="#63b8ff" points="422.17,-236.76 411.6,-236.09 419.45,-243.21 422.17,-236.76"/>
</a>
</g>
</g>
<!-- Node11&#45;&gt;Node7 -->
<g id="edge20_Node000011_Node000007" class="edge">
<title>Node11&#45;&gt;Node7</title>
<g id="a_edge20_Node000011_Node000007"><a xlink:title=" ">
<path fill="none" stroke="#63b8ff" d="M313.81,-212.28C305.75,-212.21 297.58,-212.27 289.71,-212.43"/>
<polygon fill="#63b8ff" stroke="#63b8ff" points="313.53,-215.77 323.58,-212.42 313.63,-208.77 313.53,-215.77"/>
</a>
</g>
</g>
</g>
</svg>

<g id="navigator" transform="translate(0 0)" fill="#404254">
  <rect fill="#f2f5e9" fill-opacity="0.5" stroke="#606060" stroke-width=".5" x="0" y="0" width="60" height="60"/>
  <use id="zoomplus" xlink:href="#zoomPlus" x="17" y="9" onmousedown="handleZoom(evt,'in')"/>
  <use id="zoomminus" xlink:href="#zoomMin" x="42" y="9" onmousedown="handleZoom(evt,'out')"/>
  <use id="reset" xlink:href="#resetDef" x="30" y="36" onmousedown="handleReset()"/>
   <use id="arrowup" xlink:href="#arrowUp" x="0" y="0" onmousedown="handlePan(0,-1)"/>
  <use id="arrowright" xlink:href="#arrowRight" x="0" y="0" onmousedown="handlePan(1,0)"/>
  <use id="arrowdown" xlink:href="#arrowDown" x="0" y="0" onmousedown="handlePan(0,1)"/>
  <use id="arrowleft" xlink:href="#arrowLeft" x="0" y="0" onmousedown="handlePan(-1,0)"/>
</g>
<svg viewBox="0 0 15 15" width="100%" height="30px" preserveAspectRatio="xMaxYMin meet">
 <g id="arrow_out" transform="scale(0.3 0.3)">
  <a xlink:href="classxpath__node__set__raw_aba48d228f554065702f3e6d5059f701d_icgraph_org.svg" target="_base">
   <rect id="button" ry="5" rx="5" y="6" x="6" height="38" width="38"
        fill="#f2f5e9" fill-opacity="0.5" stroke="#606060" stroke-width="1.0"/>
   <path id="arrow"
     d="M 11.500037,31.436501 C 11.940474,20.09759 22.043105,11.32322 32.158766,21.979434 L 37.068811,17.246167 C 37.068811,17.246167 37.088388,32 37.088388,32 L 22.160133,31.978069 C 22.160133,31.978069 26.997745,27.140456 26.997745,27.140456 C 18.528582,18.264221 13.291696,25.230495 11.500037,31.436501 z"
     style="fill:#404040;"/>
  </a>
 </g>
</svg>

<style type='text/css'>
<![CDATA[
[data-mouse-over-selected='false'] { opacity: 0.7; }
[data-mouse-over-selected='true']  { opacity: 1.0; }
]]>
</style>
<script type="application/ecmascript"><![CDATA[
document.addEventListener('DOMContentLoaded', (event) => {
  highlightEdges();
  highlightAdjacentNodes();
});
]]></script>
</svg>
