<?xml version="1.0" encoding="UTF-8" standalone="no"?>
<!DOCTYPE svg PUBLIC "-//W3C//DTD SVG 1.1//EN"
 "http://www.w3.org/Graphics/SVG/1.1/DTD/svg11.dtd">
<!-- Generated by graphviz version 14.1.2 (20260124.0452)
 -->
<!-- Title: Gráfico de jerarquía de clases Pages: 1 -->
<svg width="249pt" height="66pt"
 viewBox="0.00 0.00 249.00 66.00" xmlns="http://www.w3.org/2000/svg" xmlns:xlink="http://www.w3.org/1999/xlink">
<g id="graph0" class="graph" transform="scale(1 1) rotate(0) translate(4 62)">
<title>Gráfico de jerarquía de clases</title>
<!-- Node0 -->
<g id="Node000000" class="node">
<title>Node0</title>
<g id="a_Node000000"><a xlink:href="classpugi_1_1xml__writer.html" target="_top" xlink:title=" ">
<polygon fill="white" stroke="#666666" points="85,-39 0,-39 0,-19 85,-19 85,-39"/>
<text xml:space="preserve" text-anchor="middle" x="42.5" y="-25.5" font-family="Helvetica,sans-Serif" font-size="10.00">pugi::xml_writer</text>
</a>
</g>
</g>
<!-- Node1 -->
<g id="Node000001" class="node">
<title>Node1</title>
<g id="a_Node000001"><a xlink:href="classpugi_1_1xml__writer__file.html" target="_top" xlink:title=" ">
<polygon fill="white" stroke="#666666" points="232.62,-58 129.62,-58 129.62,-38 232.62,-38 232.62,-58"/>
<text xml:space="preserve" text-anchor="middle" x="181.12" y="-44.5" font-family="Helvetica,sans-Serif" font-size="10.00">pugi::xml_writer_file</text>
</a>
</g>
</g>
<!-- Node0&#45;&gt;Node1 -->
<g id="edge5_Node000000_Node000001" class="edge">
<title>Node0&#45;&gt;Node1</title>
<g id="a_edge5_Node000000_Node000001"><a xlink:title=" ">
<path fill="none" stroke="#63b8ff" d="M96.34,-36.35C107.23,-37.86 118.68,-39.46 129.5,-40.96"/>
<polygon fill="#63b8ff" stroke="#63b8ff" points="97.12,-32.92 86.73,-35.01 96.16,-39.86 97.12,-32.92"/>
</a>
</g>
</g>
<!-- Node2 -->
<g id="Node000002" class="node">
<title>Node2</title>
<g id="a_Node000002"><a xlink:href="classpugi_1_1xml__writer__stream.html" target="_top" xlink:title=" ">
<polygon fill="white" stroke="#666666" points="241.25,-20 121,-20 121,0 241.25,0 241.25,-20"/>
<text xml:space="preserve" text-anchor="middle" x="181.12" y="-6.5" font-family="Helvetica,sans-Serif" font-size="10.00">pugi::xml_writer_stream</text>
</a>
</g>
</g>
<!-- Node0&#45;&gt;Node2 -->
<g id="edge6_Node000000_Node000002" class="edge">
<title>Node0&#45;&gt;Node2</title>
<g id="a_edge6_Node000000_Node000002"><a xlink:title=" ">
<path fill="none" stroke="#63b8ff" d="M96.51,-21.63C104.39,-20.53 112.54,-19.4 120.54,-18.29"/>
<polygon fill="#63b8ff" stroke="#63b8ff" points="96.16,-18.14 86.73,-22.99 97.12,-25.08 96.16,-18.14"/>
</a>
</g>
</g>
</g>
</svg>
