<?xml version="1.0" encoding="UTF-8" standalone="no"?>
<!DOCTYPE svg PUBLIC "-//W3C//DTD SVG 1.1//EN"
 "http://www.w3.org/Graphics/SVG/1.1/DTD/svg11.dtd">
<!-- Generated by graphviz version 14.1.2 (20260124.0452)
 -->
<!-- Title: Gráfico de jerarquía de clases Pages: 1 -->
<svg width="247pt" height="142pt"
 viewBox="0.00 0.00 247.00 142.00" xmlns="http://www.w3.org/2000/svg" xmlns:xlink="http://www.w3.org/1999/xlink">
<g id="graph0" class="graph" transform="scale(1 1) rotate(0) translate(4 138)">
<title>Gráfico de jerarquía de clases</title>
<!-- Node0 -->
<g id="Node000000" class="node">
<title>Node0</title>
<g id="a_Node000000"><a xlink:title=" ">
<polygon fill="#e0e0e0" stroke="#999999" points="79,-77 0,-77 0,-57 79,-57 79,-77"/>
<text xml:space="preserve" text-anchor="middle" x="39.5" y="-63.5" font-family="Helvetica,sans-Serif" font-size="10.00">xpath_variable</text>
</a>
</g>
</g>
<!-- Node1 -->
<g id="Node000001" class="node">
<title>Node1</title>
<g id="a_Node000001"><a xlink:href="structxpath__variable__boolean.html" target="_top" xlink:title=" ">
<polygon fill="white" stroke="#666666" points="236,-134 118,-134 118,-114 236,-114 236,-134"/>
<text xml:space="preserve" text-anchor="middle" x="177" y="-120.5" font-family="Helvetica,sans-Serif" font-size="10.00">xpath_variable_boolean</text>
</a>
</g>
</g>
<!-- Node0&#45;&gt;Node1 -->
<g id="edge10_Node000000_Node000001" class="edge">
<title>Node0&#45;&gt;Node1</title>
<g id="a_edge10_Node000000_Node000001"><a xlink:title=" ">
<path fill="none" stroke="#63b8ff" d="M68.58,-82.75C82.31,-90.08 99.25,-98.58 115,-105 122.6,-108.1 130.91,-110.99 138.87,-113.54"/>
<polygon fill="#63b8ff" stroke="#63b8ff" points="70.55,-79.84 60.1,-78.14 67.21,-85.99 70.55,-79.84"/>
</a>
</g>
</g>
<!-- Node2 -->
<g id="Node000002" class="node">
<title>Node2</title>
<g id="a_Node000002"><a xlink:href="structxpath__variable__node__set.html" target="_top" xlink:title=" ">
<polygon fill="white" stroke="#666666" points="239,-96 115,-96 115,-76 239,-76 239,-96"/>
<text xml:space="preserve" text-anchor="middle" x="177" y="-82.5" font-family="Helvetica,sans-Serif" font-size="10.00">xpath_variable_node_set</text>
</a>
</g>
</g>
<!-- Node0&#45;&gt;Node2 -->
<g id="edge11_Node000000_Node000002" class="edge">
<title>Node0&#45;&gt;Node2</title>
<g id="a_edge11_Node000000_Node000002"><a xlink:title=" ">
<path fill="none" stroke="#63b8ff" d="M90.54,-74.02C98.39,-75.12 106.58,-76.27 114.65,-77.4"/>
<polygon fill="#63b8ff" stroke="#63b8ff" points="91.22,-70.58 80.83,-72.65 90.24,-77.51 91.22,-70.58"/>
</a>
</g>
</g>
<!-- Node3 -->
<g id="Node000003" class="node">
<title>Node3</title>
<g id="a_Node000003"><a xlink:href="structxpath__variable__number.html" target="_top" xlink:title=" ">
<polygon fill="white" stroke="#666666" points="235.25,-58 118.75,-58 118.75,-38 235.25,-38 235.25,-58"/>
<text xml:space="preserve" text-anchor="middle" x="177" y="-44.5" font-family="Helvetica,sans-Serif" font-size="10.00">xpath_variable_number</text>
</a>
</g>
</g>
<!-- Node0&#45;&gt;Node3 -->
<g id="edge12_Node000000_Node000003" class="edge">
<title>Node0&#45;&gt;Node3</title>
<g id="a_edge12_Node000000_Node000003"><a xlink:title=" ">
<path fill="none" stroke="#63b8ff" d="M90.55,-59.98C99.64,-58.71 109.19,-57.37 118.48,-56.07"/>
<polygon fill="#63b8ff" stroke="#63b8ff" points="90.24,-56.49 80.83,-61.35 91.22,-63.42 90.24,-56.49"/>
</a>
</g>
</g>
<!-- Node4 -->
<g id="Node000004" class="node">
<title>Node4</title>
<g id="a_Node000004"><a xlink:href="structxpath__variable__string.html" target="_top" xlink:title=" ">
<polygon fill="white" stroke="#666666" points="231.12,-20 122.88,-20 122.88,0 231.12,0 231.12,-20"/>
<text xml:space="preserve" text-anchor="middle" x="177" y="-6.5" font-family="Helvetica,sans-Serif" font-size="10.00">xpath_variable_string</text>
</a>
</g>
</g>
<!-- Node0&#45;&gt;Node4 -->
<g id="edge13_Node000000_Node000004" class="edge">
<title>Node0&#45;&gt;Node4</title>
<g id="a_edge13_Node000000_Node000004"><a xlink:title=" ">
<path fill="none" stroke="#63b8ff" d="M68.58,-51.25C82.31,-43.92 99.25,-35.42 115,-29 122.6,-25.9 130.91,-23.01 138.87,-20.46"/>
<polygon fill="#63b8ff" stroke="#63b8ff" points="67.21,-48.01 60.1,-55.86 70.55,-54.16 67.21,-48.01"/>
</a>
</g>
</g>
</g>
</svg>
