<?xml version="1.0" encoding="UTF-8" standalone="no"?>
<!DOCTYPE svg PUBLIC "-//W3C//DTD SVG 1.1//EN"
 "http://www.w3.org/Graphics/SVG/1.1/DTD/svg11.dtd">
<!-- Generated by graphviz version 14.1.2 (20260124.0452)
 -->
<!-- Title: Gráfico de jerarquía de clases Pages: 1 -->
<svg width="242pt" height="66pt"
 viewBox="0.00 0.00 242.00 66.00" xmlns="http://www.w3.org/2000/svg" xmlns:xlink="http://www.w3.org/1999/xlink">
<g id="graph0" class="graph" transform="scale(1 1) rotate(0) translate(4 62)">
<title>Gráfico de jerarquía de clases</title>
<!-- Node0 -->
<g id="Node000000" class="node">
<title>Node0</title>
<g id="a_Node000000"><a xlink:href="structxml__allocator.html" target="_top" xlink:title=" ">
<polygon fill="white" stroke="#666666" points="80.88,-58 7.12,-58 7.12,-38 80.88,-38 80.88,-58"/>
<text xml:space="preserve" text-anchor="middle" x="44" y="-44.5" font-family="Helvetica,sans-Serif" font-size="10.00">xml_allocator</text>
</a>
</g>
</g>
<!-- Node1 -->
<g id="Node000001" class="node">
<title>Node1</title>
<g id="a_Node000001"><a xlink:href="structxml__document__struct.html" target="_top" xlink:title=" ">
<polygon fill="white" stroke="#666666" points="233.75,-39 124,-39 124,-19 233.75,-19 233.75,-39"/>
<text xml:space="preserve" text-anchor="middle" x="178.88" y="-25.5" font-family="Helvetica,sans-Serif" font-size="10.00">xml_document_struct</text>
</a>
</g>
</g>
<!-- Node0&#45;&gt;Node1 -->
<g id="edge8_Node000000_Node000001" class="edge">
<title>Node0&#45;&gt;Node1</title>
<g id="a_edge8_Node000000_Node000001"><a xlink:title=" ">
<path fill="none" stroke="#63b8ff" d="M92.41,-41.22C102.54,-39.77 113.3,-38.23 123.66,-36.75"/>
<polygon fill="#63b8ff" stroke="#63b8ff" points="92.21,-37.71 82.81,-42.59 93.2,-44.64 92.21,-37.71"/>
</a>
</g>
</g>
<!-- Node2 -->
<g id="Node000002" class="node">
<title>Node2</title>
<g id="a_Node000002"><a xlink:title=" ">
<polygon fill="#e0e0e0" stroke="#999999" points="88,-20 0,-20 0,0 88,0 88,-20"/>
<text xml:space="preserve" text-anchor="middle" x="44" y="-6.5" font-family="Helvetica,sans-Serif" font-size="10.00">xml_node_struct</text>
</a>
</g>
</g>
<!-- Node2&#45;&gt;Node1 -->
<g id="edge9_Node000002_Node000001" class="edge">
<title>Node2&#45;&gt;Node1</title>
<g id="a_edge9_Node000002_Node000001"><a xlink:title=" ">
<path fill="none" stroke="#63b8ff" d="M99.33,-17.77C107.4,-18.92 115.72,-20.11 123.78,-21.26"/>
<polygon fill="#63b8ff" stroke="#63b8ff" points="100.03,-14.33 89.64,-16.38 99.04,-21.26 100.03,-14.33"/>
</a>
</g>
</g>
</g>
</svg>
