<?xml version="1.0" encoding="UTF-8" standalone="no"?>
<!DOCTYPE svg PUBLIC "-//W3C//DTD SVG 1.1//EN"
 "http://www.w3.org/Graphics/SVG/1.1/DTD/svg11.dtd">
<!-- Generated by graphviz version 14.1.2 (20260124.0452)
 -->
<!-- Title: set_value_bool Pages: 1 -->
<svg width="1060pt" height="166pt"
 viewBox="0.00 0.00 1060.00 166.00" xmlns="http://www.w3.org/2000/svg" xmlns:xlink="http://www.w3.org/1999/xlink">
<g id="graph0" class="graph" transform="scale(1 1) rotate(0) translate(4 162)">
<title>set_value_bool</title>
<!-- Node1 -->
<g id="Node000001" class="node">
<title>Node1</title>
<g id="a_Node000001"><a xlink:title=" ">
<polygon fill="#999999" stroke="#666666" points="81.25,-80 0,-80 0,-60 81.25,-60 81.25,-80"/>
<text xml:space="preserve" text-anchor="middle" x="40.62" y="-66.5" font-family="Helvetica,sans-Serif" font-size="10.00">set_value_bool</text>
</a>
</g>
</g>
<!-- Node2 -->
<g id="Node000002" class="node">
<title>Node2</title>
<g id="a_Node000002"><a xlink:href="pugixml_8cpp.html#a6acbb945c483e413572aadd55a2c8712" target="_top" xlink:title=" ">
<polygon fill="white" stroke="#666666" points="188.75,-80 117.25,-80 117.25,-60 188.75,-60 188.75,-80"/>
<text xml:space="preserve" text-anchor="middle" x="153" y="-66.5" font-family="Helvetica,sans-Serif" font-size="10.00">strcpy_insitu</text>
</a>
</g>
</g>
<!-- Node1&#45;&gt;Node2 -->
<g id="edge1_Node000001_Node000002" class="edge">
<title>Node1&#45;&gt;Node2</title>
<g id="a_edge1_Node000001_Node000002"><a xlink:title=" ">
<path fill="none" stroke="#63b8ff" d="M81.47,-70C89.27,-70 97.52,-70 105.51,-70"/>
<polygon fill="#63b8ff" stroke="#63b8ff" points="105.45,-73.5 115.45,-70 105.45,-66.5 105.45,-73.5"/>
</a>
</g>
</g>
<!-- Node3 -->
<g id="Node000003" class="node">
<title>Node3</title>
<g id="a_Node000003"><a xlink:href="structxml__allocator.html#a19732d75c0ba4b799d32a285fcb58027" target="_top" xlink:title=" ">
<polygon fill="white" stroke="#666666" points="343.5,-158 230,-158 230,-126 343.5,-126 343.5,-158"/>
<text xml:space="preserve" text-anchor="start" x="238" y="-144.5" font-family="Helvetica,sans-Serif" font-size="10.00">xml_allocator::allocate</text>
<text xml:space="preserve" text-anchor="middle" x="286.75" y="-132.5" font-family="Helvetica,sans-Serif" font-size="10.00">_string</text>
</a>
</g>
</g>
<!-- Node2&#45;&gt;Node3 -->
<g id="edge2_Node000002_Node000003" class="edge">
<title>Node2&#45;&gt;Node3</title>
<g id="a_edge2_Node000002_Node000003"><a xlink:title=" ">
<path fill="none" stroke="#63b8ff" d="M167.85,-80.4C181.76,-90.54 204.04,-106.01 224.75,-117 227.23,-118.31 229.79,-119.61 232.4,-120.87"/>
<polygon fill="#63b8ff" stroke="#63b8ff" points="230.68,-123.93 241.22,-124.93 233.6,-117.57 230.68,-123.93"/>
</a>
</g>
</g>
<!-- Node8 -->
<g id="Node000008" class="node">
<title>Node8</title>
<g id="a_Node000008"><a xlink:href="structxml__allocator.html#af32c538db4d562c2d0bfe15f7c0aa879" target="_top" xlink:title=" ">
<polygon fill="white" stroke="#666666" points="348.75,-108 224.75,-108 224.75,-76 348.75,-76 348.75,-108"/>
<text xml:space="preserve" text-anchor="start" x="232.75" y="-94.5" font-family="Helvetica,sans-Serif" font-size="10.00">xml_allocator::deallocate</text>
<text xml:space="preserve" text-anchor="middle" x="286.75" y="-82.5" font-family="Helvetica,sans-Serif" font-size="10.00">_string</text>
</a>
</g>
</g>
<!-- Node2&#45;&gt;Node8 -->
<g id="edge7_Node000002_Node000008" class="edge">
<title>Node2&#45;&gt;Node8</title>
<g id="a_edge7_Node000002_Node000008"><a xlink:title=" ">
<path fill="none" stroke="#63b8ff" d="M188.96,-75.84C196.54,-77.1 204.83,-78.49 213.26,-79.9"/>
<polygon fill="#63b8ff" stroke="#63b8ff" points="212.45,-83.31 222.89,-81.5 213.6,-76.4 212.45,-83.31"/>
</a>
</g>
</g>
<!-- Node11 -->
<g id="Node000011" class="node">
<title>Node11</title>
<g id="a_Node000011"><a xlink:href="structxml__allocator.html#ac831a283ec3bcbe22fd3ce3be98ec347" target="_top" xlink:title=" ">
<polygon fill="white" stroke="#666666" points="342.75,-58 230.75,-58 230.75,-38 342.75,-38 342.75,-58"/>
<text xml:space="preserve" text-anchor="middle" x="286.75" y="-44.5" font-family="Helvetica,sans-Serif" font-size="10.00">xml_allocator::reserve</text>
</a>
</g>
</g>
<!-- Node2&#45;&gt;Node11 -->
<g id="edge10_Node000002_Node000011" class="edge">
<title>Node2&#45;&gt;Node11</title>
<g id="a_edge10_Node000002_Node000011"><a xlink:title=" ">
<path fill="none" stroke="#63b8ff" d="M188.96,-64.16C198.31,-62.6 208.73,-60.86 219.18,-59.12"/>
<polygon fill="#63b8ff" stroke="#63b8ff" points="219.7,-62.58 228.98,-57.48 218.54,-55.67 219.7,-62.58"/>
</a>
</g>
</g>
<!-- Node12 -->
<g id="Node000012" class="node">
<title>Node12</title>
<g id="a_Node000012"><a xlink:href="pugixml_8cpp.html#afeaebb026671399f617b36e27fa92234" target="_top" xlink:title=" ">
<polygon fill="white" stroke="#666666" points="336.38,-20 237.12,-20 237.12,0 336.38,0 336.38,-20"/>
<text xml:space="preserve" text-anchor="middle" x="286.75" y="-6.5" font-family="Helvetica,sans-Serif" font-size="10.00">strcpy_insitu_allow</text>
</a>
</g>
</g>
<!-- Node2&#45;&gt;Node12 -->
<g id="edge11_Node000002_Node000012" class="edge">
<title>Node2&#45;&gt;Node12</title>
<g id="a_edge11_Node000002_Node000012"><a xlink:title=" ">
<path fill="none" stroke="#63b8ff" d="M169.48,-59.67C183.47,-50.67 204.86,-37.73 224.75,-29 228.58,-27.32 232.61,-25.72 236.69,-24.22"/>
<polygon fill="#63b8ff" stroke="#63b8ff" points="237.79,-27.54 246.09,-20.96 235.5,-20.93 237.79,-27.54"/>
</a>
</g>
</g>
<!-- Node4 -->
<g id="Node000004" class="node">
<title>Node4</title>
<g id="a_Node000004"><a xlink:href="structxml__allocator.html#a02a8725611785568ceae7a0eea3eca76" target="_top" xlink:title=" ">
<polygon fill="white" stroke="#666666" points="503.5,-158 390,-158 390,-126 503.5,-126 503.5,-158"/>
<text xml:space="preserve" text-anchor="start" x="398" y="-144.5" font-family="Helvetica,sans-Serif" font-size="10.00">xml_allocator::allocate</text>
<text xml:space="preserve" text-anchor="middle" x="446.75" y="-132.5" font-family="Helvetica,sans-Serif" font-size="10.00">_memory</text>
</a>
</g>
</g>
<!-- Node3&#45;&gt;Node4 -->
<g id="edge3_Node000003_Node000004" class="edge">
<title>Node3&#45;&gt;Node4</title>
<g id="a_edge3_Node000003_Node000004"><a xlink:title=" ">
<path fill="none" stroke="#63b8ff" d="M343.9,-142C355.01,-142 366.78,-142 378.22,-142"/>
<polygon fill="#63b8ff" stroke="#63b8ff" points="378,-145.5 388,-142 378,-138.5 378,-145.5"/>
</a>
</g>
</g>
<!-- Node5 -->
<g id="Node000005" class="node">
<title>Node5</title>
<g id="a_Node000005"><a xlink:href="structxml__allocator.html#ae010e1cb3ad4e8f1235ad94ea4c542ee" target="_top" xlink:title=" ">
<polygon fill="white" stroke="#666666" points="676.62,-158 563.12,-158 563.12,-126 676.62,-126 676.62,-158"/>
<text xml:space="preserve" text-anchor="start" x="571.12" y="-144.5" font-family="Helvetica,sans-Serif" font-size="10.00">xml_allocator::allocate</text>
<text xml:space="preserve" text-anchor="middle" x="619.88" y="-132.5" font-family="Helvetica,sans-Serif" font-size="10.00">_memory_oob</text>
</a>
</g>
</g>
<!-- Node4&#45;&gt;Node5 -->
<g id="edge4_Node000004_Node000005" class="edge">
<title>Node4&#45;&gt;Node5</title>
<g id="a_edge4_Node000004_Node000005"><a xlink:title=" ">
<path fill="none" stroke="#63b8ff" d="M503.78,-142C519,-142 535.64,-142 551.41,-142"/>
<polygon fill="#63b8ff" stroke="#63b8ff" points="551.2,-145.5 561.2,-142 551.2,-138.5 551.2,-145.5"/>
</a>
</g>
</g>
<!-- Node6 -->
<g id="Node000006" class="node">
<title>Node6</title>
<g id="a_Node000006"><a xlink:href="structxml__allocator.html#ad07a6aa6876c8c5a5536d409c01d88e5" target="_top" xlink:title=" ">
<polygon fill="white" stroke="#666666" points="870.75,-152 731,-152 731,-132 870.75,-132 870.75,-152"/>
<text xml:space="preserve" text-anchor="middle" x="800.88" y="-138.5" font-family="Helvetica,sans-Serif" font-size="10.00">xml_allocator::allocate_page</text>
</a>
</g>
</g>
<!-- Node5&#45;&gt;Node6 -->
<g id="edge5_Node000005_Node000006" class="edge">
<title>Node5&#45;&gt;Node6</title>
<g id="a_edge5_Node000005_Node000006"><a xlink:title=" ">
<path fill="none" stroke="#63b8ff" d="M677.02,-142C690.45,-142 705.05,-142 719.34,-142"/>
<polygon fill="#63b8ff" stroke="#63b8ff" points="719.19,-145.5 729.19,-142 719.19,-138.5 719.19,-145.5"/>
</a>
</g>
</g>
<!-- Node7 -->
<g id="Node000007" class="node">
<title>Node7</title>
<g id="a_Node000007"><a xlink:href="structxml__memory__page.html#a071bb9cc9aeccef1655c1336b16472a5" target="_top" xlink:title=" ">
<polygon fill="white" stroke="#666666" points="1051.75,-152 906.75,-152 906.75,-132 1051.75,-132 1051.75,-152"/>
<text xml:space="preserve" text-anchor="middle" x="979.25" y="-138.5" font-family="Helvetica,sans-Serif" font-size="10.00">xml_memory_page::construct</text>
</a>
</g>
</g>
<!-- Node6&#45;&gt;Node7 -->
<g id="edge6_Node000006_Node000007" class="edge">
<title>Node6&#45;&gt;Node7</title>
<g id="a_edge6_Node000006_Node000007"><a xlink:title=" ">
<path fill="none" stroke="#63b8ff" d="M871.08,-142C878.95,-142 887.03,-142 895.06,-142"/>
<polygon fill="#63b8ff" stroke="#63b8ff" points="894.83,-145.5 904.83,-142 894.83,-138.5 894.83,-145.5"/>
</a>
</g>
</g>
<!-- Node9 -->
<g id="Node000009" class="node">
<title>Node9</title>
<g id="a_Node000009"><a xlink:href="structxml__allocator.html#a5df417155487cce4e0460b123ac33dc6" target="_top" xlink:title=" ">
<polygon fill="white" stroke="#666666" points="508.75,-108 384.75,-108 384.75,-76 508.75,-76 508.75,-108"/>
<text xml:space="preserve" text-anchor="start" x="392.75" y="-94.5" font-family="Helvetica,sans-Serif" font-size="10.00">xml_allocator::deallocate</text>
<text xml:space="preserve" text-anchor="middle" x="446.75" y="-82.5" font-family="Helvetica,sans-Serif" font-size="10.00">_memory</text>
</a>
</g>
</g>
<!-- Node8&#45;&gt;Node9 -->
<g id="edge8_Node000008_Node000009" class="edge">
<title>Node8&#45;&gt;Node9</title>
<g id="a_edge8_Node000008_Node000009"><a xlink:title=" ">
<path fill="none" stroke="#63b8ff" d="M348.84,-92C356.75,-92 364.91,-92 372.98,-92"/>
<polygon fill="#63b8ff" stroke="#63b8ff" points="372.79,-95.5 382.79,-92 372.79,-88.5 372.79,-95.5"/>
</a>
</g>
</g>
<!-- Node10 -->
<g id="Node000010" class="node">
<title>Node10</title>
<g id="a_Node000010"><a xlink:href="structxml__allocator.html#a1c6bfe15a257a094f55659f8d71c209e" target="_top" xlink:title=" ">
<polygon fill="white" stroke="#666666" points="695,-102 544.75,-102 544.75,-82 695,-82 695,-102"/>
<text xml:space="preserve" text-anchor="middle" x="619.88" y="-88.5" font-family="Helvetica,sans-Serif" font-size="10.00">xml_allocator::deallocate_page</text>
</a>
</g>
</g>
<!-- Node9&#45;&gt;Node10 -->
<g id="edge9_Node000009_Node000010" class="edge">
<title>Node9&#45;&gt;Node10</title>
<g id="a_edge9_Node000009_Node000010"><a xlink:title=" ">
<path fill="none" stroke="#63b8ff" d="M509.05,-92C516.8,-92 524.85,-92 532.9,-92"/>
<polygon fill="#63b8ff" stroke="#63b8ff" points="532.75,-95.5 542.75,-92 532.75,-88.5 532.75,-95.5"/>
</a>
</g>
</g>
<!-- Node13 -->
<g id="Node000013" class="node">
<title>Node13</title>
<g id="a_Node000013"><a xlink:href="pugixml_8cpp.html#a775f7b78d2f13c1b72d69b114599461d" target="_top" xlink:title=" ">
<polygon fill="white" stroke="#666666" points="473.5,-20 420,-20 420,0 473.5,0 473.5,-20"/>
<text xml:space="preserve" text-anchor="middle" x="446.75" y="-6.5" font-family="Helvetica,sans-Serif" font-size="10.00">strlength</text>
</a>
</g>
</g>
<!-- Node12&#45;&gt;Node13 -->
<g id="edge12_Node000012_Node000013" class="edge">
<title>Node12&#45;&gt;Node13</title>
<g id="a_edge12_Node000012_Node000013"><a xlink:title=" ">
<path fill="none" stroke="#63b8ff" d="M336.44,-10C359.7,-10 387.09,-10 408.63,-10"/>
<polygon fill="#63b8ff" stroke="#63b8ff" points="408.42,-13.5 418.42,-10 408.42,-6.5 408.42,-13.5"/>
</a>
</g>
</g>
</g>
</svg>
