<?xml version="1.0" encoding="UTF-8" standalone="no"?>
<!DOCTYPE svg PUBLIC "-//W3C//DTD SVG 1.1//EN"
 "http://www.w3.org/Graphics/SVG/1.1/DTD/svg11.dtd">
<!-- Generated by graphviz version 14.1.2 (20260124.0452)
 -->
<!-- Title: node_copy_tree Pages: 1 -->
<!--zoomable 319 -->

<svg id="main" version="1.1" xmlns="http://www.w3.org/2000/svg" xmlns:xlink="http://www.w3.org/1999/xlink" xml:space="preserve" onload="init(evt)">

<style type="text/css"><![CDATA[
.node, .edge {opacity: 0.7;}
.node.selected, .edge.selected {opacity: 1;}
.edge:hover path { stroke: red; }
.edge:hover polygon { stroke: red; fill: red; }
]]></style>

<defs>
  <circle id="rim" cx="0" cy="0" r="7"/>
  <circle id="rim2" cx="0" cy="0" r="3.5"/>
  <g id="zoomPlus">
    <use xlink:href="#rim" fill="#404040"><set attributeName="fill" to="#808080" begin="zoomplus.mouseover" end="zoomplus.mouseout"/></use>
    <path d="M-4,0h8M0,-4v8" fill="none" stroke="white" stroke-width="1.5" pointer-events="none"/>
  </g>
  <g id="zoomMin">
    <use xlink:href="#rim" fill="#404040"><set attributeName="fill" to="#808080" begin="zoomminus.mouseover" end="zoomminus.mouseout"/></use>
    <path d="M-4,0h8" fill="none" stroke="white" stroke-width="1.5" pointer-events="none"/>
  </g>
  <g id="arrowUp" transform="translate(30 24)">
    <use xlink:href="#rim"/>
    <path pointer-events="none" fill="none" stroke="white" stroke-width="1.5" d="M0,-3.0v7 M-2.5,-0.5L0,-3.0L2.5,-0.5"/>
  </g>
  <g id="arrowRight" transform="rotate(90) translate(36 -43)">
    <use xlink:href="#rim"/>
    <path pointer-events="none" fill="none" stroke="white" stroke-width="1.5" d="M0,-3.0v7 M-2.5,-0.5L0,-3.0L2.5,-0.5"/>
  </g>
  <g id="arrowDown" transform="rotate(180) translate(-30 -48)">
    <use xlink:href="#rim"/>
    <path pointer-events="none" fill="none" stroke="white" stroke-width="1.5" d="M0,-3.0v7 M-2.5,-0.5L0,-3.0L2.5,-0.5"/>
  </g>
  <g id="arrowLeft" transform="rotate(270) translate(-36 17)">
    <use xlink:href="#rim"/>
    <path pointer-events="none" fill="none" stroke="white" stroke-width="1.5" d="M0,-3.0v7 M-2.5,-0.5L0,-3.0L2.5,-0.5"/>
  </g>
  <g id="resetDef">
    <use xlink:href="#rim2" fill="#404040"><set attributeName="fill" to="#808080" begin="reset.mouseover" end="reset.mouseout"/></use>
  </g>
</defs>
<script type="application/ecmascript">
var viewWidth = 1372;
var viewHeight = 319;
var sectionId = 'dynsection-110';
</script>
<script type="application/ecmascript" xlink:href="svg.min.js"/>
<svg id="graph" class="graph">
<g id="viewport">
<title>node_copy_tree</title>
<!-- Node1 -->
<g id="Node000001" class="node">
<title>Node1</title>
<g id="a_Node000001"><a xlink:title=" ">
<polygon fill="#999999" stroke="#666666" points="85,-93 0,-93 0,-73 85,-73 85,-93"/>
<text xml:space="preserve" text-anchor="middle" x="42.5" y="-79.5" font-family="Helvetica,sans-Serif" font-size="10.00">node_copy_tree</text>
</a>
</g>
</g>
<!-- Node2 -->
<g id="Node000002" class="node">
<title>Node2</title>
<g id="a_Node000002"><a xlink:href="pugixml_8cpp.html#a6762031546d0bbd558c6301061c94f7a" target="_top" xlink:title=" ">
<polygon fill="white" stroke="#666666" points="367.12,-254 270.12,-254 270.12,-234 367.12,-234 367.12,-254"/>
<text xml:space="preserve" text-anchor="middle" x="318.62" y="-240.5" font-family="Helvetica,sans-Serif" font-size="10.00">append_new_node</text>
</a>
</g>
</g>
<!-- Node1&#45;&gt;Node2 -->
<g id="edge1_Node000001_Node000002" class="edge">
<title>Node1&#45;&gt;Node2</title>
<g id="a_edge1_Node000001_Node000002"><a xlink:title=" ">
<path fill="none" stroke="#63b8ff" d="M61.06,-93.32C107.56,-120.63 234.14,-194.97 290.23,-227.91"/>
<polygon fill="#63b8ff" stroke="#63b8ff" points="288.15,-230.75 298.55,-232.79 291.7,-224.71 288.15,-230.75"/>
</a>
</g>
</g>
<!-- Node11 -->
<g id="Node000011" class="node">
<title>Node11</title>
<g id="a_Node000011"><a xlink:href="pugixml_8cpp.html#a90fd4a021fa949dcd95b2128a1aa7914" target="_top" xlink:title=" ">
<polygon fill="white" stroke="#666666" points="354.38,-55 282.88,-55 282.88,-35 354.38,-35 354.38,-55"/>
<text xml:space="preserve" text-anchor="middle" x="318.62" y="-41.5" font-family="Helvetica,sans-Serif" font-size="10.00">get_allocator</text>
</a>
</g>
</g>
<!-- Node1&#45;&gt;Node11 -->
<g id="edge10_Node000001_Node000011" class="edge">
<title>Node1&#45;&gt;Node11</title>
<g id="a_edge10_Node000001_Node000011"><a xlink:title=" ">
<path fill="none" stroke="#63b8ff" d="M81.51,-72.52C94.01,-69.39 108.03,-66.21 121,-64 172.08,-55.32 231.36,-50.26 271.36,-47.58"/>
<polygon fill="#63b8ff" stroke="#63b8ff" points="271.35,-51.09 281.11,-46.95 270.9,-44.1 271.35,-51.09"/>
</a>
</g>
</g>
<!-- Node12 -->
<g id="Node000012" class="node">
<title>Node12</title>
<g id="a_Node000012"><a xlink:href="pugixml_8cpp.html#a04264129af89281e0d73c01e7b4716bb" target="_top" xlink:title=" ">
<polygon fill="white" stroke="#666666" points="227,-93 121,-93 121,-73 227,-73 227,-93"/>
<text xml:space="preserve" text-anchor="middle" x="174" y="-79.5" font-family="Helvetica,sans-Serif" font-size="10.00">node_copy_contents</text>
</a>
</g>
</g>
<!-- Node1&#45;&gt;Node12 -->
<g id="edge11_Node000001_Node000012" class="edge">
<title>Node1&#45;&gt;Node12</title>
<g id="a_edge11_Node000001_Node000012"><a xlink:title=" ">
<path fill="none" stroke="#63b8ff" d="M85.19,-83C93.02,-83 101.36,-83 109.68,-83"/>
<polygon fill="#63b8ff" stroke="#63b8ff" points="109.43,-86.5 119.43,-83 109.43,-79.5 109.43,-86.5"/>
</a>
</g>
</g>
<!-- Node3 -->
<g id="Node000003" class="node">
<title>Node3</title>
<g id="a_Node000003"><a xlink:href="pugixml_8cpp.html#adb3f2586fe1e65ad9a04c54dd7192d9a" target="_top" xlink:title=" ">
<polygon fill="white" stroke="#666666" points="493.38,-311 417.38,-311 417.38,-291 493.38,-291 493.38,-311"/>
<text xml:space="preserve" text-anchor="middle" x="455.38" y="-297.5" font-family="Helvetica,sans-Serif" font-size="10.00">allocate_node</text>
</a>
</g>
</g>
<!-- Node2&#45;&gt;Node3 -->
<g id="edge2_Node000002_Node000003" class="edge">
<title>Node2&#45;&gt;Node3</title>
<g id="a_edge2_Node000002_Node000003"><a xlink:title=" ">
<path fill="none" stroke="#63b8ff" d="M344.34,-254.45C365.33,-263.33 395.7,-276.18 419.22,-286.13"/>
<polygon fill="#63b8ff" stroke="#63b8ff" points="417.85,-289.35 428.42,-290.02 420.58,-282.9 417.85,-289.35"/>
</a>
</g>
</g>
<!-- Node9 -->
<g id="Node000009" class="node">
<title>Node9</title>
<g id="a_Node000009"><a xlink:href="pugixml_8cpp.html#af031251ee7cd993e032fc0938d16d7ed" target="_top" xlink:title=" ">
<polygon fill="white" stroke="#666666" points="492.25,-273 418.5,-273 418.5,-253 492.25,-253 492.25,-273"/>
<text xml:space="preserve" text-anchor="middle" x="455.38" y="-259.5" font-family="Helvetica,sans-Serif" font-size="10.00">append_node</text>
</a>
</g>
</g>
<!-- Node2&#45;&gt;Node9 -->
<g id="edge8_Node000002_Node000009" class="edge">
<title>Node2&#45;&gt;Node9</title>
<g id="a_edge8_Node000002_Node000009"><a xlink:title=" ">
<path fill="none" stroke="#63b8ff" d="M367.51,-250.75C380.25,-252.55 394.01,-254.49 406.74,-256.28"/>
<polygon fill="#63b8ff" stroke="#63b8ff" points="406.19,-259.74 416.58,-257.67 407.17,-252.81 406.19,-259.74"/>
</a>
</g>
</g>
<!-- Node10 -->
<g id="Node000010" class="node">
<title>Node10</title>
<g id="a_Node000010"><a xlink:href="structxml__allocator.html#ac831a283ec3bcbe22fd3ce3be98ec347" target="_top" xlink:title=" ">
<polygon fill="white" stroke="#666666" points="654.5,-177 542.5,-177 542.5,-157 654.5,-157 654.5,-177"/>
<text xml:space="preserve" text-anchor="middle" x="598.5" y="-163.5" font-family="Helvetica,sans-Serif" font-size="10.00">xml_allocator::reserve</text>
</a>
</g>
</g>
<!-- Node2&#45;&gt;Node10 -->
<g id="edge9_Node000002_Node000010" class="edge">
<title>Node2&#45;&gt;Node10</title>
<g id="a_edge9_Node000002_Node000010"><a xlink:title=" ">
<path fill="none" stroke="#63b8ff" d="M367.57,-237.94C404.67,-232.29 456.91,-222.26 500.5,-206 517.65,-199.6 519.67,-193.2 536.5,-186 540.52,-184.28 544.74,-182.64 549.01,-181.1"/>
<polygon fill="#63b8ff" stroke="#63b8ff" points="549.88,-184.5 558.21,-177.95 547.61,-177.88 549.88,-184.5"/>
</a>
</g>
</g>
<!-- Node4 -->
<g id="Node000004" class="node">
<title>Node4</title>
<g id="a_Node000004"><a xlink:href="structxml__allocator.html#a103dfdec5c72cb955e2a97a61fdc9af1" target="_top" xlink:title=" ">
<polygon fill="white" stroke="#666666" points="655.25,-227 541.75,-227 541.75,-195 655.25,-195 655.25,-227"/>
<text xml:space="preserve" text-anchor="start" x="549.75" y="-213.5" font-family="Helvetica,sans-Serif" font-size="10.00">xml_allocator::allocate</text>
<text xml:space="preserve" text-anchor="middle" x="598.5" y="-201.5" font-family="Helvetica,sans-Serif" font-size="10.00">_object</text>
</a>
</g>
</g>
<!-- Node3&#45;&gt;Node4 -->
<g id="edge3_Node000003_Node000004" class="edge">
<title>Node3&#45;&gt;Node4</title>
<g id="a_edge3_Node000003_Node000004"><a xlink:title=" ">
<path fill="none" stroke="#63b8ff" d="M482.98,-290.69C488.87,-288.1 495,-285.15 500.5,-282 524.84,-268.09 550.34,-249.23 569.08,-234.45"/>
<polygon fill="#63b8ff" stroke="#63b8ff" points="571.16,-237.27 576.78,-228.29 566.78,-231.8 571.16,-237.27"/>
</a>
</g>
</g>
<!-- Node5 -->
<g id="Node000005" class="node">
<title>Node5</title>
<g id="a_Node000005"><a xlink:href="structxml__allocator.html#a02a8725611785568ceae7a0eea3eca76" target="_top" xlink:title=" ">
<polygon fill="white" stroke="#666666" points="815.25,-183 701.75,-183 701.75,-151 815.25,-151 815.25,-183"/>
<text xml:space="preserve" text-anchor="start" x="709.75" y="-169.5" font-family="Helvetica,sans-Serif" font-size="10.00">xml_allocator::allocate</text>
<text xml:space="preserve" text-anchor="middle" x="758.5" y="-157.5" font-family="Helvetica,sans-Serif" font-size="10.00">_memory</text>
</a>
</g>
</g>
<!-- Node4&#45;&gt;Node5 -->
<g id="edge4_Node000004_Node000005" class="edge">
<title>Node4&#45;&gt;Node5</title>
<g id="a_edge4_Node000004_Node000005"><a xlink:title=" ">
<path fill="none" stroke="#63b8ff" d="M655.65,-195.36C666.88,-192.24 678.77,-188.92 690.33,-185.71"/>
<polygon fill="#63b8ff" stroke="#63b8ff" points="691.11,-189.12 699.81,-183.07 689.23,-182.38 691.11,-189.12"/>
</a>
</g>
</g>
<!-- Node6 -->
<g id="Node000006" class="node">
<title>Node6</title>
<g id="a_Node000006"><a xlink:href="structxml__allocator.html#ae010e1cb3ad4e8f1235ad94ea4c542ee" target="_top" xlink:title=" ">
<polygon fill="white" stroke="#666666" points="988.38,-183 874.88,-183 874.88,-151 988.38,-151 988.38,-183"/>
<text xml:space="preserve" text-anchor="start" x="882.88" y="-169.5" font-family="Helvetica,sans-Serif" font-size="10.00">xml_allocator::allocate</text>
<text xml:space="preserve" text-anchor="middle" x="931.62" y="-157.5" font-family="Helvetica,sans-Serif" font-size="10.00">_memory_oob</text>
</a>
</g>
</g>
<!-- Node5&#45;&gt;Node6 -->
<g id="edge5_Node000005_Node000006" class="edge">
<title>Node5&#45;&gt;Node6</title>
<g id="a_edge5_Node000005_Node000006"><a xlink:title=" ">
<path fill="none" stroke="#63b8ff" d="M815.53,-167C830.75,-167 847.39,-167 863.16,-167"/>
<polygon fill="#63b8ff" stroke="#63b8ff" points="862.95,-170.5 872.95,-167 862.95,-163.5 862.95,-170.5"/>
</a>
</g>
</g>
<!-- Node7 -->
<g id="Node000007" class="node">
<title>Node7</title>
<g id="a_Node000007"><a xlink:href="structxml__allocator.html#ad07a6aa6876c8c5a5536d409c01d88e5" target="_top" xlink:title=" ">
<polygon fill="white" stroke="#666666" points="1182.5,-177 1042.75,-177 1042.75,-157 1182.5,-157 1182.5,-177"/>
<text xml:space="preserve" text-anchor="middle" x="1112.62" y="-163.5" font-family="Helvetica,sans-Serif" font-size="10.00">xml_allocator::allocate_page</text>
</a>
</g>
</g>
<!-- Node6&#45;&gt;Node7 -->
<g id="edge6_Node000006_Node000007" class="edge">
<title>Node6&#45;&gt;Node7</title>
<g id="a_edge6_Node000006_Node000007"><a xlink:title=" ">
<path fill="none" stroke="#63b8ff" d="M988.77,-167C1002.2,-167 1016.8,-167 1031.09,-167"/>
<polygon fill="#63b8ff" stroke="#63b8ff" points="1030.94,-170.5 1040.94,-167 1030.94,-163.5 1030.94,-170.5"/>
</a>
</g>
</g>
<!-- Node8 -->
<g id="Node000008" class="node">
<title>Node8</title>
<g id="a_Node000008"><a xlink:href="structxml__memory__page.html#a071bb9cc9aeccef1655c1336b16472a5" target="_top" xlink:title=" ">
<polygon fill="white" stroke="#666666" points="1363.5,-177 1218.5,-177 1218.5,-157 1363.5,-157 1363.5,-177"/>
<text xml:space="preserve" text-anchor="middle" x="1291" y="-163.5" font-family="Helvetica,sans-Serif" font-size="10.00">xml_memory_page::construct</text>
</a>
</g>
</g>
<!-- Node7&#45;&gt;Node8 -->
<g id="edge7_Node000007_Node000008" class="edge">
<title>Node7&#45;&gt;Node8</title>
<g id="a_edge7_Node000007_Node000008"><a xlink:title=" ">
<path fill="none" stroke="#63b8ff" d="M1182.83,-167C1190.7,-167 1198.78,-167 1206.81,-167"/>
<polygon fill="#63b8ff" stroke="#63b8ff" points="1206.58,-170.5 1216.58,-167 1206.58,-163.5 1206.58,-170.5"/>
</a>
</g>
</g>
<!-- Node12&#45;&gt;Node11 -->
<g id="edge17_Node000012_Node000011" class="edge">
<title>Node12&#45;&gt;Node11</title>
<g id="a_edge17_Node000012_Node000011"><a xlink:title=" ">
<path fill="none" stroke="#63b8ff" d="M214.35,-72.52C232.1,-67.79 253.19,-62.17 271.66,-57.25"/>
<polygon fill="#63b8ff" stroke="#63b8ff" points="272.55,-60.63 281.32,-54.67 270.75,-53.87 272.55,-60.63"/>
</a>
</g>
</g>
<!-- Node13 -->
<g id="Node000013" class="node">
<title>Node13</title>
<g id="a_Node000013"><a xlink:href="pugixml_8cpp.html#aa4d1cd18410ae2f5008f74bd5fc8a387" target="_top" xlink:title=" ">
<polygon fill="white" stroke="#666666" points="374.25,-140 263,-140 263,-120 374.25,-120 374.25,-140"/>
<text xml:space="preserve" text-anchor="middle" x="318.62" y="-126.5" font-family="Helvetica,sans-Serif" font-size="10.00">append_new_attribute</text>
</a>
</g>
</g>
<!-- Node12&#45;&gt;Node13 -->
<g id="edge12_Node000012_Node000013" class="edge">
<title>Node12&#45;&gt;Node13</title>
<g id="a_edge12_Node000012_Node000013"><a xlink:title=" ">
<path fill="none" stroke="#63b8ff" d="M206.65,-93.43C226.87,-100.09 253.33,-108.81 275.34,-116.06"/>
<polygon fill="#63b8ff" stroke="#63b8ff" points="274.03,-119.32 284.62,-119.12 276.22,-112.67 274.03,-119.32"/>
</a>
</g>
</g>
<!-- Node16 -->
<g id="Node000016" class="node">
<title>Node16</title>
<g id="a_Node000016"><a xlink:href="pugixml_8cpp.html#aee4bcdb425d825a33564649ece0a4b31" target="_top" xlink:title=" ">
<polygon fill="white" stroke="#666666" points="364.88,-93 272.38,-93 272.38,-73 364.88,-73 364.88,-93"/>
<text xml:space="preserve" text-anchor="middle" x="318.62" y="-79.5" font-family="Helvetica,sans-Serif" font-size="10.00">node_copy_string</text>
</a>
</g>
</g>
<!-- Node12&#45;&gt;Node16 -->
<g id="edge18_Node000012_Node000016" class="edge">
<title>Node12&#45;&gt;Node16</title>
<g id="a_edge18_Node000012_Node000016"><a xlink:title=" ">
<path fill="none" stroke="#63b8ff" d="M227.3,-83C238.16,-83 249.65,-83 260.66,-83"/>
<polygon fill="#63b8ff" stroke="#63b8ff" points="260.41,-86.5 270.41,-83 260.41,-79.5 260.41,-86.5"/>
</a>
</g>
</g>
<!-- Node13&#45;&gt;Node10 -->
<g id="edge16_Node000013_Node000010" class="edge">
<title>Node13&#45;&gt;Node10</title>
<g id="a_edge16_Node000013_Node000010"><a xlink:title=" ">
<path fill="none" stroke="#63b8ff" d="M374.52,-137.31C419.48,-143.3 483.23,-151.78 531.06,-158.15"/>
<polygon fill="#63b8ff" stroke="#63b8ff" points="530.37,-161.59 540.74,-159.44 531.29,-154.65 530.37,-161.59"/>
</a>
</g>
</g>
<!-- Node14 -->
<g id="Node000014" class="node">
<title>Node14</title>
<g id="a_Node000014"><a xlink:href="pugixml_8cpp.html#a26ec349a881efb75dce214a92fd56842" target="_top" xlink:title=" ">
<polygon fill="white" stroke="#666666" points="500.5,-197 410.25,-197 410.25,-177 500.5,-177 500.5,-197"/>
<text xml:space="preserve" text-anchor="middle" x="455.38" y="-183.5" font-family="Helvetica,sans-Serif" font-size="10.00">allocate_attribute</text>
</a>
</g>
</g>
<!-- Node13&#45;&gt;Node14 -->
<g id="edge13_Node000013_Node000014" class="edge">
<title>Node13&#45;&gt;Node14</title>
<g id="a_edge13_Node000013_Node000014"><a xlink:title=" ">
<path fill="none" stroke="#63b8ff" d="M344.34,-140.45C365.33,-149.33 395.7,-162.18 419.22,-172.13"/>
<polygon fill="#63b8ff" stroke="#63b8ff" points="417.85,-175.35 428.42,-176.02 420.58,-168.9 417.85,-175.35"/>
</a>
</g>
</g>
<!-- Node15 -->
<g id="Node000015" class="node">
<title>Node15</title>
<g id="a_Node000015"><a xlink:href="pugixml_8cpp.html#ad64fdacadf33c8b534a9cd220f1aa966" target="_top" xlink:title=" ">
<polygon fill="white" stroke="#666666" points="499.38,-121 411.38,-121 411.38,-101 499.38,-101 499.38,-121"/>
<text xml:space="preserve" text-anchor="middle" x="455.38" y="-107.5" font-family="Helvetica,sans-Serif" font-size="10.00">append_attribute</text>
</a>
</g>
</g>
<!-- Node13&#45;&gt;Node15 -->
<g id="edge15_Node000013_Node000015" class="edge">
<title>Node13&#45;&gt;Node15</title>
<g id="a_edge15_Node000013_Node000015"><a xlink:title=" ">
<path fill="none" stroke="#63b8ff" d="M374.43,-122.27C382.85,-121.09 391.54,-119.86 399.94,-118.67"/>
<polygon fill="#63b8ff" stroke="#63b8ff" points="400.27,-122.16 409.68,-117.3 399.29,-115.23 400.27,-122.16"/>
</a>
</g>
</g>
<!-- Node14&#45;&gt;Node4 -->
<g id="edge14_Node000014_Node000004" class="edge">
<title>Node14&#45;&gt;Node4</title>
<g id="a_edge14_Node000014_Node000004"><a xlink:title=" ">
<path fill="none" stroke="#63b8ff" d="M500.64,-194.53C510.04,-196.13 520.16,-197.85 530.2,-199.55"/>
<polygon fill="#63b8ff" stroke="#63b8ff" points="529.51,-202.99 539.95,-201.21 530.68,-196.09 529.51,-202.99"/>
</a>
</g>
</g>
<!-- Node17 -->
<g id="Node000017" class="node">
<title>Node17</title>
<g id="a_Node000017"><a xlink:href="pugixml_8cpp.html#a6acbb945c483e413572aadd55a2c8712" target="_top" xlink:title=" ">
<polygon fill="white" stroke="#666666" points="491.12,-83 419.62,-83 419.62,-63 491.12,-63 491.12,-83"/>
<text xml:space="preserve" text-anchor="middle" x="455.38" y="-69.5" font-family="Helvetica,sans-Serif" font-size="10.00">strcpy_insitu</text>
</a>
</g>
</g>
<!-- Node16&#45;&gt;Node17 -->
<g id="edge19_Node000016_Node000017" class="edge">
<title>Node16&#45;&gt;Node17</title>
<g id="a_edge19_Node000016_Node000017"><a xlink:title=" ">
<path fill="none" stroke="#63b8ff" d="M365.25,-79.61C379.08,-78.59 394.29,-77.46 408.17,-76.43"/>
<polygon fill="#63b8ff" stroke="#63b8ff" points="408.23,-79.93 417.95,-75.7 407.71,-72.95 408.23,-79.93"/>
</a>
</g>
</g>
<!-- Node23 -->
<g id="Node000023" class="node">
<title>Node23</title>
<g id="a_Node000023"><a xlink:href="pugixml_8cpp.html#a775f7b78d2f13c1b72d69b114599461d" target="_top" xlink:title=" ">
<polygon fill="white" stroke="#666666" points="785.25,-20 731.75,-20 731.75,0 785.25,0 785.25,-20"/>
<text xml:space="preserve" text-anchor="middle" x="758.5" y="-6.5" font-family="Helvetica,sans-Serif" font-size="10.00">strlength</text>
</a>
</g>
</g>
<!-- Node16&#45;&gt;Node23 -->
<g id="edge28_Node000016_Node000023" class="edge">
<title>Node16&#45;&gt;Node23</title>
<g id="a_edge28_Node000016_Node000023"><a xlink:title=" ">
<path fill="none" stroke="#63b8ff" d="M349.95,-72.5C407.35,-52.68 526.99,-11.56 536.5,-10 600.32,0.45 675.9,-2.86 720.09,-6.34"/>
<polygon fill="#63b8ff" stroke="#63b8ff" points="719.66,-9.82 729.91,-7.17 720.24,-2.84 719.66,-9.82"/>
</a>
</g>
</g>
<!-- Node17&#45;&gt;Node10 -->
<g id="edge25_Node000017_Node000010" class="edge">
<title>Node17&#45;&gt;Node10</title>
<g id="a_edge25_Node000017_Node000010"><a xlink:title=" ">
<path fill="none" stroke="#63b8ff" d="M487.19,-83.44C491.93,-85.82 496.55,-88.66 500.5,-92 523.07,-111.13 512.96,-130.08 536.5,-148 538.05,-149.18 539.67,-150.28 541.35,-151.32"/>
<polygon fill="#63b8ff" stroke="#63b8ff" points="539.62,-154.37 550.11,-155.86 542.84,-148.15 539.62,-154.37"/>
</a>
</g>
</g>
<!-- Node18 -->
<g id="Node000018" class="node">
<title>Node18</title>
<g id="a_Node000018"><a xlink:href="structxml__allocator.html#a19732d75c0ba4b799d32a285fcb58027" target="_top" xlink:title=" ">
<polygon fill="white" stroke="#666666" points="655.25,-139 541.75,-139 541.75,-107 655.25,-107 655.25,-139"/>
<text xml:space="preserve" text-anchor="start" x="549.75" y="-125.5" font-family="Helvetica,sans-Serif" font-size="10.00">xml_allocator::allocate</text>
<text xml:space="preserve" text-anchor="middle" x="598.5" y="-113.5" font-family="Helvetica,sans-Serif" font-size="10.00">_string</text>
</a>
</g>
</g>
<!-- Node17&#45;&gt;Node18 -->
<g id="edge20_Node000017_Node000018" class="edge">
<title>Node17&#45;&gt;Node18</title>
<g id="a_edge20_Node000017_Node000018"><a xlink:title=" ">
<path fill="none" stroke="#63b8ff" d="M485.96,-83.48C501.7,-89.06 521.61,-96.11 540.23,-102.71"/>
<polygon fill="#63b8ff" stroke="#63b8ff" points="538.99,-105.98 549.58,-106.02 541.33,-99.38 538.99,-105.98"/>
</a>
</g>
</g>
<!-- Node19 -->
<g id="Node000019" class="node">
<title>Node19</title>
<g id="a_Node000019"><a xlink:href="structxml__allocator.html#af32c538db4d562c2d0bfe15f7c0aa879" target="_top" xlink:title=" ">
<polygon fill="white" stroke="#666666" points="660.5,-89 536.5,-89 536.5,-57 660.5,-57 660.5,-89"/>
<text xml:space="preserve" text-anchor="start" x="544.5" y="-75.5" font-family="Helvetica,sans-Serif" font-size="10.00">xml_allocator::deallocate</text>
<text xml:space="preserve" text-anchor="middle" x="598.5" y="-63.5" font-family="Helvetica,sans-Serif" font-size="10.00">_string</text>
</a>
</g>
</g>
<!-- Node17&#45;&gt;Node19 -->
<g id="edge22_Node000017_Node000019" class="edge">
<title>Node17&#45;&gt;Node19</title>
<g id="a_edge22_Node000017_Node000019"><a xlink:title=" ">
<path fill="none" stroke="#63b8ff" d="M491.62,-73C501.73,-73 513.13,-73 524.62,-73"/>
<polygon fill="#63b8ff" stroke="#63b8ff" points="524.57,-76.5 534.57,-73 524.57,-69.5 524.57,-76.5"/>
</a>
</g>
</g>
<!-- Node22 -->
<g id="Node000022" class="node">
<title>Node22</title>
<g id="a_Node000022"><a xlink:href="pugixml_8cpp.html#afeaebb026671399f617b36e27fa92234" target="_top" xlink:title=" ">
<polygon fill="white" stroke="#666666" points="648.12,-39 548.88,-39 548.88,-19 648.12,-19 648.12,-39"/>
<text xml:space="preserve" text-anchor="middle" x="598.5" y="-25.5" font-family="Helvetica,sans-Serif" font-size="10.00">strcpy_insitu_allow</text>
</a>
</g>
</g>
<!-- Node17&#45;&gt;Node22 -->
<g id="edge26_Node000017_Node000022" class="edge">
<title>Node17&#45;&gt;Node22</title>
<g id="a_edge26_Node000017_Node000022"><a xlink:title=" ">
<path fill="none" stroke="#63b8ff" d="M489.9,-62.54C504.25,-58.06 521.2,-52.77 536.5,-48 541.92,-46.31 547.61,-44.54 553.25,-42.78"/>
<polygon fill="#63b8ff" stroke="#63b8ff" points="553.99,-46.22 562.49,-39.9 551.91,-39.53 553.99,-46.22"/>
</a>
</g>
</g>
<!-- Node18&#45;&gt;Node5 -->
<g id="edge21_Node000018_Node000005" class="edge">
<title>Node18&#45;&gt;Node5</title>
<g id="a_edge21_Node000018_Node000005"><a xlink:title=" ">
<path fill="none" stroke="#63b8ff" d="M655.65,-138.64C666.88,-141.76 678.77,-145.08 690.33,-148.29"/>
<polygon fill="#63b8ff" stroke="#63b8ff" points="689.23,-151.62 699.81,-150.93 691.11,-144.88 689.23,-151.62"/>
</a>
</g>
</g>
<!-- Node20 -->
<g id="Node000020" class="node">
<title>Node20</title>
<g id="a_Node000020"><a xlink:href="structxml__allocator.html#a5df417155487cce4e0460b123ac33dc6" target="_top" xlink:title=" ">
<polygon fill="white" stroke="#666666" points="820.5,-89 696.5,-89 696.5,-57 820.5,-57 820.5,-89"/>
<text xml:space="preserve" text-anchor="start" x="704.5" y="-75.5" font-family="Helvetica,sans-Serif" font-size="10.00">xml_allocator::deallocate</text>
<text xml:space="preserve" text-anchor="middle" x="758.5" y="-63.5" font-family="Helvetica,sans-Serif" font-size="10.00">_memory</text>
</a>
</g>
</g>
<!-- Node19&#45;&gt;Node20 -->
<g id="edge23_Node000019_Node000020" class="edge">
<title>Node19&#45;&gt;Node20</title>
<g id="a_edge23_Node000019_Node000020"><a xlink:title=" ">
<path fill="none" stroke="#63b8ff" d="M660.59,-73C668.5,-73 676.66,-73 684.73,-73"/>
<polygon fill="#63b8ff" stroke="#63b8ff" points="684.54,-76.5 694.54,-73 684.54,-69.5 684.54,-76.5"/>
</a>
</g>
</g>
<!-- Node21 -->
<g id="Node000021" class="node">
<title>Node21</title>
<g id="a_Node000021"><a xlink:href="structxml__allocator.html#a1c6bfe15a257a094f55659f8d71c209e" target="_top" xlink:title=" ">
<polygon fill="white" stroke="#666666" points="1006.75,-83 856.5,-83 856.5,-63 1006.75,-63 1006.75,-83"/>
<text xml:space="preserve" text-anchor="middle" x="931.62" y="-69.5" font-family="Helvetica,sans-Serif" font-size="10.00">xml_allocator::deallocate_page</text>
</a>
</g>
</g>
<!-- Node20&#45;&gt;Node21 -->
<g id="edge24_Node000020_Node000021" class="edge">
<title>Node20&#45;&gt;Node21</title>
<g id="a_edge24_Node000020_Node000021"><a xlink:title=" ">
<path fill="none" stroke="#63b8ff" d="M820.8,-73C828.55,-73 836.6,-73 844.65,-73"/>
<polygon fill="#63b8ff" stroke="#63b8ff" points="844.5,-76.5 854.5,-73 844.5,-69.5 844.5,-76.5"/>
</a>
</g>
</g>
<!-- Node22&#45;&gt;Node23 -->
<g id="edge27_Node000022_Node000023" class="edge">
<title>Node22&#45;&gt;Node23</title>
<g id="a_edge27_Node000022_Node000023"><a xlink:title=" ">
<path fill="none" stroke="#63b8ff" d="M648.19,-23.14C671.45,-20.35 698.84,-17.05 720.38,-14.46"/>
<polygon fill="#63b8ff" stroke="#63b8ff" points="720.67,-17.95 730.18,-13.28 719.84,-11 720.67,-17.95"/>
</a>
</g>
</g>
</g>
</svg>

<g id="navigator" transform="translate(0 0)" fill="#404254">
  <rect fill="#f2f5e9" fill-opacity="0.5" stroke="#606060" stroke-width=".5" x="0" y="0" width="60" height="60"/>
  <use id="zoomplus" xlink:href="#zoomPlus" x="17" y="9" onmousedown="handleZoom(evt,'in')"/>
  <use id="zoomminus" xlink:href="#zoomMin" x="42" y="9" onmousedown="handleZoom(evt,'out')"/>
  <use id="reset" xlink:href="#resetDef" x="30" y="36" onmousedown="handleReset()"/>
   <use id="arrowup" xlink:href="#arrowUp" x="0" y="0" onmousedown="handlePan(0,-1)"/>
  <use id="arrowright" xlink:href="#arrowRight" x="0" y="0" onmousedown="handlePan(1,0)"/>
  <use id="arrowdown" xlink:href="#arrowDown" x="0" y="0" onmousedown="handlePan(0,1)"/>
  <use id="arrowleft" xlink:href="#arrowLeft" x="0" y="0" onmousedown="handlePan(-1,0)"/>
</g>
<svg viewBox="0 0 15 15" width="100%" height="30px" preserveAspectRatio="xMaxYMin meet">
 <g id="arrow_out" transform="scale(0.3 0.3)">
  <a xlink:href="pugixml_8cpp_a14949165ebd41eaf762dce303c0118a9_cgraph_org.svg" target="_base">
   <rect id="button" ry="5" rx="5" y="6" x="6" height="38" width="38"
        fill="#f2f5e9" fill-opacity="0.5" stroke="#606060" stroke-width="1.0"/>
   <path id="arrow"
     d="M 11.500037,31.436501 C 11.940474,20.09759 22.043105,11.32322 32.158766,21.979434 L 37.068811,17.246167 C 37.068811,17.246167 37.088388,32 37.088388,32 L 22.160133,31.978069 C 22.160133,31.978069 26.997745,27.140456 26.997745,27.140456 C 18.528582,18.264221 13.291696,25.230495 11.500037,31.436501 z"
     style="fill:#404040;"/>
  </a>
 </g>
</svg>

<style type='text/css'>
<![CDATA[
[data-mouse-over-selected='false'] { opacity: 0.7; }
[data-mouse-over-selected='true']  { opacity: 1.0; }
]]>
</style>
<script type="application/ecmascript"><![CDATA[
document.addEventListener('DOMContentLoaded', (event) => {
  highlightEdges();
  highlightAdjacentNodes();
});
]]></script>
</svg>
