<?xml version="1.0" encoding="UTF-8" standalone="no"?>
<!DOCTYPE svg PUBLIC "-//W3C//DTD SVG 1.1//EN"
 "http://www.w3.org/Graphics/SVG/1.1/DTD/svg11.dtd">
<!-- Generated by graphviz version 14.1.2 (20260124.0452)
 -->
<!-- Title: starts_with Pages: 1 -->
<svg width="1354pt" height="401pt"
 viewBox="0.00 0.00 1354.00 401.00" xmlns="http://www.w3.org/2000/svg" xmlns:xlink="http://www.w3.org/1999/xlink">
<g id="graph0" class="graph" transform="scale(1 1) rotate(0) translate(4 397)">
<title>starts_with</title>
<!-- Node1 -->
<g id="Node000001" class="node">
<title>Node1</title>
<g id="a_Node000001"><a xlink:title=" ">
<polygon fill="#999999" stroke="#666666" points="1345.5,-151 1281.5,-151 1281.5,-131 1345.5,-131 1345.5,-151"/>
<text xml:space="preserve" text-anchor="middle" x="1313.5" y="-137.5" font-family="Helvetica,sans-Serif" font-size="10.00">starts_with</text>
</a>
</g>
</g>
<!-- Node2 -->
<g id="Node000002" class="node">
<title>Node2</title>
<g id="a_Node000002"><a xlink:href="classxpath__ast__node.html#ab7f965a92023bc2704b8e6fd9f3d7c14" target="_top" xlink:title=" ">
<polygon fill="white" stroke="#666666" points="1060,-288 951,-288 951,-256 1060,-256 1060,-288"/>
<text xml:space="preserve" text-anchor="start" x="959" y="-274.5" font-family="Helvetica,sans-Serif" font-size="10.00">xpath_ast_node::eval</text>
<text xml:space="preserve" text-anchor="middle" x="1005.5" y="-262.5" font-family="Helvetica,sans-Serif" font-size="10.00">_boolean</text>
</a>
</g>
</g>
<!-- Node1&#45;&gt;Node2 -->
<g id="edge1_Node000001_Node000002" class="edge">
<title>Node1&#45;&gt;Node2</title>
<g id="a_edge1_Node000001_Node000002"><a xlink:title=" ">
<path fill="none" stroke="#63b8ff" d="M1295.17,-159.23C1282.45,-171.68 1264.2,-187.72 1245.5,-198 1186.12,-230.64 1110.36,-250.98 1060.23,-261.89"/>
<polygon fill="#63b8ff" stroke="#63b8ff" points="1297.41,-161.94 1301.96,-152.37 1292.44,-157.01 1297.41,-161.94"/>
</a>
</g>
</g>
<!-- Node12 -->
<g id="Node000012" class="node">
<title>Node12</title>
<g id="a_Node000012"><a xlink:href="pugixml_8cpp.html#a63041941bf2b704523fead76b505d418" target="_top" xlink:title=" ">
<polygon fill="white" stroke="#666666" points="1224.12,-189 1130.88,-189 1130.88,-169 1224.12,-169 1224.12,-189"/>
<text xml:space="preserve" text-anchor="middle" x="1177.5" y="-175.5" font-family="Helvetica,sans-Serif" font-size="10.00">is_xpath_attribute</text>
</a>
</g>
</g>
<!-- Node1&#45;&gt;Node12 -->
<g id="edge25_Node000001_Node000012" class="edge">
<title>Node1&#45;&gt;Node12</title>
<g id="a_edge25_Node000001_Node000012"><a xlink:title=" ">
<path fill="none" stroke="#63b8ff" d="M1270.25,-152.98C1252.65,-157.97 1232.41,-163.71 1215.43,-168.53"/>
<polygon fill="#63b8ff" stroke="#63b8ff" points="1270.96,-156.42 1279.63,-150.32 1269.05,-149.68 1270.96,-156.42"/>
</a>
</g>
</g>
<!-- Node13 -->
<g id="Node000013" class="node">
<title>Node13</title>
<g id="a_Node000013"><a xlink:href="classxpath__ast__node.html#a4f7aaa038105a1d98a7505606ca2b5a2" target="_top" xlink:title=" ">
<polygon fill="white" stroke="#666666" points="1073.5,-132 937.5,-132 937.5,-112 1073.5,-112 1073.5,-132"/>
<text xml:space="preserve" text-anchor="middle" x="1005.5" y="-118.5" font-family="Helvetica,sans-Serif" font-size="10.00">xpath_ast_node::step_push</text>
</a>
</g>
</g>
<!-- Node1&#45;&gt;Node13 -->
<g id="edge35_Node000001_Node000013" class="edge">
<title>Node1&#45;&gt;Node13</title>
<g id="a_edge35_Node000001_Node000013"><a xlink:title=" ">
<path fill="none" stroke="#63b8ff" d="M1269.98,-138.36C1219.18,-135.21 1133.56,-129.89 1073.76,-126.18"/>
<polygon fill="#63b8ff" stroke="#63b8ff" points="1269.48,-141.84 1279.68,-138.96 1269.92,-134.85 1269.48,-141.84"/>
</a>
</g>
</g>
<!-- Node18 -->
<g id="Node000018" class="node">
<title>Node18</title>
<g id="a_Node000018"><a xlink:href="structnamespace__uri__predicate.html#abeb31bcbfaa60f9cee21a4dc6cb59073" target="_top" xlink:title=" ">
<polygon fill="white" stroke="#666666" points="1241,-113 1114,-113 1114,-81 1241,-81 1241,-113"/>
<text xml:space="preserve" text-anchor="start" x="1122" y="-99.5" font-family="Helvetica,sans-Serif" font-size="10.00">namespace_uri_predicate</text>
<text xml:space="preserve" text-anchor="middle" x="1177.5" y="-87.5" font-family="Helvetica,sans-Serif" font-size="10.00">::operator()</text>
</a>
</g>
</g>
<!-- Node1&#45;&gt;Node18 -->
<g id="edge34_Node000001_Node000018" class="edge">
<title>Node1&#45;&gt;Node18</title>
<g id="a_edge34_Node000001_Node000018"><a xlink:title=" ">
<path fill="none" stroke="#63b8ff" d="M1270.36,-127.16C1257.11,-122.81 1242.34,-117.96 1228.59,-113.45"/>
<polygon fill="#63b8ff" stroke="#63b8ff" points="1269.05,-130.42 1279.64,-130.21 1271.24,-123.77 1269.05,-130.42"/>
</a>
</g>
</g>
<!-- Node19 -->
<g id="Node000019" class="node">
<title>Node19</title>
<g id="a_Node000019"><a xlink:href="classxpath__ast__node.html#a29d639296f3cd2726e6967b1ba277928" target="_top" xlink:title=" ">
<polygon fill="white" stroke="#666666" points="1245.5,-63 1109.5,-63 1109.5,-43 1245.5,-43 1245.5,-63"/>
<text xml:space="preserve" text-anchor="middle" x="1177.5" y="-49.5" font-family="Helvetica,sans-Serif" font-size="10.00">xpath_ast_node::step_push</text>
</a>
</g>
</g>
<!-- Node1&#45;&gt;Node19 -->
<g id="edge36_Node000001_Node000019" class="edge">
<title>Node1&#45;&gt;Node19</title>
<g id="a_edge36_Node000001_Node000019"><a xlink:title=" ">
<path fill="none" stroke="#63b8ff" d="M1298.59,-121.88C1286.28,-106.29 1266.99,-84.83 1245.5,-72 1239.79,-68.59 1233.44,-65.77 1226.99,-63.44"/>
<polygon fill="#63b8ff" stroke="#63b8ff" points="1295.54,-123.65 1304.38,-129.49 1301.11,-119.41 1295.54,-123.65"/>
</a>
</g>
</g>
<!-- Node3 -->
<g id="Node000003" class="node">
<title>Node3</title>
<g id="a_Node000003"><a xlink:href="classxpath__ast__node.html#ab4e5bbd3f2e83c86a43349374b4bfc22" target="_top" xlink:title=" ">
<polygon fill="white" stroke="#666666" points="896.25,-178 782,-178 782,-146 896.25,-146 896.25,-178"/>
<text xml:space="preserve" text-anchor="start" x="790" y="-164.5" font-family="Helvetica,sans-Serif" font-size="10.00">xpath_ast_node::apply</text>
<text xml:space="preserve" text-anchor="middle" x="839.12" y="-152.5" font-family="Helvetica,sans-Serif" font-size="10.00">_predicate_boolean</text>
</a>
</g>
</g>
<!-- Node2&#45;&gt;Node3 -->
<g id="edge2_Node000002_Node000003" class="edge">
<title>Node2&#45;&gt;Node3</title>
<g id="a_edge2_Node000002_Node000003"><a xlink:title=" ">
<path fill="none" stroke="#63b8ff" d="M970.61,-249.32C939.04,-228.2 892.75,-197.22 864.63,-178.4"/>
<polygon fill="#63b8ff" stroke="#63b8ff" points="968.38,-252.04 978.63,-254.69 972.27,-246.22 968.38,-252.04"/>
</a>
</g>
</g>
<!-- Node6 -->
<g id="Node000006" class="node">
<title>Node6</title>
<g id="a_Node000006"><a xlink:href="classxpath__ast__node.html#a98dd7f6e67fe2c56c63056eed835d6a4" target="_top" xlink:title=" ">
<polygon fill="white" stroke="#666666" points="144.25,-335 0,-335 0,-315 144.25,-315 144.25,-335"/>
<text xml:space="preserve" text-anchor="middle" x="72.12" y="-321.5" font-family="Helvetica,sans-Serif" font-size="10.00">xpath_ast_node::compare_eq</text>
</a>
</g>
</g>
<!-- Node2&#45;&gt;Node6 -->
<g id="edge22_Node000002_Node000006" class="edge">
<title>Node2&#45;&gt;Node6</title>
<g id="a_edge22_Node000002_Node000006"><a xlink:title=" ">
<path fill="none" stroke="#63b8ff" d="M956.63,-293.47C894.68,-323.86 782.38,-375 679,-375 679,-375 679,-375 378.75,-375 289.58,-375 188.4,-350.49 127.72,-335.48"/>
<polygon fill="#63b8ff" stroke="#63b8ff" points="958.09,-296.65 965.51,-289.09 955,-290.37 958.09,-296.65"/>
</a>
</g>
</g>
<!-- Node8 -->
<g id="Node000008" class="node">
<title>Node8</title>
<g id="a_Node000008"><a xlink:href="classxpath__ast__node.html#a6b675237a590548b68d0e0b97518b6df" target="_top" xlink:title=" ">
<polygon fill="white" stroke="#666666" points="434.25,-341 325.25,-341 325.25,-309 434.25,-309 434.25,-341"/>
<text xml:space="preserve" text-anchor="start" x="333.25" y="-327.5" font-family="Helvetica,sans-Serif" font-size="10.00">xpath_ast_node::eval</text>
<text xml:space="preserve" text-anchor="middle" x="379.75" y="-315.5" font-family="Helvetica,sans-Serif" font-size="10.00">_string</text>
</a>
</g>
</g>
<!-- Node2&#45;&gt;Node8 -->
<g id="edge24_Node000002_Node000008" class="edge">
<title>Node2&#45;&gt;Node8</title>
<g id="a_edge24_Node000002_Node000008"><a xlink:title=" ">
<path fill="none" stroke="#63b8ff" d="M939.27,-279.4C926.8,-281.87 913.8,-284.28 901.5,-286 732.21,-309.62 529.47,-314.72 434.63,-319.37"/>
<polygon fill="#63b8ff" stroke="#63b8ff" points="939.94,-282.84 949.06,-277.45 938.57,-275.98 939.94,-282.84"/>
</a>
</g>
</g>
<!-- Node9 -->
<g id="Node000009" class="node">
<title>Node9</title>
<g id="a_Node000009"><a xlink:href="classxpath__ast__node.html#a92dd7048e28d486bc7f382d1fc6f1de6" target="_top" xlink:title=" ">
<polygon fill="white" stroke="#666666" points="289.25,-288 180.25,-288 180.25,-256 289.25,-256 289.25,-288"/>
<text xml:space="preserve" text-anchor="start" x="188.25" y="-274.5" font-family="Helvetica,sans-Serif" font-size="10.00">xpath_ast_node::eval</text>
<text xml:space="preserve" text-anchor="middle" x="234.75" y="-262.5" font-family="Helvetica,sans-Serif" font-size="10.00">_number</text>
</a>
</g>
</g>
<!-- Node2&#45;&gt;Node9 -->
<g id="edge23_Node000002_Node000009" class="edge">
<title>Node2&#45;&gt;Node9</title>
<g id="a_edge23_Node000002_Node000009"><a xlink:title=" ">
<path fill="none" stroke="#63b8ff" d="M939.24,-265.18C873.52,-263 769.23,-263 679,-263 679,-263 679,-263 523.75,-263 442.12,-263 347.49,-263 289.63,-265.33"/>
<polygon fill="#63b8ff" stroke="#63b8ff" points="939.01,-268.68 949.14,-265.55 939.27,-261.68 939.01,-268.68"/>
</a>
</g>
</g>
<!-- Node4 -->
<g id="Node000004" class="node">
<title>Node4</title>
<g id="a_Node000004"><a xlink:href="classxpath__ast__node.html#a7e35f265c9e0712a16e1d8a9db4c7672" target="_top" xlink:title=" ">
<polygon fill="white" stroke="#666666" points="735.12,-159 620.88,-159 620.88,-127 735.12,-127 735.12,-159"/>
<text xml:space="preserve" text-anchor="start" x="628.88" y="-145.5" font-family="Helvetica,sans-Serif" font-size="10.00">xpath_ast_node::apply</text>
<text xml:space="preserve" text-anchor="middle" x="678" y="-133.5" font-family="Helvetica,sans-Serif" font-size="10.00">_predicate</text>
</a>
</g>
</g>
<!-- Node3&#45;&gt;Node4 -->
<g id="edge3_Node000003_Node000004" class="edge">
<title>Node3&#45;&gt;Node4</title>
<g id="a_edge3_Node000003_Node000004"><a xlink:title=" ">
<path fill="none" stroke="#63b8ff" d="M770.5,-153.92C758.79,-152.53 746.73,-151.09 735.37,-149.73"/>
<polygon fill="#63b8ff" stroke="#63b8ff" points="769.73,-157.36 780.07,-155.07 770.56,-150.41 769.73,-157.36"/>
</a>
</g>
</g>
<!-- Node5 -->
<g id="Node000005" class="node">
<title>Node5</title>
<g id="a_Node000005"><a xlink:href="classxpath__ast__node.html#a68cace396dd4eeae67ecfcd34a3a8285" target="_top" xlink:title=" ">
<polygon fill="white" stroke="#666666" points="579.25,-235 470.25,-235 470.25,-203 579.25,-203 579.25,-235"/>
<text xml:space="preserve" text-anchor="start" x="478.25" y="-221.5" font-family="Helvetica,sans-Serif" font-size="10.00">xpath_ast_node::eval</text>
<text xml:space="preserve" text-anchor="middle" x="524.75" y="-209.5" font-family="Helvetica,sans-Serif" font-size="10.00">_node_set</text>
</a>
</g>
</g>
<!-- Node4&#45;&gt;Node5 -->
<g id="edge4_Node000004_Node000005" class="edge">
<title>Node4&#45;&gt;Node5</title>
<g id="a_edge4_Node000004_Node000005"><a xlink:title=" ">
<path fill="none" stroke="#63b8ff" d="M623.66,-164.03C620.8,-165.33 617.98,-166.66 615.25,-168 598.62,-176.16 595.33,-179.8 579.25,-189 571.49,-193.44 563.06,-198.2 555.23,-202.58"/>
<polygon fill="#63b8ff" stroke="#63b8ff" points="625,-167.26 632.74,-160.04 622.18,-160.85 625,-167.26"/>
</a>
</g>
</g>
<!-- Node5&#45;&gt;Node2 -->
<g id="edge9_Node000005_Node000002" class="edge">
<title>Node5&#45;&gt;Node2</title>
<g id="a_edge9_Node000005_Node000002"><a xlink:title=" ">
<path fill="none" stroke="#63b8ff" d="M590.69,-221.42C665.84,-224.86 793.17,-232.66 901.5,-249 917.53,-251.42 934.79,-254.91 950.51,-258.45"/>
<polygon fill="#63b8ff" stroke="#63b8ff" points="591.19,-217.94 581.04,-220.99 590.88,-224.93 591.19,-217.94"/>
</a>
</g>
</g>
<!-- Node5&#45;&gt;Node6 -->
<g id="edge5_Node000005_Node000006" class="edge">
<title>Node5&#45;&gt;Node6</title>
<g id="a_edge5_Node000005_Node000006"><a xlink:title=" ">
<path fill="none" stroke="#63b8ff" d="M458.91,-212.14C387.5,-207.29 270.82,-207.46 180.25,-247 160.36,-255.68 161.49,-266.81 144.25,-280 127.19,-293.05 106.27,-305.95 91.55,-314.57"/>
<polygon fill="#63b8ff" stroke="#63b8ff" points="458.23,-215.6 468.46,-212.84 458.74,-208.62 458.23,-215.6"/>
</a>
</g>
</g>
<!-- Node7 -->
<g id="Node000007" class="node">
<title>Node7</title>
<g id="a_Node000007"><a xlink:href="classxpath__ast__node.html#abb6e4c529276eaf882233dbb6e04e111" target="_top" xlink:title=" ">
<polygon fill="white" stroke="#666666" points="144.25,-112 0,-112 0,-92 144.25,-92 144.25,-112"/>
<text xml:space="preserve" text-anchor="middle" x="72.12" y="-98.5" font-family="Helvetica,sans-Serif" font-size="10.00">xpath_ast_node::compare_rel</text>
</a>
</g>
</g>
<!-- Node5&#45;&gt;Node7 -->
<g id="edge7_Node000005_Node000007" class="edge">
<title>Node5&#45;&gt;Node7</title>
<g id="a_edge7_Node000005_Node000007"><a xlink:title=" ">
<path fill="none" stroke="#63b8ff" d="M458.71,-202.11C364.2,-177.57 191.66,-132.78 113.51,-112.48"/>
<polygon fill="#63b8ff" stroke="#63b8ff" points="457.82,-205.5 468.38,-204.62 459.58,-198.72 457.82,-205.5"/>
</a>
</g>
</g>
<!-- Node5&#45;&gt;Node8 -->
<g id="edge10_Node000005_Node000008" class="edge">
<title>Node5&#45;&gt;Node8</title>
<g id="a_edge10_Node000005_Node000008"><a xlink:title=" ">
<path fill="none" stroke="#63b8ff" d="M492.62,-242.07C465.41,-262.25 426.59,-291.02 402.57,-308.83"/>
<polygon fill="#63b8ff" stroke="#63b8ff" points="494.55,-245 500.5,-236.23 490.39,-239.37 494.55,-245"/>
</a>
</g>
</g>
<!-- Node6&#45;&gt;Node2 -->
<g id="edge6_Node000006_Node000002" class="edge">
<title>Node6&#45;&gt;Node2</title>
<g id="a_edge6_Node000006_Node000002"><a xlink:title=" ">
<path fill="none" stroke="#63b8ff" d="M101.94,-339.62C155.72,-360.02 275.33,-393 378.75,-393 679,-393 679,-393 679,-393 800.91,-393 935.22,-321.88 984.76,-288.43"/>
<polygon fill="#63b8ff" stroke="#63b8ff" points="103.48,-336.46 92.9,-336.03 100.9,-342.97 103.48,-336.46"/>
</a>
</g>
</g>
<!-- Node7&#45;&gt;Node2 -->
<g id="edge8_Node000007_Node000002" class="edge">
<title>Node7&#45;&gt;Node2</title>
<g id="a_edge8_Node000007_Node000002"><a xlink:title=" ">
<path fill="none" stroke="#63b8ff" d="M155.91,-96.11C339.86,-84.49 776.27,-65.57 901.5,-137 950.41,-164.9 983.67,-226.32 997.41,-255.71"/>
<polygon fill="#63b8ff" stroke="#63b8ff" points="155.95,-92.6 146.2,-96.73 156.4,-99.58 155.95,-92.6"/>
</a>
</g>
</g>
<!-- Node8&#45;&gt;Node2 -->
<g id="edge12_Node000008_Node000002" class="edge">
<title>Node8&#45;&gt;Node2</title>
<g id="a_edge12_Node000008_Node000002"><a xlink:title=" ">
<path fill="none" stroke="#63b8ff" d="M445.93,-330.42C544.86,-332.3 738.66,-326.72 901.5,-304 925.45,-300.66 952.09,-294.65 972.27,-288.38"/>
<polygon fill="#63b8ff" stroke="#63b8ff" points="446.22,-326.92 436.14,-330.19 446.06,-333.92 446.22,-326.92"/>
</a>
</g>
</g>
<!-- Node8&#45;&gt;Node6 -->
<g id="edge11_Node000008_Node000006" class="edge">
<title>Node8&#45;&gt;Node6</title>
<g id="a_edge11_Node000008_Node000006"><a xlink:title=" ">
<path fill="none" stroke="#63b8ff" d="M313.57,-325C263.95,-325 195.71,-325 144.6,-325"/>
<polygon fill="#63b8ff" stroke="#63b8ff" points="313.3,-328.5 323.3,-325 313.3,-321.5 313.3,-328.5"/>
</a>
</g>
</g>
<!-- Node8&#45;&gt;Node9 -->
<g id="edge13_Node000008_Node000009" class="edge">
<title>Node8&#45;&gt;Node9</title>
<g id="a_edge13_Node000008_Node000009"><a xlink:title=" ">
<path fill="none" stroke="#63b8ff" d="M339.28,-304.26C323.92,-297.91 306.07,-291.15 289.57,-285.38"/>
<polygon fill="#63b8ff" stroke="#63b8ff" points="337.5,-307.31 348.07,-307.99 340.23,-300.86 337.5,-307.31"/>
</a>
</g>
</g>
<!-- Node9&#45;&gt;Node2 -->
<g id="edge20_Node000009_Node000002" class="edge">
<title>Node9&#45;&gt;Node2</title>
<g id="a_edge20_Node000009_Node000002"><a xlink:title=" ">
<path fill="none" stroke="#63b8ff" d="M300.89,-279.08C359.27,-281 447.23,-281 523.75,-281 679,-281 679,-281 679,-281 774.64,-281 886.1,-281 950.65,-278.4"/>
<polygon fill="#63b8ff" stroke="#63b8ff" points="301.26,-275.59 291.14,-278.72 301,-282.58 301.26,-275.59"/>
</a>
</g>
</g>
<!-- Node9&#45;&gt;Node6 -->
<g id="edge18_Node000009_Node000006" class="edge">
<title>Node9&#45;&gt;Node6</title>
<g id="a_edge18_Node000009_Node000006"><a xlink:title=" ">
<path fill="none" stroke="#63b8ff" d="M172.99,-292.05C149.78,-299.71 124.26,-308.13 104.82,-314.54"/>
<polygon fill="#63b8ff" stroke="#63b8ff" points="173.97,-295.41 182.37,-288.95 171.78,-288.76 173.97,-295.41"/>
</a>
</g>
</g>
<!-- Node9&#45;&gt;Node7 -->
<g id="edge19_Node000009_Node000007" class="edge">
<title>Node9&#45;&gt;Node7</title>
<g id="a_edge19_Node000009_Node000007"><a xlink:title=" ">
<path fill="none" stroke="#63b8ff" d="M219.26,-246.04C203.33,-219.09 175.77,-176.77 144.25,-147 129.16,-132.75 108.93,-120.47 93.9,-112.35"/>
<polygon fill="#63b8ff" stroke="#63b8ff" points="216.17,-247.69 224.21,-254.59 222.22,-244.18 216.17,-247.69"/>
</a>
</g>
</g>
<!-- Node9&#45;&gt;Node8 -->
<g id="edge21_Node000009_Node000008" class="edge">
<title>Node9&#45;&gt;Node8</title>
<g id="a_edge21_Node000009_Node000008"><a xlink:title=" ">
<path fill="none" stroke="#63b8ff" d="M275.41,-292.81C290.77,-299.16 308.61,-305.92 325.1,-311.67"/>
<polygon fill="#63b8ff" stroke="#63b8ff" points="277.17,-289.76 266.6,-289.09 274.45,-296.21 277.17,-289.76"/>
</a>
</g>
</g>
<!-- Node10 -->
<g id="Node000010" class="node">
<title>Node10</title>
<g id="a_Node000010"><a xlink:href="classxpath__ast__node.html#abf2d4b745493f63aebc1c89d9fde8eed" target="_top" xlink:title=" ">
<polygon fill="white" stroke="#666666" points="129.25,-271 15,-271 15,-239 129.25,-239 129.25,-271"/>
<text xml:space="preserve" text-anchor="start" x="23" y="-257.5" font-family="Helvetica,sans-Serif" font-size="10.00">xpath_ast_node::apply</text>
<text xml:space="preserve" text-anchor="middle" x="72.12" y="-245.5" font-family="Helvetica,sans-Serif" font-size="10.00">_predicate_number</text>
</a>
</g>
</g>
<!-- Node9&#45;&gt;Node10 -->
<g id="edge14_Node000009_Node000010" class="edge">
<title>Node9&#45;&gt;Node10</title>
<g id="a_edge14_Node000009_Node000010"><a xlink:title=" ">
<path fill="none" stroke="#63b8ff" d="M168.64,-265.11C155.73,-263.74 142.27,-262.32 129.66,-260.98"/>
<polygon fill="#63b8ff" stroke="#63b8ff" points="168,-268.56 178.31,-266.13 168.74,-261.6 168,-268.56"/>
</a>
</g>
</g>
<!-- Node11 -->
<g id="Node000011" class="node">
<title>Node11</title>
<g id="a_Node000011"><a xlink:href="classxpath__ast__node.html#a8cedd7e15623b9fa431788b8843f1463" target="_top" xlink:title=" ">
<polygon fill="white" stroke="#666666" points="136,-188 8.25,-188 8.25,-156 136,-156 136,-188"/>
<text xml:space="preserve" text-anchor="start" x="16.25" y="-174.5" font-family="Helvetica,sans-Serif" font-size="10.00">xpath_ast_node::apply</text>
<text xml:space="preserve" text-anchor="middle" x="72.12" y="-162.5" font-family="Helvetica,sans-Serif" font-size="10.00">_predicate_number_const</text>
</a>
</g>
</g>
<!-- Node9&#45;&gt;Node11 -->
<g id="edge16_Node000009_Node000011" class="edge">
<title>Node9&#45;&gt;Node11</title>
<g id="a_edge16_Node000009_Node000011"><a xlink:title=" ">
<path fill="none" stroke="#63b8ff" d="M197.98,-249.73C168.17,-231.17 126.4,-205.17 99.55,-188.45"/>
<polygon fill="#63b8ff" stroke="#63b8ff" points="195.96,-252.6 206.3,-254.91 199.66,-246.65 195.96,-252.6"/>
</a>
</g>
</g>
<!-- Node10&#45;&gt;Node4 -->
<g id="edge15_Node000010_Node000004" class="edge">
<title>Node10&#45;&gt;Node4</title>
<g id="a_edge15_Node000010_Node000004"><a xlink:title=" ">
<path fill="none" stroke="#63b8ff" d="M120.09,-234.3C138.53,-226.9 160.08,-219.12 180.25,-214 353.63,-169.95 402.56,-188.98 579.25,-161 592.63,-158.88 606.99,-156.37 620.48,-153.9"/>
<polygon fill="#63b8ff" stroke="#63b8ff" points="118.94,-230.99 111.02,-238.02 121.6,-237.46 118.94,-230.99"/>
</a>
</g>
</g>
<!-- Node11&#45;&gt;Node4 -->
<g id="edge17_Node000011_Node000004" class="edge">
<title>Node11&#45;&gt;Node4</title>
<g id="a_edge17_Node000011_Node000004"><a xlink:title=" ">
<path fill="none" stroke="#63b8ff" d="M147.57,-166.13C158.53,-165.36 169.68,-164.62 180.25,-164 339.88,-154.67 528.6,-147.85 620.73,-144.79"/>
<polygon fill="#63b8ff" stroke="#63b8ff" points="147.49,-162.63 137.77,-166.84 148,-169.61 147.49,-162.63"/>
</a>
</g>
</g>
<!-- Node12&#45;&gt;Node2 -->
<g id="edge26_Node000012_Node000002" class="edge">
<title>Node12&#45;&gt;Node2</title>
<g id="a_edge26_Node000012_Node000002"><a xlink:title=" ">
<path fill="none" stroke="#63b8ff" d="M1147.57,-194.83C1116.62,-211.76 1067.77,-238.48 1036.44,-255.62"/>
<polygon fill="#63b8ff" stroke="#63b8ff" points="1148.91,-198.08 1156,-190.21 1145.55,-191.94 1148.91,-198.08"/>
</a>
</g>
</g>
<!-- Node12&#45;&gt;Node13 -->
<g id="edge27_Node000012_Node000013" class="edge">
<title>Node12&#45;&gt;Node13</title>
<g id="a_edge27_Node000012_Node000013"><a xlink:title=" ">
<path fill="none" stroke="#63b8ff" d="M1134.76,-165.01C1104.79,-154.96 1065.03,-141.63 1037.77,-132.48"/>
<polygon fill="#63b8ff" stroke="#63b8ff" points="1133.29,-168.2 1143.88,-168.06 1135.52,-161.57 1133.29,-168.2"/>
</a>
</g>
</g>
<!-- Node14 -->
<g id="Node000014" class="node">
<title>Node14</title>
<g id="a_Node000014"><a xlink:href="classxpath__ast__node.html#aca100722d72e30f12c7276e8b2616587" target="_top" xlink:title=" ">
<polygon fill="white" stroke="#666666" points="740.38,-20 615.62,-20 615.62,0 740.38,0 740.38,-20"/>
<text xml:space="preserve" text-anchor="middle" x="678" y="-6.5" font-family="Helvetica,sans-Serif" font-size="10.00">xpath_ast_node::step_fill</text>
</a>
</g>
</g>
<!-- Node13&#45;&gt;Node14 -->
<g id="edge28_Node000013_Node000014" class="edge">
<title>Node13&#45;&gt;Node14</title>
<g id="a_edge28_Node000013_Node000014"><a xlink:title=" ">
<path fill="none" stroke="#63b8ff" d="M989.83,-102.7C971.77,-80.55 938.84,-45.22 901.5,-29 850.47,-6.83 786.74,-3.55 740.58,-4.94"/>
<polygon fill="#63b8ff" stroke="#63b8ff" points="986.96,-104.7 995.91,-110.37 992.45,-100.35 986.96,-104.7"/>
</a>
</g>
</g>
<!-- Node15 -->
<g id="Node000015" class="node">
<title>Node15</title>
<g id="a_Node000015"><a xlink:href="classxpath__ast__node.html#acbc4f5ec0e4d48444564d5101890416e" target="_top" xlink:title=" ">
<polygon fill="white" stroke="#666666" points="901.5,-58 776.75,-58 776.75,-38 901.5,-38 901.5,-58"/>
<text xml:space="preserve" text-anchor="middle" x="839.12" y="-44.5" font-family="Helvetica,sans-Serif" font-size="10.00">xpath_ast_node::step_fill</text>
</a>
</g>
</g>
<!-- Node13&#45;&gt;Node15 -->
<g id="edge29_Node000013_Node000015" class="edge">
<title>Node13&#45;&gt;Node15</title>
<g id="a_edge29_Node000013_Node000015"><a xlink:title=" ">
<path fill="none" stroke="#63b8ff" d="M973.98,-106.4C953.64,-96.19 926.2,-82.8 901.5,-72 890.7,-67.28 878.66,-62.47 868.12,-58.41"/>
<polygon fill="#63b8ff" stroke="#63b8ff" points="972.35,-109.49 982.85,-110.87 975.5,-103.24 972.35,-109.49"/>
</a>
</g>
</g>
<!-- Node15&#45;&gt;Node14 -->
<g id="edge33_Node000015_Node000014" class="edge">
<title>Node15&#45;&gt;Node14</title>
<g id="a_edge33_Node000015_Node000014"><a xlink:title=" ">
<path fill="none" stroke="#63b8ff" d="M783.2,-34.88C763.45,-30.17 741.44,-24.91 722.76,-20.45"/>
<polygon fill="#63b8ff" stroke="#63b8ff" points="782.21,-38.25 792.75,-37.16 783.84,-31.44 782.21,-38.25"/>
</a>
</g>
</g>
<!-- Node16 -->
<g id="Node000016" class="node">
<title>Node16</title>
<g id="a_Node000016"><a xlink:href="classxpath__ast__node.html#a3258c05ab9aaa78e154d2ff63fe56906" target="_top" xlink:title=" ">
<polygon fill="white" stroke="#666666" points="740.75,-197 615.25,-197 615.25,-177 740.75,-177 740.75,-197"/>
<text xml:space="preserve" text-anchor="middle" x="678" y="-183.5" font-family="Helvetica,sans-Serif" font-size="10.00">xpath_ast_node::step_do</text>
</a>
</g>
</g>
<!-- Node15&#45;&gt;Node16 -->
<g id="edge30_Node000015_Node000016" class="edge">
<title>Node15&#45;&gt;Node16</title>
<g id="a_edge30_Node000015_Node000016"><a xlink:title=" ">
<path fill="none" stroke="#63b8ff" d="M826.95,-68.19C811.16,-94.88 779.84,-141.61 740.75,-168 735.73,-171.39 730.08,-174.19 724.29,-176.51"/>
<polygon fill="#63b8ff" stroke="#63b8ff" points="829.87,-70.13 831.82,-59.72 823.8,-66.64 829.87,-70.13"/>
</a>
</g>
</g>
<!-- Node17 -->
<g id="Node000017" class="node">
<title>Node17</title>
<g id="a_Node000017"><a xlink:href="classxpath__ast__node.html#ad1bf00f367027a353dc253900e85c036" target="_top" xlink:title=" ">
<polygon fill="white" stroke="#666666" points="740.38,-58 615.62,-58 615.62,-38 740.38,-38 740.38,-58"/>
<text xml:space="preserve" text-anchor="middle" x="678" y="-44.5" font-family="Helvetica,sans-Serif" font-size="10.00">xpath_ast_node::step_fill</text>
</a>
</g>
</g>
<!-- Node15&#45;&gt;Node17 -->
<g id="edge32_Node000015_Node000017" class="edge">
<title>Node15&#45;&gt;Node17</title>
<g id="a_edge32_Node000015_Node000017"><a xlink:title=" ">
<path fill="none" stroke="#63b8ff" d="M765.12,-48C756.93,-48 748.65,-48 740.62,-48"/>
<polygon fill="#63b8ff" stroke="#63b8ff" points="765.09,-51.5 775.09,-48 765.09,-44.5 765.09,-51.5"/>
</a>
</g>
</g>
<!-- Node16&#45;&gt;Node5 -->
<g id="edge31_Node000016_Node000005" class="edge">
<title>Node16&#45;&gt;Node5</title>
<g id="a_edge31_Node000016_Node000005"><a xlink:title=" ">
<path fill="none" stroke="#63b8ff" d="M616.46,-199.81C604.26,-202.39 591.51,-205.09 579.56,-207.62"/>
<polygon fill="#63b8ff" stroke="#63b8ff" points="616.94,-203.29 625.99,-197.79 615.49,-196.44 616.94,-203.29"/>
</a>
</g>
</g>
</g>
</svg>
