<?xml version="1.0" encoding="UTF-8" standalone="no"?>
<!DOCTYPE svg PUBLIC "-//W3C//DTD SVG 1.1//EN"
 "http://www.w3.org/Graphics/SVG/1.1/DTD/svg11.dtd">
<!-- Generated by graphviz version 14.1.2 (20260124.0452)
 -->
<!-- Title: convert_string_to_number_scratch Pages: 1 -->
<svg width="460pt" height="78pt"
 viewBox="0.00 0.00 460.00 78.00" xmlns="http://www.w3.org/2000/svg" xmlns:xlink="http://www.w3.org/1999/xlink">
<g id="graph0" class="graph" transform="scale(1 1) rotate(0) translate(4 74)">
<title>convert_string_to_number_scratch</title>
<!-- Node1 -->
<g id="Node000001" class="node">
<title>Node1</title>
<g id="a_Node000001"><a xlink:title=" ">
<polygon fill="#999999" stroke="#666666" points="128.5,-48 0,-48 0,-16 128.5,-16 128.5,-48"/>
<text xml:space="preserve" text-anchor="start" x="8" y="-34.5" font-family="Helvetica,sans-Serif" font-size="10.00">convert_string_to_number</text>
<text xml:space="preserve" text-anchor="middle" x="64.25" y="-22.5" font-family="Helvetica,sans-Serif" font-size="10.00">_scratch</text>
</a>
</g>
</g>
<!-- Node2 -->
<g id="Node000002" class="node">
<title>Node2</title>
<g id="a_Node000002"><a xlink:href="pugixml_8cpp.html#ae6299198941714e42acefb1481370646" target="_top" xlink:title=" ">
<polygon fill="white" stroke="#666666" points="293,-42 164.5,-42 164.5,-22 293,-22 293,-42"/>
<text xml:space="preserve" text-anchor="middle" x="228.75" y="-28.5" font-family="Helvetica,sans-Serif" font-size="10.00">convert_string_to_number</text>
</a>
</g>
</g>
<!-- Node1&#45;&gt;Node2 -->
<g id="edge1_Node000001_Node000002" class="edge">
<title>Node1&#45;&gt;Node2</title>
<g id="a_edge1_Node000001_Node000002"><a xlink:title=" ">
<path fill="none" stroke="#63b8ff" d="M128.54,-32C136.48,-32 144.65,-32 152.74,-32"/>
<polygon fill="#63b8ff" stroke="#63b8ff" points="152.58,-35.5 162.58,-32 152.58,-28.5 152.58,-35.5"/>
</a>
</g>
</g>
<!-- Node3 -->
<g id="Node000003" class="node">
<title>Node3</title>
<g id="a_Node000003"><a xlink:href="pugixml_8cpp.html#a0bf9a61bcf9eb4888ef36942e5cd8d05" target="_top" xlink:title=" ">
<polygon fill="white" stroke="#666666" points="451.5,-70 329,-70 329,-38 451.5,-38 451.5,-70"/>
<text xml:space="preserve" text-anchor="start" x="337" y="-56.5" font-family="Helvetica,sans-Serif" font-size="10.00">check_string_to_number</text>
<text xml:space="preserve" text-anchor="middle" x="390.25" y="-44.5" font-family="Helvetica,sans-Serif" font-size="10.00">_format</text>
</a>
</g>
</g>
<!-- Node2&#45;&gt;Node3 -->
<g id="edge2_Node000002_Node000003" class="edge">
<title>Node2&#45;&gt;Node3</title>
<g id="a_edge2_Node000002_Node000003"><a xlink:title=" ">
<path fill="none" stroke="#63b8ff" d="M293.25,-40.76C301.16,-41.85 309.29,-42.97 317.32,-44.08"/>
<polygon fill="#63b8ff" stroke="#63b8ff" points="316.68,-47.52 327.07,-45.42 317.64,-40.59 316.68,-47.52"/>
</a>
</g>
</g>
<!-- Node4 -->
<g id="Node000004" class="node">
<title>Node4</title>
<g id="a_Node000004"><a xlink:href="pugixml_8cpp.html#a2f4c7e7ca3a98b25cbfa5d98dd21b300" target="_top" xlink:title=" ">
<polygon fill="white" stroke="#666666" points="416.62,-20 363.88,-20 363.88,0 416.62,0 416.62,-20"/>
<text xml:space="preserve" text-anchor="middle" x="390.25" y="-6.5" font-family="Helvetica,sans-Serif" font-size="10.00">gen_nan</text>
</a>
</g>
</g>
<!-- Node2&#45;&gt;Node4 -->
<g id="edge3_Node000002_Node000004" class="edge">
<title>Node2&#45;&gt;Node4</title>
<g id="a_edge3_Node000002_Node000004"><a xlink:title=" ">
<path fill="none" stroke="#63b8ff" d="M293.25,-23.24C313.39,-20.46 334.98,-17.49 352.57,-15.06"/>
<polygon fill="#63b8ff" stroke="#63b8ff" points="352.84,-18.55 362.27,-13.72 351.89,-11.62 352.84,-18.55"/>
</a>
</g>
</g>
</g>
</svg>
