<?xml version="1.0" encoding="UTF-8" standalone="no"?>
<!DOCTYPE svg PUBLIC "-//W3C//DTD SVG 1.1//EN"
 "http://www.w3.org/Graphics/SVG/1.1/DTD/svg11.dtd">
<!-- Generated by graphviz version 14.1.2 (20260124.0452)
 -->
<!-- Title: node_output_attributes Pages: 1 -->
<svg width="367pt" height="66pt"
 viewBox="0.00 0.00 367.00 66.00" xmlns="http://www.w3.org/2000/svg" xmlns:xlink="http://www.w3.org/1999/xlink">
<g id="graph0" class="graph" transform="scale(1 1) rotate(0) translate(4 62)">
<title>node_output_attributes</title>
<!-- Node1 -->
<g id="Node000001" class="node">
<title>Node1</title>
<g id="a_Node000001"><a xlink:title=" ">
<polygon fill="#999999" stroke="#666666" points="359.25,-39 244.25,-39 244.25,-19 359.25,-19 359.25,-39"/>
<text xml:space="preserve" text-anchor="middle" x="301.75" y="-25.5" font-family="Helvetica,sans-Serif" font-size="10.00">node_output_attributes</text>
</a>
</g>
</g>
<!-- Node2 -->
<g id="Node000002" class="node">
<title>Node2</title>
<g id="a_Node000002"><a xlink:href="pugixml_8cpp.html#ad092fd8012bad5c9f17541a832188e48" target="_top" xlink:title=" ">
<polygon fill="white" stroke="#666666" points="208.25,-58 105.25,-58 105.25,-38 208.25,-38 208.25,-58"/>
<text xml:space="preserve" text-anchor="middle" x="156.75" y="-44.5" font-family="Helvetica,sans-Serif" font-size="10.00">node_output_simple</text>
</a>
</g>
</g>
<!-- Node1&#45;&gt;Node2 -->
<g id="edge1_Node000001_Node000002" class="edge">
<title>Node1&#45;&gt;Node2</title>
<g id="a_edge1_Node000001_Node000002"><a xlink:title=" ">
<path fill="none" stroke="#63b8ff" d="M232.47,-38.07C224.39,-39.15 216.25,-40.23 208.47,-41.26"/>
<polygon fill="#63b8ff" stroke="#63b8ff" points="232.87,-41.55 242.32,-36.76 231.95,-34.61 232.87,-41.55"/>
</a>
</g>
</g>
<!-- Node4 -->
<g id="Node000004" class="node">
<title>Node4</title>
<g id="a_Node000004"><a xlink:href="pugixml_8cpp.html#ae4cd311590420ae5ef799d11433f58c0" target="_top" xlink:title=" ">
<polygon fill="white" stroke="#666666" points="203.75,-20 109.75,-20 109.75,0 203.75,0 203.75,-20"/>
<text xml:space="preserve" text-anchor="middle" x="156.75" y="-6.5" font-family="Helvetica,sans-Serif" font-size="10.00">node_output_start</text>
</a>
</g>
</g>
<!-- Node1&#45;&gt;Node4 -->
<g id="edge3_Node000001_Node000004" class="edge">
<title>Node1&#45;&gt;Node4</title>
<g id="a_edge3_Node000001_Node000004"><a xlink:title=" ">
<path fill="none" stroke="#63b8ff" d="M232.53,-19.94C222.84,-18.65 213.07,-17.35 203.93,-16.14"/>
<polygon fill="#63b8ff" stroke="#63b8ff" points="231.95,-23.39 242.32,-21.24 232.87,-16.45 231.95,-23.39"/>
</a>
</g>
</g>
<!-- Node3 -->
<g id="Node000003" class="node">
<title>Node3</title>
<g id="a_Node000003"><a xlink:href="pugixml_8cpp.html#a07c6c1e786c5022d046058c4e7ef3946" target="_top" xlink:title=" ">
<polygon fill="white" stroke="#666666" points="69.25,-39 0,-39 0,-19 69.25,-19 69.25,-39"/>
<text xml:space="preserve" text-anchor="middle" x="34.62" y="-25.5" font-family="Helvetica,sans-Serif" font-size="10.00">node_output</text>
</a>
</g>
</g>
<!-- Node2&#45;&gt;Node3 -->
<g id="edge2_Node000002_Node000003" class="edge">
<title>Node2&#45;&gt;Node3</title>
<g id="a_edge2_Node000002_Node000003"><a xlink:title=" ">
<path fill="none" stroke="#63b8ff" d="M93.57,-38.17C85.31,-36.86 77.11,-35.56 69.58,-34.37"/>
<polygon fill="#63b8ff" stroke="#63b8ff" points="92.89,-41.6 103.31,-39.71 93.98,-34.69 92.89,-41.6"/>
</a>
</g>
</g>
<!-- Node4&#45;&gt;Node3 -->
<g id="edge4_Node000004_Node000003" class="edge">
<title>Node4&#45;&gt;Node3</title>
<g id="a_edge4_Node000004_Node000003"><a xlink:title=" ">
<path fill="none" stroke="#63b8ff" d="M98.01,-19.13C88.3,-20.67 78.51,-22.22 69.65,-23.62"/>
<polygon fill="#63b8ff" stroke="#63b8ff" points="98.48,-22.6 107.81,-17.58 97.39,-15.69 98.48,-22.6"/>
</a>
</g>
</g>
</g>
</svg>
