<?xml version="1.0" encoding="UTF-8" standalone="no"?>
<!DOCTYPE svg PUBLIC "-//W3C//DTD SVG 1.1//EN"
 "http://www.w3.org/Graphics/SVG/1.1/DTD/svg11.dtd">
<!-- Generated by graphviz version 14.1.2 (20260124.0452)
 -->
<!-- Title: is_little_endian Pages: 1 -->
<svg width="681pt" height="216pt"
 viewBox="0.00 0.00 681.00 216.00" xmlns="http://www.w3.org/2000/svg" xmlns:xlink="http://www.w3.org/1999/xlink">
<g id="graph0" class="graph" transform="scale(1 1) rotate(0) translate(4 212)">
<title>is_little_endian</title>
<!-- Node1 -->
<g id="Node000001" class="node">
<title>Node1</title>
<g id="a_Node000001"><a xlink:title=" ">
<polygon fill="#999999" stroke="#666666" points="673.25,-108 592.75,-108 592.75,-88 673.25,-88 673.25,-108"/>
<text xml:space="preserve" text-anchor="middle" x="633" y="-94.5" font-family="Helvetica,sans-Serif" font-size="10.00">is_little_endian</text>
</a>
</g>
</g>
<!-- Node2 -->
<g id="Node000002" class="node">
<title>Node2</title>
<g id="a_Node000002"><a xlink:href="pugixml_8cpp.html#a94848fb07803614d93af998761be643e" target="_top" xlink:title=" ">
<polygon fill="white" stroke="#666666" points="540.62,-184 463.12,-184 463.12,-164 540.62,-164 540.62,-184"/>
<text xml:space="preserve" text-anchor="middle" x="501.88" y="-170.5" font-family="Helvetica,sans-Serif" font-size="10.00">convert_buffer</text>
</a>
</g>
</g>
<!-- Node1&#45;&gt;Node2 -->
<g id="edge1_Node000001_Node000002" class="edge">
<title>Node1&#45;&gt;Node2</title>
<g id="a_edge1_Node000001_Node000002"><a xlink:title=" ">
<path fill="none" stroke="#63b8ff" d="M612.44,-115.52C597.89,-127.85 577.11,-144.04 556.75,-155 550.72,-158.24 544.03,-161.12 537.47,-163.59"/>
<polygon fill="#63b8ff" stroke="#63b8ff" points="614.62,-118.26 619.89,-109.06 610.04,-112.97 614.62,-118.26"/>
</a>
</g>
</g>
<!-- Node3 -->
<g id="Node000003" class="node">
<title>Node3</title>
<g id="a_Node000003"><a xlink:href="pugixml_8cpp.html#a1c1e23f1d5e2345198b3a7cb72b9c76b" target="_top" xlink:title=" ">
<polygon fill="white" stroke="#666666" points="556.75,-146 447,-146 447,-126 556.75,-126 556.75,-146"/>
<text xml:space="preserve" text-anchor="middle" x="501.88" y="-132.5" font-family="Helvetica,sans-Serif" font-size="10.00">convert_buffer_output</text>
</a>
</g>
</g>
<!-- Node1&#45;&gt;Node3 -->
<g id="edge2_Node000001_Node000003" class="edge">
<title>Node1&#45;&gt;Node3</title>
<g id="a_edge2_Node000001_Node000003"><a xlink:title=" ">
<path fill="none" stroke="#63b8ff" d="M585.41,-111.71C569.91,-116.27 552.91,-121.28 538.38,-125.55"/>
<polygon fill="#63b8ff" stroke="#63b8ff" points="586.32,-115.09 594.92,-108.91 584.34,-108.38 586.32,-115.09"/>
</a>
</g>
</g>
<!-- Node5 -->
<g id="Node000005" class="node">
<title>Node5</title>
<g id="a_Node000005"><a xlink:href="pugixml_8cpp.html#aff8218b7e2530f96bbf74558e67ebdf6" target="_top" xlink:title=" ">
<polygon fill="white" stroke="#666666" points="396.75,-70 293.75,-70 293.75,-50 396.75,-50 396.75,-70"/>
<text xml:space="preserve" text-anchor="middle" x="345.25" y="-56.5" font-family="Helvetica,sans-Serif" font-size="10.00">get_buffer_encoding</text>
</a>
</g>
</g>
<!-- Node1&#45;&gt;Node5 -->
<g id="edge4_Node000001_Node000005" class="edge">
<title>Node1&#45;&gt;Node5</title>
<g id="a_edge4_Node000001_Node000005"><a xlink:title=" ">
<path fill="none" stroke="#63b8ff" d="M584.57,-84.82C575.4,-82.61 565.82,-80.54 556.75,-79 502.67,-69.79 439.97,-64.86 397.15,-62.35"/>
<polygon fill="#63b8ff" stroke="#63b8ff" points="583.48,-88.16 594.03,-87.19 585.18,-81.37 583.48,-88.16"/>
</a>
</g>
</g>
<!-- Node8 -->
<g id="Node000008" class="node">
<title>Node8</title>
<g id="a_Node000008"><a xlink:href="pugixml_8cpp.html#ac65295a489782c48a97a97e972ed61b0" target="_top" xlink:title=" ">
<polygon fill="white" stroke="#666666" points="554.5,-108 449.25,-108 449.25,-88 554.5,-88 554.5,-108"/>
<text xml:space="preserve" text-anchor="middle" x="501.88" y="-94.5" font-family="Helvetica,sans-Serif" font-size="10.00">get_wchar_encoding</text>
</a>
</g>
</g>
<!-- Node1&#45;&gt;Node8 -->
<g id="edge7_Node000001_Node000008" class="edge">
<title>Node1&#45;&gt;Node8</title>
<g id="a_edge7_Node000001_Node000008"><a xlink:title=" ">
<path fill="none" stroke="#63b8ff" d="M581.1,-98C572.5,-98 563.56,-98 554.93,-98"/>
<polygon fill="#63b8ff" stroke="#63b8ff" points="581.04,-101.5 591.04,-98 581.04,-94.5 581.04,-101.5"/>
</a>
</g>
</g>
<!-- Node9 -->
<g id="Node000009" class="node">
<title>Node9</title>
<g id="a_Node000009"><a xlink:href="pugixml_8cpp.html#a8b37b77e90cb5817784fa4d3c0fce380" target="_top" xlink:title=" ">
<polygon fill="white" stroke="#666666" points="395.25,-32 295.25,-32 295.25,-12 395.25,-12 395.25,-32"/>
<text xml:space="preserve" text-anchor="middle" x="345.25" y="-18.5" font-family="Helvetica,sans-Serif" font-size="10.00">get_write_encoding</text>
</a>
</g>
</g>
<!-- Node1&#45;&gt;Node9 -->
<g id="edge19_Node000001_Node000009" class="edge">
<title>Node1&#45;&gt;Node9</title>
<g id="a_edge19_Node000001_Node000009"><a xlink:title=" ">
<path fill="none" stroke="#63b8ff" d="M603.83,-82.38C589.99,-75.27 572.87,-67.29 556.75,-62 503.02,-44.37 438.89,-33.58 395.65,-27.71"/>
<polygon fill="#63b8ff" stroke="#63b8ff" points="601.88,-85.31 612.35,-86.88 605.14,-79.12 601.88,-85.31"/>
</a>
</g>
</g>
<!-- Node4 -->
<g id="Node000004" class="node">
<title>Node4</title>
<g id="a_Node000004"><a xlink:href="classxml__buffered__writer.html#aa733cb2cd0d5fcacec92c67a7f26c553" target="_top" xlink:title=" ">
<polygon fill="white" stroke="#666666" points="240.5,-208 139.75,-208 139.75,-176 240.5,-176 240.5,-208"/>
<text xml:space="preserve" text-anchor="start" x="147.75" y="-194.5" font-family="Helvetica,sans-Serif" font-size="10.00">xml_buffered_writer</text>
<text xml:space="preserve" text-anchor="middle" x="190.12" y="-182.5" font-family="Helvetica,sans-Serif" font-size="10.00">::flush</text>
</a>
</g>
</g>
<!-- Node3&#45;&gt;Node4 -->
<g id="edge3_Node000003_Node000004" class="edge">
<title>Node3&#45;&gt;Node4</title>
<g id="a_edge3_Node000003_Node000004"><a xlink:title=" ">
<path fill="none" stroke="#63b8ff" d="M456.74,-149.52C442.26,-153.62 426.03,-157.86 411,-161 353.07,-173.09 285.56,-181.82 240.79,-186.88"/>
<polygon fill="#63b8ff" stroke="#63b8ff" points="457.33,-152.99 465.96,-146.85 455.38,-146.27 457.33,-152.99"/>
</a>
</g>
</g>
<!-- Node6 -->
<g id="Node000006" class="node">
<title>Node6</title>
<g id="a_Node000006"><a xlink:href="pugixml_8cpp.html#aceaecd7da4188d11f224e33404cb23ba" target="_top" xlink:title=" ">
<polygon fill="white" stroke="#666666" points="227.75,-108 152.5,-108 152.5,-88 227.75,-88 227.75,-108"/>
<text xml:space="preserve" text-anchor="middle" x="190.12" y="-94.5" font-family="Helvetica,sans-Serif" font-size="10.00">load_file_impl</text>
</a>
</g>
</g>
<!-- Node5&#45;&gt;Node6 -->
<g id="edge5_Node000005_Node000006" class="edge">
<title>Node5&#45;&gt;Node6</title>
<g id="a_edge5_Node000005_Node000006"><a xlink:title=" ">
<path fill="none" stroke="#63b8ff" d="M291.07,-73.2C270.27,-78.36 246.92,-84.15 228.03,-88.84"/>
<polygon fill="#63b8ff" stroke="#63b8ff" points="291.67,-76.65 300.53,-70.85 289.98,-69.86 291.67,-76.65"/>
</a>
</g>
</g>
<!-- Node7 -->
<g id="Node000007" class="node">
<title>Node7</title>
<g id="a_Node000007"><a xlink:href="pugixml_8cpp.html#a826b7e183311c8aa4e5b25157a3b3d3f" target="_top" xlink:title=" ">
<polygon fill="white" stroke="#666666" points="236.38,-70 143.88,-70 143.88,-50 236.38,-50 236.38,-70"/>
<text xml:space="preserve" text-anchor="middle" x="190.12" y="-56.5" font-family="Helvetica,sans-Serif" font-size="10.00">load_stream_impl</text>
</a>
</g>
</g>
<!-- Node5&#45;&gt;Node7 -->
<g id="edge6_Node000005_Node000007" class="edge">
<title>Node5&#45;&gt;Node7</title>
<g id="a_edge6_Node000005_Node000007"><a xlink:title=" ">
<path fill="none" stroke="#63b8ff" d="M281.9,-60C266.79,-60 250.91,-60 236.74,-60"/>
<polygon fill="#63b8ff" stroke="#63b8ff" points="281.75,-63.5 291.75,-60 281.75,-56.5 281.75,-63.5"/>
</a>
</g>
</g>
<!-- Node8&#45;&gt;Node5 -->
<g id="edge8_Node000008_Node000005" class="edge">
<title>Node8&#45;&gt;Node5</title>
<g id="a_edge8_Node000008_Node000005"><a xlink:title=" ">
<path fill="none" stroke="#63b8ff" d="M447.24,-84.82C428.11,-80.12 406.84,-74.89 388.77,-70.45"/>
<polygon fill="#63b8ff" stroke="#63b8ff" points="446.2,-88.17 456.74,-87.15 447.87,-81.37 446.2,-88.17"/>
</a>
</g>
</g>
<!-- Node8&#45;&gt;Node9 -->
<g id="edge9_Node000008_Node000009" class="edge">
<title>Node8&#45;&gt;Node9</title>
<g id="a_edge9_Node000008_Node000009"><a xlink:title=" ">
<path fill="none" stroke="#63b8ff" d="M478.34,-81.19C460.74,-68.71 435.28,-52 411,-41 403.85,-37.76 396.01,-34.92 388.32,-32.48"/>
<polygon fill="#63b8ff" stroke="#63b8ff" points="475.87,-83.72 486.02,-86.75 479.97,-78.05 475.87,-83.72"/>
</a>
</g>
</g>
<!-- Node11 -->
<g id="Node000011" class="node">
<title>Node11</title>
<g id="a_Node000011"><a xlink:href="pugixml_8cpp.html#a9ffc09483eb40cb8f51996b8d25cd099" target="_top" xlink:title=" ">
<polygon fill="white" stroke="#666666" points="411,-152 279.5,-152 279.5,-132 411,-132 411,-152"/>
<text xml:space="preserve" text-anchor="middle" x="345.25" y="-138.5" font-family="Helvetica,sans-Serif" font-size="10.00">get_write_native_encoding</text>
</a>
</g>
</g>
<!-- Node8&#45;&gt;Node11 -->
<g id="edge11_Node000008_Node000011" class="edge">
<title>Node8&#45;&gt;Node11</title>
<g id="a_edge11_Node000008_Node000011"><a xlink:title=" ">
<path fill="none" stroke="#63b8ff" d="M453.46,-111.49C430.76,-117.95 404,-125.57 382.9,-131.57"/>
<polygon fill="#63b8ff" stroke="#63b8ff" points="454.12,-114.95 462.78,-108.84 452.2,-108.21 454.12,-114.95"/>
</a>
</g>
</g>
<!-- Node15 -->
<g id="Node000015" class="node">
<title>Node15</title>
<g id="a_Node000015"><a xlink:href="pugixml_8cpp.html#af6a1ac44e5fd3b802b252f68c665c4c5" target="_top" xlink:title=" ">
<polygon fill="white" stroke="#666666" points="400.12,-108 290.38,-108 290.38,-88 400.12,-88 400.12,-108"/>
<text xml:space="preserve" text-anchor="middle" x="345.25" y="-94.5" font-family="Helvetica,sans-Serif" font-size="10.00">zero_terminate_buffer</text>
</a>
</g>
</g>
<!-- Node8&#45;&gt;Node15 -->
<g id="edge16_Node000008_Node000015" class="edge">
<title>Node8&#45;&gt;Node15</title>
<g id="a_edge16_Node000008_Node000015"><a xlink:title=" ">
<path fill="none" stroke="#63b8ff" d="M437.76,-98C425.37,-98 412.47,-98 400.41,-98"/>
<polygon fill="#63b8ff" stroke="#63b8ff" points="437.44,-101.5 447.44,-98 437.44,-94.5 437.44,-101.5"/>
</a>
</g>
</g>
<!-- Node10 -->
<g id="Node000010" class="node">
<title>Node10</title>
<g id="a_Node000010"><a xlink:href="classxml__buffered__writer.html#a3c22ad246e2aebb6597935baf4a223a7" target="_top" xlink:title=" ">
<polygon fill="white" stroke="#666666" points="243.5,-32 136.75,-32 136.75,0 243.5,0 243.5,-32"/>
<text xml:space="preserve" text-anchor="start" x="144.75" y="-18.5" font-family="Helvetica,sans-Serif" font-size="10.00">xml_buffered_writer</text>
<text xml:space="preserve" text-anchor="middle" x="190.12" y="-6.5" font-family="Helvetica,sans-Serif" font-size="10.00">::xml_buffered_writer</text>
</a>
</g>
</g>
<!-- Node9&#45;&gt;Node10 -->
<g id="edge10_Node000009_Node000010" class="edge">
<title>Node9&#45;&gt;Node10</title>
<g id="a_edge10_Node000009_Node000010"><a xlink:title=" ">
<path fill="none" stroke="#63b8ff" d="M283.59,-19.62C270.42,-19.11 256.59,-18.57 243.76,-18.06"/>
<polygon fill="#63b8ff" stroke="#63b8ff" points="283.32,-23.11 293.45,-20.01 283.59,-16.12 283.32,-23.11"/>
</a>
</g>
</g>
<!-- Node11&#45;&gt;Node4 -->
<g id="edge12_Node000011_Node000004" class="edge">
<title>Node11&#45;&gt;Node4</title>
<g id="a_edge12_Node000011_Node000004"><a xlink:title=" ">
<path fill="none" stroke="#63b8ff" d="M301.26,-156.04C282.52,-162.16 260.43,-169.37 240.97,-175.72"/>
<polygon fill="#63b8ff" stroke="#63b8ff" points="302.29,-159.38 310.71,-152.95 300.12,-152.73 302.29,-159.38"/>
</a>
</g>
</g>
<!-- Node12 -->
<g id="Node000012" class="node">
<title>Node12</title>
<g id="a_Node000012"><a xlink:href="classxml__buffered__writer.html#a119f9db2f60e578e69ac81177e932fb3" target="_top" xlink:title=" ">
<polygon fill="white" stroke="#666666" points="240.5,-158 139.75,-158 139.75,-126 240.5,-126 240.5,-158"/>
<text xml:space="preserve" text-anchor="start" x="147.75" y="-144.5" font-family="Helvetica,sans-Serif" font-size="10.00">xml_buffered_writer</text>
<text xml:space="preserve" text-anchor="middle" x="190.12" y="-132.5" font-family="Helvetica,sans-Serif" font-size="10.00">::write_direct</text>
</a>
</g>
</g>
<!-- Node11&#45;&gt;Node12 -->
<g id="edge13_Node000011_Node000012" class="edge">
<title>Node11&#45;&gt;Node12</title>
<g id="a_edge13_Node000011_Node000012"><a xlink:title=" ">
<path fill="none" stroke="#63b8ff" d="M268.07,-142C258.82,-142 249.56,-142 240.83,-142"/>
<polygon fill="#63b8ff" stroke="#63b8ff" points="267.8,-145.5 277.8,-142 267.8,-138.5 267.8,-145.5"/>
</a>
</g>
</g>
<!-- Node13 -->
<g id="Node000013" class="node">
<title>Node13</title>
<g id="a_Node000013"><a xlink:href="classxml__buffered__writer.html#ae62b84beff660555acb76e277f967c0d" target="_top" xlink:title=" ">
<polygon fill="white" stroke="#666666" points="100.75,-183 0,-183 0,-151 100.75,-151 100.75,-183"/>
<text xml:space="preserve" text-anchor="start" x="8" y="-169.5" font-family="Helvetica,sans-Serif" font-size="10.00">xml_buffered_writer</text>
<text xml:space="preserve" text-anchor="middle" x="50.38" y="-157.5" font-family="Helvetica,sans-Serif" font-size="10.00">::write_buffer</text>
</a>
</g>
</g>
<!-- Node12&#45;&gt;Node13 -->
<g id="edge14_Node000012_Node000013" class="edge">
<title>Node12&#45;&gt;Node13</title>
<g id="a_edge14_Node000012_Node000013"><a xlink:title=" ">
<path fill="none" stroke="#63b8ff" d="M128.08,-153.08C119.04,-154.72 109.81,-156.4 101.03,-157.99"/>
<polygon fill="#63b8ff" stroke="#63b8ff" points="128.69,-156.53 137.9,-151.3 127.44,-149.64 128.69,-156.53"/>
</a>
</g>
</g>
<!-- Node14 -->
<g id="Node000014" class="node">
<title>Node14</title>
<g id="a_Node000014"><a xlink:href="classxml__buffered__writer.html#a1699556c38e942f7c1db1b98ddf15642" target="_top" xlink:title=" ">
<polygon fill="white" stroke="#666666" points="100.75,-133 0,-133 0,-101 100.75,-101 100.75,-133"/>
<text xml:space="preserve" text-anchor="start" x="8" y="-119.5" font-family="Helvetica,sans-Serif" font-size="10.00">xml_buffered_writer</text>
<text xml:space="preserve" text-anchor="middle" x="50.38" y="-107.5" font-family="Helvetica,sans-Serif" font-size="10.00">::write_string</text>
</a>
</g>
</g>
<!-- Node12&#45;&gt;Node14 -->
<g id="edge15_Node000012_Node000014" class="edge">
<title>Node12&#45;&gt;Node14</title>
<g id="a_edge15_Node000012_Node000014"><a xlink:title=" ">
<path fill="none" stroke="#63b8ff" d="M128.08,-130.92C119.04,-129.28 109.81,-127.6 101.03,-126.01"/>
<polygon fill="#63b8ff" stroke="#63b8ff" points="127.44,-134.36 137.9,-132.7 128.69,-127.47 127.44,-134.36"/>
</a>
</g>
</g>
<!-- Node15&#45;&gt;Node6 -->
<g id="edge17_Node000015_Node000006" class="edge">
<title>Node15&#45;&gt;Node6</title>
<g id="a_edge17_Node000015_Node000006"><a xlink:title=" ">
<path fill="none" stroke="#63b8ff" d="M278.93,-98C261.45,-98 243.17,-98 227.84,-98"/>
<polygon fill="#63b8ff" stroke="#63b8ff" points="278.75,-101.5 288.75,-98 278.75,-94.5 278.75,-101.5"/>
</a>
</g>
</g>
<!-- Node15&#45;&gt;Node7 -->
<g id="edge18_Node000015_Node000007" class="edge">
<title>Node15&#45;&gt;Node7</title>
<g id="a_edge18_Node000015_Node000007"><a xlink:title=" ">
<path fill="none" stroke="#63b8ff" d="M290.87,-84.75C271.99,-80.07 251.04,-74.87 233.23,-70.45"/>
<polygon fill="#63b8ff" stroke="#63b8ff" points="289.98,-88.14 300.53,-87.15 291.67,-81.35 289.98,-88.14"/>
</a>
</g>
</g>
</g>
</svg>
