<?xml version="1.0" encoding="UTF-8" standalone="no"?>
<!DOCTYPE svg PUBLIC "-//W3C//DTD SVG 1.1//EN"
 "http://www.w3.org/Graphics/SVG/1.1/DTD/svg11.dtd">
<!-- Generated by graphviz version 14.1.2 (20260124.0452)
 -->
<!-- Title: open_file_wide Pages: 1 -->
<svg width="497pt" height="104pt"
 viewBox="0.00 0.00 497.00 104.00" xmlns="http://www.w3.org/2000/svg" xmlns:xlink="http://www.w3.org/1999/xlink">
<g id="graph0" class="graph" transform="scale(1 1) rotate(0) translate(4 100)">
<title>open_file_wide</title>
<!-- Node1 -->
<g id="Node000001" class="node">
<title>Node1</title>
<g id="a_Node000001"><a xlink:title=" ">
<polygon fill="#999999" stroke="#666666" points="80.5,-58 0,-58 0,-38 80.5,-38 80.5,-58"/>
<text xml:space="preserve" text-anchor="middle" x="40.25" y="-44.5" font-family="Helvetica,sans-Serif" font-size="10.00">open_file_wide</text>
</a>
</g>
</g>
<!-- Node2 -->
<g id="Node000002" class="node">
<title>Node2</title>
<g id="a_Node000002"><a xlink:href="pugixml_8cpp.html#a7ef56215d3592711fc4df8df27a746b4" target="_top" xlink:title=" ">
<polygon fill="white" stroke="#666666" points="215,-58 116.5,-58 116.5,-38 215,-38 215,-58"/>
<text xml:space="preserve" text-anchor="middle" x="165.75" y="-44.5" font-family="Helvetica,sans-Serif" font-size="10.00">convert_path_heap</text>
</a>
</g>
</g>
<!-- Node1&#45;&gt;Node2 -->
<g id="edge1_Node000001_Node000002" class="edge">
<title>Node1&#45;&gt;Node2</title>
<g id="a_edge1_Node000001_Node000002"><a xlink:title=" ">
<path fill="none" stroke="#63b8ff" d="M80.67,-48C88.34,-48 96.55,-48 104.72,-48"/>
<polygon fill="#63b8ff" stroke="#63b8ff" points="104.67,-51.5 114.67,-48 104.67,-44.5 104.67,-51.5"/>
</a>
</g>
</g>
<!-- Node3 -->
<g id="Node000003" class="node">
<title>Node3</title>
<g id="a_Node000003"><a xlink:href="pugixml_8cpp.html#a1f5495dbea9f9b5d93590e5896b118e0" target="_top" xlink:title=" ">
<polygon fill="white" stroke="#666666" points="328.88,-96 252.12,-96 252.12,-76 328.88,-76 328.88,-96"/>
<text xml:space="preserve" text-anchor="middle" x="290.5" y="-82.5" font-family="Helvetica,sans-Serif" font-size="10.00">as_utf8_begin</text>
</a>
</g>
</g>
<!-- Node2&#45;&gt;Node3 -->
<g id="edge2_Node000002_Node000003" class="edge">
<title>Node2&#45;&gt;Node3</title>
<g id="a_edge2_Node000002_Node000003"><a xlink:title=" ">
<path fill="none" stroke="#63b8ff" d="M200.62,-58.48C214.3,-62.72 230.29,-67.67 244.9,-72.19"/>
<polygon fill="#63b8ff" stroke="#63b8ff" points="243.71,-75.49 254.3,-75.1 245.78,-68.8 243.71,-75.49"/>
</a>
</g>
</g>
<!-- Node5 -->
<g id="Node000005" class="node">
<title>Node5</title>
<g id="a_Node000005"><a xlink:href="pugixml_8cpp.html#a7f34bdce6ab8f9a6290abae16323023d" target="_top" xlink:title=" ">
<polygon fill="white" stroke="#666666" points="325.12,-58 255.88,-58 255.88,-38 325.12,-38 325.12,-58"/>
<text xml:space="preserve" text-anchor="middle" x="290.5" y="-44.5" font-family="Helvetica,sans-Serif" font-size="10.00">as_utf8_end</text>
</a>
</g>
</g>
<!-- Node2&#45;&gt;Node5 -->
<g id="edge4_Node000002_Node000005" class="edge">
<title>Node2&#45;&gt;Node5</title>
<g id="a_edge4_Node000002_Node000005"><a xlink:title=" ">
<path fill="none" stroke="#63b8ff" d="M215.26,-48C224.89,-48 234.95,-48 244.46,-48"/>
<polygon fill="#63b8ff" stroke="#63b8ff" points="244.19,-51.5 254.19,-48 244.19,-44.5 244.19,-51.5"/>
</a>
</g>
</g>
<!-- Node6 -->
<g id="Node000006" class="node">
<title>Node6</title>
<g id="a_Node000006"><a xlink:href="pugixml_8cpp.html#a2260a7e81d25e3e004803e60875a4c63" target="_top" xlink:title=" ">
<polygon fill="white" stroke="#666666" points="330,-20 251,-20 251,0 330,0 330,-20"/>
<text xml:space="preserve" text-anchor="middle" x="290.5" y="-6.5" font-family="Helvetica,sans-Serif" font-size="10.00">strlength_wide</text>
</a>
</g>
</g>
<!-- Node2&#45;&gt;Node6 -->
<g id="edge6_Node000002_Node000006" class="edge">
<title>Node2&#45;&gt;Node6</title>
<g id="a_edge6_Node000002_Node000006"><a xlink:title=" ">
<path fill="none" stroke="#63b8ff" d="M200.62,-37.52C214.3,-33.28 230.29,-28.33 244.9,-23.81"/>
<polygon fill="#63b8ff" stroke="#63b8ff" points="245.78,-27.2 254.3,-20.9 243.71,-20.51 245.78,-27.2"/>
</a>
</g>
</g>
<!-- Node4 -->
<g id="Node000004" class="node">
<title>Node4</title>
<g id="a_Node000004"><a xlink:href="structwchar__decoder.html#a965801bc1ce931281e10ee153586071c" target="_top" xlink:title=" ">
<polygon fill="white" stroke="#666666" points="488.5,-77 366,-77 366,-57 488.5,-57 488.5,-77"/>
<text xml:space="preserve" text-anchor="middle" x="427.25" y="-63.5" font-family="Helvetica,sans-Serif" font-size="10.00">wchar_decoder::process</text>
</a>
</g>
</g>
<!-- Node3&#45;&gt;Node4 -->
<g id="edge3_Node000003_Node000004" class="edge">
<title>Node3&#45;&gt;Node4</title>
<g id="a_edge3_Node000003_Node000004"><a xlink:title=" ">
<path fill="none" stroke="#63b8ff" d="M329.04,-80.71C337.03,-79.58 345.73,-78.35 354.52,-77.11"/>
<polygon fill="#63b8ff" stroke="#63b8ff" points="354.76,-80.62 364.17,-75.75 353.78,-73.68 354.76,-80.62"/>
</a>
</g>
</g>
<!-- Node5&#45;&gt;Node4 -->
<g id="edge5_Node000005_Node000004" class="edge">
<title>Node5&#45;&gt;Node4</title>
<g id="a_edge5_Node000005_Node000004"><a xlink:title=" ">
<path fill="none" stroke="#63b8ff" d="M325.5,-52.79C334.34,-54.04 344.2,-55.43 354.2,-56.84"/>
<polygon fill="#63b8ff" stroke="#63b8ff" points="353.61,-60.29 364,-58.22 354.59,-53.36 353.61,-60.29"/>
</a>
</g>
</g>
</g>
</svg>
