<?xml version="1.0" encoding="UTF-8" standalone="no"?>
<!DOCTYPE svg PUBLIC "-//W3C//DTD SVG 1.1//EN"
 "http://www.w3.org/Graphics/SVG/1.1/DTD/svg11.dtd">
<!-- Generated by graphviz version 14.1.2 (20260124.0452)
 -->
<!-- Title: convert_path_heap Pages: 1 -->
<svg width="380pt" height="104pt"
 viewBox="0.00 0.00 380.00 104.00" xmlns="http://www.w3.org/2000/svg" xmlns:xlink="http://www.w3.org/1999/xlink">
<g id="graph0" class="graph" transform="scale(1 1) rotate(0) translate(4 100)">
<title>convert_path_heap</title>
<!-- Node1 -->
<g id="Node000001" class="node">
<title>Node1</title>
<g id="a_Node000001"><a xlink:title=" ">
<polygon fill="#999999" stroke="#666666" points="98.5,-58 0,-58 0,-38 98.5,-38 98.5,-58"/>
<text xml:space="preserve" text-anchor="middle" x="49.25" y="-44.5" font-family="Helvetica,sans-Serif" font-size="10.00">convert_path_heap</text>
</a>
</g>
</g>
<!-- Node2 -->
<g id="Node000002" class="node">
<title>Node2</title>
<g id="a_Node000002"><a xlink:href="pugixml_8cpp.html#a1f5495dbea9f9b5d93590e5896b118e0" target="_top" xlink:title=" ">
<polygon fill="white" stroke="#666666" points="212.38,-96 135.62,-96 135.62,-76 212.38,-76 212.38,-96"/>
<text xml:space="preserve" text-anchor="middle" x="174" y="-82.5" font-family="Helvetica,sans-Serif" font-size="10.00">as_utf8_begin</text>
</a>
</g>
</g>
<!-- Node1&#45;&gt;Node2 -->
<g id="edge1_Node000001_Node000002" class="edge">
<title>Node1&#45;&gt;Node2</title>
<g id="a_edge1_Node000001_Node000002"><a xlink:title=" ">
<path fill="none" stroke="#63b8ff" d="M84.12,-58.48C97.8,-62.72 113.79,-67.67 128.4,-72.19"/>
<polygon fill="#63b8ff" stroke="#63b8ff" points="127.21,-75.49 137.8,-75.1 129.28,-68.8 127.21,-75.49"/>
</a>
</g>
</g>
<!-- Node4 -->
<g id="Node000004" class="node">
<title>Node4</title>
<g id="a_Node000004"><a xlink:href="pugixml_8cpp.html#a7f34bdce6ab8f9a6290abae16323023d" target="_top" xlink:title=" ">
<polygon fill="white" stroke="#666666" points="208.62,-58 139.38,-58 139.38,-38 208.62,-38 208.62,-58"/>
<text xml:space="preserve" text-anchor="middle" x="174" y="-44.5" font-family="Helvetica,sans-Serif" font-size="10.00">as_utf8_end</text>
</a>
</g>
</g>
<!-- Node1&#45;&gt;Node4 -->
<g id="edge3_Node000001_Node000004" class="edge">
<title>Node1&#45;&gt;Node4</title>
<g id="a_edge3_Node000001_Node000004"><a xlink:title=" ">
<path fill="none" stroke="#63b8ff" d="M98.76,-48C108.39,-48 118.45,-48 127.96,-48"/>
<polygon fill="#63b8ff" stroke="#63b8ff" points="127.69,-51.5 137.69,-48 127.69,-44.5 127.69,-51.5"/>
</a>
</g>
</g>
<!-- Node5 -->
<g id="Node000005" class="node">
<title>Node5</title>
<g id="a_Node000005"><a xlink:href="pugixml_8cpp.html#a2260a7e81d25e3e004803e60875a4c63" target="_top" xlink:title=" ">
<polygon fill="white" stroke="#666666" points="213.5,-20 134.5,-20 134.5,0 213.5,0 213.5,-20"/>
<text xml:space="preserve" text-anchor="middle" x="174" y="-6.5" font-family="Helvetica,sans-Serif" font-size="10.00">strlength_wide</text>
</a>
</g>
</g>
<!-- Node1&#45;&gt;Node5 -->
<g id="edge5_Node000001_Node000005" class="edge">
<title>Node1&#45;&gt;Node5</title>
<g id="a_edge5_Node000001_Node000005"><a xlink:title=" ">
<path fill="none" stroke="#63b8ff" d="M84.12,-37.52C97.8,-33.28 113.79,-28.33 128.4,-23.81"/>
<polygon fill="#63b8ff" stroke="#63b8ff" points="129.28,-27.2 137.8,-20.9 127.21,-20.51 129.28,-27.2"/>
</a>
</g>
</g>
<!-- Node3 -->
<g id="Node000003" class="node">
<title>Node3</title>
<g id="a_Node000003"><a xlink:href="structwchar__decoder.html#a965801bc1ce931281e10ee153586071c" target="_top" xlink:title=" ">
<polygon fill="white" stroke="#666666" points="372,-77 249.5,-77 249.5,-57 372,-57 372,-77"/>
<text xml:space="preserve" text-anchor="middle" x="310.75" y="-63.5" font-family="Helvetica,sans-Serif" font-size="10.00">wchar_decoder::process</text>
</a>
</g>
</g>
<!-- Node2&#45;&gt;Node3 -->
<g id="edge2_Node000002_Node000003" class="edge">
<title>Node2&#45;&gt;Node3</title>
<g id="a_edge2_Node000002_Node000003"><a xlink:title=" ">
<path fill="none" stroke="#63b8ff" d="M212.54,-80.71C220.53,-79.58 229.23,-78.35 238.02,-77.11"/>
<polygon fill="#63b8ff" stroke="#63b8ff" points="238.26,-80.62 247.67,-75.75 237.28,-73.68 238.26,-80.62"/>
</a>
</g>
</g>
<!-- Node4&#45;&gt;Node3 -->
<g id="edge4_Node000004_Node000003" class="edge">
<title>Node4&#45;&gt;Node3</title>
<g id="a_edge4_Node000004_Node000003"><a xlink:title=" ">
<path fill="none" stroke="#63b8ff" d="M209,-52.79C217.84,-54.04 227.7,-55.43 237.7,-56.84"/>
<polygon fill="#63b8ff" stroke="#63b8ff" points="237.11,-60.29 247.5,-58.22 238.09,-53.36 237.11,-60.29"/>
</a>
</g>
</g>
</g>
</svg>
