<?xml version="1.0" encoding="UTF-8" standalone="no"?>
<!DOCTYPE svg PUBLIC "-//W3C//DTD SVG 1.1//EN"
 "http://www.w3.org/Graphics/SVG/1.1/DTD/svg11.dtd">
<!-- Generated by graphviz version 14.1.2 (20260124.0452)
 -->
<!-- Title: node_copy_string Pages: 1 -->
<svg width="1071pt" height="185pt"
 viewBox="0.00 0.00 1071.00 185.00" xmlns="http://www.w3.org/2000/svg" xmlns:xlink="http://www.w3.org/1999/xlink">
<g id="graph0" class="graph" transform="scale(1 1) rotate(0) translate(4 181)">
<title>node_copy_string</title>
<!-- Node1 -->
<g id="Node000001" class="node">
<title>Node1</title>
<g id="a_Node000001"><a xlink:title=" ">
<polygon fill="#999999" stroke="#666666" points="92.5,-39 0,-39 0,-19 92.5,-19 92.5,-39"/>
<text xml:space="preserve" text-anchor="middle" x="46.25" y="-25.5" font-family="Helvetica,sans-Serif" font-size="10.00">node_copy_string</text>
</a>
</g>
</g>
<!-- Node2 -->
<g id="Node000002" class="node">
<title>Node2</title>
<g id="a_Node000002"><a xlink:href="pugixml_8cpp.html#a6acbb945c483e413572aadd55a2c8712" target="_top" xlink:title=" ">
<polygon fill="white" stroke="#666666" points="200,-77 128.5,-77 128.5,-57 200,-57 200,-77"/>
<text xml:space="preserve" text-anchor="middle" x="164.25" y="-63.5" font-family="Helvetica,sans-Serif" font-size="10.00">strcpy_insitu</text>
</a>
</g>
</g>
<!-- Node1&#45;&gt;Node2 -->
<g id="edge1_Node000001_Node000002" class="edge">
<title>Node1&#45;&gt;Node2</title>
<g id="a_edge1_Node000001_Node000002"><a xlink:title=" ">
<path fill="none" stroke="#63b8ff" d="M79.25,-39.48C92.06,-43.68 107,-48.57 120.69,-53.06"/>
<polygon fill="#63b8ff" stroke="#63b8ff" points="119.32,-56.29 129.91,-56.08 121.5,-49.64 119.32,-56.29"/>
</a>
</g>
</g>
<!-- Node13 -->
<g id="Node000013" class="node">
<title>Node13</title>
<g id="a_Node000013"><a xlink:href="pugixml_8cpp.html#a775f7b78d2f13c1b72d69b114599461d" target="_top" xlink:title=" ">
<polygon fill="white" stroke="#666666" points="484.75,-20 431.25,-20 431.25,0 484.75,0 484.75,-20"/>
<text xml:space="preserve" text-anchor="middle" x="458" y="-6.5" font-family="Helvetica,sans-Serif" font-size="10.00">strlength</text>
</a>
</g>
</g>
<!-- Node1&#45;&gt;Node13 -->
<g id="edge13_Node000001_Node000013" class="edge">
<title>Node1&#45;&gt;Node13</title>
<g id="a_edge13_Node000001_Node000013"><a xlink:title=" ">
<path fill="none" stroke="#63b8ff" d="M92.92,-23.11C131.09,-18.49 186.99,-12.46 236,-10 300.41,-6.77 375.52,-7.78 419.5,-8.86"/>
<polygon fill="#63b8ff" stroke="#63b8ff" points="419.18,-12.35 429.27,-9.11 419.37,-5.35 419.18,-12.35"/>
</a>
</g>
</g>
<!-- Node3 -->
<g id="Node000003" class="node">
<title>Node3</title>
<g id="a_Node000003"><a xlink:href="structxml__allocator.html#a19732d75c0ba4b799d32a285fcb58027" target="_top" xlink:title=" ">
<polygon fill="white" stroke="#666666" points="354.75,-177 241.25,-177 241.25,-145 354.75,-145 354.75,-177"/>
<text xml:space="preserve" text-anchor="start" x="249.25" y="-163.5" font-family="Helvetica,sans-Serif" font-size="10.00">xml_allocator::allocate</text>
<text xml:space="preserve" text-anchor="middle" x="298" y="-151.5" font-family="Helvetica,sans-Serif" font-size="10.00">_string</text>
</a>
</g>
</g>
<!-- Node2&#45;&gt;Node3 -->
<g id="edge2_Node000002_Node000003" class="edge">
<title>Node2&#45;&gt;Node3</title>
<g id="a_edge2_Node000002_Node000003"><a xlink:title=" ">
<path fill="none" stroke="#63b8ff" d="M173.43,-77.15C185.69,-91.82 210.18,-119.05 236,-136 237.79,-137.18 239.65,-138.32 241.56,-139.42"/>
<polygon fill="#63b8ff" stroke="#63b8ff" points="239.55,-142.31 250.03,-143.88 242.81,-136.12 239.55,-142.31"/>
</a>
</g>
</g>
<!-- Node8 -->
<g id="Node000008" class="node">
<title>Node8</title>
<g id="a_Node000008"><a xlink:href="structxml__allocator.html#af32c538db4d562c2d0bfe15f7c0aa879" target="_top" xlink:title=" ">
<polygon fill="white" stroke="#666666" points="360,-127 236,-127 236,-95 360,-95 360,-127"/>
<text xml:space="preserve" text-anchor="start" x="244" y="-113.5" font-family="Helvetica,sans-Serif" font-size="10.00">xml_allocator::deallocate</text>
<text xml:space="preserve" text-anchor="middle" x="298" y="-101.5" font-family="Helvetica,sans-Serif" font-size="10.00">_string</text>
</a>
</g>
</g>
<!-- Node2&#45;&gt;Node8 -->
<g id="edge7_Node000002_Node000008" class="edge">
<title>Node2&#45;&gt;Node8</title>
<g id="a_edge7_Node000002_Node000008"><a xlink:title=" ">
<path fill="none" stroke="#63b8ff" d="M196.47,-77.43C208.66,-81.5 223.06,-86.31 237.1,-90.99"/>
<polygon fill="#63b8ff" stroke="#63b8ff" points="235.69,-94.21 246.28,-94.06 237.91,-87.57 235.69,-94.21"/>
</a>
</g>
</g>
<!-- Node11 -->
<g id="Node000011" class="node">
<title>Node11</title>
<g id="a_Node000011"><a xlink:href="structxml__allocator.html#ac831a283ec3bcbe22fd3ce3be98ec347" target="_top" xlink:title=" ">
<polygon fill="white" stroke="#666666" points="354,-77 242,-77 242,-57 354,-57 354,-77"/>
<text xml:space="preserve" text-anchor="middle" x="298" y="-63.5" font-family="Helvetica,sans-Serif" font-size="10.00">xml_allocator::reserve</text>
</a>
</g>
</g>
<!-- Node2&#45;&gt;Node11 -->
<g id="edge10_Node000002_Node000011" class="edge">
<title>Node2&#45;&gt;Node11</title>
<g id="a_edge10_Node000002_Node000011"><a xlink:title=" ">
<path fill="none" stroke="#63b8ff" d="M200.21,-67C209.56,-67 219.98,-67 230.43,-67"/>
<polygon fill="#63b8ff" stroke="#63b8ff" points="230.21,-70.5 240.21,-67 230.21,-63.5 230.21,-70.5"/>
</a>
</g>
</g>
<!-- Node12 -->
<g id="Node000012" class="node">
<title>Node12</title>
<g id="a_Node000012"><a xlink:href="pugixml_8cpp.html#afeaebb026671399f617b36e27fa92234" target="_top" xlink:title=" ">
<polygon fill="white" stroke="#666666" points="347.62,-39 248.38,-39 248.38,-19 347.62,-19 347.62,-39"/>
<text xml:space="preserve" text-anchor="middle" x="298" y="-25.5" font-family="Helvetica,sans-Serif" font-size="10.00">strcpy_insitu_allow</text>
</a>
</g>
</g>
<!-- Node2&#45;&gt;Node12 -->
<g id="edge11_Node000002_Node000012" class="edge">
<title>Node2&#45;&gt;Node12</title>
<g id="a_edge11_Node000002_Node000012"><a xlink:title=" ">
<path fill="none" stroke="#63b8ff" d="M200.21,-56.92C215.45,-52.52 233.54,-47.3 249.93,-42.58"/>
<polygon fill="#63b8ff" stroke="#63b8ff" points="250.86,-45.95 259.5,-39.82 248.92,-39.22 250.86,-45.95"/>
</a>
</g>
</g>
<!-- Node4 -->
<g id="Node000004" class="node">
<title>Node4</title>
<g id="a_Node000004"><a xlink:href="structxml__allocator.html#a02a8725611785568ceae7a0eea3eca76" target="_top" xlink:title=" ">
<polygon fill="white" stroke="#666666" points="514.75,-177 401.25,-177 401.25,-145 514.75,-145 514.75,-177"/>
<text xml:space="preserve" text-anchor="start" x="409.25" y="-163.5" font-family="Helvetica,sans-Serif" font-size="10.00">xml_allocator::allocate</text>
<text xml:space="preserve" text-anchor="middle" x="458" y="-151.5" font-family="Helvetica,sans-Serif" font-size="10.00">_memory</text>
</a>
</g>
</g>
<!-- Node3&#45;&gt;Node4 -->
<g id="edge3_Node000003_Node000004" class="edge">
<title>Node3&#45;&gt;Node4</title>
<g id="a_edge3_Node000003_Node000004"><a xlink:title=" ">
<path fill="none" stroke="#63b8ff" d="M355.15,-161C366.26,-161 378.03,-161 389.47,-161"/>
<polygon fill="#63b8ff" stroke="#63b8ff" points="389.25,-164.5 399.25,-161 389.25,-157.5 389.25,-164.5"/>
</a>
</g>
</g>
<!-- Node5 -->
<g id="Node000005" class="node">
<title>Node5</title>
<g id="a_Node000005"><a xlink:href="structxml__allocator.html#ae010e1cb3ad4e8f1235ad94ea4c542ee" target="_top" xlink:title=" ">
<polygon fill="white" stroke="#666666" points="687.88,-177 574.38,-177 574.38,-145 687.88,-145 687.88,-177"/>
<text xml:space="preserve" text-anchor="start" x="582.38" y="-163.5" font-family="Helvetica,sans-Serif" font-size="10.00">xml_allocator::allocate</text>
<text xml:space="preserve" text-anchor="middle" x="631.12" y="-151.5" font-family="Helvetica,sans-Serif" font-size="10.00">_memory_oob</text>
</a>
</g>
</g>
<!-- Node4&#45;&gt;Node5 -->
<g id="edge4_Node000004_Node000005" class="edge">
<title>Node4&#45;&gt;Node5</title>
<g id="a_edge4_Node000004_Node000005"><a xlink:title=" ">
<path fill="none" stroke="#63b8ff" d="M515.03,-161C530.25,-161 546.89,-161 562.66,-161"/>
<polygon fill="#63b8ff" stroke="#63b8ff" points="562.45,-164.5 572.45,-161 562.45,-157.5 562.45,-164.5"/>
</a>
</g>
</g>
<!-- Node6 -->
<g id="Node000006" class="node">
<title>Node6</title>
<g id="a_Node000006"><a xlink:href="structxml__allocator.html#ad07a6aa6876c8c5a5536d409c01d88e5" target="_top" xlink:title=" ">
<polygon fill="white" stroke="#666666" points="882,-171 742.25,-171 742.25,-151 882,-151 882,-171"/>
<text xml:space="preserve" text-anchor="middle" x="812.12" y="-157.5" font-family="Helvetica,sans-Serif" font-size="10.00">xml_allocator::allocate_page</text>
</a>
</g>
</g>
<!-- Node5&#45;&gt;Node6 -->
<g id="edge5_Node000005_Node000006" class="edge">
<title>Node5&#45;&gt;Node6</title>
<g id="a_edge5_Node000005_Node000006"><a xlink:title=" ">
<path fill="none" stroke="#63b8ff" d="M688.27,-161C701.7,-161 716.3,-161 730.59,-161"/>
<polygon fill="#63b8ff" stroke="#63b8ff" points="730.44,-164.5 740.44,-161 730.44,-157.5 730.44,-164.5"/>
</a>
</g>
</g>
<!-- Node7 -->
<g id="Node000007" class="node">
<title>Node7</title>
<g id="a_Node000007"><a xlink:href="structxml__memory__page.html#a071bb9cc9aeccef1655c1336b16472a5" target="_top" xlink:title=" ">
<polygon fill="white" stroke="#666666" points="1063,-171 918,-171 918,-151 1063,-151 1063,-171"/>
<text xml:space="preserve" text-anchor="middle" x="990.5" y="-157.5" font-family="Helvetica,sans-Serif" font-size="10.00">xml_memory_page::construct</text>
</a>
</g>
</g>
<!-- Node6&#45;&gt;Node7 -->
<g id="edge6_Node000006_Node000007" class="edge">
<title>Node6&#45;&gt;Node7</title>
<g id="a_edge6_Node000006_Node000007"><a xlink:title=" ">
<path fill="none" stroke="#63b8ff" d="M882.33,-161C890.2,-161 898.28,-161 906.31,-161"/>
<polygon fill="#63b8ff" stroke="#63b8ff" points="906.08,-164.5 916.08,-161 906.08,-157.5 906.08,-164.5"/>
</a>
</g>
</g>
<!-- Node9 -->
<g id="Node000009" class="node">
<title>Node9</title>
<g id="a_Node000009"><a xlink:href="structxml__allocator.html#a5df417155487cce4e0460b123ac33dc6" target="_top" xlink:title=" ">
<polygon fill="white" stroke="#666666" points="520,-127 396,-127 396,-95 520,-95 520,-127"/>
<text xml:space="preserve" text-anchor="start" x="404" y="-113.5" font-family="Helvetica,sans-Serif" font-size="10.00">xml_allocator::deallocate</text>
<text xml:space="preserve" text-anchor="middle" x="458" y="-101.5" font-family="Helvetica,sans-Serif" font-size="10.00">_memory</text>
</a>
</g>
</g>
<!-- Node8&#45;&gt;Node9 -->
<g id="edge8_Node000008_Node000009" class="edge">
<title>Node8&#45;&gt;Node9</title>
<g id="a_edge8_Node000008_Node000009"><a xlink:title=" ">
<path fill="none" stroke="#63b8ff" d="M360.09,-111C368,-111 376.16,-111 384.23,-111"/>
<polygon fill="#63b8ff" stroke="#63b8ff" points="384.04,-114.5 394.04,-111 384.04,-107.5 384.04,-114.5"/>
</a>
</g>
</g>
<!-- Node10 -->
<g id="Node000010" class="node">
<title>Node10</title>
<g id="a_Node000010"><a xlink:href="structxml__allocator.html#a1c6bfe15a257a094f55659f8d71c209e" target="_top" xlink:title=" ">
<polygon fill="white" stroke="#666666" points="706.25,-121 556,-121 556,-101 706.25,-101 706.25,-121"/>
<text xml:space="preserve" text-anchor="middle" x="631.12" y="-107.5" font-family="Helvetica,sans-Serif" font-size="10.00">xml_allocator::deallocate_page</text>
</a>
</g>
</g>
<!-- Node9&#45;&gt;Node10 -->
<g id="edge9_Node000009_Node000010" class="edge">
<title>Node9&#45;&gt;Node10</title>
<g id="a_edge9_Node000009_Node000010"><a xlink:title=" ">
<path fill="none" stroke="#63b8ff" d="M520.3,-111C528.05,-111 536.1,-111 544.15,-111"/>
<polygon fill="#63b8ff" stroke="#63b8ff" points="544,-114.5 554,-111 544,-107.5 544,-114.5"/>
</a>
</g>
</g>
<!-- Node12&#45;&gt;Node13 -->
<g id="edge12_Node000012_Node000013" class="edge">
<title>Node12&#45;&gt;Node13</title>
<g id="a_edge12_Node000012_Node000013"><a xlink:title=" ">
<path fill="none" stroke="#63b8ff" d="M347.69,-23.14C370.95,-20.35 398.34,-17.05 419.88,-14.46"/>
<polygon fill="#63b8ff" stroke="#63b8ff" points="420.17,-17.95 429.68,-13.28 419.34,-11 420.17,-17.95"/>
</a>
</g>
</g>
</g>
</svg>
