<?xml version="1.0" encoding="UTF-8" standalone="no"?>
<!DOCTYPE svg PUBLIC "-//W3C//DTD SVG 1.1//EN"
 "http://www.w3.org/Graphics/SVG/1.1/DTD/svg11.dtd">
<!-- Generated by graphviz version 14.1.2 (20260124.0452)
 -->
<!-- Title: as_utf8_impl Pages: 1 -->
<svg width="351pt" height="66pt"
 viewBox="0.00 0.00 351.00 66.00" xmlns="http://www.w3.org/2000/svg" xmlns:xlink="http://www.w3.org/1999/xlink">
<g id="graph0" class="graph" transform="scale(1 1) rotate(0) translate(4 62)">
<title>as_utf8_impl</title>
<!-- Node1 -->
<g id="Node000001" class="node">
<title>Node1</title>
<g id="a_Node000001"><a xlink:title=" ">
<polygon fill="#999999" stroke="#666666" points="71.5,-39 0,-39 0,-19 71.5,-19 71.5,-39"/>
<text xml:space="preserve" text-anchor="middle" x="35.75" y="-25.5" font-family="Helvetica,sans-Serif" font-size="10.00">as_utf8_impl</text>
</a>
</g>
</g>
<!-- Node2 -->
<g id="Node000002" class="node">
<title>Node2</title>
<g id="a_Node000002"><a xlink:href="pugixml_8cpp.html#a1f5495dbea9f9b5d93590e5896b118e0" target="_top" xlink:title=" ">
<polygon fill="white" stroke="#666666" points="184.25,-58 107.5,-58 107.5,-38 184.25,-38 184.25,-58"/>
<text xml:space="preserve" text-anchor="middle" x="145.88" y="-44.5" font-family="Helvetica,sans-Serif" font-size="10.00">as_utf8_begin</text>
</a>
</g>
</g>
<!-- Node1&#45;&gt;Node2 -->
<g id="edge1_Node000001_Node000002" class="edge">
<title>Node1&#45;&gt;Node2</title>
<g id="a_edge1_Node000001_Node000002"><a xlink:title=" ">
<path fill="none" stroke="#63b8ff" d="M71.86,-35.17C79.57,-36.52 87.87,-37.98 96.01,-39.41"/>
<polygon fill="#63b8ff" stroke="#63b8ff" points="95.39,-42.86 105.85,-41.14 96.6,-35.96 95.39,-42.86"/>
</a>
</g>
</g>
<!-- Node4 -->
<g id="Node000004" class="node">
<title>Node4</title>
<g id="a_Node000004"><a xlink:href="pugixml_8cpp.html#a7f34bdce6ab8f9a6290abae16323023d" target="_top" xlink:title=" ">
<polygon fill="white" stroke="#666666" points="180.5,-20 111.25,-20 111.25,0 180.5,0 180.5,-20"/>
<text xml:space="preserve" text-anchor="middle" x="145.88" y="-6.5" font-family="Helvetica,sans-Serif" font-size="10.00">as_utf8_end</text>
</a>
</g>
</g>
<!-- Node1&#45;&gt;Node4 -->
<g id="edge3_Node000001_Node000004" class="edge">
<title>Node1&#45;&gt;Node4</title>
<g id="a_edge3_Node000001_Node000004"><a xlink:title=" ">
<path fill="none" stroke="#63b8ff" d="M71.86,-22.83C80.8,-21.26 90.53,-19.55 99.9,-17.9"/>
<polygon fill="#63b8ff" stroke="#63b8ff" points="100.32,-21.38 109.56,-16.21 99.1,-14.49 100.32,-21.38"/>
</a>
</g>
</g>
<!-- Node3 -->
<g id="Node000003" class="node">
<title>Node3</title>
<g id="a_Node000003"><a xlink:href="structwchar__decoder.html#a965801bc1ce931281e10ee153586071c" target="_top" xlink:title=" ">
<polygon fill="white" stroke="#666666" points="342.75,-39 220.25,-39 220.25,-19 342.75,-19 342.75,-39"/>
<text xml:space="preserve" text-anchor="middle" x="281.5" y="-25.5" font-family="Helvetica,sans-Serif" font-size="10.00">wchar_decoder::process</text>
</a>
</g>
</g>
<!-- Node2&#45;&gt;Node3 -->
<g id="edge2_Node000002_Node000003" class="edge">
<title>Node2&#45;&gt;Node3</title>
<g id="a_edge2_Node000002_Node000003"><a xlink:title=" ">
<path fill="none" stroke="#63b8ff" d="M184.45,-42.66C192.04,-41.58 200.26,-40.41 208.58,-39.23"/>
<polygon fill="#63b8ff" stroke="#63b8ff" points="209.04,-42.7 218.45,-37.82 208.05,-35.77 209.04,-42.7"/>
</a>
</g>
</g>
<!-- Node4&#45;&gt;Node3 -->
<g id="edge4_Node000004_Node000003" class="edge">
<title>Node4&#45;&gt;Node3</title>
<g id="a_edge4_Node000004_Node000003"><a xlink:title=" ">
<path fill="none" stroke="#63b8ff" d="M180.94,-14.84C189.5,-16.06 199.01,-17.41 208.66,-18.79"/>
<polygon fill="#63b8ff" stroke="#63b8ff" points="208.12,-22.24 218.51,-20.19 209.1,-15.31 208.12,-22.24"/>
</a>
</g>
</g>
</g>
</svg>
