<?xml version="1.0" encoding="UTF-8" standalone="no"?>
<!DOCTYPE svg PUBLIC "-//W3C//DTD SVG 1.1//EN"
 "http://www.w3.org/Graphics/SVG/1.1/DTD/svg11.dtd">
<!-- Generated by graphviz version 14.1.2 (20260124.0452)
 -->
<!-- Title: text_output Pages: 1 -->
<svg width="468pt" height="66pt"
 viewBox="0.00 0.00 468.00 66.00" xmlns="http://www.w3.org/2000/svg" xmlns:xlink="http://www.w3.org/1999/xlink">
<g id="graph0" class="graph" transform="scale(1 1) rotate(0) translate(4 62)">
<title>text_output</title>
<!-- Node1 -->
<g id="Node000001" class="node">
<title>Node1</title>
<g id="a_Node000001"><a xlink:title=" ">
<polygon fill="#999999" stroke="#666666" points="460,-39 395.25,-39 395.25,-19 460,-19 460,-39"/>
<text xml:space="preserve" text-anchor="middle" x="427.62" y="-25.5" font-family="Helvetica,sans-Serif" font-size="10.00">text_output</text>
</a>
</g>
</g>
<!-- Node2 -->
<g id="Node000002" class="node">
<title>Node2</title>
<g id="a_Node000002"><a xlink:href="pugixml_8cpp.html#a05d1bf3ded0294ee5109cb5cacdc4f99" target="_top" xlink:title=" ">
<polygon fill="white" stroke="#666666" points="359.25,-39 244.25,-39 244.25,-19 359.25,-19 359.25,-39"/>
<text xml:space="preserve" text-anchor="middle" x="301.75" y="-25.5" font-family="Helvetica,sans-Serif" font-size="10.00">node_output_attributes</text>
</a>
</g>
</g>
<!-- Node1&#45;&gt;Node2 -->
<g id="edge1_Node000001_Node000002" class="edge">
<title>Node1&#45;&gt;Node2</title>
<g id="a_edge1_Node000001_Node000002"><a xlink:title=" ">
<path fill="none" stroke="#63b8ff" d="M383.57,-29C375.74,-29 367.46,-29 359.31,-29"/>
<polygon fill="#63b8ff" stroke="#63b8ff" points="383.53,-32.5 393.53,-29 383.53,-25.5 383.53,-32.5"/>
</a>
</g>
</g>
<!-- Node3 -->
<g id="Node000003" class="node">
<title>Node3</title>
<g id="a_Node000003"><a xlink:href="pugixml_8cpp.html#ad092fd8012bad5c9f17541a832188e48" target="_top" xlink:title=" ">
<polygon fill="white" stroke="#666666" points="208.25,-58 105.25,-58 105.25,-38 208.25,-38 208.25,-58"/>
<text xml:space="preserve" text-anchor="middle" x="156.75" y="-44.5" font-family="Helvetica,sans-Serif" font-size="10.00">node_output_simple</text>
</a>
</g>
</g>
<!-- Node1&#45;&gt;Node3 -->
<g id="edge6_Node000001_Node000003" class="edge">
<title>Node1&#45;&gt;Node3</title>
<g id="a_edge6_Node000001_Node000003"><a xlink:title=" ">
<path fill="none" stroke="#63b8ff" d="M385.54,-42.52C376.94,-44.8 367.87,-46.81 359.25,-48 308.31,-55.05 249.43,-54 208.53,-51.83"/>
<polygon fill="#63b8ff" stroke="#63b8ff" points="386.36,-45.92 395.02,-39.82 384.45,-39.19 386.36,-45.92"/>
</a>
</g>
</g>
<!-- Node5 -->
<g id="Node000005" class="node">
<title>Node5</title>
<g id="a_Node000005"><a xlink:href="pugixml_8cpp.html#ae4cd311590420ae5ef799d11433f58c0" target="_top" xlink:title=" ">
<polygon fill="white" stroke="#666666" points="203.75,-20 109.75,-20 109.75,0 203.75,0 203.75,-20"/>
<text xml:space="preserve" text-anchor="middle" x="156.75" y="-6.5" font-family="Helvetica,sans-Serif" font-size="10.00">node_output_start</text>
</a>
</g>
</g>
<!-- Node1&#45;&gt;Node5 -->
<g id="edge7_Node000001_Node000005" class="edge">
<title>Node1&#45;&gt;Node5</title>
<g id="a_edge7_Node000001_Node000005"><a xlink:title=" ">
<path fill="none" stroke="#63b8ff" d="M385.54,-15.48C376.94,-13.2 367.87,-11.19 359.25,-10 306.4,-2.69 245.01,-4.09 204.01,-6.42"/>
<polygon fill="#63b8ff" stroke="#63b8ff" points="384.45,-18.81 395.02,-18.18 386.36,-12.08 384.45,-18.81"/>
</a>
</g>
</g>
<!-- Node2&#45;&gt;Node3 -->
<g id="edge2_Node000002_Node000003" class="edge">
<title>Node2&#45;&gt;Node3</title>
<g id="a_edge2_Node000002_Node000003"><a xlink:title=" ">
<path fill="none" stroke="#63b8ff" d="M232.47,-38.07C224.39,-39.15 216.25,-40.23 208.47,-41.26"/>
<polygon fill="#63b8ff" stroke="#63b8ff" points="232.87,-41.55 242.32,-36.76 231.95,-34.61 232.87,-41.55"/>
</a>
</g>
</g>
<!-- Node2&#45;&gt;Node5 -->
<g id="edge4_Node000002_Node000005" class="edge">
<title>Node2&#45;&gt;Node5</title>
<g id="a_edge4_Node000002_Node000005"><a xlink:title=" ">
<path fill="none" stroke="#63b8ff" d="M232.53,-19.94C222.84,-18.65 213.07,-17.35 203.93,-16.14"/>
<polygon fill="#63b8ff" stroke="#63b8ff" points="231.95,-23.39 242.32,-21.24 232.87,-16.45 231.95,-23.39"/>
</a>
</g>
</g>
<!-- Node4 -->
<g id="Node000004" class="node">
<title>Node4</title>
<g id="a_Node000004"><a xlink:href="pugixml_8cpp.html#a07c6c1e786c5022d046058c4e7ef3946" target="_top" xlink:title=" ">
<polygon fill="white" stroke="#666666" points="69.25,-39 0,-39 0,-19 69.25,-19 69.25,-39"/>
<text xml:space="preserve" text-anchor="middle" x="34.62" y="-25.5" font-family="Helvetica,sans-Serif" font-size="10.00">node_output</text>
</a>
</g>
</g>
<!-- Node3&#45;&gt;Node4 -->
<g id="edge3_Node000003_Node000004" class="edge">
<title>Node3&#45;&gt;Node4</title>
<g id="a_edge3_Node000003_Node000004"><a xlink:title=" ">
<path fill="none" stroke="#63b8ff" d="M93.57,-38.17C85.31,-36.86 77.11,-35.56 69.58,-34.37"/>
<polygon fill="#63b8ff" stroke="#63b8ff" points="92.89,-41.6 103.31,-39.71 93.98,-34.69 92.89,-41.6"/>
</a>
</g>
</g>
<!-- Node5&#45;&gt;Node4 -->
<g id="edge5_Node000005_Node000004" class="edge">
<title>Node5&#45;&gt;Node4</title>
<g id="a_edge5_Node000005_Node000004"><a xlink:title=" ">
<path fill="none" stroke="#63b8ff" d="M98.01,-19.13C88.3,-20.67 78.51,-22.22 69.65,-23.62"/>
<polygon fill="#63b8ff" stroke="#63b8ff" points="98.48,-22.6 107.81,-17.58 97.39,-15.69 98.48,-22.6"/>
</a>
</g>
</g>
</g>
</svg>
