<?xml version="1.0" encoding="UTF-8" standalone="no"?>
<!DOCTYPE svg PUBLIC "-//W3C//DTD SVG 1.1//EN"
 "http://www.w3.org/Graphics/SVG/1.1/DTD/svg11.dtd">
<!-- Generated by graphviz version 14.1.2 (20260124.0452)
 -->
<!-- Title: strconv_cdata Pages: 1 -->
<svg width="180pt" height="66pt"
 viewBox="0.00 0.00 180.00 66.00" xmlns="http://www.w3.org/2000/svg" xmlns:xlink="http://www.w3.org/1999/xlink">
<g id="graph0" class="graph" transform="scale(1 1) rotate(0) translate(4 62)">
<title>strconv_cdata</title>
<!-- Node1 -->
<g id="Node000001" class="node">
<title>Node1</title>
<g id="a_Node000001"><a xlink:title=" ">
<polygon fill="#999999" stroke="#666666" points="77.5,-39 0,-39 0,-19 77.5,-19 77.5,-39"/>
<text xml:space="preserve" text-anchor="middle" x="38.75" y="-25.5" font-family="Helvetica,sans-Serif" font-size="10.00">strconv_cdata</text>
</a>
</g>
</g>
<!-- Node2 -->
<g id="Node000002" class="node">
<title>Node2</title>
<g id="a_Node000002"><a xlink:href="structgap.html#a7d5e84d56dbeef1310977fe1ecec5ded" target="_top" xlink:title=" ">
<polygon fill="white" stroke="#666666" points="172.25,-58 113.5,-58 113.5,-38 172.25,-38 172.25,-58"/>
<text xml:space="preserve" text-anchor="middle" x="142.88" y="-44.5" font-family="Helvetica,sans-Serif" font-size="10.00">gap::flush</text>
</a>
</g>
</g>
<!-- Node1&#45;&gt;Node2 -->
<g id="edge1_Node000001_Node000002" class="edge">
<title>Node1&#45;&gt;Node2</title>
<g id="a_edge1_Node000001_Node000002"><a xlink:title=" ">
<path fill="none" stroke="#63b8ff" d="M77.78,-36.07C85.63,-37.54 93.92,-39.08 101.83,-40.55"/>
<polygon fill="#63b8ff" stroke="#63b8ff" points="101.12,-43.98 111.59,-42.36 102.4,-37.09 101.12,-43.98"/>
</a>
</g>
</g>
<!-- Node3 -->
<g id="Node000003" class="node">
<title>Node3</title>
<g id="a_Node000003"><a xlink:href="structgap.html#a9c0d0b12bc778c8439c8aec7747ab2b0" target="_top" xlink:title=" ">
<polygon fill="white" stroke="#666666" points="172.25,-20 113.5,-20 113.5,0 172.25,0 172.25,-20"/>
<text xml:space="preserve" text-anchor="middle" x="142.88" y="-6.5" font-family="Helvetica,sans-Serif" font-size="10.00">gap::push</text>
</a>
</g>
</g>
<!-- Node1&#45;&gt;Node3 -->
<g id="edge2_Node000001_Node000003" class="edge">
<title>Node1&#45;&gt;Node3</title>
<g id="a_edge2_Node000001_Node000003"><a xlink:title=" ">
<path fill="none" stroke="#63b8ff" d="M77.78,-21.93C85.63,-20.46 93.92,-18.92 101.83,-17.45"/>
<polygon fill="#63b8ff" stroke="#63b8ff" points="102.4,-20.91 111.59,-15.64 101.12,-14.02 102.4,-20.91"/>
</a>
</g>
</g>
</g>
</svg>
