<?xml version="1.0" encoding="UTF-8" standalone="no"?>
<!DOCTYPE svg PUBLIC "-//W3C//DTD SVG 1.1//EN"
 "http://www.w3.org/Graphics/SVG/1.1/DTD/svg11.dtd">
<!-- Generated by graphviz version 14.1.2 (20260124.0452)
 -->
<!-- Title: convert_number_to_string Pages: 1 -->
<svg width="452pt" height="228pt"
 viewBox="0.00 0.00 452.00 228.00" xmlns="http://www.w3.org/2000/svg" xmlns:xlink="http://www.w3.org/1999/xlink">
<g id="graph0" class="graph" transform="scale(1 1) rotate(0) translate(4 224)">
<title>convert_number_to_string</title>
<!-- Node1 -->
<g id="Node000001" class="node">
<title>Node1</title>
<g id="a_Node000001"><a xlink:title=" ">
<polygon fill="#999999" stroke="#666666" points="128.5,-126 0,-126 0,-106 128.5,-106 128.5,-126"/>
<text xml:space="preserve" text-anchor="middle" x="64.25" y="-112.5" font-family="Helvetica,sans-Serif" font-size="10.00">convert_number_to_string</text>
</a>
</g>
</g>
<!-- Node2 -->
<g id="Node000002" class="node">
<title>Node2</title>
<g id="a_Node000002"><a xlink:href="structxpath__allocator.html#a6c13fefbd7038d78b336987f396c8415" target="_top" xlink:title=" ">
<polygon fill="white" stroke="#666666" points="297.5,-220 175.75,-220 175.75,-200 297.5,-200 297.5,-220"/>
<text xml:space="preserve" text-anchor="middle" x="236.62" y="-206.5" font-family="Helvetica,sans-Serif" font-size="10.00">xpath_allocator::allocate</text>
</a>
</g>
</g>
<!-- Node1&#45;&gt;Node2 -->
<g id="edge1_Node000001_Node000002" class="edge">
<title>Node1&#45;&gt;Node2</title>
<g id="a_edge1_Node000001_Node000002"><a xlink:title=" ">
<path fill="none" stroke="#63b8ff" d="M75.91,-126.32C93.14,-142.45 128.79,-173.57 164.5,-191 168.16,-192.79 172.01,-194.42 175.95,-195.92"/>
<polygon fill="#63b8ff" stroke="#63b8ff" points="174.48,-199.12 185.08,-199.06 176.76,-192.5 174.48,-199.12"/>
</a>
</g>
</g>
<!-- Node3 -->
<g id="Node000003" class="node">
<title>Node3</title>
<g id="a_Node000003"><a xlink:href="pugixml_8cpp.html#afa8cc5242fdd3e8a83da9dcd0c7f1331" target="_top" xlink:title=" ">
<polygon fill="white" stroke="#666666" points="308.75,-182 164.5,-182 164.5,-150 308.75,-150 308.75,-182"/>
<text xml:space="preserve" text-anchor="start" x="172.5" y="-168.5" font-family="Helvetica,sans-Serif" font-size="10.00">convert_number_to_mantissa</text>
<text xml:space="preserve" text-anchor="middle" x="236.62" y="-156.5" font-family="Helvetica,sans-Serif" font-size="10.00">_exponent</text>
</a>
</g>
</g>
<!-- Node1&#45;&gt;Node3 -->
<g id="edge2_Node000001_Node000003" class="edge">
<title>Node1&#45;&gt;Node3</title>
<g id="a_edge2_Node000001_Node000003"><a xlink:title=" ">
<path fill="none" stroke="#63b8ff" d="M100.97,-126.48C120.59,-132.24 145.58,-139.58 168.69,-146.36"/>
<polygon fill="#63b8ff" stroke="#63b8ff" points="167.47,-149.64 178.05,-149.1 169.44,-142.93 167.47,-149.64"/>
</a>
</g>
</g>
<!-- Node5 -->
<g id="Node000005" class="node">
<title>Node5</title>
<g id="a_Node000005"><a xlink:href="pugixml_8cpp.html#a058818762d29b1988273d08529984e3f" target="_top" xlink:title=" ">
<polygon fill="white" stroke="#666666" points="300.88,-132 172.38,-132 172.38,-100 300.88,-100 300.88,-132"/>
<text xml:space="preserve" text-anchor="start" x="180.38" y="-118.5" font-family="Helvetica,sans-Serif" font-size="10.00">convert_number_to_string</text>
<text xml:space="preserve" text-anchor="middle" x="236.62" y="-106.5" font-family="Helvetica,sans-Serif" font-size="10.00">_special</text>
</a>
</g>
</g>
<!-- Node1&#45;&gt;Node5 -->
<g id="edge4_Node000001_Node000005" class="edge">
<title>Node1&#45;&gt;Node5</title>
<g id="a_edge4_Node000001_Node000005"><a xlink:title=" ">
<path fill="none" stroke="#63b8ff" d="M128.69,-116C139.11,-116 150,-116 160.67,-116"/>
<polygon fill="#63b8ff" stroke="#63b8ff" points="160.62,-119.5 170.62,-116 160.62,-112.5 160.62,-119.5"/>
</a>
</g>
</g>
<!-- Node6 -->
<g id="Node000006" class="node">
<title>Node6</title>
<g id="a_Node000006"><a xlink:href="classxpath__string.html#a6dce01c6b3a949c3c4c886e6be44931e" target="_top" xlink:title=" ">
<polygon fill="white" stroke="#666666" points="284,-32 189.25,-32 189.25,0 284,0 284,-32"/>
<text xml:space="preserve" text-anchor="start" x="197.25" y="-18.5" font-family="Helvetica,sans-Serif" font-size="10.00">xpath_string::from</text>
<text xml:space="preserve" text-anchor="middle" x="236.62" y="-6.5" font-family="Helvetica,sans-Serif" font-size="10.00">_const</text>
</a>
</g>
</g>
<!-- Node1&#45;&gt;Node6 -->
<g id="edge5_Node000001_Node000006" class="edge">
<title>Node1&#45;&gt;Node6</title>
<g id="a_edge5_Node000001_Node000006"><a xlink:title=" ">
<path fill="none" stroke="#63b8ff" d="M76.36,-105.74C93.92,-89.98 129.68,-59.69 164.5,-41 168.9,-38.64 173.57,-36.43 178.33,-34.37"/>
<polygon fill="#63b8ff" stroke="#63b8ff" points="179.46,-37.69 187.42,-30.69 176.84,-31.2 179.46,-37.69"/>
</a>
</g>
</g>
<!-- Node9 -->
<g id="Node000009" class="node">
<title>Node9</title>
<g id="a_Node000009"><a xlink:href="classxpath__string.html#a37e13c2dc384cac842cee3870e9e9e23" target="_top" xlink:title=" ">
<polygon fill="white" stroke="#666666" points="286.62,-82 186.62,-82 186.62,-50 286.62,-50 286.62,-82"/>
<text xml:space="preserve" text-anchor="start" x="194.62" y="-68.5" font-family="Helvetica,sans-Serif" font-size="10.00">xpath_string::from</text>
<text xml:space="preserve" text-anchor="middle" x="236.62" y="-56.5" font-family="Helvetica,sans-Serif" font-size="10.00">_heap_preallocated</text>
</a>
</g>
</g>
<!-- Node1&#45;&gt;Node9 -->
<g id="edge8_Node000001_Node000009" class="edge">
<title>Node1&#45;&gt;Node9</title>
<g id="a_edge8_Node000001_Node000009"><a xlink:title=" ">
<path fill="none" stroke="#63b8ff" d="M100.97,-105.52C122.56,-99.18 150.63,-90.94 175.56,-83.63"/>
<polygon fill="#63b8ff" stroke="#63b8ff" points="176.32,-87.05 184.93,-80.88 174.35,-80.33 176.32,-87.05"/>
</a>
</g>
</g>
<!-- Node4 -->
<g id="Node000004" class="node">
<title>Node4</title>
<g id="a_Node000004"><a xlink:href="pugixml_8cpp.html#a34c3c1c79170be766df89acaf5223d95" target="_top" xlink:title=" ">
<polygon fill="white" stroke="#666666" points="434.62,-176 354.12,-176 354.12,-156 434.62,-156 434.62,-176"/>
<text xml:space="preserve" text-anchor="middle" x="394.38" y="-162.5" font-family="Helvetica,sans-Serif" font-size="10.00">truncate_zeros</text>
</a>
</g>
</g>
<!-- Node3&#45;&gt;Node4 -->
<g id="edge3_Node000003_Node000004" class="edge">
<title>Node3&#45;&gt;Node4</title>
<g id="a_edge3_Node000003_Node000004"><a xlink:title=" ">
<path fill="none" stroke="#63b8ff" d="M309.12,-166C320.39,-166 331.85,-166 342.53,-166"/>
<polygon fill="#63b8ff" stroke="#63b8ff" points="342.26,-169.5 352.26,-166 342.26,-162.5 342.26,-169.5"/>
</a>
</g>
</g>
<!-- Node7 -->
<g id="Node000007" class="node">
<title>Node7</title>
<g id="a_Node000007"><a xlink:href="classxpath__string.html#a6c415f55011c6b816446d7454d1e9d2c" target="_top" xlink:title=" ">
<polygon fill="white" stroke="#666666" points="444,-32 344.75,-32 344.75,0 444,0 444,-32"/>
<text xml:space="preserve" text-anchor="start" x="352.75" y="-18.5" font-family="Helvetica,sans-Serif" font-size="10.00">xpath_string::xpath</text>
<text xml:space="preserve" text-anchor="middle" x="394.38" y="-6.5" font-family="Helvetica,sans-Serif" font-size="10.00">_string</text>
</a>
</g>
</g>
<!-- Node6&#45;&gt;Node7 -->
<g id="edge6_Node000006_Node000007" class="edge">
<title>Node6&#45;&gt;Node7</title>
<g id="a_edge6_Node000006_Node000007"><a xlink:title=" ">
<path fill="none" stroke="#63b8ff" d="M284.36,-16C299.79,-16 317.18,-16 333.46,-16"/>
<polygon fill="#63b8ff" stroke="#63b8ff" points="333,-19.5 343,-16 333,-12.5 333,-19.5"/>
</a>
</g>
</g>
<!-- Node8 -->
<g id="Node000008" class="node">
<title>Node8</title>
<g id="a_Node000008"><a xlink:href="classxpath__string.html#a93704af22ba77956cae8ec65f84658d8" target="_top" xlink:title=" ">
<polygon fill="white" stroke="#666666" points="444,-82 344.75,-82 344.75,-50 444,-50 444,-82"/>
<text xml:space="preserve" text-anchor="start" x="352.75" y="-68.5" font-family="Helvetica,sans-Serif" font-size="10.00">xpath_string::xpath</text>
<text xml:space="preserve" text-anchor="middle" x="394.38" y="-56.5" font-family="Helvetica,sans-Serif" font-size="10.00">_string</text>
</a>
</g>
</g>
<!-- Node6&#45;&gt;Node8 -->
<g id="edge7_Node000006_Node000008" class="edge">
<title>Node6&#45;&gt;Node8</title>
<g id="a_edge7_Node000006_Node000008"><a xlink:title=" ">
<path fill="none" stroke="#63b8ff" d="M284.36,-31C299.94,-36 317.51,-41.65 333.93,-46.92"/>
<polygon fill="#63b8ff" stroke="#63b8ff" points="332.48,-50.13 343.07,-49.85 334.62,-43.46 332.48,-50.13"/>
</a>
</g>
</g>
<!-- Node9&#45;&gt;Node7 -->
<g id="edge9_Node000009_Node000007" class="edge">
<title>Node9&#45;&gt;Node7</title>
<g id="a_edge9_Node000009_Node000007"><a xlink:title=" ">
<path fill="none" stroke="#63b8ff" d="M286.91,-50.18C301.82,-45.39 318.36,-40.08 333.87,-35.1"/>
<polygon fill="#63b8ff" stroke="#63b8ff" points="334.52,-38.57 342.97,-32.18 332.38,-31.9 334.52,-38.57"/>
</a>
</g>
</g>
<!-- Node9&#45;&gt;Node8 -->
<g id="edge10_Node000009_Node000008" class="edge">
<title>Node9&#45;&gt;Node8</title>
<g id="a_edge10_Node000009_Node000008"><a xlink:title=" ">
<path fill="none" stroke="#63b8ff" d="M286.91,-66C301.54,-66 317.73,-66 332.98,-66"/>
<polygon fill="#63b8ff" stroke="#63b8ff" points="332.9,-69.5 342.9,-66 332.9,-62.5 332.9,-69.5"/>
</a>
</g>
</g>
</g>
</svg>
