<?xml version="1.0" encoding="UTF-8" standalone="no"?>
<!DOCTYPE svg PUBLIC "-//W3C//DTD SVG 1.1//EN"
 "http://www.w3.org/Graphics/SVG/1.1/DTD/svg11.dtd">
<!-- Generated by graphviz version 14.1.2 (20260124.0452)
 -->
<!-- Title: MVPVulkan/pugixml/pugixml.hpp Pages: 1 -->
<svg width="417pt" height="84pt"
 viewBox="0.00 0.00 417.00 84.00" xmlns="http://www.w3.org/2000/svg" xmlns:xlink="http://www.w3.org/1999/xlink">
<g id="graph0" class="graph" transform="scale(1 1) rotate(0) translate(4 80)">
<title>MVPVulkan/pugixml/pugixml.hpp</title>
<!-- Node1 -->
<g id="Node000001" class="node">
<title>Node1</title>
<g id="a_Node000001"><a xlink:title=" ">
<polygon fill="#999999" stroke="#666666" points="310.12,-76 150.88,-76 150.88,-56 310.12,-56 310.12,-76"/>
<text xml:space="preserve" text-anchor="middle" x="230.5" y="-62.5" font-family="Helvetica,sans-Serif" font-size="10.00">MVPVulkan/pugixml/pugixml.hpp</text>
</a>
</g>
</g>
<!-- Node2 -->
<g id="Node000002" class="node">
<title>Node2</title>
<g id="a_Node000002"><a xlink:href="pugiconfig_8hpp.html" target="_top" xlink:title=" ">
<polygon fill="white" stroke="#666666" points="79,-20 0,-20 0,0 79,0 79,-20"/>
<text xml:space="preserve" text-anchor="middle" x="39.5" y="-6.5" font-family="Helvetica,sans-Serif" font-size="10.00">pugiconfig.hpp</text>
</a>
</g>
</g>
<!-- Node1&#45;&gt;Node2 -->
<g id="edge1_Node000001_Node000002" class="edge">
<title>Node1&#45;&gt;Node2</title>
<g id="a_edge1_Node000001_Node000002"><a xlink:title=" ">
<path fill="none" stroke="#63b8ff" d="M197.23,-55.59C165.79,-46.71 118.41,-33.31 83.79,-23.52"/>
<polygon fill="#63b8ff" stroke="#63b8ff" points="85.06,-20.24 74.49,-20.89 83.16,-26.98 85.06,-20.24"/>
</a>
</g>
</g>
<!-- Node3 -->
<g id="Node000003" class="node">
<title>Node3</title>
<g id="a_Node000003"><a xlink:title=" ">
<polygon fill="#e0e0e0" stroke="#999999" points="148.12,-20 96.88,-20 96.88,0 148.12,0 148.12,-20"/>
<text xml:space="preserve" text-anchor="middle" x="122.5" y="-6.5" font-family="Helvetica,sans-Serif" font-size="10.00">stddef.h</text>
</a>
</g>
</g>
<!-- Node1&#45;&gt;Node3 -->
<g id="edge2_Node000001_Node000003" class="edge">
<title>Node1&#45;&gt;Node3</title>
<g id="a_edge2_Node000001_Node000003"><a xlink:title=" ">
<path fill="none" stroke="#63b8ff" d="M211.69,-55.59C195.14,-47.32 170.79,-35.14 151.71,-25.6"/>
<polygon fill="#63b8ff" stroke="#63b8ff" points="153.32,-22.5 142.81,-21.16 150.19,-28.76 153.32,-22.5"/>
</a>
</g>
</g>
<!-- Node4 -->
<g id="Node000004" class="node">
<title>Node4</title>
<g id="a_Node000004"><a xlink:title=" ">
<polygon fill="#e0e0e0" stroke="#999999" points="224.5,-20 166.5,-20 166.5,0 224.5,0 224.5,-20"/>
<text xml:space="preserve" text-anchor="middle" x="195.5" y="-6.5" font-family="Helvetica,sans-Serif" font-size="10.00">exception</text>
</a>
</g>
</g>
<!-- Node1&#45;&gt;Node4 -->
<g id="edge3_Node000001_Node000004" class="edge">
<title>Node1&#45;&gt;Node4</title>
<g id="a_edge3_Node000001_Node000004"><a xlink:title=" ">
<path fill="none" stroke="#63b8ff" d="M224.4,-55.59C219.79,-48.47 213.29,-38.45 207.63,-29.72"/>
<polygon fill="#63b8ff" stroke="#63b8ff" points="210.73,-28.06 202.35,-21.57 204.85,-31.86 210.73,-28.06"/>
</a>
</g>
</g>
<!-- Node5 -->
<g id="Node000005" class="node">
<title>Node5</title>
<g id="a_Node000005"><a xlink:title=" ">
<polygon fill="#e0e0e0" stroke="#999999" points="288.5,-20 242.5,-20 242.5,0 288.5,0 288.5,-20"/>
<text xml:space="preserve" text-anchor="middle" x="265.5" y="-6.5" font-family="Helvetica,sans-Serif" font-size="10.00">iterator</text>
</a>
</g>
</g>
<!-- Node1&#45;&gt;Node5 -->
<g id="edge4_Node000001_Node000005" class="edge">
<title>Node1&#45;&gt;Node5</title>
<g id="a_edge4_Node000001_Node000005"><a xlink:title=" ">
<path fill="none" stroke="#63b8ff" d="M236.6,-55.59C241.21,-48.47 247.71,-38.45 253.37,-29.72"/>
<polygon fill="#63b8ff" stroke="#63b8ff" points="256.15,-31.86 258.65,-21.57 250.27,-28.06 256.15,-31.86"/>
</a>
</g>
</g>
<!-- Node6 -->
<g id="Node000006" class="node">
<title>Node6</title>
<g id="a_Node000006"><a xlink:title=" ">
<polygon fill="#e0e0e0" stroke="#999999" points="350.75,-20 306.25,-20 306.25,0 350.75,0 350.75,-20"/>
<text xml:space="preserve" text-anchor="middle" x="328.5" y="-6.5" font-family="Helvetica,sans-Serif" font-size="10.00">iosfwd</text>
</a>
</g>
</g>
<!-- Node1&#45;&gt;Node6 -->
<g id="edge5_Node000001_Node000006" class="edge">
<title>Node1&#45;&gt;Node6</title>
<g id="a_edge5_Node000001_Node000006"><a xlink:title=" ">
<path fill="none" stroke="#63b8ff" d="M247.57,-55.59C262.38,-47.44 284.07,-35.48 301.27,-26"/>
<polygon fill="#63b8ff" stroke="#63b8ff" points="302.9,-29.1 309.97,-21.21 299.52,-22.97 302.9,-29.1"/>
</a>
</g>
</g>
<!-- Node7 -->
<g id="Node000007" class="node">
<title>Node7</title>
<g id="a_Node000007"><a xlink:title=" ">
<polygon fill="#e0e0e0" stroke="#999999" points="408.5,-20 368.5,-20 368.5,0 408.5,0 408.5,-20"/>
<text xml:space="preserve" text-anchor="middle" x="388.5" y="-6.5" font-family="Helvetica,sans-Serif" font-size="10.00">string</text>
</a>
</g>
</g>
<!-- Node1&#45;&gt;Node7 -->
<g id="edge6_Node000001_Node000007" class="edge">
<title>Node1&#45;&gt;Node7</title>
<g id="a_edge6_Node000001_Node000007"><a xlink:title=" ">
<path fill="none" stroke="#63b8ff" d="M258.02,-55.59C285.81,-46.1 328.65,-31.46 357.59,-21.57"/>
<polygon fill="#63b8ff" stroke="#63b8ff" points="358.55,-24.94 366.88,-18.39 356.28,-18.31 358.55,-24.94"/>
</a>
</g>
</g>
</g>
</svg>
