<?xml version="1.0" encoding="UTF-8" standalone="no"?>
<!DOCTYPE svg PUBLIC "-//W3C//DTD SVG 1.1//EN"
 "http://www.w3.org/Graphics/SVG/1.1/DTD/svg11.dtd">
<!-- Generated by graphviz version 14.1.2 (20260124.0452)
 -->
<!-- Title: strequal Pages: 1 -->
<!--zoomable 426 -->

<svg id="main" version="1.1" xmlns="http://www.w3.org/2000/svg" xmlns:xlink="http://www.w3.org/1999/xlink" xml:space="preserve" onload="init(evt)">

<style type="text/css"><![CDATA[
.node, .edge {opacity: 0.7;}
.node.selected, .edge.selected {opacity: 1;}
.edge:hover path { stroke: red; }
.edge:hover polygon { stroke: red; fill: red; }
]]></style>

<defs>
  <circle id="rim" cx="0" cy="0" r="7"/>
  <circle id="rim2" cx="0" cy="0" r="3.5"/>
  <g id="zoomPlus">
    <use xlink:href="#rim" fill="#404040"><set attributeName="fill" to="#808080" begin="zoomplus.mouseover" end="zoomplus.mouseout"/></use>
    <path d="M-4,0h8M0,-4v8" fill="none" stroke="white" stroke-width="1.5" pointer-events="none"/>
  </g>
  <g id="zoomMin">
    <use xlink:href="#rim" fill="#404040"><set attributeName="fill" to="#808080" begin="zoomminus.mouseover" end="zoomminus.mouseout"/></use>
    <path d="M-4,0h8" fill="none" stroke="white" stroke-width="1.5" pointer-events="none"/>
  </g>
  <g id="arrowUp" transform="translate(30 24)">
    <use xlink:href="#rim"/>
    <path pointer-events="none" fill="none" stroke="white" stroke-width="1.5" d="M0,-3.0v7 M-2.5,-0.5L0,-3.0L2.5,-0.5"/>
  </g>
  <g id="arrowRight" transform="rotate(90) translate(36 -43)">
    <use xlink:href="#rim"/>
    <path pointer-events="none" fill="none" stroke="white" stroke-width="1.5" d="M0,-3.0v7 M-2.5,-0.5L0,-3.0L2.5,-0.5"/>
  </g>
  <g id="arrowDown" transform="rotate(180) translate(-30 -48)">
    <use xlink:href="#rim"/>
    <path pointer-events="none" fill="none" stroke="white" stroke-width="1.5" d="M0,-3.0v7 M-2.5,-0.5L0,-3.0L2.5,-0.5"/>
  </g>
  <g id="arrowLeft" transform="rotate(270) translate(-36 17)">
    <use xlink:href="#rim"/>
    <path pointer-events="none" fill="none" stroke="white" stroke-width="1.5" d="M0,-3.0v7 M-2.5,-0.5L0,-3.0L2.5,-0.5"/>
  </g>
  <g id="resetDef">
    <use xlink:href="#rim2" fill="#404040"><set attributeName="fill" to="#808080" begin="reset.mouseover" end="reset.mouseout"/></use>
  </g>
</defs>
<script type="application/ecmascript">
var viewWidth = 1168;
var viewHeight = 426;
var sectionId = 'dynsection-154';
</script>
<script type="application/ecmascript" xlink:href="svg.min.js"/>
<svg id="graph" class="graph">
<g id="viewport">
<title>strequal</title>
<!-- Node1 -->
<g id="Node000001" class="node">
<title>Node1</title>
<g id="a_Node000001"><a xlink:title=" ">
<polygon fill="#999999" stroke="#666666" points="1160,-96 1109.5,-96 1109.5,-76 1160,-76 1160,-96"/>
<text xml:space="preserve" text-anchor="middle" x="1134.75" y="-82.5" font-family="Helvetica,sans-Serif" font-size="10.00">strequal</text>
</a>
</g>
</g>
<!-- Node2 -->
<g id="Node000002" class="node">
<title>Node2</title>
<g id="a_Node000002"><a xlink:href="classxpath__ast__node.html#ab7f965a92023bc2704b8e6fd9f3d7c14" target="_top" xlink:title=" ">
<polygon fill="white" stroke="#666666" points="1060,-313 951,-313 951,-281 1060,-281 1060,-313"/>
<text xml:space="preserve" text-anchor="start" x="959" y="-299.5" font-family="Helvetica,sans-Serif" font-size="10.00">xpath_ast_node::eval</text>
<text xml:space="preserve" text-anchor="middle" x="1005.5" y="-287.5" font-family="Helvetica,sans-Serif" font-size="10.00">_boolean</text>
</a>
</g>
</g>
<!-- Node1&#45;&gt;Node2 -->
<g id="edge1_Node000001_Node000002" class="edge">
<title>Node1&#45;&gt;Node2</title>
<g id="a_edge1_Node000001_Node000002"><a xlink:title=" ">
<path fill="none" stroke="#63b8ff" d="M1121.51,-106.3C1096.36,-147.99 1039.32,-242.57 1016.36,-280.66"/>
<polygon fill="#63b8ff" stroke="#63b8ff" points="1124.49,-108.13 1126.66,-97.76 1118.5,-104.52 1124.49,-108.13"/>
</a>
</g>
</g>
<!-- Node12 -->
<g id="Node000012" class="node">
<title>Node12</title>
<g id="a_Node000012"><a xlink:href="classxpath__string.html#a8976b1e54152b806a13996a6140499b4" target="_top" xlink:title=" ">
<polygon fill="white" stroke="#666666" points="1065.25,-134 945.75,-134 945.75,-114 1065.25,-114 1065.25,-134"/>
<text xml:space="preserve" text-anchor="middle" x="1005.5" y="-120.5" font-family="Helvetica,sans-Serif" font-size="10.00">xpath_string::operator!=</text>
</a>
</g>
</g>
<!-- Node1&#45;&gt;Node12 -->
<g id="edge25_Node000001_Node000012" class="edge">
<title>Node1&#45;&gt;Node12</title>
<g id="a_edge25_Node000001_Node000012"><a xlink:title=" ">
<path fill="none" stroke="#63b8ff" d="M1098.44,-97.32C1090.26,-99.89 1081.59,-102.58 1073.5,-105 1064,-107.84 1053.71,-110.81 1044.12,-113.54"/>
<polygon fill="#63b8ff" stroke="#63b8ff" points="1099.25,-100.74 1107.73,-94.38 1097.14,-94.06 1099.25,-100.74"/>
</a>
</g>
</g>
<!-- Node13 -->
<g id="Node000013" class="node">
<title>Node13</title>
<g id="a_Node000013"><a xlink:href="classxpath__string.html#ac42c0dd15445de88c09dfdeed93d5660" target="_top" xlink:title=" ">
<polygon fill="white" stroke="#666666" points="1066.75,-96 944.25,-96 944.25,-76 1066.75,-76 1066.75,-96"/>
<text xml:space="preserve" text-anchor="middle" x="1005.5" y="-82.5" font-family="Helvetica,sans-Serif" font-size="10.00">xpath_string::operator==</text>
</a>
</g>
</g>
<!-- Node1&#45;&gt;Node13 -->
<g id="edge26_Node000001_Node000013" class="edge">
<title>Node1&#45;&gt;Node13</title>
<g id="a_edge26_Node000001_Node000013"><a xlink:title=" ">
<path fill="none" stroke="#63b8ff" d="M1097.75,-86C1088.2,-86 1077.61,-86 1067.13,-86"/>
<polygon fill="#63b8ff" stroke="#63b8ff" points="1097.7,-89.5 1107.7,-86 1097.7,-82.5 1097.7,-89.5"/>
</a>
</g>
</g>
<!-- Node14 -->
<g id="Node000014" class="node">
<title>Node14</title>
<g id="a_Node000014"><a xlink:href="classxpath__ast__node.html#a4f7aaa038105a1d98a7505606ca2b5a2" target="_top" xlink:title=" ">
<polygon fill="white" stroke="#666666" points="1073.5,-58 937.5,-58 937.5,-38 1073.5,-38 1073.5,-58"/>
<text xml:space="preserve" text-anchor="middle" x="1005.5" y="-44.5" font-family="Helvetica,sans-Serif" font-size="10.00">xpath_ast_node::step_push</text>
</a>
</g>
</g>
<!-- Node1&#45;&gt;Node14 -->
<g id="edge27_Node000001_Node000014" class="edge">
<title>Node1&#45;&gt;Node14</title>
<g id="a_edge27_Node000001_Node000014"><a xlink:title=" ">
<path fill="none" stroke="#63b8ff" d="M1098.44,-74.68C1090.26,-72.11 1081.59,-69.42 1073.5,-67 1064,-64.16 1053.71,-61.19 1044.12,-58.46"/>
<polygon fill="#63b8ff" stroke="#63b8ff" points="1097.14,-77.94 1107.73,-77.62 1099.25,-71.26 1097.14,-77.94"/>
</a>
</g>
</g>
<!-- Node19 -->
<g id="Node000019" class="node">
<title>Node19</title>
<g id="a_Node000019"><a xlink:href="classxpath__ast__node.html#a29d639296f3cd2726e6967b1ba277928" target="_top" xlink:title=" ">
<polygon fill="white" stroke="#666666" points="1073.5,-20 937.5,-20 937.5,0 1073.5,0 1073.5,-20"/>
<text xml:space="preserve" text-anchor="middle" x="1005.5" y="-6.5" font-family="Helvetica,sans-Serif" font-size="10.00">xpath_ast_node::step_push</text>
</a>
</g>
</g>
<!-- Node1&#45;&gt;Node19 -->
<g id="edge34_Node000001_Node000019" class="edge">
<title>Node1&#45;&gt;Node19</title>
<g id="a_edge34_Node000001_Node000019"><a xlink:title=" ">
<path fill="none" stroke="#63b8ff" d="M1118.26,-67.2C1107.03,-54.71 1090.82,-38.85 1073.5,-29 1067.51,-25.59 1060.86,-22.76 1054.15,-20.42"/>
<polygon fill="#63b8ff" stroke="#63b8ff" points="1115.32,-69.16 1124.51,-74.43 1120.61,-64.57 1115.32,-69.16"/>
</a>
</g>
</g>
<!-- Node3 -->
<g id="Node000003" class="node">
<title>Node3</title>
<g id="a_Node000003"><a xlink:href="classxpath__ast__node.html#ab4e5bbd3f2e83c86a43349374b4bfc22" target="_top" xlink:title=" ">
<polygon fill="white" stroke="#666666" points="896.25,-203 782,-203 782,-171 896.25,-171 896.25,-203"/>
<text xml:space="preserve" text-anchor="start" x="790" y="-189.5" font-family="Helvetica,sans-Serif" font-size="10.00">xpath_ast_node::apply</text>
<text xml:space="preserve" text-anchor="middle" x="839.12" y="-177.5" font-family="Helvetica,sans-Serif" font-size="10.00">_predicate_boolean</text>
</a>
</g>
</g>
<!-- Node2&#45;&gt;Node3 -->
<g id="edge2_Node000002_Node000003" class="edge">
<title>Node2&#45;&gt;Node3</title>
<g id="a_edge2_Node000002_Node000003"><a xlink:title=" ">
<path fill="none" stroke="#63b8ff" d="M970.61,-274.32C939.04,-253.2 892.75,-222.22 864.63,-203.4"/>
<polygon fill="#63b8ff" stroke="#63b8ff" points="968.38,-277.04 978.63,-279.69 972.27,-271.22 968.38,-277.04"/>
</a>
</g>
</g>
<!-- Node6 -->
<g id="Node000006" class="node">
<title>Node6</title>
<g id="a_Node000006"><a xlink:href="classxpath__ast__node.html#a98dd7f6e67fe2c56c63056eed835d6a4" target="_top" xlink:title=" ">
<polygon fill="white" stroke="#666666" points="144.25,-360 0,-360 0,-340 144.25,-340 144.25,-360"/>
<text xml:space="preserve" text-anchor="middle" x="72.12" y="-346.5" font-family="Helvetica,sans-Serif" font-size="10.00">xpath_ast_node::compare_eq</text>
</a>
</g>
</g>
<!-- Node2&#45;&gt;Node6 -->
<g id="edge22_Node000002_Node000006" class="edge">
<title>Node2&#45;&gt;Node6</title>
<g id="a_edge22_Node000002_Node000006"><a xlink:title=" ">
<path fill="none" stroke="#63b8ff" d="M956.63,-318.47C894.68,-348.86 782.38,-400 679,-400 679,-400 679,-400 378.75,-400 289.58,-400 188.4,-375.49 127.72,-360.48"/>
<polygon fill="#63b8ff" stroke="#63b8ff" points="958.09,-321.65 965.51,-314.09 955,-315.37 958.09,-321.65"/>
</a>
</g>
</g>
<!-- Node8 -->
<g id="Node000008" class="node">
<title>Node8</title>
<g id="a_Node000008"><a xlink:href="classxpath__ast__node.html#a6b675237a590548b68d0e0b97518b6df" target="_top" xlink:title=" ">
<polygon fill="white" stroke="#666666" points="434.25,-366 325.25,-366 325.25,-334 434.25,-334 434.25,-366"/>
<text xml:space="preserve" text-anchor="start" x="333.25" y="-352.5" font-family="Helvetica,sans-Serif" font-size="10.00">xpath_ast_node::eval</text>
<text xml:space="preserve" text-anchor="middle" x="379.75" y="-340.5" font-family="Helvetica,sans-Serif" font-size="10.00">_string</text>
</a>
</g>
</g>
<!-- Node2&#45;&gt;Node8 -->
<g id="edge24_Node000002_Node000008" class="edge">
<title>Node2&#45;&gt;Node8</title>
<g id="a_edge24_Node000002_Node000008"><a xlink:title=" ">
<path fill="none" stroke="#63b8ff" d="M939.27,-304.4C926.8,-306.87 913.8,-309.28 901.5,-311 732.21,-334.62 529.47,-339.72 434.63,-344.37"/>
<polygon fill="#63b8ff" stroke="#63b8ff" points="939.94,-307.84 949.06,-302.45 938.57,-300.98 939.94,-307.84"/>
</a>
</g>
</g>
<!-- Node9 -->
<g id="Node000009" class="node">
<title>Node9</title>
<g id="a_Node000009"><a xlink:href="classxpath__ast__node.html#a92dd7048e28d486bc7f382d1fc6f1de6" target="_top" xlink:title=" ">
<polygon fill="white" stroke="#666666" points="289.25,-313 180.25,-313 180.25,-281 289.25,-281 289.25,-313"/>
<text xml:space="preserve" text-anchor="start" x="188.25" y="-299.5" font-family="Helvetica,sans-Serif" font-size="10.00">xpath_ast_node::eval</text>
<text xml:space="preserve" text-anchor="middle" x="234.75" y="-287.5" font-family="Helvetica,sans-Serif" font-size="10.00">_number</text>
</a>
</g>
</g>
<!-- Node2&#45;&gt;Node9 -->
<g id="edge23_Node000002_Node000009" class="edge">
<title>Node2&#45;&gt;Node9</title>
<g id="a_edge23_Node000002_Node000009"><a xlink:title=" ">
<path fill="none" stroke="#63b8ff" d="M939.24,-290.18C873.52,-288 769.23,-288 679,-288 679,-288 679,-288 523.75,-288 442.12,-288 347.49,-288 289.63,-290.33"/>
<polygon fill="#63b8ff" stroke="#63b8ff" points="939.01,-293.68 949.14,-290.55 939.27,-286.68 939.01,-293.68"/>
</a>
</g>
</g>
<!-- Node4 -->
<g id="Node000004" class="node">
<title>Node4</title>
<g id="a_Node000004"><a xlink:href="classxpath__ast__node.html#a7e35f265c9e0712a16e1d8a9db4c7672" target="_top" xlink:title=" ">
<polygon fill="white" stroke="#666666" points="735.12,-184 620.88,-184 620.88,-152 735.12,-152 735.12,-184"/>
<text xml:space="preserve" text-anchor="start" x="628.88" y="-170.5" font-family="Helvetica,sans-Serif" font-size="10.00">xpath_ast_node::apply</text>
<text xml:space="preserve" text-anchor="middle" x="678" y="-158.5" font-family="Helvetica,sans-Serif" font-size="10.00">_predicate</text>
</a>
</g>
</g>
<!-- Node3&#45;&gt;Node4 -->
<g id="edge3_Node000003_Node000004" class="edge">
<title>Node3&#45;&gt;Node4</title>
<g id="a_edge3_Node000003_Node000004"><a xlink:title=" ">
<path fill="none" stroke="#63b8ff" d="M770.5,-178.92C758.79,-177.53 746.73,-176.09 735.37,-174.73"/>
<polygon fill="#63b8ff" stroke="#63b8ff" points="769.73,-182.36 780.07,-180.07 770.56,-175.41 769.73,-182.36"/>
</a>
</g>
</g>
<!-- Node5 -->
<g id="Node000005" class="node">
<title>Node5</title>
<g id="a_Node000005"><a xlink:href="classxpath__ast__node.html#a68cace396dd4eeae67ecfcd34a3a8285" target="_top" xlink:title=" ">
<polygon fill="white" stroke="#666666" points="579.25,-260 470.25,-260 470.25,-228 579.25,-228 579.25,-260"/>
<text xml:space="preserve" text-anchor="start" x="478.25" y="-246.5" font-family="Helvetica,sans-Serif" font-size="10.00">xpath_ast_node::eval</text>
<text xml:space="preserve" text-anchor="middle" x="524.75" y="-234.5" font-family="Helvetica,sans-Serif" font-size="10.00">_node_set</text>
</a>
</g>
</g>
<!-- Node4&#45;&gt;Node5 -->
<g id="edge4_Node000004_Node000005" class="edge">
<title>Node4&#45;&gt;Node5</title>
<g id="a_edge4_Node000004_Node000005"><a xlink:title=" ">
<path fill="none" stroke="#63b8ff" d="M623.66,-189.03C620.8,-190.33 617.98,-191.66 615.25,-193 598.62,-201.16 595.33,-204.8 579.25,-214 571.49,-218.44 563.06,-223.2 555.23,-227.58"/>
<polygon fill="#63b8ff" stroke="#63b8ff" points="625,-192.26 632.74,-185.04 622.18,-185.85 625,-192.26"/>
</a>
</g>
</g>
<!-- Node5&#45;&gt;Node2 -->
<g id="edge9_Node000005_Node000002" class="edge">
<title>Node5&#45;&gt;Node2</title>
<g id="a_edge9_Node000005_Node000002"><a xlink:title=" ">
<path fill="none" stroke="#63b8ff" d="M590.69,-246.42C665.84,-249.86 793.17,-257.66 901.5,-274 917.53,-276.42 934.79,-279.91 950.51,-283.45"/>
<polygon fill="#63b8ff" stroke="#63b8ff" points="591.19,-242.94 581.04,-245.99 590.88,-249.93 591.19,-242.94"/>
</a>
</g>
</g>
<!-- Node5&#45;&gt;Node6 -->
<g id="edge5_Node000005_Node000006" class="edge">
<title>Node5&#45;&gt;Node6</title>
<g id="a_edge5_Node000005_Node000006"><a xlink:title=" ">
<path fill="none" stroke="#63b8ff" d="M458.5,-237.91C387.33,-233.82 271.41,-234.74 180.25,-272 160.97,-279.88 160.9,-289.49 144.25,-302 126.03,-315.69 104.18,-330.16 89.55,-339.59"/>
<polygon fill="#63b8ff" stroke="#63b8ff" points="458.25,-241.4 468.45,-238.54 458.69,-234.41 458.25,-241.4"/>
</a>
</g>
</g>
<!-- Node7 -->
<g id="Node000007" class="node">
<title>Node7</title>
<g id="a_Node000007"><a xlink:href="classxpath__ast__node.html#abb6e4c529276eaf882233dbb6e04e111" target="_top" xlink:title=" ">
<polygon fill="white" stroke="#666666" points="144.25,-134 0,-134 0,-114 144.25,-114 144.25,-134"/>
<text xml:space="preserve" text-anchor="middle" x="72.12" y="-120.5" font-family="Helvetica,sans-Serif" font-size="10.00">xpath_ast_node::compare_rel</text>
</a>
</g>
</g>
<!-- Node5&#45;&gt;Node7 -->
<g id="edge7_Node000005_Node000007" class="edge">
<title>Node5&#45;&gt;Node7</title>
<g id="a_edge7_Node000005_Node000007"><a xlink:title=" ">
<path fill="none" stroke="#63b8ff" d="M458.94,-226.74C363.98,-201.45 189.89,-155.09 112.27,-134.42"/>
<polygon fill="#63b8ff" stroke="#63b8ff" points="457.82,-230.06 468.38,-229.25 459.62,-223.3 457.82,-230.06"/>
</a>
</g>
</g>
<!-- Node5&#45;&gt;Node8 -->
<g id="edge10_Node000005_Node000008" class="edge">
<title>Node5&#45;&gt;Node8</title>
<g id="a_edge10_Node000005_Node000008"><a xlink:title=" ">
<path fill="none" stroke="#63b8ff" d="M492.62,-267.07C465.41,-287.25 426.59,-316.02 402.57,-333.83"/>
<polygon fill="#63b8ff" stroke="#63b8ff" points="494.55,-270 500.5,-261.23 490.39,-264.37 494.55,-270"/>
</a>
</g>
</g>
<!-- Node6&#45;&gt;Node2 -->
<g id="edge6_Node000006_Node000002" class="edge">
<title>Node6&#45;&gt;Node2</title>
<g id="a_edge6_Node000006_Node000002"><a xlink:title=" ">
<path fill="none" stroke="#63b8ff" d="M101.94,-364.62C155.72,-385.02 275.33,-418 378.75,-418 679,-418 679,-418 679,-418 800.91,-418 935.22,-346.88 984.76,-313.43"/>
<polygon fill="#63b8ff" stroke="#63b8ff" points="103.48,-361.46 92.9,-361.03 100.9,-367.97 103.48,-361.46"/>
</a>
</g>
</g>
<!-- Node7&#45;&gt;Node2 -->
<g id="edge8_Node000007_Node000002" class="edge">
<title>Node7&#45;&gt;Node2</title>
<g id="a_edge8_Node000007_Node000002"><a xlink:title=" ">
<path fill="none" stroke="#63b8ff" d="M136.43,-111.49C198.04,-100.42 294.44,-86 378.75,-86 679,-86 679,-86 679,-86 783.5,-86 816.7,-100.93 901.5,-162 946.71,-194.56 981.31,-252.63 996.32,-280.79"/>
<polygon fill="#63b8ff" stroke="#63b8ff" points="136.04,-108 126.83,-113.24 137.29,-114.89 136.04,-108"/>
</a>
</g>
</g>
<!-- Node8&#45;&gt;Node2 -->
<g id="edge12_Node000008_Node000002" class="edge">
<title>Node8&#45;&gt;Node2</title>
<g id="a_edge12_Node000008_Node000002"><a xlink:title=" ">
<path fill="none" stroke="#63b8ff" d="M445.93,-355.42C544.86,-357.3 738.66,-351.72 901.5,-329 925.45,-325.66 952.09,-319.65 972.27,-313.38"/>
<polygon fill="#63b8ff" stroke="#63b8ff" points="446.22,-351.92 436.14,-355.19 446.06,-358.92 446.22,-351.92"/>
</a>
</g>
</g>
<!-- Node8&#45;&gt;Node6 -->
<g id="edge11_Node000008_Node000006" class="edge">
<title>Node8&#45;&gt;Node6</title>
<g id="a_edge11_Node000008_Node000006"><a xlink:title=" ">
<path fill="none" stroke="#63b8ff" d="M313.57,-350C263.95,-350 195.71,-350 144.6,-350"/>
<polygon fill="#63b8ff" stroke="#63b8ff" points="313.3,-353.5 323.3,-350 313.3,-346.5 313.3,-353.5"/>
</a>
</g>
</g>
<!-- Node8&#45;&gt;Node9 -->
<g id="edge13_Node000008_Node000009" class="edge">
<title>Node8&#45;&gt;Node9</title>
<g id="a_edge13_Node000008_Node000009"><a xlink:title=" ">
<path fill="none" stroke="#63b8ff" d="M339.28,-329.26C323.92,-322.91 306.07,-316.15 289.57,-310.38"/>
<polygon fill="#63b8ff" stroke="#63b8ff" points="337.5,-332.31 348.07,-332.99 340.23,-325.86 337.5,-332.31"/>
</a>
</g>
</g>
<!-- Node9&#45;&gt;Node2 -->
<g id="edge20_Node000009_Node000002" class="edge">
<title>Node9&#45;&gt;Node2</title>
<g id="a_edge20_Node000009_Node000002"><a xlink:title=" ">
<path fill="none" stroke="#63b8ff" d="M300.89,-304.08C359.27,-306 447.23,-306 523.75,-306 679,-306 679,-306 679,-306 774.64,-306 886.1,-306 950.65,-303.4"/>
<polygon fill="#63b8ff" stroke="#63b8ff" points="301.26,-300.59 291.14,-303.72 301,-307.58 301.26,-300.59"/>
</a>
</g>
</g>
<!-- Node9&#45;&gt;Node6 -->
<g id="edge18_Node000009_Node000006" class="edge">
<title>Node9&#45;&gt;Node6</title>
<g id="a_edge18_Node000009_Node000006"><a xlink:title=" ">
<path fill="none" stroke="#63b8ff" d="M172.99,-317.05C149.78,-324.71 124.26,-333.13 104.82,-339.54"/>
<polygon fill="#63b8ff" stroke="#63b8ff" points="173.97,-320.41 182.37,-313.95 171.78,-313.76 173.97,-320.41"/>
</a>
</g>
</g>
<!-- Node9&#45;&gt;Node7 -->
<g id="edge19_Node000009_Node000007" class="edge">
<title>Node9&#45;&gt;Node7</title>
<g id="a_edge19_Node000009_Node000007"><a xlink:title=" ">
<path fill="none" stroke="#63b8ff" d="M220.99,-270.5C205.9,-241.3 178.45,-194.34 144.25,-163 130.96,-150.82 113.18,-141.07 98.72,-134.37"/>
<polygon fill="#63b8ff" stroke="#63b8ff" points="217.85,-272.04 225.47,-279.39 224.1,-268.89 217.85,-272.04"/>
</a>
</g>
</g>
<!-- Node9&#45;&gt;Node8 -->
<g id="edge21_Node000009_Node000008" class="edge">
<title>Node9&#45;&gt;Node8</title>
<g id="a_edge21_Node000009_Node000008"><a xlink:title=" ">
<path fill="none" stroke="#63b8ff" d="M275.41,-317.81C290.77,-324.16 308.61,-330.92 325.1,-336.67"/>
<polygon fill="#63b8ff" stroke="#63b8ff" points="277.17,-314.76 266.6,-314.09 274.45,-321.21 277.17,-314.76"/>
</a>
</g>
</g>
<!-- Node10 -->
<g id="Node000010" class="node">
<title>Node10</title>
<g id="a_Node000010"><a xlink:href="classxpath__ast__node.html#abf2d4b745493f63aebc1c89d9fde8eed" target="_top" xlink:title=" ">
<polygon fill="white" stroke="#666666" points="129.25,-293 15,-293 15,-261 129.25,-261 129.25,-293"/>
<text xml:space="preserve" text-anchor="start" x="23" y="-279.5" font-family="Helvetica,sans-Serif" font-size="10.00">xpath_ast_node::apply</text>
<text xml:space="preserve" text-anchor="middle" x="72.12" y="-267.5" font-family="Helvetica,sans-Serif" font-size="10.00">_predicate_number</text>
</a>
</g>
</g>
<!-- Node9&#45;&gt;Node10 -->
<g id="edge14_Node000009_Node000010" class="edge">
<title>Node9&#45;&gt;Node10</title>
<g id="a_edge14_Node000009_Node000010"><a xlink:title=" ">
<path fill="none" stroke="#63b8ff" d="M168.64,-288.89C155.73,-287.28 142.27,-285.61 129.66,-284.04"/>
<polygon fill="#63b8ff" stroke="#63b8ff" points="167.96,-292.34 178.32,-290.1 168.82,-285.39 167.96,-292.34"/>
</a>
</g>
</g>
<!-- Node11 -->
<g id="Node000011" class="node">
<title>Node11</title>
<g id="a_Node000011"><a xlink:href="classxpath__ast__node.html#a8cedd7e15623b9fa431788b8843f1463" target="_top" xlink:title=" ">
<polygon fill="white" stroke="#666666" points="136,-204 8.25,-204 8.25,-172 136,-172 136,-204"/>
<text xml:space="preserve" text-anchor="start" x="16.25" y="-190.5" font-family="Helvetica,sans-Serif" font-size="10.00">xpath_ast_node::apply</text>
<text xml:space="preserve" text-anchor="middle" x="72.12" y="-178.5" font-family="Helvetica,sans-Serif" font-size="10.00">_predicate_number_const</text>
</a>
</g>
</g>
<!-- Node9&#45;&gt;Node11 -->
<g id="edge16_Node000009_Node000011" class="edge">
<title>Node9&#45;&gt;Node11</title>
<g id="a_edge16_Node000009_Node000011"><a xlink:title=" ">
<path fill="none" stroke="#63b8ff" d="M200.26,-274.27C169.52,-253.42 124.73,-223.02 97.34,-204.43"/>
<polygon fill="#63b8ff" stroke="#63b8ff" points="198.21,-277.11 208.45,-279.83 202.14,-271.32 198.21,-277.11"/>
</a>
</g>
</g>
<!-- Node10&#45;&gt;Node4 -->
<g id="edge15_Node000010_Node000004" class="edge">
<title>Node10&#45;&gt;Node4</title>
<g id="a_edge15_Node000010_Node000004"><a xlink:title=" ">
<path fill="none" stroke="#63b8ff" d="M126.9,-256.74C143.78,-250.97 162.62,-245.14 180.25,-241 354.52,-200.09 402.51,-214.44 579.25,-186 592.62,-183.85 606.99,-181.32 620.48,-178.86"/>
<polygon fill="#63b8ff" stroke="#63b8ff" points="125.83,-253.4 117.54,-260 128.14,-260.01 125.83,-253.4"/>
</a>
</g>
</g>
<!-- Node11&#45;&gt;Node4 -->
<g id="edge17_Node000011_Node000004" class="edge">
<title>Node11&#45;&gt;Node4</title>
<g id="a_edge17_Node000011_Node000004"><a xlink:title=" ">
<path fill="none" stroke="#63b8ff" d="M147.62,-185.53C270,-181.48 510.96,-173.5 620.46,-169.87"/>
<polygon fill="#63b8ff" stroke="#63b8ff" points="147.54,-182.03 137.66,-185.86 147.77,-189.03 147.54,-182.03"/>
</a>
</g>
</g>
<!-- Node15 -->
<g id="Node000015" class="node">
<title>Node15</title>
<g id="a_Node000015"><a xlink:href="classxpath__ast__node.html#aca100722d72e30f12c7276e8b2616587" target="_top" xlink:title=" ">
<polygon fill="white" stroke="#666666" points="740.38,-20 615.62,-20 615.62,0 740.38,0 740.38,-20"/>
<text xml:space="preserve" text-anchor="middle" x="678" y="-6.5" font-family="Helvetica,sans-Serif" font-size="10.00">xpath_ast_node::step_fill</text>
</a>
</g>
</g>
<!-- Node14&#45;&gt;Node15 -->
<g id="edge28_Node000014_Node000015" class="edge">
<title>Node14&#45;&gt;Node15</title>
<g id="a_edge28_Node000014_Node000015"><a xlink:title=" ">
<path fill="none" stroke="#63b8ff" d="M942.26,-35.51C928.85,-33.1 914.73,-30.78 901.5,-29 847.32,-21.71 785.33,-16.68 740.56,-13.64"/>
<polygon fill="#63b8ff" stroke="#63b8ff" points="941.36,-38.9 951.83,-37.27 942.62,-32.02 941.36,-38.9"/>
</a>
</g>
</g>
<!-- Node16 -->
<g id="Node000016" class="node">
<title>Node16</title>
<g id="a_Node000016"><a xlink:href="classxpath__ast__node.html#acbc4f5ec0e4d48444564d5101890416e" target="_top" xlink:title=" ">
<polygon fill="white" stroke="#666666" points="901.5,-58 776.75,-58 776.75,-38 901.5,-38 901.5,-58"/>
<text xml:space="preserve" text-anchor="middle" x="839.12" y="-44.5" font-family="Helvetica,sans-Serif" font-size="10.00">xpath_ast_node::step_fill</text>
</a>
</g>
</g>
<!-- Node14&#45;&gt;Node16 -->
<g id="edge29_Node000014_Node000016" class="edge">
<title>Node14&#45;&gt;Node16</title>
<g id="a_edge29_Node000014_Node000016"><a xlink:title=" ">
<path fill="none" stroke="#63b8ff" d="M925.83,-48C917.76,-48 909.65,-48 901.8,-48"/>
<polygon fill="#63b8ff" stroke="#63b8ff" points="925.65,-51.5 935.65,-48 925.65,-44.5 925.65,-51.5"/>
</a>
</g>
</g>
<!-- Node16&#45;&gt;Node15 -->
<g id="edge33_Node000016_Node000015" class="edge">
<title>Node16&#45;&gt;Node15</title>
<g id="a_edge33_Node000016_Node000015"><a xlink:title=" ">
<path fill="none" stroke="#63b8ff" d="M783.2,-34.88C763.45,-30.17 741.44,-24.91 722.76,-20.45"/>
<polygon fill="#63b8ff" stroke="#63b8ff" points="782.21,-38.25 792.75,-37.16 783.84,-31.44 782.21,-38.25"/>
</a>
</g>
</g>
<!-- Node17 -->
<g id="Node000017" class="node">
<title>Node17</title>
<g id="a_Node000017"><a xlink:href="classxpath__ast__node.html#a3258c05ab9aaa78e154d2ff63fe56906" target="_top" xlink:title=" ">
<polygon fill="white" stroke="#666666" points="740.75,-222 615.25,-222 615.25,-202 740.75,-202 740.75,-222"/>
<text xml:space="preserve" text-anchor="middle" x="678" y="-208.5" font-family="Helvetica,sans-Serif" font-size="10.00">xpath_ast_node::step_do</text>
</a>
</g>
</g>
<!-- Node16&#45;&gt;Node17 -->
<g id="edge30_Node000016_Node000017" class="edge">
<title>Node16&#45;&gt;Node17</title>
<g id="a_edge30_Node000016_Node000017"><a xlink:title=" ">
<path fill="none" stroke="#63b8ff" d="M829.68,-68.75C815.8,-100.25 785.21,-159.97 740.75,-193 736.16,-196.41 730.95,-199.22 725.54,-201.52"/>
<polygon fill="#63b8ff" stroke="#63b8ff" points="832.89,-70.14 833.58,-59.56 826.45,-67.4 832.89,-70.14"/>
</a>
</g>
</g>
<!-- Node18 -->
<g id="Node000018" class="node">
<title>Node18</title>
<g id="a_Node000018"><a xlink:href="classxpath__ast__node.html#ad1bf00f367027a353dc253900e85c036" target="_top" xlink:title=" ">
<polygon fill="white" stroke="#666666" points="740.38,-58 615.62,-58 615.62,-38 740.38,-38 740.38,-58"/>
<text xml:space="preserve" text-anchor="middle" x="678" y="-44.5" font-family="Helvetica,sans-Serif" font-size="10.00">xpath_ast_node::step_fill</text>
</a>
</g>
</g>
<!-- Node16&#45;&gt;Node18 -->
<g id="edge32_Node000016_Node000018" class="edge">
<title>Node16&#45;&gt;Node18</title>
<g id="a_edge32_Node000016_Node000018"><a xlink:title=" ">
<path fill="none" stroke="#63b8ff" d="M765.12,-48C756.93,-48 748.65,-48 740.62,-48"/>
<polygon fill="#63b8ff" stroke="#63b8ff" points="765.09,-51.5 775.09,-48 765.09,-44.5 765.09,-51.5"/>
</a>
</g>
</g>
<!-- Node17&#45;&gt;Node5 -->
<g id="edge31_Node000017_Node000005" class="edge">
<title>Node17&#45;&gt;Node5</title>
<g id="a_edge31_Node000017_Node000005"><a xlink:title=" ">
<path fill="none" stroke="#63b8ff" d="M616.46,-224.81C604.26,-227.39 591.51,-230.09 579.56,-232.62"/>
<polygon fill="#63b8ff" stroke="#63b8ff" points="616.94,-228.29 625.99,-222.79 615.49,-221.44 616.94,-228.29"/>
</a>
</g>
</g>
</g>
</svg>

<g id="navigator" transform="translate(0 0)" fill="#404254">
  <rect fill="#f2f5e9" fill-opacity="0.5" stroke="#606060" stroke-width=".5" x="0" y="0" width="60" height="60"/>
  <use id="zoomplus" xlink:href="#zoomPlus" x="17" y="9" onmousedown="handleZoom(evt,'in')"/>
  <use id="zoomminus" xlink:href="#zoomMin" x="42" y="9" onmousedown="handleZoom(evt,'out')"/>
  <use id="reset" xlink:href="#resetDef" x="30" y="36" onmousedown="handleReset()"/>
   <use id="arrowup" xlink:href="#arrowUp" x="0" y="0" onmousedown="handlePan(0,-1)"/>
  <use id="arrowright" xlink:href="#arrowRight" x="0" y="0" onmousedown="handlePan(1,0)"/>
  <use id="arrowdown" xlink:href="#arrowDown" x="0" y="0" onmousedown="handlePan(0,1)"/>
  <use id="arrowleft" xlink:href="#arrowLeft" x="0" y="0" onmousedown="handlePan(-1,0)"/>
</g>
<svg viewBox="0 0 15 15" width="100%" height="30px" preserveAspectRatio="xMaxYMin meet">
 <g id="arrow_out" transform="scale(0.3 0.3)">
  <a xlink:href="pugixml_8cpp_a18ca4720d82fac6db58f522a2c6a682e_icgraph_org.svg" target="_base">
   <rect id="button" ry="5" rx="5" y="6" x="6" height="38" width="38"
        fill="#f2f5e9" fill-opacity="0.5" stroke="#606060" stroke-width="1.0"/>
   <path id="arrow"
     d="M 11.500037,31.436501 C 11.940474,20.09759 22.043105,11.32322 32.158766,21.979434 L 37.068811,17.246167 C 37.068811,17.246167 37.088388,32 37.088388,32 L 22.160133,31.978069 C 22.160133,31.978069 26.997745,27.140456 26.997745,27.140456 C 18.528582,18.264221 13.291696,25.230495 11.500037,31.436501 z"
     style="fill:#404040;"/>
  </a>
 </g>
</svg>

<style type='text/css'>
<![CDATA[
[data-mouse-over-selected='false'] { opacity: 0.7; }
[data-mouse-over-selected='true']  { opacity: 1.0; }
]]>
</style>
<script type="application/ecmascript"><![CDATA[
document.addEventListener('DOMContentLoaded', (event) => {
  highlightEdges();
  highlightAdjacentNodes();
});
]]></script>
</svg>
