<?xml version="1.0" encoding="UTF-8" standalone="no"?>
<!DOCTYPE svg PUBLIC "-//W3C//DTD SVG 1.1//EN"
 "http://www.w3.org/Graphics/SVG/1.1/DTD/svg11.dtd">
<!-- Generated by graphviz version 14.1.2 (20260124.0452)
 -->
<!-- Title: get_wchar_encoding Pages: 1 -->
<svg width="560pt" height="216pt"
 viewBox="0.00 0.00 560.00 216.00" xmlns="http://www.w3.org/2000/svg" xmlns:xlink="http://www.w3.org/1999/xlink">
<g id="graph0" class="graph" transform="scale(1 1) rotate(0) translate(4 212)">
<title>get_wchar_encoding</title>
<!-- Node1 -->
<g id="Node000001" class="node">
<title>Node1</title>
<g id="a_Node000001"><a xlink:title=" ">
<polygon fill="#999999" stroke="#666666" points="552.25,-148 447,-148 447,-128 552.25,-128 552.25,-148"/>
<text xml:space="preserve" text-anchor="middle" x="499.62" y="-134.5" font-family="Helvetica,sans-Serif" font-size="10.00">get_wchar_encoding</text>
</a>
</g>
</g>
<!-- Node2 -->
<g id="Node000002" class="node">
<title>Node2</title>
<g id="a_Node000002"><a xlink:href="pugixml_8cpp.html#aff8218b7e2530f96bbf74558e67ebdf6" target="_top" xlink:title=" ">
<polygon fill="white" stroke="#666666" points="396.75,-206 293.75,-206 293.75,-186 396.75,-186 396.75,-206"/>
<text xml:space="preserve" text-anchor="middle" x="345.25" y="-192.5" font-family="Helvetica,sans-Serif" font-size="10.00">get_buffer_encoding</text>
</a>
</g>
</g>
<!-- Node1&#45;&gt;Node2 -->
<g id="edge1_Node000001_Node000002" class="edge">
<title>Node1&#45;&gt;Node2</title>
<g id="a_edge1_Node000001_Node000002"><a xlink:title=" ">
<path fill="none" stroke="#63b8ff" d="M467.17,-153.22C450.66,-160.9 429.98,-170.03 411,-177 402.64,-180.07 393.54,-182.99 384.87,-185.58"/>
<polygon fill="#63b8ff" stroke="#63b8ff" points="468.42,-156.5 475.98,-149.07 465.44,-150.17 468.42,-156.5"/>
</a>
</g>
</g>
<!-- Node5 -->
<g id="Node000005" class="node">
<title>Node5</title>
<g id="a_Node000005"><a xlink:href="pugixml_8cpp.html#a8b37b77e90cb5817784fa4d3c0fce380" target="_top" xlink:title=" ">
<polygon fill="white" stroke="#666666" points="395.25,-129 295.25,-129 295.25,-109 395.25,-109 395.25,-129"/>
<text xml:space="preserve" text-anchor="middle" x="345.25" y="-115.5" font-family="Helvetica,sans-Serif" font-size="10.00">get_write_encoding</text>
</a>
</g>
</g>
<!-- Node1&#45;&gt;Node5 -->
<g id="edge4_Node000001_Node000005" class="edge">
<title>Node1&#45;&gt;Node5</title>
<g id="a_edge4_Node000001_Node000005"><a xlink:title=" ">
<path fill="none" stroke="#63b8ff" d="M435.2,-130.09C422.02,-128.45 408.31,-126.74 395.71,-125.17"/>
<polygon fill="#63b8ff" stroke="#63b8ff" points="434.75,-133.56 445.11,-131.33 435.62,-126.62 434.75,-133.56"/>
</a>
</g>
</g>
<!-- Node7 -->
<g id="Node000007" class="node">
<title>Node7</title>
<g id="a_Node000007"><a xlink:href="pugixml_8cpp.html#a9ffc09483eb40cb8f51996b8d25cd099" target="_top" xlink:title=" ">
<polygon fill="white" stroke="#666666" points="411,-76 279.5,-76 279.5,-56 411,-56 411,-76"/>
<text xml:space="preserve" text-anchor="middle" x="345.25" y="-62.5" font-family="Helvetica,sans-Serif" font-size="10.00">get_write_native_encoding</text>
</a>
</g>
</g>
<!-- Node1&#45;&gt;Node7 -->
<g id="edge6_Node000001_Node000007" class="edge">
<title>Node1&#45;&gt;Node7</title>
<g id="a_edge6_Node000001_Node000007"><a xlink:title=" ">
<path fill="none" stroke="#63b8ff" d="M466.28,-122.72C436.84,-108.81 394.17,-88.65 368.43,-76.48"/>
<polygon fill="#63b8ff" stroke="#63b8ff" points="464.56,-125.78 475.1,-126.88 467.55,-119.45 464.56,-125.78"/>
</a>
</g>
</g>
<!-- Node12 -->
<g id="Node000012" class="node">
<title>Node12</title>
<g id="a_Node000012"><a xlink:href="pugixml_8cpp.html#af6a1ac44e5fd3b802b252f68c665c4c5" target="_top" xlink:title=" ">
<polygon fill="white" stroke="#666666" points="400.12,-168 290.38,-168 290.38,-148 400.12,-148 400.12,-168"/>
<text xml:space="preserve" text-anchor="middle" x="345.25" y="-154.5" font-family="Helvetica,sans-Serif" font-size="10.00">zero_terminate_buffer</text>
</a>
</g>
</g>
<!-- Node1&#45;&gt;Node12 -->
<g id="edge11_Node000001_Node000012" class="edge">
<title>Node1&#45;&gt;Node12</title>
<g id="a_edge11_Node000001_Node000012"><a xlink:title=" ">
<path fill="none" stroke="#63b8ff" d="M435.21,-146.32C423.63,-147.84 411.64,-149.42 400.36,-150.9"/>
<polygon fill="#63b8ff" stroke="#63b8ff" points="435.65,-149.8 445.11,-145.02 434.74,-142.86 435.65,-149.8"/>
</a>
</g>
</g>
<!-- Node3 -->
<g id="Node000003" class="node">
<title>Node3</title>
<g id="a_Node000003"><a xlink:href="pugixml_8cpp.html#aceaecd7da4188d11f224e33404cb23ba" target="_top" xlink:title=" ">
<polygon fill="white" stroke="#666666" points="227.75,-170 152.5,-170 152.5,-150 227.75,-150 227.75,-170"/>
<text xml:space="preserve" text-anchor="middle" x="190.12" y="-156.5" font-family="Helvetica,sans-Serif" font-size="10.00">load_file_impl</text>
</a>
</g>
</g>
<!-- Node2&#45;&gt;Node3 -->
<g id="edge2_Node000002_Node000003" class="edge">
<title>Node2&#45;&gt;Node3</title>
<g id="a_edge2_Node000002_Node000003"><a xlink:title=" ">
<path fill="none" stroke="#63b8ff" d="M288.98,-183C268.73,-178.25 246.33,-172.98 228.08,-168.69"/>
<polygon fill="#63b8ff" stroke="#63b8ff" points="287.95,-186.36 298.49,-185.24 289.55,-179.55 287.95,-186.36"/>
</a>
</g>
</g>
<!-- Node4 -->
<g id="Node000004" class="node">
<title>Node4</title>
<g id="a_Node000004"><a xlink:href="pugixml_8cpp.html#a826b7e183311c8aa4e5b25157a3b3d3f" target="_top" xlink:title=" ">
<polygon fill="white" stroke="#666666" points="236.38,-208 143.88,-208 143.88,-188 236.38,-188 236.38,-208"/>
<text xml:space="preserve" text-anchor="middle" x="190.12" y="-194.5" font-family="Helvetica,sans-Serif" font-size="10.00">load_stream_impl</text>
</a>
</g>
</g>
<!-- Node2&#45;&gt;Node4 -->
<g id="edge3_Node000002_Node000004" class="edge">
<title>Node2&#45;&gt;Node4</title>
<g id="a_edge3_Node000002_Node000004"><a xlink:title=" ">
<path fill="none" stroke="#63b8ff" d="M281.9,-196.81C266.79,-197.01 250.91,-197.22 236.74,-197.4"/>
<polygon fill="#63b8ff" stroke="#63b8ff" points="281.79,-200.32 291.75,-196.69 281.7,-193.32 281.79,-200.32"/>
</a>
</g>
</g>
<!-- Node6 -->
<g id="Node000006" class="node">
<title>Node6</title>
<g id="a_Node000006"><a xlink:href="classxml__buffered__writer.html#a3c22ad246e2aebb6597935baf4a223a7" target="_top" xlink:title=" ">
<polygon fill="white" stroke="#666666" points="243.5,-132 136.75,-132 136.75,-100 243.5,-100 243.5,-132"/>
<text xml:space="preserve" text-anchor="start" x="144.75" y="-118.5" font-family="Helvetica,sans-Serif" font-size="10.00">xml_buffered_writer</text>
<text xml:space="preserve" text-anchor="middle" x="190.12" y="-106.5" font-family="Helvetica,sans-Serif" font-size="10.00">::xml_buffered_writer</text>
</a>
</g>
</g>
<!-- Node5&#45;&gt;Node6 -->
<g id="edge5_Node000005_Node000006" class="edge">
<title>Node5&#45;&gt;Node6</title>
<g id="a_edge5_Node000005_Node000006"><a xlink:title=" ">
<path fill="none" stroke="#63b8ff" d="M283.59,-117.81C270.42,-117.55 256.59,-117.28 243.76,-117.03"/>
<polygon fill="#63b8ff" stroke="#63b8ff" points="283.38,-121.31 293.44,-118 283.51,-114.31 283.38,-121.31"/>
</a>
</g>
</g>
<!-- Node8 -->
<g id="Node000008" class="node">
<title>Node8</title>
<g id="a_Node000008"><a xlink:href="classxml__buffered__writer.html#aa733cb2cd0d5fcacec92c67a7f26c553" target="_top" xlink:title=" ">
<polygon fill="white" stroke="#666666" points="240.5,-32 139.75,-32 139.75,0 240.5,0 240.5,-32"/>
<text xml:space="preserve" text-anchor="start" x="147.75" y="-18.5" font-family="Helvetica,sans-Serif" font-size="10.00">xml_buffered_writer</text>
<text xml:space="preserve" text-anchor="middle" x="190.12" y="-6.5" font-family="Helvetica,sans-Serif" font-size="10.00">::flush</text>
</a>
</g>
</g>
<!-- Node7&#45;&gt;Node8 -->
<g id="edge7_Node000007_Node000008" class="edge">
<title>Node7&#45;&gt;Node8</title>
<g id="a_edge7_Node000007_Node000008"><a xlink:title=" ">
<path fill="none" stroke="#63b8ff" d="M301.26,-51.96C282.52,-45.84 260.43,-38.63 240.97,-32.28"/>
<polygon fill="#63b8ff" stroke="#63b8ff" points="300.12,-55.27 310.71,-55.05 302.29,-48.62 300.12,-55.27"/>
</a>
</g>
</g>
<!-- Node9 -->
<g id="Node000009" class="node">
<title>Node9</title>
<g id="a_Node000009"><a xlink:href="classxml__buffered__writer.html#a119f9db2f60e578e69ac81177e932fb3" target="_top" xlink:title=" ">
<polygon fill="white" stroke="#666666" points="240.5,-82 139.75,-82 139.75,-50 240.5,-50 240.5,-82"/>
<text xml:space="preserve" text-anchor="start" x="147.75" y="-68.5" font-family="Helvetica,sans-Serif" font-size="10.00">xml_buffered_writer</text>
<text xml:space="preserve" text-anchor="middle" x="190.12" y="-56.5" font-family="Helvetica,sans-Serif" font-size="10.00">::write_direct</text>
</a>
</g>
</g>
<!-- Node7&#45;&gt;Node9 -->
<g id="edge8_Node000007_Node000009" class="edge">
<title>Node7&#45;&gt;Node9</title>
<g id="a_edge8_Node000007_Node000009"><a xlink:title=" ">
<path fill="none" stroke="#63b8ff" d="M268.07,-66C258.82,-66 249.56,-66 240.83,-66"/>
<polygon fill="#63b8ff" stroke="#63b8ff" points="267.8,-69.5 277.8,-66 267.8,-62.5 267.8,-69.5"/>
</a>
</g>
</g>
<!-- Node10 -->
<g id="Node000010" class="node">
<title>Node10</title>
<g id="a_Node000010"><a xlink:href="classxml__buffered__writer.html#ae62b84beff660555acb76e277f967c0d" target="_top" xlink:title=" ">
<polygon fill="white" stroke="#666666" points="100.75,-107 0,-107 0,-75 100.75,-75 100.75,-107"/>
<text xml:space="preserve" text-anchor="start" x="8" y="-93.5" font-family="Helvetica,sans-Serif" font-size="10.00">xml_buffered_writer</text>
<text xml:space="preserve" text-anchor="middle" x="50.38" y="-81.5" font-family="Helvetica,sans-Serif" font-size="10.00">::write_buffer</text>
</a>
</g>
</g>
<!-- Node9&#45;&gt;Node10 -->
<g id="edge9_Node000009_Node000010" class="edge">
<title>Node9&#45;&gt;Node10</title>
<g id="a_edge9_Node000009_Node000010"><a xlink:title=" ">
<path fill="none" stroke="#63b8ff" d="M128.08,-77.08C119.04,-78.72 109.81,-80.4 101.03,-81.99"/>
<polygon fill="#63b8ff" stroke="#63b8ff" points="128.69,-80.53 137.9,-75.3 127.44,-73.64 128.69,-80.53"/>
</a>
</g>
</g>
<!-- Node11 -->
<g id="Node000011" class="node">
<title>Node11</title>
<g id="a_Node000011"><a xlink:href="classxml__buffered__writer.html#a1699556c38e942f7c1db1b98ddf15642" target="_top" xlink:title=" ">
<polygon fill="white" stroke="#666666" points="100.75,-57 0,-57 0,-25 100.75,-25 100.75,-57"/>
<text xml:space="preserve" text-anchor="start" x="8" y="-43.5" font-family="Helvetica,sans-Serif" font-size="10.00">xml_buffered_writer</text>
<text xml:space="preserve" text-anchor="middle" x="50.38" y="-31.5" font-family="Helvetica,sans-Serif" font-size="10.00">::write_string</text>
</a>
</g>
</g>
<!-- Node9&#45;&gt;Node11 -->
<g id="edge10_Node000009_Node000011" class="edge">
<title>Node9&#45;&gt;Node11</title>
<g id="a_edge10_Node000009_Node000011"><a xlink:title=" ">
<path fill="none" stroke="#63b8ff" d="M128.08,-54.92C119.04,-53.28 109.81,-51.6 101.03,-50.01"/>
<polygon fill="#63b8ff" stroke="#63b8ff" points="127.44,-58.36 137.9,-56.7 128.69,-51.47 127.44,-58.36"/>
</a>
</g>
</g>
<!-- Node12&#45;&gt;Node3 -->
<g id="edge12_Node000012_Node000003" class="edge">
<title>Node12&#45;&gt;Node3</title>
<g id="a_edge12_Node000012_Node000003"><a xlink:title=" ">
<path fill="none" stroke="#63b8ff" d="M278.93,-158.85C261.45,-159.08 243.17,-159.32 227.84,-159.52"/>
<polygon fill="#63b8ff" stroke="#63b8ff" points="278.8,-162.36 288.75,-158.72 278.71,-155.36 278.8,-162.36"/>
</a>
</g>
</g>
<!-- Node12&#45;&gt;Node4 -->
<g id="edge13_Node000012_Node000004" class="edge">
<title>Node12&#45;&gt;Node4</title>
<g id="a_edge13_Node000012_Node000004"><a xlink:title=" ">
<path fill="none" stroke="#63b8ff" d="M293.5,-171.26C273.28,-176.54 250.33,-182.54 231.29,-187.51"/>
<polygon fill="#63b8ff" stroke="#63b8ff" points="294.16,-174.7 302.95,-168.79 292.39,-167.93 294.16,-174.7"/>
</a>
</g>
</g>
</g>
</svg>
