<?xml version="1.0" encoding="UTF-8" standalone="no"?>
<!DOCTYPE svg PUBLIC "-//W3C//DTD SVG 1.1//EN"
 "http://www.w3.org/Graphics/SVG/1.1/DTD/svg11.dtd">
<!-- Generated by graphviz version 14.1.2 (20260124.0452)
 -->
<!-- Title: load_stream_impl Pages: 1 -->
<svg width="612pt" height="256pt"
 viewBox="0.00 0.00 612.00 256.00" xmlns="http://www.w3.org/2000/svg" xmlns:xlink="http://www.w3.org/1999/xlink">
<g id="graph0" class="graph" transform="scale(1 1) rotate(0) translate(4 252)">
<title>load_stream_impl</title>
<!-- Node1 -->
<g id="Node000001" class="node">
<title>Node1</title>
<g id="a_Node000001"><a xlink:title=" ">
<polygon fill="#999999" stroke="#666666" points="92.5,-153 0,-153 0,-133 92.5,-133 92.5,-153"/>
<text xml:space="preserve" text-anchor="middle" x="46.25" y="-139.5" font-family="Helvetica,sans-Serif" font-size="10.00">load_stream_impl</text>
</a>
</g>
</g>
<!-- Node2 -->
<g id="Node000002" class="node">
<title>Node2</title>
<g id="a_Node000002"><a xlink:href="pugixml_8cpp.html#aff8218b7e2530f96bbf74558e67ebdf6" target="_top" xlink:title=" ">
<polygon fill="white" stroke="#666666" points="245,-210 142,-210 142,-190 245,-190 245,-210"/>
<text xml:space="preserve" text-anchor="middle" x="193.5" y="-196.5" font-family="Helvetica,sans-Serif" font-size="10.00">get_buffer_encoding</text>
</a>
</g>
</g>
<!-- Node1&#45;&gt;Node2 -->
<g id="edge1_Node000001_Node000002" class="edge">
<title>Node1&#45;&gt;Node2</title>
<g id="a_edge1_Node000001_Node000002"><a xlink:title=" ">
<path fill="none" stroke="#63b8ff" d="M72.43,-153.43C88.44,-160.02 109.64,-168.63 128.5,-176 136.57,-179.15 145.24,-182.46 153.52,-185.57"/>
<polygon fill="#63b8ff" stroke="#63b8ff" points="152.07,-188.77 162.66,-189 154.53,-182.21 152.07,-188.77"/>
</a>
</g>
</g>
<!-- Node7 -->
<g id="Node000007" class="node">
<title>Node7</title>
<g id="a_Node000007"><a xlink:href="pugixml_8cpp.html#af9acc905a97f5a257bf4e9fbac044b5f" target="_top" xlink:title=" ">
<polygon fill="white" stroke="#666666" points="236.75,-134 150.25,-134 150.25,-114 236.75,-114 236.75,-134"/>
<text xml:space="preserve" text-anchor="middle" x="193.5" y="-120.5" font-family="Helvetica,sans-Serif" font-size="10.00">load_buffer_impl</text>
</a>
</g>
</g>
<!-- Node1&#45;&gt;Node7 -->
<g id="edge7_Node000001_Node000007" class="edge">
<title>Node1&#45;&gt;Node7</title>
<g id="a_edge7_Node000001_Node000007"><a xlink:title=" ">
<path fill="none" stroke="#63b8ff" d="M92.81,-137.04C107.4,-135.13 123.68,-133 138.79,-131.03"/>
<polygon fill="#63b8ff" stroke="#63b8ff" points="139.11,-134.51 148.57,-129.75 138.2,-127.57 139.11,-134.51"/>
</a>
</g>
</g>
<!-- Node8 -->
<g id="Node000008" class="node">
<title>Node8</title>
<g id="a_Node000008"><a xlink:href="pugixml_8cpp.html#a9081c36df7470451a2a067677ee9e423" target="_top" xlink:title=" ">
<polygon fill="white" stroke="#666666" points="412.12,-134 313.62,-134 313.62,-114 412.12,-114 412.12,-134"/>
<text xml:space="preserve" text-anchor="middle" x="362.88" y="-120.5" font-family="Helvetica,sans-Serif" font-size="10.00">make_parse_result</text>
</a>
</g>
</g>
<!-- Node1&#45;&gt;Node8 -->
<g id="edge17_Node000001_Node000008" class="edge">
<title>Node1&#45;&gt;Node8</title>
<g id="a_edge17_Node000001_Node000008"><a xlink:title=" ">
<path fill="none" stroke="#63b8ff" d="M92.69,-145.38C135.54,-147.06 201.52,-148.19 258.5,-143 273.34,-141.65 289.24,-139.22 304,-136.55"/>
<polygon fill="#63b8ff" stroke="#63b8ff" points="304.37,-140.04 313.55,-134.75 303.07,-133.16 304.37,-140.04"/>
</a>
</g>
</g>
<!-- Node10 -->
<g id="Node000010" class="node">
<title>Node10</title>
<g id="a_Node000010"><a xlink:href="pugixml_8cpp.html#a9cdb599cc0642b0e5c69d761de3d9882" target="_top" xlink:title=" ">
<polygon fill="white" stroke="#666666" points="258.5,-58 128.5,-58 128.5,-38 258.5,-38 258.5,-58"/>
<text xml:space="preserve" text-anchor="middle" x="193.5" y="-44.5" font-family="Helvetica,sans-Serif" font-size="10.00">load_stream_data_noseek</text>
</a>
</g>
</g>
<!-- Node1&#45;&gt;Node10 -->
<g id="edge10_Node000001_Node000010" class="edge">
<title>Node1&#45;&gt;Node10</title>
<g id="a_edge10_Node000001_Node000010"><a xlink:title=" ">
<path fill="none" stroke="#63b8ff" d="M55.6,-132.54C69.18,-116.2 97.66,-84.67 128.5,-67 131.28,-65.41 134.21,-63.94 137.22,-62.58"/>
<polygon fill="#63b8ff" stroke="#63b8ff" points="138.28,-65.92 146.27,-58.96 135.68,-59.42 138.28,-65.92"/>
</a>
</g>
</g>
<!-- Node14 -->
<g id="Node000014" class="node">
<title>Node14</title>
<g id="a_Node000014"><a xlink:href="pugixml_8cpp.html#a7fb75031ba5591267a20fa508daa8e4b" target="_top" xlink:title=" ">
<polygon fill="white" stroke="#666666" points="253.25,-96 133.75,-96 133.75,-76 253.25,-76 253.25,-96"/>
<text xml:space="preserve" text-anchor="middle" x="193.5" y="-82.5" font-family="Helvetica,sans-Serif" font-size="10.00">load_stream_data_seek</text>
</a>
</g>
</g>
<!-- Node1&#45;&gt;Node14 -->
<g id="edge15_Node000001_Node000014" class="edge">
<title>Node1&#45;&gt;Node14</title>
<g id="a_edge15_Node000001_Node000014"><a xlink:title=" ">
<path fill="none" stroke="#63b8ff" d="M67.26,-132.62C83.49,-124.45 107.1,-113.13 128.5,-105 133.2,-103.22 138.14,-101.49 143.11,-99.86"/>
<polygon fill="#63b8ff" stroke="#63b8ff" points="144.02,-103.24 152.5,-96.89 141.91,-96.56 144.02,-103.24"/>
</a>
</g>
</g>
<!-- Node15 -->
<g id="Node000015" class="node">
<title>Node15</title>
<g id="a_Node000015"><a xlink:href="pugixml_8cpp.html#af6a1ac44e5fd3b802b252f68c665c4c5" target="_top" xlink:title=" ">
<polygon fill="white" stroke="#666666" points="248.38,-248 138.62,-248 138.62,-228 248.38,-228 248.38,-248"/>
<text xml:space="preserve" text-anchor="middle" x="193.5" y="-234.5" font-family="Helvetica,sans-Serif" font-size="10.00">zero_terminate_buffer</text>
</a>
</g>
</g>
<!-- Node1&#45;&gt;Node15 -->
<g id="edge18_Node000001_Node000015" class="edge">
<title>Node1&#45;&gt;Node15</title>
<g id="a_edge18_Node000001_Node000015"><a xlink:title=" ">
<path fill="none" stroke="#63b8ff" d="M55.6,-153.46C69.18,-169.8 97.66,-201.33 128.5,-219 131.28,-220.59 134.21,-222.06 137.22,-223.42"/>
<polygon fill="#63b8ff" stroke="#63b8ff" points="135.68,-226.58 146.27,-227.04 138.28,-220.08 135.68,-226.58"/>
</a>
</g>
</g>
<!-- Node3 -->
<g id="Node000003" class="node">
<title>Node3</title>
<g id="a_Node000003"><a xlink:href="pugixml_8cpp.html#ac65295a489782c48a97a97e972ed61b0" target="_top" xlink:title=" ">
<polygon fill="white" stroke="#666666" points="415.5,-248 310.25,-248 310.25,-228 415.5,-228 415.5,-248"/>
<text xml:space="preserve" text-anchor="middle" x="362.88" y="-234.5" font-family="Helvetica,sans-Serif" font-size="10.00">get_wchar_encoding</text>
</a>
</g>
</g>
<!-- Node2&#45;&gt;Node3 -->
<g id="edge2_Node000002_Node000003" class="edge">
<title>Node2&#45;&gt;Node3</title>
<g id="a_edge2_Node000002_Node000003"><a xlink:title=" ">
<path fill="none" stroke="#63b8ff" d="M240.68,-210.48C260.53,-214.99 283.93,-220.3 304.84,-225.05"/>
<polygon fill="#63b8ff" stroke="#63b8ff" points="303.84,-228.41 314.37,-227.21 305.39,-221.59 303.84,-228.41"/>
</a>
</g>
</g>
<!-- Node4 -->
<g id="Node000004" class="node">
<title>Node4</title>
<g id="a_Node000004"><a xlink:href="pugixml_8cpp.html#aaf0cb0440cad4fe27233f6482e324e15" target="_top" xlink:title=" ">
<polygon fill="white" stroke="#666666" points="575.88,-229 495.38,-229 495.38,-209 575.88,-209 575.88,-229"/>
<text xml:space="preserve" text-anchor="middle" x="535.62" y="-215.5" font-family="Helvetica,sans-Serif" font-size="10.00">is_little_endian</text>
</a>
</g>
</g>
<!-- Node2&#45;&gt;Node4 -->
<g id="edge6_Node000002_Node000004" class="edge">
<title>Node2&#45;&gt;Node4</title>
<g id="a_edge6_Node000002_Node000004"><a xlink:title=" ">
<path fill="none" stroke="#63b8ff" d="M245.42,-202.84C309.62,-206.43 419.35,-212.56 483.6,-216.15"/>
<polygon fill="#63b8ff" stroke="#63b8ff" points="483.36,-219.64 493.54,-216.7 483.75,-212.65 483.36,-219.64"/>
</a>
</g>
</g>
<!-- Node5 -->
<g id="Node000005" class="node">
<title>Node5</title>
<g id="a_Node000005"><a xlink:href="pugixml_8cpp.html#a8249b94ed556c157dba0e1e6a1299650" target="_top" xlink:title=" ">
<polygon fill="white" stroke="#666666" points="420.75,-172 305,-172 305,-152 420.75,-152 420.75,-172"/>
<text xml:space="preserve" text-anchor="middle" x="362.88" y="-158.5" font-family="Helvetica,sans-Serif" font-size="10.00">guess_buffer_encoding</text>
</a>
</g>
</g>
<!-- Node2&#45;&gt;Node5 -->
<g id="edge4_Node000002_Node000005" class="edge">
<title>Node2&#45;&gt;Node5</title>
<g id="a_edge4_Node000002_Node000005"><a xlink:title=" ">
<path fill="none" stroke="#63b8ff" d="M240.68,-189.52C260.53,-185.01 283.93,-179.7 304.84,-174.95"/>
<polygon fill="#63b8ff" stroke="#63b8ff" points="305.39,-178.41 314.37,-172.79 303.84,-171.59 305.39,-178.41"/>
</a>
</g>
</g>
<!-- Node3&#45;&gt;Node4 -->
<g id="edge3_Node000003_Node000004" class="edge">
<title>Node3&#45;&gt;Node4</title>
<g id="a_edge3_Node000003_Node000004"><a xlink:title=" ">
<path fill="none" stroke="#63b8ff" d="M415.57,-232.25C437.2,-229.84 462.27,-227.05 483.81,-224.65"/>
<polygon fill="#63b8ff" stroke="#63b8ff" points="483.98,-228.16 493.53,-223.57 483.21,-221.2 483.98,-228.16"/>
</a>
</g>
</g>
<!-- Node6 -->
<g id="Node000006" class="node">
<title>Node6</title>
<g id="a_Node000006"><a xlink:href="pugixml_8cpp.html#a692fbc38a0056dd59dec71d856ba2a49" target="_top" xlink:title=" ">
<polygon fill="white" stroke="#666666" points="604,-172 467.25,-172 467.25,-152 604,-152 604,-172"/>
<text xml:space="preserve" text-anchor="middle" x="535.62" y="-158.5" font-family="Helvetica,sans-Serif" font-size="10.00">parse_declaration_encoding</text>
</a>
</g>
</g>
<!-- Node5&#45;&gt;Node6 -->
<g id="edge5_Node000005_Node000006" class="edge">
<title>Node5&#45;&gt;Node6</title>
<g id="a_edge5_Node000005_Node000006"><a xlink:title=" ">
<path fill="none" stroke="#63b8ff" d="M421.21,-162C432.18,-162 443.85,-162 455.36,-162"/>
<polygon fill="#63b8ff" stroke="#63b8ff" points="455.29,-165.5 465.29,-162 455.29,-158.5 455.29,-165.5"/>
</a>
</g>
</g>
<!-- Node7&#45;&gt;Node8 -->
<g id="edge8_Node000007_Node000008" class="edge">
<title>Node7&#45;&gt;Node8</title>
<g id="a_edge8_Node000007_Node000008"><a xlink:title=" ">
<path fill="none" stroke="#63b8ff" d="M237.17,-124C256.87,-124 280.61,-124 302.06,-124"/>
<polygon fill="#63b8ff" stroke="#63b8ff" points="301.85,-127.5 311.85,-124 301.85,-120.5 301.85,-127.5"/>
</a>
</g>
</g>
<!-- Node9 -->
<g id="Node000009" class="node">
<title>Node9</title>
<g id="a_Node000009"><a xlink:href="structauto__deleter.html#a6c02cf0240e922064cbf4672bb4363ce" target="_top" xlink:title=" ">
<polygon fill="white" stroke="#666666" points="416.25,-96 309.5,-96 309.5,-76 416.25,-76 416.25,-96"/>
<text xml:space="preserve" text-anchor="middle" x="362.88" y="-82.5" font-family="Helvetica,sans-Serif" font-size="10.00">auto_deleter::release</text>
</a>
</g>
</g>
<!-- Node7&#45;&gt;Node9 -->
<g id="edge9_Node000007_Node000009" class="edge">
<title>Node7&#45;&gt;Node9</title>
<g id="a_edge9_Node000007_Node000009"><a xlink:title=" ">
<path fill="none" stroke="#63b8ff" d="M237.17,-114.31C257.72,-109.65 282.65,-103.99 304.8,-98.96"/>
<polygon fill="#63b8ff" stroke="#63b8ff" points="305.31,-102.43 314.28,-96.81 303.76,-95.61 305.31,-102.43"/>
</a>
</g>
</g>
<!-- Node11 -->
<g id="Node000011" class="node">
<title>Node11</title>
<g id="a_Node000011"><a xlink:href="structxml__stream__chunk.html#a2c01c25f2791d25214d3c73fae63f8d9" target="_top" xlink:title=" ">
<polygon fill="white" stroke="#666666" points="428.62,-58 297.12,-58 297.12,-38 428.62,-38 428.62,-58"/>
<text xml:space="preserve" text-anchor="middle" x="362.88" y="-44.5" font-family="Helvetica,sans-Serif" font-size="10.00">xml_stream_chunk::create</text>
</a>
</g>
</g>
<!-- Node10&#45;&gt;Node11 -->
<g id="edge11_Node000010_Node000011" class="edge">
<title>Node10&#45;&gt;Node11</title>
<g id="a_edge11_Node000010_Node000011"><a xlink:title=" ">
<path fill="none" stroke="#63b8ff" d="M258.73,-48C267.48,-48 276.53,-48 285.47,-48"/>
<polygon fill="#63b8ff" stroke="#63b8ff" points="285.19,-51.5 295.19,-48 285.19,-44.5 285.19,-51.5"/>
</a>
</g>
</g>
<!-- Node13 -->
<g id="Node000013" class="node">
<title>Node13</title>
<g id="a_Node000013"><a xlink:href="structxml__stream__chunk.html#a3e9bf7280c96a7433d60af129873a16f" target="_top" xlink:title=" ">
<polygon fill="white" stroke="#666666" points="431.25,-20 294.5,-20 294.5,0 431.25,0 431.25,-20"/>
<text xml:space="preserve" text-anchor="middle" x="362.88" y="-6.5" font-family="Helvetica,sans-Serif" font-size="10.00">xml_stream_chunk::destroy</text>
</a>
</g>
</g>
<!-- Node10&#45;&gt;Node13 -->
<g id="edge13_Node000010_Node000013" class="edge">
<title>Node10&#45;&gt;Node13</title>
<g id="a_edge13_Node000010_Node000013"><a xlink:title=" ">
<path fill="none" stroke="#63b8ff" d="M240.68,-37.52C260.53,-33.01 283.93,-27.7 304.84,-22.95"/>
<polygon fill="#63b8ff" stroke="#63b8ff" points="305.39,-26.41 314.37,-20.79 303.84,-19.59 305.39,-26.41"/>
</a>
</g>
</g>
<!-- Node12 -->
<g id="Node000012" class="node">
<title>Node12</title>
<g id="a_Node000012"><a xlink:href="structxml__stream__chunk.html#a8b87fcb2074014dd252f752a95092337" target="_top" xlink:title=" ">
<polygon fill="white" stroke="#666666" points="595.75,-45 475.5,-45 475.5,-13 595.75,-13 595.75,-45"/>
<text xml:space="preserve" text-anchor="start" x="483.5" y="-31.5" font-family="Helvetica,sans-Serif" font-size="10.00">xml_stream_chunk::xml</text>
<text xml:space="preserve" text-anchor="middle" x="535.62" y="-19.5" font-family="Helvetica,sans-Serif" font-size="10.00">_stream_chunk</text>
</a>
</g>
</g>
<!-- Node11&#45;&gt;Node12 -->
<g id="edge12_Node000011_Node000012" class="edge">
<title>Node11&#45;&gt;Node12</title>
<g id="a_edge12_Node000011_Node000012"><a xlink:title=" ">
<path fill="none" stroke="#63b8ff" d="M428.92,-40.76C440.3,-39.5 452.19,-38.17 463.72,-36.89"/>
<polygon fill="#63b8ff" stroke="#63b8ff" points="464.04,-40.38 473.59,-35.79 463.26,-33.42 464.04,-40.38"/>
</a>
</g>
</g>
<!-- Node13&#45;&gt;Node12 -->
<g id="edge14_Node000013_Node000012" class="edge">
<title>Node13&#45;&gt;Node12</title>
<g id="a_edge14_Node000013_Node000012"><a xlink:title=" ">
<path fill="none" stroke="#63b8ff" d="M431.36,-17.51C441.97,-18.69 452.97,-19.91 463.65,-21.1"/>
<polygon fill="#63b8ff" stroke="#63b8ff" points="463.27,-24.58 473.59,-22.21 464.04,-17.62 463.27,-24.58"/>
</a>
</g>
</g>
<!-- Node14&#45;&gt;Node9 -->
<g id="edge16_Node000014_Node000009" class="edge">
<title>Node14&#45;&gt;Node9</title>
<g id="a_edge16_Node000014_Node000009"><a xlink:title=" ">
<path fill="none" stroke="#63b8ff" d="M253.51,-86C267.84,-86 283.24,-86 297.79,-86"/>
<polygon fill="#63b8ff" stroke="#63b8ff" points="297.74,-89.5 307.74,-86 297.74,-82.5 297.74,-89.5"/>
</a>
</g>
</g>
<!-- Node15&#45;&gt;Node3 -->
<g id="edge19_Node000015_Node000003" class="edge">
<title>Node15&#45;&gt;Node3</title>
<g id="a_edge19_Node000015_Node000003"><a xlink:title=" ">
<path fill="none" stroke="#63b8ff" d="M248.84,-238C264.74,-238 282.26,-238 298.66,-238"/>
<polygon fill="#63b8ff" stroke="#63b8ff" points="298.29,-241.5 308.29,-238 298.29,-234.5 298.29,-241.5"/>
</a>
</g>
</g>
</g>
</svg>
