<?xml version="1.0" encoding="UTF-8" standalone="no"?>
<!DOCTYPE svg PUBLIC "-//W3C//DTD SVG 1.1//EN"
 "http://www.w3.org/Graphics/SVG/1.1/DTD/svg11.dtd">
<!-- Generated by graphviz version 14.1.2 (20260124.0452)
 -->
<!-- Title: guess_buffer_encoding Pages: 1 -->
<svg width="391pt" height="66pt"
 viewBox="0.00 0.00 391.00 66.00" xmlns="http://www.w3.org/2000/svg" xmlns:xlink="http://www.w3.org/1999/xlink">
<g id="graph0" class="graph" transform="scale(1 1) rotate(0) translate(4 62)">
<title>guess_buffer_encoding</title>
<!-- Node1 -->
<g id="Node000001" class="node">
<title>Node1</title>
<g id="a_Node000001"><a xlink:title=" ">
<polygon fill="#999999" stroke="#666666" points="383.25,-39 267.5,-39 267.5,-19 383.25,-19 383.25,-39"/>
<text xml:space="preserve" text-anchor="middle" x="325.38" y="-25.5" font-family="Helvetica,sans-Serif" font-size="10.00">guess_buffer_encoding</text>
</a>
</g>
</g>
<!-- Node2 -->
<g id="Node000002" class="node">
<title>Node2</title>
<g id="a_Node000002"><a xlink:href="pugixml_8cpp.html#aff8218b7e2530f96bbf74558e67ebdf6" target="_top" xlink:title=" ">
<polygon fill="white" stroke="#666666" points="231.5,-39 128.5,-39 128.5,-19 231.5,-19 231.5,-39"/>
<text xml:space="preserve" text-anchor="middle" x="180" y="-25.5" font-family="Helvetica,sans-Serif" font-size="10.00">get_buffer_encoding</text>
</a>
</g>
</g>
<!-- Node1&#45;&gt;Node2 -->
<g id="edge1_Node000001_Node000002" class="edge">
<title>Node1&#45;&gt;Node2</title>
<g id="a_edge1_Node000001_Node000002"><a xlink:title=" ">
<path fill="none" stroke="#63b8ff" d="M255.92,-29C247.81,-29 239.65,-29 231.85,-29"/>
<polygon fill="#63b8ff" stroke="#63b8ff" points="255.78,-32.5 265.78,-29 255.78,-25.5 255.78,-32.5"/>
</a>
</g>
</g>
<!-- Node3 -->
<g id="Node000003" class="node">
<title>Node3</title>
<g id="a_Node000003"><a xlink:href="pugixml_8cpp.html#aceaecd7da4188d11f224e33404cb23ba" target="_top" xlink:title=" ">
<polygon fill="white" stroke="#666666" points="83.88,-58 8.62,-58 8.62,-38 83.88,-38 83.88,-58"/>
<text xml:space="preserve" text-anchor="middle" x="46.25" y="-44.5" font-family="Helvetica,sans-Serif" font-size="10.00">load_file_impl</text>
</a>
</g>
</g>
<!-- Node2&#45;&gt;Node3 -->
<g id="edge2_Node000002_Node000003" class="edge">
<title>Node2&#45;&gt;Node3</title>
<g id="a_edge2_Node000002_Node000003"><a xlink:title=" ">
<path fill="none" stroke="#63b8ff" d="M116.95,-37.95C105.73,-39.57 94.37,-41.2 84.16,-42.68"/>
<polygon fill="#63b8ff" stroke="#63b8ff" points="117.17,-41.45 126.56,-36.56 116.17,-34.53 117.17,-41.45"/>
</a>
</g>
</g>
<!-- Node4 -->
<g id="Node000004" class="node">
<title>Node4</title>
<g id="a_Node000004"><a xlink:href="pugixml_8cpp.html#a826b7e183311c8aa4e5b25157a3b3d3f" target="_top" xlink:title=" ">
<polygon fill="white" stroke="#666666" points="92.5,-20 0,-20 0,0 92.5,0 92.5,-20"/>
<text xml:space="preserve" text-anchor="middle" x="46.25" y="-6.5" font-family="Helvetica,sans-Serif" font-size="10.00">load_stream_impl</text>
</a>
</g>
</g>
<!-- Node2&#45;&gt;Node4 -->
<g id="edge3_Node000002_Node000004" class="edge">
<title>Node2&#45;&gt;Node4</title>
<g id="a_edge3_Node000002_Node000004"><a xlink:title=" ">
<path fill="none" stroke="#63b8ff" d="M116.78,-20.03C108.73,-18.87 100.6,-17.69 92.89,-16.58"/>
<polygon fill="#63b8ff" stroke="#63b8ff" points="116.17,-23.47 126.56,-21.44 117.17,-16.55 116.17,-23.47"/>
</a>
</g>
</g>
</g>
</svg>
