<?xml version="1.0" encoding="UTF-8" standalone="no"?>
<!DOCTYPE svg PUBLIC "-//W3C//DTD SVG 1.1//EN"
 "http://www.w3.org/Graphics/SVG/1.1/DTD/svg11.dtd">
<!-- Generated by graphviz version 14.1.2 (20260124.0452)
 -->
<!-- Title: xpath_sort Pages: 1 -->
<svg width="377pt" height="137pt"
 viewBox="0.00 0.00 377.00 137.00" xmlns="http://www.w3.org/2000/svg" xmlns:xlink="http://www.w3.org/1999/xlink">

<svg id="main" version="1.1" xmlns="http://www.w3.org/2000/svg" xmlns:xlink="http://www.w3.org/1999/xlink" xml:space="preserve">

<style type="text/css"><![CDATA[
.node, .edge {opacity: 0.7;}
.node.selected, .edge.selected {opacity: 1;}
.edge:hover path { stroke: red; }
.edge:hover polygon { stroke: red; fill: red; }
]]></style>
<script type="application/ecmascript" xlink:href="svg.min.js"/>
<svg id="graph" class="graph">
<g id="graph0" class="graph" transform="scale(1 1) rotate(0) translate(4 133)">
<title>xpath_sort</title>
<!-- Node1 -->
<g id="Node000001" class="node">
<title>Node1</title>
<g id="a_Node000001"><a xlink:title=" ">
<polygon fill="#999999" stroke="#666666" points="61.75,-68 0,-68 0,-48 61.75,-48 61.75,-68"/>
<text xml:space="preserve" text-anchor="middle" x="30.88" y="-54.5" font-family="Helvetica,sans-Serif" font-size="10.00">xpath_sort</text>
</a>
</g>
</g>
<!-- Node2 -->
<g id="Node000002" class="node">
<title>Node2</title>
<g id="a_Node000002"><a xlink:href="pugixml_8cpp.html#a181d689d647721b02f6db6c996550a3d" target="_top" xlink:title=" ">
<polygon fill="white" stroke="#666666" points="164.75,-129 116.5,-129 116.5,-109 164.75,-109 164.75,-129"/>
<text xml:space="preserve" text-anchor="middle" x="140.62" y="-115.5" font-family="Helvetica,sans-Serif" font-size="10.00">reverse</text>
</a>
</g>
</g>
<!-- Node1&#45;&gt;Node2 -->
<g id="edge1_Node000001_Node000002" class="edge">
<title>Node1&#45;&gt;Node2</title>
<g id="a_edge1_Node000001_Node000002"><a xlink:title=" ">
<path fill="none" stroke="#63b8ff" d="M50.15,-68.35C66.95,-77.86 92.1,-92.09 111.46,-103.06"/>
<polygon fill="#63b8ff" stroke="#63b8ff" points="109.51,-105.97 119.94,-107.86 112.96,-99.88 109.51,-105.97"/>
</a>
</g>
</g>
<!-- Node4 -->
<g id="Node000004" class="node">
<title>Node4</title>
<g id="a_Node000004"><a xlink:href="pugixml_8cpp.html#a09a6af504e5bf26365ccb2d1c707ca48" target="_top" xlink:title=" ">
<polygon fill="white" stroke="#666666" points="156.88,-68 124.38,-68 124.38,-48 156.88,-48 156.88,-68"/>
<text xml:space="preserve" text-anchor="middle" x="140.62" y="-54.5" font-family="Helvetica,sans-Serif" font-size="10.00">sort</text>
</a>
</g>
</g>
<!-- Node1&#45;&gt;Node4 -->
<g id="edge3_Node000001_Node000004" class="edge">
<title>Node1&#45;&gt;Node4</title>
<g id="a_edge3_Node000001_Node000004"><a xlink:title=" ">
<path fill="none" stroke="#63b8ff" d="M62.18,-58C78.09,-58 97.42,-58 112.79,-58"/>
<polygon fill="#63b8ff" stroke="#63b8ff" points="112.61,-61.5 122.61,-58 112.61,-54.5 112.61,-61.5"/>
</a>
</g>
</g>
<!-- Node8 -->
<g id="Node000008" class="node">
<title>Node8</title>
<g id="a_Node000008"><a xlink:href="pugixml_8cpp.html#aa445b0555e1eabcce1cf5a12808f70a8" target="_top" xlink:title=" ">
<polygon fill="white" stroke="#666666" points="183.5,-30 97.75,-30 97.75,-10 183.5,-10 183.5,-30"/>
<text xml:space="preserve" text-anchor="middle" x="140.62" y="-16.5" font-family="Helvetica,sans-Serif" font-size="10.00">xpath_get_order</text>
</a>
</g>
</g>
<!-- Node1&#45;&gt;Node8 -->
<g id="edge10_Node000001_Node000008" class="edge">
<title>Node1&#45;&gt;Node8</title>
<g id="a_edge10_Node000001_Node000008"><a xlink:title=" ">
<path fill="none" stroke="#63b8ff" d="M61.6,-47.52C73.26,-43.4 86.82,-38.62 99.34,-34.21"/>
<polygon fill="#63b8ff" stroke="#63b8ff" points="100.3,-37.58 108.57,-30.95 97.97,-30.98 100.3,-37.58"/>
</a>
</g>
</g>
<!-- Node3 -->
<g id="Node000003" class="node">
<title>Node3</title>
<g id="a_Node000003"><a xlink:href="pugixml_8cpp.html#aab8f818e90a34b18c1da140588eca88d" target="_top" xlink:title=" ">
<polygon fill="white" stroke="#666666" points="369.25,-58 330,-58 330,-38 369.25,-38 369.25,-58"/>
<text xml:space="preserve" text-anchor="middle" x="349.62" y="-44.5" font-family="Helvetica,sans-Serif" font-size="10.00">swap</text>
</a>
</g>
</g>
<!-- Node2&#45;&gt;Node3 -->
<g id="edge2_Node000002_Node000003" class="edge">
<title>Node2&#45;&gt;Node3</title>
<g id="a_edge2_Node000002_Node000003"><a xlink:title=" ">
<path fill="none" stroke="#63b8ff" d="M165.16,-121.74C196.29,-124.32 252.12,-125.19 294,-105 311.32,-96.65 326.05,-80.34 335.84,-67.3"/>
<polygon fill="#63b8ff" stroke="#63b8ff" points="338.52,-69.57 341.45,-59.39 332.81,-65.52 338.52,-69.57"/>
</a>
</g>
</g>
<!-- Node4&#45;&gt;Node4 -->
<g id="edge9_Node000004_Node000004" class="edge">
<title>Node4&#45;&gt;Node4</title>
<g id="a_edge9_Node000004_Node000004"><a xlink:title=" ">
<path fill="none" stroke="#63b8ff" d="M123.99,-67.47C115.36,-76.36 120.9,-86 140.62,-86 152.03,-86 158.69,-82.78 160.62,-78.34"/>
<polygon fill="#63b8ff" stroke="#63b8ff" points="164,-77.44 157.71,-68.91 157.31,-79.5 164,-77.44"/>
</a>
</g>
</g>
<!-- Node5 -->
<g id="Node000005" class="node">
<title>Node5</title>
<g id="a_Node000005"><a xlink:href="pugixml_8cpp.html#ae32103b72e8928c87dfa9bce03565bb0" target="_top" xlink:title=" ">
<polygon fill="white" stroke="#666666" points="294,-96 219.5,-96 219.5,-76 294,-76 294,-96"/>
<text xml:space="preserve" text-anchor="middle" x="256.75" y="-82.5" font-family="Helvetica,sans-Serif" font-size="10.00">insertion_sort</text>
</a>
</g>
</g>
<!-- Node4&#45;&gt;Node5 -->
<g id="edge4_Node000004_Node000005" class="edge">
<title>Node4&#45;&gt;Node5</title>
<g id="a_edge4_Node000004_Node000005"><a xlink:title=" ">
<path fill="none" stroke="#63b8ff" d="M157.02,-61.78C170.12,-64.99 189.66,-69.78 207.91,-74.26"/>
<polygon fill="#63b8ff" stroke="#63b8ff" points="207.02,-77.65 217.57,-76.63 208.69,-70.85 207.02,-77.65"/>
</a>
</g>
</g>
<!-- Node6 -->
<g id="Node000006" class="node">
<title>Node6</title>
<g id="a_Node000006"><a xlink:href="pugixml_8cpp.html#a1212d7df5db87e06b12d2a2705e4b73d" target="_top" xlink:title=" ">
<polygon fill="white" stroke="#666666" points="283.12,-58 230.38,-58 230.38,-38 283.12,-38 283.12,-58"/>
<text xml:space="preserve" text-anchor="middle" x="256.75" y="-44.5" font-family="Helvetica,sans-Serif" font-size="10.00">median3</text>
</a>
</g>
</g>
<!-- Node4&#45;&gt;Node6 -->
<g id="edge5_Node000004_Node000006" class="edge">
<title>Node4&#45;&gt;Node6</title>
<g id="a_edge5_Node000004_Node000006"><a xlink:title=" ">
<path fill="none" stroke="#63b8ff" d="M157.02,-56.65C172.75,-55.27 197.79,-53.08 218.71,-51.25"/>
<polygon fill="#63b8ff" stroke="#63b8ff" points="218.98,-54.74 228.63,-50.38 218.37,-47.76 218.98,-54.74"/>
</a>
</g>
</g>
<!-- Node7 -->
<g id="Node000007" class="node">
<title>Node7</title>
<g id="a_Node000007"><a xlink:href="pugixml_8cpp.html#a9c094b50369e7c77c5b9ec157b2350b1" target="_top" xlink:title=" ">
<polygon fill="white" stroke="#666666" points="284.62,-20 228.88,-20 228.88,0 284.62,0 284.62,-20"/>
<text xml:space="preserve" text-anchor="middle" x="256.75" y="-6.5" font-family="Helvetica,sans-Serif" font-size="10.00">partition3</text>
</a>
</g>
</g>
<!-- Node4&#45;&gt;Node7 -->
<g id="edge7_Node000004_Node000007" class="edge">
<title>Node4&#45;&gt;Node7</title>
<g id="a_edge7_Node000004_Node000007"><a xlink:title=" ">
<path fill="none" stroke="#63b8ff" d="M157.02,-51.53C173.18,-44.73 199.16,-33.8 220.41,-24.86"/>
<polygon fill="#63b8ff" stroke="#63b8ff" points="221.76,-28.09 229.62,-20.99 219.04,-21.64 221.76,-28.09"/>
</a>
</g>
</g>
<!-- Node6&#45;&gt;Node3 -->
<g id="edge6_Node000006_Node000003" class="edge">
<title>Node6&#45;&gt;Node3</title>
<g id="a_edge6_Node000006_Node000003"><a xlink:title=" ">
<path fill="none" stroke="#63b8ff" d="M283.55,-48C294.34,-48 306.96,-48 318.2,-48"/>
<polygon fill="#63b8ff" stroke="#63b8ff" points="318.19,-51.5 328.19,-48 318.19,-44.5 318.19,-51.5"/>
</a>
</g>
</g>
<!-- Node7&#45;&gt;Node3 -->
<g id="edge8_Node000007_Node000003" class="edge">
<title>Node7&#45;&gt;Node3</title>
<g id="a_edge8_Node000007_Node000003"><a xlink:title=" ">
<path fill="none" stroke="#63b8ff" d="M282.58,-20.38C293.93,-25.13 307.45,-30.78 319.29,-35.73"/>
<polygon fill="#63b8ff" stroke="#63b8ff" points="317.62,-38.83 328.19,-39.46 320.32,-32.37 317.62,-38.83"/>
</a>
</g>
</g>
</g>
</svg>
</svg>

<style type='text/css'>
<![CDATA[
[data-mouse-over-selected='false'] { opacity: 0.7; }
[data-mouse-over-selected='true']  { opacity: 1.0; }
]]>
</style>
<script type="application/ecmascript"><![CDATA[
document.addEventListener('DOMContentLoaded', (event) => {
  highlightEdges();
  highlightAdjacentNodes();
});
]]></script>
</svg>
