<?xml version="1.0" encoding="UTF-8" standalone="no"?>
<!DOCTYPE svg PUBLIC "-//W3C//DTD SVG 1.1//EN"
 "http://www.w3.org/Graphics/SVG/1.1/DTD/svg11.dtd">
<!-- Generated by graphviz version 14.1.2 (20260124.0452)
 -->
<!-- Title: node_output Pages: 1 -->
<svg width="642pt" height="294pt"
 viewBox="0.00 0.00 642.00 294.00" xmlns="http://www.w3.org/2000/svg" xmlns:xlink="http://www.w3.org/1999/xlink">
<g id="graph0" class="graph" transform="scale(1 1) rotate(0) translate(4 290)">
<title>node_output</title>
<!-- Node1 -->
<g id="Node000001" class="node">
<title>Node1</title>
<g id="a_Node000001"><a xlink:title=" ">
<polygon fill="#999999" stroke="#666666" points="69.25,-115 0,-115 0,-95 69.25,-95 69.25,-115"/>
<text xml:space="preserve" text-anchor="middle" x="34.62" y="-101.5" font-family="Helvetica,sans-Serif" font-size="10.00">node_output</text>
</a>
</g>
</g>
<!-- Node2 -->
<g id="Node000002" class="node">
<title>Node2</title>
<g id="a_Node000002"><a xlink:href="pugixml_8cpp.html#a5d1eae935e38b49cd805390eda306679" target="_top" xlink:title=" ">
<polygon fill="white" stroke="#666666" points="201.88,-210 111.62,-210 111.62,-190 201.88,-190 201.88,-210"/>
<text xml:space="preserve" text-anchor="middle" x="156.75" y="-196.5" font-family="Helvetica,sans-Serif" font-size="10.00">node_output_end</text>
</a>
</g>
</g>
<!-- Node1&#45;&gt;Node2 -->
<g id="edge1_Node000001_Node000002" class="edge">
<title>Node1&#45;&gt;Node2</title>
<g id="a_edge1_Node000001_Node000002"><a xlink:title=" ">
<path fill="none" stroke="#63b8ff" d="M42.58,-115.28C53.94,-131.36 77.97,-162.56 105.25,-181 107.08,-182.24 109.01,-183.41 110.99,-184.52"/>
<polygon fill="#63b8ff" stroke="#63b8ff" points="109.37,-187.62 119.9,-188.86 112.44,-181.33 109.37,-187.62"/>
</a>
</g>
</g>
<!-- Node3 -->
<g id="Node000003" class="node">
<title>Node3</title>
<g id="a_Node000003"><a xlink:href="pugixml_8cpp.html#ad092fd8012bad5c9f17541a832188e48" target="_top" xlink:title=" ">
<polygon fill="white" stroke="#666666" points="208.25,-172 105.25,-172 105.25,-152 208.25,-152 208.25,-172"/>
<text xml:space="preserve" text-anchor="middle" x="156.75" y="-158.5" font-family="Helvetica,sans-Serif" font-size="10.00">node_output_simple</text>
</a>
</g>
</g>
<!-- Node1&#45;&gt;Node3 -->
<g id="edge2_Node000001_Node000003" class="edge">
<title>Node1&#45;&gt;Node3</title>
<g id="a_edge2_Node000001_Node000003"><a xlink:title=" ">
<path fill="none" stroke="#63b8ff" d="M57.66,-115.45C76.11,-124.21 102.71,-136.83 123.56,-146.72"/>
<polygon fill="#63b8ff" stroke="#63b8ff" points="121.95,-149.84 132.49,-150.96 124.96,-143.51 121.95,-149.84"/>
</a>
</g>
</g>
<!-- Node7 -->
<g id="Node000007" class="node">
<title>Node7</title>
<g id="a_Node000007"><a xlink:href="pugixml_8cpp.html#a478905783b7081440dc5076ff42cd1e2" target="_top" xlink:title=" ">
<polygon fill="white" stroke="#666666" points="491.5,-77 395.25,-77 395.25,-57 491.5,-57 491.5,-77"/>
<text xml:space="preserve" text-anchor="middle" x="443.38" y="-63.5" font-family="Helvetica,sans-Serif" font-size="10.00">text_output_indent</text>
</a>
</g>
</g>
<!-- Node1&#45;&gt;Node7 -->
<g id="edge15_Node000001_Node000007" class="edge">
<title>Node1&#45;&gt;Node7</title>
<g id="a_edge15_Node000001_Node000007"><a xlink:title=" ">
<path fill="none" stroke="#63b8ff" d="M68.25,-94.58C79.82,-91.29 93.01,-87.99 105.25,-86 201.92,-70.26 316.01,-66.98 383.61,-66.59"/>
<polygon fill="#63b8ff" stroke="#63b8ff" points="383.36,-70.09 393.34,-66.55 383.33,-63.09 383.36,-70.09"/>
</a>
</g>
</g>
<!-- Node11 -->
<g id="Node000011" class="node">
<title>Node11</title>
<g id="a_Node000011"><a xlink:href="pugixml_8cpp.html#ae4cd311590420ae5ef799d11433f58c0" target="_top" xlink:title=" ">
<polygon fill="white" stroke="#666666" points="203.75,-115 109.75,-115 109.75,-95 203.75,-95 203.75,-115"/>
<text xml:space="preserve" text-anchor="middle" x="156.75" y="-101.5" font-family="Helvetica,sans-Serif" font-size="10.00">node_output_start</text>
</a>
</g>
</g>
<!-- Node1&#45;&gt;Node11 -->
<g id="edge11_Node000001_Node000011" class="edge">
<title>Node1&#45;&gt;Node11</title>
<g id="a_edge11_Node000001_Node000011"><a xlink:title=" ">
<path fill="none" stroke="#63b8ff" d="M69.73,-105C78.6,-105 88.41,-105 98.14,-105"/>
<polygon fill="#63b8ff" stroke="#63b8ff" points="97.94,-108.5 107.94,-105 97.94,-101.5 97.94,-108.5"/>
</a>
</g>
</g>
<!-- Node12 -->
<g id="Node000012" class="node">
<title>Node12</title>
<g id="a_Node000012"><a xlink:href="pugixml_8cpp.html#a775f7b78d2f13c1b72d69b114599461d" target="_top" xlink:title=" ">
<polygon fill="white" stroke="#666666" points="183.5,-20 130,-20 130,0 183.5,0 183.5,-20"/>
<text xml:space="preserve" text-anchor="middle" x="156.75" y="-6.5" font-family="Helvetica,sans-Serif" font-size="10.00">strlength</text>
</a>
</g>
</g>
<!-- Node1&#45;&gt;Node12 -->
<g id="edge14_Node000001_Node000012" class="edge">
<title>Node1&#45;&gt;Node12</title>
<g id="a_edge14_Node000001_Node000012"><a xlink:title=" ">
<path fill="none" stroke="#63b8ff" d="M43.7,-94.71C55.81,-79.81 79.95,-52.04 105.25,-34 109.66,-30.85 114.55,-27.94 119.5,-25.31"/>
<polygon fill="#63b8ff" stroke="#63b8ff" points="120.83,-28.55 128.24,-20.98 117.73,-22.27 120.83,-28.55"/>
</a>
</g>
</g>
<!-- Node4 -->
<g id="Node000004" class="node">
<title>Node4</title>
<g id="a_Node000004"><a xlink:href="pugixml_8cpp.html#a05d1bf3ded0294ee5109cb5cacdc4f99" target="_top" xlink:title=" ">
<polygon fill="white" stroke="#666666" points="359.25,-134 244.25,-134 244.25,-114 359.25,-114 359.25,-134"/>
<text xml:space="preserve" text-anchor="middle" x="301.75" y="-120.5" font-family="Helvetica,sans-Serif" font-size="10.00">node_output_attributes</text>
</a>
</g>
</g>
<!-- Node3&#45;&gt;Node4 -->
<g id="edge3_Node000003_Node000004" class="edge">
<title>Node3&#45;&gt;Node4</title>
<g id="a_edge3_Node000003_Node000004"><a xlink:title=" ">
<path fill="none" stroke="#63b8ff" d="M197.2,-151.52C213.77,-147.11 233.23,-141.94 250.79,-137.28"/>
<polygon fill="#63b8ff" stroke="#63b8ff" points="251.2,-140.79 259.96,-134.84 249.4,-134.02 251.2,-140.79"/>
</a>
</g>
</g>
<!-- Node5 -->
<g id="Node000005" class="node">
<title>Node5</title>
<g id="a_Node000005"><a xlink:href="pugixml_8cpp.html#ab350d053c07c3976bb39a151581356fc" target="_top" xlink:title=" ">
<polygon fill="white" stroke="#666666" points="475.75,-134 411,-134 411,-114 475.75,-114 475.75,-134"/>
<text xml:space="preserve" text-anchor="middle" x="443.38" y="-120.5" font-family="Helvetica,sans-Serif" font-size="10.00">text_output</text>
</a>
</g>
</g>
<!-- Node3&#45;&gt;Node5 -->
<g id="edge9_Node000003_Node000005" class="edge">
<title>Node3&#45;&gt;Node5</title>
<g id="a_edge9_Node000003_Node000005"><a xlink:title=" ">
<path fill="none" stroke="#63b8ff" d="M208.5,-159.06C249.38,-156.24 308.25,-151.2 359.25,-143 372.48,-140.87 386.74,-137.88 399.65,-134.89"/>
<polygon fill="#63b8ff" stroke="#63b8ff" points="400.2,-138.36 409.12,-132.64 398.58,-131.55 400.2,-138.36"/>
</a>
</g>
</g>
<!-- Node8 -->
<g id="Node000008" class="node">
<title>Node8</title>
<g id="a_Node000008"><a xlink:href="pugixml_8cpp.html#a2cc26a3d1377e49746725ab2044e6a0d" target="_top" xlink:title=" ">
<polygon fill="white" stroke="#666666" points="359.25,-286 244.25,-286 244.25,-266 359.25,-266 359.25,-286"/>
<text xml:space="preserve" text-anchor="middle" x="301.75" y="-272.5" font-family="Helvetica,sans-Serif" font-size="10.00">node_output_comment</text>
</a>
</g>
</g>
<!-- Node3&#45;&gt;Node8 -->
<g id="edge7_Node000003_Node000008" class="edge">
<title>Node3&#45;&gt;Node8</title>
<g id="a_edge7_Node000003_Node000008"><a xlink:title=" ">
<path fill="none" stroke="#63b8ff" d="M195.51,-172.42C200.13,-174.75 204.53,-177.57 208.25,-181 235.75,-206.32 216.31,-232.18 244.25,-257 245.34,-257.97 246.48,-258.88 247.66,-259.76"/>
<polygon fill="#63b8ff" stroke="#63b8ff" points="245.71,-262.67 256.09,-264.79 249.3,-256.66 245.71,-262.67"/>
</a>
</g>
</g>
<!-- Node9 -->
<g id="Node000009" class="node">
<title>Node9</title>
<g id="a_Node000009"><a xlink:href="pugixml_8cpp.html#a36c9ed3414e0605a79a27cf8e711dfa9" target="_top" xlink:title=" ">
<polygon fill="white" stroke="#666666" points="357,-248 246.5,-248 246.5,-228 357,-228 357,-248"/>
<text xml:space="preserve" text-anchor="middle" x="301.75" y="-234.5" font-family="Helvetica,sans-Serif" font-size="10.00">node_output_pi_value</text>
</a>
</g>
</g>
<!-- Node3&#45;&gt;Node9 -->
<g id="edge8_Node000003_Node000009" class="edge">
<title>Node3&#45;&gt;Node9</title>
<g id="a_edge8_Node000003_Node000009"><a xlink:title=" ">
<path fill="none" stroke="#63b8ff" d="M191.93,-172.44C197.6,-174.84 203.26,-177.68 208.25,-181 227.63,-193.87 224.64,-206.48 244.25,-219 246.38,-220.36 248.61,-221.63 250.91,-222.82"/>
<polygon fill="#63b8ff" stroke="#63b8ff" points="249.38,-225.97 259.93,-226.9 252.26,-219.59 249.38,-225.97"/>
</a>
</g>
</g>
<!-- Node10 -->
<g id="Node000010" class="node">
<title>Node10</title>
<g id="a_Node000010"><a xlink:href="pugixml_8cpp.html#acbd8e4df8e97263b7e756b37cbf301a1" target="_top" xlink:title=" ">
<polygon fill="white" stroke="#666666" points="348.75,-210 254.75,-210 254.75,-190 348.75,-190 348.75,-210"/>
<text xml:space="preserve" text-anchor="middle" x="301.75" y="-196.5" font-family="Helvetica,sans-Serif" font-size="10.00">text_output_cdata</text>
</a>
</g>
</g>
<!-- Node3&#45;&gt;Node10 -->
<g id="edge10_Node000003_Node000010" class="edge">
<title>Node3&#45;&gt;Node10</title>
<g id="a_edge10_Node000003_Node000010"><a xlink:title=" ">
<path fill="none" stroke="#63b8ff" d="M197.2,-172.48C213.77,-176.89 233.23,-182.06 250.79,-186.72"/>
<polygon fill="#63b8ff" stroke="#63b8ff" points="249.4,-189.98 259.96,-189.16 251.2,-183.21 249.4,-189.98"/>
</a>
</g>
</g>
<!-- Node4&#45;&gt;Node5 -->
<g id="edge4_Node000004_Node000005" class="edge">
<title>Node4&#45;&gt;Node5</title>
<g id="a_edge4_Node000004_Node000005"><a xlink:title=" ">
<path fill="none" stroke="#63b8ff" d="M359.54,-124C372.95,-124 387.03,-124 399.69,-124"/>
<polygon fill="#63b8ff" stroke="#63b8ff" points="399.35,-127.5 409.35,-124 399.35,-120.5 399.35,-127.5"/>
</a>
</g>
</g>
<!-- Node4&#45;&gt;Node7 -->
<g id="edge6_Node000004_Node000007" class="edge">
<title>Node4&#45;&gt;Node7</title>
<g id="a_edge6_Node000004_Node000007"><a xlink:title=" ">
<path fill="none" stroke="#63b8ff" d="M328.36,-113.55C350.21,-104.63 381.86,-91.7 406.28,-81.74"/>
<polygon fill="#63b8ff" stroke="#63b8ff" points="407.59,-84.98 415.53,-77.96 404.95,-78.5 407.59,-84.98"/>
</a>
</g>
</g>
<!-- Node6 -->
<g id="Node000006" class="node">
<title>Node6</title>
<g id="a_Node000006"><a xlink:href="pugixml_8cpp.html#ab87511166fc7a13ed9e2d85dcb73670a" target="_top" xlink:title=" ">
<polygon fill="white" stroke="#666666" points="634.25,-134 527.5,-134 527.5,-114 634.25,-114 634.25,-134"/>
<text xml:space="preserve" text-anchor="middle" x="580.88" y="-120.5" font-family="Helvetica,sans-Serif" font-size="10.00">text_output_escaped</text>
</a>
</g>
</g>
<!-- Node5&#45;&gt;Node6 -->
<g id="edge5_Node000005_Node000006" class="edge">
<title>Node5&#45;&gt;Node6</title>
<g id="a_edge5_Node000005_Node000006"><a xlink:title=" ">
<path fill="none" stroke="#63b8ff" d="M476.14,-124C488,-124 501.93,-124 515.66,-124"/>
<polygon fill="#63b8ff" stroke="#63b8ff" points="515.58,-127.5 525.58,-124 515.58,-120.5 515.58,-127.5"/>
</a>
</g>
</g>
<!-- Node11&#45;&gt;Node4 -->
<g id="edge12_Node000011_Node000004" class="edge">
<title>Node11&#45;&gt;Node4</title>
<g id="a_edge12_Node000011_Node000004"><a xlink:title=" ">
<path fill="none" stroke="#63b8ff" d="M204.18,-111.17C213.26,-112.38 222.97,-113.67 232.59,-114.94"/>
<polygon fill="#63b8ff" stroke="#63b8ff" points="231.93,-118.39 242.31,-116.23 232.86,-111.45 231.93,-118.39"/>
</a>
</g>
</g>
<!-- Node11&#45;&gt;Node5 -->
<g id="edge13_Node000011_Node000005" class="edge">
<title>Node11&#45;&gt;Node5</title>
<g id="a_edge13_Node000011_Node000005"><a xlink:title=" ">
<path fill="none" stroke="#63b8ff" d="M203.93,-102.07C244.88,-100.16 306.24,-99.02 359.25,-105 372.56,-106.5 386.85,-109.32 399.76,-112.33"/>
<polygon fill="#63b8ff" stroke="#63b8ff" points="398.68,-115.67 409.22,-114.64 400.34,-108.87 398.68,-115.67"/>
</a>
</g>
</g>
</g>
</svg>
