<?xml version="1.0" encoding="UTF-8" standalone="no"?>
<!DOCTYPE svg PUBLIC "-//W3C//DTD SVG 1.1//EN"
 "http://www.w3.org/Graphics/SVG/1.1/DTD/svg11.dtd">
<!-- Generated by graphviz version 14.1.2 (20260124.0452)
 -->
<!-- Title: get_strconv_attribute Pages: 1 -->
<svg width="626pt" height="190pt"
 viewBox="0.00 0.00 626.00 190.00" xmlns="http://www.w3.org/2000/svg" xmlns:xlink="http://www.w3.org/1999/xlink">
<g id="graph0" class="graph" transform="scale(1 1) rotate(0) translate(4 186)">
<title>get_strconv_attribute</title>
<!-- Node1 -->
<g id="Node000001" class="node">
<title>Node1</title>
<g id="a_Node000001"><a xlink:title=" ">
<polygon fill="#999999" stroke="#666666" points="107.5,-101 0,-101 0,-81 107.5,-81 107.5,-101"/>
<text xml:space="preserve" text-anchor="middle" x="53.75" y="-87.5" font-family="Helvetica,sans-Serif" font-size="10.00">get_strconv_attribute</text>
</a>
</g>
</g>
<!-- Node2 -->
<g id="Node000002" class="node">
<title>Node2</title>
<g id="a_Node000002"><a xlink:href="structstrconv__attribute__impl.html#a078a9b175b8c7a338d58431ec959a98c" target="_top" xlink:title=" ">
<polygon fill="white" stroke="#666666" points="255.5,-82 143.5,-82 143.5,-50 255.5,-50 255.5,-82"/>
<text xml:space="preserve" text-anchor="start" x="151.5" y="-68.5" font-family="Helvetica,sans-Serif" font-size="10.00">strconv_attribute_impl</text>
<text xml:space="preserve" text-anchor="middle" x="199.5" y="-56.5" font-family="Helvetica,sans-Serif" font-size="10.00">::parse_eol</text>
</a>
</g>
</g>
<!-- Node1&#45;&gt;Node2 -->
<g id="edge1_Node000001_Node000002" class="edge">
<title>Node1&#45;&gt;Node2</title>
<g id="a_edge1_Node000001_Node000002"><a xlink:title=" ">
<path fill="none" stroke="#63b8ff" d="M107.87,-81.76C115.7,-80.4 123.84,-78.98 131.9,-77.58"/>
<polygon fill="#63b8ff" stroke="#63b8ff" points="132.45,-81.04 141.7,-75.88 131.25,-74.14 132.45,-81.04"/>
</a>
</g>
</g>
<!-- Node9 -->
<g id="Node000009" class="node">
<title>Node9</title>
<g id="a_Node000009"><a xlink:href="structstrconv__attribute__impl.html#a56ce65fa313ef3bb4a95f5b03a959f7f" target="_top" xlink:title=" ">
<polygon fill="white" stroke="#666666" points="255.5,-132 143.5,-132 143.5,-100 255.5,-100 255.5,-132"/>
<text xml:space="preserve" text-anchor="start" x="151.5" y="-118.5" font-family="Helvetica,sans-Serif" font-size="10.00">strconv_attribute_impl</text>
<text xml:space="preserve" text-anchor="middle" x="199.5" y="-106.5" font-family="Helvetica,sans-Serif" font-size="10.00">::parse_simple</text>
</a>
</g>
</g>
<!-- Node1&#45;&gt;Node9 -->
<g id="edge9_Node000001_Node000009" class="edge">
<title>Node1&#45;&gt;Node9</title>
<g id="a_edge9_Node000001_Node000009"><a xlink:title=" ">
<path fill="none" stroke="#63b8ff" d="M107.87,-100.24C115.7,-101.6 123.84,-103.02 131.9,-104.42"/>
<polygon fill="#63b8ff" stroke="#63b8ff" points="131.25,-107.86 141.7,-106.12 132.45,-100.96 131.25,-107.86"/>
</a>
</g>
</g>
<!-- Node10 -->
<g id="Node000010" class="node">
<title>Node10</title>
<g id="a_Node000010"><a xlink:href="structstrconv__attribute__impl.html#abb4e88a853d1bc28af060f38f3f0f8d3" target="_top" xlink:title=" ">
<polygon fill="white" stroke="#666666" points="255.5,-182 143.5,-182 143.5,-150 255.5,-150 255.5,-182"/>
<text xml:space="preserve" text-anchor="start" x="151.5" y="-168.5" font-family="Helvetica,sans-Serif" font-size="10.00">strconv_attribute_impl</text>
<text xml:space="preserve" text-anchor="middle" x="199.5" y="-156.5" font-family="Helvetica,sans-Serif" font-size="10.00">::parse_wconv</text>
</a>
</g>
</g>
<!-- Node1&#45;&gt;Node10 -->
<g id="edge12_Node000001_Node000010" class="edge">
<title>Node1&#45;&gt;Node10</title>
<g id="a_edge12_Node000001_Node000010"><a xlink:title=" ">
<path fill="none" stroke="#63b8ff" d="M72.19,-101.42C89.91,-111.86 118.27,-128.19 143.5,-141 146,-142.27 148.57,-143.54 151.18,-144.81"/>
<polygon fill="#63b8ff" stroke="#63b8ff" points="149.41,-147.84 159.94,-148.97 152.41,-141.52 149.41,-147.84"/>
</a>
</g>
</g>
<!-- Node11 -->
<g id="Node000011" class="node">
<title>Node11</title>
<g id="a_Node000011"><a xlink:href="structstrconv__attribute__impl.html#a9e45f050f2526ac299cbc5adf4de442b" target="_top" xlink:title=" ">
<polygon fill="white" stroke="#666666" points="255.5,-32 143.5,-32 143.5,0 255.5,0 255.5,-32"/>
<text xml:space="preserve" text-anchor="start" x="151.5" y="-18.5" font-family="Helvetica,sans-Serif" font-size="10.00">strconv_attribute_impl</text>
<text xml:space="preserve" text-anchor="middle" x="199.5" y="-6.5" font-family="Helvetica,sans-Serif" font-size="10.00">::parse_wnorm</text>
</a>
</g>
</g>
<!-- Node1&#45;&gt;Node11 -->
<g id="edge16_Node000001_Node000011" class="edge">
<title>Node1&#45;&gt;Node11</title>
<g id="a_edge16_Node000001_Node000011"><a xlink:title=" ">
<path fill="none" stroke="#63b8ff" d="M72.19,-80.58C89.91,-70.14 118.27,-53.81 143.5,-41 146,-39.73 148.57,-38.46 151.18,-37.19"/>
<polygon fill="#63b8ff" stroke="#63b8ff" points="152.41,-40.48 159.94,-33.03 149.41,-34.16 152.41,-40.48"/>
</a>
</g>
</g>
<!-- Node3 -->
<g id="Node000003" class="node">
<title>Node3</title>
<g id="a_Node000003"><a xlink:href="structgap.html#a7d5e84d56dbeef1310977fe1ecec5ded" target="_top" xlink:title=" ">
<polygon fill="white" stroke="#666666" points="363.38,-100 304.62,-100 304.62,-80 363.38,-80 363.38,-100"/>
<text xml:space="preserve" text-anchor="middle" x="334" y="-86.5" font-family="Helvetica,sans-Serif" font-size="10.00">gap::flush</text>
</a>
</g>
</g>
<!-- Node2&#45;&gt;Node3 -->
<g id="edge2_Node000002_Node000003" class="edge">
<title>Node2&#45;&gt;Node3</title>
<g id="a_edge2_Node000002_Node000003"><a xlink:title=" ">
<path fill="none" stroke="#63b8ff" d="M255.92,-76.04C268.37,-78.29 281.34,-80.64 293.01,-82.76"/>
<polygon fill="#63b8ff" stroke="#63b8ff" points="292.23,-86.17 302.69,-84.51 293.48,-79.28 292.23,-86.17"/>
</a>
</g>
</g>
<!-- Node4 -->
<g id="Node000004" class="node">
<title>Node4</title>
<g id="a_Node000004"><a xlink:href="structgap.html#a9c0d0b12bc778c8439c8aec7747ab2b0" target="_top" xlink:title=" ">
<polygon fill="white" stroke="#666666" points="483.62,-81 424.88,-81 424.88,-61 483.62,-61 483.62,-81"/>
<text xml:space="preserve" text-anchor="middle" x="454.25" y="-67.5" font-family="Helvetica,sans-Serif" font-size="10.00">gap::push</text>
</a>
</g>
</g>
<!-- Node2&#45;&gt;Node4 -->
<g id="edge3_Node000002_Node000004" class="edge">
<title>Node2&#45;&gt;Node4</title>
<g id="a_edge3_Node000002_Node000004"><a xlink:title=" ">
<path fill="none" stroke="#63b8ff" d="M255.97,-67.1C303.52,-68.04 370.87,-69.37 413.3,-70.21"/>
<polygon fill="#63b8ff" stroke="#63b8ff" points="412.98,-73.7 423.05,-70.4 413.12,-66.71 412.98,-73.7"/>
</a>
</g>
</g>
<!-- Node5 -->
<g id="Node000005" class="node">
<title>Node5</title>
<g id="a_Node000005"><a xlink:href="pugixml_8cpp.html#a27b2a01a0bee31f8526055bdf590e42c" target="_top" xlink:title=" ">
<polygon fill="white" stroke="#666666" points="376.5,-138 291.5,-138 291.5,-118 376.5,-118 376.5,-138"/>
<text xml:space="preserve" text-anchor="middle" x="334" y="-124.5" font-family="Helvetica,sans-Serif" font-size="10.00">strconv_escape</text>
</a>
</g>
</g>
<!-- Node2&#45;&gt;Node5 -->
<g id="edge4_Node000002_Node000005" class="edge">
<title>Node2&#45;&gt;Node5</title>
<g id="a_edge4_Node000002_Node000005"><a xlink:title=" ">
<path fill="none" stroke="#63b8ff" d="M237.27,-82.49C243.38,-85.29 249.63,-88.2 255.5,-91 271.65,-98.7 275.37,-101.28 291.5,-109 294.22,-110.3 297.05,-111.64 299.89,-112.97"/>
<polygon fill="#63b8ff" stroke="#63b8ff" points="298.18,-116.03 308.73,-117.05 301.12,-109.68 298.18,-116.03"/>
</a>
</g>
</g>
<!-- Node5&#45;&gt;Node4 -->
<g id="edge8_Node000005_Node000004" class="edge">
<title>Node5&#45;&gt;Node4</title>
<g id="a_edge8_Node000005_Node000004"><a xlink:title=" ">
<path fill="none" stroke="#63b8ff" d="M357.89,-117.67C363.96,-114.89 370.49,-111.86 376.5,-109 391.69,-101.76 408.45,-93.5 422.42,-86.53"/>
<polygon fill="#63b8ff" stroke="#63b8ff" points="423.76,-89.78 431.13,-82.17 420.62,-83.52 423.76,-89.78"/>
</a>
</g>
</g>
<!-- Node6 -->
<g id="Node000006" class="node">
<title>Node6</title>
<g id="a_Node000006"><a xlink:href="structutf8__writer.html#a288e9c5f3720b95ae6b77330ad38dd56" target="_top" xlink:title=" ">
<polygon fill="white" stroke="#666666" points="496,-138 412.5,-138 412.5,-118 496,-118 496,-138"/>
<text xml:space="preserve" text-anchor="middle" x="454.25" y="-124.5" font-family="Helvetica,sans-Serif" font-size="10.00">utf8_writer::any</text>
</a>
</g>
</g>
<!-- Node5&#45;&gt;Node6 -->
<g id="edge5_Node000005_Node000006" class="edge">
<title>Node5&#45;&gt;Node6</title>
<g id="a_edge5_Node000005_Node000006"><a xlink:title=" ">
<path fill="none" stroke="#63b8ff" d="M376.69,-128C384.55,-128 392.87,-128 401.01,-128"/>
<polygon fill="#63b8ff" stroke="#63b8ff" points="400.82,-131.5 410.82,-128 400.82,-124.5 400.82,-131.5"/>
</a>
</g>
</g>
<!-- Node7 -->
<g id="Node000007" class="node">
<title>Node7</title>
<g id="a_Node000007"><a xlink:href="structutf8__writer.html#ac03dfaf797d599afdf0be7def86ff9b9" target="_top" xlink:title=" ">
<polygon fill="white" stroke="#666666" points="617.75,-157 532,-157 532,-137 617.75,-137 617.75,-157"/>
<text xml:space="preserve" text-anchor="middle" x="574.88" y="-143.5" font-family="Helvetica,sans-Serif" font-size="10.00">utf8_writer::high</text>
</a>
</g>
</g>
<!-- Node6&#45;&gt;Node7 -->
<g id="edge6_Node000006_Node000007" class="edge">
<title>Node6&#45;&gt;Node7</title>
<g id="a_edge6_Node000006_Node000007"><a xlink:title=" ">
<path fill="none" stroke="#63b8ff" d="M496.41,-134.59C504.14,-135.83 512.33,-137.14 520.37,-138.43"/>
<polygon fill="#63b8ff" stroke="#63b8ff" points="519.66,-141.86 530.09,-139.99 520.77,-134.95 519.66,-141.86"/>
</a>
</g>
</g>
<!-- Node8 -->
<g id="Node000008" class="node">
<title>Node8</title>
<g id="a_Node000008"><a xlink:href="structutf8__writer.html#ac4ec52da6f37225ba4fde259bff2f86c" target="_top" xlink:title=" ">
<polygon fill="white" stroke="#666666" points="616.25,-119 533.5,-119 533.5,-99 616.25,-99 616.25,-119"/>
<text xml:space="preserve" text-anchor="middle" x="574.88" y="-105.5" font-family="Helvetica,sans-Serif" font-size="10.00">utf8_writer::low</text>
</a>
</g>
</g>
<!-- Node6&#45;&gt;Node8 -->
<g id="edge7_Node000006_Node000008" class="edge">
<title>Node6&#45;&gt;Node8</title>
<g id="a_edge7_Node000006_Node000008"><a xlink:title=" ">
<path fill="none" stroke="#63b8ff" d="M496.41,-121.41C504.69,-120.08 513.49,-118.67 522.08,-117.3"/>
<polygon fill="#63b8ff" stroke="#63b8ff" points="522.38,-120.79 531.7,-115.76 521.27,-113.88 522.38,-120.79"/>
</a>
</g>
</g>
<!-- Node9&#45;&gt;Node3 -->
<g id="edge10_Node000009_Node000003" class="edge">
<title>Node9&#45;&gt;Node3</title>
<g id="a_edge10_Node000009_Node000003"><a xlink:title=" ">
<path fill="none" stroke="#63b8ff" d="M255.92,-105.12C268.37,-102.68 281.34,-100.14 293.01,-97.85"/>
<polygon fill="#63b8ff" stroke="#63b8ff" points="293.56,-101.31 302.7,-95.95 292.21,-94.44 293.56,-101.31"/>
</a>
</g>
</g>
<!-- Node9&#45;&gt;Node5 -->
<g id="edge11_Node000009_Node000005" class="edge">
<title>Node9&#45;&gt;Node5</title>
<g id="a_edge11_Node000009_Node000005"><a xlink:title=" ">
<path fill="none" stroke="#63b8ff" d="M255.92,-121.02C263.83,-121.74 271.95,-122.47 279.82,-123.18"/>
<polygon fill="#63b8ff" stroke="#63b8ff" points="279.32,-126.65 289.6,-124.07 279.95,-119.68 279.32,-126.65"/>
</a>
</g>
</g>
<!-- Node10&#45;&gt;Node3 -->
<g id="edge13_Node000010_Node000003" class="edge">
<title>Node10&#45;&gt;Node3</title>
<g id="a_edge13_Node000010_Node000003"><a xlink:title=" ">
<path fill="none" stroke="#63b8ff" d="M240.32,-149.64C245.56,-146.99 250.75,-144.09 255.5,-141 273.45,-129.33 273.57,-120.7 291.5,-109 293.34,-107.8 295.27,-106.63 297.25,-105.51"/>
<polygon fill="#63b8ff" stroke="#63b8ff" points="298.72,-108.69 306,-100.99 295.51,-102.47 298.72,-108.69"/>
</a>
</g>
</g>
<!-- Node10&#45;&gt;Node4 -->
<g id="edge14_Node000010_Node000004" class="edge">
<title>Node10&#45;&gt;Node4</title>
<g id="a_edge14_Node000010_Node000004"><a xlink:title=" ">
<path fill="none" stroke="#63b8ff" d="M255.97,-169.62C292.06,-169.73 339.18,-165.49 376.5,-147 397.35,-136.67 395.98,-125.39 412.5,-109 419.26,-102.29 426.85,-95.13 433.62,-88.84"/>
<polygon fill="#63b8ff" stroke="#63b8ff" points="435.55,-91.83 440.54,-82.49 430.81,-86.68 435.55,-91.83"/>
</a>
</g>
</g>
<!-- Node10&#45;&gt;Node5 -->
<g id="edge15_Node000010_Node000005" class="edge">
<title>Node10&#45;&gt;Node5</title>
<g id="a_edge15_Node000010_Node000005"><a xlink:title=" ">
<path fill="none" stroke="#63b8ff" d="M255.92,-150.1C265.81,-147.27 276.03,-144.34 285.67,-141.57"/>
<polygon fill="#63b8ff" stroke="#63b8ff" points="286.55,-144.96 295.2,-138.84 284.62,-138.23 286.55,-144.96"/>
</a>
</g>
</g>
<!-- Node11&#45;&gt;Node3 -->
<g id="edge17_Node000011_Node000003" class="edge">
<title>Node11&#45;&gt;Node3</title>
<g id="a_edge17_Node000011_Node000003"><a xlink:title=" ">
<path fill="none" stroke="#63b8ff" d="M238.41,-32.4C244.2,-35.15 250.06,-38.06 255.5,-41 273.71,-50.83 293.41,-63.32 308.39,-73.22"/>
<polygon fill="#63b8ff" stroke="#63b8ff" points="306.42,-76.11 316.67,-78.76 310.31,-70.29 306.42,-76.11"/>
</a>
</g>
</g>
<!-- Node11&#45;&gt;Node4 -->
<g id="edge18_Node000011_Node000004" class="edge">
<title>Node11&#45;&gt;Node4</title>
<g id="a_edge18_Node000011_Node000004"><a xlink:title=" ">
<path fill="none" stroke="#63b8ff" d="M255.97,-28.07C303.62,-38.44 371.16,-53.14 413.57,-62.36"/>
<polygon fill="#63b8ff" stroke="#63b8ff" points="412.57,-65.73 423.08,-64.44 414.06,-58.89 412.57,-65.73"/>
</a>
</g>
</g>
<!-- Node11&#45;&gt;Node5 -->
<g id="edge19_Node000011_Node000005" class="edge">
<title>Node11&#45;&gt;Node5</title>
<g id="a_edge19_Node000011_Node000005"><a xlink:title=" ">
<path fill="none" stroke="#63b8ff" d="M244,-32.36C248.14,-34.89 252.06,-37.76 255.5,-41 280.4,-64.44 266.63,-85.53 291.5,-109 292.39,-109.84 293.33,-110.65 294.3,-111.43"/>
<polygon fill="#63b8ff" stroke="#63b8ff" points="292.22,-114.25 302.51,-116.79 296.05,-108.39 292.22,-114.25"/>
</a>
</g>
</g>
</g>
</svg>
