<?xml version="1.0" encoding="UTF-8" standalone="no"?>
<!DOCTYPE svg PUBLIC "-//W3C//DTD SVG 1.1//EN"
 "http://www.w3.org/Graphics/SVG/1.1/DTD/svg11.dtd">
<!-- Generated by graphviz version 14.1.2 (20260124.0452)
 -->
<!-- Title: zero_terminate_buffer Pages: 1 -->
<svg width="246pt" height="66pt"
 viewBox="0.00 0.00 246.00 66.00" xmlns="http://www.w3.org/2000/svg" xmlns:xlink="http://www.w3.org/1999/xlink">
<g id="graph0" class="graph" transform="scale(1 1) rotate(0) translate(4 62)">
<title>zero_terminate_buffer</title>
<!-- Node1 -->
<g id="Node000001" class="node">
<title>Node1</title>
<g id="a_Node000001"><a xlink:title=" ">
<polygon fill="#999999" stroke="#666666" points="238.25,-39 128.5,-39 128.5,-19 238.25,-19 238.25,-39"/>
<text xml:space="preserve" text-anchor="middle" x="183.38" y="-25.5" font-family="Helvetica,sans-Serif" font-size="10.00">zero_terminate_buffer</text>
</a>
</g>
</g>
<!-- Node2 -->
<g id="Node000002" class="node">
<title>Node2</title>
<g id="a_Node000002"><a xlink:href="pugixml_8cpp.html#aceaecd7da4188d11f224e33404cb23ba" target="_top" xlink:title=" ">
<polygon fill="white" stroke="#666666" points="83.88,-58 8.62,-58 8.62,-38 83.88,-38 83.88,-58"/>
<text xml:space="preserve" text-anchor="middle" x="46.25" y="-44.5" font-family="Helvetica,sans-Serif" font-size="10.00">load_file_impl</text>
</a>
</g>
</g>
<!-- Node1&#45;&gt;Node2 -->
<g id="edge1_Node000001_Node000002" class="edge">
<title>Node1&#45;&gt;Node2</title>
<g id="a_edge1_Node000001_Node000002"><a xlink:title=" ">
<path fill="none" stroke="#63b8ff" d="M116.95,-38.2C105.63,-39.79 94.23,-41.39 84.03,-42.83"/>
<polygon fill="#63b8ff" stroke="#63b8ff" points="117.28,-41.69 126.69,-36.83 116.3,-34.76 117.28,-41.69"/>
</a>
</g>
</g>
<!-- Node3 -->
<g id="Node000003" class="node">
<title>Node3</title>
<g id="a_Node000003"><a xlink:href="pugixml_8cpp.html#a826b7e183311c8aa4e5b25157a3b3d3f" target="_top" xlink:title=" ">
<polygon fill="white" stroke="#666666" points="92.5,-20 0,-20 0,0 92.5,0 92.5,-20"/>
<text xml:space="preserve" text-anchor="middle" x="46.25" y="-6.5" font-family="Helvetica,sans-Serif" font-size="10.00">load_stream_impl</text>
</a>
</g>
</g>
<!-- Node1&#45;&gt;Node3 -->
<g id="edge2_Node000001_Node000003" class="edge">
<title>Node1&#45;&gt;Node3</title>
<g id="a_edge2_Node000001_Node000003"><a xlink:title=" ">
<path fill="none" stroke="#63b8ff" d="M117.06,-19.82C108.84,-18.66 100.58,-17.5 92.76,-16.4"/>
<polygon fill="#63b8ff" stroke="#63b8ff" points="116.3,-23.24 126.69,-21.17 117.28,-16.31 116.3,-23.24"/>
</a>
</g>
</g>
</g>
</svg>
