<?xml version="1.0" encoding="UTF-8" standalone="no"?>
<!DOCTYPE svg PUBLIC "-//W3C//DTD SVG 1.1//EN"
 "http://www.w3.org/Graphics/SVG/1.1/DTD/svg11.dtd">
<!-- Generated by graphviz version 14.1.2 (20260124.0452)
 -->
<!-- Title: append_new_attribute Pages: 1 -->
<svg width="1073pt" height="110pt"
 viewBox="0.00 0.00 1073.00 110.00" xmlns="http://www.w3.org/2000/svg" xmlns:xlink="http://www.w3.org/1999/xlink">
<g id="graph0" class="graph" transform="scale(1 1) rotate(0) translate(4 106)">
<title>append_new_attribute</title>
<!-- Node1 -->
<g id="Node000001" class="node">
<title>Node1</title>
<g id="a_Node000001"><a xlink:title=" ">
<polygon fill="#999999" stroke="#666666" points="111.25,-58 0,-58 0,-38 111.25,-38 111.25,-58"/>
<text xml:space="preserve" text-anchor="middle" x="55.62" y="-44.5" font-family="Helvetica,sans-Serif" font-size="10.00">append_new_attribute</text>
</a>
</g>
</g>
<!-- Node2 -->
<g id="Node000002" class="node">
<title>Node2</title>
<g id="a_Node000002"><a xlink:href="pugixml_8cpp.html#a26ec349a881efb75dce214a92fd56842" target="_top" xlink:title=" ">
<polygon fill="white" stroke="#666666" points="248.38,-96 158.12,-96 158.12,-76 248.38,-76 248.38,-96"/>
<text xml:space="preserve" text-anchor="middle" x="203.25" y="-82.5" font-family="Helvetica,sans-Serif" font-size="10.00">allocate_attribute</text>
</a>
</g>
</g>
<!-- Node1&#45;&gt;Node2 -->
<g id="edge1_Node000001_Node000002" class="edge">
<title>Node1&#45;&gt;Node2</title>
<g id="a_edge1_Node000001_Node000002"><a xlink:title=" ">
<path fill="none" stroke="#63b8ff" d="M96.8,-58.48C113.6,-62.87 133.31,-68.01 151.12,-72.66"/>
<polygon fill="#63b8ff" stroke="#63b8ff" points="150.18,-76.03 160.74,-75.17 151.95,-69.26 150.18,-76.03"/>
</a>
</g>
</g>
<!-- Node8 -->
<g id="Node000008" class="node">
<title>Node8</title>
<g id="a_Node000008"><a xlink:href="pugixml_8cpp.html#ad64fdacadf33c8b534a9cd220f1aa966" target="_top" xlink:title=" ">
<polygon fill="white" stroke="#666666" points="247.25,-58 159.25,-58 159.25,-38 247.25,-38 247.25,-58"/>
<text xml:space="preserve" text-anchor="middle" x="203.25" y="-44.5" font-family="Helvetica,sans-Serif" font-size="10.00">append_attribute</text>
</a>
</g>
</g>
<!-- Node1&#45;&gt;Node8 -->
<g id="edge7_Node000001_Node000008" class="edge">
<title>Node1&#45;&gt;Node8</title>
<g id="a_edge7_Node000001_Node000008"><a xlink:title=" ">
<path fill="none" stroke="#63b8ff" d="M111.68,-48C123.4,-48 135.77,-48 147.48,-48"/>
<polygon fill="#63b8ff" stroke="#63b8ff" points="147.4,-51.5 157.4,-48 147.4,-44.5 147.4,-51.5"/>
</a>
</g>
</g>
<!-- Node9 -->
<g id="Node000009" class="node">
<title>Node9</title>
<g id="a_Node000009"><a xlink:href="structxml__allocator.html#ac831a283ec3bcbe22fd3ce3be98ec347" target="_top" xlink:title=" ">
<polygon fill="white" stroke="#666666" points="259.25,-20 147.25,-20 147.25,0 259.25,0 259.25,-20"/>
<text xml:space="preserve" text-anchor="middle" x="203.25" y="-6.5" font-family="Helvetica,sans-Serif" font-size="10.00">xml_allocator::reserve</text>
</a>
</g>
</g>
<!-- Node1&#45;&gt;Node9 -->
<g id="edge8_Node000001_Node000009" class="edge">
<title>Node1&#45;&gt;Node9</title>
<g id="a_edge8_Node000001_Node000009"><a xlink:title=" ">
<path fill="none" stroke="#63b8ff" d="M96.8,-37.52C113.6,-33.13 133.31,-27.99 151.12,-23.34"/>
<polygon fill="#63b8ff" stroke="#63b8ff" points="151.95,-26.74 160.74,-20.83 150.18,-19.97 151.95,-26.74"/>
</a>
</g>
</g>
<!-- Node3 -->
<g id="Node000003" class="node">
<title>Node3</title>
<g id="a_Node000003"><a xlink:href="structxml__allocator.html#a103dfdec5c72cb955e2a97a61fdc9af1" target="_top" xlink:title=" ">
<polygon fill="white" stroke="#666666" points="408.75,-102 295.25,-102 295.25,-70 408.75,-70 408.75,-102"/>
<text xml:space="preserve" text-anchor="start" x="303.25" y="-88.5" font-family="Helvetica,sans-Serif" font-size="10.00">xml_allocator::allocate</text>
<text xml:space="preserve" text-anchor="middle" x="352" y="-76.5" font-family="Helvetica,sans-Serif" font-size="10.00">_object</text>
</a>
</g>
</g>
<!-- Node2&#45;&gt;Node3 -->
<g id="edge2_Node000002_Node000003" class="edge">
<title>Node2&#45;&gt;Node3</title>
<g id="a_edge2_Node000002_Node000003"><a xlink:title=" ">
<path fill="none" stroke="#63b8ff" d="M248.68,-86C259.67,-86 271.7,-86 283.53,-86"/>
<polygon fill="#63b8ff" stroke="#63b8ff" points="283.24,-89.5 293.24,-86 283.24,-82.5 283.24,-89.5"/>
</a>
</g>
</g>
<!-- Node4 -->
<g id="Node000004" class="node">
<title>Node4</title>
<g id="a_Node000004"><a xlink:href="structxml__allocator.html#a02a8725611785568ceae7a0eea3eca76" target="_top" xlink:title=" ">
<polygon fill="white" stroke="#666666" points="558.25,-102 444.75,-102 444.75,-70 558.25,-70 558.25,-102"/>
<text xml:space="preserve" text-anchor="start" x="452.75" y="-88.5" font-family="Helvetica,sans-Serif" font-size="10.00">xml_allocator::allocate</text>
<text xml:space="preserve" text-anchor="middle" x="501.5" y="-76.5" font-family="Helvetica,sans-Serif" font-size="10.00">_memory</text>
</a>
</g>
</g>
<!-- Node3&#45;&gt;Node4 -->
<g id="edge3_Node000003_Node000004" class="edge">
<title>Node3&#45;&gt;Node4</title>
<g id="a_edge3_Node000003_Node000004"><a xlink:title=" ">
<path fill="none" stroke="#63b8ff" d="M409.18,-86C417.04,-86 425.18,-86 433.22,-86"/>
<polygon fill="#63b8ff" stroke="#63b8ff" points="432.96,-89.5 442.96,-86 432.96,-82.5 432.96,-89.5"/>
</a>
</g>
</g>
<!-- Node5 -->
<g id="Node000005" class="node">
<title>Node5</title>
<g id="a_Node000005"><a xlink:href="structxml__allocator.html#ae010e1cb3ad4e8f1235ad94ea4c542ee" target="_top" xlink:title=" ">
<polygon fill="white" stroke="#666666" points="707.75,-102 594.25,-102 594.25,-70 707.75,-70 707.75,-102"/>
<text xml:space="preserve" text-anchor="start" x="602.25" y="-88.5" font-family="Helvetica,sans-Serif" font-size="10.00">xml_allocator::allocate</text>
<text xml:space="preserve" text-anchor="middle" x="651" y="-76.5" font-family="Helvetica,sans-Serif" font-size="10.00">_memory_oob</text>
</a>
</g>
</g>
<!-- Node4&#45;&gt;Node5 -->
<g id="edge4_Node000004_Node000005" class="edge">
<title>Node4&#45;&gt;Node5</title>
<g id="a_edge4_Node000004_Node000005"><a xlink:title=" ">
<path fill="none" stroke="#63b8ff" d="M558.68,-86C566.54,-86 574.68,-86 582.72,-86"/>
<polygon fill="#63b8ff" stroke="#63b8ff" points="582.46,-89.5 592.46,-86 582.46,-82.5 582.46,-89.5"/>
</a>
</g>
</g>
<!-- Node6 -->
<g id="Node000006" class="node">
<title>Node6</title>
<g id="a_Node000006"><a xlink:href="structxml__allocator.html#ad07a6aa6876c8c5a5536d409c01d88e5" target="_top" xlink:title=" ">
<polygon fill="white" stroke="#666666" points="883.5,-96 743.75,-96 743.75,-76 883.5,-76 883.5,-96"/>
<text xml:space="preserve" text-anchor="middle" x="813.62" y="-82.5" font-family="Helvetica,sans-Serif" font-size="10.00">xml_allocator::allocate_page</text>
</a>
</g>
</g>
<!-- Node5&#45;&gt;Node6 -->
<g id="edge5_Node000005_Node000006" class="edge">
<title>Node5&#45;&gt;Node6</title>
<g id="a_edge5_Node000005_Node000006"><a xlink:title=" ">
<path fill="none" stroke="#63b8ff" d="M708.18,-86C715.93,-86 724,-86 732.09,-86"/>
<polygon fill="#63b8ff" stroke="#63b8ff" points="731.97,-89.5 741.97,-86 731.97,-82.5 731.97,-89.5"/>
</a>
</g>
</g>
<!-- Node7 -->
<g id="Node000007" class="node">
<title>Node7</title>
<g id="a_Node000007"><a xlink:href="structxml__memory__page.html#a071bb9cc9aeccef1655c1336b16472a5" target="_top" xlink:title=" ">
<polygon fill="white" stroke="#666666" points="1064.5,-96 919.5,-96 919.5,-76 1064.5,-76 1064.5,-96"/>
<text xml:space="preserve" text-anchor="middle" x="992" y="-82.5" font-family="Helvetica,sans-Serif" font-size="10.00">xml_memory_page::construct</text>
</a>
</g>
</g>
<!-- Node6&#45;&gt;Node7 -->
<g id="edge6_Node000006_Node000007" class="edge">
<title>Node6&#45;&gt;Node7</title>
<g id="a_edge6_Node000006_Node000007"><a xlink:title=" ">
<path fill="none" stroke="#63b8ff" d="M883.83,-86C891.7,-86 899.78,-86 907.81,-86"/>
<polygon fill="#63b8ff" stroke="#63b8ff" points="907.58,-89.5 917.58,-86 907.58,-82.5 907.58,-89.5"/>
</a>
</g>
</g>
</g>
</svg>
