<?xml version="1.0" encoding="UTF-8" standalone="no"?>
<!DOCTYPE svg PUBLIC "-//W3C//DTD SVG 1.1//EN"
 "http://www.w3.org/Graphics/SVG/1.1/DTD/svg11.dtd">
<!-- Generated by graphviz version 14.1.2 (20260124.0452)
 -->
<!-- Title: sort Pages: 1 -->
<svg width="227pt" height="104pt"
 viewBox="0.00 0.00 227.00 104.00" xmlns="http://www.w3.org/2000/svg" xmlns:xlink="http://www.w3.org/1999/xlink">
<g id="graph0" class="graph" transform="scale(1 1) rotate(0) translate(4 100)">
<title>sort</title>
<!-- Node1 -->
<g id="Node000001" class="node">
<title>Node1</title>
<g id="a_Node000001"><a xlink:title=" ">
<polygon fill="#999999" stroke="#666666" points="33.17,-58 0.67,-58 0.67,-38 33.17,-38 33.17,-58"/>
<text xml:space="preserve" text-anchor="middle" x="16.92" y="-44.5" font-family="Helvetica,sans-Serif" font-size="10.00">sort</text>
</a>
</g>
</g>
<!-- Node1&#45;&gt;Node1 -->
<g id="edge6_Node000001_Node000001" class="edge">
<title>Node1&#45;&gt;Node1</title>
<g id="a_edge6_Node000001_Node000001"><a xlink:title=" ">
<path fill="none" stroke="#63b8ff" d="M2.7,-58.34C-3.38,-66.98 1.36,-76 16.92,-76 25.43,-76 30.7,-73.3 32.74,-69.44"/>
<polygon fill="#63b8ff" stroke="#63b8ff" points="36.24,-69.24 31.35,-59.84 29.31,-70.23 36.24,-69.24"/>
</a>
</g>
</g>
<!-- Node2 -->
<g id="Node000002" class="node">
<title>Node2</title>
<g id="a_Node000002"><a xlink:href="pugixml_8cpp.html#ae32103b72e8928c87dfa9bce03565bb0" target="_top" xlink:title=" ">
<polygon fill="white" stroke="#666666" points="143.67,-96 69.17,-96 69.17,-76 143.67,-76 143.67,-96"/>
<text xml:space="preserve" text-anchor="middle" x="106.42" y="-82.5" font-family="Helvetica,sans-Serif" font-size="10.00">insertion_sort</text>
</a>
</g>
</g>
<!-- Node1&#45;&gt;Node2 -->
<g id="edge1_Node000001_Node000002" class="edge">
<title>Node1&#45;&gt;Node2</title>
<g id="a_edge1_Node000001_Node000002"><a xlink:title=" ">
<path fill="none" stroke="#63b8ff" d="M33.56,-54.79C43.93,-59.3 57.95,-65.39 70.86,-70.99"/>
<polygon fill="#63b8ff" stroke="#63b8ff" points="69.37,-74.16 79.94,-74.94 72.16,-67.74 69.37,-74.16"/>
</a>
</g>
</g>
<!-- Node3 -->
<g id="Node000003" class="node">
<title>Node3</title>
<g id="a_Node000003"><a xlink:href="pugixml_8cpp.html#a1212d7df5db87e06b12d2a2705e4b73d" target="_top" xlink:title=" ">
<polygon fill="white" stroke="#666666" points="132.79,-58 80.04,-58 80.04,-38 132.79,-38 132.79,-58"/>
<text xml:space="preserve" text-anchor="middle" x="106.42" y="-44.5" font-family="Helvetica,sans-Serif" font-size="10.00">median3</text>
</a>
</g>
</g>
<!-- Node1&#45;&gt;Node3 -->
<g id="edge2_Node000001_Node000003" class="edge">
<title>Node1&#45;&gt;Node3</title>
<g id="a_edge2_Node000001_Node000003"><a xlink:title=" ">
<path fill="none" stroke="#63b8ff" d="M33.56,-48C43.25,-48 56.12,-48 68.29,-48"/>
<polygon fill="#63b8ff" stroke="#63b8ff" points="68.11,-51.5 78.11,-48 68.11,-44.5 68.11,-51.5"/>
</a>
</g>
</g>
<!-- Node5 -->
<g id="Node000005" class="node">
<title>Node5</title>
<g id="a_Node000005"><a xlink:href="pugixml_8cpp.html#a9c094b50369e7c77c5b9ec157b2350b1" target="_top" xlink:title=" ">
<polygon fill="white" stroke="#666666" points="134.29,-20 78.54,-20 78.54,0 134.29,0 134.29,-20"/>
<text xml:space="preserve" text-anchor="middle" x="106.42" y="-6.5" font-family="Helvetica,sans-Serif" font-size="10.00">partition3</text>
</a>
</g>
</g>
<!-- Node1&#45;&gt;Node5 -->
<g id="edge4_Node000001_Node000005" class="edge">
<title>Node1&#45;&gt;Node5</title>
<g id="a_edge4_Node000001_Node000005"><a xlink:title=" ">
<path fill="none" stroke="#63b8ff" d="M33.56,-41.21C43.93,-36.7 57.95,-30.61 70.86,-25.01"/>
<polygon fill="#63b8ff" stroke="#63b8ff" points="72.16,-28.26 79.94,-21.06 69.37,-21.84 72.16,-28.26"/>
</a>
</g>
</g>
<!-- Node4 -->
<g id="Node000004" class="node">
<title>Node4</title>
<g id="a_Node000004"><a xlink:href="pugixml_8cpp.html#aab8f818e90a34b18c1da140588eca88d" target="_top" xlink:title=" ">
<polygon fill="white" stroke="#666666" points="218.92,-39 179.67,-39 179.67,-19 218.92,-19 218.92,-39"/>
<text xml:space="preserve" text-anchor="middle" x="199.29" y="-25.5" font-family="Helvetica,sans-Serif" font-size="10.00">swap</text>
</a>
</g>
</g>
<!-- Node3&#45;&gt;Node4 -->
<g id="edge3_Node000003_Node000004" class="edge">
<title>Node3&#45;&gt;Node4</title>
<g id="a_edge3_Node000003_Node000004"><a xlink:title=" ">
<path fill="none" stroke="#63b8ff" d="M133.22,-42.61C144.12,-40.33 156.89,-37.66 168.22,-35.29"/>
<polygon fill="#63b8ff" stroke="#63b8ff" points="168.81,-38.74 177.88,-33.27 167.38,-31.89 168.81,-38.74"/>
</a>
</g>
</g>
<!-- Node5&#45;&gt;Node4 -->
<g id="edge5_Node000005_Node000004" class="edge">
<title>Node5&#45;&gt;Node4</title>
<g id="a_edge5_Node000005_Node000004"><a xlink:title=" ">
<path fill="none" stroke="#63b8ff" d="M134.68,-15.7C145.28,-17.92 157.45,-20.46 168.3,-22.73"/>
<polygon fill="#63b8ff" stroke="#63b8ff" points="167.42,-26.12 177.92,-24.74 168.85,-19.27 167.42,-26.12"/>
</a>
</g>
</g>
</g>
</svg>
