<?xml version="1.0" encoding="UTF-8" standalone="no"?>
<!DOCTYPE svg PUBLIC "-//W3C//DTD SVG 1.1//EN"
 "http://www.w3.org/Graphics/SVG/1.1/DTD/svg11.dtd">
<!-- Generated by graphviz version 14.1.2 (20260124.0452)
 -->
<!-- Title: strconv_escape Pages: 1 -->
<svg width="334pt" height="85pt"
 viewBox="0.00 0.00 334.00 85.00" xmlns="http://www.w3.org/2000/svg" xmlns:xlink="http://www.w3.org/1999/xlink">

<svg id="main" version="1.1" xmlns="http://www.w3.org/2000/svg" xmlns:xlink="http://www.w3.org/1999/xlink" xml:space="preserve">

<style type="text/css"><![CDATA[
.node, .edge {opacity: 0.7;}
.node.selected, .edge.selected {opacity: 1;}
.edge:hover path { stroke: red; }
.edge:hover polygon { stroke: red; fill: red; }
]]></style>
<script type="application/ecmascript" xlink:href="svg.min.js"/>
<svg id="graph" class="graph">
<g id="graph0" class="graph" transform="scale(1 1) rotate(0) translate(4 81)">
<title>strconv_escape</title>
<!-- Node1 -->
<g id="Node000001" class="node">
<title>Node1</title>
<g id="a_Node000001"><a xlink:title=" ">
<polygon fill="#999999" stroke="#666666" points="85,-39 0,-39 0,-19 85,-19 85,-39"/>
<text xml:space="preserve" text-anchor="middle" x="42.5" y="-25.5" font-family="Helvetica,sans-Serif" font-size="10.00">strconv_escape</text>
</a>
</g>
</g>
<!-- Node2 -->
<g id="Node000002" class="node">
<title>Node2</title>
<g id="a_Node000002"><a xlink:href="structutf8__writer.html#a288e9c5f3720b95ae6b77330ad38dd56" target="_top" xlink:title=" ">
<polygon fill="white" stroke="#666666" points="204.5,-58 121,-58 121,-38 204.5,-38 204.5,-58"/>
<text xml:space="preserve" text-anchor="middle" x="162.75" y="-44.5" font-family="Helvetica,sans-Serif" font-size="10.00">utf8_writer::any</text>
</a>
</g>
</g>
<!-- Node1&#45;&gt;Node2 -->
<g id="edge1_Node000001_Node000002" class="edge">
<title>Node1&#45;&gt;Node2</title>
<g id="a_edge1_Node000001_Node000002"><a xlink:title=" ">
<path fill="none" stroke="#63b8ff" d="M85.19,-35.7C93.05,-36.96 101.37,-38.3 109.51,-39.61"/>
<polygon fill="#63b8ff" stroke="#63b8ff" points="108.91,-43.05 119.34,-41.19 110.02,-36.14 108.91,-43.05"/>
</a>
</g>
</g>
<!-- Node5 -->
<g id="Node000005" class="node">
<title>Node5</title>
<g id="a_Node000005"><a xlink:href="structgap.html#a9c0d0b12bc778c8439c8aec7747ab2b0" target="_top" xlink:title=" ">
<polygon fill="white" stroke="#666666" points="192.12,-20 133.38,-20 133.38,0 192.12,0 192.12,-20"/>
<text xml:space="preserve" text-anchor="middle" x="162.75" y="-6.5" font-family="Helvetica,sans-Serif" font-size="10.00">gap::push</text>
</a>
</g>
</g>
<!-- Node1&#45;&gt;Node5 -->
<g id="edge4_Node000001_Node000005" class="edge">
<title>Node1&#45;&gt;Node5</title>
<g id="a_edge4_Node000001_Node000005"><a xlink:title=" ">
<path fill="none" stroke="#63b8ff" d="M85.19,-22.3C97.06,-20.39 109.96,-18.32 121.73,-16.43"/>
<polygon fill="#63b8ff" stroke="#63b8ff" points="122.22,-19.9 131.54,-14.85 121.11,-12.98 122.22,-19.9"/>
</a>
</g>
</g>
<!-- Node3 -->
<g id="Node000003" class="node">
<title>Node3</title>
<g id="a_Node000003"><a xlink:href="structutf8__writer.html#ac03dfaf797d599afdf0be7def86ff9b9" target="_top" xlink:title=" ">
<polygon fill="white" stroke="#666666" points="326.25,-77 240.5,-77 240.5,-57 326.25,-57 326.25,-77"/>
<text xml:space="preserve" text-anchor="middle" x="283.38" y="-63.5" font-family="Helvetica,sans-Serif" font-size="10.00">utf8_writer::high</text>
</a>
</g>
</g>
<!-- Node2&#45;&gt;Node3 -->
<g id="edge2_Node000002_Node000003" class="edge">
<title>Node2&#45;&gt;Node3</title>
<g id="a_edge2_Node000002_Node000003"><a xlink:title=" ">
<path fill="none" stroke="#63b8ff" d="M204.91,-54.59C212.64,-55.83 220.83,-57.14 228.87,-58.43"/>
<polygon fill="#63b8ff" stroke="#63b8ff" points="228.16,-61.86 238.59,-59.99 229.27,-54.95 228.16,-61.86"/>
</a>
</g>
</g>
<!-- Node4 -->
<g id="Node000004" class="node">
<title>Node4</title>
<g id="a_Node000004"><a xlink:href="structutf8__writer.html#ac4ec52da6f37225ba4fde259bff2f86c" target="_top" xlink:title=" ">
<polygon fill="white" stroke="#666666" points="324.75,-39 242,-39 242,-19 324.75,-19 324.75,-39"/>
<text xml:space="preserve" text-anchor="middle" x="283.38" y="-25.5" font-family="Helvetica,sans-Serif" font-size="10.00">utf8_writer::low</text>
</a>
</g>
</g>
<!-- Node2&#45;&gt;Node4 -->
<g id="edge3_Node000002_Node000004" class="edge">
<title>Node2&#45;&gt;Node4</title>
<g id="a_edge3_Node000002_Node000004"><a xlink:title=" ">
<path fill="none" stroke="#63b8ff" d="M204.91,-41.41C213.19,-40.08 221.99,-38.67 230.58,-37.3"/>
<polygon fill="#63b8ff" stroke="#63b8ff" points="230.88,-40.79 240.2,-35.76 229.77,-33.88 230.88,-40.79"/>
</a>
</g>
</g>
</g>
</svg>
</svg>

<style type='text/css'>
<![CDATA[
[data-mouse-over-selected='false'] { opacity: 0.7; }
[data-mouse-over-selected='true']  { opacity: 1.0; }
]]>
</style>
<script type="application/ecmascript"><![CDATA[
document.addEventListener('DOMContentLoaded', (event) => {
  highlightEdges();
  highlightAdjacentNodes();
});
]]></script>
</svg>
