<?xml version="1.0" encoding="UTF-8" standalone="no"?>
<!DOCTYPE svg PUBLIC "-//W3C//DTD SVG 1.1//EN"
 "http://www.w3.org/Graphics/SVG/1.1/DTD/svg11.dtd">
<!-- Generated by graphviz version 14.1.2 (20260124.0452)
 -->
<!-- Title: node_output_start Pages: 1 -->
<svg width="528pt" height="66pt"
 viewBox="0.00 0.00 528.00 66.00" xmlns="http://www.w3.org/2000/svg" xmlns:xlink="http://www.w3.org/1999/xlink">
<g id="graph0" class="graph" transform="scale(1 1) rotate(0) translate(4 62)">
<title>node_output_start</title>
<!-- Node1 -->
<g id="Node000001" class="node">
<title>Node1</title>
<g id="a_Node000001"><a xlink:title=" ">
<polygon fill="#999999" stroke="#666666" points="94,-39 0,-39 0,-19 94,-19 94,-39"/>
<text xml:space="preserve" text-anchor="middle" x="47" y="-25.5" font-family="Helvetica,sans-Serif" font-size="10.00">node_output_start</text>
</a>
</g>
</g>
<!-- Node2 -->
<g id="Node000002" class="node">
<title>Node2</title>
<g id="a_Node000002"><a xlink:href="pugixml_8cpp.html#a05d1bf3ded0294ee5109cb5cacdc4f99" target="_top" xlink:title=" ">
<polygon fill="white" stroke="#666666" points="245,-20 130,-20 130,0 245,0 245,-20"/>
<text xml:space="preserve" text-anchor="middle" x="187.5" y="-6.5" font-family="Helvetica,sans-Serif" font-size="10.00">node_output_attributes</text>
</a>
</g>
</g>
<!-- Node1&#45;&gt;Node2 -->
<g id="edge1_Node000001_Node000002" class="edge">
<title>Node1&#45;&gt;Node2</title>
<g id="a_edge1_Node000001_Node000002"><a xlink:title=" ">
<path fill="none" stroke="#63b8ff" d="M94.12,-22.67C102.02,-21.59 110.37,-20.44 118.69,-19.3"/>
<polygon fill="#63b8ff" stroke="#63b8ff" points="119.05,-22.79 128.48,-17.96 118.1,-15.85 119.05,-22.79"/>
</a>
</g>
</g>
<!-- Node3 -->
<g id="Node000003" class="node">
<title>Node3</title>
<g id="a_Node000003"><a xlink:href="pugixml_8cpp.html#ab350d053c07c3976bb39a151581356fc" target="_top" xlink:title=" ">
<polygon fill="white" stroke="#666666" points="361.5,-58 296.75,-58 296.75,-38 361.5,-38 361.5,-58"/>
<text xml:space="preserve" text-anchor="middle" x="329.12" y="-44.5" font-family="Helvetica,sans-Serif" font-size="10.00">text_output</text>
</a>
</g>
</g>
<!-- Node1&#45;&gt;Node3 -->
<g id="edge5_Node000001_Node000003" class="edge">
<title>Node1&#45;&gt;Node3</title>
<g id="a_edge5_Node000001_Node000003"><a xlink:title=" ">
<path fill="none" stroke="#63b8ff" d="M94.26,-32.14C147.31,-35.74 233.6,-41.59 285.21,-45.09"/>
<polygon fill="#63b8ff" stroke="#63b8ff" points="284.88,-48.57 295.09,-45.76 285.35,-41.59 284.88,-48.57"/>
</a>
</g>
</g>
<!-- Node2&#45;&gt;Node3 -->
<g id="edge2_Node000002_Node000003" class="edge">
<title>Node2&#45;&gt;Node3</title>
<g id="a_edge2_Node000002_Node000003"><a xlink:title=" ">
<path fill="none" stroke="#63b8ff" d="M227.02,-20.48C245.16,-25.42 266.84,-31.32 285.47,-36.39"/>
<polygon fill="#63b8ff" stroke="#63b8ff" points="284.29,-39.7 294.86,-38.95 286.13,-32.94 284.29,-39.7"/>
</a>
</g>
</g>
<!-- Node5 -->
<g id="Node000005" class="node">
<title>Node5</title>
<g id="a_Node000005"><a xlink:href="pugixml_8cpp.html#a478905783b7081440dc5076ff42cd1e2" target="_top" xlink:title=" ">
<polygon fill="white" stroke="#666666" points="377.25,-20 281,-20 281,0 377.25,0 377.25,-20"/>
<text xml:space="preserve" text-anchor="middle" x="329.12" y="-6.5" font-family="Helvetica,sans-Serif" font-size="10.00">text_output_indent</text>
</a>
</g>
</g>
<!-- Node2&#45;&gt;Node5 -->
<g id="edge4_Node000002_Node000005" class="edge">
<title>Node2&#45;&gt;Node5</title>
<g id="a_edge4_Node000002_Node000005"><a xlink:title=" ">
<path fill="none" stroke="#63b8ff" d="M245.29,-10C253.2,-10 261.35,-10 269.3,-10"/>
<polygon fill="#63b8ff" stroke="#63b8ff" points="269.24,-13.5 279.24,-10 269.24,-6.5 269.24,-13.5"/>
</a>
</g>
</g>
<!-- Node4 -->
<g id="Node000004" class="node">
<title>Node4</title>
<g id="a_Node000004"><a xlink:href="pugixml_8cpp.html#ab87511166fc7a13ed9e2d85dcb73670a" target="_top" xlink:title=" ">
<polygon fill="white" stroke="#666666" points="520,-58 413.25,-58 413.25,-38 520,-38 520,-58"/>
<text xml:space="preserve" text-anchor="middle" x="466.62" y="-44.5" font-family="Helvetica,sans-Serif" font-size="10.00">text_output_escaped</text>
</a>
</g>
</g>
<!-- Node3&#45;&gt;Node4 -->
<g id="edge3_Node000003_Node000004" class="edge">
<title>Node3&#45;&gt;Node4</title>
<g id="a_edge3_Node000003_Node000004"><a xlink:title=" ">
<path fill="none" stroke="#63b8ff" d="M361.89,-48C373.75,-48 387.68,-48 401.41,-48"/>
<polygon fill="#63b8ff" stroke="#63b8ff" points="401.33,-51.5 411.33,-48 401.33,-44.5 401.33,-51.5"/>
</a>
</g>
</g>
</g>
</svg>
