<?xml version="1.0" encoding="UTF-8" standalone="no"?>
<!DOCTYPE svg PUBLIC "-//W3C//DTD SVG 1.1//EN"
 "http://www.w3.org/Graphics/SVG/1.1/DTD/svg11.dtd">
<!-- Generated by graphviz version 14.1.2 (20260124.0452)
 -->
<!-- Title: get_buffer_encoding Pages: 1 -->
<svg width="436pt" height="104pt"
 viewBox="0.00 0.00 436.00 104.00" xmlns="http://www.w3.org/2000/svg" xmlns:xlink="http://www.w3.org/1999/xlink">

<svg id="main" version="1.1" xmlns="http://www.w3.org/2000/svg" xmlns:xlink="http://www.w3.org/1999/xlink" xml:space="preserve">

<style type="text/css"><![CDATA[
.node, .edge {opacity: 0.7;}
.node.selected, .edge.selected {opacity: 1;}
.edge:hover path { stroke: red; }
.edge:hover polygon { stroke: red; fill: red; }
]]></style>
<script type="application/ecmascript" xlink:href="svg.min.js"/>
<svg id="graph" class="graph">
<g id="graph0" class="graph" transform="scale(1 1) rotate(0) translate(4 100)">
<title>get_buffer_encoding</title>
<!-- Node1 -->
<g id="Node000001" class="node">
<title>Node1</title>
<g id="a_Node000001"><a xlink:title=" ">
<polygon fill="#999999" stroke="#666666" points="103,-58 0,-58 0,-38 103,-38 103,-58"/>
<text xml:space="preserve" text-anchor="middle" x="51.5" y="-44.5" font-family="Helvetica,sans-Serif" font-size="10.00">get_buffer_encoding</text>
</a>
</g>
</g>
<!-- Node2 -->
<g id="Node000002" class="node">
<title>Node2</title>
<g id="a_Node000002"><a xlink:href="pugixml_8cpp.html#ac65295a489782c48a97a97e972ed61b0" target="_top" xlink:title=" ">
<polygon fill="white" stroke="#666666" points="249.5,-96 144.25,-96 144.25,-76 249.5,-76 249.5,-96"/>
<text xml:space="preserve" text-anchor="middle" x="196.88" y="-82.5" font-family="Helvetica,sans-Serif" font-size="10.00">get_wchar_encoding</text>
</a>
</g>
</g>
<!-- Node1&#45;&gt;Node2 -->
<g id="edge1_Node000001_Node000002" class="edge">
<title>Node1&#45;&gt;Node2</title>
<g id="a_edge1_Node000001_Node000002"><a xlink:title=" ">
<path fill="none" stroke="#63b8ff" d="M92.06,-58.48C108.67,-62.89 128.18,-68.06 145.78,-72.72"/>
<polygon fill="#63b8ff" stroke="#63b8ff" points="144.42,-75.98 154.98,-75.16 146.21,-69.22 144.42,-75.98"/>
</a>
</g>
</g>
<!-- Node3 -->
<g id="Node000003" class="node">
<title>Node3</title>
<g id="a_Node000003"><a xlink:href="pugixml_8cpp.html#aaf0cb0440cad4fe27233f6482e324e15" target="_top" xlink:title=" ">
<polygon fill="white" stroke="#666666" points="399.38,-77 318.88,-77 318.88,-57 399.38,-57 399.38,-77"/>
<text xml:space="preserve" text-anchor="middle" x="359.12" y="-63.5" font-family="Helvetica,sans-Serif" font-size="10.00">is_little_endian</text>
</a>
</g>
</g>
<!-- Node1&#45;&gt;Node3 -->
<g id="edge5_Node000001_Node000003" class="edge">
<title>Node1&#45;&gt;Node3</title>
<g id="a_edge5_Node000001_Node000003"><a xlink:title=" ">
<path fill="none" stroke="#63b8ff" d="M103.31,-51.16C159.84,-54.67 250.65,-60.32 307.22,-63.84"/>
<polygon fill="#63b8ff" stroke="#63b8ff" points="306.69,-67.31 316.89,-64.44 307.13,-60.32 306.69,-67.31"/>
</a>
</g>
</g>
<!-- Node4 -->
<g id="Node000004" class="node">
<title>Node4</title>
<g id="a_Node000004"><a xlink:href="pugixml_8cpp.html#a8249b94ed556c157dba0e1e6a1299650" target="_top" xlink:title=" ">
<polygon fill="white" stroke="#666666" points="254.75,-20 139,-20 139,0 254.75,0 254.75,-20"/>
<text xml:space="preserve" text-anchor="middle" x="196.88" y="-6.5" font-family="Helvetica,sans-Serif" font-size="10.00">guess_buffer_encoding</text>
</a>
</g>
</g>
<!-- Node1&#45;&gt;Node4 -->
<g id="edge3_Node000001_Node000004" class="edge">
<title>Node1&#45;&gt;Node4</title>
<g id="a_edge3_Node000001_Node000004"><a xlink:title=" ">
<path fill="none" stroke="#63b8ff" d="M92.06,-37.52C108.67,-33.11 128.18,-27.94 145.78,-23.28"/>
<polygon fill="#63b8ff" stroke="#63b8ff" points="146.21,-26.78 154.98,-20.84 144.42,-20.02 146.21,-26.78"/>
</a>
</g>
</g>
<!-- Node2&#45;&gt;Node3 -->
<g id="edge2_Node000002_Node000003" class="edge">
<title>Node2&#45;&gt;Node3</title>
<g id="a_edge2_Node000002_Node000003"><a xlink:title=" ">
<path fill="none" stroke="#63b8ff" d="M249.9,-79.83C268.28,-77.65 288.92,-75.21 307.21,-73.04"/>
<polygon fill="#63b8ff" stroke="#63b8ff" points="307.52,-76.52 317.04,-71.87 306.7,-69.57 307.52,-76.52"/>
</a>
</g>
</g>
<!-- Node5 -->
<g id="Node000005" class="node">
<title>Node5</title>
<g id="a_Node000005"><a xlink:href="pugixml_8cpp.html#a692fbc38a0056dd59dec71d856ba2a49" target="_top" xlink:title=" ">
<polygon fill="white" stroke="#666666" points="427.5,-20 290.75,-20 290.75,0 427.5,0 427.5,-20"/>
<text xml:space="preserve" text-anchor="middle" x="359.12" y="-6.5" font-family="Helvetica,sans-Serif" font-size="10.00">parse_declaration_encoding</text>
</a>
</g>
</g>
<!-- Node4&#45;&gt;Node5 -->
<g id="edge4_Node000004_Node000005" class="edge">
<title>Node4&#45;&gt;Node5</title>
<g id="a_edge4_Node000004_Node000005"><a xlink:title=" ">
<path fill="none" stroke="#63b8ff" d="M254.82,-10C262.65,-10 270.8,-10 278.94,-10"/>
<polygon fill="#63b8ff" stroke="#63b8ff" points="278.88,-13.5 288.88,-10 278.88,-6.5 278.88,-13.5"/>
</a>
</g>
</g>
</g>
</svg>
</svg>

<style type='text/css'>
<![CDATA[
[data-mouse-over-selected='false'] { opacity: 0.7; }
[data-mouse-over-selected='true']  { opacity: 1.0; }
]]>
</style>
<script type="application/ecmascript"><![CDATA[
document.addEventListener('DOMContentLoaded', (event) => {
  highlightEdges();
  highlightAdjacentNodes();
});
]]></script>
</svg>
