<?xml version="1.0" encoding="UTF-8" standalone="no"?>
<!DOCTYPE svg PUBLIC "-//W3C//DTD SVG 1.1//EN"
 "http://www.w3.org/Graphics/SVG/1.1/DTD/svg11.dtd">
<!-- Generated by graphviz version 14.1.2 (20260124.0452)
 -->
<!-- Title: node_output_simple Pages: 1 -->
<svg width="537pt" height="180pt"
 viewBox="0.00 0.00 537.00 180.00" xmlns="http://www.w3.org/2000/svg" xmlns:xlink="http://www.w3.org/1999/xlink">
<g id="graph0" class="graph" transform="scale(1 1) rotate(0) translate(4 176)">
<title>node_output_simple</title>
<!-- Node1 -->
<g id="Node000001" class="node">
<title>Node1</title>
<g id="a_Node000001"><a xlink:title=" ">
<polygon fill="#999999" stroke="#666666" points="103,-96 0,-96 0,-76 103,-76 103,-96"/>
<text xml:space="preserve" text-anchor="middle" x="51.5" y="-82.5" font-family="Helvetica,sans-Serif" font-size="10.00">node_output_simple</text>
</a>
</g>
</g>
<!-- Node2 -->
<g id="Node000002" class="node">
<title>Node2</title>
<g id="a_Node000002"><a xlink:href="pugixml_8cpp.html#a05d1bf3ded0294ee5109cb5cacdc4f99" target="_top" xlink:title=" ">
<polygon fill="white" stroke="#666666" points="254,-134 139,-134 139,-114 254,-114 254,-134"/>
<text xml:space="preserve" text-anchor="middle" x="196.5" y="-120.5" font-family="Helvetica,sans-Serif" font-size="10.00">node_output_attributes</text>
</a>
</g>
</g>
<!-- Node1&#45;&gt;Node2 -->
<g id="edge1_Node000001_Node000002" class="edge">
<title>Node1&#45;&gt;Node2</title>
<g id="a_edge1_Node000001_Node000002"><a xlink:title=" ">
<path fill="none" stroke="#63b8ff" d="M91.95,-96.48C108.52,-100.89 127.98,-106.06 145.54,-110.72"/>
<polygon fill="#63b8ff" stroke="#63b8ff" points="144.15,-113.98 154.71,-113.16 145.95,-107.21 144.15,-113.98"/>
</a>
</g>
</g>
<!-- Node3 -->
<g id="Node000003" class="node">
<title>Node3</title>
<g id="a_Node000003"><a xlink:href="pugixml_8cpp.html#ab350d053c07c3976bb39a151581356fc" target="_top" xlink:title=" ">
<polygon fill="white" stroke="#666666" points="370.5,-172 305.75,-172 305.75,-152 370.5,-152 370.5,-172"/>
<text xml:space="preserve" text-anchor="middle" x="338.12" y="-158.5" font-family="Helvetica,sans-Serif" font-size="10.00">text_output</text>
</a>
</g>
</g>
<!-- Node1&#45;&gt;Node3 -->
<g id="edge7_Node000001_Node000003" class="edge">
<title>Node1&#45;&gt;Node3</title>
<g id="a_edge7_Node000001_Node000003"><a xlink:title=" ">
<path fill="none" stroke="#63b8ff" d="M64.09,-96.36C79.8,-109.74 109.32,-132.53 139,-143 190.16,-161.05 253.09,-164.1 294.11,-163.77"/>
<polygon fill="#63b8ff" stroke="#63b8ff" points="294.13,-167.27 304.07,-163.61 294.01,-160.27 294.13,-167.27"/>
</a>
</g>
</g>
<!-- Node6 -->
<g id="Node000006" class="node">
<title>Node6</title>
<g id="a_Node000006"><a xlink:href="pugixml_8cpp.html#a2cc26a3d1377e49746725ab2044e6a0d" target="_top" xlink:title=" ">
<polygon fill="white" stroke="#666666" points="254,-96 139,-96 139,-76 254,-76 254,-96"/>
<text xml:space="preserve" text-anchor="middle" x="196.5" y="-82.5" font-family="Helvetica,sans-Serif" font-size="10.00">node_output_comment</text>
</a>
</g>
</g>
<!-- Node1&#45;&gt;Node6 -->
<g id="edge5_Node000001_Node000006" class="edge">
<title>Node1&#45;&gt;Node6</title>
<g id="a_edge5_Node000001_Node000006"><a xlink:title=" ">
<path fill="none" stroke="#63b8ff" d="M103.32,-86C111.07,-86 119.17,-86 127.22,-86"/>
<polygon fill="#63b8ff" stroke="#63b8ff" points="127,-89.5 137,-86 127,-82.5 127,-89.5"/>
</a>
</g>
</g>
<!-- Node7 -->
<g id="Node000007" class="node">
<title>Node7</title>
<g id="a_Node000007"><a xlink:href="pugixml_8cpp.html#a36c9ed3414e0605a79a27cf8e711dfa9" target="_top" xlink:title=" ">
<polygon fill="white" stroke="#666666" points="251.75,-58 141.25,-58 141.25,-38 251.75,-38 251.75,-58"/>
<text xml:space="preserve" text-anchor="middle" x="196.5" y="-44.5" font-family="Helvetica,sans-Serif" font-size="10.00">node_output_pi_value</text>
</a>
</g>
</g>
<!-- Node1&#45;&gt;Node7 -->
<g id="edge6_Node000001_Node000007" class="edge">
<title>Node1&#45;&gt;Node7</title>
<g id="a_edge6_Node000001_Node000007"><a xlink:title=" ">
<path fill="none" stroke="#63b8ff" d="M91.95,-75.52C108.52,-71.11 127.98,-65.94 145.54,-61.28"/>
<polygon fill="#63b8ff" stroke="#63b8ff" points="145.95,-64.79 154.71,-58.84 144.15,-58.02 145.95,-64.79"/>
</a>
</g>
</g>
<!-- Node8 -->
<g id="Node000008" class="node">
<title>Node8</title>
<g id="a_Node000008"><a xlink:href="pugixml_8cpp.html#acbd8e4df8e97263b7e756b37cbf301a1" target="_top" xlink:title=" ">
<polygon fill="white" stroke="#666666" points="243.5,-20 149.5,-20 149.5,0 243.5,0 243.5,-20"/>
<text xml:space="preserve" text-anchor="middle" x="196.5" y="-6.5" font-family="Helvetica,sans-Serif" font-size="10.00">text_output_cdata</text>
</a>
</g>
</g>
<!-- Node1&#45;&gt;Node8 -->
<g id="edge8_Node000001_Node000008" class="edge">
<title>Node1&#45;&gt;Node8</title>
<g id="a_edge8_Node000001_Node000008"><a xlink:title=" ">
<path fill="none" stroke="#63b8ff" d="M65.92,-75.56C82.39,-63.14 111.52,-42.4 139,-29 142.26,-27.41 145.68,-25.9 149.16,-24.48"/>
<polygon fill="#63b8ff" stroke="#63b8ff" points="150.16,-27.85 158.26,-21.03 147.67,-21.31 150.16,-27.85"/>
</a>
</g>
</g>
<!-- Node2&#45;&gt;Node3 -->
<g id="edge2_Node000002_Node000003" class="edge">
<title>Node2&#45;&gt;Node3</title>
<g id="a_edge2_Node000002_Node000003"><a xlink:title=" ">
<path fill="none" stroke="#63b8ff" d="M236.02,-134.48C254.16,-139.42 275.84,-145.32 294.47,-150.39"/>
<polygon fill="#63b8ff" stroke="#63b8ff" points="293.29,-153.7 303.86,-152.95 295.13,-146.94 293.29,-153.7"/>
</a>
</g>
</g>
<!-- Node5 -->
<g id="Node000005" class="node">
<title>Node5</title>
<g id="a_Node000005"><a xlink:href="pugixml_8cpp.html#a478905783b7081440dc5076ff42cd1e2" target="_top" xlink:title=" ">
<polygon fill="white" stroke="#666666" points="386.25,-134 290,-134 290,-114 386.25,-114 386.25,-134"/>
<text xml:space="preserve" text-anchor="middle" x="338.12" y="-120.5" font-family="Helvetica,sans-Serif" font-size="10.00">text_output_indent</text>
</a>
</g>
</g>
<!-- Node2&#45;&gt;Node5 -->
<g id="edge4_Node000002_Node000005" class="edge">
<title>Node2&#45;&gt;Node5</title>
<g id="a_edge4_Node000002_Node000005"><a xlink:title=" ">
<path fill="none" stroke="#63b8ff" d="M254.29,-124C262.2,-124 270.35,-124 278.3,-124"/>
<polygon fill="#63b8ff" stroke="#63b8ff" points="278.24,-127.5 288.24,-124 278.24,-120.5 278.24,-127.5"/>
</a>
</g>
</g>
<!-- Node4 -->
<g id="Node000004" class="node">
<title>Node4</title>
<g id="a_Node000004"><a xlink:href="pugixml_8cpp.html#ab87511166fc7a13ed9e2d85dcb73670a" target="_top" xlink:title=" ">
<polygon fill="white" stroke="#666666" points="529,-172 422.25,-172 422.25,-152 529,-152 529,-172"/>
<text xml:space="preserve" text-anchor="middle" x="475.62" y="-158.5" font-family="Helvetica,sans-Serif" font-size="10.00">text_output_escaped</text>
</a>
</g>
</g>
<!-- Node3&#45;&gt;Node4 -->
<g id="edge3_Node000003_Node000004" class="edge">
<title>Node3&#45;&gt;Node4</title>
<g id="a_edge3_Node000003_Node000004"><a xlink:title=" ">
<path fill="none" stroke="#63b8ff" d="M370.89,-162C382.75,-162 396.68,-162 410.41,-162"/>
<polygon fill="#63b8ff" stroke="#63b8ff" points="410.33,-165.5 420.33,-162 410.33,-158.5 410.33,-165.5"/>
</a>
</g>
</g>
</g>
</svg>
