<?xml version="1.0" encoding="UTF-8" standalone="no"?>
<!DOCTYPE svg PUBLIC "-//W3C//DTD SVG 1.1//EN"
 "http://www.w3.org/Graphics/SVG/1.1/DTD/svg11.dtd">
<!-- Generated by graphviz version 14.1.2 (20260124.0452)
 -->
<!-- Title: strlength Pages: 1 -->
<svg width="1910pt" height="498pt"
 viewBox="0.00 0.00 1910.00 498.00" xmlns="http://www.w3.org/2000/svg" xmlns:xlink="http://www.w3.org/1999/xlink">
<g id="graph0" class="graph" transform="scale(1 1) rotate(0) translate(4 494.23)">
<title>strlength</title>
<!-- Node1 -->
<g id="Node000001" class="node">
<title>Node1</title>
<g id="a_Node000001"><a xlink:title=" ">
<polygon fill="#999999" stroke="#666666" points="1902.25,-165 1848.75,-165 1848.75,-145 1902.25,-145 1902.25,-165"/>
<text xml:space="preserve" text-anchor="middle" x="1875.5" y="-151.5" font-family="Helvetica,sans-Serif" font-size="10.00">strlength</text>
</a>
</g>
</g>
<!-- Node2 -->
<g id="Node000002" class="node">
<title>Node2</title>
<g id="a_Node000002"><a xlink:href="classxpath__string.html#abe89ae1270e25022aa8ccc332f5afbb3" target="_top" xlink:title=" ">
<polygon fill="white" stroke="#666666" points="1510.75,-269 1416.75,-269 1416.75,-249 1510.75,-249 1510.75,-269"/>
<text xml:space="preserve" text-anchor="middle" x="1463.75" y="-255.5" font-family="Helvetica,sans-Serif" font-size="10.00">xpath_string::data</text>
</a>
</g>
</g>
<!-- Node1&#45;&gt;Node2 -->
<g id="edge1_Node000001_Node000002" class="edge">
<title>Node1&#45;&gt;Node2</title>
<g id="a_edge1_Node000001_Node000002"><a xlink:title=" ">
<path fill="none" stroke="#63b8ff" d="M1864.11,-175.47C1853.76,-193.5 1836.05,-218.74 1812.75,-231 1761.59,-257.92 1593.46,-260.27 1511.08,-259.72"/>
<polygon fill="#63b8ff" stroke="#63b8ff" points="1867.18,-177.15 1868.87,-166.69 1861.03,-173.82 1867.18,-177.15"/>
</a>
</g>
</g>
<!-- Node14 -->
<g id="Node000014" class="node">
<title>Node14</title>
<g id="a_Node000014"><a xlink:href="classxpath__string.html#a8469bd7512df66adabd3f5144c4b2ef7" target="_top" xlink:title=" ">
<polygon fill="white" stroke="#666666" points="1805.62,-367 1704.12,-367 1704.12,-347 1805.62,-347 1805.62,-367"/>
<text xml:space="preserve" text-anchor="middle" x="1754.88" y="-353.5" font-family="Helvetica,sans-Serif" font-size="10.00">xpath_string::length</text>
</a>
</g>
</g>
<!-- Node1&#45;&gt;Node14 -->
<g id="edge28_Node000001_Node000014" class="edge">
<title>Node1&#45;&gt;Node14</title>
<g id="a_edge28_Node000001_Node000014"><a xlink:title=" ">
<path fill="none" stroke="#63b8ff" d="M1863.37,-175.1C1851.16,-197.06 1830.88,-233.22 1812.75,-264 1794.89,-294.33 1772.96,-329.68 1762.3,-346.75"/>
<polygon fill="#63b8ff" stroke="#63b8ff" points="1866.3,-177.05 1868.09,-166.61 1860.18,-173.65 1866.3,-177.05"/>
</a>
</g>
</g>
<!-- Node18 -->
<g id="Node000018" class="node">
<title>Node18</title>
<g id="a_Node000018"><a xlink:href="pugixml_8cpp.html#a9502729d765bda5dd6af5eed18ab5c40" target="_top" xlink:title=" ">
<polygon fill="white" stroke="#666666" points="1806,-222 1703.75,-222 1703.75,-202 1806,-202 1806,-222"/>
<text xml:space="preserve" text-anchor="middle" x="1754.88" y="-208.5" font-family="Helvetica,sans-Serif" font-size="10.00">new_xpath_variable</text>
</a>
</g>
</g>
<!-- Node1&#45;&gt;Node18 -->
<g id="edge41_Node000001_Node000018" class="edge">
<title>Node1&#45;&gt;Node18</title>
<g id="a_edge41_Node000001_Node000018"><a xlink:title=" ">
<path fill="none" stroke="#63b8ff" d="M1846.26,-170.79C1835.84,-176.43 1823.86,-182.7 1812.75,-188 1802.88,-192.71 1791.85,-197.47 1782.15,-201.5"/>
<polygon fill="#63b8ff" stroke="#63b8ff" points="1847.66,-174.01 1854.75,-166.14 1844.3,-167.87 1847.66,-174.01"/>
</a>
</g>
</g>
<!-- Node20 -->
<g id="Node000020" class="node">
<title>Node20</title>
<g id="a_Node000020"><a xlink:href="pugixml_8cpp.html#aee4bcdb425d825a33564649ece0a4b31" target="_top" xlink:title=" ">
<polygon fill="white" stroke="#666666" points="1510,-184 1417.5,-184 1417.5,-164 1510,-164 1510,-184"/>
<text xml:space="preserve" text-anchor="middle" x="1463.75" y="-170.5" font-family="Helvetica,sans-Serif" font-size="10.00">node_copy_string</text>
</a>
</g>
</g>
<!-- Node1&#45;&gt;Node20 -->
<g id="edge43_Node000001_Node000020" class="edge">
<title>Node1&#45;&gt;Node20</title>
<g id="a_edge43_Node000001_Node000020"><a xlink:title=" ">
<path fill="none" stroke="#63b8ff" d="M1837.33,-156.72C1762.12,-160.21 1592.14,-168.09 1510.37,-171.88"/>
<polygon fill="#63b8ff" stroke="#63b8ff" points="1837.22,-160.23 1847.05,-156.27 1836.89,-153.24 1837.22,-160.23"/>
</a>
</g>
</g>
<!-- Node24 -->
<g id="Node000024" class="node">
<title>Node24</title>
<g id="a_Node000024"><a xlink:href="pugixml_8cpp.html#a07c6c1e786c5022d046058c4e7ef3946" target="_top" xlink:title=" ">
<polygon fill="white" stroke="#666666" points="1789.5,-108 1720.25,-108 1720.25,-88 1789.5,-88 1789.5,-108"/>
<text xml:space="preserve" text-anchor="middle" x="1754.88" y="-94.5" font-family="Helvetica,sans-Serif" font-size="10.00">node_output</text>
</a>
</g>
</g>
<!-- Node1&#45;&gt;Node24 -->
<g id="edge47_Node000001_Node000024" class="edge">
<title>Node1&#45;&gt;Node24</title>
<g id="a_edge47_Node000001_Node000024"><a xlink:title=" ">
<path fill="none" stroke="#63b8ff" d="M1850.38,-138.37C1839.25,-131.17 1825.67,-123.04 1812.75,-117 1805.49,-113.61 1797.45,-110.54 1789.76,-107.9"/>
<polygon fill="#63b8ff" stroke="#63b8ff" points="1848.28,-141.18 1858.55,-143.79 1852.15,-135.35 1848.28,-141.18"/>
</a>
</g>
</g>
<!-- Node25 -->
<g id="Node000025" class="node">
<title>Node25</title>
<g id="a_Node000025"><a xlink:href="structxml__parser.html#a35bac90f1975aa1a9d5de4b60b761f16" target="_top" xlink:title=" ">
<polygon fill="white" stroke="#666666" points="1812.75,-70 1697,-70 1697,-50 1812.75,-50 1812.75,-70"/>
<text xml:space="preserve" text-anchor="middle" x="1754.88" y="-56.5" font-family="Helvetica,sans-Serif" font-size="10.00">xml_parser::parse_tree</text>
</a>
</g>
</g>
<!-- Node1&#45;&gt;Node25 -->
<g id="edge48_Node000001_Node000025" class="edge">
<title>Node1&#45;&gt;Node25</title>
<g id="a_edge48_Node000001_Node000025"><a xlink:title=" ">
<path fill="none" stroke="#63b8ff" d="M1862.81,-134.97C1851.87,-117.86 1834.05,-93.74 1812.75,-79 1807.87,-75.62 1802.34,-72.81 1796.7,-70.47"/>
<polygon fill="#63b8ff" stroke="#63b8ff" points="1859.69,-136.59 1867.91,-143.28 1865.66,-132.93 1859.69,-136.59"/>
</a>
</g>
</g>
<!-- Node27 -->
<g id="Node000027" class="node">
<title>Node27</title>
<g id="a_Node000027"><a xlink:href="pugixml_8cpp.html#afeaebb026671399f617b36e27fa92234" target="_top" xlink:title=" ">
<polygon fill="white" stroke="#666666" points="1804.5,-146 1705.25,-146 1705.25,-126 1804.5,-126 1804.5,-146"/>
<text xml:space="preserve" text-anchor="middle" x="1754.88" y="-132.5" font-family="Helvetica,sans-Serif" font-size="10.00">strcpy_insitu_allow</text>
</a>
</g>
</g>
<!-- Node1&#45;&gt;Node27 -->
<g id="edge50_Node000001_Node000027" class="edge">
<title>Node1&#45;&gt;Node27</title>
<g id="a_edge50_Node000001_Node000027"><a xlink:title=" ">
<path fill="none" stroke="#63b8ff" d="M1837.34,-149.05C1827.02,-147.4 1815.66,-145.58 1804.78,-143.83"/>
<polygon fill="#63b8ff" stroke="#63b8ff" points="1836.55,-152.47 1846.97,-150.59 1837.65,-145.55 1836.55,-152.47"/>
</a>
</g>
</g>
<!-- Node34 -->
<g id="Node000034" class="node">
<title>Node34</title>
<g id="a_Node000034"><a xlink:href="classxml__buffered__writer.html#a1699556c38e942f7c1db1b98ddf15642" target="_top" xlink:title=" ">
<polygon fill="white" stroke="#666666" points="1805.25,-32 1704.5,-32 1704.5,0 1805.25,0 1805.25,-32"/>
<text xml:space="preserve" text-anchor="start" x="1712.5" y="-18.5" font-family="Helvetica,sans-Serif" font-size="10.00">xml_buffered_writer</text>
<text xml:space="preserve" text-anchor="middle" x="1754.88" y="-6.5" font-family="Helvetica,sans-Serif" font-size="10.00">::write_string</text>
</a>
</g>
</g>
<!-- Node1&#45;&gt;Node34 -->
<g id="edge58_Node000001_Node000034" class="edge">
<title>Node1&#45;&gt;Node34</title>
<g id="a_edge58_Node000001_Node000034"><a xlink:title=" ">
<path fill="none" stroke="#63b8ff" d="M1867.83,-133.89C1858.92,-108.76 1840.92,-66.95 1812.75,-41 1809.26,-37.79 1805.29,-34.94 1801.1,-32.42"/>
<polygon fill="#63b8ff" stroke="#63b8ff" points="1864.49,-134.95 1870.99,-143.31 1871.13,-132.72 1864.49,-134.95"/>
</a>
</g>
</g>
<!-- Node3 -->
<g id="Node000003" class="node">
<title>Node3</title>
<g id="a_Node000003"><a xlink:href="classxpath__ast__node.html#a6b675237a590548b68d0e0b97518b6df" target="_top" xlink:title=" ">
<polygon fill="white" stroke="#666666" points="1223.75,-311 1114.75,-311 1114.75,-279 1223.75,-279 1223.75,-311"/>
<text xml:space="preserve" text-anchor="start" x="1122.75" y="-297.5" font-family="Helvetica,sans-Serif" font-size="10.00">xpath_ast_node::eval</text>
<text xml:space="preserve" text-anchor="middle" x="1169.25" y="-285.5" font-family="Helvetica,sans-Serif" font-size="10.00">_string</text>
</a>
</g>
</g>
<!-- Node2&#45;&gt;Node3 -->
<g id="edge2_Node000002_Node000003" class="edge">
<title>Node2&#45;&gt;Node3</title>
<g id="a_edge2_Node000002_Node000003"><a xlink:title=" ">
<path fill="none" stroke="#63b8ff" d="M1405.31,-262.92C1364.57,-266.06 1308.66,-271.08 1259.75,-278 1248.16,-279.64 1235.79,-281.75 1224.07,-283.93"/>
<polygon fill="#63b8ff" stroke="#63b8ff" points="1405.43,-266.42 1415.14,-262.18 1404.91,-259.44 1405.43,-266.42"/>
</a>
</g>
</g>
<!-- Node13 -->
<g id="Node000013" class="node">
<title>Node13</title>
<g id="a_Node000013"><a xlink:href="classxpath__string.html#aaf1229b7a7ae918b41bf995df16c8896" target="_top" xlink:title=" ">
<polygon fill="white" stroke="#666666" points="1380.75,-307 1259.75,-307 1259.75,-287 1380.75,-287 1380.75,-307"/>
<text xml:space="preserve" text-anchor="middle" x="1320.25" y="-293.5" font-family="Helvetica,sans-Serif" font-size="10.00">xpath_string::from_heap</text>
</a>
</g>
</g>
<!-- Node2&#45;&gt;Node13 -->
<g id="edge26_Node000002_Node000013" class="edge">
<title>Node2&#45;&gt;Node13</title>
<g id="a_edge26_Node000002_Node000013"><a xlink:title=" ">
<path fill="none" stroke="#63b8ff" d="M1412.68,-272.45C1395.43,-277.08 1376.39,-282.19 1360.16,-286.55"/>
<polygon fill="#63b8ff" stroke="#63b8ff" points="1413.5,-275.85 1422.25,-269.88 1411.68,-269.09 1413.5,-275.85"/>
</a>
</g>
</g>
<!-- Node4 -->
<g id="Node000004" class="node">
<title>Node4</title>
<g id="a_Node000004"><a xlink:href="classxpath__ast__node.html#a98dd7f6e67fe2c56c63056eed835d6a4" target="_top" xlink:title=" ">
<polygon fill="white" stroke="#666666" points="1078.75,-299 934.5,-299 934.5,-279 1078.75,-279 1078.75,-299"/>
<text xml:space="preserve" text-anchor="middle" x="1006.62" y="-285.5" font-family="Helvetica,sans-Serif" font-size="10.00">xpath_ast_node::compare_eq</text>
</a>
</g>
</g>
<!-- Node3&#45;&gt;Node4 -->
<g id="edge3_Node000003_Node000004" class="edge">
<title>Node3&#45;&gt;Node4</title>
<g id="a_edge3_Node000003_Node000004"><a xlink:title=" ">
<path fill="none" stroke="#63b8ff" d="M1102.98,-292.56C1095.11,-292.27 1087.05,-291.97 1079.1,-291.67"/>
<polygon fill="#63b8ff" stroke="#63b8ff" points="1102.68,-296.05 1112.8,-292.93 1102.94,-289.06 1102.68,-296.05"/>
</a>
</g>
</g>
<!-- Node5 -->
<g id="Node000005" class="node">
<title>Node5</title>
<g id="a_Node000005"><a xlink:href="classxpath__ast__node.html#ab7f965a92023bc2704b8e6fd9f3d7c14" target="_top" xlink:title=" ">
<polygon fill="white" stroke="#666666" points="898.5,-254 789.5,-254 789.5,-222 898.5,-222 898.5,-254"/>
<text xml:space="preserve" text-anchor="start" x="797.5" y="-240.5" font-family="Helvetica,sans-Serif" font-size="10.00">xpath_ast_node::eval</text>
<text xml:space="preserve" text-anchor="middle" x="844" y="-228.5" font-family="Helvetica,sans-Serif" font-size="10.00">_boolean</text>
</a>
</g>
</g>
<!-- Node3&#45;&gt;Node5 -->
<g id="edge24_Node000003_Node000005" class="edge">
<title>Node3&#45;&gt;Node5</title>
<g id="a_edge24_Node000003_Node000005"><a xlink:title=" ">
<path fill="none" stroke="#63b8ff" d="M1130.23,-274.82C1114.43,-269.54 1095.82,-264.54 1078.75,-261 1017.58,-248.33 946.34,-239.4 898.73,-236.15"/>
<polygon fill="#63b8ff" stroke="#63b8ff" points="1128.65,-277.98 1139.24,-278 1130.98,-271.37 1128.65,-277.98"/>
</a>
</g>
</g>
<!-- Node10 -->
<g id="Node000010" class="node">
<title>Node10</title>
<g id="a_Node000010"><a xlink:href="classxpath__ast__node.html#a92dd7048e28d486bc7f382d1fc6f1de6" target="_top" xlink:title=" ">
<polygon fill="white" stroke="#666666" points="750.88,-383 641.88,-383 641.88,-351 750.88,-351 750.88,-383"/>
<text xml:space="preserve" text-anchor="start" x="649.88" y="-369.5" font-family="Helvetica,sans-Serif" font-size="10.00">xpath_ast_node::eval</text>
<text xml:space="preserve" text-anchor="middle" x="696.38" y="-357.5" font-family="Helvetica,sans-Serif" font-size="10.00">_number</text>
</a>
</g>
</g>
<!-- Node3&#45;&gt;Node10 -->
<g id="edge25_Node000003_Node000010" class="edge">
<title>Node3&#45;&gt;Node10</title>
<g id="a_edge25_Node000003_Node000010"><a xlink:title=" ">
<path fill="none" stroke="#63b8ff" d="M1103.17,-300.44C1048.64,-309.01 968.67,-323.58 898.5,-334 848.76,-341.39 791.83,-348.01 751.27,-353.99"/>
<polygon fill="#63b8ff" stroke="#63b8ff" points="1103.56,-303.92 1112.91,-298.94 1102.49,-297 1103.56,-303.92"/>
</a>
</g>
</g>
<!-- Node4&#45;&gt;Node5 -->
<g id="edge4_Node000004_Node000005" class="edge">
<title>Node4&#45;&gt;Node5</title>
<g id="a_edge4_Node000004_Node000005"><a xlink:title=" ">
<path fill="none" stroke="#63b8ff" d="M976.44,-274.39C954.87,-266.15 924.88,-256.27 898.99,-248.73"/>
<polygon fill="#63b8ff" stroke="#63b8ff" points="974.89,-277.54 985.48,-277.97 977.47,-271.03 974.89,-277.54"/>
</a>
</g>
</g>
<!-- Node5&#45;&gt;Node3 -->
<g id="edge23_Node000005_Node000003" class="edge">
<title>Node5&#45;&gt;Node3</title>
<g id="a_edge23_Node000005_Node000003"><a xlink:title=" ">
<path fill="none" stroke="#63b8ff" d="M910.01,-251.99C957.14,-258.78 1022.24,-267.3 1078.75,-279 1090.44,-281.42 1102.85,-284.53 1114.59,-287.51"/>
<polygon fill="#63b8ff" stroke="#63b8ff" points="910.63,-248.55 900.23,-250.57 909.62,-255.47 910.63,-248.55"/>
</a>
</g>
</g>
<!-- Node5&#45;&gt;Node4 -->
<g id="edge13_Node000005_Node000004" class="edge">
<title>Node5&#45;&gt;Node4</title>
<g id="a_edge13_Node000005_Node000004"><a xlink:title=" ">
<path fill="none" stroke="#63b8ff" d="M889.55,-258.26C909.09,-265.21 932.17,-272.63 952.59,-278.55"/>
<polygon fill="#63b8ff" stroke="#63b8ff" points="890.82,-255 880.23,-254.87 888.43,-261.58 890.82,-255"/>
</a>
</g>
</g>
<!-- Node6 -->
<g id="Node000006" class="node">
<title>Node6</title>
<g id="a_Node000006"><a xlink:href="classxpath__ast__node.html#ab4e5bbd3f2e83c86a43349374b4bfc22" target="_top" xlink:title=" ">
<polygon fill="white" stroke="#666666" points="753.5,-254 639.25,-254 639.25,-222 753.5,-222 753.5,-254"/>
<text xml:space="preserve" text-anchor="start" x="647.25" y="-240.5" font-family="Helvetica,sans-Serif" font-size="10.00">xpath_ast_node::apply</text>
<text xml:space="preserve" text-anchor="middle" x="696.38" y="-228.5" font-family="Helvetica,sans-Serif" font-size="10.00">_predicate_boolean</text>
</a>
</g>
</g>
<!-- Node5&#45;&gt;Node6 -->
<g id="edge5_Node000005_Node000006" class="edge">
<title>Node5&#45;&gt;Node6</title>
<g id="a_edge5_Node000005_Node000006"><a xlink:title=" ">
<path fill="none" stroke="#63b8ff" d="M777.69,-238C769.75,-238 761.69,-238 753.89,-238"/>
<polygon fill="#63b8ff" stroke="#63b8ff" points="777.67,-241.5 787.67,-238 777.67,-234.5 777.67,-241.5"/>
</a>
</g>
</g>
<!-- Node5&#45;&gt;Node10 -->
<g id="edge14_Node000005_Node000010" class="edge">
<title>Node5&#45;&gt;Node10</title>
<g id="a_edge14_Node000005_Node000010"><a xlink:title=" ">
<path fill="none" stroke="#63b8ff" d="M809.86,-261.59C778.75,-287.43 733.75,-327.82 711.26,-350.53"/>
<polygon fill="#63b8ff" stroke="#63b8ff" points="811.94,-264.41 817.46,-255.36 807.5,-259 811.94,-264.41"/>
</a>
</g>
</g>
<!-- Node7 -->
<g id="Node000007" class="node">
<title>Node7</title>
<g id="a_Node000007"><a xlink:href="classxpath__ast__node.html#a7e35f265c9e0712a16e1d8a9db4c7672" target="_top" xlink:title=" ">
<polygon fill="white" stroke="#666666" points="439.5,-334 325.25,-334 325.25,-302 439.5,-302 439.5,-334"/>
<text xml:space="preserve" text-anchor="start" x="333.25" y="-320.5" font-family="Helvetica,sans-Serif" font-size="10.00">xpath_ast_node::apply</text>
<text xml:space="preserve" text-anchor="middle" x="382.38" y="-308.5" font-family="Helvetica,sans-Serif" font-size="10.00">_predicate</text>
</a>
</g>
</g>
<!-- Node6&#45;&gt;Node7 -->
<g id="edge6_Node000006_Node000007" class="edge">
<title>Node6&#45;&gt;Node7</title>
<g id="a_edge6_Node000006_Node000007"><a xlink:title=" ">
<path fill="none" stroke="#63b8ff" d="M627.97,-255.28C571.86,-269.67 492.86,-289.93 439.98,-303.49"/>
<polygon fill="#63b8ff" stroke="#63b8ff" points="628.59,-258.74 637.41,-252.86 626.85,-251.96 628.59,-258.74"/>
</a>
</g>
</g>
<!-- Node8 -->
<g id="Node000008" class="node">
<title>Node8</title>
<g id="a_Node000008"><a xlink:href="classxpath__ast__node.html#a68cace396dd4eeae67ecfcd34a3a8285" target="_top" xlink:title=" ">
<polygon fill="white" stroke="#666666" points="289.25,-271 180.25,-271 180.25,-239 289.25,-239 289.25,-271"/>
<text xml:space="preserve" text-anchor="start" x="188.25" y="-257.5" font-family="Helvetica,sans-Serif" font-size="10.00">xpath_ast_node::eval</text>
<text xml:space="preserve" text-anchor="middle" x="234.75" y="-245.5" font-family="Helvetica,sans-Serif" font-size="10.00">_node_set</text>
</a>
</g>
</g>
<!-- Node7&#45;&gt;Node8 -->
<g id="edge7_Node000007_Node000008" class="edge">
<title>Node7&#45;&gt;Node8</title>
<g id="a_edge7_Node000007_Node000008"><a xlink:title=" ">
<path fill="none" stroke="#63b8ff" d="M333.07,-297.1C313.76,-288.75 291.83,-279.26 273.69,-271.42"/>
<polygon fill="#63b8ff" stroke="#63b8ff" points="331.54,-300.25 342.1,-301.01 334.32,-293.83 331.54,-300.25"/>
</a>
</g>
</g>
<!-- Node8&#45;&gt;Node3 -->
<g id="edge12_Node000008_Node000003" class="edge">
<title>Node8&#45;&gt;Node3</title>
<g id="a_edge12_Node000008_Node000003"><a xlink:title=" ">
<path fill="none" stroke="#63b8ff" d="M277.44,-233.67C356.67,-195.16 535.4,-118 695.38,-118 845,-118 845,-118 845,-118 978.08,-118 1108.3,-234.85 1152.45,-278.67"/>
<polygon fill="#63b8ff" stroke="#63b8ff" points="276.17,-230.39 268.74,-237.94 279.25,-236.68 276.17,-230.39"/>
</a>
</g>
</g>
<!-- Node8&#45;&gt;Node4 -->
<g id="edge8_Node000008_Node000004" class="edge">
<title>Node8&#45;&gt;Node4</title>
<g id="a_edge8_Node000008_Node000004"><a xlink:title=" ">
<path fill="none" stroke="#63b8ff" d="M300.86,-257.88C444.07,-264.2 785.43,-279.28 934.23,-285.85"/>
<polygon fill="#63b8ff" stroke="#63b8ff" points="301.33,-254.39 291.18,-257.45 301.02,-261.39 301.33,-254.39"/>
</a>
</g>
</g>
<!-- Node8&#45;&gt;Node5 -->
<g id="edge11_Node000008_Node000005" class="edge">
<title>Node8&#45;&gt;Node5</title>
<g id="a_edge11_Node000008_Node000005"><a xlink:title=" ">
<path fill="none" stroke="#63b8ff" d="M300.86,-240.69C399.24,-221.12 591.49,-190.8 753.5,-213 766.61,-214.8 780.5,-218.01 793.33,-221.54"/>
<polygon fill="#63b8ff" stroke="#63b8ff" points="300.22,-237.25 291.11,-242.67 301.61,-244.12 300.22,-237.25"/>
</a>
</g>
</g>
<!-- Node9 -->
<g id="Node000009" class="node">
<title>Node9</title>
<g id="a_Node000009"><a xlink:href="classxpath__ast__node.html#abb6e4c529276eaf882233dbb6e04e111" target="_top" xlink:title=" ">
<polygon fill="white" stroke="#666666" points="144.25,-353 0,-353 0,-333 144.25,-333 144.25,-353"/>
<text xml:space="preserve" text-anchor="middle" x="72.12" y="-339.5" font-family="Helvetica,sans-Serif" font-size="10.00">xpath_ast_node::compare_rel</text>
</a>
</g>
</g>
<!-- Node8&#45;&gt;Node9 -->
<g id="edge9_Node000008_Node000009" class="edge">
<title>Node8&#45;&gt;Node9</title>
<g id="a_edge9_Node000008_Node000009"><a xlink:title=" ">
<path fill="none" stroke="#63b8ff" d="M193.85,-276.86C161.44,-294.61 117.16,-318.87 92.23,-332.54"/>
<polygon fill="#63b8ff" stroke="#63b8ff" points="195.5,-279.95 202.59,-272.07 192.13,-273.81 195.5,-279.95"/>
</a>
</g>
</g>
<!-- Node9&#45;&gt;Node5 -->
<g id="edge10_Node000009_Node000005" class="edge">
<title>Node9&#45;&gt;Node5</title>
<g id="a_edge10_Node000009_Node000005"><a xlink:title=" ">
<path fill="none" stroke="#63b8ff" d="M85.3,-323.2C102.72,-296.84 137.43,-251.09 180.25,-230 363.63,-139.7 434.84,-201.62 639.25,-201 690.03,-200.84 703.69,-191.11 753.5,-201 773.78,-205.03 795.24,-213.73 812.05,-221.68"/>
<polygon fill="#63b8ff" stroke="#63b8ff" points="82.56,-320.99 80.11,-331.3 88.45,-324.76 82.56,-320.99"/>
</a>
</g>
</g>
<!-- Node10&#45;&gt;Node3 -->
<g id="edge22_Node000010_Node000003" class="edge">
<title>Node10&#45;&gt;Node3</title>
<g id="a_edge22_Node000010_Node000003"><a xlink:title=" ">
<path fill="none" stroke="#63b8ff" d="M762.58,-367.99C802,-364.81 853.23,-358.72 898.5,-352 975.43,-340.58 1064.12,-324.16 1118.18,-311.45"/>
<polygon fill="#63b8ff" stroke="#63b8ff" points="762.48,-364.49 752.78,-368.73 763.01,-371.47 762.48,-364.49"/>
</a>
</g>
</g>
<!-- Node10&#45;&gt;Node4 -->
<g id="edge19_Node000010_Node000004" class="edge">
<title>Node10&#45;&gt;Node4</title>
<g id="a_edge19_Node000010_Node000004"><a xlink:title=" ">
<path fill="none" stroke="#63b8ff" d="M762.37,-350.55C823.33,-335.13 912.64,-312.53 964.37,-299.44"/>
<polygon fill="#63b8ff" stroke="#63b8ff" points="761.64,-347.13 752.8,-352.97 763.36,-353.91 761.64,-347.13"/>
</a>
</g>
</g>
<!-- Node10&#45;&gt;Node5 -->
<g id="edge21_Node000010_Node000005" class="edge">
<title>Node10&#45;&gt;Node5</title>
<g id="a_edge21_Node000010_Node000005"><a xlink:title=" ">
<path fill="none" stroke="#63b8ff" d="M730.52,-343.41C761.71,-317.5 806.87,-276.95 829.3,-254.28"/>
<polygon fill="#63b8ff" stroke="#63b8ff" points="728.41,-340.61 722.9,-349.66 732.85,-346.02 728.41,-340.61"/>
</a>
</g>
</g>
<!-- Node10&#45;&gt;Node9 -->
<g id="edge20_Node000010_Node000009" class="edge">
<title>Node10&#45;&gt;Node9</title>
<g id="a_edge20_Node000010_Node000009"><a xlink:title=" ">
<path fill="none" stroke="#63b8ff" d="M660.16,-388.89C643.55,-397.96 623.07,-407.42 603.25,-412 414.03,-455.74 179.96,-381.88 100.77,-353.44"/>
<polygon fill="#63b8ff" stroke="#63b8ff" points="661.66,-392.06 668.64,-384.09 658.21,-385.97 661.66,-392.06"/>
</a>
</g>
</g>
<!-- Node11 -->
<g id="Node000011" class="node">
<title>Node11</title>
<g id="a_Node000011"><a xlink:href="classxpath__ast__node.html#abf2d4b745493f63aebc1c89d9fde8eed" target="_top" xlink:title=" ">
<polygon fill="white" stroke="#666666" points="596.5,-353 482.25,-353 482.25,-321 596.5,-321 596.5,-353"/>
<text xml:space="preserve" text-anchor="start" x="490.25" y="-339.5" font-family="Helvetica,sans-Serif" font-size="10.00">xpath_ast_node::apply</text>
<text xml:space="preserve" text-anchor="middle" x="539.38" y="-327.5" font-family="Helvetica,sans-Serif" font-size="10.00">_predicate_number</text>
</a>
</g>
</g>
<!-- Node10&#45;&gt;Node11 -->
<g id="edge15_Node000010_Node000011" class="edge">
<title>Node10&#45;&gt;Node11</title>
<g id="a_edge15_Node000010_Node000011"><a xlink:title=" ">
<path fill="none" stroke="#63b8ff" d="M630.59,-354.46C619.42,-352.3 607.89,-350.07 596.96,-347.95"/>
<polygon fill="#63b8ff" stroke="#63b8ff" points="629.63,-357.84 640.11,-356.3 630.96,-350.97 629.63,-357.84"/>
</a>
</g>
</g>
<!-- Node12 -->
<g id="Node000012" class="node">
<title>Node12</title>
<g id="a_Node000012"><a xlink:href="classxpath__ast__node.html#a8cedd7e15623b9fa431788b8843f1463" target="_top" xlink:title=" ">
<polygon fill="white" stroke="#666666" points="603.25,-403 475.5,-403 475.5,-371 603.25,-371 603.25,-403"/>
<text xml:space="preserve" text-anchor="start" x="483.5" y="-389.5" font-family="Helvetica,sans-Serif" font-size="10.00">xpath_ast_node::apply</text>
<text xml:space="preserve" text-anchor="middle" x="539.38" y="-377.5" font-family="Helvetica,sans-Serif" font-size="10.00">_predicate_number_const</text>
</a>
</g>
</g>
<!-- Node10&#45;&gt;Node12 -->
<g id="edge17_Node000010_Node000012" class="edge">
<title>Node10&#45;&gt;Node12</title>
<g id="a_edge17_Node000010_Node000012"><a xlink:title=" ">
<path fill="none" stroke="#63b8ff" d="M630.21,-375.41C621.41,-376.54 612.4,-377.71 603.65,-378.84"/>
<polygon fill="#63b8ff" stroke="#63b8ff" points="630.63,-378.88 640.1,-374.13 629.73,-371.94 630.63,-378.88"/>
</a>
</g>
</g>
<!-- Node11&#45;&gt;Node7 -->
<g id="edge16_Node000011_Node000007" class="edge">
<title>Node11&#45;&gt;Node7</title>
<g id="a_edge16_Node000011_Node000007"><a xlink:title=" ">
<path fill="none" stroke="#63b8ff" d="M470.58,-328.69C460.37,-327.44 449.93,-326.16 439.99,-324.94"/>
<polygon fill="#63b8ff" stroke="#63b8ff" points="470.12,-332.16 480.48,-329.9 470.98,-325.21 470.12,-332.16"/>
</a>
</g>
</g>
<!-- Node12&#45;&gt;Node7 -->
<g id="edge18_Node000012_Node000007" class="edge">
<title>Node12&#45;&gt;Node7</title>
<g id="a_edge18_Node000012_Node000007"><a xlink:title=" ">
<path fill="none" stroke="#63b8ff" d="M485.61,-366.32C482.18,-364.88 478.78,-363.43 475.5,-362 455.69,-353.34 433.83,-342.94 416.39,-334.43"/>
<polygon fill="#63b8ff" stroke="#63b8ff" points="483.96,-369.43 494.54,-370 486.63,-362.95 483.96,-369.43"/>
</a>
</g>
</g>
<!-- Node13&#45;&gt;Node3 -->
<g id="edge27_Node000013_Node000003" class="edge">
<title>Node13&#45;&gt;Node3</title>
<g id="a_edge27_Node000013_Node000003"><a xlink:title=" ">
<path fill="none" stroke="#63b8ff" d="M1248.19,-296.05C1240.13,-295.94 1232.01,-295.83 1224.23,-295.72"/>
<polygon fill="#63b8ff" stroke="#63b8ff" points="1247.95,-299.54 1257.99,-296.18 1248.04,-292.54 1247.95,-299.54"/>
</a>
</g>
</g>
<!-- Node14&#45;&gt;Node3 -->
<g id="edge39_Node000014_Node000003" class="edge">
<title>Node14&#45;&gt;Node3</title>
<g id="a_edge39_Node000014_Node000003"><a xlink:title=" ">
<path fill="none" stroke="#63b8ff" d="M1692.5,-356.28C1651.24,-355.46 1595.67,-353.72 1546.75,-350 1418.67,-340.27 1386.25,-338.26 1259.75,-316 1248.12,-313.95 1235.73,-311.33 1224,-308.65"/>
<polygon fill="#63b8ff" stroke="#63b8ff" points="1692.43,-359.78 1702.49,-356.46 1692.56,-352.78 1692.43,-359.78"/>
</a>
</g>
</g>
<!-- Node14&#45;&gt;Node10 -->
<g id="edge38_Node000014_Node000010" class="edge">
<title>Node14&#45;&gt;Node10</title>
<g id="a_edge38_Node000014_Node000010"><a xlink:title=" ">
<path fill="none" stroke="#63b8ff" d="M1711.3,-370.79C1655.36,-387.66 1553.78,-414 1464.75,-414 1464.75,-414 1464.75,-414 1005.62,-414 915.63,-414 812.52,-394.18 751.29,-380.28"/>
<polygon fill="#63b8ff" stroke="#63b8ff" points="1712.21,-374.18 1720.74,-367.9 1710.16,-367.48 1712.21,-374.18"/>
</a>
</g>
</g>
<!-- Node14&#45;&gt;Node13 -->
<g id="edge40_Node000014_Node000013" class="edge">
<title>Node14&#45;&gt;Node13</title>
<g id="a_edge40_Node000014_Node000013"><a xlink:title=" ">
<path fill="none" stroke="#63b8ff" d="M1692.58,-348.5C1609.82,-337.02 1463.28,-316.7 1381.21,-305.32"/>
<polygon fill="#63b8ff" stroke="#63b8ff" points="1691.94,-351.94 1702.33,-349.85 1692.9,-345.01 1691.94,-351.94"/>
</a>
</g>
</g>
<!-- Node15 -->
<g id="Node000015" class="node">
<title>Node15</title>
<g id="a_Node000015"><a xlink:href="classxpath__string.html#aab0d867c56d390213cf0fbe7334e1cc0" target="_top" xlink:title=" ">
<polygon fill="white" stroke="#666666" points="1657.25,-462 1550.5,-462 1550.5,-442 1657.25,-442 1657.25,-462"/>
<text xml:space="preserve" text-anchor="middle" x="1603.88" y="-448.5" font-family="Helvetica,sans-Serif" font-size="10.00">xpath_string::append</text>
</a>
</g>
</g>
<!-- Node14&#45;&gt;Node15 -->
<g id="edge29_Node000014_Node000015" class="edge">
<title>Node14&#45;&gt;Node15</title>
<g id="a_edge29_Node000014_Node000015"><a xlink:title=" ">
<path fill="none" stroke="#63b8ff" d="M1733.69,-374.8C1715.55,-390.21 1687.72,-412.4 1661,-428 1652.21,-433.13 1642.12,-437.79 1632.95,-441.6"/>
<polygon fill="#63b8ff" stroke="#63b8ff" points="1735.8,-377.6 1741.09,-368.42 1731.23,-372.3 1735.8,-377.6"/>
</a>
</g>
</g>
<!-- Node17 -->
<g id="Node000017" class="node">
<title>Node17</title>
<g id="a_Node000017"><a xlink:href="classxpath__string.html#af3866c73a21542e26032d5d052327cc1" target="_top" xlink:title=" ">
<polygon fill="white" stroke="#666666" points="1661,-310 1546.75,-310 1546.75,-278 1661,-278 1661,-310"/>
<text xml:space="preserve" text-anchor="start" x="1554.75" y="-296.5" font-family="Helvetica,sans-Serif" font-size="10.00">xpath_string::duplicate</text>
<text xml:space="preserve" text-anchor="middle" x="1603.88" y="-284.5" font-family="Helvetica,sans-Serif" font-size="10.00">_string</text>
</a>
</g>
</g>
<!-- Node14&#45;&gt;Node17 -->
<g id="edge35_Node000014_Node000017" class="edge">
<title>Node14&#45;&gt;Node17</title>
<g id="a_edge35_Node000014_Node000017"><a xlink:title=" ">
<path fill="none" stroke="#63b8ff" d="M1718.82,-342.18C1696.31,-332.66 1667.04,-320.28 1643.81,-310.46"/>
<polygon fill="#63b8ff" stroke="#63b8ff" points="1717.3,-345.34 1727.88,-346.01 1720.03,-338.89 1717.3,-345.34"/>
</a>
</g>
</g>
<!-- Node16 -->
<g id="Node000016" class="node">
<title>Node16</title>
<g id="a_Node000016"><a xlink:href="pugixml_8cpp.html#ad34afe159db16c5eff7771f4f4935e4e" target="_top" xlink:title=" ">
<polygon fill="white" stroke="#666666" points="1354.5,-462 1286,-462 1286,-442 1354.5,-442 1354.5,-462"/>
<text xml:space="preserve" text-anchor="middle" x="1320.25" y="-448.5" font-family="Helvetica,sans-Serif" font-size="10.00">string_value</text>
</a>
</g>
</g>
<!-- Node15&#45;&gt;Node16 -->
<g id="edge30_Node000015_Node000016" class="edge">
<title>Node15&#45;&gt;Node16</title>
<g id="a_edge30_Node000015_Node000016"><a xlink:title=" ">
<path fill="none" stroke="#63b8ff" d="M1538.77,-452C1481.5,-452 1399.88,-452 1354.66,-452"/>
<polygon fill="#63b8ff" stroke="#63b8ff" points="1538.72,-455.5 1548.72,-452 1538.72,-448.5 1538.72,-455.5"/>
</a>
</g>
</g>
<!-- Node16&#45;&gt;Node3 -->
<g id="edge34_Node000016_Node000003" class="edge">
<title>Node16&#45;&gt;Node3</title>
<g id="a_edge34_Node000016_Node000003"><a xlink:title=" ">
<path fill="none" stroke="#63b8ff" d="M1300.89,-433.74C1288.89,-421.6 1273.05,-405.17 1259.75,-390 1242.87,-370.74 1241.15,-363.79 1223.75,-345 1212.87,-333.25 1199.74,-320.95 1189.21,-311.49"/>
<polygon fill="#63b8ff" stroke="#63b8ff" points="1298.25,-436.05 1307.78,-440.67 1303.21,-431.11 1298.25,-436.05"/>
</a>
</g>
</g>
<!-- Node16&#45;&gt;Node4 -->
<g id="edge31_Node000016_Node000004" class="edge">
<title>Node16&#45;&gt;Node4</title>
<g id="a_edge31_Node000016_Node000004"><a xlink:title=" ">
<path fill="none" stroke="#63b8ff" d="M1289.16,-436.26C1225.86,-403.15 1080.44,-327.09 1027.43,-299.36"/>
<polygon fill="#63b8ff" stroke="#63b8ff" points="1287.46,-439.32 1297.94,-440.85 1290.7,-433.12 1287.46,-439.32"/>
</a>
</g>
</g>
<!-- Node16&#45;&gt;Node9 -->
<g id="edge32_Node000016_Node000009" class="edge">
<title>Node16&#45;&gt;Node9</title>
<g id="a_edge32_Node000016_Node000009"><a xlink:title=" ">
<path fill="none" stroke="#63b8ff" d="M1274.87,-464.93C1258.88,-469.12 1240.63,-473.35 1223.75,-476 1128.65,-490.9 1103.88,-490 1007.62,-490 1007.62,-490 1007.62,-490 381.38,-490 254.2,-490 123.73,-386.8 84.77,-353.34"/>
<polygon fill="#63b8ff" stroke="#63b8ff" points="1275.32,-468.44 1284.06,-462.46 1273.5,-461.68 1275.32,-468.44"/>
</a>
</g>
</g>
<!-- Node16&#45;&gt;Node10 -->
<g id="edge33_Node000016_Node000010" class="edge">
<title>Node16&#45;&gt;Node10</title>
<g id="a_edge33_Node000016_Node000010"><a xlink:title=" ">
<path fill="none" stroke="#63b8ff" d="M1274.37,-457.82C1181.24,-468.22 961.37,-484.02 789.5,-428 761.05,-418.73 733.06,-398.1 715.54,-383.41"/>
<polygon fill="#63b8ff" stroke="#63b8ff" points="1274.57,-461.32 1284.1,-456.7 1273.77,-454.37 1274.57,-461.32"/>
</a>
</g>
</g>
<!-- Node17&#45;&gt;Node2 -->
<g id="edge36_Node000017_Node000002" class="edge">
<title>Node17&#45;&gt;Node2</title>
<g id="a_edge36_Node000017_Node000002"><a xlink:title=" ">
<path fill="none" stroke="#63b8ff" d="M1535.39,-276.9C1525.29,-274.34 1515.14,-271.77 1505.81,-269.4"/>
<polygon fill="#63b8ff" stroke="#63b8ff" points="1534.28,-280.23 1544.83,-279.29 1535.99,-273.44 1534.28,-280.23"/>
</a>
</g>
</g>
<!-- Node17&#45;&gt;Node13 -->
<g id="edge37_Node000017_Node000013" class="edge">
<title>Node17&#45;&gt;Node13</title>
<g id="a_edge37_Node000017_Node000013"><a xlink:title=" ">
<path fill="none" stroke="#63b8ff" d="M1535.25,-294.72C1488.2,-295.22 1426.06,-295.88 1380.87,-296.36"/>
<polygon fill="#63b8ff" stroke="#63b8ff" points="1535.09,-298.22 1545.05,-294.62 1535.01,-291.22 1535.09,-298.22"/>
</a>
</g>
</g>
<!-- Node19 -->
<g id="Node000019" class="node">
<title>Node19</title>
<g id="a_Node000019"><a xlink:href="pugixml_8cpp.html#a03f6b1df2eba6e693eb9e87cbac62342" target="_top" xlink:title=" ">
<polygon fill="white" stroke="#666666" points="1655,-222 1552.75,-222 1552.75,-202 1655,-202 1655,-222"/>
<text xml:space="preserve" text-anchor="middle" x="1603.88" y="-208.5" font-family="Helvetica,sans-Serif" font-size="10.00">new_xpath_variable</text>
</a>
</g>
</g>
<!-- Node18&#45;&gt;Node19 -->
<g id="edge42_Node000018_Node000019" class="edge">
<title>Node18&#45;&gt;Node19</title>
<g id="a_edge42_Node000018_Node000019"><a xlink:title=" ">
<path fill="none" stroke="#63b8ff" d="M1692.29,-212C1679.97,-212 1667.16,-212 1655.27,-212"/>
<polygon fill="#63b8ff" stroke="#63b8ff" points="1691.92,-215.5 1701.92,-212 1691.92,-208.5 1691.92,-215.5"/>
</a>
</g>
</g>
<!-- Node21 -->
<g id="Node000021" class="node">
<title>Node21</title>
<g id="a_Node000021"><a xlink:href="pugixml_8cpp.html#aa393963791df0fe1b8bfe3829637bfbf" target="_top" xlink:title=" ">
<polygon fill="white" stroke="#666666" points="1372.12,-184 1268.38,-184 1268.38,-164 1372.12,-164 1372.12,-184"/>
<text xml:space="preserve" text-anchor="middle" x="1320.25" y="-170.5" font-family="Helvetica,sans-Serif" font-size="10.00">node_copy_attribute</text>
</a>
</g>
</g>
<!-- Node20&#45;&gt;Node21 -->
<g id="edge44_Node000020_Node000021" class="edge">
<title>Node20&#45;&gt;Node21</title>
<g id="a_edge44_Node000020_Node000021"><a xlink:title=" ">
<path fill="none" stroke="#63b8ff" d="M1405.94,-174C1394.92,-174 1383.44,-174 1372.61,-174"/>
<polygon fill="#63b8ff" stroke="#63b8ff" points="1405.69,-177.5 1415.69,-174 1405.69,-170.5 1405.69,-177.5"/>
</a>
</g>
</g>
<!-- Node22 -->
<g id="Node000022" class="node">
<title>Node22</title>
<g id="a_Node000022"><a xlink:href="pugixml_8cpp.html#a04264129af89281e0d73c01e7b4716bb" target="_top" xlink:title=" ">
<polygon fill="white" stroke="#666666" points="1373.25,-222 1267.25,-222 1267.25,-202 1373.25,-202 1373.25,-222"/>
<text xml:space="preserve" text-anchor="middle" x="1320.25" y="-208.5" font-family="Helvetica,sans-Serif" font-size="10.00">node_copy_contents</text>
</a>
</g>
</g>
<!-- Node20&#45;&gt;Node22 -->
<g id="edge45_Node000020_Node000022" class="edge">
<title>Node20&#45;&gt;Node22</title>
<g id="a_edge45_Node000020_Node000022"><a xlink:title=" ">
<path fill="none" stroke="#63b8ff" d="M1412.68,-187.45C1395.43,-192.08 1376.39,-197.19 1360.16,-201.55"/>
<polygon fill="#63b8ff" stroke="#63b8ff" points="1413.5,-190.85 1422.25,-184.88 1411.68,-184.09 1413.5,-190.85"/>
</a>
</g>
</g>
<!-- Node23 -->
<g id="Node000023" class="node">
<title>Node23</title>
<g id="a_Node000023"><a xlink:href="pugixml_8cpp.html#a14949165ebd41eaf762dce303c0118a9" target="_top" xlink:title=" ">
<polygon fill="white" stroke="#666666" points="1211.75,-222 1126.75,-222 1126.75,-202 1211.75,-202 1211.75,-222"/>
<text xml:space="preserve" text-anchor="middle" x="1169.25" y="-208.5" font-family="Helvetica,sans-Serif" font-size="10.00">node_copy_tree</text>
</a>
</g>
</g>
<!-- Node22&#45;&gt;Node23 -->
<g id="edge46_Node000022_Node000023" class="edge">
<title>Node22&#45;&gt;Node23</title>
<g id="a_edge46_Node000022_Node000023"><a xlink:title=" ">
<path fill="none" stroke="#63b8ff" d="M1255.89,-212C1240.97,-212 1225.45,-212 1211.78,-212"/>
<polygon fill="#63b8ff" stroke="#63b8ff" points="1255.62,-215.5 1265.62,-212 1255.62,-208.5 1255.62,-215.5"/>
</a>
</g>
</g>
<!-- Node26 -->
<g id="Node000026" class="node">
<title>Node26</title>
<g id="a_Node000026"><a xlink:href="structxml__parser.html#a4bf0acd166edf3fc6cc9543002ff6f5d" target="_top" xlink:title=" ">
<polygon fill="white" stroke="#666666" points="1650.88,-70 1556.88,-70 1556.88,-50 1650.88,-50 1650.88,-70"/>
<text xml:space="preserve" text-anchor="middle" x="1603.88" y="-56.5" font-family="Helvetica,sans-Serif" font-size="10.00">xml_parser::parse</text>
</a>
</g>
</g>
<!-- Node25&#45;&gt;Node26 -->
<g id="edge49_Node000025_Node000026" class="edge">
<title>Node25&#45;&gt;Node26</title>
<g id="a_edge49_Node000025_Node000026"><a xlink:title=" ">
<path fill="none" stroke="#63b8ff" d="M1685.22,-60C1673.64,-60 1661.88,-60 1651.05,-60"/>
<polygon fill="#63b8ff" stroke="#63b8ff" points="1685.18,-63.5 1695.18,-60 1685.18,-56.5 1685.18,-63.5"/>
</a>
</g>
</g>
<!-- Node28 -->
<g id="Node000028" class="node">
<title>Node28</title>
<g id="a_Node000028"><a xlink:href="pugixml_8cpp.html#a6acbb945c483e413572aadd55a2c8712" target="_top" xlink:title=" ">
<polygon fill="white" stroke="#666666" points="1639.62,-146 1568.12,-146 1568.12,-126 1639.62,-126 1639.62,-146"/>
<text xml:space="preserve" text-anchor="middle" x="1603.88" y="-132.5" font-family="Helvetica,sans-Serif" font-size="10.00">strcpy_insitu</text>
</a>
</g>
</g>
<!-- Node27&#45;&gt;Node28 -->
<g id="edge51_Node000027_Node000028" class="edge">
<title>Node27&#45;&gt;Node28</title>
<g id="a_edge51_Node000027_Node000028"><a xlink:title=" ">
<path fill="none" stroke="#63b8ff" d="M1693.65,-136C1675.45,-136 1656.07,-136 1640.07,-136"/>
<polygon fill="#63b8ff" stroke="#63b8ff" points="1693.57,-139.5 1703.57,-136 1693.57,-132.5 1693.57,-139.5"/>
</a>
</g>
</g>
<!-- Node28&#45;&gt;Node20 -->
<g id="edge52_Node000028_Node000020" class="edge">
<title>Node28&#45;&gt;Node20</title>
<g id="a_edge52_Node000028_Node000020"><a xlink:title=" ">
<path fill="none" stroke="#63b8ff" d="M1557.05,-148.61C1539.46,-153.45 1519.59,-158.91 1502.81,-163.53"/>
<polygon fill="#63b8ff" stroke="#63b8ff" points="1557.49,-152.12 1566.2,-146.09 1555.63,-145.37 1557.49,-152.12"/>
</a>
</g>
</g>
<!-- Node29 -->
<g id="Node000029" class="node">
<title>Node29</title>
<g id="a_Node000029"><a xlink:href="pugixml_8cpp.html#add59ae346f2993be95cf7b56903ec676" target="_top" xlink:title=" ">
<polygon fill="white" stroke="#666666" points="1505.5,-146 1422,-146 1422,-126 1505.5,-126 1505.5,-146"/>
<text xml:space="preserve" text-anchor="middle" x="1463.75" y="-132.5" font-family="Helvetica,sans-Serif" font-size="10.00">set_value_ascii</text>
</a>
</g>
</g>
<!-- Node28&#45;&gt;Node29 -->
<g id="edge53_Node000028_Node000029" class="edge">
<title>Node28&#45;&gt;Node29</title>
<g id="a_edge53_Node000028_Node000029"><a xlink:title=" ">
<path fill="none" stroke="#63b8ff" d="M1556.16,-136C1539.82,-136 1521.62,-136 1505.78,-136"/>
<polygon fill="#63b8ff" stroke="#63b8ff" points="1556.15,-139.5 1566.15,-136 1556.15,-132.5 1556.15,-139.5"/>
</a>
</g>
</g>
<!-- Node32 -->
<g id="Node000032" class="node">
<title>Node32</title>
<g id="a_Node000032"><a xlink:href="pugixml_8cpp.html#ad084c2ba3b0385b65a3c50b12146fa36" target="_top" xlink:title=" ">
<polygon fill="white" stroke="#666666" points="1504.38,-108 1423.12,-108 1423.12,-88 1504.38,-88 1504.38,-108"/>
<text xml:space="preserve" text-anchor="middle" x="1463.75" y="-94.5" font-family="Helvetica,sans-Serif" font-size="10.00">set_value_bool</text>
</a>
</g>
</g>
<!-- Node28&#45;&gt;Node32 -->
<g id="edge56_Node000028_Node000032" class="edge">
<title>Node28&#45;&gt;Node32</title>
<g id="a_edge56_Node000028_Node000032"><a xlink:title=" ">
<path fill="none" stroke="#63b8ff" d="M1557.05,-123.39C1539.46,-118.55 1519.59,-113.09 1502.81,-108.47"/>
<polygon fill="#63b8ff" stroke="#63b8ff" points="1555.63,-126.63 1566.2,-125.91 1557.49,-119.88 1555.63,-126.63"/>
</a>
</g>
</g>
<!-- Node33 -->
<g id="Node000033" class="node">
<title>Node33</title>
<g id="a_Node000033"><a xlink:href="pugixml_8cpp.html#a4b9ba5312f3cfa08fba37205484fc91d" target="_top" xlink:title=" ">
<polygon fill="white" stroke="#666666" points="1510,-70 1417.5,-70 1417.5,-50 1510,-50 1510,-70"/>
<text xml:space="preserve" text-anchor="middle" x="1463.75" y="-56.5" font-family="Helvetica,sans-Serif" font-size="10.00">set_value_integer</text>
</a>
</g>
</g>
<!-- Node28&#45;&gt;Node33 -->
<g id="edge57_Node000028_Node000033" class="edge">
<title>Node28&#45;&gt;Node33</title>
<g id="a_edge57_Node000028_Node000033"><a xlink:title=" ">
<path fill="none" stroke="#63b8ff" d="M1578.13,-119.16C1559.94,-107.16 1534.37,-91.09 1510.75,-79 1504.75,-75.93 1498.14,-72.97 1491.84,-70.33"/>
<polygon fill="#63b8ff" stroke="#63b8ff" points="1576.15,-122.05 1586.41,-124.69 1580.04,-116.23 1576.15,-122.05"/>
</a>
</g>
</g>
<!-- Node30 -->
<g id="Node000030" class="node">
<title>Node30</title>
<g id="a_Node000030"><a xlink:href="pugixml_8cpp.html#a1c25c237dad556a4905806d70ed107f3" target="_top" xlink:title=" ">
<polygon fill="white" stroke="#666666" points="1368,-108 1272.5,-108 1272.5,-88 1368,-88 1368,-108"/>
<text xml:space="preserve" text-anchor="middle" x="1320.25" y="-94.5" font-family="Helvetica,sans-Serif" font-size="10.00">set_value_convert</text>
</a>
</g>
</g>
<!-- Node29&#45;&gt;Node30 -->
<g id="edge54_Node000029_Node000030" class="edge">
<title>Node29&#45;&gt;Node30</title>
<g id="a_edge54_Node000029_Node000030"><a xlink:title=" ">
<path fill="none" stroke="#63b8ff" d="M1412.68,-122.55C1395.43,-117.92 1376.39,-112.81 1360.16,-108.45"/>
<polygon fill="#63b8ff" stroke="#63b8ff" points="1411.68,-125.91 1422.25,-125.12 1413.5,-119.15 1411.68,-125.91"/>
</a>
</g>
</g>
<!-- Node31 -->
<g id="Node000031" class="node">
<title>Node31</title>
<g id="a_Node000031"><a xlink:href="pugixml_8cpp.html#a7548c736894a21eda85551af5f2bafed" target="_top" xlink:title=" ">
<polygon fill="white" stroke="#666666" points="1368,-146 1272.5,-146 1272.5,-126 1368,-126 1368,-146"/>
<text xml:space="preserve" text-anchor="middle" x="1320.25" y="-132.5" font-family="Helvetica,sans-Serif" font-size="10.00">set_value_convert</text>
</a>
</g>
</g>
<!-- Node29&#45;&gt;Node31 -->
<g id="edge55_Node000029_Node000031" class="edge">
<title>Node29&#45;&gt;Node31</title>
<g id="a_edge55_Node000029_Node000031"><a xlink:title=" ">
<path fill="none" stroke="#63b8ff" d="M1410.5,-136C1396.68,-136 1381.85,-136 1368.32,-136"/>
<polygon fill="#63b8ff" stroke="#63b8ff" points="1410.31,-139.5 1420.31,-136 1410.31,-132.5 1410.31,-139.5"/>
</a>
</g>
</g>
</g>
</svg>
