<?xml version="1.0" encoding="UTF-8" standalone="no"?>
<!DOCTYPE svg PUBLIC "-//W3C//DTD SVG 1.1//EN"
 "http://www.w3.org/Graphics/SVG/1.1/DTD/svg11.dtd">
<!-- Generated by graphviz version 14.1.2 (20260124.0452)
 -->
<!-- Title: convert_number_to_boolean Pages: 1 -->
<svg width="1207pt" height="328pt"
 viewBox="0.00 0.00 1207.00 328.00" xmlns="http://www.w3.org/2000/svg" xmlns:xlink="http://www.w3.org/1999/xlink">
<g id="graph0" class="graph" transform="scale(1 1) rotate(0) translate(4 324)">
<title>convert_number_to_boolean</title>
<!-- Node1 -->
<g id="Node000001" class="node">
<title>Node1</title>
<g id="a_Node000001"><a xlink:title=" ">
<polygon fill="#999999" stroke="#666666" points="1199,-183 1060.75,-183 1060.75,-163 1199,-163 1199,-183"/>
<text xml:space="preserve" text-anchor="middle" x="1129.88" y="-169.5" font-family="Helvetica,sans-Serif" font-size="10.00">convert_number_to_boolean</text>
</a>
</g>
</g>
<!-- Node2 -->
<g id="Node000002" class="node">
<title>Node2</title>
<g id="a_Node000002"><a xlink:href="classxpath__ast__node.html#ab7f965a92023bc2704b8e6fd9f3d7c14" target="_top" xlink:title=" ">
<polygon fill="white" stroke="#666666" points="1024.75,-189 915.75,-189 915.75,-157 1024.75,-157 1024.75,-189"/>
<text xml:space="preserve" text-anchor="start" x="923.75" y="-175.5" font-family="Helvetica,sans-Serif" font-size="10.00">xpath_ast_node::eval</text>
<text xml:space="preserve" text-anchor="middle" x="970.25" y="-163.5" font-family="Helvetica,sans-Serif" font-size="10.00">_boolean</text>
</a>
</g>
</g>
<!-- Node1&#45;&gt;Node2 -->
<g id="edge1_Node000001_Node000002" class="edge">
<title>Node1&#45;&gt;Node2</title>
<g id="a_edge1_Node000001_Node000002"><a xlink:title=" ">
<path fill="none" stroke="#63b8ff" d="M1049.36,-173C1041.06,-173 1032.76,-173 1024.85,-173"/>
<polygon fill="#63b8ff" stroke="#63b8ff" points="1049.14,-176.5 1059.14,-173 1049.14,-169.5 1049.14,-176.5"/>
</a>
</g>
</g>
<!-- Node3 -->
<g id="Node000003" class="node">
<title>Node3</title>
<g id="a_Node000003"><a xlink:href="classxpath__ast__node.html#ab4e5bbd3f2e83c86a43349374b4bfc22" target="_top" xlink:title=" ">
<polygon fill="white" stroke="#666666" points="879.75,-298 765.5,-298 765.5,-266 879.75,-266 879.75,-298"/>
<text xml:space="preserve" text-anchor="start" x="773.5" y="-284.5" font-family="Helvetica,sans-Serif" font-size="10.00">xpath_ast_node::apply</text>
<text xml:space="preserve" text-anchor="middle" x="822.62" y="-272.5" font-family="Helvetica,sans-Serif" font-size="10.00">_predicate_boolean</text>
</a>
</g>
</g>
<!-- Node2&#45;&gt;Node3 -->
<g id="edge2_Node000002_Node000003" class="edge">
<title>Node2&#45;&gt;Node3</title>
<g id="a_edge2_Node000002_Node000003"><a xlink:title=" ">
<path fill="none" stroke="#63b8ff" d="M945.16,-197.05C927.84,-213.62 903.45,-235.54 879.75,-252 872.76,-256.85 864.9,-261.5 857.32,-265.63"/>
<polygon fill="#63b8ff" stroke="#63b8ff" points="947.23,-199.91 951.98,-190.44 942.36,-194.89 947.23,-199.91"/>
</a>
</g>
</g>
<!-- Node6 -->
<g id="Node000006" class="node">
<title>Node6</title>
<g id="a_Node000006"><a xlink:href="classxpath__ast__node.html#a98dd7f6e67fe2c56c63056eed835d6a4" target="_top" xlink:title=" ">
<polygon fill="white" stroke="#666666" points="144.25,-142 0,-142 0,-122 144.25,-122 144.25,-142"/>
<text xml:space="preserve" text-anchor="middle" x="72.12" y="-128.5" font-family="Helvetica,sans-Serif" font-size="10.00">xpath_ast_node::compare_eq</text>
</a>
</g>
</g>
<!-- Node2&#45;&gt;Node6 -->
<g id="edge22_Node000002_Node000006" class="edge">
<title>Node2&#45;&gt;Node6</title>
<g id="a_edge22_Node000002_Node000006"><a xlink:title=" ">
<path fill="none" stroke="#63b8ff" d="M944.7,-149.36C895.83,-110.41 781.72,-38 673.38,-38 673.38,-38 673.38,-38 378.75,-38 270.48,-38 248.67,-75.36 144.25,-104 124.41,-109.44 101.39,-115.55 87.04,-121.58"/>
<polygon fill="#63b8ff" stroke="#63b8ff" points="942.47,-152.06 952.41,-155.71 946.92,-146.66 942.47,-152.06"/>
</a>
</g>
</g>
<!-- Node8 -->
<g id="Node000008" class="node">
<title>Node8</title>
<g id="a_Node000008"><a xlink:href="classxpath__ast__node.html#a6b675237a590548b68d0e0b97518b6df" target="_top" xlink:title=" ">
<polygon fill="white" stroke="#666666" points="434.25,-192 325.25,-192 325.25,-160 434.25,-160 434.25,-192"/>
<text xml:space="preserve" text-anchor="start" x="333.25" y="-178.5" font-family="Helvetica,sans-Serif" font-size="10.00">xpath_ast_node::eval</text>
<text xml:space="preserve" text-anchor="middle" x="379.75" y="-166.5" font-family="Helvetica,sans-Serif" font-size="10.00">_string</text>
</a>
</g>
</g>
<!-- Node2&#45;&gt;Node8 -->
<g id="edge24_Node000002_Node000008" class="edge">
<title>Node2&#45;&gt;Node8</title>
<g id="a_edge24_Node000002_Node000008"><a xlink:title=" ">
<path fill="none" stroke="#63b8ff" d="M904.2,-168.9C787.12,-166.3 543.03,-167.65 434.62,-171.63"/>
<polygon fill="#63b8ff" stroke="#63b8ff" points="903.87,-172.4 913.95,-169.14 904.04,-165.4 903.87,-172.4"/>
</a>
</g>
</g>
<!-- Node9 -->
<g id="Node000009" class="node">
<title>Node9</title>
<g id="a_Node000009"><a xlink:href="classxpath__ast__node.html#a92dd7048e28d486bc7f382d1fc6f1de6" target="_top" xlink:title=" ">
<polygon fill="white" stroke="#666666" points="289.25,-241 180.25,-241 180.25,-209 289.25,-209 289.25,-241"/>
<text xml:space="preserve" text-anchor="start" x="188.25" y="-227.5" font-family="Helvetica,sans-Serif" font-size="10.00">xpath_ast_node::eval</text>
<text xml:space="preserve" text-anchor="middle" x="234.75" y="-215.5" font-family="Helvetica,sans-Serif" font-size="10.00">_number</text>
</a>
</g>
</g>
<!-- Node2&#45;&gt;Node9 -->
<g id="edge23_Node000002_Node000009" class="edge">
<title>Node2&#45;&gt;Node9</title>
<g id="a_edge23_Node000002_Node000009"><a xlink:title=" ">
<path fill="none" stroke="#63b8ff" d="M904.19,-185.53C844.68,-199.72 753.92,-220 673.38,-220 673.38,-220 673.38,-220 523.75,-220 442.12,-220 347.48,-218.37 289.62,-219.53"/>
<polygon fill="#63b8ff" stroke="#63b8ff" points="904.92,-188.95 913.83,-183.22 903.29,-182.14 904.92,-188.95"/>
</a>
</g>
</g>
<!-- Node4 -->
<g id="Node000004" class="node">
<title>Node4</title>
<g id="a_Node000004"><a xlink:href="classxpath__ast__node.html#a7e35f265c9e0712a16e1d8a9db4c7672" target="_top" xlink:title=" ">
<polygon fill="white" stroke="#666666" points="729.5,-298 615.25,-298 615.25,-266 729.5,-266 729.5,-298"/>
<text xml:space="preserve" text-anchor="start" x="623.25" y="-284.5" font-family="Helvetica,sans-Serif" font-size="10.00">xpath_ast_node::apply</text>
<text xml:space="preserve" text-anchor="middle" x="672.38" y="-272.5" font-family="Helvetica,sans-Serif" font-size="10.00">_predicate</text>
</a>
</g>
</g>
<!-- Node3&#45;&gt;Node4 -->
<g id="edge3_Node000003_Node000004" class="edge">
<title>Node3&#45;&gt;Node4</title>
<g id="a_edge3_Node000003_Node000004"><a xlink:title=" ">
<path fill="none" stroke="#63b8ff" d="M753.84,-282C745.76,-282 737.58,-282 729.69,-282"/>
<polygon fill="#63b8ff" stroke="#63b8ff" points="753.64,-285.5 763.64,-282 753.64,-278.5 753.64,-285.5"/>
</a>
</g>
</g>
<!-- Node5 -->
<g id="Node000005" class="node">
<title>Node5</title>
<g id="a_Node000005"><a xlink:href="classxpath__ast__node.html#a68cace396dd4eeae67ecfcd34a3a8285" target="_top" xlink:title=" ">
<polygon fill="white" stroke="#666666" points="579.25,-136 470.25,-136 470.25,-104 579.25,-104 579.25,-136"/>
<text xml:space="preserve" text-anchor="start" x="478.25" y="-122.5" font-family="Helvetica,sans-Serif" font-size="10.00">xpath_ast_node::eval</text>
<text xml:space="preserve" text-anchor="middle" x="524.75" y="-110.5" font-family="Helvetica,sans-Serif" font-size="10.00">_node_set</text>
</a>
</g>
</g>
<!-- Node4&#45;&gt;Node5 -->
<g id="edge4_Node000004_Node000005" class="edge">
<title>Node4&#45;&gt;Node5</title>
<g id="a_edge4_Node000004_Node000005"><a xlink:title=" ">
<path fill="none" stroke="#63b8ff" d="M649.13,-257.25C619.04,-223.78 566.2,-165 540.55,-136.47"/>
<polygon fill="#63b8ff" stroke="#63b8ff" points="646.31,-259.35 655.6,-264.45 651.52,-254.67 646.31,-259.35"/>
</a>
</g>
</g>
<!-- Node5&#45;&gt;Node2 -->
<g id="edge9_Node000005_Node000002" class="edge">
<title>Node5&#45;&gt;Node2</title>
<g id="a_edge9_Node000005_Node000002"><a xlink:title=" ">
<path fill="none" stroke="#63b8ff" d="M590.95,-122.26C662.29,-125.5 779.81,-133.05 879.75,-150 891.45,-151.99 903.87,-154.75 915.61,-157.67"/>
<polygon fill="#63b8ff" stroke="#63b8ff" points="591.13,-118.77 580.99,-121.83 590.83,-125.76 591.13,-118.77"/>
</a>
</g>
</g>
<!-- Node5&#45;&gt;Node6 -->
<g id="edge5_Node000005_Node000006" class="edge">
<title>Node5&#45;&gt;Node6</title>
<g id="a_edge5_Node000005_Node000006"><a xlink:title=" ">
<path fill="none" stroke="#63b8ff" d="M458.47,-121.74C374.98,-123.96 230.87,-127.8 144.53,-130.1"/>
<polygon fill="#63b8ff" stroke="#63b8ff" points="458.43,-125.24 468.33,-121.48 458.24,-118.24 458.43,-125.24"/>
</a>
</g>
</g>
<!-- Node7 -->
<g id="Node000007" class="node">
<title>Node7</title>
<g id="a_Node000007"><a xlink:href="classxpath__ast__node.html#abb6e4c529276eaf882233dbb6e04e111" target="_top" xlink:title=" ">
<polygon fill="white" stroke="#666666" points="144.25,-104 0,-104 0,-84 144.25,-84 144.25,-104"/>
<text xml:space="preserve" text-anchor="middle" x="72.12" y="-90.5" font-family="Helvetica,sans-Serif" font-size="10.00">xpath_ast_node::compare_rel</text>
</a>
</g>
</g>
<!-- Node5&#45;&gt;Node7 -->
<g id="edge7_Node000005_Node000007" class="edge">
<title>Node5&#45;&gt;Node7</title>
<g id="a_edge7_Node000005_Node000007"><a xlink:title=" ">
<path fill="none" stroke="#63b8ff" d="M458.47,-116.23C374.98,-111.42 230.87,-103.1 144.53,-98.12"/>
<polygon fill="#63b8ff" stroke="#63b8ff" points="458.15,-119.72 468.33,-116.8 458.55,-112.73 458.15,-119.72"/>
</a>
</g>
</g>
<!-- Node5&#45;&gt;Node8 -->
<g id="edge10_Node000005_Node000008" class="edge">
<title>Node5&#45;&gt;Node8</title>
<g id="a_edge10_Node000005_Node000008"><a xlink:title=" ">
<path fill="none" stroke="#63b8ff" d="M471.31,-140.54C455.26,-146.82 437.83,-153.65 422.58,-159.62"/>
<polygon fill="#63b8ff" stroke="#63b8ff" points="472.17,-143.96 480.21,-137.05 469.62,-137.44 472.17,-143.96"/>
</a>
</g>
</g>
<!-- Node6&#45;&gt;Node2 -->
<g id="edge6_Node000006_Node000002" class="edge">
<title>Node6&#45;&gt;Node2</title>
<g id="a_edge6_Node000006_Node000002"><a xlink:title=" ">
<path fill="none" stroke="#63b8ff" d="M155.53,-118.78C250.4,-90.64 274.49,-56 378.75,-56 673.38,-56 673.38,-56 673.38,-56 778.62,-56 889.29,-124.31 940.34,-156.75"/>
<polygon fill="#63b8ff" stroke="#63b8ff" points="154.67,-115.39 146.01,-121.5 156.59,-122.12 154.67,-115.39"/>
</a>
</g>
</g>
<!-- Node7&#45;&gt;Node2 -->
<g id="edge8_Node000007_Node000002" class="edge">
<title>Node7&#45;&gt;Node2</title>
<g id="a_edge8_Node000007_Node000002"><a xlink:title=" ">
<path fill="none" stroke="#63b8ff" d="M102.63,-78.44C156.12,-51.73 273.32,0 378.75,0 673.38,0 673.38,0 673.38,0 768.77,0 800.58,-5.78 879.75,-59 917.97,-84.69 947.28,-131.9 960.89,-156.74"/>
<polygon fill="#63b8ff" stroke="#63b8ff" points="101.19,-75.25 93.86,-82.9 104.36,-81.49 101.19,-75.25"/>
</a>
</g>
</g>
<!-- Node8&#45;&gt;Node2 -->
<g id="edge12_Node000008_Node000002" class="edge">
<title>Node8&#45;&gt;Node2</title>
<g id="a_edge12_Node000008_Node000002"><a xlink:title=" ">
<path fill="none" stroke="#63b8ff" d="M445.89,-180.1C563.04,-182.7 807.13,-181.35 915.46,-177.37"/>
<polygon fill="#63b8ff" stroke="#63b8ff" points="446.22,-176.61 436.14,-179.86 446.05,-183.6 446.22,-176.61"/>
</a>
</g>
</g>
<!-- Node8&#45;&gt;Node6 -->
<g id="edge11_Node000008_Node000006" class="edge">
<title>Node8&#45;&gt;Node6</title>
<g id="a_edge11_Node000008_Node000006"><a xlink:title=" ">
<path fill="none" stroke="#63b8ff" d="M313.57,-166.62C263.95,-159.47 195.71,-149.65 144.6,-142.29"/>
<polygon fill="#63b8ff" stroke="#63b8ff" points="312.92,-170.06 323.32,-168.02 313.92,-163.13 312.92,-170.06"/>
</a>
</g>
</g>
<!-- Node8&#45;&gt;Node9 -->
<g id="edge13_Node000008_Node000009" class="edge">
<title>Node8&#45;&gt;Node9</title>
<g id="a_edge13_Node000008_Node000009"><a xlink:title=" ">
<path fill="none" stroke="#63b8ff" d="M314.35,-191.35C297.83,-196.87 280.81,-203.05 266.84,-208.66"/>
<polygon fill="#63b8ff" stroke="#63b8ff" points="315.24,-194.74 323.66,-188.3 313.06,-188.09 315.24,-194.74"/>
</a>
</g>
</g>
<!-- Node9&#45;&gt;Node2 -->
<g id="edge20_Node000009_Node000002" class="edge">
<title>Node9&#45;&gt;Node2</title>
<g id="a_edge20_Node000009_Node000002"><a xlink:title=" ">
<path fill="none" stroke="#63b8ff" d="M300.89,-233.5C359.26,-236.57 447.22,-238 523.75,-238 673.38,-238 673.38,-238 673.38,-238 769.57,-238 880.33,-209.07 935.03,-189.46"/>
<polygon fill="#63b8ff" stroke="#63b8ff" points="301.32,-230.02 291.13,-232.95 300.92,-237 301.32,-230.02"/>
</a>
</g>
</g>
<!-- Node9&#45;&gt;Node6 -->
<g id="edge18_Node000009_Node000006" class="edge">
<title>Node9&#45;&gt;Node6</title>
<g id="a_edge18_Node000009_Node000006"><a xlink:title=" ">
<path fill="none" stroke="#63b8ff" d="M195.63,-202.93C162.65,-183.83 116.4,-157.06 91.22,-142.48"/>
<polygon fill="#63b8ff" stroke="#63b8ff" points="193.69,-205.85 204.09,-207.83 197.19,-199.79 193.69,-205.85"/>
</a>
</g>
</g>
<!-- Node9&#45;&gt;Node7 -->
<g id="edge19_Node000009_Node000007" class="edge">
<title>Node9&#45;&gt;Node7</title>
<g id="a_edge19_Node000009_Node000007"><a xlink:title=" ">
<path fill="none" stroke="#63b8ff" d="M219.48,-198.73C204.2,-173.07 177.58,-134.78 144.25,-113 139.01,-109.57 133.17,-106.76 127.15,-104.46"/>
<polygon fill="#63b8ff" stroke="#63b8ff" points="216.36,-200.32 224.39,-207.24 222.42,-196.82 216.36,-200.32"/>
</a>
</g>
</g>
<!-- Node9&#45;&gt;Node8 -->
<g id="edge21_Node000009_Node000008" class="edge">
<title>Node9&#45;&gt;Node8</title>
<g id="a_edge21_Node000009_Node000008"><a xlink:title=" ">
<path fill="none" stroke="#63b8ff" d="M300.21,-209.63C316.59,-204.16 333.47,-198.03 347.37,-192.45"/>
<polygon fill="#63b8ff" stroke="#63b8ff" points="299.4,-206.21 290.99,-212.66 301.58,-212.87 299.4,-206.21"/>
</a>
</g>
</g>
<!-- Node10 -->
<g id="Node000010" class="node">
<title>Node10</title>
<g id="a_Node000010"><a xlink:href="classxpath__ast__node.html#abf2d4b745493f63aebc1c89d9fde8eed" target="_top" xlink:title=" ">
<polygon fill="white" stroke="#666666" points="129.25,-260 15,-260 15,-228 129.25,-228 129.25,-260"/>
<text xml:space="preserve" text-anchor="start" x="23" y="-246.5" font-family="Helvetica,sans-Serif" font-size="10.00">xpath_ast_node::apply</text>
<text xml:space="preserve" text-anchor="middle" x="72.12" y="-234.5" font-family="Helvetica,sans-Serif" font-size="10.00">_predicate_number</text>
</a>
</g>
</g>
<!-- Node9&#45;&gt;Node10 -->
<g id="edge14_Node000009_Node000010" class="edge">
<title>Node9&#45;&gt;Node10</title>
<g id="a_edge14_Node000009_Node000010"><a xlink:title=" ">
<path fill="none" stroke="#63b8ff" d="M168.64,-232.7C155.73,-234.23 142.27,-235.82 129.66,-237.31"/>
<polygon fill="#63b8ff" stroke="#63b8ff" points="168.79,-236.21 178.31,-231.56 167.97,-229.26 168.79,-236.21"/>
</a>
</g>
</g>
<!-- Node11 -->
<g id="Node000011" class="node">
<title>Node11</title>
<g id="a_Node000011"><a xlink:href="classxpath__ast__node.html#a8cedd7e15623b9fa431788b8843f1463" target="_top" xlink:title=" ">
<polygon fill="white" stroke="#666666" points="136,-320 8.25,-320 8.25,-288 136,-288 136,-320"/>
<text xml:space="preserve" text-anchor="start" x="16.25" y="-306.5" font-family="Helvetica,sans-Serif" font-size="10.00">xpath_ast_node::apply</text>
<text xml:space="preserve" text-anchor="middle" x="72.12" y="-294.5" font-family="Helvetica,sans-Serif" font-size="10.00">_predicate_number_const</text>
</a>
</g>
</g>
<!-- Node9&#45;&gt;Node11 -->
<g id="edge16_Node000009_Node000011" class="edge">
<title>Node9&#45;&gt;Node11</title>
<g id="a_edge16_Node000009_Node000011"><a xlink:title=" ">
<path fill="none" stroke="#63b8ff" d="M190.38,-246.33C164.05,-259.28 130.95,-275.56 106.64,-287.52"/>
<polygon fill="#63b8ff" stroke="#63b8ff" points="191.68,-249.59 199.11,-242.04 188.59,-243.31 191.68,-249.59"/>
</a>
</g>
</g>
<!-- Node10&#45;&gt;Node4 -->
<g id="edge15_Node000010_Node000004" class="edge">
<title>Node10&#45;&gt;Node4</title>
<g id="a_edge15_Node000010_Node000004"><a xlink:title=" ">
<path fill="none" stroke="#63b8ff" d="M141.1,-248.32C260.18,-255.88 504.33,-271.39 614.82,-278.41"/>
<polygon fill="#63b8ff" stroke="#63b8ff" points="141.34,-244.83 131.14,-247.69 140.9,-251.81 141.34,-244.83"/>
</a>
</g>
</g>
<!-- Node11&#45;&gt;Node4 -->
<g id="edge17_Node000011_Node000004" class="edge">
<title>Node11&#45;&gt;Node4</title>
<g id="a_edge17_Node000011_Node000004"><a xlink:title=" ">
<path fill="none" stroke="#63b8ff" d="M147.64,-303.31C246.4,-302.09 426.03,-298.76 579.25,-290 590.79,-289.34 603.13,-288.42 614.9,-287.43"/>
<polygon fill="#63b8ff" stroke="#63b8ff" points="147.77,-299.81 137.81,-303.43 147.85,-306.81 147.77,-299.81"/>
</a>
</g>
</g>
</g>
</svg>
