<?xml version="1.0" encoding="UTF-8" standalone="no"?>
<!DOCTYPE svg PUBLIC "-//W3C//DTD SVG 1.1//EN"
 "http://www.w3.org/Graphics/SVG/1.1/DTD/svg11.dtd">
<!-- Generated by graphviz version 14.1.2 (20260124.0452)
 -->
<!-- Title: MVPVulkan/pugixml/pugiconfig.hpp Pages: 1 -->
<svg width="561pt" height="364pt"
 viewBox="0.00 0.00 561.00 364.00" xmlns="http://www.w3.org/2000/svg" xmlns:xlink="http://www.w3.org/1999/xlink">
<g id="graph0" class="graph" transform="scale(1 1) rotate(0) translate(4 360)">
<title>MVPVulkan/pugixml/pugiconfig.hpp</title>
<!-- Node1 -->
<g id="Node000001" class="node">
<title>Node1</title>
<g id="a_Node000001"><a xlink:title=" ">
<polygon fill="#999999" stroke="#666666" points="474.38,-356 304.62,-356 304.62,-336 474.38,-336 474.38,-356"/>
<text xml:space="preserve" text-anchor="middle" x="389.5" y="-342.5" font-family="Helvetica,sans-Serif" font-size="10.00">MVPVulkan/pugixml/pugiconfig.hpp</text>
</a>
</g>
</g>
<!-- Node2 -->
<g id="Node000002" class="node">
<title>Node2</title>
<g id="a_Node000002"><a xlink:href="pugixml_8hpp.html" target="_top" xlink:title=" ">
<polygon fill="white" stroke="#666666" points="469.12,-300 309.88,-300 309.88,-280 469.12,-280 469.12,-300"/>
<text xml:space="preserve" text-anchor="middle" x="389.5" y="-286.5" font-family="Helvetica,sans-Serif" font-size="10.00">MVPVulkan/pugixml/pugixml.hpp</text>
</a>
</g>
</g>
<!-- Node1&#45;&gt;Node2 -->
<g id="edge1_Node000001_Node000002" class="edge">
<title>Node1&#45;&gt;Node2</title>
<g id="a_edge1_Node000001_Node000002"><a xlink:title=" ">
<path fill="none" stroke="#63b8ff" d="M389.5,-324.13C389.5,-315.9 389.5,-306.85 389.5,-300.3"/>
<polygon fill="#63b8ff" stroke="#63b8ff" points="386,-324.08 389.5,-334.08 393,-324.08 386,-324.08"/>
</a>
</g>
</g>
<!-- Node3 -->
<g id="Node000003" class="node">
<title>Node3</title>
<g id="a_Node000003"><a xlink:href="_g_e_x_m_l_parser_8h.html" target="_top" xlink:title="Parser para archivos .skel (XML) usando pugixml.">
<polygon fill="white" stroke="#666666" points="376.12,-244 234.88,-244 234.88,-224 376.12,-224 376.12,-244"/>
<text xml:space="preserve" text-anchor="middle" x="305.5" y="-230.5" font-family="Helvetica,sans-Serif" font-size="10.00">MVPVulkan/GEXMLParser.h</text>
</a>
</g>
</g>
<!-- Node2&#45;&gt;Node3 -->
<g id="edge2_Node000002_Node000003" class="edge">
<title>Node2&#45;&gt;Node3</title>
<g id="a_edge2_Node000002_Node000003"><a xlink:title=" ">
<path fill="none" stroke="#63b8ff" d="M365.45,-273.54C350.87,-264.17 332.73,-252.51 320.25,-244.48"/>
<polygon fill="#63b8ff" stroke="#63b8ff" points="363.29,-276.31 373.6,-278.78 367.08,-270.42 363.29,-276.31"/>
</a>
</g>
</g>
<!-- Node13 -->
<g id="Node000013" class="node">
<title>Node13</title>
<g id="a_Node000013"><a xlink:href="pugixml_8cpp.html" target="_top" xlink:title=" ">
<polygon fill="white" stroke="#666666" points="553.12,-244 393.88,-244 393.88,-224 553.12,-224 553.12,-244"/>
<text xml:space="preserve" text-anchor="middle" x="473.5" y="-230.5" font-family="Helvetica,sans-Serif" font-size="10.00">MVPVulkan/pugixml/pugixml.cpp</text>
</a>
</g>
</g>
<!-- Node2&#45;&gt;Node13 -->
<g id="edge12_Node000002_Node000013" class="edge">
<title>Node2&#45;&gt;Node13</title>
<g id="a_edge12_Node000002_Node000013"><a xlink:title=" ">
<path fill="none" stroke="#63b8ff" d="M413.55,-273.54C428.13,-264.17 446.27,-252.51 458.75,-244.48"/>
<polygon fill="#63b8ff" stroke="#63b8ff" points="411.92,-270.42 405.4,-278.78 415.71,-276.31 411.92,-270.42"/>
</a>
</g>
</g>
<!-- Node4 -->
<g id="Node000004" class="node">
<title>Node4</title>
<g id="a_Node000004"><a xlink:href="_g_e_skeleton_8h.html" target="_top" xlink:title="Declaración de la clase GESkeleton que representa un esqueleto con articulaciones jerárquicas.">
<polygon fill="white" stroke="#666666" points="291.88,-188 161.12,-188 161.12,-168 291.88,-168 291.88,-188"/>
<text xml:space="preserve" text-anchor="middle" x="226.5" y="-174.5" font-family="Helvetica,sans-Serif" font-size="10.00">MVPVulkan/GESkeleton.h</text>
</a>
</g>
</g>
<!-- Node3&#45;&gt;Node4 -->
<g id="edge3_Node000003_Node000004" class="edge">
<title>Node3&#45;&gt;Node4</title>
<g id="a_edge3_Node000003_Node000004"><a xlink:title=" ">
<path fill="none" stroke="#63b8ff" d="M282.49,-217.27C268.84,-207.94 252,-196.43 240.37,-188.48"/>
<polygon fill="#63b8ff" stroke="#63b8ff" points="280.26,-219.99 290.49,-222.74 284.21,-214.21 280.26,-219.99"/>
</a>
</g>
</g>
<!-- Node12 -->
<g id="Node000012" class="node">
<title>Node12</title>
<g id="a_Node000012"><a xlink:href="_g_e_x_m_l_parser_8cpp.html" target="_top" xlink:title="Implementación del parser XML usando pugixml.">
<polygon fill="white" stroke="#666666" points="461.38,-188 309.62,-188 309.62,-168 461.38,-168 461.38,-188"/>
<text xml:space="preserve" text-anchor="middle" x="385.5" y="-174.5" font-family="Helvetica,sans-Serif" font-size="10.00">MVPVulkan/GEXMLParser.cpp</text>
</a>
</g>
</g>
<!-- Node3&#45;&gt;Node12 -->
<g id="edge11_Node000003_Node000012" class="edge">
<title>Node3&#45;&gt;Node12</title>
<g id="a_edge11_Node000003_Node000012"><a xlink:title=" ">
<path fill="none" stroke="#63b8ff" d="M328.8,-217.27C342.62,-207.94 359.68,-196.43 371.46,-188.48"/>
<polygon fill="#63b8ff" stroke="#63b8ff" points="327.02,-214.25 320.69,-222.75 330.94,-220.05 327.02,-214.25"/>
</a>
</g>
</g>
<!-- Node5 -->
<g id="Node000005" class="node">
<title>Node5</title>
<g id="a_Node000005"><a xlink:href="_g_e_animation_8cpp.html" target="_top" xlink:title="Implementación del sistema de animación por keyframes.">
<polygon fill="white" stroke="#666666" points="148.75,-132 2.25,-132 2.25,-112 148.75,-112 148.75,-132"/>
<text xml:space="preserve" text-anchor="middle" x="75.5" y="-118.5" font-family="Helvetica,sans-Serif" font-size="10.00">MVPVulkan/GEAnimation.cpp</text>
</a>
</g>
</g>
<!-- Node4&#45;&gt;Node5 -->
<g id="edge4_Node000004_Node000005" class="edge">
<title>Node4&#45;&gt;Node5</title>
<g id="a_edge4_Node000004_Node000005"><a xlink:title=" ">
<path fill="none" stroke="#63b8ff" d="M189.56,-163.79C162.46,-154.1 126.29,-141.16 102.01,-132.48"/>
<polygon fill="#63b8ff" stroke="#63b8ff" points="188.18,-167.01 198.77,-167.08 190.54,-160.42 188.18,-167.01"/>
</a>
</g>
</g>
<!-- Node6 -->
<g id="Node000006" class="node">
<title>Node6</title>
<g id="a_Node000006"><a xlink:href="_g_e_scene_8h.html" target="_top" xlink:title="Declaración de la clase GEScene que contiene la escena con esqueleto animado.">
<polygon fill="white" stroke="#666666" points="286.62,-132 166.38,-132 166.38,-112 286.62,-112 286.62,-132"/>
<text xml:space="preserve" text-anchor="middle" x="226.5" y="-118.5" font-family="Helvetica,sans-Serif" font-size="10.00">MVPVulkan/GEScene.h</text>
</a>
</g>
</g>
<!-- Node4&#45;&gt;Node6 -->
<g id="edge5_Node000004_Node000006" class="edge">
<title>Node4&#45;&gt;Node6</title>
<g id="a_edge5_Node000004_Node000006"><a xlink:title=" ">
<path fill="none" stroke="#63b8ff" d="M226.5,-156.13C226.5,-147.9 226.5,-138.85 226.5,-132.3"/>
<polygon fill="#63b8ff" stroke="#63b8ff" points="223,-156.08 226.5,-166.08 230,-156.08 223,-156.08"/>
</a>
</g>
</g>
<!-- Node11 -->
<g id="Node000011" class="node">
<title>Node11</title>
<g id="a_Node000011"><a xlink:href="_g_e_skeleton_8cpp.html" target="_top" xlink:title="Implementación de GESkeleton con carga desde archivo .skel.">
<polygon fill="white" stroke="#666666" points="446.12,-132 304.88,-132 304.88,-112 446.12,-112 446.12,-132"/>
<text xml:space="preserve" text-anchor="middle" x="375.5" y="-118.5" font-family="Helvetica,sans-Serif" font-size="10.00">MVPVulkan/GESkeleton.cpp</text>
</a>
</g>
</g>
<!-- Node4&#45;&gt;Node11 -->
<g id="edge10_Node000004_Node000011" class="edge">
<title>Node4&#45;&gt;Node11</title>
<g id="a_edge10_Node000004_Node000011"><a xlink:title=" ">
<path fill="none" stroke="#63b8ff" d="M262.95,-163.79C289.69,-154.1 325.39,-141.16 349.34,-132.48"/>
<polygon fill="#63b8ff" stroke="#63b8ff" points="262.09,-160.38 253.88,-167.08 264.47,-166.96 262.09,-160.38"/>
</a>
</g>
</g>
<!-- Node7 -->
<g id="Node000007" class="node">
<title>Node7</title>
<g id="a_Node000007"><a xlink:href="_g_e_application_8h.html" target="_top" xlink:title="Declaración de la clase GEApplication que crea y lanza la aplicación gráfica.">
<polygon fill="white" stroke="#666666" points="219.75,-76 79.25,-76 79.25,-56 219.75,-56 219.75,-76"/>
<text xml:space="preserve" text-anchor="middle" x="149.5" y="-62.5" font-family="Helvetica,sans-Serif" font-size="10.00">MVPVulkan/GEApplication.h</text>
</a>
</g>
</g>
<!-- Node6&#45;&gt;Node7 -->
<g id="edge6_Node000006_Node000007" class="edge">
<title>Node6&#45;&gt;Node7</title>
<g id="a_edge6_Node000006_Node000007"><a xlink:title=" ">
<path fill="none" stroke="#63b8ff" d="M203.68,-105C190.45,-95.72 174.24,-84.35 163.02,-76.48"/>
<polygon fill="#63b8ff" stroke="#63b8ff" points="201.65,-107.85 211.85,-110.72 205.67,-102.12 201.65,-107.85"/>
</a>
</g>
</g>
<!-- Node10 -->
<g id="Node000010" class="node">
<title>Node10</title>
<g id="a_Node000010"><a xlink:href="_g_e_scene_8cpp.html" target="_top" xlink:title="Escena con animación de tiro libre de baloncesto.">
<polygon fill="white" stroke="#666666" points="368.88,-76 238.12,-76 238.12,-56 368.88,-56 368.88,-76"/>
<text xml:space="preserve" text-anchor="middle" x="303.5" y="-62.5" font-family="Helvetica,sans-Serif" font-size="10.00">MVPVulkan/GEScene.cpp</text>
</a>
</g>
</g>
<!-- Node6&#45;&gt;Node10 -->
<g id="edge9_Node000006_Node000010" class="edge">
<title>Node6&#45;&gt;Node10</title>
<g id="a_edge9_Node000006_Node000010"><a xlink:title=" ">
<path fill="none" stroke="#63b8ff" d="M249.32,-105C262.55,-95.72 278.76,-84.35 289.98,-76.48"/>
<polygon fill="#63b8ff" stroke="#63b8ff" points="247.33,-102.12 241.15,-110.72 251.35,-107.85 247.33,-102.12"/>
</a>
</g>
</g>
<!-- Node8 -->
<g id="Node000008" class="node">
<title>Node8</title>
<g id="a_Node000008"><a xlink:href="_g_e_application_8cpp.html" target="_top" xlink:title="Implementación de la clase GEApplication.">
<polygon fill="white" stroke="#666666" points="151,-20 0,-20 0,0 151,0 151,-20"/>
<text xml:space="preserve" text-anchor="middle" x="75.5" y="-6.5" font-family="Helvetica,sans-Serif" font-size="10.00">MVPVulkan/GEApplication.cpp</text>
</a>
</g>
</g>
<!-- Node7&#45;&gt;Node8 -->
<g id="edge7_Node000007_Node000008" class="edge">
<title>Node7&#45;&gt;Node8</title>
<g id="a_edge7_Node000007_Node000008"><a xlink:title=" ">
<path fill="none" stroke="#63b8ff" d="M127.51,-48.95C114.71,-39.61 99.02,-28.16 88.24,-20.3"/>
<polygon fill="#63b8ff" stroke="#63b8ff" points="125.25,-51.63 135.39,-54.7 129.37,-45.98 125.25,-51.63"/>
</a>
</g>
</g>
<!-- Node9 -->
<g id="Node000009" class="node">
<title>Node9</title>
<g id="a_Node000009"><a xlink:href="main_8cpp.html" target="_top" xlink:title="Punto de entrada principal de la aplicación MVPVulkan.">
<polygon fill="white" stroke="#666666" points="278.38,-20 168.62,-20 168.62,0 278.38,0 278.38,-20"/>
<text xml:space="preserve" text-anchor="middle" x="223.5" y="-6.5" font-family="Helvetica,sans-Serif" font-size="10.00">MVPVulkan/main.cpp</text>
</a>
</g>
</g>
<!-- Node7&#45;&gt;Node9 -->
<g id="edge8_Node000007_Node000009" class="edge">
<title>Node7&#45;&gt;Node9</title>
<g id="a_edge8_Node000007_Node000009"><a xlink:title=" ">
<path fill="none" stroke="#63b8ff" d="M171.49,-48.95C184.29,-39.61 199.98,-28.16 210.76,-20.3"/>
<polygon fill="#63b8ff" stroke="#63b8ff" points="169.63,-45.98 163.61,-54.7 173.75,-51.63 169.63,-45.98"/>
</a>
</g>
</g>
</g>
</svg>
