<?xml version="1.0" encoding="UTF-8" standalone="no"?>
<!DOCTYPE svg PUBLIC "-//W3C//DTD SVG 1.1//EN"
 "http://www.w3.org/Graphics/SVG/1.1/DTD/svg11.dtd">
<!-- Generated by graphviz version 14.1.2 (20260124.0452)
 -->
<!-- Title: xpath_parser::parse_location_path Pages: 1 -->
<!--zoomable 243 -->

<svg id="main" version="1.1" xmlns="http://www.w3.org/2000/svg" xmlns:xlink="http://www.w3.org/1999/xlink" xml:space="preserve" onload="init(evt)">

<style type="text/css"><![CDATA[
.node, .edge {opacity: 0.7;}
.node.selected, .edge.selected {opacity: 1;}
.edge:hover path { stroke: red; }
.edge:hover polygon { stroke: red; fill: red; }
]]></style>

<defs>
  <circle id="rim" cx="0" cy="0" r="7"/>
  <circle id="rim2" cx="0" cy="0" r="3.5"/>
  <g id="zoomPlus">
    <use xlink:href="#rim" fill="#404040"><set attributeName="fill" to="#808080" begin="zoomplus.mouseover" end="zoomplus.mouseout"/></use>
    <path d="M-4,0h8M0,-4v8" fill="none" stroke="white" stroke-width="1.5" pointer-events="none"/>
  </g>
  <g id="zoomMin">
    <use xlink:href="#rim" fill="#404040"><set attributeName="fill" to="#808080" begin="zoomminus.mouseover" end="zoomminus.mouseout"/></use>
    <path d="M-4,0h8" fill="none" stroke="white" stroke-width="1.5" pointer-events="none"/>
  </g>
  <g id="arrowUp" transform="translate(30 24)">
    <use xlink:href="#rim"/>
    <path pointer-events="none" fill="none" stroke="white" stroke-width="1.5" d="M0,-3.0v7 M-2.5,-0.5L0,-3.0L2.5,-0.5"/>
  </g>
  <g id="arrowRight" transform="rotate(90) translate(36 -43)">
    <use xlink:href="#rim"/>
    <path pointer-events="none" fill="none" stroke="white" stroke-width="1.5" d="M0,-3.0v7 M-2.5,-0.5L0,-3.0L2.5,-0.5"/>
  </g>
  <g id="arrowDown" transform="rotate(180) translate(-30 -48)">
    <use xlink:href="#rim"/>
    <path pointer-events="none" fill="none" stroke="white" stroke-width="1.5" d="M0,-3.0v7 M-2.5,-0.5L0,-3.0L2.5,-0.5"/>
  </g>
  <g id="arrowLeft" transform="rotate(270) translate(-36 17)">
    <use xlink:href="#rim"/>
    <path pointer-events="none" fill="none" stroke="white" stroke-width="1.5" d="M0,-3.0v7 M-2.5,-0.5L0,-3.0L2.5,-0.5"/>
  </g>
  <g id="resetDef">
    <use xlink:href="#rim2" fill="#404040"><set attributeName="fill" to="#808080" begin="reset.mouseover" end="reset.mouseout"/></use>
  </g>
</defs>
<script type="application/ecmascript">
var viewWidth = 872;
var viewHeight = 243;
var sectionId = 'dynsection-27';
</script>
<script type="application/ecmascript" xlink:href="svg.min.js"/>
<svg id="graph" class="graph">
<g id="viewport">
<title>xpath_parser::parse_location_path</title>
<!-- Node1 -->
<g id="Node000001" class="node">
<title>Node1</title>
<g id="a_Node000001"><a xlink:title=" ">
<polygon fill="#999999" stroke="#666666" points="864,-194.39 761.75,-194.39 761.75,-162.39 864,-162.39 864,-194.39"/>
<text xml:space="preserve" text-anchor="start" x="769.75" y="-180.89" font-family="Helvetica,sans-Serif" font-size="10.00">xpath_parser::parse</text>
<text xml:space="preserve" text-anchor="middle" x="812.88" y="-168.89" font-family="Helvetica,sans-Serif" font-size="10.00">_location_path</text>
</a>
</g>
</g>
<!-- Node2 -->
<g id="Node000002" class="node">
<title>Node2</title>
<g id="a_Node000002"><a xlink:href="structxpath__parser.html#ab5275305ebaac95fd68a3186b737aaa7" target="_top" xlink:title=" ">
<polygon fill="white" stroke="#666666" points="725.75,-152.39 590.5,-152.39 590.5,-120.39 725.75,-120.39 725.75,-152.39"/>
<text xml:space="preserve" text-anchor="start" x="598.5" y="-138.89" font-family="Helvetica,sans-Serif" font-size="10.00">xpath_parser::parse</text>
<text xml:space="preserve" text-anchor="middle" x="658.12" y="-126.89" font-family="Helvetica,sans-Serif" font-size="10.00">_path_or_unary_expression</text>
</a>
</g>
</g>
<!-- Node1&#45;&gt;Node2 -->
<g id="edge1_Node000001_Node000002" class="edge">
<title>Node1&#45;&gt;Node2</title>
<g id="a_edge1_Node000001_Node000002"><a xlink:title=" ">
<path fill="none" stroke="#63b8ff" d="M750.41,-161.49C740.07,-158.65 729.36,-155.71 719.07,-152.88"/>
<polygon fill="#63b8ff" stroke="#63b8ff" points="749.41,-164.85 759.98,-164.12 751.26,-158.1 749.41,-164.85"/>
</a>
</g>
</g>
<!-- Node3 -->
<g id="Node000003" class="node">
<title>Node3</title>
<g id="a_Node000003"><a xlink:href="structxpath__parser.html#a7738e256011ca842dc2a0beba78562ed" target="_top" xlink:title=" ">
<polygon fill="white" stroke="#666666" points="416.25,-137.39 314,-137.39 314,-105.39 416.25,-105.39 416.25,-137.39"/>
<text xml:space="preserve" text-anchor="start" x="322" y="-123.89" font-family="Helvetica,sans-Serif" font-size="10.00">xpath_parser::parse</text>
<text xml:space="preserve" text-anchor="middle" x="365.12" y="-111.89" font-family="Helvetica,sans-Serif" font-size="10.00">_expression</text>
</a>
</g>
</g>
<!-- Node2&#45;&gt;Node3 -->
<g id="edge2_Node000002_Node000003" class="edge">
<title>Node2&#45;&gt;Node3</title>
<g id="a_edge2_Node000002_Node000003"><a xlink:title=" ">
<path fill="none" stroke="#63b8ff" d="M578.94,-126.3C527.41,-122.51 461.43,-119.38 416.7,-118.74"/>
<polygon fill="#63b8ff" stroke="#63b8ff" points="578.62,-129.79 588.85,-127.06 579.15,-122.81 578.62,-129.79"/>
</a>
</g>
</g>
<!-- Node10 -->
<g id="Node000010" class="node">
<title>Node10</title>
<g id="a_Node000010"><a xlink:href="structxpath__parser.html#adcd54e9b508acfe1f040ee7a54b88f2a" target="_top" xlink:title=" ">
<polygon fill="white" stroke="#666666" points="554.5,-81.39 452.25,-81.39 452.25,-49.39 554.5,-49.39 554.5,-81.39"/>
<text xml:space="preserve" text-anchor="start" x="460.25" y="-67.89" font-family="Helvetica,sans-Serif" font-size="10.00">xpath_parser::parse</text>
<text xml:space="preserve" text-anchor="middle" x="503.38" y="-55.89" font-family="Helvetica,sans-Serif" font-size="10.00">_expression_rec</text>
</a>
</g>
</g>
<!-- Node2&#45;&gt;Node10 -->
<g id="edge14_Node000002_Node000010" class="edge">
<title>Node2&#45;&gt;Node10</title>
<g id="a_edge14_Node000002_Node000010"><a xlink:title=" ">
<path fill="none" stroke="#63b8ff" d="M611.47,-115.18C588.46,-104.48 560.97,-91.7 539.61,-81.77"/>
<polygon fill="#63b8ff" stroke="#63b8ff" points="609.78,-118.25 620.32,-119.29 612.73,-111.9 609.78,-118.25"/>
</a>
</g>
</g>
<!-- Node3&#45;&gt;Node2 -->
<g id="edge7_Node000003_Node000002" class="edge">
<title>Node3&#45;&gt;Node2</title>
<g id="a_edge7_Node000003_Node000002"><a xlink:title=" ">
<path fill="none" stroke="#63b8ff" d="M428.1,-130.23C475.77,-134.12 541.53,-137.55 590.36,-138.73"/>
<polygon fill="#63b8ff" stroke="#63b8ff" points="428.46,-126.75 418.2,-129.39 427.87,-133.73 428.46,-126.75"/>
</a>
</g>
</g>
<!-- Node4 -->
<g id="Node000004" class="node">
<title>Node4</title>
<g id="a_Node000004"><a xlink:href="structxpath__parser.html#aa3fe0e7d23131b3943d8248646ecd362" target="_top" xlink:title=" ">
<polygon fill="white" stroke="#666666" points="266,-131.39 163.75,-131.39 163.75,-111.39 266,-111.39 266,-131.39"/>
<text xml:space="preserve" text-anchor="middle" x="214.88" y="-117.89" font-family="Helvetica,sans-Serif" font-size="10.00">xpath_parser::parse</text>
</a>
</g>
</g>
<!-- Node3&#45;&gt;Node4 -->
<g id="edge3_Node000003_Node000004" class="edge">
<title>Node3&#45;&gt;Node4</title>
<g id="a_edge3_Node000003_Node000004"><a xlink:title=" ">
<path fill="none" stroke="#63b8ff" d="M302.21,-121.39C290.23,-121.39 277.81,-121.39 266.25,-121.39"/>
<polygon fill="#63b8ff" stroke="#63b8ff" points="302.01,-124.89 312.01,-121.39 302.01,-117.89 302.01,-124.89"/>
</a>
</g>
</g>
<!-- Node6 -->
<g id="Node000006" class="node">
<title>Node6</title>
<g id="a_Node000006"><a xlink:href="structxpath__parser.html#a61a425d990a56d5db8cd14405835a5b6" target="_top" xlink:title=" ">
<polygon fill="white" stroke="#666666" points="109,-49.39 6.75,-49.39 6.75,-17.39 109,-17.39 109,-49.39"/>
<text xml:space="preserve" text-anchor="start" x="14.75" y="-35.89" font-family="Helvetica,sans-Serif" font-size="10.00">xpath_parser::parse</text>
<text xml:space="preserve" text-anchor="middle" x="57.88" y="-23.89" font-family="Helvetica,sans-Serif" font-size="10.00">_filter_expression</text>
</a>
</g>
</g>
<!-- Node3&#45;&gt;Node6 -->
<g id="edge5_Node000003_Node000006" class="edge">
<title>Node3&#45;&gt;Node6</title>
<g id="a_edge5_Node000003_Node000006"><a xlink:title=" ">
<path fill="none" stroke="#63b8ff" d="M341.73,-97.18C325.64,-81.49 302.54,-62.22 278,-52.39 223.23,-30.46 154.76,-28.08 109.07,-29.64"/>
<polygon fill="#63b8ff" stroke="#63b8ff" points="338.88,-99.28 348.4,-103.91 343.85,-94.35 338.88,-99.28"/>
</a>
</g>
</g>
<!-- Node7 -->
<g id="Node000007" class="node">
<title>Node7</title>
<g id="a_Node000007"><a xlink:href="structxpath__parser.html#a49cbc6141508ace22ab4b8bd8ddf965a" target="_top" xlink:title=" ">
<polygon fill="white" stroke="#666666" points="267.88,-93.39 161.88,-93.39 161.88,-61.39 267.88,-61.39 267.88,-93.39"/>
<text xml:space="preserve" text-anchor="start" x="169.88" y="-79.89" font-family="Helvetica,sans-Serif" font-size="10.00">xpath_parser::parse</text>
<text xml:space="preserve" text-anchor="middle" x="214.88" y="-67.89" font-family="Helvetica,sans-Serif" font-size="10.00">_primary_expression</text>
</a>
</g>
</g>
<!-- Node3&#45;&gt;Node7 -->
<g id="edge8_Node000003_Node000007" class="edge">
<title>Node3&#45;&gt;Node7</title>
<g id="a_edge8_Node000003_Node000007"><a xlink:title=" ">
<path fill="none" stroke="#63b8ff" d="M302.71,-103.17C291.27,-99.77 279.41,-96.25 268.27,-92.95"/>
<polygon fill="#63b8ff" stroke="#63b8ff" points="301.49,-106.45 312.07,-105.94 303.48,-99.74 301.49,-106.45"/>
</a>
</g>
</g>
<!-- Node8 -->
<g id="Node000008" class="node">
<title>Node8</title>
<g id="a_Node000008"><a xlink:href="structxpath__parser.html#a0b226e2905970c868ab6a80d76da3a95" target="_top" xlink:title=" ">
<polygon fill="white" stroke="#666666" points="278,-169.39 151.75,-169.39 151.75,-149.39 278,-149.39 278,-169.39"/>
<text xml:space="preserve" text-anchor="middle" x="214.88" y="-155.89" font-family="Helvetica,sans-Serif" font-size="10.00">xpath_parser::parse_step</text>
</a>
</g>
</g>
<!-- Node3&#45;&gt;Node8 -->
<g id="edge10_Node000003_Node000008" class="edge">
<title>Node3&#45;&gt;Node8</title>
<g id="a_edge10_Node000003_Node000008"><a xlink:title=" ">
<path fill="none" stroke="#63b8ff" d="M302.4,-137.22C286.88,-141.19 270.63,-145.36 256.44,-149"/>
<polygon fill="#63b8ff" stroke="#63b8ff" points="303.24,-140.61 312.05,-134.74 301.5,-133.83 303.24,-140.61"/>
</a>
</g>
</g>
<!-- Node5 -->
<g id="Node000005" class="node">
<title>Node5</title>
<g id="a_Node000005"><a xlink:href="structxpath__parser.html#aad773be8b591966eb535018fcc2b6a66" target="_top" xlink:title=" ">
<polygon fill="white" stroke="#666666" points="109,-131.39 6.75,-131.39 6.75,-111.39 109,-111.39 109,-131.39"/>
<text xml:space="preserve" text-anchor="middle" x="57.88" y="-117.89" font-family="Helvetica,sans-Serif" font-size="10.00">xpath_parser::parse</text>
</a>
</g>
</g>
<!-- Node4&#45;&gt;Node5 -->
<g id="edge4_Node000004_Node000005" class="edge">
<title>Node4&#45;&gt;Node5</title>
<g id="a_edge4_Node000004_Node000005"><a xlink:title=" ">
<path fill="none" stroke="#63b8ff" d="M152.35,-121.39C138.13,-121.39 123.17,-121.39 109.48,-121.39"/>
<polygon fill="#63b8ff" stroke="#63b8ff" points="152.04,-124.89 162.04,-121.39 152.04,-117.89 152.04,-124.89"/>
</a>
</g>
</g>
<!-- Node6&#45;&gt;Node2 -->
<g id="edge6_Node000006_Node000002" class="edge">
<title>Node6&#45;&gt;Node2</title>
<g id="a_edge6_Node000006_Node000002"><a xlink:title=" ">
<path fill="none" stroke="#63b8ff" d="M120.31,-19.92C217.11,-1.77 409.07,21.63 554.5,-40.39 594.67,-57.53 628.84,-97.64 645.76,-120.21"/>
<polygon fill="#63b8ff" stroke="#63b8ff" points="119.91,-16.43 110.75,-21.76 121.23,-23.31 119.91,-16.43"/>
</a>
</g>
</g>
<!-- Node7&#45;&gt;Node6 -->
<g id="edge9_Node000007_Node000006" class="edge">
<title>Node7&#45;&gt;Node6</title>
<g id="a_edge9_Node000007_Node000006"><a xlink:title=" ">
<path fill="none" stroke="#63b8ff" d="M150.58,-59.43C136.89,-55.54 122.59,-51.48 109.46,-47.75"/>
<polygon fill="#63b8ff" stroke="#63b8ff" points="149.37,-62.72 159.94,-62.08 151.28,-55.99 149.37,-62.72"/>
</a>
</g>
</g>
<!-- Node9 -->
<g id="Node000009" class="node">
<title>Node9</title>
<g id="a_Node000009"><a xlink:href="structxpath__parser.html#aebea559423376001c89b19216dfc3012" target="_top" xlink:title=" ">
<polygon fill="white" stroke="#666666" points="115.75,-213.39 0,-213.39 0,-181.39 115.75,-181.39 115.75,-213.39"/>
<text xml:space="preserve" text-anchor="start" x="8" y="-199.89" font-family="Helvetica,sans-Serif" font-size="10.00">xpath_parser::parse</text>
<text xml:space="preserve" text-anchor="middle" x="57.88" y="-187.89" font-family="Helvetica,sans-Serif" font-size="10.00">_relative_location_path</text>
</a>
</g>
</g>
<!-- Node8&#45;&gt;Node9 -->
<g id="edge11_Node000008_Node000009" class="edge">
<title>Node8&#45;&gt;Node9</title>
<g id="a_edge11_Node000008_Node000009"><a xlink:title=" ">
<path fill="none" stroke="#63b8ff" d="M160,-172.6C145.78,-176.09 130.39,-179.86 116.01,-183.39"/>
<polygon fill="#63b8ff" stroke="#63b8ff" points="160.76,-176.02 169.64,-170.24 159.09,-169.22 160.76,-176.02"/>
</a>
</g>
</g>
<!-- Node9&#45;&gt;Node1 -->
<g id="edge12_Node000009_Node000001" class="edge">
<title>Node9&#45;&gt;Node1</title>
<g id="a_edge12_Node000009_Node000001"><a xlink:title=" ">
<path fill="none" stroke="#63b8ff" d="M127.13,-210.8C188.8,-221.74 282.18,-235.39 364.12,-235.39 504.38,-235.39 504.38,-235.39 504.38,-235.39 596.13,-235.39 700.75,-210.55 761.26,-193.67"/>
<polygon fill="#63b8ff" stroke="#63b8ff" points="127.95,-207.39 117.49,-209.06 126.71,-214.28 127.95,-207.39"/>
</a>
</g>
</g>
<!-- Node9&#45;&gt;Node2 -->
<g id="edge13_Node000009_Node000002" class="edge">
<title>Node9&#45;&gt;Node2</title>
<g id="a_edge13_Node000009_Node000002"><a xlink:title=" ">
<path fill="none" stroke="#63b8ff" d="M127.49,-192.28C223.27,-184.85 402.42,-169.92 554.5,-151.39 566.03,-149.99 578.26,-148.34 590.11,-146.66"/>
<polygon fill="#63b8ff" stroke="#63b8ff" points="127.44,-188.77 117.74,-193.03 127.98,-195.75 127.44,-188.77"/>
</a>
</g>
</g>
<!-- Node10&#45;&gt;Node3 -->
<g id="edge15_Node000010_Node000003" class="edge">
<title>Node10&#45;&gt;Node3</title>
<g id="a_edge15_Node000010_Node000003"><a xlink:title=" ">
<path fill="none" stroke="#63b8ff" d="M451.97,-86.11C436.8,-92.35 420.37,-99.1 405.98,-105.01"/>
<polygon fill="#63b8ff" stroke="#63b8ff" points="452.91,-89.51 460.83,-82.47 450.25,-83.03 452.91,-89.51"/>
</a>
</g>
</g>
<!-- Node10&#45;&gt;Node10 -->
<g id="edge16_Node000010_Node000010" class="edge">
<title>Node10&#45;&gt;Node10</title>
<g id="a_edge16_Node000010_Node000010"><a xlink:title=" ">
<path fill="none" stroke="#63b8ff" d="M526.41,-93.1C522.57,-96.88 514.89,-99.39 503.38,-99.39 482.31,-99.39 474.09,-90.98 478.69,-81.84"/>
<polygon fill="#63b8ff" stroke="#63b8ff" points="529.86,-93.74 527.84,-83.33 522.93,-92.72 529.86,-93.74"/>
</a>
</g>
</g>
</g>
</svg>

<g id="navigator" transform="translate(0 0)" fill="#404254">
  <rect fill="#f2f5e9" fill-opacity="0.5" stroke="#606060" stroke-width=".5" x="0" y="0" width="60" height="60"/>
  <use id="zoomplus" xlink:href="#zoomPlus" x="17" y="9" onmousedown="handleZoom(evt,'in')"/>
  <use id="zoomminus" xlink:href="#zoomMin" x="42" y="9" onmousedown="handleZoom(evt,'out')"/>
  <use id="reset" xlink:href="#resetDef" x="30" y="36" onmousedown="handleReset()"/>
   <use id="arrowup" xlink:href="#arrowUp" x="0" y="0" onmousedown="handlePan(0,-1)"/>
  <use id="arrowright" xlink:href="#arrowRight" x="0" y="0" onmousedown="handlePan(1,0)"/>
  <use id="arrowdown" xlink:href="#arrowDown" x="0" y="0" onmousedown="handlePan(0,1)"/>
  <use id="arrowleft" xlink:href="#arrowLeft" x="0" y="0" onmousedown="handlePan(-1,0)"/>
</g>
<svg viewBox="0 0 15 15" width="100%" height="30px" preserveAspectRatio="xMaxYMin meet">
 <g id="arrow_out" transform="scale(0.3 0.3)">
  <a xlink:href="structxpath__parser_af14e396ddb7817998ec221eec6b781ab_icgraph_org.svg" target="_base">
   <rect id="button" ry="5" rx="5" y="6" x="6" height="38" width="38"
        fill="#f2f5e9" fill-opacity="0.5" stroke="#606060" stroke-width="1.0"/>
   <path id="arrow"
     d="M 11.500037,31.436501 C 11.940474,20.09759 22.043105,11.32322 32.158766,21.979434 L 37.068811,17.246167 C 37.068811,17.246167 37.088388,32 37.088388,32 L 22.160133,31.978069 C 22.160133,31.978069 26.997745,27.140456 26.997745,27.140456 C 18.528582,18.264221 13.291696,25.230495 11.500037,31.436501 z"
     style="fill:#404040;"/>
  </a>
 </g>
</svg>

<style type='text/css'>
<![CDATA[
[data-mouse-over-selected='false'] { opacity: 0.7; }
[data-mouse-over-selected='true']  { opacity: 1.0; }
]]>
</style>
<script type="application/ecmascript"><![CDATA[
document.addEventListener('DOMContentLoaded', (event) => {
  highlightEdges();
  highlightAdjacentNodes();
});
]]></script>
</svg>
