<?xml version="1.0" encoding="UTF-8" standalone="no"?>
<!DOCTYPE svg PUBLIC "-//W3C//DTD SVG 1.1//EN"
 "http://www.w3.org/Graphics/SVG/1.1/DTD/svg11.dtd">
<!-- Generated by graphviz version 14.1.2 (20260124.0452)
 -->
<!-- Title: xml_document_struct Pages: 1 -->
<svg width="188pt" height="84pt"
 viewBox="0.00 0.00 188.00 84.00" xmlns="http://www.w3.org/2000/svg" xmlns:xlink="http://www.w3.org/1999/xlink">
<g id="graph0" class="graph" transform="scale(1 1) rotate(0) translate(4 80)">
<title>xml_document_struct</title>
<!-- Node1 -->
<g id="Node000001" class="node">
<title>Node1</title>
<g id="a_Node000001"><a xlink:title=" ">
<polygon fill="#999999" stroke="#666666" points="147.88,-20 38.13,-20 38.13,0 147.88,0 147.88,-20"/>
<text xml:space="preserve" text-anchor="middle" x="93" y="-6.5" font-family="Helvetica,sans-Serif" font-size="10.00">xml_document_struct</text>
</a>
</g>
</g>
<!-- Node2 -->
<g id="Node000002" class="node">
<title>Node2</title>
<g id="a_Node000002"><a xlink:title=" ">
<polygon fill="white" stroke="#666666" points="88,-76 0,-76 0,-56 88,-56 88,-76"/>
<text xml:space="preserve" text-anchor="middle" x="44" y="-62.5" font-family="Helvetica,sans-Serif" font-size="10.00">xml_node_struct</text>
</a>
</g>
</g>
<!-- Node2&#45;&gt;Node1 -->
<g id="edge1_Node000001_Node000002" class="edge">
<title>Node2&#45;&gt;Node1</title>
<g id="a_edge1_Node000001_Node000002"><a xlink:title=" ">
<path fill="none" stroke="#63b8ff" d="M60.07,-47.29C68.25,-38.28 77.85,-27.7 84.56,-20.3"/>
<polygon fill="#63b8ff" stroke="#63b8ff" points="57.68,-44.72 53.55,-54.47 62.86,-49.42 57.68,-44.72"/>
</a>
</g>
</g>
<!-- Node3 -->
<g id="Node000003" class="node">
<title>Node3</title>
<g id="a_Node000003"><a xlink:href="structxml__allocator.html" target="_top" xlink:title=" ">
<polygon fill="white" stroke="#666666" points="179.88,-76 106.12,-76 106.12,-56 179.88,-56 179.88,-76"/>
<text xml:space="preserve" text-anchor="middle" x="143" y="-62.5" font-family="Helvetica,sans-Serif" font-size="10.00">xml_allocator</text>
</a>
</g>
</g>
<!-- Node3&#45;&gt;Node1 -->
<g id="edge2_Node000001_Node000003" class="edge">
<title>Node3&#45;&gt;Node1</title>
<g id="a_edge2_Node000001_Node000003"><a xlink:title=" ">
<path fill="none" stroke="#63b8ff" d="M126.6,-47.29C118.26,-38.28 108.46,-27.7 101.61,-20.3"/>
<polygon fill="#63b8ff" stroke="#63b8ff" points="123.9,-49.52 133.26,-54.48 129.04,-44.77 123.9,-49.52"/>
</a>
</g>
</g>
</g>
</svg>
