<?xml version="1.0" encoding="UTF-8" standalone="no"?>
<!DOCTYPE svg PUBLIC "-//W3C//DTD SVG 1.1//EN"
 "http://www.w3.org/Graphics/SVG/1.1/DTD/svg11.dtd">
<!-- Generated by graphviz version 14.1.2 (20260124.0452)
 -->
<!-- Title: xpath_parser::error Pages: 1 -->
<svg width="1158pt" height="460pt"
 viewBox="0.00 0.00 1158.00 460.00" xmlns="http://www.w3.org/2000/svg" xmlns:xlink="http://www.w3.org/1999/xlink">
<g id="graph0" class="graph" transform="scale(1 1) rotate(0) translate(4 456.41)">
<title>xpath_parser::error</title>
<!-- Node1 -->
<g id="Node000001" class="node">
<title>Node1</title>
<g id="a_Node000001"><a xlink:title=" ">
<polygon fill="#999999" stroke="#666666" points="1150.25,-203.18 1052.5,-203.18 1052.5,-183.18 1150.25,-183.18 1150.25,-203.18"/>
<text xml:space="preserve" text-anchor="middle" x="1101.38" y="-189.68" font-family="Helvetica,sans-Serif" font-size="10.00">xpath_parser::error</text>
</a>
</g>
</g>
<!-- Node2 -->
<g id="Node000002" class="node">
<title>Node2</title>
<g id="a_Node000002"><a xlink:href="structxpath__parser.html#a6c99a4ff18254581f34ec6b715885d99" target="_top" xlink:title=" ">
<polygon fill="white" stroke="#666666" points="1016.5,-244.18 900,-244.18 900,-224.18 1016.5,-224.18 1016.5,-244.18"/>
<text xml:space="preserve" text-anchor="middle" x="958.25" y="-230.68" font-family="Helvetica,sans-Serif" font-size="10.00">xpath_parser::error_rec</text>
</a>
</g>
</g>
<!-- Node1&#45;&gt;Node2 -->
<g id="edge1_Node000001_Node000002" class="edge">
<title>Node1&#45;&gt;Node2</title>
<g id="a_edge1_Node000001_Node000002"><a xlink:title=" ">
<path fill="none" stroke="#63b8ff" d="M1053.55,-206.78C1034.53,-212.31 1012.9,-218.59 995.16,-223.74"/>
<polygon fill="#63b8ff" stroke="#63b8ff" points="1054.32,-210.2 1062.94,-204.05 1052.37,-203.48 1054.32,-210.2"/>
</a>
</g>
</g>
<!-- Node4 -->
<g id="Node000004" class="node">
<title>Node4</title>
<g id="a_Node000004"><a xlink:href="structxpath__parser.html#aa3fe0e7d23131b3943d8248646ecd362" target="_top" xlink:title=" ">
<polygon fill="white" stroke="#666666" points="713.75,-86.18 611.5,-86.18 611.5,-66.18 713.75,-66.18 713.75,-86.18"/>
<text xml:space="preserve" text-anchor="middle" x="662.62" y="-72.68" font-family="Helvetica,sans-Serif" font-size="10.00">xpath_parser::parse</text>
</a>
</g>
</g>
<!-- Node1&#45;&gt;Node4 -->
<g id="edge24_Node000001_Node000004" class="edge">
<title>Node1&#45;&gt;Node4</title>
<g id="a_edge24_Node000001_Node000004"><a xlink:title=" ">
<path fill="none" stroke="#63b8ff" d="M1051.63,-179.75C1040.11,-176.59 1027.88,-173.25 1016.5,-170.18 902.97,-139.49 768.69,-103.92 703.34,-86.66"/>
<polygon fill="#63b8ff" stroke="#63b8ff" points="1050.37,-183.03 1060.94,-182.3 1052.22,-176.28 1050.37,-183.03"/>
</a>
</g>
</g>
<!-- Node6 -->
<g id="Node000006" class="node">
<title>Node6</title>
<g id="a_Node000006"><a xlink:href="structxpath__parser.html#a61a425d990a56d5db8cd14405835a5b6" target="_top" xlink:title=" ">
<polygon fill="white" stroke="#666666" points="556.75,-338.18 454.5,-338.18 454.5,-306.18 556.75,-306.18 556.75,-338.18"/>
<text xml:space="preserve" text-anchor="start" x="462.5" y="-324.68" font-family="Helvetica,sans-Serif" font-size="10.00">xpath_parser::parse</text>
<text xml:space="preserve" text-anchor="middle" x="505.62" y="-312.68" font-family="Helvetica,sans-Serif" font-size="10.00">_filter_expression</text>
</a>
</g>
</g>
<!-- Node1&#45;&gt;Node6 -->
<g id="edge26_Node000001_Node000006" class="edge">
<title>Node1&#45;&gt;Node6</title>
<g id="a_edge26_Node000001_Node000006"><a xlink:title=" ">
<path fill="none" stroke="#63b8ff" d="M1095.93,-214.39C1087.06,-251.78 1063.84,-329.83 1016.5,-376.18 963.72,-427.84 936.32,-427.2 864,-442.18 746.77,-466.46 706.14,-445.59 599.5,-391.18 571.23,-376.75 542.48,-353.85 524.61,-338.43"/>
<polygon fill="#63b8ff" stroke="#63b8ff" points="1099.29,-215.37 1098.06,-204.85 1092.46,-213.84 1099.29,-215.37"/>
</a>
</g>
</g>
<!-- Node7 -->
<g id="Node000007" class="node">
<title>Node7</title>
<g id="a_Node000007"><a xlink:href="structxpath__parser.html#ab5275305ebaac95fd68a3186b737aaa7" target="_top" xlink:title=" ">
<polygon fill="white" stroke="#666666" points="273.5,-215.18 138.25,-215.18 138.25,-183.18 273.5,-183.18 273.5,-215.18"/>
<text xml:space="preserve" text-anchor="start" x="146.25" y="-201.68" font-family="Helvetica,sans-Serif" font-size="10.00">xpath_parser::parse</text>
<text xml:space="preserve" text-anchor="middle" x="205.88" y="-189.68" font-family="Helvetica,sans-Serif" font-size="10.00">_path_or_unary_expression</text>
</a>
</g>
</g>
<!-- Node1&#45;&gt;Node7 -->
<g id="edge29_Node000001_Node000007" class="edge">
<title>Node1&#45;&gt;Node7</title>
<g id="a_edge29_Node000001_Node000007"><a xlink:title=" ">
<path fill="none" stroke="#63b8ff" d="M1082.54,-175.19C1040.07,-134.36 927.92,-38.18 813.88,-38.18 813.88,-38.18 813.88,-38.18 504.62,-38.18 477.56,-38.18 371.6,-70.04 309.5,-107.18 274.18,-128.3 239.99,-162.57 221.36,-182.78"/>
<polygon fill="#63b8ff" stroke="#63b8ff" points="1079.85,-177.45 1089.44,-181.95 1084.75,-172.45 1079.85,-177.45"/>
</a>
</g>
</g>
<!-- Node8 -->
<g id="Node000008" class="node">
<title>Node8</title>
<g id="a_Node000008"><a xlink:href="structxpath__parser.html#adcd54e9b508acfe1f040ee7a54b88f2a" target="_top" xlink:title=" ">
<polygon fill="white" stroke="#666666" points="102.25,-257.18 0,-257.18 0,-225.18 102.25,-225.18 102.25,-257.18"/>
<text xml:space="preserve" text-anchor="start" x="8" y="-243.68" font-family="Helvetica,sans-Serif" font-size="10.00">xpath_parser::parse</text>
<text xml:space="preserve" text-anchor="middle" x="51.12" y="-231.68" font-family="Helvetica,sans-Serif" font-size="10.00">_expression_rec</text>
</a>
</g>
</g>
<!-- Node1&#45;&gt;Node8 -->
<g id="edge25_Node000001_Node000008" class="edge">
<title>Node1&#45;&gt;Node8</title>
<g id="a_edge25_Node000001_Node000008"><a xlink:title=" ">
<path fill="none" stroke="#63b8ff" d="M1093.56,-172.08C1082.46,-141.18 1057.52,-83.94 1016.5,-53.18 942.03,2.67 906.96,-0.18 813.88,-0.18 813.88,-0.18 813.88,-0.18 359.62,-0.18 213.46,-0.18 95.47,-170.96 61.8,-224.99"/>
<polygon fill="#63b8ff" stroke="#63b8ff" points="1090.21,-173.11 1096.76,-181.44 1096.83,-170.85 1090.21,-173.11"/>
</a>
</g>
</g>
<!-- Node9 -->
<g id="Node000009" class="node">
<title>Node9</title>
<g id="a_Node000009"><a xlink:href="structxpath__parser.html#a49cbc6141508ace22ab4b8bd8ddf965a" target="_top" xlink:title=" ">
<polygon fill="white" stroke="#666666" points="715.62,-382.18 609.62,-382.18 609.62,-350.18 715.62,-350.18 715.62,-382.18"/>
<text xml:space="preserve" text-anchor="start" x="617.62" y="-368.68" font-family="Helvetica,sans-Serif" font-size="10.00">xpath_parser::parse</text>
<text xml:space="preserve" text-anchor="middle" x="662.62" y="-356.68" font-family="Helvetica,sans-Serif" font-size="10.00">_primary_expression</text>
</a>
</g>
</g>
<!-- Node1&#45;&gt;Node9 -->
<g id="edge30_Node000001_Node000009" class="edge">
<title>Node1&#45;&gt;Node9</title>
<g id="a_edge30_Node000001_Node000009"><a xlink:title=" ">
<path fill="none" stroke="#63b8ff" d="M1089.36,-213.58C1074.88,-239.2 1047.63,-283.61 1016.5,-315.18 958.18,-374.31 943.14,-397.99 864,-423.18 820.7,-436.96 804.86,-437.55 761.75,-423.18 742.78,-416.85 742.84,-406.58 725.75,-396.18 717.87,-391.38 709.11,-386.76 700.71,-382.64"/>
<polygon fill="#63b8ff" stroke="#63b8ff" points="1092.4,-215.32 1094.18,-204.87 1086.27,-211.93 1092.4,-215.32"/>
</a>
</g>
</g>
<!-- Node10 -->
<g id="Node000010" class="node">
<title>Node10</title>
<g id="a_Node000010"><a xlink:href="structxpath__parser.html#a0b226e2905970c868ab6a80d76da3a95" target="_top" xlink:title=" ">
<polygon fill="white" stroke="#666666" points="725.75,-162.18 599.5,-162.18 599.5,-142.18 725.75,-142.18 725.75,-162.18"/>
<text xml:space="preserve" text-anchor="middle" x="662.62" y="-148.68" font-family="Helvetica,sans-Serif" font-size="10.00">xpath_parser::parse_step</text>
</a>
</g>
</g>
<!-- Node1&#45;&gt;Node10 -->
<g id="edge31_Node000001_Node000010" class="edge">
<title>Node1&#45;&gt;Node10</title>
<g id="a_edge31_Node000001_Node000010"><a xlink:title=" ">
<path fill="none" stroke="#63b8ff" d="M1040.96,-187.6C958.52,-179.86 810.11,-165.93 726.08,-158.04"/>
<polygon fill="#63b8ff" stroke="#63b8ff" points="1040.6,-191.08 1050.88,-188.53 1041.25,-184.11 1040.6,-191.08"/>
</a>
</g>
</g>
<!-- Node13 -->
<g id="Node000013" class="node">
<title>Node13</title>
<g id="a_Node000013"><a xlink:href="structxpath__parser.html#a9a68f1cbf9900714aefe00059a66a22d" target="_top" xlink:title=" ">
<polygon fill="white" stroke="#666666" points="864,-414.18 761.75,-414.18 761.75,-382.18 864,-382.18 864,-414.18"/>
<text xml:space="preserve" text-anchor="start" x="769.75" y="-400.68" font-family="Helvetica,sans-Serif" font-size="10.00">xpath_parser::parse</text>
<text xml:space="preserve" text-anchor="middle" x="812.88" y="-388.68" font-family="Helvetica,sans-Serif" font-size="10.00">_function</text>
</a>
</g>
</g>
<!-- Node1&#45;&gt;Node13 -->
<g id="edge27_Node000001_Node000013" class="edge">
<title>Node1&#45;&gt;Node13</title>
<g id="a_edge27_Node000001_Node000013"><a xlink:title=" ">
<path fill="none" stroke="#63b8ff" d="M1078.5,-210.5C1037.39,-242.81 945.4,-313.88 864,-368.18 857.17,-372.74 849.64,-377.41 842.54,-381.68"/>
<polygon fill="#63b8ff" stroke="#63b8ff" points="1080.5,-213.39 1086.19,-204.45 1076.16,-207.89 1080.5,-213.39"/>
</a>
</g>
</g>
<!-- Node3 -->
<g id="Node000003" class="node">
<title>Node3</title>
<g id="a_Node000003"><a xlink:href="structxpath__parser.html#a7738e256011ca842dc2a0beba78562ed" target="_top" xlink:title=" ">
<polygon fill="white" stroke="#666666" points="864,-250.18 761.75,-250.18 761.75,-218.18 864,-218.18 864,-250.18"/>
<text xml:space="preserve" text-anchor="start" x="769.75" y="-236.68" font-family="Helvetica,sans-Serif" font-size="10.00">xpath_parser::parse</text>
<text xml:space="preserve" text-anchor="middle" x="812.88" y="-224.68" font-family="Helvetica,sans-Serif" font-size="10.00">_expression</text>
</a>
</g>
</g>
<!-- Node2&#45;&gt;Node3 -->
<g id="edge2_Node000002_Node000003" class="edge">
<title>Node2&#45;&gt;Node3</title>
<g id="a_edge2_Node000002_Node000003"><a xlink:title=" ">
<path fill="none" stroke="#63b8ff" d="M888.41,-234.18C880.33,-234.18 872.2,-234.18 864.44,-234.18"/>
<polygon fill="#63b8ff" stroke="#63b8ff" points="888.25,-237.68 898.25,-234.18 888.25,-230.68 888.25,-237.68"/>
</a>
</g>
</g>
<!-- Node2&#45;&gt;Node6 -->
<g id="edge20_Node000002_Node000006" class="edge">
<title>Node2&#45;&gt;Node6</title>
<g id="a_edge20_Node000002_Node000006"><a xlink:title=" ">
<path fill="none" stroke="#63b8ff" d="M908.13,-247.62C893.92,-251.43 878.36,-255.54 864,-259.18 802.76,-274.69 787.84,-280.55 725.75,-292.18 668.2,-302.96 601.45,-311.54 556.89,-316.72"/>
<polygon fill="#63b8ff" stroke="#63b8ff" points="909,-251.01 917.74,-245.03 907.17,-244.25 909,-251.01"/>
</a>
</g>
</g>
<!-- Node2&#45;&gt;Node8 -->
<g id="edge19_Node000002_Node000008" class="edge">
<title>Node2&#45;&gt;Node8</title>
<g id="a_edge19_Node000002_Node000008"><a xlink:title=" ">
<path fill="none" stroke="#63b8ff" d="M911.64,-249.71C907.45,-252.17 903.48,-254.98 900,-258.18 874.54,-281.59 889.16,-303.44 864,-327.18 827.75,-361.38 806.77,-351.81 761.75,-373.18 745.59,-380.85 742.5,-384.89 725.75,-391.18 631.54,-426.54 607.25,-448.18 506.62,-448.18 506.62,-448.18 506.62,-448.18 359.62,-448.18 223.19,-448.18 101.85,-306.22 64.16,-257.42"/>
<polygon fill="#63b8ff" stroke="#63b8ff" points="913.01,-252.94 920.33,-245.29 909.83,-246.7 913.01,-252.94"/>
</a>
</g>
</g>
<!-- Node2&#45;&gt;Node9 -->
<g id="edge21_Node000002_Node000009" class="edge">
<title>Node2&#45;&gt;Node9</title>
<g id="a_edge21_Node000002_Node000009"><a xlink:title=" ">
<path fill="none" stroke="#63b8ff" d="M933.27,-250.99C914.88,-263.4 888.56,-280.16 864,-292.18 815.37,-315.98 757.03,-336.7 715.88,-350.11"/>
<polygon fill="#63b8ff" stroke="#63b8ff" points="935.08,-253.98 941.36,-245.45 931.13,-248.21 935.08,-253.98"/>
</a>
</g>
</g>
<!-- Node2&#45;&gt;Node10 -->
<g id="edge23_Node000002_Node000010" class="edge">
<title>Node2&#45;&gt;Node10</title>
<g id="a_edge23_Node000002_Node000010"><a xlink:title=" ">
<path fill="none" stroke="#63b8ff" d="M908.99,-220.7C850.66,-204.41 753.78,-177.35 700.89,-162.58"/>
<polygon fill="#63b8ff" stroke="#63b8ff" points="907.73,-223.98 918.31,-223.3 909.62,-217.24 907.73,-223.98"/>
</a>
</g>
</g>
<!-- Node11 -->
<g id="Node000011" class="node">
<title>Node11</title>
<g id="a_Node000011"><a xlink:href="structxpath__parser.html#aebea559423376001c89b19216dfc3012" target="_top" xlink:title=" ">
<polygon fill="white" stroke="#666666" points="563.5,-149.18 447.75,-149.18 447.75,-117.18 563.5,-117.18 563.5,-149.18"/>
<text xml:space="preserve" text-anchor="start" x="455.75" y="-135.68" font-family="Helvetica,sans-Serif" font-size="10.00">xpath_parser::parse</text>
<text xml:space="preserve" text-anchor="middle" x="505.62" y="-123.68" font-family="Helvetica,sans-Serif" font-size="10.00">_relative_location_path</text>
</a>
</g>
</g>
<!-- Node2&#45;&gt;Node11 -->
<g id="edge22_Node000002_Node000011" class="edge">
<title>Node2&#45;&gt;Node11</title>
<g id="a_edge22_Node000002_Node000011"><a xlink:title=" ">
<path fill="none" stroke="#63b8ff" d="M933.38,-217.37C915.05,-205.01 888.76,-188.48 864,-177.18 805.35,-150.39 789.47,-143.07 725.75,-133.18 671.24,-124.71 608.18,-125.84 563.75,-128.4"/>
<polygon fill="#63b8ff" stroke="#63b8ff" points="931.21,-220.12 941.43,-222.88 935.16,-214.35 931.21,-220.12"/>
</a>
</g>
</g>
<!-- Node3&#45;&gt;Node4 -->
<g id="edge3_Node000003_Node000004" class="edge">
<title>Node3&#45;&gt;Node4</title>
<g id="a_edge3_Node000003_Node000004"><a xlink:title=" ">
<path fill="none" stroke="#63b8ff" d="M791.86,-209.01C774.9,-188.12 749.61,-157.92 725.75,-133.18 709.09,-115.9 688.28,-97.37 675.47,-86.28"/>
<polygon fill="#63b8ff" stroke="#63b8ff" points="789.08,-211.14 798.08,-216.73 794.53,-206.75 789.08,-211.14"/>
</a>
</g>
</g>
<!-- Node3&#45;&gt;Node6 -->
<g id="edge5_Node000003_Node000006" class="edge">
<title>Node3&#45;&gt;Node6</title>
<g id="a_edge5_Node000003_Node000006"><a xlink:title=" ">
<path fill="none" stroke="#63b8ff" d="M750.54,-252.84C742.21,-255.33 733.78,-257.83 725.75,-260.18 668.07,-277.04 601.64,-295.74 557.18,-308.14"/>
<polygon fill="#63b8ff" stroke="#63b8ff" points="751.35,-256.25 759.92,-250.02 749.33,-249.54 751.35,-256.25"/>
</a>
</g>
</g>
<!-- Node3&#45;&gt;Node7 -->
<g id="edge11_Node000003_Node000007" class="edge">
<title>Node3&#45;&gt;Node7</title>
<g id="a_edge11_Node000003_Node000007"><a xlink:title=" ">
<path fill="none" stroke="#63b8ff" d="M750.01,-226.31C635.52,-216.45 391.54,-202.29 273.54,-198.61"/>
<polygon fill="#63b8ff" stroke="#63b8ff" points="749.56,-229.78 759.83,-227.17 750.17,-222.81 749.56,-229.78"/>
</a>
</g>
</g>
<!-- Node3&#45;&gt;Node9 -->
<g id="edge12_Node000003_Node000009" class="edge">
<title>Node3&#45;&gt;Node9</title>
<g id="a_edge12_Node000003_Node000009"><a xlink:title=" ">
<path fill="none" stroke="#63b8ff" d="M785.11,-258.01C755.24,-284.6 707.74,-326.9 681.87,-349.93"/>
<polygon fill="#63b8ff" stroke="#63b8ff" points="787.13,-260.9 792.27,-251.64 782.47,-255.67 787.13,-260.9"/>
</a>
</g>
</g>
<!-- Node3&#45;&gt;Node10 -->
<g id="edge14_Node000003_Node000010" class="edge">
<title>Node3&#45;&gt;Node10</title>
<g id="a_edge14_Node000003_Node000010"><a xlink:title=" ">
<path fill="none" stroke="#63b8ff" d="M773.34,-211.77C769.38,-209.27 765.46,-206.72 761.75,-204.18 745.02,-192.73 743.39,-186.16 725.75,-176.18 716.49,-170.94 705.86,-166.37 696.05,-162.66"/>
<polygon fill="#63b8ff" stroke="#63b8ff" points="771.49,-214.74 781.84,-217 775.16,-208.78 771.49,-214.74"/>
</a>
</g>
</g>
<!-- Node5 -->
<g id="Node000005" class="node">
<title>Node5</title>
<g id="a_Node000005"><a xlink:href="structxpath__parser.html#aad773be8b591966eb535018fcc2b6a66" target="_top" xlink:title=" ">
<polygon fill="white" stroke="#666666" points="556.75,-86.18 454.5,-86.18 454.5,-66.18 556.75,-66.18 556.75,-86.18"/>
<text xml:space="preserve" text-anchor="middle" x="505.62" y="-72.68" font-family="Helvetica,sans-Serif" font-size="10.00">xpath_parser::parse</text>
</a>
</g>
</g>
<!-- Node4&#45;&gt;Node5 -->
<g id="edge4_Node000004_Node000005" class="edge">
<title>Node4&#45;&gt;Node5</title>
<g id="a_edge4_Node000004_Node000005"><a xlink:title=" ">
<path fill="none" stroke="#63b8ff" d="M600.1,-76.18C585.88,-76.18 570.92,-76.18 557.23,-76.18"/>
<polygon fill="#63b8ff" stroke="#63b8ff" points="599.79,-79.68 609.79,-76.18 599.79,-72.68 599.79,-79.68"/>
</a>
</g>
</g>
<!-- Node6&#45;&gt;Node7 -->
<g id="edge6_Node000006_Node000007" class="edge">
<title>Node6&#45;&gt;Node7</title>
<g id="a_edge6_Node000006_Node000007"><a xlink:title=" ">
<path fill="none" stroke="#63b8ff" d="M454.28,-301.38C395.67,-277.17 300.07,-237.68 246.49,-215.54"/>
<polygon fill="#63b8ff" stroke="#63b8ff" points="452.8,-304.56 463.38,-305.14 455.47,-298.09 452.8,-304.56"/>
</a>
</g>
</g>
<!-- Node7&#45;&gt;Node3 -->
<g id="edge7_Node000007_Node000003" class="edge">
<title>Node7&#45;&gt;Node3</title>
<g id="a_edge7_Node000007_Node000003"><a xlink:title=" ">
<path fill="none" stroke="#63b8ff" d="M284.99,-208.41C411.01,-218.65 655.72,-232.55 761.33,-235.2"/>
<polygon fill="#63b8ff" stroke="#63b8ff" points="285.3,-204.92 275.05,-207.58 284.72,-211.9 285.3,-204.92"/>
</a>
</g>
</g>
<!-- Node7&#45;&gt;Node8 -->
<g id="edge8_Node000007_Node000008" class="edge">
<title>Node7&#45;&gt;Node8</title>
<g id="a_edge8_Node000007_Node000008"><a xlink:title=" ">
<path fill="none" stroke="#63b8ff" d="M133.96,-218.68C123.34,-221.6 112.58,-224.56 102.5,-227.33"/>
<polygon fill="#63b8ff" stroke="#63b8ff" points="134.77,-222.08 143.48,-216.06 132.91,-215.33 134.77,-222.08"/>
</a>
</g>
</g>
<!-- Node8&#45;&gt;Node3 -->
<g id="edge9_Node000008_Node000003" class="edge">
<title>Node8&#45;&gt;Node3</title>
<g id="a_edge9_Node000008_Node000003"><a xlink:title=" ">
<path fill="none" stroke="#63b8ff" d="M113.81,-241.26C209.92,-241.31 401.2,-241.13 563.5,-239.18 632.07,-238.35 711.28,-236.62 761.45,-235.43"/>
<polygon fill="#63b8ff" stroke="#63b8ff" points="114.09,-237.76 104.09,-241.25 114.08,-244.76 114.09,-237.76"/>
</a>
</g>
</g>
<!-- Node8&#45;&gt;Node8 -->
<g id="edge10_Node000008_Node000008" class="edge">
<title>Node8&#45;&gt;Node8</title>
<g id="a_edge10_Node000008_Node000008"><a xlink:title=" ">
<path fill="none" stroke="#63b8ff" d="M76.91,-268.88C72.61,-272.66 64.02,-275.18 51.12,-275.18 27.55,-275.18 18.34,-266.76 23.5,-257.62"/>
<polygon fill="#63b8ff" stroke="#63b8ff" points="80.35,-269.55 78.51,-259.11 73.44,-268.42 80.35,-269.55"/>
</a>
</g>
</g>
<!-- Node9&#45;&gt;Node6 -->
<g id="edge13_Node000009_Node000006" class="edge">
<title>Node9&#45;&gt;Node6</title>
<g id="a_edge13_Node000009_Node000006"><a xlink:title=" ">
<path fill="none" stroke="#63b8ff" d="M598.33,-348.21C584.64,-344.32 570.34,-340.26 557.21,-336.54"/>
<polygon fill="#63b8ff" stroke="#63b8ff" points="597.12,-351.5 607.69,-350.87 599.03,-344.77 597.12,-351.5"/>
</a>
</g>
</g>
<!-- Node10&#45;&gt;Node11 -->
<g id="edge15_Node000010_Node000011" class="edge">
<title>Node10&#45;&gt;Node11</title>
<g id="a_edge15_Node000010_Node000011"><a xlink:title=" ">
<path fill="none" stroke="#63b8ff" d="M587.78,-143.13C579.77,-142.14 571.71,-141.16 563.95,-140.2"/>
<polygon fill="#63b8ff" stroke="#63b8ff" points="587.17,-146.58 597.53,-144.32 588.03,-139.63 587.17,-146.58"/>
</a>
</g>
</g>
<!-- Node11&#45;&gt;Node7 -->
<g id="edge18_Node000011_Node000007" class="edge">
<title>Node11&#45;&gt;Node7</title>
<g id="a_edge18_Node000011_Node000007"><a xlink:title=" ">
<path fill="none" stroke="#63b8ff" d="M436.59,-116.55C398.32,-110.24 350.19,-107.47 309.5,-121.18 273.45,-133.32 240.02,-163.73 221.63,-182.8"/>
<polygon fill="#63b8ff" stroke="#63b8ff" points="435.67,-119.94 446.13,-118.25 436.9,-113.05 435.67,-119.94"/>
</a>
</g>
</g>
<!-- Node12 -->
<g id="Node000012" class="node">
<title>Node12</title>
<g id="a_Node000012"><a xlink:href="structxpath__parser.html#af14e396ddb7817998ec221eec6b781ab" target="_top" xlink:title=" ">
<polygon fill="white" stroke="#666666" points="411.75,-162.18 309.5,-162.18 309.5,-130.18 411.75,-130.18 411.75,-162.18"/>
<text xml:space="preserve" text-anchor="start" x="317.5" y="-148.68" font-family="Helvetica,sans-Serif" font-size="10.00">xpath_parser::parse</text>
<text xml:space="preserve" text-anchor="middle" x="360.62" y="-136.68" font-family="Helvetica,sans-Serif" font-size="10.00">_location_path</text>
</a>
</g>
</g>
<!-- Node11&#45;&gt;Node12 -->
<g id="edge16_Node000011_Node000012" class="edge">
<title>Node11&#45;&gt;Node12</title>
<g id="a_edge16_Node000011_Node000012"><a xlink:title=" ">
<path fill="none" stroke="#63b8ff" d="M435.97,-139.42C427.91,-140.15 419.8,-140.89 412.06,-141.59"/>
<polygon fill="#63b8ff" stroke="#63b8ff" points="436.14,-142.92 445.78,-138.53 435.5,-135.95 436.14,-142.92"/>
</a>
</g>
</g>
<!-- Node12&#45;&gt;Node7 -->
<g id="edge17_Node000012_Node000007" class="edge">
<title>Node12&#45;&gt;Node7</title>
<g id="a_edge17_Node000012_Node000007"><a xlink:title=" ">
<path fill="none" stroke="#63b8ff" d="M301.54,-166.33C285.95,-171.74 269.28,-177.53 254.34,-182.71"/>
<polygon fill="#63b8ff" stroke="#63b8ff" points="302.4,-169.74 310.7,-163.15 300.11,-163.12 302.4,-169.74"/>
</a>
</g>
</g>
<!-- Node13&#45;&gt;Node9 -->
<g id="edge28_Node000013_Node000009" class="edge">
<title>Node13&#45;&gt;Node9</title>
<g id="a_edge28_Node000013_Node000009"><a xlink:title=" ">
<path fill="none" stroke="#63b8ff" d="M750.11,-384.85C738.78,-382.4 727.05,-379.87 716.02,-377.49"/>
<polygon fill="#63b8ff" stroke="#63b8ff" points="749.28,-388.25 759.79,-386.94 750.75,-381.4 749.28,-388.25"/>
</a>
</g>
</g>
</g>
</svg>
