<?xml version="1.0" encoding="UTF-8" standalone="no"?>
<!DOCTYPE svg PUBLIC "-//W3C//DTD SVG 1.1//EN"
 "http://www.w3.org/Graphics/SVG/1.1/DTD/svg11.dtd">
<!-- Generated by graphviz version 14.1.2 (20260124.0452)
 -->
<!-- Title: xpath_allocator::allocate Pages: 1 -->
<!--zoomable 379 -->

<svg id="main" version="1.1" xmlns="http://www.w3.org/2000/svg" xmlns:xlink="http://www.w3.org/1999/xlink" xml:space="preserve" onload="init(evt)">

<style type="text/css"><![CDATA[
.node, .edge {opacity: 0.7;}
.node.selected, .edge.selected {opacity: 1;}
.edge:hover path { stroke: red; }
.edge:hover polygon { stroke: red; fill: red; }
]]></style>

<defs>
  <circle id="rim" cx="0" cy="0" r="7"/>
  <circle id="rim2" cx="0" cy="0" r="3.5"/>
  <g id="zoomPlus">
    <use xlink:href="#rim" fill="#404040"><set attributeName="fill" to="#808080" begin="zoomplus.mouseover" end="zoomplus.mouseout"/></use>
    <path d="M-4,0h8M0,-4v8" fill="none" stroke="white" stroke-width="1.5" pointer-events="none"/>
  </g>
  <g id="zoomMin">
    <use xlink:href="#rim" fill="#404040"><set attributeName="fill" to="#808080" begin="zoomminus.mouseover" end="zoomminus.mouseout"/></use>
    <path d="M-4,0h8" fill="none" stroke="white" stroke-width="1.5" pointer-events="none"/>
  </g>
  <g id="arrowUp" transform="translate(30 24)">
    <use xlink:href="#rim"/>
    <path pointer-events="none" fill="none" stroke="white" stroke-width="1.5" d="M0,-3.0v7 M-2.5,-0.5L0,-3.0L2.5,-0.5"/>
  </g>
  <g id="arrowRight" transform="rotate(90) translate(36 -43)">
    <use xlink:href="#rim"/>
    <path pointer-events="none" fill="none" stroke="white" stroke-width="1.5" d="M0,-3.0v7 M-2.5,-0.5L0,-3.0L2.5,-0.5"/>
  </g>
  <g id="arrowDown" transform="rotate(180) translate(-30 -48)">
    <use xlink:href="#rim"/>
    <path pointer-events="none" fill="none" stroke="white" stroke-width="1.5" d="M0,-3.0v7 M-2.5,-0.5L0,-3.0L2.5,-0.5"/>
  </g>
  <g id="arrowLeft" transform="rotate(270) translate(-36 17)">
    <use xlink:href="#rim"/>
    <path pointer-events="none" fill="none" stroke="white" stroke-width="1.5" d="M0,-3.0v7 M-2.5,-0.5L0,-3.0L2.5,-0.5"/>
  </g>
  <g id="resetDef">
    <use xlink:href="#rim2" fill="#404040"><set attributeName="fill" to="#808080" begin="reset.mouseover" end="reset.mouseout"/></use>
  </g>
</defs>
<script type="application/ecmascript">
var viewWidth = 1909;
var viewHeight = 379;
var sectionId = 'dynsection-2';
</script>
<script type="application/ecmascript" xlink:href="svg.min.js"/>
<svg id="graph" class="graph">
<g id="viewport">
<title>xpath_allocator::allocate</title>
<!-- Node1 -->
<g id="Node000001" class="node">
<title>Node1</title>
<g id="a_Node000001"><a xlink:title=" ">
<polygon fill="#999999" stroke="#666666" points="1900.5,-96 1778.75,-96 1778.75,-76 1900.5,-76 1900.5,-96"/>
<text xml:space="preserve" text-anchor="middle" x="1839.62" y="-82.5" font-family="Helvetica,sans-Serif" font-size="10.00">xpath_allocator::allocate</text>
</a>
</g>
</g>
<!-- Node2 -->
<g id="Node000002" class="node">
<title>Node2</title>
<g id="a_Node000002"><a xlink:href="pugixml_8cpp.html#a70fefd711768a3ae223cf73fdb088f40" target="_top" xlink:title=" ">
<polygon fill="white" stroke="#666666" points="1399.5,-96 1271,-96 1271,-76 1399.5,-76 1399.5,-96"/>
<text xml:space="preserve" text-anchor="middle" x="1335.25" y="-82.5" font-family="Helvetica,sans-Serif" font-size="10.00">convert_number_to_string</text>
</a>
</g>
</g>
<!-- Node1&#45;&gt;Node2 -->
<g id="edge1_Node000001_Node000002" class="edge">
<title>Node1&#45;&gt;Node2</title>
<g id="a_edge1_Node000001_Node000002"><a xlink:title=" ">
<path fill="none" stroke="#63b8ff" d="M1767.24,-86C1669.08,-86 1493.93,-86 1399.98,-86"/>
<polygon fill="#63b8ff" stroke="#63b8ff" points="1767.01,-89.5 1777.01,-86 1767.01,-82.5 1767.01,-89.5"/>
</a>
</g>
</g>
<!-- Node13 -->
<g id="Node000013" class="node">
<title>Node13</title>
<g id="a_Node000013"><a xlink:href="classxpath__string.html#af3866c73a21542e26032d5d052327cc1" target="_top" xlink:title=" ">
<polygon fill="white" stroke="#666666" points="1738.62,-146 1624.38,-146 1624.38,-114 1738.62,-114 1738.62,-146"/>
<text xml:space="preserve" text-anchor="start" x="1632.38" y="-132.5" font-family="Helvetica,sans-Serif" font-size="10.00">xpath_string::duplicate</text>
<text xml:space="preserve" text-anchor="middle" x="1681.5" y="-120.5" font-family="Helvetica,sans-Serif" font-size="10.00">_string</text>
</a>
</g>
</g>
<!-- Node1&#45;&gt;Node13 -->
<g id="edge26_Node000001_Node000013" class="edge">
<title>Node1&#45;&gt;Node13</title>
<g id="a_edge26_Node000001_Node000013"><a xlink:title=" ">
<path fill="none" stroke="#63b8ff" d="M1790.71,-99.5C1774.4,-104.1 1756.01,-109.28 1739.08,-114.05"/>
<polygon fill="#63b8ff" stroke="#63b8ff" points="1791.49,-102.92 1800.17,-96.84 1789.59,-96.18 1791.49,-102.92"/>
</a>
</g>
</g>
<!-- Node16 -->
<g id="Node000016" class="node">
<title>Node16</title>
<g id="a_Node000016"><a xlink:href="classxpath__ast__node.html#aaf931a091af0fb91c25e90b205363b4e" target="_top" xlink:title=" ">
<polygon fill="white" stroke="#666666" points="1564.38,-222 1455.38,-222 1455.38,-190 1564.38,-190 1564.38,-222"/>
<text xml:space="preserve" text-anchor="start" x="1463.38" y="-208.5" font-family="Helvetica,sans-Serif" font-size="10.00">xpath_ast_node::eval</text>
<text xml:space="preserve" text-anchor="middle" x="1509.88" y="-196.5" font-family="Helvetica,sans-Serif" font-size="10.00">_string_concat</text>
</a>
</g>
</g>
<!-- Node1&#45;&gt;Node16 -->
<g id="edge32_Node000001_Node000016" class="edge">
<title>Node1&#45;&gt;Node16</title>
<g id="a_edge32_Node000001_Node000016"><a xlink:title=" ">
<path fill="none" stroke="#63b8ff" d="M1818.87,-103.96C1800.47,-119.73 1771.61,-142.11 1742.75,-155 1684.98,-180.81 1613.12,-194 1564.84,-200.43"/>
<polygon fill="#63b8ff" stroke="#63b8ff" points="1821.14,-106.62 1826.35,-97.4 1816.52,-101.36 1821.14,-106.62"/>
</a>
</g>
</g>
<!-- Node17 -->
<g id="Node000017" class="node">
<title>Node17</title>
<g id="a_Node000017"><a xlink:href="classxpath__node__set__raw.html#a9c79c58b27de48b650f4e0e7c177e4b6" target="_top" xlink:title=" ">
<polygon fill="white" stroke="#666666" points="603.62,-61 497.62,-61 497.62,-29 603.62,-29 603.62,-61"/>
<text xml:space="preserve" text-anchor="start" x="505.62" y="-47.5" font-family="Helvetica,sans-Serif" font-size="10.00">xpath_node_set_raw</text>
<text xml:space="preserve" text-anchor="middle" x="550.62" y="-35.5" font-family="Helvetica,sans-Serif" font-size="10.00">::remove_duplicates</text>
</a>
</g>
</g>
<!-- Node1&#45;&gt;Node17 -->
<g id="edge34_Node000001_Node000017" class="edge">
<title>Node1&#45;&gt;Node17</title>
<g id="a_edge34_Node000001_Node000017"><a xlink:title=" ">
<path fill="none" stroke="#63b8ff" d="M1771.52,-73.63C1705.46,-62.54 1601.58,-48 1510.88,-48 1510.88,-48 1510.88,-48 854.25,-48 766.51,-48 664.46,-46.72 604.11,-45.84"/>
<polygon fill="#63b8ff" stroke="#63b8ff" points="1770.66,-77.03 1781.11,-75.26 1771.84,-70.13 1770.66,-77.03"/>
</a>
</g>
</g>
<!-- Node19 -->
<g id="Node000019" class="node">
<title>Node19</title>
<g id="a_Node000019"><a xlink:href="pugixml_8cpp.html#a4a113e060713f00a1b6f835001c99efe" target="_top" xlink:title=" ">
<polygon fill="white" stroke="#666666" points="1742.75,-20 1620.25,-20 1620.25,0 1742.75,0 1742.75,-20"/>
<text xml:space="preserve" text-anchor="middle" x="1681.5" y="-6.5" font-family="Helvetica,sans-Serif" font-size="10.00">translate_table_generate</text>
</a>
</g>
</g>
<!-- Node1&#45;&gt;Node19 -->
<g id="edge38_Node000001_Node000019" class="edge">
<title>Node1&#45;&gt;Node19</title>
<g id="a_edge38_Node000001_Node000019"><a xlink:title=" ">
<path fill="none" stroke="#63b8ff" d="M1811.18,-70C1792.25,-59.23 1766.33,-45.05 1742.75,-34 1732.45,-29.18 1720.9,-24.42 1710.69,-20.44"/>
<polygon fill="#63b8ff" stroke="#63b8ff" points="1809.2,-72.89 1819.61,-74.83 1812.68,-66.82 1809.2,-72.89"/>
</a>
</g>
</g>
<!-- Node3 -->
<g id="Node000003" class="node">
<title>Node3</title>
<g id="a_Node000003"><a xlink:href="classxpath__ast__node.html#a6b675237a590548b68d0e0b97518b6df" target="_top" xlink:title=" ">
<polygon fill="white" stroke="#666666" points="1235,-178 1126,-178 1126,-146 1235,-146 1235,-178"/>
<text xml:space="preserve" text-anchor="start" x="1134" y="-164.5" font-family="Helvetica,sans-Serif" font-size="10.00">xpath_ast_node::eval</text>
<text xml:space="preserve" text-anchor="middle" x="1180.5" y="-152.5" font-family="Helvetica,sans-Serif" font-size="10.00">_string</text>
</a>
</g>
</g>
<!-- Node2&#45;&gt;Node3 -->
<g id="edge2_Node000002_Node000003" class="edge">
<title>Node2&#45;&gt;Node3</title>
<g id="a_edge2_Node000002_Node000003"><a xlink:title=" ">
<path fill="none" stroke="#63b8ff" d="M1292.96,-100.55C1285.56,-103.47 1277.98,-106.67 1271,-110 1248.77,-120.59 1224.7,-134.73 1207.13,-145.6"/>
<polygon fill="#63b8ff" stroke="#63b8ff" points="1294.08,-103.87 1302.17,-97.03 1291.58,-97.33 1294.08,-103.87"/>
</a>
</g>
</g>
<!-- Node4 -->
<g id="Node000004" class="node">
<title>Node4</title>
<g id="a_Node000004"><a xlink:href="classxpath__ast__node.html#a98dd7f6e67fe2c56c63056eed835d6a4" target="_top" xlink:title=" ">
<polygon fill="white" stroke="#666666" points="1090,-219 945.75,-219 945.75,-199 1090,-199 1090,-219"/>
<text xml:space="preserve" text-anchor="middle" x="1017.88" y="-205.5" font-family="Helvetica,sans-Serif" font-size="10.00">xpath_ast_node::compare_eq</text>
</a>
</g>
</g>
<!-- Node3&#45;&gt;Node4 -->
<g id="edge3_Node000003_Node000004" class="edge">
<title>Node3&#45;&gt;Node4</title>
<g id="a_edge3_Node000003_Node000004"><a xlink:title=" ">
<path fill="none" stroke="#63b8ff" d="M1114.7,-180.96C1094.24,-186.95 1072.39,-193.34 1054.72,-198.51"/>
<polygon fill="#63b8ff" stroke="#63b8ff" points="1115.5,-184.37 1124.11,-178.21 1113.53,-177.66 1115.5,-184.37"/>
</a>
</g>
</g>
<!-- Node5 -->
<g id="Node000005" class="node">
<title>Node5</title>
<g id="a_Node000005"><a xlink:href="classxpath__ast__node.html#ab7f965a92023bc2704b8e6fd9f3d7c14" target="_top" xlink:title=" ">
<polygon fill="white" stroke="#666666" points="909.75,-222 800.75,-222 800.75,-190 909.75,-190 909.75,-222"/>
<text xml:space="preserve" text-anchor="start" x="808.75" y="-208.5" font-family="Helvetica,sans-Serif" font-size="10.00">xpath_ast_node::eval</text>
<text xml:space="preserve" text-anchor="middle" x="855.25" y="-196.5" font-family="Helvetica,sans-Serif" font-size="10.00">_boolean</text>
</a>
</g>
</g>
<!-- Node3&#45;&gt;Node5 -->
<g id="edge24_Node000003_Node000005" class="edge">
<title>Node3&#45;&gt;Node5</title>
<g id="a_edge24_Node000003_Node000005"><a xlink:title=" ">
<path fill="none" stroke="#63b8ff" d="M1114.3,-161.28C1067.34,-164.93 1002.51,-172.53 945.75,-181 930.14,-183.33 913.07,-186.28 898.06,-189.55"/>
<polygon fill="#63b8ff" stroke="#63b8ff" points="1114.31,-164.79 1124.02,-160.57 1113.8,-157.8 1114.31,-164.79"/>
</a>
</g>
</g>
<!-- Node10 -->
<g id="Node000010" class="node">
<title>Node10</title>
<g id="a_Node000010"><a xlink:href="classxpath__ast__node.html#a92dd7048e28d486bc7f382d1fc6f1de6" target="_top" xlink:title=" ">
<polygon fill="white" stroke="#666666" points="762.12,-313 653.12,-313 653.12,-281 762.12,-281 762.12,-313"/>
<text xml:space="preserve" text-anchor="start" x="661.12" y="-299.5" font-family="Helvetica,sans-Serif" font-size="10.00">xpath_ast_node::eval</text>
<text xml:space="preserve" text-anchor="middle" x="707.62" y="-287.5" font-family="Helvetica,sans-Serif" font-size="10.00">_number</text>
</a>
</g>
</g>
<!-- Node3&#45;&gt;Node10 -->
<g id="edge25_Node000003_Node000010" class="edge">
<title>Node3&#45;&gt;Node10</title>
<g id="a_edge25_Node000003_Node000010"><a xlink:title=" ">
<path fill="none" stroke="#63b8ff" d="M1144.38,-184.94C1128.69,-196.7 1109.39,-210.18 1090,-219 980.83,-268.66 838.79,-282.62 762.58,-289.55"/>
<polygon fill="#63b8ff" stroke="#63b8ff" points="1146.12,-188.01 1151.97,-179.18 1141.89,-182.44 1146.12,-188.01"/>
</a>
</g>
</g>
<!-- Node4&#45;&gt;Node5 -->
<g id="edge4_Node000004_Node000005" class="edge">
<title>Node4&#45;&gt;Node5</title>
<g id="a_edge4_Node000004_Node000005"><a xlink:title=" ">
<path fill="none" stroke="#63b8ff" d="M934.01,-200.71C925.88,-200.57 917.79,-200.53 910.06,-200.59"/>
<polygon fill="#63b8ff" stroke="#63b8ff" points="933.9,-204.2 943.97,-200.92 934.05,-197.21 933.9,-204.2"/>
</a>
</g>
</g>
<!-- Node5&#45;&gt;Node3 -->
<g id="edge23_Node000005_Node000003" class="edge">
<title>Node5&#45;&gt;Node3</title>
<g id="a_edge23_Node000005_Node000003"><a xlink:title=" ">
<path fill="none" stroke="#63b8ff" d="M921.25,-202.86C929.49,-201.53 937.81,-200.18 945.75,-199 1007.2,-189.84 1078.08,-181.68 1125.53,-174.69"/>
<polygon fill="#63b8ff" stroke="#63b8ff" points="920.94,-199.36 911.62,-204.39 922.04,-206.27 920.94,-199.36"/>
</a>
</g>
</g>
<!-- Node5&#45;&gt;Node4 -->
<g id="edge13_Node000005_Node000004" class="edge">
<title>Node5&#45;&gt;Node4</title>
<g id="a_edge13_Node000005_Node000004"><a xlink:title=" ">
<path fill="none" stroke="#63b8ff" d="M921.47,-213.86C929.38,-214.12 937.49,-214.3 945.49,-214.38"/>
<polygon fill="#63b8ff" stroke="#63b8ff" points="921.7,-210.37 911.57,-213.48 921.43,-217.36 921.7,-210.37"/>
</a>
</g>
</g>
<!-- Node6 -->
<g id="Node000006" class="node">
<title>Node6</title>
<g id="a_Node000006"><a xlink:href="classxpath__ast__node.html#ab4e5bbd3f2e83c86a43349374b4bfc22" target="_top" xlink:title=" ">
<polygon fill="white" stroke="#666666" points="764.75,-263 650.5,-263 650.5,-231 764.75,-231 764.75,-263"/>
<text xml:space="preserve" text-anchor="start" x="658.5" y="-249.5" font-family="Helvetica,sans-Serif" font-size="10.00">xpath_ast_node::apply</text>
<text xml:space="preserve" text-anchor="middle" x="707.62" y="-237.5" font-family="Helvetica,sans-Serif" font-size="10.00">_predicate_boolean</text>
</a>
</g>
</g>
<!-- Node5&#45;&gt;Node6 -->
<g id="edge5_Node000005_Node000006" class="edge">
<title>Node5&#45;&gt;Node6</title>
<g id="a_edge5_Node000005_Node000006"><a xlink:title=" ">
<path fill="none" stroke="#63b8ff" d="M789.49,-224.23C781.37,-226.52 773.12,-228.84 765.14,-231.09"/>
<polygon fill="#63b8ff" stroke="#63b8ff" points="790.3,-227.64 798.98,-221.56 788.41,-220.9 790.3,-227.64"/>
</a>
</g>
</g>
<!-- Node5&#45;&gt;Node10 -->
<g id="edge14_Node000005_Node000010" class="edge">
<title>Node5&#45;&gt;Node10</title>
<g id="a_edge14_Node000005_Node000010"><a xlink:title=" ">
<path fill="none" stroke="#63b8ff" d="M798.17,-229.66C782.52,-243.4 780.77,-251.98 764.75,-263 754.73,-269.89 742.5,-275.6 732.02,-280.61"/>
<polygon fill="#63b8ff" stroke="#63b8ff" points="800.33,-232.42 805.91,-223.41 795.93,-226.97 800.33,-232.42"/>
</a>
</g>
</g>
<!-- Node7 -->
<g id="Node000007" class="node">
<title>Node7</title>
<g id="a_Node000007"><a xlink:href="classxpath__ast__node.html#a7e35f265c9e0712a16e1d8a9db4c7672" target="_top" xlink:title=" ">
<polygon fill="white" stroke="#666666" points="445.12,-282 330.88,-282 330.88,-250 445.12,-250 445.12,-282"/>
<text xml:space="preserve" text-anchor="start" x="338.88" y="-268.5" font-family="Helvetica,sans-Serif" font-size="10.00">xpath_ast_node::apply</text>
<text xml:space="preserve" text-anchor="middle" x="388" y="-256.5" font-family="Helvetica,sans-Serif" font-size="10.00">_predicate</text>
</a>
</g>
</g>
<!-- Node6&#45;&gt;Node7 -->
<g id="edge6_Node000006_Node000007" class="edge">
<title>Node6&#45;&gt;Node7</title>
<g id="a_edge6_Node000006_Node000007"><a xlink:title=" ">
<path fill="none" stroke="#63b8ff" d="M638.84,-250.97C595.37,-253.52 537.73,-256.93 486.75,-260 473.43,-260.8 459.08,-261.68 445.6,-262.5"/>
<polygon fill="#63b8ff" stroke="#63b8ff" points="638.85,-254.47 648.62,-250.39 638.44,-247.49 638.85,-254.47"/>
</a>
</g>
</g>
<!-- Node8 -->
<g id="Node000008" class="node">
<title>Node8</title>
<g id="a_Node000008"><a xlink:href="classxpath__ast__node.html#a68cace396dd4eeae67ecfcd34a3a8285" target="_top" xlink:title=" ">
<polygon fill="white" stroke="#666666" points="289.25,-143 180.25,-143 180.25,-111 289.25,-111 289.25,-143"/>
<text xml:space="preserve" text-anchor="start" x="188.25" y="-129.5" font-family="Helvetica,sans-Serif" font-size="10.00">xpath_ast_node::eval</text>
<text xml:space="preserve" text-anchor="middle" x="234.75" y="-117.5" font-family="Helvetica,sans-Serif" font-size="10.00">_node_set</text>
</a>
</g>
</g>
<!-- Node7&#45;&gt;Node8 -->
<g id="edge7_Node000007_Node000008" class="edge">
<title>Node7&#45;&gt;Node8</title>
<g id="a_edge7_Node000007_Node000008"><a xlink:title=" ">
<path fill="none" stroke="#63b8ff" d="M360.96,-242.07C330.33,-213.92 280.27,-167.91 253.67,-143.47"/>
<polygon fill="#63b8ff" stroke="#63b8ff" points="358.21,-244.3 367.94,-248.48 362.95,-239.14 358.21,-244.3"/>
</a>
</g>
</g>
<!-- Node8&#45;&gt;Node3 -->
<g id="edge12_Node000008_Node000003" class="edge">
<title>Node8&#45;&gt;Node3</title>
<g id="a_edge12_Node000008_Node000003"><a xlink:title=" ">
<path fill="none" stroke="#63b8ff" d="M300.66,-114.51C363.94,-103.43 463.02,-89 549.62,-89 856.25,-89 856.25,-89 856.25,-89 958.23,-89 1073.95,-124 1135.5,-145.53"/>
<polygon fill="#63b8ff" stroke="#63b8ff" points="300.39,-111 291.15,-116.2 301.61,-117.9 300.39,-111"/>
</a>
</g>
</g>
<!-- Node8&#45;&gt;Node4 -->
<g id="edge8_Node000008_Node000004" class="edge">
<title>Node8&#45;&gt;Node4</title>
<g id="a_edge8_Node000008_Node000004"><a xlink:title=" ">
<path fill="none" stroke="#63b8ff" d="M301.05,-127C364.54,-127 463.7,-127 549.62,-127 708.62,-127 708.62,-127 708.62,-127 818.82,-127 943.96,-176.55 994.22,-198.61"/>
<polygon fill="#63b8ff" stroke="#63b8ff" points="301.14,-123.5 291.14,-127 301.14,-130.5 301.14,-123.5"/>
</a>
</g>
</g>
<!-- Node8&#45;&gt;Node5 -->
<g id="edge11_Node000008_Node000005" class="edge">
<title>Node8&#45;&gt;Node5</title>
<g id="a_edge11_Node000008_Node000005"><a xlink:title=" ">
<path fill="none" stroke="#63b8ff" d="M300.77,-137.53C309,-138.76 317.32,-139.95 325.25,-141 520.04,-166.86 570.41,-159.98 764.75,-189 776.33,-190.73 788.69,-192.88 800.41,-195.06"/>
<polygon fill="#63b8ff" stroke="#63b8ff" points="301.55,-134.11 291.14,-136.07 300.5,-141.03 301.55,-134.11"/>
</a>
</g>
</g>
<!-- Node9 -->
<g id="Node000009" class="node">
<title>Node9</title>
<g id="a_Node000009"><a xlink:href="classxpath__ast__node.html#abb6e4c529276eaf882233dbb6e04e111" target="_top" xlink:title=" ">
<polygon fill="white" stroke="#666666" points="144.25,-213 0,-213 0,-193 144.25,-193 144.25,-213"/>
<text xml:space="preserve" text-anchor="middle" x="72.12" y="-199.5" font-family="Helvetica,sans-Serif" font-size="10.00">xpath_ast_node::compare_rel</text>
</a>
</g>
</g>
<!-- Node8&#45;&gt;Node9 -->
<g id="edge9_Node000008_Node000009" class="edge">
<title>Node8&#45;&gt;Node9</title>
<g id="a_edge9_Node000008_Node000009"><a xlink:title=" ">
<path fill="none" stroke="#63b8ff" d="M188.88,-148.23C158.29,-162.7 119.11,-181.24 95.08,-192.61"/>
<polygon fill="#63b8ff" stroke="#63b8ff" points="189.99,-151.58 197.53,-144.14 186.99,-145.25 189.99,-151.58"/>
</a>
</g>
</g>
<!-- Node9&#45;&gt;Node5 -->
<g id="edge10_Node000009_Node000005" class="edge">
<title>Node9&#45;&gt;Node5</title>
<g id="a_edge10_Node000009_Node000005"><a xlink:title=" ">
<path fill="none" stroke="#63b8ff" d="M156,-203C219.28,-203 308.64,-203 387,-203 551.62,-203 551.62,-203 551.62,-203 638.71,-203 739.89,-204.26 800.41,-205.14"/>
<polygon fill="#63b8ff" stroke="#63b8ff" points="156.01,-199.5 146.01,-203 156.01,-206.5 156.01,-199.5"/>
</a>
</g>
</g>
<!-- Node10&#45;&gt;Node3 -->
<g id="edge22_Node000010_Node000003" class="edge">
<title>Node10&#45;&gt;Node3</title>
<g id="a_edge22_Node000010_Node000003"><a xlink:title=" ">
<path fill="none" stroke="#63b8ff" d="M773.72,-301.27C852.03,-299.23 985.94,-284.33 1090,-237 1121.46,-222.69 1152.68,-196.12 1168.62,-178.36"/>
<polygon fill="#63b8ff" stroke="#63b8ff" points="774.03,-297.76 764.09,-301.45 774.16,-304.76 774.03,-297.76"/>
</a>
</g>
</g>
<!-- Node10&#45;&gt;Node4 -->
<g id="edge19_Node000010_Node000004" class="edge">
<title>Node10&#45;&gt;Node4</title>
<g id="a_edge19_Node000010_Node000004"><a xlink:title=" ">
<path fill="none" stroke="#63b8ff" d="M773.45,-278.49C836.3,-260.55 929.38,-233.98 980.3,-219.44"/>
<polygon fill="#63b8ff" stroke="#63b8ff" points="772.59,-275.1 763.93,-281.21 774.51,-281.83 772.59,-275.1"/>
</a>
</g>
</g>
<!-- Node10&#45;&gt;Node5 -->
<g id="edge21_Node000010_Node000005" class="edge">
<title>Node10&#45;&gt;Node5</title>
<g id="a_edge21_Node000010_Node000005"><a xlink:title=" ">
<path fill="none" stroke="#63b8ff" d="M771.63,-275.46C783.71,-264.79 785.81,-256.31 800.75,-245 811.79,-236.64 825.41,-229.04 836.15,-222.4"/>
<polygon fill="#63b8ff" stroke="#63b8ff" points="769.58,-272.62 763.81,-281.51 773.86,-278.16 769.58,-272.62"/>
</a>
</g>
</g>
<!-- Node10&#45;&gt;Node9 -->
<g id="edge20_Node000010_Node000009" class="edge">
<title>Node10&#45;&gt;Node9</title>
<g id="a_edge20_Node000010_Node000009"><a xlink:title=" ">
<path fill="none" stroke="#63b8ff" d="M681.24,-320.61C663.89,-335.07 639.56,-352.25 614.5,-360 560.26,-376.77 542.6,-370.24 486.75,-360 327.72,-330.83 150.56,-243.48 92.61,-213.35"/>
<polygon fill="#63b8ff" stroke="#63b8ff" points="683.21,-323.53 688.5,-314.35 678.64,-318.23 683.21,-323.53"/>
</a>
</g>
</g>
<!-- Node11 -->
<g id="Node000011" class="node">
<title>Node11</title>
<g id="a_Node000011"><a xlink:href="classxpath__ast__node.html#abf2d4b745493f63aebc1c89d9fde8eed" target="_top" xlink:title=" ">
<polygon fill="white" stroke="#666666" points="607.75,-351 493.5,-351 493.5,-319 607.75,-319 607.75,-351"/>
<text xml:space="preserve" text-anchor="start" x="501.5" y="-337.5" font-family="Helvetica,sans-Serif" font-size="10.00">xpath_ast_node::apply</text>
<text xml:space="preserve" text-anchor="middle" x="550.62" y="-325.5" font-family="Helvetica,sans-Serif" font-size="10.00">_predicate_number</text>
</a>
</g>
</g>
<!-- Node10&#45;&gt;Node11 -->
<g id="edge15_Node000010_Node000011" class="edge">
<title>Node10&#45;&gt;Node11</title>
<g id="a_edge15_Node000010_Node000011"><a xlink:title=" ">
<path fill="none" stroke="#63b8ff" d="M641.84,-312.88C630.67,-315.62 619.14,-318.45 608.21,-321.13"/>
<polygon fill="#63b8ff" stroke="#63b8ff" points="642.5,-316.32 651.38,-310.54 640.83,-309.53 642.5,-316.32"/>
</a>
</g>
</g>
<!-- Node12 -->
<g id="Node000012" class="node">
<title>Node12</title>
<g id="a_Node000012"><a xlink:href="classxpath__ast__node.html#a8cedd7e15623b9fa431788b8843f1463" target="_top" xlink:title=" ">
<polygon fill="white" stroke="#666666" points="614.5,-301 486.75,-301 486.75,-269 614.5,-269 614.5,-301"/>
<text xml:space="preserve" text-anchor="start" x="494.75" y="-287.5" font-family="Helvetica,sans-Serif" font-size="10.00">xpath_ast_node::apply</text>
<text xml:space="preserve" text-anchor="middle" x="550.62" y="-275.5" font-family="Helvetica,sans-Serif" font-size="10.00">_predicate_number_const</text>
</a>
</g>
</g>
<!-- Node10&#45;&gt;Node12 -->
<g id="edge17_Node000010_Node000012" class="edge">
<title>Node10&#45;&gt;Node12</title>
<g id="a_edge17_Node000010_Node000012"><a xlink:title=" ">
<path fill="none" stroke="#63b8ff" d="M641.46,-291.95C632.66,-291.27 623.65,-290.58 614.9,-289.9"/>
<polygon fill="#63b8ff" stroke="#63b8ff" points="641.1,-295.44 651.34,-292.72 641.64,-288.46 641.1,-295.44"/>
</a>
</g>
</g>
<!-- Node11&#45;&gt;Node7 -->
<g id="edge16_Node000011_Node000007" class="edge">
<title>Node11&#45;&gt;Node7</title>
<g id="a_edge16_Node000011_Node000007"><a xlink:title=" ">
<path fill="none" stroke="#63b8ff" d="M497.06,-314.3C493.57,-312.86 490.1,-311.42 486.75,-310 466.02,-301.22 443.04,-290.91 424.58,-282.47"/>
<polygon fill="#63b8ff" stroke="#63b8ff" points="495.6,-317.49 506.18,-318.01 498.24,-311 495.6,-317.49"/>
</a>
</g>
</g>
<!-- Node12&#45;&gt;Node7 -->
<g id="edge18_Node000012_Node000007" class="edge">
<title>Node12&#45;&gt;Node7</title>
<g id="a_edge18_Node000012_Node000007"><a xlink:title=" ">
<path fill="none" stroke="#63b8ff" d="M475.38,-276.22C465.36,-275.03 455.22,-273.83 445.57,-272.69"/>
<polygon fill="#63b8ff" stroke="#63b8ff" points="474.76,-279.67 485.1,-277.37 475.58,-272.72 474.76,-279.67"/>
</a>
</g>
</g>
<!-- Node14 -->
<g id="Node000014" class="node">
<title>Node14</title>
<g id="a_Node000014"><a xlink:href="classxpath__string.html#abe89ae1270e25022aa8ccc332f5afbb3" target="_top" xlink:title=" ">
<polygon fill="white" stroke="#666666" points="1556.88,-134 1462.88,-134 1462.88,-114 1556.88,-114 1556.88,-134"/>
<text xml:space="preserve" text-anchor="middle" x="1509.88" y="-120.5" font-family="Helvetica,sans-Serif" font-size="10.00">xpath_string::data</text>
</a>
</g>
</g>
<!-- Node13&#45;&gt;Node14 -->
<g id="edge27_Node000013_Node000014" class="edge">
<title>Node13&#45;&gt;Node14</title>
<g id="a_edge27_Node000013_Node000014"><a xlink:title=" ">
<path fill="none" stroke="#63b8ff" d="M1612.62,-127.6C1594.03,-126.94 1574.31,-126.24 1557.23,-125.64"/>
<polygon fill="#63b8ff" stroke="#63b8ff" points="1612.39,-131.09 1622.5,-127.95 1612.63,-124.1 1612.39,-131.09"/>
</a>
</g>
</g>
<!-- Node15 -->
<g id="Node000015" class="node">
<title>Node15</title>
<g id="a_Node000015"><a xlink:href="classxpath__string.html#aaf1229b7a7ae918b41bf995df16c8896" target="_top" xlink:title=" ">
<polygon fill="white" stroke="#666666" points="1395.75,-172 1274.75,-172 1274.75,-152 1395.75,-152 1395.75,-172"/>
<text xml:space="preserve" text-anchor="middle" x="1335.25" y="-158.5" font-family="Helvetica,sans-Serif" font-size="10.00">xpath_string::from_heap</text>
</a>
</g>
</g>
<!-- Node13&#45;&gt;Node15 -->
<g id="edge31_Node000013_Node000015" class="edge">
<title>Node13&#45;&gt;Node15</title>
<g id="a_edge31_Node000013_Node000015"><a xlink:title=" ">
<path fill="none" stroke="#63b8ff" d="M1612.9,-139.63C1603.3,-140.85 1593.53,-142.02 1584.25,-143 1520.16,-149.78 1446.5,-155.11 1396.22,-158.38"/>
<polygon fill="#63b8ff" stroke="#63b8ff" points="1613.11,-143.13 1622.57,-138.37 1612.2,-136.19 1613.11,-143.13"/>
</a>
</g>
</g>
<!-- Node14&#45;&gt;Node3 -->
<g id="edge28_Node000014_Node000003" class="edge">
<title>Node14&#45;&gt;Node3</title>
<g id="a_edge28_Node000014_Node000003"><a xlink:title=" ">
<path fill="none" stroke="#63b8ff" d="M1451.15,-126.52C1402.84,-129.12 1332.17,-134.1 1271,-143 1259.37,-144.69 1246.98,-146.99 1235.25,-149.41"/>
<polygon fill="#63b8ff" stroke="#63b8ff" points="1451.31,-130.01 1461.12,-126 1450.95,-123.02 1451.31,-130.01"/>
</a>
</g>
</g>
<!-- Node14&#45;&gt;Node15 -->
<g id="edge29_Node000014_Node000015" class="edge">
<title>Node14&#45;&gt;Node15</title>
<g id="a_edge29_Node000014_Node000015"><a xlink:title=" ">
<path fill="none" stroke="#63b8ff" d="M1451.44,-136.64C1429.5,-141.47 1404.76,-146.92 1383.84,-151.52"/>
<polygon fill="#63b8ff" stroke="#63b8ff" points="1452.12,-140.08 1461.14,-134.51 1450.62,-133.24 1452.12,-140.08"/>
</a>
</g>
</g>
<!-- Node15&#45;&gt;Node3 -->
<g id="edge30_Node000015_Node000003" class="edge">
<title>Node15&#45;&gt;Node3</title>
<g id="a_edge30_Node000015_Node000003"><a xlink:title=" ">
<path fill="none" stroke="#63b8ff" d="M1263.03,-162C1253.7,-162 1244.27,-162 1235.3,-162"/>
<polygon fill="#63b8ff" stroke="#63b8ff" points="1262.8,-165.5 1272.8,-162 1262.8,-158.5 1262.8,-165.5"/>
</a>
</g>
</g>
<!-- Node16&#45;&gt;Node3 -->
<g id="edge33_Node000016_Node000003" class="edge">
<title>Node16&#45;&gt;Node3</title>
<g id="a_edge33_Node000016_Node000003"><a xlink:title=" ">
<path fill="none" stroke="#63b8ff" d="M1443.83,-201.01C1395.88,-196.88 1329.16,-190.2 1271,-181 1259.39,-179.16 1247.01,-176.8 1235.28,-174.37"/>
<polygon fill="#63b8ff" stroke="#63b8ff" points="1443.52,-204.5 1453.78,-201.85 1444.11,-197.52 1443.52,-204.5"/>
</a>
</g>
</g>
<!-- Node17&#45;&gt;Node8 -->
<g id="edge35_Node000017_Node000008" class="edge">
<title>Node17&#45;&gt;Node8</title>
<g id="a_edge35_Node000017_Node000008"><a xlink:title=" ">
<path fill="none" stroke="#63b8ff" d="M486.26,-46.86C440.46,-49.78 377.7,-57.06 325.25,-75 300.77,-83.38 275.51,-98.78 258.09,-110.66"/>
<polygon fill="#63b8ff" stroke="#63b8ff" points="486.22,-50.37 496.01,-46.3 485.82,-43.38 486.22,-50.37"/>
</a>
</g>
</g>
<!-- Node18 -->
<g id="Node000018" class="node">
<title>Node18</title>
<g id="a_Node000018"><a xlink:href="classxpath__ast__node.html#a3258c05ab9aaa78e154d2ff63fe56906" target="_top" xlink:title=" ">
<polygon fill="white" stroke="#666666" points="450.75,-23 325.25,-23 325.25,-3 450.75,-3 450.75,-23"/>
<text xml:space="preserve" text-anchor="middle" x="388" y="-9.5" font-family="Helvetica,sans-Serif" font-size="10.00">xpath_ast_node::step_do</text>
</a>
</g>
</g>
<!-- Node17&#45;&gt;Node18 -->
<g id="edge36_Node000017_Node000018" class="edge">
<title>Node17&#45;&gt;Node18</title>
<g id="a_edge36_Node000017_Node000018"><a xlink:title=" ">
<path fill="none" stroke="#63b8ff" d="M486.3,-32.38C471.44,-29.42 455.76,-26.3 441.44,-23.45"/>
<polygon fill="#63b8ff" stroke="#63b8ff" points="485.5,-35.79 495.99,-34.31 486.87,-28.93 485.5,-35.79"/>
</a>
</g>
</g>
<!-- Node18&#45;&gt;Node8 -->
<g id="edge37_Node000018_Node000008" class="edge">
<title>Node18&#45;&gt;Node8</title>
<g id="a_edge37_Node000018_Node000008"><a xlink:title=" ">
<path fill="none" stroke="#63b8ff" d="M342.16,-27.84C336.28,-30.52 330.48,-33.58 325.25,-37 293.72,-57.63 264.38,-90.86 248.37,-110.65"/>
<polygon fill="#63b8ff" stroke="#63b8ff" points="343.48,-31.08 351.35,-23.99 340.77,-24.63 343.48,-31.08"/>
</a>
</g>
</g>
<!-- Node20 -->
<g id="Node000020" class="node">
<title>Node20</title>
<g id="a_Node000020"><a xlink:href="classxpath__ast__node.html#a3eb089927cabd867a3a9d1b723aece0d" target="_top" xlink:title=" ">
<polygon fill="white" stroke="#666666" points="1584.25,-20 1435.5,-20 1435.5,0 1584.25,0 1584.25,-20"/>
<text xml:space="preserve" text-anchor="middle" x="1509.88" y="-6.5" font-family="Helvetica,sans-Serif" font-size="10.00">xpath_ast_node::optimize_self</text>
</a>
</g>
</g>
<!-- Node19&#45;&gt;Node20 -->
<g id="edge39_Node000019_Node000020" class="edge">
<title>Node19&#45;&gt;Node20</title>
<g id="a_edge39_Node000019_Node000020"><a xlink:title=" ">
<path fill="none" stroke="#63b8ff" d="M1608.97,-10C1600.92,-10 1592.71,-10 1584.63,-10"/>
<polygon fill="#63b8ff" stroke="#63b8ff" points="1608.71,-13.5 1618.71,-10 1608.71,-6.5 1608.71,-13.5"/>
</a>
</g>
</g>
<!-- Node21 -->
<g id="Node000021" class="node">
<title>Node21</title>
<g id="a_Node000021"><a xlink:href="classxpath__ast__node.html#a950534fc7de08fe40d897ebea84c1d6d" target="_top" xlink:title=" ">
<polygon fill="white" stroke="#666666" points="1399.12,-20 1271.38,-20 1271.38,0 1399.12,0 1399.12,-20"/>
<text xml:space="preserve" text-anchor="middle" x="1335.25" y="-6.5" font-family="Helvetica,sans-Serif" font-size="10.00">xpath_ast_node::optimize</text>
</a>
</g>
</g>
<!-- Node20&#45;&gt;Node21 -->
<g id="edge40_Node000020_Node000021" class="edge">
<title>Node20&#45;&gt;Node21</title>
<g id="a_edge40_Node000020_Node000021"><a xlink:title=" ">
<path fill="none" stroke="#63b8ff" d="M1423.93,-10C1415.66,-10 1407.38,-10 1399.38,-10"/>
<polygon fill="#63b8ff" stroke="#63b8ff" points="1423.65,-13.5 1433.65,-10 1423.65,-6.5 1423.65,-13.5"/>
</a>
</g>
</g>
</g>
</svg>

<g id="navigator" transform="translate(0 0)" fill="#404254">
  <rect fill="#f2f5e9" fill-opacity="0.5" stroke="#606060" stroke-width=".5" x="0" y="0" width="60" height="60"/>
  <use id="zoomplus" xlink:href="#zoomPlus" x="17" y="9" onmousedown="handleZoom(evt,'in')"/>
  <use id="zoomminus" xlink:href="#zoomMin" x="42" y="9" onmousedown="handleZoom(evt,'out')"/>
  <use id="reset" xlink:href="#resetDef" x="30" y="36" onmousedown="handleReset()"/>
   <use id="arrowup" xlink:href="#arrowUp" x="0" y="0" onmousedown="handlePan(0,-1)"/>
  <use id="arrowright" xlink:href="#arrowRight" x="0" y="0" onmousedown="handlePan(1,0)"/>
  <use id="arrowdown" xlink:href="#arrowDown" x="0" y="0" onmousedown="handlePan(0,1)"/>
  <use id="arrowleft" xlink:href="#arrowLeft" x="0" y="0" onmousedown="handlePan(-1,0)"/>
</g>
<svg viewBox="0 0 15 15" width="100%" height="30px" preserveAspectRatio="xMaxYMin meet">
 <g id="arrow_out" transform="scale(0.3 0.3)">
  <a xlink:href="structxpath__allocator_a6c13fefbd7038d78b336987f396c8415_icgraph_org.svg" target="_base">
   <rect id="button" ry="5" rx="5" y="6" x="6" height="38" width="38"
        fill="#f2f5e9" fill-opacity="0.5" stroke="#606060" stroke-width="1.0"/>
   <path id="arrow"
     d="M 11.500037,31.436501 C 11.940474,20.09759 22.043105,11.32322 32.158766,21.979434 L 37.068811,17.246167 C 37.068811,17.246167 37.088388,32 37.088388,32 L 22.160133,31.978069 C 22.160133,31.978069 26.997745,27.140456 26.997745,27.140456 C 18.528582,18.264221 13.291696,25.230495 11.500037,31.436501 z"
     style="fill:#404040;"/>
  </a>
 </g>
</svg>

<style type='text/css'>
<![CDATA[
[data-mouse-over-selected='false'] { opacity: 0.7; }
[data-mouse-over-selected='true']  { opacity: 1.0; }
]]>
</style>
<script type="application/ecmascript"><![CDATA[
document.addEventListener('DOMContentLoaded', (event) => {
  highlightEdges();
  highlightAdjacentNodes();
});
]]></script>
</svg>
