<?xml version="1.0" encoding="UTF-8" standalone="no"?>
<!DOCTYPE svg PUBLIC "-//W3C//DTD SVG 1.1//EN"
 "http://www.w3.org/Graphics/SVG/1.1/DTD/svg11.dtd">
<!-- Generated by graphviz version 14.1.2 (20260124.0452)
 -->
<!-- Title: xpath_parser::parse_primary_expression Pages: 1 -->
<svg width="1390pt" height="1042pt"
 viewBox="0.00 0.00 1390.00 1042.00" xmlns="http://www.w3.org/2000/svg" xmlns:xlink="http://www.w3.org/1999/xlink">
<g id="graph0" class="graph" transform="scale(1 1) rotate(0) translate(4 1038)">
<title>xpath_parser::parse_primary_expression</title>
<!-- Node1 -->
<g id="Node000001" class="node">
<title>Node1</title>
<g id="a_Node000001"><a xlink:title=" ">
<polygon fill="#999999" stroke="#666666" points="106,-228 0,-228 0,-196 106,-196 106,-228"/>
<text xml:space="preserve" text-anchor="start" x="8" y="-214.5" font-family="Helvetica,sans-Serif" font-size="10.00">xpath_parser::parse</text>
<text xml:space="preserve" text-anchor="middle" x="53" y="-202.5" font-family="Helvetica,sans-Serif" font-size="10.00">_primary_expression</text>
</a>
</g>
</g>
<!-- Node2 -->
<g id="Node000002" class="node">
<title>Node2</title>
<g id="a_Node000002"><a xlink:href="structxpath__parser.html#a8a71f339a0386657a48b59acb3405acc" target="_top" xlink:title=" ">
<polygon fill="white" stroke="#666666" points="1228.62,-500 1103.88,-500 1103.88,-480 1228.62,-480 1228.62,-500"/>
<text xml:space="preserve" text-anchor="middle" x="1166.25" y="-486.5" font-family="Helvetica,sans-Serif" font-size="10.00">xpath_parser::alloc_node</text>
</a>
</g>
</g>
<!-- Node1&#45;&gt;Node2 -->
<g id="edge1_Node000001_Node000002" class="edge">
<title>Node1&#45;&gt;Node2</title>
<g id="a_edge1_Node000001_Node000002"><a xlink:title=" ">
<path fill="none" stroke="#63b8ff" d="M85.88,-228.37C102.29,-236.21 122.82,-245.14 142,-251 241.72,-281.46 977.46,-359.93 1066,-415 1088.95,-429.27 1080.71,-447.35 1102,-464 1107.46,-468.27 1113.73,-471.95 1120.14,-475.08"/>
<polygon fill="#63b8ff" stroke="#63b8ff" points="1118.3,-478.09 1128.86,-478.94 1121.13,-471.69 1118.3,-478.09"/>
</a>
</g>
</g>
<!-- Node3 -->
<g id="Node000003" class="node">
<title>Node3</title>
<g id="a_Node000003"><a xlink:href="structxpath__parser.html#a876c0c06a8cdc623926c8788e8d43fc3" target="_top" xlink:title=" ">
<polygon fill="white" stroke="#666666" points="1215.5,-236 1117,-236 1117,-204 1215.5,-204 1215.5,-236"/>
<text xml:space="preserve" text-anchor="start" x="1125" y="-222.5" font-family="Helvetica,sans-Serif" font-size="10.00">xpath_parser::alloc</text>
<text xml:space="preserve" text-anchor="middle" x="1166.25" y="-210.5" font-family="Helvetica,sans-Serif" font-size="10.00">_string</text>
</a>
</g>
</g>
<!-- Node1&#45;&gt;Node3 -->
<g id="edge2_Node000001_Node000003" class="edge">
<title>Node1&#45;&gt;Node3</title>
<g id="a_edge2_Node000001_Node000003"><a xlink:title=" ">
<path fill="none" stroke="#63b8ff" d="M106.28,-201.82C168.72,-190.56 276.44,-174 369.75,-174 369.75,-174 369.75,-174 846.88,-174 937.89,-174 1042.04,-192.64 1105.73,-206.19"/>
<polygon fill="#63b8ff" stroke="#63b8ff" points="1104.76,-209.56 1115.27,-208.25 1106.23,-202.72 1104.76,-209.56"/>
</a>
</g>
</g>
<!-- Node4 -->
<g id="Node000004" class="node">
<title>Node4</title>
<g id="a_Node000004"><a xlink:href="pugixml_8cpp.html#a1a1fca8011d76ef218f46957cf16cd1e" target="_top" xlink:title=" ">
<polygon fill="white" stroke="#666666" points="270.5,-108 142,-108 142,-76 270.5,-76 270.5,-108"/>
<text xml:space="preserve" text-anchor="start" x="150" y="-94.5" font-family="Helvetica,sans-Serif" font-size="10.00">convert_string_to_number</text>
<text xml:space="preserve" text-anchor="middle" x="206.25" y="-82.5" font-family="Helvetica,sans-Serif" font-size="10.00">_scratch</text>
</a>
</g>
</g>
<!-- Node1&#45;&gt;Node4 -->
<g id="edge3_Node000001_Node000004" class="edge">
<title>Node1&#45;&gt;Node4</title>
<g id="a_edge3_Node000001_Node000004"><a xlink:title=" ">
<path fill="none" stroke="#63b8ff" d="M66.88,-195.66C82.88,-176.19 111.76,-143.58 142,-122 146.12,-119.06 150.57,-116.29 155.14,-113.7"/>
<polygon fill="#63b8ff" stroke="#63b8ff" points="156.7,-116.83 163.9,-109.05 153.42,-110.64 156.7,-116.83"/>
</a>
</g>
</g>
<!-- Node8 -->
<g id="Node000008" class="node">
<title>Node8</title>
<g id="a_Node000008"><a xlink:href="structxpath__parser.html#a0a96a8f5a16b2171a83b6ae3bb2ccbba" target="_top" xlink:title=" ">
<polygon fill="white" stroke="#666666" points="1372.88,-538 1275.12,-538 1275.12,-518 1372.88,-518 1372.88,-538"/>
<text xml:space="preserve" text-anchor="middle" x="1324" y="-524.5" font-family="Helvetica,sans-Serif" font-size="10.00">xpath_parser::error</text>
</a>
</g>
</g>
<!-- Node1&#45;&gt;Node8 -->
<g id="edge7_Node000001_Node000008" class="edge">
<title>Node1&#45;&gt;Node8</title>
<g id="a_edge7_Node000001_Node000008"><a xlink:title=" ">
<path fill="none" stroke="#63b8ff" d="M106.24,-212C168.86,-212 276.97,-212 369.75,-212 369.75,-212 369.75,-212 846.88,-212 932.21,-212 1162.56,-143.36 1230.5,-195 1256.19,-214.52 1304.01,-436.31 1318.64,-506.7"/>
<polygon fill="#63b8ff" stroke="#63b8ff" points="1315.14,-507.1 1320.59,-516.18 1322,-505.68 1315.14,-507.1"/>
</a>
</g>
</g>
<!-- Node9 -->
<g id="Node000009" class="node">
<title>Node9</title>
<g id="a_Node000009"><a xlink:href="structxpath__parser.html#a253554c10701671465d3eab96e464c93" target="_top" xlink:title=" ">
<polygon fill="white" stroke="#666666" points="267.12,-58 145.38,-58 145.38,-38 267.12,-38 267.12,-58"/>
<text xml:space="preserve" text-anchor="middle" x="206.25" y="-44.5" font-family="Helvetica,sans-Serif" font-size="10.00">xpath_parser::error_oom</text>
</a>
</g>
</g>
<!-- Node1&#45;&gt;Node9 -->
<g id="edge8_Node000001_Node000009" class="edge">
<title>Node1&#45;&gt;Node9</title>
<g id="a_edge8_Node000001_Node000009"><a xlink:title=" ">
<path fill="none" stroke="#63b8ff" d="M59.37,-195.83C70.14,-165.86 97.29,-101.6 142,-67 143.53,-65.82 145.13,-64.71 146.78,-63.67"/>
<polygon fill="#63b8ff" stroke="#63b8ff" points="148.2,-66.88 155.44,-59.14 144.96,-60.68 148.2,-66.88"/>
</a>
</g>
</g>
<!-- Node10 -->
<g id="Node000010" class="node">
<title>Node10</title>
<g id="a_Node000010"><a xlink:href="structxpath__parser.html#a6c99a4ff18254581f34ec6b715885d99" target="_top" xlink:title=" ">
<polygon fill="white" stroke="#666666" points="1224.5,-829 1108,-829 1108,-809 1224.5,-809 1224.5,-829"/>
<text xml:space="preserve" text-anchor="middle" x="1166.25" y="-815.5" font-family="Helvetica,sans-Serif" font-size="10.00">xpath_parser::error_rec</text>
</a>
</g>
</g>
<!-- Node1&#45;&gt;Node10 -->
<g id="edge9_Node000001_Node000010" class="edge">
<title>Node1&#45;&gt;Node10</title>
<g id="a_edge9_Node000001_Node000010"><a xlink:title=" ">
<path fill="none" stroke="#63b8ff" d="M53.61,-228.29C52.49,-298.26 54,-579.08 142,-785 200.94,-922.91 219.77,-1034 369.75,-1034 369.75,-1034 369.75,-1034 539.62,-1034 592.06,-1034 1029.87,-936.77 1066,-917 1101.9,-897.36 1133.65,-860.94 1151.09,-838.46"/>
<polygon fill="#63b8ff" stroke="#63b8ff" points="1153.71,-840.79 1156.95,-830.7 1148.13,-836.57 1153.71,-840.79"/>
</a>
</g>
</g>
<!-- Node11 -->
<g id="Node000011" class="node">
<title>Node11</title>
<g id="a_Node000011"><a xlink:href="pugixml_8cpp.html#a046d19e3dedb7e154882fe5ad4647e25" target="_top" xlink:title=" ">
<polygon fill="white" stroke="#666666" points="259.25,-20 153.25,-20 153.25,0 259.25,0 259.25,-20"/>
<text xml:space="preserve" text-anchor="middle" x="206.25" y="-6.5" font-family="Helvetica,sans-Serif" font-size="10.00">get_variable_scratch</text>
</a>
</g>
</g>
<!-- Node1&#45;&gt;Node11 -->
<g id="edge11_Node000001_Node000011" class="edge">
<title>Node1&#45;&gt;Node11</title>
<g id="a_edge11_Node000001_Node000011"><a xlink:title=" ">
<path fill="none" stroke="#63b8ff" d="M57.21,-195.6C65.08,-159.88 88.67,-74.58 142,-29 143.25,-27.93 144.56,-26.92 145.92,-25.97"/>
<polygon fill="#63b8ff" stroke="#63b8ff" points="147.25,-29.24 154.17,-21.22 143.76,-23.17 147.25,-29.24"/>
</a>
</g>
</g>
<!-- Node12 -->
<g id="Node000012" class="node">
<title>Node12</title>
<g id="a_Node000012"><a xlink:href="structxpath__parser.html#a7738e256011ca842dc2a0beba78562ed" target="_top" xlink:title=" ">
<polygon fill="white" stroke="#666666" points="257.38,-544 155.12,-544 155.12,-512 257.38,-512 257.38,-544"/>
<text xml:space="preserve" text-anchor="start" x="163.12" y="-530.5" font-family="Helvetica,sans-Serif" font-size="10.00">xpath_parser::parse</text>
<text xml:space="preserve" text-anchor="middle" x="206.25" y="-518.5" font-family="Helvetica,sans-Serif" font-size="10.00">_expression</text>
</a>
</g>
</g>
<!-- Node1&#45;&gt;Node12 -->
<g id="edge12_Node000001_Node000012" class="edge">
<title>Node1&#45;&gt;Node12</title>
<g id="a_edge12_Node000001_Node000012"><a xlink:title=" ">
<path fill="none" stroke="#63b8ff" d="M61.71,-228.1C86.18,-279.23 162.27,-438.2 192.59,-501.55"/>
<polygon fill="#63b8ff" stroke="#63b8ff" points="189.25,-502.67 196.72,-510.18 195.56,-499.65 189.25,-502.67"/>
</a>
</g>
</g>
<!-- Node26 -->
<g id="Node000026" class="node">
<title>Node26</title>
<g id="a_Node000026"><a xlink:href="classxpath__ast__node.html#a2764184d076834284eb3ff3182b845cc" target="_top" xlink:title=" ">
<polygon fill="white" stroke="#666666" points="1230.5,-148 1102,-148 1102,-128 1230.5,-128 1230.5,-148"/>
<text xml:space="preserve" text-anchor="middle" x="1166.25" y="-134.5" font-family="Helvetica,sans-Serif" font-size="10.00">xpath_ast_node::set_next</text>
</a>
</g>
</g>
<!-- Node1&#45;&gt;Node26 -->
<g id="edge61_Node000001_Node000026" class="edge">
<title>Node1&#45;&gt;Node26</title>
<g id="a_edge61_Node000001_Node000026"><a xlink:title=" ">
<path fill="none" stroke="#63b8ff" d="M89.35,-195.51C105.17,-188.66 124.24,-181.13 142,-176 240.74,-147.49 266.98,-136 369.75,-136 369.75,-136 369.75,-136 846.88,-136 930.17,-136 1025.73,-136.69 1090.25,-137.26"/>
<polygon fill="#63b8ff" stroke="#63b8ff" points="1089.98,-140.76 1100.01,-137.35 1090.04,-133.76 1089.98,-140.76"/>
</a>
</g>
</g>
<!-- Node29 -->
<g id="Node000029" class="node">
<title>Node29</title>
<g id="a_Node000029"><a xlink:href="structxpath__parser.html#a9a68f1cbf9900714aefe00059a66a22d" target="_top" xlink:title=" ">
<polygon fill="white" stroke="#666666" points="1054,-348 951.75,-348 951.75,-316 1054,-316 1054,-348"/>
<text xml:space="preserve" text-anchor="start" x="959.75" y="-334.5" font-family="Helvetica,sans-Serif" font-size="10.00">xpath_parser::parse</text>
<text xml:space="preserve" text-anchor="middle" x="1002.88" y="-322.5" font-family="Helvetica,sans-Serif" font-size="10.00">_function</text>
</a>
</g>
</g>
<!-- Node1&#45;&gt;Node29 -->
<g id="edge58_Node000001_Node000029" class="edge">
<title>Node1&#45;&gt;Node29</title>
<g id="a_edge58_Node000001_Node000029"><a xlink:title=" ">
<path fill="none" stroke="#63b8ff" d="M106.28,-222.18C168.72,-233.44 276.44,-250 369.75,-250 369.75,-250 369.75,-250 698.12,-250 745.57,-250 868.48,-287.75 942.6,-312.03"/>
<polygon fill="#63b8ff" stroke="#63b8ff" points="941.13,-315.23 951.73,-315.03 943.32,-308.58 941.13,-315.23"/>
</a>
</g>
</g>
<!-- Node5 -->
<g id="Node000005" class="node">
<title>Node5</title>
<g id="a_Node000005"><a xlink:href="pugixml_8cpp.html#ae6299198941714e42acefb1481370646" target="_top" xlink:title=" ">
<polygon fill="white" stroke="#666666" points="435,-102 306.5,-102 306.5,-82 435,-82 435,-102"/>
<text xml:space="preserve" text-anchor="middle" x="370.75" y="-88.5" font-family="Helvetica,sans-Serif" font-size="10.00">convert_string_to_number</text>
</a>
</g>
</g>
<!-- Node4&#45;&gt;Node5 -->
<g id="edge4_Node000004_Node000005" class="edge">
<title>Node4&#45;&gt;Node5</title>
<g id="a_edge4_Node000004_Node000005"><a xlink:title=" ">
<path fill="none" stroke="#63b8ff" d="M270.54,-92C278.48,-92 286.65,-92 294.74,-92"/>
<polygon fill="#63b8ff" stroke="#63b8ff" points="294.58,-95.5 304.58,-92 294.58,-88.5 294.58,-95.5"/>
</a>
</g>
</g>
<!-- Node6 -->
<g id="Node000006" class="node">
<title>Node6</title>
<g id="a_Node000006"><a xlink:href="pugixml_8cpp.html#a0bf9a61bcf9eb4888ef36942e5cd8d05" target="_top" xlink:title=" ">
<polygon fill="white" stroke="#666666" points="599.88,-108 477.38,-108 477.38,-76 599.88,-76 599.88,-108"/>
<text xml:space="preserve" text-anchor="start" x="485.38" y="-94.5" font-family="Helvetica,sans-Serif" font-size="10.00">check_string_to_number</text>
<text xml:space="preserve" text-anchor="middle" x="538.62" y="-82.5" font-family="Helvetica,sans-Serif" font-size="10.00">_format</text>
</a>
</g>
</g>
<!-- Node5&#45;&gt;Node6 -->
<g id="edge5_Node000005_Node000006" class="edge">
<title>Node5&#45;&gt;Node6</title>
<g id="a_edge5_Node000005_Node000006"><a xlink:title=" ">
<path fill="none" stroke="#63b8ff" d="M435.41,-92C445.36,-92 455.71,-92 465.84,-92"/>
<polygon fill="#63b8ff" stroke="#63b8ff" points="465.63,-95.5 475.63,-92 465.63,-88.5 465.63,-95.5"/>
</a>
</g>
</g>
<!-- Node7 -->
<g id="Node000007" class="node">
<title>Node7</title>
<g id="a_Node000007"><a xlink:href="pugixml_8cpp.html#a2f4c7e7ca3a98b25cbfa5d98dd21b300" target="_top" xlink:title=" ">
<polygon fill="white" stroke="#666666" points="565,-58 512.25,-58 512.25,-38 565,-38 565,-58"/>
<text xml:space="preserve" text-anchor="middle" x="538.62" y="-44.5" font-family="Helvetica,sans-Serif" font-size="10.00">gen_nan</text>
</a>
</g>
</g>
<!-- Node5&#45;&gt;Node7 -->
<g id="edge6_Node000005_Node000007" class="edge">
<title>Node5&#45;&gt;Node7</title>
<g id="a_edge6_Node000005_Node000007"><a xlink:title=" ">
<path fill="none" stroke="#63b8ff" d="M411.06,-81.57C438.39,-74.32 474.55,-64.73 501.22,-57.66"/>
<polygon fill="#63b8ff" stroke="#63b8ff" points="501.79,-61.13 510.55,-55.18 499.99,-54.36 501.79,-61.13"/>
</a>
</g>
</g>
<!-- Node10&#45;&gt;Node8 -->
<g id="edge10_Node000010_Node000008" class="edge">
<title>Node10&#45;&gt;Node8</title>
<g id="a_edge10_Node000010_Node000008"><a xlink:title=" ">
<path fill="none" stroke="#63b8ff" d="M1172.79,-808.64C1195.5,-766.21 1281.66,-605.23 1312.19,-548.19"/>
<polygon fill="#63b8ff" stroke="#63b8ff" points="1315.18,-550.04 1316.81,-539.57 1309,-546.73 1315.18,-550.04"/>
</a>
</g>
</g>
<!-- Node12&#45;&gt;Node10 -->
<g id="edge13_Node000012_Node000010" class="edge">
<title>Node12&#45;&gt;Node10</title>
<g id="a_edge13_Node000012_Node000010"><a xlink:title=" ">
<path fill="none" stroke="#63b8ff" d="M209.4,-544.45C215.9,-587.78 239.2,-706.28 306.5,-773 362.33,-828.35 395.34,-816.66 471,-838 726.41,-910.03 812.77,-967.38 1066,-888 1074.56,-885.32 1115.97,-855.43 1142.52,-835.88"/>
<polygon fill="#63b8ff" stroke="#63b8ff" points="1144.36,-838.87 1150.33,-830.12 1140.2,-833.24 1144.36,-838.87"/>
</a>
</g>
</g>
<!-- Node13 -->
<g id="Node000013" class="node">
<title>Node13</title>
<g id="a_Node000013"><a xlink:href="structxpath__parser.html#adcd54e9b508acfe1f040ee7a54b88f2a" target="_top" xlink:title=" ">
<polygon fill="white" stroke="#666666" points="421.88,-696 319.62,-696 319.62,-664 421.88,-664 421.88,-696"/>
<text xml:space="preserve" text-anchor="start" x="327.62" y="-682.5" font-family="Helvetica,sans-Serif" font-size="10.00">xpath_parser::parse</text>
<text xml:space="preserve" text-anchor="middle" x="370.75" y="-670.5" font-family="Helvetica,sans-Serif" font-size="10.00">_expression_rec</text>
</a>
</g>
</g>
<!-- Node12&#45;&gt;Node13 -->
<g id="edge14_Node000012_Node000013" class="edge">
<title>Node12&#45;&gt;Node13</title>
<g id="a_edge14_Node000012_Node000013"><a xlink:title=" ">
<path fill="none" stroke="#63b8ff" d="M224.64,-544.27C253.35,-571.12 310.8,-624.86 344.16,-656.06"/>
<polygon fill="#63b8ff" stroke="#63b8ff" points="341.69,-658.54 351.38,-662.82 346.47,-653.43 341.69,-658.54"/>
</a>
</g>
</g>
<!-- Node18 -->
<g id="Node000018" class="node">
<title>Node18</title>
<g id="a_Node000018"><a xlink:href="structxpath__parser.html#ab5275305ebaac95fd68a3186b737aaa7" target="_top" xlink:title=" ">
<polygon fill="white" stroke="#666666" points="606.25,-544 471,-544 471,-512 606.25,-512 606.25,-544"/>
<text xml:space="preserve" text-anchor="start" x="479" y="-530.5" font-family="Helvetica,sans-Serif" font-size="10.00">xpath_parser::parse</text>
<text xml:space="preserve" text-anchor="middle" x="538.62" y="-518.5" font-family="Helvetica,sans-Serif" font-size="10.00">_path_or_unary_expression</text>
</a>
</g>
</g>
<!-- Node12&#45;&gt;Node18 -->
<g id="edge57_Node000012_Node000018" class="edge">
<title>Node12&#45;&gt;Node18</title>
<g id="a_edge57_Node000012_Node000018"><a xlink:title=" ">
<path fill="none" stroke="#63b8ff" d="M257.79,-522.98C311.39,-520.99 396.77,-520.72 459.14,-522.16"/>
<polygon fill="#63b8ff" stroke="#63b8ff" points="458.91,-525.65 469,-522.41 459.09,-518.65 458.91,-525.65"/>
</a>
</g>
</g>
<!-- Node13&#45;&gt;Node2 -->
<g id="edge15_Node000013_Node000002" class="edge">
<title>Node13&#45;&gt;Node2</title>
<g id="a_edge15_Node000013_Node000002"><a xlink:title=" ">
<path fill="none" stroke="#63b8ff" d="M422.29,-667.9C564.02,-633.96 964.44,-538.08 1110.8,-503.04"/>
<polygon fill="#63b8ff" stroke="#63b8ff" points="1111.33,-506.51 1120.24,-500.78 1109.7,-499.7 1111.33,-506.51"/>
</a>
</g>
</g>
<!-- Node13&#45;&gt;Node8 -->
<g id="edge16_Node000013_Node000008" class="edge">
<title>Node13&#45;&gt;Node8</title>
<g id="a_edge16_Node000013_Node000008"><a xlink:title=" ">
<path fill="none" stroke="#63b8ff" d="M381.09,-696.33C396.75,-722.48 430.59,-774.05 471,-806 684.69,-974.92 800.85,-1015.42 1066,-953 1145.52,-934.28 1178.76,-934.22 1230.5,-871 1311.49,-772.05 1321.97,-608.41 1323.02,-549.76"/>
<polygon fill="#63b8ff" stroke="#63b8ff" points="1326.52,-549.87 1323.11,-539.84 1319.52,-549.8 1326.52,-549.87"/>
</a>
</g>
</g>
<!-- Node13&#45;&gt;Node10 -->
<g id="edge17_Node000013_Node000010" class="edge">
<title>Node13&#45;&gt;Node10</title>
<g id="a_edge17_Node000013_Node000010"><a xlink:title=" ">
<path fill="none" stroke="#63b8ff" d="M387.16,-696.48C405.55,-715.31 437.97,-745.98 471,-765 540.88,-805.25 562.74,-811.48 642.25,-825 727.45,-839.49 975.13,-829.12 1096.53,-822.84"/>
<polygon fill="#63b8ff" stroke="#63b8ff" points="1096.56,-826.34 1106.37,-822.33 1096.2,-819.35 1096.56,-826.34"/>
</a>
</g>
</g>
<!-- Node13&#45;&gt;Node13 -->
<g id="edge22_Node000013_Node000013" class="edge">
<title>Node13&#45;&gt;Node13</title>
<g id="a_edge22_Node000013_Node000013"><a xlink:title=" ">
<path fill="none" stroke="#63b8ff" d="M341.38,-696.44C335.9,-705.58 345.69,-714 370.75,-714 384.45,-714 393.59,-711.48 398.16,-707.71"/>
<polygon fill="#63b8ff" stroke="#63b8ff" points="401.6,-708.39 399.86,-697.93 394.7,-707.19 401.6,-708.39"/>
</a>
</g>
</g>
<!-- Node14 -->
<g id="Node000014" class="node">
<title>Node14</title>
<g id="a_Node000014"><a xlink:href="structxpath__parser_1_1binary__op__t.html#a723f5f2b66df47b4ac74455cb39b9544" target="_top" xlink:title=" ">
<polygon fill="white" stroke="#666666" points="590.88,-756 486.38,-756 486.38,-724 590.88,-724 590.88,-756"/>
<text xml:space="preserve" text-anchor="start" x="494.38" y="-742.5" font-family="Helvetica,sans-Serif" font-size="10.00">xpath_parser::binary</text>
<text xml:space="preserve" text-anchor="middle" x="538.62" y="-730.5" font-family="Helvetica,sans-Serif" font-size="10.00">_op_t::parse</text>
</a>
</g>
</g>
<!-- Node13&#45;&gt;Node14 -->
<g id="edge18_Node000013_Node000014" class="edge">
<title>Node13&#45;&gt;Node14</title>
<g id="a_edge18_Node000013_Node000014"><a xlink:title=" ">
<path fill="none" stroke="#63b8ff" d="M417.08,-696.4C436.93,-703.58 460.42,-712.07 481.37,-719.65"/>
<polygon fill="#63b8ff" stroke="#63b8ff" points="480.05,-722.9 490.64,-723.01 482.43,-716.31 480.05,-722.9"/>
</a>
</g>
</g>
<!-- Node13&#45;&gt;Node18 -->
<g id="edge23_Node000013_Node000018" class="edge">
<title>Node13&#45;&gt;Node18</title>
<g id="a_edge23_Node000013_Node000018"><a xlink:title=" ">
<path fill="none" stroke="#63b8ff" d="M389.5,-663.73C418.86,-636.83 477.64,-582.96 511.67,-551.79"/>
<polygon fill="#63b8ff" stroke="#63b8ff" points="513.63,-554.74 518.63,-545.4 508.9,-549.58 513.63,-554.74"/>
</a>
</g>
</g>
<!-- Node20 -->
<g id="Node000020" class="node">
<title>Node20</title>
<g id="a_Node000020"><a xlink:href="classxpath__ast__node.html#a2c12e34a46db2a3d0052f9f38bcf1bb6" target="_top" xlink:title=" ">
<polygon fill="white" stroke="#666666" points="1226.75,-652 1105.75,-652 1105.75,-632 1226.75,-632 1226.75,-652"/>
<text xml:space="preserve" text-anchor="middle" x="1166.25" y="-638.5" font-family="Helvetica,sans-Serif" font-size="10.00">xpath_ast_node::rettype</text>
</a>
</g>
</g>
<!-- Node13&#45;&gt;Node20 -->
<g id="edge56_Node000013_Node000020" class="edge">
<title>Node13&#45;&gt;Node20</title>
<g id="a_edge56_Node000013_Node000020"><a xlink:title=" ">
<path fill="none" stroke="#63b8ff" d="M422.32,-680C486.13,-680 599.26,-680 696.12,-680 696.12,-680 696.12,-680 846.88,-680 934.83,-680 1035.5,-665.52 1099.68,-654.44"/>
<polygon fill="#63b8ff" stroke="#63b8ff" points="1100.1,-657.92 1109.35,-652.75 1098.89,-651.03 1100.1,-657.92"/>
</a>
</g>
</g>
<!-- Node15 -->
<g id="Node000015" class="node">
<title>Node15</title>
<g id="a_Node000015"><a xlink:href="structxpath__parser_1_1binary__op__t.html#a18cac63911120c27f5ee842b1e6afe35" target="_top" xlink:title=" ">
<polygon fill="white" stroke="#666666" points="749.38,-816 644.88,-816 644.88,-784 749.38,-784 749.38,-816"/>
<text xml:space="preserve" text-anchor="start" x="652.88" y="-802.5" font-family="Helvetica,sans-Serif" font-size="10.00">xpath_parser::binary</text>
<text xml:space="preserve" text-anchor="middle" x="697.12" y="-790.5" font-family="Helvetica,sans-Serif" font-size="10.00">_op_t::binary_op_t</text>
</a>
</g>
</g>
<!-- Node14&#45;&gt;Node15 -->
<g id="edge19_Node000014_Node000015" class="edge">
<title>Node14&#45;&gt;Node15</title>
<g id="a_edge19_Node000014_Node000015"><a xlink:title=" ">
<path fill="none" stroke="#63b8ff" d="M582.39,-756.4C600.94,-763.51 622.88,-771.92 642.51,-779.44"/>
<polygon fill="#63b8ff" stroke="#63b8ff" points="641.14,-782.67 651.73,-782.98 643.64,-776.13 641.14,-782.67"/>
</a>
</g>
</g>
<!-- Node16 -->
<g id="Node000016" class="node">
<title>Node16</title>
<g id="a_Node000016"><a xlink:href="classxpath__lexer.html#a9a398feb578c697be7067f6f8d178fc9" target="_top" xlink:title=" ">
<polygon fill="white" stroke="#666666" points="752,-766 642.25,-766 642.25,-746 752,-746 752,-766"/>
<text xml:space="preserve" text-anchor="middle" x="697.12" y="-752.5" font-family="Helvetica,sans-Serif" font-size="10.00">xpath_lexer::contents</text>
</a>
</g>
</g>
<!-- Node14&#45;&gt;Node16 -->
<g id="edge20_Node000014_Node000016" class="edge">
<title>Node14&#45;&gt;Node16</title>
<g id="a_edge20_Node000014_Node000016"><a xlink:title=" ">
<path fill="none" stroke="#63b8ff" d="M591.3,-745.28C603.84,-746.56 617.4,-747.95 630.48,-749.29"/>
<polygon fill="#63b8ff" stroke="#63b8ff" points="630.01,-752.76 640.31,-750.29 630.72,-745.79 630.01,-752.76"/>
</a>
</g>
</g>
<!-- Node17 -->
<g id="Node000017" class="node">
<title>Node17</title>
<g id="a_Node000017"><a xlink:href="classxpath__lexer.html#a47425d5012741aecfd898306651439d0" target="_top" xlink:title=" ">
<polygon fill="white" stroke="#666666" points="748.25,-728 646,-728 646,-708 748.25,-708 748.25,-728"/>
<text xml:space="preserve" text-anchor="middle" x="697.12" y="-714.5" font-family="Helvetica,sans-Serif" font-size="10.00">xpath_lexer::current</text>
</a>
</g>
</g>
<!-- Node14&#45;&gt;Node17 -->
<g id="edge21_Node000014_Node000017" class="edge">
<title>Node14&#45;&gt;Node17</title>
<g id="a_edge21_Node000014_Node000017"><a xlink:title=" ">
<path fill="none" stroke="#63b8ff" d="M591.3,-732.74C605.07,-730.8 620.09,-728.69 634.34,-726.69"/>
<polygon fill="#63b8ff" stroke="#63b8ff" points="634.65,-730.18 644.07,-725.32 633.68,-723.24 634.65,-730.18"/>
</a>
</g>
</g>
<!-- Node18&#45;&gt;Node2 -->
<g id="edge24_Node000018_Node000002" class="edge">
<title>Node18&#45;&gt;Node2</title>
<g id="a_edge24_Node000018_Node000002"><a xlink:title=" ">
<path fill="none" stroke="#63b8ff" d="M552.56,-511.73C570.31,-490.71 604.35,-454.84 642.25,-438 812.61,-362.32 1044.14,-440.55 1130.71,-475.23"/>
<polygon fill="#63b8ff" stroke="#63b8ff" points="1129.26,-478.42 1139.84,-478.95 1131.9,-471.94 1129.26,-478.42"/>
</a>
</g>
</g>
<!-- Node18&#45;&gt;Node8 -->
<g id="edge25_Node000018_Node000008" class="edge">
<title>Node18&#45;&gt;Node8</title>
<g id="a_edge25_Node000018_Node000008"><a xlink:title=" ">
<path fill="none" stroke="#63b8ff" d="M606.62,-528C668.46,-528 762.87,-528 844.88,-528 844.88,-528 844.88,-528 1003.88,-528 1094.37,-528 1199.3,-528 1263.4,-528"/>
<polygon fill="#63b8ff" stroke="#63b8ff" points="1263.37,-531.5 1273.37,-528 1263.37,-524.5 1263.37,-531.5"/>
</a>
</g>
</g>
<!-- Node18&#45;&gt;Node12 -->
<g id="edge26_Node000018_Node000012" class="edge">
<title>Node18&#45;&gt;Node12</title>
<g id="a_edge26_Node000018_Node000012"><a xlink:title=" ">
<path fill="none" stroke="#63b8ff" d="M470.51,-533.56C411.58,-535.2 326.56,-535.15 269.23,-533.41"/>
<polygon fill="#63b8ff" stroke="#63b8ff" points="269.41,-529.91 259.3,-533.07 269.18,-536.91 269.41,-529.91"/>
</a>
</g>
</g>
<!-- Node19 -->
<g id="Node000019" class="node">
<title>Node19</title>
<g id="a_Node000019"><a xlink:href="structxpath__parser.html#a61a425d990a56d5db8cd14405835a5b6" target="_top" xlink:title=" ">
<polygon fill="white" stroke="#666666" points="1054,-879 951.75,-879 951.75,-847 1054,-847 1054,-879"/>
<text xml:space="preserve" text-anchor="start" x="959.75" y="-865.5" font-family="Helvetica,sans-Serif" font-size="10.00">xpath_parser::parse</text>
<text xml:space="preserve" text-anchor="middle" x="1002.88" y="-853.5" font-family="Helvetica,sans-Serif" font-size="10.00">_filter_expression</text>
</a>
</g>
</g>
<!-- Node18&#45;&gt;Node19 -->
<g id="edge27_Node000018_Node000019" class="edge">
<title>Node18&#45;&gt;Node19</title>
<g id="a_edge27_Node000018_Node000019"><a xlink:title=" ">
<path fill="none" stroke="#63b8ff" d="M562.23,-544.38C637.88,-599.21 882.33,-776.36 970.12,-839.98"/>
<polygon fill="#63b8ff" stroke="#63b8ff" points="967.93,-842.72 978.08,-845.76 972.04,-837.06 967.93,-842.72"/>
</a>
</g>
</g>
<!-- Node18&#45;&gt;Node20 -->
<g id="edge55_Node000018_Node000020" class="edge">
<title>Node18&#45;&gt;Node20</title>
<g id="a_edge55_Node000018_Node000020"><a xlink:title=" ">
<path fill="none" stroke="#63b8ff" d="M606.58,-540.2C726.28,-562.01 975.75,-607.47 1096.64,-629.5"/>
<polygon fill="#63b8ff" stroke="#63b8ff" points="1095.98,-632.93 1106.44,-631.28 1097.23,-626.05 1095.98,-632.93"/>
</a>
</g>
</g>
<!-- Node21 -->
<g id="Node000021" class="node">
<title>Node21</title>
<g id="a_Node000021"><a xlink:href="structxpath__parser.html#af14e396ddb7817998ec221eec6b781ab" target="_top" xlink:title=" ">
<polygon fill="white" stroke="#666666" points="748.25,-500 646,-500 646,-468 748.25,-468 748.25,-500"/>
<text xml:space="preserve" text-anchor="start" x="654" y="-486.5" font-family="Helvetica,sans-Serif" font-size="10.00">xpath_parser::parse</text>
<text xml:space="preserve" text-anchor="middle" x="697.12" y="-474.5" font-family="Helvetica,sans-Serif" font-size="10.00">_location_path</text>
</a>
</g>
</g>
<!-- Node18&#45;&gt;Node21 -->
<g id="edge34_Node000018_Node000021" class="edge">
<title>Node18&#45;&gt;Node21</title>
<g id="a_edge34_Node000018_Node000021"><a xlink:title=" ">
<path fill="none" stroke="#63b8ff" d="M597.9,-511.62C609.88,-508.25 622.52,-504.69 634.61,-501.3"/>
<polygon fill="#63b8ff" stroke="#63b8ff" points="635.38,-504.71 644.06,-498.64 633.49,-497.98 635.38,-504.71"/>
</a>
</g>
</g>
<!-- Node22 -->
<g id="Node000022" class="node">
<title>Node22</title>
<g id="a_Node000022"><a xlink:href="structxpath__parser.html#aebea559423376001c89b19216dfc3012" target="_top" xlink:title=" ">
<polygon fill="white" stroke="#666666" points="903.75,-462 788,-462 788,-430 903.75,-430 903.75,-462"/>
<text xml:space="preserve" text-anchor="start" x="796" y="-448.5" font-family="Helvetica,sans-Serif" font-size="10.00">xpath_parser::parse</text>
<text xml:space="preserve" text-anchor="middle" x="845.88" y="-436.5" font-family="Helvetica,sans-Serif" font-size="10.00">_relative_location_path</text>
</a>
</g>
</g>
<!-- Node18&#45;&gt;Node22 -->
<g id="edge54_Node000018_Node000022" class="edge">
<title>Node18&#45;&gt;Node22</title>
<g id="a_edge54_Node000018_Node000022"><a xlink:title=" ">
<path fill="none" stroke="#63b8ff" d="M557.3,-511.76C576.57,-495.16 609.12,-470.27 642.25,-459 685.32,-444.34 736.46,-441.16 776.59,-441.61"/>
<polygon fill="#63b8ff" stroke="#63b8ff" points="776.29,-445.1 786.36,-441.8 776.43,-438.1 776.29,-445.1"/>
</a>
</g>
</g>
<!-- Node25 -->
<g id="Node000025" class="node">
<title>Node25</title>
<g id="a_Node000025"><a xlink:href="structxpath__parser.html#a7b4555d7bfdb90971333c46963d5d791" target="_top" xlink:title=" ">
<polygon fill="white" stroke="#666666" points="1217.38,-286 1115.12,-286 1115.12,-254 1217.38,-254 1217.38,-286"/>
<text xml:space="preserve" text-anchor="start" x="1123.12" y="-272.5" font-family="Helvetica,sans-Serif" font-size="10.00">xpath_parser::parse</text>
<text xml:space="preserve" text-anchor="middle" x="1166.25" y="-260.5" font-family="Helvetica,sans-Serif" font-size="10.00">_node_test_type</text>
</a>
</g>
</g>
<!-- Node18&#45;&gt;Node25 -->
<g id="edge53_Node000018_Node000025" class="edge">
<title>Node18&#45;&gt;Node25</title>
<g id="a_edge53_Node000018_Node000025"><a xlink:title=" ">
<path fill="none" stroke="#63b8ff" d="M549.8,-511.81C566.45,-486.4 601.75,-436.88 642.25,-406 758,-317.73 797.56,-300.17 939.75,-269 994.22,-257.06 1057.88,-258.72 1103.64,-262.54"/>
<polygon fill="#63b8ff" stroke="#63b8ff" points="1103.1,-266 1113.37,-263.41 1103.72,-259.03 1103.1,-266"/>
</a>
</g>
</g>
<!-- Node19&#45;&gt;Node1 -->
<g id="edge32_Node000019_Node000001" class="edge">
<title>Node19&#45;&gt;Node1</title>
<g id="a_edge32_Node000019_Node000001"><a xlink:title=" ">
<path fill="none" stroke="#63b8ff" d="M968.89,-879.44C894.36,-915.03 706.43,-996 539.62,-996 369.75,-996 369.75,-996 369.75,-996 203.1,-996 83.6,-378.78 58.78,-239.64"/>
<polygon fill="#63b8ff" stroke="#63b8ff" points="62.24,-239.11 57.05,-229.87 55.35,-240.32 62.24,-239.11"/>
</a>
</g>
</g>
<!-- Node19&#45;&gt;Node2 -->
<g id="edge28_Node000019_Node000002" class="edge">
<title>Node19&#45;&gt;Node2</title>
<g id="a_edge28_Node000019_Node000002"><a xlink:title=" ">
<path fill="none" stroke="#63b8ff" d="M1010.23,-846.57C1025.4,-807.52 1065.25,-706.17 1102,-623 1119.82,-582.66 1142.34,-536.31 1155.14,-510.35"/>
<polygon fill="#63b8ff" stroke="#63b8ff" points="1158.16,-512.13 1159.46,-501.61 1151.89,-509.02 1158.16,-512.13"/>
</a>
</g>
</g>
<!-- Node19&#45;&gt;Node8 -->
<g id="edge29_Node000019_Node000008" class="edge">
<title>Node19&#45;&gt;Node8</title>
<g id="a_edge29_Node000019_Node000008"><a xlink:title=" ">
<path fill="none" stroke="#63b8ff" d="M1054.12,-872.09C1104.55,-878.19 1181.57,-878.83 1230.5,-838 1276.08,-799.97 1309.46,-613.34 1319.71,-549.48"/>
<polygon fill="#63b8ff" stroke="#63b8ff" points="1323.11,-550.34 1321.21,-539.92 1316.2,-549.26 1323.11,-550.34"/>
</a>
</g>
</g>
<!-- Node19&#45;&gt;Node10 -->
<g id="edge30_Node000019_Node000010" class="edge">
<title>Node19&#45;&gt;Node10</title>
<g id="a_edge30_Node000019_Node000010"><a xlink:title=" ">
<path fill="none" stroke="#63b8ff" d="M1054.49,-849.2C1074.04,-843.87 1096.34,-837.79 1115.78,-832.49"/>
<polygon fill="#63b8ff" stroke="#63b8ff" points="1116.66,-835.88 1125.39,-829.87 1114.82,-829.12 1116.66,-835.88"/>
</a>
</g>
</g>
<!-- Node19&#45;&gt;Node12 -->
<g id="edge31_Node000019_Node000012" class="edge">
<title>Node19&#45;&gt;Node12</title>
<g id="a_edge31_Node000019_Node000012"><a xlink:title=" ">
<path fill="none" stroke="#63b8ff" d="M951.52,-865.19C855.19,-867.76 639.44,-865.59 471,-806 393.8,-778.69 364.51,-780.8 306.5,-723 257.54,-674.21 228.03,-596.26 215.07,-555.25"/>
<polygon fill="#63b8ff" stroke="#63b8ff" points="218.49,-554.47 212.22,-545.93 211.79,-556.52 218.49,-554.47"/>
</a>
</g>
</g>
<!-- Node19&#45;&gt;Node20 -->
<g id="edge33_Node000019_Node000020" class="edge">
<title>Node19&#45;&gt;Node20</title>
<g id="a_edge33_Node000019_Node000020"><a xlink:title=" ">
<path fill="none" stroke="#63b8ff" d="M1015.74,-846.75C1044.85,-806.88 1119.71,-704.37 1151.08,-661.4"/>
<polygon fill="#63b8ff" stroke="#63b8ff" points="1153.78,-663.64 1156.85,-653.5 1148.13,-659.51 1153.78,-663.64"/>
</a>
</g>
</g>
<!-- Node21&#45;&gt;Node2 -->
<g id="edge35_Node000021_Node000002" class="edge">
<title>Node21&#45;&gt;Node2</title>
<g id="a_edge35_Node000021_Node000002"><a xlink:title=" ">
<path fill="none" stroke="#63b8ff" d="M748.56,-484.65C831.42,-485.71 996.68,-487.83 1092.3,-489.06"/>
<polygon fill="#63b8ff" stroke="#63b8ff" points="1092.05,-492.56 1102.09,-489.19 1092.14,-485.56 1092.05,-492.56"/>
</a>
</g>
</g>
<!-- Node21&#45;&gt;Node22 -->
<g id="edge36_Node000021_Node000022" class="edge">
<title>Node21&#45;&gt;Node22</title>
<g id="a_edge36_Node000021_Node000022"><a xlink:title=" ">
<path fill="none" stroke="#63b8ff" d="M748.63,-470.92C757.69,-468.58 767.26,-466.1 776.72,-463.65"/>
<polygon fill="#63b8ff" stroke="#63b8ff" points="777.46,-467.07 786.27,-461.18 775.71,-460.3 777.46,-467.07"/>
</a>
</g>
</g>
<!-- Node22&#45;&gt;Node2 -->
<g id="edge37_Node000022_Node000002" class="edge">
<title>Node22&#45;&gt;Node2</title>
<g id="a_edge37_Node000022_Node000002"><a xlink:title=" ">
<path fill="none" stroke="#63b8ff" d="M904.09,-453.77C948.31,-459.79 1011.04,-468.36 1066,-476 1074.54,-477.19 1083.5,-478.44 1092.39,-479.69"/>
<polygon fill="#63b8ff" stroke="#63b8ff" points="1091.69,-483.12 1102.08,-481.05 1092.66,-476.19 1091.69,-483.12"/>
</a>
</g>
</g>
<!-- Node22&#45;&gt;Node10 -->
<g id="edge38_Node000022_Node000010" class="edge">
<title>Node22&#45;&gt;Node10</title>
<g id="a_edge38_Node000022_Node000010"><a xlink:title=" ">
<path fill="none" stroke="#63b8ff" d="M860.56,-462.03C912.06,-522.37 1094.14,-735.69 1149.3,-800.31"/>
<polygon fill="#63b8ff" stroke="#63b8ff" points="1146.35,-802.25 1155.5,-807.58 1151.67,-797.7 1146.35,-802.25"/>
</a>
</g>
</g>
<!-- Node23 -->
<g id="Node000023" class="node">
<title>Node23</title>
<g id="a_Node000023"><a xlink:href="structxpath__parser.html#a0b226e2905970c868ab6a80d76da3a95" target="_top" xlink:title=" ">
<polygon fill="white" stroke="#666666" points="1066,-298 939.75,-298 939.75,-278 1066,-278 1066,-298"/>
<text xml:space="preserve" text-anchor="middle" x="1002.88" y="-284.5" font-family="Helvetica,sans-Serif" font-size="10.00">xpath_parser::parse_step</text>
</a>
</g>
</g>
<!-- Node22&#45;&gt;Node23 -->
<g id="edge39_Node000022_Node000023" class="edge">
<title>Node22&#45;&gt;Node23</title>
<g id="a_edge39_Node000022_Node000023"><a xlink:title=" ">
<path fill="none" stroke="#63b8ff" d="M853.39,-429.61C865.77,-400.53 895.5,-339.9 939.75,-307 941.48,-305.71 943.3,-304.51 945.18,-303.39"/>
<polygon fill="#63b8ff" stroke="#63b8ff" points="946.33,-306.73 953.69,-299.12 943.19,-300.48 946.33,-306.73"/>
</a>
</g>
</g>
<!-- Node23&#45;&gt;Node2 -->
<g id="edge40_Node000023_Node000002" class="edge">
<title>Node23&#45;&gt;Node2</title>
<g id="a_edge40_Node000023_Node000002"><a xlink:title=" ">
<path fill="none" stroke="#63b8ff" d="M1054.24,-298.42C1058.56,-300.74 1062.58,-303.56 1066,-307 1105.52,-346.82 1073.04,-379.94 1102,-428 1112.45,-445.34 1128.87,-461.24 1142.36,-472.59"/>
<polygon fill="#63b8ff" stroke="#63b8ff" points="1139.98,-475.16 1149.95,-478.74 1144.39,-469.72 1139.98,-475.16"/>
</a>
</g>
</g>
<!-- Node23&#45;&gt;Node3 -->
<g id="edge41_Node000023_Node000003" class="edge">
<title>Node23&#45;&gt;Node3</title>
<g id="a_edge41_Node000023_Node000003"><a xlink:title=" ">
<path fill="none" stroke="#63b8ff" d="M1027.17,-277.51C1046.98,-268.65 1076.25,-255.73 1102,-245 1105.38,-243.59 1108.87,-242.16 1112.39,-240.73"/>
<polygon fill="#63b8ff" stroke="#63b8ff" points="1113.6,-244.01 1121.57,-237.03 1110.99,-237.52 1113.6,-244.01"/>
</a>
</g>
</g>
<!-- Node23&#45;&gt;Node8 -->
<g id="edge42_Node000023_Node000008" class="edge">
<title>Node23&#45;&gt;Node8</title>
<g id="a_edge42_Node000023_Node000008"><a xlink:title=" ">
<path fill="none" stroke="#63b8ff" d="M1053.27,-298.47C1057.9,-300.77 1062.25,-303.58 1066,-307 1097.22,-335.48 1070.15,-367.23 1102,-395 1146.45,-433.74 1179.86,-397.79 1230.5,-428 1264.85,-448.49 1294.18,-485.54 1310.13,-508.34"/>
<polygon fill="#63b8ff" stroke="#63b8ff" points="1307.13,-510.14 1315.64,-516.44 1312.92,-506.21 1307.13,-510.14"/>
</a>
</g>
</g>
<!-- Node23&#45;&gt;Node10 -->
<g id="edge43_Node000023_Node000010" class="edge">
<title>Node23&#45;&gt;Node10</title>
<g id="a_edge43_Node000023_Node000010"><a xlink:title=" ">
<path fill="none" stroke="#63b8ff" d="M1056.1,-298.48C1059.82,-300.8 1063.21,-303.6 1066,-307 1116.19,-368.1 1083.12,-584.21 1102,-661 1114.58,-712.17 1140.32,-768.72 1154.79,-798.32"/>
<polygon fill="#63b8ff" stroke="#63b8ff" points="1151.64,-799.85 1159.22,-807.26 1157.91,-796.74 1151.64,-799.85"/>
</a>
</g>
</g>
<!-- Node23&#45;&gt;Node12 -->
<g id="edge45_Node000023_Node000012" class="edge">
<title>Node23&#45;&gt;Node12</title>
<g id="a_edge45_Node000023_Node000012"><a xlink:title=" ">
<path fill="none" stroke="#63b8ff" d="M965.12,-298.47C922.47,-310.66 850.06,-331.5 788,-350 598.16,-406.61 374.22,-475.98 268.44,-508.91"/>
<polygon fill="#63b8ff" stroke="#63b8ff" points="267.62,-505.5 259.11,-511.81 269.7,-512.18 267.62,-505.5"/>
</a>
</g>
</g>
<!-- Node23&#45;&gt;Node20 -->
<g id="edge47_Node000023_Node000020" class="edge">
<title>Node23&#45;&gt;Node20</title>
<g id="a_edge47_Node000023_Node000020"><a xlink:title=" ">
<path fill="none" stroke="#63b8ff" d="M1055.24,-298.37C1059.25,-300.7 1062.93,-303.54 1066,-307 1126.49,-375.25 1074.17,-422.16 1102,-509 1115.39,-550.78 1139.25,-596.31 1153.53,-621.79"/>
<polygon fill="#63b8ff" stroke="#63b8ff" points="1150.43,-623.43 1158.42,-630.39 1156.52,-619.97 1150.43,-623.43"/>
</a>
</g>
</g>
<!-- Node24 -->
<g id="Node000024" class="node">
<title>Node24</title>
<g id="a_Node000024"><a xlink:href="structxpath__parser.html#ad67ec26e0e286ca1bb5144a79e3a3583" target="_top" xlink:title=" ">
<polygon fill="white" stroke="#666666" points="1217.38,-386 1115.12,-386 1115.12,-354 1217.38,-354 1217.38,-386"/>
<text xml:space="preserve" text-anchor="start" x="1123.12" y="-372.5" font-family="Helvetica,sans-Serif" font-size="10.00">xpath_parser::parse</text>
<text xml:space="preserve" text-anchor="middle" x="1166.25" y="-360.5" font-family="Helvetica,sans-Serif" font-size="10.00">_axis_name</text>
</a>
</g>
</g>
<!-- Node23&#45;&gt;Node24 -->
<g id="edge44_Node000023_Node000024" class="edge">
<title>Node23&#45;&gt;Node24</title>
<g id="a_edge44_Node000023_Node000024"><a xlink:title=" ">
<path fill="none" stroke="#63b8ff" d="M1048.22,-298.46C1054.42,-300.79 1060.53,-303.61 1066,-307 1085.78,-319.25 1082.73,-331.97 1102,-345 1103.61,-346.09 1105.28,-347.15 1106.99,-348.16"/>
<polygon fill="#63b8ff" stroke="#63b8ff" points="1105.33,-351.25 1115.8,-352.88 1108.64,-345.07 1105.33,-351.25"/>
</a>
</g>
</g>
<!-- Node23&#45;&gt;Node25 -->
<g id="edge46_Node000023_Node000025" class="edge">
<title>Node23&#45;&gt;Node25</title>
<g id="a_edge46_Node000023_Node000025"><a xlink:title=" ">
<path fill="none" stroke="#63b8ff" d="M1066.27,-281.04C1078.43,-279.68 1091.18,-278.26 1103.33,-276.91"/>
<polygon fill="#63b8ff" stroke="#63b8ff" points="1103.71,-280.39 1113.26,-275.8 1102.93,-273.43 1103.71,-280.39"/>
</a>
</g>
</g>
<!-- Node23&#45;&gt;Node26 -->
<g id="edge48_Node000023_Node000026" class="edge">
<title>Node23&#45;&gt;Node26</title>
<g id="a_edge48_Node000023_Node000026"><a xlink:title=" ">
<path fill="none" stroke="#63b8ff" d="M1014.68,-277.59C1032.67,-260.3 1069.94,-224.63 1102,-195 1116.33,-181.76 1132.69,-167.02 1145.18,-155.85"/>
<polygon fill="#63b8ff" stroke="#63b8ff" points="1147.25,-158.7 1152.38,-149.43 1142.59,-153.47 1147.25,-158.7"/>
</a>
</g>
</g>
<!-- Node28 -->
<g id="Node000028" class="node">
<title>Node28</title>
<g id="a_Node000028"><a xlink:href="classxpath__ast__node.html#afe044146db852b7d4dbf188fd2ff6c75" target="_top" xlink:title=" ">
<polygon fill="white" stroke="#666666" points="1218.5,-336 1114,-336 1114,-304 1218.5,-304 1218.5,-336"/>
<text xml:space="preserve" text-anchor="start" x="1122" y="-322.5" font-family="Helvetica,sans-Serif" font-size="10.00">xpath_ast_node::set</text>
<text xml:space="preserve" text-anchor="middle" x="1166.25" y="-310.5" font-family="Helvetica,sans-Serif" font-size="10.00">_right</text>
</a>
</g>
</g>
<!-- Node23&#45;&gt;Node28 -->
<g id="edge51_Node000023_Node000028" class="edge">
<title>Node23&#45;&gt;Node28</title>
<g id="a_edge51_Node000023_Node000028"><a xlink:title=" ">
<path fill="none" stroke="#63b8ff" d="M1056.72,-298.48C1071.43,-301.4 1087.56,-304.6 1102.78,-307.61"/>
<polygon fill="#63b8ff" stroke="#63b8ff" points="1101.69,-310.96 1112.18,-309.48 1103.05,-304.1 1101.69,-310.96"/>
</a>
</g>
</g>
<!-- Node27 -->
<g id="Node000027" class="node">
<title>Node27</title>
<g id="a_Node000027"><a xlink:href="classxpath__ast__node.html#ae5a059e41b41505bef1f7dbebda8070b" target="_top" xlink:title=" ">
<polygon fill="white" stroke="#666666" points="1381.5,-245 1266.5,-245 1266.5,-213 1381.5,-213 1381.5,-245"/>
<text xml:space="preserve" text-anchor="start" x="1274.5" y="-231.5" font-family="Helvetica,sans-Serif" font-size="10.00">xpath_ast_node::xpath</text>
<text xml:space="preserve" text-anchor="middle" x="1324" y="-219.5" font-family="Helvetica,sans-Serif" font-size="10.00">_ast_node</text>
</a>
</g>
</g>
<!-- Node26&#45;&gt;Node27 -->
<g id="edge49_Node000026_Node000027" class="edge">
<title>Node26&#45;&gt;Node27</title>
<g id="a_edge49_Node000026_Node000027"><a xlink:title=" ">
<path fill="none" stroke="#63b8ff" d="M1199.83,-148.49C1209.91,-152.23 1220.89,-156.81 1230.5,-162 1253.53,-174.43 1277.41,-191.85 1295.13,-205.82"/>
<polygon fill="#63b8ff" stroke="#63b8ff" points="1292.62,-208.29 1302.62,-211.81 1297,-202.83 1292.62,-208.29"/>
</a>
</g>
</g>
<!-- Node27&#45;&gt;Node27 -->
<g id="edge50_Node000027_Node000027" class="edge">
<title>Node27&#45;&gt;Node27</title>
<g id="a_edge50_Node000027_Node000027"><a xlink:title=" ">
<path fill="none" stroke="#63b8ff" d="M1295.84,-245.44C1290.58,-254.58 1299.97,-263 1324,-263 1337.14,-263 1345.91,-260.48 1350.29,-256.71"/>
<polygon fill="#63b8ff" stroke="#63b8ff" points="1353.73,-257.37 1351.91,-246.94 1346.82,-256.23 1353.73,-257.37"/>
</a>
</g>
</g>
<!-- Node28&#45;&gt;Node27 -->
<g id="edge52_Node000028_Node000027" class="edge">
<title>Node28&#45;&gt;Node27</title>
<g id="a_edge52_Node000028_Node000027"><a xlink:title=" ">
<path fill="none" stroke="#63b8ff" d="M1212.78,-303.56C1218.85,-300.92 1224.9,-298.05 1230.5,-295 1253.08,-282.72 1276.64,-265.84 1294.33,-252.23"/>
<polygon fill="#63b8ff" stroke="#63b8ff" points="1296.09,-255.3 1301.81,-246.38 1291.78,-249.78 1296.09,-255.3"/>
</a>
</g>
</g>
<!-- Node29&#45;&gt;Node2 -->
<g id="edge59_Node000029_Node000002" class="edge">
<title>Node29&#45;&gt;Node2</title>
<g id="a_edge59_Node000029_Node000002"><a xlink:title=" ">
<path fill="none" stroke="#63b8ff" d="M1048.96,-348.39C1055.27,-352.13 1061.22,-356.63 1066,-362 1098.51,-398.54 1067.93,-430.91 1102,-466 1105.09,-469.18 1108.64,-471.94 1112.45,-474.34"/>
<polygon fill="#63b8ff" stroke="#63b8ff" points="1110.53,-477.29 1121.01,-478.89 1113.82,-471.11 1110.53,-477.29"/>
</a>
</g>
</g>
<!-- Node29&#45;&gt;Node8 -->
<g id="edge60_Node000029_Node000008" class="edge">
<title>Node29&#45;&gt;Node8</title>
<g id="a_edge60_Node000029_Node000008"><a xlink:title=" ">
<path fill="none" stroke="#63b8ff" d="M1046.92,-348.39C1053.79,-352.2 1060.45,-356.72 1066,-362 1090.2,-385.04 1076.38,-406.55 1102,-428 1148.17,-466.67 1175.95,-445.48 1230.5,-471 1254.89,-482.41 1280.85,-498.82 1299.04,-511.11"/>
<polygon fill="#63b8ff" stroke="#63b8ff" points="1297.06,-514 1307.28,-516.77 1301.02,-508.22 1297.06,-514"/>
</a>
</g>
</g>
</g>
</svg>
