<?xml version="1.0" encoding="UTF-8" standalone="no"?>
<!DOCTYPE svg PUBLIC "-//W3C//DTD SVG 1.1//EN"
 "http://www.w3.org/Graphics/SVG/1.1/DTD/svg11.dtd">
<!-- Generated by graphviz version 14.1.2 (20260124.0452)
 -->
<!-- Title: strconv_attribute_impl::parse_eol Pages: 1 -->
<svg width="545pt" height="40pt"
 viewBox="0.00 0.00 545.00 40.00" xmlns="http://www.w3.org/2000/svg" xmlns:xlink="http://www.w3.org/1999/xlink">
<g id="graph0" class="graph" transform="scale(1 1) rotate(0) translate(4 36)">
<title>strconv_attribute_impl::parse_eol</title>
<!-- Node1 -->
<g id="Node000001" class="node">
<title>Node1</title>
<g id="a_Node000001"><a xlink:title=" ">
<polygon fill="#999999" stroke="#666666" points="537.25,-32 425.25,-32 425.25,0 537.25,0 537.25,-32"/>
<text xml:space="preserve" text-anchor="start" x="433.25" y="-18.5" font-family="Helvetica,sans-Serif" font-size="10.00">strconv_attribute_impl</text>
<text xml:space="preserve" text-anchor="middle" x="481.25" y="-6.5" font-family="Helvetica,sans-Serif" font-size="10.00">::parse_eol</text>
</a>
</g>
</g>
<!-- Node2 -->
<g id="Node000002" class="node">
<title>Node2</title>
<g id="a_Node000002"><a xlink:href="pugixml_8cpp.html#ab206ad5e3a83ea8040ec039ea641c208" target="_top" xlink:title=" ">
<polygon fill="white" stroke="#666666" points="389.25,-26 281.75,-26 281.75,-6 389.25,-6 389.25,-26"/>
<text xml:space="preserve" text-anchor="middle" x="335.5" y="-12.5" font-family="Helvetica,sans-Serif" font-size="10.00">get_strconv_attribute</text>
</a>
</g>
</g>
<!-- Node1&#45;&gt;Node2 -->
<g id="edge1_Node000001_Node000002" class="edge">
<title>Node1&#45;&gt;Node2</title>
<g id="a_edge1_Node000001_Node000002"><a xlink:title=" ">
<path fill="none" stroke="#63b8ff" d="M413.67,-16C405.53,-16 397.29,-16 389.39,-16"/>
<polygon fill="#63b8ff" stroke="#63b8ff" points="413.57,-19.5 423.57,-16 413.57,-12.5 413.57,-19.5"/>
</a>
</g>
</g>
<!-- Node3 -->
<g id="Node000003" class="node">
<title>Node3</title>
<g id="a_Node000003"><a xlink:href="structxml__parser.html#a35bac90f1975aa1a9d5de4b60b761f16" target="_top" xlink:title=" ">
<polygon fill="white" stroke="#666666" points="245.75,-26 130,-26 130,-6 245.75,-6 245.75,-26"/>
<text xml:space="preserve" text-anchor="middle" x="187.88" y="-12.5" font-family="Helvetica,sans-Serif" font-size="10.00">xml_parser::parse_tree</text>
</a>
</g>
</g>
<!-- Node2&#45;&gt;Node3 -->
<g id="edge2_Node000002_Node000003" class="edge">
<title>Node2&#45;&gt;Node3</title>
<g id="a_edge2_Node000002_Node000003"><a xlink:title=" ">
<path fill="none" stroke="#63b8ff" d="M270.24,-16C262.17,-16 253.95,-16 246,-16"/>
<polygon fill="#63b8ff" stroke="#63b8ff" points="270,-19.5 280,-16 270,-12.5 270,-19.5"/>
</a>
</g>
</g>
<!-- Node4 -->
<g id="Node000004" class="node">
<title>Node4</title>
<g id="a_Node000004"><a xlink:href="structxml__parser.html#a4bf0acd166edf3fc6cc9543002ff6f5d" target="_top" xlink:title=" ">
<polygon fill="white" stroke="#666666" points="94,-26 0,-26 0,-6 94,-6 94,-26"/>
<text xml:space="preserve" text-anchor="middle" x="47" y="-12.5" font-family="Helvetica,sans-Serif" font-size="10.00">xml_parser::parse</text>
</a>
</g>
</g>
<!-- Node3&#45;&gt;Node4 -->
<g id="edge3_Node000003_Node000004" class="edge">
<title>Node3&#45;&gt;Node4</title>
<g id="a_edge3_Node000003_Node000004"><a xlink:title=" ">
<path fill="none" stroke="#63b8ff" d="M118.14,-16C110.01,-16 101.86,-16 94.14,-16"/>
<polygon fill="#63b8ff" stroke="#63b8ff" points="118.07,-19.5 128.07,-16 118.07,-12.5 118.07,-19.5"/>
</a>
</g>
</g>
</g>
</svg>
