<?xml version="1.0" encoding="UTF-8" standalone="no"?>
<!DOCTYPE svg PUBLIC "-//W3C//DTD SVG 1.1//EN"
 "http://www.w3.org/Graphics/SVG/1.1/DTD/svg11.dtd">
<!-- Generated by graphviz version 14.1.2 (20260124.0452)
 -->
<!-- Title: xml_stream_chunk::xml_stream_chunk Pages: 1 -->
<svg width="596pt" height="66pt"
 viewBox="0.00 0.00 596.00 66.00" xmlns="http://www.w3.org/2000/svg" xmlns:xlink="http://www.w3.org/1999/xlink">
<g id="graph0" class="graph" transform="scale(1 1) rotate(0) translate(4 62)">
<title>xml_stream_chunk::xml_stream_chunk</title>
<!-- Node1 -->
<g id="Node000001" class="node">
<title>Node1</title>
<g id="a_Node000001"><a xlink:title=" ">
<polygon fill="#999999" stroke="#666666" points="587.5,-45 467.25,-45 467.25,-13 587.5,-13 587.5,-45"/>
<text xml:space="preserve" text-anchor="start" x="475.25" y="-31.5" font-family="Helvetica,sans-Serif" font-size="10.00">xml_stream_chunk::xml</text>
<text xml:space="preserve" text-anchor="middle" x="527.38" y="-19.5" font-family="Helvetica,sans-Serif" font-size="10.00">_stream_chunk</text>
</a>
</g>
</g>
<!-- Node2 -->
<g id="Node000002" class="node">
<title>Node2</title>
<g id="a_Node000002"><a xlink:href="structxml__stream__chunk.html#a2c01c25f2791d25214d3c73fae63f8d9" target="_top" xlink:title=" ">
<polygon fill="white" stroke="#666666" points="428.62,-58 297.12,-58 297.12,-38 428.62,-38 428.62,-58"/>
<text xml:space="preserve" text-anchor="middle" x="362.88" y="-44.5" font-family="Helvetica,sans-Serif" font-size="10.00">xml_stream_chunk::create</text>
</a>
</g>
</g>
<!-- Node1&#45;&gt;Node2 -->
<g id="edge1_Node000001_Node000002" class="edge">
<title>Node1&#45;&gt;Node2</title>
<g id="a_edge1_Node000001_Node000002"><a xlink:title=" ">
<path fill="none" stroke="#63b8ff" d="M455.36,-37.3C446.58,-38.33 437.62,-39.38 428.93,-40.39"/>
<polygon fill="#63b8ff" stroke="#63b8ff" points="455.76,-40.78 465.29,-36.14 454.95,-33.83 455.76,-40.78"/>
</a>
</g>
</g>
<!-- Node5 -->
<g id="Node000005" class="node">
<title>Node5</title>
<g id="a_Node000005"><a xlink:href="structxml__stream__chunk.html#a3e9bf7280c96a7433d60af129873a16f" target="_top" xlink:title=" ">
<polygon fill="white" stroke="#666666" points="431.25,-20 294.5,-20 294.5,0 431.25,0 431.25,-20"/>
<text xml:space="preserve" text-anchor="middle" x="362.88" y="-6.5" font-family="Helvetica,sans-Serif" font-size="10.00">xml_stream_chunk::destroy</text>
</a>
</g>
</g>
<!-- Node1&#45;&gt;Node5 -->
<g id="edge4_Node000001_Node000005" class="edge">
<title>Node1&#45;&gt;Node5</title>
<g id="a_edge4_Node000001_Node000005"><a xlink:title=" ">
<path fill="none" stroke="#63b8ff" d="M455.39,-20.7C447.52,-19.78 439.52,-18.85 431.7,-17.93"/>
<polygon fill="#63b8ff" stroke="#63b8ff" points="454.95,-24.17 465.29,-21.86 455.76,-17.22 454.95,-24.17"/>
</a>
</g>
</g>
<!-- Node3 -->
<g id="Node000003" class="node">
<title>Node3</title>
<g id="a_Node000003"><a xlink:href="pugixml_8cpp.html#a9cdb599cc0642b0e5c69d761de3d9882" target="_top" xlink:title=" ">
<polygon fill="white" stroke="#666666" points="258.5,-39 128.5,-39 128.5,-19 258.5,-19 258.5,-39"/>
<text xml:space="preserve" text-anchor="middle" x="193.5" y="-25.5" font-family="Helvetica,sans-Serif" font-size="10.00">load_stream_data_noseek</text>
</a>
</g>
</g>
<!-- Node2&#45;&gt;Node3 -->
<g id="edge2_Node000002_Node000003" class="edge">
<title>Node2&#45;&gt;Node3</title>
<g id="a_edge2_Node000002_Node000003"><a xlink:title=" ">
<path fill="none" stroke="#63b8ff" d="M285.53,-39.33C276.65,-38.33 267.66,-37.3 258.96,-36.32"/>
<polygon fill="#63b8ff" stroke="#63b8ff" points="284.85,-42.78 295.18,-40.43 285.64,-35.82 284.85,-42.78"/>
</a>
</g>
</g>
<!-- Node4 -->
<g id="Node000004" class="node">
<title>Node4</title>
<g id="a_Node000004"><a xlink:href="pugixml_8cpp.html#a826b7e183311c8aa4e5b25157a3b3d3f" target="_top" xlink:title=" ">
<polygon fill="white" stroke="#666666" points="92.5,-39 0,-39 0,-19 92.5,-19 92.5,-39"/>
<text xml:space="preserve" text-anchor="middle" x="46.25" y="-25.5" font-family="Helvetica,sans-Serif" font-size="10.00">load_stream_impl</text>
</a>
</g>
</g>
<!-- Node3&#45;&gt;Node4 -->
<g id="edge3_Node000003_Node000004" class="edge">
<title>Node3&#45;&gt;Node4</title>
<g id="a_edge3_Node000003_Node000004"><a xlink:title=" ">
<path fill="none" stroke="#63b8ff" d="M117.06,-29C108.76,-29 100.51,-29 92.74,-29"/>
<polygon fill="#63b8ff" stroke="#63b8ff" points="116.85,-32.5 126.85,-29 116.85,-25.5 116.85,-32.5"/>
</a>
</g>
</g>
<!-- Node5&#45;&gt;Node3 -->
<g id="edge5_Node000005_Node000003" class="edge">
<title>Node5&#45;&gt;Node3</title>
<g id="a_edge5_Node000005_Node000003"><a xlink:title=" ">
<path fill="none" stroke="#63b8ff" d="M282.93,-18.96C274.85,-19.88 266.72,-20.8 258.82,-21.7"/>
<polygon fill="#63b8ff" stroke="#63b8ff" points="283.23,-22.45 292.78,-17.84 282.44,-15.49 283.23,-22.45"/>
</a>
</g>
</g>
</g>
</svg>
