<?xml version="1.0" encoding="UTF-8" standalone="no"?>
<!DOCTYPE svg PUBLIC "-//W3C//DTD SVG 1.1//EN"
 "http://www.w3.org/Graphics/SVG/1.1/DTD/svg11.dtd">
<!-- Generated by graphviz version 14.1.2 (20260124.0452)
 -->
<!-- Title: xpath_parser::parse_expression Pages: 1 -->
<!--zoomable 1178 -->

<svg id="main" version="1.1" xmlns="http://www.w3.org/2000/svg" xmlns:xlink="http://www.w3.org/1999/xlink" xml:space="preserve" onload="init(evt)">

<style type="text/css"><![CDATA[
.node, .edge {opacity: 0.7;}
.node.selected, .edge.selected {opacity: 1;}
.edge:hover path { stroke: red; }
.edge:hover polygon { stroke: red; fill: red; }
]]></style>

<defs>
  <circle id="rim" cx="0" cy="0" r="7"/>
  <circle id="rim2" cx="0" cy="0" r="3.5"/>
  <g id="zoomPlus">
    <use xlink:href="#rim" fill="#404040"><set attributeName="fill" to="#808080" begin="zoomplus.mouseover" end="zoomplus.mouseout"/></use>
    <path d="M-4,0h8M0,-4v8" fill="none" stroke="white" stroke-width="1.5" pointer-events="none"/>
  </g>
  <g id="zoomMin">
    <use xlink:href="#rim" fill="#404040"><set attributeName="fill" to="#808080" begin="zoomminus.mouseover" end="zoomminus.mouseout"/></use>
    <path d="M-4,0h8" fill="none" stroke="white" stroke-width="1.5" pointer-events="none"/>
  </g>
  <g id="arrowUp" transform="translate(30 24)">
    <use xlink:href="#rim"/>
    <path pointer-events="none" fill="none" stroke="white" stroke-width="1.5" d="M0,-3.0v7 M-2.5,-0.5L0,-3.0L2.5,-0.5"/>
  </g>
  <g id="arrowRight" transform="rotate(90) translate(36 -43)">
    <use xlink:href="#rim"/>
    <path pointer-events="none" fill="none" stroke="white" stroke-width="1.5" d="M0,-3.0v7 M-2.5,-0.5L0,-3.0L2.5,-0.5"/>
  </g>
  <g id="arrowDown" transform="rotate(180) translate(-30 -48)">
    <use xlink:href="#rim"/>
    <path pointer-events="none" fill="none" stroke="white" stroke-width="1.5" d="M0,-3.0v7 M-2.5,-0.5L0,-3.0L2.5,-0.5"/>
  </g>
  <g id="arrowLeft" transform="rotate(270) translate(-36 17)">
    <use xlink:href="#rim"/>
    <path pointer-events="none" fill="none" stroke="white" stroke-width="1.5" d="M0,-3.0v7 M-2.5,-0.5L0,-3.0L2.5,-0.5"/>
  </g>
  <g id="resetDef">
    <use xlink:href="#rim2" fill="#404040"><set attributeName="fill" to="#808080" begin="reset.mouseover" end="reset.mouseout"/></use>
  </g>
</defs>
<script type="application/ecmascript">
var viewWidth = 1205;
var viewHeight = 1178;
var sectionId = 'dynsection-18';
</script>
<script type="application/ecmascript" xlink:href="svg.min.js"/>
<svg id="graph" class="graph">
<g id="viewport">
<title>xpath_parser::parse_expression</title>
<!-- Node1 -->
<g id="Node000001" class="node">
<title>Node1</title>
<g id="a_Node000001"><a xlink:title=" ">
<polygon fill="#999999" stroke="#666666" points="102.25,-549 0,-549 0,-517 102.25,-517 102.25,-549"/>
<text xml:space="preserve" text-anchor="start" x="8" y="-535.5" font-family="Helvetica,sans-Serif" font-size="10.00">xpath_parser::parse</text>
<text xml:space="preserve" text-anchor="middle" x="51.12" y="-523.5" font-family="Helvetica,sans-Serif" font-size="10.00">_expression</text>
</a>
</g>
</g>
<!-- Node2 -->
<g id="Node000002" class="node">
<title>Node2</title>
<g id="a_Node000002"><a xlink:href="structxpath__parser.html#a6c99a4ff18254581f34ec6b715885d99" target="_top" xlink:title=" ">
<polygon fill="white" stroke="#666666" points="1032.25,-554 915.75,-554 915.75,-534 1032.25,-534 1032.25,-554"/>
<text xml:space="preserve" text-anchor="middle" x="974" y="-540.5" font-family="Helvetica,sans-Serif" font-size="10.00">xpath_parser::error_rec</text>
</a>
</g>
</g>
<!-- Node1&#45;&gt;Node2 -->
<g id="edge1_Node000001_Node000002" class="edge">
<title>Node1&#45;&gt;Node2</title>
<g id="a_edge1_Node000001_Node000002"><a xlink:title=" ">
<path fill="none" stroke="#63b8ff" d="M96.8,-516.6C153.33,-497.34 254.09,-468 343.12,-468 343.12,-468 343.12,-468 652.38,-468 757.98,-468 878,-507.52 936.74,-529.56"/>
<polygon fill="#63b8ff" stroke="#63b8ff" points="935.3,-532.76 945.89,-533.05 937.8,-526.22 935.3,-532.76"/>
</a>
</g>
</g>
<!-- Node4 -->
<g id="Node000004" class="node">
<title>Node4</title>
<g id="a_Node000004"><a xlink:href="structxpath__parser.html#adcd54e9b508acfe1f040ee7a54b88f2a" target="_top" xlink:title=" ">
<polygon fill="white" stroke="#666666" points="240.5,-332 138.25,-332 138.25,-300 240.5,-300 240.5,-332"/>
<text xml:space="preserve" text-anchor="start" x="146.25" y="-318.5" font-family="Helvetica,sans-Serif" font-size="10.00">xpath_parser::parse</text>
<text xml:space="preserve" text-anchor="middle" x="189.38" y="-306.5" font-family="Helvetica,sans-Serif" font-size="10.00">_expression_rec</text>
</a>
</g>
</g>
<!-- Node1&#45;&gt;Node4 -->
<g id="edge3_Node000001_Node000004" class="edge">
<title>Node1&#45;&gt;Node4</title>
<g id="a_edge3_Node000001_Node000004"><a xlink:title=" ">
<path fill="none" stroke="#63b8ff" d="M62.37,-516.69C85.79,-479.38 143.45,-387.55 171.92,-342.2"/>
<polygon fill="#63b8ff" stroke="#63b8ff" points="174.86,-344.11 177.21,-333.78 168.93,-340.39 174.86,-344.11"/>
</a>
</g>
</g>
<!-- Node10 -->
<g id="Node000010" class="node">
<title>Node10</title>
<g id="a_Node000010"><a xlink:href="structxpath__parser.html#ab5275305ebaac95fd68a3186b737aaa7" target="_top" xlink:title=" ">
<polygon fill="white" stroke="#666666" points="411.75,-549 276.5,-549 276.5,-517 411.75,-517 411.75,-549"/>
<text xml:space="preserve" text-anchor="start" x="284.5" y="-535.5" font-family="Helvetica,sans-Serif" font-size="10.00">xpath_parser::parse</text>
<text xml:space="preserve" text-anchor="middle" x="344.12" y="-523.5" font-family="Helvetica,sans-Serif" font-size="10.00">_path_or_unary_expression</text>
</a>
</g>
</g>
<!-- Node1&#45;&gt;Node10 -->
<g id="edge61_Node000001_Node000010" class="edge">
<title>Node1&#45;&gt;Node10</title>
<g id="a_edge61_Node000001_Node000010"><a xlink:title=" ">
<path fill="none" stroke="#63b8ff" d="M102.48,-527.75C147.17,-526.07 213.18,-525.8 264.77,-526.93"/>
<polygon fill="#63b8ff" stroke="#63b8ff" points="264.62,-530.43 274.7,-527.18 264.79,-523.43 264.62,-530.43"/>
</a>
</g>
</g>
<!-- Node3 -->
<g id="Node000003" class="node">
<title>Node3</title>
<g id="a_Node000003"><a xlink:href="structxpath__parser.html#a0a96a8f5a16b2171a83b6ae3bb2ccbba" target="_top" xlink:title=" ">
<polygon fill="white" stroke="#666666" points="1184.38,-668 1086.62,-668 1086.62,-648 1184.38,-648 1184.38,-668"/>
<text xml:space="preserve" text-anchor="middle" x="1135.5" y="-654.5" font-family="Helvetica,sans-Serif" font-size="10.00">xpath_parser::error</text>
</a>
</g>
</g>
<!-- Node2&#45;&gt;Node3 -->
<g id="edge2_Node000002_Node000003" class="edge">
<title>Node2&#45;&gt;Node3</title>
<g id="a_edge2_Node000002_Node000003"><a xlink:title=" ">
<path fill="none" stroke="#63b8ff" d="M998.87,-554.43C1011.04,-560.15 1025.85,-567.75 1038.25,-576 1067.31,-595.33 1097.4,-622.28 1116.03,-639.92"/>
<polygon fill="#63b8ff" stroke="#63b8ff" points="1113.47,-642.32 1123.11,-646.72 1118.32,-637.27 1113.47,-642.32"/>
</a>
</g>
</g>
<!-- Node4&#45;&gt;Node2 -->
<g id="edge6_Node000004_Node000002" class="edge">
<title>Node4&#45;&gt;Node2</title>
<g id="a_edge6_Node000004_Node000002"><a xlink:title=" ">
<path fill="none" stroke="#63b8ff" d="M240.97,-312.76C362.39,-307.59 674.93,-310.15 873.75,-454 894.78,-469.22 890.88,-482.17 909.75,-500 920.5,-510.16 933.77,-519.76 945.37,-527.38"/>
<polygon fill="#63b8ff" stroke="#63b8ff" points="943.44,-530.3 953.76,-532.72 947.2,-524.39 943.44,-530.3"/>
</a>
</g>
</g>
<!-- Node4&#45;&gt;Node3 -->
<g id="edge5_Node000004_Node000003" class="edge">
<title>Node4&#45;&gt;Node3</title>
<g id="a_edge5_Node000004_Node000003"><a xlink:title=" ">
<path fill="none" stroke="#63b8ff" d="M199.1,-299.72C212.49,-276.4 240.41,-233.86 276.5,-212 364,-159 399.32,-164 501.62,-164 501.62,-164 501.62,-164 810.5,-164 916.01,-164 968.6,-151.74 1038.25,-231 1105.68,-307.73 1051.47,-358.42 1074.25,-458 1089.44,-524.38 1114.76,-600.98 1127.18,-637.1"/>
<polygon fill="#63b8ff" stroke="#63b8ff" points="1123.78,-637.99 1130.37,-646.29 1130.4,-635.7 1123.78,-637.99"/>
</a>
</g>
</g>
<!-- Node4&#45;&gt;Node4 -->
<g id="edge11_Node000004_Node000004" class="edge">
<title>Node4&#45;&gt;Node4</title>
<g id="a_edge11_Node000004_Node000004"><a xlink:title=" ">
<path fill="none" stroke="#63b8ff" d="M164.69,-332.44C160.09,-341.58 168.31,-350 189.38,-350 200.89,-350 208.57,-347.48 212.41,-343.71"/>
<polygon fill="#63b8ff" stroke="#63b8ff" points="215.86,-344.34 213.84,-333.94 208.93,-343.33 215.86,-344.34"/>
</a>
</g>
</g>
<!-- Node5 -->
<g id="Node000005" class="node">
<title>Node5</title>
<g id="a_Node000005"><a xlink:href="structxpath__parser.html#a8a71f339a0386657a48b59acb3405acc" target="_top" xlink:title=" ">
<polygon fill="white" stroke="#666666" points="1036.38,-763 911.62,-763 911.62,-743 1036.38,-743 1036.38,-763"/>
<text xml:space="preserve" text-anchor="middle" x="974" y="-749.5" font-family="Helvetica,sans-Serif" font-size="10.00">xpath_parser::alloc_node</text>
</a>
</g>
</g>
<!-- Node4&#45;&gt;Node5 -->
<g id="edge4_Node000004_Node000005" class="edge">
<title>Node4&#45;&gt;Node5</title>
<g id="a_edge4_Node000004_Node000005"><a xlink:title=" ">
<path fill="none" stroke="#63b8ff" d="M240.77,-326.03C362.4,-352.44 676.58,-434.03 873.75,-606 916.12,-642.95 948.54,-701.97 963.65,-732.78"/>
<polygon fill="#63b8ff" stroke="#63b8ff" points="960.29,-733.88 967.76,-741.4 966.61,-730.86 960.29,-733.88"/>
</a>
</g>
</g>
<!-- Node6 -->
<g id="Node000006" class="node">
<title>Node6</title>
<g id="a_Node000006"><a xlink:href="structxpath__parser_1_1binary__op__t.html#a723f5f2b66df47b4ac74455cb39b9544" target="_top" xlink:title=" ">
<polygon fill="white" stroke="#666666" points="396.38,-117 291.88,-117 291.88,-85 396.38,-85 396.38,-117"/>
<text xml:space="preserve" text-anchor="start" x="299.88" y="-103.5" font-family="Helvetica,sans-Serif" font-size="10.00">xpath_parser::binary</text>
<text xml:space="preserve" text-anchor="middle" x="344.12" y="-91.5" font-family="Helvetica,sans-Serif" font-size="10.00">_op_t::parse</text>
</a>
</g>
</g>
<!-- Node4&#45;&gt;Node6 -->
<g id="edge7_Node000004_Node000006" class="edge">
<title>Node4&#45;&gt;Node6</title>
<g id="a_edge7_Node000004_Node000006"><a xlink:title=" ">
<path fill="none" stroke="#63b8ff" d="M195.88,-299.93C207.21,-268.51 235.56,-197.86 276.5,-150 284.86,-140.23 295.53,-131.29 305.86,-123.81"/>
<polygon fill="#63b8ff" stroke="#63b8ff" points="307.71,-126.79 313.94,-118.22 303.73,-121.03 307.71,-126.79"/>
</a>
</g>
</g>
<!-- Node4&#45;&gt;Node10 -->
<g id="edge12_Node000004_Node000010" class="edge">
<title>Node4&#45;&gt;Node10</title>
<g id="a_edge12_Node000004_Node000010"><a xlink:title=" ">
<path fill="none" stroke="#63b8ff" d="M201.86,-332.31C228.23,-369.78 293.31,-462.22 325.08,-507.37"/>
<polygon fill="#63b8ff" stroke="#63b8ff" points="322.02,-509.1 330.64,-515.26 327.75,-505.07 322.02,-509.1"/>
</a>
</g>
</g>
<!-- Node23 -->
<g id="Node000023" class="node">
<title>Node23</title>
<g id="a_Node000023"><a xlink:href="classxpath__ast__node.html#a2c12e34a46db2a3d0052f9f38bcf1bb6" target="_top" xlink:title=" ">
<polygon fill="white" stroke="#666666" points="1034.5,-260 913.5,-260 913.5,-240 1034.5,-240 1034.5,-260"/>
<text xml:space="preserve" text-anchor="middle" x="974" y="-246.5" font-family="Helvetica,sans-Serif" font-size="10.00">xpath_ast_node::rettype</text>
</a>
</g>
</g>
<!-- Node4&#45;&gt;Node23 -->
<g id="edge60_Node000004_Node000023" class="edge">
<title>Node4&#45;&gt;Node23</title>
<g id="a_edge60_Node000004_Node000023"><a xlink:title=" ">
<path fill="none" stroke="#63b8ff" d="M215.86,-299.67C267.55,-268.14 389.41,-202 501.62,-202 501.62,-202 501.62,-202 652.38,-202 747.28,-202 856.27,-222.83 919.61,-237.04"/>
<polygon fill="#63b8ff" stroke="#63b8ff" points="918.51,-240.38 929.04,-239.19 920.07,-233.56 918.51,-240.38"/>
</a>
</g>
</g>
<!-- Node7 -->
<g id="Node000007" class="node">
<title>Node7</title>
<g id="a_Node000007"><a xlink:href="structxpath__parser_1_1binary__op__t.html#a18cac63911120c27f5ee842b1e6afe35" target="_top" xlink:title=" ">
<polygon fill="white" stroke="#666666" points="554.88,-98 450.38,-98 450.38,-66 554.88,-66 554.88,-98"/>
<text xml:space="preserve" text-anchor="start" x="458.38" y="-84.5" font-family="Helvetica,sans-Serif" font-size="10.00">xpath_parser::binary</text>
<text xml:space="preserve" text-anchor="middle" x="502.62" y="-72.5" font-family="Helvetica,sans-Serif" font-size="10.00">_op_t::binary_op_t</text>
</a>
</g>
</g>
<!-- Node6&#45;&gt;Node7 -->
<g id="edge8_Node000006_Node000007" class="edge">
<title>Node6&#45;&gt;Node7</title>
<g id="a_edge8_Node000006_Node000007"><a xlink:title=" ">
<path fill="none" stroke="#63b8ff" d="M396.8,-94.73C410.29,-93.09 424.98,-91.31 438.97,-89.61"/>
<polygon fill="#63b8ff" stroke="#63b8ff" points="438.99,-93.13 448.5,-88.45 438.15,-86.18 438.99,-93.13"/>
</a>
</g>
</g>
<!-- Node8 -->
<g id="Node000008" class="node">
<title>Node8</title>
<g id="a_Node000008"><a xlink:href="classxpath__lexer.html#a9a398feb578c697be7067f6f8d178fc9" target="_top" xlink:title=" ">
<polygon fill="white" stroke="#666666" points="557.5,-48 447.75,-48 447.75,-28 557.5,-28 557.5,-48"/>
<text xml:space="preserve" text-anchor="middle" x="502.62" y="-34.5" font-family="Helvetica,sans-Serif" font-size="10.00">xpath_lexer::contents</text>
</a>
</g>
</g>
<!-- Node6&#45;&gt;Node8 -->
<g id="edge9_Node000006_Node000008" class="edge">
<title>Node6&#45;&gt;Node8</title>
<g id="a_edge9_Node000006_Node000008"><a xlink:title=" ">
<path fill="none" stroke="#63b8ff" d="M381.93,-84.52C401.38,-75.99 425.72,-65.6 447.75,-57 451.84,-55.4 456.13,-53.79 460.43,-52.21"/>
<polygon fill="#63b8ff" stroke="#63b8ff" points="461.36,-55.6 469.59,-48.92 458.99,-49.01 461.36,-55.6"/>
</a>
</g>
</g>
<!-- Node9 -->
<g id="Node000009" class="node">
<title>Node9</title>
<g id="a_Node000009"><a xlink:href="classxpath__lexer.html#a47425d5012741aecfd898306651439d0" target="_top" xlink:title=" ">
<polygon fill="white" stroke="#666666" points="553.75,-136 451.5,-136 451.5,-116 553.75,-116 553.75,-136"/>
<text xml:space="preserve" text-anchor="middle" x="502.62" y="-122.5" font-family="Helvetica,sans-Serif" font-size="10.00">xpath_lexer::current</text>
</a>
</g>
</g>
<!-- Node6&#45;&gt;Node9 -->
<g id="edge10_Node000006_Node000009" class="edge">
<title>Node6&#45;&gt;Node9</title>
<g id="a_edge10_Node000006_Node000009"><a xlink:title=" ">
<path fill="none" stroke="#63b8ff" d="M396.8,-109.26C410.57,-111.45 425.59,-113.85 439.84,-116.13"/>
<polygon fill="#63b8ff" stroke="#63b8ff" points="439.15,-119.56 449.57,-117.68 440.25,-112.65 439.15,-119.56"/>
</a>
</g>
</g>
<!-- Node10&#45;&gt;Node1 -->
<g id="edge15_Node000010_Node000001" class="edge">
<title>Node10&#45;&gt;Node1</title>
<g id="a_edge15_Node000010_Node000001"><a xlink:title=" ">
<path fill="none" stroke="#63b8ff" d="M276.22,-538.78C227.32,-540.12 161.52,-540.07 113.88,-538.64"/>
<polygon fill="#63b8ff" stroke="#63b8ff" points="114.11,-535.14 103.99,-538.31 113.87,-542.14 114.11,-535.14"/>
</a>
</g>
</g>
<!-- Node10&#45;&gt;Node3 -->
<g id="edge14_Node000010_Node000003" class="edge">
<title>Node10&#45;&gt;Node3</title>
<g id="a_edge14_Node000010_Node000003"><a xlink:title=" ">
<path fill="none" stroke="#63b8ff" d="M365.18,-549.37C385.06,-564.87 416.93,-587.83 447.75,-602 532.65,-641.02 556.94,-658 650.38,-658 650.38,-658 650.38,-658 810.5,-658 902.83,-658 1009.96,-658 1074.96,-658"/>
<polygon fill="#63b8ff" stroke="#63b8ff" points="1074.68,-661.5 1084.68,-658 1074.68,-654.5 1074.68,-661.5"/>
</a>
</g>
</g>
<!-- Node10&#45;&gt;Node5 -->
<g id="edge13_Node000010_Node000005" class="edge">
<title>Node10&#45;&gt;Node5</title>
<g id="a_edge13_Node000010_Node000005"><a xlink:title=" ">
<path fill="none" stroke="#63b8ff" d="M351.92,-549.13C365.38,-578.91 398.47,-642.2 447.75,-672 590.2,-758.15 792.76,-763.1 899.94,-758.51"/>
<polygon fill="#63b8ff" stroke="#63b8ff" points="899.94,-762.02 909.76,-758.05 899.61,-755.03 899.94,-762.02"/>
</a>
</g>
</g>
<!-- Node11 -->
<g id="Node000011" class="node">
<title>Node11</title>
<g id="a_Node000011"><a xlink:href="structxpath__parser.html#a61a425d990a56d5db8cd14405835a5b6" target="_top" xlink:title=" ">
<polygon fill="white" stroke="#666666" points="553.75,-832 451.5,-832 451.5,-800 553.75,-800 553.75,-832"/>
<text xml:space="preserve" text-anchor="start" x="459.5" y="-818.5" font-family="Helvetica,sans-Serif" font-size="10.00">xpath_parser::parse</text>
<text xml:space="preserve" text-anchor="middle" x="502.62" y="-806.5" font-family="Helvetica,sans-Serif" font-size="10.00">_filter_expression</text>
</a>
</g>
</g>
<!-- Node10&#45;&gt;Node11 -->
<g id="edge16_Node000010_Node000011" class="edge">
<title>Node10&#45;&gt;Node11</title>
<g id="a_edge16_Node000010_Node000011"><a xlink:title=" ">
<path fill="none" stroke="#63b8ff" d="M352.73,-549.14C365.56,-576.58 392,-634.19 411.75,-684 429.47,-728.69 416.74,-749.26 447.75,-786 449.82,-788.45 452.15,-790.75 454.64,-792.88"/>
<polygon fill="#63b8ff" stroke="#63b8ff" points="452.29,-795.49 462.41,-798.62 456.45,-789.86 452.29,-795.49"/>
</a>
</g>
</g>
<!-- Node10&#45;&gt;Node23 -->
<g id="edge59_Node000010_Node000023" class="edge">
<title>Node10&#45;&gt;Node23</title>
<g id="a_edge59_Node000010_Node000023"><a xlink:title=" ">
<path fill="none" stroke="#63b8ff" d="M362.51,-516.83C415.17,-468.97 579.52,-327.83 745.25,-271 795.8,-253.66 856.15,-248.75 902.03,-247.99"/>
<polygon fill="#63b8ff" stroke="#63b8ff" points="901.88,-251.49 911.85,-247.9 901.82,-244.49 901.88,-251.49"/>
</a>
</g>
</g>
<!-- Node24 -->
<g id="Node000024" class="node">
<title>Node24</title>
<g id="a_Node000024"><a xlink:href="structxpath__parser.html#af14e396ddb7817998ec221eec6b781ab" target="_top" xlink:title=" ">
<polygon fill="white" stroke="#666666" points="553.75,-593 451.5,-593 451.5,-561 553.75,-561 553.75,-593"/>
<text xml:space="preserve" text-anchor="start" x="459.5" y="-579.5" font-family="Helvetica,sans-Serif" font-size="10.00">xpath_parser::parse</text>
<text xml:space="preserve" text-anchor="middle" x="502.62" y="-567.5" font-family="Helvetica,sans-Serif" font-size="10.00">_location_path</text>
</a>
</g>
</g>
<!-- Node10&#45;&gt;Node24 -->
<g id="edge40_Node000010_Node000024" class="edge">
<title>Node10&#45;&gt;Node24</title>
<g id="a_edge40_Node000010_Node000024"><a xlink:title=" ">
<path fill="none" stroke="#63b8ff" d="M403.4,-549.38C415.38,-552.75 428.02,-556.31 440.11,-559.7"/>
<polygon fill="#63b8ff" stroke="#63b8ff" points="438.99,-563.02 449.56,-562.36 440.88,-556.29 438.99,-563.02"/>
</a>
</g>
</g>
<!-- Node25 -->
<g id="Node000025" class="node">
<title>Node25</title>
<g id="a_Node000025"><a xlink:href="structxpath__parser.html#aebea559423376001c89b19216dfc3012" target="_top" xlink:title=" ">
<polygon fill="white" stroke="#666666" points="709.25,-566 593.5,-566 593.5,-534 709.25,-534 709.25,-566"/>
<text xml:space="preserve" text-anchor="start" x="601.5" y="-552.5" font-family="Helvetica,sans-Serif" font-size="10.00">xpath_parser::parse</text>
<text xml:space="preserve" text-anchor="middle" x="651.38" y="-540.5" font-family="Helvetica,sans-Serif" font-size="10.00">_relative_location_path</text>
</a>
</g>
</g>
<!-- Node10&#45;&gt;Node25 -->
<g id="edge58_Node000010_Node000025" class="edge">
<title>Node10&#45;&gt;Node25</title>
<g id="a_edge58_Node000010_Node000025"><a xlink:title=" ">
<path fill="none" stroke="#63b8ff" d="M412.11,-536.73C462.53,-539.54 531.38,-543.37 582.1,-546.2"/>
<polygon fill="#63b8ff" stroke="#63b8ff" points="581.6,-549.67 591.77,-546.74 581.98,-542.69 581.6,-549.67"/>
</a>
</g>
</g>
<!-- Node28 -->
<g id="Node000028" class="node">
<title>Node28</title>
<g id="a_Node000028"><a xlink:href="structxpath__parser.html#a7b4555d7bfdb90971333c46963d5d791" target="_top" xlink:title=" ">
<polygon fill="white" stroke="#666666" points="1025.12,-315 922.88,-315 922.88,-283 1025.12,-283 1025.12,-315"/>
<text xml:space="preserve" text-anchor="start" x="930.88" y="-301.5" font-family="Helvetica,sans-Serif" font-size="10.00">xpath_parser::parse</text>
<text xml:space="preserve" text-anchor="middle" x="974" y="-289.5" font-family="Helvetica,sans-Serif" font-size="10.00">_node_test_type</text>
</a>
</g>
</g>
<!-- Node10&#45;&gt;Node28 -->
<g id="edge57_Node000010_Node000028" class="edge">
<title>Node10&#45;&gt;Node28</title>
<g id="a_edge57_Node000010_Node000028"><a xlink:title=" ">
<path fill="none" stroke="#63b8ff" d="M371.11,-516.63C433.19,-478.31 596.06,-382.48 745.25,-335 799.93,-317.6 864.79,-308.39 911.28,-303.67"/>
<polygon fill="#63b8ff" stroke="#63b8ff" points="911.56,-307.16 921.18,-302.71 910.89,-300.19 911.56,-307.16"/>
</a>
</g>
</g>
<!-- Node11&#45;&gt;Node1 -->
<g id="edge20_Node000011_Node000001" class="edge">
<title>Node11&#45;&gt;Node1</title>
<g id="a_edge20_Node000011_Node000001"><a xlink:title=" ">
<path fill="none" stroke="#63b8ff" d="M471.24,-799.5C463.52,-795.2 455.29,-790.5 447.75,-786 311.33,-704.5 153.3,-600.44 85.65,-555.42"/>
<polygon fill="#63b8ff" stroke="#63b8ff" points="87.86,-552.69 77.6,-550.05 83.98,-558.51 87.86,-552.69"/>
</a>
</g>
</g>
<!-- Node11&#45;&gt;Node2 -->
<g id="edge19_Node000011_Node000002" class="edge">
<title>Node11&#45;&gt;Node2</title>
<g id="a_edge19_Node000011_Node000002"><a xlink:title=" ">
<path fill="none" stroke="#63b8ff" d="M516.33,-799.8C549.34,-758.89 642.44,-650.85 745.25,-597 772.6,-582.67 847.86,-566.66 904.43,-556.02"/>
<polygon fill="#63b8ff" stroke="#63b8ff" points="904.8,-559.52 913.99,-554.25 903.52,-552.63 904.8,-559.52"/>
</a>
</g>
</g>
<!-- Node11&#45;&gt;Node3 -->
<g id="edge18_Node000011_Node000003" class="edge">
<title>Node11&#45;&gt;Node3</title>
<g id="a_edge18_Node000011_Node000003"><a xlink:title=" ">
<path fill="none" stroke="#63b8ff" d="M554.16,-825.81C654.65,-842.49 883.19,-866.09 1038.25,-772 1076.81,-748.6 1107.44,-704.29 1123.09,-678.34"/>
<polygon fill="#63b8ff" stroke="#63b8ff" points="1126.08,-680.17 1128.1,-669.77 1120.04,-676.64 1126.08,-680.17"/>
</a>
</g>
</g>
<!-- Node11&#45;&gt;Node5 -->
<g id="edge17_Node000011_Node000005" class="edge">
<title>Node11&#45;&gt;Node5</title>
<g id="a_edge17_Node000011_Node000005"><a xlink:title=" ">
<path fill="none" stroke="#63b8ff" d="M554.15,-815.73C625.91,-814.48 761.15,-808.94 873.75,-786 895.07,-781.66 918.17,-774.15 936.72,-767.39"/>
<polygon fill="#63b8ff" stroke="#63b8ff" points="937.78,-770.73 945.93,-763.96 935.33,-764.18 937.78,-770.73"/>
</a>
</g>
</g>
<!-- Node12 -->
<g id="Node000012" class="node">
<title>Node12</title>
<g id="a_Node000012"><a xlink:href="structxpath__parser.html#a49cbc6141508ace22ab4b8bd8ddf965a" target="_top" xlink:title=" ">
<polygon fill="white" stroke="#666666" points="704.38,-984 598.38,-984 598.38,-952 704.38,-952 704.38,-984"/>
<text xml:space="preserve" text-anchor="start" x="606.38" y="-970.5" font-family="Helvetica,sans-Serif" font-size="10.00">xpath_parser::parse</text>
<text xml:space="preserve" text-anchor="middle" x="651.38" y="-958.5" font-family="Helvetica,sans-Serif" font-size="10.00">_primary_expression</text>
</a>
</g>
</g>
<!-- Node11&#45;&gt;Node12 -->
<g id="edge21_Node000011_Node000012" class="edge">
<title>Node11&#45;&gt;Node12</title>
<g id="a_edge21_Node000011_Node000012"><a xlink:title=" ">
<path fill="none" stroke="#63b8ff" d="M512.48,-832.44C526.76,-857.75 557.01,-906.6 593.5,-938 596.65,-940.71 600.08,-943.26 603.65,-945.65"/>
<polygon fill="#63b8ff" stroke="#63b8ff" points="601.67,-948.54 612.02,-950.78 605.33,-942.57 601.67,-948.54"/>
</a>
</g>
</g>
<!-- Node11&#45;&gt;Node23 -->
<g id="edge39_Node000011_Node000023" class="edge">
<title>Node11&#45;&gt;Node23</title>
<g id="a_edge39_Node000011_Node000023"><a xlink:title=" ">
<path fill="none" stroke="#63b8ff" d="M506.43,-799.73C514.75,-754.19 541.93,-622.44 593.5,-525 618.78,-477.24 701.49,-366.71 745.25,-335 795.66,-298.47 863.6,-275.82 912.12,-263.18"/>
<polygon fill="#63b8ff" stroke="#63b8ff" points="912.79,-266.62 921.62,-260.78 911.07,-259.83 912.79,-266.62"/>
</a>
</g>
</g>
<!-- Node12&#45;&gt;Node1 -->
<g id="edge32_Node000012_Node000001" class="edge">
<title>Node12&#45;&gt;Node1</title>
<g id="a_edge32_Node000012_Node000001"><a xlink:title=" ">
<path fill="none" stroke="#63b8ff" d="M616.67,-951.65C530.33,-908.66 296.84,-785.54 138.25,-637 112.17,-612.57 86.61,-580.36 70.2,-558.29"/>
<polygon fill="#63b8ff" stroke="#63b8ff" points="73.18,-556.44 64.44,-550.44 67.53,-560.58 73.18,-556.44"/>
</a>
</g>
</g>
<!-- Node12&#45;&gt;Node2 -->
<g id="edge30_Node000012_Node000002" class="edge">
<title>Node12&#45;&gt;Node2</title>
<g id="a_edge30_Node000012_Node000002"><a xlink:title=" ">
<path fill="none" stroke="#63b8ff" d="M655.26,-951.78C663.42,-909.4 689.71,-793.19 745.25,-714 800.05,-635.87 830.09,-628.55 909.75,-576 918.88,-569.98 929.29,-564.28 938.99,-559.41"/>
<polygon fill="#63b8ff" stroke="#63b8ff" points="940.33,-562.65 947.79,-555.13 937.27,-556.36 940.33,-562.65"/>
</a>
</g>
</g>
<!-- Node12&#45;&gt;Node3 -->
<g id="edge28_Node000012_Node000003" class="edge">
<title>Node12&#45;&gt;Node3</title>
<g id="a_edge28_Node000012_Node000003"><a xlink:title=" ">
<path fill="none" stroke="#63b8ff" d="M669.52,-984.36C686.98,-999.8 715.64,-1021.9 745.25,-1031 872.23,-1070 946.55,-1068.11 1038.25,-972 1119.32,-887.04 1132.24,-735.55 1134.2,-679.57"/>
<polygon fill="#63b8ff" stroke="#63b8ff" points="1137.69,-679.9 1134.44,-669.81 1130.69,-679.72 1137.69,-679.9"/>
</a>
</g>
</g>
<!-- Node12&#45;&gt;Node5 -->
<g id="edge22_Node000012_Node000005" class="edge">
<title>Node12&#45;&gt;Node5</title>
<g id="a_edge22_Node000012_Node000005"><a xlink:title=" ">
<path fill="none" stroke="#63b8ff" d="M699.34,-951.62C746.24,-933.92 819.04,-902.68 873.75,-862 908.97,-835.81 941.55,-795.79 959.21,-772.23"/>
<polygon fill="#63b8ff" stroke="#63b8ff" points="961.83,-774.57 964.94,-764.44 956.19,-770.42 961.83,-774.57"/>
</a>
</g>
</g>
<!-- Node13 -->
<g id="Node000013" class="node">
<title>Node13</title>
<g id="a_Node000013"><a xlink:href="structxpath__parser.html#a876c0c06a8cdc623926c8788e8d43fc3" target="_top" xlink:title=" ">
<polygon fill="white" stroke="#666666" points="1023.25,-617 924.75,-617 924.75,-585 1023.25,-585 1023.25,-617"/>
<text xml:space="preserve" text-anchor="start" x="932.75" y="-603.5" font-family="Helvetica,sans-Serif" font-size="10.00">xpath_parser::alloc</text>
<text xml:space="preserve" text-anchor="middle" x="974" y="-591.5" font-family="Helvetica,sans-Serif" font-size="10.00">_string</text>
</a>
</g>
</g>
<!-- Node12&#45;&gt;Node13 -->
<g id="edge23_Node000012_Node000013" class="edge">
<title>Node12&#45;&gt;Node13</title>
<g id="a_edge23_Node000012_Node000013"><a xlink:title=" ">
<path fill="none" stroke="#63b8ff" d="M665.79,-951.87C683.74,-930.34 716.63,-891.08 745.25,-858 819.66,-771.98 909.65,-671.44 950.67,-625.79"/>
<polygon fill="#63b8ff" stroke="#63b8ff" points="953.11,-628.32 957.2,-618.54 947.91,-623.64 953.11,-628.32"/>
</a>
</g>
</g>
<!-- Node14 -->
<g id="Node000014" class="node">
<title>Node14</title>
<g id="a_Node000014"><a xlink:href="pugixml_8cpp.html#a1a1fca8011d76ef218f46957cf16cd1e" target="_top" xlink:title=" ">
<polygon fill="white" stroke="#666666" points="873.75,-1148 745.25,-1148 745.25,-1116 873.75,-1116 873.75,-1148"/>
<text xml:space="preserve" text-anchor="start" x="753.25" y="-1134.5" font-family="Helvetica,sans-Serif" font-size="10.00">convert_string_to_number</text>
<text xml:space="preserve" text-anchor="middle" x="809.5" y="-1122.5" font-family="Helvetica,sans-Serif" font-size="10.00">_scratch</text>
</a>
</g>
</g>
<!-- Node12&#45;&gt;Node14 -->
<g id="edge24_Node000012_Node000014" class="edge">
<title>Node12&#45;&gt;Node14</title>
<g id="a_edge24_Node000012_Node000014"><a xlink:title=" ">
<path fill="none" stroke="#63b8ff" d="M659.36,-984.5C672.29,-1013.2 702.57,-1072.55 745.25,-1107 746.36,-1107.9 747.51,-1108.76 748.69,-1109.6"/>
<polygon fill="#63b8ff" stroke="#63b8ff" points="746.58,-1112.42 756.92,-1114.71 750.26,-1106.46 746.58,-1112.42"/>
</a>
</g>
</g>
<!-- Node18 -->
<g id="Node000018" class="node">
<title>Node18</title>
<g id="a_Node000018"><a xlink:href="structxpath__parser.html#a253554c10701671465d3eab96e464c93" target="_top" xlink:title=" ">
<polygon fill="white" stroke="#666666" points="870.38,-1098 748.62,-1098 748.62,-1078 870.38,-1078 870.38,-1098"/>
<text xml:space="preserve" text-anchor="middle" x="809.5" y="-1084.5" font-family="Helvetica,sans-Serif" font-size="10.00">xpath_parser::error_oom</text>
</a>
</g>
</g>
<!-- Node12&#45;&gt;Node18 -->
<g id="edge29_Node000012_Node000018" class="edge">
<title>Node12&#45;&gt;Node18</title>
<g id="a_edge29_Node000012_Node000018"><a xlink:title=" ">
<path fill="none" stroke="#63b8ff" d="M664.48,-984.41C680.75,-1005.43 711.55,-1041.81 745.25,-1064 750.46,-1067.43 756.23,-1070.47 762.11,-1073.14"/>
<polygon fill="#63b8ff" stroke="#63b8ff" points="760.72,-1076.35 771.3,-1076.95 763.41,-1069.89 760.72,-1076.35"/>
</a>
</g>
</g>
<!-- Node19 -->
<g id="Node000019" class="node">
<title>Node19</title>
<g id="a_Node000019"><a xlink:href="pugixml_8cpp.html#a046d19e3dedb7e154882fe5ad4647e25" target="_top" xlink:title=" ">
<polygon fill="white" stroke="#666666" points="862.5,-1022 756.5,-1022 756.5,-1002 862.5,-1002 862.5,-1022"/>
<text xml:space="preserve" text-anchor="middle" x="809.5" y="-1008.5" font-family="Helvetica,sans-Serif" font-size="10.00">get_variable_scratch</text>
</a>
</g>
</g>
<!-- Node12&#45;&gt;Node19 -->
<g id="edge31_Node000012_Node000019" class="edge">
<title>Node12&#45;&gt;Node19</title>
<g id="a_edge31_Node000012_Node000019"><a xlink:title=" ">
<path fill="none" stroke="#63b8ff" d="M704.8,-982.77C722.76,-987.84 742.76,-993.47 760.36,-998.43"/>
<polygon fill="#63b8ff" stroke="#63b8ff" points="759.23,-1001.75 769.8,-1001.09 761.13,-995.01 759.23,-1001.75"/>
</a>
</g>
</g>
<!-- Node20 -->
<g id="Node000020" class="node">
<title>Node20</title>
<g id="a_Node000020"><a xlink:href="structxpath__parser.html#a9a68f1cbf9900714aefe00059a66a22d" target="_top" xlink:title=" ">
<polygon fill="white" stroke="#666666" points="860.62,-984 758.38,-984 758.38,-952 860.62,-952 860.62,-984"/>
<text xml:space="preserve" text-anchor="start" x="766.38" y="-970.5" font-family="Helvetica,sans-Serif" font-size="10.00">xpath_parser::parse</text>
<text xml:space="preserve" text-anchor="middle" x="809.5" y="-958.5" font-family="Helvetica,sans-Serif" font-size="10.00">_function</text>
</a>
</g>
</g>
<!-- Node12&#45;&gt;Node20 -->
<g id="edge33_Node000012_Node000020" class="edge">
<title>Node12&#45;&gt;Node20</title>
<g id="a_edge33_Node000012_Node000020"><a xlink:title=" ">
<path fill="none" stroke="#63b8ff" d="M704.8,-968C718.22,-968 732.79,-968 746.64,-968"/>
<polygon fill="#63b8ff" stroke="#63b8ff" points="746.55,-971.5 756.55,-968 746.55,-964.5 746.55,-971.5"/>
</a>
</g>
</g>
<!-- Node21 -->
<g id="Node000021" class="node">
<title>Node21</title>
<g id="a_Node000021"><a xlink:href="classxpath__ast__node.html#a2764184d076834284eb3ff3182b845cc" target="_top" xlink:title=" ">
<polygon fill="white" stroke="#666666" points="1038.25,-491 909.75,-491 909.75,-471 1038.25,-471 1038.25,-491"/>
<text xml:space="preserve" text-anchor="middle" x="974" y="-477.5" font-family="Helvetica,sans-Serif" font-size="10.00">xpath_ast_node::set_next</text>
</a>
</g>
</g>
<!-- Node12&#45;&gt;Node21 -->
<g id="edge36_Node000012_Node000021" class="edge">
<title>Node12&#45;&gt;Node21</title>
<g id="a_edge36_Node000012_Node000021"><a xlink:title=" ">
<path fill="none" stroke="#63b8ff" d="M651.93,-951.87C651.21,-896.18 655.91,-709.19 745.25,-597 789.12,-541.91 866.13,-510.54 918.33,-494.66"/>
<polygon fill="#63b8ff" stroke="#63b8ff" points="919.01,-498.1 927.62,-491.93 917.04,-491.39 919.01,-498.1"/>
</a>
</g>
</g>
<!-- Node15 -->
<g id="Node000015" class="node">
<title>Node15</title>
<g id="a_Node000015"><a xlink:href="pugixml_8cpp.html#ae6299198941714e42acefb1481370646" target="_top" xlink:title=" ">
<polygon fill="white" stroke="#666666" points="1038.25,-1142 909.75,-1142 909.75,-1122 1038.25,-1122 1038.25,-1142"/>
<text xml:space="preserve" text-anchor="middle" x="974" y="-1128.5" font-family="Helvetica,sans-Serif" font-size="10.00">convert_string_to_number</text>
</a>
</g>
</g>
<!-- Node14&#45;&gt;Node15 -->
<g id="edge25_Node000014_Node000015" class="edge">
<title>Node14&#45;&gt;Node15</title>
<g id="a_edge25_Node000014_Node000015"><a xlink:title=" ">
<path fill="none" stroke="#63b8ff" d="M873.79,-1132C881.73,-1132 889.9,-1132 897.99,-1132"/>
<polygon fill="#63b8ff" stroke="#63b8ff" points="897.83,-1135.5 907.83,-1132 897.83,-1128.5 897.83,-1135.5"/>
</a>
</g>
</g>
<!-- Node16 -->
<g id="Node000016" class="node">
<title>Node16</title>
<g id="a_Node000016"><a xlink:href="pugixml_8cpp.html#a0bf9a61bcf9eb4888ef36942e5cd8d05" target="_top" xlink:title=" ">
<polygon fill="white" stroke="#666666" points="1196.75,-1170 1074.25,-1170 1074.25,-1138 1196.75,-1138 1196.75,-1170"/>
<text xml:space="preserve" text-anchor="start" x="1082.25" y="-1156.5" font-family="Helvetica,sans-Serif" font-size="10.00">check_string_to_number</text>
<text xml:space="preserve" text-anchor="middle" x="1135.5" y="-1144.5" font-family="Helvetica,sans-Serif" font-size="10.00">_format</text>
</a>
</g>
</g>
<!-- Node15&#45;&gt;Node16 -->
<g id="edge26_Node000015_Node000016" class="edge">
<title>Node15&#45;&gt;Node16</title>
<g id="a_edge26_Node000015_Node000016"><a xlink:title=" ">
<path fill="none" stroke="#63b8ff" d="M1038.5,-1140.76C1046.41,-1141.85 1054.54,-1142.97 1062.57,-1144.08"/>
<polygon fill="#63b8ff" stroke="#63b8ff" points="1061.93,-1147.52 1072.32,-1145.42 1062.89,-1140.59 1061.93,-1147.52"/>
</a>
</g>
</g>
<!-- Node17 -->
<g id="Node000017" class="node">
<title>Node17</title>
<g id="a_Node000017"><a xlink:href="pugixml_8cpp.html#a2f4c7e7ca3a98b25cbfa5d98dd21b300" target="_top" xlink:title=" ">
<polygon fill="white" stroke="#666666" points="1161.88,-1120 1109.12,-1120 1109.12,-1100 1161.88,-1100 1161.88,-1120"/>
<text xml:space="preserve" text-anchor="middle" x="1135.5" y="-1106.5" font-family="Helvetica,sans-Serif" font-size="10.00">gen_nan</text>
</a>
</g>
</g>
<!-- Node15&#45;&gt;Node17 -->
<g id="edge27_Node000015_Node000017" class="edge">
<title>Node15&#45;&gt;Node17</title>
<g id="a_edge27_Node000015_Node000017"><a xlink:title=" ">
<path fill="none" stroke="#63b8ff" d="M1038.5,-1123.24C1058.64,-1120.46 1080.23,-1117.49 1097.82,-1115.06"/>
<polygon fill="#63b8ff" stroke="#63b8ff" points="1098.09,-1118.55 1107.52,-1113.72 1097.14,-1111.62 1098.09,-1118.55"/>
</a>
</g>
</g>
<!-- Node20&#45;&gt;Node3 -->
<g id="edge35_Node000020_Node000003" class="edge">
<title>Node20&#45;&gt;Node3</title>
<g id="a_edge35_Node000020_Node000003"><a xlink:title=" ">
<path fill="none" stroke="#63b8ff" d="M860.78,-975.46C911.27,-980.03 988.54,-978.64 1038.25,-938 1119.5,-871.58 1132.37,-733.01 1134.25,-679.62"/>
<polygon fill="#63b8ff" stroke="#63b8ff" points="1137.75,-679.83 1134.49,-669.75 1130.75,-679.66 1137.75,-679.83"/>
</a>
</g>
</g>
<!-- Node20&#45;&gt;Node5 -->
<g id="edge34_Node000020_Node000005" class="edge">
<title>Node20&#45;&gt;Node5</title>
<g id="a_edge34_Node000020_Node000005"><a xlink:title=" ">
<path fill="none" stroke="#63b8ff" d="M827.12,-951.61C840.34,-938.22 859,-918.55 873.75,-900 908.07,-856.82 942.95,-802.1 960.81,-773.13"/>
<polygon fill="#63b8ff" stroke="#63b8ff" points="963.76,-775.01 965.99,-764.65 957.79,-771.36 963.76,-775.01"/>
</a>
</g>
</g>
<!-- Node22 -->
<g id="Node000022" class="node">
<title>Node22</title>
<g id="a_Node000022"><a xlink:href="classxpath__ast__node.html#ae5a059e41b41505bef1f7dbebda8070b" target="_top" xlink:title=" ">
<polygon fill="white" stroke="#666666" points="1193,-431 1078,-431 1078,-399 1193,-399 1193,-431"/>
<text xml:space="preserve" text-anchor="start" x="1086" y="-417.5" font-family="Helvetica,sans-Serif" font-size="10.00">xpath_ast_node::xpath</text>
<text xml:space="preserve" text-anchor="middle" x="1135.5" y="-405.5" font-family="Helvetica,sans-Serif" font-size="10.00">_ast_node</text>
</a>
</g>
</g>
<!-- Node21&#45;&gt;Node22 -->
<g id="edge37_Node000021_Node000022" class="edge">
<title>Node21&#45;&gt;Node22</title>
<g id="a_edge37_Node000021_Node000022"><a xlink:title=" ">
<path fill="none" stroke="#63b8ff" d="M1000.27,-470.54C1022.78,-461.23 1056.39,-447.32 1084.34,-435.76"/>
<polygon fill="#63b8ff" stroke="#63b8ff" points="1085.44,-439.09 1093.34,-432.03 1082.76,-432.62 1085.44,-439.09"/>
</a>
</g>
</g>
<!-- Node22&#45;&gt;Node22 -->
<g id="edge38_Node000022_Node000022" class="edge">
<title>Node22&#45;&gt;Node22</title>
<g id="a_edge38_Node000022_Node000022"><a xlink:title=" ">
<path fill="none" stroke="#63b8ff" d="M1106.67,-431.44C1101.29,-440.58 1110.9,-449 1135.5,-449 1148.96,-449 1157.93,-446.48 1162.41,-442.71"/>
<polygon fill="#63b8ff" stroke="#63b8ff" points="1165.85,-443.38 1164.08,-432.93 1158.95,-442.2 1165.85,-443.38"/>
</a>
</g>
</g>
<!-- Node24&#45;&gt;Node5 -->
<g id="edge41_Node000024_Node000005" class="edge">
<title>Node24&#45;&gt;Node5</title>
<g id="a_edge41_Node000024_Node000005"><a xlink:title=" ">
<path fill="none" stroke="#63b8ff" d="M547.36,-593.4C638.61,-627.61 847.94,-706.11 934.48,-738.56"/>
<polygon fill="#63b8ff" stroke="#63b8ff" points="933.12,-741.78 943.71,-742.02 935.58,-735.23 933.12,-741.78"/>
</a>
</g>
</g>
<!-- Node24&#45;&gt;Node25 -->
<g id="edge42_Node000024_Node000025" class="edge">
<title>Node24&#45;&gt;Node25</title>
<g id="a_edge42_Node000024_Node000025"><a xlink:title=" ">
<path fill="none" stroke="#63b8ff" d="M554.13,-567.71C563.09,-566.06 572.55,-564.32 581.91,-562.6"/>
<polygon fill="#63b8ff" stroke="#63b8ff" points="582.54,-566.04 591.74,-560.79 581.27,-559.16 582.54,-566.04"/>
</a>
</g>
</g>
<!-- Node25&#45;&gt;Node2 -->
<g id="edge44_Node000025_Node000002" class="edge">
<title>Node25&#45;&gt;Node2</title>
<g id="a_edge44_Node000025_Node000002"><a xlink:title=" ">
<path fill="none" stroke="#63b8ff" d="M709.7,-548.93C764.16,-547.91 846.11,-546.37 904.1,-545.29"/>
<polygon fill="#63b8ff" stroke="#63b8ff" points="903.92,-548.79 913.85,-545.11 903.79,-541.79 903.92,-548.79"/>
</a>
</g>
</g>
<!-- Node25&#45;&gt;Node5 -->
<g id="edge43_Node000025_Node000005" class="edge">
<title>Node25&#45;&gt;Node5</title>
<g id="a_edge43_Node000025_Node000005"><a xlink:title=" ">
<path fill="none" stroke="#63b8ff" d="M678.34,-566.44C738.52,-604.54 886.95,-698.52 947.08,-736.59"/>
<polygon fill="#63b8ff" stroke="#63b8ff" points="945,-739.41 955.32,-741.8 948.74,-733.5 945,-739.41"/>
</a>
</g>
</g>
<!-- Node26 -->
<g id="Node000026" class="node">
<title>Node26</title>
<g id="a_Node000026"><a xlink:href="structxpath__parser.html#a0b226e2905970c868ab6a80d76da3a95" target="_top" xlink:title=" ">
<polygon fill="white" stroke="#666666" points="872.62,-364 746.38,-364 746.38,-344 872.62,-344 872.62,-364"/>
<text xml:space="preserve" text-anchor="middle" x="809.5" y="-350.5" font-family="Helvetica,sans-Serif" font-size="10.00">xpath_parser::parse_step</text>
</a>
</g>
</g>
<!-- Node25&#45;&gt;Node26 -->
<g id="edge45_Node000025_Node000026" class="edge">
<title>Node25&#45;&gt;Node26</title>
<g id="a_edge45_Node000025_Node000026"><a xlink:title=" ">
<path fill="none" stroke="#63b8ff" d="M692.8,-533.66C698.9,-529.86 704.67,-525.34 709.25,-520 741.11,-482.88 719.09,-457.33 745.25,-416 756.07,-398.9 772.49,-382.99 785.88,-371.57"/>
<polygon fill="#63b8ff" stroke="#63b8ff" points="787.9,-374.44 793.4,-365.39 783.45,-369.04 787.9,-374.44"/>
</a>
</g>
</g>
<!-- Node26&#45;&gt;Node1 -->
<g id="edge51_Node000026_Node000001" class="edge">
<title>Node26&#45;&gt;Node1</title>
<g id="a_edge51_Node000026_Node000001"><a xlink:title=" ">
<path fill="none" stroke="#63b8ff" d="M805.48,-343.79C787.61,-285.75 690.18,0 503.62,0 343.12,0 343.12,0 343.12,0 110.4,0 62.66,-396.3 53.92,-505.46"/>
<polygon fill="#63b8ff" stroke="#63b8ff" points="50.44,-505.01 53.19,-515.25 57.42,-505.54 50.44,-505.01"/>
</a>
</g>
</g>
<!-- Node26&#45;&gt;Node2 -->
<g id="edge49_Node000026_Node000002" class="edge">
<title>Node26&#45;&gt;Node2</title>
<g id="a_edge49_Node000026_Node000002"><a xlink:title=" ">
<path fill="none" stroke="#63b8ff" d="M854.27,-364.49C861.52,-367.83 868.4,-372.23 873.75,-378 912.18,-419.46 876.67,-454.15 909.75,-500 917.92,-511.33 929.95,-520.73 941.33,-527.9"/>
<polygon fill="#63b8ff" stroke="#63b8ff" points="939.35,-530.8 949.74,-532.85 942.9,-524.76 939.35,-530.8"/>
</a>
</g>
</g>
<!-- Node26&#45;&gt;Node3 -->
<g id="edge48_Node000026_Node000003" class="edge">
<title>Node26&#45;&gt;Node3</title>
<g id="a_edge48_Node000026_Node000003"><a xlink:title=" ">
<path fill="none" stroke="#63b8ff" d="M848.02,-364.4C856.94,-367.89 866.09,-372.36 873.75,-378 894.66,-393.39 888.28,-409.4 909.75,-424 959,-457.49 992.73,-423.59 1038.25,-462 1094.05,-509.09 1120.37,-596.28 1129.98,-636.56"/>
<polygon fill="#63b8ff" stroke="#63b8ff" points="1126.54,-637.21 1132.16,-646.2 1133.37,-635.67 1126.54,-637.21"/>
</a>
</g>
</g>
<!-- Node26&#45;&gt;Node5 -->
<g id="edge46_Node000026_Node000005" class="edge">
<title>Node26&#45;&gt;Node5</title>
<g id="a_edge46_Node000026_Node000005"><a xlink:title=" ">
<path fill="none" stroke="#63b8ff" d="M816.04,-364.48C827.89,-387.2 856.05,-442.91 873.75,-492 894.67,-550.01 887.9,-568.34 909.75,-626 924.59,-665.15 947.6,-708.3 961.4,-732.88"/>
<polygon fill="#63b8ff" stroke="#63b8ff" points="958.29,-734.5 966.28,-741.46 964.38,-731.04 958.29,-734.5"/>
</a>
</g>
</g>
<!-- Node26&#45;&gt;Node13 -->
<g id="edge47_Node000026_Node000013" class="edge">
<title>Node26&#45;&gt;Node13</title>
<g id="a_edge47_Node000026_Node000013"><a xlink:title=" ">
<path fill="none" stroke="#63b8ff" d="M815.27,-364.47C834.06,-405.67 902.31,-554.8 909.75,-563 914.95,-568.74 921.23,-573.89 927.78,-578.4"/>
<polygon fill="#63b8ff" stroke="#63b8ff" points="925.88,-581.34 936.2,-583.75 929.63,-575.43 925.88,-581.34"/>
</a>
</g>
</g>
<!-- Node26&#45;&gt;Node21 -->
<g id="edge54_Node000026_Node000021" class="edge">
<title>Node26&#45;&gt;Node21</title>
<g id="a_edge54_Node000026_Node000021"><a xlink:title=" ">
<path fill="none" stroke="#63b8ff" d="M851.99,-364.41C859.88,-367.79 867.58,-372.22 873.75,-378 901.9,-404.38 881.6,-430.62 909.75,-457 913.22,-460.25 917.18,-463.08 921.38,-465.53"/>
<polygon fill="#63b8ff" stroke="#63b8ff" points="919.64,-468.57 930.15,-469.91 922.77,-462.31 919.64,-468.57"/>
</a>
</g>
</g>
<!-- Node26&#45;&gt;Node23 -->
<g id="edge53_Node000026_Node000023" class="edge">
<title>Node26&#45;&gt;Node23</title>
<g id="a_edge53_Node000026_Node000023"><a xlink:title=" ">
<path fill="none" stroke="#63b8ff" d="M820.97,-343.65C838.22,-327.07 874.23,-294.36 909.75,-274 915.83,-270.51 922.52,-267.34 929.2,-264.54"/>
<polygon fill="#63b8ff" stroke="#63b8ff" points="930.18,-267.92 938.19,-260.99 927.61,-261.41 930.18,-267.92"/>
</a>
</g>
</g>
<!-- Node27 -->
<g id="Node000027" class="node">
<title>Node27</title>
<g id="a_Node000027"><a xlink:href="structxpath__parser.html#ad67ec26e0e286ca1bb5144a79e3a3583" target="_top" xlink:title=" ">
<polygon fill="white" stroke="#666666" points="1025.12,-415 922.88,-415 922.88,-383 1025.12,-383 1025.12,-415"/>
<text xml:space="preserve" text-anchor="start" x="930.88" y="-401.5" font-family="Helvetica,sans-Serif" font-size="10.00">xpath_parser::parse</text>
<text xml:space="preserve" text-anchor="middle" x="974" y="-389.5" font-family="Helvetica,sans-Serif" font-size="10.00">_axis_name</text>
</a>
</g>
</g>
<!-- Node26&#45;&gt;Node27 -->
<g id="edge50_Node000026_Node000027" class="edge">
<title>Node26&#45;&gt;Node27</title>
<g id="a_edge50_Node000026_Node000027"><a xlink:title=" ">
<path fill="none" stroke="#63b8ff" d="M848.19,-364.44C867.03,-369.65 890.31,-376.1 911.64,-382.01"/>
<polygon fill="#63b8ff" stroke="#63b8ff" points="910.56,-385.34 921.13,-384.64 912.42,-378.59 910.56,-385.34"/>
</a>
</g>
</g>
<!-- Node26&#45;&gt;Node28 -->
<g id="edge52_Node000026_Node000028" class="edge">
<title>Node26&#45;&gt;Node28</title>
<g id="a_edge52_Node000026_Node000028"><a xlink:title=" ">
<path fill="none" stroke="#63b8ff" d="M841.45,-343.53C861.82,-336.63 889.15,-327.38 913.63,-319.1"/>
<polygon fill="#63b8ff" stroke="#63b8ff" points="914.49,-322.5 922.84,-315.98 912.24,-315.87 914.49,-322.5"/>
</a>
</g>
</g>
<!-- Node29 -->
<g id="Node000029" class="node">
<title>Node29</title>
<g id="a_Node000029"><a xlink:href="classxpath__ast__node.html#afe044146db852b7d4dbf188fd2ff6c75" target="_top" xlink:title=" ">
<polygon fill="white" stroke="#666666" points="1026.25,-365 921.75,-365 921.75,-333 1026.25,-333 1026.25,-365"/>
<text xml:space="preserve" text-anchor="start" x="929.75" y="-351.5" font-family="Helvetica,sans-Serif" font-size="10.00">xpath_ast_node::set</text>
<text xml:space="preserve" text-anchor="middle" x="974" y="-339.5" font-family="Helvetica,sans-Serif" font-size="10.00">_right</text>
</a>
</g>
</g>
<!-- Node26&#45;&gt;Node29 -->
<g id="edge55_Node000026_Node000029" class="edge">
<title>Node26&#45;&gt;Node29</title>
<g id="a_edge55_Node000026_Node000029"><a xlink:title=" ">
<path fill="none" stroke="#63b8ff" d="M872.86,-352.08C885,-351.71 897.74,-351.32 909.9,-350.94"/>
<polygon fill="#63b8ff" stroke="#63b8ff" points="909.95,-354.44 919.84,-350.64 909.74,-347.44 909.95,-354.44"/>
</a>
</g>
</g>
<!-- Node29&#45;&gt;Node22 -->
<g id="edge56_Node000029_Node000022" class="edge">
<title>Node29&#45;&gt;Node22</title>
<g id="a_edge56_Node000029_Node000022"><a xlink:title=" ">
<path fill="none" stroke="#63b8ff" d="M1016.91,-365.39C1024.04,-368.23 1031.37,-371.17 1038.25,-374 1053.95,-380.45 1071.01,-387.65 1086.35,-394.2"/>
<polygon fill="#63b8ff" stroke="#63b8ff" points="1084.69,-397.29 1095.26,-398.01 1087.45,-390.86 1084.69,-397.29"/>
</a>
</g>
</g>
</g>
</svg>

<g id="navigator" transform="translate(0 0)" fill="#404254">
  <rect fill="#f2f5e9" fill-opacity="0.5" stroke="#606060" stroke-width=".5" x="0" y="0" width="60" height="60"/>
  <use id="zoomplus" xlink:href="#zoomPlus" x="17" y="9" onmousedown="handleZoom(evt,'in')"/>
  <use id="zoomminus" xlink:href="#zoomMin" x="42" y="9" onmousedown="handleZoom(evt,'out')"/>
  <use id="reset" xlink:href="#resetDef" x="30" y="36" onmousedown="handleReset()"/>
   <use id="arrowup" xlink:href="#arrowUp" x="0" y="0" onmousedown="handlePan(0,-1)"/>
  <use id="arrowright" xlink:href="#arrowRight" x="0" y="0" onmousedown="handlePan(1,0)"/>
  <use id="arrowdown" xlink:href="#arrowDown" x="0" y="0" onmousedown="handlePan(0,1)"/>
  <use id="arrowleft" xlink:href="#arrowLeft" x="0" y="0" onmousedown="handlePan(-1,0)"/>
</g>
<svg viewBox="0 0 15 15" width="100%" height="30px" preserveAspectRatio="xMaxYMin meet">
 <g id="arrow_out" transform="scale(0.3 0.3)">
  <a xlink:href="structxpath__parser_a7738e256011ca842dc2a0beba78562ed_cgraph_org.svg" target="_base">
   <rect id="button" ry="5" rx="5" y="6" x="6" height="38" width="38"
        fill="#f2f5e9" fill-opacity="0.5" stroke="#606060" stroke-width="1.0"/>
   <path id="arrow"
     d="M 11.500037,31.436501 C 11.940474,20.09759 22.043105,11.32322 32.158766,21.979434 L 37.068811,17.246167 C 37.068811,17.246167 37.088388,32 37.088388,32 L 22.160133,31.978069 C 22.160133,31.978069 26.997745,27.140456 26.997745,27.140456 C 18.528582,18.264221 13.291696,25.230495 11.500037,31.436501 z"
     style="fill:#404040;"/>
  </a>
 </g>
</svg>

<style type='text/css'>
<![CDATA[
[data-mouse-over-selected='false'] { opacity: 0.7; }
[data-mouse-over-selected='true']  { opacity: 1.0; }
]]>
</style>
<script type="application/ecmascript"><![CDATA[
document.addEventListener('DOMContentLoaded', (event) => {
  highlightEdges();
  highlightAdjacentNodes();
});
]]></script>
</svg>
