<?xml version="1.0" encoding="UTF-8" standalone="no"?>
<!DOCTYPE svg PUBLIC "-//W3C//DTD SVG 1.1//EN"
 "http://www.w3.org/Graphics/SVG/1.1/DTD/svg11.dtd">
<!-- Generated by graphviz version 14.1.2 (20260124.0452)
 -->
<!-- Title: gap::flush Pages: 1 -->
<svg width="684pt" height="316pt"
 viewBox="0.00 0.00 684.00 316.00" xmlns="http://www.w3.org/2000/svg" xmlns:xlink="http://www.w3.org/1999/xlink">
<g id="graph0" class="graph" transform="scale(1 1) rotate(0) translate(4 312)">
<title>gap::flush</title>
<!-- Node1 -->
<g id="Node000001" class="node">
<title>Node1</title>
<g id="a_Node000001"><a xlink:title=" ">
<polygon fill="#999999" stroke="#666666" points="676.25,-152 617.5,-152 617.5,-132 676.25,-132 676.25,-152"/>
<text xml:space="preserve" text-anchor="middle" x="646.88" y="-138.5" font-family="Helvetica,sans-Serif" font-size="10.00">gap::flush</text>
</a>
</g>
</g>
<!-- Node2 -->
<g id="Node000002" class="node">
<title>Node2</title>
<g id="a_Node000002"><a xlink:href="structstrconv__pcdata__impl.html#a7f14166de54e30596aa4e398568b4a5f" target="_top" xlink:title=" ">
<polygon fill="white" stroke="#666666" points="578.5,-308 472.5,-308 472.5,-276 578.5,-276 578.5,-308"/>
<text xml:space="preserve" text-anchor="start" x="480.5" y="-294.5" font-family="Helvetica,sans-Serif" font-size="10.00">strconv_pcdata_impl</text>
<text xml:space="preserve" text-anchor="middle" x="525.5" y="-282.5" font-family="Helvetica,sans-Serif" font-size="10.00">::parse</text>
</a>
</g>
</g>
<!-- Node1&#45;&gt;Node2 -->
<g id="edge1_Node000001_Node000002" class="edge">
<title>Node1&#45;&gt;Node2</title>
<g id="a_edge1_Node000001_Node000002"><a xlink:title=" ">
<path fill="none" stroke="#63b8ff" d="M639.79,-163.14C630.99,-190.37 612.3,-237.67 581.5,-267 578.16,-270.18 574.34,-273.01 570.31,-275.51"/>
<polygon fill="#63b8ff" stroke="#63b8ff" points="643.03,-164.53 642.61,-153.94 636.34,-162.48 643.03,-164.53"/>
</a>
</g>
</g>
<!-- Node6 -->
<g id="Node000006" class="node">
<title>Node6</title>
<g id="a_Node000006"><a xlink:href="structstrconv__attribute__impl.html#a078a9b175b8c7a338d58431ec959a98c" target="_top" xlink:title=" ">
<polygon fill="white" stroke="#666666" points="581.5,-258 469.5,-258 469.5,-226 581.5,-226 581.5,-258"/>
<text xml:space="preserve" text-anchor="start" x="477.5" y="-244.5" font-family="Helvetica,sans-Serif" font-size="10.00">strconv_attribute_impl</text>
<text xml:space="preserve" text-anchor="middle" x="525.5" y="-232.5" font-family="Helvetica,sans-Serif" font-size="10.00">::parse_eol</text>
</a>
</g>
</g>
<!-- Node1&#45;&gt;Node6 -->
<g id="edge5_Node000001_Node000006" class="edge">
<title>Node1&#45;&gt;Node6</title>
<g id="a_edge5_Node000001_Node000006"><a xlink:title=" ">
<path fill="none" stroke="#63b8ff" d="M632.66,-161.74C620.82,-178.23 602.18,-201.47 581.5,-217 577.31,-220.15 572.65,-223.02 567.88,-225.61"/>
<polygon fill="#63b8ff" stroke="#63b8ff" points="635.4,-163.93 638.24,-153.72 629.66,-159.93 635.4,-163.93"/>
</a>
</g>
</g>
<!-- Node8 -->
<g id="Node000008" class="node">
<title>Node8</title>
<g id="a_Node000008"><a xlink:href="structstrconv__attribute__impl.html#a56ce65fa313ef3bb4a95f5b03a959f7f" target="_top" xlink:title=" ">
<polygon fill="white" stroke="#666666" points="581.5,-208 469.5,-208 469.5,-176 581.5,-176 581.5,-208"/>
<text xml:space="preserve" text-anchor="start" x="477.5" y="-194.5" font-family="Helvetica,sans-Serif" font-size="10.00">strconv_attribute_impl</text>
<text xml:space="preserve" text-anchor="middle" x="525.5" y="-182.5" font-family="Helvetica,sans-Serif" font-size="10.00">::parse_simple</text>
</a>
</g>
</g>
<!-- Node1&#45;&gt;Node8 -->
<g id="edge8_Node000001_Node000008" class="edge">
<title>Node1&#45;&gt;Node8</title>
<g id="a_edge8_Node000001_Node000008"><a xlink:title=" ">
<path fill="none" stroke="#63b8ff" d="M610.54,-156.8C596.41,-162.72 580.08,-169.56 565.59,-175.63"/>
<polygon fill="#63b8ff" stroke="#63b8ff" points="611.58,-160.16 619.45,-153.07 608.88,-153.7 611.58,-160.16"/>
</a>
</g>
</g>
<!-- Node9 -->
<g id="Node000009" class="node">
<title>Node9</title>
<g id="a_Node000009"><a xlink:href="structstrconv__attribute__impl.html#abb4e88a853d1bc28af060f38f3f0f8d3" target="_top" xlink:title=" ">
<polygon fill="white" stroke="#666666" points="581.5,-158 469.5,-158 469.5,-126 581.5,-126 581.5,-158"/>
<text xml:space="preserve" text-anchor="start" x="477.5" y="-144.5" font-family="Helvetica,sans-Serif" font-size="10.00">strconv_attribute_impl</text>
<text xml:space="preserve" text-anchor="middle" x="525.5" y="-132.5" font-family="Helvetica,sans-Serif" font-size="10.00">::parse_wconv</text>
</a>
</g>
</g>
<!-- Node1&#45;&gt;Node9 -->
<g id="edge10_Node000001_Node000009" class="edge">
<title>Node1&#45;&gt;Node9</title>
<g id="a_edge10_Node000001_Node000009"><a xlink:title=" ">
<path fill="none" stroke="#63b8ff" d="M605.89,-142C598.07,-142 589.74,-142 581.53,-142"/>
<polygon fill="#63b8ff" stroke="#63b8ff" points="605.77,-145.5 615.77,-142 605.77,-138.5 605.77,-145.5"/>
</a>
</g>
</g>
<!-- Node10 -->
<g id="Node000010" class="node">
<title>Node10</title>
<g id="a_Node000010"><a xlink:href="structstrconv__attribute__impl.html#a9e45f050f2526ac299cbc5adf4de442b" target="_top" xlink:title=" ">
<polygon fill="white" stroke="#666666" points="581.5,-108 469.5,-108 469.5,-76 581.5,-76 581.5,-108"/>
<text xml:space="preserve" text-anchor="start" x="477.5" y="-94.5" font-family="Helvetica,sans-Serif" font-size="10.00">strconv_attribute_impl</text>
<text xml:space="preserve" text-anchor="middle" x="525.5" y="-82.5" font-family="Helvetica,sans-Serif" font-size="10.00">::parse_wnorm</text>
</a>
</g>
</g>
<!-- Node1&#45;&gt;Node10 -->
<g id="edge12_Node000001_Node000010" class="edge">
<title>Node1&#45;&gt;Node10</title>
<g id="a_edge12_Node000001_Node000010"><a xlink:title=" ">
<path fill="none" stroke="#63b8ff" d="M610.54,-127.2C596.41,-121.28 580.08,-114.44 565.59,-108.37"/>
<polygon fill="#63b8ff" stroke="#63b8ff" points="608.88,-130.3 619.45,-130.93 611.58,-123.84 608.88,-130.3"/>
</a>
</g>
</g>
<!-- Node11 -->
<g id="Node000011" class="node">
<title>Node11</title>
<g id="a_Node000011"><a xlink:href="pugixml_8cpp.html#a17c42195ecf9b84b34bfb53b5c6480b8" target="_top" xlink:title=" ">
<polygon fill="white" stroke="#666666" points="564.25,-58 486.75,-58 486.75,-38 564.25,-38 564.25,-58"/>
<text xml:space="preserve" text-anchor="middle" x="525.5" y="-44.5" font-family="Helvetica,sans-Serif" font-size="10.00">strconv_cdata</text>
</a>
</g>
</g>
<!-- Node1&#45;&gt;Node11 -->
<g id="edge14_Node000001_Node000011" class="edge">
<title>Node1&#45;&gt;Node11</title>
<g id="a_edge14_Node000001_Node000011"><a xlink:title=" ">
<path fill="none" stroke="#63b8ff" d="M633.4,-122.31C621.81,-105.47 603.12,-81.7 581.5,-67 576.4,-63.54 570.61,-60.64 564.75,-58.25"/>
<polygon fill="#63b8ff" stroke="#63b8ff" points="630.38,-124.09 638.82,-130.49 636.22,-120.22 630.38,-124.09"/>
</a>
</g>
</g>
<!-- Node13 -->
<g id="Node000013" class="node">
<title>Node13</title>
<g id="a_Node000013"><a xlink:href="pugixml_8cpp.html#a80f240310448aefa4adcb0a929db6462" target="_top" xlink:title=" ">
<polygon fill="white" stroke="#666666" points="572.5,-20 478.5,-20 478.5,0 572.5,0 572.5,-20"/>
<text xml:space="preserve" text-anchor="middle" x="525.5" y="-6.5" font-family="Helvetica,sans-Serif" font-size="10.00">strconv_comment</text>
</a>
</g>
</g>
<!-- Node1&#45;&gt;Node13 -->
<g id="edge17_Node000001_Node000013" class="edge">
<title>Node1&#45;&gt;Node13</title>
<g id="a_edge17_Node000001_Node000013"><a xlink:title=" ">
<path fill="none" stroke="#63b8ff" d="M639.11,-121.02C629.94,-95.76 611.2,-53.65 581.5,-29 577.38,-25.58 572.61,-22.76 567.63,-20.44"/>
<polygon fill="#63b8ff" stroke="#63b8ff" points="635.7,-121.87 642.26,-130.19 642.32,-119.6 635.7,-121.87"/>
</a>
</g>
</g>
<!-- Node3 -->
<g id="Node000003" class="node">
<title>Node3</title>
<g id="a_Node000003"><a xlink:href="pugixml_8cpp.html#a52da3e542d6ab6e06855274825508ab1" target="_top" xlink:title=" ">
<polygon fill="white" stroke="#666666" points="408.38,-258 306.88,-258 306.88,-238 408.38,-238 408.38,-258"/>
<text xml:space="preserve" text-anchor="middle" x="357.62" y="-244.5" font-family="Helvetica,sans-Serif" font-size="10.00">get_strconv_pcdata</text>
</a>
</g>
</g>
<!-- Node2&#45;&gt;Node3 -->
<g id="edge2_Node000002_Node000003" class="edge">
<title>Node2&#45;&gt;Node3</title>
<g id="a_edge2_Node000002_Node000003"><a xlink:title=" ">
<path fill="none" stroke="#63b8ff" d="M461.14,-275.19C439.96,-269.57 416.97,-263.48 398.15,-258.48"/>
<polygon fill="#63b8ff" stroke="#63b8ff" points="459.99,-278.51 470.55,-277.69 461.78,-271.74 459.99,-278.51"/>
</a>
</g>
</g>
<!-- Node4 -->
<g id="Node000004" class="node">
<title>Node4</title>
<g id="a_Node000004"><a xlink:href="structxml__parser.html#a35bac90f1975aa1a9d5de4b60b761f16" target="_top" xlink:title=" ">
<polygon fill="white" stroke="#666666" points="245.75,-177 130,-177 130,-157 245.75,-157 245.75,-177"/>
<text xml:space="preserve" text-anchor="middle" x="187.88" y="-163.5" font-family="Helvetica,sans-Serif" font-size="10.00">xml_parser::parse_tree</text>
</a>
</g>
</g>
<!-- Node3&#45;&gt;Node4 -->
<g id="edge3_Node000003_Node000004" class="edge">
<title>Node3&#45;&gt;Node4</title>
<g id="a_edge3_Node000003_Node000004"><a xlink:title=" ">
<path fill="none" stroke="#63b8ff" d="M324.85,-232.66C291.32,-216.47 239.4,-191.4 210.38,-177.38"/>
<polygon fill="#63b8ff" stroke="#63b8ff" points="323.15,-235.72 333.68,-236.92 326.19,-229.42 323.15,-235.72"/>
</a>
</g>
</g>
<!-- Node5 -->
<g id="Node000005" class="node">
<title>Node5</title>
<g id="a_Node000005"><a xlink:href="structxml__parser.html#a4bf0acd166edf3fc6cc9543002ff6f5d" target="_top" xlink:title=" ">
<polygon fill="white" stroke="#666666" points="94,-177 0,-177 0,-157 94,-157 94,-177"/>
<text xml:space="preserve" text-anchor="middle" x="47" y="-163.5" font-family="Helvetica,sans-Serif" font-size="10.00">xml_parser::parse</text>
</a>
</g>
</g>
<!-- Node4&#45;&gt;Node5 -->
<g id="edge4_Node000004_Node000005" class="edge">
<title>Node4&#45;&gt;Node5</title>
<g id="a_edge4_Node000004_Node000005"><a xlink:title=" ">
<path fill="none" stroke="#63b8ff" d="M118.14,-167C110.01,-167 101.86,-167 94.14,-167"/>
<polygon fill="#63b8ff" stroke="#63b8ff" points="118.07,-170.5 128.07,-167 118.07,-163.5 118.07,-170.5"/>
</a>
</g>
</g>
<!-- Node7 -->
<g id="Node000007" class="node">
<title>Node7</title>
<g id="a_Node000007"><a xlink:href="pugixml_8cpp.html#ab206ad5e3a83ea8040ec039ea641c208" target="_top" xlink:title=" ">
<polygon fill="white" stroke="#666666" points="411.38,-177 303.88,-177 303.88,-157 411.38,-157 411.38,-177"/>
<text xml:space="preserve" text-anchor="middle" x="357.62" y="-163.5" font-family="Helvetica,sans-Serif" font-size="10.00">get_strconv_attribute</text>
</a>
</g>
</g>
<!-- Node6&#45;&gt;Node7 -->
<g id="edge6_Node000006_Node000007" class="edge">
<title>Node6&#45;&gt;Node7</title>
<g id="a_edge6_Node000006_Node000007"><a xlink:title=" ">
<path fill="none" stroke="#63b8ff" d="M477.82,-220.89C446.43,-206.7 406.42,-188.61 381.66,-177.42"/>
<polygon fill="#63b8ff" stroke="#63b8ff" points="476.17,-223.99 486.72,-224.92 479.05,-217.61 476.17,-223.99"/>
</a>
</g>
</g>
<!-- Node7&#45;&gt;Node4 -->
<g id="edge7_Node000007_Node000004" class="edge">
<title>Node7&#45;&gt;Node4</title>
<g id="a_edge7_Node000007_Node000004"><a xlink:title=" ">
<path fill="none" stroke="#63b8ff" d="M292.13,-167C276.92,-167 260.81,-167 245.96,-167"/>
<polygon fill="#63b8ff" stroke="#63b8ff" points="292.03,-170.5 302.03,-167 292.03,-163.5 292.03,-170.5"/>
</a>
</g>
</g>
<!-- Node8&#45;&gt;Node7 -->
<g id="edge9_Node000008_Node000007" class="edge">
<title>Node8&#45;&gt;Node7</title>
<g id="a_edge9_Node000008_Node000007"><a xlink:title=" ">
<path fill="none" stroke="#63b8ff" d="M458.18,-182C442.72,-179.67 426.45,-177.22 411.65,-174.99"/>
<polygon fill="#63b8ff" stroke="#63b8ff" points="457.36,-185.42 467.77,-183.45 458.4,-178.5 457.36,-185.42"/>
</a>
</g>
</g>
<!-- Node9&#45;&gt;Node7 -->
<g id="edge11_Node000009_Node000007" class="edge">
<title>Node9&#45;&gt;Node7</title>
<g id="a_edge11_Node000009_Node000007"><a xlink:title=" ">
<path fill="none" stroke="#63b8ff" d="M458.18,-152C442.72,-154.33 426.45,-156.78 411.65,-159.01"/>
<polygon fill="#63b8ff" stroke="#63b8ff" points="458.4,-155.5 467.77,-150.55 457.36,-148.58 458.4,-155.5"/>
</a>
</g>
</g>
<!-- Node10&#45;&gt;Node7 -->
<g id="edge13_Node000010_Node000007" class="edge">
<title>Node10&#45;&gt;Node7</title>
<g id="a_edge13_Node000010_Node000007"><a xlink:title=" ">
<path fill="none" stroke="#63b8ff" d="M477.82,-113.11C446.43,-127.3 406.42,-145.39 381.66,-156.58"/>
<polygon fill="#63b8ff" stroke="#63b8ff" points="479.05,-116.39 486.72,-109.08 476.17,-110.01 479.05,-116.39"/>
</a>
</g>
</g>
<!-- Node12 -->
<g id="Node000012" class="node">
<title>Node12</title>
<g id="a_Node000012"><a xlink:href="structxml__parser.html#afc651baa774c379ad03244cac2e96015" target="_top" xlink:title=" ">
<polygon fill="white" stroke="#666666" points="433.5,-58 281.75,-58 281.75,-38 433.5,-38 433.5,-58"/>
<text xml:space="preserve" text-anchor="middle" x="357.62" y="-44.5" font-family="Helvetica,sans-Serif" font-size="10.00">xml_parser::parse_exclamation</text>
</a>
</g>
</g>
<!-- Node11&#45;&gt;Node12 -->
<g id="edge15_Node000011_Node000012" class="edge">
<title>Node11&#45;&gt;Node12</title>
<g id="a_edge15_Node000011_Node000012"><a xlink:title=" ">
<path fill="none" stroke="#63b8ff" d="M474.96,-48C462,-48 447.73,-48 433.76,-48"/>
<polygon fill="#63b8ff" stroke="#63b8ff" points="474.93,-51.5 484.93,-48 474.93,-44.5 474.93,-51.5"/>
</a>
</g>
</g>
<!-- Node12&#45;&gt;Node4 -->
<g id="edge16_Node000012_Node000004" class="edge">
<title>Node12&#45;&gt;Node4</title>
<g id="a_edge16_Node000012_Node000004"><a xlink:title=" ">
<path fill="none" stroke="#63b8ff" d="M332.95,-64.79C297.74,-89.77 232.62,-135.96 203.55,-156.59"/>
<polygon fill="#63b8ff" stroke="#63b8ff" points="334.67,-67.87 340.8,-59.23 330.62,-62.16 334.67,-67.87"/>
</a>
</g>
</g>
<!-- Node13&#45;&gt;Node12 -->
<g id="edge18_Node000013_Node000012" class="edge">
<title>Node13&#45;&gt;Node12</title>
<g id="a_edge18_Node000013_Node000012"><a xlink:title=" ">
<path fill="none" stroke="#63b8ff" d="M467.54,-23.05C446.87,-27.78 423.8,-33.07 404.24,-37.55"/>
<polygon fill="#63b8ff" stroke="#63b8ff" points="468.29,-26.47 477.26,-20.82 466.73,-19.64 468.29,-26.47"/>
</a>
</g>
</g>
</g>
</svg>
