<?xml version="1.0" encoding="UTF-8" standalone="no"?>
<!DOCTYPE svg PUBLIC "-//W3C//DTD SVG 1.1//EN"
 "http://www.w3.org/Graphics/SVG/1.1/DTD/svg11.dtd">
<!-- Generated by graphviz version 14.1.2 (20260124.0452)
 -->
<!-- Title: xpath_parser::alloc_node Pages: 1 -->
<!--zoomable 561 -->

<svg id="main" version="1.1" xmlns="http://www.w3.org/2000/svg" xmlns:xlink="http://www.w3.org/1999/xlink" xml:space="preserve" onload="init(evt)">

<style type="text/css"><![CDATA[
.node, .edge {opacity: 0.7;}
.node.selected, .edge.selected {opacity: 1;}
.edge:hover path { stroke: red; }
.edge:hover polygon { stroke: red; fill: red; }
]]></style>

<defs>
  <circle id="rim" cx="0" cy="0" r="7"/>
  <circle id="rim2" cx="0" cy="0" r="3.5"/>
  <g id="zoomPlus">
    <use xlink:href="#rim" fill="#404040"><set attributeName="fill" to="#808080" begin="zoomplus.mouseover" end="zoomplus.mouseout"/></use>
    <path d="M-4,0h8M0,-4v8" fill="none" stroke="white" stroke-width="1.5" pointer-events="none"/>
  </g>
  <g id="zoomMin">
    <use xlink:href="#rim" fill="#404040"><set attributeName="fill" to="#808080" begin="zoomminus.mouseover" end="zoomminus.mouseout"/></use>
    <path d="M-4,0h8" fill="none" stroke="white" stroke-width="1.5" pointer-events="none"/>
  </g>
  <g id="arrowUp" transform="translate(30 24)">
    <use xlink:href="#rim"/>
    <path pointer-events="none" fill="none" stroke="white" stroke-width="1.5" d="M0,-3.0v7 M-2.5,-0.5L0,-3.0L2.5,-0.5"/>
  </g>
  <g id="arrowRight" transform="rotate(90) translate(36 -43)">
    <use xlink:href="#rim"/>
    <path pointer-events="none" fill="none" stroke="white" stroke-width="1.5" d="M0,-3.0v7 M-2.5,-0.5L0,-3.0L2.5,-0.5"/>
  </g>
  <g id="arrowDown" transform="rotate(180) translate(-30 -48)">
    <use xlink:href="#rim"/>
    <path pointer-events="none" fill="none" stroke="white" stroke-width="1.5" d="M0,-3.0v7 M-2.5,-0.5L0,-3.0L2.5,-0.5"/>
  </g>
  <g id="arrowLeft" transform="rotate(270) translate(-36 17)">
    <use xlink:href="#rim"/>
    <path pointer-events="none" fill="none" stroke="white" stroke-width="1.5" d="M0,-3.0v7 M-2.5,-0.5L0,-3.0L2.5,-0.5"/>
  </g>
  <g id="resetDef">
    <use xlink:href="#rim2" fill="#404040"><set attributeName="fill" to="#808080" begin="reset.mouseover" end="reset.mouseout"/></use>
  </g>
</defs>
<script type="application/ecmascript">
var viewWidth = 1055;
var viewHeight = 561;
var sectionId = 'dynsection-2';
</script>
<script type="application/ecmascript" xlink:href="svg.min.js"/>
<svg id="graph" class="graph">
<g id="viewport">
<title>xpath_parser::alloc_node</title>
<!-- Node1 -->
<g id="Node000001" class="node">
<title>Node1</title>
<g id="a_Node000001"><a xlink:title=" ">
<polygon fill="#999999" stroke="#666666" points="1047.25,-294.41 922.5,-294.41 922.5,-274.41 1047.25,-274.41 1047.25,-294.41"/>
<text xml:space="preserve" text-anchor="middle" x="984.88" y="-280.91" font-family="Helvetica,sans-Serif" font-size="10.00">xpath_parser::alloc_node</text>
</a>
</g>
</g>
<!-- Node2 -->
<g id="Node000002" class="node">
<title>Node2</title>
<g id="a_Node000002"><a xlink:href="structxpath__parser.html#a46cb5a525dc4060ee9be5145b2c99772" target="_top" xlink:title=" ">
<polygon fill="white" stroke="#666666" points="886.5,-553.41 761.75,-553.41 761.75,-533.41 886.5,-533.41 886.5,-553.41"/>
<text xml:space="preserve" text-anchor="middle" x="824.12" y="-539.91" font-family="Helvetica,sans-Serif" font-size="10.00">xpath_parser::alloc_node</text>
</a>
</g>
</g>
<!-- Node1&#45;&gt;Node2 -->
<g id="edge1_Node000001_Node000002" class="edge">
<title>Node1&#45;&gt;Node2</title>
<g id="a_edge1_Node000001_Node000002"><a xlink:title=" ">
<path fill="none" stroke="#63b8ff" d="M981.32,-305.96C974.64,-352.68 952.34,-463.95 886.5,-524.41 882.72,-527.88 878.32,-530.71 873.64,-533.03"/>
<polygon fill="#63b8ff" stroke="#63b8ff" points="984.76,-306.7 982.59,-296.32 977.82,-305.78 984.76,-306.7"/>
</a>
</g>
</g>
<!-- Node3 -->
<g id="Node000003" class="node">
<title>Node3</title>
<g id="a_Node000003"><a xlink:href="structxpath__parser.html#a4c4cd1672469efb4914acfaf66ddeced" target="_top" xlink:title=" ">
<polygon fill="white" stroke="#666666" points="886.5,-515.41 761.75,-515.41 761.75,-495.41 886.5,-495.41 886.5,-515.41"/>
<text xml:space="preserve" text-anchor="middle" x="824.12" y="-501.91" font-family="Helvetica,sans-Serif" font-size="10.00">xpath_parser::alloc_node</text>
</a>
</g>
</g>
<!-- Node1&#45;&gt;Node3 -->
<g id="edge2_Node000001_Node000003" class="edge">
<title>Node1&#45;&gt;Node3</title>
<g id="a_edge2_Node000001_Node000003"><a xlink:title=" ">
<path fill="none" stroke="#63b8ff" d="M979.57,-305.58C970.13,-346.59 943.71,-437.14 886.5,-486.41 882.53,-489.83 877.94,-492.63 873.11,-494.93"/>
<polygon fill="#63b8ff" stroke="#63b8ff" points="982.94,-306.54 981.65,-296.02 976.1,-305.05 982.94,-306.54"/>
</a>
</g>
</g>
<!-- Node4 -->
<g id="Node000004" class="node">
<title>Node4</title>
<g id="a_Node000004"><a xlink:href="structxpath__parser.html#aedecbafabf81b31a6b12582ce0d6daa1" target="_top" xlink:title=" ">
<polygon fill="white" stroke="#666666" points="886.5,-477.41 761.75,-477.41 761.75,-457.41 886.5,-457.41 886.5,-477.41"/>
<text xml:space="preserve" text-anchor="middle" x="824.12" y="-463.91" font-family="Helvetica,sans-Serif" font-size="10.00">xpath_parser::alloc_node</text>
</a>
</g>
</g>
<!-- Node1&#45;&gt;Node4 -->
<g id="edge3_Node000001_Node000004" class="edge">
<title>Node1&#45;&gt;Node4</title>
<g id="a_edge3_Node000001_Node000004"><a xlink:title=" ">
<path fill="none" stroke="#63b8ff" d="M977.06,-305.39C964.66,-340.26 935.12,-410.08 886.5,-448.41 882.12,-451.86 877.11,-454.69 871.88,-457"/>
<polygon fill="#63b8ff" stroke="#63b8ff" points="980.32,-306.65 980.24,-296.06 973.7,-304.39 980.32,-306.65"/>
</a>
</g>
</g>
<!-- Node5 -->
<g id="Node000005" class="node">
<title>Node5</title>
<g id="a_Node000005"><a xlink:href="structxpath__parser.html#aa7b3b441e73547384374e37a1012c596" target="_top" xlink:title=" ">
<polygon fill="white" stroke="#666666" points="886.5,-439.41 761.75,-439.41 761.75,-419.41 886.5,-419.41 886.5,-439.41"/>
<text xml:space="preserve" text-anchor="middle" x="824.12" y="-425.91" font-family="Helvetica,sans-Serif" font-size="10.00">xpath_parser::alloc_node</text>
</a>
</g>
</g>
<!-- Node1&#45;&gt;Node5 -->
<g id="edge4_Node000001_Node000005" class="edge">
<title>Node1&#45;&gt;Node5</title>
<g id="a_edge4_Node000001_Node000005"><a xlink:title=" ">
<path fill="none" stroke="#63b8ff" d="M973.61,-304.4C958.33,-332.21 927.01,-382.3 886.5,-410.41 881.55,-413.84 875.96,-416.67 870.22,-419"/>
<polygon fill="#63b8ff" stroke="#63b8ff" points="976.5,-306.42 978.12,-295.95 970.32,-303.12 976.5,-306.42"/>
</a>
</g>
</g>
<!-- Node6 -->
<g id="Node000006" class="node">
<title>Node6</title>
<g id="a_Node000006"><a xlink:href="structxpath__parser.html#a085e6263fe6a3549bd09a8ed54087d2d" target="_top" xlink:title=" ">
<polygon fill="white" stroke="#666666" points="886.5,-401.41 761.75,-401.41 761.75,-381.41 886.5,-381.41 886.5,-401.41"/>
<text xml:space="preserve" text-anchor="middle" x="824.12" y="-387.91" font-family="Helvetica,sans-Serif" font-size="10.00">xpath_parser::alloc_node</text>
</a>
</g>
</g>
<!-- Node1&#45;&gt;Node6 -->
<g id="edge5_Node000001_Node000006" class="edge">
<title>Node1&#45;&gt;Node6</title>
<g id="a_edge5_Node000001_Node000006"><a xlink:title=" ">
<path fill="none" stroke="#63b8ff" d="M967.78,-303.16C949.81,-322.99 918.98,-353.91 886.5,-372.41 880.59,-375.77 874.01,-378.61 867.41,-380.99"/>
<polygon fill="#63b8ff" stroke="#63b8ff" points="970.29,-305.61 974.29,-295.8 965.04,-300.97 970.29,-305.61"/>
</a>
</g>
</g>
<!-- Node7 -->
<g id="Node000007" class="node">
<title>Node7</title>
<g id="a_Node000007"><a xlink:href="structxpath__parser.html#a9e133e3be3e5826339eecd7c97917a25" target="_top" xlink:title=" ">
<polygon fill="white" stroke="#666666" points="886.5,-363.41 761.75,-363.41 761.75,-343.41 886.5,-343.41 886.5,-363.41"/>
<text xml:space="preserve" text-anchor="middle" x="824.12" y="-349.91" font-family="Helvetica,sans-Serif" font-size="10.00">xpath_parser::alloc_node</text>
</a>
</g>
</g>
<!-- Node1&#45;&gt;Node7 -->
<g id="edge6_Node000001_Node000007" class="edge">
<title>Node1&#45;&gt;Node7</title>
<g id="a_edge6_Node000001_Node000007"><a xlink:title=" ">
<path fill="none" stroke="#63b8ff" d="M952.22,-299.62C933.28,-308.58 908.66,-319.96 886.5,-329.41 875.55,-334.07 863.37,-338.91 852.77,-343"/>
<polygon fill="#63b8ff" stroke="#63b8ff" points="953.49,-302.89 961.02,-295.44 950.48,-296.57 953.49,-302.89"/>
</a>
</g>
</g>
<!-- Node8 -->
<g id="Node000008" class="node">
<title>Node8</title>
<g id="a_Node000008"><a xlink:href="structxpath__parser.html#adcd54e9b508acfe1f040ee7a54b88f2a" target="_top" xlink:title=" ">
<polygon fill="white" stroke="#666666" points="875.25,-269.41 773,-269.41 773,-237.41 875.25,-237.41 875.25,-269.41"/>
<text xml:space="preserve" text-anchor="start" x="781" y="-255.91" font-family="Helvetica,sans-Serif" font-size="10.00">xpath_parser::parse</text>
<text xml:space="preserve" text-anchor="middle" x="824.12" y="-243.91" font-family="Helvetica,sans-Serif" font-size="10.00">_expression_rec</text>
</a>
</g>
</g>
<!-- Node1&#45;&gt;Node8 -->
<g id="edge7_Node000001_Node000008" class="edge">
<title>Node1&#45;&gt;Node8</title>
<g id="a_edge7_Node000001_Node000008"><a xlink:title=" ">
<path fill="none" stroke="#63b8ff" d="M919.19,-271.77C904.66,-268.94 889.45,-265.97 875.6,-263.26"/>
<polygon fill="#63b8ff" stroke="#63b8ff" points="918.16,-275.14 928.64,-273.62 919.5,-268.27 918.16,-275.14"/>
</a>
</g>
</g>
<!-- Node12 -->
<g id="Node000012" class="node">
<title>Node12</title>
<g id="a_Node000012"><a xlink:href="structxpath__parser.html#a61a425d990a56d5db8cd14405835a5b6" target="_top" xlink:title=" ">
<polygon fill="white" stroke="#666666" points="418.5,-202.41 316.25,-202.41 316.25,-170.41 418.5,-170.41 418.5,-202.41"/>
<text xml:space="preserve" text-anchor="start" x="324.25" y="-188.91" font-family="Helvetica,sans-Serif" font-size="10.00">xpath_parser::parse</text>
<text xml:space="preserve" text-anchor="middle" x="367.38" y="-176.91" font-family="Helvetica,sans-Serif" font-size="10.00">_filter_expression</text>
</a>
</g>
</g>
<!-- Node1&#45;&gt;Node12 -->
<g id="edge24_Node000001_Node000012" class="edge">
<title>Node1&#45;&gt;Node12</title>
<g id="a_edge24_Node000001_Node000012"><a xlink:title=" ">
<path fill="none" stroke="#63b8ff" d="M973.94,-263.71C959.21,-235.64 928.72,-186.46 886.5,-164.41 718.75,-76.8 645.89,-100.88 461.25,-142.41 437.58,-147.73 412.84,-159.81 394.86,-169.97"/>
<polygon fill="#63b8ff" stroke="#63b8ff" points="970.81,-265.28 978.44,-272.64 977.06,-262.13 970.81,-265.28"/>
</a>
</g>
</g>
<!-- Node13 -->
<g id="Node000013" class="node">
<title>Node13</title>
<g id="a_Node000013"><a xlink:href="structxpath__parser.html#ab5275305ebaac95fd68a3186b737aaa7" target="_top" xlink:title=" ">
<polygon fill="white" stroke="#666666" points="135.25,-312.41 0,-312.41 0,-280.41 135.25,-280.41 135.25,-312.41"/>
<text xml:space="preserve" text-anchor="start" x="8" y="-298.91" font-family="Helvetica,sans-Serif" font-size="10.00">xpath_parser::parse</text>
<text xml:space="preserve" text-anchor="middle" x="67.62" y="-286.91" font-family="Helvetica,sans-Serif" font-size="10.00">_path_or_unary_expression</text>
</a>
</g>
</g>
<!-- Node1&#45;&gt;Node13 -->
<g id="edge28_Node000001_Node000013" class="edge">
<title>Node1&#45;&gt;Node13</title>
<g id="a_edge28_Node000001_Node000013"><a xlink:title=" ">
<path fill="none" stroke="#63b8ff" d="M925.93,-297.33C807.14,-323.74 545.45,-381.41 525.38,-381.41 525.38,-381.41 525.38,-381.41 366.38,-381.41 278.02,-381.41 255.37,-370.43 171.25,-343.41 146.25,-335.37 119.3,-322.87 99.3,-312.78"/>
<polygon fill="#63b8ff" stroke="#63b8ff" points="926.48,-300.79 935.48,-295.21 924.96,-293.96 926.48,-300.79"/>
</a>
</g>
</g>
<!-- Node14 -->
<g id="Node000014" class="node">
<title>Node14</title>
<g id="a_Node000014"><a xlink:href="structxpath__parser.html#a49cbc6141508ace22ab4b8bd8ddf965a" target="_top" xlink:title=" ">
<polygon fill="white" stroke="#666666" points="577.38,-183.41 471.38,-183.41 471.38,-151.41 577.38,-151.41 577.38,-183.41"/>
<text xml:space="preserve" text-anchor="start" x="479.38" y="-169.91" font-family="Helvetica,sans-Serif" font-size="10.00">xpath_parser::parse</text>
<text xml:space="preserve" text-anchor="middle" x="524.38" y="-157.91" font-family="Helvetica,sans-Serif" font-size="10.00">_primary_expression</text>
</a>
</g>
</g>
<!-- Node1&#45;&gt;Node14 -->
<g id="edge29_Node000001_Node000014" class="edge">
<title>Node1&#45;&gt;Node14</title>
<g id="a_edge29_Node000001_Node000014"><a xlink:title=" ">
<path fill="none" stroke="#63b8ff" d="M967.75,-265.65C949.96,-246.33 919.46,-217.04 886.5,-202.41 784.32,-157.02 650.22,-157.75 577.59,-162.46"/>
<polygon fill="#63b8ff" stroke="#63b8ff" points="964.92,-267.73 974.19,-272.85 970.13,-263.07 964.92,-267.73"/>
</a>
</g>
</g>
<!-- Node15 -->
<g id="Node000015" class="node">
<title>Node15</title>
<g id="a_Node000015"><a xlink:href="structxpath__parser.html#a0b226e2905970c868ab6a80d76da3a95" target="_top" xlink:title=" ">
<polygon fill="white" stroke="#666666" points="587.5,-95.41 461.25,-95.41 461.25,-75.41 587.5,-75.41 587.5,-95.41"/>
<text xml:space="preserve" text-anchor="middle" x="524.38" y="-81.91" font-family="Helvetica,sans-Serif" font-size="10.00">xpath_parser::parse_step</text>
</a>
</g>
</g>
<!-- Node1&#45;&gt;Node15 -->
<g id="edge31_Node000001_Node000015" class="edge">
<title>Node1&#45;&gt;Node15</title>
<g id="a_edge31_Node000001_Node000015"><a xlink:title=" ">
<path fill="none" stroke="#63b8ff" d="M979.13,-263.34C969.27,-225.12 942.69,-145 886.5,-109.41 789.9,-48.21 648.13,-61.89 574.24,-74.92"/>
<polygon fill="#63b8ff" stroke="#63b8ff" points="975.64,-263.81 981.4,-272.7 982.44,-262.16 975.64,-263.81"/>
</a>
</g>
</g>
<!-- Node16 -->
<g id="Node000016" class="node">
<title>Node16</title>
<g id="a_Node000016"><a xlink:href="structxpath__parser.html#aebea559423376001c89b19216dfc3012" target="_top" xlink:title=" ">
<polygon fill="white" stroke="#666666" points="425.25,-101.41 309.5,-101.41 309.5,-69.41 425.25,-69.41 425.25,-101.41"/>
<text xml:space="preserve" text-anchor="start" x="317.5" y="-87.91" font-family="Helvetica,sans-Serif" font-size="10.00">xpath_parser::parse</text>
<text xml:space="preserve" text-anchor="middle" x="367.38" y="-75.91" font-family="Helvetica,sans-Serif" font-size="10.00">_relative_location_path</text>
</a>
</g>
</g>
<!-- Node1&#45;&gt;Node16 -->
<g id="edge30_Node000001_Node000016" class="edge">
<title>Node1&#45;&gt;Node16</title>
<g id="a_edge30_Node000001_Node000016"><a xlink:title=" ">
<path fill="none" stroke="#63b8ff" d="M981.84,-262.81C976.2,-216.73 955.88,-109.27 886.5,-63.41 807.67,-11.29 555.11,-55.44 461.25,-66.41 449.64,-67.76 437.33,-69.83 425.6,-72.1"/>
<polygon fill="#63b8ff" stroke="#63b8ff" points="978.34,-263.01 982.9,-272.57 985.3,-262.25 978.34,-263.01"/>
</a>
</g>
</g>
<!-- Node17 -->
<g id="Node000017" class="node">
<title>Node17</title>
<g id="a_Node000017"><a xlink:href="structxpath__parser.html#af14e396ddb7817998ec221eec6b781ab" target="_top" xlink:title=" ">
<polygon fill="white" stroke="#666666" points="273.5,-101.41 171.25,-101.41 171.25,-69.41 273.5,-69.41 273.5,-101.41"/>
<text xml:space="preserve" text-anchor="start" x="179.25" y="-87.91" font-family="Helvetica,sans-Serif" font-size="10.00">xpath_parser::parse</text>
<text xml:space="preserve" text-anchor="middle" x="222.38" y="-75.91" font-family="Helvetica,sans-Serif" font-size="10.00">_location_path</text>
</a>
</g>
</g>
<!-- Node1&#45;&gt;Node17 -->
<g id="edge27_Node000001_Node000017" class="edge">
<title>Node1&#45;&gt;Node17</title>
<g id="a_edge27_Node000001_Node000017"><a xlink:title=" ">
<path fill="none" stroke="#63b8ff" d="M982.58,-262.71C978.35,-213.19 960.55,-91.72 886.5,-34.41 811.87,23.36 770,-9.41 675.62,-9.41 675.62,-9.41 675.62,-9.41 523.38,-9.41 427.2,-9.41 318.85,-46.56 262.37,-68.91"/>
<polygon fill="#63b8ff" stroke="#63b8ff" points="979.08,-262.93 983.31,-272.65 986.07,-262.42 979.08,-262.93"/>
</a>
</g>
</g>
<!-- Node18 -->
<g id="Node000018" class="node">
<title>Node18</title>
<g id="a_Node000018"><a xlink:href="structxpath__parser.html#a9a68f1cbf9900714aefe00059a66a22d" target="_top" xlink:title=" ">
<polygon fill="white" stroke="#666666" points="725.75,-221.41 623.5,-221.41 623.5,-189.41 725.75,-189.41 725.75,-221.41"/>
<text xml:space="preserve" text-anchor="start" x="631.5" y="-207.91" font-family="Helvetica,sans-Serif" font-size="10.00">xpath_parser::parse</text>
<text xml:space="preserve" text-anchor="middle" x="674.62" y="-195.91" font-family="Helvetica,sans-Serif" font-size="10.00">_function</text>
</a>
</g>
</g>
<!-- Node1&#45;&gt;Node18 -->
<g id="edge25_Node000001_Node000018" class="edge">
<title>Node1&#45;&gt;Node18</title>
<g id="a_edge25_Node000001_Node000018"><a xlink:title=" ">
<path fill="none" stroke="#63b8ff" d="M960.96,-267.56C942,-254.55 913.85,-237.32 886.5,-228.41 833.46,-211.11 769.34,-206.23 725.84,-205.13"/>
<polygon fill="#63b8ff" stroke="#63b8ff" points="958.8,-270.32 969,-273.22 962.83,-264.6 958.8,-270.32"/>
</a>
</g>
</g>
<!-- Node8&#45;&gt;Node8 -->
<g id="edge23_Node000008_Node000008" class="edge">
<title>Node8&#45;&gt;Node8</title>
<g id="a_edge23_Node000008_Node000008"><a xlink:title=" ">
<path fill="none" stroke="#63b8ff" d="M849.04,-281.11C844.88,-284.89 836.58,-287.41 824.12,-287.41 801.35,-287.41 792.45,-278.99 797.44,-269.85"/>
<polygon fill="#63b8ff" stroke="#63b8ff" points="852.48,-281.77 850.58,-271.34 845.56,-280.68 852.48,-281.77"/>
</a>
</g>
</g>
<!-- Node9 -->
<g id="Node000009" class="node">
<title>Node9</title>
<g id="a_Node000009"><a xlink:href="structxpath__parser.html#a7738e256011ca842dc2a0beba78562ed" target="_top" xlink:title=" ">
<polygon fill="white" stroke="#666666" points="725.75,-271.41 623.5,-271.41 623.5,-239.41 725.75,-239.41 725.75,-271.41"/>
<text xml:space="preserve" text-anchor="start" x="631.5" y="-257.91" font-family="Helvetica,sans-Serif" font-size="10.00">xpath_parser::parse</text>
<text xml:space="preserve" text-anchor="middle" x="674.62" y="-245.91" font-family="Helvetica,sans-Serif" font-size="10.00">_expression</text>
</a>
</g>
</g>
<!-- Node8&#45;&gt;Node9 -->
<g id="edge8_Node000008_Node000009" class="edge">
<title>Node8&#45;&gt;Node9</title>
<g id="a_edge8_Node000008_Node000009"><a xlink:title=" ">
<path fill="none" stroke="#63b8ff" d="M761.28,-254.24C749.61,-254.4 737.53,-254.57 726.25,-254.72"/>
<polygon fill="#63b8ff" stroke="#63b8ff" points="761.31,-257.74 771.26,-254.11 761.22,-250.74 761.31,-257.74"/>
</a>
</g>
</g>
<!-- Node10 -->
<g id="Node000010" class="node">
<title>Node10</title>
<g id="a_Node000010"><a xlink:href="structxpath__parser.html#aa3fe0e7d23131b3943d8248646ecd362" target="_top" xlink:title=" ">
<polygon fill="white" stroke="#666666" points="575.5,-259.41 473.25,-259.41 473.25,-239.41 575.5,-239.41 575.5,-259.41"/>
<text xml:space="preserve" text-anchor="middle" x="524.38" y="-245.91" font-family="Helvetica,sans-Serif" font-size="10.00">xpath_parser::parse</text>
</a>
</g>
</g>
<!-- Node9&#45;&gt;Node10 -->
<g id="edge9_Node000009_Node000010" class="edge">
<title>Node9&#45;&gt;Node10</title>
<g id="a_edge9_Node000009_Node000010"><a xlink:title=" ">
<path fill="none" stroke="#63b8ff" d="M611.71,-252.9C599.73,-252.41 587.31,-251.91 575.75,-251.44"/>
<polygon fill="#63b8ff" stroke="#63b8ff" points="611.37,-256.39 621.51,-253.3 611.66,-249.39 611.37,-256.39"/>
</a>
</g>
</g>
<!-- Node9&#45;&gt;Node12 -->
<g id="edge11_Node000009_Node000012" class="edge">
<title>Node9&#45;&gt;Node12</title>
<g id="a_edge11_Node000009_Node000012"><a xlink:title=" ">
<path fill="none" stroke="#63b8ff" d="M612.42,-236.95C604.07,-234.64 595.6,-232.39 587.5,-230.41 530.03,-216.32 463.27,-203.4 418.68,-195.26"/>
<polygon fill="#63b8ff" stroke="#63b8ff" points="611.23,-240.25 621.81,-239.6 613.14,-233.52 611.23,-240.25"/>
</a>
</g>
</g>
<!-- Node9&#45;&gt;Node13 -->
<g id="edge15_Node000009_Node000013" class="edge">
<title>Node9&#45;&gt;Node13</title>
<g id="a_edge15_Node000009_Node000013"><a xlink:title=" ">
<path fill="none" stroke="#63b8ff" d="M611.78,-256.55C603.63,-257.58 595.37,-258.6 587.5,-259.41 425.73,-275.94 234.53,-283.07 135.54,-288.99"/>
<polygon fill="#63b8ff" stroke="#63b8ff" points="612.2,-260.02 621.68,-255.28 611.31,-253.08 612.2,-260.02"/>
</a>
</g>
</g>
<!-- Node9&#45;&gt;Node14 -->
<g id="edge16_Node000009_Node000014" class="edge">
<title>Node9&#45;&gt;Node14</title>
<g id="a_edge16_Node000009_Node000014"><a xlink:title=" ">
<path fill="none" stroke="#63b8ff" d="M627.74,-233.2C626.3,-232.28 624.88,-231.35 623.5,-230.41 605.61,-218.11 605.46,-209.59 587.5,-197.41 580.16,-192.43 571.88,-187.83 563.81,-183.79"/>
<polygon fill="#63b8ff" stroke="#63b8ff" points="625.89,-236.17 636.29,-238.21 629.43,-230.13 625.89,-236.17"/>
</a>
</g>
</g>
<!-- Node9&#45;&gt;Node15 -->
<g id="edge18_Node000009_Node000015" class="edge">
<title>Node9&#45;&gt;Node15</title>
<g id="a_edge18_Node000009_Node000015"><a xlink:title=" ">
<path fill="none" stroke="#63b8ff" d="M625.27,-232.21C624.66,-231.62 624.07,-231.02 623.5,-230.41 594.75,-199.44 611.65,-177.08 587.5,-142.41 574.28,-123.43 553.72,-106.16 539.91,-95.73"/>
<polygon fill="#63b8ff" stroke="#63b8ff" points="622.75,-234.68 632.74,-238.21 627.13,-229.22 622.75,-234.68"/>
</a>
</g>
</g>
<!-- Node11 -->
<g id="Node000011" class="node">
<title>Node11</title>
<g id="a_Node000011"><a xlink:href="structxpath__parser.html#aad773be8b591966eb535018fcc2b6a66" target="_top" xlink:title=" ">
<polygon fill="white" stroke="#666666" points="418.5,-259.41 316.25,-259.41 316.25,-239.41 418.5,-239.41 418.5,-259.41"/>
<text xml:space="preserve" text-anchor="middle" x="367.38" y="-245.91" font-family="Helvetica,sans-Serif" font-size="10.00">xpath_parser::parse</text>
</a>
</g>
</g>
<!-- Node10&#45;&gt;Node11 -->
<g id="edge10_Node000010_Node000011" class="edge">
<title>Node10&#45;&gt;Node11</title>
<g id="a_edge10_Node000010_Node000011"><a xlink:title=" ">
<path fill="none" stroke="#63b8ff" d="M461.85,-249.41C447.63,-249.41 432.67,-249.41 418.98,-249.41"/>
<polygon fill="#63b8ff" stroke="#63b8ff" points="461.54,-252.91 471.54,-249.41 461.54,-245.91 461.54,-252.91"/>
</a>
</g>
</g>
<!-- Node12&#45;&gt;Node13 -->
<g id="edge12_Node000012_Node000013" class="edge">
<title>Node12&#45;&gt;Node13</title>
<g id="a_edge12_Node000012_Node000013"><a xlink:title=" ">
<path fill="none" stroke="#63b8ff" d="M311.15,-206.81C253.99,-227.92 165.82,-260.5 113.02,-280"/>
<polygon fill="#63b8ff" stroke="#63b8ff" points="312.21,-210.15 320.38,-203.4 309.79,-203.58 312.21,-210.15"/>
</a>
</g>
</g>
<!-- Node13&#45;&gt;Node8 -->
<g id="edge14_Node000013_Node000008" class="edge">
<title>Node13&#45;&gt;Node8</title>
<g id="a_edge14_Node000013_Node000008"><a xlink:title=" ">
<path fill="none" stroke="#63b8ff" d="M145.62,-315.34C205.43,-328.39 290.66,-343.41 366.38,-343.41 525.38,-343.41 525.38,-343.41 525.38,-343.41 626.09,-343.41 738.09,-295.64 791.47,-269.7"/>
<polygon fill="#63b8ff" stroke="#63b8ff" points="146.38,-311.92 135.86,-313.17 144.86,-318.76 146.38,-311.92"/>
</a>
</g>
</g>
<!-- Node13&#45;&gt;Node9 -->
<g id="edge13_Node000013_Node000009" class="edge">
<title>Node13&#45;&gt;Node9</title>
<g id="a_edge13_Node000013_Node000009"><a xlink:title=" ">
<path fill="none" stroke="#63b8ff" d="M146.94,-300.71C248.68,-300.53 431.74,-293.33 587.5,-277.41 600.44,-276.08 614.4,-274.18 627.24,-271.9"/>
<polygon fill="#63b8ff" stroke="#63b8ff" points="147.06,-297.21 137.05,-300.7 147.05,-304.21 147.06,-297.21"/>
</a>
</g>
</g>
<!-- Node14&#45;&gt;Node12 -->
<g id="edge17_Node000014_Node000012" class="edge">
<title>Node14&#45;&gt;Node12</title>
<g id="a_edge17_Node000014_Node000012"><a xlink:title=" ">
<path fill="none" stroke="#63b8ff" d="M459.68,-175.21C446.11,-176.88 431.96,-178.61 418.96,-180.2"/>
<polygon fill="#63b8ff" stroke="#63b8ff" points="459.9,-178.71 469.4,-174.02 459.05,-171.76 459.9,-178.71"/>
</a>
</g>
</g>
<!-- Node15&#45;&gt;Node16 -->
<g id="edge19_Node000015_Node000016" class="edge">
<title>Node15&#45;&gt;Node16</title>
<g id="a_edge19_Node000015_Node000016"><a xlink:title=" ">
<path fill="none" stroke="#63b8ff" d="M449.53,-85.41C441.52,-85.41 433.46,-85.41 425.7,-85.41"/>
<polygon fill="#63b8ff" stroke="#63b8ff" points="449.26,-88.91 459.26,-85.41 449.26,-81.91 449.26,-88.91"/>
</a>
</g>
</g>
<!-- Node16&#45;&gt;Node13 -->
<g id="edge22_Node000016_Node000013" class="edge">
<title>Node16&#45;&gt;Node13</title>
<g id="a_edge22_Node000016_Node000013"><a xlink:title=" ">
<path fill="none" stroke="#63b8ff" d="M332.07,-108.01C292.81,-134.06 226.76,-178.43 171.25,-218.41 142.56,-239.07 110.19,-263.94 89.61,-279.95"/>
<polygon fill="#63b8ff" stroke="#63b8ff" points="333.78,-111.07 340.19,-102.63 329.92,-105.24 333.78,-111.07"/>
</a>
</g>
</g>
<!-- Node16&#45;&gt;Node17 -->
<g id="edge20_Node000016_Node000017" class="edge">
<title>Node16&#45;&gt;Node17</title>
<g id="a_edge20_Node000016_Node000017"><a xlink:title=" ">
<path fill="none" stroke="#63b8ff" d="M297.72,-85.41C289.66,-85.41 281.55,-85.41 273.81,-85.41"/>
<polygon fill="#63b8ff" stroke="#63b8ff" points="297.52,-88.91 307.52,-85.41 297.52,-81.91 297.52,-88.91"/>
</a>
</g>
</g>
<!-- Node17&#45;&gt;Node13 -->
<g id="edge21_Node000017_Node000013" class="edge">
<title>Node17&#45;&gt;Node13</title>
<g id="a_edge21_Node000017_Node000013"><a xlink:title=" ">
<path fill="none" stroke="#63b8ff" d="M195.56,-109.61C187.41,-117.79 178.61,-127.19 171.25,-136.41 131.93,-185.67 94.16,-250.49 77.51,-280.23"/>
<polygon fill="#63b8ff" stroke="#63b8ff" points="197.97,-112.15 202.67,-102.65 193.07,-107.15 197.97,-112.15"/>
</a>
</g>
</g>
<!-- Node18&#45;&gt;Node14 -->
<g id="edge26_Node000018_Node000014" class="edge">
<title>Node18&#45;&gt;Node14</title>
<g id="a_edge26_Node000018_Node000014"><a xlink:title=" ">
<path fill="none" stroke="#63b8ff" d="M612.21,-189.66C600.77,-186.73 588.91,-183.69 577.77,-180.84"/>
<polygon fill="#63b8ff" stroke="#63b8ff" points="611,-192.97 621.55,-192.06 612.74,-186.19 611,-192.97"/>
</a>
</g>
</g>
</g>
</svg>

<g id="navigator" transform="translate(0 0)" fill="#404254">
  <rect fill="#f2f5e9" fill-opacity="0.5" stroke="#606060" stroke-width=".5" x="0" y="0" width="60" height="60"/>
  <use id="zoomplus" xlink:href="#zoomPlus" x="17" y="9" onmousedown="handleZoom(evt,'in')"/>
  <use id="zoomminus" xlink:href="#zoomMin" x="42" y="9" onmousedown="handleZoom(evt,'out')"/>
  <use id="reset" xlink:href="#resetDef" x="30" y="36" onmousedown="handleReset()"/>
   <use id="arrowup" xlink:href="#arrowUp" x="0" y="0" onmousedown="handlePan(0,-1)"/>
  <use id="arrowright" xlink:href="#arrowRight" x="0" y="0" onmousedown="handlePan(1,0)"/>
  <use id="arrowdown" xlink:href="#arrowDown" x="0" y="0" onmousedown="handlePan(0,1)"/>
  <use id="arrowleft" xlink:href="#arrowLeft" x="0" y="0" onmousedown="handlePan(-1,0)"/>
</g>
<svg viewBox="0 0 15 15" width="100%" height="30px" preserveAspectRatio="xMaxYMin meet">
 <g id="arrow_out" transform="scale(0.3 0.3)">
  <a xlink:href="structxpath__parser_a8a71f339a0386657a48b59acb3405acc_icgraph_org.svg" target="_base">
   <rect id="button" ry="5" rx="5" y="6" x="6" height="38" width="38"
        fill="#f2f5e9" fill-opacity="0.5" stroke="#606060" stroke-width="1.0"/>
   <path id="arrow"
     d="M 11.500037,31.436501 C 11.940474,20.09759 22.043105,11.32322 32.158766,21.979434 L 37.068811,17.246167 C 37.068811,17.246167 37.088388,32 37.088388,32 L 22.160133,31.978069 C 22.160133,31.978069 26.997745,27.140456 26.997745,27.140456 C 18.528582,18.264221 13.291696,25.230495 11.500037,31.436501 z"
     style="fill:#404040;"/>
  </a>
 </g>
</svg>

<style type='text/css'>
<![CDATA[
[data-mouse-over-selected='false'] { opacity: 0.7; }
[data-mouse-over-selected='true']  { opacity: 1.0; }
]]>
</style>
<script type="application/ecmascript"><![CDATA[
document.addEventListener('DOMContentLoaded', (event) => {
  highlightEdges();
  highlightAdjacentNodes();
});
]]></script>
</svg>
