<?xml version="1.0" encoding="UTF-8" standalone="no"?>
<!DOCTYPE svg PUBLIC "-//W3C//DTD SVG 1.1//EN"
 "http://www.w3.org/Graphics/SVG/1.1/DTD/svg11.dtd">
<!-- Generated by graphviz version 14.1.2 (20260124.0452)
 -->
<!-- Title: xml_stream_chunk&lt; T &gt; Pages: 1 -->
<svg width="173pt" height="102pt"
 viewBox="0.00 0.00 173.00 102.00" xmlns="http://www.w3.org/2000/svg" xmlns:xlink="http://www.w3.org/1999/xlink">
<g id="graph0" class="graph" transform="scale(1 1) rotate(0) translate(4 98)">
<title>xml_stream_chunk&lt; T &gt;</title>
<!-- Node1 -->
<g id="Node000001" class="node">
<title>Node1</title>
<g id="a_Node000001"><a xlink:title=" ">
<polygon fill="#999999" stroke="#666666" points="121.75,-20 0,-20 0,0 121.75,0 121.75,-20"/>
<text xml:space="preserve" text-anchor="middle" x="60.88" y="-6.5" font-family="Helvetica,sans-Serif" font-size="10.00">xml_stream_chunk&lt; T &gt;</text>
</a>
</g>
</g>
<!-- Node2 -->
<g id="Node000002" class="node">
<title>Node2</title>
<g id="a_Node000002"><a xlink:href="structxml__stream__chunk.html" target="_top" xlink:title=" ">
<polygon fill="white" stroke="#666666" points="121.75,-94 0,-94 0,-74 121.75,-74 121.75,-94"/>
<text xml:space="preserve" text-anchor="middle" x="60.88" y="-80.5" font-family="Helvetica,sans-Serif" font-size="10.00">xml_stream_chunk&lt; T &gt;</text>
</a>
</g>
</g>
<!-- Node2&#45;&gt;Node1 -->
<g id="edge1_Node000001_Node000002" class="edge">
<title>Node2&#45;&gt;Node1</title>
<g id="a_edge1_Node000001_Node000002"><a xlink:title=" ">
<path fill="none" stroke="#9a32cd" stroke-dasharray="5,2" d="M60.88,-62.18C60.88,-48.29 60.88,-30.71 60.88,-20.19"/>
<polygon fill="#9a32cd" stroke="#9a32cd" points="57.38,-62.07 60.88,-72.07 64.38,-62.07 57.38,-62.07"/>
</a>
</g>
<text xml:space="preserve" text-anchor="start" x="63.88" y="-43.5" font-family="Helvetica,sans-Serif" font-size="10.00" fill="grey">next</text>
</g>
<!-- Node2&#45;&gt;Node2 -->
<g id="edge2_Node000002_Node000002" class="edge">
<title>Node2&#45;&gt;Node2</title>
<g id="a_edge2_Node000002_Node000002"><a xlink:title=" ">
<path fill="none" stroke="#9a32cd" stroke-dasharray="5,2" d="M133.27,-88.68C137.33,-87.54 139.75,-85.98 139.75,-84 139.75,-80.57 132.51,-78.41 122.06,-77.52"/>
<polygon fill="#9a32cd" stroke="#9a32cd" points="132.87,-85.2 123.55,-90.24 133.98,-92.11 132.87,-85.2"/>
</a>
</g>
<text xml:space="preserve" text-anchor="start" x="142.75" y="-80.5" font-family="Helvetica,sans-Serif" font-size="10.00" fill="grey">next</text>
</g>
</g>
</svg>
