<?xml version="1.0" encoding="UTF-8" standalone="no"?>
<!DOCTYPE svg PUBLIC "-//W3C//DTD SVG 1.1//EN"
 "http://www.w3.org/Graphics/SVG/1.1/DTD/svg11.dtd">
<!-- Generated by graphviz version 14.1.2 (20260124.0452)
 -->
<!-- Title: xpath_parser::parse_path_or_unary_expression Pages: 1 -->
<svg width="1231pt" height="1222pt"
 viewBox="0.00 0.00 1231.00 1222.00" xmlns="http://www.w3.org/2000/svg" xmlns:xlink="http://www.w3.org/1999/xlink">
<g id="graph0" class="graph" transform="scale(1 1) rotate(0) translate(4 1218)">
<title>xpath_parser::parse_path_or_unary_expression</title>
<!-- Node1 -->
<g id="Node000001" class="node">
<title>Node1</title>
<g id="a_Node000001"><a xlink:title=" ">
<polygon fill="#999999" stroke="#666666" points="135.25,-498 0,-498 0,-466 135.25,-466 135.25,-498"/>
<text xml:space="preserve" text-anchor="start" x="8" y="-484.5" font-family="Helvetica,sans-Serif" font-size="10.00">xpath_parser::parse</text>
<text xml:space="preserve" text-anchor="middle" x="67.62" y="-472.5" font-family="Helvetica,sans-Serif" font-size="10.00">_path_or_unary_expression</text>
</a>
</g>
</g>
<!-- Node2 -->
<g id="Node000002" class="node">
<title>Node2</title>
<g id="a_Node000002"><a xlink:href="structxpath__parser.html#a8a71f339a0386657a48b59acb3405acc" target="_top" xlink:title=" ">
<polygon fill="white" stroke="#666666" points="1077.25,-483 952.5,-483 952.5,-463 1077.25,-463 1077.25,-483"/>
<text xml:space="preserve" text-anchor="middle" x="1014.88" y="-469.5" font-family="Helvetica,sans-Serif" font-size="10.00">xpath_parser::alloc_node</text>
</a>
</g>
</g>
<!-- Node1&#45;&gt;Node2 -->
<g id="edge1_Node000001_Node000002" class="edge">
<title>Node1&#45;&gt;Node2</title>
<g id="a_edge1_Node000001_Node000002"><a xlink:title=" ">
<path fill="none" stroke="#63b8ff" d="M135.57,-472.09C195.8,-464.03 286.81,-454 366.38,-454 366.38,-454 366.38,-454 688.75,-454 775.61,-454 875.29,-460.84 941.14,-466.31"/>
<polygon fill="#63b8ff" stroke="#63b8ff" points="940.45,-469.77 950.71,-467.12 941.04,-462.79 940.45,-469.77"/>
</a>
</g>
</g>
<!-- Node3 -->
<g id="Node000003" class="node">
<title>Node3</title>
<g id="a_Node000003"><a xlink:href="structxpath__parser.html#a0a96a8f5a16b2171a83b6ae3bb2ccbba" target="_top" xlink:title=" ">
<polygon fill="white" stroke="#666666" points="1217,-729 1119.25,-729 1119.25,-709 1217,-709 1217,-729"/>
<text xml:space="preserve" text-anchor="middle" x="1168.12" y="-715.5" font-family="Helvetica,sans-Serif" font-size="10.00">xpath_parser::error</text>
</a>
</g>
</g>
<!-- Node1&#45;&gt;Node3 -->
<g id="edge2_Node000001_Node000003" class="edge">
<title>Node1&#45;&gt;Node3</title>
<g id="a_edge2_Node000001_Node000003"><a xlink:title=" ">
<path fill="none" stroke="#63b8ff" d="M69.94,-498.25C76.64,-577.58 109.06,-923.84 171.25,-1009 229.58,-1088.87 267.47,-1116 366.38,-1116 366.38,-1116 366.38,-1116 853.25,-1116 964.56,-1116 1007.62,-1090.84 1077.25,-1004 1142.93,-922.1 1160.93,-791.61 1165.59,-740.51"/>
<polygon fill="#63b8ff" stroke="#63b8ff" points="1169.06,-741.07 1166.39,-730.82 1162.08,-740.5 1169.06,-741.07"/>
</a>
</g>
</g>
<!-- Node4 -->
<g id="Node000004" class="node">
<title>Node4</title>
<g id="a_Node000004"><a xlink:href="structxpath__parser.html#a7738e256011ca842dc2a0beba78562ed" target="_top" xlink:title=" ">
<polygon fill="white" stroke="#666666" points="738.88,-1032 636.62,-1032 636.62,-1000 738.88,-1000 738.88,-1032"/>
<text xml:space="preserve" text-anchor="start" x="644.62" y="-1018.5" font-family="Helvetica,sans-Serif" font-size="10.00">xpath_parser::parse</text>
<text xml:space="preserve" text-anchor="middle" x="687.75" y="-1006.5" font-family="Helvetica,sans-Serif" font-size="10.00">_expression</text>
</a>
</g>
</g>
<!-- Node1&#45;&gt;Node4 -->
<g id="edge3_Node000001_Node000004" class="edge">
<title>Node1&#45;&gt;Node4</title>
<g id="a_edge3_Node000001_Node000004"><a xlink:title=" ">
<path fill="none" stroke="#63b8ff" d="M76.86,-498.31C110.73,-570.3 247.67,-858.98 461.25,-980 511.16,-1008.28 577.19,-1013.14 624.88,-1013.71"/>
<polygon fill="#63b8ff" stroke="#63b8ff" points="624.75,-1017.21 634.77,-1013.77 624.79,-1010.21 624.75,-1017.21"/>
</a>
</g>
</g>
<!-- Node11 -->
<g id="Node000011" class="node">
<title>Node11</title>
<g id="a_Node000011"><a xlink:href="classxpath__ast__node.html#a2c12e34a46db2a3d0052f9f38bcf1bb6" target="_top" xlink:title=" ">
<polygon fill="white" stroke="#666666" points="1075.38,-136 954.38,-136 954.38,-116 1075.38,-116 1075.38,-136"/>
<text xml:space="preserve" text-anchor="middle" x="1014.88" y="-122.5" font-family="Helvetica,sans-Serif" font-size="10.00">xpath_ast_node::rettype</text>
</a>
</g>
</g>
<!-- Node1&#45;&gt;Node11 -->
<g id="edge61_Node000001_Node000011" class="edge">
<title>Node1&#45;&gt;Node11</title>
<g id="a_edge61_Node000001_Node000011"><a xlink:title=" ">
<path fill="none" stroke="#63b8ff" d="M70.52,-465.69C81.27,-381.49 142.36,0 366.38,0 366.38,0 366.38,0 688.75,0 808.5,0 937.31,-75.23 989.68,-109.43"/>
<polygon fill="#63b8ff" stroke="#63b8ff" points="987.58,-112.24 997.85,-114.85 991.45,-106.41 987.58,-112.24"/>
</a>
</g>
</g>
<!-- Node12 -->
<g id="Node000012" class="node">
<title>Node12</title>
<g id="a_Node000012"><a xlink:href="structxpath__parser.html#a61a425d990a56d5db8cd14405835a5b6" target="_top" xlink:title=" ">
<polygon fill="white" stroke="#666666" points="418.5,-546 316.25,-546 316.25,-514 418.5,-514 418.5,-546"/>
<text xml:space="preserve" text-anchor="start" x="324.25" y="-532.5" font-family="Helvetica,sans-Serif" font-size="10.00">xpath_parser::parse</text>
<text xml:space="preserve" text-anchor="middle" x="367.38" y="-520.5" font-family="Helvetica,sans-Serif" font-size="10.00">_filter_expression</text>
</a>
</g>
</g>
<!-- Node1&#45;&gt;Node12 -->
<g id="edge18_Node000001_Node000012" class="edge">
<title>Node1&#45;&gt;Node12</title>
<g id="a_edge18_Node000001_Node000012"><a xlink:title=" ">
<path fill="none" stroke="#63b8ff" d="M135.45,-492.77C186.19,-500.95 255.43,-512.11 304.82,-520.08"/>
<polygon fill="#63b8ff" stroke="#63b8ff" points="304.06,-523.5 314.49,-521.64 305.18,-516.59 304.06,-523.5"/>
</a>
</g>
</g>
<!-- Node24 -->
<g id="Node000024" class="node">
<title>Node24</title>
<g id="a_Node000024"><a xlink:href="structxpath__parser.html#af14e396ddb7817998ec221eec6b781ab" target="_top" xlink:title=" ">
<polygon fill="white" stroke="#666666" points="273.5,-388 171.25,-388 171.25,-356 273.5,-356 273.5,-388"/>
<text xml:space="preserve" text-anchor="start" x="179.25" y="-374.5" font-family="Helvetica,sans-Serif" font-size="10.00">xpath_parser::parse</text>
<text xml:space="preserve" text-anchor="middle" x="222.38" y="-362.5" font-family="Helvetica,sans-Serif" font-size="10.00">_location_path</text>
</a>
</g>
</g>
<!-- Node1&#45;&gt;Node24 -->
<g id="edge42_Node000001_Node000024" class="edge">
<title>Node1&#45;&gt;Node24</title>
<g id="a_edge42_Node000001_Node000024"><a xlink:title=" ">
<path fill="none" stroke="#63b8ff" d="M88.14,-465.62C108.39,-448.9 141.25,-422.56 171.25,-402 174.96,-399.46 178.88,-396.9 182.84,-394.41"/>
<polygon fill="#63b8ff" stroke="#63b8ff" points="184.66,-397.4 191.34,-389.17 180.99,-391.43 184.66,-397.4"/>
</a>
</g>
</g>
<!-- Node25 -->
<g id="Node000025" class="node">
<title>Node25</title>
<g id="a_Node000025"><a xlink:href="structxpath__parser.html#aebea559423376001c89b19216dfc3012" target="_top" xlink:title=" ">
<polygon fill="white" stroke="#666666" points="425.25,-388 309.5,-388 309.5,-356 425.25,-356 425.25,-388"/>
<text xml:space="preserve" text-anchor="start" x="317.5" y="-374.5" font-family="Helvetica,sans-Serif" font-size="10.00">xpath_parser::parse</text>
<text xml:space="preserve" text-anchor="middle" x="367.38" y="-362.5" font-family="Helvetica,sans-Serif" font-size="10.00">_relative_location_path</text>
</a>
</g>
</g>
<!-- Node1&#45;&gt;Node25 -->
<g id="edge60_Node000001_Node000025" class="edge">
<title>Node1&#45;&gt;Node25</title>
<g id="a_edge60_Node000001_Node000025"><a xlink:title=" ">
<path fill="none" stroke="#63b8ff" d="M107.42,-465.56C126.54,-457.59 150.01,-448.04 171.25,-440 216.18,-422.99 267.49,-405.17 306.22,-392.04"/>
<polygon fill="#63b8ff" stroke="#63b8ff" points="307.01,-395.47 315.36,-388.95 304.77,-388.84 307.01,-395.47"/>
</a>
</g>
</g>
<!-- Node28 -->
<g id="Node000028" class="node">
<title>Node28</title>
<g id="a_Node000028"><a xlink:href="structxpath__parser.html#a7b4555d7bfdb90971333c46963d5d791" target="_top" xlink:title=" ">
<polygon fill="white" stroke="#666666" points="738.88,-60 636.62,-60 636.62,-28 738.88,-28 738.88,-60"/>
<text xml:space="preserve" text-anchor="start" x="644.62" y="-46.5" font-family="Helvetica,sans-Serif" font-size="10.00">xpath_parser::parse</text>
<text xml:space="preserve" text-anchor="middle" x="687.75" y="-34.5" font-family="Helvetica,sans-Serif" font-size="10.00">_node_test_type</text>
</a>
</g>
</g>
<!-- Node1&#45;&gt;Node28 -->
<g id="edge59_Node000001_Node000028" class="edge">
<title>Node1&#45;&gt;Node28</title>
<g id="a_edge59_Node000001_Node000028"><a xlink:title=" ">
<path fill="none" stroke="#63b8ff" d="M73.91,-465.67C93.85,-406.81 170.6,-204.2 309.5,-112 405.95,-47.98 545.5,-39.56 625.05,-40.75"/>
<polygon fill="#63b8ff" stroke="#63b8ff" points="624.75,-44.24 634.82,-40.95 624.9,-37.24 624.75,-44.24"/>
</a>
</g>
</g>
<!-- Node4&#45;&gt;Node1 -->
<g id="edge17_Node000004_Node000001" class="edge">
<title>Node4&#45;&gt;Node1</title>
<g id="a_edge17_Node000004_Node000001"><a xlink:title=" ">
<path fill="none" stroke="#63b8ff" d="M636.28,-1027.59C588.18,-1031.78 515.28,-1028.61 461.25,-998 251.07,-878.91 115.11,-597.45 78.56,-508.96"/>
<polygon fill="#63b8ff" stroke="#63b8ff" points="81.88,-507.83 74.89,-499.86 75.38,-510.45 81.88,-507.83"/>
</a>
</g>
</g>
<!-- Node5 -->
<g id="Node000005" class="node">
<title>Node5</title>
<g id="a_Node000005"><a xlink:href="structxpath__parser.html#a6c99a4ff18254581f34ec6b715885d99" target="_top" xlink:title=" ">
<polygon fill="white" stroke="#666666" points="1073.12,-944 956.62,-944 956.62,-924 1073.12,-924 1073.12,-944"/>
<text xml:space="preserve" text-anchor="middle" x="1014.88" y="-930.5" font-family="Helvetica,sans-Serif" font-size="10.00">xpath_parser::error_rec</text>
</a>
</g>
</g>
<!-- Node4&#45;&gt;Node5 -->
<g id="edge4_Node000004_Node000005" class="edge">
<title>Node4&#45;&gt;Node5</title>
<g id="a_edge4_Node000004_Node000005"><a xlink:title=" ">
<path fill="none" stroke="#63b8ff" d="M739.19,-1014.53C786.11,-1011.96 857.45,-1004.96 916.5,-986 942.67,-977.59 970.09,-962.28 989.13,-950.44"/>
<polygon fill="#63b8ff" stroke="#63b8ff" points="990.96,-953.43 997.52,-945.1 987.2,-947.52 990.96,-953.43"/>
</a>
</g>
</g>
<!-- Node6 -->
<g id="Node000006" class="node">
<title>Node6</title>
<g id="a_Node000006"><a xlink:href="structxpath__parser.html#adcd54e9b508acfe1f040ee7a54b88f2a" target="_top" xlink:title=" ">
<polygon fill="white" stroke="#666666" points="903.38,-1070 801.12,-1070 801.12,-1038 903.38,-1038 903.38,-1070"/>
<text xml:space="preserve" text-anchor="start" x="809.12" y="-1056.5" font-family="Helvetica,sans-Serif" font-size="10.00">xpath_parser::parse</text>
<text xml:space="preserve" text-anchor="middle" x="852.25" y="-1044.5" font-family="Helvetica,sans-Serif" font-size="10.00">_expression_rec</text>
</a>
</g>
</g>
<!-- Node4&#45;&gt;Node6 -->
<g id="edge6_Node000004_Node000006" class="edge">
<title>Node4&#45;&gt;Node6</title>
<g id="a_edge6_Node000004_Node000006"><a xlink:title=" ">
<path fill="none" stroke="#63b8ff" d="M739.28,-1027.82C755.32,-1031.57 773.25,-1035.76 789.97,-1039.67"/>
<polygon fill="#63b8ff" stroke="#63b8ff" points="788.75,-1042.98 799.28,-1041.85 790.34,-1036.16 788.75,-1042.98"/>
</a>
</g>
</g>
<!-- Node5&#45;&gt;Node3 -->
<g id="edge5_Node000005_Node000003" class="edge">
<title>Node5&#45;&gt;Node3</title>
<g id="a_edge5_Node000005_Node000003"><a xlink:title=" ">
<path fill="none" stroke="#63b8ff" d="M1023.17,-923.63C1046.88,-889.93 1122.03,-783.1 1153.28,-738.68"/>
<polygon fill="#63b8ff" stroke="#63b8ff" points="1156.14,-740.7 1159.03,-730.5 1150.42,-736.67 1156.14,-740.7"/>
</a>
</g>
</g>
<!-- Node6&#45;&gt;Node1 -->
<g id="edge15_Node000006_Node000001" class="edge">
<title>Node6&#45;&gt;Node1</title>
<g id="a_edge15_Node000006_Node000001"><a xlink:title=" ">
<path fill="none" stroke="#63b8ff" d="M800.77,-1058.02C736.75,-1062.76 622.94,-1070 525.38,-1070 366.38,-1070 366.38,-1070 366.38,-1070 111.9,-1070 74.85,-626.23 69.51,-509.73"/>
<polygon fill="#63b8ff" stroke="#63b8ff" points="73.02,-509.7 69.11,-499.85 66.02,-509.99 73.02,-509.7"/>
</a>
</g>
</g>
<!-- Node6&#45;&gt;Node2 -->
<g id="edge7_Node000006_Node000002" class="edge">
<title>Node6&#45;&gt;Node2</title>
<g id="a_edge7_Node000006_Node000002"><a xlink:title=" ">
<path fill="none" stroke="#63b8ff" d="M857.8,-1037.55C880.59,-955.1 982.32,-587.15 1007.98,-494.32"/>
<polygon fill="#63b8ff" stroke="#63b8ff" points="1011.33,-495.35 1010.62,-484.78 1004.58,-493.48 1011.33,-495.35"/>
</a>
</g>
</g>
<!-- Node6&#45;&gt;Node3 -->
<g id="edge8_Node000006_Node000003" class="edge">
<title>Node6&#45;&gt;Node3</title>
<g id="a_edge8_Node000006_Node000003"><a xlink:title=" ">
<path fill="none" stroke="#63b8ff" d="M903.41,-1043.22C953.65,-1030 1030.09,-1002.93 1077.25,-953 1136.13,-890.67 1157.61,-785.69 1164.39,-740.62"/>
<polygon fill="#63b8ff" stroke="#63b8ff" points="1167.83,-741.23 1165.75,-730.85 1160.9,-740.27 1167.83,-741.23"/>
</a>
</g>
</g>
<!-- Node6&#45;&gt;Node5 -->
<g id="edge9_Node000006_Node000005" class="edge">
<title>Node6&#45;&gt;Node5</title>
<g id="a_edge9_Node000006_Node000005"><a xlink:title=" ">
<path fill="none" stroke="#63b8ff" d="M892.74,-1037.54C900.85,-1033.54 909.15,-1028.97 916.5,-1024 947.62,-1002.96 978.62,-972.18 997.02,-952.62"/>
<polygon fill="#63b8ff" stroke="#63b8ff" points="999.51,-955.09 1003.74,-945.37 994.37,-950.33 999.51,-955.09"/>
</a>
</g>
</g>
<!-- Node6&#45;&gt;Node6 -->
<g id="edge14_Node000006_Node000006" class="edge">
<title>Node6&#45;&gt;Node6</title>
<g id="a_edge14_Node000006_Node000006"><a xlink:title=" ">
<path fill="none" stroke="#63b8ff" d="M823.22,-1070.44C817.8,-1079.58 827.48,-1088 852.25,-1088 865.8,-1088 874.83,-1085.48 879.35,-1081.71"/>
<polygon fill="#63b8ff" stroke="#63b8ff" points="882.79,-1082.38 881.03,-1071.93 875.89,-1081.2 882.79,-1082.38"/>
</a>
</g>
</g>
<!-- Node7 -->
<g id="Node000007" class="node">
<title>Node7</title>
<g id="a_Node000007"><a xlink:href="structxpath__parser_1_1binary__op__t.html#a723f5f2b66df47b4ac74455cb39b9544" target="_top" xlink:title=" ">
<polygon fill="white" stroke="#666666" points="1067.12,-1176 962.62,-1176 962.62,-1144 1067.12,-1144 1067.12,-1176"/>
<text xml:space="preserve" text-anchor="start" x="970.62" y="-1162.5" font-family="Helvetica,sans-Serif" font-size="10.00">xpath_parser::binary</text>
<text xml:space="preserve" text-anchor="middle" x="1014.88" y="-1150.5" font-family="Helvetica,sans-Serif" font-size="10.00">_op_t::parse</text>
</a>
</g>
</g>
<!-- Node6&#45;&gt;Node7 -->
<g id="edge10_Node000006_Node000007" class="edge">
<title>Node6&#45;&gt;Node7</title>
<g id="a_edge10_Node000006_Node000007"><a xlink:title=" ">
<path fill="none" stroke="#63b8ff" d="M878,-1070.33C905.23,-1088.3 949.19,-1117.31 979.71,-1137.45"/>
<polygon fill="#63b8ff" stroke="#63b8ff" points="977.56,-1140.23 987.84,-1142.82 981.42,-1134.39 977.56,-1140.23"/>
</a>
</g>
</g>
<!-- Node6&#45;&gt;Node11 -->
<g id="edge16_Node000006_Node000011" class="edge">
<title>Node6&#45;&gt;Node11</title>
<g id="a_edge16_Node000006_Node000011"><a xlink:title=" ">
<path fill="none" stroke="#63b8ff" d="M857.68,-1037.52C869.05,-994.71 899.54,-876.29 916.5,-776 940.51,-634.01 931.24,-596.43 952.5,-454 969.84,-337.81 998.22,-199.89 1009.27,-147.57"/>
<polygon fill="#63b8ff" stroke="#63b8ff" points="1012.67,-148.42 1011.32,-137.91 1005.82,-146.97 1012.67,-148.42"/>
</a>
</g>
</g>
<!-- Node8 -->
<g id="Node000008" class="node">
<title>Node8</title>
<g id="a_Node000008"><a xlink:href="structxpath__parser_1_1binary__op__t.html#a18cac63911120c27f5ee842b1e6afe35" target="_top" xlink:title=" ">
<polygon fill="white" stroke="#666666" points="1220.38,-1176 1115.88,-1176 1115.88,-1144 1220.38,-1144 1220.38,-1176"/>
<text xml:space="preserve" text-anchor="start" x="1123.88" y="-1162.5" font-family="Helvetica,sans-Serif" font-size="10.00">xpath_parser::binary</text>
<text xml:space="preserve" text-anchor="middle" x="1168.12" y="-1150.5" font-family="Helvetica,sans-Serif" font-size="10.00">_op_t::binary_op_t</text>
</a>
</g>
</g>
<!-- Node7&#45;&gt;Node8 -->
<g id="edge11_Node000007_Node000008" class="edge">
<title>Node7&#45;&gt;Node8</title>
<g id="a_edge11_Node000007_Node000008"><a xlink:title=" ">
<path fill="none" stroke="#63b8ff" d="M1067.5,-1160C1079.24,-1160 1091.84,-1160 1104,-1160"/>
<polygon fill="#63b8ff" stroke="#63b8ff" points="1103.96,-1163.5 1113.96,-1160 1103.96,-1156.5 1103.96,-1163.5"/>
</a>
</g>
</g>
<!-- Node9 -->
<g id="Node000009" class="node">
<title>Node9</title>
<g id="a_Node000009"><a xlink:href="classxpath__lexer.html#a9a398feb578c697be7067f6f8d178fc9" target="_top" xlink:title=" ">
<polygon fill="white" stroke="#666666" points="1223,-1126 1113.25,-1126 1113.25,-1106 1223,-1106 1223,-1126"/>
<text xml:space="preserve" text-anchor="middle" x="1168.12" y="-1112.5" font-family="Helvetica,sans-Serif" font-size="10.00">xpath_lexer::contents</text>
</a>
</g>
</g>
<!-- Node7&#45;&gt;Node9 -->
<g id="edge12_Node000007_Node000009" class="edge">
<title>Node7&#45;&gt;Node9</title>
<g id="a_edge12_Node000007_Node000009"><a xlink:title=" ">
<path fill="none" stroke="#63b8ff" d="M1067.5,-1144.98C1084.77,-1139.96 1103.9,-1134.39 1120.75,-1129.49"/>
<polygon fill="#63b8ff" stroke="#63b8ff" points="1121.37,-1132.96 1129.99,-1126.8 1119.41,-1126.24 1121.37,-1132.96"/>
</a>
</g>
</g>
<!-- Node10 -->
<g id="Node000010" class="node">
<title>Node10</title>
<g id="a_Node000010"><a xlink:href="classxpath__lexer.html#a47425d5012741aecfd898306651439d0" target="_top" xlink:title=" ">
<polygon fill="white" stroke="#666666" points="1219.25,-1214 1117,-1214 1117,-1194 1219.25,-1194 1219.25,-1214"/>
<text xml:space="preserve" text-anchor="middle" x="1168.12" y="-1200.5" font-family="Helvetica,sans-Serif" font-size="10.00">xpath_lexer::current</text>
</a>
</g>
</g>
<!-- Node7&#45;&gt;Node10 -->
<g id="edge13_Node000007_Node000010" class="edge">
<title>Node7&#45;&gt;Node10</title>
<g id="a_edge13_Node000007_Node000010"><a xlink:title=" ">
<path fill="none" stroke="#63b8ff" d="M1067.5,-1175.02C1084.77,-1180.04 1103.9,-1185.61 1120.75,-1190.51"/>
<polygon fill="#63b8ff" stroke="#63b8ff" points="1119.41,-1193.76 1129.99,-1193.2 1121.37,-1187.04 1119.41,-1193.76"/>
</a>
</g>
</g>
<!-- Node12&#45;&gt;Node2 -->
<g id="edge19_Node000012_Node000002" class="edge">
<title>Node12&#45;&gt;Node2</title>
<g id="a_edge19_Node000012_Node000002"><a xlink:title=" ">
<path fill="none" stroke="#63b8ff" d="M418.9,-521.71C432.61,-519.64 447.48,-517.57 461.25,-516 632.83,-496.42 835.43,-483.16 941.23,-476.98"/>
<polygon fill="#63b8ff" stroke="#63b8ff" points="941.11,-480.49 950.89,-476.42 940.71,-473.51 941.11,-480.49"/>
</a>
</g>
</g>
<!-- Node12&#45;&gt;Node3 -->
<g id="edge20_Node000012_Node000003" class="edge">
<title>Node12&#45;&gt;Node3</title>
<g id="a_edge20_Node000012_Node000003"><a xlink:title=" ">
<path fill="none" stroke="#63b8ff" d="M418.83,-530C481.61,-530 592.09,-530 686.75,-530 686.75,-530 686.75,-530 853.25,-530 984.14,-530 1107.41,-652.12 1150.74,-700.03"/>
<polygon fill="#63b8ff" stroke="#63b8ff" points="1148.06,-702.28 1157.31,-707.44 1153.29,-697.64 1148.06,-702.28"/>
</a>
</g>
</g>
<!-- Node12&#45;&gt;Node4 -->
<g id="edge22_Node000012_Node000004" class="edge">
<title>Node12&#45;&gt;Node4</title>
<g id="a_edge22_Node000012_Node000004"><a xlink:title=" ">
<path fill="none" stroke="#63b8ff" d="M369.75,-546.19C375.99,-616.09 403.9,-891.11 461.25,-952 483.63,-975.76 566.5,-994.87 625.27,-1005.83"/>
<polygon fill="#63b8ff" stroke="#63b8ff" points="624.35,-1009.22 634.82,-1007.58 625.61,-1002.34 624.35,-1009.22"/>
</a>
</g>
</g>
<!-- Node12&#45;&gt;Node5 -->
<g id="edge21_Node000012_Node000005" class="edge">
<title>Node12&#45;&gt;Node5</title>
<g id="a_edge21_Node000012_Node000005"><a xlink:title=" ">
<path fill="none" stroke="#63b8ff" d="M370.01,-546.16C377.02,-612.27 406.72,-861.12 461.25,-914 514.14,-965.29 550.22,-940.4 623.5,-948 753.03,-961.43 786.61,-957.29 916.5,-948 925.81,-947.33 935.57,-946.32 945.18,-945.12"/>
<polygon fill="#63b8ff" stroke="#63b8ff" points="945.39,-948.63 954.85,-943.85 944.48,-941.69 945.39,-948.63"/>
</a>
</g>
</g>
<!-- Node12&#45;&gt;Node11 -->
<g id="edge41_Node000012_Node000011" class="edge">
<title>Node12&#45;&gt;Node11</title>
<g id="a_edge41_Node000012_Node000011"><a xlink:title=" ">
<path fill="none" stroke="#63b8ff" d="M374.14,-513.69C386.36,-480.7 417.4,-404.77 461.25,-353 577.87,-215.3 616.21,-167.24 788,-112 847.09,-93 919.26,-102.78 965.87,-113.06"/>
<polygon fill="#63b8ff" stroke="#63b8ff" points="964.85,-116.41 975.39,-115.25 966.43,-109.59 964.85,-116.41"/>
</a>
</g>
</g>
<!-- Node13 -->
<g id="Node000013" class="node">
<title>Node13</title>
<g id="a_Node000013"><a xlink:href="structxpath__parser.html#a49cbc6141508ace22ab4b8bd8ddf965a" target="_top" xlink:title=" ">
<polygon fill="white" stroke="#666666" points="577.38,-748 471.38,-748 471.38,-716 577.38,-716 577.38,-748"/>
<text xml:space="preserve" text-anchor="start" x="479.38" y="-734.5" font-family="Helvetica,sans-Serif" font-size="10.00">xpath_parser::parse</text>
<text xml:space="preserve" text-anchor="middle" x="524.38" y="-722.5" font-family="Helvetica,sans-Serif" font-size="10.00">_primary_expression</text>
</a>
</g>
</g>
<!-- Node12&#45;&gt;Node13 -->
<g id="edge23_Node000012_Node000013" class="edge">
<title>Node12&#45;&gt;Node13</title>
<g id="a_edge23_Node000012_Node000013"><a xlink:title=" ">
<path fill="none" stroke="#63b8ff" d="M380.8,-546.19C407.72,-581.28 471.63,-664.57 503.95,-706.68"/>
<polygon fill="#63b8ff" stroke="#63b8ff" points="501.11,-708.73 509.97,-714.53 506.66,-704.47 501.11,-708.73"/>
</a>
</g>
</g>
<!-- Node13&#45;&gt;Node2 -->
<g id="edge24_Node000013_Node000002" class="edge">
<title>Node13&#45;&gt;Node2</title>
<g id="a_edge24_Node000013_Node000002"><a xlink:title=" ">
<path fill="none" stroke="#63b8ff" d="M556.3,-715.6C644.69,-668.74 897.57,-534.66 984.28,-488.69"/>
<polygon fill="#63b8ff" stroke="#63b8ff" points="985.7,-491.9 992.9,-484.12 982.43,-485.71 985.7,-491.9"/>
</a>
</g>
</g>
<!-- Node13&#45;&gt;Node3 -->
<g id="edge30_Node000013_Node000003" class="edge">
<title>Node13&#45;&gt;Node3</title>
<g id="a_edge30_Node000013_Node000003"><a xlink:title=" ">
<path fill="none" stroke="#63b8ff" d="M577.62,-730.94C695.87,-728.55 983.38,-722.72 1107.95,-720.2"/>
<polygon fill="#63b8ff" stroke="#63b8ff" points="1107.69,-723.7 1117.62,-720 1107.55,-716.71 1107.69,-723.7"/>
</a>
</g>
</g>
<!-- Node13&#45;&gt;Node4 -->
<g id="edge34_Node000013_Node000004" class="edge">
<title>Node13&#45;&gt;Node4</title>
<g id="a_edge34_Node000013_Node000004"><a xlink:title=" ">
<path fill="none" stroke="#63b8ff" d="M533.68,-748.36C550.15,-780.61 588.4,-854.51 623.5,-915 638.6,-941.02 656.96,-970.07 670,-990.32"/>
<polygon fill="#63b8ff" stroke="#63b8ff" points="666.92,-992 675.29,-998.49 672.79,-988.19 666.92,-992"/>
</a>
</g>
</g>
<!-- Node13&#45;&gt;Node5 -->
<g id="edge32_Node000013_Node000005" class="edge">
<title>Node13&#45;&gt;Node5</title>
<g id="a_edge32_Node000013_Node000005"><a xlink:title=" ">
<path fill="none" stroke="#63b8ff" d="M544.48,-748.3C563.44,-763.75 593.87,-786.68 623.5,-801 677.12,-826.92 695.43,-820.39 752,-839 832.51,-865.48 925.51,-900.23 976.17,-919.51"/>
<polygon fill="#63b8ff" stroke="#63b8ff" points="974.91,-922.78 985.51,-923.07 977.41,-916.23 974.91,-922.78"/>
</a>
</g>
</g>
<!-- Node14 -->
<g id="Node000014" class="node">
<title>Node14</title>
<g id="a_Node000014"><a xlink:href="structxpath__parser.html#a876c0c06a8cdc623926c8788e8d43fc3" target="_top" xlink:title=" ">
<polygon fill="white" stroke="#666666" points="737,-590 638.5,-590 638.5,-558 737,-558 737,-590"/>
<text xml:space="preserve" text-anchor="start" x="646.5" y="-576.5" font-family="Helvetica,sans-Serif" font-size="10.00">xpath_parser::alloc</text>
<text xml:space="preserve" text-anchor="middle" x="687.75" y="-564.5" font-family="Helvetica,sans-Serif" font-size="10.00">_string</text>
</a>
</g>
</g>
<!-- Node13&#45;&gt;Node14 -->
<g id="edge25_Node000013_Node000014" class="edge">
<title>Node13&#45;&gt;Node14</title>
<g id="a_edge25_Node000013_Node000014"><a xlink:title=" ">
<path fill="none" stroke="#63b8ff" d="M534.29,-715.87C549.55,-689.48 583,-636.74 623.5,-604 627.12,-601.08 631.06,-598.36 635.16,-595.85"/>
<polygon fill="#63b8ff" stroke="#63b8ff" points="636.59,-599.06 643.6,-591.11 633.16,-592.96 636.59,-599.06"/>
</a>
</g>
</g>
<!-- Node15 -->
<g id="Node000015" class="node">
<title>Node15</title>
<g id="a_Node000015"><a xlink:href="pugixml_8cpp.html#a1a1fca8011d76ef218f46957cf16cd1e" target="_top" xlink:title=" ">
<polygon fill="white" stroke="#666666" points="752,-792 623.5,-792 623.5,-760 752,-760 752,-792"/>
<text xml:space="preserve" text-anchor="start" x="631.5" y="-778.5" font-family="Helvetica,sans-Serif" font-size="10.00">convert_string_to_number</text>
<text xml:space="preserve" text-anchor="middle" x="687.75" y="-766.5" font-family="Helvetica,sans-Serif" font-size="10.00">_scratch</text>
</a>
</g>
</g>
<!-- Node13&#45;&gt;Node15 -->
<g id="edge26_Node000013_Node000015" class="edge">
<title>Node13&#45;&gt;Node15</title>
<g id="a_edge26_Node000013_Node000015"><a xlink:title=" ">
<path fill="none" stroke="#63b8ff" d="M577.77,-746.29C589.8,-749.57 602.79,-753.11 615.47,-756.56"/>
<polygon fill="#63b8ff" stroke="#63b8ff" points="614.46,-759.92 625.03,-759.17 616.3,-753.16 614.46,-759.92"/>
</a>
</g>
</g>
<!-- Node19 -->
<g id="Node000019" class="node">
<title>Node19</title>
<g id="a_Node000019"><a xlink:href="structxpath__parser.html#a253554c10701671465d3eab96e464c93" target="_top" xlink:title=" ">
<polygon fill="white" stroke="#666666" points="748.62,-906 626.88,-906 626.88,-886 748.62,-886 748.62,-906"/>
<text xml:space="preserve" text-anchor="middle" x="687.75" y="-892.5" font-family="Helvetica,sans-Serif" font-size="10.00">xpath_parser::error_oom</text>
</a>
</g>
</g>
<!-- Node13&#45;&gt;Node19 -->
<g id="edge31_Node000013_Node000019" class="edge">
<title>Node13&#45;&gt;Node19</title>
<g id="a_edge31_Node000013_Node000019"><a xlink:title=" ">
<path fill="none" stroke="#63b8ff" d="M531.89,-748.18C544.79,-778.16 576.48,-842.44 623.5,-877 625.27,-878.3 627.12,-879.51 629.04,-880.64"/>
<polygon fill="#63b8ff" stroke="#63b8ff" points="627.23,-883.64 637.74,-884.95 630.34,-877.37 627.23,-883.64"/>
</a>
</g>
</g>
<!-- Node20 -->
<g id="Node000020" class="node">
<title>Node20</title>
<g id="a_Node000020"><a xlink:href="pugixml_8cpp.html#a046d19e3dedb7e154882fe5ad4647e25" target="_top" xlink:title=" ">
<polygon fill="white" stroke="#666666" points="740.75,-868 634.75,-868 634.75,-848 740.75,-848 740.75,-868"/>
<text xml:space="preserve" text-anchor="middle" x="687.75" y="-854.5" font-family="Helvetica,sans-Serif" font-size="10.00">get_variable_scratch</text>
</a>
</g>
</g>
<!-- Node13&#45;&gt;Node20 -->
<g id="edge33_Node000013_Node000020" class="edge">
<title>Node13&#45;&gt;Node20</title>
<g id="a_edge33_Node000013_Node000020"><a xlink:title=" ">
<path fill="none" stroke="#63b8ff" d="M537.27,-748.3C554.19,-770.45 587.21,-810.03 623.5,-834 628.71,-837.44 634.48,-840.48 640.35,-843.15"/>
<polygon fill="#63b8ff" stroke="#63b8ff" points="638.96,-846.36 649.54,-846.96 641.65,-839.9 638.96,-846.36"/>
</a>
</g>
</g>
<!-- Node21 -->
<g id="Node000021" class="node">
<title>Node21</title>
<g id="a_Node000021"><a xlink:href="structxpath__parser.html#a9a68f1cbf9900714aefe00059a66a22d" target="_top" xlink:title=" ">
<polygon fill="white" stroke="#666666" points="903.38,-691 801.12,-691 801.12,-659 903.38,-659 903.38,-691"/>
<text xml:space="preserve" text-anchor="start" x="809.12" y="-677.5" font-family="Helvetica,sans-Serif" font-size="10.00">xpath_parser::parse</text>
<text xml:space="preserve" text-anchor="middle" x="852.25" y="-665.5" font-family="Helvetica,sans-Serif" font-size="10.00">_function</text>
</a>
</g>
</g>
<!-- Node13&#45;&gt;Node21 -->
<g id="edge35_Node000013_Node000021" class="edge">
<title>Node13&#45;&gt;Node21</title>
<g id="a_edge35_Node000013_Node000021"><a xlink:title=" ">
<path fill="none" stroke="#63b8ff" d="M577.73,-722.84C635.49,-712.74 728.34,-696.5 789.58,-685.79"/>
<polygon fill="#63b8ff" stroke="#63b8ff" points="789.89,-689.29 799.14,-684.11 788.69,-682.39 789.89,-689.29"/>
</a>
</g>
</g>
<!-- Node22 -->
<g id="Node000022" class="node">
<title>Node22</title>
<g id="a_Node000022"><a xlink:href="classxpath__ast__node.html#a2764184d076834284eb3ff3182b845cc" target="_top" xlink:title=" ">
<polygon fill="white" stroke="#666666" points="752,-426 623.5,-426 623.5,-406 752,-406 752,-426"/>
<text xml:space="preserve" text-anchor="middle" x="687.75" y="-412.5" font-family="Helvetica,sans-Serif" font-size="10.00">xpath_ast_node::set_next</text>
</a>
</g>
</g>
<!-- Node13&#45;&gt;Node22 -->
<g id="edge38_Node000013_Node000022" class="edge">
<title>Node13&#45;&gt;Node22</title>
<g id="a_edge38_Node000013_Node000022"><a xlink:title=" ">
<path fill="none" stroke="#63b8ff" d="M533.6,-715.9C560.58,-663.07 646.35,-495.11 676.31,-436.45"/>
<polygon fill="#63b8ff" stroke="#63b8ff" points="679.4,-438.09 680.83,-427.59 673.16,-434.91 679.4,-438.09"/>
</a>
</g>
</g>
<!-- Node16 -->
<g id="Node000016" class="node">
<title>Node16</title>
<g id="a_Node000016"><a xlink:href="pugixml_8cpp.html#ae6299198941714e42acefb1481370646" target="_top" xlink:title=" ">
<polygon fill="white" stroke="#666666" points="916.5,-767 788,-767 788,-747 916.5,-747 916.5,-767"/>
<text xml:space="preserve" text-anchor="middle" x="852.25" y="-753.5" font-family="Helvetica,sans-Serif" font-size="10.00">convert_string_to_number</text>
</a>
</g>
</g>
<!-- Node15&#45;&gt;Node16 -->
<g id="edge27_Node000015_Node000016" class="edge">
<title>Node15&#45;&gt;Node16</title>
<g id="a_edge27_Node000015_Node000016"><a xlink:title=" ">
<path fill="none" stroke="#63b8ff" d="M752.04,-768.6C759.98,-767.67 768.15,-766.72 776.24,-765.77"/>
<polygon fill="#63b8ff" stroke="#63b8ff" points="776.57,-769.26 786.09,-764.62 775.75,-762.3 776.57,-769.26"/>
</a>
</g>
</g>
<!-- Node17 -->
<g id="Node000017" class="node">
<title>Node17</title>
<g id="a_Node000017"><a xlink:href="pugixml_8cpp.html#a0bf9a61bcf9eb4888ef36942e5cd8d05" target="_top" xlink:title=" ">
<polygon fill="white" stroke="#666666" points="1076.12,-817 953.62,-817 953.62,-785 1076.12,-785 1076.12,-817"/>
<text xml:space="preserve" text-anchor="start" x="961.62" y="-803.5" font-family="Helvetica,sans-Serif" font-size="10.00">check_string_to_number</text>
<text xml:space="preserve" text-anchor="middle" x="1014.88" y="-791.5" font-family="Helvetica,sans-Serif" font-size="10.00">_format</text>
</a>
</g>
</g>
<!-- Node16&#45;&gt;Node17 -->
<g id="edge28_Node000016_Node000017" class="edge">
<title>Node16&#45;&gt;Node17</title>
<g id="a_edge28_Node000016_Node000017"><a xlink:title=" ">
<path fill="none" stroke="#63b8ff" d="M891.32,-767.43C906.76,-771.66 925.11,-776.69 942.86,-781.55"/>
<polygon fill="#63b8ff" stroke="#63b8ff" points="941.76,-784.87 952.33,-784.14 943.61,-778.12 941.76,-784.87"/>
</a>
</g>
</g>
<!-- Node18 -->
<g id="Node000018" class="node">
<title>Node18</title>
<g id="a_Node000018"><a xlink:href="pugixml_8cpp.html#a2f4c7e7ca3a98b25cbfa5d98dd21b300" target="_top" xlink:title=" ">
<polygon fill="white" stroke="#666666" points="1041.25,-767 988.5,-767 988.5,-747 1041.25,-747 1041.25,-767"/>
<text xml:space="preserve" text-anchor="middle" x="1014.88" y="-753.5" font-family="Helvetica,sans-Serif" font-size="10.00">gen_nan</text>
</a>
</g>
</g>
<!-- Node16&#45;&gt;Node18 -->
<g id="edge29_Node000016_Node000018" class="edge">
<title>Node16&#45;&gt;Node18</title>
<g id="a_edge29_Node000016_Node000018"><a xlink:title=" ">
<path fill="none" stroke="#63b8ff" d="M916.73,-757C937.07,-757 958.9,-757 976.71,-757"/>
<polygon fill="#63b8ff" stroke="#63b8ff" points="976.54,-760.5 986.54,-757 976.54,-753.5 976.54,-760.5"/>
</a>
</g>
</g>
<!-- Node21&#45;&gt;Node2 -->
<g id="edge36_Node000021_Node000002" class="edge">
<title>Node21&#45;&gt;Node2</title>
<g id="a_edge36_Node000021_Node000002"><a xlink:title=" ">
<path fill="none" stroke="#63b8ff" d="M882.94,-658.5C894.27,-651.31 906.79,-642.19 916.5,-632 957.48,-589.02 989.74,-525.98 1004.72,-493.71"/>
<polygon fill="#63b8ff" stroke="#63b8ff" points="1007.87,-495.23 1008.82,-484.68 1001.5,-492.34 1007.87,-495.23"/>
</a>
</g>
</g>
<!-- Node21&#45;&gt;Node3 -->
<g id="edge37_Node000021_Node000003" class="edge">
<title>Node21&#45;&gt;Node3</title>
<g id="a_edge37_Node000021_Node000003"><a xlink:title=" ">
<path fill="none" stroke="#63b8ff" d="M903.56,-681.43C948.98,-687.3 1017.64,-696.37 1077.25,-705 1087.13,-706.43 1097.61,-708.01 1107.79,-709.57"/>
<polygon fill="#63b8ff" stroke="#63b8ff" points="1107.2,-713.02 1117.62,-711.09 1108.27,-706.11 1107.2,-713.02"/>
</a>
</g>
</g>
<!-- Node23 -->
<g id="Node000023" class="node">
<title>Node23</title>
<g id="a_Node000023"><a xlink:href="classxpath__ast__node.html#ae5a059e41b41505bef1f7dbebda8070b" target="_top" xlink:title=" ">
<polygon fill="white" stroke="#666666" points="909.75,-398 794.75,-398 794.75,-366 909.75,-366 909.75,-398"/>
<text xml:space="preserve" text-anchor="start" x="802.75" y="-384.5" font-family="Helvetica,sans-Serif" font-size="10.00">xpath_ast_node::xpath</text>
<text xml:space="preserve" text-anchor="middle" x="852.25" y="-372.5" font-family="Helvetica,sans-Serif" font-size="10.00">_ast_node</text>
</a>
</g>
</g>
<!-- Node22&#45;&gt;Node23 -->
<g id="edge39_Node000022_Node000023" class="edge">
<title>Node22&#45;&gt;Node23</title>
<g id="a_edge39_Node000022_Node000023"><a xlink:title=" ">
<path fill="none" stroke="#63b8ff" d="M738.83,-405.52C752.88,-402.58 768.39,-399.34 783.28,-396.22"/>
<polygon fill="#63b8ff" stroke="#63b8ff" points="783.97,-399.65 793.04,-394.18 782.54,-392.8 783.97,-399.65"/>
</a>
</g>
</g>
<!-- Node23&#45;&gt;Node23 -->
<g id="edge40_Node000023_Node000023" class="edge">
<title>Node23&#45;&gt;Node23</title>
<g id="a_edge40_Node000023_Node000023"><a xlink:title=" ">
<path fill="none" stroke="#63b8ff" d="M823.22,-398.44C817.8,-407.58 827.48,-416 852.25,-416 865.8,-416 874.83,-413.48 879.35,-409.71"/>
<polygon fill="#63b8ff" stroke="#63b8ff" points="882.79,-410.38 881.03,-399.93 875.89,-409.2 882.79,-410.38"/>
</a>
</g>
</g>
<!-- Node24&#45;&gt;Node2 -->
<g id="edge43_Node000024_Node000002" class="edge">
<title>Node24&#45;&gt;Node2</title>
<g id="a_edge43_Node000024_Node000002"><a xlink:title=" ">
<path fill="none" stroke="#63b8ff" d="M232.4,-355.86C264.34,-301.13 377.89,-126 523.38,-126 523.38,-126 523.38,-126 688.75,-126 806.65,-126 837.67,-174.34 916.5,-262 968.57,-319.91 997.48,-410.45 1008.55,-451.49"/>
<polygon fill="#63b8ff" stroke="#63b8ff" points="1005.14,-452.28 1011.04,-461.08 1011.92,-450.53 1005.14,-452.28"/>
</a>
</g>
</g>
<!-- Node24&#45;&gt;Node25 -->
<g id="edge44_Node000024_Node000025" class="edge">
<title>Node24&#45;&gt;Node25</title>
<g id="a_edge44_Node000024_Node000025"><a xlink:title=" ">
<path fill="none" stroke="#63b8ff" d="M273.79,-372C281.55,-372 289.68,-372 297.75,-372"/>
<polygon fill="#63b8ff" stroke="#63b8ff" points="297.58,-375.5 307.58,-372 297.58,-368.5 297.58,-375.5"/>
</a>
</g>
</g>
<!-- Node25&#45;&gt;Node2 -->
<g id="edge45_Node000025_Node000002" class="edge">
<title>Node25&#45;&gt;Node2</title>
<g id="a_edge45_Node000025_Node000002"><a xlink:title=" ">
<path fill="none" stroke="#63b8ff" d="M395.03,-355.67C440.1,-329.13 535.11,-277.7 623.5,-259 679.37,-247.18 695.87,-248.47 752,-259 829.1,-273.47 855.65,-273.49 916.5,-323 960.68,-358.95 991.55,-420.42 1005.49,-452.36"/>
<polygon fill="#63b8ff" stroke="#63b8ff" points="1002.15,-453.45 1009.27,-461.29 1008.6,-450.72 1002.15,-453.45"/>
</a>
</g>
</g>
<!-- Node25&#45;&gt;Node5 -->
<g id="edge46_Node000025_Node000005" class="edge">
<title>Node25&#45;&gt;Node5</title>
<g id="a_edge46_Node000025_Node000005"><a xlink:title=" ">
<path fill="none" stroke="#63b8ff" d="M377,-388.29C389.64,-412.87 412.99,-461.23 425.25,-505 455.75,-613.95 409.98,-656.15 461.25,-757 506.86,-846.73 531.2,-874.84 623.5,-915 679.33,-939.29 848.71,-938.86 945.02,-936.43"/>
<polygon fill="#63b8ff" stroke="#63b8ff" points="944.97,-939.94 954.87,-936.17 944.78,-932.94 944.97,-939.94"/>
</a>
</g>
</g>
<!-- Node26 -->
<g id="Node000026" class="node">
<title>Node26</title>
<g id="a_Node000026"><a xlink:href="structxpath__parser.html#a0b226e2905970c868ab6a80d76da3a95" target="_top" xlink:title=" ">
<polygon fill="white" stroke="#666666" points="587.5,-382 461.25,-382 461.25,-362 587.5,-362 587.5,-382"/>
<text xml:space="preserve" text-anchor="middle" x="524.38" y="-368.5" font-family="Helvetica,sans-Serif" font-size="10.00">xpath_parser::parse_step</text>
</a>
</g>
</g>
<!-- Node25&#45;&gt;Node26 -->
<g id="edge47_Node000025_Node000026" class="edge">
<title>Node25&#45;&gt;Node26</title>
<g id="a_edge47_Node000025_Node000026"><a xlink:title=" ">
<path fill="none" stroke="#63b8ff" d="M425.65,-372C433.45,-372 441.54,-372 449.57,-372"/>
<polygon fill="#63b8ff" stroke="#63b8ff" points="449.35,-375.5 459.35,-372 449.35,-368.5 449.35,-375.5"/>
</a>
</g>
</g>
<!-- Node26&#45;&gt;Node2 -->
<g id="edge48_Node000026_Node000002" class="edge">
<title>Node26&#45;&gt;Node2</title>
<g id="a_edge48_Node000026_Node000002"><a xlink:title=" ">
<path fill="none" stroke="#63b8ff" d="M555.4,-361.55C623.82,-339.63 794.82,-295.71 916.5,-357 957.99,-377.9 988.59,-425.19 1003.57,-452.5"/>
<polygon fill="#63b8ff" stroke="#63b8ff" points="1000.39,-453.98 1008.15,-461.19 1006.58,-450.71 1000.39,-453.98"/>
</a>
</g>
</g>
<!-- Node26&#45;&gt;Node3 -->
<g id="edge50_Node000026_Node000003" class="edge">
<title>Node26&#45;&gt;Node3</title>
<g id="a_edge50_Node000026_Node000003"><a xlink:title=" ">
<path fill="none" stroke="#63b8ff" d="M535.89,-361.78C548.58,-349.26 570.34,-327.24 587.5,-307 604.74,-286.66 599.65,-270.93 623.5,-259 742.72,-199.39 801.32,-255.91 916.5,-323 996.14,-369.39 1024.68,-378.3 1077.25,-454 1132.46,-533.5 1156.17,-649.76 1163.97,-697.42"/>
<polygon fill="#63b8ff" stroke="#63b8ff" points="1160.5,-697.87 1165.5,-707.22 1167.42,-696.8 1160.5,-697.87"/>
</a>
</g>
</g>
<!-- Node26&#45;&gt;Node4 -->
<g id="edge53_Node000026_Node000004" class="edge">
<title>Node26&#45;&gt;Node4</title>
<g id="a_edge53_Node000026_Node000004"><a xlink:title=" ">
<path fill="none" stroke="#63b8ff" d="M527.35,-382.41C535.16,-423.57 564.54,-578.91 587.5,-707 604.05,-799.35 589.97,-827.38 623.5,-915 634.06,-942.61 652.53,-970.85 666.8,-990.43"/>
<polygon fill="#63b8ff" stroke="#63b8ff" points="663.92,-992.43 672.7,-998.35 669.53,-988.24 663.92,-992.43"/>
</a>
</g>
</g>
<!-- Node26&#45;&gt;Node5 -->
<g id="edge51_Node000026_Node000005" class="edge">
<title>Node26&#45;&gt;Node5</title>
<g id="a_edge51_Node000026_Node000005"><a xlink:title=" ">
<path fill="none" stroke="#63b8ff" d="M528.38,-382.11C538.45,-415.13 573.27,-522.07 623.5,-599 682.21,-688.93 703.78,-709.37 788,-776 839.51,-816.75 862.93,-810.99 916.5,-849 945.73,-869.74 976.39,-897.68 995.31,-915.77"/>
<polygon fill="#63b8ff" stroke="#63b8ff" points="992.66,-918.07 1002.28,-922.5 997.52,-913.04 992.66,-918.07"/>
</a>
</g>
</g>
<!-- Node26&#45;&gt;Node11 -->
<g id="edge55_Node000026_Node000011" class="edge">
<title>Node26&#45;&gt;Node11</title>
<g id="a_edge55_Node000026_Node000011"><a xlink:title=" ">
<path fill="none" stroke="#63b8ff" d="M531.63,-361.65C545.46,-339.61 580.81,-287.71 623.5,-259 723.37,-191.84 860.39,-155.53 942.72,-138.52"/>
<polygon fill="#63b8ff" stroke="#63b8ff" points="943.38,-141.96 952.49,-136.54 941.99,-135.1 943.38,-141.96"/>
</a>
</g>
</g>
<!-- Node26&#45;&gt;Node14 -->
<g id="edge49_Node000026_Node000014" class="edge">
<title>Node26&#45;&gt;Node14</title>
<g id="a_edge49_Node000026_Node000014"><a xlink:title=" ">
<path fill="none" stroke="#63b8ff" d="M533.6,-382.29C558.06,-412.92 630.89,-504.08 666.58,-548.76"/>
<polygon fill="#63b8ff" stroke="#63b8ff" points="663.68,-550.73 672.66,-556.36 669.15,-546.36 663.68,-550.73"/>
</a>
</g>
</g>
<!-- Node26&#45;&gt;Node22 -->
<g id="edge56_Node000026_Node000022" class="edge">
<title>Node26&#45;&gt;Node22</title>
<g id="a_edge56_Node000026_Node000022"><a xlink:title=" ">
<path fill="none" stroke="#63b8ff" d="M563.62,-382.43C585.75,-388.46 613.83,-396.12 637.58,-402.59"/>
<polygon fill="#63b8ff" stroke="#63b8ff" points="636.47,-405.92 647.04,-405.17 638.31,-399.17 636.47,-405.92"/>
</a>
</g>
</g>
<!-- Node27 -->
<g id="Node000027" class="node">
<title>Node27</title>
<g id="a_Node000027"><a xlink:href="structxpath__parser.html#ad67ec26e0e286ca1bb5144a79e3a3583" target="_top" xlink:title=" ">
<polygon fill="white" stroke="#666666" points="738.88,-300 636.62,-300 636.62,-268 738.88,-268 738.88,-300"/>
<text xml:space="preserve" text-anchor="start" x="644.62" y="-286.5" font-family="Helvetica,sans-Serif" font-size="10.00">xpath_parser::parse</text>
<text xml:space="preserve" text-anchor="middle" x="687.75" y="-274.5" font-family="Helvetica,sans-Serif" font-size="10.00">_axis_name</text>
</a>
</g>
</g>
<!-- Node26&#45;&gt;Node27 -->
<g id="edge52_Node000026_Node000027" class="edge">
<title>Node26&#45;&gt;Node27</title>
<g id="a_edge52_Node000026_Node000027"><a xlink:title=" ">
<path fill="none" stroke="#63b8ff" d="M541.78,-361.68C561.06,-349.7 594.14,-329.6 623.5,-314 628.93,-311.11 634.69,-308.2 640.43,-305.37"/>
<polygon fill="#63b8ff" stroke="#63b8ff" points="641.84,-308.58 649.31,-301.07 638.79,-302.28 641.84,-308.58"/>
</a>
</g>
</g>
<!-- Node26&#45;&gt;Node28 -->
<g id="edge54_Node000026_Node000028" class="edge">
<title>Node26&#45;&gt;Node28</title>
<g id="a_edge54_Node000026_Node000028"><a xlink:title=" ">
<path fill="none" stroke="#63b8ff" d="M530.38,-361.82C552.3,-317.27 640.22,-138.57 673.71,-70.51"/>
<polygon fill="#63b8ff" stroke="#63b8ff" points="676.83,-72.09 678.11,-61.57 670.55,-69 676.83,-72.09"/>
</a>
</g>
</g>
<!-- Node29 -->
<g id="Node000029" class="node">
<title>Node29</title>
<g id="a_Node000029"><a xlink:href="classxpath__ast__node.html#afe044146db852b7d4dbf188fd2ff6c75" target="_top" xlink:title=" ">
<polygon fill="white" stroke="#666666" points="740,-388 635.5,-388 635.5,-356 740,-356 740,-388"/>
<text xml:space="preserve" text-anchor="start" x="643.5" y="-374.5" font-family="Helvetica,sans-Serif" font-size="10.00">xpath_ast_node::set</text>
<text xml:space="preserve" text-anchor="middle" x="687.75" y="-362.5" font-family="Helvetica,sans-Serif" font-size="10.00">_right</text>
</a>
</g>
</g>
<!-- Node26&#45;&gt;Node29 -->
<g id="edge57_Node000026_Node000029" class="edge">
<title>Node26&#45;&gt;Node29</title>
<g id="a_edge57_Node000026_Node000029"><a xlink:title=" ">
<path fill="none" stroke="#63b8ff" d="M587.77,-372C599.66,-372 612.12,-372 624.03,-372"/>
<polygon fill="#63b8ff" stroke="#63b8ff" points="623.72,-375.5 633.72,-372 623.72,-368.5 623.72,-375.5"/>
</a>
</g>
</g>
<!-- Node29&#45;&gt;Node23 -->
<g id="edge58_Node000029_Node000023" class="edge">
<title>Node29&#45;&gt;Node23</title>
<g id="a_edge58_Node000029_Node000023"><a xlink:title=" ">
<path fill="none" stroke="#63b8ff" d="M740.17,-375.16C753.81,-376 768.76,-376.92 783.15,-377.81"/>
<polygon fill="#63b8ff" stroke="#63b8ff" points="782.82,-381.3 793.02,-378.42 783.25,-374.31 782.82,-381.3"/>
</a>
</g>
</g>
</g>
</svg>
