<?xml version="1.0" encoding="UTF-8" standalone="no"?>
<!DOCTYPE svg PUBLIC "-//W3C//DTD SVG 1.1//EN"
 "http://www.w3.org/Graphics/SVG/1.1/DTD/svg11.dtd">
<!-- Generated by graphviz version 14.1.2 (20260124.0452)
 -->
<!-- Title: xpath_parser Pages: 1 -->
<svg width="326pt" height="176pt"
 viewBox="0.00 0.00 326.00 176.00" xmlns="http://www.w3.org/2000/svg" xmlns:xlink="http://www.w3.org/1999/xlink">
<g id="graph0" class="graph" transform="scale(1 1) rotate(0) translate(4 172)">
<title>xpath_parser</title>
<!-- Node1 -->
<g id="Node000001" class="node">
<title>Node1</title>
<g id="a_Node000001"><a xlink:title=" ">
<polygon fill="#999999" stroke="#666666" points="179.62,-20 107.38,-20 107.38,0 179.62,0 179.62,-20"/>
<text xml:space="preserve" text-anchor="middle" x="143.5" y="-6.5" font-family="Helvetica,sans-Serif" font-size="10.00">xpath_parser</text>
</a>
</g>
</g>
<!-- Node2 -->
<g id="Node000002" class="node">
<title>Node2</title>
<g id="a_Node000002"><a xlink:href="structxpath__allocator.html" target="_top" xlink:title=" ">
<polygon fill="white" stroke="#666666" points="139.5,-94 57.5,-94 57.5,-74 139.5,-74 139.5,-94"/>
<text xml:space="preserve" text-anchor="middle" x="98.5" y="-80.5" font-family="Helvetica,sans-Serif" font-size="10.00">xpath_allocator</text>
</a>
</g>
</g>
<!-- Node2&#45;&gt;Node1 -->
<g id="edge1_Node000001_Node000002" class="edge">
<title>Node2&#45;&gt;Node1</title>
<g id="a_edge1_Node000001_Node000002"><a xlink:title=" ">
<path fill="none" stroke="#9a32cd" stroke-dasharray="5,2" d="M110.46,-63.86C119.29,-49.74 130.91,-31.14 137.76,-20.19"/>
<polygon fill="#9a32cd" stroke="#9a32cd" points="107.52,-61.97 105.19,-72.3 113.45,-65.68 107.52,-61.97"/>
</a>
</g>
<text xml:space="preserve" text-anchor="start" x="129.35" y="-43.5" font-family="Helvetica,sans-Serif" font-size="10.00" fill="grey">_alloc</text>
</g>
<!-- Node3 -->
<g id="Node000003" class="node">
<title>Node3</title>
<g id="a_Node000003"><a xlink:href="structxpath__memory__block.html" target="_top" xlink:title=" ">
<polygon fill="white" stroke="#666666" points="109,-168 0,-168 0,-148 109,-148 109,-168"/>
<text xml:space="preserve" text-anchor="middle" x="54.5" y="-154.5" font-family="Helvetica,sans-Serif" font-size="10.00">xpath_memory_block</text>
</a>
</g>
</g>
<!-- Node3&#45;&gt;Node2 -->
<g id="edge2_Node000002_Node000003" class="edge">
<title>Node3&#45;&gt;Node2</title>
<g id="a_edge2_Node000002_Node000003"><a xlink:title=" ">
<path fill="none" stroke="#9a32cd" stroke-dasharray="5,2" d="M66.2,-137.86C74.83,-123.74 86.19,-105.14 92.89,-94.19"/>
<polygon fill="#9a32cd" stroke="#9a32cd" points="63.27,-135.94 61.04,-146.3 69.24,-139.59 63.27,-135.94"/>
</a>
</g>
<text xml:space="preserve" text-anchor="start" x="84.73" y="-117.5" font-family="Helvetica,sans-Serif" font-size="10.00" fill="grey">_root</text>
</g>
<!-- Node3&#45;&gt;Node3 -->
<g id="edge3_Node000003_Node000003" class="edge">
<title>Node3&#45;&gt;Node3</title>
<g id="a_edge3_Node000003_Node000003"><a xlink:title=" ">
<path fill="none" stroke="#9a32cd" stroke-dasharray="5,2" d="M120.44,-162.85C124.54,-161.71 127,-160.09 127,-158 127,-154.39 119.62,-152.18 109.2,-151.39"/>
<polygon fill="#9a32cd" stroke="#9a32cd" points="120.03,-159.37 110.69,-164.37 121.11,-166.29 120.03,-159.37"/>
</a>
</g>
<text xml:space="preserve" text-anchor="start" x="130" y="-154.5" font-family="Helvetica,sans-Serif" font-size="10.00" fill="grey">next</text>
</g>
<!-- Node4 -->
<g id="Node000004" class="node">
<title>Node4</title>
<g id="a_Node000004"><a xlink:href="classxpath__lexer.html" target="_top" xlink:title=" ">
<polygon fill="white" stroke="#666666" points="241.62,-94 175.38,-94 175.38,-74 241.62,-74 241.62,-94"/>
<text xml:space="preserve" text-anchor="middle" x="208.5" y="-80.5" font-family="Helvetica,sans-Serif" font-size="10.00">xpath_lexer</text>
</a>
</g>
</g>
<!-- Node4&#45;&gt;Node1 -->
<g id="edge4_Node000001_Node000004" class="edge">
<title>Node4&#45;&gt;Node1</title>
<g id="a_edge4_Node000001_Node000004"><a xlink:title=" ">
<path fill="none" stroke="#9a32cd" stroke-dasharray="5,2" d="M192.33,-65.09C179.46,-50.84 161.97,-31.46 151.79,-20.19"/>
<polygon fill="#9a32cd" stroke="#9a32cd" points="189.69,-67.39 198.99,-72.46 194.89,-62.7 189.69,-67.39"/>
</a>
</g>
<text xml:space="preserve" text-anchor="start" x="186.73" y="-43.5" font-family="Helvetica,sans-Serif" font-size="10.00" fill="grey">_lexer</text>
</g>
<!-- Node5 -->
<g id="Node000005" class="node">
<title>Node5</title>
<g id="a_Node000005"><a xlink:href="structxpath__lexer__string.html" target="_top" xlink:title=" ">
<polygon fill="white" stroke="#666666" points="265.25,-168 169.75,-168 169.75,-148 265.25,-148 265.25,-168"/>
<text xml:space="preserve" text-anchor="middle" x="217.5" y="-154.5" font-family="Helvetica,sans-Serif" font-size="10.00">xpath_lexer_string</text>
</a>
</g>
</g>
<!-- Node5&#45;&gt;Node4 -->
<g id="edge5_Node000004_Node000005" class="edge">
<title>Node5&#45;&gt;Node4</title>
<g id="a_edge5_Node000004_Node000005"><a xlink:title=" ">
<path fill="none" stroke="#9a32cd" stroke-dasharray="5,2" d="M214.9,-136.18C213.16,-122.29 210.96,-104.71 209.65,-94.19"/>
<polygon fill="#9a32cd" stroke="#9a32cd" points="211.42,-136.6 216.14,-146.09 218.37,-135.73 211.42,-136.6"/>
</a>
</g>
<text xml:space="preserve" text-anchor="start" x="217.07" y="-117.5" font-family="Helvetica,sans-Serif" font-size="10.00" fill="grey">_cur_lexeme_contents</text>
</g>
</g>
</svg>
