<?xml version="1.0" encoding="UTF-8" standalone="no"?>
<!DOCTYPE svg PUBLIC "-//W3C//DTD SVG 1.1//EN"
 "http://www.w3.org/Graphics/SVG/1.1/DTD/svg11.dtd">
<!-- Generated by graphviz version 14.1.2 (20260124.0452)
 -->
<!-- Title: xpath_parser::parse_filter_expression Pages: 1 -->
<svg width="1010pt" height="244pt"
 viewBox="0.00 0.00 1010.00 244.00" xmlns="http://www.w3.org/2000/svg" xmlns:xlink="http://www.w3.org/1999/xlink">
<g id="graph0" class="graph" transform="scale(1 1) rotate(0) translate(4 240.42)">
<title>xpath_parser::parse_filter_expression</title>
<!-- Node1 -->
<g id="Node000001" class="node">
<title>Node1</title>
<g id="a_Node000001"><a xlink:title=" ">
<polygon fill="#999999" stroke="#666666" points="1002.25,-49 900,-49 900,-17 1002.25,-17 1002.25,-49"/>
<text xml:space="preserve" text-anchor="start" x="908" y="-35.5" font-family="Helvetica,sans-Serif" font-size="10.00">xpath_parser::parse</text>
<text xml:space="preserve" text-anchor="middle" x="951.12" y="-23.5" font-family="Helvetica,sans-Serif" font-size="10.00">_filter_expression</text>
</a>
</g>
</g>
<!-- Node2 -->
<g id="Node000002" class="node">
<title>Node2</title>
<g id="a_Node000002"><a xlink:href="structxpath__parser.html#ab5275305ebaac95fd68a3186b737aaa7" target="_top" xlink:title=" ">
<polygon fill="white" stroke="#666666" points="864,-122 728.75,-122 728.75,-90 864,-90 864,-122"/>
<text xml:space="preserve" text-anchor="start" x="736.75" y="-108.5" font-family="Helvetica,sans-Serif" font-size="10.00">xpath_parser::parse</text>
<text xml:space="preserve" text-anchor="middle" x="796.38" y="-96.5" font-family="Helvetica,sans-Serif" font-size="10.00">_path_or_unary_expression</text>
</a>
</g>
</g>
<!-- Node1&#45;&gt;Node2 -->
<g id="edge1_Node000001_Node000002" class="edge">
<title>Node1&#45;&gt;Node2</title>
<g id="a_edge1_Node000001_Node000002"><a xlink:title=" ">
<path fill="none" stroke="#63b8ff" d="M905.75,-54.21C882.19,-65.47 853.67,-79.1 831.8,-89.55"/>
<polygon fill="#63b8ff" stroke="#63b8ff" points="906.97,-57.51 914.48,-50.04 903.95,-51.19 906.97,-57.51"/>
</a>
</g>
</g>
<!-- Node3 -->
<g id="Node000003" class="node">
<title>Node3</title>
<g id="a_Node000003"><a xlink:href="structxpath__parser.html#a7738e256011ca842dc2a0beba78562ed" target="_top" xlink:title=" ">
<polygon fill="white" stroke="#666666" points="554.5,-96 452.25,-96 452.25,-64 554.5,-64 554.5,-96"/>
<text xml:space="preserve" text-anchor="start" x="460.25" y="-82.5" font-family="Helvetica,sans-Serif" font-size="10.00">xpath_parser::parse</text>
<text xml:space="preserve" text-anchor="middle" x="503.38" y="-70.5" font-family="Helvetica,sans-Serif" font-size="10.00">_expression</text>
</a>
</g>
</g>
<!-- Node2&#45;&gt;Node3 -->
<g id="edge2_Node000002_Node000003" class="edge">
<title>Node2&#45;&gt;Node3</title>
<g id="a_edge2_Node000002_Node000003"><a xlink:title=" ">
<path fill="none" stroke="#63b8ff" d="M717.19,-92.95C665.66,-87.21 599.68,-81.59 554.95,-79.26"/>
<polygon fill="#63b8ff" stroke="#63b8ff" points="716.78,-96.43 727.11,-94.08 717.57,-89.47 716.78,-96.43"/>
</a>
</g>
</g>
<!-- Node10 -->
<g id="Node000010" class="node">
<title>Node10</title>
<g id="a_Node000010"><a xlink:href="structxpath__parser.html#adcd54e9b508acfe1f040ee7a54b88f2a" target="_top" xlink:title=" ">
<polygon fill="white" stroke="#666666" points="692.75,-149 590.5,-149 590.5,-117 692.75,-117 692.75,-149"/>
<text xml:space="preserve" text-anchor="start" x="598.5" y="-135.5" font-family="Helvetica,sans-Serif" font-size="10.00">xpath_parser::parse</text>
<text xml:space="preserve" text-anchor="middle" x="641.62" y="-123.5" font-family="Helvetica,sans-Serif" font-size="10.00">_expression_rec</text>
</a>
</g>
</g>
<!-- Node2&#45;&gt;Node10 -->
<g id="edge14_Node000002_Node000010" class="edge">
<title>Node2&#45;&gt;Node10</title>
<g id="a_edge14_Node000002_Node000010"><a xlink:title=" ">
<path fill="none" stroke="#63b8ff" d="M717.2,-119.82C708.99,-121.27 700.81,-122.72 693.03,-124.09"/>
<polygon fill="#63b8ff" stroke="#63b8ff" points="717.65,-123.29 726.89,-118.11 716.43,-116.4 717.65,-123.29"/>
</a>
</g>
</g>
<!-- Node3&#45;&gt;Node1 -->
<g id="edge5_Node000003_Node000001" class="edge">
<title>Node3&#45;&gt;Node1</title>
<g id="a_edge5_Node000003_Node000001"><a xlink:title=" ">
<path fill="none" stroke="#63b8ff" d="M566.06,-73.5C655.05,-64.11 817.73,-46.96 899.86,-38.3"/>
<polygon fill="#63b8ff" stroke="#63b8ff" points="565.88,-70 556.3,-74.52 566.62,-76.96 565.88,-70"/>
</a>
</g>
</g>
<!-- Node3&#45;&gt;Node2 -->
<g id="edge6_Node000003_Node000002" class="edge">
<title>Node3&#45;&gt;Node2</title>
<g id="a_edge6_Node000003_Node000002"><a xlink:title=" ">
<path fill="none" stroke="#63b8ff" d="M566.35,-91.18C614.02,-96.87 679.78,-102.79 728.61,-105.82"/>
<polygon fill="#63b8ff" stroke="#63b8ff" points="566.8,-87.71 556.45,-89.97 565.95,-94.66 566.8,-87.71"/>
</a>
</g>
</g>
<!-- Node4 -->
<g id="Node000004" class="node">
<title>Node4</title>
<g id="a_Node000004"><a xlink:href="structxpath__parser.html#aa3fe0e7d23131b3943d8248646ecd362" target="_top" xlink:title=" ">
<polygon fill="white" stroke="#666666" points="404.25,-90 302,-90 302,-70 404.25,-70 404.25,-90"/>
<text xml:space="preserve" text-anchor="middle" x="353.12" y="-76.5" font-family="Helvetica,sans-Serif" font-size="10.00">xpath_parser::parse</text>
</a>
</g>
</g>
<!-- Node3&#45;&gt;Node4 -->
<g id="edge3_Node000003_Node000004" class="edge">
<title>Node3&#45;&gt;Node4</title>
<g id="a_edge3_Node000003_Node000004"><a xlink:title=" ">
<path fill="none" stroke="#63b8ff" d="M440.46,-80C428.48,-80 416.06,-80 404.5,-80"/>
<polygon fill="#63b8ff" stroke="#63b8ff" points="440.26,-83.5 450.26,-80 440.26,-76.5 440.26,-83.5"/>
</a>
</g>
</g>
<!-- Node6 -->
<g id="Node000006" class="node">
<title>Node6</title>
<g id="a_Node000006"><a xlink:href="structxpath__parser.html#a49cbc6141508ace22ab4b8bd8ddf965a" target="_top" xlink:title=" ">
<polygon fill="white" stroke="#666666" points="406.12,-32 300.12,-32 300.12,0 406.12,0 406.12,-32"/>
<text xml:space="preserve" text-anchor="start" x="308.12" y="-18.5" font-family="Helvetica,sans-Serif" font-size="10.00">xpath_parser::parse</text>
<text xml:space="preserve" text-anchor="middle" x="353.12" y="-6.5" font-family="Helvetica,sans-Serif" font-size="10.00">_primary_expression</text>
</a>
</g>
</g>
<!-- Node3&#45;&gt;Node6 -->
<g id="edge7_Node000003_Node000006" class="edge">
<title>Node3&#45;&gt;Node6</title>
<g id="a_edge7_Node000003_Node000006"><a xlink:title=" ">
<path fill="none" stroke="#63b8ff" d="M453.73,-59C433.73,-50.37 410.92,-40.52 392.17,-32.43"/>
<polygon fill="#63b8ff" stroke="#63b8ff" points="452.24,-62.17 462.81,-62.92 455.01,-55.74 452.24,-62.17"/>
</a>
</g>
</g>
<!-- Node7 -->
<g id="Node000007" class="node">
<title>Node7</title>
<g id="a_Node000007"><a xlink:href="structxpath__parser.html#a0b226e2905970c868ab6a80d76da3a95" target="_top" xlink:title=" ">
<polygon fill="white" stroke="#666666" points="416.25,-145 290,-145 290,-125 416.25,-125 416.25,-145"/>
<text xml:space="preserve" text-anchor="middle" x="353.12" y="-131.5" font-family="Helvetica,sans-Serif" font-size="10.00">xpath_parser::parse_step</text>
</a>
</g>
</g>
<!-- Node3&#45;&gt;Node7 -->
<g id="edge9_Node000003_Node000007" class="edge">
<title>Node3&#45;&gt;Node7</title>
<g id="a_edge9_Node000003_Node000007"><a xlink:title=" ">
<path fill="none" stroke="#63b8ff" d="M447.65,-100.3C425.48,-108.53 400.81,-117.68 382.38,-124.52"/>
<polygon fill="#63b8ff" stroke="#63b8ff" points="448.72,-103.64 456.88,-96.88 446.28,-97.08 448.72,-103.64"/>
</a>
</g>
</g>
<!-- Node5 -->
<g id="Node000005" class="node">
<title>Node5</title>
<g id="a_Node000005"><a xlink:href="structxpath__parser.html#aad773be8b591966eb535018fcc2b6a66" target="_top" xlink:title=" ">
<polygon fill="white" stroke="#666666" points="247.25,-90 145,-90 145,-70 247.25,-70 247.25,-90"/>
<text xml:space="preserve" text-anchor="middle" x="196.12" y="-76.5" font-family="Helvetica,sans-Serif" font-size="10.00">xpath_parser::parse</text>
</a>
</g>
</g>
<!-- Node4&#45;&gt;Node5 -->
<g id="edge4_Node000004_Node000005" class="edge">
<title>Node4&#45;&gt;Node5</title>
<g id="a_edge4_Node000004_Node000005"><a xlink:title=" ">
<path fill="none" stroke="#63b8ff" d="M290.6,-80C276.38,-80 261.42,-80 247.73,-80"/>
<polygon fill="#63b8ff" stroke="#63b8ff" points="290.29,-83.5 300.29,-80 290.29,-76.5 290.29,-83.5"/>
</a>
</g>
</g>
<!-- Node6&#45;&gt;Node1 -->
<g id="edge8_Node000006_Node000001" class="edge">
<title>Node6&#45;&gt;Node1</title>
<g id="a_edge8_Node000006_Node000001"><a xlink:title=" ">
<path fill="none" stroke="#63b8ff" d="M418.02,-17.82C537.24,-21.22 791.31,-28.47 899.57,-31.56"/>
<polygon fill="#63b8ff" stroke="#63b8ff" points="418.18,-14.33 408.08,-17.54 417.98,-21.32 418.18,-14.33"/>
</a>
</g>
</g>
<!-- Node8 -->
<g id="Node000008" class="node">
<title>Node8</title>
<g id="a_Node000008"><a xlink:href="structxpath__parser.html#aebea559423376001c89b19216dfc3012" target="_top" xlink:title=" ">
<polygon fill="white" stroke="#666666" points="254,-167 138.25,-167 138.25,-135 254,-135 254,-167"/>
<text xml:space="preserve" text-anchor="start" x="146.25" y="-153.5" font-family="Helvetica,sans-Serif" font-size="10.00">xpath_parser::parse</text>
<text xml:space="preserve" text-anchor="middle" x="196.12" y="-141.5" font-family="Helvetica,sans-Serif" font-size="10.00">_relative_location_path</text>
</a>
</g>
</g>
<!-- Node7&#45;&gt;Node8 -->
<g id="edge10_Node000007_Node000008" class="edge">
<title>Node7&#45;&gt;Node8</title>
<g id="a_edge10_Node000007_Node000008"><a xlink:title=" ">
<path fill="none" stroke="#63b8ff" d="M278.28,-142.62C270.27,-143.45 262.21,-144.28 254.45,-145.08"/>
<polygon fill="#63b8ff" stroke="#63b8ff" points="278.43,-146.13 288.02,-141.62 277.72,-139.16 278.43,-146.13"/>
</a>
</g>
</g>
<!-- Node8&#45;&gt;Node2 -->
<g id="edge13_Node000008_Node000002" class="edge">
<title>Node8&#45;&gt;Node2</title>
<g id="a_edge13_Node000008_Node000002"><a xlink:title=" ">
<path fill="none" stroke="#63b8ff" d="M244.81,-171.65C335.75,-207.82 538.6,-273.02 692.75,-209 735.18,-191.38 769.15,-146.75 785.24,-122.43"/>
<polygon fill="#63b8ff" stroke="#63b8ff" points="246.28,-168.46 235.69,-167.96 243.65,-174.95 246.28,-168.46"/>
</a>
</g>
</g>
<!-- Node9 -->
<g id="Node000009" class="node">
<title>Node9</title>
<g id="a_Node000009"><a xlink:href="structxpath__parser.html#af14e396ddb7817998ec221eec6b781ab" target="_top" xlink:title=" ">
<polygon fill="white" stroke="#666666" points="102.25,-189 0,-189 0,-157 102.25,-157 102.25,-189"/>
<text xml:space="preserve" text-anchor="start" x="8" y="-175.5" font-family="Helvetica,sans-Serif" font-size="10.00">xpath_parser::parse</text>
<text xml:space="preserve" text-anchor="middle" x="51.12" y="-163.5" font-family="Helvetica,sans-Serif" font-size="10.00">_location_path</text>
</a>
</g>
</g>
<!-- Node8&#45;&gt;Node9 -->
<g id="edge11_Node000008_Node000009" class="edge">
<title>Node8&#45;&gt;Node9</title>
<g id="a_edge11_Node000008_Node000009"><a xlink:title=" ">
<path fill="none" stroke="#63b8ff" d="M126.47,-161.56C118.41,-162.8 110.3,-164.05 102.56,-165.24"/>
<polygon fill="#63b8ff" stroke="#63b8ff" points="126.94,-165.03 136.29,-160.05 125.87,-158.11 126.94,-165.03"/>
</a>
</g>
</g>
<!-- Node9&#45;&gt;Node2 -->
<g id="edge12_Node000009_Node000002" class="edge">
<title>Node9&#45;&gt;Node2</title>
<g id="a_edge12_Node000009_Node000002"><a xlink:title=" ">
<path fill="none" stroke="#63b8ff" d="M114.01,-180.2C174.6,-186.61 269.58,-195 352.12,-195 504.38,-195 504.38,-195 504.38,-195 588.52,-195 613.69,-204.82 692.75,-176 725.78,-163.96 758.35,-138.87 777.66,-122.24"/>
<polygon fill="#63b8ff" stroke="#63b8ff" points="114.56,-176.73 104.24,-179.14 113.81,-183.69 114.56,-176.73"/>
</a>
</g>
</g>
<!-- Node10&#45;&gt;Node3 -->
<g id="edge15_Node000010_Node000003" class="edge">
<title>Node10&#45;&gt;Node3</title>
<g id="a_edge15_Node000010_Node000003"><a xlink:title=" ">
<path fill="none" stroke="#63b8ff" d="M587.61,-112.38C574.05,-107.1 559.65,-101.5 546.71,-96.47"/>
<polygon fill="#63b8ff" stroke="#63b8ff" points="586.26,-115.61 596.85,-115.97 588.8,-109.09 586.26,-115.61"/>
</a>
</g>
</g>
<!-- Node10&#45;&gt;Node10 -->
<g id="edge16_Node000010_Node000010" class="edge">
<title>Node10&#45;&gt;Node10</title>
<g id="a_edge16_Node000010_Node000010"><a xlink:title=" ">
<path fill="none" stroke="#63b8ff" d="M664.66,-160.71C660.82,-164.48 653.14,-167 641.62,-167 620.56,-167 612.34,-158.58 616.94,-149.44"/>
<polygon fill="#63b8ff" stroke="#63b8ff" points="668.11,-161.34 666.09,-150.94 661.18,-160.33 668.11,-161.34"/>
</a>
</g>
</g>
</g>
</svg>
