<?xml version="1.0" encoding="UTF-8" standalone="no"?>
<!DOCTYPE svg PUBLIC "-//W3C//DTD SVG 1.1//EN"
 "http://www.w3.org/Graphics/SVG/1.1/DTD/svg11.dtd">
<!-- Generated by graphviz version 14.1.2 (20260124.0452)
 -->
<!-- Title: xml_parser::parse Pages: 1 -->
<!--zoomable 535 -->

<svg id="main" version="1.1" xmlns="http://www.w3.org/2000/svg" xmlns:xlink="http://www.w3.org/1999/xlink" xml:space="preserve" onload="init(evt)">

<style type="text/css"><![CDATA[
.node, .edge {opacity: 0.7;}
.node.selected, .edge.selected {opacity: 1;}
.edge:hover path { stroke: red; }
.edge:hover polygon { stroke: red; fill: red; }
]]></style>

<defs>
  <circle id="rim" cx="0" cy="0" r="7"/>
  <circle id="rim2" cx="0" cy="0" r="3.5"/>
  <g id="zoomPlus">
    <use xlink:href="#rim" fill="#404040"><set attributeName="fill" to="#808080" begin="zoomplus.mouseover" end="zoomplus.mouseout"/></use>
    <path d="M-4,0h8M0,-4v8" fill="none" stroke="white" stroke-width="1.5" pointer-events="none"/>
  </g>
  <g id="zoomMin">
    <use xlink:href="#rim" fill="#404040"><set attributeName="fill" to="#808080" begin="zoomminus.mouseover" end="zoomminus.mouseout"/></use>
    <path d="M-4,0h8" fill="none" stroke="white" stroke-width="1.5" pointer-events="none"/>
  </g>
  <g id="arrowUp" transform="translate(30 24)">
    <use xlink:href="#rim"/>
    <path pointer-events="none" fill="none" stroke="white" stroke-width="1.5" d="M0,-3.0v7 M-2.5,-0.5L0,-3.0L2.5,-0.5"/>
  </g>
  <g id="arrowRight" transform="rotate(90) translate(36 -43)">
    <use xlink:href="#rim"/>
    <path pointer-events="none" fill="none" stroke="white" stroke-width="1.5" d="M0,-3.0v7 M-2.5,-0.5L0,-3.0L2.5,-0.5"/>
  </g>
  <g id="arrowDown" transform="rotate(180) translate(-30 -48)">
    <use xlink:href="#rim"/>
    <path pointer-events="none" fill="none" stroke="white" stroke-width="1.5" d="M0,-3.0v7 M-2.5,-0.5L0,-3.0L2.5,-0.5"/>
  </g>
  <g id="arrowLeft" transform="rotate(270) translate(-36 17)">
    <use xlink:href="#rim"/>
    <path pointer-events="none" fill="none" stroke="white" stroke-width="1.5" d="M0,-3.0v7 M-2.5,-0.5L0,-3.0L2.5,-0.5"/>
  </g>
  <g id="resetDef">
    <use xlink:href="#rim2" fill="#404040"><set attributeName="fill" to="#808080" begin="reset.mouseover" end="reset.mouseout"/></use>
  </g>
</defs>
<script type="application/ecmascript">
var viewWidth = 1462;
var viewHeight = 535;
var sectionId = 'dynsection-3';
</script>
<script type="application/ecmascript" xlink:href="svg.min.js"/>
<svg id="graph" class="graph">
<g id="viewport">
<title>xml_parser::parse</title>
<!-- Node1 -->
<g id="Node000001" class="node">
<title>Node1</title>
<g id="a_Node000001"><a xlink:title=" ">
<polygon fill="#999999" stroke="#666666" points="94,-216 0,-216 0,-196 94,-196 94,-216"/>
<text xml:space="preserve" text-anchor="middle" x="47" y="-202.5" font-family="Helvetica,sans-Serif" font-size="10.00">xml_parser::parse</text>
</a>
</g>
</g>
<!-- Node2 -->
<g id="Node000002" class="node">
<title>Node2</title>
<g id="a_Node000002"><a xlink:href="structxml__parser.html#a6be4da5b3206913d0e3bd8320394df41" target="_top" xlink:title=" ">
<polygon fill="white" stroke="#666666" points="263.38,-304 137.88,-304 137.88,-272 263.38,-272 263.38,-304"/>
<text xml:space="preserve" text-anchor="start" x="145.88" y="-290.5" font-family="Helvetica,sans-Serif" font-size="10.00">xml_parser::has_element</text>
<text xml:space="preserve" text-anchor="middle" x="200.62" y="-278.5" font-family="Helvetica,sans-Serif" font-size="10.00">_node_siblings</text>
</a>
</g>
</g>
<!-- Node1&#45;&gt;Node2 -->
<g id="edge1_Node000001_Node000002" class="edge">
<title>Node1&#45;&gt;Node2</title>
<g id="a_edge1_Node000001_Node000002"><a xlink:title=" ">
<path fill="none" stroke="#63b8ff" d="M60.68,-216.4C76.24,-228.79 103.8,-249.49 130,-263 132.69,-264.39 135.47,-265.73 138.31,-267.03"/>
<polygon fill="#63b8ff" stroke="#63b8ff" points="136.8,-270.19 147.37,-270.91 139.56,-263.75 136.8,-270.19"/>
</a>
</g>
</g>
<!-- Node3 -->
<g id="Node000003" class="node">
<title>Node3</title>
<g id="a_Node000003"><a xlink:href="pugixml_8cpp.html#a9081c36df7470451a2a067677ee9e423" target="_top" xlink:title=" ">
<polygon fill="white" stroke="#666666" points="249.88,-254 151.38,-254 151.38,-234 249.88,-234 249.88,-254"/>
<text xml:space="preserve" text-anchor="middle" x="200.62" y="-240.5" font-family="Helvetica,sans-Serif" font-size="10.00">make_parse_result</text>
</a>
</g>
</g>
<!-- Node1&#45;&gt;Node3 -->
<g id="edge2_Node000001_Node000003" class="edge">
<title>Node1&#45;&gt;Node3</title>
<g id="a_edge2_Node000001_Node000003"><a xlink:title=" ">
<path fill="none" stroke="#63b8ff" d="M89.83,-216.48C107.48,-220.91 128.23,-226.11 146.91,-230.79"/>
<polygon fill="#63b8ff" stroke="#63b8ff" points="145.91,-234.15 156.46,-233.18 147.61,-227.36 145.91,-234.15"/>
</a>
</g>
</g>
<!-- Node4 -->
<g id="Node000004" class="node">
<title>Node4</title>
<g id="a_Node000004"><a xlink:href="structxml__parser.html#a00681ed5cdd50dc86bfaef01efd86075" target="_top" xlink:title=" ">
<polygon fill="white" stroke="#666666" points="271.25,-216 130,-216 130,-196 271.25,-196 271.25,-216"/>
<text xml:space="preserve" text-anchor="middle" x="200.62" y="-202.5" font-family="Helvetica,sans-Serif" font-size="10.00">xml_parser::parse_skip_bom</text>
</a>
</g>
</g>
<!-- Node1&#45;&gt;Node4 -->
<g id="edge3_Node000001_Node000004" class="edge">
<title>Node1&#45;&gt;Node4</title>
<g id="a_edge3_Node000001_Node000004"><a xlink:title=" ">
<path fill="none" stroke="#63b8ff" d="M94.32,-206C101.98,-206 110.12,-206 118.35,-206"/>
<polygon fill="#63b8ff" stroke="#63b8ff" points="118.07,-209.5 128.07,-206 118.07,-202.5 118.07,-209.5"/>
</a>
</g>
</g>
<!-- Node5 -->
<g id="Node000005" class="node">
<title>Node5</title>
<g id="a_Node000005"><a xlink:href="structxml__parser.html#a35bac90f1975aa1a9d5de4b60b761f16" target="_top" xlink:title=" ">
<polygon fill="white" stroke="#666666" points="258.5,-178 142.75,-178 142.75,-158 258.5,-158 258.5,-178"/>
<text xml:space="preserve" text-anchor="middle" x="200.62" y="-164.5" font-family="Helvetica,sans-Serif" font-size="10.00">xml_parser::parse_tree</text>
</a>
</g>
</g>
<!-- Node1&#45;&gt;Node5 -->
<g id="edge4_Node000001_Node000005" class="edge">
<title>Node1&#45;&gt;Node5</title>
<g id="a_edge4_Node000001_Node000005"><a xlink:title=" ">
<path fill="none" stroke="#63b8ff" d="M89.83,-195.52C107.48,-191.09 128.23,-185.89 146.91,-181.21"/>
<polygon fill="#63b8ff" stroke="#63b8ff" points="147.61,-184.64 156.46,-178.82 145.91,-177.85 147.61,-184.64"/>
</a>
</g>
</g>
<!-- Node36 -->
<g id="Node000036" class="node">
<title>Node36</title>
<g id="a_Node000036"><a xlink:href="structxml__parser.html#a062d6951738847e674b538a677c8c5f0" target="_top" xlink:title=" ">
<polygon fill="white" stroke="#666666" points="259.62,-140 141.62,-140 141.62,-120 259.62,-120 259.62,-140"/>
<text xml:space="preserve" text-anchor="middle" x="200.62" y="-126.5" font-family="Helvetica,sans-Serif" font-size="10.00">xml_parser::xml_parser</text>
</a>
</g>
</g>
<!-- Node1&#45;&gt;Node36 -->
<g id="edge51_Node000001_Node000036" class="edge">
<title>Node1&#45;&gt;Node36</title>
<g id="a_edge51_Node000001_Node000036"><a xlink:title=" ">
<path fill="none" stroke="#63b8ff" d="M59.96,-195.69C75.25,-183.01 102.98,-161.62 130,-149 133.8,-147.23 137.8,-145.59 141.87,-144.09"/>
<polygon fill="#63b8ff" stroke="#63b8ff" points="142.98,-147.41 151.34,-140.9 140.74,-140.78 142.98,-147.41"/>
</a>
</g>
</g>
<!-- Node6 -->
<g id="Node000006" class="node">
<title>Node6</title>
<g id="a_Node000006"><a xlink:href="pugixml_8cpp.html#aa4d1cd18410ae2f5008f74bd5fc8a387" target="_top" xlink:title=" ">
<polygon fill="white" stroke="#666666" points="438.75,-464 327.5,-464 327.5,-444 438.75,-444 438.75,-464"/>
<text xml:space="preserve" text-anchor="middle" x="383.12" y="-450.5" font-family="Helvetica,sans-Serif" font-size="10.00">append_new_attribute</text>
</a>
</g>
</g>
<!-- Node5&#45;&gt;Node6 -->
<g id="edge5_Node000005_Node000006" class="edge">
<title>Node5&#45;&gt;Node6</title>
<g id="a_edge5_Node000005_Node000006"><a xlink:title=" ">
<path fill="none" stroke="#63b8ff" d="M258.71,-178.08C263.31,-180.47 267.58,-183.4 271.25,-187 311.89,-226.91 286.01,-257.15 307.25,-310 325.71,-355.93 354.09,-406.64 370.09,-433.93"/>
<polygon fill="#63b8ff" stroke="#63b8ff" points="366.88,-435.38 374.98,-442.2 372.9,-431.81 366.88,-435.38"/>
</a>
</g>
</g>
<!-- Node15 -->
<g id="Node000015" class="node">
<title>Node15</title>
<g id="a_Node000015"><a xlink:href="pugixml_8cpp.html#ab206ad5e3a83ea8040ec039ea641c208" target="_top" xlink:title=" ">
<polygon fill="white" stroke="#666666" points="436.88,-301 329.38,-301 329.38,-281 436.88,-281 436.88,-301"/>
<text xml:space="preserve" text-anchor="middle" x="383.12" y="-287.5" font-family="Helvetica,sans-Serif" font-size="10.00">get_strconv_attribute</text>
</a>
</g>
</g>
<!-- Node5&#45;&gt;Node15 -->
<g id="edge14_Node000005_Node000015" class="edge">
<title>Node5&#45;&gt;Node15</title>
<g id="a_edge14_Node000005_Node000015"><a xlink:title=" ">
<path fill="none" stroke="#63b8ff" d="M251.5,-178.4C258.35,-180.74 265.13,-183.58 271.25,-187 310.93,-209.19 347.41,-248.61 367.03,-272.02"/>
<polygon fill="#63b8ff" stroke="#63b8ff" points="364.14,-274.01 373.19,-279.53 369.56,-269.58 364.14,-274.01"/>
</a>
</g>
</g>
<!-- Node26 -->
<g id="Node000026" class="node">
<title>Node26</title>
<g id="a_Node000026"><a xlink:href="pugixml_8cpp.html#a52da3e542d6ab6e06855274825508ab1" target="_top" xlink:title=" ">
<polygon fill="white" stroke="#666666" points="433.88,-198 332.38,-198 332.38,-178 433.88,-178 433.88,-198"/>
<text xml:space="preserve" text-anchor="middle" x="383.12" y="-184.5" font-family="Helvetica,sans-Serif" font-size="10.00">get_strconv_pcdata</text>
</a>
</g>
</g>
<!-- Node5&#45;&gt;Node26 -->
<g id="edge34_Node000005_Node000026" class="edge">
<title>Node5&#45;&gt;Node26</title>
<g id="a_edge34_Node000005_Node000026"><a xlink:title=" ">
<path fill="none" stroke="#63b8ff" d="M258.74,-174.33C278.51,-176.52 300.76,-178.98 320.85,-181.21"/>
<polygon fill="#63b8ff" stroke="#63b8ff" points="320.26,-184.67 330.58,-182.29 321.03,-177.71 320.26,-184.67"/>
</a>
</g>
</g>
<!-- Node28 -->
<g id="Node000028" class="node">
<title>Node28</title>
<g id="a_Node000028"><a xlink:href="structxml__parser.html#afc651baa774c379ad03244cac2e96015" target="_top" xlink:title=" ">
<polygon fill="white" stroke="#666666" points="459,-159 307.25,-159 307.25,-139 459,-139 459,-159"/>
<text xml:space="preserve" text-anchor="middle" x="383.12" y="-145.5" font-family="Helvetica,sans-Serif" font-size="10.00">xml_parser::parse_exclamation</text>
</a>
</g>
</g>
<!-- Node5&#45;&gt;Node28 -->
<g id="edge39_Node000005_Node000028" class="edge">
<title>Node5&#45;&gt;Node28</title>
<g id="a_edge39_Node000005_Node000028"><a xlink:title=" ">
<path fill="none" stroke="#63b8ff" d="M258.74,-161.99C270.44,-160.76 283.01,-159.43 295.48,-158.12"/>
<polygon fill="#63b8ff" stroke="#63b8ff" points="295.8,-161.61 305.38,-157.08 295.07,-154.64 295.8,-161.61"/>
</a>
</g>
</g>
<!-- Node34 -->
<g id="Node000034" class="node">
<title>Node34</title>
<g id="a_Node000034"><a xlink:href="structxml__parser.html#a8587d716d71121b4dfffdd1cc8e2145f" target="_top" xlink:title=" ">
<polygon fill="white" stroke="#666666" points="451.12,-121 315.12,-121 315.12,-101 451.12,-101 451.12,-121"/>
<text xml:space="preserve" text-anchor="middle" x="383.12" y="-107.5" font-family="Helvetica,sans-Serif" font-size="10.00">xml_parser::parse_question</text>
</a>
</g>
</g>
<!-- Node5&#45;&gt;Node34 -->
<g id="edge49_Node000005_Node000034" class="edge">
<title>Node5&#45;&gt;Node34</title>
<g id="a_edge49_Node000005_Node000034"><a xlink:title=" ">
<path fill="none" stroke="#63b8ff" d="M245.56,-157.59C254.19,-155.1 263.09,-152.22 271.25,-149 288.08,-142.36 290.36,-136.49 307.25,-130 312.3,-128.06 317.63,-126.25 323.01,-124.6"/>
<polygon fill="#63b8ff" stroke="#63b8ff" points="323.98,-127.96 332.61,-121.82 322.03,-121.23 323.98,-127.96"/>
</a>
</g>
</g>
<!-- Node35 -->
<g id="Node000035" class="node">
<title>Node35</title>
<g id="a_Node000035"><a xlink:href="pugixml_8cpp.html#a775f7b78d2f13c1b72d69b114599461d" target="_top" xlink:title=" ">
<polygon fill="white" stroke="#666666" points="409.88,-83 356.38,-83 356.38,-63 409.88,-63 409.88,-83"/>
<text xml:space="preserve" text-anchor="middle" x="383.12" y="-69.5" font-family="Helvetica,sans-Serif" font-size="10.00">strlength</text>
</a>
</g>
</g>
<!-- Node5&#45;&gt;Node35 -->
<g id="edge50_Node000005_Node000035" class="edge">
<title>Node5&#45;&gt;Node35</title>
<g id="a_edge50_Node000005_Node000035"><a xlink:title=" ">
<path fill="none" stroke="#63b8ff" d="M255.96,-157.54C261.4,-155.24 266.62,-152.43 271.25,-149 295.34,-131.18 283,-109.6 307.25,-92 318.25,-84.02 332.27,-79.38 345.19,-76.68"/>
<polygon fill="#63b8ff" stroke="#63b8ff" points="345.42,-80.2 354.68,-75.04 344.23,-73.3 345.42,-80.2"/>
</a>
</g>
</g>
<!-- Node7 -->
<g id="Node000007" class="node">
<title>Node7</title>
<g id="a_Node000007"><a xlink:href="pugixml_8cpp.html#a26ec349a881efb75dce214a92fd56842" target="_top" xlink:title=" ">
<polygon fill="white" stroke="#666666" points="607,-521 516.75,-521 516.75,-501 607,-501 607,-521"/>
<text xml:space="preserve" text-anchor="middle" x="561.88" y="-507.5" font-family="Helvetica,sans-Serif" font-size="10.00">allocate_attribute</text>
</a>
</g>
</g>
<!-- Node6&#45;&gt;Node7 -->
<g id="edge6_Node000006_Node000007" class="edge">
<title>Node6&#45;&gt;Node7</title>
<g id="a_edge6_Node000006_Node000007"><a xlink:title=" ">
<path fill="none" stroke="#63b8ff" d="M413.18,-464.4C435.47,-472.27 467.06,-483.19 495,-492 500.75,-493.81 506.8,-495.65 512.81,-497.43"/>
<polygon fill="#63b8ff" stroke="#63b8ff" points="511.47,-500.69 522.05,-500.14 513.44,-493.97 511.47,-500.69"/>
</a>
</g>
</g>
<!-- Node13 -->
<g id="Node000013" class="node">
<title>Node13</title>
<g id="a_Node000013"><a xlink:href="pugixml_8cpp.html#ad64fdacadf33c8b534a9cd220f1aa966" target="_top" xlink:title=" ">
<polygon fill="white" stroke="#666666" points="605.88,-483 517.88,-483 517.88,-463 605.88,-463 605.88,-483"/>
<text xml:space="preserve" text-anchor="middle" x="561.88" y="-469.5" font-family="Helvetica,sans-Serif" font-size="10.00">append_attribute</text>
</a>
</g>
</g>
<!-- Node6&#45;&gt;Node13 -->
<g id="edge12_Node000006_Node000013" class="edge">
<title>Node6&#45;&gt;Node13</title>
<g id="a_edge12_Node000006_Node000013"><a xlink:title=" ">
<path fill="none" stroke="#63b8ff" d="M439.08,-459.91C460.47,-462.21 484.92,-464.84 506.28,-467.13"/>
<polygon fill="#63b8ff" stroke="#63b8ff" points="505.63,-470.58 515.95,-468.17 506.38,-463.62 505.63,-470.58"/>
</a>
</g>
</g>
<!-- Node14 -->
<g id="Node000014" class="node">
<title>Node14</title>
<g id="a_Node000014"><a xlink:href="structxml__allocator.html#ac831a283ec3bcbe22fd3ce3be98ec347" target="_top" xlink:title=" ">
<polygon fill="white" stroke="#666666" points="617.88,-445 505.88,-445 505.88,-425 617.88,-425 617.88,-445"/>
<text xml:space="preserve" text-anchor="middle" x="561.88" y="-431.5" font-family="Helvetica,sans-Serif" font-size="10.00">xml_allocator::reserve</text>
</a>
</g>
</g>
<!-- Node6&#45;&gt;Node14 -->
<g id="edge13_Node000006_Node000014" class="edge">
<title>Node6&#45;&gt;Node14</title>
<g id="a_edge13_Node000006_Node000014"><a xlink:title=" ">
<path fill="none" stroke="#63b8ff" d="M439.08,-448.09C456.54,-446.22 476.03,-444.12 494.22,-442.16"/>
<polygon fill="#63b8ff" stroke="#63b8ff" points="494.58,-445.65 504.14,-441.1 493.83,-438.69 494.58,-445.65"/>
</a>
</g>
</g>
<!-- Node8 -->
<g id="Node000008" class="node">
<title>Node8</title>
<g id="a_Node000008"><a xlink:href="structxml__allocator.html#a103dfdec5c72cb955e2a97a61fdc9af1" target="_top" xlink:title=" ">
<polygon fill="white" stroke="#666666" points="788.38,-527 674.88,-527 674.88,-495 788.38,-495 788.38,-527"/>
<text xml:space="preserve" text-anchor="start" x="682.88" y="-513.5" font-family="Helvetica,sans-Serif" font-size="10.00">xml_allocator::allocate</text>
<text xml:space="preserve" text-anchor="middle" x="731.62" y="-501.5" font-family="Helvetica,sans-Serif" font-size="10.00">_object</text>
</a>
</g>
</g>
<!-- Node7&#45;&gt;Node8 -->
<g id="edge7_Node000007_Node000008" class="edge">
<title>Node7&#45;&gt;Node8</title>
<g id="a_edge7_Node000007_Node000008"><a xlink:title=" ">
<path fill="none" stroke="#63b8ff" d="M607.39,-511C624.43,-511 644.27,-511 662.99,-511"/>
<polygon fill="#63b8ff" stroke="#63b8ff" points="662.96,-514.5 672.96,-511 662.96,-507.5 662.96,-514.5"/>
</a>
</g>
</g>
<!-- Node9 -->
<g id="Node000009" class="node">
<title>Node9</title>
<g id="a_Node000009"><a xlink:href="structxml__allocator.html#a02a8725611785568ceae7a0eea3eca76" target="_top" xlink:title=" ">
<polygon fill="white" stroke="#666666" points="948,-527 834.5,-527 834.5,-495 948,-495 948,-527"/>
<text xml:space="preserve" text-anchor="start" x="842.5" y="-513.5" font-family="Helvetica,sans-Serif" font-size="10.00">xml_allocator::allocate</text>
<text xml:space="preserve" text-anchor="middle" x="891.25" y="-501.5" font-family="Helvetica,sans-Serif" font-size="10.00">_memory</text>
</a>
</g>
</g>
<!-- Node8&#45;&gt;Node9 -->
<g id="edge8_Node000008_Node000009" class="edge">
<title>Node8&#45;&gt;Node9</title>
<g id="a_edge8_Node000008_Node000009"><a xlink:title=" ">
<path fill="none" stroke="#63b8ff" d="M788.64,-511C799.72,-511 811.47,-511 822.88,-511"/>
<polygon fill="#63b8ff" stroke="#63b8ff" points="822.63,-514.5 832.63,-511 822.63,-507.5 822.63,-514.5"/>
</a>
</g>
</g>
<!-- Node10 -->
<g id="Node000010" class="node">
<title>Node10</title>
<g id="a_Node000010"><a xlink:href="structxml__allocator.html#ae010e1cb3ad4e8f1235ad94ea4c542ee" target="_top" xlink:title=" ">
<polygon fill="white" stroke="#666666" points="1097.5,-527 984,-527 984,-495 1097.5,-495 1097.5,-527"/>
<text xml:space="preserve" text-anchor="start" x="992" y="-513.5" font-family="Helvetica,sans-Serif" font-size="10.00">xml_allocator::allocate</text>
<text xml:space="preserve" text-anchor="middle" x="1040.75" y="-501.5" font-family="Helvetica,sans-Serif" font-size="10.00">_memory_oob</text>
</a>
</g>
</g>
<!-- Node9&#45;&gt;Node10 -->
<g id="edge9_Node000009_Node000010" class="edge">
<title>Node9&#45;&gt;Node10</title>
<g id="a_edge9_Node000009_Node000010"><a xlink:title=" ">
<path fill="none" stroke="#63b8ff" d="M948.43,-511C956.29,-511 964.43,-511 972.47,-511"/>
<polygon fill="#63b8ff" stroke="#63b8ff" points="972.21,-514.5 982.21,-511 972.21,-507.5 972.21,-514.5"/>
</a>
</g>
</g>
<!-- Node11 -->
<g id="Node000011" class="node">
<title>Node11</title>
<g id="a_Node000011"><a xlink:href="structxml__allocator.html#ad07a6aa6876c8c5a5536d409c01d88e5" target="_top" xlink:title=" ">
<polygon fill="white" stroke="#666666" points="1273.25,-521 1133.5,-521 1133.5,-501 1273.25,-501 1273.25,-521"/>
<text xml:space="preserve" text-anchor="middle" x="1203.38" y="-507.5" font-family="Helvetica,sans-Serif" font-size="10.00">xml_allocator::allocate_page</text>
</a>
</g>
</g>
<!-- Node10&#45;&gt;Node11 -->
<g id="edge10_Node000010_Node000011" class="edge">
<title>Node10&#45;&gt;Node11</title>
<g id="a_edge10_Node000010_Node000011"><a xlink:title=" ">
<path fill="none" stroke="#63b8ff" d="M1097.93,-511C1105.68,-511 1113.75,-511 1121.84,-511"/>
<polygon fill="#63b8ff" stroke="#63b8ff" points="1121.72,-514.5 1131.72,-511 1121.72,-507.5 1121.72,-514.5"/>
</a>
</g>
</g>
<!-- Node12 -->
<g id="Node000012" class="node">
<title>Node12</title>
<g id="a_Node000012"><a xlink:href="structxml__memory__page.html#a071bb9cc9aeccef1655c1336b16472a5" target="_top" xlink:title=" ">
<polygon fill="white" stroke="#666666" points="1454.25,-521 1309.25,-521 1309.25,-501 1454.25,-501 1454.25,-521"/>
<text xml:space="preserve" text-anchor="middle" x="1381.75" y="-507.5" font-family="Helvetica,sans-Serif" font-size="10.00">xml_memory_page::construct</text>
</a>
</g>
</g>
<!-- Node11&#45;&gt;Node12 -->
<g id="edge11_Node000011_Node000012" class="edge">
<title>Node11&#45;&gt;Node12</title>
<g id="a_edge11_Node000011_Node000012"><a xlink:title=" ">
<path fill="none" stroke="#63b8ff" d="M1273.58,-511C1281.45,-511 1289.53,-511 1297.56,-511"/>
<polygon fill="#63b8ff" stroke="#63b8ff" points="1297.33,-514.5 1307.33,-511 1297.33,-507.5 1297.33,-514.5"/>
</a>
</g>
</g>
<!-- Node16 -->
<g id="Node000016" class="node">
<title>Node16</title>
<g id="a_Node000016"><a xlink:href="structstrconv__attribute__impl.html#a078a9b175b8c7a338d58431ec959a98c" target="_top" xlink:title=" ">
<polygon fill="white" stroke="#666666" points="617.88,-307 505.88,-307 505.88,-275 617.88,-275 617.88,-307"/>
<text xml:space="preserve" text-anchor="start" x="513.88" y="-293.5" font-family="Helvetica,sans-Serif" font-size="10.00">strconv_attribute_impl</text>
<text xml:space="preserve" text-anchor="middle" x="561.88" y="-281.5" font-family="Helvetica,sans-Serif" font-size="10.00">::parse_eol</text>
</a>
</g>
</g>
<!-- Node15&#45;&gt;Node16 -->
<g id="edge15_Node000015_Node000016" class="edge">
<title>Node15&#45;&gt;Node16</title>
<g id="a_edge15_Node000015_Node000016"><a xlink:title=" ">
<path fill="none" stroke="#63b8ff" d="M437.16,-291C455.01,-291 475.16,-291 493.94,-291"/>
<polygon fill="#63b8ff" stroke="#63b8ff" points="493.91,-294.5 503.91,-291 493.91,-287.5 493.91,-294.5"/>
</a>
</g>
</g>
<!-- Node23 -->
<g id="Node000023" class="node">
<title>Node23</title>
<g id="a_Node000023"><a xlink:href="structstrconv__attribute__impl.html#a56ce65fa313ef3bb4a95f5b03a959f7f" target="_top" xlink:title=" ">
<polygon fill="white" stroke="#666666" points="617.88,-257 505.88,-257 505.88,-225 617.88,-225 617.88,-257"/>
<text xml:space="preserve" text-anchor="start" x="513.88" y="-243.5" font-family="Helvetica,sans-Serif" font-size="10.00">strconv_attribute_impl</text>
<text xml:space="preserve" text-anchor="middle" x="561.88" y="-231.5" font-family="Helvetica,sans-Serif" font-size="10.00">::parse_simple</text>
</a>
</g>
</g>
<!-- Node15&#45;&gt;Node23 -->
<g id="edge23_Node000015_Node000023" class="edge">
<title>Node15&#45;&gt;Node23</title>
<g id="a_edge23_Node000015_Node000023"><a xlink:title=" ">
<path fill="none" stroke="#63b8ff" d="M421.18,-280.52C442.43,-274.51 469.74,-266.78 494.57,-259.76"/>
<polygon fill="#63b8ff" stroke="#63b8ff" points="495.27,-263.2 503.94,-257.11 493.37,-256.46 495.27,-263.2"/>
</a>
</g>
</g>
<!-- Node24 -->
<g id="Node000024" class="node">
<title>Node24</title>
<g id="a_Node000024"><a xlink:href="structstrconv__attribute__impl.html#abb4e88a853d1bc28af060f38f3f0f8d3" target="_top" xlink:title=" ">
<polygon fill="white" stroke="#666666" points="617.88,-407 505.88,-407 505.88,-375 617.88,-375 617.88,-407"/>
<text xml:space="preserve" text-anchor="start" x="513.88" y="-393.5" font-family="Helvetica,sans-Serif" font-size="10.00">strconv_attribute_impl</text>
<text xml:space="preserve" text-anchor="middle" x="561.88" y="-381.5" font-family="Helvetica,sans-Serif" font-size="10.00">::parse_wconv</text>
</a>
</g>
</g>
<!-- Node15&#45;&gt;Node24 -->
<g id="edge26_Node000015_Node000024" class="edge">
<title>Node15&#45;&gt;Node24</title>
<g id="a_edge26_Node000015_Node000024"><a xlink:title=" ">
<path fill="none" stroke="#63b8ff" d="M397.15,-301.29C417.26,-316.83 457.46,-346.52 495,-366 497.66,-367.38 500.41,-368.72 503.21,-370.02"/>
<polygon fill="#63b8ff" stroke="#63b8ff" points="501.56,-373.12 512.12,-373.94 504.38,-366.71 501.56,-373.12"/>
</a>
</g>
</g>
<!-- Node25 -->
<g id="Node000025" class="node">
<title>Node25</title>
<g id="a_Node000025"><a xlink:href="structstrconv__attribute__impl.html#a9e45f050f2526ac299cbc5adf4de442b" target="_top" xlink:title=" ">
<polygon fill="white" stroke="#666666" points="617.88,-357 505.88,-357 505.88,-325 617.88,-325 617.88,-357"/>
<text xml:space="preserve" text-anchor="start" x="513.88" y="-343.5" font-family="Helvetica,sans-Serif" font-size="10.00">strconv_attribute_impl</text>
<text xml:space="preserve" text-anchor="middle" x="561.88" y="-331.5" font-family="Helvetica,sans-Serif" font-size="10.00">::parse_wnorm</text>
</a>
</g>
</g>
<!-- Node15&#45;&gt;Node25 -->
<g id="edge30_Node000015_Node000025" class="edge">
<title>Node15&#45;&gt;Node25</title>
<g id="a_edge30_Node000015_Node000025"><a xlink:title=" ">
<path fill="none" stroke="#63b8ff" d="M421.18,-301.48C442.43,-307.49 469.74,-315.22 494.57,-322.24"/>
<polygon fill="#63b8ff" stroke="#63b8ff" points="493.37,-325.54 503.94,-324.89 495.27,-318.8 493.37,-325.54"/>
</a>
</g>
</g>
<!-- Node17 -->
<g id="Node000017" class="node">
<title>Node17</title>
<g id="a_Node000017"><a xlink:href="structgap.html#a7d5e84d56dbeef1310977fe1ecec5ded" target="_top" xlink:title=" ">
<polygon fill="white" stroke="#666666" points="761,-239 702.25,-239 702.25,-219 761,-219 761,-239"/>
<text xml:space="preserve" text-anchor="middle" x="731.62" y="-225.5" font-family="Helvetica,sans-Serif" font-size="10.00">gap::flush</text>
</a>
</g>
</g>
<!-- Node16&#45;&gt;Node17 -->
<g id="edge16_Node000016_Node000017" class="edge">
<title>Node16&#45;&gt;Node17</title>
<g id="a_edge16_Node000016_Node000017"><a xlink:title=" ">
<path fill="none" stroke="#63b8ff" d="M606.72,-274.56C624.7,-267.84 645.71,-260.02 664.75,-253 673.34,-249.83 682.57,-246.45 691.33,-243.26"/>
<polygon fill="#63b8ff" stroke="#63b8ff" points="692.45,-246.58 700.65,-239.87 690.06,-240 692.45,-246.58"/>
</a>
</g>
</g>
<!-- Node18 -->
<g id="Node000018" class="node">
<title>Node18</title>
<g id="a_Node000018"><a xlink:href="structgap.html#a9c0d0b12bc778c8439c8aec7747ab2b0" target="_top" xlink:title=" ">
<polygon fill="white" stroke="#666666" points="920.62,-277 861.88,-277 861.88,-257 920.62,-257 920.62,-277"/>
<text xml:space="preserve" text-anchor="middle" x="891.25" y="-263.5" font-family="Helvetica,sans-Serif" font-size="10.00">gap::push</text>
</a>
</g>
</g>
<!-- Node16&#45;&gt;Node18 -->
<g id="edge17_Node000016_Node000018" class="edge">
<title>Node16&#45;&gt;Node18</title>
<g id="a_edge17_Node000016_Node000018"><a xlink:title=" ">
<path fill="none" stroke="#63b8ff" d="M618.04,-286.96C683.84,-282.13 792.24,-274.19 850.41,-269.92"/>
<polygon fill="#63b8ff" stroke="#63b8ff" points="850.46,-273.43 860.18,-269.2 849.95,-266.45 850.46,-273.43"/>
</a>
</g>
</g>
<!-- Node19 -->
<g id="Node000019" class="node">
<title>Node19</title>
<g id="a_Node000019"><a xlink:href="pugixml_8cpp.html#a27b2a01a0bee31f8526055bdf590e42c" target="_top" xlink:title=" ">
<polygon fill="white" stroke="#666666" points="774.12,-315 689.12,-315 689.12,-295 774.12,-295 774.12,-315"/>
<text xml:space="preserve" text-anchor="middle" x="731.62" y="-301.5" font-family="Helvetica,sans-Serif" font-size="10.00">strconv_escape</text>
</a>
</g>
</g>
<!-- Node16&#45;&gt;Node19 -->
<g id="edge18_Node000016_Node000019" class="edge">
<title>Node16&#45;&gt;Node19</title>
<g id="a_edge18_Node000016_Node000019"><a xlink:title=" ">
<path fill="none" stroke="#63b8ff" d="M618.27,-295.62C637.31,-297.21 658.58,-298.99 677.45,-300.56"/>
<polygon fill="#63b8ff" stroke="#63b8ff" points="677.08,-304.04 687.34,-301.39 677.66,-297.07 677.08,-304.04"/>
</a>
</g>
</g>
<!-- Node19&#45;&gt;Node18 -->
<g id="edge22_Node000019_Node000018" class="edge">
<title>Node19&#45;&gt;Node18</title>
<g id="a_edge22_Node000019_Node000018"><a xlink:title=" ">
<path fill="none" stroke="#63b8ff" d="M774.45,-294.92C798.01,-289.24 827.28,-282.18 850.5,-276.58"/>
<polygon fill="#63b8ff" stroke="#63b8ff" points="851.32,-279.99 860.22,-274.24 849.68,-273.18 851.32,-279.99"/>
</a>
</g>
</g>
<!-- Node20 -->
<g id="Node000020" class="node">
<title>Node20</title>
<g id="a_Node000020"><a xlink:href="structutf8__writer.html#a288e9c5f3720b95ae6b77330ad38dd56" target="_top" xlink:title=" ">
<polygon fill="white" stroke="#666666" points="933,-315 849.5,-315 849.5,-295 933,-295 933,-315"/>
<text xml:space="preserve" text-anchor="middle" x="891.25" y="-301.5" font-family="Helvetica,sans-Serif" font-size="10.00">utf8_writer::any</text>
</a>
</g>
</g>
<!-- Node19&#45;&gt;Node20 -->
<g id="edge19_Node000019_Node000020" class="edge">
<title>Node19&#45;&gt;Node20</title>
<g id="a_edge19_Node000019_Node000020"><a xlink:title=" ">
<path fill="none" stroke="#63b8ff" d="M774.45,-305C793.83,-305 817.07,-305 837.63,-305"/>
<polygon fill="#63b8ff" stroke="#63b8ff" points="837.53,-308.5 847.53,-305 837.53,-301.5 837.53,-308.5"/>
</a>
</g>
</g>
<!-- Node21 -->
<g id="Node000021" class="node">
<title>Node21</title>
<g id="a_Node000021"><a xlink:href="structutf8__writer.html#ac03dfaf797d599afdf0be7def86ff9b9" target="_top" xlink:title=" ">
<polygon fill="white" stroke="#666666" points="1083.62,-296 997.88,-296 997.88,-276 1083.62,-276 1083.62,-296"/>
<text xml:space="preserve" text-anchor="middle" x="1040.75" y="-282.5" font-family="Helvetica,sans-Serif" font-size="10.00">utf8_writer::high</text>
</a>
</g>
</g>
<!-- Node20&#45;&gt;Node21 -->
<g id="edge20_Node000020_Node000021" class="edge">
<title>Node20&#45;&gt;Node21</title>
<g id="a_edge20_Node000020_Node000021"><a xlink:title=" ">
<path fill="none" stroke="#63b8ff" d="M933.34,-299.71C949.77,-297.59 968.91,-295.12 986.4,-292.87"/>
<polygon fill="#63b8ff" stroke="#63b8ff" points="986.63,-296.37 996.1,-291.62 985.73,-289.43 986.63,-296.37"/>
</a>
</g>
</g>
<!-- Node22 -->
<g id="Node000022" class="node">
<title>Node22</title>
<g id="a_Node000022"><a xlink:href="structutf8__writer.html#ac4ec52da6f37225ba4fde259bff2f86c" target="_top" xlink:title=" ">
<polygon fill="white" stroke="#666666" points="1082.12,-334 999.38,-334 999.38,-314 1082.12,-314 1082.12,-334"/>
<text xml:space="preserve" text-anchor="middle" x="1040.75" y="-320.5" font-family="Helvetica,sans-Serif" font-size="10.00">utf8_writer::low</text>
</a>
</g>
</g>
<!-- Node20&#45;&gt;Node22 -->
<g id="edge21_Node000020_Node000022" class="edge">
<title>Node20&#45;&gt;Node22</title>
<g id="a_edge21_Node000020_Node000022"><a xlink:title=" ">
<path fill="none" stroke="#63b8ff" d="M933.34,-310.29C950.12,-312.45 969.73,-314.98 987.51,-317.27"/>
<polygon fill="#63b8ff" stroke="#63b8ff" points="987.02,-320.74 997.38,-318.54 987.91,-313.79 987.02,-320.74"/>
</a>
</g>
</g>
<!-- Node23&#45;&gt;Node17 -->
<g id="edge24_Node000023_Node000017" class="edge">
<title>Node23&#45;&gt;Node17</title>
<g id="a_edge24_Node000023_Node000017"><a xlink:title=" ">
<path fill="none" stroke="#63b8ff" d="M618.27,-237.04C641.94,-235.34 669.05,-233.4 690.71,-231.86"/>
<polygon fill="#63b8ff" stroke="#63b8ff" points="690.89,-235.35 700.61,-231.15 690.39,-228.37 690.89,-235.35"/>
</a>
</g>
</g>
<!-- Node23&#45;&gt;Node19 -->
<g id="edge25_Node000023_Node000019" class="edge">
<title>Node23&#45;&gt;Node19</title>
<g id="a_edge25_Node000023_Node000019"><a xlink:title=" ">
<path fill="none" stroke="#63b8ff" d="M606.11,-257.39C613.66,-260.25 621.43,-263.21 628.75,-266 649.9,-274.06 673.52,-283.1 692.68,-290.44"/>
<polygon fill="#63b8ff" stroke="#63b8ff" points="691.39,-293.7 701.98,-294.01 693.89,-287.16 691.39,-293.7"/>
</a>
</g>
</g>
<!-- Node24&#45;&gt;Node17 -->
<g id="edge27_Node000024_Node000017" class="edge">
<title>Node24&#45;&gt;Node17</title>
<g id="a_edge27_Node000024_Node000017"><a xlink:title=" ">
<path fill="none" stroke="#63b8ff" d="M617.14,-374.61C621.33,-372.12 625.28,-369.27 628.75,-366 657.14,-339.27 641.46,-317.27 664.75,-286 676.16,-270.68 692.35,-256.6 705.83,-246.26"/>
<polygon fill="#63b8ff" stroke="#63b8ff" points="707.88,-249.1 713.84,-240.34 703.72,-243.47 707.88,-249.1"/>
</a>
</g>
</g>
<!-- Node24&#45;&gt;Node18 -->
<g id="edge28_Node000024_Node000018" class="edge">
<title>Node24&#45;&gt;Node18</title>
<g id="a_edge28_Node000024_Node000018"><a xlink:title=" ">
<path fill="none" stroke="#63b8ff" d="M617.98,-394.59C669.26,-395.14 745.52,-388.55 798.5,-351 825.44,-331.9 809.17,-307.19 834.5,-286 839.3,-281.98 845,-278.8 850.89,-276.28"/>
<polygon fill="#63b8ff" stroke="#63b8ff" points="851.9,-279.64 860.11,-272.94 849.52,-273.05 851.9,-279.64"/>
</a>
</g>
</g>
<!-- Node24&#45;&gt;Node19 -->
<g id="edge29_Node000024_Node000019" class="edge">
<title>Node24&#45;&gt;Node19</title>
<g id="a_edge29_Node000024_Node000019"><a xlink:title=" ">
<path fill="none" stroke="#63b8ff" d="M609.38,-374.53C615.97,-371.86 622.59,-368.99 628.75,-366 656.05,-352.78 685.62,-334.6 705.84,-321.54"/>
<polygon fill="#63b8ff" stroke="#63b8ff" points="707.5,-324.63 713.96,-316.23 703.67,-318.77 707.5,-324.63"/>
</a>
</g>
</g>
<!-- Node25&#45;&gt;Node17 -->
<g id="edge31_Node000025_Node000017" class="edge">
<title>Node25&#45;&gt;Node17</title>
<g id="a_edge31_Node000025_Node000017"><a xlink:title=" ">
<path fill="none" stroke="#63b8ff" d="M611.97,-324.54C617.77,-321.97 623.49,-319.12 628.75,-316 633.26,-313.33 682.04,-271.19 710.43,-246.55"/>
<polygon fill="#63b8ff" stroke="#63b8ff" points="712.45,-249.43 717.71,-240.23 707.86,-244.15 712.45,-249.43"/>
</a>
</g>
</g>
<!-- Node25&#45;&gt;Node18 -->
<g id="edge32_Node000025_Node000018" class="edge">
<title>Node25&#45;&gt;Node18</title>
<g id="a_edge32_Node000025_Node000018"><a xlink:title=" ">
<path fill="none" stroke="#63b8ff" d="M618.1,-347.93C667.74,-351.69 741.42,-351.03 798.5,-324 819.53,-314.04 814.92,-298.56 834.5,-286 839.48,-282.8 845.06,-280.08 850.71,-277.78"/>
<polygon fill="#63b8ff" stroke="#63b8ff" points="851.9,-281.08 860.11,-274.38 849.52,-274.49 851.9,-281.08"/>
</a>
</g>
</g>
<!-- Node25&#45;&gt;Node19 -->
<g id="edge33_Node000025_Node000019" class="edge">
<title>Node25&#45;&gt;Node19</title>
<g id="a_edge33_Node000025_Node000019"><a xlink:title=" ">
<path fill="none" stroke="#63b8ff" d="M618.27,-329.11C637.4,-325.01 658.78,-320.42 677.72,-316.35"/>
<polygon fill="#63b8ff" stroke="#63b8ff" points="678.32,-319.8 687.36,-314.28 676.85,-312.96 678.32,-319.8"/>
</a>
</g>
</g>
<!-- Node27 -->
<g id="Node000027" class="node">
<title>Node27</title>
<g id="a_Node000027"><a xlink:href="structstrconv__pcdata__impl.html#a7f14166de54e30596aa4e398568b4a5f" target="_top" xlink:title=" ">
<polygon fill="white" stroke="#666666" points="614.88,-207 508.88,-207 508.88,-175 614.88,-175 614.88,-207"/>
<text xml:space="preserve" text-anchor="start" x="516.88" y="-193.5" font-family="Helvetica,sans-Serif" font-size="10.00">strconv_pcdata_impl</text>
<text xml:space="preserve" text-anchor="middle" x="561.88" y="-181.5" font-family="Helvetica,sans-Serif" font-size="10.00">::parse</text>
</a>
</g>
</g>
<!-- Node26&#45;&gt;Node27 -->
<g id="edge35_Node000026_Node000027" class="edge">
<title>Node26&#45;&gt;Node27</title>
<g id="a_edge35_Node000026_Node000027"><a xlink:title=" ">
<path fill="none" stroke="#63b8ff" d="M434.3,-188.85C453.85,-189.18 476.48,-189.57 497.16,-189.92"/>
<polygon fill="#63b8ff" stroke="#63b8ff" points="496.84,-193.41 506.9,-190.08 496.96,-186.41 496.84,-193.41"/>
</a>
</g>
</g>
<!-- Node27&#45;&gt;Node17 -->
<g id="edge36_Node000027_Node000017" class="edge">
<title>Node27&#45;&gt;Node17</title>
<g id="a_edge36_Node000027_Node000017"><a xlink:title=" ">
<path fill="none" stroke="#63b8ff" d="M615.03,-202.82C639.55,-208.37 668.31,-214.88 691.01,-220.03"/>
<polygon fill="#63b8ff" stroke="#63b8ff" points="689.94,-223.37 700.47,-222.17 691.49,-216.55 689.94,-223.37"/>
</a>
</g>
</g>
<!-- Node27&#45;&gt;Node18 -->
<g id="edge37_Node000027_Node000018" class="edge">
<title>Node27&#45;&gt;Node18</title>
<g id="a_edge37_Node000027_Node000018"><a xlink:title=" ">
<path fill="none" stroke="#63b8ff" d="M615.28,-188.25C663.97,-187.31 737.89,-190.04 798.5,-210 824.8,-218.66 851.28,-236.29 868.99,-249.67"/>
<polygon fill="#63b8ff" stroke="#63b8ff" points="866.63,-252.27 876.67,-255.65 870.93,-246.74 866.63,-252.27"/>
</a>
</g>
</g>
<!-- Node27&#45;&gt;Node19 -->
<g id="edge38_Node000027_Node000019" class="edge">
<title>Node27&#45;&gt;Node19</title>
<g id="a_edge38_Node000027_Node000019"><a xlink:title=" ">
<path fill="none" stroke="#63b8ff" d="M612.03,-207.36C617.82,-209.95 623.52,-212.83 628.75,-216 647.06,-227.09 648.66,-233.88 664.75,-248 679.76,-261.16 696.8,-275.9 709.79,-287.09"/>
<polygon fill="#63b8ff" stroke="#63b8ff" points="707.43,-289.68 717.29,-293.56 712,-284.38 707.43,-289.68"/>
</a>
</g>
</g>
<!-- Node29 -->
<g id="Node000029" class="node">
<title>Node29</title>
<g id="a_Node000029"><a xlink:href="structxml__parser.html#a85625c095f072a9938d0e47cf468de6b" target="_top" xlink:title=" ">
<polygon fill="white" stroke="#666666" points="628.75,-81 495,-81 495,-49 628.75,-49 628.75,-81"/>
<text xml:space="preserve" text-anchor="start" x="503" y="-67.5" font-family="Helvetica,sans-Serif" font-size="10.00">xml_parser::parse_doctype</text>
<text xml:space="preserve" text-anchor="middle" x="561.88" y="-55.5" font-family="Helvetica,sans-Serif" font-size="10.00">_group</text>
</a>
</g>
</g>
<!-- Node28&#45;&gt;Node29 -->
<g id="edge40_Node000028_Node000029" class="edge">
<title>Node28&#45;&gt;Node29</title>
<g id="a_edge40_Node000028_Node000029"><a xlink:title=" ">
<path fill="none" stroke="#63b8ff" d="M440.4,-138.62C446.91,-136.3 453.26,-133.47 459,-130 479.47,-117.64 475.26,-103.51 495,-90 496.6,-88.91 498.25,-87.85 499.94,-86.84"/>
<polygon fill="#63b8ff" stroke="#63b8ff" points="501.5,-89.98 508.66,-82.17 498.19,-83.81 501.5,-89.98"/>
</a>
</g>
</g>
<!-- Node32 -->
<g id="Node000032" class="node">
<title>Node32</title>
<g id="a_Node000032"><a xlink:href="pugixml_8cpp.html#a17c42195ecf9b84b34bfb53b5c6480b8" target="_top" xlink:title=" ">
<polygon fill="white" stroke="#666666" points="600.62,-157 523.12,-157 523.12,-137 600.62,-137 600.62,-157"/>
<text xml:space="preserve" text-anchor="middle" x="561.88" y="-143.5" font-family="Helvetica,sans-Serif" font-size="10.00">strconv_cdata</text>
</a>
</g>
</g>
<!-- Node28&#45;&gt;Node32 -->
<g id="edge43_Node000028_Node000032" class="edge">
<title>Node28&#45;&gt;Node32</title>
<g id="a_edge43_Node000028_Node000032"><a xlink:title=" ">
<path fill="none" stroke="#63b8ff" d="M459.34,-148.15C477.03,-147.95 495.44,-147.74 511.65,-147.56"/>
<polygon fill="#63b8ff" stroke="#63b8ff" points="511.55,-151.06 521.51,-147.45 511.47,-144.06 511.55,-151.06"/>
</a>
</g>
</g>
<!-- Node33 -->
<g id="Node000033" class="node">
<title>Node33</title>
<g id="a_Node000033"><a xlink:href="pugixml_8cpp.html#a80f240310448aefa4adcb0a929db6462" target="_top" xlink:title=" ">
<polygon fill="white" stroke="#666666" points="608.88,-119 514.88,-119 514.88,-99 608.88,-99 608.88,-119"/>
<text xml:space="preserve" text-anchor="middle" x="561.88" y="-105.5" font-family="Helvetica,sans-Serif" font-size="10.00">strconv_comment</text>
</a>
</g>
</g>
<!-- Node28&#45;&gt;Node33 -->
<g id="edge46_Node000028_Node000033" class="edge">
<title>Node28&#45;&gt;Node33</title>
<g id="a_edge46_Node000028_Node000033"><a xlink:title=" ">
<path fill="none" stroke="#63b8ff" d="M430.1,-138.59C452.53,-133.52 479.73,-127.36 503.51,-121.98"/>
<polygon fill="#63b8ff" stroke="#63b8ff" points="504.06,-125.45 513.04,-119.83 502.51,-118.62 504.06,-125.45"/>
</a>
</g>
</g>
<!-- Node30 -->
<g id="Node000030" class="node">
<title>Node30</title>
<g id="a_Node000030"><a xlink:href="structxml__parser.html#a93f0e9c20ffd16c42a287e687a359a0c" target="_top" xlink:title=" ">
<polygon fill="white" stroke="#666666" points="798.5,-32 664.75,-32 664.75,0 798.5,0 798.5,-32"/>
<text xml:space="preserve" text-anchor="start" x="672.75" y="-18.5" font-family="Helvetica,sans-Serif" font-size="10.00">xml_parser::parse_doctype</text>
<text xml:space="preserve" text-anchor="middle" x="731.62" y="-6.5" font-family="Helvetica,sans-Serif" font-size="10.00">_ignore</text>
</a>
</g>
</g>
<!-- Node29&#45;&gt;Node30 -->
<g id="edge41_Node000029_Node000030" class="edge">
<title>Node29&#45;&gt;Node30</title>
<g id="a_edge41_Node000029_Node000030"><a xlink:title=" ">
<path fill="none" stroke="#63b8ff" d="M619.2,-48.55C633.31,-44.43 648.59,-39.96 663.17,-35.7"/>
<polygon fill="#63b8ff" stroke="#63b8ff" points="664.09,-39.08 672.71,-32.92 662.13,-32.36 664.09,-39.08"/>
</a>
</g>
</g>
<!-- Node31 -->
<g id="Node000031" class="node">
<title>Node31</title>
<g id="a_Node000031"><a xlink:href="structxml__parser.html#a09210dea8745d4d4c45ebb1e1a9211d0" target="_top" xlink:title=" ">
<polygon fill="white" stroke="#666666" points="798.5,-82 664.75,-82 664.75,-50 798.5,-50 798.5,-82"/>
<text xml:space="preserve" text-anchor="start" x="672.75" y="-68.5" font-family="Helvetica,sans-Serif" font-size="10.00">xml_parser::parse_doctype</text>
<text xml:space="preserve" text-anchor="middle" x="731.62" y="-56.5" font-family="Helvetica,sans-Serif" font-size="10.00">_primitive</text>
</a>
</g>
</g>
<!-- Node29&#45;&gt;Node31 -->
<g id="edge42_Node000029_Node000031" class="edge">
<title>Node29&#45;&gt;Node31</title>
<g id="a_edge42_Node000029_Node000031"><a xlink:title=" ">
<path fill="none" stroke="#63b8ff" d="M629.17,-65.4C636.93,-65.44 644.89,-65.49 652.78,-65.54"/>
<polygon fill="#63b8ff" stroke="#63b8ff" points="652.72,-69.04 662.74,-65.6 652.77,-62.04 652.72,-69.04"/>
</a>
</g>
</g>
<!-- Node32&#45;&gt;Node17 -->
<g id="edge44_Node000032_Node000017" class="edge">
<title>Node32&#45;&gt;Node17</title>
<g id="a_edge44_Node000032_Node000017"><a xlink:title=" ">
<path fill="none" stroke="#63b8ff" d="M600.78,-156.02C610.1,-158.76 619.94,-162.09 628.75,-166 657.37,-178.69 687.57,-198.25 707.58,-212.2"/>
<polygon fill="#63b8ff" stroke="#63b8ff" points="705.38,-214.93 715.56,-217.86 709.43,-209.22 705.38,-214.93"/>
</a>
</g>
</g>
<!-- Node32&#45;&gt;Node18 -->
<g id="edge45_Node000032_Node000018" class="edge">
<title>Node32&#45;&gt;Node18</title>
<g id="a_edge45_Node000032_Node000018"><a xlink:title=" ">
<path fill="none" stroke="#63b8ff" d="M600.71,-146.67C648.93,-147.65 733.79,-154.17 798.5,-185 829.68,-199.86 858.08,-228.66 874.76,-247.86"/>
<polygon fill="#63b8ff" stroke="#63b8ff" points="872.08,-250.11 881.2,-255.5 877.43,-245.6 872.08,-250.11"/>
</a>
</g>
</g>
<!-- Node33&#45;&gt;Node17 -->
<g id="edge47_Node000033_Node000017" class="edge">
<title>Node33&#45;&gt;Node17</title>
<g id="a_edge47_Node000033_Node000017"><a xlink:title=" ">
<path fill="none" stroke="#63b8ff" d="M609.11,-119.12C615.93,-121.52 622.69,-124.44 628.75,-128 665.23,-149.42 698.15,-186.88 716.18,-209.67"/>
<polygon fill="#63b8ff" stroke="#63b8ff" points="713.36,-211.74 722.24,-217.52 718.9,-207.46 713.36,-211.74"/>
</a>
</g>
</g>
<!-- Node33&#45;&gt;Node18 -->
<g id="edge48_Node000033_Node000018" class="edge">
<title>Node33&#45;&gt;Node18</title>
<g id="a_edge48_Node000033_Node000018"><a xlink:title=" ">
<path fill="none" stroke="#63b8ff" d="M609.24,-106.69C659.39,-106.3 740,-112.02 798.5,-147 838.26,-170.78 866.84,-218.88 880.73,-246.42"/>
<polygon fill="#63b8ff" stroke="#63b8ff" points="877.45,-247.68 884.97,-255.15 883.75,-244.62 877.45,-247.68"/>
</a>
</g>
</g>
</g>
</svg>

<g id="navigator" transform="translate(0 0)" fill="#404254">
  <rect fill="#f2f5e9" fill-opacity="0.5" stroke="#606060" stroke-width=".5" x="0" y="0" width="60" height="60"/>
  <use id="zoomplus" xlink:href="#zoomPlus" x="17" y="9" onmousedown="handleZoom(evt,'in')"/>
  <use id="zoomminus" xlink:href="#zoomMin" x="42" y="9" onmousedown="handleZoom(evt,'out')"/>
  <use id="reset" xlink:href="#resetDef" x="30" y="36" onmousedown="handleReset()"/>
   <use id="arrowup" xlink:href="#arrowUp" x="0" y="0" onmousedown="handlePan(0,-1)"/>
  <use id="arrowright" xlink:href="#arrowRight" x="0" y="0" onmousedown="handlePan(1,0)"/>
  <use id="arrowdown" xlink:href="#arrowDown" x="0" y="0" onmousedown="handlePan(0,1)"/>
  <use id="arrowleft" xlink:href="#arrowLeft" x="0" y="0" onmousedown="handlePan(-1,0)"/>
</g>
<svg viewBox="0 0 15 15" width="100%" height="30px" preserveAspectRatio="xMaxYMin meet">
 <g id="arrow_out" transform="scale(0.3 0.3)">
  <a xlink:href="structxml__parser_a4bf0acd166edf3fc6cc9543002ff6f5d_cgraph_org.svg" target="_base">
   <rect id="button" ry="5" rx="5" y="6" x="6" height="38" width="38"
        fill="#f2f5e9" fill-opacity="0.5" stroke="#606060" stroke-width="1.0"/>
   <path id="arrow"
     d="M 11.500037,31.436501 C 11.940474,20.09759 22.043105,11.32322 32.158766,21.979434 L 37.068811,17.246167 C 37.068811,17.246167 37.088388,32 37.088388,32 L 22.160133,31.978069 C 22.160133,31.978069 26.997745,27.140456 26.997745,27.140456 C 18.528582,18.264221 13.291696,25.230495 11.500037,31.436501 z"
     style="fill:#404040;"/>
  </a>
 </g>
</svg>

<style type='text/css'>
<![CDATA[
[data-mouse-over-selected='false'] { opacity: 0.7; }
[data-mouse-over-selected='true']  { opacity: 1.0; }
]]>
</style>
<script type="application/ecmascript"><![CDATA[
document.addEventListener('DOMContentLoaded', (event) => {
  highlightEdges();
  highlightAdjacentNodes();
});
]]></script>
</svg>
