<?xml version="1.0" encoding="UTF-8" standalone="no"?>
<!DOCTYPE svg PUBLIC "-//W3C//DTD SVG 1.1//EN"
 "http://www.w3.org/Graphics/SVG/1.1/DTD/svg11.dtd">
<!-- Generated by graphviz version 14.1.2 (20260124.0452)
 -->
<!-- Title: strconv_attribute_impl::parse_wnorm Pages: 1 -->
<svg width="482pt" height="123pt"
 viewBox="0.00 0.00 482.00 123.00" xmlns="http://www.w3.org/2000/svg" xmlns:xlink="http://www.w3.org/1999/xlink">
<g id="graph0" class="graph" transform="scale(1 1) rotate(0) translate(4 119)">
<title>strconv_attribute_impl::parse_wnorm</title>
<!-- Node1 -->
<g id="Node000001" class="node">
<title>Node1</title>
<g id="a_Node000001"><a xlink:title=" ">
<polygon fill="#999999" stroke="#666666" points="112,-83 0,-83 0,-51 112,-51 112,-83"/>
<text xml:space="preserve" text-anchor="start" x="8" y="-69.5" font-family="Helvetica,sans-Serif" font-size="10.00">strconv_attribute_impl</text>
<text xml:space="preserve" text-anchor="middle" x="56" y="-57.5" font-family="Helvetica,sans-Serif" font-size="10.00">::parse_wnorm</text>
</a>
</g>
</g>
<!-- Node2 -->
<g id="Node000002" class="node">
<title>Node2</title>
<g id="a_Node000002"><a xlink:href="structgap.html#a7d5e84d56dbeef1310977fe1ecec5ded" target="_top" xlink:title=" ">
<polygon fill="white" stroke="#666666" points="219.88,-115 161.12,-115 161.12,-95 219.88,-95 219.88,-115"/>
<text xml:space="preserve" text-anchor="middle" x="190.5" y="-101.5" font-family="Helvetica,sans-Serif" font-size="10.00">gap::flush</text>
</a>
</g>
</g>
<!-- Node1&#45;&gt;Node2 -->
<g id="edge1_Node000001_Node000002" class="edge">
<title>Node1&#45;&gt;Node2</title>
<g id="a_edge1_Node000001_Node000002"><a xlink:title=" ">
<path fill="none" stroke="#63b8ff" d="M112.42,-82.9C125,-86.5 138.11,-90.26 149.88,-93.64"/>
<polygon fill="#63b8ff" stroke="#63b8ff" points="148.65,-96.93 159.23,-96.32 150.58,-90.2 148.65,-96.93"/>
</a>
</g>
</g>
<!-- Node3 -->
<g id="Node000003" class="node">
<title>Node3</title>
<g id="a_Node000003"><a xlink:href="structgap.html#a9c0d0b12bc778c8439c8aec7747ab2b0" target="_top" xlink:title=" ">
<polygon fill="white" stroke="#666666" points="340.12,-77 281.38,-77 281.38,-57 340.12,-57 340.12,-77"/>
<text xml:space="preserve" text-anchor="middle" x="310.75" y="-63.5" font-family="Helvetica,sans-Serif" font-size="10.00">gap::push</text>
</a>
</g>
</g>
<!-- Node1&#45;&gt;Node3 -->
<g id="edge2_Node000001_Node000003" class="edge">
<title>Node1&#45;&gt;Node3</title>
<g id="a_edge2_Node000001_Node000003"><a xlink:title=" ">
<path fill="none" stroke="#63b8ff" d="M112.47,-67C160.02,-67 227.37,-67 269.8,-67"/>
<polygon fill="#63b8ff" stroke="#63b8ff" points="269.55,-70.5 279.55,-67 269.55,-63.5 269.55,-70.5"/>
</a>
</g>
</g>
<!-- Node4 -->
<g id="Node000004" class="node">
<title>Node4</title>
<g id="a_Node000004"><a xlink:href="pugixml_8cpp.html#a27b2a01a0bee31f8526055bdf590e42c" target="_top" xlink:title=" ">
<polygon fill="white" stroke="#666666" points="233,-39 148,-39 148,-19 233,-19 233,-39"/>
<text xml:space="preserve" text-anchor="middle" x="190.5" y="-25.5" font-family="Helvetica,sans-Serif" font-size="10.00">strconv_escape</text>
</a>
</g>
</g>
<!-- Node1&#45;&gt;Node4 -->
<g id="edge3_Node000001_Node000004" class="edge">
<title>Node1&#45;&gt;Node4</title>
<g id="a_edge3_Node000001_Node000004"><a xlink:title=" ">
<path fill="none" stroke="#63b8ff" d="M112.42,-51.1C122.31,-48.27 132.53,-45.34 142.17,-42.57"/>
<polygon fill="#63b8ff" stroke="#63b8ff" points="143.05,-45.96 151.7,-39.84 141.12,-39.23 143.05,-45.96"/>
</a>
</g>
</g>
<!-- Node4&#45;&gt;Node3 -->
<g id="edge7_Node000004_Node000003" class="edge">
<title>Node4&#45;&gt;Node3</title>
<g id="a_edge7_Node000004_Node000003"><a xlink:title=" ">
<path fill="none" stroke="#63b8ff" d="M224.13,-39.48C238.54,-44.12 255.6,-49.6 270.68,-54.45"/>
<polygon fill="#63b8ff" stroke="#63b8ff" points="269.22,-57.65 279.81,-57.38 271.36,-50.99 269.22,-57.65"/>
</a>
</g>
</g>
<!-- Node5 -->
<g id="Node000005" class="node">
<title>Node5</title>
<g id="a_Node000005"><a xlink:href="structutf8__writer.html#a288e9c5f3720b95ae6b77330ad38dd56" target="_top" xlink:title=" ">
<polygon fill="white" stroke="#666666" points="352.5,-39 269,-39 269,-19 352.5,-19 352.5,-39"/>
<text xml:space="preserve" text-anchor="middle" x="310.75" y="-25.5" font-family="Helvetica,sans-Serif" font-size="10.00">utf8_writer::any</text>
</a>
</g>
</g>
<!-- Node4&#45;&gt;Node5 -->
<g id="edge4_Node000004_Node000005" class="edge">
<title>Node4&#45;&gt;Node5</title>
<g id="a_edge4_Node000004_Node000005"><a xlink:title=" ">
<path fill="none" stroke="#63b8ff" d="M233.19,-29C241.05,-29 249.37,-29 257.51,-29"/>
<polygon fill="#63b8ff" stroke="#63b8ff" points="257.32,-32.5 267.32,-29 257.32,-25.5 257.32,-32.5"/>
</a>
</g>
</g>
<!-- Node6 -->
<g id="Node000006" class="node">
<title>Node6</title>
<g id="a_Node000006"><a xlink:href="structutf8__writer.html#ac03dfaf797d599afdf0be7def86ff9b9" target="_top" xlink:title=" ">
<polygon fill="white" stroke="#666666" points="474.25,-58 388.5,-58 388.5,-38 474.25,-38 474.25,-58"/>
<text xml:space="preserve" text-anchor="middle" x="431.38" y="-44.5" font-family="Helvetica,sans-Serif" font-size="10.00">utf8_writer::high</text>
</a>
</g>
</g>
<!-- Node5&#45;&gt;Node6 -->
<g id="edge5_Node000005_Node000006" class="edge">
<title>Node5&#45;&gt;Node6</title>
<g id="a_edge5_Node000005_Node000006"><a xlink:title=" ">
<path fill="none" stroke="#63b8ff" d="M352.91,-35.59C360.64,-36.83 368.83,-38.14 376.87,-39.43"/>
<polygon fill="#63b8ff" stroke="#63b8ff" points="376.16,-42.86 386.59,-40.99 377.27,-35.95 376.16,-42.86"/>
</a>
</g>
</g>
<!-- Node7 -->
<g id="Node000007" class="node">
<title>Node7</title>
<g id="a_Node000007"><a xlink:href="structutf8__writer.html#ac4ec52da6f37225ba4fde259bff2f86c" target="_top" xlink:title=" ">
<polygon fill="white" stroke="#666666" points="472.75,-20 390,-20 390,0 472.75,0 472.75,-20"/>
<text xml:space="preserve" text-anchor="middle" x="431.38" y="-6.5" font-family="Helvetica,sans-Serif" font-size="10.00">utf8_writer::low</text>
</a>
</g>
</g>
<!-- Node5&#45;&gt;Node7 -->
<g id="edge6_Node000005_Node000007" class="edge">
<title>Node5&#45;&gt;Node7</title>
<g id="a_edge6_Node000005_Node000007"><a xlink:title=" ">
<path fill="none" stroke="#63b8ff" d="M352.91,-22.41C361.19,-21.08 369.99,-19.67 378.58,-18.3"/>
<polygon fill="#63b8ff" stroke="#63b8ff" points="378.88,-21.79 388.2,-16.76 377.77,-14.88 378.88,-21.79"/>
</a>
</g>
</g>
</g>
</svg>
