<?xml version="1.0" encoding="UTF-8" standalone="no"?>
<!DOCTYPE svg PUBLIC "-//W3C//DTD SVG 1.1//EN"
 "http://www.w3.org/Graphics/SVG/1.1/DTD/svg11.dtd">
<!-- Generated by graphviz version 14.1.2 (20260124.0452)
 -->
<!-- Title: xpath_parser::parse_function Pages: 1 -->
<!--zoomable 240 -->

<svg id="main" version="1.1" xmlns="http://www.w3.org/2000/svg" xmlns:xlink="http://www.w3.org/1999/xlink" xml:space="preserve" onload="init(evt)">

<style type="text/css"><![CDATA[
.node, .edge {opacity: 0.7;}
.node.selected, .edge.selected {opacity: 1;}
.edge:hover path { stroke: red; }
.edge:hover polygon { stroke: red; fill: red; }
]]></style>

<defs>
  <circle id="rim" cx="0" cy="0" r="7"/>
  <circle id="rim2" cx="0" cy="0" r="3.5"/>
  <g id="zoomPlus">
    <use xlink:href="#rim" fill="#404040"><set attributeName="fill" to="#808080" begin="zoomplus.mouseover" end="zoomplus.mouseout"/></use>
    <path d="M-4,0h8M0,-4v8" fill="none" stroke="white" stroke-width="1.5" pointer-events="none"/>
  </g>
  <g id="zoomMin">
    <use xlink:href="#rim" fill="#404040"><set attributeName="fill" to="#808080" begin="zoomminus.mouseover" end="zoomminus.mouseout"/></use>
    <path d="M-4,0h8" fill="none" stroke="white" stroke-width="1.5" pointer-events="none"/>
  </g>
  <g id="arrowUp" transform="translate(30 24)">
    <use xlink:href="#rim"/>
    <path pointer-events="none" fill="none" stroke="white" stroke-width="1.5" d="M0,-3.0v7 M-2.5,-0.5L0,-3.0L2.5,-0.5"/>
  </g>
  <g id="arrowRight" transform="rotate(90) translate(36 -43)">
    <use xlink:href="#rim"/>
    <path pointer-events="none" fill="none" stroke="white" stroke-width="1.5" d="M0,-3.0v7 M-2.5,-0.5L0,-3.0L2.5,-0.5"/>
  </g>
  <g id="arrowDown" transform="rotate(180) translate(-30 -48)">
    <use xlink:href="#rim"/>
    <path pointer-events="none" fill="none" stroke="white" stroke-width="1.5" d="M0,-3.0v7 M-2.5,-0.5L0,-3.0L2.5,-0.5"/>
  </g>
  <g id="arrowLeft" transform="rotate(270) translate(-36 17)">
    <use xlink:href="#rim"/>
    <path pointer-events="none" fill="none" stroke="white" stroke-width="1.5" d="M0,-3.0v7 M-2.5,-0.5L0,-3.0L2.5,-0.5"/>
  </g>
  <g id="resetDef">
    <use xlink:href="#rim2" fill="#404040"><set attributeName="fill" to="#808080" begin="reset.mouseover" end="reset.mouseout"/></use>
  </g>
</defs>
<script type="application/ecmascript">
var viewWidth = 1291;
var viewHeight = 240;
var sectionId = 'dynsection-25';
</script>
<script type="application/ecmascript" xlink:href="svg.min.js"/>
<svg id="graph" class="graph">
<g id="viewport">
<title>xpath_parser::parse_function</title>
<!-- Node1 -->
<g id="Node000001" class="node">
<title>Node1</title>
<g id="a_Node000001"><a xlink:title=" ">
<polygon fill="#999999" stroke="#666666" points="1282.5,-32 1180.25,-32 1180.25,0 1282.5,0 1282.5,-32"/>
<text xml:space="preserve" text-anchor="start" x="1188.25" y="-18.5" font-family="Helvetica,sans-Serif" font-size="10.00">xpath_parser::parse</text>
<text xml:space="preserve" text-anchor="middle" x="1231.38" y="-6.5" font-family="Helvetica,sans-Serif" font-size="10.00">_function</text>
</a>
</g>
</g>
<!-- Node2 -->
<g id="Node000002" class="node">
<title>Node2</title>
<g id="a_Node000002"><a xlink:href="structxpath__parser.html#a49cbc6141508ace22ab4b8bd8ddf965a" target="_top" xlink:title=" ">
<polygon fill="white" stroke="#666666" points="1144.25,-32 1038.25,-32 1038.25,0 1144.25,0 1144.25,-32"/>
<text xml:space="preserve" text-anchor="start" x="1046.25" y="-18.5" font-family="Helvetica,sans-Serif" font-size="10.00">xpath_parser::parse</text>
<text xml:space="preserve" text-anchor="middle" x="1091.25" y="-6.5" font-family="Helvetica,sans-Serif" font-size="10.00">_primary_expression</text>
</a>
</g>
</g>
<!-- Node1&#45;&gt;Node2 -->
<g id="edge1_Node000001_Node000002" class="edge">
<title>Node1&#45;&gt;Node2</title>
<g id="a_edge1_Node000001_Node000002"><a xlink:title=" ">
<path fill="none" stroke="#63b8ff" d="M1168.81,-16C1160.72,-16 1152.48,-16 1144.56,-16"/>
<polygon fill="#63b8ff" stroke="#63b8ff" points="1168.6,-19.5 1178.6,-16 1168.6,-12.5 1168.6,-19.5"/>
</a>
</g>
</g>
<!-- Node3 -->
<g id="Node000003" class="node">
<title>Node3</title>
<g id="a_Node000003"><a xlink:href="structxpath__parser.html#a61a425d990a56d5db8cd14405835a5b6" target="_top" xlink:title=" ">
<polygon fill="white" stroke="#666666" points="1002.25,-54 900,-54 900,-22 1002.25,-22 1002.25,-54"/>
<text xml:space="preserve" text-anchor="start" x="908" y="-40.5" font-family="Helvetica,sans-Serif" font-size="10.00">xpath_parser::parse</text>
<text xml:space="preserve" text-anchor="middle" x="951.12" y="-28.5" font-family="Helvetica,sans-Serif" font-size="10.00">_filter_expression</text>
</a>
</g>
</g>
<!-- Node2&#45;&gt;Node3 -->
<g id="edge2_Node000002_Node000003" class="edge">
<title>Node2&#45;&gt;Node3</title>
<g id="a_edge2_Node000002_Node000003"><a xlink:title=" ">
<path fill="none" stroke="#63b8ff" d="M1026.71,-26.12C1018.62,-27.41 1010.43,-28.71 1002.59,-29.96"/>
<polygon fill="#63b8ff" stroke="#63b8ff" points="1027.21,-29.58 1036.54,-24.56 1026.11,-22.67 1027.21,-29.58"/>
</a>
</g>
</g>
<!-- Node4 -->
<g id="Node000004" class="node">
<title>Node4</title>
<g id="a_Node000004"><a xlink:href="structxpath__parser.html#ab5275305ebaac95fd68a3186b737aaa7" target="_top" xlink:title=" ">
<polygon fill="white" stroke="#666666" points="864,-121 728.75,-121 728.75,-89 864,-89 864,-121"/>
<text xml:space="preserve" text-anchor="start" x="736.75" y="-107.5" font-family="Helvetica,sans-Serif" font-size="10.00">xpath_parser::parse</text>
<text xml:space="preserve" text-anchor="middle" x="796.38" y="-95.5" font-family="Helvetica,sans-Serif" font-size="10.00">_path_or_unary_expression</text>
</a>
</g>
</g>
<!-- Node3&#45;&gt;Node4 -->
<g id="edge3_Node000003_Node000004" class="edge">
<title>Node3&#45;&gt;Node4</title>
<g id="a_edge3_Node000003_Node000004"><a xlink:title=" ">
<path fill="none" stroke="#63b8ff" d="M902.4,-58.93C880.64,-68.48 855.25,-79.61 834.89,-88.55"/>
<polygon fill="#63b8ff" stroke="#63b8ff" points="903.62,-62.22 911.37,-55 900.81,-55.81 903.62,-62.22"/>
</a>
</g>
</g>
<!-- Node5 -->
<g id="Node000005" class="node">
<title>Node5</title>
<g id="a_Node000005"><a xlink:href="structxpath__parser.html#a7738e256011ca842dc2a0beba78562ed" target="_top" xlink:title=" ">
<polygon fill="white" stroke="#666666" points="554.5,-95 452.25,-95 452.25,-63 554.5,-63 554.5,-95"/>
<text xml:space="preserve" text-anchor="start" x="460.25" y="-81.5" font-family="Helvetica,sans-Serif" font-size="10.00">xpath_parser::parse</text>
<text xml:space="preserve" text-anchor="middle" x="503.38" y="-69.5" font-family="Helvetica,sans-Serif" font-size="10.00">_expression</text>
</a>
</g>
</g>
<!-- Node4&#45;&gt;Node5 -->
<g id="edge4_Node000004_Node000005" class="edge">
<title>Node4&#45;&gt;Node5</title>
<g id="a_edge4_Node000004_Node000005"><a xlink:title=" ">
<path fill="none" stroke="#63b8ff" d="M717.19,-91.95C665.66,-86.21 599.68,-80.59 554.95,-78.26"/>
<polygon fill="#63b8ff" stroke="#63b8ff" points="716.78,-95.43 727.11,-93.08 717.57,-88.47 716.78,-95.43"/>
</a>
</g>
</g>
<!-- Node11 -->
<g id="Node000011" class="node">
<title>Node11</title>
<g id="a_Node000011"><a xlink:href="structxpath__parser.html#adcd54e9b508acfe1f040ee7a54b88f2a" target="_top" xlink:title=" ">
<polygon fill="white" stroke="#666666" points="692.75,-148 590.5,-148 590.5,-116 692.75,-116 692.75,-148"/>
<text xml:space="preserve" text-anchor="start" x="598.5" y="-134.5" font-family="Helvetica,sans-Serif" font-size="10.00">xpath_parser::parse</text>
<text xml:space="preserve" text-anchor="middle" x="641.62" y="-122.5" font-family="Helvetica,sans-Serif" font-size="10.00">_expression_rec</text>
</a>
</g>
</g>
<!-- Node4&#45;&gt;Node11 -->
<g id="edge15_Node000004_Node000011" class="edge">
<title>Node4&#45;&gt;Node11</title>
<g id="a_edge15_Node000004_Node000011"><a xlink:title=" ">
<path fill="none" stroke="#63b8ff" d="M717.2,-118.82C708.99,-120.27 700.81,-121.72 693.03,-123.09"/>
<polygon fill="#63b8ff" stroke="#63b8ff" points="717.65,-122.29 726.89,-117.11 716.43,-115.4 717.65,-122.29"/>
</a>
</g>
</g>
<!-- Node5&#45;&gt;Node2 -->
<g id="edge9_Node000005_Node000002" class="edge">
<title>Node5&#45;&gt;Node2</title>
<g id="a_edge9_Node000005_Node000002"><a xlink:title=" ">
<path fill="none" stroke="#63b8ff" d="M565.88,-63.25C574.13,-61.36 582.5,-59.55 590.5,-58 726.95,-31.51 761.36,-23.03 900,-13 945.33,-9.72 956.81,-12.23 1002.25,-13 1013.87,-13.2 1026.34,-13.54 1038.14,-13.93"/>
<polygon fill="#63b8ff" stroke="#63b8ff" points="565.16,-59.83 556.22,-65.52 566.76,-66.64 565.16,-59.83"/>
</a>
</g>
</g>
<!-- Node5&#45;&gt;Node3 -->
<g id="edge7_Node000005_Node000003" class="edge">
<title>Node5&#45;&gt;Node3</title>
<g id="a_edge7_Node000005_Node000003"><a xlink:title=" ">
<path fill="none" stroke="#63b8ff" d="M566.06,-73.33C655.05,-65.14 817.73,-50.18 899.86,-42.62"/>
<polygon fill="#63b8ff" stroke="#63b8ff" points="565.94,-69.82 556.31,-74.22 566.59,-76.79 565.94,-69.82"/>
</a>
</g>
</g>
<!-- Node5&#45;&gt;Node4 -->
<g id="edge8_Node000005_Node000004" class="edge">
<title>Node5&#45;&gt;Node4</title>
<g id="a_edge8_Node000005_Node000004"><a xlink:title=" ">
<path fill="none" stroke="#63b8ff" d="M566.35,-90.18C614.02,-95.87 679.78,-101.79 728.61,-104.82"/>
<polygon fill="#63b8ff" stroke="#63b8ff" points="566.8,-86.71 556.45,-88.97 565.95,-93.66 566.8,-86.71"/>
</a>
</g>
</g>
<!-- Node6 -->
<g id="Node000006" class="node">
<title>Node6</title>
<g id="a_Node000006"><a xlink:href="structxpath__parser.html#aa3fe0e7d23131b3943d8248646ecd362" target="_top" xlink:title=" ">
<polygon fill="white" stroke="#666666" points="404.25,-89 302,-89 302,-69 404.25,-69 404.25,-89"/>
<text xml:space="preserve" text-anchor="middle" x="353.12" y="-75.5" font-family="Helvetica,sans-Serif" font-size="10.00">xpath_parser::parse</text>
</a>
</g>
</g>
<!-- Node5&#45;&gt;Node6 -->
<g id="edge5_Node000005_Node000006" class="edge">
<title>Node5&#45;&gt;Node6</title>
<g id="a_edge5_Node000005_Node000006"><a xlink:title=" ">
<path fill="none" stroke="#63b8ff" d="M440.46,-79C428.48,-79 416.06,-79 404.5,-79"/>
<polygon fill="#63b8ff" stroke="#63b8ff" points="440.26,-82.5 450.26,-79 440.26,-75.5 440.26,-82.5"/>
</a>
</g>
</g>
<!-- Node8 -->
<g id="Node000008" class="node">
<title>Node8</title>
<g id="a_Node000008"><a xlink:href="structxpath__parser.html#a0b226e2905970c868ab6a80d76da3a95" target="_top" xlink:title=" ">
<polygon fill="white" stroke="#666666" points="416.25,-147 290,-147 290,-127 416.25,-127 416.25,-147"/>
<text xml:space="preserve" text-anchor="middle" x="353.12" y="-133.5" font-family="Helvetica,sans-Serif" font-size="10.00">xpath_parser::parse_step</text>
</a>
</g>
</g>
<!-- Node5&#45;&gt;Node8 -->
<g id="edge10_Node000005_Node000008" class="edge">
<title>Node5&#45;&gt;Node8</title>
<g id="a_edge10_Node000005_Node000008"><a xlink:title=" ">
<path fill="none" stroke="#63b8ff" d="M449.83,-99.56C426.51,-108.68 400.06,-119.03 380.89,-126.53"/>
<polygon fill="#63b8ff" stroke="#63b8ff" points="450.84,-102.92 458.88,-96.02 448.29,-96.4 450.84,-102.92"/>
</a>
</g>
</g>
<!-- Node7 -->
<g id="Node000007" class="node">
<title>Node7</title>
<g id="a_Node000007"><a xlink:href="structxpath__parser.html#aad773be8b591966eb535018fcc2b6a66" target="_top" xlink:title=" ">
<polygon fill="white" stroke="#666666" points="247.25,-89 145,-89 145,-69 247.25,-69 247.25,-89"/>
<text xml:space="preserve" text-anchor="middle" x="196.12" y="-75.5" font-family="Helvetica,sans-Serif" font-size="10.00">xpath_parser::parse</text>
</a>
</g>
</g>
<!-- Node6&#45;&gt;Node7 -->
<g id="edge6_Node000006_Node000007" class="edge">
<title>Node6&#45;&gt;Node7</title>
<g id="a_edge6_Node000006_Node000007"><a xlink:title=" ">
<path fill="none" stroke="#63b8ff" d="M290.6,-79C276.38,-79 261.42,-79 247.73,-79"/>
<polygon fill="#63b8ff" stroke="#63b8ff" points="290.29,-82.5 300.29,-79 290.29,-75.5 290.29,-82.5"/>
</a>
</g>
</g>
<!-- Node9 -->
<g id="Node000009" class="node">
<title>Node9</title>
<g id="a_Node000009"><a xlink:href="structxpath__parser.html#aebea559423376001c89b19216dfc3012" target="_top" xlink:title=" ">
<polygon fill="white" stroke="#666666" points="254,-204 138.25,-204 138.25,-172 254,-172 254,-204"/>
<text xml:space="preserve" text-anchor="start" x="146.25" y="-190.5" font-family="Helvetica,sans-Serif" font-size="10.00">xpath_parser::parse</text>
<text xml:space="preserve" text-anchor="middle" x="196.12" y="-178.5" font-family="Helvetica,sans-Serif" font-size="10.00">_relative_location_path</text>
</a>
</g>
</g>
<!-- Node8&#45;&gt;Node9 -->
<g id="edge11_Node000008_Node000009" class="edge">
<title>Node8&#45;&gt;Node9</title>
<g id="a_edge11_Node000008_Node000009"><a xlink:title=" ">
<path fill="none" stroke="#63b8ff" d="M309.49,-151.03C290.19,-157.38 267.24,-164.93 247.13,-171.55"/>
<polygon fill="#63b8ff" stroke="#63b8ff" points="310.54,-154.37 318.95,-147.92 308.35,-147.72 310.54,-154.37"/>
</a>
</g>
</g>
<!-- Node9&#45;&gt;Node4 -->
<g id="edge14_Node000009_Node000004" class="edge">
<title>Node9&#45;&gt;Node4</title>
<g id="a_edge14_Node000009_Node000004"><a xlink:title=" ">
<path fill="none" stroke="#63b8ff" d="M265.41,-198.1C362.9,-209.89 546.4,-222.27 692.75,-175 726.41,-164.13 759.06,-138.46 778.18,-121.41"/>
<polygon fill="#63b8ff" stroke="#63b8ff" points="266.1,-194.66 255.74,-196.89 265.23,-201.6 266.1,-194.66"/>
</a>
</g>
</g>
<!-- Node10 -->
<g id="Node000010" class="node">
<title>Node10</title>
<g id="a_Node000010"><a xlink:href="structxpath__parser.html#af14e396ddb7817998ec221eec6b781ab" target="_top" xlink:title=" ">
<polygon fill="white" stroke="#666666" points="102.25,-226 0,-226 0,-194 102.25,-194 102.25,-226"/>
<text xml:space="preserve" text-anchor="start" x="8" y="-212.5" font-family="Helvetica,sans-Serif" font-size="10.00">xpath_parser::parse</text>
<text xml:space="preserve" text-anchor="middle" x="51.12" y="-200.5" font-family="Helvetica,sans-Serif" font-size="10.00">_location_path</text>
</a>
</g>
</g>
<!-- Node9&#45;&gt;Node10 -->
<g id="edge12_Node000009_Node000010" class="edge">
<title>Node9&#45;&gt;Node10</title>
<g id="a_edge12_Node000009_Node000010"><a xlink:title=" ">
<path fill="none" stroke="#63b8ff" d="M126.47,-198.56C118.41,-199.8 110.3,-201.05 102.56,-202.24"/>
<polygon fill="#63b8ff" stroke="#63b8ff" points="126.94,-202.03 136.29,-197.05 125.87,-195.11 126.94,-202.03"/>
</a>
</g>
</g>
<!-- Node10&#45;&gt;Node4 -->
<g id="edge13_Node000010_Node000004" class="edge">
<title>Node10&#45;&gt;Node4</title>
<g id="a_edge13_Node000010_Node000004"><a xlink:title=" ">
<path fill="none" stroke="#63b8ff" d="M114.01,-217.2C174.6,-223.61 269.58,-232 352.12,-232 504.38,-232 504.38,-232 504.38,-232 589.22,-232 616.63,-238.48 692.75,-201 731.49,-181.92 765.72,-143.33 783.16,-121.33"/>
<polygon fill="#63b8ff" stroke="#63b8ff" points="114.56,-213.73 104.24,-216.14 113.81,-220.69 114.56,-213.73"/>
</a>
</g>
</g>
<!-- Node11&#45;&gt;Node5 -->
<g id="edge16_Node000011_Node000005" class="edge">
<title>Node11&#45;&gt;Node5</title>
<g id="a_edge16_Node000011_Node000005"><a xlink:title=" ">
<path fill="none" stroke="#63b8ff" d="M587.61,-111.38C574.05,-106.1 559.65,-100.5 546.71,-95.47"/>
<polygon fill="#63b8ff" stroke="#63b8ff" points="586.26,-114.61 596.85,-114.97 588.8,-108.09 586.26,-114.61"/>
</a>
</g>
</g>
<!-- Node11&#45;&gt;Node11 -->
<g id="edge17_Node000011_Node000011" class="edge">
<title>Node11&#45;&gt;Node11</title>
<g id="a_edge17_Node000011_Node000011"><a xlink:title=" ">
<path fill="none" stroke="#63b8ff" d="M664.66,-159.71C660.82,-163.48 653.14,-166 641.62,-166 620.56,-166 612.34,-157.58 616.94,-148.44"/>
<polygon fill="#63b8ff" stroke="#63b8ff" points="668.11,-160.34 666.09,-149.94 661.18,-159.33 668.11,-160.34"/>
</a>
</g>
</g>
</g>
</svg>

<g id="navigator" transform="translate(0 0)" fill="#404254">
  <rect fill="#f2f5e9" fill-opacity="0.5" stroke="#606060" stroke-width=".5" x="0" y="0" width="60" height="60"/>
  <use id="zoomplus" xlink:href="#zoomPlus" x="17" y="9" onmousedown="handleZoom(evt,'in')"/>
  <use id="zoomminus" xlink:href="#zoomMin" x="42" y="9" onmousedown="handleZoom(evt,'out')"/>
  <use id="reset" xlink:href="#resetDef" x="30" y="36" onmousedown="handleReset()"/>
   <use id="arrowup" xlink:href="#arrowUp" x="0" y="0" onmousedown="handlePan(0,-1)"/>
  <use id="arrowright" xlink:href="#arrowRight" x="0" y="0" onmousedown="handlePan(1,0)"/>
  <use id="arrowdown" xlink:href="#arrowDown" x="0" y="0" onmousedown="handlePan(0,1)"/>
  <use id="arrowleft" xlink:href="#arrowLeft" x="0" y="0" onmousedown="handlePan(-1,0)"/>
</g>
<svg viewBox="0 0 15 15" width="100%" height="30px" preserveAspectRatio="xMaxYMin meet">
 <g id="arrow_out" transform="scale(0.3 0.3)">
  <a xlink:href="structxpath__parser_a9a68f1cbf9900714aefe00059a66a22d_icgraph_org.svg" target="_base">
   <rect id="button" ry="5" rx="5" y="6" x="6" height="38" width="38"
        fill="#f2f5e9" fill-opacity="0.5" stroke="#606060" stroke-width="1.0"/>
   <path id="arrow"
     d="M 11.500037,31.436501 C 11.940474,20.09759 22.043105,11.32322 32.158766,21.979434 L 37.068811,17.246167 C 37.068811,17.246167 37.088388,32 37.088388,32 L 22.160133,31.978069 C 22.160133,31.978069 26.997745,27.140456 26.997745,27.140456 C 18.528582,18.264221 13.291696,25.230495 11.500037,31.436501 z"
     style="fill:#404040;"/>
  </a>
 </g>
</svg>

<style type='text/css'>
<![CDATA[
[data-mouse-over-selected='false'] { opacity: 0.7; }
[data-mouse-over-selected='true']  { opacity: 1.0; }
]]>
</style>
<script type="application/ecmascript"><![CDATA[
document.addEventListener('DOMContentLoaded', (event) => {
  highlightEdges();
  highlightAdjacentNodes();
});
]]></script>
</svg>
