<?xml version="1.0" encoding="UTF-8" standalone="no"?>
<!DOCTYPE svg PUBLIC "-//W3C//DTD SVG 1.1//EN"
 "http://www.w3.org/Graphics/SVG/1.1/DTD/svg11.dtd">
<!-- Generated by graphviz version 14.1.2 (20260124.0452)
 -->
<!-- Title: xml_allocator::reserve Pages: 1 -->
<!--zoomable 284 -->

<svg id="main" version="1.1" xmlns="http://www.w3.org/2000/svg" xmlns:xlink="http://www.w3.org/1999/xlink" xml:space="preserve" onload="init(evt)">

<style type="text/css"><![CDATA[
.node, .edge {opacity: 0.7;}
.node.selected, .edge.selected {opacity: 1;}
.edge:hover path { stroke: red; }
.edge:hover polygon { stroke: red; fill: red; }
]]></style>

<defs>
  <circle id="rim" cx="0" cy="0" r="7"/>
  <circle id="rim2" cx="0" cy="0" r="3.5"/>
  <g id="zoomPlus">
    <use xlink:href="#rim" fill="#404040"><set attributeName="fill" to="#808080" begin="zoomplus.mouseover" end="zoomplus.mouseout"/></use>
    <path d="M-4,0h8M0,-4v8" fill="none" stroke="white" stroke-width="1.5" pointer-events="none"/>
  </g>
  <g id="zoomMin">
    <use xlink:href="#rim" fill="#404040"><set attributeName="fill" to="#808080" begin="zoomminus.mouseover" end="zoomminus.mouseout"/></use>
    <path d="M-4,0h8" fill="none" stroke="white" stroke-width="1.5" pointer-events="none"/>
  </g>
  <g id="arrowUp" transform="translate(30 24)">
    <use xlink:href="#rim"/>
    <path pointer-events="none" fill="none" stroke="white" stroke-width="1.5" d="M0,-3.0v7 M-2.5,-0.5L0,-3.0L2.5,-0.5"/>
  </g>
  <g id="arrowRight" transform="rotate(90) translate(36 -43)">
    <use xlink:href="#rim"/>
    <path pointer-events="none" fill="none" stroke="white" stroke-width="1.5" d="M0,-3.0v7 M-2.5,-0.5L0,-3.0L2.5,-0.5"/>
  </g>
  <g id="arrowDown" transform="rotate(180) translate(-30 -48)">
    <use xlink:href="#rim"/>
    <path pointer-events="none" fill="none" stroke="white" stroke-width="1.5" d="M0,-3.0v7 M-2.5,-0.5L0,-3.0L2.5,-0.5"/>
  </g>
  <g id="arrowLeft" transform="rotate(270) translate(-36 17)">
    <use xlink:href="#rim"/>
    <path pointer-events="none" fill="none" stroke="white" stroke-width="1.5" d="M0,-3.0v7 M-2.5,-0.5L0,-3.0L2.5,-0.5"/>
  </g>
  <g id="resetDef">
    <use xlink:href="#rim2" fill="#404040"><set attributeName="fill" to="#808080" begin="reset.mouseover" end="reset.mouseout"/></use>
  </g>
</defs>
<script type="application/ecmascript">
var viewWidth = 682;
var viewHeight = 284;
var sectionId = 'dynsection-18';
</script>
<script type="application/ecmascript" xlink:href="svg.min.js"/>
<svg id="graph" class="graph">
<g id="viewport">
<title>xml_allocator::reserve</title>
<!-- Node1 -->
<g id="Node000001" class="node">
<title>Node1</title>
<g id="a_Node000001"><a xlink:title=" ">
<polygon fill="#999999" stroke="#666666" points="674,-229 562,-229 562,-209 674,-209 674,-229"/>
<text xml:space="preserve" text-anchor="middle" x="618" y="-215.5" font-family="Helvetica,sans-Serif" font-size="10.00">xml_allocator::reserve</text>
</a>
</g>
</g>
<!-- Node2 -->
<g id="Node000002" class="node">
<title>Node2</title>
<g id="a_Node000002"><a xlink:href="pugixml_8cpp.html#aa4d1cd18410ae2f5008f74bd5fc8a387" target="_top" xlink:title=" ">
<polygon fill="white" stroke="#666666" points="526,-229 414.75,-229 414.75,-209 526,-209 526,-229"/>
<text xml:space="preserve" text-anchor="middle" x="470.38" y="-215.5" font-family="Helvetica,sans-Serif" font-size="10.00">append_new_attribute</text>
</a>
</g>
</g>
<!-- Node1&#45;&gt;Node2 -->
<g id="edge1_Node000001_Node000002" class="edge">
<title>Node1&#45;&gt;Node2</title>
<g id="a_edge1_Node000001_Node000002"><a xlink:title=" ">
<path fill="none" stroke="#63b8ff" d="M550.26,-219C542.21,-219 534.06,-219 526.21,-219"/>
<polygon fill="#63b8ff" stroke="#63b8ff" points="550.02,-222.5 560.02,-219 550.02,-215.5 550.02,-222.5"/>
</a>
</g>
</g>
<!-- Node7 -->
<g id="Node000007" class="node">
<title>Node7</title>
<g id="a_Node000007"><a xlink:href="pugixml_8cpp.html#a6762031546d0bbd558c6301061c94f7a" target="_top" xlink:title=" ">
<polygon fill="white" stroke="#666666" points="518.88,-276 421.88,-276 421.88,-256 518.88,-256 518.88,-276"/>
<text xml:space="preserve" text-anchor="middle" x="470.38" y="-262.5" font-family="Helvetica,sans-Serif" font-size="10.00">append_new_node</text>
</a>
</g>
</g>
<!-- Node1&#45;&gt;Node7 -->
<g id="edge6_Node000001_Node000007" class="edge">
<title>Node1&#45;&gt;Node7</title>
<g id="a_edge6_Node000001_Node000007"><a xlink:title=" ">
<path fill="none" stroke="#63b8ff" d="M573.76,-232.95C551.36,-240.18 524.46,-248.87 503.86,-255.52"/>
<polygon fill="#63b8ff" stroke="#63b8ff" points="574.8,-236.3 583.24,-229.9 572.65,-229.64 574.8,-236.3"/>
</a>
</g>
</g>
<!-- Node8 -->
<g id="Node000008" class="node">
<title>Node8</title>
<g id="a_Node000008"><a xlink:href="pugixml_8cpp.html#a6acbb945c483e413572aadd55a2c8712" target="_top" xlink:title=" ">
<polygon fill="white" stroke="#666666" points="506.12,-134 434.62,-134 434.62,-114 506.12,-114 506.12,-134"/>
<text xml:space="preserve" text-anchor="middle" x="470.38" y="-120.5" font-family="Helvetica,sans-Serif" font-size="10.00">strcpy_insitu</text>
</a>
</g>
</g>
<!-- Node1&#45;&gt;Node8 -->
<g id="edge8_Node000001_Node000008" class="edge">
<title>Node1&#45;&gt;Node8</title>
<g id="a_edge8_Node000001_Node000008"><a xlink:title=" ">
<path fill="none" stroke="#63b8ff" d="M591.74,-202.52C561.67,-182.91 512.37,-150.74 487.22,-134.33"/>
<polygon fill="#63b8ff" stroke="#63b8ff" points="589.58,-205.29 599.87,-207.83 593.41,-199.43 589.58,-205.29"/>
</a>
</g>
</g>
<!-- Node3 -->
<g id="Node000003" class="node">
<title>Node3</title>
<g id="a_Node000003"><a xlink:href="pugixml_8cpp.html#a04264129af89281e0d73c01e7b4716bb" target="_top" xlink:title=" ">
<polygon fill="white" stroke="#666666" points="227,-210 121,-210 121,-190 227,-190 227,-210"/>
<text xml:space="preserve" text-anchor="middle" x="174" y="-196.5" font-family="Helvetica,sans-Serif" font-size="10.00">node_copy_contents</text>
</a>
</g>
</g>
<!-- Node2&#45;&gt;Node3 -->
<g id="edge2_Node000002_Node000003" class="edge">
<title>Node2&#45;&gt;Node3</title>
<g id="a_edge2_Node000002_Node000003"><a xlink:title=" ">
<path fill="none" stroke="#63b8ff" d="M403,-214.72C349.84,-211.29 276.31,-206.54 227.28,-203.37"/>
<polygon fill="#63b8ff" stroke="#63b8ff" points="402.64,-218.2 412.84,-215.35 403.09,-211.21 402.64,-218.2"/>
</a>
</g>
</g>
<!-- Node5 -->
<g id="Node000005" class="node">
<title>Node5</title>
<g id="a_Node000005"><a xlink:href="structxml__parser.html#a35bac90f1975aa1a9d5de4b60b761f16" target="_top" xlink:title=" ">
<polygon fill="white" stroke="#666666" points="378.75,-248 263,-248 263,-228 378.75,-228 378.75,-248"/>
<text xml:space="preserve" text-anchor="middle" x="320.88" y="-234.5" font-family="Helvetica,sans-Serif" font-size="10.00">xml_parser::parse_tree</text>
</a>
</g>
</g>
<!-- Node2&#45;&gt;Node5 -->
<g id="edge4_Node000002_Node000005" class="edge">
<title>Node2&#45;&gt;Node5</title>
<g id="a_edge4_Node000002_Node000005"><a xlink:title=" ">
<path fill="none" stroke="#63b8ff" d="M403.11,-227.54C395,-228.58 386.77,-229.64 378.82,-230.67"/>
<polygon fill="#63b8ff" stroke="#63b8ff" points="403.48,-231.02 412.95,-226.27 402.59,-224.07 403.48,-231.02"/>
</a>
</g>
</g>
<!-- Node4 -->
<g id="Node000004" class="node">
<title>Node4</title>
<g id="a_Node000004"><a xlink:href="pugixml_8cpp.html#a14949165ebd41eaf762dce303c0118a9" target="_top" xlink:title=" ">
<polygon fill="white" stroke="#666666" points="85,-248 0,-248 0,-228 85,-228 85,-248"/>
<text xml:space="preserve" text-anchor="middle" x="42.5" y="-234.5" font-family="Helvetica,sans-Serif" font-size="10.00">node_copy_tree</text>
</a>
</g>
</g>
<!-- Node3&#45;&gt;Node4 -->
<g id="edge3_Node000003_Node000004" class="edge">
<title>Node3&#45;&gt;Node4</title>
<g id="a_edge3_Node000003_Node000004"><a xlink:title=" ">
<path fill="none" stroke="#63b8ff" d="M126.27,-213.71C110.73,-218.27 93.68,-223.28 79.11,-227.55"/>
<polygon fill="#63b8ff" stroke="#63b8ff" points="127.21,-217.08 135.82,-210.91 125.24,-210.37 127.21,-217.08"/>
</a>
</g>
</g>
<!-- Node6 -->
<g id="Node000006" class="node">
<title>Node6</title>
<g id="a_Node000006"><a xlink:href="structxml__parser.html#a4bf0acd166edf3fc6cc9543002ff6f5d" target="_top" xlink:title=" ">
<polygon fill="white" stroke="#666666" points="221,-248 127,-248 127,-228 221,-228 221,-248"/>
<text xml:space="preserve" text-anchor="middle" x="174" y="-234.5" font-family="Helvetica,sans-Serif" font-size="10.00">xml_parser::parse</text>
</a>
</g>
</g>
<!-- Node5&#45;&gt;Node6 -->
<g id="edge5_Node000005_Node000006" class="edge">
<title>Node5&#45;&gt;Node6</title>
<g id="a_edge5_Node000005_Node000006"><a xlink:title=" ">
<path fill="none" stroke="#63b8ff" d="M251.2,-238C241.01,-238 230.72,-238 221.14,-238"/>
<polygon fill="#63b8ff" stroke="#63b8ff" points="251.1,-241.5 261.1,-238 251.1,-234.5 251.1,-241.5"/>
</a>
</g>
</g>
<!-- Node7&#45;&gt;Node4 -->
<g id="edge7_Node000007_Node000004" class="edge">
<title>Node7&#45;&gt;Node4</title>
<g id="a_edge7_Node000007_Node000004"><a xlink:title=" ">
<path fill="none" stroke="#63b8ff" d="M410.36,-268.31C340.83,-270.15 221.97,-270.52 121,-257 107.13,-255.14 92.14,-251.79 79.08,-248.42"/>
<polygon fill="#63b8ff" stroke="#63b8ff" points="410.09,-271.82 419.99,-268.04 409.89,-264.82 410.09,-271.82"/>
</a>
</g>
</g>
<!-- Node9 -->
<g id="Node000009" class="node">
<title>Node9</title>
<g id="a_Node000009"><a xlink:href="pugixml_8cpp.html#aee4bcdb425d825a33564649ece0a4b31" target="_top" xlink:title=" ">
<polygon fill="white" stroke="#666666" points="367.12,-96 274.62,-96 274.62,-76 367.12,-76 367.12,-96"/>
<text xml:space="preserve" text-anchor="middle" x="320.88" y="-82.5" font-family="Helvetica,sans-Serif" font-size="10.00">node_copy_string</text>
</a>
</g>
</g>
<!-- Node8&#45;&gt;Node9 -->
<g id="edge9_Node000008_Node000009" class="edge">
<title>Node8&#45;&gt;Node9</title>
<g id="a_edge9_Node000008_Node000009"><a xlink:title=" ">
<path fill="none" stroke="#63b8ff" d="M423.36,-112.15C403.91,-107.13 381.43,-101.34 362.59,-96.49"/>
<polygon fill="#63b8ff" stroke="#63b8ff" points="422.4,-115.51 432.95,-114.62 424.14,-108.73 422.4,-115.51"/>
</a>
</g>
</g>
<!-- Node11 -->
<g id="Node000011" class="node">
<title>Node11</title>
<g id="a_Node000011"><a xlink:href="pugixml_8cpp.html#add59ae346f2993be95cf7b56903ec676" target="_top" xlink:title=" ">
<polygon fill="white" stroke="#666666" points="362.62,-58 279.12,-58 279.12,-38 362.62,-38 362.62,-58"/>
<text xml:space="preserve" text-anchor="middle" x="320.88" y="-44.5" font-family="Helvetica,sans-Serif" font-size="10.00">set_value_ascii</text>
</a>
</g>
</g>
<!-- Node8&#45;&gt;Node11 -->
<g id="edge12_Node000008_Node000011" class="edge">
<title>Node8&#45;&gt;Node11</title>
<g id="a_edge12_Node000008_Node000011"><a xlink:title=" ">
<path fill="none" stroke="#63b8ff" d="M445.95,-107.07C428.16,-94.77 402.74,-78.35 378.75,-67 372.07,-63.84 364.72,-60.97 357.58,-58.47"/>
<polygon fill="#63b8ff" stroke="#63b8ff" points="443.8,-109.84 454,-112.73 447.83,-104.11 443.8,-109.84"/>
</a>
</g>
</g>
<!-- Node14 -->
<g id="Node000014" class="node">
<title>Node14</title>
<g id="a_Node000014"><a xlink:href="pugixml_8cpp.html#ad084c2ba3b0385b65a3c50b12146fa36" target="_top" xlink:title=" ">
<polygon fill="white" stroke="#666666" points="361.5,-134 280.25,-134 280.25,-114 361.5,-114 361.5,-134"/>
<text xml:space="preserve" text-anchor="middle" x="320.88" y="-120.5" font-family="Helvetica,sans-Serif" font-size="10.00">set_value_bool</text>
</a>
</g>
</g>
<!-- Node8&#45;&gt;Node14 -->
<g id="edge15_Node000008_Node000014" class="edge">
<title>Node8&#45;&gt;Node14</title>
<g id="a_edge15_Node000008_Node000014"><a xlink:title=" ">
<path fill="none" stroke="#63b8ff" d="M422.95,-124C403.31,-124 380.66,-124 361.79,-124"/>
<polygon fill="#63b8ff" stroke="#63b8ff" points="422.91,-127.5 432.91,-124 422.91,-120.5 422.91,-127.5"/>
</a>
</g>
</g>
<!-- Node15 -->
<g id="Node000015" class="node">
<title>Node15</title>
<g id="a_Node000015"><a xlink:href="pugixml_8cpp.html#a4b9ba5312f3cfa08fba37205484fc91d" target="_top" xlink:title=" ">
<polygon fill="white" stroke="#666666" points="367.12,-172 274.62,-172 274.62,-152 367.12,-152 367.12,-172"/>
<text xml:space="preserve" text-anchor="middle" x="320.88" y="-158.5" font-family="Helvetica,sans-Serif" font-size="10.00">set_value_integer</text>
</a>
</g>
</g>
<!-- Node8&#45;&gt;Node15 -->
<g id="edge16_Node000008_Node000015" class="edge">
<title>Node8&#45;&gt;Node15</title>
<g id="a_edge16_Node000008_Node000015"><a xlink:title=" ">
<path fill="none" stroke="#63b8ff" d="M423.36,-135.85C403.91,-140.87 381.43,-146.66 362.59,-151.51"/>
<polygon fill="#63b8ff" stroke="#63b8ff" points="424.14,-139.27 432.95,-133.38 422.4,-132.49 424.14,-139.27"/>
</a>
</g>
</g>
<!-- Node9&#45;&gt;Node3 -->
<g id="edge11_Node000009_Node000003" class="edge">
<title>Node9&#45;&gt;Node3</title>
<g id="a_edge11_Node000009_Node000003"><a xlink:title=" ">
<path fill="none" stroke="#63b8ff" d="M269.69,-101.14C267.37,-102.34 265.13,-103.62 263,-105 226.73,-128.4 195.36,-170.14 181.95,-189.54"/>
<polygon fill="#63b8ff" stroke="#63b8ff" points="271.09,-104.34 278.76,-97.03 268.21,-97.96 271.09,-104.34"/>
</a>
</g>
</g>
<!-- Node10 -->
<g id="Node000010" class="node">
<title>Node10</title>
<g id="a_Node000010"><a xlink:href="pugixml_8cpp.html#aa393963791df0fe1b8bfe3829637bfbf" target="_top" xlink:title=" ">
<polygon fill="white" stroke="#666666" points="225.88,-96 122.12,-96 122.12,-76 225.88,-76 225.88,-96"/>
<text xml:space="preserve" text-anchor="middle" x="174" y="-82.5" font-family="Helvetica,sans-Serif" font-size="10.00">node_copy_attribute</text>
</a>
</g>
</g>
<!-- Node9&#45;&gt;Node10 -->
<g id="edge10_Node000009_Node000010" class="edge">
<title>Node9&#45;&gt;Node10</title>
<g id="a_edge10_Node000009_Node000010"><a xlink:title=" ">
<path fill="none" stroke="#63b8ff" d="M263.06,-86C250.95,-86 238.23,-86 226.34,-86"/>
<polygon fill="#63b8ff" stroke="#63b8ff" points="262.92,-89.5 272.92,-86 262.92,-82.5 262.92,-89.5"/>
</a>
</g>
</g>
<!-- Node12 -->
<g id="Node000012" class="node">
<title>Node12</title>
<g id="a_Node000012"><a xlink:href="pugixml_8cpp.html#a1c25c237dad556a4905806d70ed107f3" target="_top" xlink:title=" ">
<polygon fill="white" stroke="#666666" points="221.75,-20 126.25,-20 126.25,0 221.75,0 221.75,-20"/>
<text xml:space="preserve" text-anchor="middle" x="174" y="-6.5" font-family="Helvetica,sans-Serif" font-size="10.00">set_value_convert</text>
</a>
</g>
</g>
<!-- Node11&#45;&gt;Node12 -->
<g id="edge13_Node000011_Node000012" class="edge">
<title>Node11&#45;&gt;Node12</title>
<g id="a_edge13_Node000011_Node000012"><a xlink:title=" ">
<path fill="none" stroke="#63b8ff" d="M268.87,-34.62C251.14,-29.97 231.53,-24.83 214.84,-20.45"/>
<polygon fill="#63b8ff" stroke="#63b8ff" points="267.88,-37.98 278.44,-37.13 269.65,-31.21 267.88,-37.98"/>
</a>
</g>
</g>
<!-- Node13 -->
<g id="Node000013" class="node">
<title>Node13</title>
<g id="a_Node000013"><a xlink:href="pugixml_8cpp.html#a7548c736894a21eda85551af5f2bafed" target="_top" xlink:title=" ">
<polygon fill="white" stroke="#666666" points="221.75,-58 126.25,-58 126.25,-38 221.75,-38 221.75,-58"/>
<text xml:space="preserve" text-anchor="middle" x="174" y="-44.5" font-family="Helvetica,sans-Serif" font-size="10.00">set_value_convert</text>
</a>
</g>
</g>
<!-- Node11&#45;&gt;Node13 -->
<g id="edge14_Node000011_Node000013" class="edge">
<title>Node11&#45;&gt;Node13</title>
<g id="a_edge14_Node000011_Node000013"><a xlink:title=" ">
<path fill="none" stroke="#63b8ff" d="M267.66,-48C252.78,-48 236.66,-48 222.11,-48"/>
<polygon fill="#63b8ff" stroke="#63b8ff" points="267.23,-51.5 277.23,-48 267.23,-44.5 267.23,-51.5"/>
</a>
</g>
</g>
</g>
</svg>

<g id="navigator" transform="translate(0 0)" fill="#404254">
  <rect fill="#f2f5e9" fill-opacity="0.5" stroke="#606060" stroke-width=".5" x="0" y="0" width="60" height="60"/>
  <use id="zoomplus" xlink:href="#zoomPlus" x="17" y="9" onmousedown="handleZoom(evt,'in')"/>
  <use id="zoomminus" xlink:href="#zoomMin" x="42" y="9" onmousedown="handleZoom(evt,'out')"/>
  <use id="reset" xlink:href="#resetDef" x="30" y="36" onmousedown="handleReset()"/>
   <use id="arrowup" xlink:href="#arrowUp" x="0" y="0" onmousedown="handlePan(0,-1)"/>
  <use id="arrowright" xlink:href="#arrowRight" x="0" y="0" onmousedown="handlePan(1,0)"/>
  <use id="arrowdown" xlink:href="#arrowDown" x="0" y="0" onmousedown="handlePan(0,1)"/>
  <use id="arrowleft" xlink:href="#arrowLeft" x="0" y="0" onmousedown="handlePan(-1,0)"/>
</g>
<svg viewBox="0 0 15 15" width="100%" height="30px" preserveAspectRatio="xMaxYMin meet">
 <g id="arrow_out" transform="scale(0.3 0.3)">
  <a xlink:href="structxml__allocator_ac831a283ec3bcbe22fd3ce3be98ec347_icgraph_org.svg" target="_base">
   <rect id="button" ry="5" rx="5" y="6" x="6" height="38" width="38"
        fill="#f2f5e9" fill-opacity="0.5" stroke="#606060" stroke-width="1.0"/>
   <path id="arrow"
     d="M 11.500037,31.436501 C 11.940474,20.09759 22.043105,11.32322 32.158766,21.979434 L 37.068811,17.246167 C 37.068811,17.246167 37.088388,32 37.088388,32 L 22.160133,31.978069 C 22.160133,31.978069 26.997745,27.140456 26.997745,27.140456 C 18.528582,18.264221 13.291696,25.230495 11.500037,31.436501 z"
     style="fill:#404040;"/>
  </a>
 </g>
</svg>

<style type='text/css'>
<![CDATA[
[data-mouse-over-selected='false'] { opacity: 0.7; }
[data-mouse-over-selected='true']  { opacity: 1.0; }
]]>
</style>
<script type="application/ecmascript"><![CDATA[
document.addEventListener('DOMContentLoaded', (event) => {
  highlightEdges();
  highlightAdjacentNodes();
});
]]></script>
</svg>
