<?xml version="1.0" encoding="UTF-8" standalone="no"?>
<!DOCTYPE svg PUBLIC "-//W3C//DTD SVG 1.1//EN"
 "http://www.w3.org/Graphics/SVG/1.1/DTD/svg11.dtd">
<!-- Generated by graphviz version 14.1.2 (20260124.0452)
 -->
<!-- Title: strconv_pcdata_impl::parse Pages: 1 -->
<svg width="476pt" height="123pt"
 viewBox="0.00 0.00 476.00 123.00" xmlns="http://www.w3.org/2000/svg" xmlns:xlink="http://www.w3.org/1999/xlink">

<svg id="main" version="1.1" xmlns="http://www.w3.org/2000/svg" xmlns:xlink="http://www.w3.org/1999/xlink" xml:space="preserve">

<style type="text/css"><![CDATA[
.node, .edge {opacity: 0.7;}
.node.selected, .edge.selected {opacity: 1;}
.edge:hover path { stroke: red; }
.edge:hover polygon { stroke: red; fill: red; }
]]></style>
<script type="application/ecmascript" xlink:href="svg.min.js"/>
<svg id="graph" class="graph">
<g id="graph0" class="graph" transform="scale(1 1) rotate(0) translate(4 119)">
<title>strconv_pcdata_impl::parse</title>
<!-- Node1 -->
<g id="Node000001" class="node">
<title>Node1</title>
<g id="a_Node000001"><a xlink:title=" ">
<polygon fill="#999999" stroke="#666666" points="106,-83 0,-83 0,-51 106,-51 106,-83"/>
<text xml:space="preserve" text-anchor="start" x="8" y="-69.5" font-family="Helvetica,sans-Serif" font-size="10.00">strconv_pcdata_impl</text>
<text xml:space="preserve" text-anchor="middle" x="53" y="-57.5" font-family="Helvetica,sans-Serif" font-size="10.00">::parse</text>
</a>
</g>
</g>
<!-- Node2 -->
<g id="Node000002" class="node">
<title>Node2</title>
<g id="a_Node000002"><a xlink:href="structgap.html#a7d5e84d56dbeef1310977fe1ecec5ded" target="_top" xlink:title=" ">
<polygon fill="white" stroke="#666666" points="213.88,-115 155.12,-115 155.12,-95 213.88,-95 213.88,-115"/>
<text xml:space="preserve" text-anchor="middle" x="184.5" y="-101.5" font-family="Helvetica,sans-Serif" font-size="10.00">gap::flush</text>
</a>
</g>
</g>
<!-- Node1&#45;&gt;Node2 -->
<g id="edge1_Node000001_Node000002" class="edge">
<title>Node1&#45;&gt;Node2</title>
<g id="a_edge1_Node000001_Node000002"><a xlink:title=" ">
<path fill="none" stroke="#63b8ff" d="M106.3,-82.35C118.85,-86.03 132.06,-89.9 143.92,-93.39"/>
<polygon fill="#63b8ff" stroke="#63b8ff" points="142.79,-96.7 153.38,-96.16 144.77,-89.99 142.79,-96.7"/>
</a>
</g>
</g>
<!-- Node3 -->
<g id="Node000003" class="node">
<title>Node3</title>
<g id="a_Node000003"><a xlink:href="structgap.html#a9c0d0b12bc778c8439c8aec7747ab2b0" target="_top" xlink:title=" ">
<polygon fill="white" stroke="#666666" points="334.12,-77 275.38,-77 275.38,-57 334.12,-57 334.12,-77"/>
<text xml:space="preserve" text-anchor="middle" x="304.75" y="-63.5" font-family="Helvetica,sans-Serif" font-size="10.00">gap::push</text>
</a>
</g>
</g>
<!-- Node1&#45;&gt;Node3 -->
<g id="edge2_Node000001_Node000003" class="edge">
<title>Node1&#45;&gt;Node3</title>
<g id="a_edge2_Node000001_Node000003"><a xlink:title=" ">
<path fill="none" stroke="#63b8ff" d="M106.36,-67C153.29,-67 221.15,-67 263.83,-67"/>
<polygon fill="#63b8ff" stroke="#63b8ff" points="263.65,-70.5 273.65,-67 263.65,-63.5 263.65,-70.5"/>
</a>
</g>
</g>
<!-- Node4 -->
<g id="Node000004" class="node">
<title>Node4</title>
<g id="a_Node000004"><a xlink:href="pugixml_8cpp.html#a27b2a01a0bee31f8526055bdf590e42c" target="_top" xlink:title=" ">
<polygon fill="white" stroke="#666666" points="227,-39 142,-39 142,-19 227,-19 227,-39"/>
<text xml:space="preserve" text-anchor="middle" x="184.5" y="-25.5" font-family="Helvetica,sans-Serif" font-size="10.00">strconv_escape</text>
</a>
</g>
</g>
<!-- Node1&#45;&gt;Node4 -->
<g id="edge3_Node000001_Node000004" class="edge">
<title>Node1&#45;&gt;Node4</title>
<g id="a_edge3_Node000001_Node000004"><a xlink:title=" ">
<path fill="none" stroke="#63b8ff" d="M106.3,-51.65C116.5,-48.66 127.13,-45.54 137.12,-42.61"/>
<polygon fill="#63b8ff" stroke="#63b8ff" points="138.01,-45.99 146.62,-39.82 136.04,-39.28 138.01,-45.99"/>
</a>
</g>
</g>
<!-- Node4&#45;&gt;Node3 -->
<g id="edge7_Node000004_Node000003" class="edge">
<title>Node4&#45;&gt;Node3</title>
<g id="a_edge7_Node000004_Node000003"><a xlink:title=" ">
<path fill="none" stroke="#63b8ff" d="M218.13,-39.48C232.54,-44.12 249.6,-49.6 264.68,-54.45"/>
<polygon fill="#63b8ff" stroke="#63b8ff" points="263.22,-57.65 273.81,-57.38 265.36,-50.99 263.22,-57.65"/>
</a>
</g>
</g>
<!-- Node5 -->
<g id="Node000005" class="node">
<title>Node5</title>
<g id="a_Node000005"><a xlink:href="structutf8__writer.html#a288e9c5f3720b95ae6b77330ad38dd56" target="_top" xlink:title=" ">
<polygon fill="white" stroke="#666666" points="346.5,-39 263,-39 263,-19 346.5,-19 346.5,-39"/>
<text xml:space="preserve" text-anchor="middle" x="304.75" y="-25.5" font-family="Helvetica,sans-Serif" font-size="10.00">utf8_writer::any</text>
</a>
</g>
</g>
<!-- Node4&#45;&gt;Node5 -->
<g id="edge4_Node000004_Node000005" class="edge">
<title>Node4&#45;&gt;Node5</title>
<g id="a_edge4_Node000004_Node000005"><a xlink:title=" ">
<path fill="none" stroke="#63b8ff" d="M227.19,-29C235.05,-29 243.37,-29 251.51,-29"/>
<polygon fill="#63b8ff" stroke="#63b8ff" points="251.32,-32.5 261.32,-29 251.32,-25.5 251.32,-32.5"/>
</a>
</g>
</g>
<!-- Node6 -->
<g id="Node000006" class="node">
<title>Node6</title>
<g id="a_Node000006"><a xlink:href="structutf8__writer.html#ac03dfaf797d599afdf0be7def86ff9b9" target="_top" xlink:title=" ">
<polygon fill="white" stroke="#666666" points="468.25,-58 382.5,-58 382.5,-38 468.25,-38 468.25,-58"/>
<text xml:space="preserve" text-anchor="middle" x="425.38" y="-44.5" font-family="Helvetica,sans-Serif" font-size="10.00">utf8_writer::high</text>
</a>
</g>
</g>
<!-- Node5&#45;&gt;Node6 -->
<g id="edge5_Node000005_Node000006" class="edge">
<title>Node5&#45;&gt;Node6</title>
<g id="a_edge5_Node000005_Node000006"><a xlink:title=" ">
<path fill="none" stroke="#63b8ff" d="M346.91,-35.59C354.64,-36.83 362.83,-38.14 370.87,-39.43"/>
<polygon fill="#63b8ff" stroke="#63b8ff" points="370.16,-42.86 380.59,-40.99 371.27,-35.95 370.16,-42.86"/>
</a>
</g>
</g>
<!-- Node7 -->
<g id="Node000007" class="node">
<title>Node7</title>
<g id="a_Node000007"><a xlink:href="structutf8__writer.html#ac4ec52da6f37225ba4fde259bff2f86c" target="_top" xlink:title=" ">
<polygon fill="white" stroke="#666666" points="466.75,-20 384,-20 384,0 466.75,0 466.75,-20"/>
<text xml:space="preserve" text-anchor="middle" x="425.38" y="-6.5" font-family="Helvetica,sans-Serif" font-size="10.00">utf8_writer::low</text>
</a>
</g>
</g>
<!-- Node5&#45;&gt;Node7 -->
<g id="edge6_Node000005_Node000007" class="edge">
<title>Node5&#45;&gt;Node7</title>
<g id="a_edge6_Node000005_Node000007"><a xlink:title=" ">
<path fill="none" stroke="#63b8ff" d="M346.91,-22.41C355.19,-21.08 363.99,-19.67 372.58,-18.3"/>
<polygon fill="#63b8ff" stroke="#63b8ff" points="372.88,-21.79 382.2,-16.76 371.77,-14.88 372.88,-21.79"/>
</a>
</g>
</g>
</g>
</svg>
</svg>

<style type='text/css'>
<![CDATA[
[data-mouse-over-selected='false'] { opacity: 0.7; }
[data-mouse-over-selected='true']  { opacity: 1.0; }
]]>
</style>
<script type="application/ecmascript"><![CDATA[
document.addEventListener('DOMContentLoaded', (event) => {
  highlightEdges();
  highlightAdjacentNodes();
});
]]></script>
</svg>
