<?xml version="1.0" encoding="UTF-8" standalone="no"?>
<!DOCTYPE svg PUBLIC "-//W3C//DTD SVG 1.1//EN"
 "http://www.w3.org/Graphics/SVG/1.1/DTD/svg11.dtd">
<!-- Generated by graphviz version 14.1.2 (20260124.0452)
 -->
<!-- Title: xml_allocator::allocate_memory_oob Pages: 1 -->
<svg width="976pt" height="275pt"
 viewBox="0.00 0.00 976.00 275.00" xmlns="http://www.w3.org/2000/svg" xmlns:xlink="http://www.w3.org/1999/xlink">
<g id="graph0" class="graph" transform="scale(1 1) rotate(0) translate(4 271)">
<title>xml_allocator::allocate_memory_oob</title>
<!-- Node1 -->
<g id="Node000001" class="node">
<title>Node1</title>
<g id="a_Node000001"><a xlink:title=" ">
<polygon fill="#999999" stroke="#666666" points="967.75,-159 854.25,-159 854.25,-127 967.75,-127 967.75,-159"/>
<text xml:space="preserve" text-anchor="start" x="862.25" y="-145.5" font-family="Helvetica,sans-Serif" font-size="10.00">xml_allocator::allocate</text>
<text xml:space="preserve" text-anchor="middle" x="911" y="-133.5" font-family="Helvetica,sans-Serif" font-size="10.00">_memory_oob</text>
</a>
</g>
</g>
<!-- Node2 -->
<g id="Node000002" class="node">
<title>Node2</title>
<g id="a_Node000002"><a xlink:href="structxml__allocator.html#a02a8725611785568ceae7a0eea3eca76" target="_top" xlink:title=" ">
<polygon fill="white" stroke="#666666" points="818.25,-159 704.75,-159 704.75,-127 818.25,-127 818.25,-159"/>
<text xml:space="preserve" text-anchor="start" x="712.75" y="-145.5" font-family="Helvetica,sans-Serif" font-size="10.00">xml_allocator::allocate</text>
<text xml:space="preserve" text-anchor="middle" x="761.5" y="-133.5" font-family="Helvetica,sans-Serif" font-size="10.00">_memory</text>
</a>
</g>
</g>
<!-- Node1&#45;&gt;Node2 -->
<g id="edge1_Node000001_Node000002" class="edge">
<title>Node1&#45;&gt;Node2</title>
<g id="a_edge1_Node000001_Node000002"><a xlink:title=" ">
<path fill="none" stroke="#63b8ff" d="M842.56,-143C834.52,-143 826.38,-143 818.53,-143"/>
<polygon fill="#63b8ff" stroke="#63b8ff" points="842.3,-146.5 852.3,-143 842.3,-139.5 842.3,-146.5"/>
</a>
</g>
</g>
<!-- Node3 -->
<g id="Node000003" class="node">
<title>Node3</title>
<g id="a_Node000003"><a xlink:href="structxml__allocator.html#a103dfdec5c72cb955e2a97a61fdc9af1" target="_top" xlink:title=" ">
<polygon fill="white" stroke="#666666" points="668.75,-197 555.25,-197 555.25,-165 668.75,-165 668.75,-197"/>
<text xml:space="preserve" text-anchor="start" x="563.25" y="-183.5" font-family="Helvetica,sans-Serif" font-size="10.00">xml_allocator::allocate</text>
<text xml:space="preserve" text-anchor="middle" x="612" y="-171.5" font-family="Helvetica,sans-Serif" font-size="10.00">_object</text>
</a>
</g>
</g>
<!-- Node2&#45;&gt;Node3 -->
<g id="edge2_Node000002_Node000003" class="edge">
<title>Node2&#45;&gt;Node3</title>
<g id="a_edge2_Node000002_Node000003"><a xlink:title=" ">
<path fill="none" stroke="#63b8ff" d="M693.34,-160.3C685.21,-162.4 676.97,-164.52 669.03,-166.57"/>
<polygon fill="#63b8ff" stroke="#63b8ff" points="694.04,-163.74 702.85,-157.85 692.29,-156.96 694.04,-163.74"/>
</a>
</g>
</g>
<!-- Node12 -->
<g id="Node000012" class="node">
<title>Node12</title>
<g id="a_Node000012"><a xlink:href="structxml__allocator.html#a19732d75c0ba4b799d32a285fcb58027" target="_top" xlink:title=" ">
<polygon fill="white" stroke="#666666" points="668.75,-134 555.25,-134 555.25,-102 668.75,-102 668.75,-134"/>
<text xml:space="preserve" text-anchor="start" x="563.25" y="-120.5" font-family="Helvetica,sans-Serif" font-size="10.00">xml_allocator::allocate</text>
<text xml:space="preserve" text-anchor="middle" x="612" y="-108.5" font-family="Helvetica,sans-Serif" font-size="10.00">_string</text>
</a>
</g>
</g>
<!-- Node2&#45;&gt;Node12 -->
<g id="edge12_Node000002_Node000012" class="edge">
<title>Node2&#45;&gt;Node12</title>
<g id="a_edge12_Node000002_Node000012"><a xlink:title=" ">
<path fill="none" stroke="#63b8ff" d="M693.06,-131.57C685.02,-130.21 676.88,-128.83 669.03,-127.5"/>
<polygon fill="#63b8ff" stroke="#63b8ff" points="692.38,-135 702.82,-133.22 693.55,-128.1 692.38,-135"/>
</a>
</g>
</g>
<!-- Node4 -->
<g id="Node000004" class="node">
<title>Node4</title>
<g id="a_Node000004"><a xlink:href="pugixml_8cpp.html#a26ec349a881efb75dce214a92fd56842" target="_top" xlink:title=" ">
<polygon fill="white" stroke="#666666" points="519.25,-229 429,-229 429,-209 519.25,-209 519.25,-229"/>
<text xml:space="preserve" text-anchor="middle" x="474.12" y="-215.5" font-family="Helvetica,sans-Serif" font-size="10.00">allocate_attribute</text>
</a>
</g>
</g>
<!-- Node3&#45;&gt;Node4 -->
<g id="edge3_Node000003_Node000004" class="edge">
<title>Node3&#45;&gt;Node4</title>
<g id="a_edge3_Node000003_Node000004"><a xlink:title=" ">
<path fill="none" stroke="#63b8ff" d="M544.11,-199.71C533.21,-202.75 522.28,-205.81 512.44,-208.56"/>
<polygon fill="#63b8ff" stroke="#63b8ff" points="544.8,-203.15 553.49,-197.08 542.92,-196.41 544.8,-203.15"/>
</a>
</g>
</g>
<!-- Node10 -->
<g id="Node000010" class="node">
<title>Node10</title>
<g id="a_Node000010"><a xlink:href="pugixml_8cpp.html#adb3f2586fe1e65ad9a04c54dd7192d9a" target="_top" xlink:title=" ">
<polygon fill="white" stroke="#666666" points="512.12,-191 436.12,-191 436.12,-171 512.12,-171 512.12,-191"/>
<text xml:space="preserve" text-anchor="middle" x="474.12" y="-177.5" font-family="Helvetica,sans-Serif" font-size="10.00">allocate_node</text>
</a>
</g>
</g>
<!-- Node3&#45;&gt;Node10 -->
<g id="edge9_Node000003_Node000010" class="edge">
<title>Node3&#45;&gt;Node10</title>
<g id="a_edge9_Node000003_Node000010"><a xlink:title=" ">
<path fill="none" stroke="#63b8ff" d="M543.77,-181C532.99,-181 522.18,-181 512.44,-181"/>
<polygon fill="#63b8ff" stroke="#63b8ff" points="543.44,-184.5 553.44,-181 543.44,-177.5 543.44,-184.5"/>
</a>
</g>
</g>
<!-- Node5 -->
<g id="Node000005" class="node">
<title>Node5</title>
<g id="a_Node000005"><a xlink:href="pugixml_8cpp.html#aa4d1cd18410ae2f5008f74bd5fc8a387" target="_top" xlink:title=" ">
<polygon fill="white" stroke="#666666" points="393,-229 281.75,-229 281.75,-209 393,-209 393,-229"/>
<text xml:space="preserve" text-anchor="middle" x="337.38" y="-215.5" font-family="Helvetica,sans-Serif" font-size="10.00">append_new_attribute</text>
</a>
</g>
</g>
<!-- Node4&#45;&gt;Node5 -->
<g id="edge4_Node000004_Node000005" class="edge">
<title>Node4&#45;&gt;Node5</title>
<g id="a_edge4_Node000004_Node000005"><a xlink:title=" ">
<path fill="none" stroke="#63b8ff" d="M417.2,-219C409.25,-219 401.09,-219 393.16,-219"/>
<polygon fill="#63b8ff" stroke="#63b8ff" points="417.12,-222.5 427.12,-219 417.12,-215.5 417.12,-222.5"/>
</a>
</g>
</g>
<!-- Node6 -->
<g id="Node000006" class="node">
<title>Node6</title>
<g id="a_Node000006"><a xlink:href="pugixml_8cpp.html#a04264129af89281e0d73c01e7b4716bb" target="_top" xlink:title=" ">
<polygon fill="white" stroke="#666666" points="240.88,-229 134.88,-229 134.88,-209 240.88,-209 240.88,-229"/>
<text xml:space="preserve" text-anchor="middle" x="187.88" y="-215.5" font-family="Helvetica,sans-Serif" font-size="10.00">node_copy_contents</text>
</a>
</g>
</g>
<!-- Node5&#45;&gt;Node6 -->
<g id="edge5_Node000005_Node000006" class="edge">
<title>Node5&#45;&gt;Node6</title>
<g id="a_edge5_Node000005_Node000006"><a xlink:title=" ">
<path fill="none" stroke="#63b8ff" d="M270.09,-219C260.31,-219 250.35,-219 240.91,-219"/>
<polygon fill="#63b8ff" stroke="#63b8ff" points="269.94,-222.5 279.94,-219 269.94,-215.5 269.94,-222.5"/>
</a>
</g>
</g>
<!-- Node8 -->
<g id="Node000008" class="node">
<title>Node8</title>
<g id="a_Node000008"><a xlink:href="structxml__parser.html#a35bac90f1975aa1a9d5de4b60b761f16" target="_top" xlink:title=" ">
<polygon fill="white" stroke="#666666" points="245.75,-267 130,-267 130,-247 245.75,-247 245.75,-267"/>
<text xml:space="preserve" text-anchor="middle" x="187.88" y="-253.5" font-family="Helvetica,sans-Serif" font-size="10.00">xml_parser::parse_tree</text>
</a>
</g>
</g>
<!-- Node5&#45;&gt;Node8 -->
<g id="edge7_Node000005_Node000008" class="edge">
<title>Node5&#45;&gt;Node8</title>
<g id="a_edge7_Node000005_Node000008"><a xlink:title=" ">
<path fill="none" stroke="#63b8ff" d="M284.7,-232.31C266.58,-236.98 246.51,-242.15 229.44,-246.55"/>
<polygon fill="#63b8ff" stroke="#63b8ff" points="285.4,-235.75 294.21,-229.86 283.66,-228.97 285.4,-235.75"/>
</a>
</g>
</g>
<!-- Node7 -->
<g id="Node000007" class="node">
<title>Node7</title>
<g id="a_Node000007"><a xlink:href="pugixml_8cpp.html#a14949165ebd41eaf762dce303c0118a9" target="_top" xlink:title=" ">
<polygon fill="white" stroke="#666666" points="89.5,-210 4.5,-210 4.5,-190 89.5,-190 89.5,-210"/>
<text xml:space="preserve" text-anchor="middle" x="47" y="-196.5" font-family="Helvetica,sans-Serif" font-size="10.00">node_copy_tree</text>
</a>
</g>
</g>
<!-- Node6&#45;&gt;Node7 -->
<g id="edge6_Node000006_Node000007" class="edge">
<title>Node6&#45;&gt;Node7</title>
<g id="a_edge6_Node000006_Node000007"><a xlink:title=" ">
<path fill="none" stroke="#63b8ff" d="M123.52,-210.33C112.15,-208.78 100.57,-207.19 90,-205.75"/>
<polygon fill="#63b8ff" stroke="#63b8ff" points="122.89,-213.78 133.27,-211.67 123.84,-206.84 122.89,-213.78"/>
</a>
</g>
</g>
<!-- Node9 -->
<g id="Node000009" class="node">
<title>Node9</title>
<g id="a_Node000009"><a xlink:href="structxml__parser.html#a4bf0acd166edf3fc6cc9543002ff6f5d" target="_top" xlink:title=" ">
<polygon fill="white" stroke="#666666" points="94,-267 0,-267 0,-247 94,-247 94,-267"/>
<text xml:space="preserve" text-anchor="middle" x="47" y="-253.5" font-family="Helvetica,sans-Serif" font-size="10.00">xml_parser::parse</text>
</a>
</g>
</g>
<!-- Node8&#45;&gt;Node9 -->
<g id="edge8_Node000008_Node000009" class="edge">
<title>Node8&#45;&gt;Node9</title>
<g id="a_edge8_Node000008_Node000009"><a xlink:title=" ">
<path fill="none" stroke="#63b8ff" d="M118.14,-257C110.01,-257 101.86,-257 94.14,-257"/>
<polygon fill="#63b8ff" stroke="#63b8ff" points="118.07,-260.5 128.07,-257 118.07,-253.5 118.07,-260.5"/>
</a>
</g>
</g>
<!-- Node11 -->
<g id="Node000011" class="node">
<title>Node11</title>
<g id="a_Node000011"><a xlink:href="pugixml_8cpp.html#a6762031546d0bbd558c6301061c94f7a" target="_top" xlink:title=" ">
<polygon fill="white" stroke="#666666" points="236.38,-191 139.38,-191 139.38,-171 236.38,-171 236.38,-191"/>
<text xml:space="preserve" text-anchor="middle" x="187.88" y="-177.5" font-family="Helvetica,sans-Serif" font-size="10.00">append_new_node</text>
</a>
</g>
</g>
<!-- Node10&#45;&gt;Node11 -->
<g id="edge10_Node000010_Node000011" class="edge">
<title>Node10&#45;&gt;Node11</title>
<g id="a_edge10_Node000010_Node000011"><a xlink:title=" ">
<path fill="none" stroke="#63b8ff" d="M424.32,-181C371.86,-181 289,-181 236.86,-181"/>
<polygon fill="#63b8ff" stroke="#63b8ff" points="424.16,-184.5 434.16,-181 424.16,-177.5 424.16,-184.5"/>
</a>
</g>
</g>
<!-- Node11&#45;&gt;Node7 -->
<g id="edge11_Node000011_Node000007" class="edge">
<title>Node11&#45;&gt;Node7</title>
<g id="a_edge11_Node000011_Node000007"><a xlink:title=" ">
<path fill="none" stroke="#63b8ff" d="M127.99,-189.06C115.16,-190.81 101.85,-192.63 89.85,-194.27"/>
<polygon fill="#63b8ff" stroke="#63b8ff" points="128.15,-192.57 137.58,-187.74 127.2,-185.63 128.15,-192.57"/>
</a>
</g>
</g>
<!-- Node13 -->
<g id="Node000013" class="node">
<title>Node13</title>
<g id="a_Node000013"><a xlink:href="pugixml_8cpp.html#a6acbb945c483e413572aadd55a2c8712" target="_top" xlink:title=" ">
<polygon fill="white" stroke="#666666" points="509.88,-115 438.38,-115 438.38,-95 509.88,-95 509.88,-115"/>
<text xml:space="preserve" text-anchor="middle" x="474.12" y="-101.5" font-family="Helvetica,sans-Serif" font-size="10.00">strcpy_insitu</text>
</a>
</g>
</g>
<!-- Node12&#45;&gt;Node13 -->
<g id="edge13_Node000012_Node000013" class="edge">
<title>Node12&#45;&gt;Node13</title>
<g id="a_edge13_Node000012_Node000013"><a xlink:title=" ">
<path fill="none" stroke="#63b8ff" d="M543.8,-111.57C532.12,-110.45 520.41,-109.33 510.05,-108.34"/>
<polygon fill="#63b8ff" stroke="#63b8ff" points="543.16,-115.02 553.44,-112.49 543.82,-108.06 543.16,-115.02"/>
</a>
</g>
</g>
<!-- Node14 -->
<g id="Node000014" class="node">
<title>Node14</title>
<g id="a_Node000014"><a xlink:href="pugixml_8cpp.html#aee4bcdb425d825a33564649ece0a4b31" target="_top" xlink:title=" ">
<polygon fill="white" stroke="#666666" points="383.62,-153 291.12,-153 291.12,-133 383.62,-133 383.62,-153"/>
<text xml:space="preserve" text-anchor="middle" x="337.38" y="-139.5" font-family="Helvetica,sans-Serif" font-size="10.00">node_copy_string</text>
</a>
</g>
</g>
<!-- Node13&#45;&gt;Node14 -->
<g id="edge14_Node000013_Node000014" class="edge">
<title>Node13&#45;&gt;Node14</title>
<g id="a_edge14_Node000013_Node000014"><a xlink:title=" ">
<path fill="none" stroke="#63b8ff" d="M427.25,-117.94C410.25,-122.73 391.22,-128.1 375.13,-132.63"/>
<polygon fill="#63b8ff" stroke="#63b8ff" points="427.94,-121.38 436.62,-115.3 426.04,-114.64 427.94,-121.38"/>
</a>
</g>
</g>
<!-- Node16 -->
<g id="Node000016" class="node">
<title>Node16</title>
<g id="a_Node000016"><a xlink:href="pugixml_8cpp.html#add59ae346f2993be95cf7b56903ec676" target="_top" xlink:title=" ">
<polygon fill="white" stroke="#666666" points="379.12,-39 295.62,-39 295.62,-19 379.12,-19 379.12,-39"/>
<text xml:space="preserve" text-anchor="middle" x="337.38" y="-25.5" font-family="Helvetica,sans-Serif" font-size="10.00">set_value_ascii</text>
</a>
</g>
</g>
<!-- Node13&#45;&gt;Node16 -->
<g id="edge17_Node000013_Node000016" class="edge">
<title>Node13&#45;&gt;Node16</title>
<g id="a_edge17_Node000013_Node000016"><a xlink:title=" ">
<path fill="none" stroke="#63b8ff" d="M452.02,-87.45C436.45,-75.16 414.36,-59.02 393,-48 386.75,-44.78 379.84,-41.89 373.09,-39.41"/>
<polygon fill="#63b8ff" stroke="#63b8ff" points="449.64,-90.03 459.63,-93.58 454.03,-84.58 449.64,-90.03"/>
</a>
</g>
</g>
<!-- Node19 -->
<g id="Node000019" class="node">
<title>Node19</title>
<g id="a_Node000019"><a xlink:href="pugixml_8cpp.html#ad084c2ba3b0385b65a3c50b12146fa36" target="_top" xlink:title=" ">
<polygon fill="white" stroke="#666666" points="378,-115 296.75,-115 296.75,-95 378,-95 378,-115"/>
<text xml:space="preserve" text-anchor="middle" x="337.38" y="-101.5" font-family="Helvetica,sans-Serif" font-size="10.00">set_value_bool</text>
</a>
</g>
</g>
<!-- Node13&#45;&gt;Node19 -->
<g id="edge20_Node000013_Node000019" class="edge">
<title>Node13&#45;&gt;Node19</title>
<g id="a_edge20_Node000013_Node000019"><a xlink:title=" ">
<path fill="none" stroke="#63b8ff" d="M426.96,-105C411.21,-105 393.73,-105 378.5,-105"/>
<polygon fill="#63b8ff" stroke="#63b8ff" points="426.56,-108.5 436.56,-105 426.56,-101.5 426.56,-108.5"/>
</a>
</g>
</g>
<!-- Node20 -->
<g id="Node000020" class="node">
<title>Node20</title>
<g id="a_Node000020"><a xlink:href="pugixml_8cpp.html#a4b9ba5312f3cfa08fba37205484fc91d" target="_top" xlink:title=" ">
<polygon fill="white" stroke="#666666" points="383.62,-77 291.12,-77 291.12,-57 383.62,-57 383.62,-77"/>
<text xml:space="preserve" text-anchor="middle" x="337.38" y="-63.5" font-family="Helvetica,sans-Serif" font-size="10.00">set_value_integer</text>
</a>
</g>
</g>
<!-- Node13&#45;&gt;Node20 -->
<g id="edge21_Node000013_Node000020" class="edge">
<title>Node13&#45;&gt;Node20</title>
<g id="a_edge21_Node000013_Node000020"><a xlink:title=" ">
<path fill="none" stroke="#63b8ff" d="M427.25,-92.06C410.25,-87.27 391.22,-81.9 375.13,-77.37"/>
<polygon fill="#63b8ff" stroke="#63b8ff" points="426.04,-95.36 436.62,-94.7 427.94,-88.62 426.04,-95.36"/>
</a>
</g>
</g>
<!-- Node14&#45;&gt;Node6 -->
<g id="edge16_Node000014_Node000006" class="edge">
<title>Node14&#45;&gt;Node6</title>
<g id="a_edge16_Node000014_Node000006"><a xlink:title=" ">
<path fill="none" stroke="#63b8ff" d="M312.95,-159.93C295.16,-172.23 269.74,-188.65 245.75,-200 239.07,-203.16 231.72,-206.03 224.58,-208.53"/>
<polygon fill="#63b8ff" stroke="#63b8ff" points="314.83,-162.89 321,-154.27 310.8,-157.16 314.83,-162.89"/>
</a>
</g>
</g>
<!-- Node15 -->
<g id="Node000015" class="node">
<title>Node15</title>
<g id="a_Node000015"><a xlink:href="pugixml_8cpp.html#aa393963791df0fe1b8bfe3829637bfbf" target="_top" xlink:title=" ">
<polygon fill="white" stroke="#666666" points="239.75,-153 136,-153 136,-133 239.75,-133 239.75,-153"/>
<text xml:space="preserve" text-anchor="middle" x="187.88" y="-139.5" font-family="Helvetica,sans-Serif" font-size="10.00">node_copy_attribute</text>
</a>
</g>
</g>
<!-- Node14&#45;&gt;Node15 -->
<g id="edge15_Node000014_Node000015" class="edge">
<title>Node14&#45;&gt;Node15</title>
<g id="a_edge15_Node000014_Node000015"><a xlink:title=" ">
<path fill="none" stroke="#63b8ff" d="M279.7,-143C266.67,-143 252.89,-143 240.11,-143"/>
<polygon fill="#63b8ff" stroke="#63b8ff" points="279.4,-146.5 289.4,-143 279.4,-139.5 279.4,-146.5"/>
</a>
</g>
</g>
<!-- Node17 -->
<g id="Node000017" class="node">
<title>Node17</title>
<g id="a_Node000017"><a xlink:href="pugixml_8cpp.html#a1c25c237dad556a4905806d70ed107f3" target="_top" xlink:title=" ">
<polygon fill="white" stroke="#666666" points="235.62,-58 140.12,-58 140.12,-38 235.62,-38 235.62,-58"/>
<text xml:space="preserve" text-anchor="middle" x="187.88" y="-44.5" font-family="Helvetica,sans-Serif" font-size="10.00">set_value_convert</text>
</a>
</g>
</g>
<!-- Node16&#45;&gt;Node17 -->
<g id="edge18_Node000016_Node000017" class="edge">
<title>Node16&#45;&gt;Node17</title>
<g id="a_edge18_Node000016_Node000017"><a xlink:title=" ">
<path fill="none" stroke="#63b8ff" d="M284.16,-35.73C268.46,-37.75 251.33,-39.95 235.99,-41.93"/>
<polygon fill="#63b8ff" stroke="#63b8ff" points="284.32,-39.23 293.79,-34.49 283.42,-32.29 284.32,-39.23"/>
</a>
</g>
</g>
<!-- Node18 -->
<g id="Node000018" class="node">
<title>Node18</title>
<g id="a_Node000018"><a xlink:href="pugixml_8cpp.html#a7548c736894a21eda85551af5f2bafed" target="_top" xlink:title=" ">
<polygon fill="white" stroke="#666666" points="235.62,-20 140.12,-20 140.12,0 235.62,0 235.62,-20"/>
<text xml:space="preserve" text-anchor="middle" x="187.88" y="-6.5" font-family="Helvetica,sans-Serif" font-size="10.00">set_value_convert</text>
</a>
</g>
</g>
<!-- Node16&#45;&gt;Node18 -->
<g id="edge19_Node000016_Node000018" class="edge">
<title>Node16&#45;&gt;Node18</title>
<g id="a_edge19_Node000016_Node000018"><a xlink:title=" ">
<path fill="none" stroke="#63b8ff" d="M284.16,-22.27C268.46,-20.25 251.33,-18.05 235.99,-16.07"/>
<polygon fill="#63b8ff" stroke="#63b8ff" points="283.42,-25.71 293.79,-23.51 284.32,-18.77 283.42,-25.71"/>
</a>
</g>
</g>
</g>
</svg>
