<?xml version="1.0" encoding="UTF-8" standalone="no"?>
<!DOCTYPE svg PUBLIC "-//W3C//DTD SVG 1.1//EN"
 "http://www.w3.org/Graphics/SVG/1.1/DTD/svg11.dtd">
<!-- Generated by graphviz version 14.1.2 (20260124.0452)
 -->
<!-- Title: xml_memory_page Pages: 1 -->
<svg width="149pt" height="116pt"
 viewBox="0.00 0.00 149.00 116.00" xmlns="http://www.w3.org/2000/svg" xmlns:xlink="http://www.w3.org/1999/xlink">
<g id="graph0" class="graph" transform="scale(1 1) rotate(0) translate(4 112)">
<title>xml_memory_page</title>
<!-- Node1 -->
<g id="Node000001" class="node">
<title>Node1</title>
<g id="a_Node000001"><a xlink:title=" ">
<polygon fill="#999999" stroke="#666666" points="98.5,-101 0,-101 0,-81 98.5,-81 98.5,-101"/>
<text xml:space="preserve" text-anchor="middle" x="49.25" y="-87.5" font-family="Helvetica,sans-Serif" font-size="10.00">xml_memory_page</text>
</a>
</g>
</g>
<!-- Node1&#45;&gt;Node1 -->
<g id="edge3_Node000001_Node000001" class="edge">
<title>Node1&#45;&gt;Node1</title>
<g id="a_edge3_Node000001_Node000001"><a xlink:title=" ">
<path fill="none" stroke="#9a32cd" stroke-dasharray="5,2" d="M109.95,-96.93C114.03,-95.56 116.5,-93.58 116.5,-91 116.5,-86.53 109.1,-83.88 98.81,-83.04"/>
<polygon fill="#9a32cd" stroke="#9a32cd" points="109.51,-93.45 100.3,-98.69 110.77,-100.34 109.51,-93.45"/>
</a>
</g>
<text xml:space="preserve" text-anchor="start" x="119.5" y="-95.5" font-family="Helvetica,sans-Serif" font-size="10.00" fill="grey">next</text>
<text xml:space="preserve" text-anchor="start" x="119.5" y="-79.5" font-family="Helvetica,sans-Serif" font-size="10.00" fill="grey">prev</text>
</g>
<!-- Node2 -->
<g id="Node000002" class="node">
<title>Node2</title>
<g id="a_Node000002"><a xlink:href="structxml__allocator.html" target="_top" xlink:title=" ">
<polygon fill="white" stroke="#666666" points="86.12,-20 12.38,-20 12.38,0 86.12,0 86.12,-20"/>
<text xml:space="preserve" text-anchor="middle" x="49.25" y="-6.5" font-family="Helvetica,sans-Serif" font-size="10.00">xml_allocator</text>
</a>
</g>
</g>
<!-- Node1&#45;&gt;Node2 -->
<g id="edge2_Node000002_Node000001" class="edge">
<title>Node1&#45;&gt;Node2</title>
<g id="a_edge2_Node000002_Node000001"><a xlink:title=" ">
<path fill="none" stroke="#9a32cd" stroke-dasharray="5,2" d="M31.07,-72.33C27.17,-67.44 23.59,-61.86 21.5,-56 18.82,-48.46 18.39,-45.37 21.5,-38 24.43,-31.06 30.11,-25.03 35.57,-20.43"/>
<polygon fill="#9a32cd" stroke="#9a32cd" points="28.37,-74.55 37.67,-79.62 33.56,-69.86 28.37,-74.55"/>
</a>
</g>
<text xml:space="preserve" text-anchor="start" x="24.5" y="-43.5" font-family="Helvetica,sans-Serif" font-size="10.00" fill="grey">_root</text>
</g>
<!-- Node2&#45;&gt;Node1 -->
<g id="edge1_Node000001_Node000002" class="edge">
<title>Node2&#45;&gt;Node1</title>
<g id="a_edge1_Node000001_Node000002"><a xlink:title=" ">
<path fill="none" stroke="#9a32cd" stroke-dasharray="5,2" d="M52.64,-31.81C52.89,-33.89 53.1,-35.99 53.25,-38 54.35,-52.99 52.34,-70.4 50.8,-80.8"/>
<polygon fill="#9a32cd" stroke="#9a32cd" points="56.12,-31.35 51.22,-21.96 49.19,-32.36 56.12,-31.35"/>
</a>
</g>
<text xml:space="preserve" text-anchor="start" x="56.57" y="-43.5" font-family="Helvetica,sans-Serif" font-size="10.00" fill="grey">allocator</text>
</g>
</g>
</svg>
