<?xml version="1.0" encoding="UTF-8" standalone="no"?>
<!DOCTYPE svg PUBLIC "-//W3C//DTD SVG 1.1//EN"
 "http://www.w3.org/Graphics/SVG/1.1/DTD/svg11.dtd">
<!-- Generated by graphviz version 14.1.2 (20260124.0452)
 -->
<!-- Title: xml_document_struct Pages: 1 -->
<svg width="382pt" height="116pt"
 viewBox="0.00 0.00 382.00 116.00" xmlns="http://www.w3.org/2000/svg" xmlns:xlink="http://www.w3.org/1999/xlink">

<svg id="main" version="1.1" xmlns="http://www.w3.org/2000/svg" xmlns:xlink="http://www.w3.org/1999/xlink" xml:space="preserve">

<style type="text/css"><![CDATA[
.node, .edge {opacity: 0.7;}
.node.selected, .edge.selected {opacity: 1;}
.edge:hover path { stroke: red; }
.edge:hover polygon { stroke: red; fill: red; }
]]></style>
<script type="application/ecmascript" xlink:href="svg.min.js"/>
<svg id="graph" class="graph">
<g id="graph0" class="graph" transform="scale(1 1) rotate(0) translate(4 112)">
<title>xml_document_struct</title>
<!-- Node1 -->
<g id="Node000001" class="node">
<title>Node1</title>
<g id="a_Node000001"><a xlink:title=" ">
<polygon fill="#999999" stroke="#666666" points="204.88,-27 95.12,-27 95.12,-7 204.88,-7 204.88,-27"/>
<text xml:space="preserve" text-anchor="middle" x="150" y="-13.5" font-family="Helvetica,sans-Serif" font-size="10.00">xml_document_struct</text>
</a>
</g>
</g>
<!-- Node2 -->
<g id="Node000002" class="node">
<title>Node2</title>
<g id="a_Node000002"><a xlink:title=" ">
<polygon fill="white" stroke="#666666" points="88,-108 0,-108 0,-88 88,-88 88,-108"/>
<text xml:space="preserve" text-anchor="middle" x="44" y="-94.5" font-family="Helvetica,sans-Serif" font-size="10.00">xml_node_struct</text>
</a>
</g>
</g>
<!-- Node2&#45;&gt;Node1 -->
<g id="edge1_Node000001_Node000002" class="edge">
<title>Node2&#45;&gt;Node1</title>
<g id="a_edge1_Node000001_Node000002"><a xlink:title=" ">
<path fill="none" stroke="#63b8ff" d="M65.65,-80.86C87.27,-64.75 119.76,-40.54 137.44,-27.36"/>
<polygon fill="#63b8ff" stroke="#63b8ff" points="63.72,-77.94 57.79,-86.72 67.9,-83.55 63.72,-77.94"/>
</a>
</g>
</g>
<!-- Node3 -->
<g id="Node000003" class="node">
<title>Node3</title>
<g id="a_Node000003"><a xlink:href="structxml__allocator.html" target="_top" xlink:title=" ">
<polygon fill="white" stroke="#666666" points="328.88,-108 255.12,-108 255.12,-88 328.88,-88 328.88,-108"/>
<text xml:space="preserve" text-anchor="middle" x="292" y="-94.5" font-family="Helvetica,sans-Serif" font-size="10.00">xml_allocator</text>
</a>
</g>
</g>
<!-- Node3&#45;&gt;Node1 -->
<g id="edge2_Node000001_Node000003" class="edge">
<title>Node3&#45;&gt;Node1</title>
<g id="a_edge2_Node000001_Node000003"><a xlink:title=" ">
<path fill="none" stroke="#63b8ff" d="M267.29,-81.87C252.53,-72.96 233.34,-61.59 216,-52 200.32,-43.33 182.21,-34.05 168.93,-27.38"/>
<polygon fill="#63b8ff" stroke="#63b8ff" points="265.07,-84.61 275.43,-86.81 268.7,-78.63 265.07,-84.61"/>
</a>
</g>
</g>
<!-- Node4 -->
<g id="Node000004" class="node">
<title>Node4</title>
<g id="a_Node000004"><a xlink:href="structxml__memory__page.html" target="_top" xlink:title=" ">
<polygon fill="white" stroke="#666666" points="331.25,-27 232.75,-27 232.75,-7 331.25,-7 331.25,-27"/>
<text xml:space="preserve" text-anchor="middle" x="282" y="-13.5" font-family="Helvetica,sans-Serif" font-size="10.00">xml_memory_page</text>
</a>
</g>
</g>
<!-- Node3&#45;&gt;Node4 -->
<g id="edge4_Node000004_Node000003" class="edge">
<title>Node3&#45;&gt;Node4</title>
<g id="a_edge4_Node000004_Node000003"><a xlink:title=" ">
<path fill="none" stroke="#9a32cd" stroke-dasharray="5,2" d="M275.59,-78.8C273.82,-76.01 272.28,-73.04 271.25,-70 266.33,-55.51 272.31,-37.95 277.12,-27.39"/>
<polygon fill="#9a32cd" stroke="#9a32cd" points="272.8,-80.92 281.67,-86.72 278.35,-76.66 272.8,-80.92"/>
</a>
</g>
<text xml:space="preserve" text-anchor="start" x="274.25" y="-57.5" font-family="Helvetica,sans-Serif" font-size="10.00" fill="grey">allocator</text>
</g>
<!-- Node4&#45;&gt;Node3 -->
<g id="edge3_Node000003_Node000004" class="edge">
<title>Node4&#45;&gt;Node3</title>
<g id="a_edge3_Node000003_Node000004"><a xlink:title=" ">
<path fill="none" stroke="#9a32cd" stroke-dasharray="5,2" d="M305.42,-34.8C310.51,-39.71 315.21,-45.53 318,-52 321.17,-59.35 320.99,-62.58 318,-70 315.23,-76.88 309.77,-82.99 304.56,-87.64"/>
<polygon fill="#9a32cd" stroke="#9a32cd" points="307.77,-32.21 297.89,-28.4 303.24,-37.54 307.77,-32.21"/>
</a>
</g>
<text xml:space="preserve" text-anchor="start" x="323.31" y="-57.5" font-family="Helvetica,sans-Serif" font-size="10.00" fill="grey">_root</text>
</g>
<!-- Node4&#45;&gt;Node4 -->
<g id="edge5_Node000004_Node000004" class="edge">
<title>Node4&#45;&gt;Node4</title>
<g id="a_edge5_Node000004_Node000004"><a xlink:title=" ">
<path fill="none" stroke="#9a32cd" stroke-dasharray="5,2" d="M342.7,-22.93C346.78,-21.56 349.25,-19.58 349.25,-17 349.25,-12.53 341.85,-9.88 331.56,-9.04"/>
<polygon fill="#9a32cd" stroke="#9a32cd" points="342.26,-19.45 333.05,-24.69 343.52,-26.34 342.26,-19.45"/>
</a>
</g>
<text xml:space="preserve" text-anchor="start" x="352.25" y="-21.5" font-family="Helvetica,sans-Serif" font-size="10.00" fill="grey">next</text>
<text xml:space="preserve" text-anchor="start" x="352.25" y="-5.5" font-family="Helvetica,sans-Serif" font-size="10.00" fill="grey">prev</text>
</g>
<!-- Node5 -->
<g id="Node000005" class="node">
<title>Node5</title>
<g id="a_Node000005"><a xlink:href="structxml__extra__buffer.html" target="_top" xlink:title=" ">
<polygon fill="white" stroke="#666666" points="194,-108 106,-108 106,-88 194,-88 194,-108"/>
<text xml:space="preserve" text-anchor="middle" x="150" y="-94.5" font-family="Helvetica,sans-Serif" font-size="10.00">xml_extra_buffer</text>
</a>
</g>
</g>
<!-- Node5&#45;&gt;Node1 -->
<g id="edge6_Node000001_Node000005" class="edge">
<title>Node5&#45;&gt;Node1</title>
<g id="a_edge6_Node000001_Node000005"><a xlink:title=" ">
<path fill="none" stroke="#9a32cd" stroke-dasharray="5,2" d="M150,-76.32C150,-60.48 150,-39.35 150,-27.36"/>
<polygon fill="#9a32cd" stroke="#9a32cd" points="146.5,-76.11 150,-86.11 153.5,-76.11 146.5,-76.11"/>
</a>
</g>
<text xml:space="preserve" text-anchor="start" x="153" y="-57.5" font-family="Helvetica,sans-Serif" font-size="10.00" fill="grey">extra_buffers</text>
</g>
<!-- Node5&#45;&gt;Node5 -->
<g id="edge7_Node000005_Node000005" class="edge">
<title>Node5&#45;&gt;Node5</title>
<g id="a_edge7_Node000005_Node000005"><a xlink:title=" ">
<path fill="none" stroke="#9a32cd" stroke-dasharray="5,2" d="M205.41,-103.15C209.5,-101.99 212,-100.28 212,-98 212,-94.06 204.51,-91.8 194.31,-91.22"/>
<polygon fill="#9a32cd" stroke="#9a32cd" points="205.19,-99.64 195.8,-104.56 206.21,-106.57 205.19,-99.64"/>
</a>
</g>
<text xml:space="preserve" text-anchor="start" x="215" y="-94.5" font-family="Helvetica,sans-Serif" font-size="10.00" fill="grey">next</text>
</g>
</g>
</svg>
</svg>

<style type='text/css'>
<![CDATA[
[data-mouse-over-selected='false'] { opacity: 0.7; }
[data-mouse-over-selected='true']  { opacity: 1.0; }
]]>
</style>
<script type="application/ecmascript"><![CDATA[
document.addEventListener('DOMContentLoaded', (event) => {
  highlightEdges();
  highlightAdjacentNodes();
});
]]></script>
</svg>
