<?xml version="1.0" encoding="UTF-8" standalone="no"?>
<!DOCTYPE svg PUBLIC "-//W3C//DTD SVG 1.1//EN"
 "http://www.w3.org/Graphics/SVG/1.1/DTD/svg11.dtd">
<!-- Generated by graphviz version 14.1.2 (20260124.0452)
 -->
<!-- Title: document_order_comparator::operator() Pages: 1 -->
<svg width="450pt" height="66pt"
 viewBox="0.00 0.00 450.00 66.00" xmlns="http://www.w3.org/2000/svg" xmlns:xlink="http://www.w3.org/1999/xlink">

<svg id="main" version="1.1" xmlns="http://www.w3.org/2000/svg" xmlns:xlink="http://www.w3.org/1999/xlink" xml:space="preserve">

<style type="text/css"><![CDATA[
.node, .edge {opacity: 0.7;}
.node.selected, .edge.selected {opacity: 1;}
.edge:hover path { stroke: red; }
.edge:hover polygon { stroke: red; fill: red; }
]]></style>
<script type="application/ecmascript" xlink:href="svg.min.js"/>
<svg id="graph" class="graph">
<g id="graph0" class="graph" transform="scale(1 1) rotate(0) translate(4 62)">
<title>document_order_comparator::operator()</title>
<!-- Node1 -->
<g id="Node000001" class="node">
<title>Node1</title>
<g id="a_Node000001"><a xlink:title=" ">
<polygon fill="#999999" stroke="#666666" points="139.75,-45 0,-45 0,-13 139.75,-13 139.75,-45"/>
<text xml:space="preserve" text-anchor="start" x="8" y="-31.5" font-family="Helvetica,sans-Serif" font-size="10.00">document_order_comparator</text>
<text xml:space="preserve" text-anchor="middle" x="69.88" y="-19.5" font-family="Helvetica,sans-Serif" font-size="10.00">::operator()</text>
</a>
</g>
</g>
<!-- Node2 -->
<g id="Node000002" class="node">
<title>Node2</title>
<g id="a_Node000002"><a xlink:href="pugixml_8cpp.html#a9b41b99462a4a15ee7a6f42fdb2b20cb" target="_top" xlink:title=" ">
<polygon fill="white" stroke="#666666" points="290.75,-58 175.75,-58 175.75,-38 290.75,-38 290.75,-58"/>
<text xml:space="preserve" text-anchor="middle" x="233.25" y="-44.5" font-family="Helvetica,sans-Serif" font-size="10.00">document_buffer_order</text>
</a>
</g>
</g>
<!-- Node1&#45;&gt;Node2 -->
<g id="edge1_Node000001_Node000002" class="edge">
<title>Node1&#45;&gt;Node2</title>
<g id="a_edge1_Node000001_Node000002"><a xlink:title=" ">
<path fill="none" stroke="#63b8ff" d="M140.25,-37.17C148.17,-38.1 156.24,-39.05 164.14,-39.98"/>
<polygon fill="#63b8ff" stroke="#63b8ff" points="163.72,-43.46 174.06,-41.15 164.54,-36.5 163.72,-43.46"/>
</a>
</g>
</g>
<!-- Node4 -->
<g id="Node000004" class="node">
<title>Node4</title>
<g id="a_Node000004"><a xlink:href="pugixml_8cpp.html#a0d4ff2f108c20aa727cab26899108589" target="_top" xlink:title=" ">
<polygon fill="white" stroke="#666666" points="274.25,-20 192.25,-20 192.25,0 274.25,0 274.25,-20"/>
<text xml:space="preserve" text-anchor="middle" x="233.25" y="-6.5" font-family="Helvetica,sans-Serif" font-size="10.00">node_is_before</text>
</a>
</g>
</g>
<!-- Node1&#45;&gt;Node4 -->
<g id="edge3_Node000001_Node000004" class="edge">
<title>Node1&#45;&gt;Node4</title>
<g id="a_edge3_Node000001_Node000004"><a xlink:title=" ">
<path fill="none" stroke="#63b8ff" d="M140.25,-20.83C153.72,-19.25 167.62,-17.61 180.41,-16.1"/>
<polygon fill="#63b8ff" stroke="#63b8ff" points="180.78,-19.58 190.3,-14.94 179.96,-12.63 180.78,-19.58"/>
</a>
</g>
</g>
<!-- Node3 -->
<g id="Node000003" class="node">
<title>Node3</title>
<g id="a_Node000003"><a xlink:href="pugixml_8cpp.html#a39a57678ab5ec808e3ea7ae40392af22" target="_top" xlink:title=" ">
<polygon fill="white" stroke="#666666" points="423,-58 345.5,-58 345.5,-38 423,-38 423,-58"/>
<text xml:space="preserve" text-anchor="middle" x="384.25" y="-44.5" font-family="Helvetica,sans-Serif" font-size="10.00">get_document</text>
</a>
</g>
</g>
<!-- Node2&#45;&gt;Node3 -->
<g id="edge2_Node000002_Node000003" class="edge">
<title>Node2&#45;&gt;Node3</title>
<g id="a_edge2_Node000002_Node000003"><a xlink:title=" ">
<path fill="none" stroke="#63b8ff" d="M291.01,-48C305.14,-48 320.18,-48 333.93,-48"/>
<polygon fill="#63b8ff" stroke="#63b8ff" points="333.6,-51.5 343.6,-48 333.6,-44.5 333.6,-51.5"/>
</a>
</g>
</g>
<!-- Node5 -->
<g id="Node000005" class="node">
<title>Node5</title>
<g id="a_Node000005"><a xlink:href="pugixml_8cpp.html#ae1d5307d5b910fd88ec35316e6739115" target="_top" xlink:title=" ">
<polygon fill="white" stroke="#666666" points="441.75,-20 326.75,-20 326.75,0 441.75,0 441.75,-20"/>
<text xml:space="preserve" text-anchor="middle" x="384.25" y="-6.5" font-family="Helvetica,sans-Serif" font-size="10.00">node_is_before_sibling</text>
</a>
</g>
</g>
<!-- Node4&#45;&gt;Node5 -->
<g id="edge4_Node000004_Node000005" class="edge">
<title>Node4&#45;&gt;Node5</title>
<g id="a_edge4_Node000004_Node000005"><a xlink:title=" ">
<path fill="none" stroke="#63b8ff" d="M274.57,-10C287.03,-10 301.11,-10 314.91,-10"/>
<polygon fill="#63b8ff" stroke="#63b8ff" points="314.88,-13.5 324.88,-10 314.88,-6.5 314.88,-13.5"/>
</a>
</g>
</g>
</g>
</svg>
</svg>

<style type='text/css'>
<![CDATA[
[data-mouse-over-selected='false'] { opacity: 0.7; }
[data-mouse-over-selected='true']  { opacity: 1.0; }
]]>
</style>
<script type="application/ecmascript"><![CDATA[
document.addEventListener('DOMContentLoaded', (event) => {
  highlightEdges();
  highlightAdjacentNodes();
});
]]></script>
</svg>
